<svg width="20" height="14" viewBox="0 0 20 14" fill="none" xmlns="http://www.w3.org/2000/svg">
<path d="M5.1 5.8C5.3 5.8 5.4 5.8 5.6 5.8H5.7C6.4 5.8 7 5.4 7.5 4.9C8 4.3 8.3 3.6 8.3 2.8C8.3 2 8 1.3 7.4 0.8C6.9 0.3 6.1 0 5.4 0C4.7 0 3.9 0.3 3.4 0.8C2.9 1.3 2.5 2 2.5 2.8C2.5 3.6 2.7 4.3 3.3 4.9C3.7 5.4 4.3 5.8 5.1 5.8Z" fill="#C4C4C4"/>
<path d="M8 7.4998C7.3 7.0998 6.5 6.8998 5.7 6.7998C5.7 6.7998 5.7 6.7998 5.6 6.7998H5.5H5.1H5C3.9 6.8998 2.7 7.3998 1.8 8.0998C0.9 8.8998 0.3 9.9998 0.1 11.1998C0 11.4998 0 11.6998 0 11.9998V12.0998C0 12.2998 0.1 12.3998 0.2 12.4998C0.6 12.7998 1.2 13.0998 2.1 13.2998C4 13.7998 6.7 13.7998 8.7 13.2998C9.4 13.0998 10 12.8998 10.4 12.5998L10.7 12.3998C10.7 12.3998 10.8 12.2998 10.8 12.1998V12.0998C10.7 10.9998 10.4 9.9998 9.9 9.0998C9.3 8.3998 8.7 7.8998 8 7.4998Z" fill="#C4C4C4"/>
<path d="M19.9 11.1999C19.8 10.4999 19.5 9.7999 19.1 9.1999C19.1 9.1999 19.1 9.0999 19 9.0999C18.5 8.3999 17.9 7.8999 17.2 7.4999C16.5 7.0999 15.7 6.8999 14.8 6.8999C14.7 6.8999 14.5 6.8999 14.4 6.8999C13.2 6.8999 12 7.3999 11.1 8.1999C10.9 8.3999 10.7 8.6999 10.7 8.6999C11.2 9.3999 11.5 10.1999 11.7 11.0999C11.8 11.3999 11.8 11.7999 11.8 12.0999C11.8 12.2999 11.8 12.3999 11.8 12.5999L11.7 12.7999C11.5 13.1999 11.3 13.2999 11.3 13.2999C12.2 13.4999 13.4 13.6999 14.7 13.6999C17.3 13.6999 19.2 13.0999 19.8 12.5999C19.9 12.4999 20 12.3999 20 12.3999C20 12.2999 20 12.2999 20 12.1999C20 11.7999 20 11.4999 19.9 11.1999Z" fill="#C4C4C4"/>
<path d="M14.4 5.9C14.5 5.9 14.7 5.9 14.8 5.9C15.6 5.8 16.3 5.5 16.8 4.9C17.3 4.3 17.6 3.6 17.6 2.8C17.6 2 17.3 1.3 16.7 0.8C16.2 0.3 15.4 0 14.7 0C14 0 13.2 0.3 12.7 0.8C12.2 1.3 11.8 2 11.8 2.8C11.8 3.6 12 4.3 12.6 4.9C13 5.5 13.7 5.8 14.4 5.9Z" fill="#C4C4C4"/>
</svg>
