<svg width="101" height="80" viewBox="0 0 101 80" fill="none" xmlns="http://www.w3.org/2000/svg">
<path d="M77.3301 43.2511L53.9463 67.2915L51.6203 76.9998L60.9861 74.6878L84.3699 50.6474M77.3301 43.2511L84.3699 50.6474M77.3301 43.2511L80.85 39.5529C81.5205 39.0246 83.1631 38.2849 84.3699 39.5529C85.5767 40.8208 87.387 42.7228 88.3926 43.7794C88.7279 44.3077 89.1972 45.5756 88.3926 46.4209C87.5881 47.2662 85.5432 49.7669 84.3699 50.6474" stroke="#FF6819" stroke-width="3"/>
<path d="M62.4671 24.1481L49.7592 50.2023L50.4586 58.8256L57.5119 54.4217L70.2198 28.3675M62.4671 24.1481L70.2198 28.3675M62.4671 24.1481L64.3587 20.1608C64.7662 19.5465 65.9136 18.4986 67.2426 19.222C68.5717 19.9453 70.5652 21.0303 71.6728 21.633C72.0892 21.9791 72.814 22.8991 72.3816 23.8105C71.9493 24.7219 70.9449 27.3287 70.2198 28.3675" stroke="#FF6819" stroke-width="3"/>
<path d="M19.6895 30.7959L28.9455 63.145L36.2425 70.0441L38.9114 60.7687L29.6553 28.4196M19.6895 30.7959L29.6553 28.4196M19.6895 30.7959L18.227 25.8865C18.1019 25.04 18.2788 23.2451 19.9872 22.8378C21.6956 22.4304 24.2583 21.8194 25.682 21.4799C26.31 21.4553 27.6496 21.6868 27.9839 22.8089C28.3182 23.9311 29.4748 26.9604 29.6553 28.4196" stroke="#FF6819" stroke-width="3"/>
<path d="M36.7337 66.7651L33.9424 67.3234L36.1754 69.5564L36.7337 66.7651Z" fill="#FF6819"/>
<path d="M52.9964 56.4936L50.4666 54.913L50.5644 58.2209L52.9964 56.4936Z" fill="#FF6819"/>
<path d="M55.5675 75.3437L53.2673 72.454L52.0154 76.3555L55.5675 75.3437Z" fill="#FF6819"/>
<path d="M58.1332 52.8091L50.6899 49.0874" stroke="#FF6819" stroke-width="3"/>
<path d="M61.8549 73.278L54.4115 66.7651" stroke="#FF6819" stroke-width="3"/>
<path d="M38.1253 59.3316L28.59 61.8801" stroke="#FF6819" stroke-width="3"/>
<path d="M39.9901 20.2446L41.8509 31.4096M86.9761 27.6879L79.5327 34.6661" stroke="#FF6819" stroke-width="3"/>
<path d="M39.2147 4.47753L41.097 8.44781L45.4547 7.88445L42.2604 10.9016L44.1428 14.8719L40.2863 12.7663L37.092 15.7834L37.9028 11.4649L34.0462 9.35934L38.4039 8.79598L39.2147 4.47753Z" stroke="#FF6819" stroke-width="2.5"/>
<path d="M95.2736 18.0529L93.8304 22.1529L97.2837 24.7925L92.9384 24.6869L91.4952 28.7869L90.2529 24.6216L85.9076 24.516L89.4851 22.0474L88.2427 17.8821L91.6961 20.5216L95.2736 18.0529Z" fill="#FF6819"/>
</svg>
