<svg width="88" height="73" viewBox="0 0 88 73" fill="none" xmlns="http://www.w3.org/2000/svg">
<path d="M59.0331 31.0439C60.3207 34.3574 61.027 37.9611 61.027 41.7298C61.027 58.0297 47.8134 71.2433 31.5135 71.2433C15.2136 71.2433 2 58.0297 2 41.7298C2 25.43 15.2136 12.2163 31.5135 12.2163C35.2822 12.2163 38.8859 12.9227 42.1994 14.2103" stroke="#FF6819" stroke-width="3"/>
<circle cx="23.5683" cy="34.25" r="4.76" transform="rotate(45 23.5683 34.25)" stroke="#FF6819" stroke-width="3"/>
<circle cx="39.8925" cy="50.5747" r="4.76" transform="rotate(45 39.8925 50.5747)" stroke="#FF6819" stroke-width="3"/>
<circle cx="39.893" cy="34.25" r="4.76" transform="rotate(135 39.893 34.25)" stroke="#FF6819" stroke-width="3"/>
<circle cx="23.5679" cy="50.5747" r="4.76" transform="rotate(135 23.5679 50.5747)" stroke="#FF6819" stroke-width="3"/>
<path d="M74.7691 6.319L58.7567 23.1153V30.3784H65.6278L81.6401 13.582M74.7691 6.319L81.6401 13.582M74.7691 6.319L78.2046 2.68748C78.859 2.16869 80.4622 1.44239 81.6401 2.68748C82.818 3.93257 84.5848 5.80022 85.5664 6.8378C85.8936 7.35659 86.3517 8.60167 85.5664 9.43174C84.7811 10.2618 82.7853 12.7174 81.6401 13.582" stroke="#FF6819" stroke-width="3"/>
</svg>
