<svg width="164" height="164" viewBox="0 0 164 164" fill="none" xmlns="http://www.w3.org/2000/svg">
<path d="M8.9856 147.58L15.6329 154.227" stroke="#FF6819" stroke-width="4"/>
<path d="M25.6039 27.0533L14.8019 37.8552M14.8019 37.8552L4 27.0533L27.8196 3.23364L160.766 136.18L136.947 160L14.8019 37.8552Z" stroke="#FF6819" stroke-width="4"/>
<path d="M37.2366 37.3445L26.1577 48.4234" stroke="#FF6819" stroke-width="4"/>
<path d="M59.763 58.8911L47.5762 71.0779" stroke="#FF6819" stroke-width="4"/>
<path d="M70.1834 69.3115L57.9966 81.4983" stroke="#FF6819" stroke-width="4"/>
<path d="M92.9081 93.5269L82.1062 104.329" stroke="#FF6819" stroke-width="4"/>
<path d="M103.987 104.605L93.1851 115.407" stroke="#FF6819" stroke-width="4"/>
<path d="M124.76 128.192L114.789 138.163" stroke="#FF6819" stroke-width="4"/>
<path d="M135.839 139.271L125.868 149.242" stroke="#FF6819" stroke-width="4"/>
<path d="M78.317 108.395L42.7761 143.702L4 159.446L18.9565 120.116L54.8907 84.7358M82.1062 57.5203L129.746 9.88104C133.992 5.08018 145.034 -1.97339 155.227 8.2192C165.42 18.4118 159.474 29.4538 155.227 33.7007L107.034 81.8939" stroke="#FF6819" stroke-width="4"/>
<path d="M155.227 34.0207L130.853 9.88086M149.688 38.686L125.314 14.3124" stroke="#FF6819" stroke-width="4"/>
<path d="M42.7762 143.702L19.5105 120.436" stroke="#FF6819" stroke-width="4"/>
<path d="M54.9631 41.7761L37.2368 59.5024" stroke="#FF6819" stroke-width="4"/>
<path d="M85.9838 76.1206L69.3655 92.739" stroke="#FF6819" stroke-width="4"/>
<path d="M119.22 110.465L103.71 125.976" stroke="#FF6819" stroke-width="4"/>
</svg>
