<svg width="256" height="250" viewBox="0 0 256 250" fill="none" xmlns="http://www.w3.org/2000/svg">
<mask id="path-1-outside-1" maskUnits="userSpaceOnUse" x="0.343146" y="64.6644" width="176.777" height="176.777" fill="black">
<rect fill="white" x="0.343146" y="64.6644" width="176.777" height="176.777"/>
<path d="M117.048 75.9887C112.762 80.2745 105.746 80.2713 101.456 75.9815L13.7923 163.645C18.0821 167.935 18.0853 174.951 13.7996 179.237L62.5468 227.984C66.8325 223.698 73.8489 223.702 78.1386 227.991L165.802 140.328C161.513 136.038 161.509 129.022 165.795 124.736"/>
</mask>
<path d="M101.456 75.9815L104.284 73.1531L101.456 70.3247L98.6276 73.1531L101.456 75.9815ZM13.7923 163.645L10.9639 160.817L8.13547 163.645L10.9639 166.474L13.7923 163.645ZM13.7996 179.237L10.9711 176.409L8.1427 179.237L10.9711 182.065L13.7996 179.237ZM62.5468 227.984L59.7183 230.813L62.5468 233.641L65.3752 230.813L62.5468 227.984ZM78.1386 227.991L75.3102 230.82L78.1386 233.648L80.9671 230.82L78.1386 227.991ZM165.802 140.328L168.631 143.156L171.459 140.328L168.631 137.499L165.802 140.328ZM114.219 73.1603C111.498 75.8815 107.015 75.8832 104.284 73.1531L98.6276 78.8099C104.477 84.6593 114.026 84.6675 119.876 78.8172L114.219 73.1603ZM98.6276 73.1531L10.9639 160.817L16.6208 166.474L104.284 78.8099L98.6276 73.1531ZM10.9639 166.474C13.694 169.204 13.6923 173.687 10.9711 176.409L16.628 182.065C22.4783 176.215 22.4701 166.666 16.6208 160.817L10.9639 166.474ZM10.9711 182.065L59.7183 230.813L65.3752 225.156L16.628 176.409L10.9711 182.065ZM65.3752 230.813C68.0964 228.091 72.5801 228.09 75.3102 230.82L80.9671 225.163C75.1177 219.314 65.5687 219.305 59.7183 225.156L65.3752 230.813ZM80.9671 230.82L168.631 143.156L162.974 137.499L75.3102 225.163L80.9671 230.82ZM168.631 137.499C165.901 134.769 165.902 130.286 168.623 127.564L162.967 121.908C157.116 127.758 157.124 137.307 162.974 143.156L168.631 137.499Z" fill="#FF6819" mask="url(#path-1-outside-1)"/>
<path d="M115.064 76.6475L164.818 126.361" stroke="#FF6819" stroke-width="2" stroke-dasharray="7 5"/>
<path d="M43.6147 185.872L84.5152 144.971" stroke="#FF6819" stroke-width="4"/>
<path d="M53.7729 196.565L122.208 128.13" stroke="#FF6819" stroke-width="4"/>
<path d="M65.0007 207.792L133.436 139.357" stroke="#FF6819" stroke-width="4"/>
<path d="M176.617 57.7758L172.798 54.8541L173.419 59.6225L174.841 70.5468L165.771 76.7999L161.812 79.5293L166.539 80.4125L177.368 82.4359L180.512 92.9942L181.885 97.6028L184.185 93.3803L189.456 83.7064L200.469 83.9787L205.276 84.0976L201.971 80.6047L194.4 72.6026L198.062 62.2126L199.661 57.6775L195.317 59.7413L185.367 64.4695L176.617 57.7758Z" stroke="#FF6819" stroke-width="4"/>
<mask id="path-8-outside-2" maskUnits="userSpaceOnUse" x="126.072" y="10.7056" width="118.782" height="125.737" fill="black">
<rect fill="white" x="126.072" y="10.7056" width="118.782" height="125.737"/>
<path d="M168.056 123.425C173.305 120.395 180.082 122.214 183.115 127.468L229.666 100.591C226.633 95.3372 228.446 88.5591 233.695 85.5286L199.225 25.8257C193.976 28.8562 187.2 27.0371 184.167 21.7832L137.615 48.6597C140.648 53.9135 138.836 60.6916 133.587 63.7221"/>
</mask>
<path d="M183.115 127.468L179.651 129.468L181.651 132.932L185.115 130.932L183.115 127.468ZM229.666 100.591L231.666 104.055L235.13 102.055L233.13 98.591L229.666 100.591ZM233.695 85.5286L235.695 88.9927L239.159 86.9927L237.159 83.5286L233.695 85.5286ZM199.225 25.8257L202.689 23.8257L200.689 20.3616L197.225 22.3616L199.225 25.8257ZM184.167 21.7832L187.631 19.7832L185.631 16.3191L182.167 18.3191L184.167 21.7832ZM137.615 48.6597L135.615 45.1956L132.151 47.1956L134.151 50.6597L137.615 48.6597ZM170.056 126.889C173.389 124.965 177.72 126.124 179.651 129.468L186.579 125.468C182.443 118.304 173.221 115.824 166.056 119.961L170.056 126.889ZM185.115 130.932L231.666 104.055L227.666 97.1269L181.115 124.003L185.115 130.932ZM233.13 98.591C231.2 95.2473 232.362 90.9169 235.695 88.9927L231.695 82.0645C224.53 86.2013 222.066 95.427 226.202 102.591L233.13 98.591ZM237.159 83.5286L202.689 23.8257L195.761 27.8257L230.231 87.5286L237.159 83.5286ZM197.225 22.3616C193.893 24.2857 189.561 23.1269 187.631 19.7832L180.702 23.7832C184.839 30.9472 194.06 33.4266 201.225 29.2898L197.225 22.3616ZM182.167 18.3191L135.615 45.1956L139.615 52.1238L186.167 25.2473L182.167 18.3191ZM134.151 50.6597C136.082 54.0034 134.919 58.3339 131.587 60.258L135.587 67.1862C142.752 63.0494 145.215 53.8237 141.079 46.6597L134.151 50.6597Z" fill="#FF6819" mask="url(#path-8-outside-2)"/>
</svg>
