<svg width="73" height="59" viewBox="0 0 73 59" fill="none" xmlns="http://www.w3.org/2000/svg">
<path d="M46.8364 19.7715L34.4065 37.5285L25.528 28.65L9.54672 56.1733H68.5887L46.8364 19.7715ZM46.8364 19.7715V12.1126M46.8364 12.1126V2.90234H60.5981V12.1126H46.8364Z" stroke="#FF6819" stroke-width="4"/>
<path fill-rule="evenodd" clip-rule="evenodd" d="M7.3271 45.9632C4.38502 45.9632 2 43.5782 2 40.6362C2 37.6941 4.38502 35.3091 7.3271 35.3091H7.3271C7.32717 31.8767 10.1097 29.0942 13.542 29.0942C16.9744 29.0942 19.7569 31.8767 19.757 35.3091C22.6991 35.3091 25.0841 37.6941 25.0841 40.6362C25.0841 43.5782 22.6991 45.9632 19.757 45.9632L19.757 45.9633H7.3271L7.3271 45.9632Z" fill="#2529B5"/>
<path d="M7.3271 45.9632L9.32336 45.841L9.20839 43.9632H7.3271V45.9632ZM7.3271 35.3091V37.3091H9.32706L9.3271 35.3091L7.3271 35.3091ZM19.757 35.3091L17.757 35.3091L17.757 37.3091H19.757V35.3091ZM19.757 45.9632V43.9632H17.6308L17.7607 46.0855L19.757 45.9632ZM19.757 45.9633V47.9633H21.8832L21.7533 45.8411L19.757 45.9633ZM7.3271 45.9633L5.33084 46.0856L5.44581 47.9633H7.3271V45.9633ZM7.3271 43.9632C5.48959 43.9632 4 42.4737 4 40.6362H0C0 44.6828 3.28045 47.9632 7.3271 47.9632V43.9632ZM4 40.6362C4 38.7987 5.48959 37.3091 7.3271 37.3091V33.3091C3.28045 33.3091 0 36.5895 0 40.6362H4ZM7.3271 37.3091H7.3271V33.3091H7.3271V37.3091ZM9.3271 35.3091C9.32715 32.9813 11.2142 31.0942 13.542 31.0942V27.0942C9.00511 27.0942 5.32719 30.7721 5.3271 35.309L9.3271 35.3091ZM13.542 31.0942C15.8699 31.0942 17.7569 32.9813 17.757 35.3091L21.757 35.309C21.7569 30.7721 18.079 27.0942 13.542 27.0942V31.0942ZM19.757 37.3091C21.5945 37.3091 23.0841 38.7987 23.0841 40.6362H27.0841C27.0841 36.5895 23.8036 33.3091 19.757 33.3091V37.3091ZM23.0841 40.6362C23.0841 42.4737 21.5945 43.9632 19.757 43.9632V47.9632C23.8036 47.9632 27.0841 44.6828 27.0841 40.6362H23.0841ZM17.7607 46.0855L17.7607 46.0856L21.7533 45.8411L21.7532 45.841L17.7607 46.0855ZM19.757 43.9633H7.3271V47.9633H19.757V43.9633ZM9.32336 45.8411L9.32336 45.841L5.33083 46.0855L5.33084 46.0856L9.32336 45.8411Z" fill="#FF6819"/>
</svg>
