<svg width="28" height="42" viewBox="0 0 28 42" fill="none" xmlns="http://www.w3.org/2000/svg">
<path d="M5.39925 22.5166L5.39759 22.515C2.74739 20.0095 1.30347 16.4766 1.43718 12.8217L1.43718 12.8216C1.6682 6.49273 6.84264 1.19118 13.2068 0.771443C16.7387 0.570717 20.0808 1.7844 22.6298 4.19136C25.1729 6.59291 26.5714 9.8387 26.5714 13.3409C26.5714 16.7995 25.1282 20.144 22.6128 22.5144L22.6118 22.5154C20.2929 24.7091 19.0843 27.8638 19.2732 31.1587C19.2732 31.1592 19.2732 31.1597 19.2732 31.1602L19.3031 31.7271H15.7176V16.621H18.4999C19.4486 16.621 20.2176 15.8518 20.2176 14.9033C20.2176 13.9547 19.4486 13.1855 18.4999 13.1855H9.4999C8.55116 13.1855 7.78216 13.9547 7.78216 14.9033C7.78216 15.8518 8.55115 16.621 9.4999 16.621H12.2821V31.7271H8.77367C9.12414 28.2958 7.88407 24.8802 5.39925 22.5166Z" stroke="#FF6819" stroke-width="1.5"/>
<path d="M9.36897 35.1631H18.6307V40.065C18.6307 40.7179 18.0982 41.2504 17.4451 41.2504H10.5544C9.90144 41.2504 9.36897 40.718 9.36897 40.065V35.1631Z" stroke="#FF6819" stroke-width="1.5"/>
</svg>
