<svg width="22" height="47" viewBox="0 0 22 47" fill="none" xmlns="http://www.w3.org/2000/svg">
<path d="M20.7134 4.41768L19.9642 4.38295L19.9634 4.4003V4.41768H20.7134ZM19.7992 2.92343L20.1144 2.24284L20.1081 2.23998L19.7992 2.92343ZM10.7756 1.00015L10.7728 0.250152L10.7699 0.250174L10.7756 1.00015ZM1.95839 2.92343L1.64997 2.23978L1.64975 2.23988L1.95839 2.92343ZM1.9289 18.0138L2.25112 17.3365L2.25085 17.3364L1.9289 18.0138ZM6.77984 20.3217L7.11614 19.6514L7.10914 19.6478L7.10206 19.6445L6.77984 20.3217ZM6.80933 20.3365H7.55933V19.8737L7.14563 19.6662L6.80933 20.3365ZM6.80933 41.3891H6.05933V41.7014L6.28102 41.9214L6.80933 41.3891ZM10.8493 45.3984L10.321 45.9307L10.8493 46.455L11.3776 45.9307L10.8493 45.3984ZM14.8893 41.3891L15.4176 41.9214L15.9511 41.392L15.4205 40.8596L14.8893 41.3891ZM12.8693 39.3622L12.3049 38.8683L11.8435 39.3954L12.3381 39.8916L12.8693 39.3622ZM14.8893 37.0543L15.4537 37.5482L15.8862 37.0541L15.4535 36.5601L14.8893 37.0543ZM12.8546 34.7315L12.2902 34.2376L11.8577 34.7318L12.2904 35.2257L12.8546 34.7315ZM14.8746 32.4236L15.4389 32.9176L15.8685 32.4267L15.442 31.9332L14.8746 32.4236ZM12.8546 30.0861L12.2753 29.6097L11.8736 30.098L12.2871 30.5765L12.8546 30.0861ZM14.8746 27.6302L15.4538 28.1066L15.6246 27.899V27.6302H14.8746ZM14.8746 20.3661L14.5489 19.6905L14.1246 19.8951V20.3661H14.8746ZM19.7845 17.999L19.4625 17.3216L19.4588 17.3234L19.7845 17.999ZM19.9634 4.41768V16.5196H21.4634V4.41768H19.9634ZM19.4841 3.604C19.789 3.74523 19.9792 4.05837 19.9642 4.38295L21.4626 4.45241C21.5065 3.50465 20.9595 2.63424 20.1144 2.24287L19.4841 3.604ZM10.7784 1.75015C14.6079 1.73586 17.626 2.76435 19.4904 3.60689L20.1081 2.23998C18.1094 1.33677 14.8758 0.234853 10.7728 0.250158L10.7784 1.75015ZM2.26681 3.60708C4.1021 2.77912 7.04992 1.77871 10.7813 1.75013L10.7699 0.250174C6.77516 0.280772 3.61876 1.35159 1.64997 2.23978L2.26681 3.60708ZM1.75 4.41768C1.75 4.05728 1.94975 3.75024 2.26703 3.60698L1.64975 2.23988C0.787473 2.62922 0.25 3.47616 0.25 4.41768H1.75ZM1.75 16.5343V4.41768H0.25V16.5343H1.75ZM2.25085 17.3364C1.95275 17.1947 1.75 16.8818 1.75 16.5343H0.25C0.25 17.4592 0.784472 18.3003 1.60695 18.6912L2.25085 17.3364ZM7.10206 19.6445L2.25112 17.3365L1.60668 18.6911L6.45762 20.999L7.10206 19.6445ZM7.14563 19.6662L7.11614 19.6514L6.44354 20.9921L6.47303 21.0069L7.14563 19.6662ZM7.55933 41.3891V20.3365H6.05933V41.3891H7.55933ZM11.3776 44.866L7.33763 40.8567L6.28102 41.9214L10.321 45.9307L11.3776 44.866ZM14.361 40.8567L10.321 44.866L11.3776 45.9307L15.4176 41.9214L14.361 40.8567ZM12.3381 39.8916L14.3581 41.9185L15.4205 40.8596L13.4005 38.8328L12.3381 39.8916ZM14.3249 36.5603L12.3049 38.8683L13.4337 39.8562L15.4537 37.5482L14.3249 36.5603ZM12.2904 35.2257L14.3252 37.5485L15.4535 36.5601L13.4187 34.2373L12.2904 35.2257ZM14.3102 31.9297L12.2902 34.2376L13.4189 35.2255L15.4389 32.9176L14.3102 31.9297ZM12.2871 30.5765L14.3071 32.914L15.442 31.9332L13.422 29.5957L12.2871 30.5765ZM14.2953 27.1538L12.2753 29.6097L13.4338 30.5625L15.4538 28.1066L14.2953 27.1538ZM14.1246 20.3661V27.6302H15.6246V20.3661H14.1246ZM19.4588 17.3234L14.5489 19.6905L15.2003 21.0417L20.1102 18.6746L19.4588 17.3234ZM19.9634 16.5196C19.9634 16.867 19.7606 17.1799 19.4625 17.3216L20.1064 18.6764C20.9289 18.2855 21.4634 17.4444 21.4634 16.5196H19.9634ZM9.43387 8.59979H12.3385V7.09979H9.43387V8.59979ZM7.71074 6.87336C7.71074 7.83997 8.49388 8.59979 9.43387 8.59979V7.09979C9.31226 7.09979 9.21074 7.00154 9.21074 6.87336H7.71074ZM7.71074 5.58624V6.87336H9.21074V5.58624H7.71074ZM9.43387 3.8598C8.46435 3.8598 7.71074 4.64926 7.71074 5.58624H9.21074C9.21074 5.45802 9.3123 5.3598 9.43387 5.3598V3.8598ZM12.3385 3.8598H9.43387V5.3598H12.3385V3.8598ZM14.0617 5.58624C14.0617 4.61963 13.2785 3.8598 12.3385 3.8598V5.3598C12.4601 5.3598 12.5617 5.45806 12.5617 5.58624H14.0617ZM14.0617 6.87336V5.58624H12.5617V6.87336H14.0617ZM12.3385 8.59979C13.3081 8.59979 14.0617 7.81034 14.0617 6.87336H12.5617C12.5617 7.00158 12.4601 7.09979 12.3385 7.09979V8.59979Z" fill="#FF6819"/>
</svg>
