<svg xmlns="http://www.w3.org/2000/svg" viewBox="0 0 844 632"><filter id="b"><feGaussianBlur stdDeviation="12" /></filter><path fill="#b2aca9" d="M0 0h844v629H0z"/><g filter="url(#b)" transform="translate(1.6 1.6) scale(3.29688)" fill-opacity=".5"><ellipse rx="1" ry="1" transform="rotate(123.7 43.8 117.9) scale(38.13099 25.62352)"/><ellipse fill="#331b10" cx="115" cy="91" rx="61" ry="23"/><ellipse fill="#e3e5f4" rx="1" ry="1" transform="matrix(109.20846 133.72987 -47.56316 38.84173 221.9 53.6)"/><ellipse fill="#030f91" cx="189" cy="74" rx="28" ry="13"/><ellipse fill="#fff" rx="1" ry="1" transform="matrix(29.54687 -4.5438 11.87567 77.2236 4.5 89.7)"/><ellipse cx="91" cy="104" rx="14" ry="26"/><ellipse rx="1" ry="1" transform="matrix(-23.40198 -4.1439 4.43187 -25.02825 171.6 148)"/><path fill="#faffff" d="M115 62h21v40h-21z"/><ellipse fill="#ffac39" rx="1" ry="1" transform="rotate(-62.6 57.2 -13.4) scale(22.50415 31.40694)"/><path fill="#0818b4" d="M127.8 55.8l-38-.6.4-23 38 .6z"/><path fill="#f3f8f9" d="M-16 23l230 9L61-16z"/><ellipse fill="#280f01" rx="1" ry="1" transform="matrix(-9.81182 16.1376 -13.48935 -8.20165 151.4 86.8)"/><ellipse fill="#4b463b" cx="85" cy="147" rx="29" ry="8"/><path fill="#a26d29" d="M144 45h46v13h-46z"/><path fill="#fff" d="M120 91l33 56-5-32z"/><path fill="#070911" d="M177.8 98L166 131.1l-40.7 43.1 72.5-10.7z"/><path fill="#f0f6f4" d="M63 186l30-25 78 14z"/><ellipse fill="#fdf7eb" cx="62" cy="118" rx="18" ry="18"/><path fill="#fffff4" d="M292 94.2L242 154l-36-30.2L256 64z"/><path fill="#5d68bb" d="M220.4 72.8l-14.3 47.6-26.5-11.7 8.9 6.3z"/><ellipse fill="#f9cc8d" rx="1" ry="1" transform="matrix(-9.84857 4.80944 -12.42085 -25.43489 78.1 57.6)"/><ellipse fill="#ffa627" rx="1" ry="1" transform="matrix(6.85376 -5.39691 11.81534 15.00478 40.2 75.2)"/></g></svg>