<svg xmlns="http://www.w3.org/2000/svg" viewBox="0 0 844 632"><filter id="b"><feGaussianBlur stdDeviation="12" /></filter><path fill="#b2aca9" d="M0 0h844v629H0z"/><g filter="url(#b)" transform="translate(1.6 1.6) scale(3.29688)" fill-opacity=".5"><ellipse rx="1" ry="1" transform="rotate(126 46.4 115.1) scale(36.87719 25.59352)"/><path fill="#130000" d="M63 87.7l41-20.9 23 45.5-41 20.9z"/><path d="M138 71h29v39h-29z"/><ellipse fill="#f5f9fd" rx="1" ry="1" transform="matrix(-252.11255 -38.2657 4.20943 -27.73375 167.8 18)"/><ellipse fill="#fff" rx="1" ry="1" transform="matrix(30.29963 4.85321 -8.50758 53.11458 241 98)"/><ellipse cx="173" cy="147" rx="22" ry="27"/><ellipse fill="#fff" rx="1" ry="1" transform="matrix(28.66506 -3.622 8.9779 71.05265 7.6 94.8)"/><ellipse fill="#0918ae" rx="1" ry="1" transform="matrix(-21.35857 -.13767 .09156 -14.20499 110 45.8)"/><ellipse fill="#ffa700" rx="1" ry="1" transform="matrix(-1.0223 12.17418 -34.11755 -2.86493 46.4 36)"/><ellipse fill="#1325bc" rx="1" ry="1" transform="matrix(-28.20703 -6.87613 2.64826 -10.86362 196 75.5)"/><ellipse fill="#2b0b00" rx="1" ry="1" transform="matrix(8.66818 -13.60632 7.05417 4.494 64.5 87.5)"/><path fill="#060000" d="M86 143l-44-9 36 19z"/><path fill="#fbe3d6" d="M63 85h16v55H63z"/><ellipse fill="#fff" cx="98" cy="173" rx="31" ry="11"/><ellipse fill="#ff9100" cx="43" cy="64" rx="22" ry="6"/><path fill="#000001" d="M132 154h49v17h-49z"/><ellipse fill="#0c0901" cx="91" cy="105" rx="14" ry="23"/><ellipse fill="#fffae1" cx="142" cy="126" rx="10" ry="18"/><path fill="#210500" d="M131 90l12-24 41 32z"/><ellipse fill="#f7fade" rx="1" ry="1" transform="matrix(8.00332 -20.42207 12.35578 4.84218 208.4 135.9)"/><ellipse fill="#faab8e" rx="1" ry="1" transform="rotate(136.1 62.1 84.1) scale(8.04328 10.39663)"/><ellipse fill="#431c08" cx="153" cy="51" rx="8" ry="8"/></g></svg>