<svg xmlns="http://www.w3.org/2000/svg" viewBox="0 0 844 632"><filter id="b"><feGaussianBlur stdDeviation="12" /></filter><path fill="#b2aca9" d="M0 0h844v629H0z"/><g filter="url(#b)" transform="translate(1.6 1.6) scale(3.29688)" fill-opacity=".5"><ellipse rx="1" ry="1" transform="rotate(-67.8 193.6 -54.5) scale(34.16241 25.59029)"/><path fill="#1b0000" d="M108.9 63.1l20.6 51L83 133 62.4 82z"/><ellipse fill="#090000" rx="1" ry="1" transform="matrix(1.87405 -23.48832 16.72144 1.33414 151.7 88.5)"/><ellipse fill="#f1f6ff" rx="1" ry="1" transform="rotate(-104.5 146.9 -62.6) scale(111.5173 47.65282)"/><ellipse fill="#f2f6f9" rx="1" ry="1" transform="matrix(1.83872 -21.01669 124.41117 10.88457 108.8 13.4)"/><ellipse fill="#fffff3" cx="8" cy="93" rx="27" ry="76"/><path fill="#000003" d="M125 177l72-15-21-73z"/><ellipse fill="#0516ac" cx="193" cy="74" rx="25" ry="13"/><ellipse fill="#ffa300" cx="44" cy="36" rx="33" ry="13"/><path fill="#0818af" d="M92 32h39v24H92z"/><path fill="#010000" d="M72.6 79.2L64.7 101l-11.3-4.1L61.3 75z"/><ellipse fill="#020000" cx="75" cy="145" rx="17" ry="5"/><path fill="#fff" d="M72.4 166l56.4-7.9 2.8 19.8-56.4 8z"/><ellipse fill="#fafce3" rx="1" ry="1" transform="matrix(16.8887 -18.73892 12.74032 11.48238 214.5 133.5)"/><path fill="#fb971b" d="M86.2 98.3l-67.5-37 56.5-4.5-42.7 27.4z"/><ellipse fill="#0b0a03" cx="92" cy="103" rx="14" ry="23"/><path fill="#fffff3" d="M49 106h30v28H49z"/><path fill="#e2d7d4" d="M84 143.1l85.8-28.6L271 73l-114 32.7z"/><path fill="#1f0800" d="M129.3 93.4l43.3 1.3-11.4-25.1-33.7 18z"/><path fill="#d3b095" d="M83.5 80L35 142.8l52.8-82.6 44.9 33.3z"/><path fill="#ebe4d5" d="M157 142.8l-29.1-53.5 6.8 43.5 13 14.5z"/><ellipse fill="#d5dadb" cx="175" cy="174" rx="116" ry="3"/></g></svg>