<svg xmlns="http://www.w3.org/2000/svg" viewBox="0 0 844 632"><filter id="b"><feGaussianBlur stdDeviation="12" /></filter><path fill="#b2aca9" d="M0 0h844v629H0z"/><g filter="url(#b)" transform="translate(1.6 1.6) scale(3.29688)" fill-opacity=".5"><ellipse rx="1" ry="1" transform="matrix(21.59278 16.0218 -20.00422 26.95995 166.4 144.8)"/><ellipse fill="#331b10" cx="116" cy="91" rx="63" ry="22"/><ellipse fill="#e4e7f7" rx="1" ry="1" transform="matrix(-40.39487 -122.1428 58.55533 -19.36532 218 33.5)"/><path fill="#141b84" d="M137 78l78 7 5-35z"/><path d="M80 80h22v50H80z"/><ellipse fill="#ffffef" cx="7" cy="83" rx="27" ry="86"/><path d="M154 116h40v49h-40z"/><ellipse fill="#faae4a" rx="1" ry="1" transform="matrix(-40.72188 -19.94944 9.0752 -18.5248 55.4 50.2)"/><path fill="#f4f7fb" d="M113 58h23v46h-23z"/><ellipse fill="#f1f4f5" rx="1" ry="1" transform="matrix(-83.67167 -.14603 .04478 -25.65467 99.8 7.5)"/><ellipse fill="#1627b7" rx="1" ry="1" transform="matrix(-1.04487 12.98652 -24.6339 -1.982 110.4 45.1)"/><path fill="#e1dbce" d="M144 153l-72-20 84-22z"/><path fill="#3f210c" d="M130 91l27 21 1-71z"/><ellipse cx="157" cy="165" rx="26" ry="8"/><ellipse fill="#4f4d40" rx="1" ry="1" transform="matrix(-1.33248 5.20934 -39.60295 -10.1299 76.5 146.8)"/><ellipse fill="#fff" cx="97" cy="174" rx="32" ry="10"/><ellipse fill="#fef8ed" cx="59" cy="118" rx="17" ry="17"/><ellipse fill="#ffa11b" cx="45" cy="35" rx="34" ry="12"/><ellipse fill="#000886" cx="201" cy="108" rx="8" ry="8"/><path fill="#44322a" d="M133.2 112.5l-16.5 16-30-31 16.6-16z"/><ellipse fill="#f9f8ed" cx="247" cy="116" rx="39" ry="36"/><path fill="#ece5d6" d="M234 5.3L96.7 19.7l123.4 53.7-18.8-28z"/></g></svg>