<svg xmlns="http://www.w3.org/2000/svg" viewBox="0 0 844 632"><filter id="b"><feGaussianBlur stdDeviation="12" /></filter><path fill="#b2aca9" d="M0 0h844v629H0z"/><g filter="url(#b)" transform="translate(1.6 1.6) scale(3.29688)" fill-opacity=".5"><ellipse rx="1" ry="1" transform="matrix(-23.09886 -12.0245 17.30966 -33.25154 168.7 145.9)"/><ellipse fill="#331b10" cx="112" cy="91" rx="61" ry="23"/><ellipse fill="#f1f6ff" rx="1" ry="1" transform="matrix(43.72361 130.5737 -52.41537 17.5517 248.6 55)"/><ellipse rx="1" ry="1" transform="matrix(14.93876 3.09367 -5.21462 25.18045 94.2 105)"/><ellipse fill="ivory" cx="8" cy="80" rx="25" ry="89"/><ellipse fill="#f2f7f9" rx="1" ry="1" transform="rotate(-79.9 65.5 -70.5) scale(29.78856 103.34987)"/><path fill="#f5f9fd" d="M107 79l20 26 30-89z"/><ellipse fill="#000aa7" rx="1" ry="1" transform="matrix(25.30564 5.7493 -2.51975 11.09072 194.2 74.3)"/><path fill="#ff9f22" d="M11 25l35 68 36-63z"/><ellipse rx="1" ry="1" transform="rotate(112.3 38.1 130.5) scale(31.28943 19.7719)"/><ellipse fill="#0003ad" cx="112" cy="44" rx="21" ry="13"/><path d="M142 72h25v22h-25z"/><path fill="#342d1b" d="M91.1 145.3l5 13.1-34.8-9.9L45 133z"/><path d="M131 155h45v16h-45z"/><path fill="#feffe5" d="M195 118.3l39 1.4-1 32-39-1.4z"/><ellipse fill="#fffffb" cx="97" cy="172" rx="32" ry="12"/><path fill="#fffdef" d="M153 141.5l-6.5 2.8L121 84.5l6.4-2.8z"/><path fill="#fbf7ee" d="M78 104v34L24 98z"/><path fill="#c8cccf" d="M262 168l-136 5 138 32z"/><ellipse fill="#faf4ea" rx="1" ry="1" transform="matrix(16.63969 5.27842 -1.31588 4.14819 84.3 74)"/><ellipse fill="#82a8ff" cx="46" cy="53" rx="30" ry="5"/><path fill="#f7ffff" d="M199.4 72.6l-31.5 13.7 15.6 11.4-2.3-31.5z"/></g></svg>