<svg xmlns="http://www.w3.org/2000/svg" viewBox="0 0 175 175"><filter id="b"><feGaussianBlur stdDeviation="12" /></filter><path fill="#cfc1be" d="M0 0h175v175H0z"/><g filter="url(#b)" transform="translate(.5 .5)" fill-opacity=".5"><ellipse cx="55" cy="95" rx="14" ry="55"/><ellipse fill="#773823" cx="86" cy="54" rx="36" ry="36"/><ellipse fill="#3b160f" cx="117" cy="107" rx="14" ry="42"/><ellipse fill="#fff" rx="1" ry="1" transform="matrix(28.22213 4.48213 -27.29196 171.8463 17.1 62)"/><ellipse fill="#fff" rx="1" ry="1" transform="matrix(-29.07622 3.33806 -19.8455 -172.86456 150.3 28.4)"/><ellipse fill="#e4a38e" rx="1" ry="1" transform="matrix(-27.95988 -2.57011 3.988 -43.38493 90.2 77.6)"/><ellipse fill="#3c2014" rx="1" ry="1" transform="rotate(-80.9 92.1 29) scale(38.06077 12.6221)"/><ellipse fill="#fff" rx="1" ry="1" transform="matrix(100.70092 -.21383 .03348 15.7679 85.5 7.2)"/><ellipse fill="#30261d" cx="111" cy="123" rx="15" ry="15"/><ellipse fill="#fff" rx="1" ry="1" transform="matrix(85.64341 -39.57281 8.79955 19.04396 164.8 162.8)"/><ellipse fill="#fff" rx="1" ry="1" transform="matrix(-4.12683 11.06686 -69.78099 -26.02136 31 165.9)"/><path fill="#040100" d="M123.3 38L79.9 20.3 46.4 96.2l10.1-66.8z"/><ellipse fill="#fbffff" cx="169" cy="101" rx="40" ry="154"/><ellipse fill="#e9eff0" cx="34" cy="104" rx="8" ry="30"/><ellipse fill="#d2a290" rx="1" ry="1" transform="matrix(28.67564 -55.71947 15.84568 8.15487 86 109.6)"/><path fill="#ca7593" d="M94 127l9 44 44-24z"/><ellipse fill="#fff" rx="1" ry="1" transform="matrix(15.35715 -12.48042 68.36779 84.12654 0 142)"/><ellipse fill="#f4fafd" rx="1" ry="1" transform="rotate(-143.9 17 6.4) scale(33.28112 84.21136)"/><path fill="#3b342d" d="M106.2 137.1l18-81-23-37.5 30.3 66z"/><ellipse fill="#1b0200" cx="48" cy="89" rx="5" ry="33"/><ellipse fill="#734b4e" cx="40" cy="143" rx="12" ry="12"/><path fill="#c28e78" d="M51 75l54 70-20-65z"/></g></svg>