<svg xmlns="http://www.w3.org/2000/svg" viewBox="0 0 171 171"><filter id="b"><feGaussianBlur stdDeviation="12" /></filter><path fill="#867672" d="M0 0h171v171H0z"/><g filter="url(#b)" transform="translate(.5 .5)" fill-opacity=".5"><ellipse fill="#fff" rx="1" ry="1" transform="matrix(11.65991 -54.27744 27.90028 5.99356 30.6 73.3)"/><ellipse fill="#fff" cx="151" cy="85" rx="19" ry="49"/><ellipse cx="28" cy="161" rx="41" ry="41"/><ellipse cx="151" cy="170" rx="39" ry="39"/><ellipse rx="1" ry="1" transform="rotate(-134.1 83 -28.3) scale(63.24332 22.04824)"/><ellipse rx="1" ry="1" transform="matrix(-42.2924 44.89735 -17.41058 -16.40042 16.9 2)"/><ellipse fill="#fff" rx="1" ry="1" transform="matrix(-62.6389 -38.2844 6.18264 -10.11571 98.4 9.3)"/><ellipse fill="#fdf7ff" rx="1" ry="1" transform="matrix(25.42693 3.97046 -2.30312 14.74922 89.9 155.7)"/><path fill="#120000" d="M71.8 14l-19 11.5-5.4 34.2 10 29.1z"/><ellipse fill="#fbffff" rx="1" ry="1" transform="matrix(-10.34436 30.5188 -15.7088 -5.3245 150.9 111.2)"/><ellipse cx="28" cy="170" rx="44" ry="44"/><ellipse rx="1" ry="1" transform="rotate(-71.3 189 -35.5) scale(62.82834 12.03598)"/><ellipse rx="1" ry="1" transform="matrix(16.71913 -4.1531 14.96367 60.23923 167.1 12.2)"/><ellipse fill="#fcffff" rx="1" ry="1" transform="matrix(7.74843 8.04526 -29.73332 28.63632 35 32.4)"/><ellipse fill="#fff" cx="23" cy="82" rx="23" ry="42"/><ellipse rx="1" ry="1" transform="matrix(-31.80682 15.5112 -7.05382 -14.46435 21.9 6.2)"/><ellipse fill="#331000" rx="1" ry="1" transform="matrix(4.1833 -12.29393 23.35677 7.94768 82.2 32.3)"/><path fill="#3b1000" d="M161.4 186l-38.8-61.8 4.8-85.8-32 93.8z"/><ellipse fill="#fff" rx="1" ry="1" transform="rotate(-106.2 87.9 -29.3) scale(31.8106 13.28353)"/><ellipse fill="#da8d6f" rx="1" ry="1" transform="matrix(-15.11422 -24.97998 23.24994 -14.06745 85.8 72.5)"/><path d="M28.3 1.1L-2.5 73.8l-25.8-11L2.5-9.7z"/><ellipse rx="1" ry="1" transform="matrix(11.63416 40.84204 -6.43372 1.8327 5.9 136.2)"/></g></svg>