<svg xmlns="http://www.w3.org/2000/svg" viewBox="0 0 175 175"><filter id="b"><feGaussianBlur stdDeviation="12" /></filter><path fill="#d5c7c2" d="M0 0h175v175H0z"/><g filter="url(#b)" transform="translate(.5 .5)" fill-opacity=".5"><ellipse fill="#792c12" cx="89" cy="70" rx="46" ry="46"/><ellipse fill="#211f22" rx="1" ry="1" transform="matrix(-4.41433 10.13616 -53.52076 -23.30847 72 161.8)"/><ellipse fill="#fff" rx="1" ry="1" transform="matrix(33.99191 2.35399 -12.02096 173.58426 164.4 104.9)"/><ellipse fill="#fbb4a5" rx="1" ry="1" transform="matrix(-26.51754 -.4634 .78563 -44.95738 85.5 85.6)"/><ellipse fill="#fff" cx="11" cy="23" rx="48" ry="48"/><path fill="#0d0000" d="M64 28h49v16H64z"/><ellipse fill="#fff" rx="1" ry="1" transform="rotate(-40.2 198.8 72.7) scale(20.55949 118.7022)"/><path fill="#250700" d="M69.5 43.1l-10.4 49-14.6-3.2 10.4-49z"/><ellipse fill="#fff" rx="1" ry="1" transform="rotate(-70.9 71.2 -79.7) scale(19.53644 159.75686)"/><path fill="#644024" d="M143 77l-14 27-37-80z"/><ellipse fill="#fff" cx="87" cy="174" rx="146" ry="5"/><ellipse fill="#f0fbfe" cx="18" cy="100" rx="34" ry="34"/><path fill="#0e0e13" d="M105.6 156.3l6.4 5.2-27.8 12-22.4-11.8z"/><ellipse fill="#fcffff" rx="1" ry="1" transform="matrix(-30.30326 -3.83708 10.64087 -84.03602 141 167.7)"/><path d="M21 135h24v8H21z"/><ellipse fill="#f9d6ca" rx="1" ry="1" transform="matrix(27.14218 20.75813 -6.45415 8.43908 53.7 135.5)"/><ellipse fill="#f7ffff" cx="8" cy="13" rx="67" ry="36"/><ellipse fill="#fff" rx="1" ry="1" transform="matrix(37.17816 -.5437 .27412 18.74446 6.1 165.7)"/><ellipse fill="#e6afa1" cx="94" cy="95" rx="20" ry="52"/><path fill="#151619" d="M47 161l34-1-67-26z"/><path fill="#81563d" d="M104 70L43.6 95.3l-3.3-33L114.1 81z"/><path fill="#f3fcfe" d="M134 64l56-12-70-16z"/></g></svg>