<svg xmlns="http://www.w3.org/2000/svg" viewBox="0 0 175 175"><filter id="b"><feGaussianBlur stdDeviation="12" /></filter><path fill="#d5c7c2" d="M0 0h175v175H0z"/><g filter="url(#b)" transform="translate(.5 .5)" fill-opacity=".5"><ellipse fill="#81361c" cx="90" cy="74" rx="48" ry="48"/><ellipse fill="#131418" rx="1" ry="1" transform="matrix(58.31276 32.05771 -5.33266 9.70007 78.2 168.2)"/><ellipse fill="#fff" cx="158" cy="139" rx="51" ry="51"/><ellipse fill="#fff" rx="1" ry="1" transform="matrix(-35.48332 -72.43046 28.56055 -13.99167 153.8 36)"/><ellipse fill="#fff" cx="6" cy="45" rx="28" ry="134"/><ellipse fill="#f7b8a9" rx="1" ry="1" transform="rotate(177.6 43.8 52.3) scale(25.37731 59.78089)"/><ellipse fill="#240e04" rx="1" ry="1" transform="rotate(76 17.7 71.7) scale(10.98854 28.85622)"/><path fill="#000003" d="M74 157h37v12H74z"/><path fill="#210300" d="M54.2 92.4l18.6-52-15.2 3-13 13.4z"/><ellipse fill="#fff" rx="1" ry="1" transform="matrix(-91.21853 -7.78422 .45 -5.27335 64.2 174)"/><ellipse fill="#fff" cx="37" cy="6" rx="38" ry="38"/><path fill="#270b00" d="M90.7 23.9l34.4 25.8-7.8 10.4-34.4-25.8z"/><ellipse fill="#ffc7b5" rx="1" ry="1" transform="matrix(-6.23583 13.7468 -17.45032 -7.91582 86 57.4)"/><path fill="#fff" d="M-16 174l89-1-89-41z"/><ellipse fill="#171718" rx="1" ry="1" transform="matrix(12.4434 6.7664 -4.15466 7.64043 34.2 142.3)"/><ellipse fill="#fff" rx="1" ry="1" transform="rotate(-136.8 105.3 59) scale(29.73545 156.88874)"/><path fill="azure" d="M55.6 127.2l-25.3-22.8 14-15.6 25.4 22.8z"/><ellipse fill="#fbffff" cx="163" rx="58" ry="58"/><path fill="#ffd2c0" d="M99 156l-72-34 30 30z"/><ellipse fill="#74573f" rx="1" ry="1" transform="matrix(-.28617 -33.19963 10.48985 -.09042 120.8 75.8)"/><path fill="#522823" d="M63.7 72.2l15.2-4.9 3.4 10.5-15.2 4.9z"/><ellipse fill="#f8feff" cx="56" cy="6" rx="171" ry="17"/></g></svg>