<svg xmlns="http://www.w3.org/2000/svg" viewBox="0 0 175 175"><filter id="b"><feGaussianBlur stdDeviation="12" /></filter><path fill="#cfc1be" d="M0 0h175v175H0z"/><g filter="url(#b)" transform="translate(.5 .5)" fill-opacity=".5"><path fill="#100" d="M58.3 154.9l-26.6-4.7 22-125 26.6 4.6z"/><ellipse fill="#794134" rx="1" ry="1" transform="rotate(175.3 51.9 48) scale(23.36849 66.62075)"/><ellipse fill="#fff" rx="1" ry="1" transform="rotate(-93.1 101 -53) scale(174 33.79423)"/><ellipse fill="#fff" cx="13" cy="68" rx="28" ry="174"/><path d="M70 24h44v12H70z"/><ellipse fill="#e59d86" cx="87" cy="76" rx="31" ry="31"/><ellipse fill="#fff" cx="38" cy="9" rx="32" ry="33"/><path fill="#292a26" d="M122.2 139l-18.5-4.2 10.1-43.9 18.5 4.3z"/><path fill="#190300" d="M70 21L42 71l10 76z"/><ellipse fill="#fff" rx="1" ry="1" transform="matrix(13.78088 -25.20199 78.34726 42.84165 126.3 6.2)"/><ellipse fill="#fff" rx="1" ry="1" transform="rotate(-112.7 127.4 36.5) scale(15.94384 57.23198)"/><ellipse fill="#dea4a1" cx="84" cy="149" rx="36" ry="23"/><ellipse fill="#fff" rx="1" ry="1" transform="matrix(89.44245 38.89323 -8.79772 20.23204 25.4 174)"/><ellipse fill="#cd9583" rx="1" ry="1" transform="matrix(6.74967 -40.52899 22.67 3.77545 85.2 73)"/><path fill="#2b2724" d="M111.8 141.3l-14.5-25.1 13-7.5 14.4 25.1z"/><path fill="#130100" d="M85 24l40 26-9-17z"/><path fill="#a87662" d="M47.7 75.1L98.3 54 72.1 83.3l22 53.6z"/><path fill="#542e2a" d="M26 145l39-44-25 54z"/><ellipse fill="#f8fdff" cx="25" cy="26" rx="32" ry="32"/><ellipse fill="#fdffff" cx="170" cy="83" rx="29" ry="172"/><ellipse fill="#e3b6ae" cx="97" cy="94" rx="18" ry="18"/><ellipse fill="#fff" rx="1" ry="1" transform="rotate(-117.7 54.5 77.1) scale(74.91641 20.33882)"/></g></svg>