<svg xmlns="http://www.w3.org/2000/svg" viewBox="0 0 171 171"><filter id="b"><feGaussianBlur stdDeviation="12" /></filter><path fill="#8f827d" d="M0 0h171v171H0z"/><g filter="url(#b)" transform="translate(.5 .5)" fill-opacity=".5"><ellipse fill="#ffeee8" cx="47" cy="81" rx="51" ry="51"/><ellipse fill="#fff" cx="153" cy="92" rx="35" ry="35"/><path d="M107.6 178l93.5-90.3 31.3 32.3-93.5 90.3z"/><ellipse rx="1" ry="1" transform="rotate(135 78.3 35.8) scale(24.30133 167.07179)"/><ellipse fill="#1a0000" cx="40" cy="159" rx="145" ry="25"/><ellipse rx="38" ry="38"/><ellipse fill="#fff" rx="1" ry="1" transform="matrix(19.07382 37.88365 -13.84668 6.97158 142.8 51)"/><ellipse rx="1" ry="1" transform="rotate(-164.5 50.7 11.6) scale(27.02136 14.52829)"/><ellipse fill="#fff" rx="1" ry="1" transform="matrix(36.01988 -27.13074 9.69988 12.87796 44.7 31)"/><ellipse fill="#fff" rx="1" ry="1" transform="matrix(3.33041 29.28503 -18.01308 2.04852 29.7 118.5)"/><ellipse cx="118" cy="65" rx="10" ry="28"/><ellipse fill="#fff" cx="139" cy="110" rx="24" ry="34"/><ellipse cy="162" rx="23" ry="41"/><ellipse rx="1" ry="1" transform="matrix(53.21315 -104.4367 10.84378 5.52518 14.6 13.8)"/><ellipse fill="#fff" rx="1" ry="1" transform="matrix(36.24078 10.8792 -3.07017 10.22734 106.4 14.6)"/><ellipse rx="1" ry="1" transform="matrix(-6.19065 -4.90665 16.00574 -20.19422 67.2 41.8)"/><ellipse cx="168" cy="5" rx="31" ry="31"/><path d="M54 157l56-28-54-9z"/><ellipse fill="#e89679" cx="81" cy="84" rx="35" ry="35"/><ellipse fill="#db8f57" rx="1" ry="1" transform="rotate(74.9 -47.9 144.3) scale(14.90537 41.58477)"/><path d="M-16 52V-1l76-2z"/><ellipse cx="170" cy="142" rx="9" ry="37"/></g></svg>