<svg xmlns="http://www.w3.org/2000/svg" viewBox="0 0 171 172"><filter id="b"><feGaussianBlur stdDeviation="12" /></filter><path fill="#d0c7c7" d="M0 0h171v172H0z"/><g filter="url(#b)" transform="translate(.5 .5)" fill-opacity=".5"><ellipse fill="#4e0f00" cx="86" cy="72" rx="39" ry="56"/><ellipse fill="#fff" rx="1" ry="1" transform="matrix(38.1398 -162.36022 52.3682 12.30174 170 98)"/><path fill="#fff" d="M-15.8 4.4L42.9-.7l15 170.3-58.8 5.1z"/><path d="M94.6 28.4L51.3 62.2l-9.9-12.6 43.3-33.8z"/><path fill="#010000" d="M107.6 65.4L96.2 28.1l18.2-5.5 11.4 37.3z"/><ellipse fill="#c08d7e" cx="84" cy="95" rx="29" ry="58"/><ellipse fill="#fff" cx="93" rx="170" ry="19"/><ellipse fill="#140c00" cx="99" cy="31" rx="12" ry="12"/><path fill="#fff" d="M171.4 193l-170 3-.8-47 170-3z"/><path fill="#3f3430" d="M59 105h17v17H59z"/><path fill="#201104" d="M44 70l49-48-39 8z"/><ellipse fill="#efa697" rx="1" ry="1" transform="matrix(-10.451 7.22638 -8.72563 -12.61926 80.1 54.1)"/><ellipse fill="#49566b" rx="1" ry="1" transform="matrix(-2.44076 2.42662 -9.78281 -9.8398 78.2 147)"/><ellipse fill="#feffff" cx="161" cy="16" rx="52" ry="27"/><ellipse fill="#777a82" cx="102" cy="125" rx="13" ry="19"/><ellipse fill="#e6dbd8" rx="1" ry="1" transform="matrix(-19.1763 -17.08835 9.24806 -10.37803 119.3 99)"/><path fill="#f7fbfd" d="M0 0h48v53H0z"/><path fill="#352317" d="M124 56L79 21l43 58z"/><path fill="#d6d8dc" d="M37.6 5.8l23.9 10.1-23 54.3-24-10.1z"/><path fill="#fff" d="M118 187l64-104-2 96zm-86.7 24.2L-37 110.1l25.7-17.3L57 193.9z"/><path fill="#8a90a6" d="M53 122h18v24H53z"/></g></svg>