<svg xmlns="http://www.w3.org/2000/svg" viewBox="0 0 171 171"><filter id="b"><feGaussianBlur stdDeviation="12" /></filter><path fill="#ccc1bc" d="M0 0h171v171H0z"/><g filter="url(#b)" transform="translate(.5 .5)" fill-opacity=".5"><ellipse fill="#341003" rx="1" ry="1" transform="matrix(33.85503 14.8087 -12.67306 28.97261 93 53.3)"/><ellipse fill="#5e3319" cx="84" cy="145" rx="46" ry="26"/><ellipse fill="#ffc2a9" cx="82" cy="75" rx="31" ry="31"/><ellipse fill="#fff" rx="1" ry="1" transform="matrix(-28.48965 1.32637 -7.29292 -156.64721 157.8 93.8)"/><ellipse fill="#fff" rx="1" ry="1" transform="rotate(98 -31.7 36.5) scale(170 48.22777)"/><path d="M68 24h47v21H68z"/><ellipse fill="#9b6552" cx="60" cy="82" rx="12" ry="42"/><path fill="#1d1d1c" d="M111 34h15v55h-15z"/><ellipse fill="#fff" rx="1" ry="1" transform="matrix(-34.4712 4.8832 -5.14439 -36.31499 143 9.3)"/><path fill="#1f2d3b" d="M58 127h33v24H58z"/><ellipse fill="#ffddcd" rx="1" ry="1" transform="rotate(110.2 22.1 60.2) scale(13.05632 23.96694)"/><ellipse fill="#fcffff" cx="22" cy="5" rx="70" ry="28"/><path d="M54 67l18-39-24 27z"/><ellipse fill="#fff" rx="1" ry="1" transform="matrix(-7.00849 12.96767 -39.04678 -21.10317 27 166.8)"/><path fill="#fff" d="M79 186l107-11-19-38z"/><ellipse fill="#d69e8e" cx="86" cy="95" rx="34" ry="31"/><path fill="#c48e6b" d="M144.2 151L112 168.9 99.8 147l32.3-17.9z"/><ellipse fill="#eef4f8" cx="150" cy="110" rx="34" ry="34"/><path fill="#0d0908" d="M114 62.8L71.5 22l32.8.2 20.2 19.2z"/><ellipse fill="#dae0e3" cx="31" cy="120" rx="24" ry="24"/><ellipse fill="#d6a282" cx="91" cy="165" rx="20" ry="20"/><ellipse fill="#242e36" rx="1" ry="1" transform="rotate(-41.9 215.5 -62) scale(18.1005 4.02219)"/></g></svg>