<svg xmlns="http://www.w3.org/2000/svg" viewBox="0 0 342 342"><filter id="b"><feGaussianBlur stdDeviation="12" /></filter><path fill="#a79b97" d="M0 0h342v342H0z"/><g filter="url(#b)" transform="translate(.7 .7) scale(1.33594)" fill-opacity=".5"><ellipse rx="1" ry="1" transform="matrix(42.66754 -39.569 30.2373 32.6051 42.5 227.1)"/><ellipse cx="189" cy="235" rx="28" ry="35"/><ellipse fill="#fff" cy="112" rx="77" ry="77"/><ellipse fill="#613817" cx="126" cy="115" rx="65" ry="91"/><ellipse fill="#fff" cx="255" cy="53" rx="83" ry="83"/><ellipse fill="#fff" cx="232" cy="162" rx="37" ry="74"/><ellipse fill="#fff" rx="1" ry="1" transform="matrix(2.65804 24.73985 -253.54085 27.24038 103.5 4.9)"/><ellipse fill="#1c1000" cx="96" cy="51" rx="27" ry="27"/><ellipse fill="#180005" cx="67" cy="231" rx="28" ry="67"/><ellipse fill="#0c0000" rx="1" ry="1" transform="matrix(-9.67392 13.3375 -46.97532 -34.07202 177 213.2)"/><ellipse fill="#f4fbff" rx="1" ry="1" transform="matrix(-10.29967 17.71855 -91.87845 -53.4083 183.6 35.8)"/><ellipse fill="#f3f9fd" cx="39" cy="41" rx="28" ry="138"/><ellipse fill="#483618" rx="1" ry="1" transform="matrix(20.31306 -.3183 .76871 49.05568 171.2 102.1)"/><ellipse fill="#c59e8c" cx="118" cy="105" rx="38" ry="42"/><ellipse fill="#edf3ff" cx="131" cy="232" rx="34" ry="18"/><ellipse fill="#1f000d" cx="21" cy="226" rx="35" ry="35"/><ellipse fill="#f3fafc" cx="242" cy="189" rx="24" ry="76"/><ellipse cx="73" cy="76" rx="8" ry="26"/><ellipse fill="#ebedee" rx="1" ry="1" transform="matrix(-22.07517 19.73566 -21.8944 -24.4898 43 140.4)"/><ellipse cx="129" cy="58" rx="21" ry="11"/><ellipse fill="#c2a18f" rx="1" ry="1" transform="rotate(97.2 -26.2 143.5) scale(42.13691 27.43175)"/><path fill="#2d0a1b" d="M166.5 207.3L173 271l57.8-15.5-25.6-47.7z"/></g></svg>