<svg xmlns="http://www.w3.org/2000/svg" viewBox="0 0 171 172"><filter id="b"><feGaussianBlur stdDeviation="12" /></filter><path fill="#d0c7c7" d="M0 0h171v172H0z"/><g filter="url(#b)" transform="translate(.5 .5)" fill-opacity=".5"><ellipse fill="#4c0e00" cx="85" cy="70" rx="40" ry="55"/><ellipse fill="#fff" rx="1" ry="1" transform="rotate(-80.4 136.5 -31.9) scale(133.64911 31.28531)"/><ellipse fill="#fff" cx="18" cy="123" rx="32" ry="158"/><ellipse fill="#130900" cx="87" cy="33" rx="32" ry="13"/><path fill="#f3a38f" d="M69 40h29v50H69z"/><ellipse fill="#fff" rx="1" ry="1" transform="rotate(-86.7 58.3 -53.6) scale(14.31803 107.82628)"/><ellipse fill="#9c7a71" rx="1" ry="1" transform="matrix(-25.1593 -7.19696 8.95112 -31.29156 85.1 118.6)"/><path d="M53.9 37.3l9.6 2.7L54 72.7 44.5 70z"/><ellipse fill="#0d0600" cx="113" cy="49" rx="10" ry="16"/><ellipse fill="#fff" cx="134" cy="171" rx="170" ry="26"/><path fill="#e9c8bc" d="M113 71l15 43-44-11z"/><path fill="#170d02" d="M50 70l-3-27 40-24z"/><ellipse fill="#fff" cy="12" rx="31" ry="31"/><path fill="#576078" d="M116.3 134.6l-28.7 4.7 27.2 4.2-9.3-37.6z"/><ellipse fill="#bb7f6f" rx="1" ry="1" transform="rotate(63.4 -27.2 105) scale(30.92047 27.17717)"/><ellipse fill="#fff" cx="170" cy="146" rx="33" ry="33"/><path fill="#495061" d="M65 135l25 27-8-19z"/><ellipse fill="#fff" rx="1" ry="1" transform="rotate(145.4 -21.8 70) scale(17.30535 95.68763)"/><ellipse fill="#fff" rx="1" ry="1" transform="rotate(-40.7 115.4 -211) scale(19.99051 134.35997)"/><path fill="#554742" d="M58.8 122.4l-.2-18.5 10.8 4.2 21.3 19.4z"/><path fill="#2a190d" d="M97.8 48.4l9.2-7.7 19.2 23-9.2 7.6z"/><path fill="#ecafa5" d="M76 39h16v26H76z"/></g></svg>