<svg xmlns="http://www.w3.org/2000/svg" viewBox="0 0 171 171"><filter id="b"><feGaussianBlur stdDeviation="12" /></filter><path fill="#a7918c" d="M0 0h171v171H0z"/><g filter="url(#b)" transform="translate(.5 .5)" fill-opacity=".5"><ellipse rx="1" ry="1" transform="rotate(133.3 -27.8 84) scale(21.52252 141.76615)"/><ellipse rx="1" ry="1" transform="matrix(-103.05076 -99.16796 13.03748 -13.54795 143.5 -.2)"/><path d="M137.1 201.2l-24.6-26.4 64.4-60 24.6 26.4z"/><ellipse rx="1" ry="1" transform="matrix(-76.34807 77.03081 -14.72733 -14.5968 10.3 14.7)"/><ellipse fill="#fff" cx="135" cy="83" rx="33" ry="63"/><ellipse fill="#fff" cx="31" cy="85" rx="28" ry="61"/><ellipse rx="1" ry="1" transform="matrix(-35.99083 55.5783 -16.60645 -10.75384 0 26)"/><ellipse fill="#340000" rx="1" ry="1" transform="rotate(-100.4 56.2 -15.3) scale(13.46968 26.84807)"/><ellipse rx="1" ry="1" transform="rotate(23.6 63 411.9) scale(74.60272 23.40195)"/><ellipse rx="1" ry="1" transform="matrix(-59.84336 119.03812 -12.36143 -6.2144 167.1 141.5)"/><ellipse rx="1" ry="1" transform="matrix(-47.37253 -82.73226 10.59 -6.06384 4.4 139.5)"/><ellipse fill="#bf604e" cx="87" cy="71" rx="38" ry="38"/><ellipse fill="#fff" cx="86" cy="12" rx="42" ry="10"/><ellipse fill="#ffb396" cx="84" cy="139" rx="56" ry="31"/><ellipse fill="#f3fdff" rx="1" ry="1" transform="rotate(11 -399.3 168.6) scale(24.12083 40.87223)"/><ellipse fill="#f7ffff" rx="1" ry="1" transform="matrix(-6.8108 44.50878 -23.90738 -3.65834 142 103.1)"/><ellipse rx="1" ry="1" transform="matrix(-7.0364 3.4467 -23.19194 -47.34597 166.9 41.6)"/><ellipse cx="22" cy="170" rx="42" ry="13"/><ellipse fill="#fff" cx="124" cy="26" rx="17" ry="15"/><path fill="#fff" d="M63.1 28L46.7 47 25 28 41.3 9z"/><ellipse fill="#ecfdff" cx="37" cy="123" rx="25" ry="25"/><path d="M110.4 170.4l69.5-43.5 11.7 18.7-69.5 43.5z"/></g></svg>