<svg xmlns="http://www.w3.org/2000/svg" viewBox="0 0 175 175"><filter id="b"><feGaussianBlur stdDeviation="12" /></filter><path fill="#c7b9b6" d="M0 0h175v175H0z"/><g filter="url(#b)" transform="translate(.5 .5)" fill-opacity=".5"><ellipse fill="#693113" cx="89" cy="70" rx="43" ry="55"/><ellipse fill="#020000" cx="46" cy="137" rx="23" ry="23"/><ellipse fill="#fff" rx="1" ry="1" transform="rotate(-99.6 136.6 -13.4) scale(174 32.63799)"/><ellipse fill="#371a1c" rx="1" ry="1" transform="matrix(24.69345 15.75937 -7.70147 12.06748 116.1 138.8)"/><ellipse fill="#fff" rx="1" ry="1" transform="matrix(-42.14894 168.81785 -27.91145 -6.96868 21.7 41.6)"/><ellipse fill="#1f0b00" cx="74" cy="35" rx="23" ry="18"/><ellipse fill="#fff" cx="133" cy="12" rx="46" ry="20"/><ellipse fill="#fff" rx="1" ry="1" transform="rotate(-143.5 42.6 81.6) scale(80.19928 18.54052)"/><ellipse cx="26" cy="135" rx="11" ry="10"/><ellipse fill="#ddab9c" rx="1" ry="1" transform="rotate(114.9 8.2 80.5) scale(39.15651 17.25915)"/><ellipse fill="#fff" rx="1" ry="1" transform="matrix(-106.28141 69.81384 -9.07679 -13.81809 145.8 170)"/><ellipse fill="#f6fbff" rx="1" ry="1" transform="rotate(27.3 -186.3 123.2) scale(17.69468 24.12166)"/><ellipse fill="#340d25" rx="1" ry="1" transform="matrix(6.11911 -7.42336 11.74717 9.68326 59.2 157.9)"/><ellipse fill="#ffc7b4" cx="85" cy="58" rx="13" ry="13"/><path fill="#1b0000" d="M59 105l-42 33 43-17z"/><ellipse fill="#fff" rx="1" ry="1" transform="matrix(-136.85075 54.45953 -7.66517 -19.26172 27.8 12.7)"/><path fill="#36212e" d="M116 132h14v30h-14z"/><path d="M50 38h10v30H50z"/><ellipse fill="#fff" cx="169" cy="71" rx="29" ry="146"/><ellipse fill="#5d462f" rx="1" ry="1" transform="rotate(149.6 50.7 47.6) scale(10.43469 31.24963)"/><ellipse fill="#e9e8f7" cx="94" cy="162" rx="22" ry="23"/><ellipse fill="#fff" rx="1" ry="1" transform="matrix(-15.5929 13.42925 -23.08404 -26.80323 11.3 161.2)"/></g></svg>