<svg xmlns="http://www.w3.org/2000/svg" viewBox="0 0 175 175"><filter id="b"><feGaussianBlur stdDeviation="12" /></filter><path fill="#dacabc" d="M0 0h175v175H0z"/><g filter="url(#b)" transform="translate(.5 .5)" fill-opacity=".5"><ellipse fill="#480300" cx="88" cy="55" rx="36" ry="36"/><path fill="#4c1900" d="M52 169l-27-29L70 31z"/><ellipse fill="#ffb4a3" cx="94" cy="78" rx="33" ry="33"/><ellipse fill="#eebc2b" cx="88" cy="146" rx="47" ry="26"/><ellipse fill="#fff" rx="1" ry="1" transform="matrix(-42.7842 -5.57174 21.70974 -166.70443 169.6 39)"/><ellipse fill="#fff" cx="17" cy="56" rx="25" ry="143"/><ellipse fill="#160700" rx="1" ry="1" transform="matrix(-2.83578 14.711 -30.24943 -5.83106 94.7 37.6)"/><path fill="#da938a" d="M68 46h41v94H68z"/><path fill="#1c0000" d="M42.8 131.3l4.4-41.8 12 1.2-4.4 41.8z"/><ellipse fill="#fff" rx="1" ry="1" transform="matrix(173.7287 -9.71294 1.312 23.46681 64.7 0)"/><path fill="#020000" d="M68.6 31l13.1 7.3L61.4 75l-13.1-7.3z"/><ellipse fill="#fff" rx="1" ry="1" transform="matrix(6.4984 -14.04183 64.12437 29.676 27.3 168.2)"/><ellipse fill="#ffed38" rx="1" ry="1" transform="matrix(31.08345 -13.57924 4.7276 10.8217 115.2 156)"/><path fill="#e0e9f4" d="M15.6 86.8l47.8-98 17 8.4-47.8 98z"/><ellipse fill="#ce9280" rx="1" ry="1" transform="rotate(155.5 30 60.9) scale(22.22993 42.32132)"/><ellipse fill="#fff" rx="1" ry="1" transform="rotate(-15 731 -440.7) scale(76.56224 14.74909)"/><ellipse fill="#e8f4ff" rx="1" ry="1" transform="rotate(21.4 -229.8 384.8) scale(15.18788 28.1679)"/><path fill="#86594c" d="M32 126h27v28H32z"/><path fill="#fff" d="M141 174L173-5l17 195z"/><ellipse fill="#f3c7d4" cx="74" cy="136" rx="19" ry="11"/><path fill="#f0ae9c" d="M84 45h23v56H84z"/><path fill="#1c120b" d="M81 20.5l25.7 2.2L127.1 50l-6 9.9z"/></g></svg>