<svg xmlns="http://www.w3.org/2000/svg" viewBox="0 0 175 175"><filter id="b"><feGaussianBlur stdDeviation="12" /></filter><path fill="#c7b9b6" d="M0 0h175v175H0z"/><g filter="url(#b)" transform="translate(.5 .5)" fill-opacity=".5"><ellipse fill="#562002" cx="86" cy="57" rx="40" ry="41"/><ellipse fill="#0e0000" rx="1" ry="1" transform="matrix(-19.69827 -14.83753 13.73799 -18.23852 47.6 138)"/><ellipse fill="#fff" cx="163" cy="35" rx="42" ry="42"/><path fill="#845844" d="M47 112l90 50-5-123z"/><ellipse fill="#fff" rx="1" ry="1" transform="matrix(-33.50655 -8.97805 33.54455 -125.18995 9.8 70)"/><ellipse fill="#fff" rx="1" ry="1" transform="matrix(-26.62311 .64283 -4.20013 -173.9493 161.4 56)"/><ellipse fill="#502d44" rx="1" ry="1" transform="matrix(34.37126 22.01008 -6.84997 10.697 47 147)"/><ellipse fill="#fff" rx="1" ry="1" transform="matrix(-93.59158 -65.77727 15.95963 -22.70826 14.8 174)"/><ellipse fill="#fff" rx="1" ry="1" transform="matrix(65.49216 11.19478 -4.09382 23.94984 115.5 2)"/><ellipse fill="#e0aa9a" rx="1" ry="1" transform="rotate(158.4 37 47) scale(25.06906 31.35176)"/><ellipse fill="#241000" cx="71" cy="35" rx="18" ry="18"/><ellipse fill="#332539" cx="125" cy="144" rx="19" ry="14"/><path fill="#fdffff" d="M190 182L64 140l18 48z"/><ellipse fill="#fff" rx="1" ry="1" transform="matrix(20.25816 33.58233 -93.5097 56.40866 7.5 9.5)"/><ellipse fill="#ecf3f6" cx="23" cy="100" rx="25" ry="25"/><ellipse fill="#fff" rx="1" ry="1" transform="matrix(-82.79013 65.9676 -15.09522 -18.94469 173.2 157.3)"/><path fill="#fff" d="M190 164l-68-35 68-68z"/><path fill="#6b3728" d="M52 30l29 43-25 48z"/><path fill="#c99b8a" d="M63 50h38v93H63z"/><ellipse fill="#040000" cx="91" cy="39" rx="16" ry="7"/><path fill="#280317" d="M114 156.1l10.9-5 5 10.8-10.8 5z"/><path fill="#fff" d="M50.4 217.3l-81.4-49 22.6-37.6 81.4 49z"/></g></svg>