<svg xmlns="http://www.w3.org/2000/svg" viewBox="0 0 171 171"><filter id="b"><feGaussianBlur stdDeviation="12" /></filter><path fill="#907f7c" d="M0 0h171v171H0z"/><g filter="url(#b)" transform="translate(.5 .5)" fill-opacity=".5"><ellipse fill="#fff" rx="1" ry="1" transform="matrix(18.75554 59.12494 -20.33579 6.4509 142.6 64.8)"/><ellipse rx="1" ry="1" transform="rotate(-134.1 113.7 46.8) scale(21.87224 128.62404)"/><ellipse rx="1" ry="1" transform="rotate(134.1 73.2 31) scale(20.55834 129.51336)"/><ellipse fill="#fff" rx="1" ry="1" transform="rotate(.2 -19970.8 5645.7) scale(19.168 54.7336)"/><ellipse rx="1" ry="1" transform="rotate(40.8 -198.1 73.6) scale(152.7914 21.03956)"/><ellipse rx="38" ry="38"/><ellipse fill="#fff" cx="85" cy="13" rx="44" ry="11"/><ellipse cx="51" cy="94" rx="11" ry="51"/><path fill="#fff" d="M137.5 100.2l26 10.5-15 37-26-10.4z"/><ellipse cx="112" cy="116" rx="15" ry="22"/><ellipse fill="#fff" rx="1" ry="1" transform="matrix(22.57065 -37.78328 14.64426 8.74806 26.7 51.6)"/><ellipse fill="#ed967b" cx="86" cy="79" rx="33" ry="33"/><ellipse rx="1" ry="1" transform="matrix(12.72995 12.91482 -104.74738 103.24802 10.9 16)"/><ellipse rx="1" ry="1" transform="rotate(68.2 -118.4 82.6) scale(50.99783 25.38489)"/><ellipse rx="1" ry="1" transform="matrix(-48.76302 11.48507 -2.63295 -11.1789 149.3 165)"/><ellipse rx="1" ry="1" transform="matrix(-101.17994 -57.6975 9.4108 -16.50305 144.4 0)"/><ellipse fill="#fcada7" rx="1" ry="1" transform="matrix(-29.4945 -8.5249 6.42233 -22.22 83.6 147.6)"/><ellipse fill="#fff" cx="147" cy="77" rx="20" ry="45"/><ellipse fill="#120000" cx="118" cy="77" rx="5" ry="37"/><path d="M186 186h-45l45-131z"/><ellipse fill="#230a00" rx="1" ry="1" transform="matrix(5.47089 6.97728 -20.64877 16.1907 67.7 37.1)"/><path fill="#130000" d="M51.5 110.6L64 119l-47.5 70.4L4 181z"/></g></svg>