<svg xmlns="http://www.w3.org/2000/svg" viewBox="0 0 175 175"><filter id="b"><feGaussianBlur stdDeviation="12" /></filter><path fill="#dacabc" d="M0 0h175v175H0z"/><g filter="url(#b)" transform="translate(.5 .5)" fill-opacity=".5"><ellipse fill="#260000" rx="1" ry="1" transform="matrix(6.33864 25.15768 -35.18397 8.86483 87.7 47.1)"/><ellipse fill="#6d280a" rx="1" ry="1" transform="rotate(-80.7 91.3 23.2) scale(49.91602 16.93529)"/><ellipse fill="#fccd28" cx="95" cy="148" rx="45" ry="22"/><ellipse fill="#fff" cx="157" cy="58" rx="33" ry="170"/><ellipse fill="#fff" rx="1" ry="1" transform="matrix(-30.37528 -4.27255 17.90918 -127.32362 18.4 64)"/><ellipse fill="#fc9582" cx="90" cy="78" rx="27" ry="35"/><ellipse rx="1" ry="1" transform="rotate(-4 525.9 -1266.4) scale(25.36091 10.69411)"/><ellipse fill="#d49492" cx="83" cy="122" rx="26" ry="26"/><ellipse rx="1" ry="1" transform="rotate(-57.4 80 -32) scale(23.53516 7.5599)"/><ellipse fill="#290e00" rx="1" ry="1" transform="matrix(-2.43737 21.15694 -8.69483 -1.00168 51.2 114.8)"/><ellipse fill="#fff" rx="1" ry="1" transform="matrix(-2.08714 19.5309 -121.46645 -12.98032 71.1 0)"/><ellipse fill="#130000" rx="1" ry="1" transform="matrix(-2.86269 -12.80693 6.64013 -1.48424 119.4 48.9)"/><ellipse fill="#fff" rx="1" ry="1" transform="matrix(-87.41514 -33.73215 4.25957 -11.03844 22.4 164.3)"/><ellipse fill="#edf5fd" cx="33" cy="30" rx="31" ry="23"/><ellipse fill="#d89b8d" cx="92" cy="75" rx="30" ry="30"/><ellipse fill="#ba8c1b" rx="1" ry="1" transform="matrix(3.80627 -8.39505 21.45414 9.72718 52.7 154)"/><ellipse fill="#fff" rx="1" ry="1" transform="matrix(-8.35089 -17.96194 115.05755 -53.4927 146.3 174)"/><ellipse fill="#ebf3fc" cx="142" cy="104" rx="35" ry="35"/><path fill="#f4d82b" d="M121 165l31-22-23-11z"/><path fill="#d9a593" d="M57 94h54v48H57z"/><ellipse fill="#2a251b" cx="101" cy="124" rx="6" ry="6"/><ellipse fill="#ffe442" rx="1" ry="1" transform="matrix(1.25195 12.87685 -35.61084 3.46226 94.3 159)"/></g></svg>