<svg xmlns="http://www.w3.org/2000/svg" viewBox="0 0 342 342"><filter id="b"><feGaussianBlur stdDeviation="12" /></filter><path fill="#c0b9ba" d="M0 0h342v342H0z"/><g filter="url(#b)" transform="translate(.7 .7) scale(1.33594)" fill-opacity=".5"><ellipse fill="#330500" cx="130" cy="81" rx="61" ry="61"/><ellipse fill="#522c18" cx="127" cy="173" rx="42" ry="42"/><ellipse fill="#fdffff" cx="239" cy="164" rx="68" ry="68"/><ellipse fill="#f7fdff" rx="1" ry="1" transform="matrix(-45.3206 3.2783 -11.30618 -156.30121 34 142.7)"/><ellipse fill="#f6fcfb" cx="224" cy="19" rx="39" ry="145"/><ellipse fill="#c08d72" cx="127" cy="111" rx="50" ry="50"/><ellipse fill="#101000" rx="1" ry="1" transform="rotate(157.4 77 45) scale(19.45608 37.09469)"/><ellipse fill="#e3eaff" cx="162" cy="249" rx="106" ry="43"/><ellipse rx="1" ry="1" transform="matrix(-7.55645 -6.03224 25.64284 -32.12223 98.1 50.6)"/><path d="M129.6 214.6l-3.7-5-12.4-5.5 13 31.3z"/><ellipse fill="#000200" cx="128" cy="35" rx="19" ry="14"/><ellipse fill="#62493c" rx="1" ry="1" transform="matrix(-39.67887 5.79275 -3.84913 -26.3656 132.2 158.9)"/><ellipse fill="#ddac9a" rx="1" ry="1" transform="rotate(19.2 -150.7 418) scale(23.6464 22.8838)"/><ellipse fill="#f0f6f7" rx="1" ry="1" transform="rotate(143.1 46 15.3) scale(66.51521 27.84524)"/><path fill="#d3c5c2" d="M149.1 188.4l-3.3 20.7-85-13.5 3.4-20.7z"/><ellipse fill="#6b5446" rx="1" ry="1" transform="matrix(6.53256 -1.93503 11.7385 39.62853 83.6 126.1)"/><ellipse fill="#001" cx="156" cy="202" rx="16" ry="5"/><ellipse fill="#a47b66" rx="1" ry="1" transform="matrix(-17.54336 -10.16953 14.25072 -24.58378 160.5 132.1)"/><ellipse fill="#f0f4f5" cx="172" rx="49" ry="24"/><path fill="#000219" d="M91 211l-10-15 3-11z"/><path fill="#0a0e04" d="M74 63h12v36H74z"/><ellipse fill="#141205" rx="1" ry="1" transform="rotate(-83.5 78.8 -18.6) scale(19.86655 11.69541)"/></g></svg>