<svg xmlns="http://www.w3.org/2000/svg" viewBox="0 0 175 175"><filter id="b"><feGaussianBlur stdDeviation="12" /></filter><path fill="#e2d0cc" d="M0 0h175v175H0z"/><g filter="url(#b)" transform="translate(.5 .5)" fill-opacity=".5"><ellipse fill="#86301c" cx="85" cy="72" rx="35" ry="55"/><path fill="#271200" d="M57.9 56.4L52.5 33 102 21.6l5.4 23.4z"/><ellipse fill="#feffff" cx="166" cy="41" rx="50" ry="50"/><ellipse fill="#f9ffff" rx="1" ry="1" transform="matrix(-39.5015 -5.55157 19.21003 -136.68648 12.4 88.9)"/><ellipse fill="#feffff" cx="156" cy="132" rx="31" ry="173"/><ellipse fill="#f39b7d" rx="1" ry="1" transform="matrix(53.3624 -3.26378 1.39775 22.85297 92.4 147.7)"/><ellipse fill="#ffbcb3" cx="87" cy="62" rx="28" ry="15"/><ellipse fill="#e09d92" rx="1" ry="1" transform="matrix(15.84102 11.09317 -20.98372 29.9647 92.4 115.1)"/><ellipse fill="#eff9fe" cx="147" cy="116" rx="33" ry="33"/><ellipse fill="#fff" rx="1" ry="1" transform="rotate(122.2 -43.6 89.4) scale(31.74391 142.61852)"/><ellipse fill="#fbffff" cx="47" rx="174" ry="22"/><path fill="#e0e5ea" d="M62.4 136l9.9-3.8-49.9-123L28 156.6z"/><ellipse fill="#fff" rx="1" ry="1" transform="matrix(-12.80984 -25.86162 74.01234 -36.65998 163.2 174)"/><path fill="#452913" d="M51 42l42-20-35 38z"/><path fill="#5c2e2f" d="M59 78h40v8H59z"/><path fill="#523f2a" d="M95.2 29l8.4-5.5L118.8 47l-8.4 5.5z"/><ellipse fill="#d38c7f" cx="92" cy="115" rx="22" ry="22"/><ellipse fill="#dbdfe3" rx="1" ry="1" transform="matrix(24.28179 44.84585 -17.76153 9.61698 140.3 51.1)"/><path fill="#ff9064" d="M142 149.3l-14.5 13.6-9.6-10.2 14.6-13.6z"/><ellipse fill="#ff8c55" cx="52" cy="154" rx="10" ry="10"/><ellipse fill="#4f381b" cx="81" cy="26" rx="13" ry="5"/><ellipse fill="#fff" rx="1" ry="1" transform="matrix(32.34418 -67.60948 21.05203 10.07123 .7 20.8)"/></g></svg>