<svg xmlns="http://www.w3.org/2000/svg" viewBox="0 0 175 175"><filter id="b"><feGaussianBlur stdDeviation="12" /></filter><path fill="#e2d0cc" d="M0 0h175v175H0z"/><g filter="url(#b)" transform="translate(.5 .5)" fill-opacity=".5"><ellipse fill="#7f3422" cx="85" cy="63" rx="41" ry="41"/><ellipse fill="#cc6b5a" cx="87" cy="110" rx="27" ry="27"/><ellipse fill="#feffff" cx="174" cy="48" rx="58" ry="58"/><ellipse fill="#2e1300" cx="85" cy="36" rx="27" ry="15"/><ellipse fill="#f7ffff" rx="1" ry="1" transform="matrix(-18.48564 -64.045 34.53866 -9.96907 15.8 42.9)"/><ellipse fill="#fff" rx="1" ry="1" transform="matrix(15.98051 67.71035 -28.05144 6.6205 155.1 137.5)"/><ellipse fill="#fff" rx="1" ry="1" transform="rotate(150 -14.4 73.2) scale(24.44667 115.38661)"/><ellipse fill="#ffbab0" rx="1" ry="1" transform="matrix(-.57226 -16.14839 25.39215 -.89984 89.6 64)"/><ellipse fill="#fa9674" cx="88" cy="150" rx="53" ry="18"/><path fill="#fbffff" d="M146.1 12.7L-25.2 36.8l-7-49.5 171.4-24.1z"/><ellipse fill="#311501" rx="1" ry="1" transform="matrix(-6.10239 -7.17028 8.26669 -7.0355 64.6 46.3)"/><ellipse fill="#e6f6fa" cx="38" cy="124" rx="29" ry="22"/><ellipse fill="#fff" rx="1" ry="1" transform="rotate(150.6 52 106.7) scale(141.53321 22.18672)"/><ellipse fill="#f2fafe" rx="1" ry="1" transform="rotate(-98.6 92.9 -68) scale(62.83616 66.32447)"/><ellipse fill="#dca9a2" rx="1" ry="1" transform="matrix(-23.3244 5.05159 -2.3363 -10.78727 103.9 93.6)"/><ellipse fill="#fff" rx="1" ry="1" transform="matrix(-9.06117 14.08822 -112.9131 -72.6227 7.4 154.9)"/><ellipse fill="#511c18" cx="69" cy="81" rx="15" ry="4"/><path d="M94 79l-10 2-1 6z"/><path fill="#d8dee3" d="M16 35l90-51L-1 98z"/><ellipse fill="#e0e3e6" rx="1" ry="1" transform="matrix(16.35413 -8.58611 28.75617 54.77242 141.8 55.3)"/><ellipse fill="#f8d9db" rx="1" ry="1" transform="matrix(-8.57462 -19.25892 10.62832 -4.73204 93.6 162)"/><ellipse fill="#c87e6f" rx="1" ry="1" transform="rotate(139.5 17.7 68.3) scale(10.75162 35.24001)"/></g></svg>