<svg xmlns="http://www.w3.org/2000/svg" viewBox="0 0 175 175"><filter id="b"><feGaussianBlur stdDeviation="12" /></filter><path fill="#c7b9b6" d="M0 0h175v175H0z"/><g filter="url(#b)" transform="translate(.5 .5)" fill-opacity=".5"><ellipse fill="#542103" rx="1" ry="1" transform="rotate(-52.6 102 -60.4) scale(37.37308 45.36197)"/><ellipse cx="44" cy="136" rx="22" ry="22"/><ellipse fill="#fff" rx="1" ry="1" transform="matrix(9.4116 173.74528 -42.1493 2.28318 174 48.6)"/><ellipse fill="#8f5d4d" rx="1" ry="1" transform="matrix(-19.56744 16.5944 -41.0123 -48.36005 94.8 111.2)"/><ellipse fill="#fff" rx="1" ry="1" transform="matrix(19.06578 -104.6624 40.5775 7.39178 9.4 44.9)"/><ellipse fill="#fff" rx="1" ry="1" transform="matrix(-17.10675 23.14099 -50.77729 -37.53662 12.8 174)"/><ellipse fill="#fff" rx="1" ry="1" transform="rotate(111.6 60.4 46.1) scale(25.77748 147.26883)"/><path fill="#2a1d2b" d="M150 144.2l-64.3-27.5 42.1 46.1 16-11.6z"/><ellipse fill="#b78c78" cx="101" cy="88" rx="37" ry="37"/><ellipse fill="#080000" rx="1" ry="1" transform="rotate(-175.2 39.8 17) scale(24.44234 9.59633)"/><path fill="#3f0f24" d="M11 132l50-25 12 69z"/><ellipse fill="#fff" rx="1" ry="1" transform="rotate(151.8 53.3 105.8) scale(117.0319 21.55059)"/><ellipse fill="#fff" rx="1" ry="1" transform="matrix(-10.57374 -20.15792 71.81476 -37.6701 24 16.4)"/><path fill="#fff" d="M139 138.3l-20.2-6.5L190 68.2 173.4 180z"/><ellipse fill="#eff4f7" cx="32" cy="92" rx="22" ry="30"/><ellipse fill="#070000" cx="57" cy="49" rx="7" ry="23"/><path fill="#cd9c8b" d="M62 48h36v96H62z"/><ellipse fill="#e7e9f9" cx="92" cy="164" rx="23" ry="25"/><path fill="#57412b" d="M122 101l17-23-43-55z"/><ellipse fill="#fff" rx="1" ry="1" transform="rotate(-39.8 210.3 64.1) scale(15.3596 72.68832)"/><path fill="#924832" d="M54 68h15v44H54z"/><ellipse fill="#fff" rx="1" ry="1" transform="matrix(49.58776 8.85017 -2.26084 12.66753 32.5 174)"/></g></svg>