<svg xmlns="http://www.w3.org/2000/svg" viewBox="0 0 171 171"><filter id="b"><feGaussianBlur stdDeviation="12" /></filter><path fill="#9e8c7a" d="M0 0h171v171H0z"/><g filter="url(#b)" transform="translate(.5 .5)" fill-opacity=".5"><ellipse fill="#fff" cx="137" cy="93" rx="41" ry="41"/><ellipse cy="168" rx="60" ry="35"/><ellipse rx="1" ry="1" transform="rotate(-134.6 80.7 -27.3) scale(98.03593 19.21741)"/><ellipse rx="1" ry="1" transform="rotate(-47.6 247.4 -121.4) scale(105.68035 19.57878)"/><ellipse fill="#fff" cx="23" cy="85" rx="22" ry="53"/><ellipse rx="1" ry="1" transform="matrix(97.46416 -101.28025 16.7261 16.09589 12.3 8.4)"/><ellipse rx="1" ry="1" transform="matrix(29.08239 4.3983 -2.01431 13.319 91.9 34.4)"/><ellipse fill="#ffe105" cx="85" cy="150" rx="48" ry="20"/><ellipse fill="#fff" rx="1" ry="1" transform="rotate(-31.9 64.7 -85.3) scale(51.62963 14.61802)"/><path fill="#fff" d="M123 22h31v121h-31z"/><ellipse rx="1" ry="1" transform="rotate(149.4 -14.5 75.4) scale(11.6042 68.18833)"/><ellipse rx="1" ry="1" transform="rotate(-53.6 81.5 -154.3) scale(25.33335 75.32404)"/><path fill="#fff" d="M163 50L121 4H65z"/><ellipse fill="#2b0000" cx="47" cy="120" rx="9" ry="35"/><ellipse rx="1" ry="1" transform="rotate(-67.4 68.1 -22) scale(27.53143 7.699)"/><ellipse rx="1" ry="1" transform="matrix(-15.70455 -22.59588 99.3092 -69.0217 160 168)"/><ellipse fill="#f78b7b" cx="90" cy="76" rx="33" ry="33"/><ellipse cx="19" rx="39" ry="15"/><ellipse cy="23" rx="14" ry="35"/><ellipse fill="#f2faff" rx="1" ry="1" transform="matrix(-18.9382 -6.484 10.9014 -31.84036 31 52.1)"/><path d="M169.9 186L186 31.2l-17.8 73.6L141 186z"/><ellipse fill="#fff119" rx="1" ry="1" transform="matrix(-3.4874 -9.62623 18.03092 -6.53224 128.3 146.9)"/></g></svg>