<svg xmlns="http://www.w3.org/2000/svg" viewBox="0 0 172 171"><filter id="b"><feGaussianBlur stdDeviation="12" /></filter><path fill="#cfc7c4" d="M0 0h172v171H0z"/><g filter="url(#b)" transform="translate(.5 .5)" fill-opacity=".5"><ellipse cx="86" cy="39" rx="34" ry="24"/><ellipse fill="#20160f" cx="84" cy="159" rx="42" ry="10"/><ellipse fill="#be8270" cx="84" cy="70" rx="38" ry="27"/><ellipse fill="#fff" cx="164" cy="44" rx="47" ry="47"/><ellipse fill="#fff" rx="1" ry="1" transform="matrix(25.36624 -169.10811 32.66632 4.89995 17.3 40.7)"/><ellipse fill="#060000" rx="1" ry="1" transform="rotate(-51.2 77.2 -53.2) scale(31.13041 12.71686)"/><ellipse fill="#fff" rx="1" ry="1" transform="matrix(28.7688 -10.15416 20.66536 58.54915 152 124.5)"/><ellipse fill="#ffeae0" rx="1" ry="1" transform="rotate(-6.6 538.3 -704) scale(24.84099 11.32132)"/><path d="M59.6 165.5l-35.7-18.1 4.5-9 35.7 18.2z"/><path fill="#2a2824" d="M79.5 179.1l55.6-23 14.1-14-77.7 23.4z"/><path fill="#e3af9c" d="M60 86h50v71H60z"/><path d="M115.7 58.7L85.6 20l8.7-6.8L124.4 52zM58.4 80.1l-8-.2 1.2-32 8 .2z"/><ellipse fill="#fff" cx="143" cy="9" rx="36" ry="36"/><ellipse fill="#fff" cx="21" cy="170" rx="33" ry="15"/><ellipse fill="#fff" rx="1" ry="1" transform="matrix(132.50081 -42.22384 8.03396 25.21103 40 0)"/><ellipse fill="#fff" rx="1" ry="1" transform="matrix(8.17642 14.64178 -78.02398 43.57098 142.8 170)"/><path fill="#0f0000" d="M68 16L53 48l67-16z"/><ellipse fill="#fff" rx="1" ry="1" transform="matrix(-12.52522 17.65817 -85.97516 -60.98355 0 155)"/><ellipse fill="#f0d9cc" cx="87" cy="146" rx="32" ry="11"/><ellipse fill="#eaf0f2" cx="44" cy="114" rx="20" ry="24"/><ellipse fill="#353032" rx="1" ry="1" transform="matrix(29.51854 10.16971 -1.28064 3.71718 53 153)"/></g></svg>