<svg xmlns="http://www.w3.org/2000/svg" viewBox="0 0 342 342"><filter id="b"><feGaussianBlur stdDeviation="12" /></filter><path fill="#b2a9a3" d="M0 0h342v342H0z"/><g filter="url(#b)" transform="translate(.7 .7) scale(1.33594)" fill-opacity=".5"><ellipse cx="12" cy="248" rx="149" ry="45"/><ellipse fill="#361300" rx="1" ry="1" transform="matrix(26.86609 -10.90919 25.43462 62.63792 164.7 83.3)"/><ellipse fill="#fff" cx="246" cy="201" rx="84" ry="84"/><ellipse fill="#381800" rx="1" ry="1" transform="rotate(-147.6 55.4 22.4) scale(25.65466 61.19654)"/><ellipse fill="#fef9f3" rx="1" ry="1" transform="rotate(48.1 -144.7 117) scale(109.85977 32.79561)"/><ellipse fill="#fff" cx="255" cy="47" rx="71" ry="71"/><ellipse fill="#fff" rx="1" ry="1" transform="rotate(130.5 13 25.2) scale(203.85617 35.8295)"/><ellipse rx="1" ry="1" transform="matrix(-39.81355 -26.44224 21.49015 -32.35729 39.2 238.7)"/><ellipse fill="#ffd2bb" rx="1" ry="1" transform="matrix(-33.07801 -9.93233 7.50655 -24.99937 126.5 75.7)"/><path fill="#be8d74" d="M86 82h78v150H86z"/><ellipse fill="#f4faff" rx="1" ry="1" transform="matrix(-103.0762 -39.29126 9.5879 -25.15277 164.3 0)"/><ellipse cx="124" cy="247" rx="37" ry="15"/><ellipse fill="#f3fbff" cx="12" cy="167" rx="33" ry="33"/><path fill="#341d06" d="M95 144L65 48l2 90z"/><ellipse fill="#3e2a0f" cx="176" cy="122" rx="13" ry="42"/><path fill="#0c0700" d="M141 18l7.2 29.2-27.2 6.7-7.2-29z"/><path fill="#e9eff3" d="M0 0h121v23H0z"/><path fill="#1e190f" d="M67 50l-12 55 66-82z"/><ellipse fill="#d7bca6" cx="124" cy="211" rx="61" ry="21"/><ellipse fill="#ebf0f6" rx="1" ry="1" transform="matrix(26.95214 -.31671 1.67463 142.51004 230 172)"/><ellipse fill="#f6ffff" cx="160" cy="177" rx="8" ry="21"/><ellipse fill="#edf3ff" rx="1" ry="1" transform="matrix(14.87742 -19.88943 15.60013 11.669 181.6 243.8)"/></g></svg>