<svg xmlns="http://www.w3.org/2000/svg" viewBox="0 0 175 175"><filter id="b"><feGaussianBlur stdDeviation="12" /></filter><path fill="#dacabc" d="M0 0h175v175H0z"/><g filter="url(#b)" transform="translate(.5 .5)" fill-opacity=".5"><ellipse fill="#2b0000" rx="1" ry="1" transform="matrix(10.17325 23.39688 -36.29614 15.78201 85 47.7)"/><ellipse fill="#591700" rx="1" ry="1" transform="matrix(9.1174 -52.24033 13.48194 2.35298 53 106.8)"/><ellipse fill="#f8c616" cx="87" cy="151" rx="47" ry="20"/><ellipse fill="#f59684" cx="92" cy="78" rx="30" ry="35"/><ellipse fill="#fff" cx="159" cy="108" rx="36" ry="174"/><ellipse fill="#faffff" cx="26" cy="21" rx="29" ry="101"/><path d="M84 17l33 18-68 23z"/><ellipse fill="#fff" rx="1" ry="1" transform="matrix(18.5438 -7.98622 68.82493 159.8097 15.9 159.4)"/><ellipse fill="#fff" rx="1" ry="1" transform="matrix(-79.25083 -17.19397 5.55343 -25.59698 114.8 0)"/><ellipse fill="#281106" rx="1" ry="1" transform="matrix(-9.23093 5.54953 -10.29221 -17.11977 113.5 42.8)"/><ellipse fill="#d59788" rx="1" ry="1" transform="matrix(-11.59447 40.45532 -26.6529 -7.6387 85.4 113.9)"/><ellipse fill="#030000" cx="51" cy="109" rx="6" ry="22"/><ellipse fill="#fbdb1b" rx="1" ry="1" transform="matrix(4.6145 9.5882 -16.0234 7.71154 129.6 148.8)"/><ellipse fill="#f5fbff" cx="34" cy="24" rx="31" ry="31"/><ellipse fill="#754b37" cx="41" cy="144" rx="12" ry="12"/><ellipse fill="#ebf4fc" cx="143" cy="105" rx="36" ry="35"/><ellipse fill="#f5ae99" cx="93" cy="59" rx="25" ry="14"/><ellipse fill="#fff" rx="1" ry="1" transform="matrix(4.69336 -13.11667 62.98827 22.53822 21.9 166.7)"/><ellipse fill="#0c0000" rx="1" ry="1" transform="rotate(31.7 -50.4 138.5) scale(6.38089 27.34372)"/><ellipse fill="#fff" rx="1" ry="1" transform="matrix(-12.71374 -23.61197 42.29828 -22.77528 156.3 174)"/><path fill="#322113" d="M97 116h9v15h-9z"/><ellipse fill="#f5fbff" rx="1" ry="1" transform="matrix(-2.0039 27.95597 -30.6906 -2.19993 141 14.8)"/></g></svg>