<svg xmlns="http://www.w3.org/2000/svg" viewBox="0 0 171 172"><filter id="b"><feGaussianBlur stdDeviation="12" /></filter><path fill="#d0c7c7" d="M0 0h171v172H0z"/><g filter="url(#b)" transform="translate(.5 .5)" fill-opacity=".5"><ellipse fill="#4a0900" rx="1" ry="1" transform="rotate(-168.5 45.4 27.5) scale(38.07656 50.18113)"/><ellipse fill="#fff" cx="170" cy="123" rx="61" ry="61"/><ellipse fill="#865f54" cx="83" cy="120" rx="27" ry="29"/><ellipse fill="#fff" cx="22" cy="143" rx="42" ry="42"/><ellipse fill="#fff" cx="159" cy="32" rx="36" ry="170"/><ellipse fill="#fbffff" rx="1" ry="1" transform="matrix(30.9678 -1.03803 4.91335 146.58127 16.3 46.8)"/><path d="M99.8 30.6L53.2 59.8l-9-14.4 46.6-29.2z"/><ellipse fill="#060300" rx="1" ry="1" transform="rotate(61.1 17.5 113.7) scale(27.01117 10.67596)"/><ellipse fill="#dd9b86" rx="1" ry="1" transform="matrix(-19.57602 9.06165 -16.71152 -36.10214 90.8 76.3)"/><ellipse fill="#feffff" rx="1" ry="1" transform="rotate(-93.5 131.8 37.2) scale(22.34842 129.57133)"/><ellipse fill="#fff" rx="1" ry="1" transform="matrix(-130.06527 -2.30955 .23603 -13.2921 112.8 7.9)"/><ellipse fill="#a57669" cx="83" cy="99" rx="29" ry="28"/><path fill="#f0d4cf" d="M49 123l49 29-7-24z"/><ellipse fill="#6d7c98" cx="59" cy="131" rx="7" ry="17"/><path fill="#201405" d="M57 27h51v12H57z"/><path fill="#fff" d="M-11 78.2L-35.2 62 23-24.2 47-8z"/><ellipse fill="#d0d2db" rx="1" ry="1" transform="rotate(157.2 3 61) scale(20.5589 41.42306)"/><path fill="#1e1509" d="M48.4 70.3l1.4-26.5 34-30.7-34.6 60.1z"/><ellipse fill="#3e2e28" cx="67" cy="113" rx="8" ry="8"/><ellipse fill="#c8a99b" rx="1" ry="1" transform="rotate(111.4 22.8 82.8) scale(17.86334 11.42494)"/><ellipse fill="#fff" cx="170" cy="8" rx="26" ry="51"/><path fill="#db9e8b" d="M47 75h30v18H47z"/></g></svg>