<svg xmlns="http://www.w3.org/2000/svg" viewBox="0 0 175 175"><filter id="b"><feGaussianBlur stdDeviation="12" /></filter><path fill="#d5c7c2" d="M0 0h175v175H0z"/><g filter="url(#b)" transform="translate(.5 .5)" fill-opacity=".5"><ellipse fill="#7f331a" rx="1" ry="1" transform="matrix(44.43408 -12.40706 13.02779 46.65713 90 74)"/><ellipse rx="1" ry="1" transform="matrix(2.92524 -8.66886 39.7787 13.423 64.4 157)"/><ellipse fill="#fff" rx="1" ry="1" transform="matrix(-29.31715 171.5124 -32.65945 -5.58258 164.8 79.6)"/><ellipse fill="#fff" rx="1" ry="1" transform="matrix(35.5395 8.07438 -37.36333 164.45531 2.1 81.1)"/><ellipse fill="#ffbdad" cx="88" cy="96" rx="26" ry="54"/><path fill="#120000" d="M61 35l70 21-31-35z"/><ellipse fill="#250d00" rx="1" ry="1" transform="matrix(15.65428 -24.5723 7.31367 4.65932 57.9 55)"/><ellipse fill="#fff" rx="1" ry="1" transform="matrix(-2.59617 16.20846 -97.7085 -15.65037 139.6 16.2)"/><path d="M39 132l-23 4 50 33z"/><ellipse fill="#fff" rx="1" ry="1" transform="matrix(-65.65568 -49.11672 9.53026 -12.73936 19 161)"/><path fill="#0f1017" d="M109 168l-44 1 47-16z"/><ellipse fill="#fbc5af" cx="78" cy="142" rx="29" ry="14"/><path fill="#613e20" d="M116 68h22v28h-22z"/><ellipse fill="#feffff" cx="151" cy="146" rx="44" ry="44"/><ellipse fill="#4e2311" rx="1" ry="1" transform="matrix(16.14597 1.41259 -.51912 5.93353 65.4 73.3)"/><ellipse fill="#f7feff" cx="17" rx="56" ry="56"/><path fill="#edf6fa" d="M0 101h64v29H0z"/><ellipse fill="#f6fdfe" cx="152" cy="40" rx="29" ry="29"/><path fill="#481f02" d="M61 101V49L48 85z"/><path fill="#fff" d="M0 171h175v4H0z"/><path fill="#a97f67" d="M100.2 121.4l-1.7 11.8-32.7-4.6 1.7-11.8z"/><path fill="#4b2a14" d="M89 31l31 37-8-39z"/></g></svg>