<svg xmlns="http://www.w3.org/2000/svg" viewBox="0 0 171 171"><filter id="b"><feGaussianBlur stdDeviation="12" /></filter><path fill="#968c8b" d="M0 0h171v171H0z"/><g filter="url(#b)" transform="translate(.5 .5)" fill-opacity=".5"><ellipse fill="#fff" cx="139" cy="83" rx="27" ry="62"/><ellipse rx="1" ry="1" transform="matrix(13.60088 -13.3634 119.14487 121.26211 158.8 13.8)"/><ellipse rx="1" ry="1" transform="matrix(-59.96898 58.90267 -11.61795 -11.82827 15.1 14.2)"/><path d="M203.8 144l-55.9 55.8-29.7-29.7 55.9-55.9z"/><ellipse cy="170" rx="38" ry="38"/><ellipse fill="#fff" cx="27" cy="85" rx="24" ry="58"/><ellipse fill="#682912" cx="87" cy="53" rx="37" ry="37"/><path fill="#fbffff" d="M76.4 183.9L63.2 158l70.4-35.9 13.2 25.9z"/><ellipse rx="1" ry="1" transform="matrix(22.24754 38.07075 -16.51958 9.6536 0 143)"/><path fill="#fff" d="M51 3h68v19H51z"/><ellipse rx="1" ry="1" transform="rotate(-58.2 15 -2.4) scale(60.83597 20.92977)"/><ellipse fill="#e2937f" cx="83" cy="74" rx="29" ry="29"/><ellipse fill="#fff" rx="1" ry="1" transform="rotate(-64.3 144.9 34.4) scale(11.75864 31.45914)"/><ellipse rx="1" ry="1" transform="matrix(9.01273 14.29715 -56.3784 35.5402 149.6 163.7)"/><ellipse cx="170" cy="7" rx="30" ry="30"/><path d="M172.7 29.7l-92-39.1 8.6-20.3 92 39.1z"/><ellipse rx="1" ry="1" transform="matrix(65.8438 28.21225 -3.85858 9.00543 18.6 159)"/><ellipse fill="#f3f5fa" cx="32" cy="106" rx="26" ry="37"/><ellipse fill="#854b3b" rx="1" ry="1" transform="matrix(-23.56274 33.15794 -14.54481 -10.33585 96.4 95.7)"/><ellipse fill="#fff" rx="1" ry="1" transform="matrix(22.09506 -16.06035 8.23498 11.32929 41.5 28.7)"/><ellipse fill="#f1f5fe" rx="1" ry="1" transform="matrix(17.40978 -57.17602 21.68185 6.602 137.9 103.7)"/><ellipse fill="#010000" rx="1" ry="1" transform="matrix(-10.9851 -21.93674 7.77087 -3.89136 111 51)"/></g></svg>