<svg xmlns="http://www.w3.org/2000/svg" viewBox="0 0 171 171"><filter id="b"><feGaussianBlur stdDeviation="12" /></filter><path fill="#978681" d="M0 0h171v171H0z"/><g filter="url(#b)" transform="translate(.5 .5)" fill-opacity=".5"><ellipse rx="1" ry="1" transform="matrix(-7.4282 25.68892 -163.30961 -47.22256 3.8 156.7)"/><ellipse rx="1" ry="1" transform="matrix(-22.99262 22.04913 -54.39876 -56.7265 169.9 6.7)"/><ellipse cx="168" cy="164" rx="33" ry="33"/><ellipse fill="#fff" rx="1" ry="1" transform="matrix(-33.21314 -37.93005 19.2962 -16.89656 24 96.7)"/><path fill="#fff" d="M157.7 56L190 81.3 122.3 168 90 142.7z"/><ellipse cx="9" cy="6" rx="28" ry="28"/><ellipse fill="#fff" rx="1" ry="1" transform="matrix(36.9559 -37.24654 11.18762 11.10032 35.2 40)"/><ellipse fill="#fff" rx="1" ry="1" transform="matrix(25.25295 37.7909 -12.6062 8.42383 142.6 48)"/><ellipse rx="1" ry="1" transform="matrix(-152.64375 -69.85004 13.7835 -30.12116 6.3 162.9)"/><ellipse fill="#ffbda5" cx="74" cy="122" rx="34" ry="34"/><ellipse rx="1" ry="1" transform="matrix(-14.9867 67.36758 -14.11292 -3.13958 5.7 10.8)"/><path d="M178.8 160.1l-60.4 39.2-15.2-23.4 60.4-39.2z"/><ellipse fill="#fff" rx="1" ry="1" transform="matrix(.96233 -12.03606 37.598 3.0061 92.3 12.8)"/><ellipse fill="#1d0000" rx="1" ry="1" transform="matrix(-27.42544 -3.39732 .99922 -8.06638 90.5 34.9)"/><ellipse rx="1" ry="1" transform="matrix(-61.05438 -12.31072 2.71126 -13.44634 170 9.8)"/><path d="M-4 31.6l-5.2-12 115.1-51.2 5.3 12z"/><ellipse fill="#541000" rx="1" ry="1" transform="matrix(10.94709 -1.44365 4.2066 31.89832 121 75.5)"/><ellipse fill="#3a0000" rx="1" ry="1" transform="matrix(5.67927 -27.55744 8.90342 1.8349 53.7 64.3)"/><ellipse fill="#fff" cx="133" cy="128" rx="22" ry="22"/><path d="M131 186l55-6-16-73z"/><ellipse fill="#ffab92" cx="84" cy="67" rx="24" ry="26"/><ellipse rx="1" ry="1" transform="matrix(4.6784 49.4923 -15.551 1.47 170 13.2)"/></g></svg>