<svg xmlns="http://www.w3.org/2000/svg" viewBox="0 0 175 175"><filter id="b"><feGaussianBlur stdDeviation="12" /></filter><path fill="#d5c7c2" d="M0 0h175v175H0z"/><g filter="url(#b)" transform="translate(.5 .5)" fill-opacity=".5"><ellipse fill="#782a10" cx="87" cy="68" rx="45" ry="45"/><path d="M72.2 159.3l-9 13.3-41.4-28 9-13.2z"/><ellipse fill="#fff" cx="159" cy="116" rx="26" ry="174"/><ellipse cx="88" cy="164" rx="23" ry="8"/><ellipse fill="#fff" cx="17" cy="26" rx="43" ry="40"/><ellipse fill="#ffc4b7" cx="90" cy="82" rx="24" ry="39"/><ellipse fill="#fff" rx="1" ry="1" transform="matrix(10.18762 -19.24722 75.37425 39.89583 6.8 160.5)"/><path fill="#250c00" d="M51.5 96.5l16.3 4.8L40 64l38.8-40.4z"/><ellipse fill="#7f5e45" rx="1" ry="1" transform="matrix(14.74343 .07203 -.1408 28.82182 124 82)"/><ellipse fill="#110100" rx="1" ry="1" transform="rotate(-84.3 65.5 -32.2) scale(8.73933 24.65919)"/><ellipse fill="#fff" cx="152" cy="141" rx="46" ry="46"/><ellipse fill="#f4ffff" cx="19" cy="105" rx="31" ry="31"/><ellipse fill="#fff" rx="1" ry="1" transform="rotate(94 41.2 44) scale(17.78506 124.58814)"/><path fill="#41230f" d="M126 47L89 20l22 40z"/><ellipse fill="#fff" cx="3" cy="130" rx="17" ry="174"/><path fill="#e29f8d" d="M65 49h39v94H65z"/><ellipse fill="#0e1118" rx="1" ry="1" transform="matrix(-17.24698 -14.14992 2.47733 -3.01955 33.5 146.7)"/><ellipse fill="#f5fbfd" rx="1" ry="1" transform="matrix(-23.79624 13.51815 -52.69195 -92.75461 154 43.7)"/><path fill="#2e2c30" d="M24 144l45 25 40-6z"/><path fill="#562c19" d="M50 69h29v11H50z"/><ellipse fill="#fff" cx="138" cy="174" rx="31" ry="31"/><ellipse fill="#fff" cx="43" cy="172" rx="25" ry="7"/></g></svg>