<svg xmlns="http://www.w3.org/2000/svg" viewBox="0 0 175 175"><filter id="b"><feGaussianBlur stdDeviation="12" /></filter><path fill="#cfc1be" d="M0 0h175v175H0z"/><g filter="url(#b)" transform="translate(.5 .5)" fill-opacity=".5"><ellipse fill="#280000" rx="1" ry="1" transform="matrix(14.80802 -71.15699 16.62748 3.46024 58 89.2)"/><ellipse fill="#643327" cx="112" cy="92" rx="18" ry="63"/><ellipse fill="#fff" rx="1" ry="1" transform="rotate(-95.9 101 -43.8) scale(129.22272 31.63658)"/><ellipse fill="#fff" cx="19" cy="29" rx="36" ry="36"/><path fill="#fff" d="M13-16l41 206-70-21z"/><ellipse fill="#0c0000" cx="92" cy="31" rx="21" ry="9"/><ellipse fill="#d8957d" cx="90" cy="84" rx="28" ry="52"/><ellipse cx="49" cy="86" rx="6" ry="40"/><ellipse fill="#fff" cx="161" cy="126" rx="31" ry="174"/><path fill="#0f1719" d="M99 115l11 28 20-59z"/><ellipse fill="#fff" cx="63" cy="10" rx="174" ry="14"/><path fill="#451b1b" d="M42.4 126.9l11 8.8L37.5 155l-11-8.8z"/><ellipse fill="#0a0000" rx="1" ry="1" transform="matrix(-.63824 23.77946 -5.87853 -.15778 56.3 110.4)"/><path fill="#dca49d" d="M147 148l-80-32-26 49z"/><path fill="#0a0100" d="M50 40h12v32H50z"/><ellipse fill="#fff" rx="1" ry="1" transform="matrix(-107.46754 -40.6086 5.02567 -13.30006 26.8 167.3)"/><path fill="#eaf0f3" d="M0 23h41v102H0z"/><ellipse fill="#d29c8f" rx="1" ry="1" transform="matrix(11.1153 30.43836 -23.16586 8.45957 93.3 66.3)"/><path fill="#fff" d="M88.8 175.5l95.5-32.9 6.9 19.9-95.5 32.9z"/><path fill="#190500" d="M122.6 48.5l-15.3-21.9L80.4 22l-1.3 3z"/><ellipse fill="#594e48" rx="1" ry="1" transform="rotate(-87.8 116.7 -10.7) scale(32.04447 8.949)"/><path fill="#6d4844" d="M79 58h15v14H79z"/></g></svg>