<svg xmlns="http://www.w3.org/2000/svg" viewBox="0 0 171 172"><filter id="b"><feGaussianBlur stdDeviation="12" /></filter><path fill="#d0c7c7" d="M0 0h171v172H0z"/><g filter="url(#b)" transform="translate(.5 .5)" fill-opacity=".5"><ellipse fill="#4d1000" cx="86" cy="69" rx="39" ry="57"/><ellipse fill="#fff" cx="170" cy="115" rx="62" ry="62"/><ellipse fill="#fcffff" cy="137" rx="61" ry="61"/><ellipse fill="#fff" rx="1" ry="1" transform="matrix(-73.52924 -53.60315 15.8514 -21.7439 153 23.1)"/><ellipse fill="#fff" rx="1" ry="1" transform="matrix(74.9317 -50.02488 19.84807 29.7302 39.4 0)"/><path d="M123 50l-18-30-57 11z"/><path d="M50 43l32-23-34 56z"/><path fill="#b4867b" d="M57 59h58v85H57z"/><ellipse fill="#fff" cx="131" cy="171" rx="164" ry="24"/><ellipse fill="#ffb9a7" cx="84" cy="53" rx="13" ry="16"/><path fill="#2b1b0d" d="M122 35.3l-3.1 49-6.1-14.5-38.2-50.3z"/><path fill="#fdffff" d="M203.3-9.4l-.6 31-124-2.2.6-31z"/><ellipse fill="#f5fbfe" rx="1" ry="1" transform="matrix(37.534 -4.14391 7.30899 66.20204 11.1 20.8)"/><path fill="#1e2a41" d="M54 139l36 10-14-10z"/><ellipse fill="#595259" rx="1" ry="1" transform="matrix(4.4983 2.6709 -10.56504 17.79356 63.7 118.7)"/><ellipse fill="#dcae9c" rx="1" ry="1" transform="matrix(8.7347 -13.48948 8.41391 5.44817 107.4 86)"/><ellipse fill="#f2f7f8" rx="1" ry="1" transform="rotate(118.6 63.8 68.7) scale(87.63189 15.10861)"/><ellipse fill="#fff" rx="1" ry="1" transform="matrix(-23.0474 15.80997 -55.97694 -81.60187 .4 157.1)"/><path fill="#23170c" d="M47 41v24l38-48z"/><path fill="#d4d5d6" d="M29.2 69.6L75.6 8.2l-42.3 6L6.8 50z"/><ellipse fill="#fff" rx="1" ry="1" transform="matrix(16.13658 15.21312 -116.61666 123.6954 155.5 156.3)"/><ellipse fill="#dcdee1" cx="25" cy="86" rx="26" ry="39"/></g></svg>