<svg xmlns="http://www.w3.org/2000/svg" viewBox="0 0 171 171"><filter id="b"><feGaussianBlur stdDeviation="12" /></filter><path fill="#ccc1bc" d="M0 0h171v171H0z"/><g filter="url(#b)" transform="translate(.5 .5)" fill-opacity=".5"><path d="M131 35.7l-9.5 27.4L61 42.3l9.5-27.4z"/><ellipse fill="#5f341b" cx="84" cy="144" rx="46" ry="26"/><ellipse fill="#fff" cx="152" cy="42" rx="26" ry="170"/><ellipse fill="#fff" cx="23" cy="24" rx="38" ry="38"/><ellipse fill="#f9ffff" rx="1" ry="1" transform="matrix(1.5928 -149.1363 30.24066 .32298 19 113)"/><path fill="#190000" d="M46.4 64.8l19.9-35.9 11.3 6.3-19.9 35.9z"/><ellipse cx="91" cy="34" rx="25" ry="14"/><path fill="#110200" d="M110 43h18v45h-18z"/><ellipse fill="#e19980" cx="79" cy="80" rx="36" ry="36"/><ellipse fill="#fff" cx="112" cy="7" rx="164" ry="15"/><ellipse fill="#4e4440" rx="1" ry="1" transform="rotate(79 -52 112.8) scale(12.89681 38.69518)"/><path fill="#f8fdff" d="M131.9 57.3L95.3-10.4 173-16l3 88z"/><ellipse fill="#c68d69" rx="1" ry="1" transform="matrix(29.64751 -9.39093 3.76864 11.89774 113.9 152.5)"/><ellipse fill="#fff" cx="146" cy="170" rx="30" ry="16"/><path d="M61.5 34.5l6.4 2.9-13.4 30.1-6.4-2.9z"/><ellipse fill="#fff" rx="1" ry="1" transform="matrix(4.26886 -19.2556 62.2419 13.7987 2.8 167)"/><path fill="#896758" d="M98 116v42l23-78z"/><ellipse fill="#ecf3f7" cx="147" cy="111" rx="34" ry="30"/><ellipse fill="#7b5746" rx="1" ry="1" transform="matrix(13.6186 4.58253 -1.82513 5.424 65.8 71.1)"/><ellipse fill="#d2d5da" rx="1" ry="1" transform="rotate(-42.8 74.4 -41.7) scale(65.05498 7.20792)"/><ellipse fill="#fff" rx="1" ry="1" transform="matrix(86.90189 -85.39825 18.23876 18.5599 170 157.6)"/><path fill="#f4cab7" d="M52 65l24-25 37 21z"/></g></svg>