<svg xmlns="http://www.w3.org/2000/svg" viewBox="0 0 175 175"><filter id="b"><feGaussianBlur stdDeviation="12" /></filter><path fill="#dacabc" d="M0 0h175v175H0z"/><g filter="url(#b)" transform="translate(.5 .5)" fill-opacity=".5"><ellipse fill="#1c0000" cx="89" cy="44" rx="36" ry="24"/><path fill="#ac6928" d="M27 159l106 4L60 25z"/><ellipse fill="#fff" cx="15" cy="30" rx="46" ry="46"/><ellipse fill="#fff" cx="158" cy="110" rx="35" ry="174"/><path fill="#180000" d="M43 90h14v58H43z"/><ellipse fill="#fff62c" rx="1" ry="1" transform="matrix(-46.06071 8.20466 -2.76811 -15.54009 98.2 154)"/><ellipse fill="#f5988d" cx="94" cy="69" rx="27" ry="26"/><ellipse fill="#feffff" cx="10" cy="129" rx="24" ry="173"/><path d="M89 17L47 57l11 18z"/><path fill="#020000" d="M75 21.2l50.8 18.5-4.8 13.1-50.8-18.5z"/><ellipse fill="#efb69e" rx="1" ry="1" transform="matrix(-22.67904 80.68326 -19.24661 -5.40998 76.4 126.7)"/><ellipse fill="#fff" rx="1" ry="1" transform="matrix(-132.88988 -17.89369 2.86154 -21.25162 96.1 0)"/><ellipse fill="#fff" rx="1" ry="1" transform="matrix(10.07341 -20.47187 52.71546 25.93922 24 174.1)"/><ellipse fill="#fbffff" cx="174" cy="99" rx="31" ry="174"/><path fill="#1a0300" d="M102.5 20.2l4.6 13.3-41.6 14.3-4.6-13.3z"/><ellipse fill="azure" cx="116" cy="122" rx="12" ry="12"/><path fill="#fff" d="M190 177l-29-28-93 35z"/><path fill="#785229" d="M49 77.5l9.7 90-30-18 19-53z"/><ellipse fill="#dfe6f0" rx="1" ry="1" transform="matrix(-27.44376 56.03302 -5.50344 -2.69546 50 48.2)"/><ellipse fill="#d69288" cx="95" cy="77" rx="22" ry="35"/><path fill="#331a0f" d="M108 24.6l16.8 16.6 1 20.3L69 23.9z"/><ellipse fill="#dde1e6" cx="16" cy="88" rx="31" ry="31"/></g></svg>