<svg xmlns="http://www.w3.org/2000/svg" viewBox="0 0 172 171"><filter id="b"><feGaussianBlur stdDeviation="12" /></filter><path fill="#cfc7c4" d="M0 0h172v171H0z"/><g filter="url(#b)" transform="translate(.5 .5)" fill-opacity=".5"><ellipse fill="#2d0500" cx="83" cy="49" rx="36" ry="36"/><ellipse fill="#17100a" cx="81" cy="160" rx="42" ry="9"/><ellipse fill="#fffaea" rx="1" ry="1" transform="matrix(26.55077 2.35392 -1.33953 15.10906 88.6 62.9)"/><ellipse fill="#fff" cx="153" cy="27" rx="33" ry="170"/><ellipse cx="86" cy="32" rx="30" ry="15"/><ellipse fill="#fff" rx="1" ry="1" transform="matrix(-61.01699 52.29788 -23.47682 -27.39087 5.4 36.2)"/><ellipse fill="#1c1c1d" rx="1" ry="1" transform="matrix(-48.07803 -22.9009 2.50102 -5.25063 62.5 160.3)"/><ellipse fill="#fcffff" rx="1" ry="1" transform="matrix(-19.07546 -7.64312 36.37084 -90.7732 9.6 132)"/><ellipse fill="#ce9585" cx="86" cy="78" rx="35" ry="35"/><path d="M53 34h7v52h-7z"/><path fill="#403a33" d="M155 144l-93 42 33-33z"/><ellipse fill="#e3b7a1" rx="1" ry="1" transform="matrix(1.22257 -21.35015 35.201 2.01571 85.9 138)"/><ellipse fill="#fff" rx="1" ry="1" transform="matrix(-3.3675 12.21843 -54.54702 -15.0336 30 170)"/><path fill="#fff" d="M187-16v94L76-6z"/><ellipse fill="#fff" rx="1" ry="1" transform="matrix(28.97437 -18.5207 10.79676 16.8908 162.6 158.4)"/><ellipse fill="#feffff" rx="1" ry="1" transform="rotate(174.1 9.1 5.4) scale(99.68901 15.33572)"/><path d="M114.7 37.9l8.2 14.9-9.6 5.3-8.2-14.9z"/><ellipse fill="#f2f7fb" cx="141" cy="108" rx="33" ry="34"/><path fill="#0c0300" d="M102.8 15.7L51.1 68.3l-2.7-3.5L60 26.9z"/><ellipse fill="#ecc5bb" cx="93" cy="65" rx="14" ry="24"/><path fill="#fff" d="M79.7 176.7l-91.3-4-4.4-88.8 45.7 69.7z"/><path fill="#383533" d="M112 91l9-17-4-22z"/></g></svg>