<svg xmlns="http://www.w3.org/2000/svg" viewBox="0 0 172 171"><filter id="b"><feGaussianBlur stdDeviation="12" /></filter><path fill="#cfc7c4" d="M0 0h172v171H0z"/><g filter="url(#b)" transform="translate(.5 .5)" fill-opacity=".5"><ellipse cx="85" cy="36" rx="34" ry="21"/><ellipse fill="#18130f" rx="1" ry="1" transform="matrix(-51.21933 -18.4401 3.46597 -9.6271 75.7 163.2)"/><ellipse fill="#2b0400" cx="60" cy="58" rx="11" ry="32"/><ellipse fill="#fff" cx="157" cy="37" rx="40" ry="40"/><ellipse fill="#fff" rx="1" ry="1" transform="matrix(-39.54534 -7.75849 32.92125 -167.80104 11.4 47.5)"/><ellipse fill="#fff" cx="171" cy="111" rx="60" ry="60"/><ellipse fill="#d59a88" cx="91" cy="74" rx="34" ry="32"/><path fill="#0a0602" d="M141.7 154.2l-67.2 19.3-2.2-7.7 67.2-19.3z"/><path fill="#020000" d="M96 11l30 44-75-24z"/><ellipse fill="#f1c5ba" rx="1" ry="1" transform="rotate(-32.8 145.6 -109.3) scale(24.76487 13.81793)"/><ellipse fill="#fff" rx="1" ry="1" transform="matrix(5.3306 22.37552 -35.1355 8.37046 157 170)"/><ellipse fill="#fff" cx="137" rx="56" ry="23"/><ellipse fill="#fff" cx="17" cy="170" rx="29" ry="21"/><ellipse fill="#e2b6a3" cx="83" cy="132" rx="36" ry="26"/><path d="M52 41h8v36h-8z"/><ellipse fill="#f8fcfe" cx="12" rx="55" ry="55"/><ellipse fill="#c29386" cx="86" cy="98" rx="24" ry="34"/><path fill="#fff" d="M165 185l-119 1 141-43z"/><ellipse fill="#1c1a17" cx="116" cy="58" rx="4" ry="25"/><ellipse fill="#e5eaec" cx="38" cy="110" rx="25" ry="29"/><path fill="#1b0a02" d="M118.7 34.2L60.3 51 47.9 40l24.7-25z"/><path fill="#f0f4f6" d="M121 22h51v121h-51z"/></g></svg>