<svg xmlns="http://www.w3.org/2000/svg" viewBox="0 0 171 171"><filter id="b"><feGaussianBlur stdDeviation="12" /></filter><path fill="#ccc1bc" d="M0 0h171v171H0z"/><g filter="url(#b)" transform="translate(.5 .5)" fill-opacity=".5"><ellipse fill="#391406" cx="89" cy="53" rx="39" ry="32"/><ellipse fill="#5c3016" cx="86" cy="145" rx="48" ry="24"/><ellipse fill="#fff" rx="1" ry="1" transform="matrix(23.51481 -2.6376 18.94972 168.94054 149.1 34.9)"/><ellipse fill="#ffceb6" cx="82" cy="71" rx="28" ry="28"/><ellipse fill="#fff" cx="15" cy="16" rx="50" ry="50"/><ellipse fill="#f9ffff" cx="16" cy="88" rx="33" ry="132"/><ellipse rx="1" ry="1" transform="rotate(25 -34.3 243.1) scale(30.33168 13.69767)"/><path fill="#4f3c34" d="M119 96.3l11.8-26.5-9-33.4-26.6 111.4z"/><ellipse fill="#d99d8b" cx="80" cy="92" rx="38" ry="35"/><path fill="#fff" d="M87 184l93.5-54 10.5 18-93.5 54z"/><ellipse fill="#fbffff" rx="1" ry="1" transform="rotate(-33.1 99.5 -231.6) scale(29.99523 76.65273)"/><path fill="#2a363f" d="M74.4 160.8l-28-10.7 11.2-29 28 10.8z"/><path d="M62 34L48 63l45-43z"/><ellipse fill="#eef5fa" cx="144" cy="108" rx="29" ry="32"/><ellipse fill="#fff" rx="1" ry="1" transform="rotate(124.8 -34.3 85.8) scale(19.43218 71.37649)"/><path fill="#894c26" d="M28 149.7l8.2-11.4 13.8 10-8.2 11.4z"/><ellipse fill="#c99878" rx="1" ry="1" transform="matrix(-4.0651 -13.3125 47.64424 -14.54861 95.7 157.6)"/><ellipse fill="#f9feff" cx="61" cy="5" rx="170" ry="16"/><ellipse fill="#ffd8c9" rx="1" ry="1" transform="rotate(111.1 21.5 59.4) scale(12.55704 20.90442)"/><ellipse fill="#ccced2" rx="1" ry="1" transform="matrix(31.85189 -30.86285 10.44101 10.7756 42.1 35.8)"/><path fill="#303130" d="M116.6 52.8l12.9 1.6-4 32.8-13-1.6z"/><ellipse fill="#14100e" rx="1" ry="1" transform="matrix(4.1146 -9.81705 17.68964 7.41421 100.5 32.6)"/></g></svg>