<svg xmlns="http://www.w3.org/2000/svg" viewBox="0 0 684 684"><filter id="b"><feGaussianBlur stdDeviation="12" /></filter><path fill="#baaca4" d="M0 0h684v684H0z"/><g filter="url(#b)" transform="translate(1.3 1.3) scale(2.67188)" fill-opacity=".5"><ellipse fill="#450d00" rx="1" ry="1" transform="rotate(87 -58.6 182.9) scale(47.02203 87.71609)"/><ellipse rx="1" ry="1" transform="matrix(-13.97772 21.11803 -41.72685 -27.6184 150.8 63)"/><ellipse fill="#f9ffff" cx="27" cy="54" rx="59" ry="59"/><ellipse fill="#fff" cx="239" cy="158" rx="64" ry="64"/><ellipse fill="#f9ffff" cx="15" cy="167" rx="63" ry="63"/><ellipse cx="177" cy="97" rx="15" ry="41"/><ellipse fill="#fbffff" rx="1" ry="1" transform="rotate(-33 169.2 -357.5) scale(46.76273 146.58254)"/><path d="M109.8 32.4L75 78l108.3-21-21.6-23.2z"/><ellipse rx="1" ry="1" transform="matrix(7.51275 18.0006 -32.77631 13.67955 107 211.5)"/><ellipse fill="#f0faff" rx="1" ry="1" transform="rotate(176.6 49.6 9.9) scale(72.56125 19.08795)"/><ellipse fill="#ffd9ba" rx="1" ry="1" transform="matrix(-33.83385 -15.6015 6.43505 -13.95522 134.5 86)"/><path d="M73.5 82.3l6 40.2-1.5-19.6 45.3-71.6z"/><ellipse fill="#a5632a" cx="201" cy="250" rx="38" ry="38"/><ellipse fill="#4c2e1c" rx="1" ry="1" transform="rotate(24.9 -276.1 450.6) scale(8.75675 55.7842)"/><ellipse fill="#e09173" cx="124" cy="135" rx="50" ry="53"/><path fill="#0f1510" d="M79.8 259.6l40-46.4-36.1-48.4L83 199z"/><ellipse fill="#f5ffff" rx="1" ry="1" transform="rotate(-106.5 92.4 122.5) scale(20.51594 31.37973)"/><path fill="#a46d3f" d="M31 234h204v22H31z"/><path fill="#edf8ff" d="M251.9 270.9l-37.3-76.4 31.5-15.4 37.3 76.4z"/><ellipse cx="181" cy="94" rx="12" ry="33"/><ellipse fill="#dfe4e9" cx="59" cy="111" rx="15" ry="96"/><path d="M166 183.2l-37.3 23.3-4.7-7.7 37.3-23.3z"/></g></svg>