<svg xmlns="http://www.w3.org/2000/svg" viewBox="0 0 175 175"><filter id="b"><feGaussianBlur stdDeviation="12" /></filter><path fill="#cfc1be" d="M0 0h175v175H0z"/><g filter="url(#b)" transform="translate(.5 .5)" fill-opacity=".5"><ellipse fill="#6e3c2b" rx="1" ry="1" transform="matrix(-1.81482 -69.30503 48.8012 -1.2779 88.1 90.8)"/><path fill="#fff" d="M190 1l-80-7 46 196z"/><ellipse fill="#fff" rx="1" ry="1" transform="rotate(-176.5 11 11.6) scale(26.93118 162.16735)"/><path fill="#100100" d="M57.9 148l-21.4 3.2 7.9-92.9 26.3-35z"/><ellipse fill="#ffdbce" cx="82" cy="140" rx="24" ry="24"/><ellipse fill="#fff" cx="174" cy="139" rx="49" ry="49"/><ellipse fill="#f5b19e" rx="1" ry="1" transform="rotate(-176.1 46 35) scale(28.25584 36.67483)"/><path fill="#36272b" d="M97 125l30-49v74z"/><ellipse fill="#fff" rx="1" ry="1" transform="rotate(89.3 44.4 45.3) scale(22.37401 122.79146)"/><ellipse fill="#fff" rx="1" ry="1" transform="matrix(7.98303 -17.51715 77.36184 35.25582 33 174)"/><path fill="#070000" d="M124 42l-24-20-40 6z"/><path fill="#fff" d="M192.5 165.8l-96.1 47-15-30.6 96.2-47z"/><ellipse fill="#f9feff" cx="169" cy="46" rx="42" ry="134"/><ellipse fill="#d58da9" rx="1" ry="1" transform="matrix(31.69441 -.35196 .09441 8.50219 116 147)"/><ellipse fill="#faffff" cx="19" rx="52" ry="50"/><ellipse fill="#3a2a22" rx="1" ry="1" transform="matrix(-5.02576 -8.3716 16.97973 -10.19353 71.8 35.2)"/><ellipse fill="#1c0e02" cx="52" cy="83" rx="7" ry="39"/><path fill="#a8715f" d="M98 60L56 89l-5-18z"/><path fill="#603d3b" d="M42 159l-15-16 39-38z"/><path fill="#fff" d="M-16 110l96 80-96-16z"/><path fill="#dee2e5" d="M50 7L0 55l40 69z"/><ellipse fill="#dab2a3" rx="1" ry="1" transform="matrix(11.49182 7.26483 -27.45196 43.4247 81 119.5)"/></g></svg>