<svg xmlns="http://www.w3.org/2000/svg" viewBox="0 0 175 175"><filter id="b"><feGaussianBlur stdDeviation="12" /></filter><path fill="#c7b9b6" d="M0 0h175v175H0z"/><g filter="url(#b)" transform="translate(.5 .5)" fill-opacity=".5"><ellipse fill="#5c2507" cx="88" cy="61" rx="43" ry="43"/><ellipse fill="#030000" cx="47" cy="138" rx="23" ry="23"/><ellipse fill="#fff" rx="1" ry="1" transform="matrix(-22.0085 -162.77838 34.39114 -4.64986 170 89.7)"/><ellipse fill="#fff" cx="18" cy="20" rx="33" ry="108"/><ellipse fill="#180005" rx="1" ry="1" transform="rotate(-62.1 178.4 -28.4) scale(11.94282 24.38352)"/><ellipse fill="#ab7963" cx="95" cy="95" rx="43" ry="50"/><ellipse fill="#fff" cx="9" cy="167" rx="31" ry="25"/><ellipse fill="#fff" rx="1" ry="1" transform="rotate(-150.5 61.4 -16.1) scale(120.22517 32.68333)"/><ellipse fill="#170200" cx="70" cy="34" rx="17" ry="17"/><path fill="#380c23" d="M72 154.8l-12.5 15.6-43.6-35.2 12.6-15.6z"/><ellipse fill="#fff" rx="1" ry="1" transform="matrix(-69.94725 20.69739 -3.0401 -10.27411 153.9 165)"/><path fill="#fff" d="M-2-16L-16 86 98-13z"/><ellipse fill="#d4a497" rx="1" ry="1" transform="matrix(-16.80662 7.98864 -14.7636 -31.05988 84.4 75.3)"/><ellipse fill="#380309" rx="1" ry="1" transform="matrix(-3.64814 -3.59224 20.20479 -20.51919 50.8 117.3)"/><ellipse fill="#fff" cx="1" cy="170" rx="18" ry="60"/><path d="M50 42h11v28H50z"/><path fill="#090000" d="M73 34h35v12H73z"/><ellipse fill="#fff" cx="165" cy="121" rx="31" ry="31"/><ellipse fill="#e7e6f4" cx="94" cy="167" rx="22" ry="30"/><ellipse fill="#eaf1f4" cx="28" cy="98" rx="24" ry="24"/><path fill="#75614a" d="M110 49h23v61h-23z"/><path fill="#6b5653" d="M95.8 126.4l-22.2-13.8 50.2 55.3-13.7-70z"/></g></svg>