<svg xmlns="http://www.w3.org/2000/svg" viewBox="0 0 175 175"><filter id="b"><feGaussianBlur stdDeviation="12" /></filter><path fill="#dacabc" d="M0 0h175v175H0z"/><g filter="url(#b)" transform="translate(.5 .5)" fill-opacity=".5"><ellipse fill="#66190c" rx="1" ry="1" transform="matrix(28.26808 -45.06318 27.42417 17.20315 84 67.5)"/><ellipse fill="#450a00" cx="47" cy="132" rx="13" ry="30"/><ellipse cx="90" cy="33" rx="29" ry="12"/><ellipse fill="#fff" cx="156" cy="60" rx="32" ry="174"/><ellipse fill="#ffd10e" rx="1" ry="1" transform="matrix(-2.27733 -16.9621 49.3177 -6.62139 96 151.7)"/><path fill="#f5af93" d="M50.5 155.6L73.5 47l44 9.4-23 108.6z"/><ellipse fill="#fff" rx="1" ry="1" transform="rotate(-78.6 55.9 38.7) scale(131.31757 39.01993)"/><ellipse rx="1" ry="1" transform="matrix(-10.21694 23.89545 -8.14576 -3.48287 64 53.1)"/><ellipse fill="#fdffff" rx="1" ry="1" transform="matrix(2.11569 -13.20867 95.37269 15.27623 121.5 13.3)"/><path fill="#fff" d="M-17.6 126l124.2 69-15 27-124.2-68.8z"/><path fill="#0d0200" d="M79 20.8l28.7 3.8L127 43.2l-2.9 18.3z"/><path fill="#42260f" d="M42.6 131l.3-48 20.9 18.3L50 135.7z"/><path fill="#9b6b56" d="M105.6 139.5l1.2-14.1.4-14.9-39.4 11z"/><ellipse fill="#fbffff" cx="174" cy="81" rx="32" ry="174"/><ellipse fill="#e6a59a" cx="92" cy="77" rx="31" ry="31"/><ellipse fill="#f6feff" cx="6" cy="14" rx="66" ry="36"/><ellipse fill="#e9f3fd" rx="1" ry="1" transform="matrix(10.5416 -38.0118 16.796 4.65794 130 97)"/><ellipse fill="#fff" rx="1" ry="1" transform="rotate(71.9 -52.6 180.1) scale(13.53233 107.97443)"/><path fill="#9c6f38" d="M28.4 147l6 6.8L61 164.3 41 108z"/><path fill="#261109" d="M50 68l6.5-1.6L104.3 20 65 27.2z"/><ellipse fill="#f4f8fe" cx="138" cy="16" rx="31" ry="21"/><ellipse fill="#fff" rx="1" ry="1" transform="matrix(-9.29499 19.6637 -67.5265 -31.91963 0 159.4)"/></g></svg>