<svg xmlns="http://www.w3.org/2000/svg" viewBox="0 0 342 342"><filter id="b"><feGaussianBlur stdDeviation="12" /></filter><path fill="#b4a3a0" d="M0 0h342v342H0z"/><g filter="url(#b)" transform="translate(.7 .7) scale(1.33594)" fill-opacity=".5"><ellipse fill="#0c0000" cx="183" cy="148" rx="23" ry="72"/><ellipse fill="#040000" rx="1" ry="1" transform="matrix(-16.76388 107.96474 -21.93873 -3.40647 85.6 133)"/><ellipse fill="#fff" rx="1" ry="1" transform="matrix(-8.42762 123.02637 -44.51535 -3.04941 24.9 105.5)"/><ellipse fill="#fff" cx="255" cy="58" rx="66" ry="66"/><ellipse fill="#fff" rx="1" ry="1" transform="matrix(23.41908 -4.69772 20.3621 101.50918 232.5 150)"/><ellipse fill="#0c0000" rx="1" ry="1" transform="matrix(-38.87438 -7.5841 2.63127 -13.4873 146.1 34.4)"/><ellipse fill="#f4ffff" rx="1" ry="1" transform="matrix(-14.6838 -24.83766 101.85434 -60.2154 66 17.8)"/><ellipse rx="1" ry="1" transform="rotate(21.7 -372 543.4) scale(20.51883 24.49943)"/><ellipse fill="#f9ffff" rx="1" ry="1" transform="rotate(106.3 95.6 83.9) scale(20.63862 124.39511)"/><ellipse fill="#c38869" cx="137" cy="106" rx="47" ry="70"/><ellipse fill="#7b3453" rx="1" ry="1" transform="matrix(-26.35334 -11.074 15.8797 -37.7897 44.3 245.9)"/><path fill="#1a0c00" d="M68 67h28v142H68z"/><path fill="#030000" d="M191 47l-32-27 37 72z"/><ellipse fill="#c4578e" cx="201" cy="237" rx="41" ry="31"/><path fill="#1b140b" d="M94 78L74.7 63.5 106 22l19.1 14.5z"/><ellipse fill="#f2fdff" cx="231" cy="184" rx="30" ry="31"/><ellipse fill="#edf8f9" cx="5" cy="232" rx="10" ry="164"/><path fill="#b68e7c" d="M187.8 120.7l-108.1 3.9 7.4-20.4 27.7-54.8z"/><ellipse fill="#f5fcff" cx="69" cy="43" rx="7" ry="37"/><path fill="#e5ebed" d="M66-15l-5 206-77-2z"/><path fill="#d7ac8f" d="M63 222h68v29H63z"/><ellipse fill="#221000" rx="1" ry="1" transform="rotate(-67.7 217.3 -36.4) scale(8.90143 34.19772)"/></g></svg>