<svg xmlns="http://www.w3.org/2000/svg" viewBox="0 0 171 172"><filter id="b"><feGaussianBlur stdDeviation="12" /></filter><path fill="#d0c7c7" d="M0 0h171v172H0z"/><g filter="url(#b)" transform="translate(.5 .5)" fill-opacity=".5"><ellipse fill="#4c0e00" cx="85" cy="67" rx="39" ry="55"/><ellipse fill="#fff" cx="159" cy="159" rx="45" ry="170"/><ellipse fill="#fff" rx="1" ry="1" transform="matrix(37.81217 -1.82866 8.1925 169.40096 15 125.6)"/><ellipse fill="#be8878" cx="82" cy="94" rx="31" ry="54"/><path d="M74.1 42.6l52-6.5-45.6-19L43.7 50z"/><ellipse fill="#fff" cx="78" cy="9" rx="170" ry="11"/><ellipse fill="#070000" rx="1" ry="1" transform="rotate(-31.8 141.2 -170.7) scale(9.95256 20.29872)"/><ellipse fill="#fff" cx="73" cy="165" rx="170" ry="17"/><path d="M44.2 59l11.6-28.8 12 4.9-11.6 28.7z"/><ellipse fill="#5e5756" cx="83" cy="118" rx="28" ry="9"/><path fill="#f4ab9b" d="M69 39h26v26H69z"/><ellipse fill="#cfab9e" rx="1" ry="1" transform="rotate(43 -68 178) scale(8.85157 32.68058)"/><ellipse fill="#231407" rx="1" ry="1" transform="matrix(12.38567 -19.38966 5.41865 3.46131 60 49.5)"/><path fill="#606779" d="M56 136.5l26 16.8 27-32.5-2 23.9z"/><ellipse fill="#fafefe" cx="167" cy="10" rx="53" ry="53"/><ellipse fill="#f5fafc" rx="1" ry="1" transform="rotate(-103.7 6.9 8.8) scale(29.97195 89.42859)"/><ellipse fill="#fff" rx="1" ry="1" transform="matrix(-43.3934 79.23544 -19.51304 -10.68634 167.8 148.2)"/><ellipse fill="#fff" rx="1" ry="1" transform="matrix(-30.23139 -71.7384 14.82436 -6.24715 15.3 168.8)"/><path fill="#e4e8ff" d="M86 142h45v30H86z"/><path fill="#39291a" d="M124 82.2l-34.7-45-10.7-19.1 34.2 7.3z"/><ellipse fill="#e7ecf0" rx="1" ry="1" transform="matrix(-7.28942 31.57395 -23.66964 -5.46457 136 107.8)"/><ellipse fill="#d6d8db" rx="1" ry="1" transform="matrix(-37.44766 42.77612 -10.03062 -8.78114 39.5 32.5)"/></g></svg>