<svg xmlns="http://www.w3.org/2000/svg" viewBox="0 0 171 171"><filter id="b"><feGaussianBlur stdDeviation="12" /></filter><path fill="#ccc1bc" d="M0 0h171v171H0z"/><g filter="url(#b)" transform="translate(.5 .5)" fill-opacity=".5"><ellipse rx="1" ry="1" transform="rotate(27.2 -33.7 225.3) scale(34.14079 16.04229)"/><ellipse fill="#5c2f14" cx="85" cy="147" rx="50" ry="23"/><ellipse fill="#fff" rx="1" ry="1" transform="matrix(27.21987 -.77526 3.9128 137.38126 155 58)"/><ellipse fill="#fff" rx="1" ry="1" transform="matrix(6.06537 -164.07594 32.89939 1.21619 17.1 53.5)"/><path d="M64 26.7L46.1 77.4l22.3-30 52.9-22z"/><path fill="#180700" d="M114.5 107.6L104.3 19l24.4 37.8.4 17z"/><ellipse fill="#d8947e" cx="81" cy="87" rx="40" ry="40"/><ellipse fill="#fff" cx="126" cy="8" rx="170" ry="13"/><path fill="#1f2d39" d="M50.4 149.8l8.2-28.8 25 7.2-8.2 28.8z"/><ellipse fill="#fff" rx="1" ry="1" transform="matrix(8.8568 23.44808 -61.91132 23.38513 161 170)"/><path d="M57 62l-10-4 23-32z"/><ellipse fill="#fff" rx="1" ry="1" transform="rotate(-146.1 38.7 80.7) scale(128.1567 19.22025)"/><ellipse fill="#060000" cx="103" cy="41" rx="19" ry="9"/><path fill="#353c43" d="M116.4 113l-63.9 31.6 2 15.1 36-16z"/><path fill="#fdd0c0" d="M78.9 41.3l29 13.3-8.4 15.8H72.4z"/><ellipse fill="#cc9979" rx="1" ry="1" transform="matrix(3.73528 13.91794 -40.18707 10.78536 106 153)"/><ellipse fill="#eef5f9" cx="148" cy="109" rx="33" ry="33"/><ellipse fill="#f7fcff" rx="1" ry="1" transform="matrix(-32.72626 -42.60423 23.868 -18.3341 148.4 24.5)"/><path fill="#6e4939" d="M49.8 70.6L54 60.4l22.3 9L72 79.6z"/><ellipse fill="#e4eaf0" cx="57" cy="12" rx="18" ry="22"/><path fill="#996440" d="M28 148l13-11 7 24z"/><path fill="#160b08" d="M106 40H76V22h30z"/></g></svg>