<svg xmlns="http://www.w3.org/2000/svg" viewBox="0 0 342 342"><filter id="b"><feGaussianBlur stdDeviation="12" /></filter><path fill="#aa9e97" d="M0 0h342v342H0z"/><g filter="url(#b)" transform="translate(.7 .7) scale(1.33594)" fill-opacity=".5"><ellipse fill="#240200" cx="111" cy="233" rx="123" ry="48"/><ellipse cx="134" cy="44" rx="45" ry="22"/><ellipse fill="#fff" rx="1" ry="1" transform="matrix(12.80921 -135.42328 42.17001 3.98871 33.6 69.2)"/><ellipse fill="#fff" rx="1" ry="1" transform="rotate(166.1 119.2 71) scale(54.54837 140.03514)"/><path d="M166 53h28v61h-28z"/><ellipse fill="#040c0a" cx="122" cy="205" rx="53" ry="33"/><ellipse fill="#f6ffff" cx="209" cy="169" rx="39" ry="39"/><ellipse rx="1" ry="1" transform="matrix(-17.34031 39.5202 -8.16304 -3.5817 87.4 67.5)"/><ellipse fill="#fff" cx="180" cy="13" rx="26" ry="26"/><ellipse fill="#f7ffff" cx="97" cy="8" rx="68" ry="15"/><ellipse fill="#7b5124" rx="1" ry="1" transform="matrix(-74.5645 -48.74086 10.80271 -16.52615 240.4 247.2)"/><ellipse fill="#010000" rx="1" ry="1" transform="matrix(10.67356 -13.27524 30.86505 24.81614 157.5 48.4)"/><ellipse fill="#faffff" cx="60" cy="160" rx="20" ry="32"/><ellipse fill="#fbc7ab" cx="122" cy="72" rx="34" ry="16"/><ellipse fill="#d69275" rx="1" ry="1" transform="matrix(-27.39723 -23.94287 26.93206 -30.8177 128.7 150.9)"/><path fill="#070a0b" d="M74.7 199.6l45.3 5.5-37.7-45.8.1 2.6z"/><ellipse fill="#a27441" cx="35" cy="247" rx="51" ry="51"/><path d="M152 173h17v19h-17z"/><ellipse fill="#dfe4e9" rx="1" ry="1" transform="rotate(-29.2 93 -86) scale(85.13993 24.13713)"/><ellipse fill="#0b0a05" cx="122" cy="37" rx="20" ry="16"/><ellipse fill="#e5ebef" cx="208" cy="47" rx="25" ry="25"/><ellipse fill="#af7e62" cx="158" cy="103" rx="20" ry="20"/></g></svg>