<svg xmlns="http://www.w3.org/2000/svg" viewBox="0 0 175 175"><filter id="b"><feGaussianBlur stdDeviation="12" /></filter><path fill="#e2d0cc" d="M0 0h175v175H0z"/><g filter="url(#b)" transform="translate(.5 .5)" fill-opacity=".5"><ellipse fill="#762d1a" cx="85" cy="60" rx="39" ry="39"/><ellipse fill="#e18f7f" cx="89" cy="120" rx="29" ry="75"/><ellipse fill="#331c02" rx="1" ry="1" transform="matrix(-28.28266 5.24188 -2.5082 -13.53308 84 36.7)"/><ellipse fill="#fdffff" rx="1" ry="1" transform="matrix(33.95403 -30.7882 50.28913 55.46017 174 59.3)"/><ellipse fill="#faffff" cx="18" cy="56" rx="37" ry="142"/><ellipse fill="#faffff" cx="167" cy="43" rx="48" ry="171"/><ellipse fill="#ff874f" rx="1" ry="1" transform="rotate(15.6 -535.2 283.7) scale(18.57751 11.22119)"/><ellipse fill="#ba766b" cx="87" cy="106" rx="28" ry="28"/><ellipse fill="#e1a9a3" rx="1" ry="1" transform="rotate(120 30 64.1) scale(17.86844 34.6419)"/><ellipse fill="#ff824b" rx="1" ry="1" transform="matrix(-14.57439 8.47912 -3.94092 -6.77388 125.2 155)"/><ellipse fill="#fff" cx="97" cy="172" rx="174" ry="6"/><ellipse fill="#f9ffff" cx="9" rx="136" ry="24"/><path fill="#945652" d="M51 75h43v20H51z"/><ellipse fill="#ebfafe" cx="57" cy="127" rx="11" ry="15"/><ellipse fill="#fff" rx="1" ry="1" transform="matrix(-13.58336 -18.29178 126.88473 -94.2238 149.8 174)"/><ellipse fill="#391c0b" cx="63" cy="45" rx="10" ry="10"/><path fill="#4a2e19" d="M65.4 37.5l49.9 1 3.5 16.7-48-30.2z"/><ellipse fill="#fff" rx="1" ry="1" transform="rotate(103.3 -60 82.4) scale(10.56851 59.36919)"/><path fill="#dfe1e5" d="M101.5 18.6l30-18 51 84.8-30 18z"/><ellipse fill="#d5dbe0" rx="1" ry="1" transform="rotate(-52 58.7 -21.3) scale(34.05499 16.75037)"/><path fill="#f5aca1" d="M64 52h42v27H64z"/><path fill="#eef4f8" d="M190 155l-83-25 33-77z"/></g></svg>