<svg xmlns="http://www.w3.org/2000/svg" viewBox="0 0 175 175"><filter id="b"><feGaussianBlur stdDeviation="12" /></filter><path fill="#e2d0cc" d="M0 0h175v175H0z"/><g filter="url(#b)" transform="translate(.5 .5)" fill-opacity=".5"><ellipse fill="#6b1e09" rx="1" ry="1" transform="rotate(4.5 -710.8 1120.2) scale(33.7574 37.91725)"/><ellipse fill="#d07c6f" rx="1" ry="1" transform="matrix(-4.96458 -45.6997 32.6256 -3.54428 86.4 90.5)"/><ellipse fill="#fff" rx="1" ry="1" transform="rotate(179.9 84.8 19.2) scale(48.36998 173.99999)"/><ellipse fill="#faffff" cx="20" cy="36" rx="34" ry="172"/><ellipse fill="#2a1300" cx="83" cy="36" rx="26" ry="13"/><ellipse fill="#ff895a" cx="62" cy="151" rx="22" ry="15"/><ellipse fill="#ffc9c1" cx="89" cy="64" rx="28" ry="14"/><ellipse fill="#f8997a" cx="113" cy="149" rx="26" ry="16"/><path fill="#bd7a70" d="M128 69l-33 81-50-74z"/><ellipse fill="#fff" cx="151" cy="174" rx="38" ry="17"/><path fill="#271000" d="M89 24L56 59l-1-15z"/><ellipse fill="#fff" rx="1" ry="1" transform="matrix(6.1984 -19.53983 62.68373 19.88445 22.7 174)"/><ellipse fill="#f8ffff" rx="1" ry="1" transform="rotate(-8.5 12.2 -165) scale(142.2184 31.22526)"/><ellipse fill="#fff" rx="1" ry="1" transform="matrix(46.25303 59.20118 -25.39334 19.83945 174 14)"/><path fill="#eff" d="M56 93l-11 54 23-23z"/><ellipse fill="#fff" rx="1" ry="1" transform="matrix(45.2394 -62.97396 14.93523 10.72921 166.7 148)"/><path fill="#934e46" d="M68.5 94.2l-7.9 4.3-13.1-24.7 7.9-4.3z"/><ellipse fill="#eaf4f9" cx="135" cy="117" rx="22" ry="27"/><path fill="#f3b8ac" d="M103.3 173.7l-39.9-3.5 3.3-37.9 39.9 3.5z"/><path fill="#593c39" d="M82.3 89.7l17.7-13L59.3 88l-3.7-19z"/><ellipse fill="#fff" rx="1" ry="1" transform="rotate(-48.5 171.3 77.2) scale(25.36335 95.25975)"/><ellipse fill="#ff905c" rx="1" ry="1" transform="rotate(-69.6 141.3 39.9) scale(5.9503 20.48402)"/></g></svg>