<svg xmlns="http://www.w3.org/2000/svg" viewBox="0 0 171 171"><filter id="b"><feGaussianBlur stdDeviation="12" /></filter><path fill="#938986" d="M0 0h171v171H0z"/><g filter="url(#b)" transform="translate(.5 .5)" fill-opacity=".5"><ellipse rx="1" ry="1" transform="rotate(91.8 -33.4 124.4) scale(15.29089 169.99998)"/><ellipse fill="#fff" cx="140" cy="84" rx="29" ry="59"/><ellipse fill="#fff" cx="31" cy="90" rx="30" ry="52"/><ellipse rx="1" ry="1" transform="rotate(-42.1 77.1 -190.6) scale(18.05581 170.00004)"/><ellipse rx="1" ry="1" transform="matrix(-15.9163 -15.74316 103.06014 -104.19361 17.2 3.7)"/><ellipse rx="1" ry="1" transform="matrix(29.4773 -7.13131 3.56508 14.73628 82.2 32.6)"/><ellipse fill="#ffdbc9" rx="1" ry="1" transform="matrix(-.76667 -29.2778 50.7551 -1.32907 91.7 129.7)"/><ellipse rx="1" ry="1" transform="rotate(44.6 -92.2 279.9) scale(19.91951 139.11579)"/><ellipse rx="1" ry="1" transform="matrix(-11.76427 23.94622 -152.58116 -74.95991 6.5 156.6)"/><ellipse fill="#fff" rx="1" ry="1" transform="matrix(7.39434 10.63325 -34.0915 23.70718 44.4 26.4)"/><ellipse fill="#fff" rx="1" ry="1" transform="rotate(41.3 25.1 193.5) scale(37.58995 12.71179)"/><ellipse rx="1" ry="1" transform="matrix(11.9968 -19.27366 98.1737 61.10774 150.8 0)"/><ellipse fill="#d89985" cx="85" cy="73" rx="38" ry="29"/><ellipse rx="1" ry="1" transform="rotate(107.9 -4.6 13.2) scale(50.43236 13.5806)"/><path d="M45.2 74l15.2-49.8L72.8 28 57.6 77.8z"/><ellipse fill="#281911" cx="114" cy="58" rx="7" ry="29"/><ellipse fill="#f6feff" rx="1" ry="1" transform="matrix(25.60205 1.93212 -2.76464 36.63349 139 108)"/><path d="M-35.2 104l26.8-13.6L35.2 176 8.4 189.6zm-4.3-68.6l91-63.7 16 23-91 63.6z"/><path fill="#fff" d="M66 1h41v14H66z"/><ellipse rx="1" ry="1" transform="matrix(27.09526 -49.69622 18.07904 9.85701 170 149.1)"/><ellipse fill="#f4f7fa" cx="26" cy="84" rx="25" ry="54"/></g></svg>