<svg xmlns="http://www.w3.org/2000/svg" viewBox="0 0 172 171"><filter id="b"><feGaussianBlur stdDeviation="12" /></filter><path fill="#cfc7c4" d="M0 0h172v171H0z"/><g filter="url(#b)" transform="translate(.5 .5)" fill-opacity=".5"><ellipse rx="1" ry="1" transform="matrix(-2.77144 -17.11141 31.97437 -5.17872 83.5 33.7)"/><ellipse fill="#2e211a" cx="86" cy="158" rx="43" ry="11"/><ellipse fill="#5b3023" cx="84" cy="53" rx="37" ry="37"/><ellipse fill="#ffd0c1" cx="86" cy="70" rx="27" ry="27"/><ellipse fill="#fff" cx="155" cy="64" rx="35" ry="125"/><ellipse fill="#fff" rx="1" ry="1" transform="matrix(31.90688 -167.99688 30.86282 5.86163 19 50.2)"/><ellipse fill="#030000" rx="1" ry="1" transform="rotate(-83.2 61 -4) scale(30.0956 6.05514)"/><ellipse fill="#1b191a" rx="1" ry="1" transform="matrix(46.45205 21.42328 -3.30947 7.1759 68.6 162.7)"/><path d="M74.7 13.5l50 21.7-45.1 10.9-25.4 2.4z"/><ellipse fill="#ffebda" cx="86" cy="149" rx="32" ry="8"/><path d="M130 158l18-17-30 13z"/><ellipse fill="#c48774" rx="1" ry="1" transform="matrix(-15.64584 9.3268 -18.58657 -31.17926 81.8 103)"/><ellipse fill="#fff" rx="1" ry="1" transform="matrix(36.16482 44.12354 -22.9826 18.83715 143.8 20)"/><path fill="#fff" d="M-16.8 136L101 183.6 92.8 204-25 156.4z"/><ellipse fill="#fff" rx="1" ry="1" transform="rotate(74.3 -7.9 12.8) scale(20.41041 146.81694)"/><path fill="#fff" d="M79 186l108-9v-51z"/><ellipse fill="#2b2620" rx="1" ry="1" transform="matrix(-5.18166 -26.87978 4.98809 -.96156 114.6 51.4)"/><ellipse fill="#f3f7fa" cx="143" cy="112" rx="33" ry="33"/><ellipse fill="#e5eaeb" rx="1" ry="1" transform="matrix(-4.48324 24.18939 -25.91713 -4.80346 37.9 111.9)"/><path fill="#22150f" d="M59.9 17.4l45.1 7 13.2 10.7-1.9 21z"/><path fill="#f7ccc4" d="M72 48h37v25H72z"/><path fill="#2f2e2c" d="M123 162.8l-34.6 10-3.4-11.6 34.6-10z"/></g></svg>