<svg xmlns="http://www.w3.org/2000/svg" viewBox="0 0 175 175"><filter id="b"><feGaussianBlur stdDeviation="12" /></filter><path fill="#e2d0cc" d="M0 0h175v175H0z"/><g filter="url(#b)" transform="translate(.5 .5)" fill-opacity=".5"><ellipse fill="#6e230f" rx="1" ry="1" transform="matrix(.24398 39.59314 -34.08043 .21 86 58.6)"/><ellipse fill="#cc796b" cx="88" cy="87" rx="32" ry="48"/><ellipse fill="#fff" cx="174" cy="116" rx="59" ry="59"/><path fill="#fff" d="M-16 175L8-16l45 191z"/><ellipse fill="#fdffff" cx="151" cy="14" rx="41" ry="62"/><ellipse fill="#281400" cx="84" cy="36" rx="27" ry="13"/><ellipse fill="#f19a7c" rx="1" ry="1" transform="rotate(177.2 38.5 75) scale(44.97127 21.86722)"/><path fill="#ffc9c1" d="M63 55h53v22H63z"/><ellipse fill="#f6ffff" rx="1" ry="1" transform="rotate(-134 20.3 3) scale(30.0196 71.86658)"/><path fill="#fff" d="M69 190h121v-60z"/><path fill="#ff8550" d="M119 142h20v18h-20z"/><path fill="#a35d53" d="M73 127l19-45-45-11z"/><ellipse fill="#e1f2f7" cx="42" cy="121" rx="24" ry="24"/><ellipse fill="#fff" rx="1" ry="1" transform="matrix(-33.87225 -41.79278 22.93544 -18.58874 4.1 158.8)"/><path fill="#2e1400" d="M76.7 29l4 13.1-22.8 16.4-3.2-15.6z"/><ellipse fill="#fff" cx="174" rx="43" ry="51"/><ellipse fill="#dde2e8" cx="35" cy="64" rx="20" ry="44"/><ellipse fill="#fff" rx="1" ry="1" transform="matrix(70.96165 -24.0192 7.4104 21.89307 0 11)"/><ellipse fill="#d38d80" cx="89" cy="111" rx="26" ry="26"/><ellipse fill="#dfecf2" cx="96" cy="13" rx="38" ry="9"/><path fill="#fff" d="M97 190.7l77.3-65 14.8 17.6-77.4 65z"/><path fill="#885451" d="M50.8 92.7l77.4-16.6-52.4 4-24.4-8.9z"/></g></svg>