<svg xmlns="http://www.w3.org/2000/svg" viewBox="0 0 172 171"><filter id="b"><feGaussianBlur stdDeviation="12" /></filter><path fill="#cfc7c4" d="M0 0h172v171H0z"/><g filter="url(#b)" transform="translate(.5 .5)" fill-opacity=".5"><ellipse fill="#310900" cx="85" cy="52" rx="37" ry="37"/><ellipse rx="1" ry="1" transform="matrix(68.75923 28.53104 -3.15115 7.5942 88.4 170)"/><ellipse fill="#ffd2c2" cx="88" cy="73" rx="29" ry="29"/><ellipse fill="#fff" cx="148" cy="47" rx="29" ry="170"/><ellipse fill="#fff" cx="1" cy="32" rx="49" ry="142"/><ellipse rx="1" ry="1" transform="matrix(27.36465 -2.31034 1.25311 14.84243 85.1 29.6)"/><path fill="#030000" d="M157.6 141.1l-45.5 12.8-33 4.8 26.6 10.3z"/><path fill="#010000" d="M47 59l10 32 9-73z"/><ellipse fill="#c68b78" rx="1" ry="1" transform="rotate(153.4 29.3 62.4) scale(20.17474 33.68802)"/><ellipse fill="#fff" rx="1" ry="1" transform="rotate(3.3 74.7 2569) scale(126.49426 21.00534)"/><path fill="#fff" d="M-4 121l60.4 52.5L36 197l-60.4-52.4z"/><ellipse fill="#fff" cx="162" cy="116" rx="17" ry="171"/><path fill="#060000" d="M116 59L87 17l31 14z"/><ellipse fill="#fff" rx="1" ry="1" transform="rotate(40.5 13 35.2) scale(18.70405 168.22555)"/><path fill="#050000" d="M84.7 18.7l8.8 18-34.2 16.6-8.8-18z"/><path fill="#323035" d="M45.8 148.2l16 23.6L23 145l6.8-8.8z"/><ellipse fill="#f7ccc2" rx="1" ry="1" transform="rotate(-175.4 47.6 27.5) scale(19.7653 15.28262)"/><path fill="#363231" d="M114 62h7v19h-7z"/><path fill="#44403c" d="M51.8 162.6l96.5-11.7-42 17.7-42.6.1z"/><ellipse fill="#fff" rx="1" ry="1" transform="matrix(-.38655 -3.28055 17.96848 -2.11725 114.5 170)"/><path fill="#fff" d="M106 186L9 146l-25 26z"/><path fill="#fff" d="M172 120l4 64-73 2z"/></g></svg>