<svg xmlns="http://www.w3.org/2000/svg" viewBox="0 0 175 175"><filter id="b"><feGaussianBlur stdDeviation="12" /></filter><path fill="#cfc1be" d="M0 0h175v175H0z"/><g filter="url(#b)" transform="translate(.5 .5)" fill-opacity=".5"><ellipse fill="#65321e" cx="83" cy="82" rx="46" ry="62"/><ellipse fill="#fff" cx="160" cy="62" rx="31" ry="174"/><ellipse fill="#070000" rx="1" ry="1" transform="matrix(-9.41321 -1.28945 8.70426 -63.54267 50.7 95.5)"/><ellipse fill="#fff" cx="19" cy="48" rx="24" ry="168"/><ellipse fill="#1e0c0c" cx="117" cy="123" rx="13" ry="21"/><ellipse fill="#f4bcad" rx="1" ry="1" transform="matrix(8.2776 -80.10061 19.76212 2.04222 83.6 110.7)"/><ellipse fill="#fff" cx="35" cy="10" rx="34" ry="34"/><ellipse fill="#120600" cx="86" cy="31" rx="26" ry="8"/><ellipse fill="#fff" cx="104" cy="11" rx="174" ry="12"/><path fill="#3d2119" d="M58.3 147L33 152l-3.4-7.1L67 86z"/><ellipse fill="#fdffff" cx="159" cy="162" rx="31" ry="174"/><ellipse fill="#fff" rx="1" ry="1" transform="matrix(101.96376 47.3678 -7.4503 16.03748 39 174)"/><ellipse fill="#534a43" cx="123" cy="101" rx="9" ry="23"/><ellipse fill="#e0a99a" rx="1" ry="1" transform="rotate(-110.4 72.9 -1.6) scale(35.06616 15.7789)"/><ellipse fill="#be6285" cx="119" cy="147" rx="26" ry="8"/><ellipse fill="#dfe6e9" rx="1" ry="1" transform="matrix(-16.38424 -5.05853 15.84385 -51.3172 29.9 57.4)"/><path fill="#f6feff" d="M147-9l-34 6 16 83z"/><path fill="#080000" d="M104 25l17 14 1 20z"/><path fill="#fff" d="M51 182l139-34v42z"/><ellipse fill="#d7b0aa" cx="81" cy="147" rx="28" ry="25"/><path fill="#c78269" d="M84.6 65L74 93l-20.5-8L64 57z"/><ellipse fill="#fff" rx="1" ry="1" transform="matrix(-10.93063 -173.65633 13.87907 -.8736 2.6 107.6)"/></g></svg>