<svg xmlns="http://www.w3.org/2000/svg" viewBox="0 0 342 342"><filter id="b"><feGaussianBlur stdDeviation="12" /></filter><path fill="#cbb9b1" d="M0 0h342v342H0z"/><g filter="url(#b)" transform="translate(.7 .7) scale(1.33594)" fill-opacity=".5"><ellipse fill="#140000" rx="1" ry="1" transform="rotate(167.6 58.1 31.3) scale(45.46352 28.18635)"/><ellipse fill="#744732" cx="130" cy="109" rx="52" ry="90"/><ellipse fill="#f6ffff" cx="18" cy="162" rx="71" ry="71"/><ellipse fill="#f8ffff" rx="1" ry="1" transform="matrix(-41.71652 5.27002 -15.51615 -122.823 223.8 105)"/><ellipse fill="#e3601f" rx="1" ry="1" transform="rotate(65.4 -158.3 179.6) scale(32.05571 55.73169)"/><ellipse fill="#eefeff" cx="28" cy="20" rx="57" ry="103"/><ellipse fill="#ec621d" cx="205" cy="251" rx="50" ry="33"/><ellipse fill="#e7bfb6" rx="1" ry="1" transform="matrix(-2.85376 -22.17393 40.81194 -5.25246 131.4 84.9)"/><ellipse fill="#ebf8ff" cx="215" cy="8" rx="142" ry="18"/><ellipse fill="#ecf4fd" rx="1" ry="1" transform="matrix(36.1492 7.27473 -8.3622 41.55302 207.7 169.5)"/><path fill="#b77c5e" d="M69 208l76-25 116 56z"/><path fill="#6a4741" d="M190 93l-96 27 93 3z"/><path fill="#1e1e0b" d="M86 78L73.8 64.8 108 33.9l12 13.4z"/><path fill="#6a4740" d="M70 100l74 17-67 18z"/><ellipse fill="#e8f0f6" cx="76" cy="181" rx="23" ry="23"/><ellipse fill="#c6afa9" rx="1" ry="1" transform="matrix(-10.53763 21.99374 -33.34454 -15.97602 133.5 225.3)"/><path fill="#8a593c" d="M100 178h62v18h-62z"/><path fill="#e3e9f1" d="M240.3 154.2L134.7-8.5l21-13.7 105.6 162.7z"/><path fill="#3c3929" d="M165.6 62.5l-91.9-7 95.8-7 13.4 32z"/><path fill="#e0e4e8" d="M99 192l-115 72L23-16z"/><ellipse fill="#e1e5ea" rx="1" ry="1" transform="matrix(-28.22373 14.4677 -7.03996 -13.73361 81.3 22.4)"/><path fill="#e08050" d="M82 209.7l-54 28-44 33.3 159.4-5z"/></g></svg>