<svg xmlns="http://www.w3.org/2000/svg" viewBox="0 0 175 175"><filter id="b"><feGaussianBlur stdDeviation="12" /></filter><path fill="#c7b9b6" d="M0 0h175v175H0z"/><g filter="url(#b)" transform="translate(.5 .5)" fill-opacity=".5"><ellipse fill="#170000" cx="80" cy="37" rx="32" ry="20"/><ellipse fill="#020000" cx="45" cy="138" rx="23" ry="23"/><ellipse fill="#7e4325" cx="91" cy="73" rx="45" ry="45"/><ellipse fill="#fff" cx="174" cy="35" rx="53" ry="53"/><ellipse fill="#fff" cx="17" cy="45" rx="34" ry="84"/><ellipse fill="#6c4943" rx="1" ry="1" transform="rotate(134.5 28.1 87) scale(17.43265 40.72317)"/><path fill="#fff" d="M128 2.7L204.9-4 220 169.3l-76.7 6.7zm-129.4 123l52 43.7-19.2 23-52-43.8z"/><ellipse fill="#fff" cx="68" rx="174" ry="18"/><ellipse fill="#c18e7f" rx="1" ry="1" transform="matrix(-31.2589 -2.65264 4.30063 -50.67897 79.3 94.2)"/><ellipse fill="#542e40" rx="1" ry="1" transform="rotate(82.1 -49.9 102.3) scale(34.59284 9.05601)"/><path fill="#1b0c00" d="M63 71.6l-17.4-4.7L57 24.4l17.4 4.7z"/><ellipse fill="#fff" rx="1" ry="1" transform="rotate(-24.3 461.5 -300.9) scale(101.24798 17.79725)"/><ellipse fill="#2e1a2c" cx="126" cy="145" rx="17" ry="13"/><path fill="#100" d="M15 131l11 16 42-41z"/><ellipse fill="#fff" cx="15" cy="174" rx="28" ry="28"/><ellipse fill="#6b533d" cx="117" cy="66" rx="16" ry="31"/><ellipse fill="#edf1f4" cx="35" cy="97" rx="21" ry="21"/><path fill="#e9ebfd" d="M73 145h41v30H73z"/><path fill="#fff" d="M190 81v80l-71-33z"/><ellipse fill="#fcffff" cx="3" cy="19" rx="51" ry="51"/><path fill="#48293b" d="M76.5 173.4l-35.6-12.7 23.7-13.4 7.2 14.4z"/></g></svg>