<svg xmlns="http://www.w3.org/2000/svg" viewBox="0 0 342 342"><filter id="b"><feGaussianBlur stdDeviation="12" /></filter><path fill="#c0b49e" d="M0 0h342v342H0z"/><g filter="url(#b)" transform="translate(.7 .7) scale(1.33594)" fill-opacity=".5"><ellipse fill="#331411" cx="140" cy="71" rx="55" ry="55"/><ellipse fill="#2a0d00" rx="1" ry="1" transform="matrix(18.51546 3.19818 -24.22176 140.22902 71.4 199.4)"/><ellipse fill="#fff" cx="236" cy="96" rx="44" ry="130"/><ellipse fill="#faffff" cx="27" cy="96" rx="46" ry="125"/><ellipse fill="#eed30b" cx="161" cy="242" rx="85" ry="46"/><ellipse fill="#e8b7a3" cx="142" cy="93" rx="41" ry="37"/><ellipse fill="#966050" cx="140" cy="171" rx="29" ry="46"/><path d="M177 25l25 54L98 25z"/><ellipse fill="#eff8ff" rx="1" ry="1" transform="matrix(134.59987 -12.6958 1.87748 19.90494 97.5 6.5)"/><ellipse fill="#edf6ff" cx="206" cy="163" rx="37" ry="37"/><ellipse fill="#7e5a00" rx="1" ry="1" transform="rotate(145.5 -8 129.2) scale(35.49263 28.84196)"/><ellipse fill="#e9effd" rx="1" ry="1" transform="matrix(-65.01844 -25.49915 6.65226 -16.96212 200.4 21.6)"/><ellipse fill="#000300" rx="1" ry="1" transform="matrix(-10.635 -9.27877 24.95843 -28.6065 108.1 56.8)"/><ellipse fill="#eaf0fd" cx="76" cy="25" rx="23" ry="39"/><path fill="#180c00" d="M83 221l5-87-29 33z"/><ellipse fill="#c7947d" cx="102" cy="118" rx="25" ry="21"/><path d="M150 175l15-10-6 32z"/><ellipse fill="#bb937a" rx="1" ry="1" transform="matrix(4.2369 73.91544 -25.1167 1.43971 114 168)"/><ellipse fill="#ebf2ff" rx="1" ry="1" transform="matrix(21.34722 48.05039 -12.41835 5.51707 251.6 224)"/><ellipse fill="#ecf2ff" cy="208" rx="28" ry="30"/><ellipse fill="#e4e8f4" cx="205" cy="126" rx="26" ry="31"/><path fill="#1a1810" d="M171 25L93 42l38-25z"/></g></svg>