<svg xmlns="http://www.w3.org/2000/svg" viewBox="0 0 342 342"><filter id="b"><feGaussianBlur stdDeviation="12" /></filter><path fill="#b1aba7" d="M0 0h342v342H0z"/><g filter="url(#b)" transform="translate(.7 .7) scale(1.33594)" fill-opacity=".5"><ellipse cx="63" cy="255" rx="53" ry="53"/><ellipse rx="1" ry="1" transform="matrix(4.7011 26.8315 -72.09316 12.6313 176.5 246.6)"/><ellipse cx="128" cy="48" rx="49" ry="29"/><ellipse fill="#fff" rx="1" ry="1" transform="rotate(116.1 77.4 140) scale(86.86469 60.17009)"/><ellipse fill="#fff" cx="5" cy="133" rx="81" ry="81"/><ellipse fill="#fff" cx="214" cy="22" rx="43" ry="68"/><ellipse fill="#fff" cx="42" cy="14" rx="55" ry="50"/><ellipse rx="1" ry="1" transform="matrix(-1.08715 40.77512 -10.15022 -.27063 85.2 88)"/><ellipse cx="213" cy="249" rx="37" ry="37"/><ellipse rx="1" ry="1" transform="matrix(-44.00127 -11.84707 6.33822 -23.54084 58.5 238)"/><ellipse fill="#ffd0bc" rx="1" ry="1" transform="matrix(-4.84047 -21.655 31.09644 -6.95088 132 84.8)"/><ellipse fill="#201003" rx="1" ry="1" transform="matrix(4.10654 40.4281 -9.89959 1.00556 173.4 80)"/><ellipse cx="125" cy="42" rx="37" ry="21"/><ellipse fill="#ffedde" rx="1" ry="1" transform="rotate(-64.3 197.3 49.6) scale(8.03429 49.40632)"/><ellipse rx="1" ry="1" transform="rotate(-160.7 97.2 114.6) scale(56.7627 15.33082)"/><ellipse fill="#f2f6fb" rx="1" ry="1" transform="matrix(-1.63937 20.62023 -144.82446 -11.51395 148.5 0)"/><ellipse fill="#b9836b" cx="129" cy="132" rx="41" ry="41"/><ellipse fill="#fdffff" cx="255" cy="199" rx="15" ry="52"/><path fill="#f6f8f9" d="M78.2 144.4l27.6 14-24 47.2-27.6-14z"/><ellipse fill="#e7c2a8" cx="151" cy="210" rx="52" ry="19"/><path fill="#e8ebef" d="M182 25h74v183h-74z"/><path fill="#fcffff" d="M-2 259l-14-35 51-30z"/></g></svg>