<svg xmlns="http://www.w3.org/2000/svg" viewBox="0 0 175 175"><filter id="b"><feGaussianBlur stdDeviation="12" /></filter><path fill="#d5c7c2" d="M0 0h175v175H0z"/><g filter="url(#b)" transform="translate(.5 .5)" fill-opacity=".5"><ellipse fill="#7a2c12" cx="88" cy="70" rx="46" ry="46"/><path d="M19.4 147.6l6.1-13.7 73 32.5-6 13.7z"/><ellipse fill="#fff" cx="158" cy="144" rx="51" ry="51"/><ellipse fill="#fff" cx="168" cy="30" rx="48" ry="48"/><ellipse fill="#ffbfb1" rx="1" ry="1" transform="matrix(2.74343 43.60556 -22.60784 1.42236 89.3 85.7)"/><ellipse fill="#fff" cx="7" cy="22" rx="52" ry="52"/><path fill="#fff" d="M-1.7 122.6l-12.7 50.1 71 11.4 22 5.9z"/><ellipse fill="#140300" rx="1" ry="1" transform="rotate(-78.5 69.9 -40.5) scale(10.89721 22.14658)"/><path fill="#0b0b11" d="M57 157h54v10H57z"/><ellipse fill="#100000" cx="55" cy="64" rx="8" ry="22"/><path fill="#f3ffff" d="M57.8 123.1l-65.7 24-22-60.2 65.8-24z"/><ellipse fill="#7e5233" rx="1" ry="1" transform="matrix(9.9571 -19.29154 3.8671 1.99596 129 93.8)"/><ellipse fill="#fff" cx="90" rx="174" ry="24"/><path fill="#fff" d="M68 170l-16 20 77-16z"/><ellipse fill="#fff" cx="174" cy="163" rx="37" ry="174"/><path fill="#392414" d="M56 38.3l35.5-16.7-28.7 35.8L39.4 80z"/><ellipse fill="#1b1719" cx="37" cy="142" rx="10" ry="10"/><ellipse fill="#ebbcad" cx="79" cy="129" rx="40" ry="27"/><ellipse fill="#563a21" rx="1" ry="1" transform="matrix(-6.97896 -30.718 6.58692 -1.49651 118.3 65)"/><path fill="#fff" d="M-22.1 130.2l19.9-16.7L60 187.8l-19.9 16.7z"/><path fill="#724631" d="M72.4 61.9L53 106.8l-2.4-27.2 32.2.8z"/><ellipse fill="#cb9080" rx="1" ry="1" transform="matrix(19.5084 -4.90017 4.01721 15.9932 86.1 119.1)"/></g></svg>