<svg xmlns="http://www.w3.org/2000/svg" viewBox="0 0 171 171"><filter id="b"><feGaussianBlur stdDeviation="12" /></filter><path fill="#ccc1bc" d="M0 0h171v171H0z"/><g filter="url(#b)" transform="translate(.5 .5)" fill-opacity=".5"><ellipse rx="1" ry="1" transform="rotate(-155.3 53.4 9.1) scale(32.38885 16.13846)"/><ellipse fill="#653a21" rx="1" ry="1" transform="matrix(.4626 24.15905 -51.78159 .9915 85 145.8)"/><ellipse fill="#fff" cx="7" cy="66" rx="42" ry="169"/><ellipse fill="#fff" cx="170" cy="73" rx="43" ry="170"/><ellipse fill="#100100" cx="118" cy="61" rx="11" ry="27"/><path d="M42.4 63.7L77 19.5l8.7 6.8L51 70.5z"/><ellipse fill="#e4987e" rx="1" ry="1" transform="matrix(-16.08583 34.91024 -29.31587 -13.50808 80.4 84.9)"/><path d="M104 20L54 38l77 14z"/><ellipse fill="#fff" cx="95" cy="1" rx="170" ry="21"/><ellipse fill="#1b2a38" cx="67" cy="140" rx="16" ry="16"/><ellipse fill="#fff" rx="1" ry="1" transform="matrix(-46.21328 -23.344 7.75952 -15.36124 17.8 163.6)"/><path fill="#614e4a" d="M110 126l-35 26 44-70z"/><ellipse fill="#fff" rx="1" ry="1" transform="rotate(-29.8 394.3 -195) scale(60.46721 20.30988)"/><ellipse fill="#eaf0f3" rx="1" ry="1" transform="matrix(33.66993 -15.20256 9.78312 21.6672 145.1 109)"/><path fill="#ecf3f7" d="M129-16l-16 36 23 46z"/><path fill="#3a1c12" d="M59 71l15 7 1-9z"/><path fill="#b67d58" d="M136.6 158.2l-20.1-9 7-15.4 20 9z"/><ellipse fill="#fbcdbb" cx="81" cy="56" rx="22" ry="12"/><ellipse fill="#d5dadf" rx="1" ry="1" transform="matrix(17.92893 12.5074 -16.8715 24.18473 26.3 69.2)"/><ellipse fill="#fcffff" rx="1" ry="1" transform="rotate(-91.8 103.4 -53.9) scale(166.74375 14.27136)"/><path fill="#8f5935" d="M32 141h14v13H32z"/><ellipse fill="#1d110d" cx="90" cy="30" rx="23" ry="10"/></g></svg>