<svg xmlns="http://www.w3.org/2000/svg" viewBox="0 0 129 72"><filter id="b"><feGaussianBlur stdDeviation="12" /></filter><path fill="#e8eef3" d="M0 0h129v72H0z"/><g filter="url(#b)" transform="translate(.5 .5)" fill-opacity=".5"><ellipse fill="#5885ab" cx="38" cy="35" rx="92" ry="9"/><path fill="#337db4" d="M6 23h18v22H6z"/><ellipse fill="#fff" rx="1" ry="1" transform="matrix(-95.86124 .64158 -.20395 -30.47334 82 0)"/><ellipse fill="#fff" cx="92" cy="56" rx="125" ry="18"/><ellipse fill="#fff" rx="1" ry="1" transform="matrix(4.75006 -2.82827 34.30454 57.61417 14 63)"/><path fill="#928781" d="M29 42h58v3H29z"/><path fill="#7e9dbb" d="M36 29h93v10H36z"/><path fill="#000042" d="M10 24L7 38l-3-7z"/><ellipse fill="#fff" cx="79" cy="5" rx="87" ry="24"/><ellipse fill="#fff" rx="1" ry="1" transform="matrix(.6243 23.84138 -2.25815 .05913 29.1 37.3)"/><path fill="#fff" d="M33 80l104-2-23-47z"/><path fill="#000047" d="M18 25h4v11h-4z"/><path fill="#001e65" d="M37.3 31l-4.8 1.6-1.8-5.7 4.8-1.5z"/><path fill="#000043" d="M95 31h2v15h-2z"/><ellipse fill="#eefbff" rx="1" ry="1" transform="matrix(-2.39282 .67658 -23.30798 -82.43161 15 31.4)"/><path fill="#fff" d="M77 44l-1-16 5 10z"/><ellipse fill="#00417d" cx="44" cy="30" rx="2" ry="5"/><ellipse fill="#fffff8" cx="52" cy="40" rx="28" ry="2"/><path fill="#fff" d="M45 0h3v40h-3zm-61-8l23-8-7 77zm79.2 44.1l4.6-32.6 3 .4-4.6 32.6z"/><ellipse fill="#fff" cx="69" cy="71" rx="128" ry="27"/></g></svg>