<svg xmlns="http://www.w3.org/2000/svg" viewBox="0 0 129 72"><filter id="b"><feGaussianBlur stdDeviation="12" /></filter><path fill="#e8eef3" d="M0 0h129v72H0z"/><g filter="url(#b)" transform="translate(.5 .5)" fill-opacity=".5"><ellipse fill="#366e9e" cx="57" cy="33" rx="95" ry="6"/><path fill="#1a6ba5" d="M5 24h19v20H5z"/><ellipse fill="#fff" cx="92" cy="12" rx="101" ry="17"/><ellipse fill="#fff" cx="59" cy="63" rx="128" ry="19"/><path fill="#858282" d="M34 42h63v3H34z"/><ellipse fill="#f9ffff" rx="1" ry="1" transform="matrix(-23.10286 67.09558 -1.4929 -.51405 12.4 31.4)"/><path fill="#003e78" d="M94 29h4v13h-4z"/><path fill="#fefefe" d="M103 61.4l22.4-36.8-4.8 44.6-6-48.2z"/><path fill="#000040" d="M32 26h2v14h-2z"/><ellipse fill="#fff" cx="69" cy="9" rx="55" ry="21"/><path fill="#fcffff" d="M15 22.6l14 58.6 3.7-61.5L16 66.9z"/><path fill="#fff" d="M-2.5-34.5l10 114.6-5 .4-10-114.6z"/><ellipse fill="#fff" cx="78" cy="26" rx="3" ry="17"/><ellipse fill="#fff" cx="92" cy="71" rx="109" ry="28"/><ellipse fill="#fff" cx="46" rx="2" ry="43"/><path fill="#000d52" d="M18 24l4 6-2 6z"/><path fill="#001e62" d="M17 23l5 7-1-5z"/><path fill="#000d57" d="M42 25h3v14h-3z"/><ellipse fill="#fff" rx="1" ry="1" transform="rotate(-179 33 11.2) scale(2.96596 14.1692)"/><ellipse fill="#003f7a" cx="120" cy="38" rx="2" ry="2"/><path fill="#fff" d="M91.8 55.3L-16 77.5 86.9 47.8 95.2 28z"/><ellipse fill="#fff" cx="106" cy="40" rx="2" ry="48"/></g></svg>