<svg xmlns="http://www.w3.org/2000/svg" viewBox="0 0 127 77"><filter id="b"><feGaussianBlur stdDeviation="12" /></filter><path fill="#dce6e2" d="M0 0h127v77H0z"/><g filter="url(#b)" transform="translate(.5 .5)" fill-opacity=".5"><ellipse fill="#00482f" rx="1" ry="1" transform="matrix(9.31552 14.70951 -20.95738 13.2723 35 44.1)"/><path fill="#fff" d="M46 42l1-58-63 28z"/><path fill="#002203" d="M48 25L26.2 10.6l20.2 7 10.1 17z"/><ellipse fill="#fff" cx="102" cy="6" rx="69" ry="20"/><ellipse fill="#fff" rx="1" ry="1" transform="matrix(91.42882 -17.3029 3.1999 16.90837 56.4 76)"/><path fill="#002e10" d="M51.4 19.6l6.8 21.2-30.6 20.9 17 .5z"/><ellipse fill="#577868" rx="1" ry="1" transform="matrix(19.6377 .20372 -.02507 2.41686 88.1 39.2)"/><path fill="#fff" d="M17 50h20v5H17z"/><path fill="#024e35" d="M33.3 63.7L11.7 48.8 4.3 38.7l9 22.7z"/><path fill="#001f03" d="M16 26h3v23h-3z"/><path fill="#617e70" d="M60 48h63v4H60z"/><ellipse fill="#567466" rx="1" ry="1" transform="matrix(.1212 2.23126 -17.71487 .96222 83.3 28.2)"/><ellipse fill="#00381b" rx="1" ry="1" transform="matrix(-4.5558 11.96385 -3.63412 -1.38386 50.6 46.4)"/><path fill="#fff" d="M41 20l8 15-10 20zM30.9 67.4L25.3 78-19 54.6l5.6-10.6z"/><path fill="#155a45" d="M14.2 37.5l26 1-.4 12-26-1z"/><ellipse fill="#fff" cx="126" cy="13" rx="27" ry="36"/><path fill="#fff" d="M36.7 46.6l-6.4-11L-16 35l45.2-51zM63.9-16l.2 90.8-11-57L142 33z"/><ellipse fill="#fff" cx="81" cy="71" rx="46" ry="19"/><path fill="#fff" d="M12 0h3v51h-3z"/><path fill="#003e22" d="M40.4 18.8l4-3 11.2 15.4-4 3z"/></g></svg>