<svg xmlns="http://www.w3.org/2000/svg" viewBox="0 0 127 77"><filter id="b"><feGaussianBlur stdDeviation="12" /></filter><path fill="#dce6e2" d="M0 0h127v77H0z"/><g filter="url(#b)" transform="translate(.5 .5)" fill-opacity=".5"><path fill="#003f24" d="M55.2 40.3l-3.8 26.8-38.6-5.4 3.8-26.8z"/><path fill="#000900" d="M44 60l13-28-8-13z"/><ellipse fill="#fff" cx="70" cy="69" rx="40" ry="14"/><ellipse fill="#fff" cx="96" cy="9" rx="125" ry="15"/><path fill="#002a08" d="M46 14l10 24-19-23z"/><path fill="#2b6f5a" d="M21.4 66.6L-16 20.4l31.5 32 35.2 5.8z"/><ellipse fill="#fff" cx="62" cy="76" rx="126" ry="14"/><ellipse fill="#577668" cx="85" cy="50" rx="23" ry="3"/><ellipse fill="#fff" cx="43" cy="43" rx="4" ry="4"/><ellipse fill="#fff" cx="28" cy="52" rx="11" ry="3"/><ellipse fill="#fff" rx="1" ry="1" transform="matrix(14.52748 88.7454 -13.78263 2.2562 114.6 21.1)"/><path fill="#2f6e5b" d="M16 32h24v16H16z"/><path fill="#496f5d" d="M54 37h55v4H54z"/><ellipse fill="#fff" cx="63" cy="72" rx="24" ry="21"/><path fill="#fdfdfd" d="M29.6 27l-8.7 17.7-7.6-60.5L44 25z"/><path fill="#003819" d="M17 61l28-2 11-15z"/><path fill="#385b4b" d="M66 26h35v4H66z"/><ellipse fill="#fff" rx="1" ry="1" transform="matrix(-29.52684 -14.72154 7.4266 -14.89546 12.8 75.4)"/><path fill="#fff" d="M35 17v23L14 12z"/><ellipse fill="#fff" cx="60" cy="13" rx="4" ry="118"/><ellipse fill="#fff" cx="3" cy="18" rx="14" ry="27"/><ellipse fill="#fff" cx="71" rx="35" ry="26"/></g></svg>