<svg xmlns="http://www.w3.org/2000/svg" viewBox="0 0 136 84"><filter id="b"><feGaussianBlur stdDeviation="12" /></filter><path fill="#fbecdd" d="M0 0h136v84H0z"/><g filter="url(#b)" transform="translate(.5 .5)" fill-opacity=".5"><ellipse fill="#eb7810" cx="32" cy="42" rx="18" ry="30"/><path fill="#e74200" d="M31.2 23.8L11.6 56.3l-6.8-4 19.6-32.6z"/><path fill="#fff" d="M0 54h31v30H0z"/><ellipse fill="#ea4e00" cx="37" cy="49" rx="25" ry="5"/><ellipse fill="#fff" cx="131" cy="29" rx="76" ry="76"/><ellipse fill="#eaa869" rx="1" ry="1" transform="matrix(-.0509 -4.98807 54.07516 -.55182 92.4 37)"/><path fill="#fff" d="M35 52l116 12L51 99z"/><ellipse fill="#e32e00" cx="34" cy="75" rx="5" ry="5"/><ellipse fill="#ea6200" rx="1" ry="1" transform="matrix(4.72437 -2.20301 5.58336 11.97355 34.3 17.8)"/><ellipse fill="#fff" rx="1" ry="1" transform="rotate(87.3 25.6 35) scale(22.91474 22.45412)"/><ellipse fill="#fff" rx="1" ry="1" transform="rotate(-65.1 9.4 -4.8) scale(25.50231 19.44505)"/><path fill="#f7f5ee" d="M28 29h24v15H28z"/><path fill="#fff" d="M0 54h31v28H0z"/><ellipse fill="#fff" cx="115" cy="21" rx="73" ry="13"/><path fill="#ea6100" d="M31 64h8v16h-8z"/><path fill="#fff" d="M39 54h97v30H39z"/><ellipse fill="#e96f00" cx="54" cy="49" rx="5" ry="5"/><path fill="#ee7600" d="M8 42h11v11H8z"/><ellipse fill="#fff" rx="1" ry="1" transform="matrix(-17.3402 -7.20256 15.86456 -38.19402 1.7 18.4)"/><path fill="#edb178" d="M20 34h104v8H20z"/><path fill="#fff" d="M54 40l86 4-47 55z"/><ellipse fill="#fff" cx="98" cy="1" rx="66" ry="33"/></g></svg>