<svg xmlns="http://www.w3.org/2000/svg" viewBox="0 0 123 65"><filter id="b"><feGaussianBlur stdDeviation="12" /></filter><path fill="#efefed" d="M0 0h123v65H0z"/><g filter="url(#b)" transform="translate(.5 .5)" fill-opacity=".5"><path fill="#4e593a" d="M25 30h90v10H25z"/><ellipse fill="#8b5851" cx="10" cy="25" rx="8" ry="10"/><ellipse fill="#21e495" cx="84" cy="35" rx="22" ry="6"/><path fill="#ff2a73" d="M23.8 39.1l.5-10 34 1.8-.6 10z"/><ellipse fill="#fff" rx="1" ry="1" transform="rotate(178 39.3 3) scale(67.2144 25.96123)"/><ellipse fill="#fff" cx="80" cy="54" rx="122" ry="14"/><path fill="#00be52" d="M8 19l2.3 1.8L0 33.1l-2.3-2z"/><path fill="#fff" d="M109 32.3l6.8 47.7L-16 40l111.5 3.2z"/><path fill="#fff" d="M36 35l-10 9 12-23z"/><path fill="#ff0008" d="M11 25l8-2L5 36z"/><ellipse fill="#fff" rx="1" ry="1" transform="matrix(-5.91164 -25.20442 4.04441 -.9486 45.7 17)"/><ellipse fill="#fff" cx="92" cy="22" rx="3" ry="63"/><ellipse fill="#0cbb6d" cx="115" cy="31" rx="40" ry="2"/><path fill="#fff" d="M27 14l-4 51-30-10zm29 45l-2.8-.8 6.7-27.1 3 .7zM-7 0L95-16 73 32z"/><ellipse fill="#fefcfe" rx="1" ry="1" transform="matrix(-1.4035 -1.28158 23.77503 -26.03698 18.7 15.2)"/><path fill="#fd1742" d="M20 31h34v2H20z"/><path fill="#00c66e" d="M114.5 37.3l-.2-7.3-6.7 3 6.2 9.7z"/><path fill="#0bc479" d="M12.5 8.8l-2 14.8-3-.4 2-14.8z"/><path fill="#fff" d="M77 0h3v65h-3z"/><path fill="#009334" d="M95 37l3 3 1-10z"/></g></svg>