<svg xmlns="http://www.w3.org/2000/svg" viewBox="0 0 127 77"><filter id="b"><feGaussianBlur stdDeviation="12" /></filter><path fill="#dce6e2" d="M0 0h127v77H0z"/><g filter="url(#b)" transform="translate(.5 .5)" fill-opacity=".5"><ellipse fill="#004930" rx="1" ry="1" transform="matrix(-7.70306 -15.27723 20.78113 -10.47823 35.5 46.9)"/><path fill="#002f11" d="M55.8 26l-16-11 14.4 33.7-20.9 19.5z"/><path fill="#fff" d="M-16 71l131 21 27-47zm43.6-87L-16 40l67-8.5-9 21.3z"/><ellipse fill="#fff" rx="1" ry="1" transform="matrix(-4.15945 25.29643 -120.24693 -19.77202 92.6 0)"/><path fill="#010" d="M16 25h3v19h-3z"/><path fill="#004328" d="M54.9 54.3l-46.2 3L4.4 38l17.8 24z"/><path fill="#4c6d5d" d="M118.4 47l.2 4-53 2-.2-4z"/><path fill="#597568" d="M59 26h44v4H59z"/><ellipse fill="#375d4b" cx="90" cy="39" rx="22" ry="2"/><ellipse fill="#00371a" cx="51" cy="37" rx="5" ry="13"/><path fill="#fff" d="M15 51h24v3H15zm16-23h17v12H31z"/><path fill="#001c00" d="M36 27h3v23h-3z"/><ellipse fill="#10614b" rx="1" ry="1" transform="matrix(-8.92161 -9.46738 2.10125 -1.98012 48.7 24.2)"/><ellipse fill="#fff" rx="1" ry="1" transform="matrix(20.8513 32.64276 -11.87018 7.58235 113.5 20.4)"/><path fill="#fff" d="M54.7 52.6l9.8-65.5-.9 93-55.8 4.7z"/><path fill="#004127" d="M16 43h25v7H16z"/><path fill="#fff" d="M31.3 83.3L9 100.2l-40.3-53.5L-9 29.8z"/><ellipse fill="#fff" cx="91" cy="76" rx="65" ry="24"/><path fill="#11563f" d="M39 13l12 10-27-12z"/><path fill="#003011" d="M31 63l11-5-33-4z"/></g></svg>