<svg xmlns="http://www.w3.org/2000/svg" viewBox="0 0 131 70"><filter id="b"><feGaussianBlur stdDeviation="12" /></filter><path fill="#dbe6f0" d="M0 0h131v70H0z"/><g filter="url(#b)" transform="translate(.5 .5)" fill-opacity=".5"><ellipse fill="#0056ac" cx="60" cy="32" rx="100" ry="8"/><ellipse fill="#fff" cx="62" cy="6" rx="130" ry="19"/><path fill="#fff" d="M-.5-16l.4 101 143.4-30.8L8 48.8z"/><ellipse fill="#f9514c" cx="94" cy="48" rx="26" ry="4"/><path fill="#fff" d="M142 58L101-5l41 14z"/><ellipse fill="#fff" cx="29" cy="59" rx="48" ry="20"/><ellipse fill="#fff" rx="1" ry="1" transform="matrix(9.81795 9.18183 -47.01145 50.26841 128.8 52.6)"/><ellipse fill="#fff" cx="62" cy="2" rx="130" ry="22"/><path fill="#2f88c3" d="M21 26h102v14H21z"/><path fill="#fff" d="M9 85l-25-48L6-16zm58-57h6v8h-6zM51 15h3v21h-3zM17.7 28l2.2 8.6-6-.7-3.6-3.9zM99 0h2v64h-2z"/><path fill="#fff" d="M114.1 21.3L-16 23.8 117-16l22.7 64.5zM146 71H-16l41-33z"/><path fill="#fff" d="M57.7 25.2l3-.3 1.6 15.9-3 .3z"/><path fill="#cde2ef" d="M34.7 33.8l10 5 2-16.5 5.8-3z"/><ellipse fill="#fff" cx="24" cy="35" rx="2" ry="7"/><ellipse fill="#f7fbfd" rx="1" ry="1" transform="rotate(-178.9 16.5 -.2) scale(1 56.70274)"/><path fill="#fffdfb" d="M86.6 22.8l-1.6 2-1 35.7 3-15.6z"/><path fill="#0055a9" d="M56 41l-3-4 12-10z"/></g></svg>