<svg xmlns="http://www.w3.org/2000/svg" viewBox="0 0 112 49"><filter id="b"><feGaussianBlur stdDeviation="12" /></filter><path fill="#f6bca8" d="M0 0h112v49H0z"/><g filter="url(#b)" transform="translate(.5 .5)" fill-opacity=".5"><ellipse fill="#ea5723" cx="76" cy="22" rx="110" ry="10"/><ellipse fill="#fff" rx="1" ry="1" transform="matrix(.61285 -9.47696 45.7559 2.9589 41.5 4.2)"/><ellipse fill="#fff" cx="75" cy="44" rx="55" ry="9"/><path fill="#dc0000" d="M10 15h12v34H10z"/><ellipse fill="#fff" cy="40" rx="10" ry="50"/><path fill="#dc0000" d="M97 2h9v32h-9z"/><path fill="#fff" d="M107-13l20 41-21 31z"/><path fill="#e21f00" d="M35 22h24v14H35z"/><path fill="#fff" d="M52.2-16h-37l35.6 42.5 26.6-36.9zM85 8h10v22H85z"/><ellipse fill="#fff" cx="27" cy="40" rx="6" ry="23"/><path fill="#d60000" d="M79 2h22v5H79z"/><path fill="#e22200" d="M90 12l-31 3 19 18z"/><path fill="#fff" d="M82 46L69 21 34 64z"/><path fill="#dc0000" d="M77 31h22v5H77z"/><path fill="#fff" d="M95 28V8L82 27zm-73.7 9l111-2 .4 24-111 2z"/><path fill="#e11100" d="M3 13h36v6H3z"/><path fill="#e53400" d="M31.8 38.3l8.9-13.4-29.5 18.6L10 25.8z"/><path fill="#fff" d="M36 18L22 38l1-21z"/><ellipse fill="#fff" cx="3" cy="40" rx="7" ry="28"/><ellipse fill="#fff" cx="19" cy="4" rx="58" ry="9"/></g></svg>