<svg xmlns="http://www.w3.org/2000/svg" viewBox="0 0 106 73"><filter id="b"><feGaussianBlur stdDeviation="12" /></filter><path fill="#f2f2f2" d="M0 0h106v73H0z"/><g filter="url(#b)" transform="translate(.5 .5)" fill-opacity=".5"><ellipse fill="#9f9f9f" cx="52" cy="36" rx="16" ry="11"/><path fill="#434343" d="M75.3 16.8l-.6 5.3-18.2 2.4 17 4.9z"/><path fill="#fff" d="M51 22l6 33-17 8z"/><path fill="#7e7e7e" d="M-3.2 49.1l40.6.5 11.8-13.2-22.8 11.2z"/><path fill="#8f8f8f" d="M66.8 46.8l12-7.3L63.5 36 68 57.4z"/><ellipse fill="#fff" rx="1" ry="1" transform="rotate(-5.4 699.6 -490.2) scale(69.03165 17.03115)"/><ellipse fill="#474747" rx="1" ry="1" transform="matrix(1.283 -1.33922 3.17865 3.04524 9.5 46.5)"/><ellipse fill="#fff" cy="8" rx="33" ry="33"/><path fill="#717171" d="M79.1 15.2L54.5 48l-1.6-1.2L77.5 14z"/><path fill="#464646" d="M17 39.6l-9.5 5.7-.5-.9 9.5-5.7z"/><ellipse fill="#fff" rx="1" ry="1" transform="rotate(-3.6 124 -1645.6) scale(21.12646 105.00001)"/><path fill="#434343" d="M47 44.8l-.5-.2 1.5-4.2L36.8 32z"/><path fill="#b9b9b9" d="M41 10.5l-5.8 9.2-15.4 38 10.3-36.8z"/><ellipse cx="16" cy="48" rx="10" ry="1"/><path fill="#fff" d="M22 61l34-29-10 54z"/><path fill="#171717" d="M74.4 27.3l-4-3 1.2-1.6 4 3z"/><path fill="#fff" d="M72.3 29l-24.7 9.2 15.8.7L118.7-9z"/><path fill="#929292" d="M71.2 12.9L54.2 7l.6-1.9 17 5.9z"/><path fill="#404040" d="M68.8 35.8l.5.9-14.1 7.5-.5-.9z"/><path fill="#fff" d="M78 15L45 8l-3 20z"/><path fill="#b8b8b8" d="M55.5 5.4l1 1.7-20 11.5-1-1.7z"/><path fill="#333" d="M42.2 29.5l.7.6-7 8.4-.8-.6z"/></g></svg>