<svg xmlns="http://www.w3.org/2000/svg" viewBox="0 0 131 70"><filter id="b"><feGaussianBlur stdDeviation="12" /></filter><path fill="#dbe6f0" d="M0 0h131v70H0z"/><g filter="url(#b)" transform="translate(.5 .5)" fill-opacity=".5"><ellipse fill="#0059ad" cx="69" cy="32" rx="120" ry="8"/><path fill="#fffff9" d="M121.7 76.6l-130-2.2.6-35 130 2.2z"/><ellipse fill="#fff" rx="1" ry="1" transform="rotate(-91.4 44.5 -33) scale(14.51853 122.65576)"/><path fill="#fff" d="M-2 84.1L9.5 16.7 146 29.5 1-16z"/><path fill="#eb5658" d="M113.8 52l1-7.1-39-.5-8.7 7z"/><ellipse fill="#fff" cx="129" cy="38" rx="5" ry="85"/><path fill="#0066b1" d="M73 26h26v13H73z"/><ellipse fill="#fff" rx="1" ry="1" transform="matrix(15.12419 -8.83075 13.19092 22.59172 129.7 12)"/><ellipse fill="#fff" rx="1" ry="1" transform="rotate(-168.8 22.2 28) scale(130 15.25214)"/><path fill="#fff" d="M74.8-16l26.4 8-36.6 42.5 8-1.1z"/><path fill="#0044a1" d="M55 26h4v18h-4z"/><path fill="#fff" d="M85 0h2v44h-2z"/><path fill="#fff" d="M20.8-16L146 11.5-16 27l13.2 34z"/><path fill="#005bac" d="M27 26h11v12H27z"/><path fill="#fff" d="M17 27l-5 7 8 1z"/><path fill="#0f72b8" d="M126 37.4l-2.5-7.8-3.2.1-22.4-7.2z"/><path fill="#fff" d="M24 30h3v18h-3z"/><ellipse fill="#fff" rx="1" ry="1" transform="rotate(-151.9 69.5 13.8) scale(11.74474 32.22582)"/><path fill="#fff" d="M87-8l-28-8-1 47z"/><path fill="#0047a2" d="M8.5 27.5l5.7 11.7-2.7 1.3-5.7-11.7z"/><path fill="#fff" d="M99 0h2v70h-2z"/><ellipse fill="#f8fdff" rx="1" ry="1" transform="matrix(-3.98255 -128.30265 .99952 -.03103 31.7 17.4)"/></g></svg>