<svg xmlns="http://www.w3.org/2000/svg" viewBox="0 0 90 62"><filter id="b"><feGaussianBlur stdDeviation="12" /></filter><path fill="#c1c1cb" d="M0 0h90v62H0z"/><g filter="url(#b)" transform="translate(.5 .5)" fill-opacity=".5"><path fill="#4f4d6a" d="M7 6l80-2-45 63z"/><ellipse fill="#fff" rx="1" ry="1" transform="matrix(15.9739 9.1612 -24.05916 41.9507 83 44.4)"/><ellipse fill="#fff" rx="1" ry="1" transform="matrix(-10.94322 -28.53004 12.54513 -4.81191 11.6 43.7)"/><ellipse fill="#d1d4dc" rx="1" ry="1" transform="rotate(170.4 23.7 2) scale(30.41621 24.28693)"/><ellipse fill="#fff" rx="1" ry="1" transform="matrix(5.74987 33.65536 -16.28063 2.78148 12.7 57.6)"/><ellipse fill="#fff" rx="1" ry="1" transform="rotate(-50.6 82.4 -75.2) scale(39.85873 17.17837)"/><path fill="#4e3d5f" d="M28 24h36v21H28z"/><ellipse fill="#fff" cx="54" cy="1" rx="89" ry="5"/><ellipse fill="#060d32" cx="42" cy="5" rx="7" ry="3"/><path fill="#fff" d="M.1 3l-11.8 74L62 61.8l-27.5-3.3z"/><path fill="#ff7360" d="M38 32h19v9H38z"/><ellipse fill="#7d8094" rx="1" ry="1" transform="rotate(-87.3 21.6 -11.5) scale(4.99851 35.82238)"/><path fill="#00000f" d="M57 6h19v2H57z"/><ellipse fill="#fff" cx="41" cy="21" rx="17" ry="3"/><path fill="#5e758b" d="M44.2 48.3L55.9 31l10 6.8L54 55z"/><path fill="#114080" d="M30 33l-8-10h41z"/><path fill="#fff" d="M85.2 61.8L67.5 27.1l21.3-11L106.5 51zM51 10l32-26-37 5z"/><path fill="#3e4761" d="M19 25L11 7 2 5z"/><ellipse fill="#fff" rx="1" ry="1" transform="matrix(41.08164 -25.68529 4.8547 7.7647 64.1 61)"/><path fill="#fff" d="M33 53.9L-13.4-16-16 67.8 65.4 77z"/><path fill="#fff" d="M22 27L7 54.3-6 47 9 20z"/></g></svg>