<svg xmlns="http://www.w3.org/2000/svg" viewBox="0 0 90 62"><filter id="b"><feGaussianBlur stdDeviation="12" /></filter><path fill="#c1c1cb" d="M0 0h90v62H0z"/><g filter="url(#b)" transform="translate(.5 .5)" fill-opacity=".5"><ellipse fill="#4f4967" cx="44" cy="27" rx="24" ry="25"/><ellipse fill="#fff" rx="1" ry="1" transform="matrix(12.22786 -7.23312 19.08838 32.26964 8.5 38.2)"/><path fill="#fff" d="M46.5 70.8L92.3.3l35.2 23-45.8 70.4zM34 16h23v7H34z"/><path fill="#515972" d="M77.7 1.3l8.4 7-23.8 28.4-8.4-7z"/><ellipse fill="#fff" cx="40" rx="89" ry="6"/><path fill="#424763" d="M17 23L0 6l32-1z"/><path fill="#fff" d="M32.2 59l-26 15-30.4-53 26-15z"/><ellipse fill="#fff" rx="1" ry="1" transform="matrix(-15.90208 33.83955 -15.29713 -7.18852 80.3 48.5)"/><ellipse fill="#665b76" rx="1" ry="1" transform="rotate(-56.9 61.7 -21.7) scale(18.55347 17.37376)"/><path fill="#ff5b43" d="M40.1 33l-2.6 7 9.4.5 7.3-8.8z"/><path fill="#203870" d="M16 21l19 13 23-7z"/><path fill="#000018" d="M63 6h25v2H63z"/><ellipse fill="#fff" rx="1" ry="1" transform="matrix(-25.4965 -51.58825 13.77319 -6.80713 15.3 54.5)"/><ellipse fill="#a6abb8" rx="1" ry="1" transform="rotate(-104.7 24.2 -9.3) scale(8.84239 18.29324)"/><path fill="#fff" d="M69 26h21v36H69zM59 3.3l-9.2 10-.2-29.3L105 9zM33 19h29v5H33z"/><path fill="#fff" d="M92.7 77l-29.6-9-4.7-22.5 38-10.7z"/><path fill="#00001d" d="M38 2h10v2H38z"/><path fill="#000c30" d="M2 4.9l14.8 17.6-.8.6L1.2 5.5z"/><path fill="#fff" d="M0 0h36v6H0z"/></g></svg>