<svg xmlns="http://www.w3.org/2000/svg" viewBox="0 0 112 49"><filter id="b"><feGaussianBlur stdDeviation="12" /></filter><path fill="#f6bca8" d="M0 0h112v49H0z"/><g filter="url(#b)" transform="translate(.5 .5)" fill-opacity=".5"><path fill="#e8460d" d="M114 31L19 9 5 35z"/><ellipse fill="#fff" rx="1" ry="1" transform="rotate(-92 54 -5.7) scale(12.13919 82.53275)"/><path fill="#de0000" d="M96 2h12v30H96z"/><ellipse fill="#fff" rx="1" ry="1" transform="matrix(.98647 9.0806 -60.12112 6.53124 38.7 2.8)"/><path fill="#dc0000" d="M10 12h10v44H10z"/><path fill="#e00b00" d="M88 13l-32-1 24 21z"/><path fill="#fff" d="M38.2 20.7L25 35.4 26 50l-7-30.3zM48.6 51L89-10.9 70 26.3 105.2 64z"/><path fill="#fff" d="M34.8-2.4L49.4 30 9.8 64 75.5-.8z"/><path fill="#de0000" d="M94-1l12 9-30-4z"/><ellipse fill="#fff" cx="3" cy="28" rx="7" ry="60"/><path fill="#fff" d="M107 0h5v49h-5z"/><ellipse fill="#fff" rx="1" ry="1" transform="matrix(-1.03551 4.75945 -4.80866 -1.04622 88.7 26)"/><path fill="#fff" d="M82 12L63-16l-79 27z"/><path fill="#e01700" d="M84 36l21-5-33-3z"/><path fill="#fff" d="M86.2 45.7l-102 2.6L127 57l-16.5-30.4z"/><path fill="#de0800" d="M70.5 17l-15 20-8-6 15-20z"/><path fill="#fff" d="M23 36h89v13H23z"/><path fill="#d00" d="M46 18.7l-7.7 17.4-6.4-2.8 7.8-17.4z"/><path fill="#fff" d="M99.3-5.3l3.6-1.8 15.8 32.4-3.6 1.8zM24 37.9l-2.6-26.7.3 7.7 17.3-.4z"/><path fill="#df0600" d="M4 13h35v5H4z"/></g></svg>