<svg xmlns="http://www.w3.org/2000/svg" viewBox="0 0 117 43"><filter id="b"><feGaussianBlur stdDeviation="12" /></filter><path fill="#e6817d" d="M0 0h117v43H0z"/><g filter="url(#b)" transform="translate(.5 .5)" fill-opacity=".5"><ellipse fill="#feffff" cx="62" cy="38" rx="115" ry="5"/><ellipse fill="#d00000" cx="71" cy="30" rx="105" ry="4"/><ellipse fill="#cf0000" cx="93" cy="4" rx="115" ry="4"/><ellipse fill="#f3c4c0" cx="53" cy="17" rx="58" ry="10"/><ellipse fill="#c70000" cx="35" cy="18" rx="5" ry="5"/><path fill="#cf0000" d="M74 5h14v11H74z"/><path fill="#ce0000" d="M1 32L3-4l6 22z"/><ellipse fill="#d50000" cx="19" cy="27" rx="8" ry="8"/><ellipse fill="#d30000" cx="112" cy="19" rx="4" ry="16"/><ellipse fill="#fff" cx="58" cy="42" rx="85" ry="3"/><ellipse fill="#d10000" cx="47" cy="9" rx="3" ry="13"/><path fill="#fff" d="M95 7h4v21h-4z"/><path fill="#ca0000" d="M56 10h3v19h-3z"/><path fill="#f9f9f6" d="M27.6 15.3l-7-5.6L7.4 7.6l3 19.2z"/><path fill="#feffff" d="M1.6 1.6L54-16h-64.8L2 56.9z"/><path fill="#d91f14" d="M21.7 20.5l2.6-13.8-33 3L35.8-.6z"/><path fill="#ca0000" d="M67.4 1l-1.8 26h-1l1.8-26z"/><path fill="#fff" d="M69 8h5v18h-5zm47-8h1v43h-1zM49 25L59 7l-7 3z"/><path fill="#d81208" d="M102.2 35.5l14-18.3-30.7 17.2-2-16.3z"/><path fill="#fff" d="M34.8 6.4l9.7 17L44 10l-18 2.3z"/></g></svg>