<svg xmlns="http://www.w3.org/2000/svg" viewBox="0 0 112 49"><filter id="b"><feGaussianBlur stdDeviation="12" /></filter><path fill="#f6bca8" d="M0 0h112v49H0z"/><g filter="url(#b)" transform="translate(.5 .5)" fill-opacity=".5"><path fill="#e74006" d="M7 14h100v21H7z"/><ellipse fill="#fff" cx="70" cy="43" rx="50" ry="9"/><path fill="#fff" d="M-12 3l62 15 63-34z"/><path fill="#db0000" d="M10 14h12v33H10z"/><path fill="#df0d00" d="M96 1h11v28H96z"/><path fill="#fff" d="M78.6 29.9l10.9-14.5 9.5-3.9-4.3 17.9zM40 15l-18 5 2 18zm16.6 26.3L6.4 48.5l82 15.5-20-46.5z"/><ellipse fill="#fff" cy="46" rx="10" ry="64"/><path fill="#de0000" d="M23 13l19-1 4 13z"/><path fill="#fff" d="M51.1 24.1l-21-17L41-6l21 17z"/><path fill="#d00" d="M54 38l1-19 15-4z"/><path fill="#e32900" d="M107 13L76 2l29-1z"/><path fill="#fff" d="M130.8 6.4L119.4 19 91.2-6.4 102.6-19zM119 58l1-39-59 45zM94.6 7.3l-.2 6-29-.6.2-6z"/><path fill="#e22600" d="M88.6 13.7l-8.8 23.2-10.5-24.4L53.5 18z"/><path fill="#fff" d="M21 36h91v13H21z"/><ellipse fill="#fff" cx="14" rx="64" ry="13"/><path fill="#df1300" d="M37 13l-3 23 13-13z"/><ellipse fill="#e53800" cx="8" cy="15" rx="33" ry="3"/><path fill="#fff" d="M27.1 35l-8.8-15 17-2.3.9 2.9z"/></g></svg>