<svg xmlns="http://www.w3.org/2000/svg" viewBox="0 0 119 64"><filter id="b"><feGaussianBlur stdDeviation="12" /></filter><path fill="#c8ebd9" d="M0 0h119v64H0z"/><g filter="url(#b)" transform="translate(.5 .5)" fill-opacity=".5"><ellipse fill="#009934" cx="58" cy="20" rx="19" ry="19"/><ellipse fill="#fff" cx="105" cy="23" rx="28" ry="28"/><ellipse fill="#fff" cx="20" cy="17" rx="21" ry="33"/><ellipse fill="#52c387" cx="62" cy="56" rx="118" ry="7"/><path fill="#fff" d="M0-2l-16 48 82 2z"/><ellipse fill="#fff" cx="104" cy="15" rx="26" ry="35"/><path fill="#07ad5e" d="M60 24l19-1-12-39z"/><path fill="#fff" d="M134 37L42.8 53l-1.2 13.4L119.4-16z"/><ellipse fill="#00a957" cx="48" cy="19" rx="6" ry="16"/><path fill="#fff" d="M60 0h2v30h-2z"/><path fill="#fff" d="M56 26h45v4H56zm57.1-16.5l-11.7 16.2L52.9-9.5l11.7-16.2z"/><path fill="#fff" d="M55 11h3v40h-3z"/><ellipse fill="#fff" rx="1" ry="1" transform="matrix(10.27942 10.13983 -27.03854 27.41078 26.5 6.2)"/><path fill="#009e40" d="M4.3 48l-20.3.7 1.5-7L.8 79z"/><path fill="#11ab5a" d="M18.2 47.3l10.6 10.2-1.3-7.2L13 57z"/><path fill="#fff" d="M109 0h6v64h-6zM11 55l48-71-75 28zm83.6 4.2l-14.2-32-.8 21.2 24.3 7.7z"/><path fill="#009228" d="M67 48h16v3H67z"/><path fill="#009833" d="M75.9 51.4l1.2 23-3 .2-1.2-23z"/><path fill="#008e1f" d="M108 56l21-5-2 7z"/></g></svg>