<svg xmlns="http://www.w3.org/2000/svg" viewBox="0 0 131 70"><filter id="b"><feGaussianBlur stdDeviation="12" /></filter><path fill="#dbe6f0" d="M0 0h131v70H0z"/><g filter="url(#b)" transform="translate(.5 .5)" fill-opacity=".5"><ellipse fill="#0056ab" cx="60" cy="32" rx="98" ry="8"/><ellipse fill="#fff" rx="1" ry="1" transform="matrix(125.26983 17.6287 -2.06125 14.64729 43.5 57.6)"/><ellipse fill="#fff" cx="54" cy="6" rx="130" ry="19"/><ellipse fill="#f54f4c" cx="91" cy="48" rx="26" ry="4"/><path fill="#fff" d="M8.2 40L0-16-.8 85 146 62.7z"/><path fill="#fff" d="M133.2 85L146 25.3l-162-3 132.1-37.8z"/><ellipse fill="#006ab3" cx="62" cy="37" rx="56" ry="2"/><path fill="#fff" d="M137-2L93-7l53 63z"/><path fill="#2280bf" d="M73 25h45v11H73z"/><ellipse fill="#fff" cx="101" cy="32" rx="3" ry="5"/><ellipse fill="#fff" cx="85" cy="24" rx="2" ry="73"/><path fill="#fff" d="M0 52.1l-15.4-4.4L0-6l15.4 4.4z"/><path fill="#0052a7" d="M10 26h28v3H10z"/><ellipse fill="#fff" cx="69" cy="31" rx="4" ry="4"/><path fill="#fff" d="M11 30l8-4-3 9z"/><ellipse fill="#fff" rx="1" ry="1" transform="matrix(-18.98183 -1.4794 2.07701 -26.64975 130 63.4)"/><ellipse fill="#fff" cx="25" cy="48" rx="2" ry="21"/><path fill="#fff" d="M43 29l17 56-17-6zm8-7h2v11h-2z"/><path fill="#0b6eb6" d="M113 30h13v11h-13z"/><ellipse fill="#fff" cx="60" cy="45" rx="2" ry="63"/><path fill="#1776ba" d="M52 45l5-14 17-8z"/></g></svg>