<svg xmlns="http://www.w3.org/2000/svg" viewBox="0 0 106 73"><filter id="b"><feGaussianBlur stdDeviation="12" /></filter><path fill="#f2f2f2" d="M0 0h106v73H0z"/><g filter="url(#b)" transform="translate(.5 .5)" fill-opacity=".5"><path fill="#a7a7a7" d="M49.5 26.6l22.5-6L77.4 44 3 50.3z"/><path fill="#7a7a7a" d="M81.2 15.2L59.5 32l14.3-.7 1.2-16z"/><path fill="#636363" d="M62 31l-8 13 14-6z"/><ellipse fill="#111" rx="1" ry="1" transform="matrix(4.98532 3.36313 -.73617 1.09125 40.3 35.9)"/><path fill="#fff" d="M46 80l10-47-57 42z"/><ellipse fill="#fff" cx="16" cy="26" rx="22" ry="22"/><ellipse fill="#fff" rx="1" ry="1" transform="rotate(-134.2 59 -1) scale(28.36588 41.82004)"/><path fill="#838383" d="M11 50l-7-6 11-6z"/><path fill="#a2a2a2" d="M30 18l8-4-12 18z"/><path fill="#1f1f1f" d="M12 48h17v2H12z"/><path fill="#fff" d="M44 33h38v4H44z"/><ellipse fill="#fff" cx="29" cy="63" rx="105" ry="15"/><path fill="#595959" d="M76 40l-7 3 10-8z"/><path fill="#323232" d="M76 24l-12 7 6-9z"/><path fill="#fff" d="M67 30h39v7H67z"/><path fill="#b0b0b0" d="M41 7h31v4H41z"/><path fill="#797979" d="M55.4 38.1l14.2 5-1 2.8-14.2-5z"/><ellipse fill="#fff" cx="23" cy="4" rx="28" ry="8"/><path fill="#373737" d="M27.5 49.6l-.4-.9 19.4-10.3.4.9z"/><path fill="#555" d="M40 31l25.7-9 .3 1-25.5 8.8z"/><path fill="#fff" d="M58 36L42 57l7-29z"/><ellipse fill="#fff" cx="35" cy="40" rx="5" ry="5"/></g></svg>