<svg xmlns="http://www.w3.org/2000/svg" viewBox="0 0 117 43"><filter id="b"><feGaussianBlur stdDeviation="12" /></filter><path fill="#e6817d" d="M0 0h117v43H0z"/><g filter="url(#b)" transform="translate(.5 .5)" fill-opacity=".5"><ellipse fill="#feffff" cx="52" cy="42" rx="116" ry="9"/><ellipse fill="#d00000" cx="48" cy="30" rx="102" ry="4"/><ellipse fill="#d00000" cx="53" cy="4" rx="111" ry="4"/><ellipse fill="#f3c8c5" cx="58" cy="18" rx="52" ry="10"/><ellipse fill="#cf0000" cx="80" cy="9" rx="7" ry="7"/><path fill="#d80e04" d="M110.6 24.5L61.3 34l70.7-.9-27.7-37.8z"/><path fill="#d30000" d="M22 20l-11.6 2.3 11.3 6.8L34-16z"/><path fill="#d10000" d="M45 0h5v22h-5z"/><path fill="#ce0000" d="M2 3h6v30H2z"/><path fill="#fff" d="M3 58l-19-39L1-7zm122-19H8l50 19z"/><path fill="#fdffff" d="M95 5l3 22 13-14z"/><path fill="#fff" d="M8 7h6v17H8zm108-7h1v43h-1z"/><path fill="#cf0000" d="M29 12l7 11 5-11z"/><ellipse fill="#d9241b" rx="1" ry="1" transform="matrix(.50949 -9.31234 3.14253 .17193 57.5 23)"/><ellipse fill="#d60000" cx="88" cy="27" rx="5" ry="5"/><path fill="#fdffff" d="M85 24l-16 2V8z"/><path fill="#cd0000" d="M65 6h3v28h-3z"/><path fill="#d81209" d="M22.1 17.9l-13.4 14 11.1-1 12.3-2z"/><path fill="#fff" d="M65 26.8l-4-1-2-4.1 4.8-19.3zM51 8h5v12h-5z"/></g></svg>