<svg xmlns="http://www.w3.org/2000/svg" viewBox="0 0 90 62"><filter id="b"><feGaussianBlur stdDeviation="12" /></filter><path fill="#c1c1cb" d="M0 0h90v62H0z"/><g filter="url(#b)" transform="translate(.5 .5)" fill-opacity=".5"><ellipse fill="#5e5a75" rx="1" ry="1" transform="matrix(24.43273 -1.45715 1.69284 28.38465 44.8 31.2)"/><ellipse fill="#fff" rx="1" ry="1" transform="matrix(13.48513 -12.14206 25.18996 27.97628 2.1 38.5)"/><ellipse fill="#fff" cx="83" cy="54" rx="21" ry="34"/><path fill="#fff" d="M39 77l65-93 1 90z"/><path fill="#5e657b" d="M-2-1.6l5 7.5 25.7-1 12.8 58.3z"/><path fill="#5f4c66" d="M58.3 47.3l28.3-39L38.1 31l-16-3.5z"/><ellipse fill="#f4f6f7" cx="45" cy="19" rx="20" ry="5"/><ellipse fill="#fff" cy="43" rx="25" ry="25"/><ellipse fill="#fff" cx="45" rx="89" ry="6"/><path fill="#4f5771" d="M78 19l8-15-29 3z"/><path fill="#003682" d="M34 24h31v8H34z"/><ellipse fill="#fff" rx="1" ry="1" transform="matrix(-12.87156 -48.03733 18.88707 -5.06077 11.2 61)"/><path fill="#ff3c1a" d="M37 32h15v5H37z"/><path fill="#3b4560" d="M37.3 10.9L35.9 3l10.8-1.9L48.1 9z"/><path fill="#fff" d="M93 77L67 26l38-12zM-16 32l63 29-63-3zm56.5-48L22.3 6 71-10.6 51.7 12.1z"/><path fill="#303758" d="M3 6h30v3H3z"/><path fill="#9998a9" d="M24 23L49 8 2 7z"/><ellipse fill="#fff" rx="1" ry="1" transform="matrix(-20.35293 53.40496 -22.09897 -8.42204 82.9 58.6)"/><ellipse fill="#fff" cx="6" cy="1" rx="35" ry="4"/><path fill="#fff" d="M53 0h37v6H53z"/></g></svg>