<svg xmlns="http://www.w3.org/2000/svg" viewBox="0 0 123 65"><filter id="b"><feGaussianBlur stdDeviation="12" /></filter><path fill="#efefed" d="M0 0h123v65H0z"/><g filter="url(#b)" transform="translate(.5 .5)" fill-opacity=".5"><path fill="#615941" d="M24 30h83v11H24z"/><path fill="#92655d" d="M11 38l7-22-32 7z"/><path fill="#1be090" d="M63 30h52v11H63z"/><ellipse fill="#ff518c" cx="40" cy="34" rx="19" ry="7"/><ellipse fill="#fff" cx="83" cy="12" rx="72" ry="18"/><path fill="#fff" d="M107 35l31 42L11 63z"/><path fill="#00ce73" d="M15.5 8.6L1.2 33.4l-15-49.4-2.2 61.8z"/><ellipse fill="#fff" cx="35" cy="51" rx="95" ry="13"/><ellipse fill="#fff" rx="1" ry="1" transform="rotate(-109.7 31.8 -3.5) scale(29.09527 1.79974)"/><path fill="#ff001a" d="M7 40.3l-2.6-1.6 10.6-17 2.6 1.6z"/><path fill="#fff" d="M22.2 59.8l21.9-57 3.7 1.4-21.9 57zM58 33h5v32h-5z"/><ellipse fill="#fd305b" cx="41" cy="39" rx="18" ry="2"/><path fill="#008934" d="M111 30h5v11h-5z"/><ellipse fill="#fff" rx="1" ry="1" transform="matrix(3.88448 -29.11281 9.50766 1.2686 15.9 54.5)"/><ellipse fill="#fd001b" cx="27" cy="35" rx="3" ry="6"/><path fill="#fff" d="M75.3-6.4h1l4.4 50.8h-1z"/><ellipse fill="#fff" cx="93" cy="13" rx="2" ry="30"/><ellipse fill="#fff" rx="1" ry="1" transform="rotate(-92.5 39.6 -29.7) scale(21.76456 59.97207)"/><path fill="#fff" d="M-12.8 55.5l53.1-78.7 2.5 1.7-53.1 78.7z"/><path fill="#fff" d="M-16 1.2L31.7-16 4.1 18.1l-9.3 39.3zm121.1 48.5l-3.8-1.3 5.6-16 3.8 1.2z"/></g></svg>