<svg xmlns="http://www.w3.org/2000/svg" viewBox="0 0 163 63"><filter id="b"><feGaussianBlur stdDeviation="12" /></filter><path fill="#e9edeb" d="M0 0h163v63H0z"/><g filter="url(#b)" transform="translate(.5 .5)" fill-opacity=".5"><path fill="#6e8e79" d="M76 19h82v13H76z"/><path fill="#496c55" d="M127 12l-10 14 26-7z"/><path fill="#3d6e4e" d="M29.5 43.4l-15 5.2 8.7-5.6-4 18.1z"/><ellipse fill="#fff" rx="1" ry="1" transform="matrix(86.9367 -5.02684 .65743 11.36995 88 61)"/><ellipse fill="#aca8aa" cx="108" cy="45" rx="50" ry="3"/><ellipse fill="#fff" cx="99" rx="68" ry="15"/><path fill="#a2b5a8" d="M58 31.4l-1-18 15-.8 1 18z"/><path fill="#fff" d="M110.7 38.7l6.7-44.1 1 55.8 22-29.9z"/><path fill="#4e795e" d="M32 3l15 12-7-1z"/><ellipse fill="#002003" cx="125" cy="22" rx="2" ry="10"/><ellipse fill="#fff" rx="1" ry="1" transform="rotate(-54.6 120 -129.8) scale(27.21398 9.24071)"/><path fill="#81a08c" d="M4.2 25.7L22.6-.7 3 20.8l5 16.9z"/><path fill="#5b846a" d="M14.3 40l-7.7-6.7-1.2 2.4L19 50z"/><path fill="#5e846c" d="M27.9 54.4l-.8-.7 15-16 .8.6z"/><path fill="#54725f" d="M155 27l-9-11 7 22z"/><ellipse fill="#fff" cx="122" cy="43" rx="2" ry="28"/><path fill="#fff" d="M61 26h40v4H61zM25 50h138v13H25z"/><path fill="#fff" d="M136.8 17.6L83.4-16l66.1 19.8-35 48.5z"/><ellipse fill="#486855" cx="141" cy="26" rx="5" ry="5"/><path fill="#fff" d="M145 47l2-30 12 50zM47 0h11v63H47z"/></g></svg>