<svg xmlns="http://www.w3.org/2000/svg" viewBox="0 0 163 63"><filter id="b"><feGaussianBlur stdDeviation="12" /></filter><path fill="#e9edeb" d="M0 0h163v63H0z"/><g filter="url(#b)" transform="translate(.5 .5)" fill-opacity=".5"><ellipse fill="#84a08e" cx="121" cy="24" rx="66" ry="8"/><ellipse fill="#fff" cx="87" cy="62" rx="162" ry="14"/><path fill="#00330a" d="M18.5 62l-1-.4 10-19.6 1 .4z"/><path fill="#5f7c69" d="M119.9 13l1.4-1.6 4.9 21.5 10.2-18.8z"/><ellipse fill="#fff" rx="1" ry="1" transform="matrix(-.47668 14.455 -39.14194 -1.29078 93.8 4.9)"/><path fill="#3b5e47" d="M150 22h5v15h-5z"/><ellipse fill="#fff" rx="1" ry="1" transform="matrix(-5.75076 -1.58761 8.68726 -31.46764 160.7 33)"/><path fill="#fff" d="M105.7-19.4L179 .3l-6.8 25L99 5.8z"/><ellipse fill="#b9b8b8" cx="89" cy="45" rx="61" ry="4"/><ellipse fill="#fff" cx="52" cy="52" rx="6" ry="129"/><path fill="#3f614c" d="M136 19h10v12h-10z"/><path fill="#fffdfe" d="M137.2 17.3L82.6 78l40.8-52.5 8.2 38.7z"/><path fill="#507a5f" d="M30.6 4.2l16 12-1.2 1.6-16-12z"/><path fill="#7fa08b" d="M6 11h3v29H6z"/><ellipse fill="#567e64" rx="1" ry="1" transform="rotate(-46.8 20.8 -7.7) scale(11.10598 1)"/><path fill="#fafdfb" d="M36 7l15 22.4L22 49 7 26.6z"/><path fill="#153a23" d="M76 24h23v2H76z"/><path fill="#2e5739" d="M58 14h3v19h-3z"/><ellipse fill="#fff" rx="1" ry="1" transform="matrix(4.9243 5.5329 -40.1443 35.72854 36 57.2)"/><path fill="#789a84" d="M14 43h25v4H14z"/><path fill="#001b00" d="M124 17h2v18h-2z"/><path fill="#fff" d="M120.3 65.6l1-30 40.2-43.5-19 14.4z"/></g></svg>