<svg xmlns="http://www.w3.org/2000/svg" viewBox="0 0 136 84"><filter id="b"><feGaussianBlur stdDeviation="12" /></filter><path fill="#fbecdd" d="M0 0h136v84H0z"/><g filter="url(#b)" transform="translate(.5 .5)" fill-opacity=".5"><ellipse fill="#eb7810" rx="1" ry="1" transform="rotate(170.1 15.1 22.5) scale(18.3157 27.00412)"/><ellipse fill="#ea5800" rx="1" ry="1" transform="matrix(28.23954 -.19699 .03497 5.0128 29.7 48.7)"/><path fill="#e11500" d="M39.6 78.5l-8 1-1.2-10 8-1z"/><ellipse fill="#fff" rx="1" ry="1" transform="matrix(1.01302 -20.71273 57.66309 2.8202 96 67.8)"/><path fill="#e95000" d="M38 6l-13 7-6 31z"/><ellipse fill="#e9a564" rx="1" ry="1" transform="matrix(-72.4279 .4898 -.02666 -3.94213 109.3 38)"/><ellipse fill="#fff" cx="113" cy="10" rx="79" ry="23"/><ellipse fill="#fff" rx="1" ry="1" transform="rotate(50 -81.7 43.5) scale(14.47236 32.91169)"/><path fill="#ec7400" d="M3.2 51.8L31 5.5l7.8 4.7L11 56.5z"/><path fill="#fff" d="M42-16h-53l-5 103z"/><ellipse fill="#fff" cx="109" cy="63" rx="71" ry="20"/><path fill="#e96300" d="M31 62h8v18h-8z"/><path fill="#f5ebdc" d="M78.1 42l-57 3.5 5.3-15.6 5.4-1.4z"/><path fill="#ed841f" d="M41.2 52.8l14-11.9L26 14.3l37.6 40.1z"/><path fill="#fff" d="M45 0h91v33H45zm-61 80l5-26 60-1z"/><path fill="#eb5900" d="M29.5 12.4l5.5-2.3 7.5 17.5-5.5 2.3z"/><ellipse fill="#ec7800" cx="33" cy="61" rx="3" ry="18"/><path fill="#fff" d="M151 35.4l-99.5-7.6L18.6-7.9l116-8.1z"/><path fill="#e99d59" d="M26 34h107v2H26z"/><path fill="#fff" d="M0 54h31v30H0z"/><path fill="#ed6e00" d="M39 45h18v9H39z"/></g></svg>