<svg xmlns="http://www.w3.org/2000/svg" viewBox="0 0 90 62"><filter id="b"><feGaussianBlur stdDeviation="12" /></filter><path fill="#c1c1cb" d="M0 0h90v62H0z"/><g filter="url(#b)" transform="translate(.5 .5)" fill-opacity=".5"><ellipse fill="#524d6a" rx="1" ry="1" transform="rotate(169.4 20.3 17.5) scale(20.08017 29.72619)"/><ellipse fill="#fff" cx="7" cy="57" rx="20" ry="39"/><ellipse fill="#fff" rx="1" ry="1" transform="matrix(13.38675 -35.9009 20.8985 7.79265 84.5 50.2)"/><path fill="#84899d" d="M10 6h69v19H10z"/><ellipse fill="#fff" rx="1" ry="1" transform="matrix(-12.47523 6.2839 -17.2075 -34.16153 10.8 43.2)"/><path fill="#fff" d="M92.6-16L32.1 23.4l26.1.7-18.8-35.7z"/><path fill="#112960" d="M17 23l50 14 3-14z"/><ellipse fill="#fff" rx="1" ry="1" transform="matrix(-14.92381 -4.63617 11.12595 -35.8144 74.8 56.8)"/><ellipse fill="#fff" cx="33" cy="2" rx="89" ry="4"/><path fill="#ff3d21" d="M37 32h16v7H37z"/><path fill="#484e68" d="M69 6h17v9H69z"/><ellipse fill="#3c445f" cx="28" cy="32" rx="8" ry="8"/><path fill="#434a63" d="M8.2 17L4 8l9.9-5 4.3 9z"/><ellipse fill="#fff" rx="1" ry="1" transform="matrix(-13.67382 9.20075 -49.68517 -73.84026 0 31.8)"/><path fill="#fff" d="M40 77L90 4l15 73z"/><path fill="#002" d="M3 6h24v2H3z"/><path fill="#5b6279" d="M42 12.1l-7-5.7L42-2l7 5.7z"/><ellipse fill="#f4f3f4" cx="45" cy="20" rx="15" ry="4"/><path fill="#4b4f69" d="M72 25l-16-1 28-13z"/><path fill="#0a173a" d="M58.6 8.9v-1L111.3 5v1z"/><path fill="#fff" d="M67.4 49.7L35.8 65l69.2-3.4L97.4-16z"/><ellipse fill="#fff" cx="16" rx="32" ry="3"/></g></svg>