<svg xmlns="http://www.w3.org/2000/svg" viewBox="0 0 131 70"><filter id="b"><feGaussianBlur stdDeviation="12" /></filter><path fill="#dbe6f0" d="M0 0h131v70H0z"/><g filter="url(#b)" transform="translate(.5 .5)" fill-opacity=".5"><ellipse fill="#0056ac" cx="57" cy="32" rx="101" ry="8"/><ellipse fill="#fff" cy="69" rx="130" ry="30"/><ellipse fill="#fff" rx="1" ry="1" transform="matrix(.14656 13.48227 -105.23438 1.144 64.4 11.8)"/><ellipse fill="#f5605d" rx="1" ry="1" transform="rotate(-92.5 70 -20.8) scale(3.94273 24.68257)"/><ellipse fill="#fff" cy="27" rx="7" ry="87"/><path fill="#fff" d="M119.3-16l25.5 69.9L103.4 12-15.2 29.7z"/><path fill="#2a85c1" d="M27 26h91v14H27z"/><ellipse fill="#fff" cx="100" cy="29" rx="2" ry="19"/><path fill="#fff" d="M104.6-16L140 5.8 64.3 30l3.4 8z"/><ellipse fill="#fff" cx="37" cy="69" rx="43" ry="30"/><ellipse fill="#fff" rx="1" ry="1" transform="matrix(-9.52317 -4.39143 23.64649 -51.27931 125.3 58.9)"/><path fill="#fff" d="M43 0h3v48h-3zM12 29h6v8h-6zM85 0h2v70h-2z"/><path fill="#fff" d="M2.5 50.7L11 7l135 22-157.7-45z"/><ellipse fill="#fff" cx="52" cy="11" rx="3" ry="24"/><path fill="#fff" d="M56.8-.3l1-.1 5.4 60.7-1 .1zM-8.2 23l27 24.6 7.6-17L27.7 85z"/><path fill="#004da6" d="M58.4 31.8l1.2 12-4 .4-1.2-12z"/><ellipse fill="#fffefc" cx="111" cy="42" rx="2" ry="52"/><path fill="#0043a0" d="M19 24h4v14h-4z"/><path fill="#003e9e" d="M12.6 24l2.2 2-7.4 8-2.2-2z"/></g></svg>