<svg xmlns="http://www.w3.org/2000/svg" viewBox="0 0 136 84"><filter id="b"><feGaussianBlur stdDeviation="12" /></filter><path fill="#fbecdd" d="M0 0h136v84H0z"/><g filter="url(#b)" transform="translate(.5 .5)" fill-opacity=".5"><ellipse fill="#ec7d1a" rx="1" ry="1" transform="matrix(.9439 23.9031 -22.84741 .90221 34.8 38.8)"/><ellipse fill="#ea5600" cx="26" cy="49" rx="34" ry="5"/><path fill="#e01a00" d="M31 61h8v19h-8z"/><path fill="#fff" d="M151-2L28-9 86 99z"/><ellipse fill="#e89e57" cx="93" cy="36" rx="41" ry="5"/><path fill="#e95c00" d="M3.2 54.3l38-38-9.8-8.6 4.8-9.4z"/><ellipse fill="#fff" cx="106" cy="72" rx="68" ry="31"/><path fill="#fff" d="M0 54h67v8H0z"/><path fill="#fff" d="M2-15.6L-4.5 18-16 85.2 41.7-11z"/><ellipse fill="#fff" cx="60" cy="12" rx="21" ry="22"/><path fill="#fff" d="M29.5 94h-31V54h31z"/><ellipse fill="#fff" cx="111" cy="11" rx="74" ry="23"/><path fill="#f5eada" d="M79 42l-50 1-1-18z"/><path fill="#ed7902" d="M2.7 52.6L73.5 54 17 50 37.8 9.4z"/><path fill="#ed870c" d="M39.3 73.3l-3 2-7.8-24.7 8.1-7.3z"/><path fill="#ec6600" d="M34 6l-9 13 19 11z"/><path fill="#eeb57f" d="M28 34h52v8H28z"/><ellipse fill="#fff" cx="108" cy="73" rx="64" ry="32"/><ellipse fill="#fff" rx="1" ry="1" transform="rotate(-74.8 12.6 -.3) scale(43.64691 12.59585)"/><path fill="#fff" d="M37 54.2l22-.4v6l-22 .4z"/><path fill="#f9fbf6" d="M38 42l-17 1 10-19z"/><path fill="#eaa86a" d="M85 34h41v8H85z"/></g></svg>