<svg xmlns="http://www.w3.org/2000/svg" viewBox="0 0 123 65"><filter id="b"><feGaussianBlur stdDeviation="12" /></filter><path fill="#efefed" d="M0 0h123v65H0z"/><g filter="url(#b)" transform="translate(.5 .5)" fill-opacity=".5"><ellipse fill="#507450" cx="81" cy="35" rx="59" ry="6"/><path fill="#ed748c" d="M-10 35L8 17l63 24z"/><path fill="#00b94d" d="M11 20V8L1 27z"/><ellipse fill="#fff" rx="1" ry="1" transform="matrix(-5.40982 -13.66365 52.60171 -20.8265 70.7 4.9)"/><ellipse fill="#fff" rx="1" ry="1" transform="matrix(13.98326 12.96526 -16.32206 17.60364 111 54.8)"/><path fill="#22d88c" d="M63 30h51v10H63z"/><path fill="#fff" d="M-16 69l30-38 102 30z"/><path fill="#ff4372" d="M67 30l-41-1v15z"/><path fill="#fff" d="M98.3 42.3L-16 37.7 138 80l-31.7-47.3z"/><ellipse fill="#fff" rx="1" ry="1" transform="matrix(43.50834 -19.03391 5.55816 12.70501 103.9 8.8)"/><path fill="#fff" d="M43.8 27L-16 2.2 42.2-16 30.4 40.7z"/><path fill="#f22650" d="M18.7 20.5l-5.6-2.2-7.4 23 16-26z"/><path fill="#e70017" d="M25 30h6v11h-6z"/><path fill="#00c777" d="M-16 58.4l5.5-7 25.2-38.2-9.5 8z"/><path fill="#fff" d="M42.7-10.3l17 81-13.2-38.3L-16-5.3z"/><path fill="#fff" d="M-16 56.7l71.9-8.5 4.3-28 7.6 48.4z"/><path fill="#fcffff" d="M75.2 57.6l38.1-59L93.8 35l12 45z"/><path fill="#fff" d="M138 56l-18-69-4 92z"/><path fill="#ff003d" d="M53.3 48.8l5-18.7 2 1.7-6-2.2z"/><path fill="#fff" d="M81-6v36H17V-6z"/><path fill="#009e40" d="M80 38h12v3H80z"/><path fill="#fff" d="M-16 9l47 60-35-5z"/></g></svg>