<svg xmlns="http://www.w3.org/2000/svg" viewBox="0 0 136 84"><filter id="b"><feGaussianBlur stdDeviation="12" /></filter><path fill="#fbecdd" d="M0 0h136v84H0z"/><g filter="url(#b)" transform="translate(.5 .5)" fill-opacity=".5"><ellipse fill="#ec7d1a" rx="1" ry="1" transform="matrix(21.13623 -3.09063 3.72793 25.49458 34 39.2)"/><path fill="#eb6a00" d="M21.7 49.8L38.1-3.3l-33.8 55L103 55z"/><ellipse fill="#fff" cx="98" cy="66" rx="60" ry="24"/><path fill="#e64300" d="M31 63h8v21h-8z"/><path fill="#fff" d="M95 99L21-12l130 2z"/><ellipse fill="#e89c54" cx="95" cy="37" rx="49" ry="5"/><ellipse fill="#e95000" cx="39" cy="49" rx="20" ry="5"/><path fill="#fff" d="M0 54h31v30H0z"/><ellipse fill="#fff" rx="1" ry="1" transform="matrix(-13.85082 22.33908 -17.70432 -10.97714 1.5 17.1)"/><path fill="#e95c00" d="M41.2 30.4L24.7 18.5 34.4 8 46 29z"/><path fill="#ec6c00" d="M14.7 51.3l-6.2-3.4L31.3 6.7l6.2 3.4z"/><path fill="#ed7c0a" d="M1.8 53l18.1-12 16.6 13-29.2-.4z"/><path fill="#f3e3cf" d="M21 33h44v11H21z"/><path fill="#fff" d="M0 80h136v4H0z"/><ellipse fill="#fff" cx="111" cy="15" rx="73" ry="19"/><path fill="#fff" d="M34 56l52-8-6 51z"/><path fill="#feffff" d="M26 30h57v4H26z"/><path fill="#fff" d="M40 54h96v30H40z"/><path fill="#ee7c06" d="M13 45h44v9H13z"/><path fill="#eb7500" d="M40 64L29 48l8 29z"/><path fill="#fff" d="M0 54h30v21H0z"/><ellipse fill="#fff" rx="1" ry="1" transform="matrix(-13.5636 -7.5494 39.32664 -70.65603 8.9 12.9)"/></g></svg>