<svg xmlns="http://www.w3.org/2000/svg" viewBox="0 0 123 65"><filter id="b"><feGaussianBlur stdDeviation="12" /></filter><path fill="#efefed" d="M0 0h123v65H0z"/><g filter="url(#b)" transform="translate(.5 .5)" fill-opacity=".5"><path fill="#6f6f58" d="M8 30h109v11H8z"/><path fill="#00a44c" d="M14.6 12.2L1.9 34.8-8.3 3-16 38.7z"/><path fill="#fff" d="M-11 80l37-15-2-58z"/><path fill="#fb0000" d="M7.7 37.2l-2.3-1.8 12.9-16.6 2.3 1.8z"/><path fill="#21e293" d="M62 31h56v9H62z"/><path fill="#ff3373" d="M25 29h33v12H25z"/><ellipse fill="#fff" cx="48" cy="10" rx="37" ry="20"/><path fill="#fff" d="M134.1 80L57.8 31.1l-5.5 46 55.2-43.9z"/><ellipse fill="#fff" cx="87" cy="3" rx="80" ry="27"/><ellipse fill="#fff" rx="1" ry="1" transform="matrix(-48.39802 -13.00235 3.96365 -14.7537 65.3 59.3)"/><path fill="#fff" d="M93 74.5L-16 42.3l106-.2 6.6-43.7z"/><path fill="#fff" d="M56 46L43 29 42 9z"/><path fill="#fff" d="M138 66.1L31.6 51.5l-13-26L-16 63.6zM125 50h-10V32h10z"/><path fill="#fff" d="M77 27h3v25h-3zM18.4 84l17.3-56.5 1.9.6-17.3 56.4z"/><path fill="#00a95d" d="M5 27l6-18 2 6z"/><path fill="#008921" d="M65.6 40.2l-3-.5 1.8-9.9 3 .5z"/><path fill="#f80001" d="M44 33h3v8h-3z"/><path fill="#e40024" d="M12 28l3 1 1-11z"/><path fill="#ff1a48" d="M21 30h40v3H21z"/><path fill="#009436" d="M80 30v11l5-10z"/></g></svg>