<svg xmlns="http://www.w3.org/2000/svg" viewBox="0 0 112 49"><filter id="b"><feGaussianBlur stdDeviation="12" /></filter><path fill="#f6bca8" d="M0 0h112v49H0z"/><g filter="url(#b)" transform="translate(.5 .5)" fill-opacity=".5"><path fill="#d90000" d="M10 14h12v35H10z"/><path fill="#e53500" d="M93.2 12.5L80.5 32.7l-64.2 4.5 38.8-21.4z"/><ellipse fill="#fff" cx="73" cy="48" rx="55" ry="14"/><ellipse fill="#fff" cx="35" cy="7" rx="48" ry="7"/><path fill="#d90000" d="M96 3h10v32H96z"/><ellipse fill="#e52800" rx="1" ry="1" transform="matrix(-.0092 3.9513 -18.664 -.04346 22.6 15.6)"/><path fill="#fff" d="M49.2 60.7L89 50 62.9 16.2l3.6 1.6z"/><path fill="#e01500" d="M99 32l-31-8 15 13z"/><path fill="#fff" d="M50 25L26-12l53-4zm-39.2 2.2L9.3 54.8l-11 .7-8.5-71.5z"/><path fill="#d90000" d="M78 2h24v5H78z"/><path fill="#d00" d="M47 22L33 37l5-26z"/><path fill="#fff" d="M29 36h83v13H29z"/><path fill="#e32900" d="M60.4 14.4L42.3 36l9.6 3 23-27z"/><ellipse fill="#fff" cx="11" cy="6" rx="66" ry="7"/><path fill="#fff" d="M22 42l1-20 19 42zm86-42h4v49h-4z"/><path fill="#e11100" d="M97 11h10v18H97z"/><path fill="#e21900" d="M11 19h10v27H11z"/><path fill="#fff" d="M77.5 41L91.8 6.7l6.4 16.4L82.1 33z"/><path fill="#fff" d="M103.2 42L116-15.3 70-16l53.2 33.2zm2.8 22L26 49l44-22z"/></g></svg>