<svg xmlns="http://www.w3.org/2000/svg" viewBox="0 0 163 63"><filter id="b"><feGaussianBlur stdDeviation="12" /></filter><path fill="#e9edeb" d="M0 0h163v63H0z"/><g filter="url(#b)" transform="translate(.5 .5)" fill-opacity=".5"><path fill="#769581" d="M51.6 23l31.2-4.5 95.2-.3-28.8 14.2z"/><path fill="#607f6b" d="M116 23l31-2-22-9z"/><ellipse fill="#b7b8b6" cx="117" cy="45" rx="110" ry="3"/><path fill="#1a542e" d="M19 59v-8l11-7z"/><ellipse fill="#fff" rx="1" ry="1" transform="matrix(.10638 7.61846 -41.84176 .58426 101.2 7.7)"/><path fill="#fff" d="M155.8 45.5L11.5 59.7 176.8 78l-17-94z"/><path fill="#fdfffe" d="M26 15h32v48H26z"/><path fill="#578067" d="M39 8l7 8-1 6z"/><ellipse fill="#1c4227" cx="59" cy="28" rx="1" ry="16"/><path fill="#fff" d="M56 32h107v10H56z"/><path fill="#1e452b" d="M150 22l6-3-4 18z"/><ellipse fill="#93ab9c" cx="121" cy="30" rx="53" ry="2"/><path fill="#fff" d="M125.7 29.4L156 4.1l-18.6-16.8-3 54.2z"/><path fill="#023d1a" d="M6.9 22.5l-1-.1 1.2-9 1 .2z"/><path fill="#fff" d="M154 24l9-40-31 9z"/><path fill="#437253" d="M16 45h23v2H16z"/><path fill="#fff" d="M22 50l-38-22 6 50z"/><ellipse fill="#fff" cx="125" rx="98" ry="14"/><path fill="#001b00" d="M124 13h3v18h-3z"/><ellipse fill="#fff" rx="1" ry="1" transform="rotate(-143.3 89 -2.5) scale(15.70044 35.18929)"/><path fill="#fff" d="M119.3-11.9h1l4.4 61.8h-1z"/><path fill="#61846e" d="M45 17h2v23h-2z"/></g></svg>