<svg xmlns="http://www.w3.org/2000/svg" viewBox="0 0 119 64"><filter id="b"><feGaussianBlur stdDeviation="12" /></filter><path fill="#c8ebd9" d="M0 0h119v64H0z"/><g filter="url(#b)" transform="translate(.5 .5)" fill-opacity=".5"><ellipse fill="#00a64e" rx="1" ry="1" transform="matrix(-17.51531 5.05553 -6.81648 -23.61625 57 16)"/><ellipse fill="#fff" cx="16" cy="12" rx="26" ry="39"/><ellipse fill="#fff" cx="101" cy="20" rx="23" ry="30"/><ellipse fill="#51c386" cx="54" cy="56" rx="105" ry="7"/><ellipse fill="#fff" rx="1" ry="1" transform="rotate(57.4 8 14.4) scale(26.15971 38.88609)"/><ellipse fill="#00a248" cx="71" cy="16" rx="9" ry="9"/><ellipse fill="#fff" rx="1" ry="1" transform="matrix(-10.94941 27.33175 -17.43528 -6.98477 97.6 21.7)"/><ellipse fill="#fff" cx="43" cy="42" rx="118" ry="6"/><path fill="#fff" d="M54 51L42 69V51z"/><path fill="#00a44d" d="M43.2 31.3l-4-17.5 13.6-3.1 4 17.5z"/><ellipse fill="#fff" rx="1" ry="1" transform="matrix(-17.25172 -7.97243 12.56534 -27.19042 19.7 20)"/><ellipse fill="#fff" cx="60" cy="16" rx="2" ry="16"/><ellipse fill="#fff" cx="103" rx="29" ry="29"/><path fill="#bde8d1" d="M60.1 30.4L57 37.8l-2-19.9L77.5 29z"/><path fill="#fff" d="M39.3 50l39.8-4.6L7.9 22.9 1.8 46.5z"/><path fill="#009937" d="M1 67l-17-23 20 4z"/><path fill="#fff" d="M-14.2-16l9.4 45 15.5 29.2 48.8-72.5z"/><path fill="#00a54e" d="M116.5 48.2L115 79h-1.1l20.1-6.5z"/><ellipse fill="#27b46c" rx="1" ry="1" transform="rotate(154.2 33.6 15.2) scale(6.09282 15.18253)"/><path fill="#10ac5a" d="M66 47h15v4H66z"/><path fill="#fff" d="M109 0h6v64h-6z"/><path fill="#40bc7b" d="M13.3 48l34.3 31-33.4-27.6 49 2.3z"/></g></svg>