<svg xmlns="http://www.w3.org/2000/svg" viewBox="0 0 163 63"><filter id="b"><feGaussianBlur stdDeviation="12" /></filter><path fill="#e9edeb" d="M0 0h163v63H0z"/><g filter="url(#b)" transform="translate(.5 .5)" fill-opacity=".5"><ellipse fill="#84a08e" cx="123" cy="24" rx="67" ry="8"/><path fill="#6c9279" d="M12 78l17.7-36.6L8 49.2l13.6-2z"/><ellipse fill="#fff" cx="93" cy="57" rx="71" ry="9"/><path fill="#658671" d="M114.7 24.2l11.3-14 9.3 7.6-11.3 14z"/><ellipse fill="#fff" cx="160" cy="44" rx="5" ry="29"/><ellipse fill="#fff" rx="1" ry="1" transform="matrix(68.00755 -3.48656 .7201 14.04598 108.3 1.5)"/><path fill="#a8a4a6" d="M57 42h83v6H57z"/><path fill="#99b2a2" d="M36.7 48.6l-24.8-8.7L15 50l33.2-14.5z"/><path fill="#fff" d="M127 24h7v19h-7z"/><path fill="#a7bdae" d="M2 23L18.3 3.4l30.6 17.3L34.3 1.1z"/><path fill="#0e391c" d="M58 11h2v21h-2z"/><path d="M144 22h2v9h-2z"/><path fill="#fff" d="M124.7 18L110-16l21.5 72.4-12.7-25.6z"/><ellipse fill="#4c765c" rx="1" ry="1" transform="matrix(.7138 -.70035 6.4322 6.55576 10.5 40.1)"/><path fill="#fff" d="M113 21h5v21h-5z"/><path fill="#224a31" d="M150 23h4v13h-4z"/><path fill="#fff" d="M70 26h32v13H70z"/><path fill="#153a23" d="M76 24h23v2H76z"/><path fill="#fff" d="M28.6 77L.6 92.5-24.6 47l28-15.5zM16 3l162 14-55-33z"/><ellipse fill="#fff" cx="25" cy="28" rx="17" ry="17"/><path fill="#fff" d="M47 0h12v63H47z"/></g></svg>