<svg xmlns="http://www.w3.org/2000/svg" viewBox="0 0 106 73"><filter id="b"><feGaussianBlur stdDeviation="12" /></filter><path fill="#f2f2f2" d="M0 0h106v73H0z"/><g filter="url(#b)" transform="translate(.5 .5)" fill-opacity=".5"><path fill="#a5a5a5" d="M36 24h39v22H36z"/><path fill="#010101" d="M8 48h18v2H8z"/><path fill="#5e5e5e" d="M56.9 38.7l19.5-24 .7.6-19.5 24z"/><ellipse fill="#fff" cx="12" cy="13" rx="45" ry="22"/><path fill="#fff" d="M58.3 38.3L30.5 10.7 77.2 88-16 63.8z"/><ellipse fill="#fff" cx="98" cy="47" rx="31" ry="33"/><path fill="#262626" d="M46 38.6l.5 1L28 49.3l-.5-1z"/><ellipse fill="#575757" cx="61" cy="41" rx="6" ry="3"/><path fill="#c2c2c2" d="M36.8 12l11.5-5.3 8.5-.3-33.6 23.9z"/><path fill="#585858" d="M63.9 30l-.7-7L74 22l.7 7z"/><path fill="#fff" d="M48.3 4.6l4 33.1 17-16.1-21.8 31z"/><path fill="#111" d="M37 33h5v4h-5z"/><path fill="#fff" d="M0 49h106v24H0z"/><path fill="#1e1e1e" d="M9 48l-3-5 4-2z"/><path fill="#787878" d="M64 40h10v5H64z"/><path fill="#2b2b2b" d="M46.7 28L63 23l.3 1L47 29z"/><path fill="#090909" d="M41 38l7 1-8-4z"/><path fill="#aaa" d="M32.8 20.6L28.2 42l-3-.7L29.8 20z"/><path fill="#fff" d="M96-16l25 23-55 36z"/><path fill="#fff" d="M74.2 18.7L109.7-16 82.6-9 63 30.8z"/><ellipse fill="#fff" cx="35" cy="39" rx="7" ry="4"/><path fill="#fcfcfc" d="M83.1 64.1l-18.7 18L43 60l18.7-18z"/></g></svg>