<svg xmlns="http://www.w3.org/2000/svg" viewBox="0 0 117 43"><filter id="b"><feGaussianBlur stdDeviation="12" /></filter><path fill="#e6817d" d="M0 0h117v43H0z"/><g filter="url(#b)" transform="translate(.5 .5)" fill-opacity=".5"><ellipse fill="#feffff" cx="61" cy="41" rx="116" ry="8"/><path fill="#cd0000" d="M3 28h114v6H3z"/><ellipse fill="#d00000" cx="37" cy="4" rx="116" ry="4"/><path fill="#fbf3f0" d="M51 7h23v19H51z"/><path fill="#faf1ef" d="M73 25l40-3-13-17z"/><path fill="#d00000" d="M116.8 8.4l-2.7 25.9-7-.7L110 7.7z"/><path fill="#feffff" d="M7 8h16v13H7z"/><path fill="#d60700" d="M74.2 11.4L95-3.2l-18 38 19-6.4z"/><ellipse fill="#cf0000" cx="5" cy="9" rx="3" ry="26"/><ellipse fill="#fff" cx="64" cy="42" rx="97" ry="3"/><path fill="#f7dddb" d="M26 8h19v18H26z"/><path fill="#cd0000" d="M30 22l2-11 9 7z"/><ellipse fill="#c00" cx="66" cy="18" rx="2" ry="17"/><path fill="#d20b01" d="M52.8 29.8l5.7-4.2 2.8-12.3-4.1-.3z"/><path fill="#d40000" d="M23 18l8 13-23-1z"/><path fill="#fff" d="M116 0h1v43h-1zM3-13l-6 71-13-20z"/><path fill="#d9170b" d="M44.8 13.3L63.1-1.8l28.4 12.1-54.3-6.8z"/><path fill="#fff" d="M70 16h12v11H70z"/><path fill="#d10000" d="M46 4h4v19h-4z"/><path fill="#fff" d="M8 7h6v20H8z"/><path fill="#d80400" d="M113.4 2.5L108 31.3l-18.4 3.1 25.4-17z"/></g></svg>