<svg xmlns="http://www.w3.org/2000/svg" viewBox="0 0 106 73"><filter id="b"><feGaussianBlur stdDeviation="12" /></filter><path fill="#f2f2f2" d="M0 0h106v73H0z"/><g filter="url(#b)" transform="translate(.5 .5)" fill-opacity=".5"><path fill="#a0a0a0" d="M39 23h36v22H39z"/><path fill="#1d1d1d" d="M7 49.7l27.7-4.4.2 1-27.6 4.4z"/><path fill="#fff" d="M65.7 11.5L47 66.6 44.5-16l-9.3 50.3z"/><path fill="#565656" d="M76 24L56 34l16-15z"/><ellipse fill="#fff" cx="102" cy="41" rx="32" ry="32"/><ellipse fill="#fff" cx="9" cy="12" rx="22" ry="28"/><path fill="#020202" d="M46.1 39.4l-.5.8-11.7-7.6.5-.8z"/><ellipse fill="#fff" cx="14" cy="65" rx="99" ry="17"/><path fill="#767676" d="M1.1 47.8l14-8.8-4.7 8.9L22.6 50z"/><path fill="#343434" d="M60 39.2l4 1.4.3 3 4.1-7.7z"/><path fill="#202020" d="M84.3 11.9l-4 3-.6-.8 4-3z"/><path fill="#fff" d="M87 3.6l.6.6-46.5 48.2-.7-.6z"/><path fill="#fff" d="M114.8 9l-75.2 7-6.5 19.9 81-51.9z"/><path fill="#999" d="M39.1 33.2L36 31l12.2-4 26.5-5.8z"/><path fill="#969696" d="M72 45.2l13.6-12.3-14.8 9H53.2z"/><ellipse fill="#383838" rx="1" ry="1" transform="rotate(32.2 -47 118.3) scale(1 4.09263)"/><path fill="#8a8a8a" d="M29 40.6l-2-.3 2-16.9 2 .3z"/><path fill="#adadad" d="M42 7h30v4H42z"/><ellipse fill="#fff" cx="80" cy="33" rx="17" ry="4"/><ellipse fill="#afafaf" rx="1" ry="1" transform="rotate(138 15.3 15) scale(8.83965 1.73076)"/><path fill="#4f4f4f" d="M71.7 21.2l.8.6-18.2 25-.8-.6z"/><path fill="#fff" d="M6.2 28l90.5-44L-16-.2l21.7 62z"/></g></svg>