<svg xmlns="http://www.w3.org/2000/svg" viewBox="0 0 119 64"><filter id="b"><feGaussianBlur stdDeviation="12" /></filter><path fill="#c8ebd9" d="M0 0h119v64H0z"/><g filter="url(#b)" transform="translate(.5 .5)" fill-opacity=".5"><ellipse fill="#009832" cx="58" cy="19" rx="19" ry="19"/><ellipse fill="#fff" cx="109" cy="19" rx="32" ry="32"/><path fill="#fff" d="M39.3 51l-43-3L.8-15l43 3z"/><path fill="#56c48a" d="M134 60.6L88.3 48.3l-104.3 3L3 63.7z"/><ellipse fill="#fff" cx="76" cy="43" rx="97" ry="6"/><ellipse fill="#fff" rx="1" ry="1" transform="matrix(31.87183 36.15149 -14.5562 12.83301 103 12.9)"/><ellipse fill="#fff" cx="12" cy="6" rx="29" ry="42"/><ellipse fill="#10b166" rx="1" ry="1" transform="matrix(3.86524 10.56227 -8.1973 2.99979 70.3 16.3)"/><path fill="#008915" d="M134 49h-18v14z"/><path fill="#fff" d="M54.8 30.8l-.4-4 40.8-3.6.4 4z"/><path fill="#fff" d="M62 .5v29h-2V.5z"/><ellipse fill="#00ac5c" rx="1" ry="1" transform="rotate(-90.8 33.3 -13.7) scale(12.8598 6.93802)"/><path fill="#fff" d="M60 37L42 71l1-16z"/><path fill="#009c3b" d="M0 67.4l-5.8-1.7L.1 46.6l5.7 1.7z"/><path fill="#fff" d="M74.2 40.1l22.4 21 9.8-77.1-46.3 70.4z"/><path fill="#59c58c" d="M110.7 45L93.3 75.1 88.5 57l19.6 6.8z"/><path fill="#fff" d="M48-1L9 59 0-16zm7 11h3v30h-3z"/><ellipse fill="#33b772" rx="1" ry="1" transform="rotate(60.4 -3 103.1) scale(1 15.51289)"/><path fill="#09a954" d="M67 49l20-1v1l-20 1z"/><path fill="#53c388" d="M14.5 47.3L42.2 51l-52 9.8 24 .8z"/><path fill="#00a24a" d="M73 49h4v15h-4z"/></g></svg>