<svg xmlns="http://www.w3.org/2000/svg" viewBox="0 0 127 77"><filter id="b"><feGaussianBlur stdDeviation="12" /></filter><path fill="#dce6e2" d="M0 0h127v77H0z"/><g filter="url(#b)" transform="translate(.5 .5)" fill-opacity=".5"><ellipse fill="#014b33" rx="1" ry="1" transform="rotate(-98.1 36.3 11.2) scale(15.49305 25.16988)"/><path fill="#001700" d="M55.2 27.1l1 12-12.1 24.6 5.3-42.4z"/><ellipse fill="#fff" rx="1" ry="1" transform="matrix(51.4017 1.31364 -.62903 24.61348 80.8 0)"/><path fill="#002908" d="M57 45l-5-22-15-10z"/><ellipse fill="#fff" cx="85" cy="67" rx="48" ry="15"/><path fill="#fff" d="M20 92L9-16l-25 75zm26.6-68.4l-7.9 2L40.2 50l8-7z"/><path fill="#003011" d="M46 62l-28-2-9-11z"/><path fill="#fff" d="M-5 54.3v-4l40 1.4v4z"/><ellipse fill="#fff" rx="1" ry="1" transform="rotate(158.3 61.7 19) scale(28.48546 37.28053)"/><path fill="#4b6c5c" d="M65 48h55v4H65z"/><path fill="#004228" d="M54 51l-35.5-2.5 7.6-13.4 21.2 19.6z"/><ellipse fill="#517362" cx="85" cy="39" rx="23" ry="3"/><path fill="#003313" d="M45 58l7-16-27 20z"/><path fill="#5e796c" d="M64 25h32v5H64z"/><ellipse fill="#fff" rx="1" ry="1" transform="matrix(-18.25205 -13.42732 18.52707 -25.18425 9.9 4.7)"/><ellipse fill="#fff" rx="1" ry="1" transform="matrix(-3.58472 15.94077 -85.61279 -19.25241 0 73.1)"/><ellipse fill="#fff" rx="1" ry="1" transform="matrix(101.17814 -13.96777 2.22553 16.12107 93.7 69.5)"/><path fill="#003e24" d="M3 37l8 17 6-1z"/><path fill="#000f00" d="M17 24h2v23h-2z"/><ellipse fill="#fff" cx="90" cy="2" rx="60" ry="24"/><path fill="#fff" d="M31 17h5v24h-5z"/></g></svg>