<svg xmlns="http://www.w3.org/2000/svg" viewBox="0 0 119 64"><filter id="b"><feGaussianBlur stdDeviation="12" /></filter><path fill="#c8ebd9" d="M0 0h119v64H0z"/><g filter="url(#b)" transform="translate(.5 .5)" fill-opacity=".5"><ellipse fill="#009832" cx="58" cy="19" rx="19" ry="19"/><ellipse fill="#fff" cx="106" cy="21" rx="29" ry="29"/><ellipse fill="#fff" cx="11" cy="20" rx="30" ry="29"/><path fill="#52c387" d="M0 50h119v13H0z"/><ellipse fill="#fff" cx="108" cy="11" rx="31" ry="41"/><ellipse fill="#fff" rx="1" ry="1" transform="rotate(-140.9 8.7 6.3) scale(42.38895 15.74173)"/><ellipse fill="#fff" cx="55" cy="42" rx="118" ry="6"/><path fill="#09ae5f" d="M62.1 15.5l14.4 12 4-10-7.1-14.8z"/><path fill="#fff" d="M55 13h3v35h-3z"/><path fill="#00aa59" d="M42 9h12v21H42z"/><ellipse fill="#fff" rx="1" ry="1" transform="matrix(-22.97957 35.38544 -20.23183 -13.1387 20.8 0)"/><path fill="#fff" d="M26.8 87.7l31-51.4 3.4 2-31 51.4zM72-16l16.3 76-16.8-34.3L134 41.4z"/><path fill="#009e3f" d="M70 48h15v3H70z"/><path fill="#e7fdfc" d="M63.4 33.3L60.5 24 58.4-8.6l3 12z"/><path fill="#00a54d" d="M6 50l-1.1-3-20.9 6.6L-1 71z"/><path fill="#fdffff" d="M61 26h24v4H61z"/><path fill="#fff" d="M0 41.2L73.6-16 5-12.9l9.3 77z"/><path fill="#00a651" d="M58 31h11v8H58z"/><path fill="#0caa57" d="M116.1 49.8l-1.4 8 7.2 21.2L134 51.8z"/><path fill="#fff" d="M89.9 56.6l2.7-4.1 7.5 4.9-2.7 4.1z"/><path fill="#4bc083" d="M18 45.7L1 79l16-21.7L50 79z"/></g></svg>