<svg xmlns="http://www.w3.org/2000/svg" viewBox="0 0 117 43"><filter id="b"><feGaussianBlur stdDeviation="12" /></filter><path fill="#e6817d" d="M0 0h117v43H0z"/><g filter="url(#b)" transform="translate(.5 .5)" fill-opacity=".5"><ellipse fill="#feffff" cx="52" cy="39" rx="116" ry="6"/><ellipse fill="#d00000" cx="30" cy="4" rx="116" ry="4"/><ellipse fill="#d00000" cx="55" cy="30" rx="92" ry="4"/><ellipse fill="#f8e5e2" cx="83" cy="19" rx="26" ry="6"/><path fill="#fcfffd" d="M11 7l-1 19L39 7z"/><path fill="#d30000" d="M116 33.1h-12.3l5.3-16.7 5.7-32.4zM74.1 12.4L94.7 27l-11.4 4.7L88.5-16z"/><path fill="#f9edea" d="M36 33.1l6.4-20 47.9 10.4-35-17z"/><path fill="#d20000" d="M14.7 33.6l-1.3-12 12-1.2 1.2 12z"/><path fill="#cd0000" d="M2 2h6v27H2z"/><ellipse fill="#fdffff" rx="1" ry="1" transform="matrix(-90.33754 -.08654 .00236 -2.46032 56.6 42)"/><path fill="#cd0000" d="M65 3h3v28h-3z"/><ellipse fill="#f8e9e7" cx="97" cy="17" rx="11" ry="11"/><path fill="#fff" d="M3 51l-19-1L1-11z"/><path fill="#faf3ef" d="M48.8 29.2l24-23.6-.5 7.4-20-6.3z"/><path fill="#f8ebe7" d="M29 23h52v5H29z"/><path fill="#d00000" d="M60 13.7l-2.1 25-4-.4 2.2-25z"/><path fill="#d30000" d="M48 18L43 6l8-9z"/><path fill="#d40400" d="M23 6h3v27h-3z"/><path fill="#fff" d="M25.8 17L39.6 5.4l-16 14.5L41 29zM8 8h5v20H8z"/><ellipse fill="#d30000" cx="34" cy="16" rx="5" ry="5"/></g></svg>