<svg xmlns="http://www.w3.org/2000/svg" viewBox="0 0 129 72"><filter id="b"><feGaussianBlur stdDeviation="12" /></filter><path fill="#e8eef3" d="M0 0h129v72H0z"/><g filter="url(#b)" transform="translate(.5 .5)" fill-opacity=".5"><path fill="#3b72a1" d="M1 29h128v11H1z"/><ellipse fill="#4087ba" rx="1" ry="1" transform="rotate(-85.8 26.1 8.1) scale(11.27085 13.70383)"/><ellipse fill="#fff" cx="94" cy="66" rx="128" ry="28"/><ellipse fill="#fff" cx="93" cy="8" rx="121" ry="20"/><ellipse fill="#a0b0c1" rx="1" ry="1" transform="rotate(89.2 13.2 51) scale(8.14478 44.70311)"/><path fill="#3d709e" d="M31 26h14v10H31z"/><path fill="#fff" d="M24.1 49.5L32-14l4 .5L28 50z"/><path fill="#00175c" d="M17 26h5v10h-5z"/><path fill="#fff" d="M115.3 33.9l10.5-20.5-39 58.6L144 86.3z"/><path fill="#000047" d="M96.1 31h1L96 45h-1z"/><path fill="#f2efee" d="M40 40l9-33-26.6 51.2 38.3-19.6z"/><ellipse fill="#f8ffff" rx="1" ry="1" transform="matrix(-1.24192 .38883 -21.69325 -69.28856 12.3 22.3)"/><path fill="#003f7b" d="M32 25h3v15h-3z"/><ellipse fill="#99908a" cx="56" cy="43" rx="29" ry="2"/><path fill="#000043" d="M6 26h4v10H6z"/><ellipse fill="#fff" cx="87" cy="5" rx="104" ry="24"/><ellipse fill="#fff" cx="62" cy="71" rx="128" ry="27"/><ellipse fill="#fff" cx="65" cy="40" rx="29" ry="2"/><path fill="#003170" d="M14.6 43h-3l-.2-10h3z"/><path fill="#fff" d="M3-14L4 87l-20-61z"/><ellipse fill="#fff" cx="66" cy="28" rx="2" ry="10"/><path fill="#fff" d="M83.3 36.9l.4-6 5 .2-.4 6z"/></g></svg>