<svg xmlns="http://www.w3.org/2000/svg" viewBox="0 0 90 62"><filter id="b"><feGaussianBlur stdDeviation="12" /></filter><path fill="#c1c1cb" d="M0 0h90v62H0z"/><g filter="url(#b)" transform="translate(.5 .5)" fill-opacity=".5"><ellipse fill="#504a68" cx="44" cy="26" rx="25" ry="24"/><ellipse fill="#fff" cx="89" cy="52" rx="27" ry="33"/><ellipse fill="#fff" rx="1" ry="1" transform="matrix(17.79626 44.95611 -25.76612 10.19974 0 52)"/><ellipse fill="#62526c" rx="1" ry="1" transform="matrix(4.77533 -16.87567 14.4605 4.0919 46 42.1)"/><ellipse fill="#5a617a" cx="47" cy="8" rx="60" ry="3"/><ellipse fill="#d8dde2" cx="43" cy="7" rx="18" ry="18"/><ellipse fill="#fff" cx="84" cy="48" rx="16" ry="32"/><ellipse fill="#fff" cx="8" cy="49" rx="16" ry="29"/><path fill="#4e536d" d="M65 30L86 9l-19 3z"/><ellipse fill="#fff" cx="57" cy="2" rx="89" ry="4"/><ellipse fill="#565c73" rx="1" ry="1" transform="matrix(-13.93618 -10.84544 3.64153 -4.6793 18.6 16.7)"/><ellipse fill="#fff" rx="1" ry="1" transform="rotate(-142.5 49.4 -.7) scale(14.35263 44.72586)"/><path fill="#5f637b" d="M68 19L44 1 25 6z"/><path fill="#3c426d" d="M21 24h48v11H21z"/><path fill="#ff5633" d="M52.7 39l-14-1 .6-7 14 1z"/><path fill="#f3f4f6" d="M17.1 19.9l17.3 3.5 20.2.6 12.2-5.7z"/><ellipse fill="#fff" rx="1" ry="1" transform="matrix(23.86667 -8.19432 15.00996 43.71782 0 49.7)"/><path fill="#fff" d="M44.5 70.4l50.4 1.4-3-85-8.3 36.4z"/><path fill="#fff" d="M52.6 69.3L-16 51l44.4-26-33.2 3.7zM93 25H67l10 26z"/><ellipse fill="#fff" cx="5" cy="1" rx="35" ry="5"/><path fill="#fff" d="M49 0h41v6H49z"/></g></svg>