<svg xmlns="http://www.w3.org/2000/svg" viewBox="0 0 129 72"><filter id="b"><feGaussianBlur stdDeviation="12" /></filter><path fill="#e8eef3" d="M0 0h129v72H0z"/><g filter="url(#b)" transform="translate(.5 .5)" fill-opacity=".5"><ellipse fill="#366f9e" cx="44" cy="33" rx="110" ry="6"/><ellipse fill="#0f619e" cx="14" cy="33" rx="11" ry="11"/><ellipse fill="#fff" cx="75" rx="82" ry="30"/><ellipse fill="#fff" cx="65" cy="68" rx="128" ry="24"/><path fill="#939090" d="M34 41h63v4H34z"/><path fill="#fff" d="M111.3 29.5L31.7-16l-18 52-4.1-14.2zM12 6L-2 47l3-63z"/><path fill="#fff" d="M23.1 44.1l-9.3-15.5L21 87l122.5-36.2z"/><path fill="#001159" d="M32.5 32.2l-1.7-4.7 4.7-1.7 1.7 4.7z"/><path fill="#18578f" d="M92 44l5-2V30z"/><ellipse fill="#fff" cx="28" cy="45" rx="3" ry="75"/><path fill="#fff" d="M105.5 87L144 33l-40.4 14.3 15.2-26z"/><ellipse fill="#fff" cx="102" cy="10" rx="107" ry="19"/><ellipse fill="#fff" cx="65" cy="27" rx="3" ry="10"/><path fill="#fffffe" d="M90.1 47.4l1.5-20.2L103.5 87l-27-55.9z"/><ellipse fill="#fffffd" cx="78" cy="45" rx="3" ry="15"/><path fill="#002d6c" d="M22.7 36.8l-4 .4-1.4-14 4-.4z"/><ellipse fill="#00508e" rx="1" ry="1" transform="rotate(41.7 -43.6 49) scale(1 4.5632)"/><path fill="#f6ffff" d="M-16.8 88.3l-.8-.5 34.4-62 .8.4z"/><path fill="#346795" d="M43.7 36l20.8-3.4-16.3 3.9-5.6-14.7z"/><path fill="#001256" d="M4 33l4 7 1-16z"/><path fill="#fff" d="M46.2 14.6l-2.6 49 100.4 10-94.7-29.8z"/></g></svg>