<svg xmlns="http://www.w3.org/2000/svg" viewBox="0 0 200 122"><filter id="b"><feGaussianBlur stdDeviation="12" /></filter><path fill="#5c3c5b" d="M0 0h200v122H0z"/><g filter="url(#b)" transform="translate(.5 .5)" fill-opacity=".5"><ellipse fill="#eafff5" cx="99" cy="68" rx="64" ry="34"/><ellipse rx="1" ry="1" transform="rotate(167.7 96.6 23) scale(41.61029 154.80177)"/><ellipse rx="1" ry="1" transform="rotate(15.3 -179 40.7) scale(27.40073 114.0673)"/><path fill="#5fffff" d="M41 41h56v25H41z"/><ellipse fill="#6e0000" cx="99" cy="114" rx="199" ry="13"/><ellipse fill="#3f0081" cx="98" cy="20" rx="67" ry="20"/><ellipse fill="#00000c" cx="166" rx="44" ry="44"/><ellipse fill="#bf7092" rx="1" ry="1" transform="rotate(13.2 -288.2 652.1) scale(33.823 18.09815)"/><path fill="#00a6e1" d="M36 53h37v13H36z"/><ellipse fill="#9c3ddb" rx="1" ry="1" transform="rotate(165.3 37.4 16.5) scale(20.53797 15.75486)"/><path fill="#d668d4" d="M25.2 86.1l28.3-20L22.8 101l-32.5 3.5z"/><path fill="#ddf1b2" d="M82 42h79v18H82z"/><ellipse fill="#000008" cx="194" cy="43" rx="35" ry="50"/><ellipse fill="#00001c" rx="1" ry="1" transform="matrix(-.7226 -12.12187 168.66547 -10.05446 52.6 0)"/><path fill="#c28399" d="M47 67h107v35H47z"/><ellipse fill="#001" cx="15" cy="57" rx="25" ry="19"/><path fill="#fff" d="M45 41h84v9H45z"/><ellipse fill="#600007" cx="94" cy="114" rx="199" ry="12"/><path fill="#00b200" d="M132 46h23v5h-23z"/><path fill="#00cceb" d="M78 73L38 60l13-11z"/><ellipse fill="#be8862" cx="60" cy="79" rx="35" ry="9"/><path fill="#e724ff" d="M109 12h11v12h-11z"/></g></svg>