<svg xmlns="http://www.w3.org/2000/svg" viewBox="0 0 200 133"><filter id="b"><feGaussianBlur stdDeviation="12" /></filter><path fill="#7a626e" d="M0 0h200v133H0z"/><g filter="url(#b)" transform="translate(.5 .5)" fill-opacity=".5"><ellipse fill="#fff" cx="173" cy="35" rx="57" ry="57"/><ellipse fill="#000d34" rx="1" ry="1" transform="matrix(6.76335 -138.28673 97.0206 4.7451 23.1 43.7)"/><ellipse fill="#e00" cx="155" cy="128" rx="85" ry="41"/><ellipse fill="#fff" rx="1" ry="1" transform="matrix(31.52175 -44.20925 30.71532 21.9004 161.6 42.2)"/><ellipse fill="#e66644" rx="1" ry="1" transform="matrix(-6.37756 79.34246 -19.58674 -1.57439 81 43.6)"/><ellipse fill="#00357a" cx="22" cy="24" rx="42" ry="119"/><ellipse fill="#b40000" cx="153" cy="116" rx="79" ry="28"/><ellipse fill="#ca0000" rx="1" ry="1" transform="matrix(9.15481 .68827 -6.67818 88.8275 92.5 35)"/><ellipse fill="#f7ffff" rx="1" ry="1" transform="matrix(-82.80422 10.7637 -4.06517 -31.27296 199 58)"/><ellipse fill="#fff" cx="19" cy="131" rx="10" ry="10"/><ellipse fill="#75bcbe" rx="1" ry="1" transform="matrix(8.60754 .81524 -8.12055 85.73853 74.4 38.3)"/><ellipse cx="108" cy="47" rx="11" ry="54"/><path fill="#f5ffff" d="M118 67h37v22h-37z"/><ellipse fill="#001a48" rx="1" ry="1" transform="matrix(18.63988 -31.64424 32.44694 19.1127 26 25)"/><ellipse fill="#d9f8fa" cx="137" cy="10" rx="17" ry="80"/><path fill="#b60800" d="M87 89h113v44H87z"/><path fill="#0058b4" d="M126.1 125.8l-4.7 15.3-9.5-3 4.7-15.2z"/><ellipse fill="#00417d" cx="11" cy="80" rx="42" ry="42"/><ellipse fill="#001e2d" rx="1" ry="1" transform="matrix(-2.06196 -11.93018 21.59362 -3.73214 65.4 128.3)"/><path fill="#7a9796" d="M53 77h26v37H53z"/><path fill="#47da35" d="M135 24h31v7h-31z"/><ellipse fill="#fff" cx="191" cy="57" rx="32" ry="32"/></g></svg>