<svg xmlns="http://www.w3.org/2000/svg" viewBox="0 0 200 133"><filter id="b"><feGaussianBlur stdDeviation="12" /></filter><path fill="#9e8374" d="M0 0h200v133H0z"/><g filter="url(#b)" transform="translate(.5 .5)" fill-opacity=".5"><ellipse fill="#040000" rx="1" ry="1" transform="rotate(-103.9 120.1 -1.4) scale(37.21026 80.30343)"/><ellipse fill="#fffff5" cx="45" cy="22" rx="142" ry="35"/><ellipse rx="1" ry="1" transform="matrix(-17.48673 -4.005 8.64367 -37.74025 14.8 99)"/><ellipse fill="#330020" rx="1" ry="1" transform="rotate(-179.3 41.7 34) scale(19.32213 25.00296)"/><path fill="#ffeee7" d="M11.3 37.8l18.3-12.3 53 78.7-18.2 12.3z"/><path fill="#fff2cc" d="M153 0h34v67h-34z"/><ellipse fill="#0c0500" cx="42" cy="132" rx="23" ry="23"/><ellipse fill="#010000" rx="1" ry="1" transform="matrix(-1.7671 -25.52053 8.26363 -.5722 124.5 67)"/><ellipse rx="1" ry="1" transform="matrix(-18.61354 -46.81614 23.93054 -9.5145 176.2 132)"/><path d="M188.8 36.4l26.2 1.4V-1.9l-32.8 25.1z"/><ellipse fill="#fff8ce" cx="107" cy="58" rx="6" ry="48"/><path fill="#070000" d="M141 40h12v29h-12z"/><path fill="#ff73ff" d="M99.2 96L92 115.9 64.8 106 72 86.2z"/><ellipse fill="#ffdcbd" cx="78" cy="12" rx="116" ry="26"/><path fill="#a37114" d="M17.4 6.4L31 3.2l5.6 24.4L23 30.8z"/><path fill="#e8c8ab" d="M149.3 81.3l14.6 29.5-15.5-66 66.6-7z"/><path fill="#fff7df" d="M21.3 40.7L13 68.8l-29 21.3L16.8 30z"/><ellipse fill="#120400" rx="1" ry="1" transform="matrix(-10.23303 -1.77698 5.85485 -33.71609 17.2 90.3)"/><path fill="#e0c39e" d="M30 96h12v37H30z"/><path fill="#412b11" d="M182.7 83.3l-36-26.1L109.4 91l7.2-27.1z"/><path fill="#c46629" d="M148.4 128l-29.8 3.7-3-23.8 29.8-3.6z"/><path fill="#cd9159" d="M11 95l40-10-40 25z"/></g></svg>