<svg xmlns="http://www.w3.org/2000/svg" viewBox="0 0 200 133"><filter id="b"><feGaussianBlur stdDeviation="12" /></filter><path fill="#731920" d="M0 0h200v133H0z"/><g filter="url(#b)" transform="translate(.5 .5)" fill-opacity=".5"><ellipse fill="#ff0a1c" cx="120" cy="113" rx="52" ry="52"/><ellipse fill="#8cd2ff" rx="1" ry="1" transform="rotate(-95.6 58.1 -21.7) scale(22.92324 14.42721)"/><ellipse fill="#000200" cx="18" cy="34" rx="37" ry="81"/><ellipse fill="#ff002b" cx="76" cy="132" rx="90" ry="15"/><ellipse fill="#362d20" cx="178" cy="15" rx="83" ry="83"/><ellipse fill="#ff004e" rx="1" ry="1" transform="matrix(3.49864 -14.96523 32.51652 7.60185 198.3 118.2)"/><ellipse fill="#fe5c50" rx="1" ry="1" transform="matrix(28.94995 -1.19862 .34653 8.36958 132.5 69)"/><path fill="#a78657" d="M152 21h48v21h-48z"/><path fill="#f04d20" d="M67 63L6 55l9 18z"/><ellipse cx="188" cy="6" rx="66" ry="14"/><ellipse fill="#1c141a" cx="46" cy="32" rx="31" ry="31"/><ellipse fill="#ee0f0c" rx="1" ry="1" transform="rotate(85.7 -32.3 83.6) scale(51.66969 8.0416)"/><path fill="#f4181d" d="M141 52h20v65h-20z"/><path fill="#fffffa" d="M90 53l-6-10 8-20z"/><ellipse fill="#0f0400" cx="67" cy="76" rx="8" ry="31"/><ellipse cx="19" cy="90" rx="27" ry="19"/><path fill="#ffa086" d="M37 3.3v-7l20 .4v7z"/><ellipse fill="#4a70bf" rx="1" ry="1" transform="matrix(12.12968 -6.40056 5.28804 10.02135 83.4 16)"/><path fill="#000300" d="M97 71h8v17h-8z"/><ellipse fill="#100000" cx="135" cy="83" rx="9" ry="9"/><ellipse fill="#ff0221" cx="46" cy="131" rx="54" ry="12"/><path fill="#ff1cff" d="M180 112h20v5h-20z"/></g></svg>