<svg xmlns="http://www.w3.org/2000/svg" viewBox="0 0 200 133"><filter id="b"><feGaussianBlur stdDeviation="12" /></filter><path fill="#0c080a" d="M0 0h200v133H0z"/><g filter="url(#b)" transform="translate(.5 .5)" fill-opacity=".5"><path fill="#73849b" d="M23 70l14 32-6-57z"/><ellipse fill="#535b57" cx="178" cy="96" rx="10" ry="16"/><path fill="#484e61" d="M141 66l1 53-25-58z"/><path fill="#fff" d="M49 79.3l-.2-.9 36.1-11.7.3.9z"/><path fill="#9caea6" d="M20 94h20v6H20z"/><ellipse fill="#929698" rx="1" ry="1" transform="matrix(6.54092 -12.54277 1.84738 .96339 182 69.3)"/><path fill="#fff" d="M124 69l-8-8 9 5zm59 30h6v5h-6z"/><path fill="#000001" d="M8 32l39 54 11-20z"/><path fill="#fff" d="M23 58h4l2 10zm52 41h3v9h-3z"/><ellipse cx="92" cy="21" rx="48" ry="48"/><path fill="#ece1e4" d="M183.1 66.2l1.5 1.6 3.8-8.5-3.9-1.5z"/><path d="M155 107l27-17-67-12z"/><ellipse fill="#5d6790" rx="1" ry="1" transform="matrix(-4.4777 2.77156 -4.59224 -7.4192 136.1 101.9)"/><path fill="#fff" d="M176 89.5l-.8-.6 4.7-6.4.9.6z"/><path fill="#505654" d="M72 59L61 74l13-2z"/><path fill="#1c2433" d="M38.5 115.2l-15.3-11 3.6-33.4 2.3 11.4z"/><ellipse cx="151" cy="49" rx="22" ry="33"/><path fill="#4c290e" d="M101.7 128.4l6.8-1.2-16.1-14 38.3 5z"/><path fill="#010000" d="M209 148l-40-14 7-44z"/><path fill="#000004" d="M133.1 71.5l.8 22-29 1-.8-22z"/></g></svg>