<svg xmlns="http://www.w3.org/2000/svg" viewBox="0 0 700 467"><filter id="b"><feGaussianBlur stdDeviation="12" /></filter><path fill="#676150" d="M0 0h700v464H0z"/><g filter="url(#b)" transform="translate(1.4 1.4) scale(2.73438)" fill-opacity=".5"><ellipse fill="#fff" rx="1" ry="1" transform="matrix(136.1561 -4.727 .70099 20.19111 134.2 9.5)"/><ellipse fill="#fffcd7" rx="1" ry="1" transform="matrix(-48.71592 5.12482 -2.84937 -27.08574 22.7 53.6)"/><ellipse fill="#150f08" cx="238" cy="140" rx="79" ry="112"/><ellipse rx="1" ry="1" transform="matrix(-5.6015 68.53462 -29.25011 -2.39068 74 126.6)"/><ellipse fill="#d8c285" cx="132" cy="118" rx="29" ry="29"/><path fill="#fffffc" d="M110 31L262 1 54-13z"/><ellipse fill="#23201b" rx="1" ry="1" transform="matrix(12.95746 18.47025 -88.53262 62.10838 74.4 86.6)"/><ellipse fill="#1c1508" rx="1" ry="1" transform="matrix(26.1525 1.19826 -.62506 13.64222 69.4 27.4)"/><ellipse fill="#cab586" cx="245" cy="138" rx="16" ry="16"/><ellipse fill="#faf7e0" rx="1" ry="1" transform="matrix(-8.73043 -.6258 4.32571 -60.3468 14 57.7)"/><ellipse fill="#120e0d" rx="1" ry="1" transform="matrix(14.18708 -1.56627 3.74373 33.91028 170 109)"/><path fill="#161a18" d="M35.2 25.1l-.4 44.4 15.8 31.3L-.7 185z"/><path fill="#fffff8" d="M23 21L3-14 105 1z"/><path fill="#1a1500" d="M63 147h93v23H63z"/><path d="M171 27l14 41-29 54z"/><path fill="#a78f71" d="M142 75.9l107.8-41.6-44.3 83.2 14.5-68z"/><path fill="#bba06e" d="M8.3 115.2L39.6 185l33-36.8-21.4 1.4z"/><ellipse fill="#000307" rx="1" ry="1" transform="matrix(12.6858 11.78838 -25.71343 27.67095 233.2 103.4)"/><ellipse rx="1" ry="1" transform="matrix(7.7609 -20.02803 23.46788 9.09385 187.7 153.3)"/><path fill="#3a3d00" d="M40.8 53.2l12.9 3.3-6-29.1-27.3 38.9z"/><path fill="#bf9c5c" d="M59 56l23 52-35-40z"/><path fill="#434800" d="M-9.7 34l-1.5-29 21-1 1.4 29z"/></g></svg>