<svg xmlns="http://www.w3.org/2000/svg" viewBox="0 0 200 133"><filter id="b"><feGaussianBlur stdDeviation="12" /></filter><path fill="#4f5863" d="M0 0h200v133H0z"/><g filter="url(#b)" transform="translate(.5 .5)" fill-opacity=".5"><ellipse fill="#bcc9d4" rx="1" ry="1" transform="matrix(-51.29204 -11.32165 5.4654 -24.76061 103.3 66)"/><ellipse rx="1" ry="1" transform="rotate(173.6 73.5 9.6) scale(76.39408 16.66605)"/><ellipse cx="11" rx="66" ry="22"/><path fill="#060000" d="M155 85h45v35h-45z"/><ellipse fill="#a9d9ff" rx="1" ry="1" transform="matrix(-3.67341 32.7492 -6.43913 -.72226 13.9 48.2)"/><path fill="#6df7ff" d="M180.5 72.1l-10.7 9.4-4.3-71.7L177.9 24z"/><path fill="#c6dcee" d="M33 21h12v83H33z"/><path fill="#a8ffff" d="M57 21h14v47H57z"/><ellipse fill="#6e2f1c" rx="1" ry="1" transform="matrix(55.89657 3.54816 -1.93145 30.42752 30.5 97.5)"/><ellipse fill="#0e0409" cx="76" cy="57" rx="7" ry="49"/><ellipse fill="#94ffff" cx="197" cy="48" rx="8" ry="20"/><ellipse fill="#90b9e9" cx="107" cy="130" rx="103" ry="8"/><path d="M106.9 88.9l14.9-1.6 3.3 31.8-14.9 1.6zM44 59l9 12 4-46z"/><ellipse fill="#c0a79b" rx="1" ry="1" transform="rotate(156.1 57.8 57.2) scale(18.39723 33.92188)"/><path fill="#d49995" d="M15 70h26v34H15z"/><path d="M20-4l8 69 13-81z"/><ellipse fill="#00000a" cx="3" cy="64" rx="5" ry="102"/><path fill="#000001" d="M160 1.8l8.8 62.3-14.8 2.1L145.2 4z"/><path fill="#000009" d="M173.7-16l13.1 48 13.7 64.7-20.7-45.2zM57.1 43.9l3-59.9L50 20.6l-10 79.9z"/><path fill="#3f83b6" d="M80 29h71v31H80z"/></g></svg>