<svg xmlns="http://www.w3.org/2000/svg" viewBox="0 0 700 467"><filter id="b"><feGaussianBlur stdDeviation="12" /></filter><path fill="#8b2f8c" d="M0 0h700v464H0z"/><g filter="url(#b)" transform="translate(1.4 1.4) scale(2.73438)" fill-opacity=".5"><ellipse fill="#f91827" rx="1" ry="1" transform="matrix(-85.82803 3.28802 -1.12752 -29.432 127.8 6.9)"/><ellipse fill="#aee5d3" rx="1" ry="1" transform="matrix(16.11746 -36.38745 14.81378 6.56162 142.7 82.7)"/><ellipse fill="#000037" cx="185" cy="80" rx="19" ry="39"/><ellipse fill="#c22ed8" cy="89" rx="75" ry="75"/><path d="M218 152h38v18h-38z"/><ellipse fill="#00002b" rx="1" ry="1" transform="matrix(-14.59863 -7.86055 18.72521 -34.7765 255 86.7)"/><ellipse fill="#97d7f5" rx="1" ry="1" transform="matrix(12.68363 2.849 -3.96132 17.63556 222 88.5)"/><ellipse fill="#200629" rx="1" ry="1" transform="matrix(-26.45092 -20.22633 10.32533 -13.50291 95.8 50.4)"/><ellipse fill="#0a093f" cx="92" cy="100" rx="27" ry="15"/><ellipse fill="#c071f0" cx="187" cy="144" rx="66" ry="11"/><ellipse fill="#a2d9de" rx="1" ry="1" transform="matrix(-12.05381 .93278 -1.52647 -19.7258 56.7 88.2)"/><ellipse fill="#0b001f" rx="1" ry="1" transform="matrix(33.79924 14.4166 -3.40713 7.9879 146.1 165.7)"/><ellipse fill="#6b90ff" rx="1" ry="1" transform="matrix(-19.21026 -10.82443 6.00367 -10.6548 208.7 33.8)"/><ellipse fill="#c900c9" cx="36" cy="155" rx="50" ry="17"/><path fill="#f60098" d="M6 0h41v39H6z"/><ellipse fill="#520096" rx="1" ry="1" transform="matrix(26.07309 -6.96061 4.66043 17.45707 18.6 97.4)"/><path fill="#5fd1e6" d="M28 37.2l17 .6-1 33-17-.6z"/><path fill="#e700b9" d="M153 149h65v16h-65z"/><ellipse fill="#c400d2" rx="1" ry="1" transform="matrix(3.53974 -33.06088 11.06058 1.18422 237.4 52.4)"/><path fill="#1f0337" d="M146 31.8l6 12.7-38 17.7-6-12.7z"/><ellipse fill="#d9763d" cx="176" cy="5" rx="36" ry="17"/><ellipse fill="#dd51c8" cx="32" cy="138" rx="110" ry="8"/></g></svg>