<svg xmlns="http://www.w3.org/2000/svg" viewBox="0 0 641 195"><filter id="b"><feGaussianBlur stdDeviation="12" /></filter><path fill="#694d74" d="M0 0h641v192H0z"/><g filter="url(#b)" transform="translate(1.3 1.3) scale(2.5039)" fill-opacity=".5"><ellipse cx="12" cy="23" rx="46" ry="46"/><ellipse fill="#c3b5f1" rx="1" ry="1" transform="rotate(-24.3 173 -234.7) scale(86.26864 38.44052)"/><ellipse cx="242" cy="20" rx="47" ry="29"/><ellipse fill="#ffdfff" cx="143" cy="72" rx="105" ry="10"/><ellipse rx="1" ry="1" transform="matrix(-5.86796 -11.90584 69.86568 -34.4343 235.8 12.3)"/><ellipse fill="#ff30ff" rx="1" ry="1" transform="matrix(8.00523 -10.06396 17.16571 13.65422 75.9 18)"/><ellipse rx="1" ry="1" transform="matrix(6.73508 -18.6271 50.42675 18.23303 29.6 22.6)"/><ellipse fill="#21b9d8" rx="1" ry="1" transform="matrix(10.218 25.29046 -33.62619 13.58586 136.1 17)"/><ellipse fill="#ff10ff" cx="185" cy="15" rx="15" ry="15"/><ellipse rx="1" ry="1" transform="matrix(-14.2236 10.96378 -59.39354 -77.0528 231 19)"/><ellipse fill="#ff9083" rx="1" ry="1" transform="rotate(-46.9 85.4 -21.5) scale(7.25234 20.60312)"/><path fill="#101140" d="M106 57l-5-73-14 32z"/><ellipse rx="1" ry="1" transform="rotate(-26.2 52.7 -37.2) scale(37.8026 23.94127)"/><ellipse fill="#9f5e7c" cx="141" cy="53" rx="109" ry="13"/><ellipse fill="#fffeff" rx="1" ry="1" transform="matrix(4.51692 12.08106 -33.88684 12.66977 62.4 76)"/><path fill="#090000" d="M225 60l-21-24 19 56z"/><path fill="#fc58f3" d="M60 2h28v31H60z"/><ellipse fill="#ffc6ff" cx="187" cy="69" rx="45" ry="4"/><ellipse rx="1" ry="1" transform="matrix(-27.02194 -21.99895 17.54006 -21.54496 233.2 17.5)"/><path d="M102-2l.1-1L172 2v1z"/><path fill="#ffaee3" d="M126.5 44.5L81.2 64l101.4-1.8L98.3 90z"/><path fill="#e10095" d="M0 68h41v9H0z"/></g></svg>