<svg xmlns="http://www.w3.org/2000/svg" viewBox="0 0 200 133"><filter id="b"><feGaussianBlur stdDeviation="12" /></filter><path fill="#707071" d="M0 0h200v133H0z"/><g filter="url(#b)" transform="translate(.5 .5)" fill-opacity=".5"><path fill="#fff" d="M3.1-24.7l199 3.4-1.2 68-199-3.4z"/><ellipse cx="93" cy="112" rx="120" ry="63"/><ellipse fill="#cecfd4" rx="1" ry="1" transform="matrix(14.46663 5.19996 -29.53942 82.18059 157 42.8)"/><ellipse fill="#f9ffff" rx="1" ry="1" transform="rotate(-176.7 53 .3) scale(136.8474 29.42327)"/><path fill="#fff" d="M99 114l-1 34 10-29z"/><ellipse rx="1" ry="1" transform="matrix(-16.747 15.91217 -26.16758 -27.54047 79.9 78.5)"/><ellipse fill="#151000" rx="1" ry="1" transform="matrix(-17.05246 12.1027 -27.2463 -38.38947 176 114)"/><ellipse fill="#fff" rx="1" ry="1" transform="matrix(5.37349 4.00065 -5.45023 7.3205 43.2 93)"/><ellipse fill="#44362d" cx="140" cy="42" rx="18" ry="7"/><ellipse rx="1" ry="1" transform="matrix(-20.00707 -10.2609 17.43111 -33.98778 62.4 132)"/><ellipse fill="#311408" cx="98" cy="49" rx="10" ry="22"/><path fill="#3a260e" d="M22 35l19-8-18 67z"/><path fill="#e7c8a4" d="M36 35h15v24H36z"/><ellipse fill="#c3d0de" rx="1" ry="1" transform="matrix(21.49067 18.29366 -8.0274 9.43027 2.2 31.3)"/><ellipse fill="#eefcff" cx="120" rx="38" ry="38"/><ellipse fill="#796e60" rx="1" ry="1" transform="rotate(22.6 -89.4 427.6) scale(31.20981 16.67324)"/><path fill="#edeaf6" d="M137 66h7v51h-7z"/><ellipse fill="#0a0400" rx="1" ry="1" transform="matrix(-5.79634 -9.2454 33.13404 -20.77317 11 127.2)"/><ellipse fill="#ebf5ff" rx="1" ry="1" transform="matrix(6.38135 32.23326 -7.33538 1.45222 80.3 22.6)"/><ellipse fill="#8c8174" cy="71" rx="19" ry="19"/><ellipse fill="#78707e" rx="1" ry="1" transform="matrix(3.47406 -8.10307 14.8317 6.35885 126.6 116.8)"/><path fill="#a7d7f2" d="M54 89h8v13h-8z"/></g></svg>