<svg xmlns="http://www.w3.org/2000/svg" viewBox="0 0 700 467"><filter id="b"><feGaussianBlur stdDeviation="12" /></filter><path fill="#706b85" d="M0 0h700v464H0z"/><g filter="url(#b)" transform="translate(1.4 1.4) scale(2.73438)" fill-opacity=".5"><ellipse fill="#fff" cx="38" cy="34" rx="49" ry="49"/><ellipse fill="#07000b" rx="1" ry="1" transform="matrix(-38.1488 4.87946 -14.16062 -110.71112 231.7 63.6)"/><ellipse fill="#002" rx="1" ry="1" transform="matrix(16.34071 25.56505 -37.18196 23.76602 38.8 115.7)"/><ellipse fill="#fff" cx="30" cy="31" rx="49" ry="49"/><ellipse fill="#f0c4e0" cx="111" cy="159" rx="86" ry="21"/><ellipse fill="#171437" cx="115" cy="85" rx="27" ry="66"/><ellipse fill="#ffffd0" cx="152" cy="124" rx="9" ry="50"/><path fill="#fff" d="M29 0h48v81H29z"/><ellipse fill="#f1c3da" rx="1" ry="1" transform="matrix(1.48294 6.66009 -47.12208 10.4922 198.7 139)"/><path fill="#475690" d="M78-5v74l111-8z"/><ellipse fill="#222e6e" cx="32" cy="94" rx="46" ry="17"/><ellipse fill="#0d0000" rx="1" ry="1" transform="rotate(-44.5 300.8 -171.4) scale(39.29991 8.1993)"/><ellipse fill="#080408" cx="135" cy="121" rx="6" ry="35"/><path fill="#2c2029" d="M160 105h46v27h-46z"/><ellipse fill="#87b5d6" rx="1" ry="1" transform="matrix(-46.50155 -13.6672 5.37373 -18.28369 113 2.6)"/><ellipse fill="#4d86c0" cx="16" cy="23" rx="12" ry="12"/><ellipse fill="#fff" rx="1" ry="1" transform="matrix(3.4664 -19.4483 64.91308 11.5699 18.7 57.3)"/><path fill="#a18fc0" d="M-16 150l39 35 112-48z"/><path fill="#1f1b2f" d="M-16 149l93-11-4-54z"/><ellipse fill="#1a0c2a" rx="1" ry="1" transform="matrix(17.88832 -23.1918 27.5367 21.23962 221.5 12.6)"/><ellipse fill="#738abf" cx="179" cy="49" rx="15" ry="53"/><path fill="#4c3545" d="M174 119l3-46-42-38z"/></g></svg>