<svg xmlns="http://www.w3.org/2000/svg" viewBox="0 0 200 133"><filter id="b"><feGaussianBlur stdDeviation="12" /></filter><path fill="#8d2f8e" d="M0 0h200v133H0z"/><g filter="url(#b)" transform="translate(.5 .5)" fill-opacity=".5"><ellipse fill="#f50a42" cx="65" rx="106" ry="28"/><ellipse fill="#bd25da" cx="22" cy="94" rx="33" ry="92"/><ellipse fill="#a8dcce" rx="1" ry="1" transform="rotate(22.9 -93.4 312) scale(14.12986 26.33453)"/><ellipse fill="#000136" rx="1" ry="1" transform="rotate(-103.4 97 -24.2) scale(29.07864 14.40173)"/><path fill="#0b0b43" d="M186 51h14v82h-14z"/><ellipse fill="#391746" rx="1" ry="1" transform="matrix(-19.91055 2.97565 -4.46051 -29.84597 77.8 56.4)"/><ellipse fill="#c56cf5" rx="1" ry="1" transform="matrix(-.24824 -7.89923 49.20409 -1.5463 155 113.9)"/><path fill="#b4e3e7" d="M60.6 58.9l-9.7 24-19.5-7.8 9.7-24z"/><path fill="#9bffff" d="M166 54h13v27h-13z"/><path d="M170 119h30v14h-30z"/><path fill="#260038" d="M98 114l-51 23 100 1z"/><ellipse fill="#986bfb" rx="1" ry="1" transform="rotate(-174.2 85 8.9) scale(20.93032 11.63348)"/><path fill="#460046" d="M43.7 9.7l28.9 11.1-8.3 21.5-28.9-11.1z"/><ellipse fill="#d4f9fa" cx="103" cy="83" rx="13" ry="7"/><path fill="#5ddfec" d="M15.3 44.8l7.9-16.2 13.5 6.6-7.9 16.2z"/><ellipse fill="#dc7c33" rx="1" ry="1" transform="matrix(-28.09907 7.60999 -4.61358 -17.03514 141.2 0)"/><path fill="#d03abb" d="M45 51l21-9 9 21-21 9z"/><ellipse fill="#c300cb" rx="1" ry="1" transform="matrix(.33351 27.45373 -8.67088 .10533 184 36.7)"/><path fill="#540093" d="M0 66h33v24H0z"/><path fill="#ff00c4" d="M118 117h56v7h-56z"/><path fill="#ff00c0" d="M-5.9 18.8l13-16.5 26.8 20.9-13 16.5z"/><ellipse fill="#de00c0" rx="1" ry="1" transform="matrix(1.84093 -9.97645 45.46381 8.3893 23 116.9)"/></g></svg>