<svg xmlns="http://www.w3.org/2000/svg" viewBox="0 0 200 133"><filter id="b"><feGaussianBlur stdDeviation="12" /></filter><path fill="#4c4479" d="M0 0h200v133H0z"/><g filter="url(#b)" transform="translate(.5 .5)" fill-opacity=".5"><ellipse fill="#fff2ff" rx="1" ry="1" transform="matrix(-1.00458 -25.68032 167.51093 -6.55282 113.8 110.7)"/><ellipse cx="30" cy="21" rx="69" ry="69"/><ellipse fill="#00002b" cx="162" cy="28" rx="55" ry="55"/><ellipse fill="#fff" cx="103" cy="60" rx="14" ry="30"/><ellipse cx="74" cy="129" rx="17" ry="10"/><ellipse cx="42" cy="36" rx="54" ry="54"/><ellipse fill="#b4b8ff" cx="190" cy="109" rx="124" ry="28"/><ellipse fill="#c79bff" cx="24" cy="115" rx="38" ry="24"/><ellipse fill="#000015" rx="1" ry="1" transform="matrix(14.93145 -31.30444 23.65794 11.28426 145.5 52)"/><ellipse fill="#30317a" cx="172" cy="103" rx="83" ry="6"/><path fill="#cdcaff" d="M119 45l-34 7 21 82z"/><ellipse fill="#030060" cx="131" cy="19" rx="33" ry="33"/><ellipse fill="#000012" rx="1" ry="1" transform="matrix(-18.17501 9.1967 -9.94065 -19.64525 71.1 66.6)"/><ellipse fill="#000041" rx="1" ry="1" transform="matrix(20.63557 7.30794 -2.46666 6.96517 77.6 129.5)"/><ellipse fill="#ece7ff" cx="174" cy="91" rx="110" ry="6"/><ellipse fill="#17009f" cx="153" cy="4" rx="61" ry="12"/><path fill="#f5f3ff" d="M209 111l-86-3 82 28z"/><ellipse fill="#0d0fc6" rx="1" ry="1" transform="rotate(74.8 -31.4 107.6) scale(3.5564 20.50553)"/><ellipse fill="#000010" rx="1" ry="1" transform="rotate(-120.9 30.4 12.3) scale(29.65228 83.76118)"/><path fill="#0df" d="M201.1 47.9l-2 .3-10.2-58 2-.4z"/><path fill="#d7ffff" d="M188.2 91.8l-1 .3-25.4-102 1-.2z"/><path fill="#000034" d="M125 68.4l-13.2-3.8 5.5 21.7 47.6-5.4z"/></g></svg>