<svg xmlns="http://www.w3.org/2000/svg" viewBox="0 0 200 133"><filter id="b"><feGaussianBlur stdDeviation="12" /></filter><path fill="#616467" d="M0 0h200v133H0z"/><g filter="url(#b)" transform="translate(.5 .5)" fill-opacity=".5"><ellipse cx="176" cy="122" rx="87" ry="87"/><ellipse fill="#aeb9b6" cx="17" cy="35" rx="88" ry="88"/><ellipse fill="#aaadb6" cx="144" cy="17" rx="23" ry="79"/><ellipse fill="#100c11" rx="1" ry="1" transform="matrix(-.58764 -8.00217 117.49274 -8.62813 122.8 66.7)"/><ellipse fill="#040718" rx="1" ry="1" transform="matrix(40.9534 1.6518 -2.76627 68.58452 199 67.4)"/><path fill="#fff5ea" d="M98.6 81.6l-3.9 9.2 1.4 15.3L48.8 90z"/><path fill="#f5e8dd" d="M60.2 114.8L20.5 119l-2.7-25.8L57.5 89z"/><path fill="#080003" d="M-4.6 105.4l-3.2-13.6 22.4-5.2 3.2 13.6z"/><ellipse fill="#ffe" cx="150" cy="82" rx="9" ry="9"/><ellipse rx="1" ry="1" transform="matrix(12.8519 -6.93756 16.29732 30.19098 108.9 89.3)"/><ellipse fill="#352c29" rx="1" ry="1" transform="matrix(6.2723 25.64813 -26.10962 6.38516 83.6 131.1)"/><ellipse fill="#fffeff" cx="126" cy="10" rx="4" ry="60"/><ellipse fill="#fffcfe" cx="38" cy="13" rx="3" ry="52"/><ellipse fill="#69695e" cx="34" cy="76" rx="58" ry="14"/><ellipse fill="#282728" rx="1" ry="1" transform="matrix(-6.06391 -14.42547 22.79425 -9.58182 128.2 64.8)"/><ellipse fill="#fffdfe" cx="99" cy="15" rx="4" ry="37"/><path fill="#464b50" d="M27 43.4l9.4 50 .6-69-.5-36.2z"/><path fill="#425599" d="M165.3-15l32.2 37-12.8 11-32.2-37z"/><ellipse fill="#1a1b21" cx="9" cy="22" rx="3" ry="58"/><path fill="#eae3e7" d="M149 11h6v50h-6z"/><path fill="#a5b8be" d="M63 0h27v66H63z"/><path fill="#d6cecc" d="M128 77h3v17h-3z"/></g></svg>