<svg xmlns="http://www.w3.org/2000/svg" viewBox="0 0 800 533"><filter id="b"><feGaussianBlur stdDeviation="12" /></filter><path fill="#889f96" d="M0 0h800v531H0z"/><g filter="url(#b)" transform="translate(1.6 1.6) scale(3.125)" fill-opacity=".5"><path d="M104.7 176.3l-27.3 42-124-80.6 27.2-42z"/><ellipse fill="#e1e8d6" rx="1" ry="1" transform="matrix(88.93266 33.32772 -17.23678 45.99513 158.9 71.8)"/><ellipse fill="#010" rx="1" ry="1" transform="matrix(-2.72259 29.91619 -33.44006 -3.04328 226.7 169)"/><ellipse fill="#244a3a" cx="100" cy="74" rx="16" ry="23"/><path d="M248 71h8v56h-8z"/><ellipse fill="#ffffed" cx="224" cy="87" rx="25" ry="53"/><ellipse fill="#2f2c15" rx="1" ry="1" transform="matrix(12.5472 15.06337 -20.47294 17.05316 14.6 88.2)"/><ellipse fill="#1b69b6" cx="19" cy="8" rx="77" ry="35"/><ellipse fill="#56623e" rx="1" ry="1" transform="matrix(5.70225 25.65583 -36.83019 8.18585 154 141)"/><ellipse cx="24" cy="169" rx="38" ry="38"/><ellipse fill="#dfe8d8" rx="1" ry="1" transform="rotate(-124.5 50.7 24.7) scale(34.39906 21.93782)"/><path fill="#3a6b5d" d="M144 76l54.3 9.5-4.4 24.6-54.2-9.6z"/><path fill="#001d00" d="M83.2 46.8L82 38l38.7-4.7L122 42z"/><ellipse fill="#30668a" rx="1" ry="1" transform="matrix(-3.72042 -40.85576 13.78699 -1.25548 202.9 16)"/><ellipse fill="#edf1e0" cx="141" cy="53" rx="27" ry="27"/><path fill="#fffffc" d="M118 77h11v56h-11z"/><ellipse fill="#2b3e22" cx="111" cy="114" rx="4" ry="41"/><path fill="#80fff6" d="M61 122h38v23H61z"/><path d="M261.8 79.9l-5.6 45.7-12-1.5 5.6-45.7z"/><ellipse fill="#2a5000" rx="1" ry="1" transform="matrix(-5.5916 15.8782 -26.72695 -9.41204 225.9 156)"/><path fill="#d7edd9" d="M42 23h13v116H42z"/><path fill="#2d4802" d="M216 181l-55-3-55-42z"/></g></svg>