<svg xmlns="http://www.w3.org/2000/svg" viewBox="0 0 700 467"><filter id="b"><feGaussianBlur stdDeviation="12" /></filter><path fill="#5f403e" d="M0 0h700v464H0z"/><g filter="url(#b)" transform="translate(1.4 1.4) scale(2.73438)" fill-opacity=".5"><ellipse fill="#fff8f3" cx="142" cy="146" rx="44" ry="35"/><ellipse fill="#b5a5ab" cx="245" cy="100" rx="32" ry="50"/><ellipse fill="#1c0000" rx="1" ry="1" transform="rotate(83.1 44.2 65.5) scale(51.53854 142.16594)"/><ellipse fill="#dca577" cx="140" cy="77" rx="22" ry="33"/><ellipse fill="#020013" rx="1" ry="1" transform="matrix(19.35086 -2.7127 6.51823 46.49728 200 129.3)"/><ellipse fill="#410000" rx="1" ry="1" transform="matrix(-30.7497 -39.64227 18.82596 -14.60292 11.7 155.3)"/><path fill="#e2865b" d="M28 107L3 46l-19 28z"/><ellipse fill="#697c79" rx="1" ry="1" transform="rotate(-151.3 55.6 54.2) scale(22.91464 26.76392)"/><ellipse fill="#aa3f0e" cx="243" cy="61" rx="17" ry="20"/><ellipse fill="#d6c9c5" cx="154" cy="134" rx="17" ry="27"/><path fill="#000105" d="M191 45l22 62-2-86z"/><ellipse fill="#611b0f" rx="1" ry="1" transform="matrix(-22.31564 3.1416 -1.13412 -8.056 110 169)"/><ellipse fill="#000815" cx="178" cy="98" rx="31" ry="10"/><ellipse fill="#5f0000" cx="43" cy="98" rx="17" ry="23"/><path fill="#c3b3be" d="M105 133.3l9 6.3-19 27-9-6.2z"/><ellipse fill="#290300" rx="1" ry="1" transform="rotate(-152.5 129.7 -22.3) scale(21.65222 25.97217)"/><path fill="#001020" d="M201 155h55v15h-55z"/><path fill="#bfbbbc" d="M219.2 82.2l6.1-16.4-6.9-4.5L205 71z"/><ellipse fill="#72839f" rx="1" ry="1" transform="rotate(-86.3 184.5 -56.4) scale(28.83862 12.40228)"/><ellipse fill="#853a1f" rx="1" ry="1" transform="matrix(-4.49104 -1.88786 8.50157 -20.22444 131.2 125.9)"/><path fill="#efa27d" d="M117 81h25v21h-25z"/><path fill="#e5daed" d="M204 118l-2 12-10-7z"/></g></svg>