<svg xmlns="http://www.w3.org/2000/svg" viewBox="0 0 200 133"><filter id="b"><feGaussianBlur stdDeviation="12" /></filter><path fill="#918f8d" d="M0 0h200v133H0z"/><g filter="url(#b)" transform="translate(.5 .5)" fill-opacity=".5"><ellipse fill="#fff" rx="1" ry="1" transform="rotate(-170.8 64.8 3) scale(97.77689 40.14064)"/><ellipse fill="#211510" rx="1" ry="1" transform="rotate(1.2 -4534 4841) scale(159.67113 21.77149)"/><ellipse fill="#f8ffff" cx="119" cy="10" rx="79" ry="35"/><ellipse fill="#482b0d" rx="1" ry="1" transform="matrix(58.65381 34.54696 -8.07186 13.7044 3 16)"/><ellipse fill="#28343a" cx="199" cy="71" rx="24" ry="24"/><ellipse fill="#847f66" cx="9" cy="97" rx="25" ry="40"/><path fill="#14150d" d="M35 91h105v21H35z"/><ellipse fill="#5b686e" rx="1" ry="1" transform="matrix(35.5466 14.28964 -12.98473 32.30052 175.5 108.5)"/><path fill="#94190d" d="M61.7 59.7L41.1 94l-12.8-7.7L48.9 52z"/><path fill="#f3ebca" d="M36 36l-52 15 59 12z"/><ellipse fill="#d0e2f8" cx="163" cy="43" rx="19" ry="32"/><path fill="#e7f5ff" d="M181.4-16l-66.7 81.8-76-49.4-51-25.4z"/><path fill="#f2cd1f" d="M74 93h16v12H74z"/><path fill="#403222" d="M123 52l15-2 10 41z"/><path fill="#a5aaaa" d="M168 84h18v21h-18z"/><path fill="#00011d" d="M158 77h11v27h-11z"/><path fill="#372f1c" d="M212 139.2l-28.8-3.6 2.8-22.8 28.8 3.6z"/><path fill="#7b7868" d="M0 63h35v70H0z"/><ellipse fill="#81b8f1" cx="152" cy="84" rx="5" ry="15"/><path fill="#ff131e" d="M36 68h12v17H36z"/><ellipse fill="#333b24" cx="51" cy="59" rx="6" ry="21"/><path fill="#64332c" d="M77 90l-2-43 33 43z"/></g></svg>