<svg xmlns="http://www.w3.org/2000/svg" viewBox="0 0 700 467"><filter id="b"><feGaussianBlur stdDeviation="12" /></filter><path fill="#64554e" d="M0 0h700v464H0z"/><g filter="url(#b)" transform="translate(1.4 1.4) scale(2.73438)" fill-opacity=".5"><ellipse fill="#cff" rx="1" ry="1" transform="matrix(-1.11561 -24.70693 63.06027 -2.84742 129.6 67.7)"/><ellipse cx="68" cy="14" rx="255" ry="30"/><ellipse fill="#c19d56" cx="228" cy="88" rx="54" ry="54"/><ellipse cx="111" cy="169" rx="255" ry="22"/><ellipse fill="#e0fcff" cx="136" cy="75" rx="47" ry="16"/><ellipse fill="#d6a0a3" rx="1" ry="1" transform="rotate(143.5 33.7 82.2) scale(16.35653 30.1996)"/><ellipse fill="#a79f91" rx="1" ry="1" transform="matrix(35.90174 -7.72755 3.94144 18.31169 39.9 61.1)"/><ellipse rx="1" ry="1" transform="matrix(3.99198 28.76863 -81.1876 11.26571 12.5 16.8)"/><path fill="#94c1ff" d="M81 46h101v42H81z"/><ellipse fill="#670300" cx="197" cy="130" rx="21" ry="14"/><ellipse fill="#fa9e77" rx="1" ry="1" transform="matrix(-6.67698 21.8394 -9.26665 -2.8331 69.8 123)"/><path fill="#7d665c" d="M108 10h55v34h-55z"/><ellipse fill="#ffcfce" cx="136" cy="137" rx="46" ry="4"/><ellipse cx="244" cy="16" rx="24" ry="24"/><path fill="#b4ad88" d="M213 16l-10 54 68 12z"/><path fill="#48262f" d="M78.2 51.3L81.7 85l-15.9 1.6L62.3 53z"/><path fill="#5088f2" d="M81 44h101v13H81z"/><ellipse fill="#130002" rx="1" ry="1" transform="rotate(87.8 8 177.3) scale(13.18273 197.61145)"/><path fill="#ff9d7a" d="M15 146l-31-13h65z"/><ellipse fill="#ebe9d0" rx="1" ry="1" transform="matrix(1.52054 -18.10766 28.0009 2.3513 134 71.3)"/><path fill="#b28e9b" d="M204.8 149.8l-4.7 8.8-30.9-16.4 4.7-8.8z"/><path fill="#511d12" d="M110 132l-51 1 46-21z"/></g></svg>