<svg xmlns="http://www.w3.org/2000/svg" viewBox="0 0 700 467"><filter id="b"><feGaussianBlur stdDeviation="12" /></filter><path fill="#877d78" d="M0 0h700v464H0z"/><g filter="url(#b)" transform="translate(1.4 1.4) scale(2.73438)" fill-opacity=".5"><ellipse fill="#0c0000" cx="216" cy="98" rx="255" ry="41"/><ellipse fill="#fff" cx="38" cy="169" rx="44" ry="44"/><ellipse fill="#fff" rx="1" ry="1" transform="matrix(229.24827 0 0 21.27635 85.2 11.7)"/><ellipse fill="#fff" cx="124" cy="160" rx="140" ry="18"/><ellipse fill="#0d0000" cx="90" cy="112" rx="49" ry="29"/><ellipse fill="#fff" rx="1" ry="1" transform="matrix(-21.58178 -16.02805 19.61732 -26.41474 16.3 25)"/><ellipse fill="#0c0000" cx="143" cy="43" rx="18" ry="18"/><ellipse fill="#fff" rx="1" ry="1" transform="matrix(.5985 24.48928 -38.0344 .92954 124.1 158.6)"/><ellipse fill="#160000" rx="1" ry="1" transform="matrix(-32.80257 -11.10306 6.08943 -17.99046 236 134.9)"/><ellipse fill="#b7a797" rx="1" ry="1" transform="matrix(-3.34007 13.91239 -27.97312 -6.71575 151.6 73.5)"/><ellipse fill="#bcb9b2" rx="1" ry="1" transform="matrix(-9.58156 17.57383 -17.62874 -9.6115 249.8 88.3)"/><ellipse fill="#fff" cx="7" cy="160" rx="78" ry="30"/><ellipse fill="#d2dee8" cx="231" cy="12" rx="96" ry="31"/><ellipse fill="#140000" cx="82" cy="131" rx="16" ry="19"/><ellipse fill="#fbfffe" rx="1" ry="1" transform="rotate(7.5 -1205.2 1493.4) scale(104.78262 20.4337)"/><path fill="#cdc0b0" d="M106 70l-36 8-4-28z"/><ellipse fill="#261001" cx="156" cy="117" rx="109" ry="18"/><ellipse fill="#cdbead" rx="1" ry="1" transform="matrix(-15.66392 -9.15326 3.80327 -6.50852 203 77.6)"/><ellipse fill="#311405" cx="2" cy="99" rx="30" ry="30"/><ellipse fill="#4b3326" rx="1" ry="1" transform="matrix(29.78776 2.81014 -.84794 8.98823 72.8 40.8)"/><ellipse cx="212" cy="54" rx="20" ry="4"/><ellipse fill="#d6dfe7" cx="114" cy="10" rx="89" ry="19"/></g></svg>