<svg xmlns="http://www.w3.org/2000/svg" viewBox="0 0 200 133"><filter id="b"><feGaussianBlur stdDeviation="12" /></filter><path fill="#364f54" d="M0 0h200v133H0z"/><g filter="url(#b)" transform="translate(.5 .5)" fill-opacity=".5"><ellipse fill="#a0eff8" cx="133" cy="43" rx="88" ry="30"/><ellipse cx="13" cy="59" rx="34" ry="199"/><ellipse rx="1" ry="1" transform="matrix(141.37458 14.82877 -1.67975 16.01438 76.8 119.7)"/><ellipse fill="#0076ff" cx="190" cy="85" rx="35" ry="35"/><path fill="#f9d391" d="M-1 89l105 5 17-45z"/><ellipse cx="74" rx="161" ry="16"/><ellipse fill="#ffd971" cx="120" cy="67" rx="39" ry="11"/><ellipse fill="#2e7fc2" cx="69" cy="51" rx="23" ry="35"/><ellipse cx="68" cy="132" rx="139" ry="24"/><ellipse cx="3" cy="36" rx="45" ry="45"/><path fill="#ffff43" d="M160 13h40v11h-40z"/><path fill="#ffa" d="M54 16h70v9H54z"/><ellipse cx="116" cy="82" rx="44" ry="4"/><path fill="#007fe2" d="M127 48L76 12 66 56z"/><path d="M24.3-8.9l185-3.2.4 25-185 3.2z"/><path fill="#af7400" d="M-16 83l63-7-9 20z"/><ellipse fill="#194c36" cx="128" cy="50" rx="13" ry="13"/><ellipse fill="#495053" rx="1" ry="1" transform="matrix(25.70268 -12.53603 4.93753 10.12343 183.8 42.9)"/><path fill="#62f1ff" d="M152.3 46.6l-25-12.7 10.4-20.5 25 12.7z"/><path fill="#cddeff" d="M98.3 84.1l.3 8-49 1.8-.2-8z"/><path fill="#956f49" d="M108 90h53v14h-53z"/><path fill="#ffedd5" d="M145 43h14v28h-14z"/></g></svg>