<svg xmlns="http://www.w3.org/2000/svg" viewBox="0 0 700 467"><filter id="b"><feGaussianBlur stdDeviation="12" /></filter><path fill="#706a59" d="M0 0h700v464H0z"/><g filter="url(#b)" transform="translate(1.4 1.4) scale(2.73438)" fill-opacity=".5"><ellipse fill="#f1ffff" cx="251" cy="78" rx="18" ry="255"/><ellipse fill="#08182c" cx="83" cy="112" rx="155" ry="44"/><ellipse fill="#e7b96c" cx="140" cy="27" rx="115" ry="38"/><ellipse fill="#00092b" rx="1" ry="1" transform="rotate(-80.1 186.5 -60) scale(86.44609 19.52606)"/><ellipse fill="#ffcf9a" cx="176" cy="169" rx="12" ry="71"/><ellipse fill="#fff" rx="1" ry="1" transform="matrix(-2.65416 -29.64772 4.7958 -.42934 89.1 88)"/><ellipse fill="#e0b97a" cx="8" cy="152" rx="20" ry="45"/><ellipse fill="#f5e6d8" cx="53" cy="64" rx="8" ry="40"/><ellipse fill="#f2ca88" cx="113" cy="169" rx="11" ry="66"/><ellipse cx="146" cy="153" rx="19" ry="19"/><ellipse fill="#ecfeff" cx="255" cy="155" rx="25" ry="72"/><ellipse fill="#000f22" cx="66" cy="130" rx="44" ry="26"/><ellipse fill="#6a490b" rx="1" ry="1" transform="matrix(-23.07308 16.21603 -8.97136 -12.76495 190 19)"/><ellipse fill="#704100" rx="1" ry="1" transform="matrix(-3.34348 30.24989 -25.40416 -2.8079 19.2 8.4)"/><path fill="#0092e2" d="M242 36h14v33h-14z"/><ellipse fill="#d7e2a2" rx="1" ry="1" transform="matrix(-22.04815 -10.61546 15.141 -31.44764 242.6 13.2)"/><ellipse fill="#f9fafd" cx="162" cy="44" rx="5" ry="28"/><ellipse fill="#c1a28e" cx="37" cy="51" rx="114" ry="13"/><ellipse fill="#825306" cx="63" cy="41" rx="10" ry="45"/><path fill="#000001" d="M0 86h48v21H0z"/><ellipse fill="#002544" rx="1" ry="1" transform="matrix(-12.27947 -28.49273 10.13495 -4.36784 224.4 71.2)"/><path fill="#f4cbc8" d="M127 125h24v11h-24z"/></g></svg>