<svg xmlns="http://www.w3.org/2000/svg" viewBox="0 0 200 133"><filter id="b"><feGaussianBlur stdDeviation="12" /></filter><path fill="#8d2f8e" d="M0 0h200v133H0z"/><g filter="url(#b)" transform="translate(.5 .5)" fill-opacity=".5"><ellipse fill="#fc162c" cx="95" cy="4" rx="70" ry="24"/><ellipse fill="#c51fd6" rx="1" ry="1" transform="matrix(17.02941 112.60174 -29.98568 4.5349 23.8 91.9)"/><ellipse fill="#added2" rx="1" ry="1" transform="matrix(-12.51048 29.76125 -11.89353 -4.99958 111.5 65.5)"/><ellipse fill="#000032" rx="1" ry="1" transform="matrix(-12.2874 4.81538 -10.1579 -25.9199 143.4 66.7)"/><ellipse fill="#3a0439" rx="1" ry="1" transform="matrix(-8.55013 12.91783 -27.98954 -18.52587 71.3 35.9)"/><ellipse cx="195" cy="126" rx="26" ry="9"/><path fill="#00002a" d="M176 83l39 17V19z"/><path fill="#b8e7ec" d="M36 51h19v27H36z"/><path fill="#9188e7" d="M161 14h18v68h-18z"/><path fill="#100b40" d="M75 94L52 69l54-3z"/><ellipse fill="#c670f4" cx="147" cy="113" rx="47" ry="9"/><ellipse fill="#250033" cx="94" cy="132" rx="30" ry="15"/><path fill="#62d7ea" d="M20 31h13v26H20z"/><ellipse fill="#580099" rx="1" ry="1" transform="matrix(-23.84822 14.17833 -8.29565 -13.95345 9.2 82.4)"/><ellipse fill="#d40092" rx="1" ry="1" transform="rotate(-171.5 4.3 5.9) scale(36.04013 24.5551)"/><path fill="#54007c" d="M215 41l-76-10 3 23z"/><path fill="#d500b8" d="M127 116h43v17h-43z"/><path fill="#e205e2" d="M177 14l5 63 15-54z"/><ellipse fill="#2fd6fd" rx="1" ry="1" transform="matrix(-.6993 4.753 -10.05027 -1.47867 160.3 21.5)"/><ellipse fill="#d66d3d" rx="1" ry="1" transform="matrix(-1.73236 -16.07255 34.82304 -3.75337 140.6 0)"/><path fill="#594479" d="M69 88h131v17H69z"/><ellipse fill="#e243cc" cx="32" cy="109" rx="78" ry="7"/></g></svg>