<svg xmlns="http://www.w3.org/2000/svg" viewBox="0 0 700 467"><filter id="b"><feGaussianBlur stdDeviation="12" /></filter><path fill="#737977" d="M0 0h700v464H0z"/><g filter="url(#b)" transform="translate(1.4 1.4) scale(2.73438)" fill-opacity=".5"><ellipse rx="1" ry="1" transform="rotate(-27.2 308.1 -190.4) scale(35.468 49.80403)"/><ellipse fill="#dfd6d2" cx="22" cy="43" rx="91" ry="91"/><path d="M39 35h33v63H39z"/><ellipse fill="#151713" cx="182" cy="137" rx="101" ry="26"/><ellipse rx="1" ry="1" transform="matrix(-26.15555 -18.65657 13.99229 -19.61646 111.8 98.6)"/><ellipse fill="#fffffe" cx="89" cy="19" rx="22" ry="56"/><path fill="#dee5e4" d="M9 99h60v58H9z"/><ellipse fill="#00040c" rx="1" ry="1" transform="matrix(-93.9177 13.36025 -1.3281 -9.33611 56.8 165.7)"/><ellipse fill="#e7e9e2" rx="1" ry="1" transform="rotate(87.7 97.7 107.7) scale(115.12016 9.35947)"/><ellipse fill="#101414" rx="1" ry="1" transform="matrix(10.005 -.73632 5.63686 76.59278 242.9 48.2)"/><ellipse fill="#e6e6e3" cx="23" cy="47" rx="15" ry="92"/><path fill="#97b8b5" d="M124 0h47v75h-47z"/><ellipse fill="#27353a" cy="138" rx="8" ry="167"/><path fill="#f4f1ee" d="M70.8 64.8L95 53.7l-22.8 72 19.1 9.4z"/><path fill="#002031" d="M34 185l21-45-14-13z"/><ellipse fill="#32291f" cx="54" cy="56" rx="16" ry="31"/><ellipse fill="#ebe9e6" rx="1" ry="1" transform="matrix(-5.23496 14.35222 -23.38178 -8.52849 56.6 11.2)"/><ellipse fill="#383f3c" rx="1" ry="1" transform="matrix(11.1063 -.36843 2.87988 86.81277 185.3 54.3)"/><ellipse fill="#c9b9cb" cx="163" cy="169" rx="57" ry="7"/><path fill="#000608" d="M92 118h63v44H92z"/><ellipse fill="#050b0c" cx="101" cy="102" rx="19" ry="30"/><path fill="#272d2a" d="M114 0h8v92h-8z"/></g></svg>