<svg xmlns="http://www.w3.org/2000/svg" viewBox="0 0 700 467"><filter id="b"><feGaussianBlur stdDeviation="12" /></filter><path fill="#73464e" d="M0 0h700v464H0z"/><g filter="url(#b)" transform="translate(1.4 1.4) scale(2.73438)" fill-opacity=".5"><ellipse fill="#ffcba4" cx="88" cy="82" rx="50" ry="20"/><ellipse fill="#e20000" rx="1" ry="1" transform="matrix(29.07606 -32.98032 19.15652 16.88874 21 66.4)"/><path fill="#ffe2eb" d="M101 31.9l16-33.3 36 17.5-16.2 33.3z"/><ellipse fill="#d5a9a9" rx="1" ry="1" transform="rotate(-101.6 169 -12.3) scale(77.37262 30.29754)"/><ellipse rx="1" ry="1" transform="matrix(61.22015 -16.23653 6.79014 25.60233 230 4.1)"/><ellipse fill="#1b0d1a" rx="1" ry="1" transform="matrix(26.03482 -9.03032 15.21768 43.87326 82.4 130.5)"/><ellipse rx="1" ry="1" transform="rotate(-104.9 121.8 -14.1) scale(35.63461 14.82735)"/><ellipse fill="#0c0018" rx="1" ry="1" transform="rotate(58.7 -126.3 82.7) scale(33.438 51.71993)"/><path fill="#050007" d="M68.2 61.6L20.6 17.3 43.8-7.6l47.6 44.3z"/><ellipse fill="#b887a9" rx="1" ry="1" transform="rotate(69.1 -20.5 146) scale(94.51091 18.19533)"/><path fill="#310000" d="M236.8 136.1l-31.3-28.9-21-59.3 17 97.7z"/><path fill="#ffea8d" d="M19 110l46-45 47-2z"/><ellipse fill="#d29994" rx="1" ry="1" transform="rotate(-77.2 108.6 -77.1) scale(18.35977 19.75128)"/><ellipse fill="#fff0f1" cx="72" cy="168" rx="13" ry="8"/><path fill="#100" d="M276.8 103.2l-22.6 22.6-29-29 22.6-22.6z"/><ellipse rx="1" ry="1" transform="matrix(-67.17438 -.82073 .17009 -13.92122 252 15.5)"/><ellipse fill="#846aa5" cx="29" cy="133" rx="10" ry="31"/><ellipse fill="#bb0004" rx="1" ry="1" transform="matrix(39.32331 -43.4131 16.5414 14.98309 10.3 84.2)"/><ellipse fill="#dcb8b4" rx="1" ry="1" transform="matrix(-36.88632 -35.6668 5.04142 -5.2138 233.7 117.7)"/><ellipse fill="#2c5163" cx="194" cy="61" rx="29" ry="32"/><ellipse fill="#ffc8ce" rx="1" ry="1" transform="matrix(15.9752 -6.19637 9.1199 23.51252 225.2 169.1)"/><ellipse fill="#dbc8d9" rx="1" ry="1" transform="matrix(7.43124 -.35045 1.75862 37.29144 188.8 127.2)"/></g></svg>