<svg xmlns="http://www.w3.org/2000/svg" viewBox="0 0 200 133"><filter id="b"><feGaussianBlur stdDeviation="12" /></filter><path fill="#60664e" d="M0 0h200v133H0z"/><g filter="url(#b)" transform="translate(.5 .5)" fill-opacity=".5"><ellipse fill="#fff" rx="1" ry="1" transform="matrix(17.0389 71.77197 -19.66328 4.66813 14.1 96.7)"/><ellipse fill="#000a00" cx="82" cy="93" rx="33" ry="33"/><ellipse fill="#dfdcff" rx="1" ry="1" transform="matrix(-8.45749 -17.78888 37.15324 -17.664 131 126.3)"/><ellipse rx="1" ry="1" transform="matrix(-55.9315 -20.80074 5.98553 -16.09461 30.1 13.8)"/><ellipse fill="#021800" rx="1" ry="1" transform="rotate(-92.4 99.7 -70) scale(65.33328 28.60659)"/><ellipse fill="#fffff3" cx="49" cy="53" rx="17" ry="20"/><path fill="#fffbff" d="M-11 93l-3 55 125-7z"/><path fill="#ded19e" d="M88 14l-4 37 88 19z"/><ellipse rx="1" ry="1" transform="matrix(8.51249 -13.79187 24.1147 14.88384 113.2 7.8)"/><path fill="#162d00" d="M104 122l19-69L13 92z"/><path d="M17 0h33v39H17z"/><ellipse fill="#cec08e" cx="131" cy="74" rx="13" ry="21"/><ellipse cx="76" cy="49" rx="7" ry="26"/><path fill="#243400" d="M149 63h30v41h-30z"/><ellipse fill="#6768a4" rx="1" ry="1" transform="matrix(35.1651 -36.3105 14.16985 13.72287 196.2 104.6)"/><path fill="#dce5ff" d="M0 26h14v52H0z"/><path fill="#000300" d="M76.8 37.9l-9.6-1.7 75.1-27.1-38.4-6.9z"/><path fill="#f6ebb9" d="M83.2 5.9l-28.5 5-2-10.8 28.6-5z"/><ellipse fill="#9090a5" cx="14" cy="72" rx="23" ry="25"/><ellipse fill="#293900" rx="1" ry="1" transform="rotate(-86.4 97.1 -77) scale(25.901 35.68915)"/><path fill="#fff" d="M21.1 59.5l4 14.5L.8 80.5l-4-14.5z"/><ellipse fill="#476b00" rx="1" ry="1" transform="matrix(13.1784 -1.05513 1.76606 22.05781 42.5 96.4)"/></g></svg>