<svg xmlns="http://www.w3.org/2000/svg" viewBox="0 0 200 133"><filter id="b"><feGaussianBlur stdDeviation="12" /></filter><path fill="#6c5a4f" d="M0 0h200v133H0z"/><g filter="url(#b)" transform="translate(.5 .5)" fill-opacity=".5"><ellipse fill="#fff3db" rx="1" ry="1" transform="matrix(-6.1399 -17.83157 82.32162 -28.3456 59.3 93)"/><ellipse fill="#fffde4" rx="1" ry="1" transform="matrix(15.96984 7.76661 -30.15515 62.00553 187 104)"/><ellipse cx="92" cy="13" rx="35" ry="35"/><path d="M68.4 177.8l-24.1-34.4 107.3-75.2 24.1 34.4z"/><ellipse cx="36" cy="30" rx="13" ry="53"/><ellipse fill="#000001" rx="1" ry="1" transform="rotate(-3.5 255.1 -2667.4) scale(15.72496 85.64525)"/><ellipse fill="#d0c2b7" rx="1" ry="1" transform="matrix(7.49742 23.1371 -37.14122 12.03536 52.2 107.6)"/><ellipse fill="#bc9281" cx="177" cy="60" rx="117" ry="9"/><ellipse fill="#fadcac" rx="1" ry="1" transform="matrix(-10.60172 -8.1486 15.67109 -20.38884 .6 19.2)"/><path fill="#e5ba6a" d="M148.4 35.8l-21-.7 2.2-65 21 .8z"/><ellipse fill="#e6af8d" rx="1" ry="1" transform="matrix(-9.83588 1.75204 -4.26647 -23.95181 83.4 56)"/><ellipse fill="#080000" cx="64" cy="34" rx="6" ry="40"/><ellipse fill="#fdecef" rx="1" ry="1" transform="matrix(7.2002 3.11435 -14.11396 32.63066 170.4 116.4)"/><path d="M151 60l27 21-109 67zM45-16L19 3l29 83z"/><path fill="#ffeeb0" d="M50.2 43.2l-1.4-26 9-.4 1.4 26z"/><ellipse fill="#000004" cx="3" cy="74" rx="11" ry="15"/><ellipse fill="#100b0b" cx="103" cy="13" rx="24" ry="46"/><path fill="#2d3e21" d="M215 41l-20 2-2 60z"/><path fill="#a1897d" d="M154.7 67.2l-96 64 80.7-91.7L200 69.8z"/><path fill="#e61b43" d="M84.4 70.8L71 77.1l-9.3-19.9L75 50.9z"/><ellipse fill="#70500b" cx="194" cy="123" rx="19" ry="6"/></g></svg>