<svg xmlns="http://www.w3.org/2000/svg" viewBox="0 0 700 467"><filter id="b"><feGaussianBlur stdDeviation="12" /></filter><path fill="#6a5a4c" d="M0 0h700v464H0z"/><g filter="url(#b)" transform="translate(1.4 1.4) scale(2.73438)" fill-opacity=".5"><ellipse fill="#eeddc7" rx="1" ry="1" transform="rotate(64.6 -71.1 116.4) scale(32.53322 127.84393)"/><ellipse fill="#ffffe6" rx="1" ry="1" transform="rotate(17.8 -357 824.3) scale(25.43785 55.80436)"/><ellipse rx="1" ry="1" transform="matrix(69.40016 -49.32013 16.82711 23.67804 157.1 142.6)"/><path d="M162-1v64H26V-1z"/><ellipse rx="1" ry="1" transform="matrix(1.03797 42.47108 -21.15762 .51708 211.4 22.8)"/><ellipse fill="#c1b498" cx="68" cy="54" rx="6" ry="209"/><path fill="#ffad86" d="M91.2 87.7L87 54l29.8-3.7L121 84z"/><ellipse fill="#f6d9a9" rx="1" ry="1" transform="matrix(14.26758 -30.32015 22.97084 10.80926 0 12.9)"/><ellipse fill="#190a08" cx="59" cy="77" rx="24" ry="24"/><ellipse fill="#d8cfbd" rx="1" ry="1" transform="rotate(-84.5 96.3 37.3) scale(21.94989 47.79483)"/><ellipse fill="#c2a06b" cx="177" cy="19" rx="15" ry="84"/><ellipse fill="#43211d" rx="1" ry="1" transform="matrix(28.47628 1.50335 -.66852 12.66293 21.6 169)"/><ellipse rx="1" ry="1" transform="rotate(-117.6 117.6 24.7) scale(15.06463 84.69656)"/><ellipse fill="#ded2ca" rx="1" ry="1" transform="matrix(-50.63819 98.9557 -8.13176 -4.16123 230.8 122.6)"/><path fill="#000001" d="M22 107.6l-29.7 12L-22 84.4l29.7-12z"/><ellipse cx="47" cy="19" rx="14" ry="62"/><path fill="#224305" d="M247 93h9v34h-9z"/><ellipse cx="118" cy="12" rx="44" ry="31"/><path fill="#522c00" d="M228 154h28v11h-28z"/><path fill="#c00029" d="M80.8 95l.6-29.5 20 7.1L105 92z"/><path fill="#340600" d="M168.6 168.4l27.2-83.7 27.6 9-27.2 83.6z"/><path fill="#fbecd7" d="M125 110l-9-22-54 51z"/></g></svg>