<svg xmlns="http://www.w3.org/2000/svg" viewBox="0 0 700 467"><filter id="b"><feGaussianBlur stdDeviation="12" /></filter><path fill="#656d6f" d="M0 0h700v464H0z"/><g filter="url(#b)" transform="translate(1.4 1.4) scale(2.73438)" fill-opacity=".5"><ellipse fill="#020000" rx="1" ry="1" transform="matrix(36.60927 15.6312 -40.14904 94.03168 69.6 98)"/><ellipse fill="#e4ffff" rx="1" ry="1" transform="matrix(37.5792 -21.15608 11.85756 21.0624 185.5 63.3)"/><ellipse fill="#fff" cx="203" cy="158" rx="29" ry="27"/><ellipse fill="#fff" rx="1" ry="1" transform="matrix(28.10512 -47.35578 14.14586 8.3954 0 114.1)"/><path fill="#ffe0bb" d="M69.6 95.8L50.9 84.2l17.5-28 18.7 11.6z"/><ellipse fill="#271a0e" rx="1" ry="1" transform="matrix(1.86084 27.14138 -57.07426 3.91306 38.8 33.2)"/><ellipse rx="1" ry="1" transform="rotate(-125.3 79.7 54.8) scale(31.53922 24.47127)"/><ellipse fill="#abbfd1" rx="1" ry="1" transform="matrix(4.96984 -31.83811 35.54319 5.5482 237.8 64)"/><ellipse fill="#bddaee" rx="1" ry="1" transform="rotate(-18.9 411.7 -484.2) scale(21.37137 56.44357)"/><ellipse rx="1" ry="1" transform="matrix(-38.87607 -5.04912 2.22823 -17.15645 126.8 37.6)"/><ellipse fill="#f9ffff" cx="5" cy="132" rx="11" ry="54"/><ellipse fill="#edfdff" cx="115" cy="147" rx="10" ry="24"/><ellipse fill="#fff" cx="4" rx="33" ry="10"/><ellipse fill="#1c0e00" cx="154" cy="160" rx="22" ry="19"/><ellipse fill="#89a1ac" rx="1" ry="1" transform="rotate(18.5 -281.4 809.5) scale(74.10073 25.96822)"/><path fill="#fcffff" d="M26 71l51 25-22-22z"/><path fill="#fff" d="M121 61h61v8h-61z"/><ellipse fill="#0c0600" cx="102" cy="67" rx="16" ry="50"/><ellipse fill="#374c60" rx="1" ry="1" transform="matrix(9.34853 -10.57216 13.07891 11.56515 196.3 81.2)"/><ellipse fill="#86bdee" rx="1" ry="1" transform="matrix(3.3751 26.63666 -5.3097 .67278 136.5 62.7)"/><ellipse fill="#d7f1ff" rx="1" ry="1" transform="matrix(8.56227 24.58748 -26.8173 9.33877 203 164.8)"/><ellipse fill="#8a8567" rx="1" ry="1" transform="matrix(3.08335 -13.14591 58.94198 13.82472 105.6 7.2)"/></g></svg>