<svg xmlns="http://www.w3.org/2000/svg" viewBox="0 0 200 133"><filter id="b"><feGaussianBlur stdDeviation="12" /></filter><path fill="#6c5a76" d="M0 0h200v133H0z"/><g filter="url(#b)" transform="translate(.5 .5)" fill-opacity=".5"><ellipse fill="#fcfbd2" rx="1" ry="1" transform="rotate(-159.7 84.7 49.4) scale(25.54632 31.13637)"/><ellipse rx="1" ry="1" transform="matrix(12.75995 -49.17103 14.85506 3.8549 48.6 7.3)"/><ellipse fill="#0c0051" cx="146" cy="47" rx="65" ry="24"/><ellipse fill="#fff" rx="1" ry="1" transform="matrix(4.25405 -9.33444 17.03827 7.76497 68.6 37.3)"/><ellipse fill="#f5fee1" rx="1" ry="1" transform="matrix(3.85805 -20.7241 13.20588 2.45844 91.5 91.4)"/><path fill="#6c83fc" d="M-16 51l32-66 28 123z"/><ellipse rx="1" ry="1" transform="matrix(41.50857 15.60416 -4.73065 12.58399 67.9 13)"/><ellipse fill="#cfcc97" cx="9" cy="95" rx="36" ry="25"/><path fill="#e7dccf" d="M75 144l-37-3.2 3-32.8 36.8 3.2z"/><ellipse fill="#001207" cx="118" cy="102" rx="14" ry="16"/><path fill="#f9fff8" d="M167 118l-40-46-4 29z"/><path fill="#000600" d="M65 70.5l-22.4 31.4 10.9 5.1 29.9 4.3z"/><ellipse fill="#920800" cx="23" cy="132" rx="20" ry="20"/><ellipse fill="#f9edc9" cx="108" cy="132" rx="15" ry="15"/><path fill="#240000" d="M167.8 131.2l-14 14 57-61.9-29.6 7z"/><ellipse fill="#8c4ac1" rx="1" ry="1" transform="rotate(29.3 35.5 251.8) scale(45.05623 17.38222)"/><ellipse fill="#1f030c" cx="185" cy="53" rx="73" ry="12"/><path fill="#fff" d="M53 26h29v21H53z"/><ellipse fill="#969291" cx="123" cy="79" rx="60" ry="11"/><ellipse fill="#fcfff1" cx="89" cy="106" rx="6" ry="19"/><path fill="#6a5aff" d="M116 59L96 33l-2 29z"/><ellipse fill="#3f4ae7" cx="5" cy="30" rx="26" ry="33"/></g></svg>