<svg xmlns="http://www.w3.org/2000/svg" viewBox="0 0 700 467"><filter id="b"><feGaussianBlur stdDeviation="12" /></filter><path fill="#8a8885" d="M0 0h700v464H0z"/><g filter="url(#b)" transform="translate(1.4 1.4) scale(2.73438)" fill-opacity=".5"><ellipse rx="1" ry="1" transform="rotate(-91.6 120.2 -28.6) scale(55.32581 87.98434)"/><ellipse fill="#fff" cx="137" cy="14" rx="255" ry="20"/><ellipse fill="#0d0000" cx="39" cy="116" rx="37" ry="32"/><ellipse fill="#fff" rx="1" ry="1" transform="matrix(-.42773 -19.11404 185.6695 -4.15483 130 167.8)"/><ellipse fill="#fff" cx="250" cy="93" rx="13" ry="255"/><ellipse fill="#fff" rx="1" ry="1" transform="rotate(176.5 76.2 6.1) scale(242.83814 25.17056)"/><path fill="#00060c" d="M204.6 147.2l1.9-36 31 1.6-2 36z"/><ellipse fill="#be9073" cx="59" cy="51" rx="36" ry="36"/><ellipse fill="#000405" rx="1" ry="1" transform="matrix(-25.84312 15.8988 -14.9747 -24.34104 142 114.4)"/><ellipse fill="#0c161f" cx="211" cy="44" rx="29" ry="12"/><ellipse fill="#5b3e2e" cx="84" cy="134" rx="36" ry="19"/><path fill="#0d1517" d="M167.8 33.4l-9 64-67.6-23.2-.8-40.5z"/><ellipse fill="#fff" cx="100" cy="163" rx="255" ry="12"/><path fill="#fff" d="M0 68h42v19H0z"/><ellipse fill="#7e6355" cx="84" cy="107" rx="31" ry="31"/><path fill="#f4fffc" d="M113 142h43v28h-43z"/><path fill="#5b4a41" d="M44 77h69v76H44z"/><path fill="#fff" d="M58 41L34 14l18 44zm7 17h16v18H65z"/><path fill="#404950" d="M159 32h79v58h-79z"/><ellipse fill="#212b2e" cx="184" cy="129" rx="53" ry="20"/><path fill="#450000" d="M33 36h9v21h-9z"/></g></svg>