<svg xmlns="http://www.w3.org/2000/svg" viewBox="0 0 700 467"><filter id="b"><feGaussianBlur stdDeviation="12" /></filter><path fill="#39353a" d="M0 0h700v464H0z"/><g filter="url(#b)" transform="translate(1.4 1.4) scale(2.73438)" fill-opacity=".5"><ellipse fill="#7eeaff" rx="1" ry="1" transform="matrix(-81.01263 -7.94336 2.50546 -25.55263 114.6 49)"/><ellipse cx="248" cy="30" rx="52" ry="52"/><ellipse rx="1" ry="1" transform="matrix(6.93477 -54.93972 26.87815 3.3927 21.4 25)"/><ellipse fill="#3bb3d4" cx="184" cy="56" rx="24" ry="24"/><ellipse fill="#833f48" rx="1" ry="1" transform="matrix(125.10476 16.99908 -2.59432 19.0929 135.7 93)"/><ellipse fill="#1c0000" rx="1" ry="1" transform="rotate(175.2 56.6 87) scale(255 25.11855)"/><ellipse rx="1" ry="1" transform="matrix(-146.77617 -2.30574 .23779 -15.13686 173.3 12.6)"/><path fill="#1d9dc4" d="M44 21h46v56H44z"/><ellipse fill="#816662" rx="1" ry="1" transform="rotate(-124.4 65.6 40) scale(20.44081 30.1465)"/><ellipse fill="#100" rx="1" ry="1" transform="matrix(-26.19981 .19478 -1.07735 -144.91383 232.4 83.9)"/><ellipse fill="#b8151f" cx="219" cy="86" rx="202" ry="6"/><ellipse fill="#8da0b5" rx="1" ry="1" transform="rotate(94.8 40.9 92.8) scale(20.79087 46.52261)"/><ellipse cy="28" rx="44" ry="44"/><ellipse fill="#150000" rx="1" ry="1" transform="rotate(-106.2 56.4 72.9) scale(100.66678 24.18574)"/><ellipse fill="#946b6d" rx="1" ry="1" transform="matrix(-9.21291 -3.16266 9.86132 -28.7263 136.4 114)"/><path fill="#b01821" d="M-16 72.6l36.2 12.7 83.4-3.9-93-9.8z"/><path fill="#200000" d="M140 117h19v53h-19z"/><path fill="#008ec6" d="M173 68h34v13h-34z"/><path fill="#a08174" d="M0 110h93v8H0z"/><ellipse fill="#168ab2" cx="67" cy="62" rx="27" ry="16"/><path fill="#070c02" d="M100 129.9l-1-29 23-.8 1 29z"/><ellipse fill="#5c5249" cx="217" cy="114" rx="47" ry="13"/></g></svg>