<svg xmlns="http://www.w3.org/2000/svg" viewBox="0 0 700 467"><filter id="b"><feGaussianBlur stdDeviation="12" /></filter><path fill="#6a696d" d="M0 0h700v464H0z"/><g filter="url(#b)" transform="translate(1.4 1.4) scale(2.73438)" fill-opacity=".5"><ellipse fill="#cfe4e5" cx="173" cy="12" rx="192" ry="24"/><ellipse fill="#ff0c00" rx="1" ry="1" transform="matrix(-31.4479 -28.91782 16.70682 -18.16852 0 95.2)"/><ellipse fill="#250f0a" rx="1" ry="1" transform="rotate(-126.6 128 4.5) scale(35.74588 66.23767)"/><ellipse fill="#001036" cx="84" cy="128" rx="62" ry="22"/><ellipse fill="#fff" cx="117" cy="7" rx="36" ry="9"/><path fill="#e4e1e3" d="M48.6 77.9l24.7 27.5-11.9 10.7-24.7-27.5z"/><ellipse fill="#e22100" rx="1" ry="1" transform="rotate(-138.3 123 18.4) scale(9.32094 24.49546)"/><ellipse fill="#00375b" rx="1" ry="1" transform="matrix(33.51063 -3.3448 2.16377 21.6782 155.2 87.3)"/><ellipse fill="#a5b3b1" cx="195" cy="38" rx="35" ry="23"/><ellipse fill="#ff3500" rx="1" ry="1" transform="matrix(-10.87819 14.86505 -36.4067 -26.6423 0 93)"/><path fill="#e8fdff" d="M128 36h10v33h-10z"/><path d="M113 40h11v41h-11z"/><ellipse fill="#3180b4" cx="129" cy="98" rx="23" ry="23"/><ellipse fill="#054041" cx="250" cy="83" rx="34" ry="34"/><ellipse fill="#000f1e" cx="100" cy="123" rx="16" ry="36"/><path fill="#000e12" d="M28.3 122l4.4 20.5-45 9.6-4.4-20.6z"/><path fill="#7e8f95" d="M-16 42L83 1l29 47z"/><path fill="#fff" d="M163 3h27v12h-27z"/><ellipse fill="#717872" rx="1" ry="1" transform="rotate(-101.1 137.8 -81.7) scale(44.04908 16.26997)"/><path fill="#0b0b01" d="M163 51l-5 59-25-78z"/><ellipse fill="#468fd2" cx="31" cy="80" rx="14" ry="14"/><path fill="#142b3f" d="M75 0h8v141h-8z"/></g></svg>