<svg xmlns="http://www.w3.org/2000/svg" viewBox="0 0 200 133"><filter id="b"><feGaussianBlur stdDeviation="12" /></filter><path fill="#9e9fac" d="M0 0h200v133H0z"/><g filter="url(#b)" transform="translate(.5 .5)" fill-opacity=".5"><ellipse rx="1" ry="1" transform="matrix(-32.3128 -3.24391 6.42626 -64.01238 100.5 95.8)"/><ellipse fill="#fff" rx="1" ry="1" transform="matrix(33.2259 -6.59941 19.63835 98.8727 32 42.4)"/><ellipse fill="#fff" cx="158" cy="71" rx="29" ry="29"/><ellipse rx="1" ry="1" transform="matrix(-15.52763 27.43892 -25.64319 -14.51143 99.1 97.8)"/><ellipse fill="#001a8f" rx="1" ry="1" transform="matrix(-21.96978 12.23291 -15.31524 -27.5055 141.7 0)"/><ellipse fill="#eaefff" cx="156" cy="105" rx="28" ry="27"/><ellipse fill="#dcc5c2" cx="116" cy="38" rx="45" ry="9"/><path fill="#000614" d="M123 118l-50 5-1-96z"/><ellipse fill="#fdffef" cx="199" cy="58" rx="8" ry="61"/><path fill="#ebf2f8" d="M106 52h5v26h-5z"/><path fill="#00000d" d="M135.5 64.7l-40 52.1 21.2-63.2 7-6.2z"/><path fill="#836c24" d="M83-16L64-7l21 70z"/><path fill="#e9878d" d="M107 120h21v13h-21z"/><ellipse fill="#dbddde" cx="4" cy="27" rx="69" ry="82"/><path fill="#334d9d" d="M118 0h49v30h-49z"/><path fill="#ecd1b0" d="M87 50l33-35-20-31z"/><ellipse fill="#e0e8fd" rx="1" ry="1" transform="matrix(14.3598 -2.97377 4.6311 22.36273 144.4 50.6)"/><path fill="#b5afc1" d="M143.2 144.2l38.6-16-69.1-23.8 8-8.6z"/><ellipse fill="#bdc3ed" rx="1" ry="1" transform="matrix(22.65785 -33.39892 20.52943 13.92718 42.8 98)"/><path fill="#836f6e" d="M127.5 22.5L105 31l-6 26.8 7.1 22.6z"/><path fill="#b1ad92" d="M32.7 7.3L45.6-8l43.7 36.7L76.4 44z"/><ellipse fill="#ccd5d5" rx="1" ry="1" transform="matrix(-1.86953 -41.17032 8.90813 -.40452 176.3 33.6)"/></g></svg>