<svg xmlns="http://www.w3.org/2000/svg" viewBox="0 0 700 467"><filter id="b"><feGaussianBlur stdDeviation="12" /></filter><path fill="#a5a7ac" d="M0 0h700v464H0z"/><g filter="url(#b)" transform="translate(1.4 1.4) scale(2.73438)" fill-opacity=".5"><ellipse fill="#000924" rx="1" ry="1" transform="matrix(32.74555 -2.21675 5.73557 84.72505 135.1 127)"/><ellipse cx="245" cy="104" rx="15" ry="63"/><ellipse fill="#fbffff" cx="40" cy="31" rx="58" ry="181"/><ellipse fill="#fff" cx="203" cy="30" rx="66" ry="20"/><ellipse fill="#717b8b" rx="1" ry="1" transform="matrix(7.6206 18.58094 -50.90404 20.87727 20.1 80)"/><ellipse fill="#030000" cx="126" cy="169" rx="18" ry="52"/><ellipse fill="#fff" rx="1" ry="1" transform="matrix(-38.728 -5.19544 5.09604 -37.98705 24.3 16.6)"/><ellipse fill="#7f3c23" cx="124" cy="5" rx="13" ry="52"/><ellipse fill="#5f7ea7" cx="133" cy="82" rx="40" ry="33"/><ellipse fill="#e3e0dd" rx="1" ry="1" transform="matrix(-22.85909 -81.85562 16.30096 -4.55222 202.7 103.7)"/><ellipse fill="#273237" rx="1" ry="1" transform="matrix(-12.75458 24.2939 -31.6784 -16.63153 247 81.1)"/><path fill="#822b00" d="M184.9 84.4l9-3.7-78.4 54.4 68.1-24.4z"/><path fill="#fff" d="M8 71h32v78H8z"/><path fill="#454e4d" d="M252 8L94 13l57-29z"/><path fill="#1f1200" d="M3 94h48v5H3z"/><path fill="#350000" d="M6 76l-22-19 19 57z"/><path fill="#fff" d="M142 13h92v26h-92z"/><path fill="#2d312c" d="M234 125l37 7L235-3z"/><ellipse fill="#f4ffff" cx="254" cy="17" rx="17" ry="31"/><path fill="#31262d" d="M97 80h13v38H97z"/><path d="M109 161h59v9h-59z"/><path fill="#495b73" d="M22 62h45v15H22z"/></g></svg>