<svg xmlns="http://www.w3.org/2000/svg" viewBox="0 0 700 467"><filter id="b"><feGaussianBlur stdDeviation="12" /></filter><path fill="#872314" d="M0 0h700v464H0z"/><g filter="url(#b)" transform="translate(1.4 1.4) scale(2.73438)" fill-opacity=".5"><ellipse fill="#ff2b1a" cx="120" cy="34" rx="57" ry="57"/><ellipse fill="#000114" rx="1" ry="1" transform="matrix(-14.56603 -30.54346 55.65155 -26.53997 237.5 98.3)"/><ellipse cx="17" cy="10" rx="57" ry="34"/><ellipse fill="#ff5a50" cx="113" cy="151" rx="158" ry="17"/><ellipse fill="#180000" rx="1" ry="1" transform="matrix(-50.52479 -115.443 37.27915 -16.3156 233.5 32.3)"/><ellipse fill="#141015" cx="37" cy="117" rx="82" ry="24"/><ellipse fill="#ff9200" rx="1" ry="1" transform="matrix(-8.6041 46.14996 -10.28973 -1.9184 182.3 63.8)"/><ellipse fill="#ff4221" rx="1" ry="1" transform="rotate(-55.5 104.4 -54) scale(55.6241 26.86621)"/><path fill="#ff0" d="M39 80l35 21-53-63z"/><ellipse fill="#a36faf" cx="229" cy="112" rx="6" ry="41"/><path fill="#3b0000" d="M145 56.1l27.2 18.4-5.5-26.2L116.5-16z"/><ellipse fill="#100000" rx="1" ry="1" transform="matrix(.26243 16.47293 -20.3862 .32477 109.4 99.6)"/><path fill="#1e0000" d="M-22.2 20.6L1.5 10l40.7 91.4L18.5 112z"/><path d="M48 145l-16 21 26-5z"/><path fill="#fd6423" d="M127 29l63 93L73 50z"/><ellipse cx="203" cy="108" rx="21" ry="24"/><path fill="#140004" d="M153.7 155l-5.1 19.4-20.3-5.5 5.1-19.3z"/><path fill="#ff0" d="M20.2 167.3L18 148.4l13.9-1.7 2.3 18.9z"/><ellipse fill="#ffff18" cx="60" cy="149" rx="13" ry="4"/><ellipse fill="#cc4660" cx="171" cy="142" rx="138" ry="10"/><path fill="#f90b09" d="M66 85l65-101-76 41z"/><path fill="#ff1e2a" d="M139.3 156l-5.5-52.8 10.9-1.1 5.5 52.7z"/></g></svg>