<svg xmlns="http://www.w3.org/2000/svg" viewBox="0 0 700 467"><filter id="b"><feGaussianBlur stdDeviation="12" /></filter><path fill="#727070" d="M0 0h700v464H0z"/><g filter="url(#b)" transform="translate(1.4 1.4) scale(2.73438)" fill-opacity=".5"><ellipse cx="239" cy="50" rx="44" ry="44"/><ellipse fill="#c9f3ff" cx="35" cy="70" rx="28" ry="28"/><ellipse fill="#dfe2f4" cx="20" cy="155" rx="32" ry="32"/><path fill="#dff" d="M209 75l-55-91 12 86z"/><ellipse fill="#36042b" rx="1" ry="1" transform="rotate(130 69.5 99.7) scale(28.63927 52.53794)"/><ellipse fill="azure" cx="97" cy="84" rx="13" ry="33"/><ellipse fill="#000003" cx="86" cy="145" rx="14" ry="47"/><ellipse fill="#190a00" rx="1" ry="1" transform="matrix(23.01415 -21.87749 11.1072 11.68428 129 68)"/><ellipse rx="1" ry="1" transform="matrix(31.74532 17.04295 -8.66992 16.14916 212 34.5)"/><ellipse fill="#ffffe0" rx="1" ry="1" transform="matrix(-.2588 -7.05766 51.71063 -1.89614 201 3.2)"/><ellipse fill="#f8f3bd" rx="1" ry="1" transform="matrix(-39.15181 -11.2266 3.91821 -13.66443 48 0)"/><ellipse fill="#e6f1f3" rx="1" ry="1" transform="matrix(-25.4017 -14.89654 9.13919 -15.5842 124.6 169)"/><ellipse fill="#0032f4" cx="184" cy="119" rx="12" ry="23"/><ellipse fill="#1e1f00" cx="79" cy="35" rx="31" ry="12"/><path fill="#ffffbd" d="M141 45l-2-48-31 48z"/><ellipse fill="#cd8c6e" rx="1" ry="1" transform="rotate(-114.2 105.8 11.6) scale(22.40137 37.23992)"/><ellipse fill="#f3ffff" cx="30" cy="71" rx="11" ry="34"/><ellipse rx="1" ry="1" transform="matrix(9.52224 -1.10991 3.00919 25.81668 218.3 124.3)"/><ellipse fill="#a4adcb" rx="1" ry="1" transform="matrix(-12.03578 6.70378 -19.06426 -34.22745 244 111.8)"/><path fill="#1a1e10" d="M82 64l-1 46-33-45z"/><path fill="#8fcdd8" d="M39 110h33v32H39z"/><ellipse fill="#000600" cx="146" cy="13" rx="5" ry="72"/></g></svg>