<svg xmlns="http://www.w3.org/2000/svg" viewBox="0 0 200 133"><filter id="b"><feGaussianBlur stdDeviation="12" /></filter><path fill="#4f3878" d="M0 0h200v133H0z"/><g filter="url(#b)" transform="translate(.5 .5)" fill-opacity=".5"><ellipse fill="#e9b9ff" rx="1" ry="1" transform="rotate(138 43 52.5) scale(32.93817 56.04505)"/><ellipse rx="1" ry="1" transform="matrix(-140.24862 -16.22732 3.67654 -31.7754 76.8 132)"/><ellipse fill="#f07bff" cx="45" cy="83" rx="53" ry="14"/><ellipse fill="#00004c" rx="1" ry="1" transform="matrix(34.73575 23.85478 -26.4378 38.49697 22.1 30.6)"/><ellipse fill="#d37be9" rx="1" ry="1" transform="matrix(60.52719 13.83687 -4.1542 18.17192 156.3 89)"/><path fill="#fff" d="M152.2 33.3l36.8 9.8-41.5 9.4-1.7-10.2z"/><ellipse fill="#000035" cx="187" rx="169" ry="23"/><ellipse rx="1" ry="1" transform="matrix(15.40542 .6874 -1.84087 41.25541 199 40.5)"/><path fill="#000095" d="M121 65l33-1-18-55z"/><ellipse rx="1" ry="1" transform="matrix(1.89896 -20.866 185.6741 16.89767 63.4 132)"/><ellipse fill="#effdff" rx="1" ry="1" transform="rotate(-87.7 75.8 -29.7) scale(8.90727 26.67102)"/><path fill="#28004b" d="M61 75h44v11H61z"/><path fill="#beabc0" d="M76 19h52v25H76z"/><path fill="#03005c" d="M99 36.4l16 8 .9-12 18.6-8.4z"/><ellipse fill="#04006e" cx="96" cy="59" rx="158" ry="5"/><path fill="#e7afff" d="M43 92.9L14.3 80.8 21.1 65l28.5 12.1z"/><path fill="#00152a" d="M145 92l16-33-17 13z"/><path fill="#fff" d="M174 70l9-2 4 14z"/><ellipse fill="#000049" cy="29" rx="40" ry="40"/><ellipse fill="#6f5a2f" cx="139" cy="111" rx="38" ry="7"/><path fill="#fff" d="M79 67h56v7H79z"/><path fill="#c1c9ff" d="M171.2 56.8l-24-1.7 1.6-22 24 1.8z"/></g></svg>