<svg xmlns="http://www.w3.org/2000/svg" viewBox="0 0 200 133"><filter id="b"><feGaussianBlur stdDeviation="12" /></filter><path fill="#971e60" d="M0 0h200v133H0z"/><g filter="url(#b)" transform="translate(.5 .5)" fill-opacity=".5"><ellipse fill="#ff1bff" cx="46" cy="17" rx="70" ry="43"/><ellipse fill="#2d0e13" rx="1" ry="1" transform="rotate(-96.7 93.2 26) scale(42.83905 82.55598)"/><ellipse fill="#404728" cx="174" cy="21" rx="48" ry="48"/><ellipse fill="#ff110e" rx="1" ry="1" transform="matrix(-19.25303 -33.17344 17.2283 -9.99887 158.5 83.4)"/><ellipse fill="#ff0cff" rx="1" ry="1" transform="matrix(3.8987 26.99898 -92.7845 13.39822 35.6 12.7)"/><path fill="#b6d4bc" d="M207 50.5L180.3 38l-21.8-23.3 33.5-2.3z"/><ellipse fill="#ff043b" rx="1" ry="1" transform="matrix(-14.86338 15.54839 -13.71685 -13.11253 76.4 76.4)"/><ellipse fill="#2f0304" rx="1" ry="1" transform="matrix(19.61531 -4.86898 11.76128 47.3818 199 106.9)"/><ellipse fill="#35152f" rx="1" ry="1" transform="rotate(-33.3 124.5 -196.7) scale(39.79846 21.97559)"/><ellipse fill="#07151b" rx="1" ry="1" transform="matrix(14.9174 6.14829 -11.95235 28.99964 35.7 95.5)"/><ellipse fill="#ff3c6d" cy="83" rx="20" ry="31"/><ellipse fill="#ff0c24" rx="1" ry="1" transform="matrix(58.76641 7.37317 -.63725 5.07905 116.7 69)"/><ellipse fill="#d66dc4" cx="83" cy="34" rx="20" ry="25"/><path fill="#eb33e8" d="M0 126h92v4H0z"/><ellipse fill="#010415" rx="1" ry="1" transform="rotate(137.6 52.6 82.6) scale(9.89668 17.09108)"/><ellipse fill="#fa382f" rx="1" ry="1" transform="matrix(.92248 -14.36622 7.12057 .45723 127 109.3)"/><ellipse fill="#c1ae9c" rx="1" ry="1" transform="rotate(-98.4 117.8 -35.7) scale(11.55584 6.8603)"/><path fill="#ff022e" d="M133.3 93l1.4-39 28 1-1.4 39z"/><ellipse fill="#1f133a" rx="1" ry="1" transform="matrix(-13.91652 -5.89228 8.20212 -19.37193 94.8 96.2)"/><ellipse fill="#420012" rx="1" ry="1" transform="matrix(-15.65208 -11.2058 18.58284 -25.95623 152.4 0)"/><path fill="#ff022c" d="M199 95.3l-30.4-3.2 46.4 19.7-5.7-5z"/><ellipse fill="#ee4189" rx="1" ry="1" transform="matrix(42.92548 -13.6642 3.71369 11.66639 14.8 65)"/></g></svg>