<svg xmlns="http://www.w3.org/2000/svg" viewBox="0 0 700 467"><filter id="b"><feGaussianBlur stdDeviation="12" /></filter><path fill="#969897" d="M0 0h700v464H0z"/><g filter="url(#b)" transform="translate(1.4 1.4) scale(2.73438)" fill-opacity=".5"><ellipse fill="#fff" cx="148" rx="101" ry="101"/><ellipse fill="#210f00" rx="1" ry="1" transform="matrix(236.24936 18.59323 -5.21566 66.2712 184.5 151.5)"/><ellipse fill="#f5ffff" rx="1" ry="1" transform="rotate(-90.7 80 -49) scale(42.88318 243.36423)"/><ellipse cx="246" cy="155" rx="30" ry="30"/><ellipse fill="#a98f73" cx="201" cy="101" rx="28" ry="28"/><ellipse fill="#dad1bc" rx="1" ry="1" transform="matrix(7.86564 6.2035 -12.47978 15.82358 86.4 96.8)"/><ellipse fill="#e2f3ff" cx="175" cy="18" rx="254" ry="42"/><ellipse fill="#fff" cx="33" cy="166" rx="10" ry="9"/><ellipse fill="#c2d2de" rx="1" ry="1" transform="matrix(-.61195 19.47262 -54.6281 -1.71676 140.6 71.4)"/><path fill="#52493d" d="M185 79h55v22h-55z"/><ellipse fill="#f1d6b7" cx="200" cy="113" rx="11" ry="11"/><ellipse fill="#574a36" cx="52" cy="87" rx="29" ry="9"/><ellipse fill="#e0effd" rx="1" ry="1" transform="matrix(-6.01316 26.41272 -14.33073 -3.26256 255 62.8)"/><ellipse fill="#3c3b2c" rx="1" ry="1" transform="rotate(120.5 9.6 112.8) scale(42.40201 56.87453)"/><path fill="#483728" d="M232 56h8v38h-8z"/><ellipse fill="#b5d0e8" rx="1" ry="1" transform="matrix(1.1403 -19.8459 44.3233 2.54673 15.1 62.3)"/><ellipse fill="#302b26" cx="252" cy="108" rx="22" ry="22"/><ellipse fill="#ebd2b5" rx="1" ry="1" transform="rotate(9.4 -569 1265.8) scale(17.66648 5.84245)"/><path fill="#b2bdbd" d="M80 63h26v30H80z"/><path d="M248 149l-68 23 91-1z"/><ellipse fill="#766c5a" rx="1" ry="1" transform="matrix(-16.97495 29.35106 -15.80652 -9.14158 59.5 98)"/><ellipse fill="#977d6a" rx="1" ry="1" transform="rotate(2.6 -2148.6 3253.4) scale(37.30923 10.92564)"/></g></svg>