<svg xmlns="http://www.w3.org/2000/svg" viewBox="0 0 200 133"><filter id="b"><feGaussianBlur stdDeviation="12" /></filter><path fill="#8e8470" d="M0 0h200v133H0z"/><g filter="url(#b)" transform="translate(.5 .5)" fill-opacity=".5"><ellipse fill="#562300" cx="126" cy="120" rx="150" ry="41"/><ellipse fill="#c9ddd8" rx="1" ry="1" transform="rotate(84.7 38.9 71.1) scale(32.74123 198.99998)"/><ellipse fill="#fdffff" rx="1" ry="1" transform="matrix(21.29878 -8.73527 16.95458 41.33953 199.1 38.8)"/><ellipse fill="#dfe6f6" cx="44" cy="69" rx="9" ry="30"/><ellipse fill="#d96600" rx="1" ry="1" transform="rotate(52.9 -95 134.7) scale(18.37147 68.71398)"/><ellipse fill="#664f45" cx="100" cy="72" rx="35" ry="32"/><ellipse fill="#0c1b23" rx="1" ry="1" transform="matrix(7.26572 -9.031 21.2667 17.10972 20.7 88)"/><ellipse fill="#000d17" cx="183" cy="110" rx="13" ry="41"/><path fill="#fff6e9" d="M164.3 105.4l-10 4.4-8.6-19.2 10-4.4z"/><path fill="#000006" d="M124.8 83.2l18.9 1.7-2.5 27.9-18.9-1.7z"/><ellipse fill="#000a0b" rx="1" ry="1" transform="matrix(-8.66141 7.63415 -3.5773 -4.05866 105.8 41.2)"/><path fill="#e5f6fd" d="M32 52.7l5.3 15-16.8 8.2L6.7 68z"/><path fill="#9b733d" d="M143 17.5h26v35h-26z"/><path fill="#a8e9ff" d="M106.6 55.2l4.4-17.5 20.4 5.1-4.4 17.5z"/><path fill="red" d="M76 100h20v17H76z"/><ellipse fill="#fff" cx="17" cy="22" rx="3" ry="52"/><path fill="#ff9d00" d="M108.3 85.6l4-13.3 13.4 4-4 13.4z"/><path fill="#ffd3d4" d="M3 121h16v12H3z"/><path fill="#afd5ff" d="M186.7 86.2l2.7-21.8 11.9 1.4-2.7 21.8z"/><ellipse fill="#1f1e09" rx="1" ry="1" transform="rotate(102.3 36.2 138) scale(17.98704 43.41028)"/><path fill="#1b1512" d="M125.4 55.4l-14.1 20.7-2.7 9L89 77z"/><ellipse fill="#93d0da" cx="90" cy="15" rx="14" ry="34"/></g></svg>