<svg xmlns="http://www.w3.org/2000/svg" viewBox="0 0 200 133"><filter id="b"><feGaussianBlur stdDeviation="12" /></filter><path fill="#9e9fac" d="M0 0h200v133H0z"/><g filter="url(#b)" transform="translate(.5 .5)" fill-opacity=".5"><ellipse cx="99" cy="88" rx="39" ry="39"/><ellipse fill="#fff" rx="1" ry="1" transform="matrix(-34.31814 12.8471 -26.33684 -70.35297 29.2 55.7)"/><ellipse fill="#f9feff" rx="1" ry="1" transform="matrix(28.62128 -.58576 .96274 47.041 157.8 86.4)"/><ellipse fill="#03010e" cx="97" cy="107" rx="30" ry="67"/><ellipse fill="#001e93" rx="1" ry="1" transform="rotate(8.4 -9 983.8) scale(26.75428 18.75036)"/><path fill="#192025" d="M73 45h56v75H73z"/><path fill="#b49f7c" d="M112 85l-1-101L46-3z"/><ellipse fill="#f3f9e7" rx="1" ry="1" transform="matrix(1.6236 -66.56604 7.58561 .18502 199 53)"/><ellipse fill="#e5e9e5" cx="34" cy="34" rx="38" ry="38"/><ellipse fill="#eef1ff" rx="1" ry="1" transform="rotate(-142.5 81 -2) scale(21.55552 13.68588)"/><ellipse fill="#c6cbee" rx="1" ry="1" transform="matrix(7.5966 -43.52653 31.48184 5.49446 39.3 99.4)"/><path fill="#d877a7" d="M112 120h19v13h-19z"/><path fill="#cdcbdb" d="M138.3 126.2l-16.8-30-8.9 10.3 63.6-8z"/><path fill="#00000d" d="M94 49l23 45-27 54z"/><path fill="#000914" d="M121 48.7l13.4 8.6-18 37.2.7-50z"/><path fill="#d6dce2" d="M188 40l-19-56-6 124z"/><ellipse fill="#705b24" rx="1" ry="1" transform="matrix(-3.07685 .71975 -8.4558 -36.14736 78 21.9)"/><path d="M114.7 90.7l18-8.8 2.6 5.4-18 8.8z"/><path fill="#8a7274" d="M126.4 41.8L104.9 72 100 39.5l14.9-13.9z"/><path fill="#1f377f" d="M152 0h15v34h-15z"/><ellipse fill="#decec9" rx="1" ry="1" transform="matrix(-23.22236 47.393 -6.52433 -3.1969 114.3 0)"/><ellipse fill="#e1e2f9" rx="1" ry="1" transform="rotate(44.2 -6.8 216) scale(33.21636 8.047)"/></g></svg>