<svg xmlns="http://www.w3.org/2000/svg" viewBox="0 0 700 467"><filter id="b"><feGaussianBlur stdDeviation="12" /></filter><path fill="#52316e" d="M0 0h700v464H0z"/><g filter="url(#b)" transform="translate(1.4 1.4) scale(2.73438)" fill-opacity=".5"><ellipse fill="#e68fff" rx="1" ry="1" transform="matrix(-3.4507 34.57151 -132.8607 -13.26126 123 134.2)"/><ellipse rx="1" ry="1" transform="matrix(-10.25032 -106.65353 58.96557 -5.6671 209.5 40)"/><ellipse fill="#0d0637" rx="1" ry="1" transform="matrix(33.90814 48.62233 -94.68535 66.03146 62 26.7)"/><ellipse fill="#f1b9fa" rx="1" ry="1" transform="matrix(-44.97287 12.09966 -5.118 -19.02292 8.8 130)"/><ellipse fill="#ef9cff" rx="1" ry="1" transform="matrix(-.8387 9.75036 -157.42522 -13.54117 79.8 141.1)"/><ellipse fill="#ffeaff" cx="149" cy="108" rx="37" ry="7"/><ellipse fill="#0c0000" cx="40" cy="169" rx="112" ry="11"/><ellipse fill="#000046" cx="91" cy="124" rx="6" ry="22"/><ellipse fill="#825b8a" rx="1" ry="1" transform="matrix(17.88673 -18.60253 13.58592 13.06315 104.9 49.1)"/><ellipse fill="#290a67" cx="158" cy="122" rx="163" ry="5"/><path d="M130 155h16v12h-16zm-107-5.3l-.9-8 13-1.4.8 8z"/><ellipse fill="#3d1889" rx="1" ry="1" transform="matrix(-18.78367 -36.29987 17.13845 -8.86843 161.3 67.6)"/><ellipse fill="#040806" cx="243" cy="18" rx="60" ry="60"/><path fill="#fffdff" d="M72.1 118.5l18.5-3.6-27.1-23.7-.7 12.4z"/><ellipse fill="#9c1ef8" rx="1" ry="1" transform="matrix(-8.9515 23.31948 -11.84504 -4.54688 230.2 152.2)"/><path fill="#cf37ff" d="M194 122h11v48h-11z"/><ellipse fill="#1077af" cx="44" cy="95" rx="13" ry="14"/><path fill="#dd8dfd" d="M95 126h35v39H95z"/><ellipse fill="#9000ec" cx="193" cy="168" rx="51" ry="6"/><ellipse cx="142" rx="245" ry="8"/><path fill="#fff" d="M-16 122l67-6-34-8z"/></g></svg>