<svg xmlns="http://www.w3.org/2000/svg" viewBox="0 0 700 467"><filter id="b"><feGaussianBlur stdDeviation="12" /></filter><path fill="#344f52" d="M0 0h700v464H0z"/><g filter="url(#b)" transform="translate(1.4 1.4) scale(2.73438)" fill-opacity=".5"><ellipse fill="#9eebf0" rx="1" ry="1" transform="matrix(-120.5395 -1.46603 .49188 -40.44343 183.3 58.2)"/><ellipse fill="#006fff" cx="234" cy="108" rx="34" ry="44"/><ellipse cx="16" cy="92" rx="44" ry="255"/><ellipse rx="1" ry="1" transform="matrix(3.92702 -31.80522 181.15554 22.36747 138.2 169)"/><ellipse fill="#eebb54" rx="1" ry="1" transform="rotate(82 -21.5 97.8) scale(11.11022 92.27671)"/><ellipse rx="1" ry="1" transform="matrix(171.8527 -2.42908 .22684 16.04882 131.5 4)"/><path fill="#ffe57c" d="M104 67l109 14-92 22z"/><ellipse fill="#e2f1ff" cx="97" cy="114" rx="40" ry="7"/><ellipse fill="#0097f9" rx="1" ry="1" transform="rotate(-84.9 84.7 -37.6) scale(22.72924 26.96472)"/><ellipse fill="#ebffb2" cx="114" cy="27" rx="53" ry="8"/><ellipse cx="12" cy="29" rx="48" ry="75"/><ellipse fill="#f1e04d" cx="233" cy="27" rx="31" ry="12"/><ellipse fill="#1076e9" rx="1" ry="1" transform="matrix(18.88614 -17.61161 12.12465 13.0021 81.2 77.8)"/><ellipse rx="1" ry="1" transform="rotate(5.6 -1515.3 955.8) scale(145.79839 22.35739)"/><ellipse cx="148" cy="105" rx="58" ry="6"/><ellipse fill="#425965" cx="238" cy="48" rx="37" ry="20"/><ellipse fill="#235a4c" rx="1" ry="1" transform="rotate(7.1 -438 1350.4) scale(22.18156 14.40111)"/><path fill="#008af4" d="M89 28.1l19-9.4L95.4 70l66.7-3.8z"/><ellipse fill="#ffdbb8" cx="186" cy="79" rx="17" ry="19"/><ellipse fill="#5ef4ff" cx="189" cy="37" rx="18" ry="18"/><ellipse fill="#f3e9e7" rx="1" ry="1" transform="matrix(-.10028 3.45435 -35.95358 -1.04368 95 98.7)"/><ellipse fill="#007de9" rx="1" ry="1" transform="rotate(-50.9 255.2 -190) scale(21.9902 31.60387)"/></g></svg>