<svg xmlns="http://www.w3.org/2000/svg" viewBox="0 0 200 133"><filter id="b"><feGaussianBlur stdDeviation="12" /></filter><path fill="#5d5c66" d="M0 0h200v133H0z"/><g filter="url(#b)" transform="translate(.5 .5)" fill-opacity=".5"><ellipse fill="#fff" rx="1" ry="1" transform="matrix(50.34297 18.3493 -15.5291 42.6055 62.8 53)"/><ellipse fill="#000010" rx="1" ry="1" transform="matrix(-47.033 -8.35736 34.81524 -195.93085 165.7 70.4)"/><path fill="#d7eaff" d="M10 12h112v29H10z"/><ellipse fill="#2c569f" cx="100" cy="60" rx="22" ry="30"/><ellipse fill="#451400" rx="1" ry="1" transform="matrix(-105.74135 -10.74082 2.85204 -28.07783 89.1 132.1)"/><path fill="#ffffd3" d="M87 93l-70 5 38-85z"/><ellipse rx="1" ry="1" transform="rotate(-19.4 243 41.6) scale(26.84375 15.77375)"/><path d="M14 35L1 97-6-16z"/><ellipse fill="#e6d9d1" cx="149" cy="76" rx="8" ry="13"/><ellipse fill="#00000e" cx="92" cy="1" rx="100" ry="11"/><path fill="#4992ff" d="M199.8 53.6l-.6 31-11-.2.6-31z"/><path fill="#97bbff" d="M80 13h43v36H80z"/><ellipse fill="#a09186" rx="1" ry="1" transform="matrix(9.64173 19.00521 -7.32635 3.7168 157.5 62.9)"/><ellipse fill="#000015" cx="4" cy="22" rx="8" ry="79"/><path fill="#d4b27b" d="M92 69h17v46H92z"/><ellipse fill="#c5b274" cx="56" cy="23" rx="12" ry="25"/><ellipse fill="#11090f" rx="1" ry="1" transform="matrix(2.30837 -19.68995 67.0409 7.8596 174.1 107.9)"/><ellipse fill="#c4851c" cx="41" cy="102" rx="60" ry="6"/><path fill="#1100ab" d="M123.6 59l17.8-10.3-20.9-44-2-13.4z"/><path fill="#aacdff" d="M11 10h27v61H11z"/><ellipse fill="#5c3013" cx="105" cy="57" rx="8" ry="10"/><path fill="#ffffd9" d="M19 84h29v14H19z"/></g></svg>