<svg xmlns="http://www.w3.org/2000/svg" viewBox="0 0 200 133"><filter id="b"><feGaussianBlur stdDeviation="12" /></filter><path fill="#e2eaf5" d="M0 0h200v133H0z"/><g filter="url(#b)" transform="translate(.5 .5)" fill-opacity=".5"><ellipse fill="#1a0000" cx="53" cy="90" rx="9" ry="11"/><path fill="#294657" d="M46.7 8.3l16 16.8L27 36.5l8.6-1.2z"/><ellipse fill="#75848d" cx="42" cy="110" rx="19" ry="6"/><ellipse fill="#bfbbc1" cx="148" cy="102" rx="15" ry="26"/><path fill="#c2d2e2" d="M58.1 113.5L50 100.9l16-10.4 8.2 12.6z"/><path fill="#c2bb89" d="M123 26h44v11h-44z"/><path fill="#a6b8c6" d="M65.3 35.5l-1.6-5.8-31.6 2-.7 15.7z"/><path fill="#f3faff" d="M250.3 56.6L174.1 110l-42.4-60.6L207.9-4z"/><ellipse fill="#f2faff" rx="1" ry="1" transform="matrix(29.25907 -8.55595 19.5848 66.97476 101.2 64.3)"/><ellipse fill="#251c39" rx="1" ry="1" transform="matrix(-2.70013 2.66315 -5.85307 -5.93433 53 86.9)"/><path fill="#4b0b00" d="M162 77h1v20h-1z"/><ellipse fill="#f6faff" rx="1" ry="1" transform="rotate(-96.2 67 -47.8) scale(13.28289 65.27012)"/><path fill="#d74100" d="M47 97l-1-13 7-5z"/><path fill="#fff" d="M47.4 104.2l-1-3.9 26.2-6.5 1 3.9z"/><ellipse fill="#003f5d" cx="55" cy="91" rx="5" ry="5"/><path fill="#8d9aa1" d="M48 105l8.5 5.5 17.2-4.2-1.3-6.4z"/><path fill="#576e7d" d="M36.3 31l10.4-18.2 4.5-7 3.7 21z"/><ellipse fill="#edf6ff" rx="1" ry="1" transform="matrix(-.04882 100.88844 -26.16297 -.01266 6.8 39.8)"/><path fill="#e3f0ff" d="M47 111h153v22H47z"/><path fill="#a78a70" d="M134 107h29v3h-29z"/><path fill="#00051e" d="M44 33h2v9h-2z"/><ellipse fill="#000f2e" rx="1" ry="1" transform="matrix(-.0505 2.22505 -1.49379 -.0339 49.5 10.4)"/></g></svg>