<svg xmlns="http://www.w3.org/2000/svg" viewBox="0 0 700 467"><filter id="b"><feGaussianBlur stdDeviation="12" /></filter><path fill="#3a4269" d="M0 0h700v464H0z"/><g filter="url(#b)" transform="translate(1.4 1.4) scale(2.73438)" fill-opacity=".5"><ellipse fill="#9eff7d" cx="154" cy="14" rx="54" ry="54"/><ellipse fill="#e8aaff" rx="1" ry="1" transform="matrix(.67565 -14.18669 56.87992 2.70892 118.2 139.4)"/><ellipse fill="#00001b" cx="29" cy="81" rx="54" ry="95"/><ellipse fill="#3a43f5" rx="1" ry="1" transform="matrix(17.93165 -61.72114 36.6507 10.64801 239.9 29.7)"/><path fill="#e1bce3" d="M113 114l2-37.9 34 1.8-2 38z"/><ellipse cx="154" cy="169" rx="255" ry="16"/><ellipse fill="#ffe9ff" cx="220" cy="141" rx="11" ry="11"/><path fill="#ca93d7" d="M50 64h18v32H50z"/><ellipse fill="#089555" rx="1" ry="1" transform="matrix(-.48886 33.60108 -21.06507 -.30647 95.5 32.7)"/><ellipse fill="#0c0062" rx="1" ry="1" transform="matrix(20.1299 42.2032 -24.28431 11.58302 179 109.2)"/><ellipse fill="#bd93e6" rx="1" ry="1" transform="rotate(63.3 -68.5 135.6) scale(14.76579 23.98206)"/><ellipse fill="#b5eb79" rx="1" ry="1" transform="matrix(-20.86431 -10.7766 14.46423 -28.00385 163.6 24.6)"/><ellipse fill="#1c0019" cx="134" cy="130" rx="30" ry="5"/><ellipse fill="#04c57a" rx="1" ry="1" transform="rotate(-121.2 111.2 -28.8) scale(10.70789 30.12392)"/><ellipse fill="#000027" rx="1" ry="1" transform="rotate(-101.7 45.6 33.1) scale(92.2795 28.95798)"/><ellipse fill="#0d0070" rx="1" ry="1" transform="rotate(-176.6 127.3 44.6) scale(20.12707 55.52477)"/><ellipse fill="#eed6ff" cx="128" cy="143" rx="41" ry="8"/><ellipse fill="#3005ec" cx="243" rx="18" ry="67"/><ellipse fill="#b4a3be" cx="222" cy="66" rx="5" ry="83"/><ellipse fill="#b74dff" cx="125" cy="169" rx="161" ry="2"/><path fill="#00000c" d="M65.8 135l.7-6 31.7 4-.7 6z"/><ellipse fill="#1a073d" rx="1" ry="1" transform="rotate(-57.7 131.3 -49) scale(21.91885 15.48315)"/></g></svg>