<svg xmlns="http://www.w3.org/2000/svg" viewBox="0 0 700 467"><filter id="b"><feGaussianBlur stdDeviation="12" /></filter><path fill="#4e3229" d="M0 0h700v464H0z"/><g filter="url(#b)" transform="translate(1.4 1.4) scale(2.73438)" fill-opacity=".5"><path fill="#fff60e" d="M79.6 59.7l60.8-5.3 4 45.9-60.8 5.3z"/><ellipse fill="#ffc2ff" rx="1" ry="1" transform="matrix(-128.36856 .8962 -.0724 -10.3703 105.8 167.6)"/><ellipse rx="1" ry="1" transform="rotate(-101 147.1 -70.6) scale(197.67804 31.47813)"/><ellipse fill="#cd7f34" cx="195" cy="77" rx="44" ry="26"/><path fill="#ffea71" d="M32 110l9-72 16 23z"/><ellipse cx="82" cy="31" rx="119" ry="23"/><ellipse cx="194" cy="130" rx="66" ry="25"/><ellipse rx="1" ry="1" transform="matrix(7.03022 25.26217 -74.26357 20.66685 0 128.7)"/><ellipse fill="#7a796a" rx="1" ry="1" transform="rotate(-116.3 93 25.8) scale(32.65303 25.69739)"/><ellipse fill="#ffcd37" cx="17" cy="75" rx="8" ry="24"/><ellipse fill="#ffec6f" cx="163" cy="85" rx="6" ry="26"/><ellipse fill="#fb87ff" rx="1" ry="1" transform="rotate(175.8 84 87.7) scale(60.08648 10.55618)"/><path fill="#e2a006" d="M69 55h65v37H69z"/><path d="M170 41h11v42h-11z"/><ellipse fill="#ff97ff" cx="50" cy="169" rx="153" ry="9"/><ellipse fill="#932abc" rx="1" ry="1" transform="rotate(-160.9 91.3 -15.4) scale(16.45992 26.33159)"/><ellipse rx="1" ry="1" transform="rotate(135.9 8.3 7.6) scale(33.23154 40.47022)"/><path fill="#ff8e1b" d="M233 47l-11 31 20 22z"/><path d="M112 81l-14 43 19 4z"/><ellipse cx="197" cy="96" rx="4" ry="64"/><ellipse fill="#ffcd54" cx="145" cy="6" rx="7" ry="8"/><ellipse fill="#e1763d" rx="1" ry="1" transform="matrix(.41518 14.9772 -24.3744 .67569 80.8 0)"/></g></svg>