<svg xmlns="http://www.w3.org/2000/svg" viewBox="0 0 200 133"><filter id="b"><feGaussianBlur stdDeviation="12" /></filter><path fill="#4c3e39" d="M0 0h200v133H0z"/><g filter="url(#b)" transform="translate(.5 .5)" fill-opacity=".5"><ellipse fill="#91e9ff" rx="1" ry="1" transform="matrix(25.78583 -9.43592 7.42334 20.286 91.5 45.4)"/><ellipse rx="1" ry="1" transform="matrix(162.88525 2.5588 -.31836 20.26552 58.5 8.6)"/><ellipse fill="#b9846f" rx="1" ry="1" transform="matrix(-.37469 -15.11587 198.9389 -4.93126 123.2 90)"/><ellipse cx="140" cy="132" rx="198" ry="17"/><ellipse fill="#92d2ff" cx="91" cy="45" rx="22" ry="18"/><ellipse fill="#8b9175" cx="178" cy="38" rx="46" ry="12"/><ellipse fill="#07040c" cx="127" cy="45" rx="14" ry="20"/><ellipse fill="#1a0000" cx="164" cy="128" rx="129" ry="24"/><ellipse fill="#050005" rx="1" ry="1" transform="rotate(6.7 -330.8 523.8) scale(10.3643 30.96435)"/><ellipse fill="#0063ef" cx="91" cy="33" rx="29" ry="5"/><ellipse fill="#8c8664" rx="1" ry="1" transform="matrix(22.34227 -7.65354 4.3074 12.57422 20.2 40)"/><path fill="#20272f" d="M67.4 66.8l31.7-4.4 3.5 24.8-31.7 4.4z"/><ellipse fill="#ffd2bc" cx="106" cy="98" rx="77" ry="2"/><path d="M191 0h4v54h-4z"/><ellipse rx="1" ry="1" transform="matrix(-17.19948 10.61955 -11.29177 -18.28822 175.8 6.3)"/><path fill="#b19787" d="M34 113h72v5H34z"/><path fill="#c7ab95" d="M190.6 88.4l4.8-45.8 10 1-4.8 45.8z"/><path fill="#ff0e0d" d="M119.8 79.3l4 16.5-11.6 2.9-4-16.5z"/><path fill="#2e150d" d="M23 56h15v77H23z"/><ellipse fill="#795142" cx="80" rx="58" ry="7"/><ellipse rx="1" ry="1" transform="matrix(49.96454 3.84456 -.78231 10.16706 30 14)"/><ellipse fill="#3c311d" cx="163" cy="89" rx="40" ry="6"/></g></svg>