<svg xmlns="http://www.w3.org/2000/svg" viewBox="0 0 200 133"><filter id="b"><feGaussianBlur stdDeviation="12" /></filter><path fill="#364f54" d="M0 0h200v133H0z"/><g filter="url(#b)" transform="translate(.5 .5)" fill-opacity=".5"><ellipse fill="#a2ecf3" rx="1" ry="1" transform="rotate(179.5 67.6 22.5) scale(88.50092 31.24851)"/><ellipse cx="21" cy="76" rx="26" ry="199"/><ellipse cx="77" cy="123" rx="122" ry="19"/><ellipse fill="#006fff" rx="1" ry="1" transform="rotate(23.4 -101.5 497.4) scale(31.6569 39.3553)"/><ellipse fill="#e0c491" rx="1" ry="1" transform="matrix(68.7783 -17.31115 3.96631 15.75841 91.6 73)"/><ellipse cx="81" rx="168" ry="15"/><ellipse fill="#0075e2" rx="1" ry="1" transform="matrix(10.66746 13.0592 -23.47178 19.173 71.8 52.7)"/><ellipse cx="17" cy="37" rx="30" ry="43"/><ellipse cx="81" cy="131" rx="120" ry="23"/><ellipse fill="#fff04a" cx="181" cy="19" rx="24" ry="8"/><ellipse cx="113" cy="82" rx="47" ry="4"/><ellipse fill="#cc8c00" rx="1" ry="1" transform="matrix(-1.35358 -6.96358 30.03159 -5.83755 19.5 85.7)"/><ellipse fill="#ffff7b" rx="1" ry="1" transform="matrix(1.81205 5.92694 -14.5243 4.44053 59.8 23.5)"/><ellipse fill="#e3e9ff" cx="78" cy="89" rx="31" ry="5"/><ellipse fill="#0e5144" cx="129" cy="49" rx="16" ry="13"/><ellipse fill="#ffffb2" cx="106" cy="19" rx="22" ry="5"/><path fill="#bf8f73" d="M138 92h22v22h-22z"/><path fill="#00a3fb" d="M73 27h43v26H73z"/><path fill="#ffea85" d="M114 78L71 58l46-8z"/><ellipse fill="#504b3f" rx="1" ry="1" transform="matrix(32.8893 -6.49276 1.96103 9.93368 192 41.8)"/><ellipse cx="80" rx="152" ry="16"/><ellipse fill="#52e8ff" cx="144" cy="28" rx="15" ry="15"/></g></svg>