<svg xmlns="http://www.w3.org/2000/svg" viewBox="0 0 200 133"><filter id="b"><feGaussianBlur stdDeviation="12" /></filter><path fill="#897e7a" d="M0 0h200v133H0z"/><g filter="url(#b)" transform="translate(.5 .5)" fill-opacity=".5"><ellipse rx="1" ry="1" transform="matrix(-163.5475 -13.9465 2.08669 -24.47013 95 82.2)"/><ellipse fill="#fff" cx="46" cy="131" rx="158" ry="25"/><ellipse fill="#fff" rx="1" ry="1" transform="matrix(-.07258 -16.98492 193.63903 -.82746 58.3 9.2)"/><ellipse fill="#0d0000" cx="68" cy="90" rx="23" ry="26"/><ellipse fill="#fff" cx="25" cy="119" rx="33" ry="20"/><ellipse fill="#4a2a1f" cx="116" cy="56" rx="33" ry="33"/><ellipse fill="#feffff" rx="1" ry="1" transform="matrix(-40.24396 13.67938 -8.48903 -24.97424 3.5 16.5)"/><ellipse fill="#fff" cx="100" cy="132" rx="100" ry="17"/><path fill="#200" d="M175.7 34.1l15 20-18.4 13.8-15-20z"/><ellipse fill="#d6e0ed" cx="197" cy="27" rx="70" ry="7"/><ellipse fill="#240300" rx="1" ry="1" transform="rotate(102.5 33.7 105.1) scale(12.38954 112.51822)"/><path fill="#b6b0ac" d="M96 58l48 19-37-37z"/><path fill="#210000" d="M113 19l14 14-47 26z"/><ellipse fill="#381407" rx="1" ry="1" transform="matrix(-1.17952 -16.5274 36.60274 -2.61225 15.9 84.5)"/><path fill="#f4fcff" d="M193.6 83.9l21.4 4.7-12.4-48.3-9 32.2z"/><ellipse fill="#4f342b" cx="56" cy="32" rx="25" ry="8"/><path fill="#260c01" d="M30 79l34 40 59-59z"/><ellipse fill="#dae3f0" cx="120" cy="1" rx="81" ry="21"/><ellipse fill="#f4faf7" rx="1" ry="1" transform="matrix(-1.83454 -28.67419 21.87892 -1.39979 94.3 132.5)"/><path fill="#aea8a4" d="M135 27l-16 51-1-30z"/><path fill="#f4fbff" d="M183 58h5v25h-5z"/><ellipse fill="#4e2f20" cx="160" cy="47" rx="44" ry="6"/></g></svg>