<svg xmlns="http://www.w3.org/2000/svg" viewBox="0 0 200 133"><filter id="b"><feGaussianBlur stdDeviation="12" /></filter><path fill="#75605d" d="M0 0h200v133H0z"/><g filter="url(#b)" transform="translate(.5 .5)" fill-opacity=".5"><ellipse fill="#f7eaf5" rx="1" ry="1" transform="matrix(-2.8994 14.12475 -82.66488 -16.96866 79.3 49)"/><ellipse fill="#d20000" cx="55" cy="84" rx="14" ry="85"/><ellipse fill="#feffff" rx="1" ry="1" transform="matrix(21.42045 4.13893 -5.30631 27.46204 111.5 127.5)"/><ellipse fill="#450000" cx="165" cy="88" rx="82" ry="18"/><ellipse fill="#00000e" rx="1" ry="1" transform="matrix(22.9762 -1.39278 3.5 57.7385 192 50.7)"/><ellipse fill="#4397ca" cy="35" rx="49" ry="49"/><ellipse fill="#006b02" cx="106" cy="16" rx="31" ry="23"/><ellipse fill="#000718" rx="1" ry="1" transform="matrix(-13.37494 27.91566 -143.4068 -68.70902 0 132)"/><ellipse fill="#cbcecb" cx="30" cy="56" rx="12" ry="65"/><ellipse fill="#fff" cx="84" cy="49" rx="18" ry="18"/><ellipse fill="#00397d" cx="6" cy="15" rx="16" ry="89"/><ellipse fill="#bcefd2" cx="159" cy="45" rx="10" ry="31"/><ellipse fill="#cb0700" cx="57" cy="52" rx="11" ry="72"/><ellipse fill="#7d0000" cx="151" cy="95" rx="24" ry="24"/><ellipse fill="#e7daec" rx="1" ry="1" transform="rotate(-64.1 81.5 -108.4) scale(4.245 43.50376)"/><ellipse fill="#e9ffff" cx="123" cy="57" rx="35" ry="10"/><path fill="#fff" d="M120 125h38v8h-38z"/><path fill="#1c0000" d="M58 125.5l29.7-35.3 12.2 10.3-29.6 35.3z"/><path fill="#a30000" d="M97 66h35v26H97z"/><ellipse fill="#d6f0ef" rx="1" ry="1" transform="rotate(89.8 20 24.5) scale(29.31401 6.401)"/><path fill="#ceebff" d="M215 129l-2-25-49 17z"/><ellipse fill="#f8ffff" rx="1" ry="1" transform="matrix(-2.48281 29.44904 -2.9805 -.25128 72.8 23)"/></g></svg>