<svg xmlns="http://www.w3.org/2000/svg" viewBox="0 0 700 467"><filter id="b"><feGaussianBlur stdDeviation="12" /></filter><path fill="#464881" d="M0 0h700v464H0z"/><g filter="url(#b)" transform="translate(1.4 1.4) scale(2.73438)" fill-opacity=".5"><ellipse cy="39" rx="90" ry="90"/><ellipse fill="#545dff" rx="1" ry="1" transform="matrix(-.64553 39.07512 -144.0959 -2.3805 207.1 63.3)"/><ellipse fill="#fffff4" rx="1" ry="1" transform="matrix(-14.30027 2.53274 -4.48684 -25.33345 110.3 138.5)"/><ellipse fill="#d7ccd2" cx="64" cy="137" rx="23" ry="23"/><ellipse fill="#b269ff" cx="219" cy="39" rx="18" ry="35"/><ellipse fill="#e15c00" cx="111" cy="165" rx="83" ry="7"/><ellipse fill="#cbc3e8" rx="1" ry="1" transform="matrix(.99802 -9.82536 31.24632 3.17389 231.8 129.4)"/><ellipse fill="#ff71a6" cx="146" cy="70" rx="24" ry="9"/><ellipse fill="#82ffbd" cx="207" cy="166" rx="58" ry="7"/><ellipse fill="#fffff1" cx="160" cy="123" rx="11" ry="12"/><ellipse fill="#0b1510" cx="103" rx="112" ry="18"/><ellipse fill="#0633a2" cx="99" cy="45" rx="47" ry="27"/><ellipse fill="#4c0100" rx="1" ry="1" transform="rotate(96 -53.2 103.8) scale(10.53846 130.737)"/><ellipse fill="#000010" rx="1" ry="1" transform="rotate(69.1 125.9 182.7) scale(49.00431 21.38856)"/><ellipse fill="#5425ff" rx="1" ry="1" transform="matrix(23.50195 8.69363 -17.33645 46.86653 245 78.6)"/><ellipse fill="#000410" rx="1" ry="1" transform="matrix(-16.98465 79.64845 -22.08111 -4.7087 25.3 55)"/><path fill="#fdfac5" d="M68 118h61v10H68z"/><ellipse fill="#c7d2f8" rx="1" ry="1" transform="rotate(122 -23.6 76.4) scale(8.28473 13.19801)"/><path fill="#1e081c" d="M80 124h17v34H80z"/><path fill="#7fb7bc" d="M169 99l-77-7 83-19z"/><ellipse fill="#0a2258" cx="190" cy="15" rx="17" ry="32"/><path fill="#fff" d="M98.6 157.5l1.9-21 22.9 2-1.9 21z"/></g></svg>