<svg xmlns="http://www.w3.org/2000/svg" viewBox="0 0 700 467"><filter id="b"><feGaussianBlur stdDeviation="12" /></filter><path fill="#4e0723" d="M0 0h700v464H0z"/><g filter="url(#b)" transform="translate(1.4 1.4) scale(2.73438)" fill-opacity=".5"><ellipse fill="#f0111c" rx="1" ry="1" transform="matrix(-76.0541 -.7607 .40252 -40.24388 141.4 94)"/><ellipse fill="#000001" rx="1" ry="1" transform="rotate(-70.9 45.4 -5.3) scale(161.86177 43.52381)"/><path fill="#beb9cb" d="M89 159.3l8.8-65.5L110 86l1 77.7z"/><ellipse fill="#ca01a4" cx="184" cy="155" rx="30" ry="16"/><ellipse rx="1" ry="1" transform="matrix(-12.03485 29.4905 -56.27218 -22.96425 248.8 49.6)"/><ellipse fill="#36006d" cx="163" rx="78" ry="41"/><ellipse fill="#a9557e" cx="80" cy="149" rx="40" ry="8"/><ellipse fill="#c817ff" rx="1" ry="1" transform="matrix(5.2723 -6.3056 8.00775 6.69552 144.7 10.4)"/><ellipse fill="#0d151a" cx="130" cy="152" rx="20" ry="38"/><ellipse fill="#1d0400" rx="1" ry="1" transform="matrix(-19.4445 28.97493 -28.43793 -19.08412 235.6 117)"/><ellipse fill="#e0000c" rx="1" ry="1" transform="matrix(52.11045 1.60536 -.61568 19.98524 145.1 78.1)"/><ellipse rx="1" ry="1" transform="matrix(-36.5403 8.16772 -8.57708 -38.37167 15.3 94.7)"/><ellipse fill="#110025" rx="1" ry="1" transform="matrix(71.98896 -8.28495 4.37 37.97151 63 27.1)"/><ellipse fill="#780069" rx="1" ry="1" transform="matrix(1.38042 5.45538 -33.82635 8.55938 45.2 33)"/><ellipse fill="#780000" rx="1" ry="1" transform="matrix(27.33667 22.03864 -13.74705 17.0518 213 74)"/><ellipse fill="#89264b" cx="137" cy="142" rx="81" ry="5"/><ellipse fill="#000002" cx="252" cy="39" rx="13" ry="74"/><ellipse rx="1" ry="1" transform="matrix(2.7625 24.75435 -119.0318 13.28355 .3 9.3)"/><ellipse fill="#a7b1c1" cx="102" cy="104" rx="10" ry="14"/><path fill="#cb115b" d="M206.8-10.4l-1.6 23-32-2.2 1.6-23z"/><ellipse fill="#bb0014" rx="1" ry="1" transform="rotate(177.1 86.9 65.2) scale(29.98519 11.24334)"/><path fill="#d002ab" d="M172.6 42.4l17.2-3.2 3.7 7.6L172.3 20z"/></g></svg>