<svg xmlns="http://www.w3.org/2000/svg" viewBox="0 0 700 467"><filter id="b"><feGaussianBlur stdDeviation="12" /></filter><path fill="#181717" d="M0 0h700v464H0z"/><g filter="url(#b)" transform="translate(1.4 1.4) scale(2.73438)" fill-opacity=".5"><ellipse fill="#ab7fbc" cx="129" cy="90" rx="48" ry="48"/><path fill="red" d="M70 93l30 48 90-31z"/><ellipse fill="#1aaef8" cx="128" cy="77" rx="52" ry="23"/><ellipse cx="140" cy="39" rx="255" ry="18"/><ellipse fill="#bef6c4" cx="152" cy="69" rx="26" ry="11"/><path fill="#0058ff" d="M147 89h33v17h-33z"/><ellipse fill="#bc0000" cx="125" cy="118" rx="50" ry="18"/><ellipse fill="#000900" cx="127" cy="152" rx="255" ry="25"/><path fill="#ff94bd" d="M126 143l16-8-5 21z"/><ellipse rx="1" ry="1" transform="matrix(-24.7325 -82.4377 34.7691 -10.43123 37.5 46.7)"/><ellipse fill="#0031c2" rx="1" ry="1" transform="matrix(-2.19823 -13.42282 25.47628 -4.1722 104 84.3)"/><ellipse fill="#7bb69e" cx="97" cy="65" rx="17" ry="11"/><ellipse rx="1" ry="1" transform="rotate(-11.1 175.7 -725.2) scale(77.15669 36.43765)"/><ellipse fill="#001b00" cx="235" cy="106" rx="58" ry="58"/><path fill="#f50a00" d="M83 103h66v25H83z"/><ellipse rx="1" ry="1" transform="matrix(-252.86937 -32.89501 6.6664 -51.24577 167.5 0)"/><path fill="#97ca9e" d="M163 56h14v34h-14z"/><path fill="#060000" d="M134.5 142.9l25.3-33.6 20 75.7 91.2-24.6z"/><path fill="#42741c" d="M215.4 111.3l15.2 11 .2-13.2-38 51.4z"/><ellipse fill="#083895" cx="121" cy="84" rx="21" ry="11"/><path fill="#d70000" d="M82 99h44v25H82z"/><ellipse fill="#0063fc" cx="143" cy="96" rx="31" ry="4"/></g></svg>