<svg xmlns="http://www.w3.org/2000/svg" viewBox="0 0 200 133"><filter id="b"><feGaussianBlur stdDeviation="12" /></filter><path fill="#747072" d="M0 0h200v133H0z"/><g filter="url(#b)" transform="translate(.5 .5)" fill-opacity=".5"><ellipse rx="1" ry="1" transform="rotate(-136.4 92.5 -17.7) scale(29.5348 19.58175)"/><ellipse fill="#b2c1d2" cy="81" rx="55" ry="55"/><ellipse fill="#31002c" rx="1" ry="1" transform="rotate(128.2 54.4 78.6) scale(19.06687 39.41869)"/><path fill="#e2ffff" d="M115.7-6.6l15.3-4.6 21.3 69.8-15.3 4.6z"/><ellipse fill="#f3ffff" rx="1" ry="1" transform="matrix(-4.63274 -26.73226 8.31222 -1.44052 75.2 65)"/><path fill="#00000a" d="M82.7 94.7l-9.8 55.1-25.6-4.5 9.8-55.1z"/><ellipse fill="#170700" cx="100" cy="53" rx="16" ry="17"/><path fill="#fff" d="M16 35h14v45H16z"/><path fill="#f2f3f8" d="M80 116l-3 32 79-13z"/><path fill="#25271b" d="M40 51h26v36H40z"/><ellipse fill="#050900" rx="1" ry="1" transform="matrix(5.38846 -.633 3.34515 28.4759 117 19.4)"/><ellipse fill="#181a23" cx="192" cy="39" rx="35" ry="35"/><path fill="#002dec" d="M135 78h18v33h-18z"/><path fill="#370000" d="M15.8 80.7l10.5-3.4 5.9 18-10.5 3.4z"/><ellipse fill="#ffffda" cx="159" rx="42" ry="8"/><ellipse fill="#fff" cx="33" rx="25" ry="6"/><ellipse fill="#ff1b03" rx="1" ry="1" transform="rotate(164.1 56.8 48) scale(8.23492 15.37539)"/><path fill="#2d2b07" d="M37 19h50v17H37z"/><path fill="#ffffbe" d="M95 10h16v26H95z"/><ellipse fill="#fff" cx="1" cy="132" rx="11" ry="24"/><path fill="#010d0d" d="M160 98l35 50-36-117z"/><ellipse fill="#92a3ca" rx="1" ry="1" transform="matrix(11.677 -4.8702 16.61367 39.8336 193.8 101.1)"/></g></svg>