<svg xmlns="http://www.w3.org/2000/svg" viewBox="0 0 200 133"><filter id="b"><feGaussianBlur stdDeviation="12" /></filter><path fill="#37506b" d="M0 0h200v133H0z"/><g filter="url(#b)" transform="translate(.5 .5)" fill-opacity=".5"><ellipse fill="#c5cbd0" rx="1" ry="1" transform="rotate(-111.3 44.7 23.8) scale(33.68696 32.18107)"/><ellipse fill="#000003" rx="1" ry="1" transform="matrix(143.49698 -1.46751 .32475 31.75477 131.7 132)"/><ellipse fill="#ffab61" rx="1" ry="1" transform="rotate(85.4 6.6 89.7) scale(29.31358 17.78307)"/><path fill="#f6f5fa" d="M137 56h23v37h-23z"/><ellipse fill="#000422" cx="190" cy="69" rx="33" ry="33"/><ellipse fill="#004ea8" rx="1" ry="1" transform="matrix(198.98515 2.43118 -.30914 25.30255 89.1 6.5)"/><ellipse fill="#51566a" rx="1" ry="1" transform="matrix(13.00995 97.63984 -8.45942 1.12717 52.2 104.5)"/><path fill="#ffd5a5" d="M122.2 60.8L123 41l3.7-3.7 11.6 24z"/><path fill="#005aaf" d="M-3.2 112.7l-25.6-8.4 38-117 25.6 8.4z"/><ellipse fill="#003a84" rx="1" ry="1" transform="rotate(-118.9 96.7 -47.5) scale(106.96852 28.68559)"/><path fill="#fff" d="M117 90l-7-25-3 28z"/><path fill="#ff9c5e" d="M34 21h14v18H34z"/><path fill="#ffe9d7" d="M140 76l12 5-36 25z"/><ellipse fill="#020000" cx="111" cy="131" rx="39" ry="27"/><ellipse fill="#a9a5a4" rx="1" ry="1" transform="matrix(11.05789 -7.92458 9.86312 13.76292 24.8 99.5)"/><path fill="#f6ffff" d="M57.1 65L69 63.3 72.9 91 61 92.7z"/><path fill="#934d28" d="M118 14l-10 40-27-16z"/><path fill="#fab097" d="M149 29h11v30h-11z"/><path d="M124.6 59.3l15.5 18.4-10.7 9-15.5-18.4z"/><ellipse cx="147" cy="86" rx="2" ry="53"/><path d="M82 102.3l-5 .8-7-43.4 5-.8z"/><ellipse fill="#094e8e" rx="1" ry="1" transform="matrix(5.1084 26.47942 -14.44371 2.78647 163.6 121)"/></g></svg>