<svg xmlns="http://www.w3.org/2000/svg" viewBox="0 0 641 195"><filter id="b"><feGaussianBlur stdDeviation="12" /></filter><path fill="#65201d" d="M0 0h641v192H0z"/><g filter="url(#b)" transform="translate(1.3 1.3) scale(2.5039)" fill-opacity=".5"><ellipse fill="#ff2e29" cx="133" cy="65" rx="38" ry="38"/><ellipse fill="#e8ffff" rx="1" ry="1" transform="matrix(-.03966 -23.25675 14.61233 -.02492 113 0)"/><ellipse rx="1" ry="1" transform="matrix(-3.25177 153.97649 -56.82623 -1.2001 0 44.3)"/><path fill="#ff2e28" d="M176.5 85.8l6.1-69.8 24.9 2.2-6.1 69.8z"/><path fill="#ff5322" d="M15 31h61v16H15z"/><ellipse fill="#181415" cx="233" cy="54" rx="31" ry="31"/><ellipse fill="#ef6556" cx="158" cy="40" rx="37" ry="8"/><ellipse fill="#0c0101" rx="1" ry="1" transform="matrix(-49.90019 .29979 -.15407 -25.64476 46.2 8.7)"/><ellipse fill="#0e0f32" cx="128" cy="52" rx="4" ry="115"/><ellipse fill="#091119" cx="158" cy="11" rx="28" ry="16"/><ellipse fill="#84744d" cx="245" cy="6" rx="21" ry="21"/><ellipse cx="171" cy="56" rx="10" ry="10"/><ellipse rx="1" ry="1" transform="rotate(11.6 -281.8 465.7) scale(8.62853 20.6833)"/><path fill="#ff0d00" d="M54 81l27 11-11-47z"/><ellipse fill="#130000" cx="50" cy="56" rx="11" ry="23"/><ellipse cx="21" cy="69" rx="37" ry="24"/><path fill="#f2e1d1" d="M142-16l-45.8 5.7 27.3 46.8L117 1.4z"/><path fill="#ff3630" d="M137 48h26v29h-26z"/><path fill="#ff9319" d="M16 35h21v11H16z"/><path d="M124 48h12v13h-12z"/><ellipse fill="#d63022" rx="1" ry="1" transform="matrix(15.4064 -3.6696 2.26044 9.4902 67.1 45.5)"/><path fill="#ebe1cb" d="M64 43l3-11-11-2z"/></g></svg>