<svg xmlns="http://www.w3.org/2000/svg" viewBox="0 0 700 467"><filter id="b"><feGaussianBlur stdDeviation="12" /></filter><path fill="#31363c" d="M0 0h700v464H0z"/><g filter="url(#b)" transform="translate(1.4 1.4) scale(2.73438)" fill-opacity=".5"><ellipse fill="#98b59e" cx="37" cy="22" rx="22" ry="27"/><path fill="#aaaa9e" d="M74.6-8.1l49.8 4.3-3 34-49.8-4.4z"/><ellipse rx="1" ry="1" transform="matrix(-24.43499 -2.18076 3.6782 -41.21337 62.7 64.2)"/><ellipse fill="#000b20" rx="1" ry="1" transform="matrix(4.17325 -39.70578 131.28582 13.7987 168.5 165.2)"/><path fill="#fff" d="M90.9 119.7l18.5-50.8 3.7 1.4-18.5 50.8z"/><ellipse fill="#83726b" rx="1" ry="1" transform="matrix(24.87687 9.95004 -8.2298 20.57598 122.5 53.4)"/><ellipse fill="#96c5b9" cx="29" cy="41" rx="7" ry="36"/><path fill="#bba292" d="M166 34l-6 58 20-33z"/><ellipse fill="#b49679" cx="248" cy="27" rx="14" ry="14"/><path fill="#a37a5d" d="M193.1 33.4l18.8-6.9 11 30.1-18.8 6.9z"/><path fill="#cad7bb" d="M151 31l-7-30 11-17z"/><ellipse fill="#060804" rx="1" ry="1" transform="matrix(2.91937 -15.555 20.04065 3.76124 172 23.8)"/><ellipse cx="70" cy="117" rx="16" ry="15"/><ellipse fill="#a3b2ac" cx="33" cy="132" rx="2" ry="77"/><path fill="#a8917d" d="M69.6 25.6L46.6-11l.9 26.5 9.2 15z"/><ellipse fill="#868da1" cx="110" cy="122" rx="20" ry="5"/><ellipse fill="#5a717d" rx="1" ry="1" transform="matrix(-3.68008 30.41052 -8.66157 -1.04817 16.6 151.2)"/><path d="M10.6-6.8l31 .6-.2 13-31-.6z"/><ellipse fill="#0d1522" rx="1" ry="1" transform="rotate(65.2 27.1 100.7) scale(57.89878 5.42088)"/><path fill="#d8aa81" d="M79 89v21l12-17z"/><path fill="#c1bfbb" d="M98 23l-23.4-4.3L78.8-16 90 41z"/><path d="M201 24.1l8.5-39.1 24 31.9-26.5 8z"/></g></svg>