<svg xmlns="http://www.w3.org/2000/svg" viewBox="0 0 700 467"><filter id="b"><feGaussianBlur stdDeviation="12" /></filter><path fill="#8b846e" d="M0 0h700v464H0z"/><g filter="url(#b)" transform="translate(1.4 1.4) scale(2.73438)" fill-opacity=".5"><ellipse fill="#552700" rx="1" ry="1" transform="rotate(-6.7 1374.8 -1037) scale(172.21827 57.71774)"/><ellipse fill="#d1e8dc" cx="210" rx="89" ry="89"/><ellipse fill="#c2d4ce" rx="1" ry="1" transform="matrix(-81.36063 14.49885 -10.32933 -57.96324 52.8 33.2)"/><path fill="#fff" d="M52.8 85l15.8 2.5-5.4 33.5-15.8-2.5z"/><ellipse fill="#ea6300" rx="1" ry="1" transform="rotate(-19.1 515 -221.8) scale(40.88653 26.56357)"/><ellipse fill="#e9f8fa" rx="1" ry="1" transform="matrix(20.59716 -3.94317 14.32312 74.81695 246.3 41.2)"/><ellipse fill="#00070f" rx="1" ry="1" transform="matrix(-21.59763 8.46386 -11.99764 -30.61493 236.4 144.4)"/><ellipse fill="#988165" cx="203" cy="70" rx="20" ry="79"/><ellipse fill="#0f1d19" rx="1" ry="1" transform="matrix(9.65755 -12.07492 61.8266 49.4491 0 96.5)"/><path fill="#5c5359" d="M53 145l131-73-88-9z"/><ellipse fill="#000001" rx="1" ry="1" transform="rotate(-32.7 155.4 -210.2) scale(13.23738 7.12821)"/><path fill="#000007" d="M157 106h27v40h-27z"/><path fill="#d17a00" d="M125 94h33v43h-33z"/><path fill="#93abbe" d="M127 113l-23-36-10 43z"/><path fill="#000006" d="M131.2 125.9l4-52.1 19.4 5.7-23.5 34.8z"/><path fill="red" d="M92 127h32v22H92z"/><path fill="#f8cac8" d="M4 153h20v17H4z"/><path d="M32 93h14v16H32z"/><path fill="#e5e2dc" d="M20.6 69l56 3-1.2 23-56-3z"/><ellipse fill="#f2cfb8" rx="1" ry="1" transform="matrix(8.55376 -4.13505 7.82126 16.17906 195.8 124.9)"/><path fill="#6a7e4b" d="M243.2 95.3l-53.7 3.2L236.8 55l5 12.6z"/><ellipse fill="#151800" cx="194" cy="156" rx="20" ry="15"/></g></svg>