<svg xmlns="http://www.w3.org/2000/svg" viewBox="0 0 200 133"><filter id="b"><feGaussianBlur stdDeviation="12" /></filter><path fill="#4c4550" d="M0 0h200v133H0z"/><g filter="url(#b)" transform="translate(.5 .5)" fill-opacity=".5"><ellipse fill="#7bbae4" cx="94" cy="47" rx="71" ry="31"/><ellipse fill="#410700" cy="125" rx="72" ry="72"/><ellipse fill="#210000" rx="1" ry="1" transform="matrix(198.69702 -10.97701 1.74344 31.5583 146.4 130.2)"/><ellipse fill="#9e676a" rx="1" ry="1" transform="matrix(-71.28212 8.43604 -3.1991 -27.03148 105.4 75.4)"/><ellipse fill="#0087d4" cx="55" cy="24" rx="36" ry="15"/><ellipse fill="#010000" rx="1" ry="1" transform="matrix(-8.10016 16.26163 -58.26326 -29.02179 183.6 13)"/><ellipse fill="#0a0000" cx="12" rx="13" ry="89"/><ellipse fill="#d1c7bc" rx="1" ry="1" transform="matrix(-21.82017 1.17182 -.6457 -12.02328 99.7 37.8)"/><ellipse fill="#916c79" cx="124" cy="114" rx="35" ry="5"/><path fill="#140502" d="M158 114.4L50.7 133.9l148 14.1L215 44.4z"/><ellipse fill="#1d0e13" cx="72" rx="60" ry="13"/><ellipse fill="#5f463d" cx="30" cy="84" rx="49" ry="23"/><path fill="#007bc1" d="M24 10h23v52H24z"/><path fill="#ba94a6" d="M66 115h14v12H66z"/><ellipse fill="#bf7d83" cx="135" cy="72" rx="30" ry="14"/><path fill="#007bc5" d="M160 48L90 15l71 12z"/><ellipse fill="#e6c1af" cx="77" cy="93" rx="24" ry="3"/><path fill="#100b0e" d="M11 0h14v94H11z"/><ellipse fill="#97b4c5" cx="55" cy="52" rx="14" ry="13"/><path fill="#080000" d="M224.2 47.8l-20 11.5-44.4-77 20-11.6z"/><path fill="#413d59" d="M70 51h65v9H70z"/><path d="M110 89h12v10h-12z"/></g></svg>