<svg xmlns="http://www.w3.org/2000/svg" viewBox="0 0 200 133"><filter id="b"><feGaussianBlur stdDeviation="12" /></filter><path fill="#4c4550" d="M0 0h200v133H0z"/><g filter="url(#b)" transform="translate(.5 .5)" fill-opacity=".5"><ellipse fill="#71bbe8" cx="93" cy="44" rx="70" ry="30"/><ellipse fill="#230000" cx="155" cy="119" rx="189" ry="21"/><ellipse fill="#af7b80" rx="1" ry="1" transform="rotate(-174.7 57.7 30.4) scale(59.27155 27.31342)"/><path fill="#008dd7" d="M25 12h60v30H25z"/><ellipse rx="1" ry="1" transform="matrix(-85.17738 -56.37439 10.57674 -15.98065 165.1 0)"/><ellipse fill="#230100" cx="9" cy="23" rx="16" ry="197"/><ellipse fill="#815e6a" cx="87" cy="75" rx="36" ry="29"/><ellipse fill="#1c0502" rx="1" ry="1" transform="rotate(115.6 59.3 117) scale(52.87492 24.82596)"/><ellipse fill="#cbcabf" cx="100" cy="37" rx="22" ry="12"/><ellipse fill="#261c26" rx="1" ry="1" transform="rotate(9 13 488) scale(74.48871 12.90113)"/><path fill="#aa5c40" d="M54.5 93.5v13h-105v-13z"/><path fill="#8f6976" d="M92 110h61v9H92z"/><ellipse fill="#ecbca1" cx="76" cy="93" rx="26" ry="3"/><path fill="#0479bb" d="M24 10h24v52H24z"/><ellipse fill="#0a82c2" cx="139" cy="32" rx="22" ry="10"/><path fill="#eea3aa" d="M131 62l-26 13 17 12z"/><path fill="#8cb2c2" d="M40 38h29v25H40z"/><ellipse fill="#020000" rx="1" ry="1" transform="matrix(-151.93212 5.5711 -.3366 -9.17953 130.4 132)"/><path fill="#b88b9b" d="M79.4 113l2 11.8-12.8 2.2-2-11.8z"/><path fill="#390000" d="M0 106h65v21H0z"/><ellipse fill="#3b4354" cx="98" cy="54" rx="31" ry="5"/><ellipse fill="#382c30" cx="56" cy="81" rx="27" ry="11"/></g></svg>