<svg xmlns="http://www.w3.org/2000/svg" viewBox="0 0 700 427"><filter id="b"><feGaussianBlur stdDeviation="12" /></filter><path fill="#5a3c59" d="M0 0h700v426H0z"/><g filter="url(#b)" transform="translate(1.4 1.4) scale(2.73438)" fill-opacity=".5"><ellipse fill="#e7fff0" cx="126" cy="88" rx="84" ry="43"/><ellipse cx="235" cy="70" rx="31" ry="206"/><ellipse fill="#000004" rx="1" ry="1" transform="matrix(-4.3135 61.686 -32.69222 -2.28606 21.4 52)"/><ellipse fill="#1bf4ff" cx="74" cy="67" rx="29" ry="20"/><ellipse fill="#00000d" cx="225" cy="24" rx="72" ry="33"/><ellipse fill="#c5789f" rx="1" ry="1" transform="matrix(6.1767 -19.19218 33.25953 10.70404 185.7 108.6)"/><ellipse fill="#49008d" cx="113" cy="20" rx="70" ry="31"/><ellipse fill="#6d0000" cx="165" cy="144" rx="245" ry="15"/><ellipse fill="#fff" cx="112" cy="58" rx="63" ry="7"/><path fill="#ffa1e3" d="M30.4 130.6l-10-6.5 21.2-32.7 10 6.5z"/><ellipse fill="#b8cb67" rx="1" ry="1" transform="rotate(60.6 28.2 193.4) scale(21.24946 27.25444)"/><ellipse fill="#994ad4" rx="1" ry="1" transform="matrix(26.16531 -8.7548 5.8206 17.39595 98.6 34)"/><path fill="#c38a7c" d="M107.4 131.7l-47-2.5 2.2-40.9 47 2.5z"/><ellipse rx="1" ry="1" transform="matrix(57.57302 -1.32948 .26264 11.37382 46.6 6.3)"/><path fill="#000018" d="M56 79L-5-16l-11 161z"/><ellipse cx="247" cy="76" rx="40" ry="40"/><ellipse fill="#00bbf3" cx="73" cy="75" rx="23" ry="11"/><path fill="#0214de" d="M198 85l4 43 6-23z"/><ellipse fill="#be6a9e" rx="1" ry="1" transform="rotate(154.5 55.1 67.2) scale(32.92843 25.73069)"/><ellipse fill="#180842" cx="152" cy="49" rx="38" ry="3"/><ellipse fill="#a872bf" cx="170" cy="121" rx="46" ry="9"/><path fill="#240a2c" d="M91 91h8v28h-8z"/></g></svg>