<svg xmlns="http://www.w3.org/2000/svg" viewBox="0 0 700 467"><filter id="b"><feGaussianBlur stdDeviation="12" /></filter><path fill="#737977" d="M0 0h700v464H0z"/><g filter="url(#b)" transform="translate(1.4 1.4) scale(2.73438)" fill-opacity=".5"><ellipse rx="1" ry="1" transform="matrix(-19.62816 -49.0739 32.13302 -12.8523 120.4 121.3)"/><ellipse fill="#ded6d2" cx="20" cy="42" rx="94" ry="94"/><path d="M61 9l13 93-38-7z"/><path fill="#10120e" d="M91.5 163v-50h169v50z"/><ellipse cx="111" cy="98" rx="30" ry="30"/><path fill="#fffefb" d="M107-16l-123 1 130 74z"/><ellipse fill="#d5dbdb" cx="46" cy="124" rx="44" ry="27"/><ellipse fill="#231910" cx="55" cy="57" rx="17" ry="32"/><path fill="#eae9e2" d="M196 0h14v119h-14z"/><path d="M-16 159l136-1-97 27z"/><ellipse fill="#1e2221" rx="1" ry="1" transform="matrix(20.01203 109.037 -13.60767 2.49748 255 108)"/><ellipse fill="#e1e3e0" cx="24" cy="58" rx="15" ry="104"/><ellipse fill="#96b8b4" rx="1" ry="1" transform="matrix(24.25877 .0913 -.21381 56.8042 146.8 24.4)"/><path fill="#fdf9f5" d="M75 96l-1-56 40-2z"/><ellipse fill="#303533" cx="182" cy="4" rx="11" ry="116"/><ellipse fill="#2e3b40" rx="1" ry="1" transform="matrix(-.05659 89.19606 -8.04887 -.0051 .2 86.4)"/><ellipse fill="#c9bacb" cx="170" cy="169" rx="63" ry="8"/><path fill="#002235" d="M38 131h13v39H38z"/><ellipse fill="#062c40" rx="1" ry="1" transform="matrix(8.99107 -.55679 1.1228 18.13115 81.5 151.2)"/><ellipse fill="#000406" cx="96" cy="97" rx="14" ry="25"/><path fill="#595b54" d="M158 161l46 1-9-109z"/><path fill="#efd8d1" d="M126 0h7v80h-7z"/></g></svg>