<svg xmlns="http://www.w3.org/2000/svg" viewBox="0 0 700 467"><filter id="b"><feGaussianBlur stdDeviation="12" /></filter><path fill="#9c8371" d="M0 0h700v464H0z"/><g filter="url(#b)" transform="translate(1.4 1.4) scale(2.73438)" fill-opacity=".5"><ellipse fill="#020000" rx="1" ry="1" transform="matrix(28.40438 59.88052 -97.50188 46.2501 179.2 169)"/><ellipse fill="#fffff2" cx="88" cy="24" rx="155" ry="47"/><ellipse rx="1" ry="1" transform="matrix(13.87274 -59.91889 22.8545 5.2914 17 136.3)"/><ellipse fill="#350021" rx="1" ry="1" transform="matrix(26.78561 0 0 30.19191 104.4 86.5)"/><ellipse fill="#ffe4ce" rx="1" ry="1" transform="matrix(-15.46194 8.69152 -39.0566 -69.48047 55.5 78.8)"/><ellipse fill="#ffffd8" rx="1" ry="1" transform="matrix(-22.94357 5.4786 -6.16053 -25.79939 219.7 65.3)"/><ellipse rx="1" ry="1" transform="matrix(-13.42012 5.02376 -7.96149 -21.2678 68.3 163.5)"/><path d="M176 143l-32-60 20-32z"/><ellipse rx="1" ry="1" transform="rotate(-113.8 163.5 7.3) scale(48.55833 32.14883)"/><path d="M239 45.3l23.5 4.1L271 5.8l-38.7 23.3z"/><path fill="#ff76fe" d="M79.6 131.8l8.1-23.6 40.7 14-8.1 23.6z"/><ellipse fill="#fff1c9" cx="136" cy="57" rx="9" ry="76"/><path d="M182 49h11v33h-11z"/><path fill="#fffff2" d="M29.2 64.4l-31.8 43.7-14.6-10.5 31.8-43.7z"/><path fill="#a26d05" d="M25.2 5l2.5 41.3 19.9-19-2.7-6.9z"/><ellipse rx="1" ry="1" transform="rotate(29.3 -188.1 86.8) scale(12.92014 26.64633)"/><ellipse fill="#ffe6c7" rx="1" ry="1" transform="rotate(16.7 25.8 408.6) scale(95.70265 35.00408)"/><path d="M8 136h30v34H8z"/><ellipse fill="#ba6727" rx="1" ry="1" transform="matrix(-4.82902 14.35015 -25.42818 -8.55692 164.2 148.8)"/><path fill="#210611" d="M108 123l26-38-28-24z"/><path fill="#ffffb3" d="M117 97l19 16-16-29z"/><path fill="#9d7956" d="M193 71h13v62h-13z"/></g></svg>