<svg xmlns="http://www.w3.org/2000/svg" viewBox="0 0 700 467"><filter id="b"><feGaussianBlur stdDeviation="12" /></filter><path fill="#877983" d="M0 0h700v464H0z"/><g filter="url(#b)" transform="translate(1.4 1.4) scale(2.73438)" fill-opacity=".5"><ellipse fill="#290d05" cx="78" cy="147" rx="67" ry="67"/><ellipse fill="#e9d4ff" rx="1" ry="1" transform="rotate(4 23.3 2139.5) scale(148.19814 33.17062)"/><ellipse fill="#fff" cx="234" cy="149" rx="19" ry="79"/><ellipse fill="#fff" cx="26" cy="86" rx="23" ry="27"/><ellipse fill="#fff" cx="137" cy="89" rx="15" ry="25"/><ellipse fill="#001a97" rx="1" ry="1" transform="matrix(17.69125 1.11304 -3.3521 53.2802 191.6 141.5)"/><ellipse fill="#a30c00" rx="1" ry="1" transform="matrix(-16.6356 -19.52619 24.39097 -20.78021 23.3 136.3)"/><ellipse fill="#413f2e" rx="1" ry="1" transform="matrix(-36.06181 10.74197 -10.72286 -35.99764 86.7 80.3)"/><path fill="#4b2b62" d="M146-16l61 142-84-84z"/><ellipse fill="#f4f4e3" rx="1" ry="1" transform="matrix(17.68024 -9.05456 19.26333 37.61425 197.8 22.6)"/><ellipse cx="184" cy="94" rx="7" ry="28"/><ellipse fill="#14201d" rx="1" ry="1" transform="matrix(-16.40048 -1.83559 8.3922 -74.982 67.7 142.3)"/><ellipse fill="#a8e2d1" cx="170" cy="130" rx="10" ry="32"/><ellipse fill="#fff" rx="1" ry="1" transform="matrix(7.03723 17.68377 -13.97208 5.56017 224 117.3)"/><path fill="#160a00" d="M222 52l-8 48 26-42z"/><path fill="#24311d" d="M148 48h10v76h-10z"/><path fill="#fff" d="M174.6 58.7L170 43.4l13.4-4.1 4.6 15.3z"/><ellipse fill="#6e7271" rx="1" ry="1" transform="matrix(14.72349 -2.78878 11.62199 61.35874 106.1 120.3)"/><path fill="#dbbf87" d="M173 86l-9-38-19 61z"/><ellipse fill="#6d42c3" cx="149" cy="27" rx="25" ry="22"/><ellipse fill="#f4efea" cx="32" cy="91" rx="18" ry="18"/><ellipse fill="#a2819d" cx="52" cy="9" rx="27" ry="32"/></g></svg>