<svg xmlns="http://www.w3.org/2000/svg" viewBox="0 0 700 467"><filter id="b"><feGaussianBlur stdDeviation="12" /></filter><path fill="#5b3b37" d="M0 0h700v464H0z"/><g filter="url(#b)" transform="translate(1.4 1.4) scale(2.73438)" fill-opacity=".5"><ellipse fill="#a6818b" rx="1" ry="1" transform="matrix(.14356 -55.90681 86.5181 .22216 135.6 95.8)"/><ellipse cx="243" cy="41" rx="28" ry="84"/><ellipse fill="#030000" cx="11" cy="38" rx="18" ry="228"/><ellipse fill="#00b6ff" cx="189" cy="59" rx="17" ry="14"/><ellipse fill="#ddbefd" cx="135" cy="63" rx="24" ry="17"/><ellipse fill="#160807" cx="159" cy="21" rx="33" ry="33"/><ellipse fill="#080000" cx="171" cy="163" rx="255" ry="11"/><path fill="#aeddfe" d="M98.8 73.1L74 75.7 71.2 49 96 46.3z"/><path fill="#f5b99c" d="M52.4 6.7L61 9 31.6 127.3 23 125z"/><ellipse fill="#020000" cx="90" cy="25" rx="30" ry="17"/><ellipse fill="#ba9c8a" rx="1" ry="1" transform="matrix(13.14185 14.49344 -20.1325 18.25503 69.5 119.2)"/><path fill="#592018" d="M163 147l63-6-67-105z"/><ellipse fill="#e6ad8a" rx="1" ry="1" transform="matrix(-5.97588 .87284 -8.2594 -56.54763 209.3 69.7)"/><path fill="#1b0000" d="M95 45h14v46H95z"/><ellipse fill="#090000" rx="1" ry="1" transform="rotate(-152.3 7.8 17.3) scale(24.43499 66.71179)"/><path fill="#1d0818" d="M86.2 137.2L121 95.6l-8.5 55.1 2.3-17.9z"/><ellipse fill="#b05e5d" cy="113" rx="7" ry="33"/><ellipse fill="#aa5645" rx="1" ry="1" transform="matrix(.55632 25.96273 -7.17035 .15364 242.6 113.8)"/><ellipse fill="#050000" rx="1" ry="1" transform="rotate(-95.9 141 -97) scale(68.03903 23.18158)"/><path fill="#d47c7e" d="M138 91h33v29h-33z"/><path fill="#e101c1" d="M118 45h36v9h-36z"/><path fill="#180b03" d="M75.9 123.5l-38.6-6 .8-5 38.6 6z"/></g></svg>