<svg xmlns="http://www.w3.org/2000/svg" viewBox="0 0 700 467"><filter id="b"><feGaussianBlur stdDeviation="12" /></filter><path fill="#23253a" d="M0 0h700v464H0z"/><g filter="url(#b)" transform="translate(1.4 1.4) scale(2.73438)" fill-opacity=".5"><ellipse fill="#7e76aa" cx="120" cy="109" rx="103" ry="32"/><ellipse fill="#5e86e8" cx="183" cy="52" rx="28" ry="32"/><ellipse rx="1" ry="1" transform="matrix(17.654 43.12328 -221.74115 90.77738 83.6 0)"/><ellipse rx="1" ry="1" transform="matrix(254.83824 9.08135 -.68254 19.15329 119.1 156.5)"/><path fill="#769bd0" d="M182.2 25l-.4 27-60-1 .4-27z"/><ellipse fill="#8c89a0" cx="132" cy="111" rx="33" ry="33"/><ellipse fill="#000076" rx="1" ry="1" transform="rotate(-93.5 68.4 23.9) scale(18.1943 46.85757)"/><path fill="#97b3a4" d="M149 118h89v15h-89z"/><ellipse rx="1" ry="1" transform="rotate(-89.6 80.6 -73) scale(15.09623 191.56281)"/><ellipse fill="#5d0000" rx="1" ry="1" transform="rotate(174.5 114.4 59.1) scale(56.50668 9.70962)"/><path fill="#3053ff" d="M226.4 99.4l23.7-7.7-22.5-35.3 1.3 43.8z"/><path d="M31 125.9l8.6 5 18.5-60.5-16.7-35.9z"/><ellipse fill="#0722cc" cx="185" cy="87" rx="27" ry="17"/><ellipse cx="250" cy="27" rx="25" ry="49"/><ellipse fill="#486dff" rx="1" ry="1" transform="matrix(-6.57963 -.86347 4.78294 -36.44577 27.1 99.7)"/><path d="M104.5 135.3l-1.5-8.9 32.5-5.7 1.5 8.9z"/><ellipse fill="#e7ffff" cx="85" cy="126" rx="9" ry="9"/><ellipse rx="1" ry="1" transform="rotate(14.8 -207.3 62.7) scale(19.55685 149.47246)"/><path d="M187 81h11v40h-11z"/><ellipse rx="1" ry="1" transform="rotate(-73.9 218.3 -75.3) scale(24.67624 30.43747)"/><ellipse fill="#2c4dff" cx="57" cy="95" rx="7" ry="18"/><ellipse fill="#020000" cx="69" cy="123" rx="5" ry="58"/></g></svg>