<svg xmlns="http://www.w3.org/2000/svg" viewBox="0 0 200 133"><filter id="b"><feGaussianBlur stdDeviation="12" /></filter><path fill="#664a3e" d="M0 0h200v133H0z"/><g filter="url(#b)" transform="translate(.5 .5)" fill-opacity=".5"><path fill="#cfbfb4" d="M12 43h166v56H12z"/><ellipse cx="119" cy="124" rx="199" ry="19"/><ellipse fill="#030000" cx="113" cy="28" rx="162" ry="17"/><ellipse fill="#aff5ff" cx="94" cy="55" rx="17" ry="14"/><ellipse fill="#f6944d" cx="97" cy="5" rx="179" ry="7"/><ellipse fill="#010000" cx="142" cy="122" rx="199" ry="14"/><ellipse fill="#271217" cx="72" cy="64" rx="7" ry="28"/><path fill="#200f13" d="M112 27h13v62h-13z"/><ellipse fill="#3a0000" rx="1" ry="1" transform="matrix(15.14866 .82856 -9.68354 177.04507 199 94.4)"/><path fill="#f3c79e" d="M18.8 24.6L27.5 53 13 95l.2-65.4z"/><path fill="#d1b18c" d="M168 25h13v69h-13z"/><path fill="#c48d81" d="M49 21h72v7H49z"/><path fill="#ffebeb" d="M87 79l23 12-32 8z"/><path d="M204 12l-58 29-11-29z"/><ellipse fill="#c1c7ab" cx="139" cy="40" rx="5" ry="11"/><path fill="#0046b7" d="M83 40l37 5-46 6z"/><path fill="#c33f2f" d="M6 95h77v10H6z"/><path fill="#fff" d="M105 67l-23-2 16-14z"/><path fill="#72594d" d="M164 71L90 86l36-32z"/><ellipse cx="8" cy="17" rx="171" ry="5"/><path fill="#530000" d="M151 95h48v6h-48z"/><path d="M33 39l52-4-69-20z"/></g></svg>