<svg xmlns="http://www.w3.org/2000/svg" viewBox="0 0 700 467"><filter id="b"><feGaussianBlur stdDeviation="12" /></filter><path fill="#4a4376" d="M0 0h700v464H0z"/><g filter="url(#b)" transform="translate(1.4 1.4) scale(2.73438)" fill-opacity=".5"><ellipse fill="#fff3ff" rx="1" ry="1" transform="rotate(-1.6 5378 -6282.2) scale(255 37.65359)"/><ellipse cx="38" cy="29" rx="87" ry="87"/><ellipse fill="#002" cx="199" cy="49" rx="58" ry="58"/><ellipse fill="#fff" rx="1" ry="1" transform="matrix(20.8954 .44848 -.62659 29.19366 131.5 81.8)"/><ellipse cx="94" cy="169" rx="23" ry="17"/><ellipse rx="1" ry="1" transform="matrix(48.54906 51.89978 -34.7625 32.51818 59.4 53.5)"/><ellipse fill="#b5beff" rx="1" ry="1" transform="matrix(-108.8217 3.76553 -1.75557 -50.73487 228 154.7)"/><ellipse fill="#2a2c70" cx="201" cy="132" rx="70" ry="8"/><ellipse fill="#000069" cx="194" cy="18" rx="85" ry="29"/><ellipse fill="#c29dff" rx="1" ry="1" transform="matrix(-86.00511 29.05271 -7.3456 -21.74528 24.9 149.4)"/><ellipse fill="#000009" rx="1" ry="1" transform="matrix(32.92548 -32.944 17.95394 17.94385 184.5 72.4)"/><ellipse fill="#000005" rx="1" ry="1" transform="rotate(-28 142.9 -25.5) scale(123.67078 39.04628)"/><path fill="#d7d7ff" d="M149 54l-41 15 35 73z"/><ellipse fill="#000014" cx="93" cy="169" rx="21" ry="16"/><ellipse fill="#00000e" rx="1" ry="1" transform="matrix(-2.86311 -26.79084 14.13154 -1.51023 247.5 76.7)"/><path fill="#141fdc" d="M59 161l35-28 39-3z"/><ellipse fill="#eef5ff" cx="195" cy="117" rx="102" ry="7"/><path fill="#a2ffff" d="M239.3 119.4L207.8-6.7l3-.7 31.4 126.1z"/><path fill="#fff" d="M126 38h11v14h-11z"/><path fill="#f3f0ff" d="M171.6 157.2l1-19 85.8 4.6-1 19z"/><ellipse fill="#00cbff" rx="1" ry="1" transform="rotate(-102.7 136.8 -86) scale(63.01691 2.49325)"/><path fill="#00000a" d="M104 112L-16 87l135-8z"/></g></svg>