<svg xmlns="http://www.w3.org/2000/svg" viewBox="0 0 641 195"><filter id="b"><feGaussianBlur stdDeviation="12" /></filter><path fill="#65201d" d="M0 0h641v192H0z"/><g filter="url(#b)" transform="translate(1.3 1.3) scale(2.5039)" fill-opacity=".5"><ellipse fill="#ff312b" cx="132" cy="61" rx="35" ry="35"/><ellipse fill="#e4ffff" cx="111" cy="5" rx="15" ry="18"/><ellipse rx="1" ry="1" transform="rotate(67.6 -15.3 23.2) scale(77.4276 38.11564)"/><ellipse fill="#f6342b" rx="1" ry="1" transform="matrix(.34684 -31.357 16.01596 .17715 192.5 45.5)"/><path fill="#ff7313" d="M17.8 29.5L40 35l-3.9 15.5L14 45z"/><ellipse fill="#000409" rx="1" ry="1" transform="rotate(101.7 31.2 28.8) scale(24.80273 33.95592)"/><ellipse fill="#141211" rx="1" ry="1" transform="matrix(-17.5617 -24.52992 21.27826 -15.23374 232.9 50.5)"/><path fill="#ff3d25" d="M78 37l-26-9 19 53z"/><path fill="#fe6756" d="M140 59l62-23-72-2z"/><ellipse fill="#0f182c" rx="1" ry="1" transform="rotate(77.7 74.2 96.6) scale(26.89554 29.87392)"/><path d="M123 45h12v22h-12z"/><ellipse rx="1" ry="1" transform="rotate(-98.1 69.2 -6.7) scale(16.61052 11.97451)"/><ellipse fill="#806f4a" rx="1" ry="1" transform="matrix(13.43087 21.29243 -18.62785 11.7501 241.6 3.1)"/><ellipse rx="1" ry="1" transform="matrix(-33.1871 1.04295 -.68094 -21.6679 22 67)"/><ellipse fill="#fe0810" rx="1" ry="1" transform="matrix(1.25513 -21.92314 14.78754 .8466 191.3 76)"/><ellipse fill="#ff2027" cx="145" cy="72" rx="15" ry="15"/><path fill="#ff4713" d="M15 30h25v16H15z"/><path d="M162 49h20v14h-20z"/><path fill="#655672" d="M97.9 25.9l1.7-9.9 34.5 6.1-1.7 9.9z"/><path fill="#fff" d="M108.8-1.7L119-16l-.7 27.5-8.3 9.2zM60 32h5v8h-5z"/><ellipse cx="3" cy="23" rx="13" ry="146"/></g></svg>