<svg xmlns="http://www.w3.org/2000/svg" viewBox="0 0 200 133"><filter id="b"><feGaussianBlur stdDeviation="12" /></filter><path fill="#5b4044" d="M0 0h200v133H0z"/><g filter="url(#b)" transform="translate(.5 .5)" fill-opacity=".5"><ellipse fill="#ffd4c7" rx="1" ry="1" transform="matrix(-17.93784 -5.87234 9.99555 -30.53273 155 37.1)"/><ellipse fill="#ff494c" cx="53" cy="23" rx="32" ry="32"/><ellipse fill="#ffd6cb" cx="113" cy="15" rx="13" ry="45"/><ellipse rx="1" ry="1" transform="rotate(-118.1 119.9 -7.7) scale(37.36334 31.46885)"/><ellipse cy="55" rx="24" ry="139"/><ellipse fill="#ffbdb8" cx="73" cy="28" rx="10" ry="41"/><path d="M46 0h13v78H46z"/><ellipse fill="#907aa0" cx="123" cy="128" rx="38" ry="38"/><ellipse fill="#003b5a" cx="88" cy="86" rx="77" ry="24"/><path d="M125 0h22v33h-22z"/><ellipse cx="184" cy="13" rx="11" ry="116"/><path fill="#ffb6ab" d="M172.3-15.8l5.3 75.8-26 1.8-5.2-75.8z"/><path fill="#ff1f30" d="M23 0h24v52H23z"/><ellipse fill="#bd9381" cx="108" cy="52" rx="82" ry="10"/><ellipse rx="1" ry="1" transform="rotate(98.6 40.6 45.4) scale(26.90592 9.14365)"/><ellipse cx="5" cy="55" rx="15" ry="198"/><path fill="#2aa2ff" d="M94.4 73.1l16.4-8.8L113 84l-1.1 27.1z"/><path d="M47 115l-23 33 19-68zm25.1-14.5l3.3 47.5 21.7-80.7-28.6 3.5z"/><ellipse rx="1" ry="1" transform="rotate(174.6 58.2 47.4) scale(4.93298 37.0393)"/><path fill="#ff9aa4" d="M118.8 120.7L114 99.5l-15.2 12.2L85.3 148z"/><ellipse cx="177" cy="90" rx="22" ry="28"/></g></svg>