<svg xmlns="http://www.w3.org/2000/svg" viewBox="0 0 800 533"><filter id="b"><feGaussianBlur stdDeviation="12" /></filter><path fill="#3b2b18" d="M0 0h800v531H0z"/><g filter="url(#b)" transform="translate(1.6 1.6) scale(3.125)" fill-opacity=".5"><ellipse fill="#fff" cx="179" cy="30" rx="20" ry="17"/><path fill="#fff" d="M55 32l22.7 16.4L43 96 20.3 79.6z"/><ellipse fill="#c79f4f" cy="22" rx="37" ry="37"/><path d="M58.9 54.7l-15-20.3 1-1-19 38.1z"/><ellipse cx="104" cy="88" rx="42" ry="42"/><ellipse fill="#030104" cx="199" cy="155" rx="49" ry="108"/><path fill="#ffffcb" d="M195.2 22l-5.8 16-38.6-14 5.8-16z"/><ellipse fill="#020000" rx="1" ry="1" transform="matrix(-47.48657 -10.44957 5.0903 -23.13212 32.5 117.3)"/><path fill="#fff" d="M29 71h14v22H29z"/><path fill="#b2a383" d="M217 38l-62 25 48-44z"/><ellipse fill="#fff" cy="42" rx="12" ry="12"/><path fill="#fff" d="M58 73l-4-46 17 38z"/><path fill="#efb39a" d="M184.4 103.5l-17.2-5.3 2.4-7.7 17.2 5.3z"/><path fill="#1e1000" d="M69 22h96v66H69z"/><path fill="#f7f7f1" d="M66.6 38.7L63 41.9l-17.9-4.4 3.1-13.4z"/><ellipse fill="#290000" cx="56" cy="97" rx="12" ry="26"/><path fill="#fefdf1" d="M26.7 68.7l27.8 1.7-6.7 6.9L14 81.5z"/><path fill="#fbd98c" d="M249.3 75.8l3.5-24.7 7.9 1-3.5 24.8z"/><path fill="#ffffd9" d="M187 42l-20.8-2.2 2.7-25.8 20.9 2.2z"/><path d="M0 82h33v9H0z"/><path fill="#925f16" d="M75 35.4l13-15.3 5.5 40.2-28.2-15z"/><ellipse fill="#fdc80b" cx="165" rx="37" ry="2"/></g></svg>