<svg xmlns="http://www.w3.org/2000/svg" viewBox="0 0 200 133"><filter id="b"><feGaussianBlur stdDeviation="12" /></filter><path fill="#5b4044" d="M0 0h200v133H0z"/><g filter="url(#b)" transform="translate(.5 .5)" fill-opacity=".5"><ellipse fill="#fdaa9d" cx="136" cy="26" rx="39" ry="39"/><ellipse fill="#ff484c" cx="53" cy="22" rx="32" ry="32"/><path d="M126 0h21v38h-21z"/><ellipse cx="188" cy="93" rx="37" ry="37"/><ellipse rx="1" ry="1" transform="matrix(-4.87924 -118.77627 25.06533 -1.02966 0 41.3)"/><path fill="#ffc8b5" d="M83 67H57V31h26z"/><ellipse cx="52" cy="11" rx="7" ry="62"/><ellipse fill="#ce8cb8" cx="121" cy="124" rx="37" ry="14"/><ellipse fill="#003856" cx="72" cy="87" rx="93" ry="22"/><path d="M174 0h20v48h-20z"/><ellipse fill="#ffbfb5" rx="1" ry="1" transform="matrix(6.64789 28.96805 -14.71068 3.37596 163.9 33.5)"/><path d="M82 0h19v36H82z"/><path fill="#ffa0a4" d="M81 70L58 5l23-18z"/><ellipse fill="#ff2c3a" cx="34" cy="1" rx="12" ry="65"/><ellipse fill="#ffaba5" rx="1" ry="1" transform="matrix(10.9161 -32.71046 10.33176 3.4479 109.3 32)"/><ellipse cx="179" cy="90" rx="28" ry="28"/><ellipse fill="#3ea1f9" rx="1" ry="1" transform="matrix(4.06938 29.70718 -6.63128 .90837 105.9 79.3)"/><ellipse rx="1" ry="1" transform="matrix(12.81276 .527 -6.49837 157.99062 9 45.9)"/><path d="M79 148l12-89-22 20zm63.8-160l4.3 41.8-19.9 2.1L123-9.8z"/><ellipse fill="#768cb1" rx="1" ry="1" transform="matrix(9.90723 -1.0663 3.84099 35.68742 148 101.5)"/><ellipse fill="#000006" cx="121" cy="104" rx="4" ry="45"/></g></svg>