<svg xmlns="http://www.w3.org/2000/svg" viewBox="0 0 700 467"><filter id="b"><feGaussianBlur stdDeviation="12" /></filter><path fill="#727070" d="M0 0h700v464H0z"/><g filter="url(#b)" transform="translate(1.4 1.4) scale(2.73438)" fill-opacity=".5"><ellipse rx="1" ry="1" transform="matrix(39.19642 32.4484 -15.08308 18.21979 224.2 47.5)"/><ellipse fill="#edffff" cx="34" cy="72" rx="19" ry="35"/><ellipse fill="#dbdff2" cx="21" cy="150" rx="30" ry="30"/><ellipse fill="#110739" rx="1" ry="1" transform="rotate(-175.8 103.2 53.8) scale(25.19476 44.75231)"/><ellipse fill="#efffff" rx="1" ry="1" transform="matrix(-11.8955 .10381 -.2967 -33.9986 97.3 79)"/><ellipse fill="#e8ffff" rx="1" ry="1" transform="matrix(16.95655 53.45383 -9.83184 3.11884 165.8 18.1)"/><path d="M112.7 135.9l-29.1 46.6-26.3-16.4 29.1-46.6z"/><ellipse fill="#221600" rx="1" ry="1" transform="matrix(23.81832 -24.63228 12.2825 11.87664 130.5 65.4)"/><ellipse fill="#b00" cx="160" cy="96" rx="13" ry="26"/><ellipse fill="#e9f5f5" cx="120" cy="169" rx="22" ry="22"/><ellipse fill="#fff" cx="44" rx="33" ry="8"/><path fill="#fffab3" d="M137.3 11.8l5.1 32.6-23.7 3.8-5.1-32.6z"/><ellipse fill="#20250b" cx="83" cy="38" rx="26" ry="16"/><path fill="#ffffe3" d="M159.5 13.7l-1.6-19 96.6-8.4 1.6 19z"/><path d="M202 122l47 63-30-90z"/><ellipse fill="#0b0900" cx="226" cy="32" rx="42" ry="24"/><path fill="#bbd8f5" d="M158 44h37v28h-37z"/><path fill="#0028fc" d="M174 98h21v37h-21z"/><ellipse fill="#94b0df" rx="1" ry="1" transform="matrix(12.47616 -6.49815 18.12964 34.8081 247.2 128)"/><path fill="#1b1915" d="M71.3 56.3l-3.1 22.3 8 93.3 25.7-27.3z"/><path fill="#8bb9bb" d="M42 106h32v42H42z"/><ellipse fill="#081106" rx="1" ry="1" transform="matrix(-5.19057 -24.21183 7.70406 -1.6516 150.3 34.7)"/></g></svg>