<svg xmlns="http://www.w3.org/2000/svg" viewBox="0 0 700 467"><filter id="b"><feGaussianBlur stdDeviation="12" /></filter><path fill="#b26a3c" d="M0 0h700v464H0z"/><g filter="url(#b)" transform="translate(1.4 1.4) scale(2.73438)" fill-opacity=".5"><ellipse fill="#001145" rx="1" ry="1" transform="matrix(34.69578 10.93152 -13.84288 43.93621 95.4 103)"/><ellipse fill="#fff" cx="22" cy="108" rx="39" ry="15"/><ellipse cx="174" cy="128" rx="168" ry="14"/><ellipse fill="#ffcc47" cx="198" cy="29" rx="62" ry="62"/><ellipse fill="#e9ff6c" rx="1" ry="1" transform="matrix(-15.66651 14.81508 -57.50207 -60.80674 23.6 23)"/><ellipse fill="#960000" cx="81" cy="29" rx="27" ry="33"/><ellipse cx="230" cy="109" rx="12" ry="34"/><ellipse fill="#ffe8f7" rx="1" ry="1" transform="rotate(12.2 -373.9 720.8) scale(16.83952 19.54841)"/><path fill="#fff" d="M105.3 120.8l1.8-32.9-21.5-12.2 13.6 43z"/><path fill="#ffc900" d="M51.3 85.7L-3.3 79l6-48.7L57.3 37z"/><ellipse fill="#faf4ff" rx="1" ry="1" transform="matrix(18.82874 -21.7513 7.53356 6.52133 187.4 85.4)"/><ellipse fill="#f7312f" cx="117" cy="158" rx="253" ry="25"/><path fill="#000009" d="M151 95h13v58h-13z"/><ellipse fill="#ebf9ff" rx="1" ry="1" transform="matrix(0 -13.68223 14.35214 0 68.2 69)"/><ellipse fill="#bff2ff" rx="1" ry="1" transform="matrix(17.65878 -7.24293 9.71186 23.6782 37.6 2.6)"/><ellipse fill="#ea7600" rx="1" ry="1" transform="matrix(-18.34885 20.42861 -52.8187 -47.44141 135.2 23.9)"/><path fill="#00001a" d="M187 94h17v51h-17z"/><path fill="#ffcdf4" d="M204 80h18v32h-18z"/><ellipse fill="#f2dd8c" rx="1" ry="1" transform="matrix(.19352 22.95882 -43.04426 .36282 220.4 5.2)"/><ellipse fill="#ff9a93" cx="246" cy="156" rx="83" ry="12"/><path fill="#ffeff8" d="M57.3 119.7l-27-.4.4-27 27 .4z"/><path fill="#6a0000" d="M57 0h29v56H57z"/></g></svg>