<svg xmlns="http://www.w3.org/2000/svg" viewBox="0 0 700 467"><filter id="b"><feGaussianBlur stdDeviation="12" /></filter><path fill="#695c55" d="M0 0h700v464H0z"/><g filter="url(#b)" transform="translate(1.4 1.4) scale(2.73438)" fill-opacity=".5"><ellipse fill="#fffff9" rx="1" ry="1" transform="matrix(-33.04552 67.4543 -30.19003 -14.78995 163 62.8)"/><path d="M48-16l111 201-132-4z"/><ellipse fill="#ffe2b2" rx="1" ry="1" transform="matrix(-6.43073 -50.63853 28.4423 -3.61197 189.7 41.6)"/><ellipse rx="1" ry="1" transform="matrix(-15.4116 -1.10721 1.50282 -20.91818 130 32.6)"/><ellipse cx="79" cy="140" rx="48" ry="48"/><path fill="#fff9f1" d="M110 86L92 53l19-29z"/><path fill="#0e0000" d="M225 12.4l53.4 7.5-5.3 37.7-53.5-7.5z"/><ellipse fill="#e5ebff" rx="1" ry="1" transform="rotate(155 63.4 51.7) scale(21.8488 20.8636)"/><ellipse fill="#947e7c" cx="26" cy="44" rx="30" ry="42"/><ellipse fill="#635f76" cx="162" cy="102" rx="34" ry="28"/><ellipse fill="#e3c088" rx="1" ry="1" transform="matrix(30.39105 4.16306 -1.16737 8.52198 232.2 94)"/><ellipse fill="#f5f1cf" cx="92" cy="5" rx="10" ry="27"/><ellipse fill="#08060b" rx="1" ry="1" transform="rotate(167.8 60.2 10.3) scale(17.54043 38.75927)"/><ellipse fill="#d5b999" cx="180" cy="18" rx="41" ry="41"/><ellipse fill="#d2b1a2" cx="101" cy="122" rx="9" ry="9"/><ellipse fill="#523324" cx="227" cy="152" rx="46" ry="46"/><ellipse fill="#000002" cx="40" cy="12" rx="6" ry="255"/><path fill="#10110a" d="M122.1 97.5l3.2-19.5-39.8 44.3 32.2-7.3z"/><path d="M75 35h20v21H75z"/><ellipse fill="#7b4f4f" cx="147" cy="26" rx="15" ry="22"/><path fill="#a9b1ca" d="M135 77h28v64h-28z"/><ellipse fill="#342c22" rx="1" ry="1" transform="rotate(-97.7 42 -25.4) scale(5.55546 37.66908)"/></g></svg>