<svg xmlns="http://www.w3.org/2000/svg" viewBox="0 0 200 133"><filter id="b"><feGaussianBlur stdDeviation="12" /></filter><path fill="#535355" d="M0 0h200v133H0z"/><g filter="url(#b)" transform="translate(.5 .5)" fill-opacity=".5"><ellipse fill="#f6f7f4" rx="1" ry="1" transform="matrix(61.72045 14.3628 -9.30923 40.00402 138.8 6.2)"/><ellipse rx="1" ry="1" transform="matrix(-4.90137 -42.39661 193.47953 -22.3677 117.5 109.9)"/><ellipse fill="#efe7d5" rx="1" ry="1" transform="matrix(102.61267 -89.51517 17.26791 19.79448 34.4 6.8)"/><ellipse fill="#695b54" rx="1" ry="1" transform="rotate(-73.3 90.7 -23) scale(63.35078 23.13595)"/><ellipse fill="#000015" rx="1" ry="1" transform="matrix(-32.72236 -16.17802 26.78722 -54.18098 178.6 99)"/><ellipse fill="#e6d29b" cx="132" cy="54" rx="3" ry="42"/><path fill="#000010" d="M-11 74.5l39.2-15 10.8 28-39.2 15z"/><ellipse fill="#ecffff" rx="1" ry="1" transform="rotate(-179 47.3 -.4) scale(105.57117 6.16793)"/><ellipse fill="#2e260b" cx="71" cy="32" rx="37" ry="13"/><ellipse fill="#e5d9df" cx="118" cy="43" rx="12" ry="18"/><path fill="#735f4f" d="M129 28h35v28h-35z"/><ellipse fill="#a59291" cx="37" cy="45" rx="13" ry="25"/><ellipse fill="#c9d1f8" cx="35" cy="75" rx="2" ry="33"/><path fill="#f2f8ff" d="M124 1h38v16h-38z"/><ellipse fill="#786d5c" cx="64" cy="15" rx="31" ry="7"/><path fill="#7e7776" d="M64 94l56-61-22 64z"/><path fill="#abc8e0" d="M150-11l37 57 21-62z"/><ellipse cx="36" cy="126" rx="22" ry="22"/><path fill="#eac2b9" d="M62 48h20v11H62z"/><ellipse fill="#fff3cd" cx="93" cy="17" rx="31" ry="3"/><ellipse fill="#cdddf2" rx="1" ry="1" transform="matrix(-8.27363 6.05539 -15.74477 -21.5125 18 .1)"/><path fill="#fdf6bf" d="M129 42.9l2.1 45.9 4 15 3.3-5z"/></g></svg>