<svg xmlns="http://www.w3.org/2000/svg" viewBox="0 0 700 467"><filter id="b"><feGaussianBlur stdDeviation="12" /></filter><path fill="#4c4f54" d="M0 0h700v464H0z"/><g filter="url(#b)" transform="translate(1.4 1.4) scale(2.73438)" fill-opacity=".5"><ellipse fill="#fff" rx="1" ry="1" transform="rotate(85.2 -9.5 150.7) scale(14.75377 253.68373)"/><ellipse rx="1" ry="1" transform="matrix(102.77304 -94.26998 42.55096 46.38902 59.9 30.8)"/><ellipse fill="#ffffde" rx="1" ry="1" transform="matrix(29.15696 -6.50067 10.0313 44.99266 125.4 116.3)"/><ellipse rx="1" ry="1" transform="matrix(-8.9749 .43048 -2.2067 -46.00626 126.8 86.8)"/><ellipse fill="#080422" cx="193" cy="99" rx="40" ry="40"/><ellipse fill="#370000" cx="58" cy="114" rx="38" ry="38"/><path fill="#fff" d="M238 148L29 172l72-45z"/><ellipse fill="#000e26" rx="1" ry="1" transform="matrix(-229.13564 18.83838 -3.45969 -42.081 168.4 15.7)"/><path fill="#daeaef" d="M234 69h18v81h-18z"/><path fill="#fffffd" d="M139 59h15v76h-15z"/><path fill="#e7f2e7" d="M15 88h11v68H15z"/><ellipse fill="#ffffd9" cx="107" cy="104" rx="11" ry="43"/><path fill="#00012d" d="M162.1 107.7L137 14.5 182.4 141l-23.9.7z"/><path fill="#930c27" d="M45 83h25v73H45z"/><ellipse fill="#0c030c" cx="216" cy="129" rx="33" ry="5"/><ellipse fill="#fff" cx="40" cy="169" rx="30" ry="16"/><ellipse fill="#fff" cx="218" cy="145" rx="56" ry="9"/><ellipse fill="#113a61" cx="152" cy="18" rx="65" ry="40"/><path d="M7 162l4-37 7 35z"/><path fill="#000e01" d="M67 0h29v140H67z"/><ellipse fill="#020904" cx="255" cy="169" rx="172" ry="13"/><ellipse fill="#080600" rx="1" ry="1" transform="rotate(151.8 -4.2 23.6) scale(86.73374 46.36106)"/></g></svg>