<svg xmlns="http://www.w3.org/2000/svg" viewBox="0 0 700 467"><filter id="b"><feGaussianBlur stdDeviation="12" /></filter><path fill="#877d78" d="M0 0h700v464H0z"/><g filter="url(#b)" transform="translate(1.4 1.4) scale(2.73438)" fill-opacity=".5"><ellipse rx="1" ry="1" transform="rotate(-85.1 113 -8.6) scale(31.05637 205.0481)"/><ellipse fill="#fff" rx="1" ry="1" transform="matrix(-1.12895 30.78823 -188.00565 -6.89385 78.7 166.7)"/><path fill="#fff" d="M-2.5-27.5l254.8-9 2.2 64-254.8 9z"/><ellipse fill="#0c0000" cx="87" cy="114" rx="33" ry="33"/><ellipse fill="#fff" rx="1" ry="1" transform="rotate(-21.9 424 -12) scale(32.67505 31.4542)"/><ellipse fill="#533827" cx="170" cy="65" rx="71" ry="26"/><ellipse fill="#fff" cx="128" cy="169" rx="149" ry="22"/><ellipse fill="#fbffff" cx="5" cy="6" rx="49" ry="49"/><ellipse fill="#cdd8e1" rx="1" ry="1" transform="rotate(-95.6 112.4 -92.2) scale(39.33105 62.23008)"/><ellipse fill="#180000" cx="140" cy="43" rx="20" ry="16"/><ellipse fill="#1c0200" rx="1" ry="1" transform="matrix(-6.9627 17.6024 -32.43959 -12.8316 232.9 131.6)"/><ellipse fill="#230500" cx="117" cy="114" rx="79" ry="21"/><path fill="#c3c8c4" d="M163.8 90.5l13.7 26L163 61.6l-16.2 32.7z"/><ellipse fill="#090000" cx="82" cy="139" rx="12" ry="12"/><path fill="#482918" d="M44 32h121v9H44z"/><path fill="#a6a29b" d="M117 76l61 12-41-34z"/><ellipse fill="#391908" cx="19" cy="107" rx="81" ry="21"/><ellipse fill="#f4fbf7" cx="123" cy="160" rx="33" ry="27"/><ellipse fill="#e9f5f4" rx="1" ry="1" transform="matrix(3.74497 -18.71705 7.0471 1.41 255 90)"/><path fill="#d7e1e9" d="M-14-16l279 9L92 35z"/><path fill="#311305" d="M192.1 45l28.1 38.6-4-5 49-14.3z"/><ellipse fill="#fcfffb" rx="1" ry="1" transform="rotate(5.8 -1408.7 207.5) scale(62.96793 12.40979)"/></g></svg>