<svg xmlns="http://www.w3.org/2000/svg" viewBox="0 0 700 467"><filter id="b"><feGaussianBlur stdDeviation="12" /></filter><path fill="#77776c" d="M0 0h700v464H0z"/><g filter="url(#b)" transform="translate(1.4 1.4) scale(2.73438)" fill-opacity=".5"><ellipse fill="#f8ffff" rx="1" ry="1" transform="matrix(58.602 -5.84926 3.85072 38.57925 200.5 6.7)"/><ellipse fill="#fff" cx="137" cy="99" rx="44" ry="17"/><ellipse fill="#110c02" rx="1" ry="1" transform="matrix(62.81909 1.7547 -1.10167 39.44029 34.4 14.1)"/><ellipse cx="77" cy="113" rx="15" ry="55"/><ellipse fill="#0c0903" rx="1" ry="1" transform="rotate(-105.3 130 -30.3) scale(43.18433 14.47864)"/><ellipse fill="#252207" rx="1" ry="1" transform="rotate(-177.6 53.9 73.5) scale(116.1439 9.81644)"/><ellipse fill="#bbc0be" cx="141" cy="46" rx="31" ry="31"/><path fill="#fff" d="M191 117l-105-9 65-28zm-68 13h37v11h-37z"/><ellipse fill="#05090d" rx="1" ry="1" transform="matrix(-13.62957 -9.00743 11.91869 -18.03472 82.9 84.4)"/><ellipse fill="#d5ebff" cx="201" cy="6" rx="37" ry="27"/><path fill="#383930" d="M155 134h57v36h-57z"/><path fill="#967245" d="M161 62l-4.3-16.5 50.2-13.4 4.4 16.4z"/><ellipse fill="#4f4b35" cx="10" cy="64" rx="15" ry="60"/><ellipse fill="#a59875" cx="46" cy="64" rx="18" ry="29"/><ellipse fill="#fff5b7" cx="214" cy="51" rx="6" ry="21"/><ellipse fill="#0038a1" rx="1" ry="1" transform="matrix(-10.71904 -1.15507 1.81718 -16.8634 69.9 50.4)"/><path d="M54 17h31v20H54z"/><path fill="#fff" d="M102 93h52v22h-52z"/><ellipse cx="74" cy="129" rx="13" ry="20"/><ellipse fill="#868e93" rx="1" ry="1" transform="matrix(-27.48685 14.53927 -18.81116 -35.56296 129.4 5.3)"/><path fill="#eff8fc" d="M164.2 63l-23-9.4-3.4-10.1L112.4 62z"/></g></svg>