<svg xmlns="http://www.w3.org/2000/svg" viewBox="0 0 200 133"><filter id="b"><feGaussianBlur stdDeviation="12" /></filter><path fill="#ada8a7" d="M0 0h200v133H0z"/><g filter="url(#b)" transform="translate(.5 .5)" fill-opacity=".5"><ellipse fill="#4f4a48" rx="1" ry="1" transform="matrix(9.64098 -9.11525 47.74096 50.4945 188.2 46.9)"/><path fill="#4f1512" d="M12 40h30v32H12z"/><ellipse fill="#dae0e2" cx="143" cy="122" rx="68" ry="68"/><path fill="#6e6056" d="M58 18h25v84H58z"/><ellipse fill="#cfe9f1" cx="25" cy="105" rx="26" ry="26"/><path d="M-2.6 112.4l15.8 18-10.6 9.2-15.8-18z"/><ellipse fill="#776566" rx="1" ry="1" transform="matrix(15.03987 -19.47188 15.18087 11.72554 124 17.2)"/><ellipse fill="#dbbdbb" cx="98" cy="56" rx="55" ry="13"/><ellipse fill="#695036" cx="66" cy="90" rx="19" ry="12"/><path fill="#4f5252" d="M163 22h30v33h-30z"/><ellipse fill="#c2d5d8" cx="51" cy="126" rx="42" ry="20"/><path d="M-12 120.7l12-7.2 12 19.8-12 7.2z"/><path fill="#73443a" d="M39.2 74l-8.4-33.2L5 26.2l-.1 7.5z"/><path fill="#cebfbd" d="M83 33l106 22 26 68z"/><ellipse fill="#614a4f" rx="1" ry="1" transform="matrix(-13.12526 2.6545 -1.9623 -9.70263 75 36.4)"/><path fill="#846d58" d="M33 0h12v32H33z"/><path fill="#cddbe1" d="M-3 115l-13-81 46 53z"/><ellipse fill="#9c877c" rx="1" ry="1" transform="matrix(-15.98055 .52987 -1.15917 -34.9602 151 24.8)"/><ellipse fill="#e39488" cx="152" cy="81" rx="15" ry="11"/><ellipse fill="#d37f7e" cx="106" cy="61" rx="12" ry="12"/><path fill="#8d9da1" d="M175 14h7v58h-7z"/><ellipse fill="#9e8389" rx="1" ry="1" transform="rotate(62.4 -30.1 44.2) scale(6.92834 25.05966)"/></g></svg>