<svg xmlns="http://www.w3.org/2000/svg" viewBox="0 0 200 133"><filter id="b"><feGaussianBlur stdDeviation="12" /></filter><path fill="#36201b" d="M0 0h200v133H0z"/><g filter="url(#b)" transform="translate(.5 .5)" fill-opacity=".5"><path fill="#ff4090" d="M150 22h21v48h-21z"/><ellipse fill="#cc6a85" cx="45" cy="57" rx="10" ry="40"/><ellipse fill="#7a5e3f" rx="1" ry="1" transform="matrix(-61.82795 30.33287 -6.61668 -13.48689 122.8 18)"/><ellipse fill="#070000" cx="181" cy="103" rx="38" ry="38"/><ellipse fill="#000001" cx="10" cy="84" rx="16" ry="108"/><ellipse fill="#070907" rx="1" ry="1" transform="rotate(-137.5 71.3 14.1) scale(32.27516 44.36604)"/><path fill="#a28482" d="M30 87l21.5-17.7v11l-24.9 35.5z"/><path fill="#816f48" d="M39 10h60v8H39z"/><path fill="#ff3c88" d="M155 31h14v21h-14z"/><ellipse fill="#9b6268" cx="54" cy="44" rx="35" ry="5"/><ellipse fill="#332c15" rx="1" ry="1" transform="matrix(-14.75652 12.86564 -16.1046 -18.47151 170.4 8.1)"/><path fill="#685033" d="M92 3h61v33H92z"/><ellipse fill="#22140a" cx="69" cy="105" rx="31" ry="31"/><path fill="#010507" d="M39.3 75.6L27.7 44.9 4.2 38.2 8 103.6z"/><path fill="#080803" d="M215 120L184-2 174 99z"/><path fill="#09100a" d="M106.8-11.2l3.8 4.7-61.4 49.7-3.8-4.7z"/><ellipse fill="#381605" cx="121" cy="124" rx="100" ry="21"/><path fill="#cd0650" d="M152 59h13v13h-13z"/><ellipse fill="#fffff4" cx="71" cy="13" rx="3" ry="3"/><ellipse fill="#0a0806" rx="1" ry="1" transform="matrix(34.87003 12.64352 -7.2706 20.05186 127.5 82.1)"/><path fill="#d7025a" d="M36 59.8L49.2 55 54 68.2 40.8 73z"/><path fill="#ff7ca5" d="M168 51h-10l17 10z"/></g></svg>