<svg xmlns="http://www.w3.org/2000/svg" viewBox="0 0 200 133"><filter id="b"><feGaussianBlur stdDeviation="12" /></filter><path fill="#624040" d="M0 0h200v133H0z"/><g filter="url(#b)" transform="translate(.5 .5)" fill-opacity=".5"><ellipse fill="#fff3f0" cx="112" cy="116" rx="33" ry="33"/><ellipse fill="#acbad7" cx="191" cy="89" rx="24" ry="28"/><ellipse fill="#1d0000" rx="1" ry="1" transform="matrix(7.39288 49.61113 -117.9594 17.57791 86 0)"/><path fill="#e5a57b" d="M104.7 38L133 53l-19.7 37L85 75z"/><ellipse fill="#000012" rx="1" ry="1" transform="matrix(-12.46263 .76225 -2.681 -43.8338 158.2 104.6)"/><ellipse fill="#878185" rx="1" ry="1" transform="matrix(-11.33742 9.89546 -20.95177 -24.00485 74 109.2)"/><ellipse fill="#be775e" cx="184" cy="53" rx="20" ry="20"/><ellipse fill="#470002" cy="132" rx="33" ry="33"/><path d="M170.6 49.3l-16.5 3.8-4.7-20.4 16.5-3.8z"/><path fill="#5d0000" d="M85 93L41 39l68 48z"/><path fill="#001" d="M135.4 61.3l21.8 14.1-12.6 19.3-21.8-14.1z"/><path fill="#d77c56" d="M22.7 77.7L12.9 83-8.7 42.3 1.1 37z"/><ellipse fill="#5c251d" cx="39" cy="56" rx="31" ry="31"/><path fill="#d8cecd" d="M135.1 97.1l-11.4 35.2-22.8-7.4 11.4-35.2z"/><ellipse fill="#ded2e8" cx="156" cy="97" rx="5" ry="5"/><path fill="#e1d9f6" d="M77 61l14-8-5 12z"/><path fill="#250000" d="M195-3l-14 29 22 6z"/><ellipse fill="#000f24" rx="1" ry="1" transform="matrix(52.958 -18.2349 2.6513 7.69994 180 132)"/><path fill="#7a5455" d="M49.8 72.5L47.2 11l20.4 19-48.2 6z"/><path fill="#5f0b00" d="M75 127h28v6H75z"/><path fill="#d87f5d" d="M141 38h10v28h-10z"/><path fill="#a3746a" d="M183.2 7.8l-13.8 92.4-2.4-61.7 3.9-24z"/></g></svg>