<svg xmlns="http://www.w3.org/2000/svg" viewBox="0 0 200 133"><filter id="b"><feGaussianBlur stdDeviation="12" /></filter><path fill="#726a5b" d="M0 0h200v133H0z"/><g filter="url(#b)" transform="translate(.5 .5)" fill-opacity=".5"><ellipse fill="#fff" cx="199" cy="109" rx="25" ry="25"/><ellipse fill="#06152e" cx="91" cy="86" rx="95" ry="35"/><ellipse fill="#eab569" cx="88" rx="61" ry="61"/><ellipse fill="#e3fffe" cx="199" rx="21" ry="94"/><path fill="#00072c" d="M149.8 138l11.7-95.3 26.7 3.3-11.7 95.3z"/><path fill="#ffdfb3" d="M131.1 89.8l14-.5 1.8 51-14 .4z"/><path fill="#fff" d="M41.9 82.2l-7.6-33 5.8-1.4 7.6 33zM64 51l10 3-2 35z"/><ellipse fill="#ffda92" rx="1" ry="1" transform="matrix(-5.4374 1.0672 -5.1036 -26.00284 92.4 116.7)"/><path d="M102.9 107.5l24.9 2.1-2.7 31-24.9-2.2z"/><ellipse fill="#f7e9a8" rx="1" ry="1" transform="matrix(-2.23154 26.24914 -13.71296 -1.16579 182.6 15)"/><path fill="#000002" d="M0 55h28v30H0z"/><path fill="#020f24" d="M21 84h55v39H21z"/><ellipse fill="#d2ad77" rx="1" ry="1" transform="rotate(-94.1 61.1 55) scale(36.57616 11.44463)"/><path fill="#d8af96" d="M42.6 21.3l6.8 22-44 13.4-6.8-22z"/><ellipse fill="#e9fbff" rx="1" ry="1" transform="rotate(-85.8 150.9 -55) scale(30.36146 12.19886)"/><path fill="#ffd2a3" d="M159 20l7 17-61 12z"/><path fill="#091725" d="M74 50h34v29H74z"/><path fill="#0084ee" d="M211.6 36l-12 17.2-13.2-9.2 12-17.2z"/><ellipse fill="#724200" cx="5" cy="5" rx="28" ry="28"/><path fill="#e4d4d0" d="M78 30h27v20H78z"/><ellipse fill="#ffd7d5" rx="1" ry="1" transform="matrix(.0315 4.98614 -7.77715 .04913 109.6 102.1)"/></g></svg>