<svg xmlns="http://www.w3.org/2000/svg" viewBox="0 0 700 467"><filter id="b"><feGaussianBlur stdDeviation="12" /></filter><path fill="#7b6d73" d="M0 0h700v464H0z"/><g filter="url(#b)" transform="translate(1.4 1.4) scale(2.73438)" fill-opacity=".5"><ellipse cx="33" cy="153" rx="81" ry="22"/><ellipse fill="#fce4f7" rx="1" ry="1" transform="rotate(71.8 3 35.7) scale(51.65271 68.02196)"/><ellipse fill="#00070b" cx="149" cy="97" rx="60" ry="32"/><ellipse fill="#ffead2" rx="1" ry="1" transform="matrix(142.0153 -83.68184 14.84888 25.19983 153.9 169)"/><ellipse cx="218" cy="9" rx="50" ry="31"/><path d="M210 48h32v45h-32z"/><ellipse fill="#d6f2ff" rx="1" ry="1" transform="matrix(-1.99166 12.16234 -50.59489 -8.28523 153.5 46)"/><path fill="#deb5c5" d="M45.2 121.9l3.6-68 42 2.2-3.6 68z"/><ellipse rx="1" ry="1" transform="rotate(89.1 -53.9 100.2) scale(20.49543 37.76633)"/><path fill="#26333e" d="M151 70h70v63h-70z"/><path fill="#e8fbff" d="M170 150l36 12 4-68z"/><path fill="#cff6ff" d="M100 27h14v49h-14z"/><path fill="#bcd1f5" d="M171 80l58-40-85-4z"/><ellipse cx="94" cy="64" rx="5" ry="24"/><path d="M118 49h28v13h-28z"/><path fill="#0d0400" d="M123.1 7.8l-1.4 13.9-32.8-3.5 1.4-13.9z"/><path d="M90 79h24v41H90z"/><ellipse fill="#91382b" rx="1" ry="1" transform="rotate(-110.5 49.3 27) scale(15.65685 31.67326)"/><path fill="#060000" d="M200 49h42v34h-42z"/><ellipse fill="#150000" rx="1" ry="1" transform="rotate(-136 120.3 -40.6) scale(25.21583 29.2512)"/><ellipse fill="#fac88e" rx="1" ry="1" transform="rotate(130.4 35.8 115) scale(36.5344 29.07367)"/><ellipse fill="#d8ccdf" rx="1" ry="1" transform="matrix(-7.01056 -1.40699 7.17996 -35.7754 251.3 59)"/></g></svg>