<svg xmlns="http://www.w3.org/2000/svg" viewBox="0 0 200 133"><filter id="b"><feGaussianBlur stdDeviation="12" /></filter><path fill="#3d2b1b" d="M0 0h200v133H0z"/><g filter="url(#b)" transform="translate(.5 .5)" fill-opacity=".5"><path fill="#fff" d="M146 43l12-28-41-6z"/><ellipse fill="#c4a98c" rx="1" ry="1" transform="matrix(18.61305 26.58219 -21.4807 15.04095 26 38.3)"/><path fill="#fdf0f6" d="M32.3 79.5l27.5-50.1L11.2 66l11.4-3.9z"/><ellipse fill="#040000" rx="1" ry="1" transform="matrix(-13.6512 -21.10338 48.55823 -31.41099 67 73.9)"/><path d="M38.4 32.7l5.4 13-32.2 13.6-5.4-13z"/><ellipse fill="#050106" cx="155" cy="117" rx="38" ry="81"/><path fill="#fff8c9" d="M160 25l-28 18-3-36z"/><path fill="#fbffff" d="M42 27h11v28H42z"/><path fill="#6e4503" d="M-1.3 21l25.5-44L55.3-5 29.8 39z"/><path fill="#fff" d="M21 72h12l4-18z"/><path fill="#b3876c" d="M148.7 71.4l5 9.4-.4 3.5-26.8-8.5z"/><path fill="#fffaed" d="M12.7 32.8L1.6 45.6l-14.3-12.4 11.1-12.8z"/><path d="M26.2 91.2l-29.5 5.2-4.9-27.6 29.5-5.2z"/><path fill="#7c694d" d="M152 13h17v26h-17z"/><path fill="#8e6544" d="M191 109l16-81-19 37z"/><path fill="#150700" d="M41.3 43L-.3 67l-7-12 41.6-24z"/><ellipse fill="#000004" cx="46" cy="17" rx="19" ry="6"/><path fill="#fff" d="M16 56h20v8H16z"/><ellipse fill="#170a00" rx="1" ry="1" transform="matrix(-15.93616 -22.67486 32.16916 -22.60887 91.4 51.5)"/><path fill="#d6d1ce" d="M42.3 24.6l31.1 1H32.2l21.7 15.6z"/><path fill="#670000" d="M79.4 37.8l-44.8 26 4.9 20.6 8.9-25z"/><ellipse fill="#a67d20" cx="15" cy="9" rx="7" ry="38"/></g></svg>