<svg xmlns="http://www.w3.org/2000/svg" viewBox="0 0 200 133"><filter id="b"><feGaussianBlur stdDeviation="12" /></filter><path fill="#ada8a7" d="M0 0h200v133H0z"/><g filter="url(#b)" transform="translate(.5 .5)" fill-opacity=".5"><ellipse fill="#5b5655" rx="1" ry="1" transform="matrix(75.96191 54.1831 -9.77623 13.70577 169.8 30.7)"/><ellipse fill="#dadfe2" cx="144" cy="119" rx="67" ry="67"/><path fill="#54150d" d="M38.6 50l4 15.2-24.3 9L2.7 23.8z"/><ellipse fill="#5a4127" rx="1" ry="1" transform="matrix(2.23928 13.05623 -19.60468 3.36241 67.4 88.3)"/><ellipse cy="128" rx="10" ry="10"/><ellipse fill="#cee6ed" rx="1" ry="1" transform="rotate(-49.5 142.5 20) scale(23.48398 109.4939)"/><path fill="#5d4241" d="M93.3 23.6l-13.6 28-27-13.2 13.6-28z"/><ellipse fill="#958280" cx="133" cy="14" rx="32" ry="32"/><path fill="#474a49" d="M194 53l-27.8 2-2.3-32 28-2z"/><ellipse fill="#e2b5b4" cx="103" cy="54" rx="31" ry="17"/><path d="M.7 113.1l16 27.8-17.4 10-16-27.8z"/><ellipse fill="#7f6d64" cx="38" cy="28" rx="6" ry="47"/><ellipse fill="#d8a79a" cx="153" cy="65" rx="13" ry="36"/><ellipse fill="#623d3c" cx="25" cy="62" rx="19" ry="10"/><path fill="#b3c0c3" d="M176 29h5v37h-5z"/><path fill="#0c161f" d="M215 98l-20.8-28.1-1.6-1L215 50z"/><path fill="#c0cfd0" d="M199.4 81.6l15.6 49.5-99.9 16.9 73.4-95.6z"/><ellipse fill="#ddc3bd" rx="1" ry="1" transform="matrix(4.12845 -10.04828 26.1836 10.75783 74.4 6.2)"/><path fill="#755f61" d="M129 32.1l-13 11.2-15-17.4 12.8-11.2z"/><ellipse fill="#786c5d" rx="1" ry="1" transform="matrix(11.8045 -.6393 1.2578 23.22472 68.3 84.9)"/><ellipse fill="#a46c36" cx="152" cy="51" rx="5" ry="9"/><path fill="#bacacd" d="M51 53l144.6 57-113.2 29.2 1.2-94.6z"/></g></svg>