<svg xmlns="http://www.w3.org/2000/svg" viewBox="0 0 700 467"><filter id="b"><feGaussianBlur stdDeviation="12" /></filter><path fill="#3f55a9" d="M0 0h700v464H0z"/><g filter="url(#b)" transform="translate(1.4 1.4) scale(2.73438)" fill-opacity=".5"><ellipse fill="#002500" cx="19" cy="58" rx="20" ry="255"/><ellipse fill="#4974ff" cx="176" cy="32" rx="138" ry="59"/><ellipse fill="#09001a" rx="1" ry="1" transform="matrix(25.18437 27.62112 -20.93325 19.0865 45 150.7)"/><ellipse fill="#f8ecec" rx="1" ry="1" transform="matrix(-11.42728 -3.47187 6.32187 -20.80773 155.5 140.7)"/><ellipse fill="#ffff57" rx="1" ry="1" transform="matrix(14.49456 86.19768 -3.66071 .61557 227.1 65.2)"/><ellipse fill="#00de01" rx="1" ry="1" transform="matrix(9.10076 10.03674 -23.9741 21.73839 16.2 50.3)"/><ellipse fill="#40183b" cx="126" cy="88" rx="19" ry="19"/><ellipse fill="#531b32" rx="1" ry="1" transform="matrix(-107.48903 62.05882 -15.76134 -27.29944 247 164.6)"/><ellipse fill="#364130" cx="115" cy="169" rx="42" ry="25"/><ellipse fill="#5a52fd" rx="1" ry="1" transform="matrix(28.96015 -5.65466 16.13615 82.64083 193.9 75)"/><ellipse fill="#b1e1fc" cx="134" cy="45" rx="16" ry="16"/><ellipse fill="#070cad" rx="1" ry="1" transform="matrix(6.21808 -22.58994 32.90703 9.05795 87.1 82.8)"/><ellipse fill="#7460e4" rx="1" ry="1" transform="matrix(-15.73171 42.11525 -10.62055 -3.9672 0 144)"/><path fill="#2b77f4" d="M38 0h90v78H38z"/><path fill="#b57efa" d="M63 156.3L95.5 132l19.3-36.1-9 52.4z"/><path fill="#37ba72" d="M115 138l19-51 18 98z"/><path fill="#c995ec" d="M186 107h15v51h-15z"/><ellipse fill="#000023" cx="19" cy="86" rx="19" ry="20"/><ellipse fill="#000040" cx="179" cy="126" rx="10" ry="10"/><ellipse fill="#293100" rx="1" ry="1" transform="rotate(-58.5 21.2 11.9) scale(38.45865 20.27843)"/><ellipse fill="#6a1900" cx="174" cy="169" rx="81" ry="4"/><ellipse fill="#00a2b4" rx="1" ry="1" transform="rotate(119.9 21.8 25.6) scale(33.36412 14.14719)"/></g></svg>