<svg xmlns="http://www.w3.org/2000/svg" viewBox="0 0 700 467"><filter id="b"><feGaussianBlur stdDeviation="12" /></filter><path fill="#4f555a" d="M0 0h700v464H0z"/><g filter="url(#b)" transform="translate(1.4 1.4) scale(2.73438)" fill-opacity=".5"><ellipse fill="#9fb2c5" cx="50" cy="65" rx="75" ry="75"/><ellipse cx="181" cy="138" rx="75" ry="75"/><path fill="#a9b9ce" d="M96 126l-112 23V47z"/><ellipse fill="#0a0b0a" rx="1" ry="1" transform="matrix(-11.6826 75.69186 -5.34902 -.82559 103.5 93)"/><ellipse fill="#8d99ab" rx="1" ry="1" transform="matrix(34.08467 22.2662 -13.71126 20.98893 120 0)"/><ellipse rx="1" ry="1" transform="matrix(38.03132 10.41165 -6.5015 23.74844 159.6 94.9)"/><path fill="#ffd8ac" d="M162 47h14v21h-14z"/><ellipse fill="#3e3833" cx="230" cy="54" rx="53" ry="53"/><path fill="#e8f4fe" d="M111 64h10v54h-10z"/><ellipse fill="#444f53" rx="1" ry="1" transform="matrix(20.29564 -24.32687 16.51933 13.7819 85.8 48.2)"/><ellipse fill="#595c60" cx="228" cy="90" rx="30" ry="30"/><path fill="#d2dcea" d="M42.3-18.1L-18 56.5-38.3 40 22-34.5z"/><ellipse fill="#1a2830" cx="86" cy="167" rx="108" ry="30"/><ellipse fill="#000006" cx="189" cy="139" rx="15" ry="68"/><ellipse fill="#4f595e" cx="49" cy="20" rx="35" ry="17"/><ellipse fill="#02070d" cx="128" cy="101" rx="9" ry="36"/><path fill="#df8856" d="M112 41h14v29h-14z"/><path fill="#f0baa4" d="M168.6 119.3l14.9 11.4-21.1-2.9.1-9.5z"/><path fill="#000001" d="M91 122l11-46 5 49z"/><ellipse fill="#000007" rx="1" ry="1" transform="matrix(-26.04844 -10.09836 4.3048 -11.1041 165.2 142.3)"/><ellipse fill="#2f485e" rx="1" ry="1" transform="matrix(-3.70538 -25.77968 22.55727 -3.24222 108.8 150)"/><ellipse fill="#9ba7b9" rx="1" ry="1" transform="matrix(-.31234 15.70987 -21.70127 -.43146 75 99)"/></g></svg>