<svg xmlns="http://www.w3.org/2000/svg" viewBox="0 0 700 1050"><filter id="b"><feGaussianBlur stdDeviation="12" /></filter><path fill="#bcc0af" d="M0 0h697v1050H0z"/><g filter="url(#b)" transform="translate(2 2) scale(4.10156)" fill-opacity=".5"><ellipse fill="#000700" cx="116" cy="114" rx="31" ry="62"/><ellipse fill="#fff" rx="1" ry="1" transform="matrix(-31.99907 39.3229 -107.97586 -87.86552 57.7 168.5)"/><ellipse fill="#516d00" rx="1" ry="1" transform="rotate(-98.3 129 29.7) scale(13.09439 42.22899)"/><ellipse fill="#050f00" cx="126" cy="109" rx="23" ry="33"/><ellipse fill="#869b2c" cx="118" rx="33" ry="65"/><ellipse fill="#17182a" rx="1" ry="1" transform="rotate(-171 15 112.9) scale(31.35061 5.35447)"/><ellipse fill="#fdf9ff" cx="26" cy="156" rx="59" ry="59"/><path fill="#fbfcf0" d="M106.1 67.1l2-24.4-4.6-3.7-70 73.7z"/><path fill="#1b2f00" d="M102 156h12v33h-12z"/><ellipse fill="#fff" cx="143" cy="236" rx="30" ry="30"/><path fill="#907649" d="M151 144h19v68h-19z"/><path fill="#4b5a08" d="M89 74h64v28H89z"/><ellipse fill="#fff" cx="36" cy="255" rx="41" ry="14"/><ellipse fill="#4e5559" rx="1" ry="1" transform="matrix(107.3908 4.2876 -.20974 5.25323 3.4 24)"/><path fill="#fff" d="M8 97h80v25H8z"/><path fill="#fdf2d3" d="M151 0h19v116h-19z"/><ellipse fill="#f8ffff" cx="19" cy="8" rx="37" ry="8"/><ellipse fill="#030000" rx="1" ry="1" transform="rotate(101.9 11.3 114.8) scale(24.03572 11.59699)"/><path fill="#fff" d="M117 173h33v55h-33z"/><path fill="#f4f0b0" d="M143 164l-11.8-2.7 5.9-25.3 11.7 2.7z"/><ellipse fill="#555967" cx="30" cy="63" rx="61" ry="4"/><path fill="#c3cc86" d="M141.9 44l-20.4 31.4 18.7 10.8 37-92.5z"/></g></svg>