<svg xmlns="http://www.w3.org/2000/svg" viewBox="0 0 700 467"><filter id="b"><feGaussianBlur stdDeviation="12" /></filter><path fill="#181717" d="M0 0h700v464H0z"/><g filter="url(#b)" transform="translate(1.4 1.4) scale(2.73438)" fill-opacity=".5"><ellipse fill="#62d2ff" cx="130" cy="77" rx="53" ry="26"/><ellipse fill="#ff0100" rx="1" ry="1" transform="rotate(-176.6 63 56) scale(49.70005 16.60983)"/><path fill="#62b5f4" d="M180.9 107.2l-8-48.4-45.7 2 14.3 44.2z"/><ellipse cx="109" cy="25" rx="255" ry="32"/><path fill="#f91812" d="M137 160L74.2 95l91 9.4-19.8 17.4z"/><path fill="#0038de" d="M79 65l-1 32 105-3z"/><ellipse fill="#000900" cx="120" cy="161" rx="255" ry="33"/><ellipse fill="#001400" cx="234" cy="81" rx="58" ry="58"/><ellipse cx="31" cy="88" rx="50" ry="50"/><path fill="#bae3b0" d="M172 85l4-29-54 13z"/><path fill="#eca6d3" d="M137 137.9l6.3 14.7-8.3 3.5-6.3-14.7z"/><path fill="#0062dd" d="M106 94l73 14-26-32z"/><path fill="#addeb8" d="M103.5 69.3l-20.8 3.3-2.2-13.9 20.8-3.3z"/><ellipse fill="#d00" cx="96" cy="113" rx="17" ry="17"/><path fill="#438317" d="M229.6 106.6l.3-11.9-34.6 58 4.6 2z"/><path fill="#a60201" d="M139.6 101.8l39.2 7.8 4 14-16.6 4.7z"/><ellipse fill="#ff2902" cx="133" cy="115" rx="15" ry="15"/><path fill="#0056ea" d="M82 74h27v22H82z"/><ellipse cx="46" cy="21" rx="53" ry="53"/><path fill="#113383" d="M102 77h37v14h-37z"/><ellipse fill="#100602" cx="166" cy="151" rx="27" ry="31"/><ellipse cx="217" rx="123" ry="62"/></g></svg>