<svg xmlns="http://www.w3.org/2000/svg" viewBox="0 0 200 133"><filter id="b"><feGaussianBlur stdDeviation="12" /></filter><path fill="#7d6d76" d="M0 0h200v133H0z"/><g filter="url(#b)" transform="translate(.5 .5)" fill-opacity=".5"><ellipse cx="34" cy="117" rx="56" ry="16"/><ellipse fill="#fee3f8" rx="1" ry="1" transform="matrix(2.6468 31.51223 -86.43481 7.25992 0 29.8)"/><ellipse rx="1" ry="1" transform="matrix(-68.80455 5.05269 -1.9017 -25.89625 186.2 5.6)"/><ellipse fill="#ffebd3" rx="1" ry="1" transform="rotate(62.2 -50.4 163.5) scale(21.24219 182.59769)"/><ellipse fill="#00060d" rx="1" ry="1" transform="matrix(46.87442 3.03123 -1.47814 22.85775 113.4 80.1)"/><path d="M141.4 58.5l41-22.8 12.2 21.8-41 22.8z"/><ellipse fill="#dff6ff" rx="1" ry="1" transform="matrix(39.84882 4.94638 -1.06253 8.55988 117.4 34.7)"/><ellipse cx="39" cy="132" rx="30" ry="30"/><ellipse fill="#e9b9c7" cx="53" cy="82" rx="17" ry="23"/><path fill="#00000b" d="M164 38h8v67h-8z"/><path fill="#bfdaff" d="M145 56L84 29l85 1z"/><path d="M71 98V33l21 50z"/><ellipse fill="#fff" cx="147" cy="115" rx="17" ry="10"/><path fill="#bcfaff" d="M78 28h12v31H78z"/><path fill="#d6c7e1" d="M189 32h11v54h-11z"/><path fill="#c1cffb" d="M72.2 26.9l-14.7 2.5L54.9 86l13.4 10.3z"/><path fill="#00000a" d="M96 37L74 81l40-42z"/><path fill="#fbc287" d="M94.8 144.7l2.4-44.9 28 1.5-2.4 44.9z"/><path d="M173 37h17v32h-17z"/><ellipse fill="#9e8b9f" rx="1" ry="1" transform="rotate(61.5 56.6 95.2) scale(31.6334 19.00544)"/><path d="M139.7 105.8l-27-31 7.6-6.6 27 31z"/><ellipse fill="#160002" cx="175" cy="3" rx="29" ry="29"/></g></svg>