<svg xmlns="http://www.w3.org/2000/svg" viewBox="0 0 700 467"><filter id="b"><feGaussianBlur stdDeviation="12" /></filter><path fill="#5c2845" d="M0 0h700v464H0z"/><g filter="url(#b)" transform="translate(1.4 1.4) scale(2.73438)" fill-opacity=".5"><path fill="#8fb1f4" d="M33 98l176-4-49-81z"/><ellipse fill="#ff0122" rx="1" ry="1" transform="rotate(-110 147.5 -7.6) scale(24.98599 49.89688)"/><ellipse cx="248" cy="41" rx="41" ry="66"/><ellipse fill="#639fff" rx="1" ry="1" transform="matrix(-3.21107 -36.81206 13.56155 -1.18296 67.5 68)"/><ellipse rx="1" ry="1" transform="matrix(-26.417 -9.69511 34.81255 -94.85636 19.6 11.8)"/><ellipse fill="#530000" cx="61" cy="151" rx="96" ry="31"/><ellipse fill="#ff3a39" cx="81" cy="120" rx="37" ry="15"/><ellipse fill="#000f35" cx="117" cy="13" rx="45" ry="24"/><path fill="#ff3d63" d="M40 26h16v76H40z"/><path fill="#c8e8cd" d="M104 36l-9 70 39-71z"/><ellipse fill="#ff425f" rx="1" ry="1" transform="matrix(8.09435 -.11872 .54913 37.43973 196.6 87.1)"/><path fill="#0e1668" d="M66 72l30-86-1 119z"/><ellipse fill="#390000" rx="1" ry="1" transform="matrix(9.01523 17.68632 -165.3581 84.28781 232.4 164)"/><ellipse fill="#150d52" rx="1" ry="1" transform="matrix(10.424 -.3742 2.02549 56.42325 156 90)"/><ellipse fill="#00000d" cx="222" rx="52" ry="36"/><path fill="#000303" d="M169 165l-1.4 19.9L-1 173l1.4-20z"/><path fill="#fb194d" d="M168 122h61v38h-61z"/><path fill="#8cc3ff" d="M169 105.8l33.4-39.7-27.9 3.6-11.6 37.6z"/><path fill="#f700cc" d="M72-16L50 35l46-51z"/><ellipse fill="#85d9ff" cx="60" cy="53" rx="10" ry="11"/><path fill="#a8a6b0" d="M52.6 115.7l-4.5-13.2 99.3-34.2 4.5 13.2z"/><path fill="#d8c767" d="M32.3 79.8L23.7 101l-12-4.9L20.3 75z"/></g></svg>