<svg xmlns="http://www.w3.org/2000/svg" viewBox="0 0 641 195"><filter id="b"><feGaussianBlur stdDeviation="12" /></filter><path fill="#a0abae" d="M0 0h641v192H0z"/><g filter="url(#b)" transform="translate(1.3 1.3) scale(2.5039)" fill-opacity=".5"><ellipse rx="1" ry="1" transform="rotate(177.2 124.6 30.2) scale(22.33595 39.18312)"/><ellipse fill="#01070f" rx="1" ry="1" transform="matrix(-19.47192 1.77785 -3.15243 -34.527 19 54.7)"/><ellipse fill="#fff" rx="1" ry="1" transform="matrix(19.36569 57.28227 -30.95594 10.46542 192.6 30.5)"/><ellipse fill="#fffffd" rx="1" ry="1" transform="matrix(16.01433 -56.21875 17.17417 4.8922 140 18.8)"/><ellipse rx="1" ry="1" transform="rotate(-151.7 134.2 -5.4) scale(26.75458 29.24254)"/><ellipse fill="#d6eaea" rx="1" ry="1" transform="matrix(-.81196 53.64191 -19.48642 -.29496 72.7 31)"/><path fill="#7b9495" d="M138 31h47v46h-47z"/><path fill="#3e3a34" d="M35 26h17v28H35z"/><path fill="#fffdff" d="M186.5 59.6L173 69.9l-55.6-17.4 30.7.4z"/><ellipse fill="#f8faf5" rx="1" ry="1" transform="matrix(18.03702 4.16077 -18.49664 80.18336 209.4 42.3)"/><ellipse fill="#0c1427" rx="1" ry="1" transform="rotate(27.3 -120 51.2) scale(38.09003 8.25419)"/><ellipse fill="#69adeb" cx="25" rx="33" ry="22"/><ellipse fill="#6ea0a2" rx="1" ry="1" transform="matrix(9.8378 48.79005 -10.66535 2.15051 78.5 76)"/><path fill="#f1f0ec" d="M189-14l-25 47L86 9z"/><path fill="#3b4e4a" d="M109 19h8v54h-8z"/><ellipse fill="#688095" rx="1" ry="1" transform="rotate(-5.9 140 -1876.9) scale(12.76087 6.29903)"/><path fill="#576660" d="M89.3 23.8l3.6 21 20.6-28.5-7.6-4.7z"/><path d="M275.5 54.5l-17 29.5-32-18.5 17-29.5z"/><ellipse fill="#fff" cx="86" cy="28" rx="4" ry="36"/><ellipse fill="#d4d7cf" rx="1" ry="1" transform="matrix(3.49896 -5.5348 16.62657 10.51088 47 66.8)"/><path fill="#1c2840" d="M239.7 5l9 1.2-2.4 16.8-9-1.2z"/><ellipse fill="#0e4124" cx="104" cy="1" rx="15" ry="4"/></g></svg>