<svg xmlns="http://www.w3.org/2000/svg" viewBox="0 0 200 133"><filter id="b"><feGaussianBlur stdDeviation="12" /></filter><path fill="#848a8b" d="M0 0h200v133H0z"/><g filter="url(#b)" transform="translate(.5 .5)" fill-opacity=".5"><ellipse cx="84" cy="132" rx="31" ry="104"/><ellipse fill="#fff" cx="43" cy="14" rx="20" ry="117"/><ellipse fill="#e7eff5" cx="85" cy="6" rx="61" ry="28"/><ellipse fill="#050e15" cx="95" cy="104" rx="39" ry="39"/><ellipse fill="#fff9f8" cy="90" rx="13" ry="114"/><path fill="#242927" d="M168 17.4l9 127.6-23 1.6L145 19z"/><ellipse fill="#fffffc" rx="1" ry="1" transform="matrix(-3.29812 -78.69066 7.237 -.30332 180 64)"/><ellipse fill="#4c4f5b" cx="119" cy="70" rx="16" ry="41"/><ellipse fill="#a6e5e7" cx="141" cy="63" rx="7" ry="63"/><ellipse fill="#fbf4f4" cx="38" cy="97" rx="11" ry="195"/><path fill="#00304b" d="M101 0h12v37h-12z"/><ellipse fill="#4e220c" cx="87" cy="24" rx="8" ry="10"/><ellipse fill="#fffefd" rx="1" ry="1" transform="rotate(20.6 -43.4 187.8) scale(7.62719 61.5015)"/><ellipse fill="#182123" rx="1" ry="1" transform="matrix(-3.9455 .4635 -7.22393 -61.49437 195.6 119.4)"/><path fill="#090709" d="M65.6 135.2l-16.7-3 5.5-31.4 16.7 3z"/><ellipse fill="#47748f" rx="1" ry="1" transform="matrix(12.41098 -2.17205 9.27773 53.01236 124.5 132)"/><path fill="#232828" d="M149.9-21.9l21.9 2-3.7 41.8-21.9-2z"/><path fill="#fffec7" d="M76.4 7.2L74.6 44l-1.2 40L80 46.5z"/><ellipse fill="#000202" rx="1" ry="1" transform="matrix(-20.41971 14.14158 -10.64513 -15.37102 85.8 99.1)"/><ellipse fill="#fff" cx="122" cy="10" rx="9" ry="23"/><path fill="#be3100" d="M100.8 75.3l1.6-12.9 34.8 4.3-1.6 12.9z"/><ellipse fill="#040000" rx="1" ry="1" transform="matrix(-6.48713 20.86169 -3.54244 -1.10155 67.5 52.8)"/></g></svg>