<svg xmlns="http://www.w3.org/2000/svg" viewBox="0 0 200 133"><filter id="b"><feGaussianBlur stdDeviation="12" /></filter><path fill="#3c353c" d="M0 0h200v133H0z"/><g filter="url(#b)" transform="translate(.5 .5)" fill-opacity=".5"><ellipse fill="#7cecff" cx="91" cy="39" rx="62" ry="21"/><ellipse rx="1" ry="1" transform="rotate(-15.3 209.6 -659.5) scale(24.03754 50.15489)"/><ellipse cy="21" rx="37" ry="37"/><ellipse fill="#1f0000" cx="160" cy="126" rx="178" ry="16"/><path fill="#df1424" d="M177.1 65.8l-.3 9-132-4.6.4-9z"/><path fill="#6fa3c5" d="M87.1 64.3l-1.2-34 75-2.6 1.2 34z"/><path d="M188-16L17 9l196 23z"/><path fill="#279cc7" d="M35 16h35v45H35z"/><ellipse fill="#7e6163" cx="54" cy="93" rx="23" ry="23"/><path fill="#b36b73" d="M121.6 64.8l-14 38.5-11.2-4 14-38.6z"/><ellipse fill="#1c0000" rx="1" ry="1" transform="rotate(-107.6 131.2 2.2) scale(23.59454 83.87262)"/><ellipse fill="#bf131c" cy="62" rx="43" ry="7"/><ellipse rx="1" ry="1" transform="rotate(135.4 -1.7 17) scale(17.50071 30.57272)"/><ellipse fill="#0097ca" rx="1" ry="1" transform="matrix(-.58695 -6.20654 14.60212 -1.38092 146.2 56.4)"/><ellipse cx="197" cy="30" rx="35" ry="35"/><path fill="#aeb7bc" d="M76 38h50v17H76z"/><ellipse fill="#160100" rx="1" ry="1" transform="matrix(24.4088 94.85113 -23.26355 5.9866 0 128.6)"/><path fill="#6b0b10" d="M142 63h55v14h-55z"/><ellipse rx="1" ry="1" transform="matrix(-1.78872 -14.77891 45.66969 -5.5275 29.6 .8)"/><path fill="#926f6d" d="M136 81h26v18h-26z"/><path fill="#2e205c" d="M62 55h57v5H62z"/><path fill="#869ea9" d="M99.2 53.4L68 31.7l16.6-14-55.7.7z"/></g></svg>