<svg xmlns="http://www.w3.org/2000/svg" viewBox="0 0 700 467"><filter id="b"><feGaussianBlur stdDeviation="12" /></filter><path fill="#5e664c" d="M0 0h700v464H0z"/><g filter="url(#b)" transform="translate(1.4 1.4) scale(2.73438)" fill-opacity=".5"><ellipse fill="#fff" cx="18" cy="166" rx="46" ry="46"/><ellipse fill="#e4e6e6" cx="16" cy="69" rx="71" ry="31"/><ellipse fill="#e5e3ff" rx="1" ry="1" transform="matrix(43.16822 -14.0262 6.045 18.60462 171.4 154)"/><ellipse fill="#001000" rx="1" ry="1" transform="matrix(31.83327 29.3749 -31.06665 33.6666 110.4 116.3)"/><ellipse rx="1" ry="1" transform="rotate(124.4 13.8 20.8) scale(34.09134 34.837)"/><ellipse fill="#021900" cx="244" cy="36" rx="65" ry="65"/><ellipse fill="#fffac1" rx="1" ry="1" transform="matrix(-20.43753 12.29731 -11.8507 -19.69527 129.3 53.6)"/><ellipse rx="1" ry="1" transform="matrix(-4.04617 29.66869 -28.48055 -3.88413 144.6 2.5)"/><ellipse fill="#fff" cx="48" cy="169" rx="53" ry="18"/><ellipse fill="#d5ca8e" rx="1" ry="1" transform="rotate(-152.6 97.5 21.7) scale(18.22094 35.02801)"/><path d="M101 59.2L60 36.4l13-23.6 41.2 22.8z"/><ellipse fill="#fff" cy="47" rx="21" ry="19"/><ellipse fill="#142900" rx="1" ry="1" transform="matrix(17.48098 18.229 -22.66374 21.73375 213 102.8)"/><ellipse fill="#274f00" rx="1" ry="1" transform="rotate(70.9 -56.8 105.5) scale(25.86515 25.13249)"/><ellipse fill="#0e1000" rx="1" ry="1" transform="rotate(-66.9 55.2 -3.7) scale(26.23685 14.77751)"/><ellipse fill="#d0ccf5" cx="11" cy="106" rx="27" ry="30"/><ellipse rx="1" ry="1" transform="matrix(5.16477 -13.21141 51.89534 20.28756 56.4 20.4)"/><ellipse fill="#071500" rx="1" ry="1" transform="rotate(129.2 37.5 83.7) scale(42.52536 19.72901)"/><ellipse fill="#7a7cb9" rx="1" ry="1" transform="matrix(-10.62613 -4.48588 42.93062 -101.69391 229.6 161.3)"/><ellipse fill="#c1c38f" rx="1" ry="1" transform="rotate(-63.8 58 -73.2) scale(12.67239 26.3117)"/><ellipse fill="#263800" rx="1" ry="1" transform="matrix(-85.14178 -37.90756 16.39957 -36.83404 211 23.8)"/><path fill="#e6e6ff" d="M10 162h119v8H10z"/></g></svg>