<svg xmlns="http://www.w3.org/2000/svg" viewBox="0 0 700 467"><filter id="b"><feGaussianBlur stdDeviation="12" /></filter><path fill="#877983" d="M0 0h700v464H0z"/><g filter="url(#b)" transform="translate(1.4 1.4) scale(2.73438)" fill-opacity=".5"><ellipse fill="#260901" cx="78" cy="152" rx="67" ry="67"/><ellipse fill="#fff" rx="1" ry="1" transform="matrix(-2.99214 -53.12887 18.28352 -1.0297 233.2 135)"/><ellipse fill="#ead5ff" rx="1" ry="1" transform="rotate(.5 6.2 20360.7) scale(181.67632 36.3353)"/><ellipse fill="#fff" cx="26" cy="85" rx="23" ry="27"/><path fill="#f4fcff" d="M128 119l-11.6-84.3 32.8 43.8-3.4 27z"/><ellipse fill="#2a2d1c" cx="71" cy="90" rx="22" ry="59"/><path fill="#00108d" d="M204.5 90v88h-29V90z"/><ellipse fill="#9a1000" rx="1" ry="1" transform="matrix(21.42762 18.14196 -20.74505 24.50216 26.6 138.2)"/><ellipse fill="#5b3093" rx="1" ry="1" transform="matrix(-24.45938 -9.6872 10.86527 -27.4339 147.8 32.4)"/><ellipse fill="#fff" rx="1" ry="1" transform="matrix(9.1683 2.57884 -9.95588 35.39514 233.7 99)"/><ellipse fill="#ecefe2" rx="1" ry="1" transform="matrix(31.45974 -15.31305 21.9685 45.13294 198.7 0)"/><path d="M168 47l29 52-14 25z"/><path fill="#000009" d="M129 55l-20 29 9 23z"/><ellipse fill="#1f1915" rx="1" ry="1" transform="matrix(35.05956 -31.45714 3.62373 4.03872 216.3 78.8)"/><path fill="#fff" d="M206 48h15v14h-15z"/><path fill="#9cccd4" d="M159 102l6 60 29-34z"/><ellipse fill="#dfdfe9" cx="243" cy="152" rx="28" ry="28"/><ellipse fill="#526d7b" rx="1" ry="1" transform="rotate(-150.2 77 49.7) scale(40.70746 30.94756)"/><path fill="#f3ece9" d="M173 56l31-6-37-14z"/><path fill="#050002" d="M158.5 44.8l-2 37-9-.6 2-37z"/><path fill="#1e2828" d="M159.8 124.3l-7.4-40.9 10 23.4-60 11.6z"/><ellipse fill="#a88a9b" rx="1" ry="1" transform="matrix(-23.42423 16.28307 -18.10693 -26.04796 64 23.7)"/></g></svg>