<svg xmlns="http://www.w3.org/2000/svg" viewBox="0 0 700 467"><filter id="b"><feGaussianBlur stdDeviation="12" /></filter><path fill="#9a8c99" d="M0 0h700v464H0z"/><g filter="url(#b)" transform="translate(1.4 1.4) scale(2.73438)" fill-opacity=".5"><ellipse fill="#910215" cx="108" cy="142" rx="255" ry="52"/><ellipse fill="#baffff" cx="207" rx="94" ry="94"/><ellipse fill="#8effff" cx="49" cy="23" rx="71" ry="71"/><ellipse fill="#b8000e" cx="124" cy="146" rx="26" ry="107"/><ellipse fill="#9ffafb" rx="1" ry="1" transform="rotate(66.8 -9.4 163) scale(20.18184 19.52209)"/><ellipse fill="#0a0a04" rx="1" ry="1" transform="rotate(108.3 37.8 126.8) scale(40.9045 12.15248)"/><path fill="#00f0ff" d="M0 142h19v23H0z"/><ellipse fill="#ef8aa8" cx="215" cy="108" rx="28" ry="31"/><ellipse fill="#c50000" cx="53" cy="153" rx="37" ry="17"/><ellipse fill="#1ac5e6" rx="1" ry="1" transform="matrix(14.31033 31.81631 -17.46981 7.85757 97.1 37.3)"/><ellipse fill="#c8e8f4" cy="27" rx="64" ry="64"/><ellipse fill="#ff000b" cx="111" cy="167" rx="17" ry="64"/><path fill="#547f88" d="M272.3 132.1l3 34.9-101.6 8.9-3-34.9z"/><ellipse cy="116" rx="7" ry="27"/><ellipse fill="#a7e7f5" cx="196" cy="24" rx="65" ry="65"/><path d="M30 87l18 22-29 2z"/><path fill="#ef91b9" d="M72 105l-17 32-27-81z"/><path fill="#0f0000" d="M231 92l-6 13 41-13z"/><path fill="#33503f" d="M113 39h27v31h-27z"/><ellipse fill="#b1aee1" rx="1" ry="1" transform="matrix(-.18078 25.89486 -4.53513 -.03166 90.1 143.1)"/><ellipse fill="#ffbbe4" cx="11" cy="123" rx="4" ry="19"/><path fill="#350510" d="M16.2 114.7l31.2 50.1 10-50L25.3 162z"/></g></svg>