<svg xmlns="http://www.w3.org/2000/svg" viewBox="0 0 200 133"><filter id="b"><feGaussianBlur stdDeviation="12" /></filter><path fill="#716c7d" d="M0 0h200v133H0z"/><g filter="url(#b)" transform="translate(.5 .5)" fill-opacity=".5"><ellipse fill="#f9e3e7" rx="1" ry="1" transform="matrix(1.19946 26.41426 -91.76463 4.167 157.5 42.2)"/><ellipse cx="155" cy="118" rx="63" ry="29"/><ellipse fill="#000016" cx="35" cy="111" rx="36" ry="28"/><ellipse fill="#e8cfe4" rx="1" ry="1" transform="rotate(-147.4 15.3 24) scale(21.17242 40.33469)"/><path fill="#fff" d="M57.5 127.7l22.3-20 16.7 18.6-22.3 20z"/><ellipse fill="#4d1200" cx="152" cy="77" rx="12" ry="52"/><ellipse fill="#471500" cx="55" cy="82" rx="23" ry="34"/><ellipse fill="#003f9b" rx="1" ry="1" transform="rotate(99.2 24.6 25) scale(21.75602 60.15859)"/><ellipse fill="#d1cbe9" cx="186" cy="8" rx="24" ry="79"/><ellipse fill="#65a3e0" rx="1" ry="1" transform="matrix(-1.56922 12.54093 -13.8916 -1.73823 25.5 95)"/><ellipse fill="#d3d7fb" rx="1" ry="1" transform="matrix(13.21228 27.20512 -14.89364 7.23316 126.1 37.6)"/><path fill="#d8d9f3" d="M74 92l19-47-7 93z"/><ellipse fill="#764d37" cx="107" cy="84" rx="16" ry="45"/><ellipse fill="#001656" rx="1" ry="1" transform="rotate(-67.4 105.1 50.4) scale(27.06631 30.36755)"/><path fill="#001a7a" d="M114.8-16l25.8 57-9.1-20.4 32.7-10.9z"/><path fill="#c1c3e8" d="M140 83l-13-58-4 96z"/><path fill="#00084d" d="M221.3 99l-11.1 41.6-43.5-11.7 11.1-41.5z"/><path fill="#080000" d="M78 98L59 64l-31 84z"/><path fill="#ccc3d5" d="M15.7 52l35-1.8-20-48.7-17.5 30.3z"/><path fill="#b98978" d="M24.2 98.8l-5.4-20.3 27-7.3 5.4 20.3z"/><path fill="#004489" d="M-16-9l54 1L5 37z"/><path fill="#d19871" d="M167 60h8v43h-8z"/></g></svg>