<svg xmlns="http://www.w3.org/2000/svg" viewBox="0 0 200 133"><filter id="b"><feGaussianBlur stdDeviation="12" /></filter><path fill="#4f3878" d="M0 0h200v133H0z"/><g filter="url(#b)" transform="translate(.5 .5)" fill-opacity=".5"><ellipse fill="#cea4fc" cx="120" cy="60" rx="47" ry="47"/><ellipse rx="1" ry="1" transform="matrix(-1.5743 18.74258 -198.3017 -16.6565 47.3 116.4)"/><ellipse fill="#fc7fff" rx="1" ry="1" transform="matrix(60.93469 4.79566 -.91795 11.66362 32 85.6)"/><ellipse fill="#00004e" cx="18" cy="20" rx="49" ry="56"/><ellipse fill="#003" cx="177" cy="1" rx="158" ry="22"/><ellipse fill="#e984f4" rx="1" ry="1" transform="matrix(1.3635 -14.4206 86.69165 8.19692 179.3 96.4)"/><path fill="#f1e2e6" d="M65 20h60v35H65z"/><path fill="#00007d" d="M153.7 70.2l8-4-32.7-76-3.3 71.3z"/><ellipse rx="1" ry="1" transform="matrix(-3.44053 36.90791 -15.51939 -1.4467 199 44.5)"/><ellipse rx="1" ry="1" transform="rotate(93.6 -32 94.1) scale(19.54495 170.36887)"/><path fill="#e7f8ff" d="M148 36h38v13h-38z"/><ellipse fill="#ffeaff" cx="108" cy="70" rx="41" ry="5"/><path fill="#270059" d="M122 26l-22.8 8-2-.6 15.5 15z"/><ellipse fill="#004" rx="1" ry="1" transform="matrix(18.68503 -49.81483 24.41966 9.15957 16 22.1)"/><path fill="#000032" d="M147 57h53v11h-53z"/><path fill="#150113" d="M85 75h7v41h-7z"/><path fill="#f1c8e5" d="M98 94l24 22V72z"/><path fill="#ffceff" d="M28 70h19v17H28z"/><ellipse fill="#19008d" cx="119" cy="60" rx="68" ry="5"/><ellipse fill="#806c46" cx="170" cy="114" rx="54" ry="7"/><ellipse fill="#fff" cx="179" cy="72" rx="6" ry="6"/><ellipse cx="194" cy="16" rx="9" ry="64"/></g></svg>