<svg xmlns="http://www.w3.org/2000/svg" viewBox="0 0 700 467"><filter id="b"><feGaussianBlur stdDeviation="12" /></filter><path fill="#414652" d="M0 0h700v464H0z"/><g filter="url(#b)" transform="translate(1.4 1.4) scale(2.73438)" fill-opacity=".5"><ellipse fill="#aaf5ff" cx="125" cy="57" rx="33" ry="31"/><ellipse fill="#ffbd99" rx="1" ry="1" transform="matrix(.79153 16.98664 -36.13841 1.68396 229.5 131.6)"/><ellipse fill="#fff" rx="1" ry="1" transform="rotate(-145.9 69 50.4) scale(8.75088 19.46952)"/><ellipse fill="#002967" cx="17" cy="41" rx="64" ry="64"/><ellipse fill="#ffe9be" cx="56" cy="130" rx="15" ry="15"/><ellipse fill="#690000" cx="16" cy="152" rx="33" ry="38"/><ellipse fill="#002e6e" rx="1" ry="1" transform="matrix(2.58227 -60.34883 50.75783 2.17188 222 42)"/><path fill="#5d2309" d="M111 85h83v85h-83z"/><ellipse fill="#ff020e" rx="1" ry="1" transform="rotate(160.4 -2.6 67.8) scale(19.08134 11.29819)"/><ellipse fill="#6ab9ff" cx="128" cy="72" rx="35" ry="15"/><ellipse fill="#0065a6" rx="1" ry="1" transform="matrix(-42.3446 8.20641 -5.1091 -26.36265 12.8 25.1)"/><path fill="#0a6eaf" d="M272.4 50.3l-67.7-6 6.9-78.6 67.7 6z"/><path fill="#fbffff" d="M41.2 143.5L54.4 127l11.3-1.7-5.2 24.6z"/><ellipse fill="#000a15" cx="53" cy="85" rx="26" ry="26"/><path fill="#030100" d="M159 149h65v21h-65z"/><ellipse fill="#9c0000" cx="161" cy="81" rx="4" ry="37"/><path fill="#000500" d="M0 147h108v17H0z"/><path fill="#d7ffff" d="M179 119.4l-18-8.7 4-8.1 18 8.7z"/><ellipse fill="#fffff6" cx="98" cy="135" rx="9" ry="13"/><path fill="#972505" d="M172 88l-81-3-88 56z"/><ellipse fill="#001c3f" cx="205" cy="70" rx="34" ry="34"/><path fill="#fff3dc" d="M139.7 46.3l-32-1.6.6-11 32 1.6z"/></g></svg>