<svg xmlns="http://www.w3.org/2000/svg" viewBox="0 0 700 467"><filter id="b"><feGaussianBlur stdDeviation="12" /></filter><path fill="#6d5245" d="M0 0h700v464H0z"/><g filter="url(#b)" transform="translate(1.4 1.4) scale(2.73438)" fill-opacity=".5"><ellipse fill="#fff" rx="1" ry="1" transform="matrix(-22.54924 30.20276 -25.16555 -18.78848 231.3 151.7)"/><ellipse fill="#dce4e2" cx="89" cy="107" rx="21" ry="48"/><ellipse fill="#00071e" cx="38" cy="119" rx="33" ry="33"/><ellipse cx="177" rx="16" ry="195"/><ellipse fill="#ffceb0" rx="1" ry="1" transform="rotate(-63.9 125 -84.8) scale(27.08964 17.64712)"/><ellipse fill="#4f0000" rx="1" ry="1" transform="matrix(18.88006 -12.17512 72.31063 112.13275 251.2 83)"/><ellipse rx="1" ry="1" transform="matrix(18.71529 -1.47293 4.64424 59.01062 39.6 3.9)"/><ellipse rx="1" ry="1" transform="matrix(13.29292 -5.10268 17.12566 44.61386 107.6 43.5)"/><ellipse fill="#fffff5" cx="226" cy="154" rx="26" ry="21"/><path fill="#d0cece" d="M8 92l107-20-65-13z"/><ellipse fill="#eac79d" rx="1" ry="1" transform="matrix(-14.03742 64.09897 -11.73933 -2.57087 100.1 169)"/><ellipse fill="#00040f" rx="1" ry="1" transform="matrix(16.70241 -12.88255 15.0969 19.57336 65.8 153.4)"/><ellipse fill="#c50000" cx="229" cy="92" rx="20" ry="27"/><path fill="#ce9576" d="M201 160L187 36l29 31z"/><ellipse fill="#ffdab7" rx="1" ry="1" transform="matrix(10.0847 -4.67275 14.51674 31.32995 0 57)"/><path fill="#0f0d00" d="M219.4-14l-1.9 55-83-3 2-55z"/><ellipse fill="#f8c3a5" cx="27" cy="167" rx="19" ry="18"/><ellipse fill="#bf9a8e" cx="67" cy="60" rx="13" ry="44"/><ellipse fill="#582a06" rx="1" ry="1" transform="rotate(-156.3 63.5 39.8) scale(9.0218 21.38254)"/><path fill="#ffeed2" d="M100 106l39-21-2 15z"/><ellipse fill="#000100" cx="45" rx="72" ry="12"/><ellipse fill="#00292d" rx="1" ry="1" transform="matrix(23.63418 12.45695 -17.78927 33.75103 36.3 120.2)"/></g></svg>