<svg xmlns="http://www.w3.org/2000/svg" viewBox="0 0 700 467"><filter id="b"><feGaussianBlur stdDeviation="12" /></filter><path fill="#951e5d" d="M0 0h700v464H0z"/><g filter="url(#b)" transform="translate(1.4 1.4) scale(2.73438)" fill-opacity=".5"><ellipse fill="#ff1cff" rx="1" ry="1" transform="matrix(-12.89704 -48.6925 110.87039 -29.36591 41 30.1)"/><ellipse fill="#260e10" cx="110" cy="153" rx="100" ry="54"/><ellipse fill="#101407" cx="188" cy="30" rx="33" ry="33"/><ellipse fill="#476b42" cx="240" cy="50" rx="33" ry="70"/><ellipse fill="#ff0aff" rx="1" ry="1" transform="matrix(8.22363 33.38457 -114.86548 28.29483 52.6 18.5)"/><ellipse fill="#ff1e1a" rx="1" ry="1" transform="rotate(-134.6 118 7.5) scale(32.49761 28.79895)"/><ellipse fill="#ff0439" cx="96" cy="98" rx="26" ry="26"/><ellipse fill="#011815" cx="53" cy="119" rx="24" ry="32"/><ellipse fill="#6d0000" rx="1" ry="1" transform="matrix(19.42954 -55.2033 27.09229 9.5355 241.6 134.6)"/><path fill="#bfd7c0" d="M205 24l37-9 29 52z"/><ellipse fill="#da6cce" cx="105" cy="41" rx="28" ry="28"/><ellipse fill="#ff3f5a" cx="7" cy="107" rx="19" ry="32"/><ellipse fill="#ff0006" rx="1" ry="1" transform="matrix(63.19812 .19051 -.02414 8.00921 131.3 87.2)"/><ellipse fill="#ff0003" cx="219" cy="139" rx="16" ry="16"/><ellipse fill="#422842" rx="1" ry="1" transform="rotate(158.9 73.8 40.8) scale(41.71107 28.07057)"/><ellipse fill="#c41962" cx="93" cy="169" rx="31" ry="31"/><path fill="#ff3732" d="M146 134h28v19h-28z"/><ellipse fill="#2c142e" cx="133" cy="119" rx="28" ry="28"/><path fill="#200011" d="M185.2 10.5l3-28.8 74.6 7.8-3 28.8z"/><path fill="#e4c8ad" d="M207 94h18v16h-18z"/><ellipse fill="#ff2f6e" rx="1" ry="1" transform="matrix(-21.29874 -.1675 .1078 -13.70727 47.8 69.6)"/><ellipse fill="#260125" rx="1" ry="1" transform="rotate(53 24.8 290.5) scale(40.84311 10.51893)"/></g></svg>