<svg xmlns="http://www.w3.org/2000/svg" viewBox="0 0 641 195"><filter id="b"><feGaussianBlur stdDeviation="12" /></filter><path fill="#887e76" d="M0 0h641v192H0z"/><g filter="url(#b)" transform="translate(1.3 1.3) scale(2.5039)" fill-opacity=".5"><ellipse fill="#b7fbff" rx="1" ry="1" transform="matrix(51.3838 -.15513 .08002 26.50733 127.2 20.4)"/><ellipse fill="#502b26" rx="1" ry="1" transform="matrix(-43.22089 39.32442 -16.48927 -18.12311 35 53.4)"/><ellipse fill="#9a6f24" cx="221" cy="52" rx="43" ry="43"/><ellipse fill="#deeffd" cx="136" cy="29" rx="46" ry="15"/><ellipse fill="#6e5256" cx="135" cy="63" rx="63" ry="27"/><ellipse fill="#4183ff" cx="99" rx="22" ry="22"/><ellipse fill="#c3b381" cx="233" cy="6" rx="36" ry="23"/><path fill="#2a1927" d="M123 68h84v9h-84z"/><ellipse fill="#db9d92" rx="1" ry="1" transform="matrix(-.3194 4.50423 -41.68 -2.95551 78.7 63.9)"/><path fill="#6fafff" d="M181.6 41.6l-16-.2.8-51 16 .2z"/><ellipse fill="#532f23" rx="1" ry="1" transform="matrix(11.03649 -8.34683 20.90093 27.63598 6 49)"/><ellipse fill="#9ca592" cx="48" rx="17" ry="30"/><path fill="#ffc9a7" d="M109.6 58L122 76.2l-44.5 10 27.6 5.8z"/><path fill="#79b7ff" d="M80 9h21v34H80z"/><ellipse fill="#dce6e6" cx="132" cy="25" rx="30" ry="19"/><ellipse fill="#518cf1" rx="1" ry="1" transform="matrix(1.51203 -8.21865 36.35614 6.68865 140 1.4)"/><path fill="#000004" d="M75 0h4v24h-4z"/><path fill="#802f25" d="M2 70h106v7H2z"/><path fill="#b4918e" d="M170 69.2l7.2 15.1 23.6-30.2-56.7 4.8z"/><path fill="#36231e" d="M27 46l29-9 19 27z"/><ellipse fill="#d99a80" rx="1" ry="1" transform="matrix(-3.44685 -8.28052 13.97912 -5.81895 69.5 66.4)"/><ellipse fill="#ff7a78" cx="12" cy="73" rx="6" ry="6"/></g></svg>