<svg xmlns="http://www.w3.org/2000/svg" viewBox="0 0 200 133"><filter id="b"><feGaussianBlur stdDeviation="12" /></filter><path fill="#737884" d="M0 0h200v133H0z"/><g filter="url(#b)" transform="translate(.5 .5)" fill-opacity=".5"><ellipse fill="#fff" rx="1" ry="1" transform="rotate(115.9 -9.2 62.1) scale(23.1987 50.90425)"/><ellipse rx="1" ry="1" transform="matrix(-81.14923 18.73478 -11.4779 -49.71627 55.7 8)"/><ellipse fill="#fff" rx="1" ry="1" transform="matrix(-48.60625 -4.18516 1.76703 -20.52218 166.4 107.4)"/><path d="M88 111l36 5-32-82z"/><ellipse fill="#f9feff" rx="1" ry="1" transform="rotate(174.4 85.2 35.7) scale(58.59482 13.38024)"/><path fill="#fff" d="M12 31h31v15H12z"/><path fill="#f5fcff" d="M104.4 66.1l-77.5-.2 66.5 31.5L12.3 129z"/><ellipse fill="#000021" cx="166" cy="5" rx="39" ry="16"/><ellipse fill="#000015" rx="1" ry="1" transform="matrix(-.6665 -22.43647 73.44365 -2.1817 55.5 8.1)"/><path fill="#fff" d="M53 76l-5 49-64-42z"/><ellipse fill="#0f0600" rx="1" ry="1" transform="matrix(7.51304 -16.5624 13.16468 5.97176 12.5 125)"/><ellipse fill="#000111" cx="181" cy="81" rx="80" ry="6"/><path d="M110 37h34v15h-34zm50 0h10v27h-10z"/><path fill="#d3e0f0" d="M116 88h84v32h-84z"/><path d="M118 121h19v12h-19z"/><ellipse fill="#1a2028" rx="1" ry="1" transform="matrix(-.71043 -5.30155 32.34083 -4.33382 85.5 84.8)"/><path fill="#fff" d="M84 56L38 88l50-11z"/><path d="M23 78.5h-8v-25h8z"/><path fill="#fff" d="M130 19l-3 23 19-25zm35.7-5L178 27.6l-18.3 11-.7-6.8zM2.3 122.6l-12.6-3.2 8-32 12.6 3.2z"/></g></svg>