<svg xmlns="http://www.w3.org/2000/svg" viewBox="0 0 200 133"><filter id="b"><feGaussianBlur stdDeviation="12" /></filter><path fill="#444157" d="M0 0h200v133H0z"/><g filter="url(#b)" transform="translate(.5 .5)" fill-opacity=".5"><ellipse fill="#f0dcff" rx="1" ry="1" transform="rotate(58.4 2.2 118.4) scale(24.68346 44.79285)"/><ellipse cx="31" cy="90" rx="31" ry="31"/><ellipse fill="#000006" cx="185" cy="62" rx="31" ry="199"/><ellipse fill="#cb70a1" rx="1" ry="1" transform="matrix(-16.22732 -6.2616 21.59544 -55.96589 129.1 120.6)"/><ellipse cx="88" cy="119" rx="26" ry="26"/><ellipse fill="#7fa9c5" rx="1" ry="1" transform="matrix(37.4013 2.84438 -1.51465 19.91646 65.8 9.9)"/><path fill="#79cfff" d="M-9.1 119.3l15.5-12.6 22.7 28-15.5 12.6z"/><path d="M83 26h16v26H83z"/><path fill="#d5cbfa" d="M74.4 33.3l8.4 7.2-6.4 65.7-20.5 9.9z"/><ellipse rx="1" ry="1" transform="matrix(-34.92642 -20.23337 8.76307 -15.12664 58.2 132)"/><ellipse fill="#b8eaff" rx="1" ry="1" transform="matrix(2.39326 -5.0244 10.63717 5.0668 193 29.3)"/><ellipse fill="#e6ffff" cx="120" cy="132" rx="6" ry="30"/><ellipse fill="#b20000" rx="1" ry="1" transform="matrix(12.6596 .81253 -1.79841 28.02008 138 132)"/><ellipse cx="42" cy="71" rx="18" ry="31"/><path fill="#fee7ff" d="M140 40.2l-20.5 8.3-19.4-14.6 13.7-14.4z"/><path fill="#99a7e0" d="M16.7 91l.6-30h8l-.6 30z"/><ellipse fill="#2b2b4e" cx="107" cy="86" rx="30" ry="17"/><path fill="#8f7dae" d="M103.5 70l34-14.5 7 16.6-34 14.4z"/><path fill="#ddd7fc" d="M57.9 72.7l17.8-28L93 91.1l4.6-31z"/><ellipse rx="1" ry="1" transform="matrix(23.83753 -21.69049 11.13116 12.23299 87.4 114)"/><ellipse fill="#bcd9ff" rx="1" ry="1" transform="matrix(-4.04489 -2.15977 13.93323 -26.09462 118.6 125.7)"/><path fill="#6696ff" d="M-.2 107.3L36 138.8l-13.8 15.9-36.2-31.5z"/></g></svg>