<svg xmlns="http://www.w3.org/2000/svg" viewBox="0 0 641 195"><filter id="b"><feGaussianBlur stdDeviation="12" /></filter><path fill="#7e3e45" d="M0 0h641v192H0z"/><g filter="url(#b)" transform="translate(1.3 1.3) scale(2.5039)" fill-opacity=".5"><ellipse rx="1" ry="1" transform="matrix(-28.02044 -16.06966 11.98882 -20.90474 2.4 24.6)"/><path fill="#c7d6bb" d="M230.9 59.8l-30 52L167 92.1l30-52z"/><ellipse fill="#fff" cx="97" cy="76" rx="244" ry="4"/><path fill="#140000" d="M117.2 22.9l1.6 47-38 1.2-1.6-47z"/><path fill="#e9f0c8" d="M53.5 61.7L21.9 44.4l39.9 40.8 15.4-49.3z"/><ellipse fill="#730005" rx="1" ry="1" transform="matrix(-111.93728 14.3395 -2.00236 -15.63085 226.2 25.4)"/><ellipse fill="#d6cdbc" cx="139" cy="54" rx="26" ry="8"/><path d="M173.3-16l-14.2 38.5 28.5 32.3-6.4 15z"/><path fill="#ffffba" d="M226.8 53.7l-6.1-16.4 15.4 5.4 10 10.4z"/><ellipse fill="#c9ad9f" cx="48" rx="37" ry="13"/><ellipse cx="15" cy="67" rx="27" ry="7"/><ellipse fill="#bf000b" rx="1" ry="1" transform="rotate(87.1 10.9 42.5) scale(17.6229 31.41123)"/><path fill="#f8e6ce" d="M171 13l55-26 13 14z"/><path fill="#100" d="M221.2 52.4l-21.8 23.4-6.6-6.2 21.8-23.4z"/><ellipse fill="#ff192e" rx="1" ry="1" transform="rotate(-136.3 65.2 -15) scale(12.2162 13.98937)"/><path fill="#e2d8f6" d="M70-16h97l-4 28z"/><ellipse rx="1" ry="1" transform="matrix(.59258 5.12156 -20.81823 2.40875 245.8 65.6)"/><ellipse fill="#ff1a2b" cx="228" cy="23" rx="7" ry="20"/><ellipse fill="#fff" cx="37" cy="49" rx="7" ry="5"/><ellipse cx="146" rx="4" ry="21"/><path fill="#000007" d="M39-16L77.9-5.5l-29 15 6.6 50.7z"/><ellipse fill="#250001" cx="251" cy="22" rx="12" ry="51"/></g></svg>