<svg xmlns="http://www.w3.org/2000/svg" viewBox="0 0 700 467"><filter id="b"><feGaussianBlur stdDeviation="12" /></filter><path fill="#564b39" d="M0 0h700v464H0z"/><g filter="url(#b)" transform="translate(1.4 1.4) scale(2.73438)" fill-opacity=".5"><ellipse fill="#d4e2d6" rx="1" ry="1" transform="matrix(67.10832 -39.05797 21.33648 36.65975 160.8 82)"/><ellipse rx="1" ry="1" transform="rotate(177.3 32 6) scale(178.25979 34.80882)"/><path d="M-2-16l-14 179 65-22z"/><ellipse fill="#fff" cx="206" cy="115" rx="15" ry="15"/><ellipse fill="#ffd2aa" rx="1" ry="1" transform="matrix(.10494 12.02533 -64.0813 .55923 48.7 167.3)"/><ellipse cx="242" cy="111" rx="19" ry="44"/><ellipse fill="#d96d02" cx="45" cy="79" rx="26" ry="32"/><ellipse cx="107" cy="70" rx="12" ry="40"/><ellipse fill="#ffce3f" cx="86" cy="71" rx="8" ry="38"/><path fill="#020000" d="M224 110l-32-61 10-40z"/><ellipse fill="#fff" cx="50" cy="117" rx="9" ry="15"/><ellipse fill="#b5d2d5" cx="156" cy="74" rx="40" ry="40"/><path d="M63 105h28v45H63zm105 6h27v23h-27z"/><ellipse rx="1" ry="1" transform="matrix(7.96966 39.45703 -177.602 35.87261 61.7 12.4)"/><path d="M248 35l-8 80-22-131z"/><ellipse fill="#ffc348" rx="1" ry="1" transform="matrix(9.1465 -1.72134 7.39119 39.27368 255 49)"/><ellipse rx="1" ry="1" transform="rotate(93.5 6.7 68.3) scale(30.34023 5.24694)"/><path fill="#d99953" d="M233.4 85.6l-7.5-64.3-29.7 78.6 67.4-18.6z"/><ellipse rx="1" ry="1" transform="rotate(42.7 -140.8 58) scale(59.78147 22.28228)"/><ellipse fill="#fffffb" cx="151" cy="108" rx="11" ry="16"/><ellipse fill="#fffce9" rx="1" ry="1" transform="matrix(-.65808 17.94673 -8.05629 -.29541 100.3 114.3)"/></g></svg>