<svg xmlns="http://www.w3.org/2000/svg" viewBox="0 0 700 467"><filter id="b"><feGaussianBlur stdDeviation="12" /></filter><path fill="#7a7d87" d="M0 0h700v464H0z"/><g filter="url(#b)" transform="translate(1.4 1.4) scale(2.73438)" fill-opacity=".5"><ellipse fill="#100000" cx="127" cy="167" rx="140" ry="29"/><ellipse fill="#f7ffff" rx="1" ry="1" transform="matrix(-77.6162 8.63492 -2.83877 -25.5167 40.4 119.6)"/><ellipse fill="#e6ffff" cx="62" cy="47" rx="35" ry="18"/><ellipse fill="#999aff" rx="1" ry="1" transform="matrix(65.38184 20.07362 -11.41299 37.17327 225 68.5)"/><path fill="#020f00" d="M70 69h66v27H70z"/><ellipse rx="1" ry="1" transform="matrix(-.43548 9.23436 -31.32208 -1.47711 12.8 85.4)"/><ellipse fill="#9eeeff" cx="97" cy="48" rx="36" ry="19"/><ellipse fill="#b3905e" cx="155" cy="131" rx="34" ry="67"/><ellipse fill="#0b0000" rx="1" ry="1" transform="matrix(7.66415 -4.95794 11.23943 17.37429 150.8 22)"/><path fill="#0000f1" d="M13 33h18v34H13z"/><ellipse fill="#afb7a3" rx="1" ry="1" transform="matrix(63.58571 33.38325 -11.08896 21.12136 212 108.1)"/><ellipse rx="1" ry="1" transform="matrix(-38.26606 11.77218 -3.13997 -10.20662 81 150.2)"/><ellipse fill="#45443d" rx="1" ry="1" transform="rotate(-3.2 81.6 -2177.8) scale(255 16.05417)"/><ellipse fill="#b8d0f6" rx="1" ry="1" transform="matrix(14.64954 -.7461 1.43763 28.22754 180.7 39.1)"/><ellipse fill="#7c75ff" cx="227" cy="51" rx="68" ry="20"/><ellipse fill="#faffff" rx="1" ry="1" transform="matrix(1.54536 13.35613 -27.0013 3.12416 56.8 44.9)"/><path fill="#000015" d="M113.1 120.7l10.4-27 9.4 3.6-10.4 27z"/><path fill="#2b0b00" d="M126.5 38.5l-8-10.2 19-14.8 8 10.2z"/><ellipse fill="#e09572" rx="1" ry="1" transform="matrix(-2.99443 -20.27822 12.88119 -1.90213 141 46.3)"/><ellipse fill="#fff" cx="117" cy="54" rx="11" ry="11"/><ellipse fill="#f8c185" cx="182" cy="21" rx="23" ry="11"/><path fill="#459dff" d="M82 33h32v38H82z"/></g></svg>