<svg xmlns="http://www.w3.org/2000/svg" viewBox="0 0 700 467"><filter id="b"><feGaussianBlur stdDeviation="12" /></filter><path fill="#380226" d="M0 0h700v464H0z"/><g filter="url(#b)" transform="translate(1.4 1.4) scale(2.73438)" fill-opacity=".5"><ellipse fill="#ff2fee" cx="133" cy="52" rx="38" ry="30"/><ellipse rx="1" ry="1" transform="matrix(77.6115 13.59691 -10.4271 59.51817 218.2 137.2)"/><ellipse cx="51" cy="134" rx="62" ry="62"/><ellipse fill="#ab1494" rx="1" ry="1" transform="matrix(-17.23246 -57.4042 51.81167 -15.55361 130.2 2.6)"/><ellipse fill="#a20075" cx="32" cy="54" rx="23" ry="26"/><ellipse fill="#ff9fe7" cx="133" cy="40" rx="30" ry="7"/><ellipse fill="#860066" cx="242" cy="51" rx="26" ry="26"/><path fill="#88007e" d="M108 51l93 26-122 5z"/><ellipse fill="#000100" rx="1" ry="1" transform="rotate(172.5 108.2 83.1) scale(75.85037 48.52277)"/><ellipse fill="#140017" cx="152" cy="21" rx="78" ry="7"/><ellipse rx="1" ry="1" transform="matrix(33.75837 46.97975 -32.55488 23.39305 16.4 128)"/><ellipse fill="#36003d" cx="163" cy="60" rx="16" ry="11"/><ellipse fill="#e012f8" cx="153" cy="73" rx="34" ry="3"/><ellipse fill="#2b0113" cx="114" cy="88" rx="103" ry="13"/><ellipse fill="#8f0038" rx="1" ry="1" transform="rotate(129.4 35.7 86.1) scale(18.09457 11.04561)"/><path fill="#680044" d="M-14 71L78 6 58-16z"/><path fill="#e700ff" d="M78 71h36v4H78z"/><ellipse fill="#3c0000" cx="117" cy="156" rx="35" ry="35"/><path fill="#fd10aa" d="M156.6 35.7l12.9.5-13 17-44.2 3z"/><path fill="#bae5bc" d="M116 36h32v7h-32z"/><path fill="#1c0035" d="M85 68L75 28l43 41z"/><ellipse fill="#a0f" cx="89" cy="38" rx="3" ry="9"/></g></svg>