<svg xmlns="http://www.w3.org/2000/svg" viewBox="0 0 700 467"><filter id="b"><feGaussianBlur stdDeviation="12" /></filter><path fill="#9a8c99" d="M0 0h700v464H0z"/><g filter="url(#b)" transform="translate(1.4 1.4) scale(2.73438)" fill-opacity=".5"><ellipse fill="#a00000" rx="1" ry="1" transform="matrix(-16.60422 -60.69482 87.97734 -24.06788 109.2 146.5)"/><ellipse fill="#a4ffff" rx="1" ry="1" transform="matrix(245.60692 3.1181 -.63728 50.1973 123 42.9)"/><ellipse fill="#8a0000" rx="1" ry="1" transform="matrix(-18.31473 -2.8632 5.78992 -37.0358 122.5 78.2)"/><ellipse fill="#a7fdff" rx="1" ry="1" transform="matrix(-14.14643 6.40946 -8.77983 -19.37812 144 109)"/><ellipse fill="#531229" cx="22" cy="120" rx="31" ry="31"/><ellipse fill="#f40000" rx="1" ry="1" transform="matrix(-2.89855 73.9871 -14.79716 -.5797 112.2 145)"/><ellipse fill="#7a3b4b" rx="1" ry="1" transform="matrix(-99.07836 -28.02483 17.90478 -63.30017 247.8 159.7)"/><ellipse fill="#ff8baf" rx="1" ry="1" transform="matrix(19.31392 9.15795 -16.01611 33.77765 212.7 105)"/><ellipse fill="#04c6ec" rx="1" ry="1" transform="matrix(-14.09956 -27.3174 15.92168 -8.2178 95.6 35.8)"/><ellipse fill="#b3071a" cx="122" cy="79" rx="29" ry="12"/><ellipse fill="#ca0000" cx="54" cy="157" rx="34" ry="17"/><ellipse fill="#de88ac" rx="1" ry="1" transform="matrix(16.10487 -13.2287 9.79537 11.92508 51.3 113)"/><ellipse fill="#d20009" rx="1" ry="1" transform="rotate(43.7 -133 233.8) scale(32.49354 29.9641)"/><ellipse fill="#b5e6f4" cx="205" cy="24" rx="69" ry="69"/><path d="M192.2 96l-9.4 30.5-21-6.4 9.4-30.6z"/><path fill="#00c0ff" d="M15.9 141.5l-31.9 5.4L17 168l-2.2-44.9z"/><ellipse fill="#c2edf7" rx="1" ry="1" transform="rotate(-130.4 15.3 21.5) scale(37.02369 58.81854)"/><ellipse cy="111" rx="7" ry="22"/><ellipse fill="#00110e" rx="1" ry="1" transform="rotate(-58.7 213.3 -74.3) scale(17.89485 8.60625)"/><path d="M23 92h20v19H23z"/><path fill="#e4c9f8" d="M82 138l13 19-2-47z"/><ellipse fill="#72d8f2" cx="77" cy="54" rx="27" ry="38"/></g></svg>