<svg xmlns="http://www.w3.org/2000/svg" viewBox="0 0 200 133"><filter id="b"><feGaussianBlur stdDeviation="12" /></filter><path fill="#726a5b" d="M0 0h200v133H0z"/><g filter="url(#b)" transform="translate(.5 .5)" fill-opacity=".5"><ellipse fill="#f4ffff" cx="199" cy="65" rx="17" ry="199"/><ellipse fill="#f2ba6b" cx="85" rx="56" ry="56"/><ellipse fill="#0a182f" cx="66" cy="82" rx="121" ry="33"/><ellipse fill="#00082e" cx="165" cy="95" rx="15" ry="52"/><path fill="#fff" d="M47 81.5l-4.8 1-11.3-58 5-1zm23.2-32.3L74.7 86l-7 .9L63.4 50z"/><path d="M126.7 133.9l-24.7 3.9-4.7-29.7 24.7-3.9z"/><ellipse fill="#cead6f" rx="1" ry="1" transform="matrix(-12.18238 -21.96931 64.81839 -35.94297 163.6 11.1)"/><ellipse fill="#f2c59e" rx="1" ry="1" transform="matrix(-2.60738 -29.29849 9.05227 -.8056 140.2 112.6)"/><ellipse fill="#f4c98a" cx="89" cy="121" rx="8" ry="39"/><ellipse fill="#deb478" cx="8" cy="111" rx="12" ry="28"/><path fill="#000820" d="M23 84h57v38H23z"/><ellipse fill="#edfeff" cx="199" cy="114" rx="19" ry="47"/><path fill="#ebe8e5" d="M169 0h19v39h-19z"/><ellipse fill="#072743" cx="172" cy="71" rx="15" ry="34"/><ellipse fill="#c4a38c" cx="53" cy="38" rx="98" ry="11"/><path fill="#007ee8" d="M191 32h9v22h-9z"/><path fill="#6e4200" d="M187-16l-43 47-16-15z"/><ellipse fill="#754300" cx="8" cy="9" rx="26" ry="22"/><path fill="#abbbd7" d="M149.8 79.9l16-23-2.4-24-5.7-11.4z"/><ellipse rx="1" ry="1" transform="matrix(25.36835 1.53474 -.57532 9.50965 10.8 74.8)"/><ellipse fill="#001021" cx="161" cy="107" rx="13" ry="28"/></g></svg>