<svg xmlns="http://www.w3.org/2000/svg" viewBox="0 0 200 133"><filter id="b"><feGaussianBlur stdDeviation="12" /></filter><path fill="#44492b" d="M0 0h200v133H0z"/><g filter="url(#b)" transform="translate(.5 .5)" fill-opacity=".5"><ellipse fill="#ddd8f5" cx="98" cy="89" rx="16" ry="21"/><ellipse fill="#ffb21b" cx="115" cy="127" rx="164" ry="9"/><ellipse fill="#fff" cx="98" cy="41" rx="13" ry="13"/><ellipse fill="#ff0" rx="1" ry="1" transform="matrix(-7.05813 13.42468 -23.36847 -12.28616 125.3 0)"/><ellipse fill="#001628" rx="1" ry="1" transform="rotate(170.3 5.8 16.6) scale(83.64074 40.93599)"/><ellipse fill="#001400" cx="145" cy="48" rx="34" ry="29"/><ellipse fill="#fff" cx="62" cy="66" rx="5" ry="18"/><path fill="#0047b1" d="M94.8 28.2L73 61.2 47.8 30.9l14-13.3z"/><path fill="#0d020b" d="M110.3 87.6L142 61.8l29.6 36.6-31.8 25.8z"/><ellipse fill="#000400" rx="1" ry="1" transform="matrix(-24.30283 -1.95536 4.81113 -59.79674 4.9 28.2)"/><path fill="#170011" d="M85 72l-19 55-48-18z"/><ellipse fill="#c6e100" rx="1" ry="1" transform="rotate(168.1 96.2 17.7) scale(18.31601 8.20405)"/><path fill="#abb974" d="M18.5 78.2L30 105.8l-13.3 3.6-18.7-7.7z"/><path fill="#501e00" d="M91 104h59v16H91z"/><path fill="#8ba242" d="M170.2 107.6l-13-35.7 20.6-7.5 13 35.7z"/><ellipse fill="#033a1b" rx="1" ry="1" transform="matrix(2.80976 -37.82607 21.377 1.5879 191.3 59.2)"/><path fill="#96a21a" d="M39 10h12v31H39z"/><path fill="#1b0d05" d="M26 50h29v65H26z"/><path fill="#f6f2ff" d="M84 96h4v31h-4z"/><path fill="#ffff46" d="M132 9l-24 2v-27z"/><ellipse fill="#ffd25b" rx="1" ry="1" transform="matrix(74.91482 -1.56118 .04421 2.12152 127.7 132)"/><ellipse fill="#14152d" cx="99" cy="58" rx="36" ry="8"/></g></svg>