<svg xmlns="http://www.w3.org/2000/svg" viewBox="0 0 700 467"><filter id="b"><feGaussianBlur stdDeviation="12" /></filter><path fill="#73464e" d="M0 0h700v464H0z"/><g filter="url(#b)" transform="translate(1.4 1.4) scale(2.73438)" fill-opacity=".5"><ellipse fill="#ffbc9b" rx="1" ry="1" transform="matrix(47.54807 -8.69298 3.7859 20.70776 82.3 79)"/><ellipse fill="#e70000" rx="1" ry="1" transform="matrix(-37.09978 36.41533 -18.70216 -19.05368 14.8 73.6)"/><ellipse fill="#fff4f6" cx="125" cy="29" rx="23" ry="18"/><ellipse fill="#dba9a9" cx="213" cy="144" rx="30" ry="57"/><ellipse cx="219" cy="7" rx="55" ry="26"/><ellipse fill="#1e1226" rx="1" ry="1" transform="matrix(19.97839 47.1494 -69.27185 29.35223 43.5 152.3)"/><ellipse rx="1" ry="1" transform="matrix(16.53344 -3.9886 7.0158 29.08172 164.8 97.2)"/><ellipse fill="#180000" rx="1" ry="1" transform="matrix(34.71087 36.13226 -15.2618 14.66142 44.5 20)"/><ellipse fill="#b98bad" rx="1" ry="1" transform="matrix(17.18527 -6.2492 30.47241 83.79895 124 113.3)"/><path fill="#2e0000" d="M220 111.4l8.2 28.8-22.1 6.4-8.3-28.8z"/><path fill="#fff8f4" d="M63.7 180l-4.4-15.4 23-6.6 4.4 15.4z"/><path fill="#dfcede" d="M182.6 93.8l6.8-4.2 8.5 39-16.9 12z"/><ellipse fill="#eec2b8" rx="1" ry="1" transform="rotate(-140.1 40 35.5) scale(9.43876 30.05247)"/><path fill="#090000" d="M244.8 116.7l-20.5-20.5 29-29 20.4 20.6z"/><path fill="#d79b96" d="M141 30h32v30h-32z"/><path fill="#0a0000" d="M21 105.5v75H-5v-75z"/><path fill="#dec2c6" d="M204.3 74.6l-10.9-2.5 21.2 44.2 56.4 33z"/><ellipse fill="#731921" cx="113" cy="63" rx="9" ry="31"/><path fill="#c30009" d="M-10 140L9 37l55 4z"/><path fill="#ffff4d" d="M56 65h32v19H56z"/><ellipse fill="#d8bac7" rx="1" ry="1" transform="rotate(28.8 57.6 259.8) scale(18.99311 25.77559)"/><path d="M83.6 10.3l20-15 10.8 14.4-20 15z"/></g></svg>