<svg xmlns="http://www.w3.org/2000/svg" viewBox="0 0 700 467"><filter id="b"><feGaussianBlur stdDeviation="12" /></filter><path fill="#644a3c" d="M0 0h700v464H0z"/><g filter="url(#b)" transform="translate(1.4 1.4) scale(2.73438)" fill-opacity=".5"><ellipse fill="#c6b9ae" cx="119" cy="91" rx="118" ry="38"/><ellipse cx="147" cy="160" rx="255" ry="25"/><ellipse rx="1" ry="1" transform="matrix(-222.46272 1.5531 -.14291 -20.47017 113.1 35.6)"/><ellipse fill="#acf3ff" cx="122" cy="72" rx="20" ry="20"/><path fill="#f5cfa6" d="M40 58l-22 68-1-100z"/><ellipse fill="#f3934b" cx="63" rx="255" ry="16"/><ellipse fill="#3e0300" cx="255" cy="116" rx="24" ry="152"/><path fill="#c9a479" d="M226 32.5l17 38.1-25.9 74-15.8-83.8z"/><path fill="#291d20" d="M160.8 36.7l-1.1 73.2-24.4 3.6L152.6-5.4z"/><ellipse rx="1" ry="1" transform="matrix(148.15453 .15334 -.02114 20.42004 130 160)"/><ellipse fill="#bb897a" cx="112" cy="31" rx="62" ry="5"/><ellipse fill="#dca393" cx="112" cy="119" rx="106" ry="8"/><ellipse fill="#251414" cx="92" cy="81" rx="9" ry="36"/><path fill="#421000" d="M-21.7 125.5l11.6-110.4 31.8 3.4-11.6 110.4z"/><path fill="#b2bba0" d="M172 40l1 37 38-11z"/><path fill="#0047ba" d="M84.2 55.3l22.1 10.4 39.5-3.3-6.3-5.7z"/><path d="M185 16h29v38h-29z"/><ellipse fill="#a10000" cx="114" cy="129" rx="107" ry="3"/><path fill="#ebebfa" d="M130.5 62.5l-29 2.1-.8 22 37 1z"/><path fill="#fff" d="M127.3 120L107 109l3.7-7 20.3 10.8z"/><path fill="#201200" d="M164 82h7v29h-7z"/><path fill="#5e3912" d="M169.6 72.5L211.1 92l-3 63-2.4-46.3z"/></g></svg>