<svg xmlns="http://www.w3.org/2000/svg" viewBox="0 0 700 467"><filter id="b"><feGaussianBlur stdDeviation="12" /></filter><path fill="#951e5d" d="M0 0h700v464H0z"/><g filter="url(#b)" transform="translate(1.4 1.4) scale(2.73438)" fill-opacity=".5"><ellipse fill="#ff1cff" rx="1" ry="1" transform="rotate(-112.1 36.5 -8.4) scale(53.35215 111.87712)"/><ellipse fill="#000b00" cx="55" cy="128" rx="35" ry="35"/><ellipse fill="#1d1107" rx="1" ry="1" transform="matrix(16.3069 -34.13476 49.60707 23.69837 154 142.2)"/><ellipse fill="#1c3120" rx="1" ry="1" transform="matrix(16.32296 22.3025 -62.43993 45.69912 193.7 30)"/><ellipse fill="#ff14ff" cx="60" rx="65" ry="65"/><ellipse fill="#ff2018" cx="195" cy="96" rx="29" ry="29"/><path fill="#95ce99" d="M209 19h47v34h-47z"/><path fill="#2a230e" d="M251 185l20-122-66-20z"/><ellipse fill="#ff022e" rx="1" ry="1" transform="matrix(-23.2183 14.11694 -12.7012 -20.8898 97.7 96.6)"/><ellipse fill="#e00000" rx="1" ry="1" transform="matrix(-7.51931 27.71715 -14.55439 -3.94842 220.5 139.6)"/><ellipse fill="#ff334e" rx="1" ry="1" transform="rotate(84.1 -62.8 56.6) scale(27.19283 27.01452)"/><ellipse fill="#f9000d" cx="139" cy="90" rx="72" ry="11"/><ellipse fill="#d56bc8" rx="1" ry="1" transform="rotate(-178.6 52.6 22) scale(24.1618 29.9089)"/><ellipse fill="#f43431" rx="1" ry="1" transform="rotate(26.5 -219.9 412.4) scale(13.77684 14.66373)"/><ellipse fill="#2e1835" rx="1" ry="1" transform="rotate(143.2 44.5 82.3) scale(34.9674 25.88265)"/><path fill="#ff0021" d="M223.8 122l2.6-7.6 39.8 13.7-2.6 7.5z"/><path fill="#c8a393" d="M208 81h18v30h-18z"/><ellipse fill="#350010" rx="1" ry="1" transform="matrix(-23.2465 -1.42182 2.7 -44.14474 187.5 23.7)"/><path d="M249 0h7v31h-7z"/><ellipse fill="#000c13" cx="20" cy="148" rx="10" ry="10"/><ellipse fill="#ffa1a7" cx="155" cy="58" rx="6" ry="13"/><path fill="#fb2c62" d="M29 55h37v28H29z"/></g></svg>