<svg xmlns="http://www.w3.org/2000/svg" viewBox="0 0 641 195"><filter id="b"><feGaussianBlur stdDeviation="12" /></filter><path fill="#736651" d="M0 0h641v192H0z"/><g filter="url(#b)" transform="translate(1.3 1.3) scale(2.5039)" fill-opacity=".5"><ellipse fill="#d4f7ff" cx="157" cy="30" rx="43" ry="43"/><ellipse rx="1" ry="1" transform="rotate(93.9 -16 27.1) scale(132.08883 27.87548)"/><ellipse cx="241" cy="68" rx="18" ry="68"/><path fill="#fff" d="M190 55.1l23.6-8.1L226 82.9 202.4 91z"/><ellipse fill="#c85b00" cx="45" cy="30" rx="26" ry="31"/><ellipse fill="#330f00" rx="1" ry="1" transform="matrix(-12.19682 -6.80075 28.11702 -50.42657 86.6 40.9)"/><ellipse fill="#ffec5e" cx="86" cy="30" rx="7" ry="33"/><path fill="#fff" d="M88.4 92h31.4l-13.1-28.5-8.8-24.4zM45 55h15v22H45z"/><path d="M187.9 86.2l-21.2-9 7.4-17.4 21.2 9z"/><ellipse fill="#eff2e8" rx="1" ry="1" transform="matrix(11.02884 16.63695 -22.35341 14.81835 142.3 76)"/><ellipse fill="#ffeb9f" rx="1" ry="1" transform="matrix(5.9607 23.3848 -8.65593 2.20637 221.3 18.6)"/><ellipse cx="74" cy="10" rx="6" ry="131"/><ellipse cx="112" cy="20" rx="6" ry="53"/><ellipse cx="6" cy="35" rx="15" ry="117"/><path d="M49.4-11h10l-.8 44h-10z"/><ellipse rx="1" ry="1" transform="matrix(-.91035 -22.66568 24.23596 -.97342 245.6 61.6)"/><path d="M39.2 87L-3.5 76.2 2.8 51l42.7 10.6z"/><path fill="#ffda5b" d="M249 26l-4-42 26 52z"/><path fill="#ff8f07" d="M22 11h10v43H22z"/><path d="M92 85.5l-31 1-1-26 31-1zM211-15l-6 48-6-35z"/></g></svg>