<svg xmlns="http://www.w3.org/2000/svg" viewBox="0 0 800 533"><filter id="b"><feGaussianBlur stdDeviation="12" /></filter><path fill="#564b39" d="M0 0h800v531H0z"/><g filter="url(#b)" transform="translate(1.6 1.6) scale(3.125)" fill-opacity=".5"><ellipse fill="#e9ffff" rx="1" ry="1" transform="matrix(33.31784 23.76538 -28.41641 39.83834 158.6 79.8)"/><path d="M2-16l-18 92L271 2z"/><ellipse fill="#fff" cx="206" cy="113" rx="16" ry="16"/><ellipse cy="117" rx="42" ry="42"/><ellipse fill="#cfd0c0" rx="1" ry="1" transform="rotate(6.7 -953.1 1144.8) scale(38.74175 16.46033)"/><ellipse fill="#ffef94" rx="1" ry="1" transform="matrix(8.63284 -1.19594 5.02144 36.24708 221.2 56.4)"/><ellipse cx="246" cy="117" rx="22" ry="43"/><ellipse fill="#fec79f" rx="1" ry="1" transform="matrix(95.10941 .5511 -.056 9.66552 26.4 164.4)"/><path fill="#d36e02" d="M22 101.6l-1-54 71-1.2 1 54z"/><path fill="#fff" d="M61.6 103.3l-2.3 26.9-17-1.5 2.4-26.9z"/><path d="M224 23L-16 61 4-16z"/><ellipse rx="1" ry="1" transform="matrix(2.77456 32.55155 -15.12075 1.28883 75.1 119.6)"/><ellipse fill="#ffde50" cx="87" cy="57" rx="7" ry="28"/><ellipse rx="1" ry="1" transform="matrix(9.26566 -1.53392 10.05748 60.7523 234 32.4)"/><ellipse fill="#ffad3f" cx="251" cy="31" rx="7" ry="46"/><path d="M169 110h25v21h-25z"/><ellipse cx="17" cy="130" rx="27" ry="27"/><ellipse cx="75" cy="49" rx="5" ry="100"/><path d="M116.9 84.3l-23 .4-.8-43 23-.4z"/><path fill="#fff0d3" d="M101 85.7l10.4 38.7-14.5 3.9-10.3-38.7z"/><path fill="#a5bcb9" d="M118 41h80v68h-80z"/><path fill="#b0eaf1" d="M169.2 33.5l27.5-4.8 2.1 11.8-27.5 4.8z"/></g></svg>