<svg xmlns="http://www.w3.org/2000/svg" viewBox="0 0 200 133"><filter id="b"><feGaussianBlur stdDeviation="12" /></filter><path fill="#696f5e" d="M0 0h200v133H0z"/><g filter="url(#b)" transform="translate(.5 .5)" fill-opacity=".5"><ellipse fill="#fff" rx="1" ry="1" transform="matrix(-21.38695 -22.0096 88.38791 -85.88743 176 107)"/><ellipse cx="46" cy="14" rx="48" ry="48"/><ellipse fill="#e1ebff" cy="101" rx="53" ry="53"/><ellipse rx="1" ry="1" transform="rotate(13.7 1.6 690.7) scale(124.88005 27.82757)"/><ellipse fill="#d5debc" rx="1" ry="1" transform="matrix(38.02215 -15.3708 8.42745 20.84667 103 56.2)"/><path fill="#010d00" d="M122.3 116.6l-19.2-16 54.6-65.2 19.2 16z"/><ellipse fill="#fff" rx="1" ry="1" transform="matrix(-2.78768 6.00555 -34.23408 -15.89093 99.9 129.2)"/><ellipse fill="#000a00" rx="1" ry="1" transform="matrix(6.557 -27.53644 9.5182 2.26648 36 54.8)"/><ellipse fill="#2f5b00" cx="112" cy="94" rx="26" ry="26"/><ellipse fill="#010300" cx="163" cy="3" rx="45" ry="45"/><ellipse fill="#000700" rx="1" ry="1" transform="matrix(-12.72903 9.80267 -39.05411 -50.7128 29.3 22.6)"/><path fill="#fff" d="M12 88l39.7 30.4 9.1-6.5-19-35z"/><path fill="#406500" d="M55 83h93v30H55z"/><ellipse fill="#f6d8d3" rx="1" ry="1" transform="matrix(-24.3866 -5.05022 13.1054 -63.28354 180.8 115)"/><path fill="#001c00" d="M59 69l28 28-40-8z"/><ellipse fill="#efebd1" cx="121" cy="58" rx="15" ry="15"/><path fill="#232423" d="M128 101.8l41.3-24-49.5-5.4-32.2-10.6z"/><ellipse fill="#67971b" rx="1" ry="1" transform="matrix(-3.02635 9.0448 -24.05142 -8.0475 20 46.8)"/><path fill="#fff" d="M111 148l22-32-50 16zM41 66h11v16H41z"/><ellipse fill="#031800" rx="1" ry="1" transform="matrix(28.178 21.77843 -14.09496 18.23675 86 3.4)"/><path fill="#a4ab91" d="M94.3 70.4L65.7 53.9l14-24.3 28.6 16.5z"/></g></svg>