<svg xmlns="http://www.w3.org/2000/svg" viewBox="0 0 700 467"><filter id="b"><feGaussianBlur stdDeviation="12" /></filter><path fill="#716a56" d="M0 0h700v464H0z"/><g filter="url(#b)" transform="translate(1.4 1.4) scale(2.73438)" fill-opacity=".5"><ellipse fill="#fff3c2" cx="107" rx="97" ry="97"/><ellipse rx="1" ry="1" transform="matrix(-217.22319 3.66471 -.94291 -55.89036 115.8 145.6)"/><ellipse fill="#d9d5bf" rx="1" ry="1" transform="matrix(-96.38058 3.36568 -.74891 -21.44609 235.6 67.9)"/><ellipse fill="#fff" rx="1" ry="1" transform="matrix(16.07992 17.6775 -23.48304 21.3608 39.2 38)"/><ellipse fill="#000005" rx="1" ry="1" transform="matrix(-163.06008 5.11113 -.8537 -27.23538 47 132.6)"/><ellipse fill="#d2c698" rx="1" ry="1" transform="matrix(13.13819 -11.71853 18.69283 20.9574 221 29.3)"/><ellipse fill="#734102" cx="133" cy="8" rx="17" ry="18"/><path fill="#683b00" d="M-3 11.2L7.5-13.7 37-1.2 26.5 23.7z"/><ellipse fill="#fff" cx="44" cy="27" rx="14" ry="33"/><ellipse fill="#b27f36" cx="85" cy="22" rx="22" ry="22"/><ellipse fill="#0e0b06" rx="1" ry="1" transform="rotate(-33.1 299.4 -375.6) scale(38.97362 16.1024)"/><ellipse fill="#7d5622" rx="1" ry="1" transform="matrix(-4.19686 -11.10103 15.85434 -5.9939 136.4 58.4)"/><ellipse fill="#b28f5e" cx="23" cy="71" rx="71" ry="15"/><ellipse fill="#857a63" cx="184" cy="15" rx="17" ry="47"/><path fill="#0d0c07" d="M9 89h46v81H9z"/><path fill="#fff5d7" d="M0 42h125v13H0z"/><path d="M191.5 163.5l-26.8 2.8-4.2-39.8 26.8-2.8z"/><ellipse fill="#414466" cx="78" cy="108" rx="22" ry="21"/><path fill="#d7bfaa" d="M89 69h73v25H89z"/><path fill="#1b0f0c" d="M196.5 84.3l16-1.4 3 34.8-16 1.4z"/><path fill="#546b53" d="M191 133h36v37h-36z"/><path fill="#f4efe1" d="M68.3 32.3L56.6 106l20.9-24.7-80.2-45.7z"/></g></svg>