<svg xmlns="http://www.w3.org/2000/svg" viewBox="0 0 200 133"><filter id="b"><feGaussianBlur stdDeviation="12" /></filter><path fill="#94868d" d="M0 0h200v133H0z"/><g filter="url(#b)" transform="translate(.5 .5)" fill-opacity=".5"><ellipse fill="#fff" cx="55" cy="34" rx="76" ry="51"/><ellipse fill="#151330" rx="1" ry="1" transform="matrix(34.26067 25.95142 -120.15699 158.62944 180.6 65.8)"/><ellipse fill="#640000" rx="1" ry="1" transform="rotate(-4.1 1620 -557) scale(107.38945 31.67429)"/><ellipse fill="#f8ffff" rx="1" ry="1" transform="matrix(43.82923 57.95263 -45.30052 34.26051 66.5 19)"/><path fill="#ba0000" d="M127 0h18v90h-18z"/><ellipse fill="#001d87" cx="192" cy="30" rx="26" ry="92"/><ellipse fill="#b7b7b0" cx="155" cy="51" rx="11" ry="116"/><path fill="#e7fdff" d="M0 0h127v83H0z"/><ellipse fill="#960800" cx="49" cy="92" rx="94" ry="11"/><ellipse fill="#8aa7bd" rx="1" ry="1" transform="rotate(-169.5 12.3 19.5) scale(15.97617 29.33192)"/><ellipse fill="#361804" rx="1" ry="1" transform="matrix(-29.5875 1.66134 -1.0988 -19.56897 24 116.6)"/><path fill="#e0cac3" d="M187.8 119.3l27.2 7.6-19 7.8-37-9.7z"/><path fill="#a00e00" d="M127 0h18v73h-18z"/><ellipse fill="#934214" cx="104" cy="100" rx="48" ry="19"/><ellipse fill="#003579" cx="199" cy="18" rx="32" ry="103"/><path fill="#cfd7c8" d="M84 104l-10 5 30 30z"/><ellipse fill="#fff" rx="1" ry="1" transform="rotate(76.2 15.4 107.8) scale(13.99494 11.34536)"/><ellipse fill="#fff" cy="73" rx="126" ry="9"/><path fill="#5a3000" d="M182.6 88.2l10.6 29.1-17.8 6.5-10.6-29.1z"/><ellipse fill="#9fdfff" cx="62" cy="132" rx="13" ry="6"/><ellipse fill="#c81f00" rx="1" ry="1" transform="rotate(-87.3 68.7 41.2) scale(20.0626 8.18456)"/><ellipse fill="#91405a" cx="18" cy="57" rx="8" ry="8"/></g></svg>