<svg xmlns="http://www.w3.org/2000/svg" viewBox="0 0 200 133"><filter id="b"><feGaussianBlur stdDeviation="12" /></filter><path fill="#3c353c" d="M0 0h200v133H0z"/><g filter="url(#b)" transform="translate(.5 .5)" fill-opacity=".5"><ellipse fill="#79e5ff" rx="1" ry="1" transform="rotate(95.5 30 65) scale(21.86813 65.58874)"/><ellipse rx="1" ry="1" transform="matrix(-33.21317 -65.98832 24.56874 -12.36591 175 17.8)"/><ellipse cx="3" rx="34" ry="58"/><ellipse fill="#1d0000" rx="1" ry="1" transform="matrix(166.64641 -5.81942 .37044 10.60813 111.4 121.2)"/><ellipse fill="#81414b" rx="1" ry="1" transform="rotate(87.4 3.6 83.1) scale(20.4764 75.02258)"/><path fill="#058dbd" d="M33.6 86.2v-69l50.9 44.3-50-2.6z"/><ellipse rx="1" ry="1" transform="rotate(38.7 55.9 159) scale(27.00263 19.62522)"/><ellipse cx="199" cy="24" rx="40" ry="40"/><path fill="#389cbf" d="M127 27h34v36h-34z"/><ellipse fill="#030101" cx="111" cy="1" rx="199" ry="15"/><ellipse fill="#160000" cx="190" cy="119" rx="41" ry="23"/><ellipse fill="#a8b8c1" rx="1" ry="1" transform="matrix(.04556 -11.8629 33.68896 .12938 104.1 44.2)"/><ellipse fill="#a91d2b" cx="16" cy="66" rx="198" ry="6"/><path fill="#85dbf6" d="M53 16v6H35v-6z"/><ellipse fill="#00241d" cx="4" cy="77" rx="40" ry="9"/><path d="M35.3 8.2L31.6 51l-36.9-3.2L-1.6 5zM76 84h19v18H76z"/><path fill="#7f6563" d="M15 85h58v20H15z"/><ellipse fill="#1c0000" cx="7" cy="129" rx="24" ry="38"/><ellipse fill="#bf171b" rx="1" ry="1" transform="matrix(-27.22402 -1.25797 .1518 -3.28531 15.1 60.3)"/><path fill="#430000" d="M141 69h59v11h-59z"/><path fill="#a89195" d="M104 72h11v19h-11z"/></g></svg>