<svg xmlns="http://www.w3.org/2000/svg" viewBox="0 0 200 133"><filter id="b"><feGaussianBlur stdDeviation="12" /></filter><path fill="#b46a3f" d="M0 0h200v133H0z"/><g filter="url(#b)" transform="translate(.5 .5)" fill-opacity=".5"><ellipse fill="#00073b" rx="1" ry="1" transform="rotate(108.2 6.6 69) scale(31.8979 28.11384)"/><ellipse fill="#ffbf44" cx="144" cy="17" rx="58" ry="58"/><ellipse fill="#feef51" cx="17" cy="30" rx="28" ry="68"/><ellipse fill="#010000" cx="175" cy="100" rx="167" ry="12"/><ellipse fill="#fef" rx="1" ry="1" transform="rotate(-6.1 813.4 -102) scale(30.87438 11.47194)"/><path fill="#ebffff" d="M86.6 79.7l-36-45.2-9.2 28.8 14.2.4z"/><ellipse fill="#a70300" rx="1" ry="1" transform="matrix(20.14274 -18.96688 21.38862 22.71461 72.8 21.4)"/><ellipse fill="#fffdff" cx="108" cy="72" rx="9" ry="19"/><path d="M174 61h15v40h-15z"/><ellipse fill="#cbb9ff" cx="154" cy="69" rx="20" ry="15"/><ellipse fill="#db5f00" rx="1" ry="1" transform="matrix(9.9792 -22.44118 37.79407 16.80635 0 48.5)"/><ellipse fill="#fd3131" cx="79" cy="129" rx="199" ry="24"/><path fill="#fff" d="M73.5 64.5h9v25h-9z"/><ellipse fill="#00001b" cx="152" cy="91" rx="10" ry="20"/><ellipse fill="#e37600" rx="1" ry="1" transform="matrix(37.14731 34.5637 -13.66672 14.6883 106.3 22.5)"/><ellipse fill="#ade0ff" rx="1" ry="1" transform="matrix(-6.83428 8.53057 -14.24605 -11.41324 29.4 6.3)"/><ellipse fill="#002777" rx="1" ry="1" transform="matrix(9.28751 -2.025 3.75614 17.22723 93.1 56.2)"/><ellipse fill="#f6de87" rx="1" ry="1" transform="matrix(45.80738 -6.52776 3.26256 22.89444 180.2 0)"/><ellipse fill="#ff9c96" cx="184" cy="122" rx="55" ry="9"/><ellipse fill="#e5ee00" rx="1" ry="1" transform="matrix(13.7873 -8.29566 13.9923 23.25506 25 40)"/><ellipse fill="#000c1a" rx="1" ry="1" transform="matrix(-5.23042 .66076 -3.25536 -25.76885 126 94)"/><ellipse fill="#800" rx="1" ry="1" transform="rotate(-107.1 37 -13) scale(31.54845 12.49229)"/></g></svg>