<svg xmlns="http://www.w3.org/2000/svg" viewBox="0 0 700 467"><filter id="b"><feGaussianBlur stdDeviation="12" /></filter><path fill="#5b5c64" d="M0 0h700v464H0z"/><g filter="url(#b)" transform="translate(1.4 1.4) scale(2.73438)" fill-opacity=".5"><ellipse fill="#fff" cx="76" cy="67" rx="63" ry="63"/><ellipse fill="#000014" cx="255" cy="105" rx="115" ry="115"/><ellipse fill="#8bb9ff" cx="128" cy="43" rx="39" ry="28"/><ellipse fill="#562100" rx="1" ry="1" transform="matrix(82.46811 -.45936 .19606 35.1981 72.1 158.3)"/><ellipse cy="101" rx="29" ry="29"/><ellipse fill="#fff" rx="1" ry="1" transform="matrix(2.88182 -15.5489 12.34023 2.28713 27.1 28)"/><ellipse fill="#ffffd3" cx="70" cy="92" rx="34" ry="34"/><ellipse fill="#385e98" cx="127" cy="79" rx="30" ry="30"/><ellipse fill="#b2a892" rx="1" ry="1" transform="matrix(-4.68092 28.24915 -13.36278 -2.21423 196 85.9)"/><ellipse cx="110" rx="146" ry="14"/><path fill="#f4f7ff" d="M89 16h64v26H89z"/><ellipse fill="#fff" cx="33" cy="116" rx="11" ry="10"/><ellipse rx="1" ry="1" transform="matrix(15.09533 -.04833 .22199 69.3423 0 53)"/><ellipse fill="#0d0000" cx="172" cy="144" rx="32" ry="35"/><path fill="#ffe9b5" d="M117 95h24v27h-24z"/><ellipse fill="#000c1e" cx="190" cy="21" rx="35" ry="35"/><ellipse fill="#cae3ff" cx="41" cy="40" rx="27" ry="28"/><path fill="#4796ff" d="M242 72h14v37h-14z"/><ellipse fill="#130000" cx="248" cy="144" rx="35" ry="35"/><path fill="#000014" d="M-16 114.1l36.2 14 20-44.6-56.2 29z"/><ellipse fill="#060252" cx="170" cy="60" rx="15" ry="53"/><ellipse fill="#9bd4ff" rx="1" ry="1" transform="matrix(8.81985 -14.41897 11.98126 7.32874 30 72.4)"/></g></svg>