<svg xmlns="http://www.w3.org/2000/svg" viewBox="0 0 641 195"><filter id="b"><feGaussianBlur stdDeviation="12" /></filter><path fill="#343864" d="M0 0h641v192H0z"/><g filter="url(#b)" transform="translate(1.3 1.3) scale(2.5039)" fill-opacity=".5"><ellipse rx="1" ry="1" transform="rotate(-101.5 21.3 16.6) scale(121.48907 42.05181)"/><ellipse fill="#95b2a5" rx="1" ry="1" transform="matrix(-22.42746 -12.38062 40.07856 -72.60219 156.8 0)"/><ellipse fill="#b29adf" cx="224" cy="13" rx="7" ry="72"/><ellipse fill="#1ce68d" cx="177" rx="42" ry="22"/><path fill="#e7ceff" d="M133 29l-17 14 36 30z"/><ellipse fill="#09006a" cx="168" cy="38" rx="29" ry="20"/><path fill="#b277aa" d="M42 38.5l15-26 19 11-15 26z"/><ellipse fill="#150097" cx="255" rx="28" ry="113"/><path fill="#fff" d="M76 74h24v3H76z"/><ellipse fill="#191137" cx="93" cy="39" rx="26" ry="26"/><ellipse fill="#12b063" cx="102" rx="24" ry="24"/><ellipse fill="#000018" rx="1" ry="1" transform="matrix(19.20363 -32.76999 50.38998 29.52916 19.4 66.2)"/><ellipse fill="#ffcde6" cx="118" cy="65" rx="4" ry="20"/><ellipse fill="#5028ac" rx="1" ry="1" transform="matrix(-3.60614 25.44206 -11.80491 -1.67322 206.7 31)"/><path fill="#16024d" d="M153 50l-13 39 81-25z"/><ellipse fill="#000037" cx="40" cy="7" rx="39" ry="15"/><path fill="#701131" d="M142 72l-8-19-34 39z"/><ellipse fill="#ffe5ff" cx="142" cy="61" rx="3" ry="12"/><path fill="#fff" d="M85 72h14v5H85z"/><path fill="#0d083a" d="M233.5 41h37v34h-37z"/><ellipse fill="#66c772" rx="1" ry="1" transform="matrix(19.4649 -10.57406 7.96183 14.65627 158.8 5)"/><ellipse fill="#3129c9" rx="1" ry="1" transform="matrix(-10.09386 -20.0538 26.62867 -13.40326 255 0)"/></g></svg>