<svg xmlns="http://www.w3.org/2000/svg" viewBox="0 0 700 467"><filter id="b"><feGaussianBlur stdDeviation="12" /></filter><path fill="#594c4c" d="M0 0h700v464H0z"/><g filter="url(#b)" transform="translate(1.4 1.4) scale(2.73438)" fill-opacity=".5"><ellipse fill="#a5a094" cx="131" cy="110" rx="150" ry="44"/><ellipse rx="1" ry="1" transform="matrix(2.55925 -30.99995 206.44094 17.04305 176 30.4)"/><ellipse fill="#9af9ff" rx="1" ry="1" transform="matrix(-2.45396 -22.53593 24.9924 -2.72144 147 78.7)"/><ellipse fill="#7e0000" cx="190" cy="169" rx="191" ry="18"/><ellipse fill="#000219" rx="1" ry="1" transform="matrix(11.75136 -1.56797 6.74522 50.55308 109.1 69.2)"/><ellipse fill="#faf4ea" rx="1" ry="1" transform="matrix(-5.87547 -8.07676 28.56787 -20.78182 51.1 112.1)"/><ellipse fill="#fe9a8a" cx="54" cy="150" rx="35" ry="11"/><path fill="#fff2de" d="M111 115h135v10H111z"/><ellipse fill="#232720" rx="1" ry="1" transform="matrix(-40.35196 -10.9999 3.34774 -12.28082 211.9 94.2)"/><ellipse fill="#390c03" rx="1" ry="1" transform="matrix(34.25892 13.47989 -3.1818 8.08651 92.6 134.3)"/><ellipse rx="1" ry="1" transform="matrix(21.58736 -14.5976 16.8069 24.85453 47 22.7)"/><ellipse fill="#83a991" cx="41" cy="62" rx="57" ry="12"/><ellipse fill="#ffcac9" cx="184" cy="140" rx="48" ry="6"/><ellipse fill="#000009" rx="1" ry="1" transform="rotate(-89 120.3 -85.4) scale(26.61808 52.54548)"/><ellipse fill="#1d0000" rx="1" ry="1" transform="matrix(-19.34756 36.85168 -14.52298 -7.62473 244 153.8)"/><path fill="#5546b8" d="M124.3 10.3l1.5-.7L66.6 15 130 36z"/><path fill="#e2eff6" d="M105.2 98.7L81.1 113 66.8 94.7l49.5-6z"/><ellipse fill="#21161c" cx="152" cy="107" rx="29" ry="9"/><path fill="#404934" d="M-34.8 120.5l76-55.3 17.6 24.3-76 55.3z"/><path fill="#d2e0ff" d="M161 102.8L121.3 98l3.7-30.7 39.7 4.9z"/><path fill="#162c29" d="M80 97L68 71l77-15z"/><ellipse fill="#091022" cx="181" cy="45" rx="11" ry="53"/></g></svg>