<svg xmlns="http://www.w3.org/2000/svg" viewBox="0 0 200 133"><filter id="b"><feGaussianBlur stdDeviation="12" /></filter><path fill="#4f3878" d="M0 0h200v133H0z"/><g filter="url(#b)" transform="translate(.5 .5)" fill-opacity=".5"><ellipse fill="#fac6ff" rx="1" ry="1" transform="rotate(54.2 -7 132.6) scale(49.66869 30.63368)"/><ellipse rx="1" ry="1" transform="matrix(4.32821 -26.43083 147.2112 24.10676 105.2 132)"/><ellipse fill="#ee83ff" rx="1" ry="1" transform="rotate(-175.2 62.6 43.7) scale(173.67523 11.81591)"/><ellipse fill="#00004f" rx="1" ry="1" transform="matrix(18.32799 -56.25077 39.84051 12.98109 28.9 17.8)"/><path fill="#e0e9ff" d="M155.8 30.7l24.2 9.5-9.1 16.9-31.3-12z"/><ellipse rx="1" ry="1" transform="matrix(1.49096 61.00616 -14.41627 .35233 194.5 20.7)"/><ellipse fill="#004" rx="1" ry="1" transform="matrix(.38167 -12.14484 137.81975 4.33116 128.8 9)"/><ellipse cx="43" cy="132" rx="145" ry="19"/><ellipse fill="#000091" rx="1" ry="1" transform="matrix(.1758 -4.85567 52.87046 1.91428 109.6 60.4)"/><path fill="#fffdf2" d="M73.1 55l10.2-34.8 5 5.5 27 25.6z"/><ellipse fill="#2a005b" rx="1" ry="1" transform="matrix(-1.7208 -4.97364 14.58234 -5.04527 98 80.6)"/><path fill="#c273ea" d="M16 69h57v26H16z"/><ellipse fill="#f9ffff" cx="121" cy="38" rx="5" ry="20"/><path fill="#f0f2f0" d="M185.7 78.5l-30-2 .6-7 30 2z"/><path fill="#0a00a3" d="M128 15h19v46h-19z"/><ellipse fill="#00004c" cx="6" cy="31" rx="30" ry="41"/><path fill="#380055" d="M12.3 114.4l45-21.5 4.8-18.3 25.2 3.9z"/><path fill="#ffe1ff" d="M81 64l66 3-25 11z"/><path fill="#003" d="M183 82l-16-6-3-21z"/><ellipse fill="#837044" cx="148" cy="112" rx="47" ry="8"/><ellipse rx="1" ry="1" transform="rotate(14.8 -464.2 203.7) scale(82.46672 20.07535)"/><path fill="#050056" d="M116 41l-13-3 18-15z"/></g></svg>