<svg xmlns="http://www.w3.org/2000/svg" viewBox="0 0 700 467"><filter id="b"><feGaussianBlur stdDeviation="12" /></filter><path fill="#334079" d="M0 0h700v464H0z"/><g filter="url(#b)" transform="translate(1.4 1.4) scale(2.73438)" fill-opacity=".5"><ellipse fill="#fffffb" cx="143" cy="139" rx="22" ry="83"/><ellipse rx="1" ry="1" transform="matrix(-2.3083 31.43621 -73.96809 -5.43135 49.8 129.2)"/><ellipse cx="224" cy="128" rx="61" ry="33"/><ellipse fill="#2b47cd" cx="123" rx="79" ry="79"/><ellipse fill="#feffff" rx="1" ry="1" transform="matrix(-.54949 -44.97381 25.03861 -.30592 145 169.1)"/><ellipse fill="#ffe5ae" rx="1" ry="1" transform="matrix(-3.3043 -25.13705 9.48113 -1.2463 196.4 67.4)"/><ellipse fill="#1f2a4d" cx="141" cy="110" rx="150" ry="11"/><ellipse fill="#aeb8f1" cx="115" rx="23" ry="25"/><ellipse fill="#a1bbd2" rx="1" ry="1" transform="matrix(-.20166 9.3604 -83.91412 -1.80786 91.7 168)"/><ellipse fill="#072cb7" rx="1" ry="1" transform="rotate(26.2 71 459.5) scale(114.82212 26.79848)"/><ellipse fill="#000779" rx="1" ry="1" transform="matrix(-35.68901 -15.43048 13.17143 -30.46407 19.6 17.7)"/><path fill="#f8fff4" d="M164.3 99.2l-34-2.4 1.4-20 34 2.4z"/><ellipse fill="#061476" rx="1" ry="1" transform="matrix(-86.354 2.41368 -.65384 -23.39226 38.9 91.8)"/><ellipse fill="#02090c" rx="1" ry="1" transform="matrix(3.36989 19.47016 -81.53342 14.11177 44.6 136)"/><path fill="#ca9520" d="M134.7 80.1l-.4-26 15-.2.4 26z"/><path fill="#c6e3ff" d="M206 91l4-19-22 14z"/><ellipse fill="#776aac" cx="53" cy="59" rx="75" ry="9"/><ellipse fill="#0a1458" cx="244" cy="90" rx="31" ry="23"/><ellipse fill="#0e37c9" rx="1" ry="1" transform="matrix(17.435 -14.37646 26.78673 32.4855 69.7 14.7)"/><ellipse fill="#514620" cx="196" cy="98" rx="27" ry="10"/><ellipse fill="#0d1724" cx="191" cy="140" rx="25" ry="24"/><path fill="#7d8eaa" d="M218 158h32v12h-32z"/></g></svg>