<svg xmlns="http://www.w3.org/2000/svg" viewBox="0 0 700 467"><filter id="b"><feGaussianBlur stdDeviation="12" /></filter><path fill="#777967" d="M0 0h700v464H0z"/><g filter="url(#b)" transform="translate(1.4 1.4) scale(2.73438)" fill-opacity=".5"><ellipse fill="#fff" rx="1" ry="1" transform="matrix(-94.17103 .65745 -.10813 -15.48763 62.3 26)"/><ellipse fill="#fff" rx="1" ry="1" transform="matrix(56.03358 -1.54326 .5776 20.97166 99.2 160.5)"/><ellipse fill="#192b00" cx="206" cy="126" rx="44" ry="183"/><ellipse fill="#0d0000" rx="1" ry="1" transform="matrix(-17.93847 .44485 -1.12076 -45.19429 94 72.8)"/><ellipse fill="#dbf7ff" cx="46" cy="104" rx="15" ry="45"/><ellipse fill="#f9f6ff" rx="1" ry="1" transform="matrix(18.88859 -2.03242 3.98864 37.069 130.7 86.6)"/><path fill="#000005" d="M-16 35L9.4 185l4.8-92L19 64.5z"/><ellipse rx="1" ry="1" transform="matrix(-15.83233 10.17102 -46.19273 -71.90411 200.2 169)"/><path fill="#fff" d="M243-16l11 100 17-75z"/><ellipse fill="#fff" rx="1" ry="1" transform="matrix(-6.12727 -37.74228 19.82748 -3.21889 122.2 169)"/><ellipse fill="#fff" rx="1" ry="1" transform="matrix(-103.01476 -4.85805 .43868 -9.3021 31.1 19.7)"/><path fill="#bec18e" d="M192 131l16 21 46-81z"/><path fill="#758946" d="M156 91.5l-29.6-86 43.5-15 29.7 86z"/><path fill="#000001" d="M82 66h32v42H82z"/><ellipse fill="#503428" rx="1" ry="1" transform="matrix(17.88135 7.7349 -12.2403 28.29686 18.2 140.2)"/><path fill="#d48c86" d="M53 61l78-11-73-18z"/><ellipse fill="#a4b7fe" cx="40" cy="92" rx="25" ry="25"/><path fill="#090005" d="M23 47h29v15H23z"/><path fill="#dbe4e9" d="M142 17l37 39-24 6z"/><path fill="#000009" d="M73.8 99.1l-10.3 47.2-8.3-3.7 11.5-47.8z"/><path fill="#fff" d="M-16 38l30 14L4-16z"/><path fill="#d5deff" d="M48.5 188.1l-14.9-1.8 9.9-80.4 14.9 1.8z"/></g></svg>