<svg xmlns="http://www.w3.org/2000/svg" viewBox="0 0 700 467"><filter id="b"><feGaussianBlur stdDeviation="12" /></filter><path fill="#424155" d="M0 0h700v464H0z"/><g filter="url(#b)" transform="translate(1.4 1.4) scale(2.73438)" fill-opacity=".5"><ellipse fill="#fce9ff" rx="1" ry="1" transform="matrix(-14.13034 -22.4386 48.95262 -30.82711 127.2 66.2)"/><ellipse rx="1" ry="1" transform="matrix(-26.72099 -1.63433 4.1087 -67.17669 53.2 118.4)"/><ellipse rx="1" ry="1" transform="matrix(34.3855 -29.26435 15.84285 18.61529 109.1 149.3)"/><path fill="#fff" d="M142 169.8l11.6-43.5 14.5 4-11.7 43.4z"/><ellipse fill="#000608" cx="255" cy="61" rx="73" ry="73"/><ellipse fill="#81b1ca" cx="87" cy="11" rx="53" ry="20"/><ellipse fill="#73c8ff" rx="1" ry="1" transform="matrix(9.40164 -11.43738 34.64022 28.4746 10 160.6)"/><ellipse fill="#8c7aab" cx="172" cy="101" rx="28" ry="38"/><path d="M105 36h25v29h-25z"/><ellipse fill="#00000d" rx="1" ry="1" transform="matrix(37.72371 3.59957 -6.49102 68.02633 229 155.4)"/><path fill="#efe7ff" d="M76 144l7-65 36-2z"/><path fill="#d8ffff" d="M238.5 27.3l21.6 5.8L271 49.2l-38.8-13.4z"/><ellipse fill="#e70315" rx="1" ry="1" transform="matrix(-11.3259 -7.51798 14.92418 -22.48338 178.2 151.2)"/><ellipse fill="#f8e4ff" rx="1" ry="1" transform="rotate(5.9 -363 1512.8) scale(22.75416 13.32007)"/><ellipse fill="#00070e" rx="1" ry="1" transform="rotate(40.1 -171.3 127.8) scale(149.46922 19.80606)"/><path fill="#cfffff" d="M111 99.4l6.2-3 7.9 16.2-6.3 3z"/><ellipse rx="1" ry="1" transform="rotate(51.5 -65.7 98) scale(42.61307 14.83539)"/><path fill="#92a6d9" d="M22 75h10v38H22z"/><path fill="#cac9fc" d="M93 46h10v79H93z"/><ellipse rx="1" ry="1" transform="rotate(98 -13 126.4) scale(44.0428 23.72219)"/><ellipse fill="#beeaff" rx="1" ry="1" transform="rotate(40.8 -67.1 315.7) scale(4.91637 13.86049)"/><path fill="#6496ff" d="M-16 164v-39l76 59z"/></g></svg>