<svg xmlns="http://www.w3.org/2000/svg" viewBox="0 0 200 133"><filter id="b"><feGaussianBlur stdDeviation="12" /></filter><path fill="#897986" d="M0 0h200v133H0z"/><g filter="url(#b)" transform="translate(.5 .5)" fill-opacity=".5"><ellipse fill="#2d0900" rx="1" ry="1" transform="matrix(-32.81861 51.1479 -35.95074 -23.06749 52.7 115.1)"/><ellipse fill="#ecd6ff" cx="144" cy="11" rx="125" ry="17"/><ellipse fill="#fff" cx="199" cy="103" rx="31" ry="56"/><ellipse fill="#fff" rx="1" ry="1" transform="rotate(77.7 -30.9 46.3) scale(20.33405 17.86853)"/><path fill="#00048a" d="M140 68h23v65h-23z"/><ellipse fill="#fff" cx="105" cy="68" rx="10" ry="20"/><ellipse fill="#522098" cx="114" cy="25" rx="20" ry="20"/><ellipse fill="#961a0a" cx="17" cy="112" rx="28" ry="28"/><ellipse fill="#f6f5e8" cx="162" cy="12" rx="17" ry="35"/><ellipse fill="#484941" cx="67" cy="70" rx="30" ry="48"/><ellipse fill="#441b1f" cx="196" cy="74" rx="6" ry="20"/><ellipse fill="#3a5463" rx="1" ry="1" transform="matrix(25.64861 -27.69798 16.40523 15.19141 96 117)"/><ellipse rx="1" ry="1" transform="matrix(-3.32621 1.52989 -10.49322 -22.8139 142.4 63.8)"/><path fill="#1f1200" d="M186.8 47l-14 25.3-9.6-5.3 14-25.3z"/><ellipse fill="#131e23" cx="53" cy="99" rx="13" ry="46"/><ellipse fill="#fdfbf8" cx="179" cy="94" rx="10" ry="34"/><ellipse fill="#8db4c7" cx="130" cy="108" rx="20" ry="15"/><ellipse fill="#a07d8c" cx="39" cy="19" rx="32" ry="25"/><path fill="#fff" d="M133.1 30.9l12 12L141 47l-12-12z"/><path fill="#5e402d" d="M6.2 67.3L-4.6 43l38.9-25L-16 88z"/><ellipse fill="#a18b84" cx="78" cy="73" rx="7" ry="45"/><path fill="#0f0219" d="M112 41l13-12-6 38z"/></g></svg>