<svg xmlns="http://www.w3.org/2000/svg" viewBox="0 0 200 133"><filter id="b"><feGaussianBlur stdDeviation="12" /></filter><path fill="#ada8a7" d="M0 0h200v133H0z"/><g filter="url(#b)" transform="translate(.5 .5)" fill-opacity=".5"><ellipse fill="#5e5857" rx="1" ry="1" transform="matrix(97.80394 72.63561 -10.40785 14.01418 166.8 27.6)"/><ellipse fill="#541717" cx="24" cy="55" rx="18" ry="18"/><ellipse fill="#dae2e4" cx="147" cy="129" rx="73" ry="73"/><path d="M-9.8 148l3.4-38.6 15 13 1.4 12.3z"/><ellipse fill="#593f25" rx="1" ry="1" transform="rotate(149.9 22 52.7) scale(17.48128 15.01495)"/><ellipse fill="#533a38" cx="69" cy="32" rx="15" ry="15"/><ellipse fill="#d1ebf2" cx="24" cy="103" rx="26" ry="26"/><ellipse fill="#7f6262" rx="1" ry="1" transform="rotate(61.8 37 107) scale(19.17014 10.44526)"/><ellipse fill="#c0d3d6" rx="1" ry="1" transform="matrix(-1.20945 -20.97565 48.5315 -2.7983 59.3 128.5)"/><path fill="#131812" d="M181 22.6l7-.2 1 31-7 .2z"/><path d="M0 123h11v10H0z"/><ellipse fill="#deb9ba" rx="1" ry="1" transform="rotate(179.6 54 28.5) scale(39.68173 15.06314)"/><ellipse fill="#d5a193" cx="151" cy="57" rx="10" ry="40"/><path fill="#8d6f5f" d="M14.6 57l22-61L53 33.6 1.8 24.9z"/><ellipse fill="#c5cfd9" cx="4" cy="63" rx="8" ry="29"/><path fill="#4c4545" d="M163 23h14v27h-14z"/><ellipse fill="#dbc1be" cx="80" cy="1" rx="32" ry="14"/><path fill="#320b0b" d="M26.8 71l-7-8.4L31.1 53l7 8.4z"/><ellipse fill="#948a89" cx="142" cy="5" rx="29" ry="37"/><path fill="#c0c7ca" d="M160 55h31v68h-31z"/><ellipse fill="#96866f" rx="1" ry="1" transform="matrix(-15.06628 17.59249 -8.22906 -7.0474 59.3 78.4)"/><ellipse fill="#806b6a" cx="72" cy="29" rx="17" ry="17"/></g></svg>