<svg xmlns="http://www.w3.org/2000/svg" viewBox="0 0 200 133"><filter id="b"><feGaussianBlur stdDeviation="12" /></filter><path fill="#737884" d="M0 0h200v133H0z"/><g filter="url(#b)" transform="translate(.5 .5)" fill-opacity=".5"><ellipse fill="#00000d" cx="63" cy="15" rx="100" ry="46"/><ellipse fill="#fff" rx="1" ry="1" transform="matrix(53.36324 25.1011 -8.305 17.65586 39.2 97.4)"/><ellipse fill="#d3dbe6" rx="1" ry="1" transform="matrix(55.3043 -.06852 .05823 47.00014 171 86.6)"/><ellipse rx="1" ry="1" transform="matrix(.05151 -29.51435 15.89952 .02775 102.5 89.7)"/><ellipse fill="#f0f6fb" rx="1" ry="1" transform="matrix(17.6627 18.35425 -26.9495 25.93408 58.3 86.1)"/><path d="M184.8 73.7l-120 10.5L215 89l-10-14z"/><ellipse fill="#00001b" cx="108" cy="2" rx="199" ry="18"/><path fill="#fff" d="M12 31h30v16H12z"/><ellipse fill="#fff" cx="137" cy="25" rx="9" ry="9"/><ellipse fill="#e1eaf6" cx="159" cy="107" rx="43" ry="17"/><path fill="#ecf5ff" d="M-15 61l133 63-81 1z"/><path fill="#0e0c1e" d="M154.6 34.3l23.6 7.3-16.4 30.2-5.4-50.7z"/><ellipse rx="1" ry="1" transform="rotate(78.8 -12.4 90) scale(3.13951 27.35719)"/><path fill="#0f0600" d="M4 108h22v25H4z"/><path fill="#1b2130" d="M59.7 70.5l-27-27L-16 63.4l99-9z"/><path fill="#fff" d="M174.5 34.5h-17v-15h17z"/><path d="M131.2 120.6l7.8 14-12.2 6.8-7.8-14z"/><ellipse rx="1" ry="1" transform="matrix(-16.5151 -6.59356 19.44576 -48.70642 0 16.7)"/><path fill="#c2bfbe" d="M106.3 58.3l-8.2-5 17.7-35.6L121 35z"/><path fill="#fff" d="M40 67h49v14H40z"/><ellipse fill="#fff" rx="1" ry="1" transform="rotate(-66.3 111.8 -61.2) scale(14.87778 6.2524)"/><path fill="#fff" d="M146 23L134 8l-6 30z"/></g></svg>