<svg xmlns="http://www.w3.org/2000/svg" viewBox="0 0 700 467"><filter id="b"><feGaussianBlur stdDeviation="12" /></filter><path fill="#3c1e72" d="M0 0h700v464H0z"/><g filter="url(#b)" transform="translate(1.4 1.4) scale(2.73438)" fill-opacity=".5"><ellipse fill="#7d36fc" cx="15" cy="104" rx="64" ry="64"/><ellipse fill="#0c0a00" cx="112" cy="127" rx="35" ry="92"/><ellipse fill="#000500" cx="161" cy="96" rx="52" ry="13"/><ellipse fill="#0c0b12" cx="184" cy="9" rx="107" ry="26"/><ellipse fill="#ff5893" cx="129" cy="63" rx="20" ry="10"/><ellipse fill="#6640b8" rx="1" ry="1" transform="matrix(-18.0757 -32.98122 24.10042 -13.2085 175.8 145.9)"/><ellipse fill="#ff756f" cx="210" cy="77" rx="12" ry="12"/><path fill="#ba5b52" d="M111.8 98.5l-4.3-41 20.6 31.2-11.6 13.3z"/><ellipse fill="#4d26b2" cx="75" cy="64" rx="21" ry="21"/><ellipse fill="#723bd1" rx="1" ry="1" transform="matrix(-10.6328 -5.53597 13.1512 -25.25917 60.7 155.4)"/><ellipse fill="#040d13" cx="118" cy="151" rx="29" ry="51"/><path fill="#916890" d="M138 170l-13 15 7-56z"/><ellipse fill="#7229df" cx="7" cy="99" rx="38" ry="38"/><ellipse fill="#47229c" cx="179" cy="69" rx="23" ry="23"/><path d="M142 89h59v18h-59z"/><ellipse fill="#401d9e" rx="1" ry="1" transform="matrix(-61.18628 -35.04171 7.69647 -13.4388 39.2 46.4)"/><path fill="#db5077" d="M223.6 58.3l-14.3-2-8.8 38.1L229.4 70z"/><ellipse fill="#442197" cx="226" cy="145" rx="49" ry="49"/><path fill="#040007" d="M110 35.3l7.5 35.2L98 74.7l-7.5-35.2z"/><ellipse fill="#8f353a" rx="1" ry="1" transform="matrix(-10.49867 -3.60396 9.01987 -26.27575 121.4 68)"/><path fill="#100650" d="M77 92h21v78H77z"/><ellipse fill="#331f7d" cx="95" cy="26" rx="57" ry="10"/></g></svg>