<svg xmlns="http://www.w3.org/2000/svg" viewBox="0 0 700 467"><filter id="b"><feGaussianBlur stdDeviation="12" /></filter><path fill="#424751" d="M0 0h700v464H0z"/><g filter="url(#b)" transform="translate(1.4 1.4) scale(2.73438)" fill-opacity=".5"><ellipse fill="#bff4ff" rx="1" ry="1" transform="matrix(15.1552 -21.16514 31.59361 22.62245 117 50.6)"/><ellipse fill="#fffffc" cx="159" cy="126" rx="38" ry="11"/><ellipse fill="#ff7c09" rx="1" ry="1" transform="rotate(173.5 51.8 72.7) scale(22.54816 29.08614)"/><ellipse fill="#fff" cx="15" cy="135" rx="19" ry="11"/><ellipse fill="#00338c" cx="26" cy="30" rx="44" ry="76"/><ellipse fill="#000d2d" rx="1" ry="1" transform="matrix(-41.29313 9.49189 -34.98407 -152.19329 217.4 57.8)"/><ellipse fill="#120400" cx="197" cy="156" rx="61" ry="23"/><ellipse fill="#150000" rx="1" ry="1" transform="matrix(-.98549 28.1906 -54.0676 -1.8901 48.2 169)"/><ellipse fill="#00458b" cx="234" cy="33" rx="46" ry="37"/><path fill="#83dcff" d="M87 49h63v29H87z"/><ellipse fill="#961000" rx="1" ry="1" transform="matrix(48.94554 -1.93127 .36232 9.18262 105.9 88.3)"/><ellipse fill="#006eae" cx="28" cy="19" rx="35" ry="32"/><ellipse fill="#c2431f" rx="1" ry="1" transform="matrix(-9.11635 7.5307 -16.80907 -20.34834 246.9 111.7)"/><path fill="#ffdf99" d="M12 109h20v32H12z"/><ellipse fill="#79643d" cx="134" cy="15" rx="33" ry="29"/><ellipse fill="#c28263" cx="78" cy="40" rx="8" ry="74"/><path fill="#0d0000" d="M30 112h57v19H30z"/><ellipse fill="#000e2f" rx="1" ry="1" transform="matrix(8.50146 18.9035 -44.99782 20.23685 23.3 84.7)"/><path fill="#edd9c2" d="M53 90l-11 21 30-5z"/><path fill="#a93e19" d="M39 123h101v19H39z"/><path fill="#ffe3bd" d="M158 83l15 49-28 4z"/><path fill="#ff9fc9" d="M60 142l15-12 21 8z"/></g></svg>