<svg xmlns="http://www.w3.org/2000/svg" viewBox="0 0 700 467"><filter id="b"><feGaussianBlur stdDeviation="12" /></filter><path fill="#5b5c64" d="M0 0h700v464H0z"/><g filter="url(#b)" transform="translate(1.4 1.4) scale(2.73438)" fill-opacity=".5"><ellipse fill="#fff" cx="77" cy="65" rx="64" ry="61"/><ellipse fill="#00021c" cx="234" cy="95" rx="103" ry="103"/><ellipse fill="#8bb7ff" rx="1" ry="1" transform="matrix(-31.31145 -3.2958 3.06784 -29.14574 133.5 43)"/><ellipse fill="#541d00" cx="69" cy="169" rx="50" ry="50"/><ellipse fill="#000005" rx="1" ry="1" transform="rotate(-63.1 89.5 43.7) scale(24.52921 22.76652)"/><ellipse fill="#ffffd2" rx="1" ry="1" transform="matrix(-7.42462 -17.37218 25.5935 -10.9383 51 111.4)"/><ellipse fill="#53709e" cx="131" cy="81" rx="29" ry="41"/><path fill="#e0ecff" d="M16 14h138v33H16z"/><path fill="#e4dfd8" d="M194 115.5l-14.8-10.1 16.7-24.9 15 10.1z"/><ellipse fill="#000003" rx="1" ry="1" transform="matrix(-133.2449 -3.48914 .2188 -8.35554 103.5 7.4)"/><path d="M0 0h15v94H0z"/><ellipse fill="#0d0000" cx="169" cy="143" rx="31" ry="31"/><ellipse fill="#feface" rx="1" ry="1" transform="matrix(-27.49344 16.63048 -17.02302 -28.14239 70.7 94)"/><ellipse fill="#fff4bb" rx="1" ry="1" transform="matrix(-4.8132 -8.01193 18.7742 -11.27869 123 110.4)"/><path fill="#448ff8" d="M243 65h13v44h-13z"/><ellipse fill="#100" cx="242" cy="146" rx="27" ry="40"/><ellipse fill="#583407" cx="53" cy="150" rx="108" ry="25"/><path d="M107 88h9v19h-9z"/><ellipse fill="#001b13" rx="1" ry="1" transform="matrix(37.07687 37.14084 -14.65879 14.63354 188 24)"/><ellipse fill="#c2914b" cx="194" cy="69" rx="10" ry="16"/><path fill="#badcff" d="M18 15h38v75H18z"/><ellipse fill="#cdb328" cx="73" cy="17" rx="13" ry="13"/></g></svg>