<svg xmlns="http://www.w3.org/2000/svg" viewBox="0 0 700 467"><filter id="b"><feGaussianBlur stdDeviation="12" /></filter><path fill="#978b83" d="M0 0h700v464H0z"/><g filter="url(#b)" transform="translate(1.4 1.4) scale(2.73438)" fill-opacity=".5"><ellipse fill="#2e2118" cx="231" cy="112" rx="216" ry="36"/><ellipse fill="#e8f7fc" rx="1" ry="1" transform="matrix(-9.80687 72.90892 -91.89028 -12.36003 142 0)"/><ellipse rx="1" ry="1" transform="matrix(-9.16324 -14.31627 25.95352 -16.61175 41.4 133.3)"/><ellipse fill="#efd3ff" cx="7" cy="41" rx="24" ry="81"/><ellipse fill="#faeee2" rx="1" ry="1" transform="matrix(-15.63196 3.06687 -6.22872 -31.74803 200 76.6)"/><ellipse fill="#fff" cx="117" cy="95" rx="7" ry="22"/><ellipse fill="#dbc7a1" cx="127" cy="169" rx="45" ry="45"/><ellipse fill="#140b00" rx="1" ry="1" transform="matrix(5.07535 -15.99954 60.84808 19.30215 210 125.5)"/><ellipse fill="#772300" rx="1" ry="1" transform="rotate(45.4 28.1 342.2) scale(29.98747 42.76661)"/><ellipse fill="#ece5d2" cx="74" cy="89" rx="8" ry="38"/><ellipse fill="#56688f" cx="112" cy="40" rx="54" ry="12"/><ellipse fill="#fff" rx="1" ry="1" transform="matrix(.26116 10.686 -22.3825 .54702 53.1 60.8)"/><path fill="#000016" d="M84 81h26v48H84z"/><ellipse fill="#e7ca8e" cx="255" cy="135" rx="17" ry="17"/><ellipse rx="1" ry="1" transform="matrix(-16.0399 -.72837 .93264 -20.53824 33 133.5)"/><path fill="#fffffa" d="M154 55l-20-4 11 75z"/><ellipse fill="#f7fcf2" cx="48" rx="22" ry="25"/><path d="M126 79h13v54h-13z"/><path fill="#6b5246" d="M20 107l82-36-84 4z"/><ellipse fill="#f7ffff" cx="166" cy="93" rx="5" ry="13"/><ellipse fill="#384868" cx="109" cy="68" rx="11" ry="18"/><ellipse fill="#f0e6bd" rx="1" ry="1" transform="rotate(-104.3 128.6 -54.4) scale(14.08774 21.30709)"/></g></svg>