<svg xmlns="http://www.w3.org/2000/svg" viewBox="0 0 700 467"><filter id="b"><feGaussianBlur stdDeviation="12" /></filter><path fill="#370c14" d="M0 0h700v464H0z"/><g filter="url(#b)" transform="translate(1.4 1.4) scale(2.73438)" fill-opacity=".5"><ellipse fill="#db43a6" cx="111" cy="154" rx="95" ry="12"/><ellipse fill="#c40000" rx="1" ry="1" transform="matrix(52.79087 -1.84733 .90397 25.83267 24.4 70.5)"/><ellipse fill="#975267" rx="1" ry="1" transform="matrix(20.78666 21.42424 -19.78163 19.19294 121.2 80.1)"/><ellipse cx="215" cy="29" rx="255" ry="26"/><ellipse fill="#c70000" cx="204" cy="71" rx="26" ry="26"/><ellipse fill="#9076ef" rx="1" ry="1" transform="matrix(9.2592 -21.0534 10.6943 4.70331 183.5 .8)"/><ellipse fill="#bb000c" rx="1" ry="1" transform="matrix(-44.46632 10.75754 -6.61564 -27.34576 176.7 169)"/><ellipse cx="201" cy="116" rx="77" ry="26"/><ellipse fill="red" rx="1" ry="1" transform="matrix(-6.73426 .5088 -2.4638 -32.60991 165.4 75.9)"/><path fill="#ff1422" d="M60 41h11v56H60z"/><ellipse fill="#a784df" rx="1" ry="1" transform="matrix(65.6898 .6924 -.0457 4.3354 94.7 155)"/><ellipse cx="248" cy="75" rx="20" ry="206"/><ellipse fill="#000300" rx="1" ry="1" transform="rotate(-4.3 1599.1 -463.4) scale(42.90387 20.75875)"/><path fill="#000d00" d="M80 158.5v8l-52-1v-8z"/><path d="M27 0h10v123H27z"/><ellipse fill="#000100" cx="54" cy="66" rx="5" ry="75"/><path fill="red" d="M14 50h11v51H14z"/><ellipse fill="#9b5a6b" rx="1" ry="1" transform="rotate(-172.6 45.9 46.4) scale(3.80575 36.44715)"/><ellipse fill="#9d014b" rx="1" ry="1" transform="matrix(32.47262 -20.68707 11.61445 18.23127 133 168.7)"/><ellipse rx="1" ry="1" transform="matrix(-7.23275 21.3199 -93.59044 -31.75044 35.8 16)"/><ellipse fill="red" rx="1" ry="1" transform="rotate(-101.5 140.9 -54) scale(19.87851 4.38743)"/><path fill="#d42e20" d="M95.2-.8l-4.6 23.5-9.8-1.9 4.6-23.5z"/></g></svg>