<svg xmlns="http://www.w3.org/2000/svg" viewBox="0 0 200 133"><filter id="b"><feGaussianBlur stdDeviation="12" /></filter><path fill="#36385c" d="M0 0h200v133H0z"/><g filter="url(#b)" transform="translate(.5 .5)" fill-opacity=".5"><ellipse fill="#a398c6" cx="101" cy="81" rx="52" ry="52"/><ellipse cx="73" cy="2" rx="122" ry="30"/><ellipse cx="95" cy="106" rx="21" ry="8"/><ellipse fill="#000027" cx="15" cy="43" rx="34" ry="56"/><path fill="#ecedd0" d="M177 129l5-33-24-3z"/><ellipse fill="#000054" cx="189" cy="59" rx="27" ry="40"/><ellipse fill="#dbe7df" rx="1" ry="1" transform="matrix(7.64287 -.45407 1.09726 18.4689 28.6 105)"/><ellipse fill="#0827dd" rx="1" ry="1" transform="matrix(-5.26653 24.2286 -14.72631 -3.20103 187 28.4)"/><ellipse cx="195" cy="126" rx="13" ry="83"/><path fill="#605cc9" d="M45 38h118v32H45z"/><ellipse rx="1" ry="1" transform="matrix(.55083 -7.59416 153.74183 11.15135 44 132)"/><path fill="#001179" d="M76 62h53v12H76z"/><path d="M16.8 138.6l-19.8 2L-16.8 9.5 3 7.4z"/><ellipse fill="#000014" cx="135" cy="15" rx="37" ry="22"/><ellipse fill="#d5d9e6" cx="91" cy="121" rx="22" ry="9"/><path fill="#c3bab0" d="M119.5 85.5l29-2 2 29-29 2z"/><path fill="#000300" d="M102 133l97-23 9 38z"/><ellipse fill="#000300" rx="1" ry="1" transform="matrix(-5.44829 .79482 -7.4097 -50.7916 41.7 98.4)"/><path fill="#c77ba4" d="M57 32h28v22H57z"/><ellipse fill="#000008" cx="72" rx="44" ry="31"/><path fill="#c2bfb2" d="M115.3 86.3l-60 5.3L71.6 119l13.6-33z"/><ellipse cx="63" cy="129" rx="10" ry="16"/></g></svg>