<svg xmlns="http://www.w3.org/2000/svg" viewBox="0 0 641 195"><filter id="b"><feGaussianBlur stdDeviation="12" /></filter><path fill="#7e3e45" d="M0 0h641v192H0z"/><g filter="url(#b)" transform="translate(1.3 1.3) scale(2.5039)" fill-opacity=".5"><ellipse rx="1" ry="1" transform="rotate(-27.7 60.5 -4.5) scale(19.49258 25.31609)"/><path fill="#e9ffea" d="M39 57h30v20H39z"/><ellipse fill="#b4c1af" cx="203" cy="74" rx="29" ry="29"/><path fill="#fff" d="M112 73h144v4H112z"/><ellipse fill="#120000" cx="96" cy="47" rx="19" ry="26"/><path fill="#fff" d="M8 73h162v4H8z"/><path fill="#730000" d="M161 12h95v31h-95z"/><path fill="#fcedd4" d="M114 51h46v10h-46z"/><path fill="#ff766d" d="M92.9-13.2L51 47l43.4 14-43-53z"/><path fill="#fffff1" d="M239 59l-21-21 22 6z"/><ellipse fill="#820000" cx="63" cy="29" rx="79" ry="15"/><ellipse fill="#f0e3d6" rx="1" ry="1" transform="matrix(28.48397 -8.82239 1.31966 4.26064 203.6 4.5)"/><ellipse fill="#ff7b73" cx="38" cy="26" rx="6" ry="31"/><path fill="#000003" d="M6-16l28 87.5-50 3.7 27-19.4z"/><path fill="#d1c7e0" d="M166-16L118-2l44 18z"/><ellipse fill="#00001b" rx="1" ry="1" transform="rotate(-174.1 85.8 -4.5) scale(6.83936 72.65365)"/><ellipse fill="#070b21" cx="145" cy="27" rx="6" ry="28"/><path fill="#100000" d="M216.4 45.8l6 5.4-20.8 23-6-5.4z"/><ellipse fill="#220001" cx="251" cy="12" rx="13" ry="61"/><path fill="#fff" d="M130 13l30 12-21-1z"/><ellipse fill="#fff" cx="35" cy="50" rx="7" ry="6"/><path fill="#ff2634" d="M237 39l-5-45-18 52z"/></g></svg>