<svg xmlns="http://www.w3.org/2000/svg" viewBox="0 0 700 467"><filter id="b"><feGaussianBlur stdDeviation="12" /></filter><path fill="#31363c" d="M0 0h700v464H0z"/><g filter="url(#b)" transform="translate(1.4 1.4) scale(2.73438)" fill-opacity=".5"><ellipse fill="#9bbeaa" cx="35" cy="6" rx="15" ry="67"/><ellipse fill="#a4a49b" rx="1" ry="1" transform="matrix(22.45453 -14.92921 12.8814 19.37448 98.1 9)"/><ellipse fill="#020c21" cx="177" cy="150" rx="143" ry="29"/><ellipse cx="65" cy="60" rx="31" ry="31"/><path fill="#ada2a0" d="M94.5 105.4l-3.6-1.3 37-65.7 23.3-3.8z"/><path fill="#c9a386" d="M172.6 35.7l8.6 22-15.7 26.8-3-42.7z"/><ellipse fill="#a38263" cx="250" cy="32" rx="18" ry="20"/><ellipse fill="#846b5f" cx="122" cy="60" rx="26" ry="14"/><path fill="#aca38e" d="M78-16L42.2 4.3l43.8 19L29 25z"/><path fill="#928f88" d="M143.3 67.8L95.7-7l29.2 67.7 14.8 15.7z"/><path fill="#fcffff" d="M91 121l8-18 2 17z"/><path fill="#d3dfc3" d="M143-13l12 5-5 39z"/><path fill="#8b705d" d="M199-16l21 86-28-25z"/><ellipse cx="65" cy="105" rx="13" ry="27"/><path fill="#05132f" d="M123.3 112.8l5.2-103.5-18 84.3-8.1 27z"/><path d="M154 0h18v35h-18z"/><ellipse fill="#51646d" rx="1" ry="1" transform="matrix(-4.29683 -42.30147 11.43119 -1.16114 17 145.8)"/><path d="M232 18l-23-34-8 41z"/><path fill="#010303" d="M203 69l-31-39 17-28z"/><path fill="#e4dee4" d="M122 123l5-7-26 5z"/><path fill="#ecfff6" d="M36 158.4h-1l-5-92.8h1z"/><path fill="#b5b3b4" d="M99 41l3 60 14-32z"/></g></svg>