<svg xmlns="http://www.w3.org/2000/svg" viewBox="0 0 700 467"><filter id="b"><feGaussianBlur stdDeviation="12" /></filter><path fill="#93858a" d="M0 0h700v464H0z"/><g filter="url(#b)" transform="translate(1.4 1.4) scale(2.73438)" fill-opacity=".5"><ellipse fill="#fff" rx="1" ry="1" transform="matrix(15.13375 -73.3572 96.6799 19.94527 67.8 31.8)"/><ellipse fill="#460000" rx="1" ry="1" transform="rotate(88.8 -25.7 113) scale(31.69003 229.43144)"/><ellipse fill="#00006a" rx="1" ry="1" transform="matrix(-45.73949 2.07702 -4.463 -98.28275 255 60)"/><ellipse fill="#890000" cx="174" cy="50" rx="12" ry="254"/><ellipse fill="#fff" cx="115" cy="55" rx="52" ry="52"/><ellipse fill="#002c77" cx="237" cy="36" rx="25" ry="90"/><path fill="#ebffff" d="M0 0h159v105H0z"/><ellipse fill="#94a5a2" cx="201" cy="114" rx="12" ry="252"/><ellipse fill="#921300" rx="1" ry="1" transform="matrix(.94034 19.7497 -102.46212 4.87853 58.4 125)"/><path fill="#595985" d="M33.4 81.5L13 73.3l11.6-28.8L45 52.7z"/><ellipse fill="#ad0100" cx="173" cy="36" rx="12" ry="70"/><ellipse fill="#4f1903" cx="16" cy="158" rx="50" ry="54"/><ellipse fill="#0a0702" rx="1" ry="1" transform="matrix(36.7702 -18.60013 5.69397 11.25629 150 169)"/><path fill="#f7fffa" d="M117 145l-19-11 10 32z"/><ellipse fill="#fff" cx="16" cy="92" rx="147" ry="13"/><ellipse fill="#be1600" rx="1" ry="1" transform="matrix(12.61024 -.1439 .31538 27.63875 162 134.7)"/><ellipse fill="#003362" rx="1" ry="1" transform="matrix(51.65533 -2.97843 .45854 7.95248 230.1 101)"/><path fill="#9dc1e0" d="M97.8 185h14.6l-44.5-38-1 32.6z"/><ellipse fill="#92b5b9" rx="1" ry="1" transform="matrix(.10191 6.4875 -21.84067 .3431 192.9 117.4)"/><path fill="#fff" d="M136.5 75.5l26-1 1 30-26 1z"/><ellipse fill="#96d2dd" rx="1" ry="1" transform="matrix(8.54081 21.15511 -39.85137 16.08893 13.6 44)"/><ellipse fill="#00377b" cx="248" cy="49" rx="35" ry="84"/></g></svg>