<svg xmlns="http://www.w3.org/2000/svg" viewBox="0 0 800 533"><filter id="b"><feGaussianBlur stdDeviation="12" /></filter><path fill="#414652" d="M0 0h800v531H0z"/><g filter="url(#b)" transform="translate(1.6 1.6) scale(3.125)" fill-opacity=".5"><path fill="#a7f1ff" d="M156 87.5l-60-4.2 4-56.8 60 4.2z"/><ellipse fill="#ffc2a0" rx="1" ry="1" transform="matrix(48.6492 -2.36408 .7204 14.82454 238.9 131)"/><path fill="#d57b5c" d="M7 114h112v33H7z"/><ellipse fill="#002765" rx="1" ry="1" transform="matrix(52.45196 -13.89782 24.33408 91.83956 20.8 13.1)"/><ellipse fill="#002e70" rx="1" ry="1" transform="rotate(11.3 -61.7 1147.9) scale(49.22487 68.08403)"/><path fill="#480000" d="M59 157.6l-42.4 28.5-33.5-49.7 42.3-28.5z"/><path fill="#a30000" d="M88 87h76v19H88z"/><path fill="#fafffa" d="M101.9 146.1l-16.4-7.3 14.6-32.9 16.4 7.3z"/><path fill="#fff" d="M46 127h20v18H46z"/><ellipse fill="#421e05" rx="1" ry="1" transform="matrix(-51.69846 -39.66962 18.41575 -23.99987 167.2 149.7)"/><ellipse fill="#64b2ff" rx="1" ry="1" transform="matrix(-34.67865 .8259 -.43047 -18.0748 127.5 69.9)"/><ellipse fill="#0064a5" rx="1" ry="1" transform="rotate(97.1 -.7 16.7) scale(33.55922 38.85953)"/><ellipse fill="#ff000a" cx="15" cy="132" rx="13" ry="13"/><path fill="#3d1e08" d="M96 121l-46 59L93 48z"/><ellipse fill="#0c70b0" rx="1" ry="1" transform="rotate(-125 122.4 -51.5) scale(26.58731 31.51931)"/><ellipse fill="#000d18" cx="52" cy="84" rx="27" ry="27"/><ellipse fill="#00182f" rx="1" ry="1" transform="matrix(43.21549 -4.4677 2.46114 23.80629 214.5 81.8)"/><ellipse fill="#655132" cx="159" cy="26" rx="18" ry="27"/><ellipse fill="#000700" cx="26" cy="154" rx="89" ry="9"/><ellipse rx="1" ry="1" transform="matrix(24.17134 -8.26754 3.3428 9.77314 203.8 160)"/><ellipse fill="#ffffec" cx="126" cy="38" rx="16" ry="7"/><path fill="#f0feff" d="M182 108h-21l16 11z"/></g></svg>