<svg xmlns="http://www.w3.org/2000/svg" viewBox="0 0 700 467"><filter id="b"><feGaussianBlur stdDeviation="12" /></filter><path fill="#7a7876" d="M0 0h700v464H0z"/><g filter="url(#b)" transform="translate(1.4 1.4) scale(2.73438)" fill-opacity=".5"><ellipse rx="1" ry="1" transform="matrix(-77.13776 15.20206 -11.39357 -57.81288 66 33.7)"/><ellipse fill="#fff" rx="1" ry="1" transform="matrix(-121.50856 -14.32587 4.61827 -39.17107 153.3 150.5)"/><ellipse rx="1" ry="1" transform="matrix(-89.20941 -47.63339 14.11338 -26.432 42.3 22.6)"/><ellipse fill="#002" rx="1" ry="1" transform="matrix(-17.66535 25.99378 -12.41388 -8.43646 234.8 56.3)"/><ellipse fill="#f4feff" rx="1" ry="1" transform="matrix(1.52267 11.11574 -59.40812 8.1379 227.6 21.1)"/><ellipse fill="#e3f7f5" rx="1" ry="1" transform="rotate(15.5 -293.3 992.7) scale(31.18251 64.12773)"/><ellipse fill="#0e0000" cx="5" cy="125" rx="10" ry="39"/><ellipse fill="#3969d1" rx="1" ry="1" transform="matrix(20.17354 -26.04413 12.47445 9.6626 31.6 72.9)"/><ellipse fill="#e3fcff" rx="1" ry="1" transform="matrix(6.74946 -23.87509 66.98683 18.9371 162.5 151.6)"/><ellipse fill="#c8daff" cx="181" rx="28" ry="28"/><ellipse fill="#1a0d2b" rx="1" ry="1" transform="matrix(-58.14255 20.07131 -4.07493 -11.80424 204.7 56)"/><ellipse fill="#cfd8d4" cx="40" cy="115" rx="27" ry="12"/><ellipse fill="#9a9689" rx="1" ry="1" transform="matrix(-18.64532 -1.43945 2.53642 -32.85444 218 118.4)"/><ellipse cy="57" rx="24" ry="23"/><ellipse fill="#491d00" cx="103" cy="5" rx="41" ry="41"/><ellipse fill="#bb7e19" rx="1" ry="1" transform="matrix(7.18424 -22.78522 48.05169 15.15083 23.7 169)"/><path fill="#19061a" d="M271-2.2L196 24l35.6-29.2 28.5-4z"/><ellipse fill="#27250a" cx="144" cy="91" rx="41" ry="5"/><path fill="#63c8ff" d="M28 51h26v20H28z"/><path fill="#fff" d="M231 14.8L261.5-.8 271 23l-36.5 6.3z"/><ellipse fill="#fff" cx="142" cy="51" rx="10" ry="7"/><path fill="#afbbf7" d="M198.8-16l12 39.6L197.9 51l-19.4-11.5z"/></g></svg>