<svg xmlns="http://www.w3.org/2000/svg" viewBox="0 0 700 467"><filter id="b"><feGaussianBlur stdDeviation="12" /></filter><path fill="#65686b" d="M0 0h700v464H0z"/><g filter="url(#b)" transform="translate(1.4 1.4) scale(2.73438)" fill-opacity=".5"><ellipse fill="#fff" cx="153" cy="21" rx="148" ry="39"/><ellipse rx="1" ry="1" transform="matrix(4.88974 -46.22558 219.03934 23.16998 168.9 112)"/><ellipse fill="#fff" cx="188" cy="4" rx="180" ry="29"/><ellipse cx="169" cy="149" rx="25" ry="53"/><ellipse fill="#9ba4ad" rx="1" ry="1" transform="rotate(-164.8 117.3 53.4) scale(18.33815 33.94437)"/><ellipse fill="#8190a3" rx="1" ry="1" transform="matrix(4.94116 20.90895 -40.45585 9.56044 110 146.2)"/><ellipse fill="#fbffff" cx="40" cy="30" rx="26" ry="27"/><ellipse fill="#030307" rx="1" ry="1" transform="matrix(169.2643 -.12493 .01516 20.54148 91.6 94.5)"/><ellipse fill="#030000" cx="83" cy="45" rx="7" ry="13"/><ellipse fill="#e4e5cc" cx="210" cy="33" rx="32" ry="32"/><ellipse fill="#fff" cx="100" cy="11" rx="50" ry="16"/><ellipse fill="#675450" cx="152" cy="57" rx="44" ry="9"/><path d="M225.5 56.5h17v25h-17z"/><ellipse fill="#1a2637" rx="1" ry="1" transform="rotate(143.7 -21 76.6) scale(56.77333 21.43711)"/><ellipse fill="#311106" cx="248" cy="43" rx="8" ry="8"/><path fill="#5a6262" d="M4.1-16L13 185l1.4-133.8 4.5-16.9z"/><ellipse fill="#000204" cx="168" cy="145" rx="22" ry="44"/><ellipse fill="#13151b" cx="216" cy="85" rx="10" ry="33"/><ellipse fill="#5f5253" cx="92" cy="55" rx="26" ry="8"/><ellipse fill="#000005" rx="1" ry="1" transform="matrix(-13.63198 -43.99191 6.00314 -1.86022 249.4 156.2)"/><ellipse fill="#fff" rx="1" ry="1" transform="matrix(-3.1162 34.02037 -8.49434 -.77806 237.7 22.5)"/><path fill="#6b7686" d="M74.7 136.2l77.3 15.9L39.4 185 74 99.6z"/></g></svg>