<svg xmlns="http://www.w3.org/2000/svg" viewBox="0 0 700 467"><filter id="b"><feGaussianBlur stdDeviation="12" /></filter><path fill="#484949" d="M0 0h700v464H0z"/><g filter="url(#b)" transform="translate(1.4 1.4) scale(2.73438)" fill-opacity=".5"><ellipse fill="#fff" rx="1" ry="1" transform="matrix(115.8105 -19.335 7.96762 47.72349 199.4 0)"/><ellipse fill="#000306" cx="87" cy="169" rx="111" ry="111"/><ellipse rx="1" ry="1" transform="matrix(7.75914 -33.08128 81.6666 19.15473 231.1 97.6)"/><path fill="#fff" d="M266-4L158 34l-4-50z"/><ellipse fill="#8c7973" cx="64" cy="32" rx="92" ry="33"/><ellipse fill="#68645d" cx="218" cy="37" rx="27" ry="27"/><ellipse fill="#101010" rx="1" ry="1" transform="rotate(-143.8 26.8 35) scale(88.47776 25.94244)"/><ellipse fill="#766b67" cx="111" cy="49" rx="95" ry="21"/><ellipse fill="#a6a9a8" cx="42" cy="128" rx="7" ry="18"/><ellipse fill="#fff" cx="177" cy="5" rx="23" ry="28"/><ellipse fill="#cad9d0" rx="153" ry="10"/><ellipse fill="#d0d5d2" cx="8" cy="155" rx="4" ry="22"/><ellipse fill="#4e5e6c" rx="1" ry="1" transform="rotate(91.2 -17.3 147) scale(10.78252 106.98109)"/><path fill="#f3ffff" d="M106 49h35v6h-35z"/><path fill="#fffff3" d="M225.6 141.4l-3.7 6.7 11-16.7-8.8-7.2z"/><path fill="#fff" d="M195 122l5 8-1-22z"/><ellipse fill="#273728" rx="1" ry="1" transform="matrix(40.65194 -1.76674 .28937 6.65816 23.4 0)"/><path fill="#614742" d="M123.8 31.3l-23.7 14.8-16-25.4L108 5.9z"/><path fill="#000406" d="M272.8 194.7l-29.8 3.6-15.8-129 29.8-3.6z"/><path fill="#fff" d="M249 141h7v9h-7z"/><ellipse fill="#030603" cx="165" cy="125" rx="29" ry="29"/><ellipse fill="#fff" cx="132" cy="136" rx="3" ry="6"/></g></svg>