<svg xmlns="http://www.w3.org/2000/svg" viewBox="0 0 700 467"><filter id="b"><feGaussianBlur stdDeviation="12" /></filter><path fill="#65686b" d="M0 0h700v464H0z"/><g filter="url(#b)" transform="translate(1.4 1.4) scale(2.73438)" fill-opacity=".5"><ellipse fill="#fff" cx="175" cy="20" rx="252" ry="36"/><ellipse rx="1" ry="1" transform="matrix(1.75865 -40.2796 217.7507 9.5072 128.3 102.2)"/><ellipse rx="1" ry="1" transform="rotate(8.6 -883 1216.5) scale(26.40907 51.14489)"/><ellipse fill="#fff" rx="1" ry="1" transform="matrix(-87.23335 12.60268 -4.25473 -29.45045 104.2 0)"/><ellipse fill="#ffffe7" cx="214" cy="9" rx="38" ry="55"/><path fill="#959ba3" d="M199 104h35v41h-35z"/><path fill="#090c0e" d="M14-16l-30 39L7 126z"/><path fill="#000202" d="M77 35h12v86H77z"/><ellipse cx="250" cy="151" rx="20" ry="20"/><ellipse cx="46" cy="99" rx="35" ry="25"/><ellipse fill="#6f7d91" cx="99" cy="146" rx="49" ry="24"/><ellipse fill="#f2f8fa" rx="1" ry="1" transform="matrix(12.27366 16.88275 -32.16555 23.38416 51 29)"/><ellipse fill="#000007" rx="1" ry="1" transform="matrix(12.8628 12.79007 -22.88726 23.0174 217 85.3)"/><ellipse cx="170" cy="153" rx="25" ry="25"/><ellipse fill="#fff" rx="1" ry="1" transform="matrix(45.9491 12.69894 -4.3585 15.77054 107.5 7.7)"/><ellipse fill="#040609" cx="126" cy="95" rx="43" ry="23"/><ellipse fill="#212f40" rx="1" ry="1" transform="matrix(8.5697 19.96206 -39.8136 17.09197 13.9 145.6)"/><path fill="#432a27" d="M238.9 43.2l30.5-26-15 12-3.4 28.6z"/><ellipse fill="#fff" rx="1" ry="1" transform="rotate(140.3 121 50.7) scale(17.31794 28.05446)"/><path fill="#7b655c" d="M128 62l77 6-30-27z"/><path fill="#767173" d="M85 61.8l.2 17.8L70.8 47 184 51z"/><path fill="#fff" d="M196 49h7v18h-7z"/></g></svg>