<svg xmlns="http://www.w3.org/2000/svg" viewBox="0 0 200 133"><filter id="b"><feGaussianBlur stdDeviation="12" /></filter><path fill="#b9a392" d="M0 0h200v133H0z"/><g filter="url(#b)" transform="translate(.5 .5)" fill-opacity=".5"><ellipse fill="#fff" cx="190" cy="117" rx="37" ry="37"/><ellipse fill="#644d37" cx="46" cy="114" rx="70" ry="33"/><ellipse fill="#feffff" rx="1" ry="1" transform="rotate(-143 53.3 -12.8) scale(52.27577 23.59317)"/><path fill="#001345" d="M79 16L45 1l27 38z"/><ellipse fill="#d79941" cx="171" cy="14" rx="29" ry="79"/><path fill="#000918" d="M51 90h13v43H51z"/><ellipse fill="#d5dfe0" rx="1" ry="1" transform="matrix(-6.84325 -36.5666 7.9374 -1.48545 70.1 104.2)"/><ellipse fill="#d7d3ff" rx="1" ry="1" transform="matrix(18.26665 -33.08999 13.8325 7.63595 28.6 14.8)"/><path fill="#400e00" d="M189 0h11v35h-11z"/><ellipse fill="#000a16" rx="1" ry="1" transform="rotate(-18.3 339.7 -109) scale(6.03936 28.61971)"/><path fill="#f5fcff" d="M102.6 66.2l28.5 14.5-7.7 15.1-28.5-14.5z"/><path fill="#fffbd5" d="M177.9 149.5l-28.1-55.3L204 66.5l28.1 55.3z"/><ellipse fill="#8f4e42" rx="1" ry="1" transform="matrix(15.86022 -1.26927 2.50043 31.24418 90.7 111)"/><path fill="#e7feff" d="M196 40l-12 108 31-36z"/><ellipse fill="#e1fdff" rx="1" ry="1" transform="matrix(-5.8995 15.17104 -32.3275 -12.57108 85.7 4.8)"/><ellipse fill="#e8bd85" rx="1" ry="1" transform="matrix(19.80423 29.9054 -22.45025 14.86721 163.3 66.2)"/><path fill="#d9ddfa" d="M87 75l-7-36-28 47z"/><path fill="#584a67" d="M53 45h16v28H53z"/><path fill="#54414e" d="M59 49.7l-1.7-8.6-16-37.3-6.2 7.8z"/><ellipse fill="#bda989" cx="45" cy="128" rx="12" ry="22"/><path fill="#ece2ff" d="M51 44.8l-6.2 32.4-9.9-2 6.3-32.4z"/><path fill="#99745e" d="M118.7 50.5L160 99.3 99.5 55.4 92.6 8z"/></g></svg>