<svg xmlns="http://www.w3.org/2000/svg" viewBox="0 0 700 467"><filter id="b"><feGaussianBlur stdDeviation="12" /></filter><path fill="#b6b4af" d="M0 0h700v464H0z"/><g filter="url(#b)" transform="translate(1.4 1.4) scale(2.73438)" fill-opacity=".5"><ellipse rx="1" ry="1" transform="matrix(74.53538 10.95664 -8.81582 59.9719 73.2 153.4)"/><ellipse fill="#fff" cx="137" cy="26" rx="255" ry="42"/><ellipse fill="#0d2300" cx="102" cy="135" rx="33" ry="38"/><ellipse fill="#fff" rx="1" ry="1" transform="matrix(1.04233 -64.55784 254.96677 4.11663 124.7 0)"/><ellipse fill="#a67476" rx="1" ry="1" transform="matrix(69.18916 -5.49488 3.35079 42.19167 188.9 158.2)"/><ellipse fill="#cad2c3" cx="64" cy="100" rx="19" ry="31"/><ellipse fill="#706650" rx="1" ry="1" transform="matrix(-46.3252 17.59729 -5.97064 -15.71783 138.3 88.6)"/><path fill="#091a00" d="M-42.7 133.3l6-24.3 119.4 29.7-6 24.3z"/><ellipse fill="#9f9992" rx="1" ry="1" transform="matrix(-13.07613 -1.10363 3.04397 -36.06595 124.6 63.4)"/><path fill="#0e2a00" d="M26 88h16v62H26z"/><ellipse fill="#e7ffff" rx="1" ry="1" transform="matrix(.32416 -7.01316 75.15937 3.47399 220.8 105)"/><ellipse fill="#fff" rx="1" ry="1" transform="matrix(3.58721 35.9392 -253.73917 25.32654 26.2 34)"/><path fill="#484d33" d="M140 83h58v14h-58z"/><ellipse fill="#fff" cx="217" cy="38" rx="41" ry="41"/><path fill="#fff" d="M140 190.5l-6-66.7 4-.3 6 66.7z"/><path fill="#9fa7ab" d="M53 156.6l-2 28.9-58-4 2-29z"/><ellipse fill="#243419" rx="1" ry="1" transform="matrix(18.32665 14.94785 -12.75927 15.64336 92.5 124)"/><ellipse fill="#adb3ac" cx="88" cy="80" rx="25" ry="25"/><ellipse fill="#aea294" rx="1" ry="1" transform="matrix(-12.35448 .04456 -.08163 -22.629 125 52.3)"/><path fill="#fefdfc" d="M132 83.5l3.8 6.4 8-3L166-16z"/><path fill="#232f1b" d="M152.3 92.4l-76.7 38 47.3 17.9L143.3 86z"/><path fill="#dcdadc" d="M54 104h17v18H54z"/></g></svg>