<svg xmlns="http://www.w3.org/2000/svg" viewBox="0 0 200 133"><filter id="b"><feGaussianBlur stdDeviation="12" /></filter><path fill="#737884" d="M0 0h200v133H0z"/><g filter="url(#b)" transform="translate(.5 .5)" fill-opacity=".5"><ellipse fill="#fff" cx="48" cy="97" rx="39" ry="32"/><ellipse rx="1" ry="1" transform="matrix(7.07252 37.37459 -91.10237 17.23961 44.9 21.1)"/><ellipse fill="#f1fcff" cx="177" cy="116" rx="45" ry="31"/><path d="M79 84l28 35 19-87z"/><ellipse fill="#f4f7fa" cx="149" cy="68" rx="87" ry="8"/><ellipse fill="#000018" cx="70" cy="2" rx="194" ry="20"/><ellipse fill="#faffff" rx="1" ry="1" transform="matrix(-6.32395 14.54444 -101.16727 -43.98773 5.8 84.2)"/><path fill="#fcffff" d="M15 29h30v17H15z"/><path fill="#e6effc" d="M119 88h76v31h-76z"/><path fill="#0e0d11" d="M115 121L70 29l45 31z"/><path fill="#060000" d="M-4.7 135.2l12.4-30.6 25 10.2-12.4 30.6z"/><path fill="#faffff" d="M203.3 49.1l1.3 24-34 1.8-1.2-24z"/><path fill="#fff" d="M70 61h20v20H70z"/><ellipse fill="#020818" cx="181" cy="82" rx="110" ry="5"/><path fill="#fff" d="M129 19h17v15h-17z"/><path d="M117.1 133.7l2-15.9 19.8 2.5-2 15.9z"/><path fill="#fff" d="M143 46h17v30h-17zm16-24h16v14h-16z"/><path fill="#f5fcff" d="M66 76L43 55l-19 69z"/><ellipse fill="#17202d" cx="79" cy="87" rx="25" ry="5"/><path fill="#000002" d="M145 49.1l-22 2.7-2-16.9 21.8-2.7z"/><path fill="#000005" d="M87 93h28v22H87z"/></g></svg>