<svg xmlns="http://www.w3.org/2000/svg" viewBox="0 0 200 133"><filter id="b"><feGaussianBlur stdDeviation="12" /></filter><path fill="#6c6970" d="M0 0h200v133H0z"/><g filter="url(#b)" transform="translate(.5 .5)" fill-opacity=".5"><ellipse fill="#cedee1" cx="141" cy="4" rx="153" ry="28"/><ellipse fill="#360100" rx="1" ry="1" transform="matrix(-22.19388 -7.86727 13.89955 -39.21117 141.1 90)"/><path fill="red" d="M8.4 107.8l-30.9-38L1.6 50.1l30.9 38z"/><ellipse fill="#000c2e" cx="60" cy="102" rx="54" ry="14"/><ellipse fill="#002421" rx="1" ry="1" transform="matrix(6.7285 26.51049 -31.184 7.91466 199 65.2)"/><ellipse fill="#000c26" cx="77" cy="95" rx="14" ry="27"/><ellipse fill="#2e5468" cx="106" cy="55" rx="30" ry="30"/><ellipse fill="#edf6fb" cx="108" cy="5" rx="46" ry="8"/><path fill="#fff" d="M111.8 51.7l-14.4 4.2 4.9-34.5 7.4 28.6z"/><path fill="#d4c9cb" d="M28.8 81l26.7 6.6L47.4 69l6.1-43.4z"/><ellipse fill="#ff3900" cx="9" cy="82" rx="16" ry="16"/><path fill="#9aa09d" d="M215 35L119 4l11 45z"/><ellipse fill="#75868f" rx="1" ry="1" transform="matrix(27.6748 71.81287 -6.19286 2.38656 85.3 68.5)"/><path fill="#0c161e" d="M118.5-39.5h7v123h-7z"/><path fill="#ea3704" d="M170.8 86.8L154 105.6l9-53.2 3.5.2z"/><path fill="#575f60" d="M181-3l34-13-38 69z"/><path fill="#000c0b" d="M-16 100l33.3-.8-15.9 23.5-8.4-34z"/><path fill="#0023a0" d="M31 83h35v15H31z"/><ellipse fill="#304550" cx="60" cy="40" rx="5" ry="49"/><path fill="#1d0d00" d="M86 28h12v34H86z"/><ellipse fill="#7499af" rx="1" ry="1" transform="matrix(-22.03451 -55.37029 9.8408 -3.91613 7.6 25)"/><path fill="#1b6bac" d="M88 87l11-34 29 47z"/></g></svg>