<svg xmlns="http://www.w3.org/2000/svg" viewBox="0 0 700 467"><filter id="b"><feGaussianBlur stdDeviation="12" /></filter><path fill="#5f5d59" d="M0 0h700v464H0z"/><g filter="url(#b)" transform="translate(1.4 1.4) scale(2.73438)" fill-opacity=".5"><ellipse fill="#d0feff" rx="1" ry="1" transform="matrix(-44.64655 -19.83143 27.92365 -62.86458 155 122.6)"/><ellipse fill="#100400" rx="1" ry="1" transform="matrix(70.5824 -84.34092 35.82328 29.97943 31 74.6)"/><ellipse fill="#2b0000" rx="1" ry="1" transform="matrix(-98.17406 -.00682 .00184 -26.52111 172.4 13.4)"/><ellipse fill="#e5ffff" cx="63" cy="145" rx="17" ry="19"/><ellipse fill="#94c7ee" cx="103" cy="70" rx="17" ry="36"/><ellipse fill="#c6fdff" cx="133" cy="129" rx="22" ry="42"/><ellipse rx="1" ry="1" transform="matrix(-17.75241 -30.77396 18.78547 -10.83667 35.2 166.3)"/><ellipse fill="#b8bcb6" cx="239" cy="56" rx="26" ry="28"/><ellipse fill="#ffd7a7" cx="72" cy="41" rx="8" ry="25"/><path d="M46 116l13-53 53 77z"/><ellipse fill="#0e1702" rx="1" ry="1" transform="rotate(-8.5 952.3 -1451.6) scale(20.03248 37.43273)"/><ellipse fill="#ff9e00" cx="28" cy="3" rx="16" ry="21"/><ellipse fill="#0e4c8d" rx="1" ry="1" transform="rotate(-116.1 90.5 -1) scale(12.00006 38.90917)"/><ellipse fill="#00030b" rx="1" ry="1" transform="matrix(25.0173 87.24572 -24.53213 7.03447 3.2 64.7)"/><path fill="#e8b997" d="M38.9 132.7l.8 18.5 16.2-90-11.1-10.4z"/><path d="M174.1 20.7L144.4-16l60 35.6 12.3 72.3z"/><ellipse fill="#caffff" cy="156" rx="9" ry="21"/><path fill="#ec6600" d="M185 6l36-22-7 44z"/><path fill="#d5cbcd" d="M168 50h29v87h-29z"/><path fill="#cfe7f1" d="M37 126h46v18H37z"/><path d="M72.7 67.9l26.8-8.2 3.8 12.4-26.8 8.2z"/><path fill="#fff" d="M88 78h6v34h-6z"/></g></svg>