<svg xmlns="http://www.w3.org/2000/svg" viewBox="0 0 700 467"><filter id="b"><feGaussianBlur stdDeviation="12" /></filter><path fill="#2d335e" d="M0 0h700v464H0z"/><g filter="url(#b)" transform="translate(1.4 1.4) scale(2.73438)" fill-opacity=".5"><path fill="#96a4f2" d="M203 4L5 125l250 26z"/><ellipse cx="77" cy="27" rx="76" ry="76"/><ellipse fill="#fffffd" rx="1" ry="1" transform="matrix(34.9028 -2.84354 1.9246 23.6234 182.4 36)"/><ellipse fill="#fff" rx="1" ry="1" transform="matrix(-.59896 -7.22566 128.54925 -10.6559 91.4 108.6)"/><ellipse rx="1" ry="1" transform="rotate(5 -1712.7 301.8) scale(197.01556 17.61026)"/><ellipse fill="#0627fe" cx="250" cy="132" rx="185" ry="21"/><ellipse cx="20" cy="71" rx="153" ry="30"/><ellipse fill="#000008" rx="1" ry="1" transform="rotate(-175.1 120.9 2.8) scale(22.78007 84.04203)"/><ellipse cx="204" cy="113" rx="121" ry="5"/><ellipse fill="#fff" rx="1" ry="1" transform="matrix(-75.08428 -.2621 .02033 -5.82506 182.8 102.7)"/><ellipse cx="32" cy="21" rx="78" ry="78"/><ellipse fill="#403947" cx="175" cy="75" rx="67" ry="19"/><path fill="#eafcff" d="M3 106h68v19H3z"/><path d="M272.2-4.4l-7 33.3L149.8 4.4l7-33.3z"/><path fill="#d0daff" d="M118 69l13 5.5-7 16.5-13-5.5z"/><ellipse cx="24" cy="163" rx="125" ry="28"/><ellipse fill="#1218ff" rx="1" ry="1" transform="rotate(-101.2 181.3 -27) scale(20.74856 34.23375)"/><ellipse fill="#0023ff" cx="55" cy="101" rx="41" ry="4"/><path fill="#fff1df" d="M148 32h74v25h-74z"/><path d="M96 131h15v39H96z"/><ellipse fill="#616dfa" cx="174" cy="138" rx="28" ry="18"/><ellipse fill="#000042" rx="1" ry="1" transform="matrix(14.35906 8.91284 -27.17482 43.78008 141 19.8)"/></g></svg>