<svg xmlns="http://www.w3.org/2000/svg" viewBox="0 0 200 133"><filter id="b"><feGaussianBlur stdDeviation="12" /></filter><path fill="#69af94" d="M0 0h200v133H0z"/><g filter="url(#b)" transform="translate(.5 .5)" fill-opacity=".5"><ellipse fill="#fff" rx="1" ry="1" transform="matrix(114.70696 -14.46058 2.30106 18.25294 97.8 30)"/><ellipse rx="1" ry="1" transform="matrix(1.18803 11.47834 -71.1826 7.36753 50.4 6)"/><ellipse cx="117" cy="132" rx="22" ry="22"/><ellipse fill="#00b149" cx="28" cy="122" rx="52" ry="35"/><ellipse fill="#aa642a" cx="43" cy="61" rx="17" ry="50"/><path d="M206 64.2l-30.9 1.6-1.2-22 31-1.6zM142 81h21v40h-21z"/><path fill="#000100" d="M-16 70l43.5-3.5 3.8-14-35.7 4.2z"/><ellipse fill="#00211d" cx="74" cy="57" rx="22" ry="9"/><ellipse fill="#003828" cx="127" cy="57" rx="19" ry="10"/><ellipse fill="#6bffd8" cx="73" cy="90" rx="22" ry="26"/><ellipse fill="#fdffff" cx="116" cy="26" rx="34" ry="20"/><path fill="#fbffff" d="M169 20h31v22h-31z"/><path fill="#bcfceb" d="M150.3 58.5l-102.9 25 109.1-5.3 2-5.4z"/><ellipse fill="#2affb7" cx="193" cy="92" rx="29" ry="29"/><ellipse fill="#fff" rx="1" ry="1" transform="matrix(-7.18789 -14.34585 17.64876 -8.84279 9.8 39.8)"/><ellipse fill="#00ffab" cx="188" rx="69" ry="11"/><path fill="#3f5431" d="M152 11l17 7-37 49z"/><ellipse fill="#fff" cx="170" cy="63" rx="4" ry="29"/><ellipse fill="#95ffe9" cx="129" cy="93" rx="14" ry="19"/><path fill="#ffdffd" d="M93 48h12v42H93z"/><path fill="#e2f0ed" d="M7.6 22.4l29 50.6L55 55l-9.3-3z"/></g></svg>