<svg xmlns="http://www.w3.org/2000/svg" viewBox="0 0 641 195"><filter id="b"><feGaussianBlur stdDeviation="12" /></filter><path fill="#3d4353" d="M0 0h641v192H0z"/><g filter="url(#b)" transform="translate(1.3 1.3) scale(2.5039)" fill-opacity=".5"><ellipse fill="#96feff" rx="1" ry="1" transform="matrix(-35.02372 -.17223 .09496 -19.31009 126.6 21.8)"/><ellipse fill="#74290f" cx="128" cy="57" rx="93" ry="18"/><ellipse fill="#00153e" cx="35" cy="19" rx="43" ry="38"/><ellipse fill="#001747" cx="208" cy="20" rx="38" ry="38"/><path fill="#fffff1" d="M104.5 60.7l13 20.1-10 6.5-13-20.1z"/><ellipse fill="#75b3ff" cx="127" cy="16" rx="31" ry="24"/><path fill="#efb48e" d="M253.8 78.8l-77 8.5 45.3-19.9-12.4-17.2z"/><path fill="#df9556" d="M55.5 92L-6.4 80.7l71-17.6 9.6 5.7z"/><ellipse fill="#a80000" cx="130" cy="49" rx="27" ry="10"/><path fill="#c5f2ff" d="M162 67.2l2.6-9.6 19.4 5.2-2.6 9.6z"/><path fill="#b20000" d="M166.4 4.6l-.8 43-8-.2.8-43z"/><path fill="#67b2f6" d="M94 6h65v34H94z"/><path fill="#a60000" d="M86 3h8v43h-8z"/><path fill="#fffffb" d="M116 11h20v15h-20z"/><ellipse fill="#00161f" rx="1" ry="1" transform="rotate(80.2 64.8 136) scale(45.49207 10.56075)"/><ellipse fill="#00213b" cx="49" cy="20" rx="28" ry="48"/><ellipse fill="#002f52" rx="1" ry="1" transform="matrix(42.13043 18.58173 -15.66037 35.50682 219.7 16)"/><ellipse fill="#a04834" cx="206" cy="76" rx="14" ry="21"/><path fill="#001035" d="M7 12l9 80-25-4z"/><ellipse fill="#804919" cx="122" cy="1" rx="45" ry="3"/><ellipse fill="#024674" rx="1" ry="1" transform="matrix(-43.00892 9.5344 -3.01415 -13.59657 22.4 8.4)"/><path fill="#97b8a8" d="M27.6 69.3L31.9 56l8.5 2.7L36.1 72z"/></g></svg>