<svg xmlns="http://www.w3.org/2000/svg" viewBox="0 0 200 133"><filter id="b"><feGaussianBlur stdDeviation="12" /></filter><path fill="#285440" d="M0 0h200v133H0z"/><g filter="url(#b)" transform="translate(.5 .5)" fill-opacity=".5"><ellipse fill="#c8ffd0" rx="1" ry="1" transform="matrix(.04183 -18.95481 132.3092 .29198 130.2 71.4)"/><path d="M192.5 184.7L-5.4 163.9l8.9-84.6 197.9 20.8z"/><ellipse cx="4" cy="22" rx="36" ry="36"/><ellipse fill="#008a64" rx="1" ry="1" transform="matrix(.47811 27.39117 -97.57492 1.70318 135.5 14.3)"/><ellipse fill="#f1d8c0" cx="39" cy="69" rx="18" ry="18"/><ellipse cx="28" cy="111" rx="31" ry="31"/><ellipse fill="#020000" rx="1" ry="1" transform="matrix(-6.57526 42.63758 -137.63382 -21.2249 94.2 132)"/><path fill="#056738" d="M124-16l85 56-14 58z"/><ellipse fill="#eff" cx="119" cy="56" rx="38" ry="5"/><ellipse rx="1" ry="1" transform="matrix(-4.8839 33.54678 -24.71229 -3.59773 16.5 17.5)"/><path fill="#6b9b6f" d="M123 58h77v40h-77z"/><path fill="#fff" d="M113 70h17v17h-17z"/><path fill="#b1ffdd" d="M29.8 84.7l-31.7-4.5L.2 65.3l31.7 4.5z"/><path d="M107 80l-12-3-9 43z"/><path fill="#22261e" d="M100 60h65v7h-65z"/><path d="M34 74l13 6-17-1z"/><path fill="#c3f3ea" d="M177 69l-15 25 15 2z"/><path fill="#85793b" d="M17.1 58.4L16 79.1 7 56.2 15 39z"/><ellipse fill="#003614" cx="144" cy="44" rx="133" ry="6"/><path fill="#fdf3f7" d="M34 63.4l93.5-9.8.5 5-93.5 9.8z"/><path d="M33 32h8v28h-8z"/><ellipse fill="#183c0f" cx="78" cy="65" rx="4" ry="32"/></g></svg>