<svg xmlns="http://www.w3.org/2000/svg" viewBox="0 0 700 467"><filter id="b"><feGaussianBlur stdDeviation="12" /></filter><path fill="#978b83" d="M0 0h700v464H0z"/><g filter="url(#b)" transform="translate(1.4 1.4) scale(2.73438)" fill-opacity=".5"><ellipse fill="#160e00" rx="1" ry="1" transform="rotate(89.5 38.6 160.5) scale(22.83817 184.29348)"/><ellipse fill="#e1e5e2" cx="90" cy="10" rx="201" ry="63"/><ellipse fill="#7b3e00" cx="248" cy="74" rx="31" ry="61"/><path d="M19 116h33v37H19z"/><path fill="#00123e" d="M78.1 96.3l17.2 35.6 22-56.4 2.8-46z"/><ellipse fill="#dac5a0" cx="127" cy="169" rx="46" ry="46"/><path fill="#ffd3ff" d="M1.7 57.2l22 1.9-5.4 61.7-22-1.9z"/><path fill="#ebdfc8" d="M188 0h30v108h-30z"/><path d="M249 153l-84-84 14 53z"/><path fill="#793c1b" d="M77.4 27.8l-.8 24-46-1.6.8-24z"/><ellipse fill="#fff" rx="1" ry="1" transform="matrix(-.8231 -23.48455 6.03088 -.21137 117.9 101.4)"/><path d="M126 78h14v55h-14z"/><path fill="#210000" d="M217 74h25v76h-25z"/><path fill="#0d1213" d="M47.8 80.2L70 77.9l-18 69.7-36.7 4.7z"/><ellipse fill="#f3f4ee" cx="75" cy="103" rx="8" ry="22"/><path fill="#fffff7" d="M141 53h8v74h-8z"/><path fill="#e0dfcc" d="M161 0h70v69h-70z"/><ellipse fill="#e7f3f5" cx="98" cy="10" rx="56" ry="21"/><ellipse fill="#597ba8" cx="122" cy="40" rx="39" ry="14"/><path d="M151.7 78.2l11 .7-2.4 35-11-.8z"/><path fill="#c2af7e" d="M271 109l-41 76 16-73z"/><path fill="#ff4e04" d="M231 48h7v70h-7z"/></g></svg>