<svg xmlns="http://www.w3.org/2000/svg" viewBox="0 0 700 467"><filter id="b"><feGaussianBlur stdDeviation="12" /></filter><path fill="#717773" d="M0 0h700v464H0z"/><g filter="url(#b)" transform="translate(1.4 1.4) scale(2.73438)" fill-opacity=".5"><path fill="#000003" d="M92 159L80 35l100 18z"/><ellipse fill="#cbceca" rx="1" ry="1" transform="matrix(-.53244 21.78606 -254.92387 -6.2302 88.9 164.5)"/><ellipse fill="#a6ceda" rx="1" ry="1" transform="matrix(-1.2541 -13.90053 89.43603 -8.06891 81.1 0)"/><ellipse fill="#36423c" rx="1" ry="1" transform="matrix(-1.7619 -53.35316 47.4243 -1.56612 0 64.1)"/><ellipse fill="#2f3330" cx="124" cy="144" rx="37" ry="16"/><ellipse fill="#a8b1ab" cx="59" cy="106" rx="31" ry="31"/><ellipse fill="#000006" rx="1" ry="1" transform="matrix(-.66601 -38.15582 15.31938 -.2674 111.7 66.4)"/><ellipse fill="#bcc6b8" rx="1" ry="1" transform="rotate(44.9 -5.2 333.7) scale(16.73956 34.3873)"/><path fill="#b0ac9e" d="M150 132l35-148 6 106z"/><ellipse fill="#b7cbcf" cx="130" cy="111" rx="8" ry="23"/><ellipse fill="#0a101b" rx="1" ry="1" transform="matrix(-9.98033 -56.60124 6.0528 -1.06727 145.1 107.6)"/><ellipse fill="#454430" rx="1" ry="1" transform="rotate(156.9 123.5 45.6) scale(26.3828 38.65547)"/><ellipse fill="#b2b6b4" cx="225" cy="169" rx="108" ry="30"/><ellipse fill="#a5aca1" rx="1" ry="1" transform="matrix(12.12282 -9.57402 58.27973 73.79494 180 4.5)"/><path fill="#1d2e36" d="M221 123l-20-31-34 11z"/><path fill="#101c18" d="M22 16.3l11.7 23.2-35.6 18.2-11.8-23.2z"/><path fill="#000107" d="M119 121l-13-60-24 48z"/><ellipse fill="#606465" cx="154" cy="51" rx="31" ry="15"/><ellipse fill="#868f96" rx="1" ry="1" transform="matrix(-10.3795 -15.84242 48.42777 -31.72847 82.8 18.3)"/><ellipse fill="#bfc3b8" cx="195" cy="123" rx="44" ry="6"/><ellipse fill="#bec6bd" rx="1" ry="1" transform="matrix(-.13706 6.54312 -38.95015 -.81589 55.8 117)"/><path fill="#170000" d="M185 79l20 2-5-24z"/></g></svg>