<svg xmlns="http://www.w3.org/2000/svg" viewBox="0 0 200 133"><filter id="b"><feGaussianBlur stdDeviation="12" /></filter><path fill="#855f74" d="M0 0h200v133H0z"/><g filter="url(#b)" transform="translate(.5 .5)" fill-opacity=".5"><ellipse fill="#000500" cx="95" cy="30" rx="66" ry="17"/><ellipse fill="#5099ff" rx="1" ry="1" transform="rotate(-179.3 51.1 34.8) scale(46.64873 9.26929)"/><ellipse fill="#dcd6f9" cx="79" cy="5" rx="199" ry="10"/><ellipse fill="#ac2a0e" rx="1" ry="1" transform="rotate(20.6 -252.1 529.6) scale(66.37121 28.55336)"/><ellipse fill="#ba1603" cx="51" cy="113" rx="37" ry="16"/><ellipse fill="#fffac4" rx="1" ry="1" transform="matrix(10.68472 -1.14204 2.82561 26.43583 100.3 118)"/><path fill="#00261e" d="M14.1 67.8l10.3-14.2L60 18.8 70.2 60z"/><path fill="#ab97ff" d="M68 48h58v31H68z"/><path fill="#faffff" d="M14 103.7l-7.8-7-12.4-2-8.5 38.4z"/><path fill="#033" d="M127 37h30v18h-30z"/><ellipse fill="#dea65a" rx="1" ry="1" transform="rotate(92.6 -12.6 114.1) scale(12.07127 69.4423)"/><ellipse fill="#3663c1" rx="1" ry="1" transform="matrix(13.83476 28.59282 -9.56398 4.62757 9.6 63.6)"/><path fill="#ff5d74" d="M214.5 108.8l-10.7 11.9-28.3-25.5 10.7-11.9z"/><ellipse fill="#2d6bff" cx="198" cy="66" rx="7" ry="22"/><path fill="red" d="M148 59h38v6h-38z"/><ellipse fill="#cfd6f0" cx="59" cy="93" rx="9" ry="9"/><ellipse fill="#9cb7f9" rx="1" ry="1" transform="matrix(-8.44368 -7.65626 7.4282 -8.19216 178 79.5)"/><ellipse fill="#eafcff" rx="1" ry="1" transform="matrix(-.36947 -2.77192 29.38416 -3.91665 93.5 93)"/><path fill="#20182a" d="M119 89h21v29h-21z"/><ellipse fill="#350017" rx="1" ry="1" transform="rotate(99.2 -31.7 38) scale(20.08645 7.70387)"/><ellipse fill="#bc88b4" rx="1" ry="1" transform="matrix(-32.67033 -20.39766 15.2339 -24.3997 180.2 4.5)"/><path fill="#987daa" d="M12.1 55.8L5.2 12.4 32 8.2l6.9 43.4z"/></g></svg>