<svg xmlns="http://www.w3.org/2000/svg" viewBox="0 0 200 133"><filter id="b"><feGaussianBlur stdDeviation="12" /></filter><path fill="#837374" d="M0 0h200v133H0z"/><g filter="url(#b)" transform="translate(.5 .5)" fill-opacity=".5"><ellipse fill="#fff" cx="143" cy="7" rx="165" ry="32"/><ellipse rx="1" ry="1" transform="rotate(145.5 63.2 78) scale(142.96401 38.25076)"/><ellipse fill="#220200" cx="58" cy="70" rx="27" ry="27"/><ellipse fill="#f4e0ea" cx="12" cy="31" rx="33" ry="33"/><ellipse fill="#fffcff" rx="1" ry="1" transform="matrix(2.00178 21.57857 -104.37264 9.68236 132 3.7)"/><ellipse fill="#100" cx="67" cy="131" rx="60" ry="10"/><ellipse fill="#fff2d3" cx="127" cy="80" rx="13" ry="13"/><ellipse fill="#060517" rx="1" ry="1" transform="rotate(-95.1 120.7 -39) scale(29.29104 31.57389)"/><path fill="#622a11" d="M98.3 21.8L111 63l-17.2 5.3L81 27z"/><path fill="#fff" d="M156 0h15v52h-15z"/><ellipse fill="#c49071" rx="1" ry="1" transform="matrix(8.54843 31.68188 -24.36445 6.57403 7.9 56.3)"/><path fill="#fff" d="M167 104l2 26-11-21z"/><path fill="#0b0500" d="M74 148L57 59l22 29z"/><ellipse fill="#03001b" cx="137" cy="114" rx="25" ry="28"/><ellipse fill="#4a00de" rx="1" ry="1" transform="rotate(16 57.3 407) scale(17.90162 7.78416)"/><ellipse fill="#e5c6ba" cx="94" cy="98" rx="12" ry="19"/><ellipse fill="#4b1300" cx="19" cy="34" rx="9" ry="9"/><path fill="#6b4837" d="M49 23l3 65 95-25z"/><ellipse rx="1" ry="1" transform="matrix(2.5982 50.20352 -3.0588 .1583 42.2 110.2)"/><ellipse fill="#4d3640" cx="182" cy="41" rx="13" ry="27"/><path fill="#ecc0b0" d="M95 60l23-36 47 17z"/><path fill="#fbffff" d="M63-16H26l-1 91z"/></g></svg>