<svg xmlns="http://www.w3.org/2000/svg" viewBox="0 0 700 467"><filter id="b"><feGaussianBlur stdDeviation="12" /></filter><path fill="#8f8f8b" d="M0 0h700v464H0z"/><g filter="url(#b)" transform="translate(1.4 1.4) scale(2.73438)" fill-opacity=".5"><ellipse fill="#fff" rx="1" ry="1" transform="matrix(123.7019 23.59014 -8.90996 46.72203 157.6 21.3)"/><ellipse fill="#19120b" cx="147" cy="121" rx="255" ry="27"/><ellipse fill="#f8ffff" cx="148" cy="18" rx="97" ry="37"/><path fill="#301900" d="M-18.2 33L-1-2l51.3 25L33 58z"/><path fill="#937455" d="M-10 185L37 23l67 28z"/><path fill="#080d03" d="M222 99l42-5-21-32z"/><ellipse fill="#fbfedd" rx="1" ry="1" transform="matrix(1.35964 -10.59293 31.10915 3.99298 18.5 65.7)"/><ellipse fill="#55676b" rx="1" ry="1" transform="matrix(-65.00273 -22.03707 13.3511 -39.38174 247.8 140)"/><path fill="#d6e9fd" d="M265.9-16l-45 108-23 2.8L127-16z"/><path fill="#3c2a1d" d="M58 36h17v106H58z"/><path fill="#000507" d="M116 117h61v28h-61z"/><ellipse fill="#e2f5ff" cx="142" cy="53" rx="19" ry="28"/><path fill="red" d="M59.1 86.7l.8 22-17 .6-.8-22z"/><ellipse fill="#797e68" rx="1" ry="1" transform="matrix(21.94072 -3.84041 9.92334 56.6932 19.4 122.6)"/><ellipse rx="1" ry="1" transform="matrix(-8.05774 .75177 -1.8404 -19.72604 52.1 132.1)"/><ellipse fill="#58442a" rx="1" ry="1" transform="matrix(-6.32358 3.95141 -11.43979 -18.30748 174.9 82.6)"/><path fill="#e9f8ff" d="M147 68L-16-14l232 3z"/><path fill="#aab0aa" d="M216 133v-26h22v26z"/><path fill="#9ecef5" d="M192.4 84.7l7-.4 2.2 41-7 .4z"/><path fill="#2a230d" d="M271 157l-39-20 20 48z"/><ellipse fill="#c5a301" cx="105" cy="124" rx="11" ry="11"/><path fill="#111920" d="M119.5 88l-29.4 46 69 6.2L44.4 143z"/></g></svg>