<svg xmlns="http://www.w3.org/2000/svg" viewBox="0 0 700 1050"><filter id="b"><feGaussianBlur stdDeviation="12" /></filter><path fill="#bcc0af" d="M0 0h697v1050H0z"/><g filter="url(#b)" transform="translate(2 2) scale(4.10156)" fill-opacity=".5"><ellipse cx="119" cy="108" rx="37" ry="37"/><ellipse fill="#fff" rx="1" ry="1" transform="matrix(46.74005 75.97486 -42.2487 25.99158 38 158.4)"/><ellipse fill="#4c5f00" rx="1" ry="1" transform="matrix(6.31085 20.64186 -39.85962 12.18631 120.8 154.2)"/><ellipse fill="#fff" rx="1" ry="1" transform="matrix(39.45703 37.92002 -27.42886 28.54063 128.4 236.2)"/><ellipse fill="#344200" cx="120" cy="92" rx="33" ry="33"/><ellipse fill="#869a2b" cx="121" cy="28" rx="31" ry="36"/><path fill="#fff" d="M155 69l18 13-28 57z"/><ellipse fill="#030500" cx="123" cy="124" rx="12" ry="44"/><path fill="#fff" d="M115 171h36v85h-36z"/><path fill="#000006" d="M27 236l-1-16-42 5z"/><path fill="#fff" d="M7 97h81v62H7z"/><path fill="#ded4b1" d="M64 134h47v21H64z"/><path fill="#fbfff2" d="M109.7 43.8l-3.1-3.2L64.1 56l39.2 20.8z"/><ellipse fill="#b7aa56" cx="169" cy="148" rx="33" ry="33"/><ellipse fill="#fff" rx="1" ry="1" transform="matrix(1.32195 -14.81219 31.45362 2.80716 46 255)"/><ellipse fill="#5f4b4f" rx="1" ry="1" transform="matrix(-8.12398 -15.025 10.061 -5.43996 163.2 198.3)"/><path fill="#6d7589" d="M74 46l2-27-92-1z"/><path fill="#f6f9bb" d="M131 62l11 23 43-73z"/><ellipse fill="#edf4ff" rx="1" ry="1" transform="matrix(-44.21605 -.24054 .03443 -6.32951 45.5 35.9)"/><ellipse fill="#7a8592" cy="89" rx="59" ry="8"/><path fill="#252607" d="M106 144l6-103 34 83z"/><path fill="#e9ecc8" d="M103.2 115l1.6-16.9 5.9 4.2-61.5-8.7z"/></g></svg>