<svg xmlns="http://www.w3.org/2000/svg" viewBox="0 0 200 133"><filter id="b"><feGaussianBlur stdDeviation="12" /></filter><path fill="#3d2b1b" d="M0 0h200v133H0z"/><g filter="url(#b)" transform="translate(.5 .5)" fill-opacity=".5"><path fill="#fff" d="M126 15.3l23.3-5.8 6.7 27.2-23.3 5.8z"/><ellipse fill="#b9a28b" cx="24" cy="41" rx="31" ry="31"/><path fill="#fff" d="M51.7 26.7l1.6 30-11 .6-1.6-30z"/><path fill="#fff" d="M32 73l10-26-24 10z"/><ellipse fill="#0e0000" rx="1" ry="1" transform="rotate(51 -37.2 117.3) scale(30.47828 60.84085)"/><ellipse fill="#060307" rx="1" ry="1" transform="matrix(34.9676 2.86765 -6.0942 74.31141 153.2 107)"/><ellipse rx="1" ry="1" transform="rotate(-114.6 21 23.5) scale(8.89541 40.8664)"/><ellipse fill="#ffffca" rx="1" ry="1" transform="matrix(16.60038 10.51606 -4.64785 7.33697 138.6 21.1)"/><ellipse fill="#010000" rx="1" ry="1" transform="matrix(12.80179 22.56563 -16.83316 9.54968 11.8 86.1)"/><ellipse fill="#784d0c" rx="1" ry="1" transform="rotate(8.1 -98.3 179.7) scale(17.13007 28.95937)"/><ellipse fill="#fff8e9" cy="32" rx="10" ry="10"/><path fill="#906b4f" d="M149.6 72l-37.5 1.6 10.1-5.3L154.8 95z"/><path fill="#ffe3ed" d="M16.8 70l2.5.3 13-3.5 9.5 10.6z"/><path fill="#eeeeef" d="M34.5 20.9l14.8 36L53 38.2l-4.8-10.6z"/><path fill="#9d896e" d="M169.5 35.2l-5.1-24.9-37 37.7 24.1-11.1z"/><ellipse fill="#392101" rx="1" ry="1" transform="matrix(-12.78337 23.59812 -49.25904 -26.68418 75.4 13)"/><ellipse fill="#a0724c" rx="1" ry="1" transform="rotate(97.5 66.4 121.4) scale(31.2037 4.4028)"/><ellipse fill="#5a2b02" rx="1" ry="1" transform="matrix(-42.34653 45.2525 -15.12308 -14.15193 77.5 119.6)"/><ellipse fill="#cea02c" cx="14" rx="6" ry="23"/><ellipse fill="#f7c00b" cx="128" rx="29" ry="2"/><path fill="#190500" d="M52 109L34 64l83-49z"/><path fill="#fff" d="M15 57h17v7H15z"/></g></svg>