<svg xmlns="http://www.w3.org/2000/svg" viewBox="0 0 700 467"><filter id="b"><feGaussianBlur stdDeviation="12" /></filter><path fill="#736d75" d="M0 0h700v464H0z"/><g filter="url(#b)" transform="translate(1.4 1.4) scale(2.73438)" fill-opacity=".5"><ellipse fill="#f4ffff" cx="145" cy="157" rx="97" ry="25"/><ellipse fill="#342d33" rx="1" ry="1" transform="rotate(68.2 -16.5 91.2) scale(56.67051 127.92302)"/><ellipse fill="#ecffff" rx="1" ry="1" transform="matrix(44.57264 37.20316 -8.70554 10.43 214.8 77.8)"/><ellipse fill="#fffbff" cx="126" cy="58" rx="20" ry="17"/><ellipse fill="#f2ffff" cx="45" cy="39" rx="32" ry="6"/><ellipse fill="#0c0000" cx="126" cy="21" rx="73" ry="15"/><ellipse rx="1" ry="1" transform="matrix(16.53571 -32.54155 12.52278 6.36334 86 50)"/><ellipse fill="#9cb2a6" rx="1" ry="1" transform="matrix(-1.3838 12.73809 -49.73519 -5.40297 19.8 122.8)"/><path fill="#d5ffff" d="M198 30h47v11h-47z"/><path fill="#eaffff" d="M179.4 59L213 82.3 197.5 50l-37.4-19.3z"/><path fill="#fff" d="M235 181l10-60-50 55z"/><ellipse fill="#6d1b0b" rx="1" ry="1" transform="matrix(1.33605 -9.29672 69.16154 9.93933 157.2 108)"/><path fill="#410000" d="M76 71l-30 61-14-29z"/><ellipse fill="#840000" cx="255" cy="167" rx="17" ry="35"/><ellipse fill="#b8d7cd" cx="153" cy="156" rx="40" ry="45"/><path fill="#ace0dd" d="M41.8 161.6L62 141l4.9-30-12.5 4.7z"/><ellipse fill="#cb7388" cx="114" cy="2" rx="20" ry="17"/><ellipse fill="#0a1718" rx="1" ry="1" transform="matrix(-2.75138 20.8201 -14.5971 -1.929 164 66.7)"/><path fill="#1c0300" d="M17.7 171l18.6-22.3 10 8.4-18.6 22.2z"/><path fill="#5c4915" d="M67.3 185l-2.1-37.3 28.6 1.8-26.3-61z"/><ellipse fill="#b05fcd" rx="1" ry="1" transform="matrix(-5.7706 .6167 -2.82156 -26.40196 35.8 86)"/><path fill="#745c36" d="M222 112l-19 58-19-84z"/></g></svg>