<svg xmlns="http://www.w3.org/2000/svg" viewBox="0 0 700 467"><filter id="b"><feGaussianBlur stdDeviation="12" /></filter><path fill="#635d65" d="M0 0h700v464H0z"/><g filter="url(#b)" transform="translate(1.4 1.4) scale(2.73438)" fill-opacity=".5"><ellipse fill="#b9c3f1" cx="50" cy="21" rx="84" ry="57"/><ellipse cx="98" cy="160" rx="255" ry="20"/><ellipse rx="1" ry="1" transform="matrix(.12192 19.80943 -89.86265 .55308 231.7 102.5)"/><ellipse fill="#fcf7fd" cx="120" cy="111" rx="22" ry="29"/><ellipse fill="#0b0a01" cx="85" cy="88" rx="17" ry="38"/><ellipse fill="#7784ce" rx="1" ry="1" transform="matrix(-105.06016 28.31797 -9.1178 -33.82722 179.8 0)"/><ellipse fill="#dcb782" cx="144" cy="132" rx="165" ry="10"/><ellipse fill="#100000" rx="1" ry="1" transform="matrix(52.90468 -7.62368 2.12896 14.77394 38.7 107.1)"/><ellipse rx="1" ry="1" transform="rotate(13.1 -391.8 720.6) scale(11.58606 28.63176)"/><path fill="#fff7a9" d="M-.8 164.4l39.6-5.6 2 14.8-39.6 5.6z"/><ellipse cx="145" cy="52" rx="18" ry="14"/><ellipse fill="#afa3a0" cx="49" cy="55" rx="38" ry="38"/><path fill="#e5ae6a" d="M162 157h89v8h-89z"/><ellipse cx="68" cy="169" rx="30" ry="30"/><ellipse fill="#010100" cx="176" cy="96" rx="21" ry="19"/><ellipse cx="127" cy="164" rx="38" ry="23"/><path d="M133 16h8v71h-8z"/><ellipse fill="#8d8d97" rx="1" ry="1" transform="matrix(-23.50777 -14.02277 20.88735 -35.01555 192.9 30.1)"/><ellipse fill="#0a0901" cy="151" rx="225" ry="12"/><path fill="#727076" d="M160 40l79 19-31 48z"/><path fill="#23211b" d="M149 54L96 97l-58-3z"/><path fill="#85aaf3" d="M103 15h23v46h-23z"/></g></svg>