<svg xmlns="http://www.w3.org/2000/svg" viewBox="0 0 200 133"><filter id="b"><feGaussianBlur stdDeviation="12" /></filter><path fill="#37506b" d="M0 0h200v133H0z"/><g filter="url(#b)" transform="translate(.5 .5)" fill-opacity=".5"><ellipse fill="#c9cdd1" cx="39" cy="74" rx="32" ry="34"/><ellipse fill="#000002" rx="1" ry="1" transform="matrix(112.69711 6.30075 -1.85337 33.14994 125.1 132.2)"/><ellipse fill="#f6a660" rx="1" ry="1" transform="matrix(19.11453 -2.68637 4.16897 29.66373 97.8 77.6)"/><path fill="#f4f4f8" d="M138 58h23v35h-23z"/><ellipse fill="#004ea9" cx="98" cy="9" rx="197" ry="22"/><ellipse fill="#000625" rx="1" ry="1" transform="matrix(-27.7819 -31.95943 25.72924 -22.36609 195.8 75)"/><path fill="#ffd1a6" d="M141 63l-22-6 7-20z"/><path fill="#ff9c5b" d="M31 32.3l6.7-13.4 13.4 6.8-6.8 13.4z"/><path fill="#fff" d="M119 101l25-28-6 19z"/><ellipse fill="#003b84" rx="1" ry="1" transform="matrix(19.52414 -13.67069 79.46071 113.48382 195.7 40.6)"/><ellipse fill="#d4c5d1" cx="154" cy="57" rx="4" ry="34"/><path fill="#180000" d="M117 87l-3.7-22.6 21.8-3.5 3.6 22.7z"/><ellipse fill="#080000" rx="1" ry="1" transform="matrix(-3.28855 25.14302 -38.88899 -5.08644 112.2 127.2)"/><path fill="#005fb2" d="M40-16L-6 112-10 9z"/><path fill="#0a315e" d="M42 39h10v94H42z"/><path fill="#e7cdc3" d="M58 36h11v56H58z"/><path fill="#7d4529" d="M127 36.3l-24 21.4-18-20 23.8-21.4z"/><path d="M146 29h3v104h-3z"/><path fill="#a2a8ac" d="M47.7 74L40 111.4l-29.8-.6 8-82.5z"/><path fill="#000444" d="M-4.2 137.8l-14-60.4 22.4-5.2 14 60.4z"/><path fill="#d8ad92" d="M101.6 53l31.3 68.6-37.6-49.9L88 32.4z"/><ellipse fill="#034d91" rx="1" ry="1" transform="matrix(-12.2612 4.60004 -8.38434 -22.34808 163.2 117.4)"/></g></svg>