<svg xmlns="http://www.w3.org/2000/svg" viewBox="0 0 700 467"><filter id="b"><feGaussianBlur stdDeviation="12" /></filter><path fill="#344f52" d="M0 0h700v464H0z"/><g filter="url(#b)" transform="translate(1.4 1.4) scale(2.73438)" fill-opacity=".5"><ellipse fill="#9ce7eb" rx="1" ry="1" transform="matrix(-118.39574 1.99132 -.70739 -42.05835 178.7 59.3)"/><ellipse cy="39" rx="70" ry="70"/><ellipse cx="57" cy="169" rx="199" ry="42"/><ellipse fill="#006fff" cx="247" cy="108" rx="47" ry="46"/><ellipse fill="#dcbf89" rx="1" ry="1" transform="matrix(-5.13815 -20.28873 80.93864 -20.49784 120.6 93.9)"/><ellipse cx="113" cy="7" rx="165" ry="13"/><ellipse fill="#030000" cx="23" cy="120" rx="37" ry="255"/><ellipse fill="#0e78ca" cx="91" cy="63" rx="33" ry="33"/><ellipse rx="1" ry="1" transform="rotate(-91.4 133.6 -27.5) scale(6.68275 54.70075)"/><path fill="#e1ffa4" d="M59 43l76-25-72 4z"/><ellipse fill="#d0a21e" rx="1" ry="1" transform="rotate(-98.4 64.6 40.3) scale(10.15051 53.15477)"/><ellipse rx="1" ry="1" transform="matrix(177.88817 15.03805 -2.15953 25.54547 122.2 163.3)"/><ellipse fill="#ffff42" cx="224" cy="23" rx="31" ry="8"/><path fill="#ffe360" d="M104 72h48v28h-48z"/><ellipse fill="#095443" cx="163" cy="62" rx="18" ry="18"/><path fill="#f8ffc2" d="M163.4 35.3l-44 2.3-.8-17 44-2.2z"/><ellipse fill="#d1d7ef" rx="1" ry="1" transform="matrix(.09466 -5.81689 44.72881 .7279 106 114.6)"/><path fill="#00a3ff" d="M150 66.1l-53.7 4.7-2.4-26.9 53.8-4.7z"/><path fill="#6ff8ff" d="M200 64l5-47-50 19z"/><ellipse fill="#2182e4" rx="1" ry="1" transform="matrix(10.61257 -.2223 .81947 39.12123 69 94.2)"/><ellipse fill="#ffe1a0" cx="185" cy="85" rx="19" ry="12"/><path fill="#bc8a6a" d="M176.8 144.7l-.6-31 27-.4.6 31z"/></g></svg>