<svg xmlns="http://www.w3.org/2000/svg" viewBox="0 0 700 467"><filter id="b"><feGaussianBlur stdDeviation="12" /></filter><path fill="#95a7b0" d="M0 0h700v464H0z"/><g filter="url(#b)" transform="translate(1.4 1.4) scale(2.73438)" fill-opacity=".5"><ellipse fill="#fff" rx="1" ry="1" transform="matrix(111.7541 2.69151 -.57842 24.01639 124.6 124)"/><ellipse cx="244" cy="148" rx="12" ry="68"/><ellipse fill="#2e170e" rx="1" ry="1" transform="matrix(.21663 18.33995 -179.1356 2.11595 132 168)"/><ellipse fill="#000d39" cx="6" cy="135" rx="14" ry="49"/><ellipse fill="#4c7697" cx="245" cy="44" rx="68" ry="68"/><ellipse fill="#fff" cx="116" cy="130" rx="64" ry="22"/><path fill="#5c1600" d="M143 75h25v30h-25z"/><ellipse fill="#9fc6d6" cx="87" rx="104" ry="104"/><ellipse fill="#eafaff" rx="1" ry="1" transform="matrix(-16.11351 -8.2457 3.32825 -6.50397 55.5 159.6)"/><ellipse fill="#090000" cx="139" cy="164" rx="23" ry="13"/><path d="M77 157l40-1-76-19z"/><ellipse fill="#765e5a" rx="1" ry="1" transform="matrix(24.46407 12.28118 -5.0088 9.9775 78.7 87.2)"/><path fill="#060000" d="M158.2 164.4l8 20.6-10-32 72.2-17.2z"/><ellipse fill="#fff" cx="185" cy="111" rx="24" ry="15"/><path fill="#ffffea" d="M144 68l-37 14 22 52z"/><ellipse fill="#4fa2da" rx="1" ry="1" transform="matrix(-54.90073 6.29616 -3.43603 -29.9612 53.6 0)"/><ellipse fill="#fff" cx="68" cy="116" rx="47" ry="17"/><ellipse fill="#13336d" rx="1" ry="1" transform="matrix(.14011 -6.0699 49.23934 1.13658 3.7 98)"/><path fill="#455169" d="M223.7 59l21.5 22.2-30.9 29.9-21.5-22.3z"/><path fill="#fff" d="M195 150l-38 31 11-19z"/><path fill="#545165" d="M128.3 82.2L111.4 76l10.3-28.2 16.9 6.2z"/><ellipse fill="#bcb7af" rx="1" ry="1" transform="rotate(67.8 -29.8 227.1) scale(4.06393 45.8271)"/></g></svg>