<svg xmlns="http://www.w3.org/2000/svg" viewBox="0 0 200 133"><filter id="b"><feGaussianBlur stdDeviation="12" /></filter><path fill="#3e3024" d="M0 0h200v133H0z"/><g filter="url(#b)" transform="translate(.5 .5)" fill-opacity=".5"><ellipse fill="#fad6ab" rx="1" ry="1" transform="matrix(-14.1652 -.32236 1.28714 -56.55947 52 37.7)"/><path fill="#ffffe8" d="M96.1 61.3l24 11.9-13.9 5.4-17.1 16.8z"/><ellipse cx="140" cy="114" rx="44" ry="44"/><ellipse fill="#ffcc9f" cx="164" cy="37" rx="16" ry="8"/><ellipse fill="#040201" cx="8" cy="80" rx="29" ry="109"/><ellipse fill="#eed3bf" cx="50" cy="38" rx="15" ry="15"/><ellipse fill="#9e6917" cx="192" cy="41" rx="10" ry="43"/><ellipse fill="#131500" rx="1" ry="1" transform="matrix(18.64761 3.86174 -1.9803 9.5625 37.5 .5)"/><path fill="#ffd3ca" d="M83 83h18v9H83z"/><ellipse fill="#070a0e" rx="1" ry="1" transform="matrix(-5.48954 13.0485 -132.477 -55.7334 93.6 132)"/><path fill="#ffe9cf" d="M119 72l-23 6 1-21z"/><path fill="#120808" d="M109 77.8l-16-5.4 4.8-41.8-42 65.6z"/><path fill="#e7c8b8" d="M141.9 24l27 10.6-11.8 5.8-.3 7z"/><ellipse fill="#7b6355" rx="1" ry="1" transform="rotate(84 -12 70) scale(31.51827 10.05939)"/><ellipse fill="#965f17" cx="176" cy="37" rx="11" ry="11"/><path fill="#000a14" d="M155.7 49l26.9-2.8 3.7 34.8-26.9 2.8z"/><ellipse fill="#00030d" cx="52" cy="75" rx="6" ry="6"/><path fill="#2c0000" d="M68.3 44.2l13.2 15-9.8 8.6-13.2-15z"/><path fill="#eed3b8" d="M96 57h8v8h-8z"/><ellipse fill="#24190a" cx="131" cy="35" rx="20" ry="13"/><path fill="#cda67f" d="M55 71l16 2-25-44z"/><path fill="#241206" d="M164.7 31.8l-20.4-4.4 47.3-.5-2.4-42.9z"/></g></svg>