<svg xmlns="http://www.w3.org/2000/svg" viewBox="0 0 700 467"><filter id="b"><feGaussianBlur stdDeviation="12" /></filter><path fill="#e1eaf4" d="M0 0h700v464H0z"/><g filter="url(#b)" transform="translate(1.4 1.4) scale(2.73438)" fill-opacity=".5"><path fill="#140000" d="M57.1 130.6l1.1-27.7 20.7 1.2.1 14.1z"/><path fill="#133542" d="M41 49l34-18L64 8z"/><path fill="#75868c" d="M91.4 138.7l-59 10.4-1.8-9.8 59-10.4z"/><ellipse fill="#bfbdbf" rx="1" ry="1" transform="matrix(-5.48857 -33.08177 18.2881 -3.03416 189 128.7)"/><path fill="#afc2cd" d="M42 38h40v19H42z"/><path fill="#c4c191" d="M219 44.1l-60.9 6.4-1.8-18.2 47.2-1z"/><ellipse fill="#2a270c" cx="68" cy="113" rx="9" ry="12"/><ellipse fill="#f2fbff" rx="1" ry="1" transform="matrix(25.40925 -8.5595 26.93459 79.9565 137 67.3)"/><ellipse fill="#f3fbff" cx="255" cy="75" rx="55" ry="55"/><ellipse fill="#f5faff" cx="176" rx="119" ry="31"/><path fill="#88613f" d="M174.6 118l25.5 25.4-.7.7-25.5-25.5z"/><path fill="#7b4614" d="M174 106h2v34h-2z"/><path fill="#eaf6ff" d="M-16 136l12-76 72 71z"/><path fill="#8c6943" d="M207 96h2v45h-2z"/><path fill="#916c48" d="M176 137h28v3h-28z"/><ellipse fill="#0042d5" cx="71" cy="113" rx="5" ry="5"/><path fill="#ff6000" d="M58 123l1-15 9-5z"/><ellipse fill="#edf8ff" rx="1" ry="1" transform="matrix(-8.38776 15.61476 -34.13673 -18.33718 88.2 92.7)"/><path fill="#c0d2db" d="M45 39h16v35H45z"/><ellipse fill="#f3f8ff" cx="18" cy="19" rx="34" ry="34"/><path fill="#2c5064" d="M52.5 26.8L48.7 40l8.9-4.2.7 22.8z"/><ellipse fill="#00081c" cx="73" cy="33" rx="3" ry="3"/></g></svg>