<svg xmlns="http://www.w3.org/2000/svg" viewBox="0 0 700 467"><filter id="b"><feGaussianBlur stdDeviation="12" /></filter><path fill="#b6b4af" d="M0 0h700v464H0z"/><g filter="url(#b)" transform="translate(1.4 1.4) scale(2.73438)" fill-opacity=".5"><ellipse cx="67" cy="136" rx="70" ry="45"/><ellipse fill="#fff" rx="1" ry="1" transform="rotate(.4 -3078.4 16273.3) scale(255 45.14033)"/><ellipse fill="#0f2000" cx="97" cy="146" rx="39" ry="39"/><ellipse fill="#fff" cx="210" cy="33" rx="49" ry="49"/><ellipse fill="#d2dacc" rx="1" ry="1" transform="matrix(16.94844 .9179 -1.56088 28.8209 62.5 99.7)"/><ellipse fill="#fff" rx="1" ry="1" transform="matrix(-6.6698 -44.93338 231.73458 -34.39809 94.8 16.5)"/><path fill="#5a563b" d="M212 89l-52-24-93 52z"/><ellipse fill="#a06e70" cx="207" cy="149" rx="86" ry="32"/><ellipse fill="#091c00" rx="1" ry="1" transform="matrix(-32.7122 -8.15619 3.75015 -15.0408 34.2 137.3)"/><path fill="#d6f1ff" d="M144.2 97.6l121.8-.3-27.8 25-80.4-9.5z"/><ellipse fill="#fff" rx="1" ry="1" transform="matrix(127.2095 -44.92844 13.80918 39.09903 58.5 20.2)"/><ellipse fill="#949084" cx="126" cy="71" rx="14" ry="41"/><path fill="#103100" d="M26.5 123.5v-35h15v35z"/><path fill="#172b14" d="M96 105h39v38H96z"/><path fill="#9da4a8" d="M30 185l45-20-58-16z"/><ellipse fill="#aab1a6" cx="87" cy="82" rx="24" ry="24"/><ellipse fill="#fff" rx="1" ry="1" transform="matrix(20.20984 18.765 -25.42561 27.3833 167.5 32.2)"/><ellipse fill="#fff" cx="236" cy="33" rx="100" ry="38"/><path fill="#d2dfd0" d="M-16 89l32-25 7 58z"/><path fill="#8b847a" d="M245.5 73.7l-1 20-26-1.4 1-20z"/><ellipse fill="#976866" rx="1" ry="1" transform="matrix(53.57822 4.00067 -.48701 6.52219 195.4 124.7)"/><ellipse fill="#fff" cx="137" cy="148" rx="2" ry="39"/></g></svg>