<svg xmlns="http://www.w3.org/2000/svg" viewBox="0 0 700 467"><filter id="b"><feGaussianBlur stdDeviation="12" /></filter><path fill="#5b5c4e" d="M0 0h700v464H0z"/><g filter="url(#b)" transform="translate(1.4 1.4) scale(2.73438)" fill-opacity=".5"><ellipse fill="#e8ffff" cx="53" cy="154" rx="56" ry="56"/><ellipse rx="1" ry="1" transform="matrix(-244.62506 71.99707 -14.89961 -50.62454 114 0)"/><ellipse fill="#fff7f8" rx="1" ry="1" transform="rotate(-78.1 139.8 -70.5) scale(61.59724 25.40677)"/><ellipse rx="1" ry="1" transform="matrix(30.14108 14.57077 -61.62764 127.4829 243.5 65.5)"/><ellipse fill="#f7ffff" rx="1" ry="1" transform="rotate(177.4 122.7 86.7) scale(21.79225 25.22641)"/><ellipse fill="#b6f6ff" rx="1" ry="1" transform="matrix(-5.74058 66.96096 -18.22438 -1.56238 70 134.4)"/><ellipse fill="#b19046" rx="1" ry="1" transform="matrix(24.22488 -15.50993 29.85102 46.62416 129.1 146.2)"/><ellipse cx="12" cy="8" rx="58" ry="58"/><path fill="#d2ceb6" d="M212 55l-93 9-5-26z"/><path fill="#564104" d="M82 60h69v58H82z"/><ellipse fill="#e5ffff" rx="1" ry="1" transform="rotate(108.7 -17.6 86.6) scale(13.25701 32.34166)"/><ellipse rx="1" ry="1" transform="rotate(176.9 120.4 5.8) scale(30.47424 136.01186)"/><ellipse fill="#96520b" rx="1" ry="1" transform="matrix(2.88247 -12.86224 50.00346 11.20593 191 27.5)"/><ellipse cx="97" cy="44" rx="15" ry="46"/><ellipse fill="#eee1df" rx="1" ry="1" transform="matrix(-24.58644 -10.51644 7.25915 -16.9712 184 58.4)"/><ellipse fill="#0b3369" rx="1" ry="1" transform="rotate(121.2 5 56) scale(32.75552 13.15385)"/><ellipse fill="#32241d" rx="1" ry="1" transform="matrix(-34.59799 -8.11488 .98886 -4.216 196 83.7)"/><path fill="#e5d5d0" d="M159 84h23v63h-23z"/><ellipse fill="#88863c" rx="1" ry="1" transform="rotate(-161.7 15.3 62.6) scale(14.22622 48.74293)"/><ellipse rx="1" ry="1" transform="rotate(-4.6 72.9 -1827) scale(63.71934 18.0038)"/><ellipse fill="#76691d" rx="1" ry="1" transform="rotate(32.7 -146.8 387.1) scale(10.57103 35.39181)"/><ellipse fill="#0079ff" cx="65" cy="85" rx="12" ry="12"/></g></svg>