<svg xmlns="http://www.w3.org/2000/svg" viewBox="0 0 700 467"><filter id="b"><feGaussianBlur stdDeviation="12" /></filter><path fill="#2f3442" d="M0 0h700v464H0z"/><g filter="url(#b)" transform="translate(1.4 1.4) scale(2.73438)" fill-opacity=".5"><ellipse fill="#c1b4c2" rx="1" ry="1" transform="matrix(-24.4627 -1.44322 4.18928 -71.00853 147 134.4)"/><ellipse rx="1" ry="1" transform="matrix(50.54527 -2.30722 7.23695 158.54326 219.8 53.5)"/><ellipse fill="#b8d4ff" rx="1" ry="1" transform="matrix(-50.84983 3.8489 -.4016 -5.30565 21.7 78.3)"/><path fill="#5f6aa2" d="M7.3 181.3l-16-26.5 63.4-38.1 16 26.5z"/><path fill="#b2d8ff" d="M-20.4 34.8l1.6-9.9 65.2 10.3-1.6 9.9z"/><path fill="#a2d6ff" d="M84 39h38v8H84z"/><path d="M78 63l54-10-4 66z"/><path fill="#6484a5" d="M69 80h36v26H69z"/><ellipse fill="#ddb7cf" cx="151" cy="34" rx="9" ry="12"/><path fill="#b6afb7" d="M131 122h47v28h-47z"/><path fill="#171b39" d="M242 165l-127 20 86-58z"/><path fill="#c0bff4" d="M176.6 82.3L159 118.1l-10.3-13.5-4.9 9.4z"/><path fill="#0e080d" d="M131 115l52-4-31 12z"/><path fill="#9d8a7a" d="M119.7 61.7l.8 3.6 47.9-7.1-23 31.1z"/><path fill="#596b8f" d="M75.2 86.2l-64.8 27.4-25.7-18.8 66.7-7.5z"/><ellipse fill="#020805" rx="1" ry="1" transform="rotate(164.3 112.8 50) scale(26.76576 96.94254)"/><path fill="#ade1ff" d="M96 94l12 7-35 2z"/><ellipse fill="#374067" cx="74" cy="139" rx="36" ry="36"/><path fill="#202e45" d="M154 68l20 21-30 8z"/><path fill="#0f1617" d="M177.3 9l-74.2 27L86.7-9l74.2-27z"/><path fill="#00000c" d="M66 96L8 142l-24-14z"/><path fill="#030a0f" d="M98 52l-58-6 14-24z"/></g></svg>