<svg xmlns="http://www.w3.org/2000/svg" viewBox="0 0 700 467"><filter id="b"><feGaussianBlur stdDeviation="12" /></filter><path fill="#848d8d" d="M0 0h700v464H0z"/><g filter="url(#b)" transform="translate(1.4 1.4) scale(2.73438)" fill-opacity=".5"><ellipse cx="107" cy="121" rx="31" ry="81"/><ellipse cx="226" cy="139" rx="30" ry="69"/><ellipse fill="#fff" rx="1" ry="1" transform="matrix(43.33795 .79331 -4.52788 247.3545 34.2 70.4)"/><ellipse fill="#fff" rx="1" ry="1" transform="matrix(-19.47482 -14.62211 37.37123 -49.7738 76 19.8)"/><ellipse fill="#deffff" rx="1" ry="1" transform="matrix(-14.3987 -45.9463 18.43459 -5.77705 171.3 34.2)"/><path fill="#000204" d="M69 61l36 124V34z"/><ellipse fill="#455663" cx="148" cy="132" rx="23" ry="88"/><ellipse fill="#526259" cx="27" cy="153" rx="9" ry="203"/><ellipse fill="#fff" rx="1" ry="1" transform="matrix(4.19261 .11973 -.91829 32.1551 128.5 150)"/><ellipse fill="#121919" rx="1" ry="1" transform="matrix(17.00235 -2.3433 20.26951 147.07068 218.1 128.3)"/><path fill="#bbf0ee" d="M174.2 182.6l-6.4-121.8 26-1.4 6.4 121.8z"/><path fill="#fffbf4" d="M240-16l6 132-26-79z"/><path fill="#fffffc" d="M39 88h39v82H39z"/><ellipse rx="1" ry="1" transform="matrix(-11.74807 -36.17695 21.5439 -6.99614 99.4 139.6)"/><path fill="#f0e8e5" d="M33 0h96v47H33z"/><path fill="#636b60" d="M96 18h20v63H96z"/><path fill="#fff" d="M167.7-16l2 55.4-21.2 12.2 3-67.6z"/><path fill="#942600" d="M114.8 107.6l23-24.3 28.7 18.7.2 16.4z"/><path fill="#fffdfc" d="M37 57h36v42H37z"/><ellipse fill="#070d11" rx="1" ry="1" transform="rotate(163.8 101.8 93.6) scale(22.95942 64.84627)"/><ellipse fill="#313531" rx="1" ry="1" transform="matrix(3.99903 -.16437 2.699 65.6634 248 35.9)"/><ellipse fill="#636764" cx="212" cy="45" rx="11" ry="60"/></g></svg>