<svg xmlns="http://www.w3.org/2000/svg" viewBox="0 0 200 133"><filter id="b"><feGaussianBlur stdDeviation="12" /></filter><path fill="#783887" d="M0 0h200v133H0z"/><g filter="url(#b)" transform="translate(.5 .5)" fill-opacity=".5"><ellipse fill="#f06ff0" cx="69" cy="74" rx="27" ry="34"/><ellipse fill="#160e45" cx="159" cy="76" rx="37" ry="39"/><ellipse fill="#eb646c" cx="125" cy="36" rx="20" ry="29"/><ellipse fill="#93c277" rx="1" ry="1" transform="matrix(-26.39518 -1.3631 1.03286 -20.00033 187 25.3)"/><ellipse fill="#230000" cx="56" cy="132" rx="88" ry="9"/><ellipse fill="#3d2e26" rx="1" ry="1" transform="matrix(-8.16126 -36.51136 22.2523 -4.97398 151.2 21)"/><path fill="#a020e0" d="M92 34h32v61H92z"/><ellipse fill="#dc36ff" rx="1" ry="1" transform="matrix(.98135 -7.62842 29.42637 3.78552 153.5 123)"/><ellipse fill="#8118ff" rx="1" ry="1" transform="rotate(-57 74.3 39.6) scale(22.68341 17.35809)"/><ellipse fill="#ff39da" rx="1" ry="1" transform="rotate(-136.3 40.8 22) scale(24.336 17.07485)"/><ellipse fill="#e25ff2" cx="55" cy="115" rx="76" ry="5"/><ellipse fill="#1e0070" cx="52" rx="54" ry="12"/><ellipse fill="#140f3b" cx="197" cy="93" rx="25" ry="25"/><ellipse fill="#8eadac" cx="9" cy="27" rx="14" ry="18"/><path fill="#d36f6f" d="M67 14h81v17H67z"/><ellipse fill="#6d316f" rx="1" ry="1" transform="matrix(-19.06987 -3.46558 4.6023 -25.32487 92.7 43.2)"/><path fill="#1e0833" d="M134.1 107l-31.2-6.7L119.7 84l46.8-39z"/><ellipse fill="#a56be7" cx="161" cy="100" rx="4" ry="31"/><ellipse fill="#000040" rx="1" ry="1" transform="matrix(.51489 6.29522 -32.80388 2.68304 156 4.5)"/><path fill="#7057ff" d="M85 66h23v33H85z"/><ellipse fill="#a9858e" cx="73" cy="105" rx="19" ry="19"/><path fill="#ff17dc" d="M109 43h14v33h-14z"/></g></svg>