<svg xmlns="http://www.w3.org/2000/svg" viewBox="0 0 312 195"><filter id="b"><feGaussianBlur stdDeviation="12" /></filter><path fill="#6f1a1e" d="M0 0h312v195H0z"/><g filter="url(#b)" transform="translate(.6 .6) scale(1.21875)" fill-opacity=".5"><ellipse fill="#7ec4ff" rx="1" ry="1" transform="matrix(17.79717 -1.40067 2.75072 34.95116 110.5 34.5)"/><ellipse fill="#ff0d1d" rx="1" ry="1" transform="matrix(67.74466 -10.7564 11.57294 72.88725 155.3 147.1)"/><ellipse cx="21" cy="41" rx="51" ry="102"/><ellipse fill="#ff002b" cx="86" cy="154" rx="117" ry="8"/><ellipse fill="#ff0462" rx="1" ry="1" transform="matrix(3.31592 14.67063 -28.24252 6.3835 240.1 139.7)"/><ellipse rx="1" ry="1" transform="rotate(-83.8 106.8 -118.4) scale(19.40286 65.6)"/><path fill="#ff5e27" d="M16 73h61v15H16z"/><ellipse fill="#141912" rx="1" ry="1" transform="rotate(24.1 -107.1 590.7) scale(29.48767 32.13139)"/><ellipse fill="#071c23" rx="1" ry="1" transform="rotate(30.3 2.4 307.6) scale(32.57287 25.50733)"/><ellipse fill="#777646" cx="241" cy="44" rx="48" ry="23"/><ellipse fill="#eff6e1" cx="112" cy="36" rx="7" ry="25"/><path d="M166 89h14v33h-14z"/><ellipse fill="#f10000" rx="1" ry="1" transform="matrix(5.0587 -34.57221 13.65068 1.9974 65 136.6)"/><ellipse fill="#181b22" cx="68" cy="38" rx="32" ry="32"/><ellipse fill="#d86a51" cx="160" cy="82" rx="50" ry="9"/><ellipse cx="26" cy="113" rx="32" ry="26"/><ellipse rx="1" ry="1" transform="matrix(-1.02845 23.24453 -10.54677 -.46664 87.1 104.3)"/><ellipse fill="#000015" rx="1" ry="1" transform="matrix(22.98794 6.36004 -2.40024 8.6755 123.8 7.3)"/><ellipse rx="1" ry="1" transform="rotate(-161.7 8.7 9) scale(21.50897 105.47737)"/><ellipse fill="#000100" cx="127" cy="97" rx="7" ry="14"/><path fill="#ffbf76" d="M148 5h9v12h-9z"/><path fill="#ff6651" d="M164.2 68.4l-19 14.6-7.8-1.5 12.4 48.9z"/></g></svg>