<svg xmlns="http://www.w3.org/2000/svg" viewBox="0 0 700 467"><filter id="b"><feGaussianBlur stdDeviation="12" /></filter><path fill="#49508d" d="M0 0h700v464H0z"/><g filter="url(#b)" transform="translate(1.4 1.4) scale(2.73438)" fill-opacity=".5"><ellipse fill="#a096ff" cx="130" cy="74" rx="94" ry="41"/><ellipse fill="#080e00" rx="1" ry="1" transform="matrix(.07346 -66.31945 49.24518 .05455 34.5 165.9)"/><ellipse fill="#0c0e00" rx="1" ry="1" transform="matrix(-11.84071 -32.18212 53.57794 -19.71284 222.7 151)"/><ellipse fill="#e2ffff" cx="255" cy="86" rx="21" ry="21"/><ellipse rx="1" ry="1" transform="matrix(-34.08732 26.53625 -11.65592 -14.97269 53.1 4.4)"/><ellipse cx="182" cy="4" rx="194" ry="11"/><ellipse fill="#d7bcff" cx="170" cy="82" rx="32" ry="24"/><ellipse fill="#aa76ff" rx="1" ry="1" transform="matrix(35.83415 -18.17252 12.46614 24.58181 71.2 45.7)"/><ellipse cx="26" cy="62" rx="9" ry="53"/><ellipse fill="#67a2ff" cx="5" cy="51" rx="13" ry="66"/><ellipse fill="#071514" cx="95" cy="129" rx="189" ry="11"/><path fill="#b2c8b7" d="M85 141h92v23H85z"/><ellipse fill="#143bd9" rx="1" ry="1" transform="matrix(72.76953 26.09828 -6.72329 18.74647 184.6 45.5)"/><path d="M223.3 101.2l-5.3-19L230.8-16l6 118.7z"/><ellipse fill="#0227ef" rx="1" ry="1" transform="rotate(14.2 -354.2 379.1) scale(50.96913 12.90327)"/><path fill="#4fb4ff" d="M236.9 78.3l-3.7-51.8 40-2.8 3.6 51.8z"/><path fill="#0a0000" d="M174.6 149.6l-25 35.4L271 168.2l-52.1-3z"/><path fill="#2461ff" d="M269 42l-15 25-30-81z"/><path d="M43 166h213v4H43z"/><path fill="#000007" d="M166.4 126.7l-18.4 12 12.7 46.3-7-14.3z"/><path fill="#cdcfc9" d="M216 147h12v19h-12z"/><ellipse fill="#c7a2ea" rx="1" ry="1" transform="matrix(.36335 10.06945 -52.39432 1.8906 86.4 70.2)"/></g></svg>