<svg xmlns="http://www.w3.org/2000/svg" viewBox="0 0 313 195"><filter id="b"><feGaussianBlur stdDeviation="12" /></filter><path fill="#5d6572" d="M0 0h313v194H0z"/><g filter="url(#b)" transform="translate(.6 .6) scale(1.22266)" fill-opacity=".5"><ellipse fill="#edfdff" rx="1" ry="1" transform="matrix(65.50681 40.60122 -51.1071 82.45722 38.2 51.5)"/><ellipse fill="#000623" cx="189" cy="84" rx="101" ry="101"/><ellipse fill="#0a428f" rx="1" ry="1" transform="matrix(-16.88668 -3.92965 9.66785 -41.54513 69 73.7)"/><ellipse fill="#c5a886" cx="172" cy="84" rx="17" ry="41"/><ellipse fill="#8aa8ff" cx="99" cy="29" rx="34" ry="32"/><ellipse fill="#fffcca" cx="18" cy="94" rx="31" ry="47"/><ellipse fill="#d5b887" cx="84" cy="113" rx="18" ry="41"/><ellipse fill="#5396f8" cx="251" cy="88" rx="15" ry="31"/><ellipse fill="#a86400" rx="1" ry="1" transform="matrix(1.32502 20.48982 -62.1682 4.02024 37.4 158)"/><ellipse fill="#010000" cx="134" cy="158" rx="37" ry="37"/><ellipse fill="#dbebff" cx="53" rx="34" ry="34"/><ellipse fill="#001209" cx="174" cy="20" rx="36" ry="25"/><path d="M51 90.1l7.5-2.9L71 120l-7.5 2.9z"/><ellipse fill="#150d11" cx="212" cy="136" rx="39" ry="39"/><path fill="#572800" d="M105.8 64L91.3 81.9 74.3 68l14.4-17.9z"/><ellipse fill="#040061" cx="135" cy="40" rx="15" ry="77"/><ellipse fill="#ffffd0" rx="1" ry="1" transform="rotate(-162.2 34 59.3) scale(18.84196 13.87942)"/><path fill="#1577ea" d="M54 21h26v45H54z"/><ellipse fill="#0b0621" rx="1" ry="1" transform="matrix(-10.15443 -12.76587 22.5725 -17.95497 144.5 85.5)"/><path fill="#90acff" d="M107 0h14v92h-14z"/><path fill="#fffffd" d="M177 127l-22-15 4-13z"/><ellipse fill="#e5cea6" cx="90" cy="122" rx="28" ry="8"/></g></svg>