<svg xmlns="http://www.w3.org/2000/svg" viewBox="0 0 700 467"><filter id="b"><feGaussianBlur stdDeviation="12" /></filter><path fill="#442f22" d="M0 0h700v464H0z"/><g filter="url(#b)" transform="translate(1.4 1.4) scale(2.73438)" fill-opacity=".5"><ellipse fill="#ffffde" rx="1" ry="1" transform="matrix(27.36367 .60296 -.90115 40.89651 195.8 15.7)"/><ellipse fill="#ff2b42" cx="127" cy="71" rx="12" ry="33"/><ellipse cx="21" cy="84" rx="44" ry="44"/><path fill="#c06f84" d="M83 62L49 34l38 112z"/><path fill="#ffffec" d="M207 0h11v56h-11z"/><ellipse fill="#c6a54c" cx="99" cy="14" rx="12" ry="48"/><ellipse fill="#07090b" rx="1" ry="1" transform="matrix(-69.96532 -35.20686 20.37848 -40.49742 226.9 152)"/><path fill="#c7aa8f" d="M239 27h12v85h-12z"/><ellipse cx="141" cy="10" rx="31" ry="26"/><ellipse fill="#a6727f" rx="1" ry="1" transform="matrix(15.63337 2.32923 -3.27808 22.00187 74.7 114.8)"/><ellipse fill="#120200" cx="22" cy="128" rx="38" ry="52"/><path fill="#deb48b" d="M166.2 99l-13.5 15.2-2.7 34.2-.8-55z"/><ellipse fill="#2f0c00" rx="1" ry="1" transform="matrix(7.58975 31.13442 -56.92417 13.87662 120.4 152.7)"/><path d="M58 8.3l13.8 38.3L99-16h36.7z"/><ellipse rx="1" ry="1" transform="matrix(13.99876 -39.97456 11.57428 4.05322 237.2 1)"/><ellipse fill="#ffffc6" cx="178" cy="6" rx="5" ry="43"/><path fill="#fcc79d" d="M179 128h6v23h-6z"/><ellipse fill="#5d4f43" rx="1" ry="1" transform="matrix(5.16528 -26.72223 13.35003 2.5805 191.2 54.3)"/><ellipse fill="#151200" rx="1" ry="1" transform="matrix(-14.92241 -41.4486 17.97817 -6.47254 24 22.2)"/><ellipse fill="#fc2335" rx="1" ry="1" transform="matrix(2.6425 -15.62345 14.2614 2.41213 133.7 66.2)"/><path d="M172.5 60.4L167.3 97l-23.8-3.4 5.2-36.6z"/><path fill="#18140c" d="M73 47.3l30.6 86.9-11-113 32.4 28z"/></g></svg>