<svg xmlns="http://www.w3.org/2000/svg" viewBox="0 0 200 133"><filter id="b"><feGaussianBlur stdDeviation="12" /></filter><path fill="#767d7f" d="M0 0h200v133H0z"/><g filter="url(#b)" transform="translate(.5 .5)" fill-opacity=".5"><path fill="#fffbf9" d="M20-16l99 1-97 148z"/><ellipse rx="1" ry="1" transform="matrix(20.96356 -1.2245 2.90557 49.74396 92 91.1)"/><ellipse cx="5" cy="84" rx="15" ry="130"/><ellipse fill="#fff6f3" rx="1" ry="1" transform="matrix(12.84592 31.7528 -17.52538 7.09007 100.7 22.7)"/><ellipse fill="#080b0a" rx="1" ry="1" transform="matrix(14.76888 -.90478 9.03748 147.52063 199 90)"/><ellipse fill="#f4f8f9" cx="158" cy="55" rx="6" ry="83"/><ellipse fill="#fff" rx="1" ry="1" transform="matrix(-3.0841 -41.08173 8.94566 -.67157 63 115.3)"/><ellipse fill="#0c3250" cx="138" cy="88" rx="15" ry="91"/><ellipse fill="#364643" rx="1" ry="1" transform="rotate(179.7 23.6 19) scale(4.15954 73.94273)"/><ellipse cx="93" cy="121" rx="18" ry="57"/><path fill="#fff" d="M112 96h12v37h-12z"/><path fill="#2f1816" d="M62 57.6l2.2 26.2L125 94.1l-13.3-42z"/><path fill="#fbf4f8" d="M145.4 13.8l11.7 61 2.2-43.6-7.7-47.2z"/><path fill="#897470" d="M83 26.8l11.5-1.6 2.2 60L77.8 43z"/><ellipse fill="#d5d0d0" cx="33" cy="105" rx="12" ry="127"/><ellipse cx="112" cy="15" rx="2" ry="42"/><ellipse fill="#e7e6e8" rx="1" ry="1" transform="rotate(54.6 44.4 86) scale(26.64333 41.02715)"/><ellipse cx="73" cy="69" rx="9" ry="16"/><path fill="#fffffd" d="M60 86h14v17H60z"/><ellipse fill="#72a9ab" cx="172" cy="92" rx="11" ry="151"/><path fill="#fff8f7" d="M112.3 55.5l9.3 12.7-.5-26.8-.6-57.4z"/><path fill="#832203" d="M95 78h43v14H95z"/></g></svg>