<svg xmlns="http://www.w3.org/2000/svg" viewBox="0 0 200 133"><filter id="b"><feGaussianBlur stdDeviation="12" /></filter><path fill="#664a3e" d="M0 0h200v133H0z"/><g filter="url(#b)" transform="translate(.5 .5)" fill-opacity=".5"><ellipse fill="#c0bbcb" rx="1" ry="1" transform="rotate(148.3 34.5 51) scale(32.99215 31.56702)"/><ellipse fill="#d3baa3" rx="1" ry="1" transform="matrix(3.0723 28.74817 -31.4517 3.36122 150 71.2)"/><ellipse cx="112" cy="132" rx="199" ry="27"/><ellipse fill="#e1b795" cx="39" cy="73" rx="31" ry="31"/><ellipse cx="110" cy="27" rx="178" ry="16"/><ellipse fill="#f6944d" cx="95" cy="5" rx="177" ry="7"/><path fill="#fff" d="M78.4 51.3l22-1.5 1.2 19-22 1.4z"/><path fill="#3d2121" d="M79.4 50.4L65.6-16v91.8l9.2 56.6z"/><ellipse fill="#340000" cx="198" cy="122" rx="14" ry="140"/><ellipse fill="#010000" cx="89" cy="132" rx="199" ry="24"/><path fill="#f6d2b2" d="M14.3 55.4l1.4-32.5 9.4 10.7-12.6 78.6z"/><path fill="#563f32" d="M109 58h26v30h-26z"/><path fill="#d4b796" d="M168 27h13v66h-13z"/><path fill="#efbfb9" d="M143.8 89.6l-.7 10-74.9-5.2.7-10z"/><path fill="#ca9084" d="M50 21h67v7H50z"/><path fill="#7bc5ff" d="M93.4 35.4L117 50.7l-10.3 15.9L83 51.3z"/><ellipse fill="#952825" cx="50" cy="102" rx="139" ry="5"/><path fill="#b6c0ad" d="M146 47l-14 11 6-35z"/><path d="M113 12h75l-32 26z"/><path fill="#fff7e3" d="M44.3 68.7l-1.6 23-5-.4 1.6-23z"/><path fill="#110a19" d="M115 4h7v63h-7z"/><ellipse fill="#e9bdc0" cx="78" cy="95" rx="22" ry="4"/></g></svg>