<svg xmlns="http://www.w3.org/2000/svg" viewBox="0 0 700 467"><filter id="b"><feGaussianBlur stdDeviation="12" /></filter><path fill="#23253a" d="M0 0h700v464H0z"/><g filter="url(#b)" transform="translate(1.4 1.4) scale(2.73438)" fill-opacity=".5"><path fill="#9793ac" d="M131 73L4 133l267 2z"/><ellipse fill="#729ee0" cx="170" cy="38" rx="51" ry="17"/><path fill="#2d50fe" d="M172 55h37v46h-37z"/><ellipse rx="1" ry="1" transform="matrix(.9785 -28.29438 215.26674 7.44454 156.9 169)"/><ellipse rx="1" ry="1" transform="matrix(16.8362 40.28977 -213.51592 89.22354 92.6 0)"/><ellipse fill="#4566ff" cx="27" cy="99" rx="7" ry="30"/><ellipse cx="134" rx="255" ry="23"/><ellipse fill="#2d49ff" rx="1" ry="1" transform="rotate(-167.4 33.9 42.7) scale(7.11863 23.68885)"/><path fill="#4b0000" d="M182 96h74v23h-74z"/><ellipse fill="#cdcad0" rx="1" ry="1" transform="matrix(26.26779 -13.67414 3.43555 6.59963 150.8 128.2)"/><path fill="#1f49ff" d="M227 70h18v24h-18z"/><ellipse cx="251" cy="35" rx="27" ry="42"/><ellipse cx="227" cy="153" rx="32" ry="23"/><path fill="#79a3ff" d="M137.1 90.5l43.6-6.3-63.5-4.8-2.5 24.3z"/><ellipse cx="8" cy="92" rx="11" ry="221"/><path fill="#c6f7df" d="M116 117l-29 21-9-15z"/><path fill="#2036ff" d="M74 80h14v27H74z"/><ellipse cx="69" cy="125" rx="6" ry="49"/><path fill="#a6beaa" d="M166 119l62-3-29 20z"/><ellipse fill="#020000" cx="42" cy="156" rx="114" ry="23"/><path d="M108 124l33-2-49 22z"/><path fill="#ff7094" d="M110 130.8l33.9-.6.2 11-34 .6z"/></g></svg>