<svg xmlns="http://www.w3.org/2000/svg" viewBox="0 0 200 133"><filter id="b"><feGaussianBlur stdDeviation="12" /></filter><path fill="#3e2a28" d="M0 0h200v133H0z"/><g filter="url(#b)" transform="translate(.5 .5)" fill-opacity=".5"><ellipse fill="#a46a50" rx="1" ry="1" transform="matrix(-.87997 -26.55882 37.26268 -1.23462 53.8 15)"/><ellipse cx="40" cy="90" rx="34" ry="37"/><ellipse fill="#9e849a" rx="1" ry="1" transform="matrix(-10.00015 -10.17623 14.49288 -14.24211 149.3 98)"/><path fill="#2653ae" d="M175 2h25v47h-25z"/><ellipse fill="#ffbb9e" cx="149" cy="58" rx="5" ry="17"/><ellipse fill="#f7a288" cx="113" cy="81" rx="9" ry="9"/><ellipse rx="1" ry="1" transform="matrix(47.24175 -48.77872 8.02733 7.7744 111.3 18.4)"/><path fill="#ffb16c" d="M-16 33l34 10-34 23z"/><path fill="#c0423d" d="M108.1 59.5l19.2-51.4L138.8 19l3.6 6z"/><ellipse cx="150" cy="5" rx="19" ry="19"/><ellipse fill="#250107" cx="114" cy="124" rx="30" ry="30"/><ellipse fill="#080505" rx="1" ry="1" transform="rotate(-142.7 108 -5.5) scale(15.90434 40.65329)"/><ellipse fill="#00060a" rx="1" ry="1" transform="matrix(-4.8862 -.6126 4.90613 -39.13244 126.6 65.1)"/><path fill="#ffba9d" d="M48 22h9v21h-9z"/><path d="M59 16h7v46h-7z"/><path fill="#e07459" d="M86 52h19v9H86z"/><ellipse cx="134" cy="56" rx="9" ry="20"/><path fill="#9a766f" d="M82.8 45.2l-15.5-28 7.9-4.4 15.5 28z"/><path fill="#af4c3a" d="M73.6 72.5l13.9 1.9 15.4 24.3L96.2 63z"/><ellipse fill="#000604" rx="1" ry="1" transform="matrix(-10.33927 9.57423 -17.54187 -18.94357 37.3 62.8)"/><path fill="#845a44" d="M83 148l-93.2-12 80.8-14.7L82.4 148z"/><ellipse fill="#050000" rx="1" ry="1" transform="matrix(-4.80426 -1.22392 8.9641 -35.18669 173.6 97.3)"/></g></svg>