<svg xmlns="http://www.w3.org/2000/svg" viewBox="0 0 700 467"><filter id="b"><feGaussianBlur stdDeviation="12" /></filter><path fill="#0a0809" d="M0 0h700v464H0z"/><g filter="url(#b)" transform="translate(1.4 1.4) scale(2.73438)" fill-opacity=".5"><path fill="#526470" d="M25 121l15-79 9 100z"/><path fill="#edeeec" d="M237.2 73.4l3 .7-11.4 42.5-3-.7z"/><path fill="#8b909c" d="M155.2 92.4l13-7 25.3 36.3-45.3-48.4z"/><ellipse fill="#d4d4ce" rx="1" ry="1" transform="rotate(-106.7 77.2 15.3) scale(2.01631 24.90639)"/><path fill="#9fa98b" d="M215 126h32v7h-32z"/><ellipse fill="#7384ae" rx="1" ry="1" transform="matrix(4.9703 9.41647 -5.96879 3.1505 174 130.3)"/><path fill="#b5c9e3" d="M163.7 74.4l7.6 13-21.1-7 9.1 11.8z"/><path fill="#c9dfc4" d="M95 124h5v15h-5z"/><path fill="#fff" d="M30 76h5v9h-5z"/><path fill="#202622" d="M240.6 104.8l-20.6-4 3.4-17.6 20.6 4z"/><path fill="#fff" d="M45 112l-7-1V97z"/><path fill="#fcffff" d="M27 119h7v7h-7z"/><path d="M-16 129l41-47 17 33z"/><path fill="#9a7329" d="M124 151h35v4h-35z"/><path d="M34 0h183v79H34zm-6.1 100l50.6 7.9-18.8-18L-12 102z"/><ellipse fill="#47504b" cx="89" cy="87" rx="7" ry="8"/><path fill="#fff" d="M45 119h3v8h-3z"/><path fill="#c0d9ff" d="M43 88l-11-4 5-3z"/><path fill="#fcfcfd" d="M109 85l.5 1.9L95 91l-.6-1.9z"/><path fill="#020100" d="M223 115h11v55h-11z"/><ellipse fill="#fff" cx="238" cy="130" rx="3" ry="4"/></g></svg>