<svg xmlns="http://www.w3.org/2000/svg" viewBox="0 0 700 467"><filter id="b"><feGaussianBlur stdDeviation="12" /></filter><path fill="#3b2a25" d="M0 0h700v464H0z"/><g filter="url(#b)" transform="translate(1.4 1.4) scale(2.73438)" fill-opacity=".5"><ellipse fill="#a16a4d" rx="1" ry="1" transform="rotate(-91.5 44.8 -23.4) scale(31.75501 49.70743)"/><ellipse cx="50" cy="114" rx="47" ry="47"/><ellipse fill="#9c879a" rx="1" ry="1" transform="matrix(-13.8249 19.89144 -16.1257 -11.20766 192.2 125.5)"/><ellipse fill="#255dc4" rx="1" ry="1" transform="matrix(22.28691 -45.69494 13.25436 6.46458 245.2 22.5)"/><ellipse fill="#ffc6a3" rx="1" ry="1" transform="matrix(7.83654 -.58526 .92827 12.42944 145.6 103.6)"/><path fill="#ffb798" d="M185 56h11v37h-11z"/><ellipse fill="#fa6" rx="1" ry="1" transform="rotate(154.6 -6.5 31.8) scale(27.36314 6.32324)"/><ellipse rx="1" ry="1" transform="matrix(9.9756 9.36772 -55.76551 59.38424 139.8 26.9)"/><ellipse fill="#c87d61" rx="1" ry="1" transform="matrix(-7.05527 8.46257 -10.0161 -8.35046 169 28.5)"/><ellipse rx="1" ry="1" transform="rotate(-117 97 -57.2) scale(24.00654 27.05349)"/><path fill="#e6101e" d="M146 84.7l5.3-54.8L164 46.6l-3.5 4.8z"/><ellipse fill="#030300" rx="1" ry="1" transform="matrix(-26.97907 -17.18282 9.61633 -15.09877 229.4 85.5)"/><path fill="#ffbb9c" d="M62 29h12v25H62z"/><path d="M169 37l-9 49 33 30z"/><ellipse fill="#100" cx="139" cy="169" rx="45" ry="29"/><path d="M89.3 18.1l-18.7-1.8 11 47.9 2.6-32.8z"/><path fill="#de9d97" d="M106 21L88 57l-4-32z"/><path fill="#ab4d36" d="M112 69h16v38h-16z"/><path fill="#aa5a2f" d="M25.6 67.4l-5.2 28.2-34.3 18.1 12.5-7.7z"/><path fill="#020b05" d="M29 27L14 154l77-10z"/><ellipse rx="1" ry="1" transform="matrix(-9.72902 39.91006 -6.23646 -1.52029 222.1 122.1)"/><ellipse fill="#71432a" rx="1" ry="1" transform="rotate(69.8 -15.5 17.5) scale(27.24755 95.87317)"/></g></svg>