<svg xmlns="http://www.w3.org/2000/svg" viewBox="0 0 700 467"><filter id="b"><feGaussianBlur stdDeviation="12" /></filter><path fill="#2d335e" d="M0 0h700v464H0z"/><g filter="url(#b)" transform="translate(1.4 1.4) scale(2.73438)" fill-opacity=".5"><ellipse fill="#fff" cx="184" cy="42" rx="36" ry="31"/><ellipse fill="#89a6ff" rx="1" ry="1" transform="matrix(.90492 -26.30792 192.42906 6.61903 187.5 120.5)"/><ellipse rx="1" ry="1" transform="matrix(-22.6526 -55.16433 79.20059 -32.52281 66.4 38)"/><ellipse rx="1" ry="1" transform="rotate(-80.4 147.4 28.4) scale(28.8211 184.11919)"/><path fill="#fff" d="M198.4 91.2l1.3 12-168.1 17.6-1.3-12z"/><ellipse fill="#041ade" cx="255" cy="131" rx="189" ry="24"/><ellipse rx="1" ry="1" transform="rotate(130.7 24.1 21.3) scale(99.2352 63.27653)"/><ellipse fill="#00000a" cx="245" cy="21" rx="25" ry="100"/><ellipse fill="#fff" cx="184" cy="36" rx="33" ry="21"/><ellipse fill="#fff" cx="188" cy="102" rx="66" ry="7"/><ellipse fill="#fff" rx="1" ry="1" transform="matrix(-40.29878 2.37745 -.5462 -9.25823 37.6 117)"/><ellipse fill="#6b6262" cx="183" cy="73" rx="37" ry="18"/><ellipse cx="204" cy="113" rx="121" ry="5"/><ellipse rx="1" ry="1" transform="matrix(1.85577 -17.36484 151.17493 16.15594 92.7 161)"/><ellipse cx="255" rx="171" ry="13"/><ellipse fill="#638fff" rx="1" ry="1" transform="matrix(72.40322 5.18993 -.64234 8.96114 158.7 125.2)"/><ellipse fill="#141bff" cx="238" cy="147" rx="29" ry="20"/><path fill="#e1dfeb" d="M128 106.2L125.3 70l-2.4-2.4-9.5 6.6z"/><path fill="#000004" d="M0 0h118v98H0z"/><ellipse rx="1" ry="1" transform="rotate(-79.6 141.8 15.3) scale(25.21645 9.67725)"/><ellipse fill="#000557" rx="1" ry="1" transform="rotate(55.8 18.6 130) scale(20.06837 46.95727)"/><path d="M45.8 165l-28.3-25.4L34.2 121l28.3 25.4z"/></g></svg>