<svg xmlns="http://www.w3.org/2000/svg" viewBox="0 0 200 133"><filter id="b"><feGaussianBlur stdDeviation="12" /></filter><path fill="#4c3e39" d="M0 0h200v133H0z"/><g filter="url(#b)" transform="translate(.5 .5)" fill-opacity=".5"><ellipse fill="#b1ffff" cx="91" cy="48" rx="24" ry="20"/><path fill="#b8806c" d="M145 60l-161 41 203 3z"/><ellipse cx="88" cy="12" rx="162" ry="16"/><ellipse rx="1" ry="1" transform="rotate(-1.2 6003.7 -6559.3) scale(199 11.95981)"/><path fill="#86775d" d="M146 26h54v73h-54z"/><ellipse fill="#0287ff" cx="94" cy="31" rx="29" ry="5"/><path fill="#c4e3ff" d="M69 38h31v24H69z"/><ellipse fill="#3e2e28" rx="1" ry="1" transform="matrix(81.15536 -4.78153 .51976 8.82172 113.6 69.2)"/><ellipse fill="#160000" cx="171" cy="122" rx="72" ry="19"/><path fill="#b8938e" d="M39 75h29v32H39z"/><path fill="#eebdab" d="M12 68h7v32h-7z"/><ellipse fill="#867f5d" rx="1" ry="1" transform="matrix(-27.43145 4.63968 -2.25191 -13.31411 22 39.4)"/><ellipse fill="#050001" cx="54" cy="40" rx="7" ry="57"/><ellipse cx="22" cy="16" rx="35" ry="13"/><path d="M119 7h14v59h-14z"/><path fill="#311f16" d="M134 84h56v11h-56z"/><path fill="#300000" d="M0 108h35v25H0z"/><path fill="#f6b9aa" d="M153.4 81.6l-1.5-14-5 25.1 3.4 11z"/><ellipse fill="#f8b99d" cx="84" cy="98" rx="126" ry="2"/><path fill="#7cc2ff" d="M87 29h27v28H87z"/><ellipse rx="1" ry="1" transform="matrix(-13.17849 -19.62313 17.09003 -11.4773 174.6 4.8)"/><path fill="#adab9e" d="M117 112h34v4h-34z"/></g></svg>