<svg xmlns="http://www.w3.org/2000/svg" viewBox="0 0 700 467"><filter id="b"><feGaussianBlur stdDeviation="12" /></filter><path fill="#877d78" d="M0 0h700v464H0z"/><g filter="url(#b)" transform="translate(1.4 1.4) scale(2.73438)" fill-opacity=".5"><ellipse rx="1" ry="1" transform="rotate(95.2 2.5 98.7) scale(30.97364 213.47742)"/><ellipse fill="#fff" rx="1" ry="1" transform="matrix(192.08424 8.38658 -.94018 21.53373 69.6 153.3)"/><ellipse fill="#fff" cx="98" cy="7" rx="255" ry="25"/><path fill="#120000" d="M78 152l96-51L27 70z"/><ellipse fill="#fff" cx="10" cy="27" rx="30" ry="30"/><path fill="#3d1d0b" d="M265 63L106 25l75 67z"/><ellipse fill="#fff" cx="37" cy="169" rx="44" ry="44"/><ellipse fill="#fff" cx="138" cy="163" rx="107" ry="16"/><path fill="#2e0d00" d="M88 154.5l-47.8-39.1L159.8 23l-39.4 53.6z"/><ellipse fill="#d3dfe9" rx="1" ry="1" transform="matrix(3.38025 -23.00947 139.95503 20.56033 221.2 20.5)"/><ellipse fill="#150000" cx="255" cy="129" rx="53" ry="22"/><path fill="#aaa7a1" d="M169 18l6 79-26-3z"/><path fill="#1e0000" d="M136 28h23v32h-23z"/><path fill="#715a4b" d="M38.8 93.5l40.5-65.8L3.6 59.3 44.4 121z"/><ellipse fill="#190000" cx="188" cy="123" rx="34" ry="15"/><path fill="#d9e3e2" d="M248 76h8v33h-8z"/><path fill="#422618" d="M118.5 35.8L47.3 32l-3 7.2 38.5 10.4z"/><ellipse fill="#160000" rx="1" ry="1" transform="matrix(-16.18848 4.08347 -7.65002 -30.32766 0 97.8)"/><ellipse fill="#f5fcf8" cx="123" cy="161" rx="28" ry="28"/><path fill="#c9c2b9" d="M215.6 71.2L212.9 84l-24.5-5.2 2.7-12.8z"/><ellipse fill="#d4dce3" rx="1" ry="1" transform="rotate(-83.1 40 -27.4) scale(17.73216 63.22833)"/><path fill="#e6f1ed" d="M121 94.1l-3.8-1.4L129 61.9l3.8 1.4z"/></g></svg>