<svg xmlns="http://www.w3.org/2000/svg" viewBox="0 0 200 133"><filter id="b"><feGaussianBlur stdDeviation="12" /></filter><path fill="#69af94" d="M0 0h200v133H0z"/><g filter="url(#b)" transform="translate(.5 .5)" fill-opacity=".5"><ellipse fill="#fff" rx="1" ry="1" transform="rotate(-95 63 -30.2) scale(17.86552 148.06666)"/><path d="M-3.3 25.7L-7.6-5l118.9-16.7L115.6 9zm166.1 101l2.1-49-19.5 3.7-5.1 34z"/><path fill="#109652" d="M150 134l-166-3L3 51z"/><path fill="#001b00" d="M175.7 70.7l-2.3-26.9 28.9-2.5 2.3 26.9z"/><ellipse fill="#aa622e" cx="42" cy="53" rx="16" ry="55"/><ellipse fill="#86ffe6" rx="1" ry="1" transform="matrix(21.18557 -18.9803 14.64077 16.34185 78.6 89.5)"/><ellipse fill="#1d000a" cx="118" cy="129" rx="20" ry="20"/><ellipse fill="#fff" rx="1" ry="1" transform="rotate(82.6 41.6 77.5) scale(18.70978 36.8114)"/><path fill="#4dffd2" d="M165.5 103l2-40 37 2-2 40z"/><path fill="#004445" d="M55 49h88v16H55z"/><path fill="#fff4ff" d="M114.4 40.2L89.1 54l12.1 32.4 2.1-10.3z"/><ellipse fill="#8cffe8" cx="127" cy="88" rx="15" ry="24"/><ellipse fill="#6a5f43" cx="155" cy="39" rx="11" ry="26"/><path d="M0 55h26v13H0z"/><path fill="#fff" d="M0 23h27v32H0z"/><ellipse fill="#48ffc8" cx="12" cy="88" rx="17" ry="22"/><ellipse cx="75" rx="35" ry="13"/><path fill="#f2d8cd" d="M165 49.8L129.4 79h47.2l-2.5-52z"/><ellipse fill="#00ffab" rx="1" ry="1" transform="matrix(.72462 -8.98766 75.93894 6.12252 193.8 4.2)"/><ellipse fill="#d2e8e6" rx="1" ry="1" transform="matrix(9.95636 16.005 -7.29356 4.53716 37.5 57.1)"/><ellipse fill="#052411" cx="162" cy="57" rx="5" ry="20"/></g></svg>