<svg xmlns="http://www.w3.org/2000/svg" viewBox="0 0 641 195"><filter id="b"><feGaussianBlur stdDeviation="12" /></filter><path fill="#887e76" d="M0 0h641v192H0z"/><g filter="url(#b)" transform="translate(1.3 1.3) scale(2.5039)" fill-opacity=".5"><ellipse fill="#b4f9ff" rx="1" ry="1" transform="matrix(-53.08764 -2.54843 1.63704 -34.10196 131 11.2)"/><ellipse fill="#532720" cx="26" cy="56" rx="37" ry="37"/><ellipse fill="#82583a" rx="1" ry="1" transform="matrix(-.91773 -21.31683 137.95447 -5.93917 180.4 62.2)"/><ellipse fill="#e2f5ff" rx="1" ry="1" transform="matrix(2.46958 10.54306 -46.05186 10.78706 126 27)"/><ellipse fill="#3f7cff" rx="1" ry="1" transform="matrix(-22.40339 25.6688 -13.1007 -11.43412 102.4 1)"/><ellipse fill="#a98942" cx="236" cy="22" rx="55" ry="55"/><path fill="#403030" d="M34 45L84-6 67 57z"/><path fill="#1e152d" d="M124 69h83v8h-83z"/><path fill="#e0aeb0" d="M121 68H53l20-15z"/><ellipse fill="#dae9f5" rx="1" ry="1" transform="matrix(30.05507 1.73296 -.5315 9.21802 154.4 33)"/><ellipse fill="#c2bca3" rx="1" ry="1" transform="matrix(-48.08625 -11.90014 3.52166 -14.23037 229 0)"/><ellipse fill="#4f83e8" rx="1" ry="1" transform="matrix(-37.09122 -5.57542 1.16003 -7.71723 148.7 3.6)"/><ellipse fill="#a79797" cx="20" cy="23" rx="10" ry="22"/><ellipse fill="#2a1908" rx="1" ry="1" transform="matrix(3.14767 5.30127 -27.6433 16.4134 7.8 62.4)"/><path fill="#ffd2af" d="M117 62.2l2 13.9-12 1.7-2-13.9z"/><path fill="#a58d97" d="M198.6 63.3l-6.1-17L179.3 92 160 49.4z"/><ellipse fill="#8f9783" rx="1" ry="1" transform="rotate(110.5 23.7 22.8) scale(32.84027 11.83098)"/><path fill="#563708" d="M271 69l-10 16-33-44z"/><path fill="#c89c90" d="M56.2 70.2L62 82.5 66.8 61l-40.5-6.4z"/><path fill="#2b0c36" d="M80 70h28v7H80z"/><ellipse fill="#715c3f" cx="191" cy="19" rx="10" ry="33"/><path fill="#75affe" d="M80 0h14v42H80z"/></g></svg>