<svg xmlns="http://www.w3.org/2000/svg" viewBox="0 0 200 133"><filter id="b"><feGaussianBlur stdDeviation="12" /></filter><path fill="#3c426c" d="M0 0h200v133H0z"/><g filter="url(#b)" transform="translate(.5 .5)" fill-opacity=".5"><ellipse fill="#a0ff7e" cx="120" cy="21" rx="41" ry="33"/><ellipse fill="#00000b" rx="1" ry="1" transform="matrix(43.96827 -.725 3.26458 197.98544 2.8 132)"/><ellipse fill="#ffd8ff" rx="1" ry="1" transform="matrix(.09851 7.05483 -43.30926 .60475 89.2 112.2)"/><ellipse fill="#4043f4" rx="1" ry="1" transform="matrix(-10.7383 51.85333 -25.33277 -5.24616 183 25.2)"/><ellipse fill="#ecbddf" rx="1" ry="1" transform="matrix(-3.0546 -15.1455 13.48507 -2.71971 101.3 79.8)"/><ellipse cx="145" cy="124" rx="193" ry="7"/><path fill="#fff" d="M182 115.6l-16.9 1.8-1.1-11 16.9-1.8z"/><path fill="#ffceff" d="M78 118l5-23-26-4z"/><ellipse fill="#00004d" cx="22" cy="18" rx="38" ry="41"/><ellipse fill="#15006c" cx="143" cy="83" rx="23" ry="35"/><ellipse fill="#139658" rx="1" ry="1" transform="rotate(-15.9 134.1 -263) scale(19.18929 28.68068)"/><ellipse fill="#b0e57a" cx="123" cy="19" rx="25" ry="23"/><ellipse fill="#21073e" cx="69" cy="71" rx="22" ry="22"/><path fill="#110076" d="M181 38h19v82h-19z"/><path fill="#b69ec7" d="M171 0h7v120h-7z"/><ellipse fill="#af77cd" cx="43" cy="60" rx="10" ry="10"/><path fill="#12b088" d="M130 55l43-13-10-58z"/><ellipse fill="#00001b" rx="1" ry="1" transform="matrix(45.44267 18.84328 -6.67958 16.10857 13.8 78)"/><path fill="#cd9aff" d="M58.3 111.7l-5.4 5.6 81.5 3.6-7.4-17.7z"/><path fill="#2e09ef" d="M176.7 44.7l-1.4-79 26-.4 1.4 79z"/><ellipse fill="#510b2f" rx="1" ry="1" transform="matrix(-5.76178 15.41058 -3.70111 -1.38379 99.1 94.4)"/><path fill="#010000" d="M133 110h30v21h-30z"/></g></svg>