<svg xmlns="http://www.w3.org/2000/svg" viewBox="0 0 200 133"><filter id="b"><feGaussianBlur stdDeviation="12" /></filter><path fill="#94868d" d="M0 0h200v133H0z"/><g filter="url(#b)" transform="translate(.5 .5)" fill-opacity=".5"><ellipse fill="#fff" cx="55" cy="11" rx="74" ry="74"/><ellipse fill="#540000" rx="1" ry="1" transform="matrix(-.48489 -34.93406 95.44395 -1.32477 61.4 115.6)"/><ellipse fill="#005" rx="1" ry="1" transform="matrix(24.61415 1.07468 -3.339 76.47564 189.9 48.1)"/><ellipse fill="#fff" cx="80" cy="41" rx="47" ry="47"/><ellipse fill="#8c0000" cx="135" cy="61" rx="9" ry="152"/><path fill="#920a00" d="M0 82h134v27H0z"/><ellipse fill="#fff" rx="1" ry="1" transform="matrix(1.22908 -9.05475 48.22438 6.54592 12.9 71.5)"/><ellipse fill="#002a72" cx="189" cy="54" rx="24" ry="68"/><path fill="#f7ffff" d="M109.9-16L6.6 76.6 73.5 82l60 .5z"/><ellipse fill="#d8faff" cx="27" cy="8" rx="99" ry="34"/><path fill="#ab0400" d="M127 0h18v82h-18z"/><ellipse fill="#6a593a" cx="156" cy="108" rx="32" ry="32"/><path fill="#bacabb" d="M92.7 114l-10.2 23-2.2-21.4-13.5-17.8z"/><ellipse fill="#311b0e" cx="18" cy="129" rx="34" ry="26"/><path fill="#fccd9d" d="M148 107h13v24h-13z"/><ellipse fill="#003586" cx="186" cy="47" rx="20" ry="48"/><path fill="#92c9f6" d="M59 122l46 26H7z"/><ellipse fill="#ac0d00" cx="127" cy="106" rx="10" ry="23"/><path fill="#feffff" d="M94 0h33v81H94z"/><ellipse fill="#fff" cx="19" cy="75" rx="107" ry="7"/><ellipse fill="#00020e" rx="1" ry="1" transform="matrix(-17.1196 18.17698 -6.0117 -5.662 127.7 132)"/><path fill="#73719e" d="M8.2 58L24 36l13.7 10L22 68z"/></g></svg>