<svg xmlns="http://www.w3.org/2000/svg" viewBox="0 0 700 467"><filter id="b"><feGaussianBlur stdDeviation="12" /></filter><path fill="#47474c" d="M0 0h700v464H0z"/><g filter="url(#b)" transform="translate(1.4 1.4) scale(2.73438)" fill-opacity=".5"><ellipse fill="#fff" rx="1" ry="1" transform="matrix(15.92397 15.02342 -22.2445 23.5779 151.3 14)"/><ellipse fill="#fff" cx="38" cy="7" rx="50" ry="15"/><ellipse rx="1" ry="1" transform="matrix(-54.79022 3.62062 -5.63542 -85.2798 205 129)"/><path fill="#fcd3ba" d="M101.2 92.4L83.3 37.2l29.5-9.6 17.9 55.2z"/><ellipse fill="#a2abcc" cx="120" cy="162" rx="31" ry="32"/><ellipse fill="#fff" cx="213" rx="11" ry="24"/><path fill="#d7c9c5" d="M212.4 89.5l-27.3-7.7-11.5 12.8 19.7 5z"/><ellipse fill="#040300" cx="74" cy="71" rx="17" ry="49"/><ellipse fill="#2a221a" cx="37" cy="36" rx="27" ry="27"/><ellipse fill="#000505" rx="1" ry="1" transform="rotate(-19.7 439.4 76.5) scale(35.5059 96.67221)"/><ellipse fill="#f0fcf3" cx="2" cy="26" rx="11" ry="17"/><ellipse fill="#e7f3f1" cx="150" cy="12" rx="23" ry="23"/><ellipse fill="#fff" cx="40" rx="35" ry="10"/><ellipse fill="#050200" rx="1" ry="1" transform="rotate(136.7 122.6 53.4) scale(29.67169 19.48972)"/><ellipse rx="1" ry="1" transform="rotate(90.7 46.6 192.3) scale(24.18162 71.36021)"/><ellipse fill="#65717c" cx="41" cy="95" rx="21" ry="44"/><ellipse fill="#041635" cx="106" rx="24" ry="31"/><path fill="#958b8b" d="M125.8 100.3L82.4 58.1l8-32.3 52.2 11.7z"/><ellipse fill="#002374" cx="201" cy="44" rx="30" ry="15"/><path fill="#120e05" d="M103.5 88.5L86 60.6l28.7 88.9 6-50z"/><path fill="#fefff5" d="M254-16L177 6l-36-22z"/><ellipse fill="#596278" cx="85" cy="154" rx="33" ry="33"/></g></svg>