<svg xmlns="http://www.w3.org/2000/svg" viewBox="0 0 200 133"><filter id="b"><feGaussianBlur stdDeviation="12" /></filter><path fill="#848a8b" d="M0 0h200v133H0z"/><g filter="url(#b)" transform="translate(.5 .5)" fill-opacity=".5"><ellipse rx="1" ry="1" transform="rotate(-91.9 103.8 13.8) scale(78.82461 36.83561)"/><ellipse fill="#fffbfa" rx="1" ry="1" transform="rotate(6.1 -31.5 333.7) scale(34.04311 181.67493)"/><ellipse rx="1" ry="1" transform="matrix(24.89172 8.13143 -14.8389 45.42445 79.2 111.7)"/><ellipse fill="#e2edf3" rx="1" ry="1" transform="matrix(55.6444 -1.11848 .33622 16.72696 92.6 14)"/><ellipse fill="#162825" rx="1" ry="1" transform="matrix(1.23807 107.91745 -4.06549 .04664 20.2 32.7)"/><ellipse fill="#232928" rx="1" ry="1" transform="rotate(-92.5 112.8 -42.2) scale(105.29261 11.70989)"/><ellipse fill="#fffffc" cx="178" cy="44" rx="7" ry="90"/><path fill="#1f4b5b" d="M102 0h11v63h-11z"/><ellipse fill="#fef9f9" cx="43" cy="41" rx="17" ry="84"/><ellipse fill="#262015" cx="75" cy="67" rx="15" ry="35"/><path fill="#a9e4e6" d="M146.6 22.8l3.7 106-15 .4-3.6-106z"/><path fill="#ffffde" d="M71.5 75.5l5-35.6 4 .6-5 35.6z"/><path fill="#191314" d="M81 14h11v99H81z"/><ellipse fill="#3f5670" cx="124" cy="109" rx="12" ry="80"/><ellipse fill="#b83406" cx="118" cy="71" rx="18" ry="9"/><ellipse fill="#303738" rx="1" ry="1" transform="matrix(.47316 86.2417 -2.9534 .0162 193 123.4)"/><ellipse fill="#fff" cx="122" cy="4" rx="9" ry="28"/><ellipse fill="#eadfda" cx="183" cy="132" rx="7" ry="62"/><path fill="#fff" d="M74.1 11l7.5 20.7L62 39l-7.5-20.6z"/><ellipse fill="#6e7775" cx="20" cy="120" rx="8" ry="154"/><path fill="#090b0f" d="M71.7 35.2l-9 11.5L60.3 81l18.2 67z"/><path fill="#000e18" d="M193 109h7v24h-7z"/></g></svg>