<svg xmlns="http://www.w3.org/2000/svg" viewBox="0 0 700 467"><filter id="b"><feGaussianBlur stdDeviation="12" /></filter><path fill="#786569" d="M0 0h700v464H0z"/><g filter="url(#b)" transform="translate(1.4 1.4) scale(2.73438)" fill-opacity=".5"><ellipse fill="#ff2c00" cx="181" cy="169" rx="81" ry="81"/><ellipse fill="#bbf8f4" rx="1" ry="1" transform="matrix(-42.97634 -48.06642 64.74097 -57.8851 229 40.5)"/><ellipse fill="#00348e" rx="1" ry="1" transform="matrix(52.27315 12.70167 -22.96375 94.50625 29.2 65.2)"/><ellipse fill="#490700" cx="145" cy="50" rx="37" ry="37"/><path fill="#f90000" d="M120-16l30 173-48-12z"/><ellipse fill="#fff" cx="255" cy="93" rx="104" ry="16"/><ellipse rx="1" ry="1" transform="matrix(-13.03723 -.42331 2.3101 -71.14677 143.3 52.8)"/><ellipse fill="#ff1600" rx="1" ry="1" transform="matrix(73.23786 24.07938 -10.829 32.93661 243.6 147.4)"/><ellipse fill="#cdeee3" cx="96" cy="35" rx="12" ry="126"/><ellipse fill="#004c7d" rx="1" ry="1" transform="matrix(40.71453 11.52105 -27.43618 96.9574 40.1 60.7)"/><ellipse fill="#377575" rx="1" ry="1" transform="matrix(-38.82219 12.60591 -10.4731 -32.25382 206.6 45.8)"/><path fill="#fff" d="M43 141h23v25H43z"/><path fill="#9ad7e7" d="M157 77l2-93 39 57z"/><ellipse fill="#003d98" rx="1" ry="1" transform="matrix(-8.59462 -5.77333 10.68806 -15.91104 166.4 159.8)"/><ellipse fill="#000e07" cx="64" cy="119" rx="14" ry="26"/><ellipse fill="#fff" cx="255" cy="33" rx="11" ry="76"/><ellipse fill="#e91b00" cx="164" cy="126" rx="62" ry="20"/><path fill="#86ffff" d="M118 155.5v21h-18v-21z"/><ellipse fill="#ff1a00" rx="1" ry="1" transform="rotate(5.5 -358.6 1284.9) scale(10.6236 78.80378)"/><ellipse fill="#0073af" cx="18" cy="103" rx="36" ry="54"/><ellipse fill="#002a60" rx="1" ry="1" transform="matrix(-50.93449 17.63765 -14.27997 -41.23808 36.2 25)"/><ellipse fill="#3c3800" cx="191" cy="74" rx="55" ry="4"/></g></svg>