<svg xmlns="http://www.w3.org/2000/svg" viewBox="0 0 700 467"><filter id="b"><feGaussianBlur stdDeviation="12" /></filter><path fill="#354851" d="M0 0h700v464H0z"/><g filter="url(#b)" transform="translate(1.4 1.4) scale(2.73438)" fill-opacity=".5"><ellipse fill="#88a3a6" cx="102" cy="46" rx="42" ry="53"/><ellipse rx="1" ry="1" transform="matrix(-14.52242 -30.9225 64.36918 -30.2303 209.6 11.5)"/><path fill="#ebcfc7" d="M51 90l2 43 30 6z"/><path fill="#8dc7e6" d="M214 45h35v27h-35z"/><ellipse fill="#3e90c6" cx="223" cy="127" rx="21" ry="21"/><ellipse fill="#040000" cx="238" cy="87" rx="93" ry="10"/><ellipse fill="#0163a7" cx="148" cy="167" rx="63" ry="39"/><path fill="#1a0f06" d="M-9 106L3-16l50 201z"/><path d="M-16.9 154.3l18-17.4 27.8 28.8-18 17.4z"/><path fill="#000006" d="M92.7 143.2L86 197.8l-40.7-5 6.7-54.6z"/><ellipse fill="#88b4ee" cx="162" cy="106" rx="39" ry="4"/><ellipse fill="#435e65" cx="49" cy="53" rx="40" ry="40"/><ellipse cx="253" cy="122" rx="6" ry="224"/><ellipse fill="#0b0200" rx="1" ry="1" transform="matrix(-2.05026 5.76662 -28.83387 -10.25154 196.9 118.6)"/><path d="M194.2 175l-6 5.2-58.4-67.2 6-5.2z"/><ellipse fill="#95745e" cx="19" cy="119" rx="18" ry="11"/><path fill="#050100" d="M213 151h35v19h-35z"/><path d="M196 23h17v44h-17z"/><ellipse fill="#919992" rx="1" ry="1" transform="rotate(-133.9 78.5 8) scale(25.75736 15.81765)"/><ellipse fill="#c4c8ce" rx="1" ry="1" transform="matrix(-20.25654 -23.17637 1.9603 -1.71333 16 146.4)"/><path fill="#86402a" d="M37.5 123.6l-6.4-27.8 15.4-3 63.2-1.9z"/><path fill="#100f1c" d="M92.6 94.7l46.6 20.7-9.8 22-46.6-20.8z"/></g></svg>