<svg xmlns="http://www.w3.org/2000/svg" viewBox="0 0 200 133"><filter id="b"><feGaussianBlur stdDeviation="12" /></filter><path fill="#36201b" d="M0 0h200v133H0z"/><g filter="url(#b)" transform="translate(.5 .5)" fill-opacity=".5"><ellipse fill="#ec4277" rx="1" ry="1" transform="matrix(12.34247 -2.6911 6.79747 31.17603 159 42.5)"/><ellipse fill="#be667d" rx="1" ry="1" transform="matrix(-9.59737 -.03916 .18075 -44.30044 45.7 56)"/><ellipse fill="#7d6040" rx="1" ry="1" transform="matrix(-50.94142 29.90842 -7.93588 -13.51676 114 19.7)"/><ellipse fill="#030201" rx="1" ry="1" transform="matrix(-1.68971 25.055 -88.348 -5.9582 141.5 91.4)"/><ellipse fill="#000001" cx="6" cy="79" rx="21" ry="102"/><path fill="#e42b71" d="M151 29h21v43h-21z"/><ellipse fill="#524a25" rx="1" ry="1" transform="matrix(-42.93175 31.48357 -6.95668 -9.4863 172.9 6.6)"/><path fill="#b96983" d="M48 47l-1 44-19 15z"/><ellipse fill="#070706" rx="1" ry="1" transform="matrix(-16.01383 -13.15448 20.28132 -24.68981 127.2 61.8)"/><path fill="#936567" d="M23 37l14 20 34-15z"/><ellipse fill="#9b8b62" cx="62" cy="13" rx="14" ry="5"/><ellipse fill="#040000" rx="1" ry="1" transform="matrix(-8.25512 -24.83002 38.46716 -12.789 199 81)"/><ellipse fill="#311302" cx="127" cy="120" rx="102" ry="24"/><path fill="#9b8187" d="M25.8 95l-2-4.6L48.1 79l2 4.6z"/><ellipse fill="#1d1c10" rx="1" ry="1" transform="rotate(13.9 -16.4 831.7) scale(54.19984 10.65159)"/><path fill="#001011" d="M50 20h23v18H50z"/><path fill="#be9c5e" d="M91 9h7v13h-7z"/><path fill="#fffffe" d="M69 15.7l-.9-3.9 6.9-1.5.9 3.9z"/><path d="M30.7 116.7l11.8-22 8.8 4.6-11.8 22z"/><ellipse fill="#1f2223" rx="1" ry="1" transform="matrix(20.31547 24.3753 -11.85335 9.87911 74.2 73.2)"/><path fill="#b50b42" d="M62 57H33l7 17z"/><path fill="#a76172" d="M35.7 40.8l51.4 6.1-17.7-8.2L88.2 55z"/></g></svg>