<svg xmlns="http://www.w3.org/2000/svg" viewBox="0 0 200 133"><filter id="b"><feGaussianBlur stdDeviation="12" /></filter><path fill="#a3867f" d="M0 0h200v133H0z"/><g filter="url(#b)" transform="translate(.5 .5)" fill-opacity=".5"><ellipse rx="1" ry="1" transform="matrix(13.56512 -22.93737 25.3063 14.9661 127 74.6)"/><ellipse fill="#ffffeb" rx="1" ry="1" transform="rotate(-84.3 26.3 -21) scale(29.2706 101.20525)"/><ellipse fill="#7d0000" cx="47" cy="66" rx="19" ry="34"/><ellipse fill="#380a3d" cx="196" cy="132" rx="22" ry="95"/><path fill="#faffff" d="M177.7 51.9l3.5 39.8-27 2.4-3.4-39.8z"/><ellipse fill="#541000" cx="159" cy="15" rx="17" ry="15"/><ellipse fill="#edd9c7" cy="66" rx="28" ry="47"/><path fill="#fff" d="M68 47h16v33H68z"/><ellipse fill="#74523b" rx="1" ry="1" transform="matrix(-42.1805 -15.51707 9.31379 -25.31794 116.9 114.7)"/><path fill="#000109" d="M49.4 86.8L34 91.2l-7.4-26L42 60.8z"/><ellipse fill="#f00000" cx="59" cy="72" rx="7" ry="26"/><ellipse fill="#ffedd7" rx="1" ry="1" transform="matrix(-5.65365 35.9072 -23.01802 -3.62422 67.2 13.3)"/><ellipse cx="116" cy="75" rx="10" ry="27"/><path fill="#d2deff" d="M14.6 118.3L6.9 82l20.5-4.4 7.7 36.2z"/><ellipse fill="#ecdccd" cx="133" cy="19" rx="8" ry="53"/><path fill="#c6cde6" d="M50 113l-13 1 11-49z"/><ellipse cx="199" cy="78" rx="11" ry="20"/><path fill="#ff5ed0" d="M179 45h10v29h-10z"/><path fill="#debb97" d="M125.9 120l-1.9 27-43.9-3 1.9-27z"/><path fill="#2652a3" d="M76 78h13v40H76z"/><ellipse fill="#ffdcbf" rx="1" ry="1" transform="matrix(-17.65129 26.66819 -13.48688 -8.92677 23.5 21.4)"/><path fill="#ba9d96" d="M68 35l33-12 6 75z"/></g></svg>