<svg xmlns="http://www.w3.org/2000/svg" viewBox="0 0 700 467"><filter id="b"><feGaussianBlur stdDeviation="12" /></filter><path fill="#3a4269" d="M0 0h700v464H0z"/><g filter="url(#b)" transform="translate(1.4 1.4) scale(2.73438)" fill-opacity=".5"><ellipse fill="#97ff81" rx="1" ry="1" transform="matrix(54.72827 -9.15559 7.43272 44.42967 159.4 22.7)"/><ellipse fill="#00000a" rx="1" ry="1" transform="matrix(-11.75947 -180.7261 39.02929 -2.53955 20.2 114.3)"/><path fill="#ffe4ff" d="M64 136h109v15H64z"/><ellipse fill="#3d3ff8" rx="1" ry="1" transform="matrix(27.58075 2.0254 -4.8818 66.47745 228.3 32.3)"/><ellipse fill="#f3c6e4" cx="130" cy="101" rx="17" ry="20"/><ellipse cx="169" cy="160" rx="253" ry="7"/><path fill="#fffeff" d="M210 133h22v16h-22z"/><path fill="#ffdfff" d="M111.3 136.4l17.4 17.3-55.1-31.5 20-5.3z"/><ellipse fill="#b1e675" cx="158" cy="23" rx="31" ry="31"/><ellipse fill="#1d0073" cx="183" cy="104" rx="37" ry="37"/><ellipse fill="#000049" rx="1" ry="1" transform="matrix(-28.41802 45.37763 -30.56658 -19.1425 35.3 33.8)"/><ellipse fill="#0d9854" cx="96" cy="34" rx="23" ry="36"/><path fill="#be85b9" d="M59 100L48 70l27-11z"/><path fill="#52919f" d="M180-16h43l9 156z"/><ellipse fill="#0e006d" rx="1" ry="1" transform="rotate(-168.4 132.6 37) scale(24.50688 53.09891)"/><path fill="#160032" d="M45.7 113.4L85 62.9l25.2 19.7L71 133.1z"/><path d="M169 140h40v25h-40z"/><path fill="#00b782" d="M158 45h42v24h-42z"/><ellipse fill="#00001e" rx="1" ry="1" transform="rotate(-26.4 203.3 13) scale(28.0552 73.6944)"/><path fill="#560e36" d="M132 101l-17 24 43 9z"/><ellipse fill="#c9b9d1" rx="1" ry="1" transform="matrix(7.49402 -25.44785 7.31678 2.15468 124.8 93.4)"/><ellipse fill="#2d03e6" rx="1" ry="1" transform="matrix(-22.04359 3.55125 -6.66879 -41.39496 249.3 28)"/></g></svg>