<svg xmlns="http://www.w3.org/2000/svg" viewBox="0 0 800 533"><filter id="b"><feGaussianBlur stdDeviation="12" /></filter><path fill="#414652" d="M0 0h800v531H0z"/><g filter="url(#b)" transform="translate(1.6 1.6) scale(3.125)" fill-opacity=".5"><ellipse fill="#abf7ff" rx="1" ry="1" transform="rotate(100 38.9 83.1) scale(29.04693 32.37564)"/><ellipse fill="#ffb996" rx="1" ry="1" transform="matrix(-.74607 -17.44055 34.60635 -1.48038 227.9 131)"/><path fill="#e1be98" d="M45 113h65v35H45z"/><ellipse fill="red" rx="1" ry="1" transform="matrix(-26.55215 1.624 -.68142 -11.14106 12.1 135)"/><ellipse fill="#002867" cx="25" cy="45" rx="55" ry="60"/><ellipse fill="#002e71" rx="1" ry="1" transform="matrix(1.73355 -66.2017 43.5913 1.14148 218.1 36.3)"/><ellipse fill="#880600" rx="1" ry="1" transform="rotate(-83.6 121.6 -21) scale(16.27543 36.37036)"/><path fill="#0a0000" d="M81.4 102.8l-17.3 39.5-80.1 22.3 104.4-1.5z"/><ellipse fill="#fff" cx="56" cy="138" rx="10" ry="10"/><ellipse fill="#0e0000" rx="1" ry="1" transform="matrix(-2.39285 -16.00952 31.51592 -4.7105 191.6 164)"/><ellipse fill="#0066a7" cx="9" cy="18" rx="44" ry="34"/><ellipse fill="#0a6ead" rx="1" ry="1" transform="matrix(-39.16703 5.14906 -4.03001 -30.65482 244 19.4)"/><ellipse fill="#000c1d" cx="193" cy="85" rx="21" ry="30"/><path fill="#fff" d="M116 117l-21 30-10-18z"/><path fill="#61bcff" d="M94 52h65v34H94z"/><ellipse fill="#1e1e1a" rx="1" ry="1" transform="matrix(16.17144 -20.6242 36.29283 28.45721 60 93)"/><path fill="#060000" d="M0 146h56v24H0z"/><ellipse fill="#1c0800" rx="1" ry="1" transform="matrix(38.40323 9.575 -2.59562 10.41047 153.4 123)"/><ellipse fill="#fff4c2" rx="1" ry="1" transform="matrix(3.41598 -2.45184 9.1175 12.70278 104.9 115)"/><ellipse fill="#8c5120" rx="1" ry="1" transform="matrix(16.80155 -2.96654 5.76591 32.65628 125.7 147.7)"/><path fill="#a90000" d="M159 46l-2 59 11-23z"/><ellipse fill="#fffff3" cx="127" cy="39" rx="16" ry="6"/></g></svg>