<svg xmlns="http://www.w3.org/2000/svg" viewBox="0 0 700 467"><filter id="b"><feGaussianBlur stdDeviation="12" /></filter><path fill="#b26a3c" d="M0 0h700v464H0z"/><g filter="url(#b)" transform="translate(1.4 1.4) scale(2.73438)" fill-opacity=".5"><ellipse cx="169" cy="128" rx="163" ry="15"/><ellipse fill="#ffd758" rx="1" ry="1" transform="rotate(-162.3 105.7 -5.3) scale(52.86738 74.21293)"/><ellipse fill="#fff" cx="28" cy="107" rx="33" ry="16"/><ellipse fill="#fdff19" rx="1" ry="1" transform="matrix(25.4493 -14.2391 23.32698 41.6919 25.2 40.8)"/><ellipse fill="#032253" cx="95" cy="98" rx="37" ry="37"/><path fill="#fff" d="M86 59.4l-2.1 23.9L54 80.6l2.1-23.9z"/><ellipse fill="#960000" rx="1" ry="1" transform="matrix(18.3171 -13.4061 23.85534 32.5942 83.5 34.4)"/><ellipse fill="#befbff" rx="1" ry="1" transform="rotate(27.9 -5.3 83.1) scale(20.71602 16.64299)"/><path fill="#d7bacd" d="M130 70h88v42h-88z"/><path fill="#000006" d="M222 132.9l-2-55 22-.8 2 55z"/><ellipse fill="#f37100" rx="1" ry="1" transform="matrix(22.47513 -16.29919 27.87937 38.44317 152.7 38.7)"/><ellipse fill="#00000e" cx="195" cy="114" rx="12" ry="22"/><ellipse fill="#f63030" cx="196" cy="163" rx="255" ry="30"/><path fill="#fff" d="M93 84h14v33H93z"/><ellipse fill="#000004" rx="1" ry="1" transform="matrix(2.1603 29.88063 -9.26144 .66958 160.1 123.6)"/><ellipse fill="#e72d00" cy="76" rx="35" ry="22"/><path fill="#000023" d="M129 153l-24-45 25-60z"/><ellipse fill="#ff9387" rx="1" ry="1" transform="matrix(-.0254 12.50935 -52.39503 -.1064 222.6 157.6)"/><path fill="#fff" d="M131 82h19v34h-19z"/><ellipse fill="#140000" cx="81" cy="118" rx="14" ry="29"/><path fill="#6f0000" d="M87.6 54.2l-30 .6-1.2-67 30-.6z"/><ellipse fill="#ec9d00" rx="1" ry="1" transform="rotate(121.1 57.9 42.4) scale(23.43981 42.03565)"/></g></svg>