<svg xmlns="http://www.w3.org/2000/svg" viewBox="0 0 700 467"><filter id="b"><feGaussianBlur stdDeviation="12" /></filter><path fill="#6a696d" d="M0 0h700v464H0z"/><g filter="url(#b)" transform="translate(1.4 1.4) scale(2.73438)" fill-opacity=".5"><ellipse fill="#d2e4e4" rx="1" ry="1" transform="matrix(-240.55386 -27.83303 2.60666 -22.52867 143.7 15.3)"/><ellipse fill="#2f1a16" cx="204" cy="107" rx="52" ry="52"/><ellipse fill="#ff0c00" rx="1" ry="1" transform="rotate(54.5 -92.8 56) scale(36.30903 23.1044)"/><ellipse fill="#000c2e" cx="77" cy="129" rx="68" ry="19"/><ellipse fill="#000a12" cx="163" cy="144" rx="19" ry="21"/><path fill="#003868" d="M39 133l120-29 2-59z"/><ellipse fill="#ff3200" rx="1" ry="1" transform="matrix(25.61258 12.76996 -8.39643 16.84063 9.7 103.5)"/><ellipse fill="#7b96a8" cx="46" cy="65" rx="31" ry="42"/><ellipse fill="#feffff" cx="141" cy="8" rx="59" ry="7"/><path fill="#9fb6b2" d="M164 38h61v24h-61z"/><path fill="#fd1b00" d="M182 126l37.5-35.8-8 32.6-26.4 10z"/><path fill="#fff" d="M127 44h11v24h-11z"/><ellipse fill="#85abb6" rx="1" ry="1" transform="matrix(-6.91305 2.57094 -14.16955 -38.10078 116.8 101.4)"/><ellipse fill="#191e19" cx="157" cy="13" rx="5" ry="99"/><path fill="#150c00" d="M134.7 29.5l-12.2 39.1-14.3-7.6-17.6 4z"/><ellipse fill="#091320" rx="1" ry="1" transform="rotate(85.9 -19 117.4) scale(33.17417 17.20352)"/><path fill="#002e31" d="M219 74h37v43h-37z"/><ellipse fill="#5f5c47" rx="1" ry="1" transform="rotate(69 95.8 202.3) scale(26.10016 24.2031)"/><ellipse fill="#1b353c" cx="77" cy="40" rx="6" ry="51"/><ellipse fill="#001a50" cx="41" cy="61" rx="10" ry="19"/><path fill="#eeddd1" d="M41 82h19v25H41z"/><ellipse fill="#78797f" rx="1" ry="1" transform="matrix(72.4279 -34.08198 10.1232 21.5129 248.3 144.6)"/></g></svg>