<svg xmlns="http://www.w3.org/2000/svg" viewBox="0 0 700 467"><filter id="b"><feGaussianBlur stdDeviation="12" /></filter><path fill="#706a59" d="M0 0h700v464H0z"/><g filter="url(#b)" transform="translate(1.4 1.4) scale(2.73438)" fill-opacity=".5"><ellipse fill="#ecffff" rx="1" ry="1" transform="matrix(11.8421 -.02227 .47952 254.99955 245.5 97)"/><ellipse fill="#e9b769" cx="130" cy="28" rx="109" ry="36"/><ellipse fill="#06172b" cx="115" cy="111" rx="124" ry="46"/><ellipse fill="#fbd2a5" rx="1" ry="1" transform="matrix(-13.93967 -.07299 .2554 -48.77901 178.2 158.5)"/><path fill="#fff" d="M81.8 54.7l7-1 7.4 53.6-7 1z"/><path fill="#000428" d="M243 85l-30-53-18 153z"/><ellipse fill="#faf9fd" rx="1" ry="1" transform="matrix(5.33905 34.48814 -5.7757 .89413 52.7 77.7)"/><path fill="#f6cf8c" d="M97 185l17-98 17 90z"/><path d="M124.7 137.1l34.6-5.4 10 63.2-34.6 5.4z"/><ellipse fill="#d5af73" cx="9" cy="146" rx="17" ry="41"/><path fill="#00091f" d="M194 106h31v64h-31z"/><ellipse fill="#effeff" rx="1" ry="1" transform="matrix(7.62893 -43.49053 12.03793 2.11164 244.5 131.1)"/><ellipse fill="#dde5a2" rx="1" ry="1" transform="matrix(10.61411 -51.5437 25.24519 5.1986 243.2 0)"/><ellipse fill="#00000f" rx="1" ry="1" transform="matrix(-5.90307 12.60307 -79.63397 -37.29924 22.9 98.8)"/><ellipse fill="#634712" rx="1" ry="1" transform="matrix(25.3163 -8.3075 5.43 16.54741 193.6 20.4)"/><ellipse fill="#6b3e00" rx="1" ry="1" transform="matrix(4.63779 20.57949 -25.82529 5.81998 18.4 18.6)"/><ellipse fill="#007de7" rx="1" ry="1" transform="matrix(.96823 -14.97255 7.73097 .49994 251.6 52.4)"/><ellipse fill="#cfbbab" rx="1" ry="1" transform="matrix(-2.81388 8.8668 -59.31284 -18.82295 115.2 50.9)"/><path fill="#fff" d="M131 126h19v9h-19z"/><path fill="#d7b099" d="M-14 41.3l52-4.5 2 23.9-51.8 4.5z"/><path fill="#000010" d="M30 138h77v15H30z"/><path fill="#fdffff" d="M158 20h8v47h-8z"/></g></svg>