<svg xmlns="http://www.w3.org/2000/svg" viewBox="0 0 700 467"><filter id="b"><feGaussianBlur stdDeviation="12" /></filter><path fill="#747d7d" d="M0 0h700v464H0z"/><g filter="url(#b)" transform="translate(1.4 1.4) scale(2.73438)" fill-opacity=".5"><ellipse fill="#fffaf7" cx="89" cy="27" rx="67" ry="44"/><ellipse rx="1" ry="1" transform="matrix(-26.11546 2.5962 -7.11337 -71.55427 115.9 120.3)"/><ellipse fill="#e7e3df" rx="1" ry="1" transform="matrix(14.14407 75.64293 -30.63775 5.7288 59 122.5)"/><ellipse rx="1" ry="1" transform="matrix(.1502 129.00522 -13.97602 .01627 11.6 88.6)"/><ellipse fill="#040602" cx="255" cy="37" rx="22" ry="193"/><ellipse fill="#fff" rx="1" ry="1" transform="rotate(-3.5 1073.1 -3221) scale(7.24877 96.07578)"/><ellipse fill="#0a334d" rx="1" ry="1" transform="matrix(-20.02022 .90868 -5.43585 -119.76332 177.1 108.7)"/><ellipse fill="#020000" rx="1" ry="1" transform="matrix(20.39739 5.70728 -15.91352 56.8737 122.8 127.6)"/><ellipse fill="#2d423c" cx="61" cy="59" rx="6" ry="128"/><path fill="#fff" d="M158 171.4l-15 .2-1-51 15-.2z"/><ellipse fill="#070808" cx="98" cy="94" rx="17" ry="27"/><path fill="#fffffe" d="M74 110h21v26H74z"/><ellipse fill="#f3f2f4" cx="102" cy="15" rx="40" ry="22"/><path fill="#dfdbdb" d="M27 0h23v170H27z"/><path fill="#000604" d="M146.3 10.7L143.8-16l-2 64.7 1.5 47.9z"/><ellipse fill="#801c00" cx="153" cy="109" rx="25" ry="12"/><path fill="#f0e4de" d="M111 53l43-6 3 36z"/><path fill="#7b6861" d="M125.7 92.3l-19-2.8-7.2-51 18-4.5z"/><path fill="#edeaeb" d="M67-14l38 73-31 18z"/><path fill="#e9e3e2" d="M72 74l29 103-29-8z"/><ellipse fill="#70aaaa" cx="221" cy="92" rx="13" ry="162"/><ellipse cx="3" cy="152" rx="7" ry="57"/></g></svg>