<svg xmlns="http://www.w3.org/2000/svg" viewBox="0 0 700 467"><filter id="b"><feGaussianBlur stdDeviation="12" /></filter><path fill="#5a4163" d="M0 0h700v464H0z"/><g filter="url(#b)" transform="translate(1.4 1.4) scale(2.73438)" fill-opacity=".5"><ellipse cx="242" cy="29" rx="44" ry="147"/><ellipse fill="#c4bb9f" cx="78" cy="83" rx="149" ry="21"/><path fill="#ffeaff" d="M133 185l91-40-225 11z"/><ellipse fill="#7e13eb" rx="1" ry="1" transform="rotate(-176.8 60 8.4) scale(68.6908 29.38299)"/><ellipse fill="#00001b" rx="1" ry="1" transform="matrix(49.34124 27.82388 -17.50754 31.04684 12.7 15.7)"/><path fill="#d2ffff" d="M136 69l-68 50 15-58z"/><ellipse fill="#000100" rx="1" ry="1" transform="rotate(-175.2 14.2 65.7) scale(56.96656 16.60613)"/><path fill="#f4ddf2" d="M173 46l-27 7 27-65z"/><ellipse fill="#d5d9c0" rx="1" ry="1" transform="matrix(-14.50962 -33.45438 10.75664 -4.6653 103.6 111.4)"/><ellipse cx="255" cy="27" rx="36" ry="152"/><path d="M120 81h16v77h-16z"/><ellipse fill="#00005e" rx="1" ry="1" transform="matrix(38.43956 -11.09059 3.70224 12.83181 102.5 51)"/><ellipse rx="1" ry="1" transform="matrix(-9.2763 65.34058 -4.93199 -.70019 22.8 83.3)"/><path fill="#0f0700" d="M188.1 148.7l-26.5-2.6-2 4.1 7.6-100.7z"/><path fill="#ffd1a0" d="M210 58h12v41h-12z"/><ellipse fill="#ecb8ff" rx="1" ry="1" transform="matrix(-54.02227 -8.94333 1.39984 -8.45575 197.7 169)"/><path d="M55.8 37.3L47 107.8l-8.9-1.1L47 36.2z"/><path fill="#d45eff" d="M64 51L74-2l31 25z"/><ellipse fill="#e6a6ff" rx="1" ry="1" transform="rotate(85 -51.7 127.5) scale(18.84434 52.93508)"/><ellipse cy="50" rx="7" ry="50"/><path fill="#002" d="M154 93h-19l15-48z"/><path fill="#ffffdf" d="M58 56l10-5.6-20 64.8 5.1-52z"/></g></svg>