<svg xmlns="http://www.w3.org/2000/svg" viewBox="0 0 200 133"><filter id="b"><feGaussianBlur stdDeviation="12" /></filter><path fill="#67686d" d="M0 0h200v133H0z"/><g filter="url(#b)" transform="translate(.5 .5)" fill-opacity=".5"><ellipse fill="#fff" rx="1" ry="1" transform="matrix(-4.373 36.13658 -138.05617 -16.70663 81.9 7)"/><ellipse rx="1" ry="1" transform="rotate(4.7 -972.3 1695.4) scale(196.31144 33.98231)"/><ellipse rx="1" ry="1" transform="matrix(-20.39852 .23087 -.52092 -46.02538 134 120.8)"/><ellipse fill="#fff" cx="74" cy="4" rx="65" ry="19"/><ellipse fill="#ffffea" cx="164" cy="9" rx="35" ry="35"/><ellipse fill="#9095a3" cx="170" cy="109" rx="14" ry="30"/><path fill="#fbffff" d="M12 0h41v42H12z"/><ellipse fill="#818da5" rx="1" ry="1" transform="rotate(-99.1 92 19) scale(14.56475 30.63016)"/><ellipse fill="#232732" cx="2" cy="47" rx="9" ry="199"/><ellipse fill="#07040d" cx="63" cy="73" rx="142" ry="17"/><path fill="#191c28" d="M-16 148l90-68-6-58z"/><ellipse fill="#1f0000" cx="193" cy="33" rx="6" ry="6"/><ellipse fill="#4a3b35" rx="1" ry="1" transform="matrix(-18.76704 -10.53157 10.82288 -19.28614 132.2 58.2)"/><ellipse fill="#fff" rx="1" ry="1" transform="matrix(-.8255 13.12108 -33.85027 -2.12968 82 8.4)"/><path d="M177.1 110.2l12.8-5.7 13 29.3-12.8 5.7z"/><path fill="#fef5e7" d="M173.9-16l-23.6 72.1 13-5.6 2.2-22.2z"/><path fill="#000002" d="M176 44h14v19h-14z"/><ellipse cx="132" cy="119" rx="19" ry="19"/><path fill="#a3a5af" d="M172 82h11v29h-11z"/><ellipse fill="#fff" rx="1" ry="1" transform="rotate(-10.6 98 -1038) scale(17.71476 28.09011)"/><path fill="#8e807e" d="M3 39h113v7H3z"/><path fill="#707c96" d="M66 148L56 89l-14 14z"/></g></svg>