<svg xmlns="http://www.w3.org/2000/svg" viewBox="0 0 700 467"><filter id="b"><feGaussianBlur stdDeviation="12" /></filter><path fill="#4f555a" d="M0 0h700v464H0z"/><g filter="url(#b)" transform="translate(1.4 1.4) scale(2.73438)" fill-opacity=".5"><ellipse fill="#afc6dd" rx="1" ry="1" transform="rotate(102.7 -22.5 49.5) scale(59.75018 78.83938)"/><ellipse cx="181" cy="146" rx="79" ry="79"/><ellipse fill="#95a5b7" cx="45" cy="12" rx="120" ry="16"/><path fill="#edf2fc" d="M112.7 61.7l11.5-21.1-5.5 78.8-12.3.6z"/><ellipse rx="1" ry="1" transform="rotate(-171.5 83.8 42.8) scale(41.87375 24.02374)"/><path fill="#433e39" d="M228.8 4.6L272 97.1l-60.7 28.3L168 32.9z"/><path fill="#ffd1a1" d="M160 45h15v21h-15z"/><ellipse fill="#505e65" rx="1" ry="1" transform="matrix(40.30613 -26.1933 8.58986 13.21804 75.5 60.2)"/><ellipse fill="#25231d" rx="1" ry="1" transform="matrix(71.01935 -12.52263 3.10134 17.58856 26.6 160.7)"/><path fill="ivory" d="M162.8 121.7l3.8-3.2 8.6 9.8-3.8 3.2z"/><ellipse fill="#cfdae5" rx="1" ry="1" transform="rotate(142.9 -1 6) scale(63.62795 11.37592)"/><ellipse fill="#a1adbe" cx="11" cy="118" rx="81" ry="25"/><path fill="#606770" d="M201 74h46v42h-46z"/><path fill="#020e16" d="M91.9 122.4l20-96-3.8 96.3-9.7 1.2z"/><ellipse cx="187" cy="116" rx="15" ry="44"/><ellipse fill="#38332d" rx="1" ry="1" transform="matrix(-22.5965 -1.54047 5.2844 -77.51433 246.4 30.8)"/><ellipse fill="#e38652" rx="1" ry="1" transform="matrix(-3.10047 14.02197 -6.91925 -1.52995 118.7 54.5)"/><ellipse fill="#63727c" cx="55" cy="45" rx="46" ry="46"/><path fill="#000514" d="M101 115l96 23-18 36z"/><path fill="#212016" d="M178 29h29v41h-29z"/><path fill="#000309" d="M195 101l-80 8 13-44z"/><ellipse fill="#a0b1c9" cx="53" cy="47" rx="14" ry="14"/></g></svg>