<svg xmlns="http://www.w3.org/2000/svg" viewBox="0 0 700 467"><filter id="b"><feGaussianBlur stdDeviation="12" /></filter><path fill="#3b4c7f" d="M0 0h700v464H0z"/><g filter="url(#b)" transform="translate(1.4 1.4) scale(2.73438)" fill-opacity=".5"><ellipse fill="#ff1200" rx="1" ry="1" transform="rotate(5.8 -1245.1 1103.3) scale(29.82749 37.13942)"/><ellipse fill="#3780f7" cx="153" cy="26" rx="120" ry="53"/><ellipse fill="#0b0f00" cx="204" cy="143" rx="82" ry="30"/><ellipse fill="#000d00" cx="42" cy="152" rx="50" ry="50"/><ellipse fill="#7390d5" cx="56" cy="73" rx="88" ry="25"/><ellipse fill="#a88044" rx="1" ry="1" transform="rotate(6.9 -633.5 1547.5) scale(17.18883 43.97875)"/><ellipse fill="#cef7ff" cx="139" cy="4" rx="23" ry="23"/><path fill="#fff" d="M36 83h22v17H36z"/><ellipse fill="#0541cc" cx="13" cy="83" rx="24" ry="34"/><ellipse fill="#002e8f" cx="32" cy="24" rx="46" ry="27"/><ellipse fill="#ff334d" cx="105" cy="110" rx="21" ry="21"/><path d="M158.1 177.7l-82.9-4.4.7-13 82.9 4.4z"/><ellipse fill="#d7ffff" rx="1" ry="1" transform="rotate(30.6 -225 285) scale(5.89346 8.55442)"/><ellipse fill="#0044c0" cx="227" cy="23" rx="69" ry="29"/><ellipse fill="#000300" rx="1" ry="1" transform="rotate(-86.6 195.2 -41) scale(38.46762 18.7882)"/><ellipse fill="#363f2e" rx="1" ry="1" transform="rotate(97.2 49 141) scale(46.47505 14.83078)"/><ellipse fill="#053bc3" cx="240" cy="94" rx="28" ry="25"/><path fill="#eeb395" d="M176.6 33.8l19.8 26-25.4 46.5 7.1-36.5z"/><path fill="#e1ad51" d="M244 133h8v37h-8z"/><path fill="#d0a865" d="M64 57.4l-23 5 10.6 25.2 17.4-9z"/><path fill="#102124" d="M144 74h28v96h-28z"/><ellipse fill="#0e48d0" rx="1" ry="1" transform="rotate(-126.4 91.6 13.5) scale(29.8375 11.96727)"/></g></svg>