<svg xmlns="http://www.w3.org/2000/svg" viewBox="0 0 200 133"><filter id="b"><feGaussianBlur stdDeviation="12" /></filter><path fill="#747776" d="M0 0h200v133H0z"/><g filter="url(#b)" transform="translate(.5 .5)" fill-opacity=".5"><ellipse fill="#000009" cx="92" cy="56" rx="34" ry="34"/><ellipse fill="#d1d3d2" cx="89" cy="132" rx="199" ry="18"/><ellipse fill="#05070d" cx="81" cy="83" rx="15" ry="40"/><path fill="#b9f4ff" d="M52 16.8l-56.2-10L0-16.7l56.2 10z"/><ellipse fill="#373c33" rx="1" ry="1" transform="matrix(-42.49292 -10.59467 7.2624 -29.1279 0 41.8)"/><ellipse fill="#a9aea9" cx="51" cy="85" rx="19" ry="34"/><ellipse fill="#b2b7a6" rx="1" ry="1" transform="matrix(18.1119 16.36092 -14.49947 16.05122 184.8 76.2)"/><path fill="#b9cad2" d="M97 70h11v30H97z"/><path fill="#090c1a" d="M128 111.5l-5.8-2.3L103.8 40l13.2 87.4z"/><ellipse fill="#4a4c4b" cx="94" cy="113" rx="30" ry="13"/><ellipse fill="#848b8a" cx="126" cy="17" rx="38" ry="34"/><ellipse fill="#46432e" cx="192" cy="20" rx="11" ry="39"/><path fill="#c5c6bb" d="M114.1 84.5l61.5 18.1-.3-8.7-42.3 11z"/><path fill="#c8b7a2" d="M150.1 51.5l-2-19.7-25.4 43.7-2.4 26.3z"/><ellipse fill="#b6b9b8" cx="175" cy="121" rx="49" ry="13"/><path fill="#c1c2ba" d="M-3.7 143.6l-.6-32 72-1.2.6 32z"/><ellipse fill="#262a2d" cx="154" cy="71" rx="5" ry="25"/><path fill="#95a1ad" d="M38-16l9 63 59-57z"/><ellipse fill="#cbd0c7" cx="39" cy="92" rx="32" ry="5"/><ellipse fill="#b2af97" cx="171" cy="48" rx="14" ry="14"/><ellipse fill="#a5a9a6" rx="1" ry="1" transform="matrix(38.43984 41.68138 -6.2977 5.80794 147.4 12.1)"/><path fill="#504e42" d="M0 97h50v14H0z"/></g></svg>