<svg xmlns="http://www.w3.org/2000/svg" viewBox="0 0 200 133"><filter id="b"><feGaussianBlur stdDeviation="12" /></filter><path fill="#6c6970" d="M0 0h200v133H0z"/><g filter="url(#b)" transform="translate(.5 .5)" fill-opacity=".5"><ellipse fill="#d0e1e3" cx="151" rx="157" ry="32"/><ellipse fill="#1a1b2b" rx="1" ry="1" transform="rotate(-100.5 103.7 -9.5) scale(27.29303 108.66224)"/><ellipse fill="#ff0600" rx="1" ry="1" transform="matrix(25.50242 19.5687 -10.90525 14.212 0 75.6)"/><path fill="#4ca5df" d="M115.8 66.3l2.3 27-27.9 2.4-2.3-27z"/><path fill="#dd2500" d="M174 83l-11-29-19 53z"/><ellipse fill="#9db9e3" rx="1" ry="1" transform="rotate(-54.6 90.3 1.9) scale(9.50934 22.48089)"/><path fill="#e9f2f8" d="M179 10L68 11l11-27z"/><ellipse fill="#2f444f" rx="1" ry="1" transform="rotate(-53.3 101.4 -81.2) scale(21.8124 26.42873)"/><path fill="#fbe8f3" d="M107.2 54.6l-9-.2.6-33 9 .2z"/><ellipse fill="#ff3100" rx="1" ry="1" transform="matrix(-15.1381 9.56831 -15.0791 -23.85676 0 74.8)"/><path fill="#001741" d="M83 75l13 37-112-6z"/><ellipse fill="#0f0000" cx="134" cy="103" rx="8" ry="28"/><path fill="#a4b3b6" d="M129 44l46 2 2-62z"/><ellipse fill="#848c90" cx="29" cy="24" rx="107" ry="12"/><path fill="#172429" d="M120 30l9-36-10-10z"/><ellipse fill="#1e3744" rx="1" ry="1" transform="matrix(-3.94904 .1103 -1.50278 -53.8002 61.4 30.7)"/><ellipse fill="#0c3d3a" rx="1" ry="1" transform="matrix(-27.86257 -9.57654 8.13081 -23.65628 196.1 68)"/><ellipse fill="#9b8d8b" cx="100" cy="124" rx="15" ry="23"/><ellipse fill="#6c7470" cx="194" cy="12" rx="17" ry="48"/><ellipse fill="#3c292c" cx="138" cy="72" rx="23" ry="26"/><ellipse fill="#81797c" rx="1" ry="1" transform="matrix(-33.95126 -15.18317 7.37242 -16.48556 50 127.6)"/><path fill="#0015d7" d="M70 95L28 81l18 16z"/></g></svg>