<svg xmlns="http://www.w3.org/2000/svg" viewBox="0 0 200 133"><filter id="b"><feGaussianBlur stdDeviation="12" /></filter><path fill="#635b51" d="M0 0h200v133H0z"/><g filter="url(#b)" transform="translate(.5 .5)" fill-opacity=".5"><path fill="#fff" d="M93.6 75.6l-99.8-5.3 2.6-49.9 99.8 5.3z"/><ellipse cx="136" cy="129" rx="69" ry="69"/><ellipse fill="#effcff" cy="73" rx="33" ry="33"/><ellipse cx="48" cy="87" rx="19" ry="34"/><ellipse rx="1" ry="1" transform="matrix(73.00032 8.13508 -1.86725 16.7558 59.3 123.7)"/><path fill="#fff9d0" d="M80 80h29v12H80z"/><ellipse fill="#bc9b6c" rx="1" ry="1" transform="rotate(15.8 26.7 543.3) scale(44.99229 53.64758)"/><ellipse cx="179" cy="62" rx="19" ry="19"/><ellipse fill="#210f00" rx="1" ry="1" transform="matrix(45.03036 -7.90837 3.63198 20.68052 34.7 0)"/><ellipse fill="#fff" rx="1" ry="1" transform="matrix(34.53099 -14.44463 3.37302 8.06346 26.2 41)"/><path fill="#fdffff" d="M160 16.7L168.3 3l13.7 8.3-8.3 13.7z"/><ellipse fill="#ffeee3" cx="149" cy="60" rx="8" ry="10"/><ellipse fill="#b7a397" rx="1" ry="1" transform="matrix(-44.85713 -25.69498 3.26114 -5.69315 65.6 65.6)"/><path fill="#ffffb9" d="M108 11h13v16h-13z"/><path fill="#f2f0f1" d="M29 104l1-19-46 19z"/><path fill="#fff" d="M164 39l9-4-4 16z"/><ellipse fill="#00000b" cx="121" cy="62" rx="19" ry="7"/><ellipse fill="#f3fbff" cx="12" cy="32" rx="48" ry="11"/><ellipse fill="#141414" cx="118" cy="132" rx="158" ry="36"/><path fill="#fffff8" d="M93 97l12-8-13-4z"/><ellipse fill="#95a2b0" rx="1" ry="1" transform="matrix(8.68298 30.28116 -16.00078 4.58815 72.2 55.3)"/><ellipse fill="#ea9526" cx="76" cy="20" rx="24" ry="5"/></g></svg>