<svg xmlns="http://www.w3.org/2000/svg" viewBox="0 0 700 467"><filter id="b"><feGaussianBlur stdDeviation="12" /></filter><path fill="#3f55a9" d="M0 0h700v464H0z"/><g filter="url(#b)" transform="translate(1.4 1.4) scale(2.73438)" fill-opacity=".5"><ellipse fill="#002400" cx="13" cy="98" rx="25" ry="255"/><ellipse fill="#4f74ff" rx="1" ry="1" transform="matrix(142.50722 40.58222 -17.96934 63.10054 182 41.3)"/><ellipse fill="#0a0018" rx="1" ry="1" transform="matrix(21.87351 35.47525 -27.75254 17.1118 47.4 159.5)"/><ellipse fill="#00db00" rx="1" ry="1" transform="matrix(-9.15432 -10.5675 30.55696 -26.47062 8.6 54.2)"/><ellipse fill="#fff3ef" rx="1" ry="1" transform="rotate(-160.9 89.7 57) scale(11.06768 22.52552)"/><path fill="#c5ea32" d="M217 0h10v65h-10z"/><ellipse fill="#5a293c" rx="1" ry="1" transform="matrix(19.34913 18.2337 -77.69405 82.44692 227 169.2)"/><path fill="#230c5f" d="M135 67L37 97l110 13z"/><ellipse fill="#a97df7" rx="1" ry="1" transform="matrix(-7.58237 -30.86987 12.11143 -2.97485 195.9 129.2)"/><ellipse fill="#7d68f3" rx="1" ry="1" transform="matrix(7.6137 2.11517 -9.0985 32.75072 6 135.7)"/><ellipse fill="#311e28" cx="107" cy="169" rx="27" ry="27"/><path fill="#d3fff7" d="M129 32h18v29h-18z"/><ellipse fill="#1289f5" rx="1" ry="1" transform="rotate(-154.7 38.5 .9) scale(22.60706 68.93355)"/><ellipse fill="#bbc487" cx="236" cy="113" rx="8" ry="35"/><ellipse fill="#50a555" cx="129" cy="136" rx="12" ry="62"/><ellipse fill="#ebf785" rx="1" ry="1" transform="rotate(81.5 76.4 162.4) scale(67.98122 3.95269)"/><path fill="#9875e1" d="M73 114h35v37H73z"/><ellipse fill="#4827f8" rx="1" ry="1" transform="rotate(146.6 89.2 30.3) scale(20.23945 70.48659)"/><path fill="#000039" d="M191 122.7l-16.6 23.8-7.4-5.2 16.6-23.8z"/><path fill="#000023" d="M0 71h37v35H0z"/><path fill="#002358" d="M229 26.8l-5.5-.3-7-42.5 23 15.5z"/><ellipse fill="#272b00" rx="1" ry="1" transform="matrix(.07617 36.97691 -22.37676 .0461 2.8 8)"/></g></svg>