<svg xmlns="http://www.w3.org/2000/svg" viewBox="0 0 200 133"><filter id="b"><feGaussianBlur stdDeviation="12" /></filter><path fill="#79776e" d="M0 0h200v133H0z"/><g filter="url(#b)" transform="translate(.5 .5)" fill-opacity=".5"><ellipse fill="#f7ffff" cx="161" cy="2" rx="61" ry="30"/><ellipse fill="#fff" cx="108" cy="85" rx="36" ry="22"/><ellipse fill="#0e0601" rx="1" ry="1" transform="matrix(-13.87752 30.34717 -38.1822 -17.46041 35 3.2)"/><ellipse fill="#141107" rx="1" ry="1" transform="matrix(-17.6135 5.00815 -10.67363 -37.53883 68 98)"/><ellipse fill="#b6b8bb" rx="1" ry="1" transform="matrix(23.26363 -17.5304 14.36254 19.05974 112.5 35.8)"/><ellipse fill="#fff" cx="102" cy="79" rx="33" ry="11"/><ellipse fill="#100c08" cx="151" cy="67" rx="14" ry="25"/><ellipse fill="#4e493b" rx="1" ry="1" transform="rotate(-88.6 113.7 3.4) scale(27.29504 66.1876)"/><path fill="#00061a" d="M51 33l3 98 25-70z"/><ellipse fill="#fff" cx="106" cy="105" rx="17" ry="5"/><path fill="#483f2c" d="M13.5 97l-24.7-4L2.5 7l24.7 4z"/><path fill="#dad6d2" d="M122-16h40l17 97z"/><path fill="#d8d5c7" d="M68 102l14 2 1-43z"/><ellipse fill="#434023" rx="1" ry="1" transform="matrix(-44.76292 6.64278 -1.15368 -7.77418 8 118.9)"/><ellipse fill="#010000" cx="117" cy="113" rx="38" ry="4"/><ellipse fill="#868a93" cx="97" cy="4" rx="25" ry="21"/><ellipse fill="#cee3ff" rx="1" ry="1" transform="rotate(-5.5 133.5 -1656) scale(30.50885 18.98493)"/><path fill="#d9d7ca" d="M134 78h11v28h-11z"/><path fill="#2c2012" d="M135 38h10v36h-10z"/><path fill="#928d82" d="M16 92l55-54-46-11z"/><path fill="#013693" d="M62 32.4l-1.9 28.8L45 47.4l5.6-24z"/><path fill="#95724c" d="M164 22l-2 17-54 6z"/></g></svg>