<svg xmlns="http://www.w3.org/2000/svg" viewBox="0 0 200 133"><filter id="b"><feGaussianBlur stdDeviation="12" /></filter><path fill="#615d5b" d="M0 0h200v133H0z"/><g filter="url(#b)" transform="translate(.5 .5)" fill-opacity=".5"><ellipse fill="#d4ffff" cx="120" cy="95" rx="41" ry="41"/><ellipse fill="#060000" cx="5" cy="59" rx="65" ry="50"/><ellipse fill="#2c0000" rx="1" ry="1" transform="matrix(.24692 17.46446 -107.36375 1.51795 130.9 10.4)"/><ellipse fill="#eaffff" cx="49" cy="111" rx="14" ry="14"/><ellipse fill="#c0f5ff" cx="102" cy="118" rx="22" ry="48"/><ellipse cx="23" cy="127" rx="17" ry="23"/><ellipse fill="#e8d6d3" rx="1" ry="1" transform="matrix(-1.36014 -31.74054 15.15517 -.64943 145.4 70.9)"/><ellipse fill="#89b4e0" cx="84" cy="61" rx="17" ry="36"/><path fill="#c1c3c0" d="M172 29h28v38h-28z"/><ellipse fill="#35280c" rx="1" ry="1" transform="matrix(-18.3741 -.8968 2.47487 -50.706 171.7 112.3)"/><path fill="#ffceae" d="M37.8 48l5 .8L32.2 116l-5-.8z"/><path fill="#ffe0b1" d="M48.5 45.5L53.6 13l10 1.6L58.3 47z"/><ellipse fill="#ff9200" cx="23" cy="2" rx="15" ry="15"/><ellipse cx="52" cy="84" rx="16" ry="16"/><path fill="#170000" d="M164 11l2 35L96 5z"/><path fill="#102034" d="M76 72l19 42-26-4z"/><ellipse fill="#194c88" cx="107" cy="61" rx="20" ry="13"/><ellipse fill="#df6400" cx="159" rx="15" ry="15"/><path d="M65 4h19v24H65z"/><path fill="#aee1f0" d="M11 147.8l-8.8 1-5.3-42.6 9-1z"/><path d="M59 59l17-3-10-31z"/><path fill="#b5d8eb" d="M29.1 96.8L46.6 99l18.4.6-9 48.4z"/></g></svg>