<svg xmlns="http://www.w3.org/2000/svg" viewBox="0 0 700 467"><filter id="b"><feGaussianBlur stdDeviation="12" /></filter><path fill="#5b5c4e" d="M0 0h700v464H0z"/><g filter="url(#b)" transform="translate(1.4 1.4) scale(2.73438)" fill-opacity=".5"><ellipse fill="#e6ffff" cx="55" cy="156" rx="59" ry="59"/><ellipse fill="#fff9fb" rx="1" ry="1" transform="matrix(26.57272 5.01655 -10.16347 53.83607 180.2 79.2)"/><ellipse rx="1" ry="1" transform="matrix(239.2495 -37.84155 5.38716 34.05978 71.1 21.3)"/><ellipse rx="1" ry="1" transform="matrix(62.09134 -99.36691 29.5269 18.45045 248.5 68)"/><ellipse fill="#f9ffff" cx="246" cy="164" rx="18" ry="21"/><path fill="#a9edff" d="M77 55L12 185h83z"/><ellipse fill="#030500" rx="1" ry="1" transform="matrix(14.2184 42.74868 -94.11435 31.30285 56.3 30.4)"/><ellipse fill="#ac8e4d" cx="132" cy="141" rx="39" ry="39"/><ellipse fill="#543800" rx="1" ry="1" transform="matrix(9.06507 -21.46003 30.35782 12.82365 122.3 86.8)"/><ellipse fill="#e9c7b2" cx="187" cy="45" rx="17" ry="32"/><ellipse rx="1" ry="1" transform="rotate(88.7 102.4 142.3) scale(103.85959 25.99716)"/><ellipse fill="#efe8f4" cx="168" cy="125" rx="11" ry="23"/><ellipse fill="#bbbd9c" cx="129" cy="52" rx="18" ry="12"/><ellipse fill="#925007" rx="1" ry="1" transform="matrix(51.99294 13.15624 -2.76353 10.92135 192.8 28.4)"/><ellipse fill="#f8ffff" rx="1" ry="1" transform="matrix(-4.05892 10.46529 -28.81776 -11.17686 57.3 131)"/><ellipse fill="#426f78" rx="1" ry="1" transform="matrix(-5.24557 39.52059 -9.44037 -1.25302 74.8 37.3)"/><ellipse fill="#88853b" rx="1" ry="1" transform="matrix(9.80913 -39.54132 23.61056 5.85714 3 121.3)"/><path fill="#003bcf" d="M32 104l42-14-4-25z"/><ellipse cx="98" cy="58" rx="15" ry="29"/><ellipse fill="#0b0405" cx="188" cy="82" rx="13" ry="5"/><ellipse fill="#817030" rx="1" ry="1" transform="matrix(-17.23092 -18.73202 9.54421 -8.77938 96 108.9)"/><path fill="#fff" d="M83 84l3-10-17-4z"/></g></svg>