<svg xmlns="http://www.w3.org/2000/svg" viewBox="0 0 700 467"><filter id="b"><feGaussianBlur stdDeviation="12" /></filter><path fill="#343859" d="M0 0h700v464H0z"/><g filter="url(#b)" transform="translate(1.4 1.4) scale(2.73438)" fill-opacity=".5"><ellipse fill="#9e94c1" cx="133" cy="102" rx="77" ry="65"/><ellipse rx="1" ry="1" transform="rotate(-6 160.7 -994.7) scale(164.79226 32.43946)"/><ellipse rx="1" ry="1" transform="rotate(-88 133.7 2.4) scale(9.6421 31.21227)"/><path fill="#f0ffeb" d="M209 129l28-16-13 47z"/><ellipse fill="#000051" cx="240" cy="75" rx="33" ry="51"/><ellipse fill="#000027" cy="72" rx="59" ry="62"/><path fill="#c5d4cc" d="M30 167.4l-5.6-56 16.1-.5 9 37.3z"/><ellipse fill="#0b2cee" rx="1" ry="1" transform="matrix(-19.7775 -10.91777 11.92986 -21.6109 242.4 35.9)"/><ellipse rx="1" ry="1" transform="rotate(11 -645.4 1397) scale(23.22579 88.06673)"/><ellipse fill="#8d76c8" rx="1" ry="1" transform="rotate(137.4 31 52) scale(38.01873 22.82596)"/><ellipse fill="#0b2ea9" cx="131" cy="74" rx="36" ry="23"/><ellipse cx="1" cy="146" rx="17" ry="104"/><ellipse fill="#ced5db" cx="124" cy="157" rx="33" ry="9"/><ellipse fill="#00000c" rx="1" ry="1" transform="rotate(-97 97.8 -66.3) scale(23.28947 47.85956)"/><ellipse cx="67" cy="169" rx="30" ry="19"/><ellipse fill="#d2c6b0" cx="163" cy="120" rx="14" ry="25"/><path d="M170 152h42v18h-42zm-98-29L46 67l-6 52z"/><ellipse fill="#00000e" cx="124" cy="19" rx="100" ry="21"/><path fill="#d3e1be" d="M93.8 150.3l-19-27.8 18.4-10.3 8.9 12.8z"/><path d="M210 35h13v83h-13z"/><path fill="#7464a2" d="M181.4 143.2L144.8 39l36.5 4 34.9 19z"/></g></svg>