<svg xmlns="http://www.w3.org/2000/svg" viewBox="0 0 700 467"><filter id="b"><feGaussianBlur stdDeviation="12" /></filter><path fill="#77776c" d="M0 0h700v464H0z"/><g filter="url(#b)" transform="translate(1.4 1.4) scale(2.73438)" fill-opacity=".5"><ellipse fill="#faffff" rx="1" ry="1" transform="matrix(7.12027 39.32037 -60.77215 11.00483 205.4 3.5)"/><ellipse fill="#fff" cx="137" cy="102" rx="45" ry="20"/><ellipse fill="#0d0800" cx="49" cy="6" rx="47" ry="47"/><ellipse cx="76" cy="120" rx="14" ry="62"/><ellipse fill="#151300" cx="128" cy="148" rx="87" ry="9"/><path fill="#080600" d="M175 58h34v41h-34z"/><ellipse fill="#c4c8c2" cx="139" cy="52" rx="31" ry="25"/><ellipse fill="#fff" rx="1" ry="1" transform="matrix(-.7812 12.4169 -43.69866 -2.74929 141.9 103.4)"/><ellipse fill="#e2e4e2" rx="1" ry="1" transform="rotate(79.7 -6.8 152.3) scale(9.78039 20.102)"/><ellipse fill="#00060c" cx="83" cy="85" rx="18" ry="18"/><path d="M210.6 120l-24-1 .8-25 24 1z"/><ellipse fill="#47432d" cx="2" cy="27" rx="22" ry="155"/><ellipse fill="#d3eaff" rx="1" ry="1" transform="matrix(-2.41917 -24.00682 34.95675 -3.5226 198.9 9.8)"/><ellipse fill="#464940" rx="1" ry="1" transform="matrix(.52112 -7.09627 30.32283 2.22677 145.8 121)"/><ellipse fill="#efcd98" cx="210" cy="53" rx="11" ry="19"/><ellipse fill="#3d3c2e" cx="185" cy="162" rx="29" ry="29"/><ellipse fill="#a89b75" rx="1" ry="1" transform="rotate(15.9 -181.8 188.3) scale(14.72632 22.60696)"/><ellipse fill="#0042b4" rx="1" ry="1" transform="matrix(-.36117 18.68378 -8.98889 -.17376 68.3 50.3)"/><ellipse fill="#9ba2a6" rx="1" ry="1" transform="rotate(-160.6 79.4 -2) scale(64.46076 14.76136)"/><ellipse fill="#6c674a" cx="59" cy="162" rx="142" ry="15"/><path d="M62 111h23v33H62zm22.7-84l-5.8 15-33.6-13 5.8-15z"/></g></svg>