<svg xmlns="http://www.w3.org/2000/svg" viewBox="0 0 200 133"><filter id="b"><feGaussianBlur stdDeviation="12" /></filter><path fill="#51555c" d="M0 0h200v133H0z"/><g filter="url(#b)" transform="translate(.5 .5)" fill-opacity=".5"><ellipse fill="#acc1d8" cx="25" cy="65" rx="50" ry="50"/><ellipse cx="142" cy="117" rx="62" ry="62"/><ellipse fill="#94a2b6" cx="31" cy="4" rx="99" ry="18"/><path fill="#f0e4e8" d="M86 35h9v59h-9z"/><ellipse fill="#000003" cx="124" cy="82" rx="33" ry="33"/><ellipse fill="#403a38" cx="188" cy="46" rx="48" ry="48"/><path fill="#2c2722" d="M0 110h75v23H0z"/><path fill="#ffbb90" d="M141.7 51l-14.4 4.3-5-16.2 14.4-4.4z"/><ellipse fill="#9caabc" cy="85" rx="74" ry="28"/><ellipse fill="#5b6874" rx="1" ry="1" transform="matrix(-1.3607 32.68915 -35.8638 -1.49284 41.4 36.6)"/><ellipse fill="#5e6169" cx="172" cy="70" rx="18" ry="24"/><path fill="#c7d3e3" d="M28.5-.9L-13.7-2-16 39 16.4 8.9z"/><ellipse fill="#6b5952" rx="1" ry="1" transform="matrix(.19944 5.43903 -15.30598 .56124 124 98.8)"/><path fill="#1b1818" d="M82 85l-4-31 13-29z"/><ellipse fill="#000520" cx="79" cy="88" rx="4" ry="23"/><ellipse fill="#818793" cx="105" cy="18" rx="37" ry="5"/><ellipse fill="#221e17" rx="1" ry="1" transform="matrix(-11.26241 -2.98458 5.41712 -20.4417 150.3 39.8)"/><ellipse fill="#8296b1" cx="76" cy="28" rx="4" ry="41"/><path fill="#00000a" d="M162 103l-35 45 23-96z"/><path fill="#eab7a8" d="M127.2 100.7l13.6 1.3-15.2-13.8 3.5 3.5z"/><path fill="#000d1e" d="M75.6 88.5l71.2 59.5-36.6-94.3 7.1 48.4z"/><path fill="#9ad1fd" d="M92.2 51.3l5.8.6L86.4 99l-6-9.3z"/></g></svg>