<svg xmlns="http://www.w3.org/2000/svg" viewBox="0 0 700 467"><filter id="b"><feGaussianBlur stdDeviation="12" /></filter><path fill="#94816e" d="M0 0h700v464H0z"/><g filter="url(#b)" transform="translate(1.4 1.4) scale(2.73438)" fill-opacity=".5"><ellipse fill="#f3ffff" rx="1" ry="1" transform="matrix(6.85627 -57.80406 207.78584 24.64594 120.3 .6)"/><ellipse fill="#471400" rx="1" ry="1" transform="rotate(.1 -86253.5 81107) scale(113.07476 56.43092)"/><ellipse fill="#755a37" rx="1" ry="1" transform="matrix(29.13025 10.25838 -13.20088 37.48594 191.1 51.2)"/><path fill="#fff" d="M237 0h19v94h-19z"/><ellipse fill="#d07400" rx="1" ry="1" transform="rotate(175.6 59.5 86.9) scale(116.1157 37.92205)"/><ellipse fill="#00154f" rx="1" ry="1" transform="matrix(47.7488 -8.96833 4.13332 22.00643 126.3 106.9)"/><ellipse fill="#fff" cx="4" cy="141" rx="11" ry="32"/><ellipse fill="#013450" rx="1" ry="1" transform="matrix(19.11898 14.88372 -13.45796 17.28751 30.8 104.4)"/><ellipse fill="#cce4ff" rx="1" ry="1" transform="matrix(37.5449 15.2454 -17.73937 43.68679 125.4 13.7)"/><ellipse fill="#b68b09" rx="1" ry="1" transform="rotate(-29.1 78.5 -57.7) scale(13.90729 22.74435)"/><ellipse fill="#ddc2a0" cx="255" cy="142" rx="27" ry="38"/><ellipse fill="#4455c2" cx="152" cy="88" rx="21" ry="21"/><path d="M0 38h18v29H0z"/><ellipse fill="#3d2109" rx="1" ry="1" transform="rotate(172.1 87.2 66.5) scale(52.37696 24.21635)"/><path fill="#f4ffff" d="M12.4 90l-24 1-.8-25 24-1z"/><ellipse fill="#fff" cx="168" cy="4" rx="250" ry="7"/><path fill="#8e6d3d" d="M61 21h26v67H61z"/><path fill="#c0c6e9" d="M94 11h15v80H94z"/><ellipse fill="#4f2b09" cx="211" cy="48" rx="6" ry="27"/><path fill="#452100" d="M130 140L16 126l118-26z"/><ellipse fill="#fbffff" cx="5" cy="6" rx="16" ry="32"/><ellipse fill="#000009" cx="72" cy="93" rx="6" ry="21"/></g></svg>