<svg xmlns="http://www.w3.org/2000/svg" viewBox="0 0 700 467"><filter id="b"><feGaussianBlur stdDeviation="12" /></filter><path fill="#3c1e72" d="M0 0h700v464H0z"/><g filter="url(#b)" transform="translate(1.4 1.4) scale(2.73438)" fill-opacity=".5"><ellipse fill="#7c36fa" cy="124" rx="78" ry="93"/><ellipse fill="#040b00" cx="118" cy="114" rx="45" ry="45"/><ellipse fill="#683fbd" cx="176" cy="141" rx="32" ry="32"/><ellipse fill="#0b0b0f" rx="1" ry="1" transform="matrix(-99.1473 -8.84866 2.27204 -25.45772 177.6 10)"/><ellipse cx="165" cy="97" rx="48" ry="12"/><ellipse fill="#c1444e" rx="1" ry="1" transform="rotate(33.4 -52 244) scale(14.28142 25.64294)"/><ellipse fill="#ee5b7b" rx="1" ry="1" transform="matrix(10.28712 -14.55424 10.12544 7.15679 213.8 73.5)"/><ellipse fill="#020b07" cx="118" cy="154" rx="30" ry="53"/><ellipse fill="#010000" rx="1" ry="1" transform="matrix(11.81126 6.84675 -10.60316 18.29141 107.5 52)"/><ellipse fill="#4b26aa" cx="69" cy="64" rx="26" ry="25"/><path fill="#da5194" d="M106 62l27-10 30 24z"/><ellipse fill="#7229e0" rx="1" ry="1" transform="matrix(-20.72852 -37.15436 26.37279 -14.71345 11.2 96)"/><ellipse fill="#3c1c90" rx="1" ry="1" transform="matrix(12.72276 -72.7687 28.68959 5.01604 233 128.7)"/><ellipse fill="#a4769e" cx="131" cy="164" rx="4" ry="30"/><ellipse rx="1" ry="1" transform="matrix(1.7391 7.5933 -29.75734 6.81534 183.6 101.4)"/><ellipse fill="#5c35a9" cx="155" cy="120" rx="13" ry="13"/><ellipse fill="#402092" cx="177" cy="63" rx="28" ry="28"/><path fill="#838377" d="M124 107l-18-16 17-7z"/><ellipse fill="#3c1c99" rx="1" ry="1" transform="rotate(-58.3 29.7 3.2) scale(15.88872 99.49475)"/><path fill="#000808" d="M128.7 99.6l-2.8-33.2 26 17.5-12.7 64.3z"/><ellipse fill="#6634bd" cx="74" cy="102" rx="4" ry="47"/><ellipse fill="#392282" cx="11" cy="169" rx="49" ry="16"/></g></svg>