<svg xmlns="http://www.w3.org/2000/svg" viewBox="0 0 641 195"><filter id="b"><feGaussianBlur stdDeviation="12" /></filter><path fill="#694d74" d="M0 0h641v192H0z"/><g filter="url(#b)" transform="translate(1.3 1.3) scale(2.5039)" fill-opacity=".5"><ellipse cx="20" cy="28" rx="40" ry="40"/><ellipse rx="1" ry="1" transform="rotate(95.6 108 116) scale(29.65318 36.31377)"/><ellipse fill="#c4b5f1" rx="1" ry="1" transform="matrix(20.70541 39.74324 -79.15625 41.23878 109.3 58.6)"/><ellipse fill="#ffd6fb" rx="1" ry="1" transform="matrix(-.21696 12.67189 -108.54079 -1.85839 143.1 75.2)"/><ellipse cx="20" cy="10" rx="37" ry="37"/><ellipse cx="235" cy="16" rx="37" ry="31"/><path fill="#ff43ff" d="M58 4h29v24H58z"/><ellipse fill="#1eb4d4" rx="1" ry="1" transform="matrix(33.175 -10.57597 9.51831 29.8573 135.5 15.4)"/><path fill="#ff16ff" d="M174 2h26v22h-26z"/><path d="M259 39l12-49-131 57z"/><ellipse fill="#3d042a" rx="1" ry="1" transform="matrix(2.55538 -9.20712 31.06594 8.62217 75.9 42.7)"/><path fill="#ffc7be" d="M53.6 76.6l-28-31.8 56.8 2.5L91.8 81z"/><path fill="#00072d" d="M91.4-4.3l15 1.8-3.8 30.8-15-1.8z"/><ellipse fill="#050000" cx="253" cy="31" rx="10" ry="87"/><ellipse rx="1" ry="1" transform="matrix(42.27739 16.48327 -8.1452 20.89138 26.6 20.7)"/><ellipse fill="#9c20ba" rx="1" ry="1" transform="rotate(-25.4 161.8 -357.8) scale(33.61254 7.54957)"/><path fill="#270039" d="M131 65l-11.6 2.3 1.1-14.7 9.4-3.7z"/><ellipse fill="#671438" cx="191" cy="58" rx="55" ry="5"/><path d="M214 73h12v4h-12z"/><ellipse cx="126" rx="148" ry="2"/><path fill="#fa4bed" d="M61 3h27v30H61z"/><ellipse fill="#fd90d2" rx="1" ry="1" transform="matrix(57.05106 -5.05673 1.20996 13.65099 162 73.6)"/></g></svg>