<svg xmlns="http://www.w3.org/2000/svg" viewBox="0 0 641 195"><filter id="b"><feGaussianBlur stdDeviation="12" /></filter><path fill="#3d4353" d="M0 0h641v192H0z"/><g filter="url(#b)" transform="translate(1.3 1.3) scale(2.5039)" fill-opacity=".5"><ellipse fill="#98fcff" cx="126" cy="10" rx="32" ry="32"/><ellipse fill="#802e15" rx="1" ry="1" transform="matrix(-1.93147 15.9608 -94.07362 -11.38416 159.6 59.1)"/><ellipse fill="#001537" rx="1" ry="1" transform="matrix(13.76997 -28.13582 39.95064 19.55227 38.4 26)"/><ellipse fill="#001546" cx="209" cy="22" rx="37" ry="37"/><ellipse fill="#74beff" cx="119" cy="22" rx="27" ry="19"/><path fill="#ffffe5" d="M128 92H86l17-33z"/><path fill="#faf6da" d="M218.3 73.7l4.5-10 32.9 14.6-4.5 10z"/><ellipse fill="#dd8e4c" rx="1" ry="1" transform="matrix(35.2558 -6.9085 1.54686 7.89402 40.5 76)"/><path fill="#bff3ff" d="M161 56l23 10-15 6z"/><path fill="#94ccff" d="M159 25L99 3l53 39z"/><path fill="#8c0000" d="M102 40h63v20h-63z"/><ellipse fill="#ae0000" cx="161" cy="16" rx="4" ry="36"/><ellipse fill="#992f18" cx="86" cy="24" rx="8" ry="26"/><ellipse fill="#001e47" cx="48" cy="15" rx="29" ry="35"/><ellipse fill="#002e58" cx="215" cy="18" rx="32" ry="32"/><ellipse fill="#5e3326" cx="133" rx="49" ry="5"/><ellipse fill="#000909" rx="1" ry="1" transform="matrix(-5.07436 2.17878 -9.92451 -23.1141 185.5 63.4)"/><ellipse fill="#001240" rx="1" ry="1" transform="matrix(-3.71832 41.23005 -7.31887 -.66005 4 55.8)"/><path fill="#2f1400" d="M112 63l9 29 47-32z"/><path fill="#b27567" d="M201 58h25v19h-25z"/><path fill="#47adff" d="M113.5 24.6l-1 16-18-1.2 1-16z"/><path fill="#48a2f8" d="M157 6l-33 28 32 6z"/></g></svg>