<svg xmlns="http://www.w3.org/2000/svg" viewBox="0 0 200 133"><filter id="b"><feGaussianBlur stdDeviation="12" /></filter><path fill="#0b1d07" d="M0 0h200v133H0z"/><g filter="url(#b)" transform="translate(.5 .5)" fill-opacity=".5"><ellipse fill="#d8ffc6" rx="1" ry="1" transform="rotate(-19.2 233.3 -347.9) scale(16.20808 15.90029)"/><path fill="#b9ffa5" d="M108 64l35 8-15-38z"/><ellipse fill="#63e919" cx="43" cy="2" rx="24" ry="8"/><path fill="#a9cca7" d="M144 46.9l71.8 27.6L214 79l-71.8-27.6z"/><path fill="#007200" d="M156 73l-29 25-21-32z"/><path fill="#fff" d="M87 60l-1 5-15-9z"/><path fill="#002300" d="M148-16L118 4l23 66z"/><ellipse rx="1" ry="1" transform="rotate(4.8 -186.8 2386) scale(54.83473 41.53695)"/><path fill="#fff" d="M123 55h11v15h-11z"/><ellipse rx="1" ry="1" transform="matrix(38.60947 1.95587 -1.45555 28.7329 34.6 43.5)"/><ellipse cx="155" cy="124" rx="77" ry="34"/><path fill="#39a905" d="M108 38h21v19h-21z"/><ellipse fill="#070000" cx="30" cy="122" rx="40" ry="40"/><path d="M195 17h5v116h-5z"/><path fill="#319c29" d="M73.3 27l40-18.6 14.4-22.3L101 13.4z"/><path fill="#000800" d="M107 13l15.2 32.6L85 63 69.8 30.4z"/><ellipse fill="#003100" cx="113" cy="70" rx="21" ry="2"/><path fill="#86f574" d="M105.5 56.8l13.4-6.8 3.6 7.2-13.4 6.8z"/><path fill="#8db574" d="M190.4 67.6L146 54l-6.8-8.1-2.2-4z"/><path fill="#179710" d="M99 85l-17-6 32-5z"/><path fill="#fff" d="M115 65h24v3h-24z"/><ellipse fill="#00a000" rx="1" ry="1" transform="matrix(1.5571 -5.84275 9.847 2.62423 14.1 0)"/></g></svg>