<svg xmlns="http://www.w3.org/2000/svg" viewBox="0 0 700 467"><filter id="b"><feGaussianBlur stdDeviation="12" /></filter><path fill="#3f3929" d="M0 0h700v464H0z"/><g filter="url(#b)" transform="translate(1.4 1.4) scale(2.73438)" fill-opacity=".5"><ellipse fill="#e4c788" cx="124" cy="23" rx="119" ry="27"/><ellipse fill="#000001" rx="1" ry="1" transform="rotate(-98.3 150.4 -20.9) scale(55.1335 200.82514)"/><ellipse fill="#ae926b" rx="1" ry="1" transform="rotate(-118.6 40.1 4.3) scale(23.54691 29.94503)"/><ellipse fill="#06080f" rx="1" ry="1" transform="matrix(-64.20345 -64.4783 15.00311 -14.93916 35 90.7)"/><ellipse fill="#ae926a" cx="147" cy="46" rx="23" ry="27"/><path fill="#fff" d="M2 95h5v23H2z"/><ellipse fill="#070709" rx="1" ry="1" transform="matrix(-10.37688 34.47374 -18.30211 -5.50909 96.7 77.6)"/><path fill="#241f14" d="M137 41h76v13h-76z"/><ellipse fill="#725d2e" cx="27" cy="2" rx="38" ry="38"/><ellipse fill="#7a673b" cx="245" cy="16" rx="50" ry="26"/><path fill="#c6b68b" d="M83.7 42l-.4-24 113-2 .4 24z"/><ellipse fill="#000107" cx="242" cy="123" rx="46" ry="46"/><path fill="#5b6f53" d="M148 161h74v9h-74z"/><path fill="#ffe266" d="M121 61h4v39h-4z"/><path fill="#fff" d="M60.5 38.7L71 41.9l-3.5 11.4L57 50.1z"/><path fill="#938462" d="M190.4 49.2l-3-13.5 11.5 48.8 5.5-40.4z"/><path fill="#fff0e5" d="M128 46h14v9h-14z"/><path fill="#1b1a11" d="M99 42h29v10H99z"/><path fill="#f1eff0" d="M9 90l-10 17 6 18z"/><path fill="#b7967b" d="M157.6 74.9l4 13.1 10-26.3-10.4-2.4z"/><ellipse fill="#000200" cx="48" cy="159" rx="38" ry="38"/><ellipse fill="#1b1712" cx="57" cy="97" rx="14" ry="39"/></g></svg>