<svg xmlns="http://www.w3.org/2000/svg" viewBox="0 0 700 467"><filter id="b"><feGaussianBlur stdDeviation="12" /></filter><path fill="#5b5c64" d="M0 0h700v464H0z"/><g filter="url(#b)" transform="translate(1.4 1.4) scale(2.73438)" fill-opacity=".5"><ellipse fill="#f3ffff" rx="1" ry="1" transform="matrix(-5.8416 -61.83875 71.31101 -6.7364 85.8 68.5)"/><ellipse fill="#000016" cx="216" cy="105" rx="80" ry="128"/><ellipse fill="#dff1ff" cx="42" cy="47" rx="29" ry="36"/><ellipse fill="#4e1500" cx="84" cy="169" rx="48" ry="48"/><ellipse fill="#79a3fd" cx="128" cy="44" rx="34" ry="34"/><ellipse fill="#000001" rx="1" ry="1" transform="matrix(.29558 -11.40922 130.71076 3.38634 97 3.7)"/><ellipse cx="6" cy="60" rx="9" ry="149"/><ellipse fill="#fffbcd" cx="68" cy="91" rx="35" ry="35"/><ellipse fill="#2b364a" rx="1" ry="1" transform="matrix(18.88592 -23.1478 8.74585 7.1356 122.2 81.2)"/><path fill="#bcb8b5" d="M193.5 116.8l-18.2-12.3 25.2-37.3 18.2 12.3z"/><path d="M20.7 128.5l-16.6-7 15.2-36 16.6 7z"/><path fill="#fffff7" d="M49.1 105.4l1.7 19-26 2.2-1.6-19z"/><ellipse fill="#3f86f1" rx="1" ry="1" transform="matrix(.1274 19.52494 -10.92591 .0713 250.4 90.9)"/><path fill="#fefeff" d="M86 17h69v22H86z"/><ellipse fill="#301500" cx="141" cy="168" rx="255" ry="32"/><ellipse fill="#bb841d" cx="57" cy="131" rx="82" ry="8"/><ellipse fill="#ebffff" cx="31" cy="27" rx="17" ry="15"/><ellipse fill="#e2c93f" cx="72" cy="15" rx="12" ry="14"/><ellipse fill="#e8d09d" cx="126" cy="113" rx="27" ry="8"/><ellipse fill="#436fad" cx="129" cy="71" rx="26" ry="26"/><ellipse fill="#0f0606" cx="171" cy="143" rx="31" ry="34"/><path fill="#e09840" d="M185 57h17v18h-17z"/></g></svg>