<svg xmlns="http://www.w3.org/2000/svg" viewBox="0 0 700 467"><filter id="b"><feGaussianBlur stdDeviation="12" /></filter><path fill="#656d6f" d="M0 0h700v464H0z"/><g filter="url(#b)" transform="translate(1.4 1.4) scale(2.73438)" fill-opacity=".5"><ellipse rx="1" ry="1" transform="rotate(-16 575.5 -146.8) scale(43.19357 62.55575)"/><ellipse fill="#170300" rx="1" ry="1" transform="matrix(-36.34804 -55.73606 30.51437 -19.89982 86 53.4)"/><ellipse fill="#c9e5fe" cx="189" cy="74" rx="40" ry="40"/><ellipse fill="#fff" rx="1" ry="1" transform="rotate(122.3 57 136.8) scale(29.69489 28.1793)"/><path fill="#fff" d="M1.6 68.4l28.8 8.3-22 76.9-28.8-8.3z"/><ellipse rx="1" ry="1" transform="matrix(-30.76496 -8.7056 3.9184 -13.84732 134.5 37)"/><ellipse fill="#cddeea" rx="1" ry="1" transform="matrix(2.01645 12.90689 -94.89145 14.82491 210.2 56.1)"/><path fill="#edffff" d="M118 185l10-60-28 1z"/><ellipse fill="#93abb9" rx="1" ry="1" transform="matrix(-67.19872 5.09164 -4.44256 -58.63224 222.4 105.2)"/><path fill="#fff" d="M-49.4 1.2l113-22 3.8 19.6-113 22z"/><path fill="#fff3dd" d="M49.3 84.6l13.3-21.2 16 10-13.2 21.2z"/><ellipse fill="#5a6666" cx="210" cy="97" rx="28" ry="29"/><ellipse fill="#261f12" rx="1" ry="1" transform="matrix(93.56356 -2.7769 .82802 27.899 32.3 38.8)"/><ellipse fill="#211b0b" rx="1" ry="1" transform="matrix(20.48808 34.40938 -18.02895 10.73483 154.4 169)"/><path fill="#fff" d="M40.6 76.3L.3 116.6l-14.9-14.9 40.3-40.3z"/><path fill="#d5fdff" d="M115 76h63v13h-63z"/><ellipse fill="#ddf5ff" rx="1" ry="1" transform="matrix(-7.11302 28.829 -27.44177 -6.77075 203 166)"/><path fill="#040900" d="M137 11L85 175l-60-15z"/><path fill="#fff" d="M179.1 51.8l.8 44-27 .4-.8-44z"/><ellipse fill="#f8ffff" rx="1" ry="1" transform="matrix(7.26863 30.51051 -5.38667 1.28329 7.8 129.3)"/><path fill="#db9c6a" d="M67 97l5-41 15 9z"/><ellipse fill="#92c8f6" cx="133" cy="43" rx="3" ry="26"/></g></svg>