<svg xmlns="http://www.w3.org/2000/svg" viewBox="0 0 200 133"><filter id="b"><feGaussianBlur stdDeviation="12" /></filter><path fill="#33363f" d="M0 0h200v133H0z"/><g filter="url(#b)" transform="translate(.5 .5)" fill-opacity=".5"><path fill="#9da193" d="M18 0h77v22H18z"/><path fill="#a2d8c9" d="M18 5h12v52H18z"/><ellipse cx="52" cy="47" rx="11" ry="52"/><ellipse fill="#010920" cx="103" cy="123" rx="77" ry="27"/><ellipse fill="#857475" rx="1" ry="1" transform="matrix(16.08683 8.48383 -10.15614 19.25783 95.2 46)"/><path fill="#fff" d="M84 55l6 3-15 20z"/><path fill="#a27f64" d="M179.2 34.7L187 8.9l27.7 8.4-7.9 25.8z"/><path fill="#d1b09d" d="M128 66V26l11 22z"/><path fill="#bdc8b3" d="M124-11l-8 39-3-44z"/><path fill="#9b7b67" d="M151.3 38.3l13.2 10.4 4.2-1.2-17-63.5z"/><ellipse fill="#afbeb8" cx="25" cy="84" rx="2" ry="32"/><ellipse fill="#171929" rx="1" ry="1" transform="matrix(16.89111 36.72392 -4.2049 1.93404 86 33.3)"/><ellipse fill="#abaebf" cx="83" cy="93" rx="14" ry="4"/><ellipse fill="#898679" rx="1" ry="1" transform="rotate(70.2 6.6 37.8) scale(7.15693 33.83311)"/><ellipse fill="#0d0e0f" cx="52" cy="50" rx="25" ry="25"/><ellipse fill="#121623" rx="1" ry="1" transform="matrix(3.86965 23.37465 -57.8573 9.57822 175 113.2)"/><ellipse fill="#546570" rx="1" ry="1" transform="matrix(9.5528 -.2001 .85092 40.62237 13 123)"/><path fill="#020203" d="M119-16l4 47 28-9z"/><path fill="#ceb7ae" d="M57-2l19 19-4 8z"/><path d="M180 11l-20-27 1 34zM99.7 29.2L97.3 6.3l15-1.5 2.4 22.9z"/><path fill="#b7b7a2" d="M2.3 34.3L-16 29.6 8.8 53-2.7 26.5z"/></g></svg>