<svg xmlns="http://www.w3.org/2000/svg" viewBox="0 0 200 133"><filter id="b"><feGaussianBlur stdDeviation="12" /></filter><path fill="#97a7b3" d="M0 0h200v133H0z"/><g filter="url(#b)" transform="translate(.5 .5)" fill-opacity=".5"><ellipse fill="#fff" cx="98" cy="95" rx="84" ry="22"/><ellipse fill="#29100a" cx="116" cy="125" rx="185" ry="9"/><ellipse fill="#100500" rx="1" ry="1" transform="matrix(17.56856 -1.3049 3.5596 47.9249 199 112.4)"/><ellipse fill="#0b2054" rx="1" ry="1" transform="rotate(-82.2 57.7 48) scale(31.99585 15.03)"/><ellipse fill="#652102" cx="120" cy="70" rx="13" ry="13"/><ellipse fill="#fff" cx="90" cy="105" rx="44" ry="14"/><path fill="#48759d" d="M148 0h52v78h-52z"/><ellipse fill="#9ed2e9" rx="1" ry="1" transform="rotate(168.7 19 16.9) scale(110.66923 26.98612)"/><ellipse fill="#c0c8d3" rx="1" ry="1" transform="matrix(20.01436 7.51044 -5.98199 15.94124 36 132)"/><path fill="#fdf9f6" d="M111 51l6 66-103-12z"/><path fill="#675552" d="M42 52l26 28 24-2z"/><path d="M120.3 127l-.4-.9 55.8-19.2.4 1z"/><ellipse cx="110" cy="77" rx="5" ry="5"/><path fill="#fff" d="M125 148l20-29-20 14z"/><path fill="#130200" d="M156.2 114.5l-52.2 25-14-17.2 39.3-6.5z"/><ellipse fill="#feffff" cx="133" cy="97" rx="49" ry="17"/><path fill="#221313" d="M99.3 136.5l-1.7 3.6-63-30.6 1.8-3.6z"/><ellipse fill="#539fd9" rx="1" ry="1" transform="matrix(45.63769 3.8323 -1.87708 22.35352 33.5 0)"/><ellipse fill="#434960" cx="165" cy="69" rx="17" ry="14"/><path fill="#f9d7c4" d="M195 49h4v42h-4z"/><path fill="#f8fdff" d="M16 81h83v28H16z"/><ellipse fill="#d7dbda" rx="1" ry="1" transform="matrix(40.63592 59.03758 -4.8559 3.34235 141.9 66)"/></g></svg>