<svg xmlns="http://www.w3.org/2000/svg" viewBox="0 0 641 195"><filter id="b"><feGaussianBlur stdDeviation="12" /></filter><path fill="#7e3e45" d="M0 0h641v192H0z"/><g filter="url(#b)" transform="translate(1.3 1.3) scale(2.5039)" fill-opacity=".5"><ellipse rx="1" ry="1" transform="matrix(11.99799 -3.50846 15.52616 53.09533 9 18.8)"/><ellipse fill="#bfb79e" rx="1" ry="1" transform="rotate(-126.4 122.3 -20.1) scale(22.09517 34.72644)"/><ellipse fill="#fff" cx="94" cy="75" rx="228" ry="3"/><ellipse fill="#0f0000" cx="97" cy="46" rx="18" ry="28"/><ellipse fill="#7c0000" rx="1" ry="1" transform="matrix(2.08628 16.01674 -60.344 7.86017 217 26.3)"/><ellipse fill="#d3b993" rx="1" ry="1" transform="matrix(-.95866 -12.74976 28.78456 -2.16432 53.4 54.7)"/><path fill="#ffeedc" d="M159 61l1-15-51 8z"/><ellipse fill="#b50004" rx="1" ry="1" transform="matrix(-2.51304 -16.81512 30.92671 -4.62203 55 29.1)"/><path fill="#0f0011" d="M265 72.7L259.5-16l-23 78.6-69.6 10z"/><ellipse fill="#c8c0b1" cx="52" cy="3" rx="28" ry="10"/><path fill="#000006" d="M150.3 33.2l37.2 15.4-13.2-2.7L177-16z"/><path fill="#fde2c2" d="M241 4.4l-46.8 4.1-1.2-13 46.8-4z"/><path fill="#ded6ed" d="M117.7-15l47 19.9-4.4 10.1-47-19.9z"/><ellipse cx="1" cy="66" rx="39" ry="8"/><path fill="#000010" d="M142-1.5h6v53h-6z"/><ellipse fill="#fff" rx="1" ry="1" transform="matrix(-2.94605 6.69009 -4.8604 -2.14033 220.2 63.8)"/><path d="M110.7 58.4L130 29.7 70 72.3l55.1-2.2z"/><ellipse fill="#b20618" rx="1" ry="1" transform="rotate(115.4 98.8 88.2) scale(37.32533 5.48743)"/><path fill="#ff8187" d="M163 26L111 4l13 17z"/><ellipse fill="#fc001a" cx="123" cy="21" rx="12" ry="14"/><ellipse fill="#53152a" cx="51" cy="16" rx="10" ry="48"/><ellipse fill="#fff" cx="164" cy="76" rx="167" ry="4"/></g></svg>