<svg xmlns="http://www.w3.org/2000/svg" viewBox="0 0 200 133"><filter id="b"><feGaussianBlur stdDeviation="12" /></filter><path fill="#393638" d="M0 0h200v133H0z"/><g filter="url(#b)" transform="translate(.5 .5)" fill-opacity=".5"><ellipse fill="#968e89" cx="111" cy="15" rx="72" ry="35"/><ellipse rx="1" ry="1" transform="matrix(198.62882 -12.14866 1.89714 31.018 113.6 111.2)"/><path fill="#f1ffff" d="M120-16l3 45 23-3z"/><ellipse fill="#897768" rx="1" ry="1" transform="rotate(-152.8 49.2 16.8) scale(29.86287 19.67636)"/><ellipse fill="#747b86" cx="23" cy="4" rx="20" ry="20"/><ellipse fill="#a1857a" cx="173" cy="32" rx="9" ry="26"/><path fill="#ffffa5" d="M114.8 99.5l-3.6-1.8 20-39.2 3.6 1.8z"/><ellipse fill="#3e3a36" rx="1" ry="1" transform="matrix(-19.4842 .17004 -.32201 -36.89921 96.7 20.4)"/><ellipse cx="4" cy="65" rx="6" ry="52"/><path fill="#93776b" d="M32 38h18v29H32z"/><path fill="#342317" d="M168.2 51L119 94.7l23.9-59.5 16-29.1z"/><path fill="#bccae4" d="M195 35l2-12-27 25z"/><path fill="#fff" d="M111 24l31-3-17-10z"/><ellipse fill="#00000b" cx="183" cy="72" rx="9" ry="26"/><path fill="#1f2c35" d="M85 26L45 16l-1 32z"/><ellipse fill="#ceab9a" rx="1" ry="1" transform="matrix(5.0548 -1.4068 3.98729 14.32684 74.9 52)"/><path fill="#8ba7b8" d="M93.3-1l3.3-12.5L150.7 1l-3.3 12.5z"/><path fill="#b57f60" d="M113 24h16v20h-16z"/><path d="M14.3 21.9L-15.8 5.2l13.3 43.3 22.8-10.3z"/><path fill="#b1b6c2" d="M191.3 72.6l4.1-7L215 91.3l-8.7-6.3z"/><ellipse fill="#010a14" cx="61" cy="65" rx="12" ry="12"/><ellipse fill="#a07b70" rx="1" ry="1" transform="rotate(-179.6 75.1 33) scale(8.40398 4.80716)"/></g></svg>