<svg xmlns="http://www.w3.org/2000/svg" viewBox="0 0 700 467"><filter id="b"><feGaussianBlur stdDeviation="12" /></filter><path fill="#424155" d="M0 0h700v464H0z"/><g filter="url(#b)" transform="translate(1.4 1.4) scale(2.73438)" fill-opacity=".5"><ellipse fill="#c4b9de" cx="131" cy="66" rx="48" ry="48"/><ellipse cx="52" cy="123" rx="25" ry="71"/><ellipse rx="1" ry="1" transform="rotate(123.9 8.9 109.7) scale(73.69267 25.1377)"/><ellipse fill="#e9e1ff" rx="1" ry="1" transform="matrix(-8.63813 45.716 -12.76657 -2.41227 92.7 94)"/><ellipse rx="1" ry="1" transform="rotate(76.5 41.7 207.3) scale(126.53965 32.03512)"/><ellipse fill="#d194cb" rx="1" ry="1" transform="rotate(38.6 -112.3 309.2) scale(14.6104 46.29337)"/><ellipse fill="#84b4cb" rx="1" ry="1" transform="rotate(88.2 36.4 46) scale(22.88811 47.22475)"/><path fill="#78d1ff" d="M.7 135.1l47.6 41.4-23 26.4-47.6-41.4z"/><ellipse fill="#0c1d2b" rx="1" ry="1" transform="matrix(10.64245 13.18022 -23.62497 19.07614 109.5 45.4)"/><path fill="#ffe9ff" d="M129 32h51v23h-51z"/><ellipse fill="#c10000" rx="1" ry="1" transform="matrix(14.79166 2.46887 -5.15201 30.86704 177.9 158.9)"/><path fill="#cfffff" d="M235 29h21v11h-21z"/><path fill="#e1ffff" d="M167.2 136.7l-12.9 42-11.5-3.4 12.9-42z"/><ellipse rx="1" ry="1" transform="matrix(21.58706 -9.89303 12.13355 26.476 55.9 106.9)"/><ellipse fill="#f3e9ff" cx="98" cy="84" rx="20" ry="15"/><ellipse fill="#00020c" rx="1" ry="1" transform="matrix(-15.38248 16.4733 -37.22098 -34.75628 51.2 152)"/><ellipse rx="1" ry="1" transform="matrix(8.57002 47.63016 -13.99474 2.51805 113.6 147.7)"/><path fill="#cbbce0" d="M96 40l-16.9 69.6L158.5 78l-44.2-11z"/><ellipse fill="#001010" rx="1" ry="1" transform="rotate(22.7 104.3 614.6) scale(40.51773 21.1622)"/><path fill="#04070a" d="M132 28l-32 14 23 28z"/><ellipse fill="#5f91ff" cx="6" cy="169" rx="25" ry="25"/><path fill="#e6ffff" d="M22 93.9l10.9 1.3-.9 7-10.9-1.4z"/></g></svg>