<svg xmlns="http://www.w3.org/2000/svg" viewBox="0 0 200 133"><filter id="b"><feGaussianBlur stdDeviation="12" /></filter><path fill="#3c426c" d="M0 0h200v133H0z"/><g filter="url(#b)" transform="translate(.5 .5)" fill-opacity=".5"><ellipse fill="#a7ff82" rx="1" ry="1" transform="matrix(-38.62636 1.22255 -1.06342 -33.59861 123.2 18.9)"/><ellipse fill="#00001a" cx="12" cy="74" rx="57" ry="57"/><path fill="#fff1ff" d="M53 106h79v12H53z"/><ellipse fill="#3c44f5" rx="1" ry="1" transform="rotate(-68.5 107.8 -133.7) scale(59.6908 33.26858)"/><path fill="#cb97c5" d="M103.8 61l18 21.4L78.2 119l-18-21.4z"/><ellipse cx="107" cy="125" rx="189" ry="5"/><ellipse fill="#000040" cx="12" cy="16" rx="47" ry="47"/><path fill="#ffe7ff" d="M159 106l24-6-7 16z"/><ellipse fill="#170071" rx="1" ry="1" transform="matrix(-24.44982 6.96492 -7.11633 -24.98132 139.4 77.7)"/><path fill="#c689ca" d="M58.1 50L49 75.5 34 70l9-25.4z"/><path fill="#1ba35a" d="M62 0h32v54H62z"/><path fill="#16093f" d="M88 90l4-49-74 56z"/><ellipse fill="#bfe97a" cx="129" cy="17" rx="20" ry="20"/><ellipse fill="#10005e" rx="1" ry="1" transform="matrix(16.98858 .08018 -.22755 48.21527 196.9 92.8)"/><ellipse fill="#2dab97" rx="1" ry="1" transform="matrix(13.09804 -2.1201 5.21793 32.2366 162.4 15)"/><ellipse fill="#000008" rx="1" ry="1" transform="rotate(177.1 7 38.3) scale(21.48298 21.42865)"/><path fill="#000009" d="M133 106h30v26h-30z"/><path fill="#c0aed3" d="M116.4 71l8.8-2-27.9-16.8L87.8 92z"/><path fill="#daa2ff" d="M48 107h64v11H48z"/><ellipse fill="#00c583" rx="1" ry="1" transform="rotate(-179.9 70 21.7) scale(14.55271 11.26678)"/><path fill="#9665ab" d="M154 71l27 24-3-60z"/><ellipse fill="#3002eb" rx="1" ry="1" transform="matrix(-.7288 51.90576 -17.4629 -.2452 193.6 0)"/></g></svg>