<svg xmlns="http://www.w3.org/2000/svg" viewBox="0 0 700 467"><filter id="b"><feGaussianBlur stdDeviation="12" /></filter><path fill="#442f22" d="M0 0h700v464H0z"/><g filter="url(#b)" transform="translate(1.4 1.4) scale(2.73438)" fill-opacity=".5"><ellipse fill="#ffffdf" cx="196" cy="22" rx="27" ry="37"/><ellipse fill="#ff2a3f" rx="1" ry="1" transform="matrix(-3.04494 35.3691 -11.02026 -.94874 126.7 75)"/><ellipse fill="#080000" rx="1" ry="1" transform="matrix(7.74522 96.264 -35.85756 2.88503 22.6 98.5)"/><ellipse fill="#b37387" cx="76" cy="99" rx="13" ry="41"/><ellipse rx="1" ry="1" transform="matrix(-2.50945 -28.63867 50.03565 -4.38435 235 144.9)"/><path fill="#b49c83" d="M238 25h15v86h-15z"/><path fill="#dab853" d="M88 0h23v39H88z"/><ellipse fill="#ffffde" cx="212" cy="29" rx="7" ry="31"/><ellipse cx="138" cy="7" rx="27" ry="27"/><path fill="#ff839f" d="M56 36L44 53l37 12z"/><path fill="#c69f7b" d="M147.6 97.3l-6.2-2.5 23.8 2.6-14.5 39.2z"/><ellipse fill="#280c00" cx="128" cy="142" rx="42" ry="42"/><path fill="#20272f" d="M236.5 97.5l-38.8-60.2L181 13.7l12.4 115.5z"/><ellipse rx="1" ry="1" transform="matrix(-11.70663 -4.03091 18.56272 -53.91006 239.2 0)"/><ellipse fill="#fff1b3" cx="197" rx="25" ry="17"/><path d="M61 6h27v33H61z"/><path fill="#fc3640" d="M145 56l-25-23v77z"/><path fill="#000005" d="M173.5 58.2l-6.3 39.5-24.7-3.9 6.3-39.5z"/><ellipse rx="1" ry="1" transform="matrix(39.98577 -22.58945 6.18092 10.94089 36.5 100.4)"/><path fill="#fff8bd" d="M172 0h10v45h-10z"/><path fill="#947b65" d="M186.4 77.5l5.3 8.2-25-8.3 44.4-64.5z"/><path fill="#edbd96" d="M233 30h11v16h-11z"/></g></svg>