<svg xmlns="http://www.w3.org/2000/svg" viewBox="0 0 700 467"><filter id="b"><feGaussianBlur stdDeviation="12" /></filter><path fill="#301e2e" d="M0 0h700v464H0z"/><g filter="url(#b)" transform="translate(1.4 1.4) scale(2.73438)" fill-opacity=".5"><ellipse fill="#dacbff" cx="116" cy="80" rx="44" ry="44"/><ellipse fill="#b996f0" rx="1" ry="1" transform="matrix(29.3491 24.53966 -20.39122 24.38763 164.2 78.7)"/><path fill="#fda2c8" d="M50 84h178v28H50z"/><ellipse rx="1" ry="1" transform="matrix(1.4726 37.19589 -254.8004 10.08765 117.4 148.9)"/><ellipse rx="1" ry="1" transform="matrix(-.38442 14.68056 -111.28212 -2.91402 112.5 32)"/><ellipse rx="1" ry="1" transform="matrix(-27.67328 29.78 -15.4914 -14.39549 209.1 65.5)"/><path fill="#f3f" d="M165 47h25v21h-25z"/><path fill="#fff" d="M69 91.9l-15.5 20.6 47.2-6.3 29.7-1.3z"/><ellipse fill="#30c7e7" cx="137" cy="63" rx="29" ry="18"/><ellipse fill="#f1f" rx="1" ry="1" transform="rotate(-128.5 57.9 9.6) scale(18.21332 9.81952)"/><ellipse cx="44" cy="43" rx="28" ry="38"/><ellipse fill="#010000" rx="1" ry="1" transform="matrix(-59.76437 17.95912 -13.54643 -45.07982 211.2 0)"/><ellipse fill="#000010" rx="1" ry="1" transform="matrix(16.73737 13.18858 -5.07408 6.43942 73.4 68.7)"/><ellipse cx="128" cy="157" rx="252" ry="36"/><ellipse fill="#08000d" rx="1" ry="1" transform="matrix(5.1946 -33.94687 8.3634 1.27978 108.7 32.8)"/><path fill="#5e4165" d="M124 77h84v19h-84z"/><ellipse fill="#ffd6ff" cx="168" cy="102" rx="54" ry="4"/><ellipse fill="#080000" cx="252" cy="83" rx="33" ry="28"/><path fill="#dc00ae" d="M22 99h34v10H22z"/><ellipse fill="#bd12a5" cx="7" cy="40" rx="10" ry="10"/><ellipse rx="1" ry="1" transform="rotate(52.2 34.2 238.7) scale(13.79295 19.18211)"/><path fill="#d109c9" d="M240 38l14 13 17-21z"/></g></svg>