<svg xmlns="http://www.w3.org/2000/svg" viewBox="0 0 700 467"><filter id="b"><feGaussianBlur stdDeviation="12" /></filter><path fill="#3a4269" d="M0 0h700v464H0z"/><g filter="url(#b)" transform="translate(1.4 1.4) scale(2.73438)" fill-opacity=".5"><ellipse fill="#9fff7c" rx="1" ry="1" transform="matrix(51.3441 1.14999 -.96359 43.02183 154.7 25.8)"/><ellipse fill="#000017" cy="80" rx="87" ry="87"/><ellipse fill="#f9bcff" rx="1" ry="1" transform="rotate(2.7 -2923.2 2519) scale(55.77221 12.33945)"/><ellipse fill="#4245fc" rx="1" ry="1" transform="matrix(-16.85323 70.37721 -28.96614 -6.93652 235.6 23.6)"/><path fill="#f1c7e7" d="M115 82h32v36h-32z"/><ellipse rx="1" ry="1" transform="matrix(.21877 8.95134 -151.18823 3.69496 170 158.8)"/><path fill="#fff" d="M210 134h21v15h-21z"/><ellipse fill="#c793e7" cx="58" cy="81" rx="12" ry="14"/><path fill="#ffedff" d="M73 120h30v8H73z"/><ellipse fill="#0d9a53" cx="97" cy="37" rx="23" ry="34"/><ellipse fill="#10006a" rx="1" ry="1" transform="matrix(3.5154 46.84763 -28.07652 2.10683 186.5 107.2)"/><ellipse fill="#b5e878" cx="160" cy="23" rx="29" ry="28"/><ellipse fill="#000026" rx="1" ry="1" transform="matrix(24.5031 91.44684 -32.50746 8.71035 17.6 84.7)"/><ellipse fill="#29ab9a" cx="208" cy="15" rx="18" ry="46"/><ellipse fill="#0d0076" rx="1" ry="1" transform="matrix(-.46123 55.04667 -17.86073 -.14965 249.1 100.3)"/><path fill="#00c583" d="M159 44h41v24h-41z"/><path fill="#e3beff" d="M63 138h105v13H63z"/><path fill="#52244b" d="M139 112l16 21-90 3z"/><ellipse fill="#b293c2" rx="1" ry="1" transform="matrix(-3.05361 -87.44399 4.6295 -.16167 223.5 69)"/><ellipse fill="#1e0c45" cx="92" cy="86" rx="26" ry="26"/><ellipse fill="#2d02e7" rx="1" ry="1" transform="matrix(-15.90525 -44.77967 19.34788 -6.87216 252.4 35.5)"/><path fill="#fffffd" d="M112 138l-13 11-8-35z"/></g></svg>