<svg xmlns="http://www.w3.org/2000/svg" viewBox="0 0 200 133"><filter id="b"><feGaussianBlur stdDeviation="12" /></filter><path fill="#0b1d07" d="M0 0h200v133H0z"/><g filter="url(#b)" transform="translate(.5 .5)" fill-opacity=".5"><path fill="#ffffe1" d="M129 35l12 40-37-13z"/><ellipse fill="#88c184" rx="1" ry="1" transform="matrix(-66.7866 -27.2551 1.06457 -2.60866 179 63.5)"/><ellipse fill="#55db15" rx="1" ry="1" transform="matrix(-28.49865 -1.93126 .69616 -10.27289 38.1 0)"/><path fill="#faffff" d="M127.1 61.1L110 68.3l25.9 2-1.9-23.7z"/><path fill="#009500" d="M119 69h22v21h-22z"/><path fill="#fffffc" d="M86 61l-16-7 17 14z"/><ellipse fill="#51f020" rx="1" ry="1" transform="matrix(4.7955 5.38382 -11.15647 9.93732 117 55.2)"/><ellipse cx="171" cy="23" rx="59" ry="26"/><ellipse fill="#040000" rx="1" ry="1" transform="matrix(-181.202 -17.76701 2.83115 -28.87433 107 119.8)"/><ellipse rx="1" ry="1" transform="matrix(.8838 22.82027 -67.4468 2.61212 37.1 40.1)"/><path fill="#87bc85" d="M137.5 49.5l3.2-6.2 25.8 13.2-3.2 6.2z"/><path fill="#003900" d="M69.7 58.4L101 74.7l3-38.7 13.6 61.7z"/><ellipse fill="#1f961a" rx="1" ry="1" transform="matrix(-2.50409 -4.1185 17.80683 -10.82672 119.5 2.2)"/><path fill="#e2ffe9" d="M120.6 53.4l20.2 11.1-3.4 6.1-20.2-11.1z"/><path fill="#18871e" d="M103.6 54.4L142 37.8l-.8 41.6-15.5-54.2z"/><path fill="#000300" d="M148.7 99.6l57-36.5-2.3 84.9-152.2-5.3z"/><ellipse fill="#212503" rx="1" ry="1" transform="rotate(-103.8 77.4 24.6) scale(17.62184 29.65021)"/><path fill="#e5ddd4" d="M196.4 69.2l-3.7-.6-23.3-10 24.7 12.8z"/><ellipse rx="1" ry="1" transform="matrix(-20.95743 -25.2341 22.32473 -18.54114 184.5 32.4)"/><path fill="#79ff06" d="M62.2 4.3l-19-1.6.6-7 19 1.6z"/><path fill="#36b42b" d="M82.2 78.2l24 1.6-.4 4-24-1.6z"/><path fill="#fffffd" d="M129.3 52l.1 13.6 4-11.8-5.9-15z"/></g></svg>