<svg xmlns="http://www.w3.org/2000/svg" viewBox="0 0 700 467"><filter id="b"><feGaussianBlur stdDeviation="12" /></filter><path fill="#5f6465" d="M0 0h700v464H0z"/><g filter="url(#b)" transform="translate(1.4 1.4) scale(2.73438)" fill-opacity=".5"><ellipse cx="238" cy="169" rx="127" ry="127"/><ellipse fill="#aab7b1" cx="39" cy="58" rx="95" ry="95"/><ellipse fill="#bcc6ce" cx="183" cy="29" rx="30" ry="45"/><path fill="#fffff6" d="M170 95h33v21h-33z"/><ellipse cx="133" cy="91" rx="26" ry="21"/><ellipse fill="#e6ddd1" rx="1" ry="1" transform="matrix(55.13599 -16.15978 4.33254 14.78232 68.5 130.3)"/><ellipse fill="#000005" cx="254" cy="112" rx="31" ry="132"/><ellipse fill="#41403d" rx="1" ry="1" transform="matrix(-.63852 -12.0541 72.89898 -3.86154 42.3 92.8)"/><ellipse fill="#2e2a27" rx="1" ry="1" transform="matrix(11.52102 28.18985 -17.29028 7.06643 105.2 155.4)"/><ellipse fill="#a3b5b9" cx="104" cy="21" rx="28" ry="63"/><ellipse fill="#fffffb" cx="162" cy="22" rx="4" ry="83"/><ellipse rx="1" ry="1" transform="rotate(165.3 -5.7 63.4) scale(20.8704 7.08527)"/><path d="M154.3 73.5l16.7 78.3-31.3 6.7L123 80.2z"/><path fill="#0d1518" d="M210.8 88.5l-37.6-36-1.8 8.8L158 99.5z"/><ellipse fill="#fffef0" rx="1" ry="1" transform="matrix(4.54144 -1.63898 5.0298 13.93707 117.2 123.7)"/><ellipse fill="#fff" cx="49" cy="34" rx="3" ry="50"/><ellipse fill="#31446e" rx="1" ry="1" transform="matrix(-14.1753 -5.1595 22.03256 -60.53256 234.3 9.5)"/><ellipse fill="#1a1e22" cx="12" cy="33" rx="4" ry="70"/><path fill="#bbb5a7" d="M-12 153l60 12-6-53z"/><path fill="#c2c1c2" d="M-16 87l27 25L6 1z"/><ellipse fill="#e7e1e1" cx="194" cy="48" rx="5" ry="30"/><path fill="#fff4f0" d="M123 0h9v46h-9z"/></g></svg>