<svg xmlns="http://www.w3.org/2000/svg" viewBox="0 0 800 533"><filter id="b"><feGaussianBlur stdDeviation="12" /></filter><path fill="#64554e" d="M0 0h800v531H0z"/><g filter="url(#b)" transform="translate(1.6 1.6) scale(3.125)" fill-opacity=".5"><ellipse fill="#ceffff" cx="131" cy="68" rx="61" ry="26"/><ellipse cx="46" rx="51" ry="51"/><ellipse rx="1" ry="1" transform="matrix(5.16944 -26.69414 117.59348 22.7725 188.4 5.2)"/><ellipse fill="#c7a85f" cx="224" cy="79" rx="45" ry="45"/><ellipse cx="111" cy="169" rx="255" ry="22"/><ellipse fill="#cd8e83" rx="1" ry="1" transform="matrix(45.97607 13.32157 -5.4356 18.75962 92.8 123.5)"/><ellipse fill="#95add2" cx="59" cy="60" rx="129" ry="16"/><ellipse fill="#d9f6ff" rx="1" ry="1" transform="matrix(46.44154 -2.81321 1.08116 17.84822 135.8 73.3)"/><ellipse fill="#000004" cx="15" cy="21" rx="105" ry="23"/><path fill="#f7912a" d="M252.4 119l5.3 18.2-48.1 13.8-5.3-18.2z"/><ellipse fill="#432f3c" rx="1" ry="1" transform="matrix(-7.81838 -3.70744 30.37284 -64.05131 68.1 73)"/><ellipse cx="246" cy="9" rx="31" ry="31"/><path fill="#3c1a1d" d="M77.2 134.3l7.3-25L105 122l8.6 10.5z"/><ellipse fill="#ffa27f" rx="1" ry="1" transform="matrix(-35.77841 -2.8539 .42996 -5.39028 6 137.9)"/><ellipse fill="#f2c8d2" cx="135" cy="138" rx="42" ry="5"/><path fill="#6bb3ff" d="M80 47h25v42H80z"/><ellipse fill="#b5b182" rx="1" ry="1" transform="matrix(-7.00299 -.20784 .82379 -27.75628 216.8 42.8)"/><path fill="#640e00" d="M209 146l11-30-73 11z"/><ellipse fill="#5899ff" rx="1" ry="1" transform="matrix(-.71474 -6.91635 21.40956 -2.21246 163.5 50.3)"/><ellipse fill="#886b66" cx="117" cy="17" rx="50" ry="6"/><ellipse fill="#8e746f" rx="1" ry="1" transform="matrix(1.47512 -10.67372 72.88827 10.07323 136 102.5)"/><ellipse fill="#c6bfb5" rx="1" ry="1" transform="matrix(-5.52858 10.81246 -24.17387 -12.36048 255 55.9)"/></g></svg>