<svg xmlns="http://www.w3.org/2000/svg" viewBox="0 0 641 195"><filter id="b"><feGaussianBlur stdDeviation="12" /></filter><path fill="#4b3b24" d="M0 0h641v192H0z"/><g filter="url(#b)" transform="translate(1.3 1.3) scale(2.5039)" fill-opacity=".5"><ellipse fill="#fff" rx="1" ry="1" transform="matrix(-20.01175 -13.14842 7.31662 -11.13581 182.4 30.3)"/><ellipse fill="#fbf6fc" rx="1" ry="1" transform="rotate(-83.2 63.6 1.7) scale(34.01979 13.79147)"/><ellipse fill="#130300" rx="1" ry="1" transform="matrix(-40.46414 22.02236 -34.48999 -63.37232 120.5 55.6)"/><ellipse fill="#deb862" rx="1" ry="1" transform="matrix(-9.07142 26.61382 -11.196 -3.8162 13.4 30.7)"/><path fill="#fff" d="M18 70h31v7H18z"/><ellipse fill="#0a0805" rx="1" ry="1" transform="matrix(-20.49073 -15.05194 42.33068 -57.62623 218.4 50.2)"/><ellipse fill="#030000" rx="1" ry="1" transform="matrix(-7.87388 -14.80861 7.97688 -4.24138 43.7 46.7)"/><ellipse fill="#ffd" cx="178" cy="29" rx="15" ry="15"/><ellipse cx="102" cy="76" rx="43" ry="17"/><ellipse fill="#937e59" cx="205" cy="33" rx="11" ry="18"/><path fill="#e3ded3" d="M47 84l13-58.5-18.3 11.3L80 42.5z"/><path fill="#fff" d="M5 55.1l-12.6-2.7L-3.1 31l12.7 2.7zm37.1 8.7l6 10.4-24.2 14-6-10.4z"/><path d="M-4 92l-12-39 47 11z"/><path fill="#ffeebc" d="M151 12l33 36 5-33z"/><ellipse fill="#906512" cx="21" cy="17" rx="11" ry="40"/><path fill="#875206" d="M73 57.9l-9-21.2L89 26l9 21.2z"/><ellipse fill="#000105" rx="1" ry="1" transform="rotate(-4.4 1030 -2404.9) scale(62.26464 14.1769)"/><path d="M44.2 20.4L61.6 34l21-13.5L64.3 7.3z"/><path fill="#d8c3a0" d="M199 37l-6-13-33 37z"/><path fill="#eac785" d="M253 55l-7 33 21-41z"/><ellipse fill="#1c0c00" rx="1" ry="1" transform="rotate(173.1 102.9 10.6) scale(32.62199 7.98478)"/></g></svg>