<svg xmlns="http://www.w3.org/2000/svg" viewBox="0 0 700 467"><filter id="b"><feGaussianBlur stdDeviation="12" /></filter><path fill="#594042" d="M0 0h700v464H0z"/><g filter="url(#b)" transform="translate(1.4 1.4) scale(2.73438)" fill-opacity=".5"><ellipse fill="#ffdecb" rx="1" ry="1" transform="matrix(.84632 48.48545 -19.19358 .33503 206 36.5)"/><ellipse fill="#ffafa7" cx="89" cy="41" rx="17" ry="50"/><ellipse rx="1" ry="1" transform="matrix(36.94568 -15.5312 15.93575 37.90804 230 115)"/><ellipse fill="#ffccbf" rx="1" ry="1" transform="matrix(16.92913 0 0 57.5219 144.8 19.4)"/><ellipse fill="#ff2a34" cx="46" cy="26" rx="17" ry="56"/><ellipse cx="9" cy="108" rx="21" ry="255"/><ellipse fill="#687a97" cx="157" cy="147" rx="45" ry="104"/><ellipse fill="#e1a78c" cx="174" cy="62" rx="61" ry="18"/><ellipse fill="#002b43" rx="1" ry="1" transform="rotate(-7.7 890.5 -854.8) scale(88.38851 30.54751)"/><ellipse fill="#000700" cx="241" cy="56" rx="19" ry="246"/><ellipse cx="67" cy="19" rx="9" ry="65"/><path d="M104-15l27 24-21 52zm86 58l-8-59-24 50z"/><ellipse fill="#e08182" rx="1" ry="1" transform="matrix(-15.47535 27.53511 -18.28364 -10.27582 127.6 160.3)"/><ellipse fill="#b4b08f" rx="1" ry="1" transform="rotate(178.4 127.3 17.6) scale(7.72724 65.93617)"/><ellipse fill="#ff353a" cx="42" cy="21" rx="14" ry="64"/><ellipse cx="5" cy="51" rx="26" ry="138"/><ellipse fill="#ffa09b" cx="204" cy="13" rx="18" ry="55"/><ellipse fill="#1897ff" rx="1" ry="1" transform="matrix(1.53276 30.01373 -8.44704 .43138 136.4 104.1)"/><ellipse fill="#d997b6" rx="1" ry="1" transform="matrix(9.96321 13.06224 -18.50152 14.11202 182.2 154)"/><path d="M47.2 177.1l-13-5.2 20.6-51 13 5.2z"/><path fill="#336d73" d="M43 62l21.2 30.3L33 114 11.8 83.7z"/></g></svg>