<svg xmlns="http://www.w3.org/2000/svg" viewBox="0 0 700 467"><filter id="b"><feGaussianBlur stdDeviation="12" /></filter><path fill="#332018" d="M0 0h700v464H0z"/><g filter="url(#b)" transform="translate(1.4 1.4) scale(2.73438)" fill-opacity=".5"><ellipse fill="#ff3c91" rx="1" ry="1" transform="matrix(-1.54726 -30.78839 14.83213 -.74538 207 62)"/><ellipse fill="#c2667e" rx="1" ry="1" transform="matrix(12.56817 -.04395 .18473 52.82271 57.3 69.4)"/><ellipse fill="#6b5734" cx="142" cy="25" rx="82" ry="22"/><ellipse fill="#060300" cx="232" cy="123" rx="164" ry="34"/><ellipse cx="13" cy="129" rx="21" ry="163"/><path fill="#9a6c60" d="M102 64l55-24L34 53z"/><path fill="#a9878a" d="M30 115l37-28-25 47z"/><ellipse fill="#040604" cx="154" cy="84" rx="39" ry="40"/><ellipse fill="#000005" cx="85" cy="33" rx="22" ry="11"/><path fill="#fe3c7e" d="M197 37h20v37h-20z"/><ellipse cx="242" cy="101" rx="21" ry="33"/><ellipse fill="#371d05" cx="157" cy="169" rx="58" ry="58"/><path fill="#bc0f48" d="M193 77h29v16h-29z"/><ellipse fill="#6b4d30" rx="1" ry="1" transform="matrix(-12.2604 -27.04157 13.24673 -6.00594 131.7 40.5)"/><ellipse fill="#000305" cx="27" cy="88" rx="22" ry="22"/><path fill="#d90a5f" d="M50 72h15v21H50z"/><ellipse fill="#683836" rx="1" ry="1" transform="matrix(.91745 23.40661 -11.2483 .44089 41.2 42.8)"/><path fill="#14150b" d="M101.2 12.7L54.4 55.5 161.3-16-16 5z"/><ellipse fill="#9a634a" cx="190" cy="36" rx="12" ry="12"/><path fill="#92885a" d="M85.6 24.8l2.7 56.6-3.6-72.2 11.7 6.9z"/><ellipse cx="235" cy="30" rx="14" ry="14"/><path fill="#000200" d="M5 95l21 66 14-38z"/></g></svg>