<svg xmlns="http://www.w3.org/2000/svg" viewBox="0 0 200 133"><filter id="b"><feGaussianBlur stdDeviation="12" /></filter><path fill="#a3867f" d="M0 0h200v133H0z"/><g filter="url(#b)" transform="translate(.5 .5)" fill-opacity=".5"><ellipse fill="#140d0c" rx="1" ry="1" transform="matrix(-27.66505 -11.70981 14.44902 -34.13658 123 84)"/><ellipse fill="#ffffe6" cx="58" cy="16" rx="87" ry="25"/><ellipse fill="#7f0000" rx="1" ry="1" transform="matrix(4.54897 33.20832 -19.622 2.68788 47.3 68.2)"/><path fill="#1d002f" d="M195.2 39.4l31.2 10.8-27.6 80.4-31.2-10.8z"/><path fill="#f9ffff" d="M179 53.8l2 39-26 1.4-2-39z"/><ellipse fill="#4f0a00" cx="158" cy="15" rx="15" ry="15"/><path fill="#dcddf7" d="M67 45h32v38H67z"/><ellipse fill="#dacfcb" cx="6" cy="77" rx="24" ry="47"/><path d="M105.2 78l2.6-29.9 21 1.9-2.6 29.9z"/><ellipse fill="#9e6d45" cx="123" cy="124" rx="35" ry="35"/><path fill="#000608" d="M43 88l-15-1.2 3-32.9 15 1.3z"/><path fill="#fff5df" d="M19 0h73v29H19z"/><ellipse fill="#e90000" cx="57" cy="75" rx="8" ry="25"/><path d="M103 46l25 42-17 12z"/><ellipse fill="#ffecd4" cx="130" cy="17" rx="10" ry="42"/><ellipse fill="#5d576d" rx="1" ry="1" transform="matrix(-12.8762 -4.8055 11.17916 -29.95427 91 93.2)"/><path fill="#cde0f1" d="M45 56h5v58h-5z"/><path fill="#000004" d="M215 67.5L203.3 95 183 86.5 194.7 59z"/><ellipse fill="#9912f6" cx="184" cy="76" rx="6" ry="15"/><ellipse fill="#bfc9ee" cx="18" cy="99" rx="16" ry="21"/><ellipse fill="#4c455c" rx="1" ry="1" transform="matrix(17.63723 -1.79152 2.0521 20.20257 .8 125.4)"/><path d="M126.8 97.1l17.6-47.5 8.1 45.7-16-6z"/></g></svg>