<svg xmlns="http://www.w3.org/2000/svg" viewBox="0 0 700 467"><filter id="b"><feGaussianBlur stdDeviation="12" /></filter><path fill="#78626c" d="M0 0h700v464H0z"/><g filter="url(#b)" transform="translate(1.4 1.4) scale(2.73438)" fill-opacity=".5"><ellipse fill="#fff" rx="1" ry="1" transform="matrix(60.35291 27.68958 -37.24381 81.17754 222 34.5)"/><ellipse fill="#e40000" rx="1" ry="1" transform="matrix(-.24806 35.53174 -99.39882 -.69395 193.3 148.9)"/><ellipse fill="#00133a" cx="19" cy="52" rx="135" ry="135"/><ellipse fill="#fff" cx="220" cy="61" rx="68" ry="54"/><ellipse fill="red" rx="1" ry="1" transform="matrix(-13.02155 -.63686 5.86627 -119.94452 115 88)"/><ellipse fill="#bbcaab" cx="93" cy="62" rx="13" ry="88"/><path fill="#eaffff" d="M271 112L158-16l-9 130z"/><ellipse fill="#002d71" cy="74" rx="83" ry="83"/><ellipse fill="#c80000" cx="211" cy="155" rx="44" ry="44"/><ellipse fill="#8f0000" cx="136" cy="147" rx="38" ry="38"/><ellipse cx="138" cy="52" rx="14" ry="76"/><path fill="#f6ffff" d="M20 185l17-25-23-11z"/><ellipse fill="#001d48" cx="36" cy="31" rx="48" ry="48"/><ellipse fill="#daf8e5" cx="215" cy="12" rx="61" ry="61"/><path fill="#9abaac" d="M76.5 107.8L95 145.6l-13.4 6.6L63 114.4z"/><ellipse fill="#4bcf37" rx="1" ry="1" transform="matrix(-23.09616 3.67858 -.76724 -4.81714 194.7 35.6)"/><ellipse fill="#00457b" rx="1" ry="1" transform="rotate(47.6 -114.7 81.7) scale(69.96233 35.40272)"/><ellipse fill="#b70700" cx="215" cy="142" rx="115" ry="29"/><ellipse fill="#d70000" cx="118" cy="40" rx="10" ry="81"/><ellipse fill="#fff" cx="249" cy="73" rx="41" ry="41"/><ellipse fill="#001518" rx="1" ry="1" transform="rotate(91.7 -36.4 122.4) scale(14.35264 24.42525)"/><ellipse fill="#004990" cx="154" cy="169" rx="11" ry="11"/></g></svg>