<svg xmlns="http://www.w3.org/2000/svg" viewBox="0 0 700 467"><filter id="b"><feGaussianBlur stdDeviation="12" /></filter><path fill="#655a4a" d="M0 0h700v464H0z"/><g filter="url(#b)" transform="translate(1.4 1.4) scale(2.73438)" fill-opacity=".5"><ellipse fill="#effecb" cx="206" cy="80" rx="113" ry="11"/><ellipse fill="#fff141" cx="11" cy="98" rx="18" ry="58"/><ellipse cx="71" cy="10" rx="45" ry="45"/><ellipse rx="1" ry="1" transform="rotate(-69.4 117.2 -153.6) scale(30.84569 40.30423)"/><ellipse fill="#060000" cx="51" cy="130" rx="25" ry="32"/><ellipse fill="#c3c5d5" rx="1" ry="1" transform="matrix(-5.51932 38.7808 -12.51233 -1.78077 165.8 86.2)"/><ellipse fill="#ffbdb8" rx="1" ry="1" transform="matrix(-137.10835 2.63261 -.18208 -9.48265 106 169)"/><ellipse fill="#edc68e" rx="1" ry="1" transform="matrix(-6.6374 -72.93284 7.92483 -.72122 210.3 110.5)"/><ellipse fill="#bfc7b9" cx="17" cy="34" rx="11" ry="63"/><path fill="#0f1e23" d="M97 98h56v63H97z"/><ellipse fill="#022621" rx="1" ry="1" transform="matrix(35.48897 136.24427 -8.03284 2.0924 236 109.4)"/><path fill="#ffd6a8" d="M91.5 103.1l6.7 34.4-17.7 3.4-6.7-34.4z"/><ellipse fill="#150000" cx="54" cy="23" rx="28" ry="42"/><ellipse fill="#ff7a40" cx="45" cy="71" rx="11" ry="28"/><ellipse fill="#9bd7a3" rx="1" ry="1" transform="matrix(13.07075 -1.48096 3.47427 30.66337 241.6 71.6)"/><path fill="#d1c297" d="M132 95l-36-1 4-58z"/><ellipse fill="#176a9d" cx="104" cy="67" rx="42" ry="9"/><path fill="#ffbf94" d="M71 43h12v22H71z"/><ellipse fill="#000412" rx="1" ry="1" transform="rotate(179.6 68.4 1.4) scale(34.28328 13.32206)"/><path fill="#070514" d="M178 89h15v67h-15z"/><ellipse fill="#884418" rx="1" ry="1" transform="rotate(9.5 -757.9 989.1) scale(28.7751 22.66155)"/><path fill="#431e29" d="M23 141h82v21H23z"/></g></svg>