<svg xmlns="http://www.w3.org/2000/svg" viewBox="0 0 700 467"><filter id="b"><feGaussianBlur stdDeviation="12" /></filter><path fill="#716a56" d="M0 0h700v464H0z"/><g filter="url(#b)" transform="translate(1.4 1.4) scale(2.73438)" fill-opacity=".5"><ellipse fill="#fff0c0" rx="1" ry="1" transform="matrix(-112.92808 -2.5627 1.31878 -58.11347 120 33.4)"/><ellipse cx="127" cy="136" rx="255" ry="44"/><ellipse fill="#fff" rx="1" ry="1" transform="matrix(-26.41293 .92236 -.86606 -24.80065 41.2 36.9)"/><ellipse fill="#d6d7b9" cx="230" cy="67" rx="26" ry="26"/><ellipse fill="#000105" rx="1" ry="1" transform="matrix(-155.26737 17.86282 -2.86717 -24.92209 90.3 133.3)"/><ellipse fill="#764504" rx="1" ry="1" transform="matrix(18.06952 4.80793 -6.50658 24.45352 135.9 0)"/><ellipse fill="#fff" rx="1" ry="1" transform="matrix(14.24195 .84412 -1.94546 32.82382 43.6 32)"/><ellipse fill="#8b8162" cx="204" cy="23" rx="37" ry="37"/><ellipse fill="#7e5114" rx="1" ry="1" transform="rotate(-50.3 14.7 -14.7) scale(21.83648 18.59674)"/><path fill="#6a4512" d="M124.2 53.9l22-13 5.4 21.9-34.6 5z"/><ellipse fill="#070206" rx="1" ry="1" transform="matrix(16.0434 -13.05917 18.50078 22.7285 34.1 112.7)"/><ellipse fill="#af7c31" cx="85" cy="20" rx="22" ry="19"/><ellipse fill="#cdaf79" rx="1" ry="1" transform="matrix(-14.71047 -28.25855 14.0971 -7.33848 4.4 58.7)"/><ellipse fill="#fde9cc" cx="130" cy="77" rx="40" ry="8"/><ellipse fill="#fffce1" cx="66" cy="50" rx="58" ry="8"/><ellipse fill="#080100" cx="200" cy="42" rx="9" ry="8"/><path d="M164 129h25v37h-25z"/><path fill="#dfd4cf" d="M74.1 86.2l-13.5 17.3-4.7-3.7 13.5-17.3z"/><path fill="#576e55" d="M191 135h36v35h-36z"/><ellipse fill="#a17d48" cx="54" cy="65" rx="86" ry="8"/><path fill="#dbc8a7" d="M77.4 44L35 77.8l-7 18-1.7 9.2z"/><path fill="#464a64" d="M49 93l96-7-59 43z"/></g></svg>