<svg xmlns="http://www.w3.org/2000/svg" viewBox="0 0 700 467"><filter id="b"><feGaussianBlur stdDeviation="12" /></filter><path fill="#a1867d" d="M0 0h700v464H0z"/><g filter="url(#b)" transform="translate(1.4 1.4) scale(2.73438)" fill-opacity=".5"><ellipse cx="161" cy="96" rx="37" ry="36"/><ellipse fill="#ffffd9" rx="1" ry="1" transform="matrix(95.5359 5.19436 -2.56248 47.12975 90.4 13.8)"/><ellipse fill="#710000" rx="1" ry="1" transform="matrix(22.5335 -7.11963 12.96501 41.03406 58.2 87)"/><ellipse fill="#210928" rx="1" ry="1" transform="matrix(20.47298 7.37073 -36.7967 102.20675 244.6 134.8)"/><ellipse fill="#edffff" cx="212" cy="97" rx="18" ry="34"/><ellipse fill="#601e00" rx="1" ry="1" transform="matrix(21.1872 -4.44989 4.66741 22.2229 203.4 14.7)"/><ellipse fill="#dfdbdb" rx="1" ry="1" transform="rotate(-112 48.3 50.4) scale(39.32579 21.71174)"/><ellipse fill="#755538" rx="1" ry="1" transform="rotate(-67.5 194.1 -49.8) scale(22.48458 74.48971)"/><ellipse fill="#eef1ff" rx="1" ry="1" transform="matrix(18.0293 -20.15022 9.75503 8.72826 104.6 83.2)"/><ellipse fill="#ffe6cd" rx="1" ry="1" transform="matrix(-14.1316 -24.87612 111.01266 -63.06397 84.4 0)"/><ellipse cx="148" cy="95" rx="13" ry="34"/><ellipse fill="#ed0000" rx="1" ry="1" transform="matrix(3.47916 39.52585 -12.1643 1.07073 72.4 85)"/><ellipse cx="48" cy="95" rx="10" ry="22"/><ellipse fill="#c7d0cc" cx="59" cy="82" rx="3" ry="69"/><path fill="#b4cae1" d="M166 26l12 49-17 48z"/><ellipse fill="#b67756" rx="1" ry="1" transform="matrix(-47.22899 -4.79735 .9363 -9.21774 130.8 52.2)"/><ellipse fill="#e1ba86" cx="13" cy="81" rx="25" ry="25"/><path d="M244 47h12v70h-12z"/><path fill="#7e4c26" d="M74 53L49 27l-7 21z"/><ellipse fill="#1c4992" cx="102" cy="130" rx="10" ry="27"/><ellipse fill="#fff6e0" rx="1" ry="1" transform="matrix(13.04213 -1.71703 3.64676 27.69987 163.2 28.7)"/><path fill="#db4acf" d="M226 40l20 32-15 60z"/></g></svg>