<svg xmlns="http://www.w3.org/2000/svg" viewBox="0 0 200 133"><filter id="b"><feGaussianBlur stdDeviation="12" /></filter><path fill="#390c16" d="M0 0h200v133H0z"/><g filter="url(#b)" transform="translate(.5 .5)" fill-opacity=".5"><ellipse fill="#c53998" rx="1" ry="1" transform="matrix(86.35474 11.52218 -2.03731 15.26895 105.3 129.1)"/><ellipse fill="#cb0000" cx="13" cy="55" rx="46" ry="20"/><path fill="#cf0000" d="M179.4 66l-54.3 8.6-4.5-28.6 54.3-8.6z"/><ellipse fill="#984e68" rx="1" ry="1" transform="matrix(-1.97163 -22.62354 24.51684 -2.13663 91.4 62.8)"/><ellipse rx="1" ry="1" transform="rotate(-176.1 54.3 10) scale(139.98152 19.1227)"/><ellipse fill="#e20014" cx="137" cy="117" rx="37" ry="9"/><ellipse rx="1" ry="1" transform="matrix(2.7915 17.96522 -49.80596 7.739 160 91.4)"/><path fill="#8882ff" d="M136.8 16.1l-6-12.6 16.4-7.6 6 12.6z"/><path fill="#c7bcff" d="M11 119h91v4H11z"/><path fill="#000f08" d="M0 79h86v32H0z"/><ellipse cx="191" cy="50" rx="13" ry="199"/><path fill="#ff1d2e" d="M47 36h9v45h-9z"/><path fill="#000b15" d="M0 124h61v9H0z"/><path d="M21 9h8v88h-8z"/><ellipse cx="43" cy="17" rx="4" ry="62"/><ellipse cx="138" cy="62" rx="4" ry="44"/><ellipse fill="red" rx="1" ry="1" transform="rotate(-98.5 110.7 -46.6) scale(15.34212 2.93154)"/><ellipse fill="#ff0001" cx="15" cy="60" rx="5" ry="21"/><ellipse rx="1" ry="1" transform="matrix(6.50943 -53.12145 2.3299 .2855 7.4 58)"/><path fill="red" d="M141 47h8v22h-8z"/><ellipse fill="red" rx="1" ry="1" transform="matrix(-4.40529 .20004 -.68988 -15.19228 131.5 66.4)"/><ellipse fill="#78000c" rx="1" ry="1" transform="matrix(40.8256 2.80406 -.53924 7.85105 148.7 131.8)"/></g></svg>