<svg xmlns="http://www.w3.org/2000/svg" viewBox="0 0 200 133"><filter id="b"><feGaussianBlur stdDeviation="12" /></filter><path fill="#998b85" d="M0 0h200v133H0z"/><g filter="url(#b)" transform="translate(.5 .5)" fill-opacity=".5"><ellipse fill="#110600" cx="149" cy="95" rx="144" ry="16"/><ellipse fill="#e4e6e7" cx="68" cy="21" rx="140" ry="36"/><ellipse fill="#6b3800" cx="187" cy="76" rx="18" ry="61"/><ellipse fill="#101214" rx="1" ry="1" transform="matrix(-11.83691 -5.36946 15.465 -34.09242 31.7 99.5)"/><ellipse fill="#f8b2ff" cx="2" cy="83" rx="13" ry="38"/><ellipse fill="#d7bf9c" cx="101" cy="124" rx="58" ry="24"/><path fill="#000009" d="M65 63h21v37H65z"/><ellipse fill="#131519" rx="1" ry="1" transform="matrix(11.09985 -6.28 10.68912 18.89295 133 74)"/><ellipse fill="#804530" rx="1" ry="1" transform="matrix(22.08526 .7024 -.2926 9.20011 44 32.4)"/><ellipse fill="#e7d9c4" cx="161" cy="30" rx="19" ry="55"/><ellipse fill="#090005" rx="1" ry="1" transform="matrix(-6.8548 -28.7734 6.55944 -1.56268 175.8 82)"/><path fill="#fff" d="M86 76l7.6 36.3 3.3-33.6-2-18.2z"/><path d="M95.4 99l15.1 3.9-2.7-36.2-9.5-5.5z"/><path fill="#44659a" d="M69 25h56v15H69z"/><ellipse fill="#e6edee" rx="1" ry="1" transform="matrix(63.29454 .254 -.04915 12.24858 86 8.8)"/><path d="M14 91h25v26H14z"/><path fill="#fdffff" d="M52.7 67l11 .1-.4 26-11-.2z"/><ellipse fill="#b1a88c" rx="1" ry="1" transform="rotate(102.3 52.4 138.6) scale(31.08405 15.8196)"/><path fill="#fffff2" d="M116 103.5h-6v-63h6z"/><path fill="#4b4a60" d="M87 71l6.2-13.2-.2-16-50.6 22.4z"/><path fill="#cab19a" d="M11 119h109v14H11z"/><ellipse fill="#010000" rx="1" ry="1" transform="matrix(-9.55976 -11.27248 6.78818 -5.7568 176.3 105)"/></g></svg>