<svg xmlns="http://www.w3.org/2000/svg" viewBox="0 0 200 133"><filter id="b"><feGaussianBlur stdDeviation="12" /></filter><path fill="#b8b199" d="M0 0h200v133H0z"/><g filter="url(#b)" transform="translate(.5 .5)" fill-opacity=".5"><ellipse fill="#5f3516" cx="156" cy="56" rx="91" ry="29"/><ellipse fill="#fff" rx="1" ry="1" transform="matrix(-57.10675 20.67236 -8.00973 -22.12663 56.4 103.5)"/><ellipse fill="#1a7900" cx="123" cy="131" rx="55" ry="25"/><ellipse fill="#fffbff" rx="1" ry="1" transform="matrix(8.42044 26.38471 -61.93865 19.76714 49.2 4.7)"/><ellipse fill="#ff9e00" rx="1" ry="1" transform="rotate(70.3 -46.7 54.2) scale(18.3403 23.3744)"/><ellipse fill="#fdffff" rx="1" ry="1" transform="matrix(-22.88114 -17.40876 9.11036 -11.97417 185.3 112)"/><ellipse fill="#f4e0bc" cx="138" cy="12" rx="15" ry="54"/><ellipse fill="#f5ffff" cx="69" cy="94" rx="29" ry="29"/><ellipse fill="#fff" rx="1" ry="1" transform="rotate(-85.5 116 -22.3) scale(6.75262 41.16102)"/><ellipse fill="#361b2c" rx="1" ry="1" transform="matrix(32.54808 8.867 -2.52476 9.26763 167.5 77)"/><path fill="#fffbf7" d="M2 42h50v22H2z"/><path fill="#000200" d="M94.4 75.6l-5.9-8 29.1-21.2 5.9 8z"/><ellipse fill="#f1fdff" rx="1" ry="1" transform="rotate(-130.5 42 57.9) scale(27.89993 64.47916)"/><ellipse fill="#eecf8b" rx="1" ry="1" transform="matrix(15.87968 3.90042 -4.87937 19.86525 198.4 62)"/><ellipse fill="#f26500" rx="1" ry="1" transform="matrix(-5.28096 5.03666 -22.05896 -23.1289 5.7 69.9)"/><path fill="#ff5803" d="M161 40h17v35h-17z"/><ellipse fill="#578609" cx="107" cy="124" rx="45" ry="10"/><ellipse fill="#627295" cx="185" cy="24" rx="20" ry="20"/><ellipse fill="#471d23" rx="1" ry="1" transform="matrix(-14.85752 8.96981 -5.42268 -8.98209 76 53.4)"/><ellipse fill="#a0550e" cx="15" cy="7" rx="8" ry="8"/><ellipse fill="#d6e9ff" cx="165" rx="31" ry="10"/><path fill="#ffb700" d="M28 60l-44 56 65-39z"/></g></svg>