<svg xmlns="http://www.w3.org/2000/svg" viewBox="0 0 641 195"><filter id="b"><feGaussianBlur stdDeviation="12" /></filter><path fill="#2d3013" d="M0 0h641v192H0z"/><g filter="url(#b)" transform="translate(1.3 1.3) scale(2.5039)" fill-opacity=".5"><path fill="#ff8dff" d="M188 6.2l-23-2.4 1-10 23 2.4z"/><path fill="#ff8cff" d="M128.2-.2l-4.2 8L109.8.1l4.2-8z"/><ellipse fill="#061400" cx="241" cy="39" rx="37" ry="37"/><ellipse fill="#474c3d" cx="52" cy="17" rx="22" ry="32"/><path fill="#996343" d="M143.7 64.5l-57-4.6 4.4 13.4 29-7.6z"/><path fill="#00db1c" d="M90 38h11v16H90z"/><path fill="#ff74ff" d="M257 2l4-10-35 6z"/><path fill="#00ce0e" d="M229 46h8v18h-8z"/><path fill="#cd823a" d="M202 83.7l-13-18.2L173.2 88l60.7-16.7z"/><path fill="#e165ea" d="M64 4L36-12l42 7z"/><ellipse fill="#2c9330" cx="126" cy="41" rx="5" ry="18"/><ellipse fill="#009e1c" rx="1" ry="1" transform="matrix(-6.53449 1.55714 -2.2039 -9.2486 163 48.6)"/><path fill="#4e4b1b" d="M113 5h29v37h-29z"/><ellipse fill="#001500" rx="1" ry="1" transform="matrix(24.37493 3.54594 -1.04984 7.21666 192.5 54.2)"/><path fill="#020001" d="M13 71h79v6H13z"/><ellipse fill="#6d3a12" rx="1" ry="1" transform="matrix(10.38804 2.26079 -2.92214 13.42688 222.6 74.9)"/><ellipse fill="#000100" cx="254" cy="59" rx="9" ry="58"/><ellipse fill="#0b1c04" cx="85" rx="10" ry="58"/><ellipse fill="#8889ae" rx="1" ry="1" transform="matrix(1.96364 .43173 -1.95125 8.8748 110.1 69.5)"/><path fill="#03761c" d="M202.3 34.8l3.3 20.8-9.9 1.6-3.3-20.8z"/><ellipse fill="#475328" rx="1" ry="1" transform="rotate(86.9 -10 40.4) scale(16.96588 10.90446)"/><ellipse fill="#f76d00" rx="1" ry="1" transform="matrix(-.99414 .10808 -.92245 -8.48472 99.2 63.2)"/></g></svg>