<svg xmlns="http://www.w3.org/2000/svg" viewBox="0 0 700 467"><filter id="b"><feGaussianBlur stdDeviation="12" /></filter><path fill="#686458" d="M0 0h700v464H0z"/><g filter="url(#b)" transform="translate(1.4 1.4) scale(2.73438)" fill-opacity=".5"><ellipse fill="#adc8e3" cx="144" cy="169" rx="81" ry="81"/><ellipse fill="#060000" cx="160" cy="90" rx="31" ry="51"/><ellipse fill="#f2ffff" cx="62" cy="165" rx="23" ry="62"/><ellipse rx="1" ry="1" transform="matrix(-27.5735 15.5377 -60.40692 -107.19926 234.7 33.3)"/><path fill="#040000" d="M-16 58l61-74 10 148z"/><ellipse fill="#fff" cx="199" cy="159" rx="28" ry="28"/><ellipse fill="#feffff" cx="128" cy="163" rx="25" ry="42"/><ellipse fill="#0a0000" cx="146" cy="1" rx="18" ry="33"/><ellipse fill="#ffffa2" rx="1" ry="1" transform="rotate(62.9 52.4 96.6) scale(26.33951 9.98708)"/><path fill="#4c4e54" d="M134 89L52 67l44 105z"/><ellipse fill="#cff8ff" cx="59" cy="159" rx="27" ry="27"/><ellipse fill="#eaae91" rx="1" ry="1" transform="matrix(-8.50873 -.1066 .23147 -18.47512 144.6 51.1)"/><ellipse rx="1" ry="1" transform="matrix(7.30324 -.00286 .00735 18.74183 159.9 146)"/><path fill="#fff" d="M140 106l-20-2 8 27z"/><ellipse fill="#e3ffff" rx="1" ry="1" transform="matrix(-10.79447 3.40348 -14.18982 -45.00435 212.4 152)"/><path fill="#ffffb2" d="M183.2 17.4l-21-.8.6-18 21 .8z"/><path fill="#000025" d="M160 117l-25-77-14 56z"/><path fill="#251400" d="M187.6 141.6l-34-107-26.4-15.4 58.3 1.1z"/><ellipse fill="#c9beba" cx="61" cy="60" rx="20" ry="11"/><path fill="#ded398" d="M32.5 151.5v35h-61v-35z"/><ellipse fill="#8b6507" cx="85" cy="19" rx="26" ry="26"/><path fill="#251300" d="M252-2.3l2 108-36 .6-2-108z"/></g></svg>