<svg xmlns="http://www.w3.org/2000/svg" viewBox="0 0 200 133"><filter id="b"><feGaussianBlur stdDeviation="12" /></filter><path fill="#6f5247" d="M0 0h200v133H0z"/><g filter="url(#b)" transform="translate(.5 .5)" fill-opacity=".5"><ellipse fill="#fff" rx="1" ry="1" transform="matrix(-32.61735 .68324 -.6655 -31.77097 188.3 122)"/><ellipse fill="#d9cdc4" rx="1" ry="1" transform="matrix(17.67056 56.73362 -16.66 5.18901 70 81.6)"/><ellipse fill="#000820" cx="28" cy="94" rx="28" ry="25"/><ellipse fill="#5a0c00" cx="183" cy="28" rx="60" ry="60"/><ellipse fill="#ffc7ad" cx="113" cy="53" rx="15" ry="22"/><ellipse fill="#060100" cx="137" cy="126" rx="12" ry="192"/><ellipse fill="#2e1c11" cx="54" cy="19" rx="34" ry="34"/><ellipse fill="#fffff2" cx="177" cy="132" rx="23" ry="29"/><path fill="#cd8b7e" d="M165.6 29.5l8.7 70.5-19.9 2.5-8.7-70.5z"/><path fill="#cec9cc" d="M94 69l-110-6 85-18z"/><ellipse fill="#f4ae9b" cx="54" cy="28" rx="12" ry="14"/><ellipse fill="#000f1b" rx="1" ry="1" transform="matrix(-6.03632 -20.24845 16.89275 -5.03595 52.3 123)"/><ellipse fill="#b80000" cx="178" cy="77" rx="15" ry="23"/><path d="M85 22.9l21.9 9.7L95 59.1l-22-9.7z"/><ellipse fill="#000200" rx="1" ry="1" transform="matrix(10.79556 -10.73754 17.1432 17.23583 152.7 12.1)"/><ellipse fill="#000004" cx="14" rx="77" ry="9"/><path fill="#240200" d="M84 89L74 77l28-32z"/><path fill="#ffcfaf" d="M-15-12l2 66 34 19z"/><ellipse fill="#ffc7ac" cx="21" cy="129" rx="13" ry="13"/><path fill="#ebb496" d="M184 8h12v18h-12z"/><path fill="#ffd7bf" d="M89.9 85.1l-3.6-7L112 64.8l3.6 7z"/><ellipse fill="#b0d1f6" rx="1" ry="1" transform="rotate(-164.9 36.3 31.3) scale(7.98716 24.39132)"/></g></svg>