<svg xmlns="http://www.w3.org/2000/svg" viewBox="0 0 200 133"><filter id="b"><feGaussianBlur stdDeviation="12" /></filter><path fill="#36385c" d="M0 0h200v133H0z"/><g filter="url(#b)" transform="translate(.5 .5)" fill-opacity=".5"><ellipse fill="#a397c6" rx="1" ry="1" transform="matrix(-3.36888 49.6973 -56.78564 -3.84939 104.7 81)"/><ellipse rx="1" ry="1" transform="matrix(-114.0483 -5.37838 1.52358 -32.3075 71.2 0)"/><ellipse fill="#000025" cx="10" cy="51" rx="39" ry="39"/><path d="M76 100h41v13H76z"/><path fill="#fffffc" d="M168 93h12v23h-12z"/><ellipse fill="#e0edd9" cx="27" cy="108" rx="9" ry="16"/><ellipse fill="#000062" rx="1" ry="1" transform="matrix(25.01403 -2.99758 6.64958 55.48914 186.4 45)"/><ellipse fill="#ca86cd" rx="1" ry="1" transform="rotate(61.7 -3.4 79.9) scale(10.28839 23.84333)"/><path d="M-4 12l-12 109 48 27zm188 39h16v82h-16z"/><ellipse fill="#0c2cac" cx="105" cy="57" rx="20" ry="20"/><ellipse fill="#1331e0" rx="1" ry="1" transform="matrix(10.53424 14.76482 -16.90077 12.05817 189 28)"/><ellipse rx="1" ry="1" transform="matrix(-2.0514 8.03293 -30.94245 -7.90191 63.2 132)"/><path fill="#e2dcbd" d="M141 101.8l-15.6 10.9L111 92.2l15.6-10.9z"/><path fill="#dbe2e5" d="M62 83l13 46 16-2z"/><ellipse cx="148" cy="132" rx="18" ry="14"/><path fill="#00000c" d="M114.9 28.3l8.7-35 49.5 12.4-8.7 35z"/><path fill="#f6f8ff" d="M96 116h17v13H96z"/><ellipse fill="#000017" cx="76" cy="10" rx="105" ry="21"/><path fill="#7c6cc5" d="M127 38h36v34h-36z"/><ellipse cx="169" cy="63" rx="6" ry="33"/><path d="M32.8 51.5l-1 44.4-1.4-3.2 26.3 4.8z"/></g></svg>