<svg xmlns="http://www.w3.org/2000/svg" viewBox="0 0 700 467"><filter id="b"><feGaussianBlur stdDeviation="12" /></filter><path fill="#252f33" d="M0 0h700v464H0z"/><g filter="url(#b)" transform="translate(1.4 1.4) scale(2.73438)" fill-opacity=".5"><ellipse fill="#c4a889" rx="1" ry="1" transform="rotate(-158.3 42.7 17.8) scale(68.14619 24.15975)"/><ellipse fill="#b7947d" rx="1" ry="1" transform="matrix(42.91002 7.17658 -3.14182 18.7855 189.8 49.8)"/><ellipse rx="1" ry="1" transform="matrix(10.93039 -58.47898 135.06222 25.24467 88.2 134.3)"/><ellipse fill="#008afc" rx="1" ry="1" transform="matrix(138.08142 4.82191 -.45662 13.07594 141.8 0)"/><path fill="#b9b5b5" d="M97.9 122.6l13-44.7 5.6-48.6-34.6 20.8z"/><ellipse rx="1" ry="1" transform="matrix(108.9824 -37.31302 7.6087 22.22321 225 113)"/><ellipse fill="#e1d2ad" cx="29" cy="60" rx="19" ry="5"/><path fill="#898780" d="M166 21h18v80h-18z"/><ellipse fill="#083d62" rx="1" ry="1" transform="matrix(-12.15246 -26.1349 18.78027 -8.73263 67.8 14.4)"/><ellipse fill="#000008" rx="1" ry="1" transform="matrix(5.46801 -55.59494 7.49881 .73754 193 84.8)"/><path fill="#947c6b" d="M245.9 168.6l10-8.5-8.3-28.5L217 141z"/><ellipse fill="#000408" cx="59" cy="83" rx="26" ry="26"/><path fill="#8fa7c8" d="M72 110h16v15H72z"/><ellipse fill="#00080f" rx="1" ry="1" transform="matrix(17.48267 -10.7134 20.2659 33.07093 159.7 92.2)"/><ellipse fill="#a98e6f" rx="1" ry="1" transform="rotate(32.7 -40.9 53.5) scale(25.05178 16.58964)"/><path fill="#caa786" d="M211 41h12v40h-12z"/><path fill="#c0dbe4" d="M115 76h23v8h-23z"/><ellipse fill="#9abed3" cx="169" cy="93" rx="7" ry="7"/><ellipse cx="30" cy="106" rx="41" ry="41"/><path fill="#91b9dc" d="M202.2 85.8l11-.6.6 13-11 .6z"/><path fill="#f8dcba" d="M166 164h10v6h-10z"/><path fill="#160100" d="M4 77l17-65-37 40z"/></g></svg>