<svg xmlns="http://www.w3.org/2000/svg" viewBox="0 0 700 467"><filter id="b"><feGaussianBlur stdDeviation="12" /></filter><path fill="#848d8d" d="M0 0h700v464H0z"/><g filter="url(#b)" transform="translate(1.4 1.4) scale(2.73438)" fill-opacity=".5"><ellipse rx="1" ry="1" transform="matrix(3.51859 -74.61149 27.24235 1.28472 103.5 113.7)"/><ellipse rx="1" ry="1" transform="matrix(25.28462 -2.10824 6.06822 72.7776 222 138.2)"/><path fill="#fff" d="M-21.7 181.6l4.4-255 97 1.8-4.4 255z"/><ellipse fill="#fff" rx="1" ry="1" transform="matrix(-17.45096 -15.06723 36.05935 -41.76418 77 21.2)"/><ellipse fill="#e4ffff" rx="1" ry="1" transform="matrix(-12.46944 4.81156 -24.63646 -63.84689 168 37.9)"/><ellipse fill="#283b4a" cx="150" cy="125" rx="20" ry="76"/><ellipse fill="#000001" cx="236" cy="148" rx="36" ry="36"/><ellipse fill="#030709" rx="1" ry="1" transform="rotate(-102.7 98.5 20.6) scale(79.14521 21.53764)"/><ellipse fill="#162b23" rx="1" ry="1" transform="rotate(-2 2530 -705.7) scale(3.64345 115.0019)"/><path fill="#fffffb" d="M222.4-10.3l.5 56.5L245 90.7 240.4 2z"/><ellipse fill="#2a312f" cx="207" cy="36" rx="15" ry="103"/><ellipse fill="#fff" cx="60" cy="150" rx="19" ry="102"/><ellipse fill="#a7dede" cx="182" cy="134" rx="13" ry="161"/><path fill="#fff" d="M117 0h10v51h-10z"/><ellipse fill="#fffffd" rx="1" ry="1" transform="matrix(-2.08904 35.16253 -3.75498 -.22309 128 148.6)"/><path fill="#fff" d="M149 0h20v52h-20z"/><ellipse fill="#fffdfc" rx="1" ry="1" transform="rotate(-35 70.6 -104.4) scale(21.1096 29.85071)"/><ellipse fill="#d23901" cx="144" cy="102" rx="24" ry="10"/><ellipse fill="#000305" rx="1" ry="1" transform="matrix(16.64742 23.08431 -15.04394 10.84905 97.2 139.3)"/><path fill="#b3d0bd" d="M110.7-5.6l-4.2 73-6.5-25.6 15.5 40.4z"/><ellipse fill="#2f6f89" cx="138" rx="11" ry="86"/><ellipse fill="#7e847f" cx="208" cy="77" rx="12" ry="16"/></g></svg>