<svg xmlns="http://www.w3.org/2000/svg" viewBox="0 0 200 133"><filter id="b"><feGaussianBlur stdDeviation="12" /></filter><path fill="#7c7879" d="M0 0h200v133H0z"/><g filter="url(#b)" transform="translate(.5 .5)" fill-opacity=".5"><ellipse rx="1" ry="1" transform="matrix(8.3697 53.58405 -66.07034 10.32003 45.6 19.8)"/><ellipse fill="azure" cx="136" cy="132" rx="70" ry="70"/><ellipse fill="#e4ede8" rx="1" ry="1" transform="matrix(46.49398 15.55667 -6.45025 19.27776 59.5 107.3)"/><ellipse fill="#56483b" cx="128" cy="61" rx="56" ry="29"/><ellipse fill="#002" rx="1" ry="1" transform="matrix(6.87303 11.80905 -19.87912 11.56992 180.3 40)"/><ellipse fill="#d0d4fc" cx="161" cy="11" rx="39" ry="17"/><ellipse fill="#080000" rx="1" ry="1" transform="matrix(-16.2227 23.51613 -54.55242 -37.6332 41.5 13.4)"/><ellipse fill="#1d0000" rx="1" ry="1" transform="rotate(171.1 -2.1 47.4) scale(10.73732 31.38495)"/><path fill="#fff" d="M176 70l39 14-11-45z"/><path fill="#f9ffff" d="M219 123.4l-6.7 37.5-115.2-20.3 6.6-37.5z"/><ellipse fill="#61c1ff" rx="1" ry="1" transform="matrix(12.05142 6.58318 -4.26863 7.81432 30.7 48.3)"/><path fill="#100" d="M188.9-15.9L196 4l-32.9 12L156-4z"/><ellipse fill="#5464ff" cx="7" cy="65" rx="22" ry="8"/><ellipse rx="1" ry="1" transform="matrix(-14.58612 -12.8361 29.37666 -33.38175 0 38)"/><ellipse fill="#c7831b" rx="1" ry="1" transform="rotate(-167.8 14.1 65.2) scale(38.27814 17.83929)"/><path fill="#cddce5" d="M103 37h19v18h-19z"/><ellipse fill="#b3c6ff" cx="153" cy="9" rx="10" ry="30"/><ellipse fill="#9e8b78" cx="163" cy="80" rx="15" ry="36"/><path fill="#fff" d="M186 6h14v16h-14z"/><ellipse fill="#f9ffff" cx="143" cy="110" rx="15" ry="15"/><ellipse fill="#542c05" cx="89" cy="11" rx="31" ry="31"/><path fill="#303525" d="M90 83.9l52.4-12.3-37.2-6.7-20.1 16.2z"/></g></svg>