<svg xmlns="http://www.w3.org/2000/svg" viewBox="0 0 700 467"><filter id="b"><feGaussianBlur stdDeviation="12" /></filter><path fill="#aba8a5" d="M0 0h700v464H0z"/><g filter="url(#b)" transform="translate(1.4 1.4) scale(2.73438)" fill-opacity=".5"><ellipse fill="#4d130e" cx="32" cy="71" rx="23" ry="22"/><ellipse fill="#323632" rx="1" ry="1" transform="matrix(-13.90162 17.9585 -21.81445 -16.88649 228.4 45.5)"/><ellipse rx="1" ry="1" transform="matrix(-5.6694 3.44293 -26.48257 -43.60826 7.9 169)"/><ellipse fill="#cde7ec" rx="1" ry="1" transform="matrix(-17.25982 23.44169 -94.33045 -69.45432 43.6 143.8)"/><ellipse fill="#563f20" rx="1" ry="1" transform="matrix(-5.09413 -18.74953 21.56884 -5.86012 85 113)"/><ellipse fill="#d8e2e2" cx="193" cy="152" rx="94" ry="77"/><ellipse fill="#48312d" cx="92" cy="44" rx="22" ry="15"/><ellipse fill="#7a6a66" cx="170" cy="25" rx="41" ry="31"/><path fill="#27302d" d="M249 91l-9-38 31 57z"/><path fill="#6c2202" d="M30 54.2l-9.8 7L6.1 41.8l9.7-7z"/><ellipse fill="#e4b9b5" cx="130" cy="75" rx="29" ry="29"/><ellipse fill="#eda294" cx="194" cy="95" rx="22" ry="22"/><ellipse fill="#8a7a67" rx="1" ry="1" transform="matrix(15.5954 -2.253 2.98284 20.64735 50.9 23)"/><path d="M14 165l-9 20-21-60z"/><path fill="#7a645f" d="M77.6 23.5L90 13.2l30 21.6L66.3 55z"/><ellipse fill="#2a0907" cx="36" cy="81" rx="9" ry="9"/><path fill="#bcbfc6" d="M37 66l-53 8V40z"/><ellipse fill="#c3c9ca" cx="164" cy="76" rx="15" ry="31"/><path fill="#938870" d="M103 91L85 74l-33 43z"/><ellipse fill="#d8c2c4" rx="1" ry="1" transform="matrix(-2.52035 13.53017 -30.96058 -5.76722 89.3 5)"/><path fill="#b76b2d" d="M190 59h13v17h-13z"/><path fill="#4b433d" d="M215.5-16l10.1 19.9-42-6 1.8 21.4z"/></g></svg>