<svg xmlns="http://www.w3.org/2000/svg" viewBox="0 0 700 467"><filter id="b"><feGaussianBlur stdDeviation="12" /></filter><path fill="#4a4376" d="M0 0h700v464H0z"/><g filter="url(#b)" transform="translate(1.4 1.4) scale(2.73438)" fill-opacity=".5"><ellipse fill="#fff4ff" cx="164" cy="146" rx="207" ry="38"/><ellipse cx="46" cy="42" rx="78" ry="74"/><ellipse fill="#000021" cx="201" cy="49" rx="58" ry="58"/><ellipse fill="#fff" rx="1" ry="1" transform="matrix(19.71613 -.30244 .45581 29.71485 132.5 80)"/><ellipse rx="1" ry="1" transform="matrix(-22.16281 -6.80665 5.13845 -16.73106 96.2 169)"/><ellipse rx="1" ry="1" transform="matrix(-33.80615 -46.86163 81.87745 -59.06668 50.1 41.5)"/><ellipse fill="#b4b8ff" cx="232" cy="136" rx="178" ry="31"/><ellipse fill="#000069" cx="195" cy="12" rx="81" ry="41"/><ellipse fill="#2d317a" cx="190" cy="132" rx="82" ry="7"/><ellipse fill="#000009" rx="1" ry="1" transform="matrix(31.03314 -38.59745 19.31058 15.5261 183.6 67.6)"/><path d="M79 82.4l37 1.3-1 30-37-1.4z"/><ellipse fill="#c093ff" rx="1" ry="1" transform="matrix(-7.87208 -24.77164 73.53446 -23.36822 27.4 147.4)"/><path fill="#d0cfff" d="M127.8 30.6L150.5 69l-15.3 116-17.9-86z"/><ellipse fill="#000030" rx="1" ry="1" transform="rotate(-67.3 176.5 10.1) scale(13.84739 26.75561)"/><ellipse fill="#f3ecff" cx="255" cy="113" rx="82" ry="10"/><path fill="#0000b3" d="M123.9 137l-1.7-5.1-27.5 3.7L69.4 152z"/><path fill="#7b91f7" d="M229.4 73L217.2 1.9 266.9 23l-62-26z"/><ellipse fill="#d6d7ff" cx="210" cy="154" rx="77" ry="15"/><ellipse fill="#000009" cx="58" cy="63" rx="52" ry="52"/><ellipse fill="#000016" rx="1" ry="1" transform="matrix(-6.03357 -28.10804 13.32559 -2.86042 245 75.4)"/><ellipse fill="#0083da" rx="1" ry="1" transform="rotate(170.2 126.6 21.2) scale(8.91601 54.35621)"/><path fill="#f0eafa" d="M132 45l-25 30 46 3z"/></g></svg>