<svg xmlns="http://www.w3.org/2000/svg" viewBox="0 0 200 133"><filter id="b"><feGaussianBlur stdDeviation="12" /></filter><path fill="#971e60" d="M0 0h200v133H0z"/><g filter="url(#b)" transform="translate(.5 .5)" fill-opacity=".5"><ellipse fill="#ff1cff" rx="1" ry="1" transform="matrix(21.34935 35.32871 -83.92083 50.71385 62.9 8)"/><ellipse fill="#000e0c" rx="1" ry="1" transform="rotate(-88.9 76 33.9) scale(38.17816 24.32963)"/><ellipse fill="#5f2517" cx="183" cy="91" rx="97" ry="97"/><path fill="#ff0826" d="M166.2 126L127 65.4 153.8 48l39.2 60.4z"/><ellipse fill="#a2dcbf" rx="1" ry="1" transform="rotate(122.8 85.7 65.5) scale(11.19795 29.44462)"/><ellipse fill="#f1f" rx="1" ry="1" transform="matrix(6.05063 37.68406 -63.93338 10.26527 49.2 7)"/><path fill="#ff0024" d="M57 89l109-23-107-9z"/><ellipse fill="#330d22" rx="1" ry="1" transform="matrix(1.42336 -18.4982 58.75953 4.5213 99.6 103.7)"/><ellipse fill="#150016" cx="147" cy="21" rx="17" ry="30"/><ellipse fill="#d169ca" cx="83" cy="36" rx="22" ry="22"/><ellipse fill="#ff2d4a" cx="154" cy="76" rx="21" ry="21"/><ellipse fill="#ff3e58" rx="1" ry="1" transform="matrix(-18.36062 5.8155 -8.5949 -27.13572 0 82.3)"/><path fill="#ff3b41" d="M130 93l-17 23 25 3z"/><ellipse fill="#350e29" cx="199" cy="88" rx="21" ry="37"/><ellipse fill="#ac2d9f" cx="37" cy="127" rx="92" ry="4"/><ellipse fill="#33143d" rx="1" ry="1" transform="matrix(11.26178 14.54381 -18.35304 14.2114 101.7 91.5)"/><path fill="#ff0027" d="M189.2 95L153 82.5l57.6 29.9 4.4-15.5z"/><path fill="#dbc6a7" d="M165 66.8l11-.6 1 19-11 .6z"/><ellipse fill="#856f44" rx="1" ry="1" transform="matrix(-5.15771 2.60617 -8.76355 -17.34342 34 74.9)"/><ellipse fill="#ff00ea" cx="36" rx="39" ry="39"/><path fill="#e8001a" d="M83.2 105.7l-33 8.8 32.4 7.2-4.4-16.4z"/><path fill="#03041b" d="M136 101h24v23h-24z"/></g></svg>