<svg xmlns="http://www.w3.org/2000/svg" viewBox="0 0 700 467"><filter id="b"><feGaussianBlur stdDeviation="12" /></filter><path fill="#4d3876" d="M0 0h700v464H0z"/><g filter="url(#b)" transform="translate(1.4 1.4) scale(2.73438)" fill-opacity=".5"><ellipse fill="#b68de2" cx="135" cy="82" rx="103" ry="56"/><ellipse rx="1" ry="1" transform="matrix(-2.25059 26.68255 -174.43396 -14.71296 86.7 153.1)"/><path fill="#000039" d="M0 0h83v90H0z"/><ellipse fill="#ef8bfe" rx="1" ry="1" transform="matrix(1.07332 -15.74396 93.81602 6.39573 215.8 122.4)"/><ellipse fill="#fe83ff" cx="5" cy="108" rx="75" ry="15"/><ellipse fill="#000038" rx="1" ry="1" transform="matrix(3.4978 -23.82611 246.27039 36.15381 241 19.4)"/><ellipse fill="#dddbe0" rx="1" ry="1" transform="rotate(-85.3 88.6 -43) scale(26.30765 40.49039)"/><ellipse fill="#00004d" rx="1" ry="1" transform="matrix(-67.05975 .96095 -.19555 -13.6461 225.4 74.7)"/><ellipse cx="255" cy="49" rx="18" ry="58"/><ellipse fill="#fffbff" cx="141" cy="89" rx="49" ry="6"/><ellipse rx="1" ry="1" transform="rotate(-85.6 142 29.7) scale(25.32071 151.93178)"/><path fill="#e5fdff" d="M219 71.8L187.8 61l7.2-20.8L226.2 51z"/><path fill="#01008f" d="M164 15h25v69h-25z"/><path fill="#00004a" d="M132 39h18v15h-18z"/><ellipse fill="#090071" cx="100" cy="76" rx="145" ry="6"/><ellipse fill="#000050" cy="31" rx="62" ry="62"/><ellipse fill="#fbc8f3" rx="1" ry="1" transform="rotate(18.2 -281.2 528.7) scale(12.3986 24.23998)"/><path fill="#775c66" d="M185 99h25v57h-25z"/><ellipse rx="1" ry="1" transform="matrix(4.41078 -29.28114 76.96868 11.59422 6.6 148.1)"/><path fill="#f3ffff" d="M96 55h63v16H96z"/><path fill="#000026" d="M213 93l6-20 15 43z"/><path fill="#ff96ff" d="M47 112h57v11H47z"/></g></svg>