<svg xmlns="http://www.w3.org/2000/svg" viewBox="0 0 200 133"><filter id="b"><feGaussianBlur stdDeviation="12" /></filter><path fill="#5b4044" d="M0 0h200v133H0z"/><g filter="url(#b)" transform="translate(.5 .5)" fill-opacity=".5"><ellipse fill="#e57670" cx="99" cy="16" rx="77" ry="54"/><ellipse cx="194" cy="93" rx="43" ry="37"/><ellipse cx="9" cy="52" rx="15" ry="110"/><ellipse fill="#ffdacd" cx="161" cy="23" rx="13" ry="42"/><ellipse rx="1" ry="1" transform="matrix(-8.02202 -1.01342 13.63206 -107.90888 89.1 39.6)"/><path d="M126 0h20v34h-20z"/><ellipse fill="#005483" cx="121" cy="85" rx="30" ry="30"/><ellipse fill="#b57e96" rx="1" ry="1" transform="matrix(-43.32232 -3.86973 2.13202 -23.86837 127.4 127.6)"/><ellipse cx="52" cy="6" rx="7" ry="63"/><ellipse rx="1" ry="1" transform="matrix(7.59962 127.91623 -10.24877 .60889 186.3 70.7)"/><ellipse fill="#ff1e2f" cx="34" cy="23" rx="12" ry="42"/><path fill="#ffa1a3" d="M60 0h23v59H60z"/><path fill="#ffc1bc" d="M101 0h24v53h-24z"/><ellipse fill="#c4b5ab" cx="157" cy="54" rx="28" ry="11"/><ellipse fill="#003853" cx="47" cy="86" rx="30" ry="26"/><ellipse fill="#000003" cx="121" cy="106" rx="5" ry="46"/><ellipse cy="71" rx="20" ry="178"/><path d="M82 0h19v30H82zm77 62h35v69h-35zM126 0h21v33h-21z"/><path fill="#0c92ff" d="M101 63h11v40h-11z"/><ellipse fill="#b5aacf" cx="147" cy="115" rx="10" ry="15"/></g></svg>