<svg xmlns="http://www.w3.org/2000/svg" viewBox="0 0 700 467"><filter id="b"><feGaussianBlur stdDeviation="12" /></filter><path fill="#39353a" d="M0 0h700v464H0z"/><g filter="url(#b)" transform="translate(1.4 1.4) scale(2.73438)" fill-opacity=".5"><ellipse fill="#76e2ff" rx="1" ry="1" transform="matrix(2.84072 -28.4603 84.53845 8.43806 123.3 52.6)"/><ellipse fill="#040000" cx="235" cy="69" rx="30" ry="255"/><ellipse rx="1" ry="1" transform="rotate(-93.4 24.3 4.8) scale(45.17462 23.47458)"/><ellipse rx="1" ry="1" transform="matrix(-1.3449 15.06921 -156.21303 -13.94164 158.2 14)"/><ellipse fill="#873941" rx="1" ry="1" transform="matrix(134.00658 8.09465 -1.20739 19.98826 153.9 93.8)"/><ellipse fill="#210000" rx="1" ry="1" transform="rotate(-3.7 2670.5 -1321) scale(255 22.54225)"/><ellipse fill="#189ec4" cx="58" cy="49" rx="17" ry="30"/><ellipse fill="#926d6a" rx="1" ry="1" transform="matrix(31.98677 -.1086 .04727 13.9221 65.6 120.3)"/><ellipse fill="#a2b8bc" cx="130" cy="54" rx="42" ry="17"/><ellipse rx="1" ry="1" transform="matrix(95.14238 148.6289 -31.30447 20.03905 230 11.5)"/><ellipse fill="#2197b7" cx="192" cy="57" rx="15" ry="23"/><ellipse cx="8" cy="35" rx="36" ry="36"/><ellipse fill="#cc1d26" cx="100" cy="85" rx="69" ry="6"/><path fill="#008fcb" d="M90.4 63l-.8 16-38-2 .8-16z"/><ellipse fill="#b30e10" cx="11" cy="78" rx="35" ry="8"/><ellipse fill="#100000" cx="1" cy="151" rx="20" ry="66"/><path fill="#8c7073" d="M133 82l21 27-36 40z"/><ellipse fill="#524441" rx="1" ry="1" transform="matrix(3.36266 14.68214 -50.80293 11.63542 209 122.9)"/><ellipse fill="#0080b5" cx="190" cy="75" rx="18" ry="7"/><ellipse fill="#280000" rx="1" ry="1" transform="matrix(2.18664 16.4043 -204.1258 27.20926 83 169)"/><path fill="#960309" d="M187 81h65v13h-65z"/><path fill="#88a3ac" d="M93 24L60 40 42 18z"/></g></svg>