<svg xmlns="http://www.w3.org/2000/svg" viewBox="0 0 200 133"><filter id="b"><feGaussianBlur stdDeviation="12" /></filter><path fill="#675550" d="M0 0h200v133H0z"/><g filter="url(#b)" transform="translate(.5 .5)" fill-opacity=".5"><ellipse fill="#c3f6ff" cx="104" cy="59" rx="43" ry="27"/><ellipse cx="58" rx="199" ry="35"/><ellipse fill="#c39556" cx="175" cy="73" rx="43" ry="43"/><ellipse cx="112" cy="132" rx="199" ry="17"/><ellipse fill="#e0fbff" cx="109" cy="55" rx="33" ry="15"/><ellipse fill="#945e50" rx="1" ry="1" transform="matrix(-1.64684 -21.89136 117.82475 -8.8637 105.7 92.3)"/><path fill="#ada49b" d="M1.7 37.2l44.4-7 4.2 26.6-44.4 7z"/><path fill="#6fa9ff" d="M61 35h82v17H61z"/><path fill="#e5b8ba" d="M76 86h21v30H76z"/><ellipse rx="1" ry="1" transform="matrix(-29.50756 8.64247 -6.5761 -22.45244 24.4 12.8)"/><ellipse fill="#816764" rx="1" ry="1" transform="matrix(3.34013 -10.92506 26.13127 7.98913 102.3 21.4)"/><path fill="#bcb595" d="M167.2 21L213 49.5 200.8 69 155 40.4z"/><path fill="#3e0900" d="M200.6 139.2l-44.2-50.4-13.7 1.2 26.8 52.7z"/><ellipse cx="189" cy="7" rx="20" ry="24"/><ellipse fill="#210003" rx="1" ry="1" transform="rotate(3 -2486 1111.9) scale(98.76563 14.82734)"/><path fill="#cdabb7" d="M75 104h67v8H75z"/><path fill="#5d4e53" d="M66 71h74v34H66z"/><ellipse fill="#eaafad" cx="70" cy="87" rx="32" ry="4"/><ellipse fill="#e3ebed" rx="1" ry="1" transform="matrix(28.20474 -7.03223 2.28549 9.1666 97.9 57.8)"/><ellipse fill="#e18d6e" cx="17" cy="108" rx="45" ry="4"/><ellipse fill="#ab92a1" rx="1" ry="1" transform="matrix(-1.9994 4.04055 -7.87835 -3.89846 153.9 118.3)"/><path fill="#72b0ff" d="M62 36h19v34H62z"/></g></svg>