<svg xmlns="http://www.w3.org/2000/svg" viewBox="0 0 200 133"><filter id="b"><feGaussianBlur stdDeviation="12" /></filter><path fill="#510726" d="M0 0h200v133H0z"/><g filter="url(#b)" transform="translate(.5 .5)" fill-opacity=".5"><ellipse fill="#f5111f" rx="1" ry="1" transform="matrix(-57.67475 1.20811 -.64855 -30.96156 111.4 73)"/><ellipse fill="#000004" rx="1" ry="1" transform="matrix(32.30252 13.97855 -62.90443 145.36355 13.9 63)"/><ellipse fill="#b392a8" rx="1" ry="1" transform="matrix(9.3418 .60382 -2.4031 37.1785 79 100.2)"/><ellipse fill="#c300a0" cx="144" cy="132" rx="24" ry="24"/><path fill="#100001" d="M236.4 90.9L165 106.1l-19.4-91L217-.1z"/><ellipse fill="#7f06f5" rx="1" ry="1" transform="matrix(3.46178 10.97937 -10.079 3.1779 111.9 7.8)"/><ellipse fill="#c6000c" cx="114" cy="60" rx="69" ry="16"/><path fill="#c16398" d="M34 113h54v8H34z"/><path fill="#12101b" d="M97 81h19v52H97z"/><ellipse fill="#5100a3" rx="1" ry="1" transform="matrix(1.02673 8.87374 -19.61819 2.2699 167.3 6.5)"/><ellipse fill="#0a003f" rx="1" ry="1" transform="matrix(-19.09837 12.83357 -13.01128 -19.36283 86 19.4)"/><ellipse fill="#00010e" rx="1" ry="1" transform="matrix(-22.9088 -.9102 6.32415 -159.17289 10.9 81.2)"/><path fill="#5c0065" d="M10 23h41v17H10z"/><ellipse fill="#b9d6d9" cx="82" cy="77" rx="7" ry="7"/><ellipse fill="#00000c" cx="193" cy="33" rx="10" ry="39"/><path fill="#bb021d" d="M156 102l7-32-63 44z"/><path fill="#d900de" d="M149 32l-15-3 1-13z"/><ellipse fill="#850008" cx="54" cy="80" rx="15" ry="24"/><ellipse fill="#240719" rx="1" ry="1" transform="matrix(13.7298 -11.72635 34.10087 39.927 194.3 120)"/><ellipse fill="#72000b" cx="170" cy="59" rx="20" ry="20"/><path fill="#1a004f" d="M134.1 14l1.7 24-30 2-1.6-24z"/><ellipse fill="#922c5c" cx="112" cy="111" rx="59" ry="3"/></g></svg>