<svg xmlns="http://www.w3.org/2000/svg" viewBox="0 0 200 133"><filter id="b"><feGaussianBlur stdDeviation="12" /></filter><path fill="#9c8c9c" d="M0 0h200v133H0z"/><g filter="url(#b)" transform="translate(.5 .5)" fill-opacity=".5"><ellipse fill="#8f000e" rx="1" ry="1" transform="matrix(5.2199 -35.51504 126.76965 18.63223 97.6 111)"/><ellipse fill="#bdffff" cx="158" cy="13" rx="60" ry="60"/><ellipse fill="#90ffff" cx="42" cy="18" rx="55" ry="55"/><ellipse fill="#be0015" cx="98" cy="126" rx="22" ry="96"/><path fill="#a6ffff" d="M102 73h20v27h-20z"/><path fill="#090000" d="M130 72h17v38h-17z"/><ellipse fill="#00d3ff" cx="4" cy="121" rx="11" ry="11"/><ellipse fill="#d80000" rx="1" ry="1" transform="matrix(-8.2066 -14.91293 27.31914 -15.03373 41.1 127.7)"/><ellipse fill="#a26e86" cx="178" cy="106" rx="37" ry="37"/><ellipse fill="#1ec7ef" rx="1" ry="1" transform="matrix(13.02406 -9.01472 14.22737 20.55505 72.8 25.3)"/><ellipse fill="#caecf9" rx="1" ry="1" transform="matrix(-27.80196 35.86671 -22.00001 -17.05323 14.7 32.7)"/><ellipse fill="#dd000d" rx="1" ry="1" transform="rotate(93.1 -9.8 98.2) scale(57.80147 12.50816)"/><path fill="#ffb3dd" d="M38 78h15v17H38z"/><ellipse fill="#b1e6f7" cx="173" cy="14" rx="59" ry="59"/><ellipse fill="#ee6986" cx="167" cy="87" rx="22" ry="22"/><path fill="#3a6664" d="M124 110h62v23h-62z"/><path fill="#ffc8f3" d="M16 90h24v6H16z"/><path d="M17 74h17v14H17z"/><ellipse fill="#caf4fd" rx="1" ry="1" transform="matrix(-16.23154 4.36798 -4.95002 -18.39443 102 10.7)"/><path fill="#db8eb3" d="M27.2 69.9l-25 30 20-58.8 35.4 48.1z"/><path fill="#c9bbe7" d="M75.3 80.5L71.5 148l-2-29-4-15z"/><path fill="#00000f" d="M10.8 76.9l-26.4-17-.4 31 13.4 32.3z"/></g></svg>