<svg xmlns="http://www.w3.org/2000/svg" viewBox="0 0 200 133"><filter id="b"><feGaussianBlur stdDeviation="12" /></filter><path fill="#8e8b83" d="M0 0h200v133H0z"/><g filter="url(#b)" transform="translate(.5 .5)" fill-opacity=".5"><ellipse rx="1" ry="1" transform="matrix(4.5852 28.00013 -45.51781 7.45383 58.8 16)"/><ellipse fill="#c1cedd" rx="1" ry="1" transform="rotate(-79.4 105.9 -10.5) scale(26.20155 146.9483)"/><ellipse fill="#400000" cx="167" cy="61" rx="17" ry="25"/><ellipse fill="#fffbff" rx="1" ry="1" transform="matrix(-4.2722 -8.17258 28.1865 -14.73442 143.8 37.2)"/><ellipse fill="#253302" cx="55" cy="33" rx="17" ry="47"/><ellipse fill="#361600" cx="104" cy="21" rx="19" ry="14"/><ellipse fill="#1e0000" rx="1" ry="1" transform="matrix(1.314 -6.0775 85.24848 18.43137 174.7 74.8)"/><ellipse fill="#cbd0cd" rx="1" ry="1" transform="matrix(38.77128 46.86642 -17.5731 14.53773 12.3 109.8)"/><ellipse fill="#162b00" cx="41" cy="21" rx="24" ry="24"/><ellipse fill="#eeebf4" cx="131" cy="93" rx="45" ry="13"/><ellipse fill="#d3bb9c" rx="1" ry="1" transform="matrix(16.83716 -10.31783 29.21379 47.67257 182.6 18)"/><ellipse fill="#417599" cx="83" cy="116" rx="38" ry="10"/><ellipse fill="#eaedff" rx="1" ry="1" transform="matrix(9.37513 .71738 -1.60772 21.01054 132.7 38.5)"/><path fill="#b2b6bd" d="M70 31h24v48H70z"/><path fill="#b4b3bb" d="M8 29l60 33L1 93z"/><path d="M2 19l3 52-21-15z"/><ellipse fill="#182600" rx="1" ry="1" transform="matrix(.42411 13.4954 -43.78073 1.37586 64.4 20.3)"/><path fill="#656566" d="M86 85.5L71 66.8l-24.8 5.7-17.5 23.6z"/><ellipse fill="#90b1c2" cx="105" cy="132" rx="61" ry="13"/><ellipse cx="57" cy="72" rx="13" ry="3"/><path fill="#00000a" d="M45 59l14-26 12 22z"/><path fill="#c9d4f1" d="M185 71V58l-14 8z"/></g></svg>