<svg xmlns="http://www.w3.org/2000/svg" viewBox="0 0 200 133"><filter id="b"><feGaussianBlur stdDeviation="12" /></filter><path fill="#272f35" d="M0 0h200v133H0z"/><g filter="url(#b)" transform="translate(.5 .5)" fill-opacity=".5"><ellipse fill="#9b8677" cx="58" cy="34" rx="134" ry="18"/><ellipse fill="#0089fd" cx="182" cy="3" rx="159" ry="8"/><ellipse cx="19" cy="111" rx="199" ry="49"/><ellipse fill="#c8bbb9" rx="1" ry="1" transform="matrix(-1.22135 26.0812 -10.93 -.51184 78.5 56.1)"/><path fill="#deb48d" d="M18.5 39.8l-6.3-25.3 25.3-6.3 6.3 25.3z"/><path fill="#857d7a" d="M198 124l-25.8 2.8-2.2-20.9 25.8-2.7z"/><path fill="#00081a" d="M126 16l-32-5 34 111z"/><path fill="#baa59a" d="M142 69l6-50-26 15z"/><path fill="#e3b28f" d="M164 32h10v31h-10z"/><path fill="#d5b99c" d="M107 65l-5-28-13 24z"/><path d="M44.8 122.2L-16-16l5.9 70.4 61.6-5.8z"/><path fill="#70859d" d="M54.1 93.3L77.3 76l6.6 8.8L60.7 102z"/><path fill="#042b4b" d="M111.3 36.9L18.6 8.5l4-13.4 92.8 28.4z"/><ellipse fill="#000008" rx="1" ry="1" transform="matrix(-5.55615 -19.16526 110.66479 -32.08252 143 97.4)"/><path fill="#8aa5b9" d="M134.7 83.2l-11.8-12.7 14.8-2.1v.4z"/><ellipse fill="#4d6f84" rx="1" ry="1" transform="matrix(2.1847 5.87278 -42.58708 15.84255 13.2 10.3)"/><path fill="#000001" d="M166.5 109.2l-17.2-75L138.5 148l52.3-16.8z"/><path fill="#011726" d="M148 26l67 14V-9z"/><path fill="#c9ac98" d="M74.9 24.5l-9.3 18.3-14.3 3.6L94.2 65z"/><path fill="#000a15" d="M74 56l65 29-52 14z"/><path fill="#c38269" d="M164 53l24-11-33 1z"/><path d="M11 13l-25 42 15 50z"/></g></svg>