<svg xmlns="http://www.w3.org/2000/svg" viewBox="0 0 700 467"><filter id="b"><feGaussianBlur stdDeviation="12" /></filter><path fill="#73605b" d="M0 0h700v464H0z"/><g filter="url(#b)" transform="translate(1.4 1.4) scale(2.73438)" fill-opacity=".5"><ellipse fill="#fff" rx="1" ry="1" transform="matrix(69.68853 15.17204 -3.6407 16.72255 144.8 69)"/><path fill="#fff" d="M124 129h41v41h-41z"/><ellipse fill="#630000" cx="192" cy="126" rx="34" ry="34"/><ellipse fill="#e40000" rx="1" ry="1" transform="matrix(-9.83175 127.77497 -15.79932 -1.2157 69.5 106.8)"/><ellipse fill="#000001" cx="246" cy="72" rx="30" ry="75"/><ellipse fill="#c7e9f6" cx="41" cy="58" rx="16" ry="80"/><ellipse fill="#004696" rx="27" ry="192"/><ellipse fill="#006c02" cx="134" cy="16" rx="36" ry="36"/><ellipse fill="#700" cx="156" cy="106" rx="45" ry="19"/><ellipse fill="#fff" rx="1" ry="1" transform="matrix(-29.47124 -7.1708 4.62671 -19.01532 112 63.6)"/><ellipse fill="#000806" rx="1" ry="1" transform="rotate(-67.4 145.4 56.2) scale(22.24786 105.79482)"/><path fill="#fff" d="M212.3 40.6l-84.8-51 6.2-10.2 84.8 51z"/><ellipse fill="#fff" rx="1" ry="1" transform="matrix(.95115 -5.8227 24.97887 4.08033 186.9 165.4)"/><path fill="#d4f4fa" d="M271 145.5l-79.3 1.1 21.1 8.1 58.2 14.8z"/><ellipse fill="#2bb4ff" rx="1" ry="1" transform="matrix(11.3586 2.52356 -16.02134 72.11243 0 72.8)"/><path fill="#004300" d="M148 16h29v45h-29z"/><ellipse fill="#a60900" cx="71" cy="115" rx="19" ry="83"/><ellipse fill="#240000" cx="113" cy="128" rx="15" ry="18"/><path fill="#fcffff" d="M124 131h39v28h-39z"/><path fill="#c3e0e1" d="M178 57h39v37h-39z"/><path fill="#001a16" d="M73.2 198l-20-15 35.6-47 20 15z"/><path fill="#e8ffff" d="M101 45L83 76 94-7z"/></g></svg>