<svg xmlns="http://www.w3.org/2000/svg" viewBox="0 0 700 467"><filter id="b"><feGaussianBlur stdDeviation="12" /></filter><path fill="#8b846e" d="M0 0h700v464H0z"/><g filter="url(#b)" transform="translate(1.4 1.4) scale(2.73438)" fill-opacity=".5"><ellipse fill="#542400" cx="147" cy="148" rx="166" ry="48"/><ellipse fill="#c8ddd6" rx="1" ry="1" transform="matrix(4.82839 40.54752 -253.21105 30.15232 135.4 34.3)"/><ellipse fill="#faffff" rx="1" ry="1" transform="rotate(-15.1 291.8 -912.6) scale(25.06314 57.70173)"/><path fill="#593a2b" d="M148 36l3 74-69-30z"/><ellipse fill="#f4ffff" cx="57" cy="101" rx="9" ry="29"/><ellipse fill="#e75e00" rx="1" ry="1" transform="rotate(82.3 -35.4 137.1) scale(27.71746 36.48)"/><path fill="#07100b" d="M-16 58l32 78 46 5z"/><ellipse fill="#031214" rx="1" ry="1" transform="matrix(-9.74024 -57.77712 18.83919 -3.17597 236 145.8)"/><path fill="#ffecd8" d="M198 142.8l-14.7-31.7 12.6-6 14.8 31.8z"/><path fill="#000e23" d="M159 90h28v58h-28z"/><path fill="#f3f4f0" d="M20 72h52v19H20z"/><ellipse fill="#ac804b" rx="1" ry="1" transform="rotate(-169.3 103.9 17.8) scale(14.59698 39.87441)"/><ellipse fill="#d88300" rx="1" ry="1" transform="rotate(112.2 30.4 107.6) scale(27.34524 14.75226)"/><path fill="#ffd8d6" d="M4 156h20v14H4z"/><path d="M132.7 42.2l17.2.7-15.3 16-9.5 7.9z"/><ellipse fill="red" cx="110" cy="141" rx="17" ry="13"/><ellipse cx="35" cy="102" rx="12" ry="8"/><ellipse fill="#7183a3" cx="108" cy="101" rx="14" ry="28"/><path fill="#b99d00" d="M31 150h70v20H31z"/><path fill="#170000" d="M86 119l10-70 6 34z"/><ellipse fill="#092225" rx="1" ry="1" transform="matrix(-2.71945 -8.39839 20.45037 -6.62197 153.2 84)"/><ellipse fill="#abe5f5" rx="1" ry="1" transform="rotate(60.8 30.5 160.6) scale(8.89785 28.49332)"/></g></svg>