<svg xmlns="http://www.w3.org/2000/svg" viewBox="0 0 700 467"><filter id="b"><feGaussianBlur stdDeviation="12" /></filter><path fill="#173652" d="M0 0h700v464H0z"/><g filter="url(#b)" transform="translate(1.4 1.4) scale(2.73438)" fill-opacity=".5"><ellipse fill="#85feff" cx="122" cy="85" rx="57" ry="57"/><ellipse fill="#8acbed" cx="171" cy="58" rx="29" ry="29"/><ellipse cx="255" cy="62" rx="63" ry="63"/><ellipse fill="#93ceff" cx="96" cy="101" rx="34" ry="39"/><ellipse cx="30" cy="92" rx="38" ry="255"/><ellipse fill="#000003" rx="1" ry="1" transform="matrix(181.41231 -27.44582 4.22112 27.90091 130.4 10.6)"/><ellipse fill="#000007" rx="1" ry="1" transform="matrix(1.8245 24.8098 -114.58183 8.4263 165 154.6)"/><ellipse fill="#4093ca" cx="166" cy="82" rx="34" ry="51"/><ellipse rx="1" ry="1" transform="rotate(3 -1281.7 4528.1) scale(37.83416 76.48739)"/><ellipse fill="#03b" cx="61" cy="81" rx="11" ry="48"/><path fill="#69bfff" d="M71 47h65v88H71z"/><path fill="#86b4bb" d="M169 31h30v61h-30z"/><ellipse fill="#00337e" rx="1" ry="1" transform="rotate(53.3 -29.8 240) scale(35.93558 14.89282)"/><path fill="#0096e4" d="M105 41h40v29h-40z"/><ellipse fill="#1996e9" rx="1" ry="1" transform="matrix(21.77594 -18.16797 13.65796 16.37028 136 111)"/><ellipse fill="#00000e" cx="9" cy="125" rx="54" ry="54"/><ellipse fill="#e0f2f6" rx="1" ry="1" transform="rotate(-121.9 78 14.4) scale(13.11375 24.42744)"/><ellipse fill="#000024" cx="131" cy="160" rx="89" ry="27"/><ellipse rx="1" ry="1" transform="matrix(-2.70632 17.68588 -151.02415 -23.10994 202.7 12)"/><ellipse fill="#000d3c" cx="79" cy="24" rx="68" ry="21"/><path fill="#95bfee" d="M108 124l-36 15-7-18z"/><path d="M187 104l72-72 12 143z"/></g></svg>