<svg xmlns="http://www.w3.org/2000/svg" viewBox="0 0 200 133"><filter id="b"><feGaussianBlur stdDeviation="12" /></filter><path fill="#754651" d="M0 0h200v133H0z"/><g filter="url(#b)" transform="translate(.5 .5)" fill-opacity=".5"><ellipse fill="#ce9cb0" cx="94" cy="49" rx="23" ry="50"/><ellipse fill="#d7a5a4" rx="1" ry="1" transform="matrix(14.46025 48.58114 -23.5337 7.00484 169.5 111.1)"/><ellipse fill="#f30009" cx="18" cy="51" rx="29" ry="25"/><ellipse fill="#ffe7a5" rx="1" ry="1" transform="matrix(-28.89294 5.87834 -2.51372 -12.35535 58.9 62)"/><ellipse rx="1" ry="1" transform="matrix(-1.13095 -15.48991 39.71585 -2.89974 171.6 10.1)"/><ellipse fill="#1d1126" cx="43" cy="126" rx="48" ry="48"/><ellipse fill="#080011" rx="1" ry="1" transform="rotate(159.1 56 47.8) scale(16.51142 28.43631)"/><path fill="#000008" d="M51 5l16 39-78-31z"/><ellipse fill="#320000" cx="165" cy="101" rx="12" ry="12"/><path fill="#e0aaab" d="M121-2l8 55-50-35z"/><path fill="#470018" d="M84 36h26v20H84z"/><ellipse fill="#9881b9" cx="111" cy="116" rx="17" ry="23"/><ellipse fill="#ffecf1" rx="1" ry="1" transform="matrix(12.5059 -.58998 .23438 4.96812 55.6 132)"/><path fill="#af90c0" d="M16 125l3-43 32-41z"/><ellipse fill="#100000" cx="198" cy="76" rx="19" ry="14"/><path fill="#270000" d="M-16 131l39 17L0 31z"/><ellipse fill="#c60007" rx="1" ry="1" transform="matrix(10.56737 8.47244 -36.33246 45.31618 7.2 72.3)"/><ellipse rx="1" ry="1" transform="matrix(8.47438 -.052 .06948 11.3206 78 5.7)"/><ellipse fill="#ffc6d0" cx="174" cy="131" rx="15" ry="19"/><path fill="#270815" d="M15.8 88.6l18.2 19 55-17.2L72 76z"/><path d="M209 23L179-5l-63 23z"/><path fill="#fff" d="M90 11h15v11H90z"/></g></svg>