<svg xmlns="http://www.w3.org/2000/svg" viewBox="0 0 700 467"><filter id="b"><feGaussianBlur stdDeviation="12" /></filter><path fill="#3c3022" d="M0 0h700v464H0z"/><g filter="url(#b)" transform="translate(1.4 1.4) scale(2.73438)" fill-opacity=".5"><ellipse fill="#f2d0a5" rx="1" ry="1" transform="matrix(-3.58625 63.76755 -19.1145 -1.07499 68.3 60.3)"/><path fill="#ffe6ce" d="M154 92l-49 33 21-52z"/><ellipse cx="177" cy="144" rx="58" ry="58"/><path fill="#c59451" d="M183.8 33.5l82.8-.2-26.8 26-42.4 1.8z"/><ellipse fill="#010200" cx="13" cy="105" rx="34" ry="145"/><ellipse fill="#f5ddc2" cx="63" cy="46" rx="18" ry="18"/><path fill="#fff" d="M196 39l-3 20 22-20z"/><ellipse fill="#9a6811" rx="1" ry="1" transform="rotate(-171.1 129 11.4) scale(14.26988 65.53183)"/><path fill="#1b0000" d="M74.6 73l47.3 33-.3-50.5-36.4.3z"/><ellipse fill="#070a0b" rx="1" ry="1" transform="matrix(130.00822 65.65165 -7.36444 14.5836 97.3 153.1)"/><path fill="#151310" d="M133.2 99.2l-72.7 5.5 3.6-31.3 18.8 45z"/><path fill="#fff5db" d="M119 88l38-1-20 11z"/><path fill="#020300" d="M76 10l-19 1 7-24z"/><ellipse fill="#e9b6b1" rx="1" ry="1" transform="rotate(75.6 -14.2 133.2) scale(5.36331 16.83885)"/><ellipse fill="#2d1d09" cx="210" cy="10" rx="31" ry="31"/><path fill="#000a11" d="M203 61h33v42h-33z"/><path fill="#12120e" d="M130 98h112v72H130z"/><path fill="#f5f3b1" d="M49 13h31v7H49z"/><path fill="#6f6058" d="M72.6 139.9L65 123.5l24.4-11.4 7.6 16.4z"/><path fill="#5f3216" d="M89.3 74.7L77 5.7l25.6-4.4 12.2 69z"/><path fill="#b0715e" d="M105 130l23 5-8 16z"/><ellipse fill="#140803" cx="139" cy="58" rx="9" ry="27"/></g></svg>