<svg xmlns="http://www.w3.org/2000/svg" viewBox="0 0 700 467"><filter id="b"><feGaussianBlur stdDeviation="12" /></filter><path fill="#380226" d="M0 0h700v464H0z"/><g filter="url(#b)" transform="translate(1.4 1.4) scale(2.73438)" fill-opacity=".5"><ellipse fill="#d61dc5" rx="1" ry="1" transform="matrix(-30.27633 -37.36344 30.52504 -24.73504 125.7 37.8)"/><ellipse cx="212" cy="143" rx="71" ry="71"/><ellipse rx="1" ry="1" transform="rotate(-19.4 397.7 -45) scale(78.11422 53.02881)"/><ellipse fill="#ff66df" cx="133" cy="43" rx="32" ry="12"/><ellipse fill="#a7007a" rx="1" ry="1" transform="matrix(-13.78343 -14.6451 18.5847 -17.49123 30.6 55.7)"/><ellipse fill="#620053" rx="1" ry="1" transform="rotate(179.5 65.6 4.2) scale(79.84979 26.72971)"/><ellipse fill="#c70ada" cx="153" cy="73" rx="72" ry="3"/><ellipse fill="#8d006a" rx="1" ry="1" transform="matrix(15.52729 -9.933 16.71204 26.1243 242 52)"/><ellipse fill="#050100" cx="208" cy="132" rx="63" ry="63"/><path fill="#cc029f" d="M110 66l65-18 2-24z"/><path fill="#080029" d="M80 18h18v52H80z"/><ellipse fill="#080000" cx="42" cy="159" rx="67" ry="67"/><path fill="#c2e6c8" d="M153 36l-40-3 17 12z"/><path fill="#79005e" d="M4-12l139 42 77-46z"/><ellipse fill="#300027" cx="110" cy="22" rx="124" ry="7"/><path fill="#5e0135" d="M160 136L196-3l1 85z"/><ellipse fill="#880032" cx="125" cy="114" rx="15" ry="16"/><ellipse fill="#3d0001" cx="118" cy="156" rx="35" ry="35"/><ellipse fill="#790051" cx="36" cy="31" rx="14" ry="14"/><path fill="#120000" d="M217.2 47.9l6-36-25.2 5.6-1.2 106.6z"/><ellipse fill="#e40594" rx="1" ry="1" transform="rotate(121.6 44 56.5) scale(6.7823 24.89101)"/><ellipse fill="#8f006c" cx="18" cy="57" rx="37" ry="10"/></g></svg>