<svg xmlns="http://www.w3.org/2000/svg" viewBox="0 0 200 133"><filter id="b"><feGaussianBlur stdDeviation="12" /></filter><path fill="#392c2e" d="M0 0h200v133H0z"/><g filter="url(#b)" transform="translate(.5 .5)" fill-opacity=".5"><ellipse fill="#cbb2af" cx="90" cy="16" rx="29" ry="61"/><path fill="#010207" d="M83 40h33v93H83z"/><path fill="#ffedfa" d="M52.4 42.4L50 53l32.8 14-2.5-24.6z"/><path d="M75.2-16h-28l36.5 51 1-37.4z"/><path fill="#f3d0bc" d="M119.5-16l-.2 53-33.8-11-1-29.5z"/><path fill="#c197cc" d="M153 36l9 18-48-20z"/><path fill="#fdccfa" d="M143.6 119l.8-11 16 1-.8 11z"/><ellipse fill="#000200" cx="21" cy="54" rx="27" ry="27"/><path fill="#9c8282" d="M18 80h20v34H18z"/><ellipse rx="1" ry="1" transform="rotate(-107.2 75.1 -45.4) scale(24.16421 21.28913)"/><ellipse cx="199" cy="29" rx="20" ry="39"/><path fill="#fffbff" d="M71.2 36.6l-12-16 9.6-7.2 12 16z"/><ellipse fill="#000400" rx="1" ry="1" transform="matrix(22.42399 -.5116 .94953 41.61935 76.4 110.9)"/><ellipse fill="#000200" rx="1" ry="1" transform="matrix(-2.7625 -14.79742 39.43609 -7.36225 47 4)"/><path fill="#fff" d="M93 69h9v10h-9z"/><ellipse fill="#000002" cx="171" cy="114" rx="11" ry="54"/><path fill="#a27978" d="M-22.6 116.8l75-17.3 2.2 9.7-75 17.3z"/><path fill="#eee3ee" d="M83.1 46l-3.5-7.7-24.3 31 11.2-3z"/><path fill="#000c51" d="M115 100h32v33h-32z"/><ellipse fill="#010000" cx="34" cy="132" rx="45" ry="15"/><path fill="#aa8039" d="M170.1-5.9l12.2 4.7-10.4 27-12.2-4.6z"/><ellipse fill="#431930" cx="118" cy="56" rx="22" ry="24"/></g></svg>