<svg xmlns="http://www.w3.org/2000/svg" viewBox="0 0 800 533"><filter id="b"><feGaussianBlur stdDeviation="12" /></filter><path fill="#5b5c64" d="M0 0h800v531H0z"/><g filter="url(#b)" transform="translate(1.6 1.6) scale(3.125)" fill-opacity=".5"><ellipse fill="#fff" rx="1" ry="1" transform="rotate(-145.4 49.2 22.2) scale(66.48324 58.82397)"/><ellipse fill="#00021c" cx="237" cy="93" rx="105" ry="105"/><ellipse fill="#92beff" rx="1" ry="1" transform="matrix(-39.87429 15.81194 -11.8115 -29.78602 123 48.9)"/><ellipse fill="#3f1600" cx="64" cy="153" rx="255" ry="29"/><ellipse fill="#ffffda" rx="1" ry="1" transform="matrix(26.36211 -16.50866 8.43347 13.46712 51.4 108.5)"/><ellipse rx="1" ry="1" transform="matrix(-31.79563 12.21446 -8.3502 -21.73652 0 105.4)"/><ellipse fill="#536988" rx="1" ry="1" transform="matrix(25.296 -6.44787 9.39442 36.85579 128 86.6)"/><path fill="#daeaec" d="M17 14h85v76H17z"/><ellipse fill="#000009" cx="73" cy="4" rx="166" ry="11"/><ellipse fill="#c7b192" rx="1" ry="1" transform="matrix(-10.75393 -1.07836 3.03022 -30.21873 194.6 85.9)"/><ellipse cx="1" cy="49" rx="14" ry="81"/><path fill="#fff" d="M111.3 15.3l43.8 4.6-2.4 22.8-43.8-4.6z"/><path fill="#d3bc8b" d="M116 88h25v54h-25z"/><path fill="#4791f9" d="M243 108.5l-2-39.9 22-1.1 2 39.9z"/><ellipse fill="#c69129" cx="32" cy="131" rx="100" ry="7"/><ellipse fill="#001811" rx="1" ry="1" transform="matrix(36.119 35.41613 -15.23877 15.5412 188.5 22.4)"/><path fill="#f3edbe" d="M39 74h63v47H39z"/><path fill="#d4ba39" d="M63 4h20v28H63z"/><ellipse fill="#050305" cx="168" cy="140" rx="29" ry="31"/><path fill="#d7f7ff" d="M50.2 18.7L44.8 39l-29-7.7L21.2 11z"/><path fill="#000021" d="M111 107.4l-8.7-26.6 6.7-2.2 8.7 26.6z"/><path fill="#1571de" d="M107 38h18v43h-18z"/></g></svg>