<svg xmlns="http://www.w3.org/2000/svg" viewBox="0 0 700 467"><filter id="b"><feGaussianBlur stdDeviation="12" /></filter><path fill="#951e5d" d="M0 0h700v464H0z"/><g filter="url(#b)" transform="translate(1.4 1.4) scale(2.73438)" fill-opacity=".5"><ellipse fill="#ff1bff" rx="1" ry="1" transform="matrix(24.50508 54.28672 -99.81368 45.056 63.5 13)"/><ellipse fill="#220e10" cx="108" cy="142" rx="97" ry="41"/><ellipse fill="#000c00" rx="1" ry="1" transform="matrix(-19.10525 -9.05551 17.78197 -37.51628 186.7 35.7)"/><ellipse fill="#ff14ff" cx="59" rx="65" ry="65"/><ellipse fill="#ff1f14" rx="1" ry="1" transform="matrix(-22.13146 -29.69164 22.40351 -16.69906 199.4 99.7)"/><ellipse fill="#406841" rx="1" ry="1" transform="matrix(40.1847 3.97167 -8.09724 81.92664 246.4 36.5)"/><ellipse fill="#ff043a" rx="1" ry="1" transform="matrix(-18.3459 -19.14047 20.36265 -19.51734 96.6 96.4)"/><ellipse fill="#bacdb5" rx="1" ry="1" transform="matrix(35.31879 21.55868 -6.20278 10.16179 243.4 38.1)"/><ellipse fill="#6d0000" rx="1" ry="1" transform="rotate(-147.4 142 29.4) scale(28.97592 86.99492)"/><ellipse fill="#041518" rx="1" ry="1" transform="matrix(.38161 36.43988 -25.93869 .27164 52.2 125.3)"/><ellipse fill="#ff3a5c" cx="5" cy="108" rx="21" ry="36"/><ellipse fill="#d06dc8" cx="105" cy="46" rx="25" ry="29"/><ellipse fill="#c61963" rx="1" ry="1" transform="matrix(29.34511 10.23596 -8.51593 24.414 94 167)"/><path fill="#ff0c15" d="M233.7 117.3l.6 35-28 .4-.6-35z"/><path fill="#ff000b" d="M80.5 96.5v-17h125v17z"/><ellipse fill="#ff4034" cx="162" cy="140" rx="10" ry="16"/><ellipse fill="#201231" rx="1" ry="1" transform="rotate(22.6 -242.2 370.6) scale(18.97774 33.40825)"/><path fill="#f4a8a2" d="M222 85l-17 14 7 26z"/><ellipse fill="#4e3850" cx="147" cy="57" rx="26" ry="26"/><ellipse fill="#200028" rx="1" ry="1" transform="matrix(-.132 20.90264 -18.22172 -.11507 242.5 101)"/><ellipse fill="#ff3669" rx="1" ry="1" transform="matrix(-1.20918 -12.79182 24.71428 -2.33619 50 70.2)"/><ellipse fill="#370010" rx="1" ry="1" transform="matrix(-4.49672 -13.58662 35.36233 -11.70375 195.6 12.3)"/></g></svg>