<svg xmlns="http://www.w3.org/2000/svg" viewBox="0 0 700 467"><filter id="b"><feGaussianBlur stdDeviation="12" /></filter><path fill="#6e706f" d="M0 0h700v464H0z"/><g filter="url(#b)" transform="translate(1.4 1.4) scale(2.73438)" fill-opacity=".5"><ellipse fill="#fff" cx="158" cy="15" rx="255" ry="44"/><ellipse fill="#040100" cx="129" cy="169" rx="121" ry="121"/><ellipse fill="#d7d6dd" cx="175" cy="111" rx="12" ry="46"/><ellipse fill="#fbffff" rx="1" ry="1" transform="matrix(-.12089 31.39488 -171.50186 -.66037 185.7 12.3)"/><ellipse rx="1" ry="1" transform="rotate(-35.8 334 -316.5) scale(74.97519 37.05808)"/><ellipse fill="#0f140f" cx="59" cy="138" rx="66" ry="66"/><path fill="#fff" d="M61.4 134.1L39 125.5l17-17.6 9.6.4z"/><ellipse fill="#998f81" cx="200" cy="69" rx="43" ry="24"/><path fill="#fff" d="M124 148h12v22h-12z"/><path fill="#d7d5d5" d="M83 63.7l2-37 30 1.6-2 37z"/><ellipse cx="125" cy="98" rx="25" ry="38"/><ellipse fill="#effdff" rx="1" ry="1" transform="matrix(17.20895 -30.55696 12.72866 7.16848 158.8 29.4)"/><ellipse fill="#aa997e" cx="43" cy="57" rx="30" ry="19"/><ellipse fill="#3e2f26" cx="167" cy="67" rx="15" ry="21"/><path fill="#2e1c06" d="M33 45l-9 52 31-63z"/><path fill="#bbcbd7" d="M0 0h41v62H0z"/><path fill="#888894" d="M143.3 152.1l10.6-34.4 26.8 8.2-10.6 34.4z"/><path fill="#a8d6ed" d="M70 111h9v18h-9z"/><ellipse fill="#c2c8c9" rx="1" ry="1" transform="matrix(37.9426 -33.02556 5.83463 6.70332 206.2 63.2)"/><ellipse fill="#e8f7ff" cx="148" cy="11" rx="91" ry="26"/><path fill="#91654a" d="M118 32l-8 38 31-22z"/><path fill="#7c5b43" d="M80 38h18v25H80z"/></g></svg>