<svg xmlns="http://www.w3.org/2000/svg" viewBox="0 0 200 133"><filter id="b"><feGaussianBlur stdDeviation="12" /></filter><path fill="#444754" d="M0 0h200v133H0z"/><g filter="url(#b)" transform="translate(.5 .5)" fill-opacity=".5"><ellipse fill="#bcecff" rx="1" ry="1" transform="matrix(15.81923 -15.59988 21.29406 21.59347 90.7 35.8)"/><ellipse fill="#e1894b" rx="1" ry="1" transform="matrix(-38.4678 9.86592 -5.31319 -20.71643 105 101.2)"/><ellipse fill="#00338d" rx="1" ry="1" transform="matrix(-4.44807 46.52544 -38.37244 -3.6686 17 35.7)"/><ellipse fill="#001343" cx="165" cy="24" rx="36" ry="77"/><path fill="#fff" d="M0 97h23v16H0zm110-6h42v14h-42z"/><ellipse fill="#020000" cx="172" cy="126" rx="71" ry="25"/><ellipse fill="#9adcff" rx="1" ry="1" transform="rotate(-106.1 61.6 -7.4) scale(10.89031 22.47914)"/><ellipse fill="#130000" rx="1" ry="1" transform="rotate(79.3 -66.1 82.2) scale(20.1946 48.30501)"/><path fill="#89704f" d="M55 0h73v35H55z"/><ellipse fill="#721f06" rx="1" ry="1" transform="rotate(-169.4 51.5 33.5) scale(36.86249 13.38504)"/><ellipse fill="#d66720" rx="1" ry="1" transform="rotate(-109.1 83.5 24) scale(27.53425 17.91083)"/><ellipse fill="#006eb1" cx="17" cy="6" rx="33" ry="33"/><ellipse fill="#004c91" cx="187" cy="17" rx="32" ry="32"/><ellipse fill="#c66d55" cx="62" cy="53" rx="7" ry="33"/><ellipse fill="#00163f" rx="1" ry="1" transform="matrix(36.99204 -12.23395 7.28623 22.03152 15 60.2)"/><path fill="#ffefbc" d="M26 111l-5-32-27 34z"/><path fill="#511500" d="M156 69h39v37h-39z"/><path d="M27 92l36 7 5-15z"/><path fill="#c7d5cf" d="M69 83l-39 2 12-12z"/><path fill="#010000" d="M105 108l14 20 55-23z"/><path fill="#debc95" d="M114 85l27-13-5-14z"/></g></svg>