<svg xmlns="http://www.w3.org/2000/svg" viewBox="0 0 700 467"><filter id="b"><feGaussianBlur stdDeviation="12" /></filter><path fill="#3c1e72" d="M0 0h700v464H0z"/><g filter="url(#b)" transform="translate(1.4 1.4) scale(2.73438)" fill-opacity=".5"><ellipse fill="#7c36f8" cx="27" cy="120" rx="51" ry="84"/><ellipse fill="#0d0a00" cx="113" cy="125" rx="34" ry="91"/><path d="M98 134l135-42-99-9z"/><ellipse fill="#0b0b0f" rx="1" ry="1" transform="matrix(-3.51226 32.394 -111.67249 -12.10788 177.8 2.9)"/><path fill="#d74e72" d="M158 61.1l-33-11-16 11.6 7.2 32.3z"/><ellipse fill="#ff6378" rx="1" ry="1" transform="rotate(-157.4 113.8 13.3) scale(8.05963 23.02497)"/><ellipse fill="#643eb6" rx="1" ry="1" transform="matrix(26.6486 -13.69651 22.98983 44.73013 180 155.1)"/><ellipse fill="#4b26a7" cx="63" cy="66" rx="33" ry="27"/><ellipse fill="#000400" rx="1" ry="1" transform="matrix(28.14993 21.24245 -5.27713 6.99311 147 91)"/><ellipse fill="#722adf" rx="1" ry="1" transform="matrix(14.93476 37.52938 -27.20382 10.82572 16.4 96.6)"/><ellipse fill="#411f95" cx="231" cy="123" rx="36" ry="36"/><ellipse fill="#000215" rx="1" ry="1" transform="matrix(13.71713 -4.1678 12.5628 41.34687 106.4 125)"/><ellipse fill="#3f1c9e" rx="1" ry="1" transform="matrix(7.25978 -13.78616 89.3866 47.07092 9.2 30.9)"/><path fill="#a278a3" d="M125.3 191l6.4-52.6 5 .6-6.4 52.6z"/><ellipse rx="1" ry="1" transform="matrix(-.67 -6.81881 39.86636 -3.9172 175.2 100.2)"/><path d="M98 77l-6-38 29-3z"/><path fill="#a7a279" d="M119 102l-9-8 18-15z"/><path fill="#f3609d" d="M129.8 48.6l15.6 15.6-9.2 9.2-15.6-15.6z"/><path fill="#000100" d="M120 180l21-38 8 27z"/><ellipse fill="#452398" cx="170" cy="66" rx="24" ry="24"/><path fill="#2b136e" d="M232.5 65.3l17.5 47.5 21-87.5-107.5 12.2z"/><path fill="#58359b" d="M212 118l-61 67-6-80z"/></g></svg>