<svg xmlns="http://www.w3.org/2000/svg" viewBox="0 0 800 533"><filter id="b"><feGaussianBlur stdDeviation="12" /></filter><path fill="#64554e" d="M0 0h800v531H0z"/><g filter="url(#b)" transform="translate(1.6 1.6) scale(3.125)" fill-opacity=".5"><ellipse fill="#d5ffff" cx="127" cy="67" rx="57" ry="25"/><ellipse cx="46" rx="51" ry="51"/><ellipse fill="#020000" cx="124" cy="11" rx="255" ry="30"/><ellipse fill="#c19b5c" cx="223" cy="90" rx="56" ry="56"/><ellipse cx="108" cy="168" rx="255" ry="21"/><ellipse fill="#c68981" cx="98" cy="125" rx="43" ry="24"/><ellipse fill="#cbf3ff" cx="132" cy="73" rx="52" ry="18"/><ellipse fill="#b6aea0" rx="1" ry="1" transform="matrix(-27.44768 13.20968 -7.89557 -16.4058 36 61.2)"/><path fill="#620500" d="M214.8 147.2l-34.8-9.3 7.2-27L222 120z"/><path fill="#65a3ff" d="M79 44h104v22H79z"/><ellipse fill="#796459" rx="1" ry="1" transform="matrix(2.95634 -17.85781 31.78467 5.26192 139 26.6)"/><path d="M284.2 19.8L229.5 42l-21.7-53.7L262.5-34z"/><ellipse fill="#ff9476" cx="17" cy="139" rx="24" ry="7"/><ellipse fill="#e3c0d1" cx="140" cy="139" rx="44" ry="5"/><path fill="#b6b593" d="M256.8 57.7l-14.5 19.1-43-32.5 14.4-19.1z"/><ellipse fill="#140001" rx="1" ry="1" transform="rotate(-175.9 43.8 83) scale(33.22628 29.28843)"/><path fill="#080019" d="M79.7 50.4l.6 29-6 .2-.6-29z"/><ellipse fill="#160000" rx="1" ry="1" transform="matrix(4.21779 20.1894 -66.18542 13.82686 225.4 168.9)"/><path fill="#60200e" d="M66 117h41v18H66z"/><ellipse fill="#d9e5e1" rx="1" ry="1" transform="rotate(19.8 -130.8 462.6) scale(30.68666 15.25688)"/><ellipse cx="15" cy="29" rx="35" ry="17"/><path fill="#2c2534" d="M125 115h56v18h-56z"/></g></svg>