<svg xmlns="http://www.w3.org/2000/svg" viewBox="0 0 200 133"><filter id="b"><feGaussianBlur stdDeviation="12" /></filter><path fill="#7a656b" d="M0 0h200v133H0z"/><g filter="url(#b)" transform="translate(.5 .5)" fill-opacity=".5"><ellipse fill="#ff0100" cx="146" cy="108" rx="71" ry="26"/><path fill="#c9ffff" d="M124-1.5h76v85h-76z"/><ellipse fill="#003891" rx="1" ry="1" transform="matrix(21.12931 -81.26736 40.25093 10.46514 24 51)"/><ellipse fill="#960000" cx="102" cy="59" rx="18" ry="72"/><path fill="#1e5251" d="M189.5 9.5v51h-83v-51z"/><ellipse fill="#004a7f" rx="1" ry="1" transform="matrix(36.75974 7.13309 -17.57486 90.5705 28.9 33.5)"/><path fill="#fff" d="M212.3 61.7l.4 21-93 1.6-.4-21z"/><ellipse fill="#d9f1e2" cx="76" cy="33" rx="9" ry="91"/><ellipse rx="1" ry="1" transform="matrix(-3.5714 61.649 -9.83412 -.5697 112.8 31.1)"/><ellipse fill="#ff3000" cx="179" cy="125" rx="41" ry="41"/><path fill="azure" d="M50 130l-44-3 46-19z"/><ellipse fill="#ff1d00" cx="94" cy="56" rx="8" ry="75"/><ellipse fill="#92deff" cx="165" cy="35" rx="44" ry="11"/><ellipse fill="#0052a0" cx="131" cy="130" rx="10" ry="19"/><ellipse fill="#f52800" cx="135" cy="99" rx="56" ry="16"/><ellipse fill="#0076b2" rx="1" ry="1" transform="matrix(-12.00533 -38.78296 25.35731 -7.8494 13.8 86.2)"/><ellipse fill="#131d17" rx="1" ry="1" transform="matrix(11.42307 -1.3217 2.61012 22.55864 51.2 92.2)"/><path fill="#fff" d="M191 0h9v85h-9z"/><ellipse fill="#002f67" cx="35" cy="13" rx="34" ry="55"/><path fill="#feffff" d="M123 13h5v69h-5z"/><path fill="#d5d6e0" d="M76 125h43v8H76z"/><path fill="#fff" d="M123 7.8l32.8-17.3 5.1 9.7-32.7 17.3z"/></g></svg>