<svg xmlns="http://www.w3.org/2000/svg" viewBox="0 0 641 195"><filter id="b"><feGaussianBlur stdDeviation="12" /></filter><path fill="#b5babd" d="M0 0h641v192H0z"/><g filter="url(#b)" transform="translate(1.3 1.3) scale(2.5039)" fill-opacity=".5"><ellipse fill="#120e21" cx="194" cy="76" rx="65" ry="37"/><ellipse fill="#fff" cx="65" cy="18" rx="53" ry="53"/><ellipse cx="6" cy="63" rx="21" ry="21"/><ellipse fill="#fff" rx="1" ry="1" transform="rotate(177.5 68.9 1.5) scale(181.0904 25.58002)"/><ellipse fill="#d3d8cf" rx="1" ry="1" transform="matrix(-10.05622 -6.70364 16.05906 -24.09038 200 42.8)"/><path d="M150 68h106v9H150z"/><path fill="#161930" d="M-16 65.7l56.5-22L11.9 92-16 78.7z"/><path fill="#29262e" d="M120 67l-6.2 3.2L102 47l6.2-3.2z"/><path fill="#ffffe4" d="M25 66h25v11H25z"/><ellipse fill="#8b93af" cx="213" cy="42" rx="93" ry="13"/><path fill="#fdf9d7" d="M22 77L66-4l58 96z"/><ellipse fill="#f7e2b0" cx="130" cy="67" rx="15" ry="7"/><ellipse fill="#fff" cx="107" rx="170" ry="12"/><path fill="#ccbdac" d="M184 19h13v54h-13z"/><ellipse fill="#69758c" rx="1" ry="1" transform="rotate(-61.7 36 20.1) scale(9.7591 31.59277)"/><ellipse fill="#357bdf" rx="1" ry="1" transform="matrix(-2.96184 7.70361 -10.5409 -4.0527 251.8 60)"/><ellipse fill="#accdee" cx="112" cy="30" rx="17" ry="17"/><path fill="#080b10" d="M255.5 67.5l-5.8 23.3-25.2-6.3 5.8-23.3z"/><path fill="#3b3d42" d="M190.2 53l26.7 8.6-3.1 9.5-26.7-8.7z"/><path fill="#43405f" d="M140 46h38v20h-38z"/><ellipse fill="#c0ba82" cx="67" cy="76" rx="25" ry="10"/><path d="M17 66l19 26-46-22z"/></g></svg>