<svg xmlns="http://www.w3.org/2000/svg" viewBox="0 0 700 467"><filter id="b"><feGaussianBlur stdDeviation="12" /></filter><path fill="#363635" d="M0 0h700v464H0z"/><g filter="url(#b)" transform="translate(1.4 1.4) scale(2.73438)" fill-opacity=".5"><ellipse fill="#8b867f" cx="126" cy="23" rx="109" ry="43"/><path fill="#f9ffff" d="M184 37l-15-53-21 49z"/><ellipse cx="211" cy="149" rx="255" ry="52"/><ellipse fill="#887562" rx="1" ry="1" transform="matrix(-13.66174 22.95287 -29.95226 -17.82784 112.8 68)"/><path fill="#aaadb8" d="M244.2 37.6l8.4 11.2-28.8 21.6-8.4-11.2z"/><path fill="#00000c" d="M107 36L-13 24l-3 36z"/><path fill="#ffff9f" d="M155.5 96.1l5.5 2.3-12.5 29.5-5.5-2.3z"/><path fill="#3b372c" d="M104 9h45v60h-45z"/><path fill="#877363" d="M51 33L38 61l40 64z"/><path fill="#280f00" d="M208 80l-22-59 20-5z"/><ellipse cx="4" cy="86" rx="7" ry="69"/><ellipse fill="#00070e" rx="1" ry="1" transform="rotate(104.8 78.3 135.7) scale(45.20107 11.61095)"/><ellipse fill="#7f9ca7" cx="172" cy="4" rx="31" ry="12"/><path d="M170 53h13v77h-13z"/><path fill="#daf1ff" d="M97.2 77.9l12.7-6.4 1-3.4-16 29.4z"/><path fill="#fdffff" d="M179 40l-30-17 22-7z"/><path fill="#ffffaf" d="M159 89l3 6 7-20z"/><ellipse fill="#a68575" rx="1" ry="1" transform="matrix(5.00285 33.05403 -9.47596 1.43422 217.8 44.1)"/><ellipse fill="#b68260" cx="153" cy="44" rx="14" ry="14"/><path fill="#121b20" d="M60 29l37 56-36 14z"/><path fill="#d4d8df" d="M247 84h6v15h-6z"/><path fill="#4e5e71" d="M9.5-19.4L50 13.3 30.5 37.4-10 4.7z"/></g></svg>