<svg xmlns="http://www.w3.org/2000/svg" viewBox="0 0 700 467"><filter id="b"><feGaussianBlur stdDeviation="12" /></filter><path fill="#564b39" d="M0 0h700v464H0z"/><g filter="url(#b)" transform="translate(1.4 1.4) scale(2.73438)" fill-opacity=".5"><ellipse fill="#defbfb" rx="1" ry="1" transform="matrix(48.97312 -42.42185 24.02847 27.73923 149 82.8)"/><ellipse rx="1" ry="1" transform="rotate(-97.2 47.8 -29.1) scale(32.39156 186.63542)"/><ellipse fill="#eef5ea" rx="1" ry="1" transform="matrix(14.50224 -7.16883 13.6439 27.60103 203.4 104.4)"/><ellipse cx="14" cy="116" rx="29" ry="41"/><ellipse cx="247" cy="115" rx="24" ry="42"/><ellipse fill="#ffd7ae" cx="51" cy="164" rx="62" ry="9"/><ellipse fill="#ffe791" rx="1" ry="1" transform="rotate(169 107.2 39.4) scale(9.39915 38.55247)"/><ellipse fill="#954900" cx="64" cy="75" rx="55" ry="33"/><ellipse fill="#fff" cx="51" cy="117" rx="9" ry="15"/><ellipse cx="3" cy="50" rx="19" ry="106"/><path d="M62 99h30v51H62z"/><ellipse fill="#070300" rx="1" ry="1" transform="matrix(8.28914 -2.01703 21.64694 88.95977 104.7 65.5)"/><ellipse cx="236" cy="58" rx="8" ry="97"/><path fill="#ffe565" d="M83 35h10v72H83z"/><path fill="#f2eedd" d="M137 96h32v39h-32z"/><ellipse rx="1" ry="1" transform="matrix(-.8315 -25.8843 111.57131 -3.58407 95.7 16.6)"/><path fill="#ffc549" d="M247 13h9v63h-9z"/><ellipse fill="#a9dde8" cx="145" cy="50" rx="29" ry="13"/><path fill="#ff6e00" d="M33.3 105.8l-3.8-58.7-16.3 68.5 2.4-13.8z"/><ellipse fill="#fff" cx="97" cy="115" rx="6" ry="17"/><path d="M187 43l23 26-3-38z"/><ellipse fill="#0b0a03" cx="68" cy="141" rx="80" ry="12"/></g></svg>