<svg xmlns="http://www.w3.org/2000/svg" viewBox="0 0 200 133"><filter id="b"><feGaussianBlur stdDeviation="12" /></filter><path fill="#797969" d="M0 0h200v133H0z"/><g filter="url(#b)" transform="translate(.5 .5)" fill-opacity=".5"><ellipse fill="#1b2c00" rx="1" ry="1" transform="rotate(92.1 41.8 118.6) scale(113.90188 33.83494)"/><ellipse fill="#fff" cx="79" cy="125" rx="41" ry="18"/><ellipse fill="#fff" cx="27" cy="20" rx="93" ry="12"/><ellipse fill="#190000" cx="72" cy="65" rx="14" ry="44"/><ellipse fill="#faf3ff" cx="102" cy="71" rx="14" ry="32"/><ellipse fill="#d1e6ff" rx="1" ry="1" transform="matrix(.79735 41.5263 -11.7318 .22526 36 86.7)"/><ellipse fill="#070007" cx="4" cy="110" rx="9" ry="72"/><ellipse fill="#fff" cx="196" cy="5" rx="6" ry="60"/><path d="M185 148l-54-3-10-81z"/><path fill="#fff" d="M100.4 148.6L73.6 131l18-27.7 26.8 17.5z"/><path fill="#c8c794" d="M151.1 111.5l30.5-47 9.3 6-30.5 47z"/><ellipse fill="#91867b" rx="1" ry="1" transform="rotate(80.7 -9.6 104.6) scale(14.30958 31.27242)"/><ellipse fill="#fff" cx="91" cy="19" rx="15" ry="8"/><ellipse fill="#a8b9fd" cx="30" cy="72" rx="20" ry="20"/><path d="M66 48h21v32H66z"/><path fill="#f8e4e8" d="M56 49L17 6l56 5z"/><ellipse fill="#485c00" cx="171" cy="29" rx="22" ry="51"/><ellipse fill="#fff" cy="18" rx="10" ry="20"/><ellipse rx="1" ry="1" transform="rotate(-178.4 84.4 63) scale(30.06343 10.4271)"/><path fill="#271221" d="M-16 70.6l68-47.4 1.1 12.5L-16 81.5z"/><path fill="#adc089" d="M115 25h31v21h-31z"/><path fill="#5c4132" d="M.6 87.6l30.7 4.3-6 42.5-30.6-4.3z"/></g></svg>