<svg xmlns="http://www.w3.org/2000/svg" viewBox="0 0 200 133"><filter id="b"><feGaussianBlur stdDeviation="12" /></filter><path fill="#474d57" d="M0 0h200v133H0z"/><g filter="url(#b)" transform="translate(.5 .5)" fill-opacity=".5"><ellipse fill="#f4ffff" rx="1" ry="1" transform="matrix(-19.61546 -9.38108 12.66163 -26.47495 190.5 19.7)"/><ellipse fill="#acd0df" rx="1" ry="1" transform="matrix(-7.4003 -17.86592 38.41238 -15.91093 109.2 36.2)"/><ellipse fill="#100000" rx="1" ry="1" transform="matrix(-144.3119 12.81833 -1.71295 -19.2848 125.1 79.2)"/><ellipse fill="#899db3" rx="1" ry="1" transform="rotate(167.4 18.4 68.8) scale(77.79984 25.35568)"/><ellipse fill="#000004" cx="58" cy="8" rx="24" ry="42"/><ellipse cx="104" cy="37" rx="5" ry="62"/><ellipse fill="#cdffff" cx="136" cy="20" rx="6" ry="32"/><path fill="#00000b" d="M21-16l-37 38L9 148z"/><path fill="#ffe8ec" d="M160 97h14v25h-14z"/><path d="M125.5 117.4l1-30 32 1.2-1 30z"/><ellipse cx="125" cy="12" rx="5" ry="56"/><path fill="#c8bbb7" d="M32.5 55.9l22-2.8 100.7-8.8L16.8 73z"/><ellipse rx="1" ry="1" transform="matrix(-21.34382 29.57334 -17.622 -12.71824 68.6 .2)"/><path d="M35.2 121.6l-.4-21 14-.2.4 21z"/><path fill="#68bfff" d="M89 148.3l-112.2-13.8 2.3-18.8 112.1 13.8z"/><ellipse fill="#de824e" cx="27" cy="17" rx="7" ry="43"/><path fill="#cdb7b7" d="M156.5 28l16-19.2-.6-2.2-10 53z"/><path d="M171 17l-27 6v-39z"/><path fill="#c1f7ff" d="M89 8h11v38H89z"/><path fill="#eaffff" d="M110 8h10v34h-10z"/><path fill="#ffffe6" d="M25 94l2 26 8-17z"/><path fill="#f2bdbd" d="M115 93h10v24h-10z"/></g></svg>