<svg xmlns="http://www.w3.org/2000/svg" viewBox="0 0 200 133"><filter id="b"><feGaussianBlur stdDeviation="12" /></filter><path fill="#6c5a4f" d="M0 0h200v133H0z"/><g filter="url(#b)" transform="translate(.5 .5)" fill-opacity=".5"><ellipse fill="#fdecd6" rx="1" ry="1" transform="matrix(86.96765 -29.7345 6.7019 19.60179 49.6 97)"/><ellipse rx="1" ry="1" transform="rotate(45 -77.7 210.6) scale(27.1553 62.16295)"/><ellipse fill="#ffffe5" rx="1" ry="1" transform="matrix(-27.20515 -7.48309 16.45214 -59.81259 190 124.5)"/><ellipse cx="74" rx="54" ry="54"/><ellipse cx="165" cy="18" rx="17" ry="34"/><path fill="#eeb59d" d="M69 40h22v71H69z"/><ellipse rx="1" ry="1" transform="matrix(-9.3128 2.15003 -9.58197 -41.50405 35.6 35)"/><ellipse fill="#ffdeb4" rx="1" ry="1" transform="rotate(-88 38.3 -16.9) scale(40.80736 4.39644)"/><ellipse fill="#d1c5bc" rx="1" ry="1" transform="matrix(31.954 7.22634 -5.35139 23.66319 44 108.2)"/><path d="M96 148l90.8-78.8-27.7-1.2-101.4 64.6z"/><ellipse fill="#fddfaf" rx="1" ry="1" transform="matrix(12.45222 .91624 -2.17487 29.5578 6.1 4.2)"/><ellipse fill="#caa673" cx="138" cy="16" rx="12" ry="63"/><path d="M58 18l70 26-4-60zM10.5 61.7L15 85.3l-25.6 5-4.6-23.6z"/><path fill="#3a0a03" d="M24 121l-40 4 8 23z"/><path fill="#3e4f1a" d="M193.7 87.3l.1-22.3 16 26.8-17.8 10.4z"/><path fill="#472400" d="M180 117l28 6-29 6z"/><path fill="#c00024" d="M62 54h19v19H62z"/><path fill="#f6e6e7" d="M193 55l-14 73-31 16z"/><path fill="#030000" d="M59.1 37.7l-3.6 38.6L84 17.4 58.5-14.4z"/><path fill="#b39b85" d="M79.7 117.1L75.4 28l23.2 32.8 73.5-5z"/><path d="M23 0h24v46H23z"/></g></svg>