<svg xmlns="http://www.w3.org/2000/svg" viewBox="0 0 200 133"><filter id="b"><feGaussianBlur stdDeviation="12" /></filter><path fill="#686d71" d="M0 0h200v133H0z"/><g filter="url(#b)" transform="translate(.5 .5)" fill-opacity=".5"><ellipse fill="#090100" rx="1" ry="1" transform="matrix(-25.03972 74.404 -34.0215 -11.4495 59 75.5)"/><ellipse fill="#bed8ef" rx="1" ry="1" transform="matrix(-37.36792 6.7909 -10.19015 -56.07277 156.6 80.3)"/><path fill="#fff" d="M26 51l-29 97-5-83z"/><ellipse fill="#29221a" rx="1" ry="1" transform="matrix(91.16328 -2.09082 .46636 20.33397 57.4 27.9)"/><ellipse fill="#fde6d8" rx="1" ry="1" transform="matrix(1.43475 -8.39543 13.41803 2.29309 48.2 63)"/><path fill="#fff" d="M145.2 45l-8.3 31-26-7 8.2-31z"/><ellipse fill="#f9ffff" cx="157" cy="126" rx="21" ry="21"/><ellipse fill="#e1f2ff" rx="1" ry="1" transform="matrix(5.88005 -1.37915 6.54465 27.90327 89 119)"/><ellipse fill="#5a666d" cx="168" cy="80" rx="27" ry="27"/><path fill="#fff" d="M-9.1 12.1L-12.2.5 35-12 38.2-.5z"/><ellipse fill="#000602" cx="55" cy="124" rx="29" ry="32"/><ellipse fill="#c7d6e8" rx="1" ry="1" transform="rotate(-93.1 119.6 -73) scale(13.0539 76.29808)"/><path fill="#1f1b16" d="M100 107h38v26h-38z"/><path fill="#a8bed1" d="M87.2 49.1l24.8-3 2.8 22.8-24.8 3z"/><path fill="#fff" d="M6 129L-5 70l25-19z"/><path fill="#8a8774" d="M30 2l126 29 59-46z"/><path fill="#0f0900" d="M91 74l5-64-62 103z"/><path fill="#bda293" d="M57 77l9-33-39 15z"/><path fill="#020000" d="M26 6h34v13H26z"/><ellipse fill="#223038" cx="36" cy="96" rx="26" ry="26"/><path d="M103 11l24 21-13 16z"/><path fill="#bff1ff" d="M110 56l-4-28-5 20z"/></g></svg>