<svg xmlns="http://www.w3.org/2000/svg" viewBox="0 0 200 133"><filter id="b"><feGaussianBlur stdDeviation="12" /></filter><path fill="#392c2e" d="M0 0h200v133H0z"/><g filter="url(#b)" transform="translate(.5 .5)" fill-opacity=".5"><ellipse fill="#f4d3d0" rx="1" ry="1" transform="matrix(29.25902 -31.93062 16.65221 15.25894 84.7 29.3)"/><ellipse fill="#000004" cx="89" cy="121" rx="43" ry="43"/><path fill="#fff" d="M69 42h13v22H69z"/><ellipse fill="#060a02" cx="13" cy="31" rx="49" ry="49"/><path fill="#e7c5b2" d="M85 0h34v36H85z"/><ellipse fill="#a372a4" rx="1" ry="1" transform="matrix(17.00012 5.74196 -3.60792 10.6819 142.4 48.1)"/><path fill="#1d120f" d="M89.2 61L48.7-44.3 60.8-49l40.5 105.5z"/><path fill="#fff" d="M93 67h8v12h-8zm54 41h13v8h-13z"/><path d="M120.5 33l8.4-59.4 38.6 5.4-8.4 59.4z"/><ellipse rx="1" ry="1" transform="matrix(19.60328 -.43933 .79991 35.6925 199 29.9)"/><path fill="#957b79" d="M20 81h22v35H20z"/><path fill="#ffe2ff" d="M71 37.4L58.8 24l8.2-7.4L79 30z"/><ellipse fill="#1c0a14" rx="1" ry="1" transform="matrix(-41.37302 -42.65962 14.86597 -14.41762 171.1 93.3)"/><path fill="#ab8785" d="M24.6 119l-37.8 4-1.4-14 37.8-4z"/><path fill="#d45056" d="M57 92.7l-13 22.6-7-4 13-22.6z"/><ellipse fill="#875f36" cx="169" cy="5" rx="9" ry="55"/><ellipse fill="#1a2996" cx="139" cy="117" rx="10" ry="15"/><path fill="#f7e9fc" d="M70.2 42.7L59.7 71.4 82 50.6l-2 20.1z"/><path fill="#1d0a07" d="M38 59h37v43H38z"/><path fill="#c2b0d5" d="M164 57l-17-22-17-1z"/><ellipse fill="#070600" cx="49" cy="129" rx="51" ry="15"/></g></svg>