<svg xmlns="http://www.w3.org/2000/svg" viewBox="0 0 700 467"><filter id="b"><feGaussianBlur stdDeviation="12" /></filter><path fill="#27543e" d="M0 0h700v464H0z"/><g filter="url(#b)" transform="translate(1.4 1.4) scale(2.73438)" fill-opacity=".5"><ellipse fill="#d1ffd4" rx="1" ry="1" transform="matrix(.3803 21.78691 -153.35804 2.67687 141.5 88.4)"/><ellipse cx="94" cy="147" rx="195" ry="32"/><path d="M-4.7 67.4l-5.5-78.8 56.9-4 5.5 78.8z"/><ellipse fill="#63a076" cx="225" cy="98" rx="113" ry="27"/><ellipse rx="1" ry="1" transform="matrix(3.71128 -33.43107 214.87425 23.85384 49.1 141.8)"/><ellipse fill="#008a61" cx="170" cy="19" rx="122" ry="34"/><ellipse fill="#ffffdb" rx="1" ry="1" transform="matrix(1.57373 10.65725 -28.83142 4.25745 46.9 87)"/><path fill="#1e1b00" d="M172 76h84v8h-84z"/><path fill="#fff" d="M164.1 111.5l-19 1-1.2-24 19-1z"/><ellipse cy="29" rx="48" ry="48"/><path fill="#fffff7" d="M55 78h17v29H55z"/><ellipse fill="#f7ffff" cx="142" cy="72" rx="41" ry="6"/><path fill="#d1ffff" d="M210 115l20 7-2-33z"/><ellipse fill="#00431c" cx="92" cy="57" rx="33" ry="16"/><ellipse rx="1" ry="1" transform="rotate(-154 75.7 38.2) scale(9.07271 5.27593)"/><ellipse cx="43" cy="117" rx="8" ry="22"/><path fill="#ffca6d" d="M35 59h7v35h-7z"/><ellipse fill="#008034" cx="252" cy="73" rx="10" ry="36"/><ellipse fill="#00380f" cx="174" cy="56" rx="90" ry="8"/><ellipse fill="#a69f53" cx="16" cy="78" rx="5" ry="21"/><path fill="#f9ffff" d="M28 80l13 26-24-3z"/><path fill="#00af57" d="M80 97h27v13H80z"/></g></svg>