<svg xmlns="http://www.w3.org/2000/svg" viewBox="0 0 700 467"><filter id="b"><feGaussianBlur stdDeviation="12" /></filter><path fill="#695c55" d="M0 0h700v464H0z"/><g filter="url(#b)" transform="translate(1.4 1.4) scale(2.73438)" fill-opacity=".5"><ellipse fill="#fffff6" rx="1" ry="1" transform="matrix(39.9595 -67.78956 31.0023 18.27474 169 58.7)"/><ellipse rx="1" ry="1" transform="matrix(-43.97699 19.39616 -31.60316 -71.65396 81.4 139.4)"/><ellipse fill="#0b0500" cx="72" cy="41" rx="19" ry="30"/><path d="M117.6 66.3l-8.3-67.5 26.6-4.6 7.5 50z"/><ellipse cx="82" cy="151" rx="51" ry="51"/><ellipse fill="#ffe3b0" rx="1" ry="1" transform="matrix(-18.2892 -1.52149 2.66568 -32.04303 200 61)"/><path fill="#fffff8" d="M109.1 54.2l3.7-31.5-21.3 35.4 22.1 31.8z"/><path fill="#503328" d="M194 185l77-28-109-91z"/><ellipse fill="#0d0000" cx="240" cy="31" rx="20" ry="21"/><ellipse fill="#ebf1ff" cx="143" cy="70" rx="21" ry="21"/><path fill="#b49183" d="M34-16l-1 162-49-105z"/><path fill="#fff" d="M85 13h17v13H85z"/><ellipse fill="#fde1b0" rx="1" ry="1" transform="matrix(-18.99755 3.47405 -13.0914 -71.58926 174 0)"/><ellipse fill="#9198bb" cx="142" cy="110" rx="22" ry="31"/><path fill="#cfac7a" d="M270.4 106.4l-64 2.2-.8-23 64-2.2z"/><ellipse fill="#ffe1cd" cx="102" cy="124" rx="10" ry="6"/><path fill="#2c2e3a" d="M133 119l-4-31 32 39z"/><ellipse rx="1" ry="1" transform="matrix(-19.57198 -12.00479 15.31955 -24.9762 58.7 100.1)"/><ellipse fill="#15182a" rx="1" ry="1" transform="rotate(7.9 -187.9 335.6) scale(7.36022 52.91727)"/><ellipse fill="#110e0b" cx="117" cy="86" rx="4" ry="56"/><path fill="#f2f2fb" d="M150.1 149.4l-32.8-34.8L129 88.2l4 30.7z"/><path fill="#f1ead2" d="M104.4-3L85.6 15.2 102.2 49 80-16z"/></g></svg>