<svg xmlns="http://www.w3.org/2000/svg" viewBox="0 0 200 133"><filter id="b"><feGaussianBlur stdDeviation="12" /></filter><path fill="#183655" d="M0 0h200v133H0z"/><g filter="url(#b)" transform="translate(.5 .5)" fill-opacity=".5"><ellipse fill="#86fbff" cx="99" cy="65" rx="55" ry="41"/><ellipse rx="1" ry="1" transform="matrix(-41.74631 .90876 -2.72254 -125.0674 196.8 69.5)"/><ellipse fill="#a8e6ff" rx="1" ry="1" transform="matrix(-15.66416 -12.4762 21.09179 -26.48124 79.1 79.5)"/><ellipse fill="#000001" rx="1" ry="1" transform="matrix(42.93287 2.33821 -10.8219 198.70553 10.6 67.3)"/><ellipse fill="#000005" cx="67" cy="8" rx="101" ry="23"/><ellipse fill="#00000b" cx="69" cy="121" rx="199" ry="14"/><path fill="#7fb2dc" d="M112 24h42v45h-42z"/><path fill="#003a82" d="M153.7 74.3l-3.6 28.8-27.8-3.4 3.6-28.8z"/><ellipse rx="1" ry="1" transform="matrix(5.45326 83.45513 -26.98072 1.76302 182.5 35.5)"/><ellipse fill="#58b1ff" cx="86" cy="69" rx="37" ry="37"/><ellipse fill="#001a91" cx="44" cy="67" rx="11" ry="41"/><path fill="#a6c0f6" d="M57 40h24v67H57z"/><ellipse fill="#000e53" cx="65" cy="26" rx="42" ry="9"/><ellipse fill="#cce8f6" rx="1" ry="1" transform="rotate(55 -25 114) scale(10.49194 21.92983)"/><ellipse fill="#000016" rx="1" ry="1" transform="matrix(-24.47621 8.38008 -35.98074 -105.09114 16.5 88)"/><ellipse fill="#0091de" rx="1" ry="1" transform="rotate(-118.8 60 -7.4) scale(10.76088 19.79797)"/><path fill="#000025" d="M93 104h103v29H93z"/><ellipse fill="#2196e5" rx="1" ry="1" transform="matrix(16.03489 -15.43071 13.5421 14.07233 105.3 85.6)"/><ellipse fill="#004a8d" cx="129" cy="71" rx="4" ry="39"/><ellipse fill="#00000f" rx="1" ry="1" transform="matrix(-27.00843 18.37231 -12.72924 -18.71277 129.5 .8)"/><path fill="#002084" d="M65.3 118L44 106l57.6 1-15.7 14z"/><path fill="#142fb7" d="M178 118l-63-17 25-6z"/></g></svg>