<svg xmlns="http://www.w3.org/2000/svg" viewBox="0 0 200 133"><filter id="b"><feGaussianBlur stdDeviation="12" /></filter><path fill="#321e30" d="M0 0h200v133H0z"/><g filter="url(#b)" transform="translate(.5 .5)" fill-opacity=".5"><ellipse fill="#eac4ff" rx="1" ry="1" transform="matrix(56.39606 -8.88978 4.23594 26.87249 98.3 64)"/><path fill="#ffd6ff" d="M38 76h139v10H38z"/><ellipse cx="105" cy="114" rx="199" ry="27"/><ellipse rx="1" ry="1" transform="matrix(31.44589 -33.48647 12.6388 11.86863 176.6 30)"/><ellipse rx="1" ry="1" transform="matrix(-20.27258 -31.5814 14.47592 -9.29231 39.5 33.5)"/><path fill="#907cff" d="M56 36h93v18H56z"/><ellipse fill="#0e0000" cx="142" cy="9" rx="171" ry="27"/><path fill="#46dfee" d="M136 37l-43-2-3 39z"/><path fill="#c56599" d="M118 64h60v23h-60z"/><ellipse rx="1" ry="1" transform="matrix(35.53712 42.0525 -12.63303 10.67574 176.7 48.4)"/><ellipse cx="35" cy="40" rx="23" ry="23"/><path fill="#ff4aff" d="M59 36h18v15H59z"/><ellipse cx="100" cy="120" rx="199" ry="25"/><path fill="#000006" d="M77 12h9v39h-9z"/><path fill="#170022" d="M129 72.1l54-30.7-61.4 16 28.1 18.2z"/><path fill="#ff01da" d="M145.8 58.7L129 56l3.2-20.7L149 38z"/><path fill="#eb15ea" d="M189 28h11v10h-11z"/><ellipse fill="#d3019f" rx="1" ry="1" transform="matrix(-20.71762 4.23707 -.74449 -3.64025 32.8 81)"/><path fill="#fffbff" d="M99 66L43 80l26 6z"/><ellipse fill="#b3366b" cx="78" cy="3" rx="67" ry="2"/><path fill="#ca15b0" d="M14 25l-2 13-28-15z"/><path fill="#ffdcff" d="M84 78h71v6H84z"/></g></svg>