<svg xmlns="http://www.w3.org/2000/svg" viewBox="0 0 200 133"><filter id="b"><feGaussianBlur stdDeviation="12" /></filter><path fill="#4c4479" d="M0 0h200v133H0z"/><g filter="url(#b)" transform="translate(.5 .5)" fill-opacity=".5"><ellipse fill="#fff5ff" cx="143" cy="111" rx="184" ry="26"/><ellipse rx="1" ry="1" transform="matrix(-42.94715 49.4377 -42.53235 -36.94838 37.5 30.2)"/><ellipse fill="#002" cx="158" cy="38" rx="45" ry="45"/><ellipse fill="#fff" cx="102" cy="62" rx="12" ry="33"/><ellipse cx="73" cy="132" rx="19" ry="13"/><ellipse cx="38" cy="33" rx="58" ry="58"/><ellipse fill="#b5b9ff" cx="189" cy="112" rx="114" ry="31"/><ellipse fill="#c99aff" rx="1" ry="1" transform="matrix(3.48925 26.3979 -34.40702 4.5479 26.3 117)"/><ellipse fill="#000047" rx="1" ry="1" transform="matrix(-20.15299 24.1014 -64.97543 -54.33083 133 22.3)"/><ellipse fill="#f8f5ff" cx="103" cy="58" rx="16" ry="16"/><path fill="#2a2c70" d="M111.4 98.5l109-2 .2 11-109 2z"/><ellipse fill="#000012" rx="1" ry="1" transform="rotate(177 66.9 38.5) scale(19.81976 11.98826)"/><path d="M92.3 63.7l-8.5 23.5-30.1-11 8.5-23.4z"/><path fill="#4745ea" d="M70.7 107.6L113 96.5l-28 18.7-50.8 13.3z"/><ellipse fill="#15009c" cx="154" cy="6" rx="54" ry="16"/><ellipse rx="1" ry="1" transform="matrix(2.93228 -6.25975 12.34557 5.78309 70.3 128.6)"/><path fill="#7eb9f3" d="M163.2-9.4l34.3 127.9L153.9-16h-9.6z"/><ellipse fill="#f3f6ff" cx="166" cy="92" rx="104" ry="5"/><ellipse fill="#000010" cx="2" cy="47" rx="84" ry="46"/><ellipse fill="#c092ff" rx="1" ry="1" transform="matrix(77.25327 -7.18905 .98351 10.5688 53.9 99.9)"/><ellipse fill="#060017" rx="1" ry="1" transform="matrix(4.88021 -34.31743 17.11293 2.4336 155 49.8)"/><ellipse fill="#e3dfff" cx="180" cy="116" rx="117" ry="7"/></g></svg>