<svg xmlns="http://www.w3.org/2000/svg" viewBox="0 0 200 133"><filter id="b"><feGaussianBlur stdDeviation="12" /></filter><path fill="#595e62" d="M0 0h200v133H0z"/><g filter="url(#b)" transform="translate(.5 .5)" fill-opacity=".5"><ellipse fill="#cde5ff" cx="47" cy="62" rx="32" ry="29"/><ellipse rx="1" ry="1" transform="rotate(-176.3 20.2 4.6) scale(117.94858 25.81354)"/><ellipse fill="#c1ffae" rx="1" ry="1" transform="matrix(25.268 45.81132 -32.48983 17.9203 148.4 132)"/><ellipse cx="199" cy="73" rx="29" ry="30"/><ellipse fill="#aed3ff" rx="1" ry="1" transform="matrix(-2.36459 20.32118 -41.1544 -4.78876 195.8 23.8)"/><path d="M66 85h21v48H66z"/><path fill="#fff0e7" d="M96.2 41.7l17 .6-1.4 38-17-.6z"/><ellipse fill="#297eff" cx="106" cy="104" rx="11" ry="32"/><ellipse fill="#bec4ff" rx="1" ry="1" transform="matrix(-9.2814 -1.78732 3.80293 -19.74836 163.4 71.6)"/><path fill="#fff" d="M4.9 61.7l12.4 11.6-10.2 11-12.4-11.6z"/><ellipse cx="12" cy="10" rx="32" ry="32"/><ellipse fill="#080000" rx="1" ry="1" transform="matrix(57.0756 -15.60062 3.0626 11.20468 123 8.6)"/><ellipse fill="#eea581" cx="56" cy="36" rx="20" ry="10"/><ellipse fill="#ccc19b" rx="1" ry="1" transform="matrix(-15.31887 -1.64538 3.14789 -29.30747 50 119)"/><ellipse fill="#0040db" rx="1" ry="1" transform="rotate(31.2 -91.4 365) scale(38.23952 6.82044)"/><path d="M191 107l-27-70 47 16zM12 79h14v19H12z"/><path fill="#72d400" d="M174 21l23 5-57 15z"/><path fill="#000012" d="M114 65h42v14h-42z"/><path fill="#330800" d="M75 0h79v45H75z"/><path fill="#222a3b" d="M61 61l-6-38 13 24z"/><ellipse fill="#1b36ff" rx="1" ry="1" transform="matrix(-11.27683 2.43615 -1.73883 -8.04894 181.8 37.5)"/></g></svg>