<svg xmlns="http://www.w3.org/2000/svg" viewBox="0 0 200 133"><filter id="b"><feGaussianBlur stdDeviation="12" /></filter><path fill="#707071" d="M0 0h200v133H0z"/><g filter="url(#b)" transform="translate(.5 .5)" fill-opacity=".5"><ellipse fill="#fff" cx="116" cy="17" rx="199" ry="28"/><ellipse fill="#010000" cx="92" cy="101" rx="124" ry="51"/><ellipse fill="#dad4de" cx="136" cy="88" rx="10" ry="35"/><ellipse fill="#feffff" cx="126" cy="10" rx="112" ry="24"/><ellipse fill="#bbb1a9" rx="1" ry="1" transform="matrix(-29.21765 18.3185 -8.17984 -13.04668 163.4 58.1)"/><ellipse fill="#000103" cx="85" cy="83" rx="31" ry="31"/><path fill="#fff" d="M99.5 134.4l-2-17.9 9-1 2 18z"/><path fill="#fffff9" d="M35 86h15v16H35z"/><ellipse fill="#090500" rx="1" ry="1" transform="matrix(-41.62538 10.93591 -6.35757 -24.19883 183.8 116)"/><ellipse fill="#2f150c" cx="97" cy="52" rx="10" ry="24"/><path fill="#090805" d="M0 103h85v30H0z"/><path fill="#330f00" d="M22.3 39.4l16.9-14.2 4.5 5.4-16.9 14.2z"/><ellipse fill="#bcc7d2" rx="1" ry="1" transform="matrix(-18.2281 3.3126 -3.8282 -21.06518 12.8 30.8)"/><ellipse fill="#55443b" rx="1" ry="1" transform="matrix(-2.64904 -13.4475 15.18525 -2.99136 134.9 49.7)"/><path fill="#eef1f1" d="M58 48L35 59 73 6z"/><ellipse fill="#93897d" cy="70" rx="19" ry="19"/><ellipse fill="#8c8894" cx="128" cy="110" rx="17" ry="17"/><path fill="#181817" d="M133.6 68L60.4 44.3 40.8 66.9-16 103.7z"/><ellipse fill="#e8f8ff" rx="1" ry="1" transform="matrix(-3.04838 26.45866 -75.19352 -8.66328 113 4.3)"/><path fill="#b3d8ee" d="M53 102l11-5-7-10z"/><path fill="#e9f2ff" d="M87.3-16l2.1 73.2-8.2-8.9L65.6 3.4z"/><path fill="#0a0906" d="M21 51h11v52H21z"/></g></svg>