<svg xmlns="http://www.w3.org/2000/svg" viewBox="0 0 200 133"><filter id="b"><feGaussianBlur stdDeviation="12" /></filter><path fill="#41392c" d="M0 0h200v133H0z"/><g filter="url(#b)" transform="translate(.5 .5)" fill-opacity=".5"><ellipse fill="#c7aa77" cx="95" rx="64" ry="64"/><ellipse fill="#000002" cx="80" cy="89" rx="54" ry="54"/><ellipse fill="#000001" cx="183" cy="95" rx="65" ry="48"/><ellipse fill="#b69666" rx="1" ry="1" transform="matrix(16.99697 23.13857 -17.41575 12.79314 35.4 25.4)"/><ellipse fill="#c9b27f" cx="140" cy="19" rx="102" ry="13"/><ellipse fill="#00000b" cx="23" cy="95" rx="17" ry="48"/><path fill="#fff" d="M6.7 90.6l-6-.2.6-15 6 .2z"/><path fill="#1c1109" d="M113 33h37v14h-37z"/><path fill="#c79e79" d="M92 18l9 32 24 6z"/><ellipse fill="#000302" rx="1" ry="1" transform="matrix(-32.56856 22.58 -15.09803 -21.77685 31.9 126.6)"/><ellipse fill="#070605" cx="2" cy="49" rx="20" ry="24"/><ellipse fill="#000007" rx="1" ry="1" transform="matrix(20.65451 1.01017 -2.90237 59.34318 192.5 97.8)"/><ellipse fill="#624f2b" rx="1" ry="1" transform="matrix(-8.7609 14.56342 -78.8101 -47.40969 199 13.3)"/><path fill="#0d0e12" d="M74 33h20v93H74z"/><ellipse fill="#9a854e" cx="96" cy="49" rx="3" ry="33"/><ellipse fill="#997048" cx="56" cy="56" rx="4" ry="24"/><path fill="#bfb18d" d="M105 12l64 16-133 6z"/><ellipse fill="#617058" cx="150" cy="131" rx="12" ry="12"/><ellipse fill="#a28b67" cx="154" cy="38" rx="4" ry="21"/><ellipse fill="#806a3d" rx="1" ry="1" transform="matrix(-.52193 -13.66815 39.093 -1.4928 20.8 14.5)"/><path fill="#fff" d="M5.5 93l-2-9.8 1-.2 2 9.8z"/><ellipse fill="#fff" cx="48" cy="35" rx="4" ry="4"/></g></svg>