<svg xmlns="http://www.w3.org/2000/svg" viewBox="0 0 700 467"><filter id="b"><feGaussianBlur stdDeviation="12" /></filter><path fill="#4d5783" d="M0 0h700v464H0z"/><g filter="url(#b)" transform="translate(1.4 1.4) scale(2.73438)" fill-opacity=".5"><ellipse fill="#fff" rx="1" ry="1" transform="matrix(-86.18324 -3.76284 1.36873 -31.3491 128.3 125.6)"/><ellipse rx="1" ry="1" transform="matrix(-208.6378 -10.56914 .86846 -17.14362 141.2 9.2)"/><ellipse rx="1" ry="1" transform="rotate(92.6 -59 78.3) scale(142.72057 15.34666)"/><ellipse fill="#fffffd" rx="1" ry="1" transform="matrix(2.90481 -14.40625 63.58839 12.82167 178.7 136.8)"/><ellipse cx="175" cy="167" rx="227" ry="12"/><ellipse cx="193" cy="161" rx="23" ry="22"/><ellipse fill="#1844e9" cx="69" cy="58" rx="43" ry="33"/><path fill="#000036" d="M178 102h47v23h-47z"/><ellipse fill="#edffff" rx="1" ry="1" transform="matrix(-29.04933 10.80335 -4.63996 -12.47648 64.8 133.5)"/><path fill="#8b99db" d="M203.7 109.8l-75-2.6 1.6-47 75 2.6z"/><path fill="#feffff" d="M88 118h70v38H88z"/><ellipse cx="252" cy="133" rx="20" ry="18"/><ellipse cx="217" cy="68" rx="8" ry="59"/><ellipse fill="#9aadf8" rx="1" ry="1" transform="matrix(27.1422 9.76222 -5.95052 16.5444 58.5 101.8)"/><ellipse fill="#2e5ef9" rx="1" ry="1" transform="matrix(13.99355 -4.2249 13.947 46.19467 242.1 65.2)"/><ellipse fill="#2e2610" rx="1" ry="1" transform="rotate(156.5 19.5 88.1) scale(17.65258 24.4918)"/><ellipse fill="#fff" rx="1" ry="1" transform="rotate(-140.3 132.7 27.9) scale(20.88079 7.81415)"/><path d="M206 4L16-16l1 50z"/><ellipse fill="#7097e0" rx="1" ry="1" transform="matrix(-2.08578 -18.3067 56.84482 -6.47665 95.2 103.5)"/><ellipse fill="#00000d" cx="9" cy="126" rx="30" ry="30"/><path fill="#ffcbdb" d="M117 22h25v13h-25z"/><ellipse fill="#0a1fb5" cx="159" cy="45" rx="27" ry="23"/></g></svg>