<svg xmlns="http://www.w3.org/2000/svg" viewBox="0 0 700 467"><filter id="b"><feGaussianBlur stdDeviation="12" /></filter><path fill="#424155" d="M0 0h700v464H0z"/><g filter="url(#b)" transform="translate(1.4 1.4) scale(2.73438)" fill-opacity=".5"><ellipse fill="#fbe8ff" rx="1" ry="1" transform="matrix(48.42814 -28.18585 14.4631 24.8501 129.6 68.2)"/><ellipse rx="1" ry="1" transform="matrix(-8.27575 58.74111 -26.2274 -3.69505 52.2 112)"/><ellipse rx="1" ry="1" transform="matrix(44.0272 -34.37706 15.79178 20.22476 103.3 152.7)"/><ellipse fill="#000005" cx="255" cy="107" rx="65" ry="65"/><ellipse fill="#df84b6" rx="1" ry="1" transform="matrix(-14.71544 -9.2084 26.77972 -42.79524 170.3 143.4)"/><ellipse fill="#83b2ca" cx="83" cy="12" rx="48" ry="21"/><ellipse fill="#74ccff" rx="1" ry="1" transform="matrix(11.55588 -13.97224 30.4705 25.20092 8.2 163.5)"/><ellipse cx="117" cy="52" rx="14" ry="14"/><path fill="#d6cfff" d="M79 77h24v57H79z"/><ellipse fill="#000100" rx="1" ry="1" transform="matrix(27.7934 -38.25434 15.61548 11.3453 210.4 36.7)"/><ellipse fill="#680003" rx="1" ry="1" transform="rotate(2.5 -3554 4429.4) scale(25.24787 29.81346)"/><ellipse fill="#d7ffff" cx="154" cy="153" rx="7" ry="27"/><ellipse rx="1" ry="1" transform="rotate(-10.8 917.1 -538) scale(15.36554 61.0173)"/><ellipse fill="#fae6ff" rx="1" ry="1" transform="matrix(6.7263 -14.82806 16.21468 7.3553 151.2 43.2)"/><ellipse fill="#71709e" cx="169" cy="101" rx="30" ry="35"/><ellipse fill="#000001" rx="1" ry="1" transform="matrix(-12.67557 -18.89611 34.20624 -22.94565 45.8 124.2)"/><ellipse fill="#a2dbec" rx="1" ry="1" transform="matrix(2.44832 -6.76037 12.77268 4.62572 246 35.6)"/><path fill="#6292ff" d="M9 136.8l34 40.6-26 21.8-34-40.6z"/><ellipse rx="1" ry="1" transform="matrix(-29.96 -8.81974 2.83806 -9.64069 27.2 63)"/><ellipse fill="#dbdaff" rx="1" ry="1" transform="matrix(-.31856 30.41905 -7.78354 -.08151 99.8 75.2)"/><ellipse fill="#000e2b" rx="1" ry="1" transform="matrix(26.67011 -2.40931 3.70199 40.9795 216.5 169)"/><path fill="#da172b" d="M184.6 182.7l-32.8-3.9 16.7-39.4 24.1 2.7z"/></g></svg>