<svg xmlns="http://www.w3.org/2000/svg" viewBox="0 0 200 133"><filter id="b"><feGaussianBlur stdDeviation="12" /></filter><path fill="#4d4256" d="M0 0h200v133H0z"/><g filter="url(#b)" transform="translate(.5 .5)" fill-opacity=".5"><ellipse fill="#efabff" rx="1" ry="1" transform="matrix(21.85534 -20.49143 14.80412 15.78949 7.8 117.3)"/><ellipse fill="#ccb1bc" rx="1" ry="1" transform="matrix(3.13968 -19.80946 39.98344 6.33713 78.3 52)"/><path fill="#0d0100" d="M112.9-19.8l126.9-4.4 3.3 96-126.9 4.4z"/><ellipse fill="#00051c" cx="19" cy="17" rx="34" ry="54"/><path fill="#adc3bf" d="M215 110l-51-12-22 35z"/><path fill="#fff5e4" d="M147.5 66.6l29-4.5L156 75l-7.5 10.2z"/><ellipse fill="#aa8cbf" cx="71" cy="102" rx="16" ry="16"/><path fill="#fffffd" d="M108 60V28L84 76z"/><path fill="#07032c" d="M27 89l44-38 16 25z"/><path fill="#a5c3a1" d="M87.6 125l19.8 8.4 12-20.4-31.5.2z"/><path fill="#cbe9ff" d="M43.9 45.9L54 62.5l7.6-46.8L76.2 27z"/><path fill="#ffdb95" d="M107 88h24v8h-24z"/><path d="M116 109h17v24h-17z"/><ellipse fill="#d0c5c7" rx="1" ry="1" transform="matrix(-5.55011 -2.58806 11.81398 -25.33517 100 53.8)"/><path fill="#b562db" d="M0 91h38v23H0z"/><ellipse fill="#af8580" cx="199" cy="101" rx="16" ry="25"/><path fill="#e6f5ff" d="M71.3 45.3l10 .4-.6 15-10-.4z"/><path fill="#5faad9" d="M159.3 146.6l9.3-31.9-34.8 3.2 30 30.1z"/><path fill="#40155c" d="M153-11L90 44 49-4z"/><ellipse fill="#37215b" rx="1" ry="1" transform="rotate(61.1 13.6 85.6) scale(6.38295 31.29654)"/><path fill="#5f2000" d="M214 140.3l-49-2.6 1-18 49 2.6z"/><path fill="#0a060f" d="M98 65L81 98l40-19z"/></g></svg>