<svg xmlns="http://www.w3.org/2000/svg" viewBox="0 0 200 133"><filter id="b"><feGaussianBlur stdDeviation="12" /></filter><path fill="#918f8d" d="M0 0h200v133H0z"/><g filter="url(#b)" transform="translate(.5 .5)" fill-opacity=".5"><ellipse fill="#fff" rx="1" ry="1" transform="matrix(6.95464 -35.4481 90.09933 17.67679 121 21)"/><ellipse fill="#1a100d" cx="112" cy="95" rx="182" ry="21"/><ellipse fill="#f6ffff" rx="1" ry="1" transform="matrix(-83.29207 -15.39769 6.08326 -32.9067 108.4 11.8)"/><ellipse fill="#523619" rx="1" ry="1" transform="matrix(-8.47435 11.53643 -35.73124 -26.2472 30 30.4)"/><ellipse fill="#4c5655" cx="199" cy="103" rx="43" ry="43"/><ellipse fill="#858065" rx="1" ry="1" transform="matrix(11.24468 -46.2872 32.33698 7.85571 0 103.5)"/><path fill="#45251d" d="M34 69h90v43H34z"/><ellipse fill="#e8f7ff" rx="1" ry="1" transform="rotate(-14.2 76.4 -576.8) scale(89.4066 32.95911)"/><path fill="#ffffe3" d="M11 46h29v15H11z"/><path fill="#545859" d="M181 44h19v89h-19z"/><path fill="#ff0f11" d="M33 66h14v19H33z"/><path fill="#b2d3f2" d="M149 56h8v41h-8z"/><path fill="#a0a5a4" d="M166.7 97.3l8 9.5 28 7.8L175.4 80z"/><path fill="#2a241c" d="M132 53h9v45h-9z"/><path fill="#c6d7ed" d="M124 44l87-60-40 92z"/><ellipse fill="#3c2107" rx="1" ry="1" transform="rotate(-137.5 6 12.7) scale(15.7647 9.65652)"/><path fill="#ecbabd" d="M119 41L99 89l-7-19z"/><ellipse fill="#683f2f" rx="1" ry="1" transform="rotate(4.9 -786.3 627.1) scale(8.35874 28.76119)"/><path fill="#030a10" d="M92.5 110.6l50.4-14.5-46.4-6.7-9-16.3z"/><path fill="#ecfaff" d="M98-1L33 12l-49-26z"/><path fill="#eaf5f3" d="M81 65.2L59.2 47.4l-.1 9.4 1.9 2z"/><ellipse fill="#7d786a" cx="4" cy="92" rx="29" ry="36"/></g></svg>