<svg xmlns="http://www.w3.org/2000/svg" viewBox="0 0 200 133"><filter id="b"><feGaussianBlur stdDeviation="12" /></filter><path fill="#6c6970" d="M0 0h200v133H0z"/><g filter="url(#b)" transform="translate(.5 .5)" fill-opacity=".5"><ellipse fill="#d4e4e6" rx="1" ry="1" transform="rotate(5.5 -56.2 1117.8) scale(118.41428 19.49451)"/><ellipse fill="#321c1b" cx="159" cy="87" rx="42" ry="42"/><ellipse fill="#ff0300" cy="83" rx="28" ry="19"/><ellipse fill="#000330" cx="64" cy="101" rx="32" ry="20"/><ellipse fill="#ff3100" cx="3" cy="76" rx="14" ry="24"/><path fill="#eededf" d="M30 76l22 9-9-37z"/><ellipse fill="#311416" rx="1" ry="1" transform="matrix(14.74832 7.22513 -13.4142 27.38179 134 102.7)"/><ellipse fill="#0f517d" rx="1" ry="1" transform="matrix(-30.46641 11.42553 -6.17689 -16.4708 98.7 72.9)"/><ellipse fill="#f5feff" cx="95" cy="3" rx="25" ry="13"/><path fill="#ff2800" d="M166 71.6l8 4.3-14 26.5-8-4.3z"/><path fill="#000f2c" d="M-16 103l2 23 75-39z"/><ellipse fill="#727782" cx="182" cy="125" rx="36" ry="36"/><ellipse fill="#929a94" rx="1" ry="1" transform="matrix(3.28653 16.94741 -36.82873 7.14202 168.3 31.2)"/><path fill="#220f00" d="M115.3 23l-1.9 45-8.6-50.4-34.6 40.7z"/><ellipse fill="#003538" rx="1" ry="1" transform="rotate(13.5 -182 858.5) scale(24.85785 25.18864)"/><path fill="#0c1015" d="M122-26.6l6 .2-4 113-6-.2z"/><path fill="#edffff" d="M100 53l1-25 12 28z"/><ellipse fill="#8caeb8" cx="15" cy="25" rx="9" ry="44"/><ellipse fill="#2d4257" cx="60" cy="56" rx="5" ry="70"/><path fill="#000c2c" d="M79 67L51 93l32 34z"/><ellipse fill="#8f9ba2" rx="1" ry="1" transform="matrix(43.8692 9.86768 -2.35544 10.4717 45 23.2)"/><path fill="#ff3800" d="M166 72l1-17-14-2z"/></g></svg>