<svg xmlns="http://www.w3.org/2000/svg" viewBox="0 0 200 133"><filter id="b"><feGaussianBlur stdDeviation="12" /></filter><path fill="#855f74" d="M0 0h200v133H0z"/><g filter="url(#b)" transform="translate(.5 .5)" fill-opacity=".5"><ellipse fill="#001410" rx="1" ry="1" transform="matrix(8.25083 17.94994 -39.49186 18.15275 58.2 38.7)"/><path fill="#7790ff" d="M48 76l29-36 115 43z"/><ellipse fill="#000d0c" rx="1" ry="1" transform="matrix(3.978 -17.2837 29.73835 6.84454 129.4 32.5)"/><ellipse fill="#e1dafd" cx="103" rx="199" ry="14"/><ellipse fill="#be3515" cx="164" cy="132" rx="60" ry="43"/><ellipse fill="#cb2001" rx="1" ry="1" transform="matrix(-25.9066 7.53598 -6.2754 -21.57307 38.4 119.6)"/><ellipse fill="#fffbc8" cx="98" cy="132" rx="12" ry="43"/><ellipse fill="#300b10" cx="127" cy="102" rx="15" ry="15"/><path fill="#8375b0" d="M41.4 81l-30.7 4.3L.6 13l30.7-4.3z"/><ellipse fill="red" cx="166" cy="61" rx="21" ry="4"/><ellipse fill="#fdffff" rx="1" ry="1" transform="matrix(-12.87766 3.39383 -2.4848 -9.4284 .2 106)"/><ellipse fill="#710c00" cx="76" cy="110" rx="13" ry="13"/><path fill="#ff6240" d="M72 55h78v5H72z"/><path fill="#dda856" d="M30 125h161v8H30z"/><ellipse fill="#2c6bff" rx="1" ry="1" transform="matrix(3.2727 22.27011 -6.8859 1.01192 199 70.2)"/><path fill="#7b120c" d="M18 58h54v9H18z"/><path fill="#d6dde4" d="M39 84l32 14 37-6z"/><ellipse fill="#bc85b3" cx="179" cy="15" rx="23" ry="22"/><path fill="#221f1e" d="M35 19h75v29H35z"/><ellipse fill="#bb8ef1" rx="1" ry="1" transform="rotate(175.7 51 27.4) scale(25.83338 6.56712)"/><path fill="#cec5d6" d="M189 64l-24 6 24 22z"/><path fill="#40022b" d="M67 81h42v10H67z"/></g></svg>