<svg xmlns="http://www.w3.org/2000/svg" viewBox="0 0 700 467"><filter id="b"><feGaussianBlur stdDeviation="12" /></filter><path fill="#95a7b0" d="M0 0h700v464H0z"/><g filter="url(#b)" transform="translate(1.4 1.4) scale(2.73438)" fill-opacity=".5"><ellipse fill="#fff" cx="127" cy="124" rx="107" ry="26"/><ellipse fill="#260f06" cx="143" cy="166" rx="247" ry="17"/><ellipse fill="#050000" rx="1" ry="1" transform="rotate(87.4 52.9 196.9) scale(49.75553 14.64669)"/><ellipse fill="#031846" rx="1" ry="1" transform="rotate(98.7 -63.5 73.9) scale(61.958 19.00093)"/><path fill="#6e2e08" d="M140 76h36v28h-36z"/><ellipse fill="#fff" rx="1" ry="1" transform="rotate(-86.7 126.7 6.6) scale(18.33561 76.03665)"/><ellipse fill="#364966" cx="219" cy="84" rx="30" ry="21"/><ellipse fill="#1d7fc3" cx="219" rx="48" ry="32"/><path fill="#c9d5dc" d="M20 151h47v19H20z"/><ellipse fill="#9dd3e8" rx="1" ry="1" transform="matrix(-125.19197 21.70221 -5.79173 -33.4103 61.9 34.3)"/><ellipse fill="#f8f7ec" rx="1" ry="1" transform="matrix(7.75498 4.447 -37.3525 65.1378 133.2 84.8)"/><ellipse fill="#2a1913" rx="1" ry="1" transform="rotate(5.9 -1380.5 603.1) scale(29.20933 3.40927)"/><path fill="#0e0000" d="M118 152h47v18h-47z"/><ellipse fill="#fff" cx="48" cy="116" rx="26" ry="16"/><path fill="#fffffd" d="M217 136l-48 11 7-77z"/><path fill="#20140e" d="M173.6 157l58.7-19.2-62.7 9.8-51.8 17.3z"/><path fill="#f2ffff" d="M189.5 149.1l-7.5 14.1-29.6 21.8 4-12.8z"/><ellipse fill="#4e9dd5" rx="1" ry="1" transform="matrix(57.96092 -7.27098 3.36414 26.81739 54.5 0)"/><path fill="#fffff7" d="M112 78h26v74h-26z"/><ellipse fill="#0b306e" cx="13" cy="98" rx="50" ry="5"/><path fill="#010823" d="M110 53h28v7h-28z"/><path fill="#0f0706" d="M115.8 160.8l-79-26.5 40.2 27-6.4-9.6z"/></g></svg>