<svg xmlns="http://www.w3.org/2000/svg" viewBox="0 0 700 467"><filter id="b"><feGaussianBlur stdDeviation="12" /></filter><path fill="#412845" d="M0 0h700v464H0z"/><g filter="url(#b)" transform="translate(1.4 1.4) scale(2.73438)" fill-opacity=".5"><ellipse fill="#e0fdff" rx="1" ry="1" transform="rotate(88.1 19 98.3) scale(25.90919 37.76297)"/><ellipse rx="1" ry="1" transform="rotate(-5.6 455.3 -2307) scale(31.81012 107.62914)"/><ellipse fill="#e7284b" rx="1" ry="1" transform="matrix(-36.98079 3.4306 -2.48959 -26.83695 188.6 72.7)"/><ellipse fill="#df3b49" cx="23" cy="73" rx="48" ry="28"/><ellipse cx="29" cy="17" rx="42" ry="33"/><ellipse fill="#5959b7" rx="1" ry="1" transform="matrix(4.67812 -17.95958 60.2323 15.68934 129.6 158)"/><ellipse fill="#243af6" rx="1" ry="1" transform="matrix(-6.05364 14.42038 -18.28308 -7.6752 158.6 21)"/><ellipse rx="1" ry="1" transform="matrix(-17.08795 -5.2472 12.02653 -39.16543 10.7 138.7)"/><ellipse fill="#cccecf" cx="94" cy="77" rx="19" ry="26"/><ellipse fill="#000061" rx="1" ry="1" transform="matrix(-10.84896 19.14878 -40.79064 -23.11041 108.2 22.4)"/><ellipse fill="#a1cbff" cx="80" cy="25" rx="7" ry="13"/><ellipse fill="#000400" cx="152" cy="113" rx="160" ry="10"/><ellipse cx="214" cy="27" rx="43" ry="21"/><path fill="#ff7792" d="M56 42h11v61H56z"/><ellipse fill="#6c5bcb" cx="141" cy="83" rx="24" ry="19"/><ellipse cx="170" cy="64" rx="5" ry="25"/><ellipse cx="29" cy="62" rx="5" ry="48"/><ellipse cx="120" cy="41" rx="36" ry="11"/><path fill="#ff186a" d="M212 46h9v54h-9z"/><path d="M47 5h10v78H47z"/><ellipse rx="1" ry="1" transform="rotate(172.8 119.2 41.2) scale(20.52899 67.30248)"/><path fill="#ffffd8" d="M89 132h9v22h-9z"/></g></svg>