<svg xmlns="http://www.w3.org/2000/svg" viewBox="0 0 200 133"><filter id="b"><feGaussianBlur stdDeviation="12" /></filter><path fill="#35407c" d="M0 0h200v133H0z"/><g filter="url(#b)" transform="translate(.5 .5)" fill-opacity=".5"><ellipse fill="#fffff9" cx="113" cy="110" rx="18" ry="67"/><ellipse fill="#070d28" cx="40" cy="108" rx="55" ry="55"/><ellipse fill="#040200" rx="1" ry="1" transform="matrix(-41.50403 -8.14277 5.01672 -25.57045 167.6 99)"/><ellipse fill="#2e47d0" cx="98" rx="61" ry="61"/><path fill="#d3e6fb" d="M123 115L15 130l144 18z"/><ellipse fill="#ffe0aa" cx="153" cy="53" rx="8" ry="21"/><ellipse fill="#afb7f3" cx="90" cy="4" rx="18" ry="15"/><ellipse fill="#010300" cx="15" cy="108" rx="80" ry="17"/><path fill="#2e3044" d="M164 95L63 89l150-31z"/><ellipse fill="#092cbd" cx="182" cy="9" rx="59" ry="28"/><ellipse fill="#f5ffff" rx="1" ry="1" transform="matrix(-10.66252 -1.1395 3.23193 -30.2419 105.3 125.2)"/><ellipse fill="#000478" cx="12" cy="15" rx="31" ry="24"/><ellipse fill="#162599" rx="1" ry="1" transform="matrix(-44.73882 -3.90563 1.2259 -14.04254 50.6 66.4)"/><ellipse fill="#786791" cx="90" cy="46" rx="98" ry="7"/><path fill="#12111e" d="M61.5 94.6l41.2-10L90 123.4l-29.7 1z"/><ellipse fill="#fff" cx="108" cy="68" rx="12" ry="8"/><ellipse fill="#627aaa" cx="10" cy="131" rx="84" ry="8"/><path fill="#e7f0f8" d="M134 147l-33-29 26-23z"/><path fill="#ecb130" d="M108 43h9v19h-9z"/><ellipse fill="#0d1425" cx="150" cy="109" rx="21" ry="20"/><ellipse fill="#09156d" rx="1" ry="1" transform="rotate(-110.1 121.2 -36) scale(24.1123 25.58598)"/><path fill="#adc3e6" d="M163.2 80l-2.7-9-17.8-5 21-12.4z"/></g></svg>