<svg xmlns="http://www.w3.org/2000/svg" viewBox="0 0 700 467"><filter id="b"><feGaussianBlur stdDeviation="12" /></filter><path fill="#8b846e" d="M0 0h700v464H0z"/><g filter="url(#b)" transform="translate(1.4 1.4) scale(2.73438)" fill-opacity=".5"><ellipse fill="#532300" rx="1" ry="1" transform="matrix(-197.67495 -17.50747 4.51399 -50.96695 193.6 155.4)"/><ellipse fill="#fff" rx="1" ry="1" transform="matrix(-11.99742 -55.96296 38.03794 -8.15463 255 39.8)"/><ellipse fill="#bed3cd" rx="1" ry="1" transform="rotate(-9.3 261.6 -586.5) scale(163.20584 45.25599)"/><ellipse fill="#f7ffff" rx="1" ry="1" transform="matrix(2.09242 -25.17315 9.33983 .77634 58 102)"/><ellipse fill="#e46200" rx="1" ry="1" transform="rotate(-9 1042.3 -594.5) scale(39.16844 28.45589)"/><path fill="#000107" d="M218 116h34v54h-34z"/><path fill="#121616" d="M93.2 80.6L79.3 123l59.2-85 18 6.5z"/><ellipse fill="#010a12" rx="1" ry="1" transform="matrix(-20.27403 -29.82386 9.01025 -6.1251 15.4 107.4)"/><ellipse fill="#312410" cx="143" cy="89" rx="29" ry="15"/><path fill="#fff9e4" d="M181.3 123l7.3-13.1 20 11.1-7.2 13.1z"/><ellipse fill="#03122c" rx="1" ry="1" transform="rotate(23.3 -196.3 484) scale(12.94787 32.74343)"/><ellipse fill="#eff9f8" cx="253" cy="32" rx="34" ry="34"/><path fill="#ff9c00" d="M143 94h14v46h-14z"/><path fill="#7d1915" d="M114.5 63L96.8 97.8 83.5 91l17.7-34.8z"/><path fill="#f1f2ed" d="M20 71h55v20H20z"/><path fill="red" d="M125.2 149.8l-27.4 5.8-5-23.4 27.4-5.8z"/><ellipse fill="#fff" cx="21" cy="22" rx="4" ry="55"/><path fill="#0e231d" d="M46 99.4l2.8 51.1L24.6 101 44 86z"/><path fill="#1c1406" d="M242.6 114l-20.7 3.6-4.5-25.6 20.7-3.6z"/><ellipse fill="#b0e4f0" rx="1" ry="1" transform="matrix(13.28026 5.20448 -9.40488 23.99842 160.6 53)"/><ellipse fill="#b59200" rx="1" ry="1" transform="matrix(27.17923 16.8465 -10.48848 16.92156 58.6 169)"/><ellipse fill="#6a85ac" cx="109" cy="103" rx="14" ry="26"/></g></svg>