<svg xmlns="http://www.w3.org/2000/svg" viewBox="0 0 700 467"><filter id="b"><feGaussianBlur stdDeviation="12" /></filter><path fill="#442f22" d="M0 0h700v464H0z"/><g filter="url(#b)" transform="translate(1.4 1.4) scale(2.73438)" fill-opacity=".5"><ellipse fill="#ffffe0" cx="196" cy="20" rx="26" ry="41"/><ellipse fill="#ff2f41" rx="1" ry="1" transform="rotate(-84.8 101.1 -35.3) scale(36.85325 12.1176)"/><ellipse fill="#070000" cx="29" cy="120" rx="31" ry="111"/><ellipse fill="#c47b92" rx="1" ry="1" transform="rotate(96.1 -10.3 88.3) scale(30.17095 11.79359)"/><ellipse fill="#b29c85" cx="244" cy="67" rx="9" ry="45"/><ellipse fill="#00020a" rx="1" ry="1" transform="matrix(-46.90395 -65.833 24.47866 -17.44028 237.2 155.5)"/><ellipse fill="#c8a74c" cx="99" cy="16" rx="12" ry="44"/><path fill="#f289a5" d="M85.3 71.3L75.5 80 46.7 46.7l9.8-8.6z"/><path fill="#ffffe3" d="M207 0h10v58h-10z"/><path d="M143.5 46.2l-34.8-17.7 21.8-42.7 34.8 17.7z"/><ellipse fill="#402e24" rx="1" ry="1" transform="matrix(-9.97691 4.1087 -9.44731 -22.94037 195.6 51.3)"/><ellipse fill="#2a0b00" rx="1" ry="1" transform="rotate(159.7 47.8 83.8) scale(60.0655 29.64773)"/><path fill="#f2c699" d="M150 95h5v44h-5z"/><path fill="#ffffc8" d="M169.8 41.4l8.6-54.3 9.8 1.5-8.6 54.3z"/><path d="M220 42l2-56 49 15z"/><ellipse cx="72" cy="21" rx="16" ry="16"/><path fill="#283036" d="M164 56h77v69h-77z"/><ellipse fill="#000003" rx="1" ry="1" transform="matrix(-21.12435 30.28105 -6.38413 -4.45363 155.5 74.9)"/><path fill="#fff8c3" d="M198.4 2.2l17.5 40.3 8.8-58.5-57 20z"/><path fill="#cca886" d="M149.4 93.2l15.8 2.8-2.6 14.8-15.8-2.8z"/><ellipse fill="#f82134" rx="1" ry="1" transform="matrix(-10.93422 10.63096 -9.45799 -9.72779 133.6 67.9)"/><path fill="#14180f" d="M158.7 57.2l-17.5-37-29.3 47.6L95.5 30z"/></g></svg>