<svg xmlns="http://www.w3.org/2000/svg" viewBox="0 0 700 467"><filter id="b"><feGaussianBlur stdDeviation="12" /></filter><path fill="#515252" d="M0 0h700v464H0z"/><g filter="url(#b)" transform="translate(1.4 1.4) scale(2.73438)" fill-opacity=".5"><path fill="#f7faf5" d="M124.4 1.7L257.7-34l20 74.3L144.2 76z"/><ellipse cx="214" cy="169" rx="100" ry="100"/><ellipse fill="#ede8d2" rx="1" ry="1" transform="rotate(-137.9 15.6 6) scale(39.48372 80.92915)"/><ellipse rx="1" ry="1" transform="matrix(-69.33862 -30.0055 18.00991 -41.61846 40.8 139)"/><ellipse fill="#def4ff" cx="108" rx="254" ry="13"/><ellipse fill="#fffffb" cx="169" cy="95" rx="4" ry="24"/><ellipse fill="#625b56" rx="1" ry="1" transform="rotate(-50.7 157.9 -170.5) scale(23.50611 25.29304)"/><path fill="#665f4b" d="M44 7h112v29H44z"/><ellipse fill="#000013" rx="1" ry="1" transform="matrix(-55.47646 123.44072 -28.62528 -12.86471 217.2 147.1)"/><path fill="#fff1c7" d="M79 20h91v7H79z"/><path fill="#aca9bd" d="M43 54h17v48H43z"/><path fill="#e0f4ff" d="M233 0h11v57h-11z"/><path fill="#f0cbbd" d="M81 60h28v13H81z"/><ellipse rx="1" ry="1" transform="matrix(10.49525 -15.75734 26.34025 17.54405 48.2 153.9)"/><ellipse fill="#1f1c06" rx="1" ry="1" transform="matrix(4.21926 8.93435 -28.66756 13.5383 116 44.5)"/><path fill="#fff" d="M45 69h2v64h-2z"/><ellipse fill="#010404" cx="153" cy="169" rx="44" ry="44"/><ellipse fill="#fff" cx="122" rx="82" ry="7"/><path fill="#ffffb1" d="M176.6 133.1l-6 .5-5.2-58.7 6-.5z"/><path fill="#312b17" d="M92.6 24.3L146 66l-84.8-9.7L38 50.6z"/><path fill="#fff" d="M141 37h25v12h-25z"/><ellipse fill="#aa8d61" cx="25" cy="55" rx="21" ry="21"/></g></svg>