<svg xmlns="http://www.w3.org/2000/svg" viewBox="0 0 200 133"><filter id="b"><feGaussianBlur stdDeviation="12" /></filter><path fill="#6b5c57" d="M0 0h200v133H0z"/><g filter="url(#b)" transform="translate(.5 .5)" fill-opacity=".5"><ellipse fill="#fff4ee" rx="1" ry="1" transform="matrix(27.44803 12.50879 -28.07433 61.6035 132.4 47.6)"/><ellipse rx="1" ry="1" transform="rotate(-111 66.5 33) scale(52.44231 42.56889)"/><ellipse fill="#050206" cx="52" cy="114" rx="27" ry="111"/><ellipse cx="99" cy="23" rx="11" ry="23"/><ellipse fill="#523432" rx="1" ry="1" transform="matrix(-18.21588 -29.60949 10.75367 -6.6157 148.9 90.4)"/><ellipse fill="#fcffff" rx="1" ry="1" transform="matrix(4.79272 10.9701 -16.30013 7.12135 110.4 52)"/><ellipse fill="#fcdeb2" rx="1" ry="1" transform="matrix(-18.99896 7.65058 -11.34462 -28.1725 147.9 41.4)"/><ellipse fill="#100000" cx="190" cy="26" rx="18" ry="16"/><ellipse fill="#be988d" cx="19" cy="33" rx="8" ry="89"/><ellipse fill="#e9d5bf" rx="1" ry="1" transform="rotate(149.4 34.3 13.8) scale(6.06336 33.72746)"/><path fill="#fff" d="M92 72L72 47l7-16z"/><ellipse rx="1" ry="1" transform="matrix(-31.5047 5.89594 -3.88232 -20.74497 77.7 121.4)"/><ellipse fill="#b79e7d" cx="183" cy="60" rx="31" ry="20"/><path fill="#4f3d40" d="M112 92h88v41h-88z"/><path fill="#cad4fb" d="M45 28.9l-2 22.9-8-.7 2-22.9z"/><path d="M102 69h4v24h-4z"/><ellipse fill="#fff" rx="1" ry="1" transform="matrix(4.50738 -1.23759 2.5311 9.21845 98.8 89.5)"/><ellipse fill="#ffd8c7" cx="77" cy="97" rx="9" ry="4"/><path fill="#b78774" d="M72 72L58.6 53.2 66 48l13.2 18.8z"/><path fill="#06050f" d="M102.8 22.3l-23 .4-.6-29 23-.4z"/><path fill="#e9cda0" d="M172-5L85-16l85 57z"/><path fill="#241a18" d="M89.5 35l-.4-24.5 8.1 63-10.1 28z"/></g></svg>