<svg xmlns="http://www.w3.org/2000/svg" viewBox="0 0 700 467"><filter id="b"><feGaussianBlur stdDeviation="12" /></filter><path fill="#3f3929" d="M0 0h700v464H0z"/><g filter="url(#b)" transform="translate(1.4 1.4) scale(2.73438)" fill-opacity=".5"><ellipse fill="#e2c587" rx="1" ry="1" transform="matrix(-1.0626 -32.03144 113.3943 -3.76168 126.2 19)"/><path fill="#000002" d="M7.2 74.2l252-4.4 1.6 96-252 4.4z"/><ellipse fill="#c1a17b" rx="1" ry="1" transform="matrix(24.55432 -2.5272 1.7696 17.19355 51.3 47.5)"/><path fill="#fff" d="M-7.6 95.2l16 .6-.8 23-16-.6z"/><ellipse fill="#c6b487" cx="136" cy="24" rx="60" ry="17"/><ellipse fill="#a87a4e" rx="1" ry="1" transform="matrix(2.72876 -9.97468 35.8982 9.82063 153.8 64)"/><ellipse fill="#0d0b06" cx="101" cy="57" rx="25" ry="16"/><path fill="#826f45" d="M219-15.9l52 56.6-77.3 1 2.4 45.6z"/><ellipse fill="#debd5c" rx="1" ry="1" transform="matrix(2.26607 .1399 -1.70482 27.61508 123 83.6)"/><ellipse fill="#000208" cx="255" cy="113" rx="58" ry="58"/><ellipse fill="#06080c" rx="1" ry="1" transform="rotate(60.5 -56.5 40) scale(28.87295 26.411)"/><ellipse fill="#766031" rx="1" ry="1" transform="matrix(4.4052 24.10282 -28.29012 5.1705 28.7 16.4)"/><ellipse fill="#02090a" rx="1" ry="1" transform="matrix(-82.3567 14.75195 -7.08468 -39.55209 65 161.3)"/><path fill="#161611" d="M137.7 41.2L140 51l72.3-9.7-38.4.3z"/><path fill="#75623f" d="M237.7-3.6L180.1-16l50.4 81 8.6-7.4z"/><path fill="#a8865f" d="M79.3 95.2L72 93.6 54.7 24l20 43z"/><path fill="#e1c08b" d="M141 44l-10 3 11 35z"/><ellipse fill="#52674d" rx="1" ry="1" transform="matrix(41.26756 -6.10138 1.15973 7.844 174.7 169)"/><path fill="#0f1314" d="M167 68h65v87h-65z"/><path fill="#eae6e5" d="M58 41h14v12H58z"/><path fill="#dd9e81" d="M54 117l11-4-7-5z"/><ellipse fill="#8e765e" rx="1" ry="1" transform="matrix(-2.94397 2.19882 -5.24115 -7.01733 224.4 73.5)"/></g></svg>