<svg xmlns="http://www.w3.org/2000/svg" viewBox="0 0 200 133"><filter id="b"><feGaussianBlur stdDeviation="12" /></filter><path fill="#510726" d="M0 0h200v133H0z"/><g filter="url(#b)" transform="translate(.5 .5)" fill-opacity=".5"><ellipse fill="#ee101d" rx="1" ry="1" transform="matrix(59.06467 -4.3653 2.3995 32.46632 111 71.9)"/><path fill="#000005" d="M90-16L5 148-16 2z"/><path fill="#bbafc5" d="M71 72h15v57H71z"/><ellipse fill="#bf029a" rx="1" ry="1" transform="matrix(-7.5253 18.0784 -22.73966 -9.4656 144.2 127.8)"/><ellipse cx="199" cy="38" rx="50" ry="33"/><ellipse fill="#37006d" cx="131" cy="10" rx="59" ry="22"/><ellipse fill="#a85382" rx="1" ry="1" transform="rotate(-176.1 29.6 57.7) scale(26.09381 6.4247)"/><ellipse fill="#00000e" cx="13" cy="69" rx="25" ry="90"/><path fill="#cd18ff" d="M120 14l-9-30-6 28z"/><ellipse fill="#f30013" cx="106" cy="62" rx="33" ry="14"/><ellipse fill="#190500" rx="1" ry="1" transform="matrix(-3.03232 23.03273 -32.48159 -4.27628 189.9 93.1)"/><path fill="#140f1b" d="M98 77h18v56H98z"/><path fill="#5b0067" d="M12 22h39v19H12z"/><ellipse fill="#830009" rx="1" ry="1" transform="rotate(-53.3 146.4 -136.1) scale(16.96057 26.77557)"/><path fill="#b9001a" d="M111.9 90l41.3-12 7 24-41.4 12z"/><ellipse fill="#050006" rx="1" ry="1" transform="matrix(-3.35575 13.16513 -31.70775 -8.0822 174.5 27.4)"/><path fill="#ff2206" d="M134.5-1l9.9-1 1.1 11-9.9 1z"/><ellipse fill="#8b010d" rx="1" ry="1" transform="matrix(-6.38826 -25.62193 14.54097 -3.62547 58.5 83.3)"/><ellipse fill="#140034" rx="1" ry="1" transform="matrix(33.49546 1.2993 -.46097 11.88367 101 29)"/><ellipse fill="#7d244e" cx="86" cy="111" rx="88" ry="4"/><path fill="#aaa9b7" d="M72 105l18-30-11-13z"/><path fill="#ea0cfb" d="M161.9 8.6l-9.7 2.6-2-7.8 9.6-2.6z"/></g></svg>