<svg xmlns="http://www.w3.org/2000/svg" viewBox="0 0 200 133"><filter id="b"><feGaussianBlur stdDeviation="12" /></filter><path fill="#3b4357" d="M0 0h200v133H0z"/><g filter="url(#b)" transform="translate(.5 .5)" fill-opacity=".5"><ellipse fill="#a9b4cd" rx="1" ry="1" transform="matrix(-1.38365 -34.167 117.24341 -4.74797 113.3 94.6)"/><ellipse cx="38" cy="4" rx="63" ry="63"/><ellipse cx="159" rx="55" ry="55"/><ellipse fill="#030000" cx="162" cy="91" rx="116" ry="8"/><path fill="#eaf9ff" d="M123 62.7l-2.8 21 94.8-4.3-22.5-9.3z"/><ellipse rx="1" ry="1" transform="rotate(148.4 20.4 18) scale(67.89825 36.2227)"/><path fill="#fff" d="M35 76h59v11H35z"/><path d="M215 6L98 86l37-102z"/><path fill="#ffffb9" d="M120.4 45L119 30.3l-22.8 1.8-9.4 10.2z"/><ellipse fill="#003dff" cx="187" cy="58" rx="68" ry="7"/><ellipse fill="#0026d2" cx="24" cy="72" rx="38" ry="9"/><path fill="#d9d6e2" d="M57 99h41v26H57z"/><path d="M31.7 101.8l58.3-5-41.3-8.7L12.3 103z"/><ellipse fill="#d5cddb" cx="148" cy="107" rx="32" ry="10"/><ellipse fill="#001ca2" cx="17" cy="128" rx="37" ry="15"/><ellipse fill="#f1f9ff" rx="1" ry="1" transform="rotate(-98.2 62.2 21.8) scale(3.91065 30.33625)"/><path fill="#6a6521" d="M103 156.6L93.1 45l17.9-1.6 9.7 111.6z"/><ellipse cx="160" cy="23" rx="47" ry="29"/><ellipse cx="44" cy="18" rx="47" ry="47"/><ellipse fill="#294ca3" rx="1" ry="1" transform="rotate(172.3 70.6 69.4) scale(52.42174 10.11313)"/><path d="M103.7 50.3L87.2 61l-22.6 2.7-80.6-28z"/><path fill="#c6d8c9" d="M29.7 74.1L91.2 84 115 32.6 85 71.9z"/></g></svg>