<svg xmlns="http://www.w3.org/2000/svg" viewBox="0 0 200 133"><filter id="b"><feGaussianBlur stdDeviation="12" /></filter><path fill="#5b4c4f" d="M0 0h200v133H0z"/><g filter="url(#b)" transform="translate(.5 .5)" fill-opacity=".5"><ellipse fill="#b2b9c1" cx="123" cy="83" rx="37" ry="37"/><ellipse fill="#000003" rx="1" ry="1" transform="matrix(175.30971 2.75398 -.7724 49.16821 145.6 0)"/><path fill="#fffffa" d="M40 72L6 110l91-41z"/><ellipse fill="#e4b3a3" cx="161" cy="101" rx="31" ry="16"/><ellipse fill="#830000" cx="129" cy="129" rx="136" ry="10"/><ellipse fill="#97eaff" rx="1" ry="1" transform="matrix(-.49836 -17.88728 18.7695 -.52294 113.7 62.6)"/><ellipse fill="#bb8a7a" rx="1" ry="1" transform="matrix(2.99051 21.27861 -41.95523 5.89642 49 104.6)"/><path fill="#000005" d="M133 29l4 44 29 10z"/><path fill="#00000e" d="M64 19l28 71 6-48z"/><path fill="#7b9889" d="M-16 34l98 9-95 48z"/><path fill="#0c0002" d="M82 78h56v9H82z"/><ellipse cx="36" cy="15" rx="23" ry="23"/><path fill="#a5caa4" d="M154 53h33v15h-33z"/><ellipse fill="#1b0000" rx="1" ry="1" transform="matrix(13.69882 -17.68749 12.89018 9.98334 184.8 127.2)"/><ellipse cx="171" cy="28" rx="23" ry="23"/><path fill="#1a0d16" d="M52.5 110.8l-6.6-26.2 13.6-3.4 6.6 26.2z"/><path fill="#fff" d="M9 95h28v8H9z"/><ellipse fill="#411e0a" cx="158" cy="101" rx="65" ry="3"/><ellipse fill="#4f3dae" rx="1" ry="1" transform="matrix(23.72205 3.9974 -1.20215 7.13401 79.2 16.5)"/><path fill="#fff6de" d="M91 91h51v9H91z"/><ellipse fill="#010000" cx="9" cy="109" rx="18" ry="5"/><ellipse fill="ivory" rx="1" ry="1" transform="matrix(.01356 2.81362 -23.53163 .11344 176.6 93.1)"/></g></svg>