<svg xmlns="http://www.w3.org/2000/svg" viewBox="0 0 700 467"><filter id="b"><feGaussianBlur stdDeviation="12" /></filter><path fill="#67af91" d="M0 0h700v464H0z"/><g filter="url(#b)" transform="translate(1.4 1.4) scale(2.73438)" fill-opacity=".5"><ellipse fill="#fff" cx="173" cy="34" rx="111" ry="24"/><ellipse rx="1" ry="1" transform="matrix(-3.38291 -20.1663 106.02813 -17.78631 85.1 0)"/><ellipse fill="#fff" cx="15" cy="49" rx="26" ry="21"/><ellipse cx="197" cy="127" rx="14" ry="29"/><ellipse rx="1" ry="1" transform="rotate(-35 339.4 -158) scale(24.03308 28.68059)"/><ellipse fill="#00b148" rx="1" ry="1" transform="matrix(10.46635 -37.3496 61.0921 17.11964 43.7 153)"/><ellipse cx="243" cy="69" rx="21" ry="16"/><ellipse fill="#cc4000" cx="53" cy="111" rx="17" ry="23"/><ellipse fill="#fff" cx="118" cy="42" rx="62" ry="21"/><path fill="#000600" d="M0 69h36v19H0z"/><ellipse fill="#2b4731" rx="1" ry="1" transform="matrix(7.10565 13.66291 -27.77878 14.44687 188 58.7)"/><ellipse fill="#b2765a" rx="1" ry="1" transform="matrix(-3.96314 -41.15882 19.91891 -1.91797 56 54.8)"/><path fill="#002116" d="M69 62h50v21H69z"/><ellipse fill="#85f8e5" cx="129" cy="105" rx="57" ry="25"/><ellipse fill="#3affb8" cx="235" cy="129" rx="26" ry="48"/><ellipse fill="#0069ba" rx="1" ry="1" transform="matrix(-13.8191 14.2105 -11.6367 -11.3162 128.2 131)"/><path fill="#fffffd" d="M197 99l-27 4 35-66z"/><ellipse fill="#18ffbb" rx="1" ry="1" transform="matrix(-78.80493 -3.04616 .69947 -18.09535 227.7 0)"/><path fill="#fff" d="M-16 19.5l13.8 52.8 69-9.4L33 49z"/><path fill="#003e34" d="M144 58l71 6-81 25z"/><path d="M36.4-8.6l38.4 25.9 37.5-.3L184-10.7z"/><ellipse fill="#edffff" cx="161" cy="32" rx="30" ry="28"/></g></svg>