<svg xmlns="http://www.w3.org/2000/svg" viewBox="0 0 700 1050"><filter id="b"><feGaussianBlur stdDeviation="12" /></filter><path fill="#afb78e" d="M0 0h697v1050H0z"/><g filter="url(#b)" transform="translate(2 2) scale(4.10156)" fill-opacity=".5"><ellipse fill="#191d00" rx="1" ry="1" transform="matrix(-28.3403 -12.20526 23.98434 -55.691 69.8 140.6)"/><ellipse fill="#fff" rx="1" ry="1" transform="matrix(-4.08432 29.41377 -53.38553 -7.41298 34.7 244.3)"/><ellipse fill="#ffffd0" cx="20" cy="50" rx="55" ry="55"/><ellipse rx="1" ry="1" transform="matrix(-18.70481 -.56423 .73605 -24.40078 157.4 103.3)"/><ellipse fill="#573e4e" cx="132" cy="234" rx="45" ry="45"/><ellipse fill="#fff" rx="1" ry="1" transform="matrix(50.35624 -12.74209 5.18148 20.477 128 148.2)"/><ellipse fill="#fff" rx="1" ry="1" transform="matrix(28.21324 -64.34608 17.37302 7.6174 150.6 26)"/><ellipse fill="#385b00" rx="1" ry="1" transform="matrix(1.04473 -13.01572 41.15357 3.30326 78.5 209.1)"/><ellipse fill="#e7ffb8" rx="1" ry="1" transform="matrix(-28.87153 -5.09083 4.31218 -24.45558 16.9 168.3)"/><ellipse fill="#84ba12" cx="32" cy="112" rx="18" ry="34"/><ellipse fill="#fff" cx="35" cy="255" rx="39" ry="39"/><ellipse fill="#fff" rx="1" ry="1" transform="rotate(-148.6 7.3 25) scale(41.20751 31.98805)"/><ellipse fill="#fffaff" rx="1" ry="1" transform="rotate(-176.4 71.4 85.5) scale(11.62049 37.03447)"/><path fill="#fff" d="M13 37l-29 55 18 94z"/><ellipse fill="#d9f173" rx="1" ry="1" transform="matrix(54.3331 -4.08533 4.18237 55.6238 64 12.2)"/><ellipse fill="#211712" rx="1" ry="1" transform="rotate(14.2 -583.1 341.1) scale(14.09514 54.80386)"/><ellipse fill="#395c00" rx="1" ry="1" transform="matrix(-7.81586 -8.30752 6.82756 -6.42349 166 50)"/><path fill="#628c12" d="M23 173.8l-12.8-8.3 4.2-13.2 50.4-15.8z"/><path fill="#fff" d="M86 72h13v22H86z"/><path fill="#618900" d="M94.8 149.6L113 172l-7.8 6.3L87 156z"/><path fill="#aae519" d="M30 211.2l-17.6 14.7-24.4-29L5.6 182z"/><path fill="#fff" d="M28 164h20v17H28z"/></g></svg>