<svg xmlns="http://www.w3.org/2000/svg" viewBox="0 0 700 467"><filter id="b"><feGaussianBlur stdDeviation="12" /></filter><path fill="#301e2e" d="M0 0h700v464H0z"/><g filter="url(#b)" transform="translate(1.4 1.4) scale(2.73438)" fill-opacity=".5"><ellipse fill="#edccff" rx="1" ry="1" transform="rotate(77.7 13.8 120) scale(32.85145 71.1934)"/><ellipse fill="#ffc0ff" cx="165" cy="104" rx="71" ry="8"/><ellipse cx="136" cy="154" rx="255" ry="43"/><path fill="#ff51ff" d="M100.4 45.3l1.2 24-26 1.4-1.2-24z"/><ellipse fill="#ffcaeb" rx="1" ry="1" transform="rotate(82.5 -13.4 99.5) scale(11.89761 36.24929)"/><path d="M241-16l-73 98 69-5z"/><ellipse rx="1" ry="1" transform="matrix(28.04182 48.55129 -18.2538 10.54287 45.5 34.5)"/><path fill="#2dc7fc" d="M111 46h55v33h-55z"/><ellipse rx="1" ry="1" transform="rotate(-98.8 107.6 -73.7) scale(24.45349 62.65829)"/><ellipse fill="#f0f" rx="1" ry="1" transform="rotate(-51.3 152.3 -154.7) scale(16.87051 10.197)"/><path d="M-8 106l279 47L3 185z"/><ellipse fill="#050000" rx="1" ry="1" transform="rotate(-87.2 63.7 -39.2) scale(19.37747 113.9727)"/><path fill="#ce70a2" d="M158 83h68v27h-68z"/><path fill="#ff00cd" d="M20 109.6l-1-4.9 39-8.3 1 4.9z"/><path d="M4 129L96 19-16 63z"/><ellipse rx="1" ry="1" transform="rotate(26.8 -151.1 583.3) scale(31.455 124.58263)"/><ellipse fill="#fff" cx="80" cy="104" rx="22" ry="7"/><path fill="#cc16b4" d="M16.6 31.6l-.2 15-17-.2.2-15z"/><path d="M205-15l36 101-54-7z"/><path fill="#ff59ff" d="M74 46h25v21H74z"/><ellipse fill="#672073" cx="104" cy="73" rx="11" ry="23"/><ellipse fill="#ffd7fb" cx="166" cy="102" rx="52" ry="4"/></g></svg>