<svg xmlns="http://www.w3.org/2000/svg" viewBox="0 0 200 133"><filter id="b"><feGaussianBlur stdDeviation="12" /></filter><path fill="#6b645a" d="M0 0h200v133H0z"/><g filter="url(#b)" transform="translate(.5 .5)" fill-opacity=".5"><ellipse fill="#dbffff" cx="74" cy="126" rx="46" ry="46"/><ellipse fill="#fff" cx="155" cy="132" rx="20" ry="49"/><ellipse fill="#1d0b08" rx="1" ry="1" transform="rotate(154 75.3 39.5) scale(70.16343 38.65138)"/><ellipse fill="#251400" rx="1" ry="1" transform="rotate(4.6 -404.2 357) scale(19.22876 86.811)"/><ellipse fill="#3e384d" cx="75" cy="92" rx="19" ry="19"/><ellipse fill="#daf7ff" rx="1" ry="1" transform="matrix(14.57242 -14.07242 29.37712 30.4209 163.2 132)"/><path fill="#dcb898" d="M166 35L125-2l45 70z"/><ellipse fill="#ecffff" cx="100" cy="124" rx="19" ry="29"/><ellipse fill="#dffeff" rx="1" ry="1" transform="matrix(20.48937 3.46748 -5.12645 30.2922 46.8 130.3)"/><ellipse fill="#250f00" rx="1" ry="1" transform="matrix(-17.32361 -21.93035 8.79906 -6.95071 116.7 15.1)"/><ellipse fill="#130b00" rx="1" ry="1" transform="rotate(-29.2 138.3 -319.4) scale(14.27384 95.1282)"/><ellipse fill="#ffec8a" cx="88" cy="8" rx="13" ry="12"/><ellipse fill="#281c29" cx="129" cy="94" rx="21" ry="15"/><path fill="#a79993" d="M119.7 54.2l-46-24.3.4 57.6 45.3-67.8z"/><ellipse rx="1" ry="1" transform="rotate(3.5 -456.1 425.7) scale(11.29468 41.67446)"/><path fill="#433738" d="M59.6 76l10.8-2 12 68-10.8 2z"/><ellipse fill="#84621e" cx="61" cy="18" rx="26" ry="26"/><path fill="#d9d1d4" d="M33 41h31v10H33z"/><path fill="#e5ffff" d="M96 82h12v43H96z"/><path fill="#fdffff" d="M54 68l-4 28-9-10z"/><ellipse fill="#d5cea3" rx="1" ry="1" transform="matrix(-2.03436 12.42212 -22.94886 -3.7583 15.4 131.6)"/><path d="M78 24L53 34l14 12z"/></g></svg>