<svg xmlns="http://www.w3.org/2000/svg" viewBox="0 0 641 195"><filter id="b"><feGaussianBlur stdDeviation="12" /></filter><path fill="#6b6c5d" d="M0 0h641v192H0z"/><g filter="url(#b)" transform="translate(1.3 1.3) scale(2.5039)" fill-opacity=".5"><ellipse fill="#fff" rx="1" ry="1" transform="rotate(-102.4 82.2 -34.4) scale(36.76738 19.70099)"/><ellipse fill="#c5dbff" rx="1" ry="1" transform="matrix(-25.1541 .5213 -.72533 -34.99972 39.4 51.7)"/><ellipse cx="95" cy="36" rx="18" ry="32"/><ellipse fill="#3a4c00" cx="207" cy="60" rx="45" ry="80"/><path d="M14 19L-16-9 16 92z"/><ellipse cx="167" cy="60" rx="18" ry="18"/><ellipse fill="#bad4ff" rx="1" ry="1" transform="matrix(3.49045 36.50514 -14.05518 1.34389 46.7 50.9)"/><path fill="#ffc" d="M249 0h7v39h-7z"/><path fill="#dddbbc" d="M182.1 20.8l18 30-14.8-1.1L184 52z"/><path d="M83 15h27v46H83z"/><path fill="#08000b" d="M56 5L21.4 27.4 16.1 19 50.5-3.4z"/><path fill="#ffdcef" d="M54 1l62.3-3.5L91-16 71.2 14z"/><path fill="#cedfa4" d="M154-9l14 39 10-23z"/><ellipse fill="#fff" cx="123" cy="55" rx="4" ry="29"/><path fill="#271717" d="M39.4 71.1L.4 58.5l-2-9.2 38 42.7z"/><path fill="#adb080" d="M207 92h.2l3.7-30.3 42.6-31z"/><path fill="#00000f" d="M64.7 71.6L96.3 14 109 62 59.7 49.2z"/><path fill="#adcaff" d="M39 39h35v12H39z"/><path fill="#efd3e8" d="M107 8.4l7.8-9L145 25.6l-7.8 9z"/><path fill="#293f00" d="M252 8l-70-24 63 59z"/><ellipse fill="#b6bcd5" rx="1" ry="1" transform="rotate(166.2 6.6 .8) scale(8.51741 18.85467)"/><ellipse fill="#943d36" rx="1" ry="1" transform="rotate(-46.2 55.7 -99.7) scale(42.72988 9.82226)"/></g></svg>