<svg xmlns="http://www.w3.org/2000/svg" viewBox="0 0 200 133"><filter id="b"><feGaussianBlur stdDeviation="12" /></filter><path fill="#868d8f" d="M0 0h200v133H0z"/><g filter="url(#b)" transform="translate(.5 .5)" fill-opacity=".5"><ellipse cx="86" cy="97" rx="26" ry="61"/><ellipse rx="1" ry="1" transform="rotate(-95.9 136.5 -28.6) scale(49.09218 24.606)"/><ellipse fill="#fff" cx="23" cy="66" rx="36" ry="199"/><ellipse fill="#fff" rx="1" ry="1" transform="matrix(-19.68634 34.93763 -24.31219 -13.69921 56.6 6.1)"/><ellipse fill="#e4ffff" rx="1" ry="1" transform="matrix(10.58479 -3.63398 16.26249 47.36812 133 32.7)"/><ellipse fill="#fffffc" cx="181" cy="14" rx="9" ry="42"/><ellipse cx="80" cy="106" rx="17" ry="50"/><ellipse fill="#1b2023" cx="162" cy="12" rx="11" ry="144"/><path d="M57 39h19v33H57z"/><ellipse fill="#42514c" cx="21" cy="110" rx="5" ry="199"/><ellipse fill="#52606f" cx="115" cy="129" rx="20" ry="95"/><ellipse fill="#fff" cx="44" cy="102" rx="15" ry="88"/><ellipse fill="#000003" rx="1" ry="1" transform="matrix(-18.31758 1.44162 -2.26335 -28.7586 174.1 115.6)"/><ellipse fill="#a1baba" cx="105" cy="121" rx="9" ry="33"/><ellipse fill="#abdedf" cx="142" cy="71" rx="10" ry="82"/><path fill="#a53915" d="M84 72h44v16H84z"/><ellipse fill="#faeee9" rx="1" ry="1" transform="matrix(9.73128 -11.7631 22.3013 18.44924 76.4 1.5)"/><path fill="#fbefea" d="M185 32.3l1.8-21.8 5.9 67.7-5.3 1.1z"/><path fill="#fff" d="M115.8 33l16.7 10-1-36.5L119.6-16z"/><path fill="#c9cfcc" d="M103.3 34.9L83.3 60l3.2-31.6L97.1-9z"/><path fill="#2c556a" d="M102 86h31v47h-31z"/><ellipse fill="#4b5251" rx="1" ry="1" transform="matrix(-6.43388 -41.3598 8.67981 -1.35022 86.3 53.8)"/></g></svg>