<svg xmlns="http://www.w3.org/2000/svg" viewBox="0 0 200 133"><filter id="b"><feGaussianBlur stdDeviation="12" /></filter><path fill="#35407c" d="M0 0h200v133H0z"/><g filter="url(#b)" transform="translate(.5 .5)" fill-opacity=".5"><ellipse fill="#fffff8" cx="112" cy="119" rx="19" ry="73"/><ellipse fill="#000006" cx="25" cy="95" rx="74" ry="30"/><ellipse fill="#030100" rx="1" ry="1" transform="rotate(4 -1332.4 2423.5) scale(40.28633 26.97304)"/><ellipse fill="#3750dd" rx="1" ry="1" transform="rotate(36.1 7.1 122.5) scale(36.95934 42.14601)"/><path fill="#ffe1ab" d="M146 34h14v37h-14z"/><ellipse fill="#feffff" cx="111" cy="117" rx="17" ry="22"/><ellipse fill="#0c2dc3" rx="1" ry="1" transform="matrix(-5.11022 -20.29785 87.33185 -21.9868 173.9 11)"/><ellipse fill="#272f63" cx="103" cy="84" rx="143" ry="7"/><path fill="#a2abe9" d="M71.7 3.3l15 21.5 23.2-15.3L97.7-16z"/><path fill="#b8cee3" d="M40 124h102v9H40z"/><ellipse fill="#00087c" rx="1" ry="1" transform="matrix(-10.78596 22.65926 -32.97106 -15.69444 14.2 12.6)"/><path fill="#030708" d="M0 91h95v30H0z"/><ellipse fill="#fbfffb" cx="114" cy="69" rx="16" ry="9"/><ellipse fill="#0e1b83" cx="22" cy="71" rx="74" ry="19"/><path fill="#5d4549" d="M94 60l17-22 15 22z"/><ellipse fill="#0e132e" cx="195" cy="89" rx="35" ry="35"/><ellipse fill="#746698" cx="41" cy="45" rx="144" ry="7"/><ellipse fill="#c7d8fd" cx="156" cy="61" rx="8" ry="8"/><ellipse fill="#1134c0" rx="1" ry="1" transform="rotate(-147.1 33.9 -.6) scale(39.48435 13.46764)"/><path fill="#8c9dbd" d="M170 123h15v10h-15z"/><ellipse fill="#1c2332" cx="141" cy="98" rx="13" ry="34"/><ellipse fill="#706241" cx="155" cy="78" rx="15" ry="9"/></g></svg>