<svg xmlns="http://www.w3.org/2000/svg" viewBox="0 0 641 195"><filter id="b"><feGaussianBlur stdDeviation="12" /></filter><path fill="#a0abae" d="M0 0h641v192H0z"/><g filter="url(#b)" transform="translate(1.3 1.3) scale(2.5039)" fill-opacity=".5"><ellipse rx="1" ry="1" transform="matrix(-14.37658 -.9045 2.88945 -45.92643 243 55)"/><ellipse fill="#0b1016" cx="21" cy="51" rx="25" ry="29"/><path fill="#fcfffa" d="M157.8 8.6l69-1.2 1.4 76-69 1.2z"/><ellipse fill="#fff" rx="1" ry="1" transform="rotate(-161.4 71 -3.1) scale(18.98819 40.24896)"/><ellipse cx="255" cy="53" rx="28" ry="28"/><path fill="#758e90" d="M140 30h45v47h-45z"/><ellipse fill="#d7e8e8" rx="1" ry="1" transform="matrix(-20.3826 -.44743 1.02906 -46.879 72.3 31)"/><path fill="#fff" d="M119 52h46v10h-46z"/><ellipse fill="#f9f9f6" rx="1" ry="1" transform="rotate(-82 139.4 -87.7) scale(99.04337 20.66157)"/><path fill="#c8d4d2" d="M23 56l57-9-23 33z"/><ellipse fill="#f0f1ee" cx="148" cy="4" rx="38" ry="28"/><ellipse fill="#101b2f" rx="1" ry="1" transform="rotate(-64.9 54.1 19.6) scale(13.2806 20.47988)"/><ellipse fill="#31423e" cx="114" cy="54" rx="3" ry="36"/><path fill="#666860" d="M0 22h53v25H0z"/><path fill="#1d4249" d="M63.2 62.7l2.1-5.6 21.5 8.2-2.1 5.6z"/><ellipse fill="#6cade5" cx="9" rx="72" ry="18"/><path fill="#fff" d="M120 0h7v77h-7z"/><ellipse fill="#000001" cx="249" cy="60" rx="22" ry="18"/><path fill="#023619" d="M94 4l26-2-45-18z"/><path fill="#628886" d="M63 32h20v19H63z"/><path fill="#6b8882" d="M88.1 30.5l9-17 15-1.1 4.3 65.5z"/><path fill="#fff" d="M111 5L83 4 71 30z"/></g></svg>