<svg xmlns="http://www.w3.org/2000/svg" viewBox="0 0 700 467"><filter id="b"><feGaussianBlur stdDeviation="12" /></filter><path fill="#9a8c99" d="M0 0h700v464H0z"/><g filter="url(#b)" transform="translate(1.4 1.4) scale(2.73438)" fill-opacity=".5"><path fill="#a30000" d="M128.4 51l77 85.5L91.5 239l-77-85.4z"/><ellipse fill="#a4ffff" rx="1" ry="1" transform="matrix(-254.69584 -12.45101 2.93191 -59.97466 93.3 32.4)"/><ellipse fill="#91000f" cx="125" cy="91" rx="19" ry="53"/><ellipse fill="#540113" cx="19" cy="117" rx="29" ry="28"/><ellipse fill="#aeffff" cx="146" cy="108" rx="18" ry="20"/><ellipse fill="#7e2e3f" cx="223" cy="159" rx="97" ry="67"/><ellipse fill="#ea0001" rx="1" ry="1" transform="matrix(-13.98875 -40.3971 27.78312 -9.62077 124.4 158.8)"/><ellipse fill="#17caed" rx="1" ry="1" transform="matrix(-15.12654 8.80386 -21.60013 -37.11275 89.3 22.7)"/><path d="M168 93h19v50h-19z"/><ellipse fill="#ff87ac" rx="1" ry="1" transform="matrix(18.09338 12.76347 -19.43902 27.55657 212.6 106.1)"/><ellipse fill="#c00000" cx="52" cy="154" rx="35" ry="17"/><path fill="#dd0010" d="M99 72h25v98H99z"/><ellipse fill="#00beff" cx="10" cy="150" rx="10" ry="10"/><ellipse fill="#b5e6f4" cx="204" cy="16" rx="76" ry="76"/><path fill="#f890b4" d="M8 111h58v13H8z"/><ellipse fill="#c2e4f1" cx="12" cy="44" rx="48" ry="48"/><path d="M42.9 109.5l-24.4 5.6-3.4-14.6 24.4-5.6zM68 91l15 2-15 31z"/><ellipse fill="#000500" cx="164" cy="150" rx="9" ry="12"/><ellipse fill="#71d8f2" cx="75" cy="56" rx="27" ry="36"/><path fill="#ffb2d4" d="M12 84h9v27h-9z"/><ellipse fill="#d4bcce" rx="1" ry="1" transform="rotate(-153.6 90 31.5) scale(9.99793 31.04437)"/></g></svg>