<svg xmlns="http://www.w3.org/2000/svg" viewBox="0 0 200 133"><filter id="b"><feGaussianBlur stdDeviation="12" /></filter><path fill="#b46a3f" d="M0 0h200v133H0z"/><g filter="url(#b)" transform="translate(.5 .5)" fill-opacity=".5"><ellipse fill="#000f42" cx="77" cy="84" rx="32" ry="32"/><ellipse fill="#010000" rx="1" ry="1" transform="matrix(79.8201 -3.0593 .50312 13.1269 156.6 98.7)"/><ellipse fill="#ffc143" cx="148" cy="20" rx="54" ry="54"/><ellipse fill="#f7ff65" cx="27" cy="39" rx="19" ry="59"/><ellipse fill="#fffbff" cx="14" cy="87" rx="33" ry="10"/><ellipse fill="#7e0000" rx="1" ry="1" transform="matrix(13.35814 -7.69147 18.87318 32.77792 67.6 31)"/><ellipse fill="#ccb3ca" cx="135" cy="73" rx="39" ry="18"/><path fill="#e5ffff" d="M42 46h25v21H42z"/><ellipse cx="35" cy="100" rx="43" ry="6"/><ellipse fill="#e68e00" rx="1" ry="1" transform="matrix(-19.69883 -23.72735 15.81654 -13.13114 16.4 47.3)"/><path fill="#ff1003" d="M168 132l-184-31 20 47z"/><path fill="#fff" d="M69 60l8 36 8-26z"/><ellipse fill="#e15c00" rx="1" ry="1" transform="matrix(23.41832 33.19759 -16.62032 11.72435 116.8 32.6)"/><path fill="#150321" d="M146 72h44v31h-44z"/><path d="M116.4 116.7l2.2-42 11 .6-2.2 42z"/><ellipse fill="#b1d7ff" rx="1" ry="1" transform="matrix(8.427 18.63711 -13.95023 6.30778 29 0)"/><path fill="#ffdfe9" d="M161.8 89.6l-9-29.7 11.4-3.5 9 29.7z"/><ellipse fill="#ff767d" cx="180" cy="129" rx="57" ry="16"/><ellipse fill="#ffd9bf" rx="1" ry="1" transform="rotate(31.4 -73.6 241) scale(8.56746 20.51685)"/><path fill="#001550" d="M84 46h18v47H84z"/><ellipse fill="#670d00" rx="1" ry="1" transform="matrix(-.27948 5.21037 -51.34099 -2.7539 10 65.7)"/><ellipse fill="#f6e190" rx="1" ry="1" transform="matrix(-2.1193 21.77142 -34.99667 -3.4067 168.2 0)"/></g></svg>