<svg xmlns="http://www.w3.org/2000/svg" viewBox="0 0 700 467"><filter id="b"><feGaussianBlur stdDeviation="12" /></filter><path fill="#5f5d59" d="M0 0h700v464H0z"/><g filter="url(#b)" transform="translate(1.4 1.4) scale(2.73438)" fill-opacity=".5"><ellipse fill="#d2ffff" cx="154" cy="122" rx="51" ry="54"/><ellipse fill="#350000" cx="144" cy="16" rx="255" ry="21"/><ellipse rx="1" ry="1" transform="rotate(106.5 -22.2 49.4) scale(49.03784 67.6417)"/><path fill="#f2ffff" d="M37 143.9l6.6-23L83 132l-6.6 23z"/><ellipse rx="1" ry="1" transform="matrix(-13.2462 10.46122 -21.54326 -27.2785 32 155.7)"/><ellipse fill="#8cbee7" cx="104" cy="80" rx="18" ry="45"/><path fill="#b9eeff" d="M104 97h51v73h-51z"/><path fill="#ebe1df" d="M170 51h29v70h-29z"/><ellipse fill="#b9beb8" cx="241" cy="56" rx="28" ry="28"/><path fill="#ffcb15" d="M12.2 21.8l-5-28.6 28.6-5 5 28.6z"/><ellipse fill="#080a00" rx="1" ry="1" transform="matrix(-9.74684 2.18864 -26.1808 -116.59315 223.2 128.5)"/><path fill="#ffcb99" d="M68.5 16.6l12.8 2.5-7.8 40.3-12.8-2.5z"/><path d="M78 74V39l25 34z"/><ellipse fill="#f4bc98" rx="1" ry="1" transform="matrix(-3.5774 39.30907 -4.3943 -.39991 47.9 73.3)"/><path fill="#0b0000" d="M84 111l32 14-35 35z"/><path fill="#b9e7f8" d="M54 127h22v43H54z"/><ellipse fill="#144b85" cx="137" cy="78" rx="27" ry="15"/><ellipse fill="#743f07" rx="1" ry="1" transform="matrix(5.30063 -50.4211 12.9889 1.36549 205.2 157.5)"/><ellipse fill="#311100" cx="195" rx="151" ry="31"/><path fill="#ff8000" d="M217 22L184 7l34-22z"/><ellipse cx="72" cy="102" rx="16" ry="25"/><path fill="#355b77" d="M108 105.5l15.7 63-7.7 2-15.7-63z"/></g></svg>