<svg xmlns="http://www.w3.org/2000/svg" viewBox="0 0 200 133"><filter id="b"><feGaussianBlur stdDeviation="12" /></filter><path fill="#5c4165" d="M0 0h200v133H0z"/><g filter="url(#b)" transform="translate(.5 .5)" fill-opacity=".5"><ellipse rx="1" ry="1" transform="matrix(-28.87052 1.3674 -3.79373 -80.09895 186.6 56.6)"/><ellipse fill="#b391cc" cx="65" cy="91" rx="27" ry="93"/><ellipse fill="#ffd4ff" cx="93" cy="132" rx="79" ry="16"/><ellipse fill="#3600ae" cx="76" cy="8" rx="45" ry="45"/><ellipse fill="#070500" cx="27" cy="102" rx="35" ry="18"/><ellipse fill="#d7ffff" cx="77" cy="63" rx="16" ry="16"/><ellipse fill="#000017" cx="17" cy="15" rx="31" ry="31"/><path fill="#dba478" d="M118 47h56v34h-56z"/><path fill="#e075ff" d="M121.7 41.1l-19-21.9L128.3-3l19 21.9z"/><path fill="#d8b98f" d="M5 47h28v33H5z"/><ellipse rx="1" ry="1" transform="rotate(151.3 90.2 44) scale(25.20816 150.02658)"/><path fill="#1a120b" d="M97 85h100v29H97z"/><path d="M26 39L15 91l-2-34z"/><path fill="#c3fffe" d="M61 50h48v13H61z"/><ellipse fill="#00002e" cx="83" cy="42" rx="33" ry="8"/><path fill="#f7cbff" d="M34.8 148l7.4-32.8-52.5 10.2 46.8.8z"/><path fill="#ff39ff" d="M53 11h32v13H53z"/><path fill="#dbabff" d="M49 130l105-18 13 36z"/><path fill="#ffeac5" d="M11 83l4-36-21 43z"/><ellipse rx="1" ry="1" transform="matrix(3.7991 9.22958 -3.53293 1.45423 101.5 118)"/><ellipse fill="#000009" cx="132" cy="78" rx="4" ry="38"/><path fill="#483926" d="M53.7 73.8L2 117.4l105.3 1.7-3.7 10z"/></g></svg>