<svg xmlns="http://www.w3.org/2000/svg" viewBox="0 0 800 533"><filter id="b"><feGaussianBlur stdDeviation="12" /></filter><path fill="#777967" d="M0 0h800v531H0z"/><g filter="url(#b)" transform="translate(1.6 1.6) scale(3.125)" fill-opacity=".5"><ellipse fill="#fff" cx="96" cy="161" rx="58" ry="25"/><ellipse fill="#162800" rx="1" ry="1" transform="matrix(41.49575 3.91912 -16.65938 176.39009 202.4 129.7)"/><ellipse fill="#fff" rx="1" ry="1" transform="matrix(-120.93367 -4.25707 .52518 -14.91915 43.6 24.3)"/><ellipse fill="#fbf9ff" rx="1" ry="1" transform="rotate(176.6 64.9 46.8) scale(18.98638 36.64782)"/><ellipse fill="#cae1ff" rx="1" ry="1" transform="rotate(-91.4 73.4 30.8) scale(44.29263 17.78692)"/><ellipse fill="#0e0000" cx="94" cy="77" rx="18" ry="50"/><ellipse fill="#000006" rx="1" ry="1" transform="matrix(11.66432 -.54795 2.65775 56.57623 5.9 106.7)"/><ellipse cx="208" cy="162" rx="43" ry="17"/><ellipse fill="#fff" rx="1" ry="1" transform="matrix(-8.55584 .73227 -4.8919 -57.15685 255 37)"/><path fill="#bbbf83" d="M204 116l-4 41 61-89z"/><ellipse fill="#030000" rx="1" ry="1" transform="rotate(-28.6 303.7 -279.7) scale(16.5522 25.33997)"/><ellipse fill="#feffff" rx="1" ry="1" transform="matrix(10.16165 30.60462 -18.99109 6.30561 123.7 163.6)"/><ellipse fill="#fff" cx="72" cy="35" rx="6" ry="24"/><path d="M82 64h30v45H82z"/><ellipse fill="#fff" cx="87" cy="22" rx="49" ry="7"/><ellipse fill="#54680b" cx="204" cy="16" rx="40" ry="103"/><ellipse fill="#fff" rx="1" ry="1" transform="matrix(-14.2312 1.51304 -2.1502 -20.22404 0 28)"/><ellipse fill="#a2b7f6" cx="40" cy="95" rx="27" ry="21"/><path d="M187.3 115.8l23.7 48.5-24.3 11.9-23.7-48.5z"/><path fill="#000013" d="M64 98l-9 50 29-60z"/><ellipse fill="#a3b587" cx="167" cy="40" rx="20" ry="20"/><ellipse fill="#2b4700" rx="1" ry="1" transform="matrix(-4.32956 1.4964 -27.8091 -80.4607 135.4 19.2)"/></g></svg>