<svg xmlns="http://www.w3.org/2000/svg" viewBox="0 0 700 467"><filter id="b"><feGaussianBlur stdDeviation="12" /></filter><path fill="#52316e" d="M0 0h700v464H0z"/><g filter="url(#b)" transform="translate(1.4 1.4) scale(2.73438)" fill-opacity=".5"><ellipse fill="#e890ff" rx="1" ry="1" transform="matrix(-3.49394 33.19863 -137.48571 -14.46947 117 133.5)"/><ellipse rx="1" ry="1" transform="matrix(78.91934 -55.67147 62.31118 88.33173 242.2 28.3)"/><ellipse fill="#020033" cx="18" cy="24" rx="83" ry="83"/><ellipse fill="#2a0538" rx="1" ry="1" transform="rotate(109.4 55.9 134.7) scale(16.84123 30.00332)"/><ellipse fill="#efb0f8" rx="1" ry="1" transform="matrix(11.17076 12.50284 -22.35507 19.97331 17.6 130.5)"/><path fill="#00004e" d="M0 120h164v6H0z"/><path fill="#f2a4ff" d="M37 134h140v21H37z"/><ellipse fill="#0d0700" rx="1" ry="1" transform="matrix(147.12894 7.96822 -.51148 9.44415 15.7 168)"/><ellipse fill="#ffedff" cx="147" cy="108" rx="40" ry="6"/><ellipse fill="#000002" cx="168" rx="137" ry="16"/><path d="M130 155h15v12h-15z"/><ellipse fill="#fff" cx="12" cy="115" rx="48" ry="6"/><ellipse fill="#d449ff" cx="188" cy="165" rx="42" ry="24"/><ellipse fill="#00004d" rx="1" ry="1" transform="matrix(5.32471 .33983 -1.31175 20.55369 91.1 124.3)"/><ellipse fill="#34127d" rx="1" ry="1" transform="matrix(-20.23937 -45.0565 17.9118 -8.04598 162 58.8)"/><ellipse fill="#1a78ad" rx="1" ry="1" transform="rotate(145.8 7.1 54.7) scale(11.56105 16.12921)"/><path fill="#fff" d="M89 110l-17 7-12-23z"/><path d="M23 141h15v11H23z"/><ellipse fill="#470f72" cx="150" cy="128" rx="19" ry="11"/><ellipse fill="#080c06" cx="244" cy="62" rx="29" ry="65"/><path d="M61 108h7v21h-7zm127.5 34l-11.8-5.5 6.8-14.5 11.8 5.5z"/></g></svg>