<svg xmlns="http://www.w3.org/2000/svg" viewBox="0 0 700 467"><filter id="b"><feGaussianBlur stdDeviation="12" /></filter><path fill="#71191d" d="M0 0h700v464H0z"/><g filter="url(#b)" transform="translate(1.4 1.4) scale(2.73438)" fill-opacity=".5"><ellipse fill="#ff0d1c" rx="1" ry="1" transform="matrix(-33.66092 -43.25109 47.2797 -36.79626 149.4 131)"/><ellipse fill="#8fdaff" cx="110" cy="42" rx="17" ry="32"/><ellipse fill="#0c0902" cx="10" cy="56" rx="89" ry="89"/><ellipse fill="#f02" rx="1" ry="1" transform="matrix(-139.06342 14.8446 -2.68988 -25.19868 127.9 158.8)"/><ellipse rx="1" ry="1" transform="matrix(66.7588 3.5519 -1.11189 20.89818 219 6)"/><ellipse fill="#f22113" cx="69" cy="105" rx="12" ry="33"/><ellipse fill="#051d25" cx="155" cy="49" rx="31" ry="30"/><path fill="#ff7114" d="M14 81h29v13H14z"/><ellipse fill="#08170f" rx="1" ry="1" transform="matrix(24.1619 17.2586 -15.47991 21.67175 235.3 97)"/><ellipse fill="#79844d" rx="1" ry="1" transform="matrix(-4.90881 15.85781 -57.7768 -17.8849 243.3 46.8)"/><ellipse cx="172" cy="105" rx="9" ry="14"/><path fill="#fd7058" d="M146 86.8l24.3-18.5-20.4 58.8-19.8-42.7z"/><ellipse cx="25" cy="117" rx="31" ry="26"/><ellipse fill="#000515" rx="1" ry="1" transform="matrix(-26.62606 .2803 -.2162 -20.53631 125.6 0)"/><ellipse fill="#ffefc7" rx="1" ry="1" transform="matrix(1.71875 14.24917 -7.53124 .90843 114.4 51.7)"/><path d="M74 96h21v29H74z"/><path fill="#ff157f" d="M225.1 149.6L271 154l-16.8-23-43.3 9.5z"/><path fill="#ffae90" d="M48.8 5l-.5-8 28.9-2 .5 8z"/><ellipse fill="#56649b" rx="1" ry="1" transform="matrix(20.54345 -16.68161 10.31495 12.70289 100.3 25)"/><path fill="#d34530" d="M179 63h29v34h-29z"/><path fill="#ffdfa8" d="M73 84l-17-8 2 12z"/><ellipse fill="#ff021f" cx="52" cy="162" rx="67" ry="9"/></g></svg>