<svg xmlns="http://www.w3.org/2000/svg" viewBox="0 0 200 133"><filter id="b"><feGaussianBlur stdDeviation="12" /></filter><path fill="#7c7879" d="M0 0h200v133H0z"/><g filter="url(#b)" transform="translate(.5 .5)" fill-opacity=".5"><ellipse cx="50" cy="8" rx="64" ry="64"/><ellipse fill="#fff" cx="137" cy="110" rx="116" ry="26"/><ellipse fill="#00003f" cx="183" cy="36" rx="17" ry="17"/><ellipse fill="#080000" rx="1" ry="1" transform="rotate(32.9 -8 83.2) scale(70.21255 25.28949)"/><ellipse fill="#d2d7fb" cx="163" cy="11" rx="40" ry="17"/><path fill="#0a0000" d="M4-15.5l10.3 135.1-16.5 8.1L-16 148z"/><path d="M164.5 14l-3.4-9.3 40.4-14.8 3.4 9.4z"/><path fill="#e3f8f9" d="M184 54h16v79h-16z"/><ellipse fill="#e6fcff" cx="125" cy="132" rx="60" ry="27"/><path fill="#56c2ff" d="M18.7 39.2l22.9-2.4 1.7 16-22.9 2.4z"/><path fill="#c7d2d1" d="M14 83h86v27H14z"/><ellipse fill="#79796a" rx="1" ry="1" transform="matrix(1.07551 -11.63881 92.60186 8.55709 150.1 80.8)"/><ellipse fill="#361e2f" cx="156" cy="47" rx="39" ry="14"/><path fill="#505fff" d="M1 59h26v13H1z"/><path fill="#bf7a14" d="M-23.8 125.3l12.2-26.2 63.4 29.6-12.2 26.2z"/><path fill="#fff" d="M183.5 24l-5-8.6 20-11.5 5 8.7z"/><ellipse fill="#e5eaed" rx="1" ry="1" transform="rotate(132.5 87 71.7) scale(43.64022 8.277)"/><ellipse fill="#010000" rx="1" ry="1" transform="matrix(-10.25164 -7.15164 31.39818 -45.00823 11.5 31.6)"/><ellipse fill="#b9c4f4" rx="1" ry="1" transform="matrix(13.1694 -3.62746 4.06607 14.76178 150 22.2)"/><ellipse fill="#532500" cx="83" cy="6" rx="29" ry="31"/><path fill="#babaac" d="M109.6 61.3L128 41.2 108.8 31l-8 16z"/><ellipse fill="#9e9a94" rx="1" ry="1" transform="matrix(18.7088 3.55723 -4.27185 22.4673 173.1 93)"/></g></svg>