<svg xmlns="http://www.w3.org/2000/svg" viewBox="0 0 700 467"><filter id="b"><feGaussianBlur stdDeviation="12" /></filter><path fill="#676150" d="M0 0h700v464H0z"/><g filter="url(#b)" transform="translate(1.4 1.4) scale(2.73438)" fill-opacity=".5"><ellipse fill="#fff" cx="135" cy="5" rx="128" ry="24"/><path fill="#fffffa" d="M56-16L-8 27l17 86z"/><ellipse rx="1" ry="1" transform="matrix(33.21196 -2.9103 5.50374 62.80802 74.8 131)"/><ellipse fill="#100902" rx="1" ry="1" transform="rotate(-49.2 244.2 -185.5) scale(63.30575 73.61064)"/><ellipse fill="#ffffef" rx="1" ry="1" transform="matrix(6.9481 7.90887 -19.42097 17.06174 52.6 57.3)"/><ellipse fill="#dfc98d" cx="130" cy="120" rx="27" ry="27"/><ellipse fill="#1f1a0f" rx="1" ry="1" transform="matrix(34.98781 -26.94424 15.0752 19.57554 107 66)"/><ellipse fill="#fffffc" rx="1" ry="1" transform="rotate(88 88.7 93.2) scale(20.1629 109.26767)"/><ellipse fill="#000003" cx="32" cy="105" rx="18" ry="26"/><ellipse fill="#bba475" rx="1" ry="1" transform="matrix(-26.47271 7.44114 -3.96245 -14.09688 239 139.8)"/><path fill="#000002" d="M-15 154l17-51 36 82z"/><path fill="#241f0d" d="M89.5 13.5v23h-47v-23z"/><ellipse rx="1" ry="1" transform="matrix(18.36379 32.85628 -21.946 12.2659 190.5 164)"/><ellipse fill="#fffffd" cy="56" rx="23" ry="24"/><path d="M243 29h13v87h-13z"/><ellipse fill="#473a32" rx="1" ry="1" transform="rotate(92.8 65.7 104.9) scale(21.82822 30.39969)"/><path fill="#b6a185" d="M198 112l47-92-7 48z"/><ellipse fill="#b99a61" cx="44" cy="157" rx="21" ry="13"/><path fill="#120b00" d="M122 148h35v22h-35z"/><path fill="#e4bca1" d="M183 40h9v32h-9z"/><ellipse fill="#3c3a00" cx="4" cy="25" rx="7" ry="9"/><path fill="#fff587" d="M76.2 105l-16-34.4 3.6-1.7 16 34.5z"/></g></svg>