<svg xmlns="http://www.w3.org/2000/svg" viewBox="0 0 700 467"><filter id="b"><feGaussianBlur stdDeviation="12" /></filter><path fill="#594c4c" d="M0 0h700v464H0z"/><g filter="url(#b)" transform="translate(1.4 1.4) scale(2.73438)" fill-opacity=".5"><ellipse fill="#baffff" rx="1" ry="1" transform="rotate(-93.1 111.9 -30.8) scale(21.7952 25.90476)"/><ellipse rx="1" ry="1" transform="matrix(-3.50946 39.39793 -216.77566 -19.30978 152.8 20.3)"/><ellipse fill="#ffffea" rx="1" ry="1" transform="matrix(34.82789 -18.56343 6.23113 11.69057 47 113.5)"/><ellipse fill="#e5beac" rx="1" ry="1" transform="matrix(-.64505 -22.5091 73.04553 -2.0933 177.1 128.9)"/><ellipse fill="#ff9e8d" rx="1" ry="1" transform="matrix(.67003 9.53702 -41.2546 2.89837 58.6 150.4)"/><ellipse fill="#780000" rx="1" ry="1" transform="matrix(192.72383 -12.82045 .95737 14.39163 121 169)"/><path fill="#ffe6e5" d="M80.8 114.8L64.1 94.5l38.6-4-21.6 43z"/><ellipse fill="#8dc7ff" rx="1" ry="1" transform="matrix(9.63337 18.01878 -25.18677 13.46559 146.3 80)"/><ellipse rx="1" ry="1" transform="matrix(-25.731 9.51818 -10.97413 -29.66693 49 19.4)"/><ellipse fill="#7d9d87" rx="1" ry="1" transform="matrix(-62.05827 12.19363 -3.45213 -17.56926 35.9 71.7)"/><ellipse fill="#000009" cx="203" cy="35" rx="55" ry="25"/><ellipse fill="#f4f1e1" cx="139" cy="121" rx="47" ry="6"/><path fill="#aed9af" d="M196 68h44v15h-44z"/><path fill="#101245" d="M159-16L115 92 49-16z"/><path fill="#180000" d="M281.8 122.5l.3 8-84 3-.2-8z"/><path fill="#231915" d="M139 107h55v9h-55z"/><path fill="#f6e8d4" d="M194.2 91.6l-19.9 14 47.1 10.6-29.6 17.6z"/><path fill="#775fbd" d="M125 27l-49.5-6 1.4-12 49.6 6z"/><path fill="#0051b9" d="M125.6 69l-.2-13 51-1 .2 13z"/><ellipse fill="#340000" cx="255" cy="164" rx="74" ry="19"/><path fill="#401f0b" d="M102 133l52-6-75 42z"/><ellipse fill="#fef5e3" cx="39" cy="131" rx="6" ry="19"/></g></svg>