<svg xmlns="http://www.w3.org/2000/svg" viewBox="0 0 800 533"><filter id="b"><feGaussianBlur stdDeviation="12" /></filter><path fill="#5b5c64" d="M0 0h800v531H0z"/><g filter="url(#b)" transform="translate(1.6 1.6) scale(3.125)" fill-opacity=".5"><ellipse fill="#fff" cx="76" cy="67" rx="63" ry="63"/><ellipse fill="#00000e" rx="1" ry="1" transform="matrix(32.45246 -217.8228 58.41304 8.7027 206.5 102.7)"/><ellipse fill="#7ca9ff" cx="130" cy="47" rx="34" ry="34"/><ellipse fill="#451a00" rx="1" ry="1" transform="matrix(-123.22484 6.3568 -1.77642 -34.43528 90.3 158.2)"/><ellipse cx="6" cy="101" rx="26" ry="23"/><ellipse fill="#f6ffff" rx="1" ry="1" transform="matrix(-27.1117 -4.59205 2.23496 -13.1953 41.3 27)"/><path fill="#2c4f85" d="M149.1 49.3l11.2 44.6-51.4 12.8-11.2-44.6z"/><ellipse fill="#ffffd2" cx="68" cy="92" rx="34" ry="34"/><ellipse fill="#000002" cx="113" cy="4" rx="122" ry="11"/><ellipse fill="#bdab93" cx="194" cy="84" rx="13" ry="31"/><path fill="#f3f8ff" d="M85 16h71v26H85z"/><ellipse rx="1" ry="1" transform="matrix(-15.29744 -.7214 3.6357 -77.09493 0 60.2)"/><path fill="#ffffef" d="M24 108h27v18H24z"/><path fill="#d0b880" d="M143 111.4L130.3 65 96 136l40.9-.6z"/><path fill="#4a9bff" d="M243.1 109.4l-1.2-36 25-.8 1.2 36z"/><ellipse fill="#b3cfff" rx="1" ry="1" transform="rotate(2.6 -606.4 474) scale(5.26496 29.09318)"/><ellipse fill="#100" rx="1" ry="1" transform="matrix(-3.64102 -42.57454 23.315 -1.99392 240.1 147)"/><path d="M124.7 127.1l-8.4-13-1.2-26-14 5.1z"/><ellipse fill="#bb8016" cx="56" cy="131" rx="68" ry="7"/><path fill="#04006f" d="M194 82l-30 15-13-96z"/><ellipse fill="#5e2800" cx="134" cy="70" rx="9" ry="10"/><path fill="#b6d8ff" d="M16 13h41v76H16z"/></g></svg>