<svg xmlns="http://www.w3.org/2000/svg" viewBox="0 0 200 133"><filter id="b"><feGaussianBlur stdDeviation="12" /></filter><path fill="#4e4f57" d="M0 0h200v133H0z"/><g filter="url(#b)" transform="translate(.5 .5)" fill-opacity=".5"><ellipse fill="#fff" cx="50" cy="116" rx="151" ry="14"/><ellipse cx="13" cy="44" rx="71" ry="71"/><path fill="#ffffe6" d="M74 59h48v63H74z"/><ellipse rx="1" ry="1" transform="rotate(177.6 48.4 36) scale(6.90169 35.13367)"/><path fill="#fff" d="M0 122h67v11H0z"/><ellipse fill="#00173d" cx="139" rx="64" ry="64"/><path fill="#fff" d="M129.6 125.3l-1.7-14 70.5-8.6 1.7 14z"/><ellipse fill="#400000" rx="1" ry="1" transform="matrix(4.08362 16.57617 -26.50564 6.52979 48.8 98.6)"/><path fill="#eafaff" d="M181 64l11 37 5-57z"/><ellipse cx="171" cy="128" rx="79" ry="6"/><ellipse fill="#eae0d7" rx="1" ry="1" transform="matrix(2.10004 40.27195 -4.07778 .21264 15.3 98.1)"/><ellipse fill="#170f2c" rx="1" ry="1" transform="rotate(59.8 7 169.3) scale(30.17707 31.03672)"/><ellipse fill="#000305" cx="34" cy="27" rx="63" ry="35"/><path fill="#fff" d="M110 45h9v80h-9z"/><path fill="#fff" d="M54.7 107.7l4.2 20.5 64.6-3.4 61.5-12.7z"/><ellipse fill="#ffd" cx="83" cy="76" rx="8" ry="28"/><ellipse fill="#75061f" rx="1" ry="1" transform="matrix(13.45188 1.14117 -2.37865 28.0391 48.6 95)"/><ellipse fill="#000e00" rx="1" ry="1" transform="matrix(-11.94615 .37465 -.6237 -19.88731 64.1 90.4)"/><ellipse fill="#010403" cx="8" cy="109" rx="4" ry="21"/><path fill="#fff" d="M21 148l40-21-39-14z"/><path fill="#00002f" d="M124 61h17v49h-17z"/><path d="M163 121h37v4h-37z"/></g></svg>