<svg xmlns="http://www.w3.org/2000/svg" viewBox="0 0 313 195"><filter id="b"><feGaussianBlur stdDeviation="12" /></filter><path fill="#85515e" d="M0 0h313v194H0z"/><g filter="url(#b)" transform="translate(.6 .6) scale(1.22266)" fill-opacity=".5"><ellipse fill="#fff" rx="1" ry="1" transform="rotate(89.3 -25.4 123) scale(20.91048 227.21916)"/><ellipse rx="1" ry="1" transform="matrix(.00222 13.93608 -182.48789 .0291 118.6 10.6)"/><ellipse fill="#3a0000" cx="92" cy="66" rx="35" ry="62"/><ellipse fill="#600000" rx="1" ry="1" transform="matrix(-118.95261 16.7177 -2.86148 -20.36052 230.9 63.9)"/><ellipse fill="#ffe6ff" cx="160" cy="147" rx="255" ry="21"/><ellipse cx="190" cy="9" rx="52" ry="21"/><ellipse fill="#a60001" cx="30" cy="67" rx="114" ry="22"/><path fill="#fef" d="M50 16h35v10H50z"/><path fill="#ffffe3" d="M153 31l-48 10 28-28z"/><path d="M186-1l20 113-32-56z"/><ellipse rx="1" ry="1" transform="matrix(-18.13174 -15.28223 19.33146 -22.936 29 6)"/><path fill="#ffffc9" d="M33 123l-8.9-6.4L53 76.9l8.9 6.5z"/><path fill="#eff3bc" d="M226 86l-40 58 60-51z"/><path fill="#e6cdb4" d="M110 94h62v19h-62z"/><ellipse fill="#0e0008" rx="1" ry="1" transform="matrix(9.41333 13.78004 -28.69334 19.60082 82.1 104.6)"/><path fill="#ff1e35" d="M108 36h29v34h-29z"/><path fill="#ffffce" d="M10.4 86.2L23.7 141-16 66.6v24z"/><path fill="#ffe2cc" d="M237.5 41.7l-24.8 2.5L230 18.3l19.7 1z"/><path fill="#e0a3d3" d="M82 58l-7-33 23 4z"/><ellipse rx="1" ry="1" transform="matrix(32.91652 .35865 -.1232 11.30774 108 8.8)"/><path fill="#ff0b1e" d="M217 41h19v46h-19z"/><path fill="#fbbfff" d="M157 23h20v20h-20z"/></g></svg>