<svg xmlns="http://www.w3.org/2000/svg" viewBox="0 0 641 195"><filter id="b"><feGaussianBlur stdDeviation="12" /></filter><path fill="#697583" d="M0 0h641v192H0z"/><g filter="url(#b)" transform="translate(1.3 1.3) scale(2.5039)" fill-opacity=".5"><ellipse fill="#fff" cx="64" cy="43" rx="41" ry="196"/><ellipse fill="#000019" cx="237" cy="68" rx="97" ry="97"/><path d="M7 89l32-40-55-21z"/><ellipse cx="5" cy="11" rx="8" ry="148"/><ellipse fill="#edeac4" cx="81" cy="75" rx="53" ry="53"/><ellipse fill="#c0b1a4" rx="1" ry="1" transform="matrix(7.92382 -20.8596 11.5098 4.37216 195.7 49.3)"/><ellipse fill="#4b7ad1" rx="1" ry="1" transform="rotate(38.4 31.3 196) scale(29.04703 37.93701)"/><path fill="#b3dfff" d="M13-16l4 62 40-1z"/><path d="M105 47h10v17h-10z"/><ellipse fill="#004" cx="170" cy="23" rx="15" ry="42"/><path fill="#4796ff" d="M243 34h13v32h-13z"/><path fill="#673907" d="M120.5 23.8l12-4.2 13 7.5-11.3 19.1z"/><ellipse fill="#71bdff" cx="113" cy="4" rx="25" ry="21"/><ellipse fill="#003814" rx="1" ry="1" transform="matrix(45.6573 7.14974 -2.31965 14.813 223 7.2)"/><path fill="#c08732" d="M191.3 38.7l-9-20 16.4-7.4 9 20z"/><path fill="#00000e" d="M21 63.3L25.4 92l-35.7-43.4 50.8.3z"/><ellipse fill="#0d0709" rx="1" ry="1" transform="matrix(34.99917 13.6949 -5.2932 13.5275 232 75.5)"/><ellipse fill="#f1ebc3" rx="1" ry="1" transform="matrix(-41.41552 105.86 -14.65574 -5.73375 68.2 10.2)"/><path fill="#f1cc91" d="M118 65h31v9h-31z"/><path fill="#00000f" d="M109.3 42l-8 9.2 14.3 19.2.8-5.8z"/><ellipse fill="#000018" cx="5" rx="8" ry="99"/><ellipse fill="#95b6fe" cx="148" rx="8" ry="28"/></g></svg>