<svg xmlns="http://www.w3.org/2000/svg" viewBox="0 0 700 467"><filter id="b"><feGaussianBlur stdDeviation="12" /></filter><path fill="#414652" d="M0 0h700v464H0z"/><g filter="url(#b)" transform="translate(1.4 1.4) scale(2.73438)" fill-opacity=".5"><ellipse fill="#aefbff" cx="125" cy="57" rx="32" ry="30"/><ellipse fill="#ffc39f" cx="233" cy="130" rx="41" ry="16"/><path fill="#e5c4a1" d="M46.2 147.5l.6-32 61 1-.6 32z"/><ellipse fill="#002968" cx="27" cy="48" rx="55" ry="55"/><ellipse fill="#002f70" cx="232" cy="42" rx="61" ry="61"/><ellipse fill="red" rx="1" ry="1" transform="matrix(-3.183 -11.89867 24.63135 -6.5891 21.2 132.8)"/><ellipse fill="#6b2b0e" cx="129" cy="106" rx="114" ry="19"/><ellipse fill="#0f0200" rx="1" ry="1" transform="matrix(.53025 16.87273 -113.53582 3.568 5.1 163)"/><path fill="#fff" d="M101 103l16 19-27 22z"/><path fill="#040000" d="M67 119h19v30H67z"/><path fill="#60c0ff" d="M94 52h63v34H94z"/><ellipse fill="#0064a3" cx="20" cy="21" rx="33" ry="33"/><ellipse fill="#2c1200" cx="211" cy="159" rx="72" ry="13"/><ellipse fill="#096caa" rx="1" ry="1" transform="matrix(36.5092 -3.34832 2.87291 31.32552 240.7 22.4)"/><ellipse fill="#001333" rx="1" ry="1" transform="matrix(-2.55572 -22.6727 36.74498 -4.14198 206 82.6)"/><path fill="#fff" d="M41 135.5l9.9 12.2 13.5-3.6L67 122z"/><ellipse fill="#00132b" cx="47" cy="80" rx="31" ry="31"/><path fill="#cef2ff" d="M181 119.1l-10.8-1.7-10.7-17.2 22.5 13.7z"/><path fill="#0c0600" d="M136 109l4 42 60-28z"/><path fill="#a10000" d="M107 87h57v18h-57z"/><ellipse fill="#653927" cx="134" cy="47" rx="48" ry="4"/><ellipse fill="#905322" rx="1" ry="1" transform="matrix(-15.69925 2.15053 -5.8504 -42.70892 127.6 157.7)"/></g></svg>