<svg xmlns="http://www.w3.org/2000/svg" viewBox="0 0 700 467"><filter id="b"><feGaussianBlur stdDeviation="12" /></filter><path fill="#9b9fa9" d="M0 0h700v464H0z"/><g filter="url(#b)" transform="translate(1.4 1.4) scale(2.73438)" fill-opacity=".5"><ellipse rx="1" ry="1" transform="matrix(38.96658 6.941 -12.39382 69.57851 128.2 114.4)"/><ellipse fill="#fdffff" rx="1" ry="1" transform="matrix(-51.5112 8.89297 -17.852 -103.40501 38.1 69)"/><ellipse fill="#fdffff" rx="1" ry="1" transform="rotate(82 32 175.9) scale(79.89631 27.89533)"/><ellipse cx="128" cy="125" rx="40" ry="40"/><ellipse fill="#001a90" cx="181" cy="10" rx="33" ry="29"/><path fill="#00020c" d="M107 39l20 132-40-86z"/><ellipse fill="#ccd4d1" rx="1" ry="1" transform="rotate(77 82.3 194.8) scale(82.6174 36.35011)"/><ellipse fill="#c5b2a0" rx="1" ry="1" transform="rotate(-1.7 1586.3 -4639) scale(12.88446 49.08886)"/><ellipse fill="#a68b4e" rx="1" ry="1" transform="rotate(-17.2 160 -330.3) scale(14.09993 43.38087)"/><ellipse fill="#000001" cx="155" cy="81" rx="13" ry="19"/><path fill="#09121a" d="M105 85l14 83 24-133z"/><path fill="#dedeef" d="M181 34l-37 16 82 56z"/><ellipse fill="#fff5e4" cx="153" cy="130" rx="6" ry="6"/><ellipse fill="#0d317c" cx="200" cy="27" rx="15" ry="15"/><ellipse fill="#e5eae7" rx="1" ry="1" transform="matrix(-69.1715 -48.64683 21.76641 -30.94991 19.4 39.1)"/><path fill="#f3feff" d="M139.1 75.1l5.8 1.5-6 24.3-5.8-1.5z"/><path fill="#dde3f1" d="M228.6 132.6l-.7-82.9-67.6 48.7 60.7 54z"/><ellipse fill="#b65f75" rx="1" ry="1" transform="matrix(17.2479 3.32056 -2.25195 11.69727 152.1 164.9)"/><path fill="#060b10" d="M90 130l-5 47 89-74z"/><path fill="#d07f40" d="M95 158h20v12H95z"/><ellipse fill="#798195" cx="239" cy="16" rx="6" ry="188"/><path fill="#966744" d="M127 72.8l31-14.1-4.4-27.8-10.2 5.5z"/></g></svg>