<svg xmlns="http://www.w3.org/2000/svg" viewBox="0 0 200 133"><filter id="b"><feGaussianBlur stdDeviation="12" /></filter><path fill="#67686d" d="M0 0h200v133H0z"/><g filter="url(#b)" transform="translate(.5 .5)" fill-opacity=".5"><ellipse fill="#fff" rx="1" ry="1" transform="rotate(-91 73.1 -56.1) scale(30.17943 130.22947)"/><ellipse rx="1" ry="1" transform="matrix(2.11143 -33.5603 185.48988 11.67003 129.7 83.3)"/><ellipse fill="#fff" cx="65" rx="60" ry="26"/><ellipse rx="1" ry="1" transform="rotate(-85.5 131.8 -12) scale(39.82313 20.25473)"/><ellipse fill="#fbfdec" rx="1" ry="1" transform="matrix(61.17986 -6.37628 2.45845 23.58864 160.3 11.5)"/><ellipse fill="#9499a6" rx="1" ry="1" transform="rotate(15.8 -296 660.1) scale(13.49553 28.44341)"/><path fill="#78849d" d="M49 98h65v35H49z"/><ellipse fill="#f8fbff" rx="1" ry="1" transform="matrix(-15.94155 18.76267 -15.77733 -13.40508 33.8 21.9)"/><ellipse fill="#010009" rx="1" ry="1" transform="rotate(87.6 -7.8 69.4) scale(18.1378 69.21245)"/><path fill="#4a3e44" d="M95.8 45L81.4 63 54.2 41l14.4-18z"/><path d="M204 144l-21-14 3-67z"/><ellipse fill="#2d313c" cy="101" rx="12" ry="199"/><path fill="#ffffef" d="M152 24h12v29h-12z"/><ellipse fill="#fff" rx="1" ry="1" transform="matrix(3.45504 -20.53455 42.86434 7.21214 70 0)"/><path fill="#010004" d="M148.8 168.7l-38-2.6 6.4-90.8 38 2.6z"/><path fill="#70534f" d="M154 51l-56-3 38-15z"/><ellipse fill="#000004" rx="1" ry="1" transform="matrix(-12.6599 19.0288 -8.13568 -5.41268 173.8 69.2)"/><path fill="#6d6588" d="M189 27h9v38h-9z"/><ellipse fill="#fff" rx="1" ry="1" transform="matrix(-6.77665 32.7232 -7.55654 -1.56488 187.3 12.4)"/><ellipse fill="#898c97" cx="96" cy="35" rx="20" ry="15"/><ellipse fill="#313b50" cx="8" cy="111" rx="25" ry="25"/><ellipse fill="#fff" rx="1" ry="1" transform="matrix(5.41314 28.92488 -3.49962 .65494 23.4 22.8)"/></g></svg>