<svg xmlns="http://www.w3.org/2000/svg" viewBox="0 0 700 467"><filter id="b"><feGaussianBlur stdDeviation="12" /></filter><path fill="#635b68" d="M0 0h700v464H0z"/><g filter="url(#b)" transform="translate(1.4 1.4) scale(2.73438)" fill-opacity=".5"><ellipse fill="#fffffc" rx="1" ry="1" transform="rotate(-89.7 78.9 -59) scale(29.52897 217.71011)"/><ellipse fill="#0a0b22" rx="1" ry="1" transform="matrix(-143.7352 5.85352 -2.76464 -67.88675 132.8 127.2)"/><ellipse fill="#fff" rx="1" ry="1" transform="rotate(127.9 115.5 56.4) scale(30.5564 22.3817)"/><path fill="#c46a40" d="M37 43.5l4.6-23.6L127 36.5l-4.6 23.6z"/><ellipse fill="#fff" rx="1" ry="1" transform="rotate(-63.5 64.5 -70) scale(13.75481 21.7056)"/><ellipse fill="#fff" rx="1" ry="1" transform="matrix(36.02916 13.0365 -1.96157 5.42122 148.8 11.6)"/><ellipse fill="#fff" cy="23" rx="13" ry="30"/><ellipse fill="#905154" rx="1" ry="1" transform="rotate(120.5 69.3 80) scale(24.13352 62.54845)"/><ellipse fill="#f4bfc1" cx="212" cy="49" rx="20" ry="9"/><ellipse fill="#b05e1a" rx="1" ry="1" transform="matrix(-8.52038 -26.22303 20.29936 -6.59566 255.1 162.5)"/><path fill="#86331d" d="M234 22h14v33h-14z"/><path fill="#fff" d="M27 0h12v42H27z"/><ellipse fill="#d0793b" cx="106" cy="89" rx="18" ry="6"/><path fill="#244176" d="M185 0h10v43h-10z"/><ellipse fill="#fcffff" rx="1" ry="1" transform="matrix(7.14957 2.87411 -8.46395 21.05473 176.3 19)"/><path d="M179 147l24-57-25 10z"/><ellipse fill="#e9d3d5" cx="32" cy="86" rx="2" ry="36"/><path fill="#2c5186" d="M11.3 33.7L5 27.2 28.7 4.3l6.3 6.5z"/><ellipse fill="#0e2031" cx="82" cy="163" rx="133" ry="19"/><path fill="#fff" d="M196 7h10v42h-10zm23 3h13v35h-13z"/><path fill="#1650ad" d="M10.5 102.8L-12.1 185 2.3 86.9l57.5-46.7z"/></g></svg>