<svg xmlns="http://www.w3.org/2000/svg" viewBox="0 0 200 133"><filter id="b"><feGaussianBlur stdDeviation="12" /></filter><path fill="#9c8c9c" d="M0 0h200v133H0z"/><g filter="url(#b)" transform="translate(.5 .5)" fill-opacity=".5"><ellipse fill="#a10000" cx="86" cy="132" rx="72" ry="72"/><ellipse fill="#a7ffff" cx="92" cy="34" rx="199" ry="39"/><ellipse fill="#840000" rx="1" ry="1" transform="rotate(105.5 25.6 65.2) scale(26.45295 15.52462)"/><ellipse fill="#4b0d27" rx="1" ry="1" transform="matrix(15.67748 12.87763 -15.55425 18.93605 13.4 93)"/><path fill="#b1fbff" d="M102 71h25v27h-25z"/><ellipse fill="#763b4e" rx="1" ry="1" transform="matrix(20.72788 -30.24219 43.85174 30.05582 169.2 114)"/><ellipse fill="#d00" rx="1" ry="1" transform="rotate(66.8 -43.4 136.6) scale(38.27337 21.66548)"/><ellipse fill="#3cd1f3" cx="67" cy="31" rx="27" ry="27"/><path fill="#ff7ca3" d="M170.3 109.7l-27.6-14 19-37.4 27.6 14z"/><path d="M131 72h13v44h-13z"/><ellipse fill="#b5e6f8" cx="157" cy="27" rx="53" ry="44"/><ellipse fill="#c70000" cx="42" cy="120" rx="28" ry="12"/><ellipse fill="#de0012" cx="97" cy="59" rx="21" ry="7"/><path fill="#e99abf" d="M73 81.1L54.8 98.4 18 94.5l-9.6-4.9z"/><path fill="#00c5ff" d="M10 131l-16-19 24-3z"/><ellipse fill="#c8e9f7" cy="28" rx="43" ry="43"/><ellipse fill="#ed94b7" rx="1" ry="1" transform="matrix(13.05785 -28.99147 3.53414 1.59179 17.8 71.1)"/><path fill="#090000" d="M178 74h19v6h-19z"/><ellipse fill="#f30017" rx="1" ry="1" transform="rotate(-169.9 48.1 52.1) scale(10.2236 46.55452)"/><ellipse cx="24" cy="80" rx="8" ry="8"/><ellipse fill="#6c8885" cx="150" cy="123" rx="18" ry="18"/><path d="M-16 69l17 41 9-38z"/></g></svg>