<svg xmlns="http://www.w3.org/2000/svg" viewBox="0 0 641 195"><filter id="b"><feGaussianBlur stdDeviation="12" /></filter><path fill="#694d74" d="M0 0h641v192H0z"/><g filter="url(#b)" transform="translate(1.3 1.3) scale(2.5039)" fill-opacity=".5"><ellipse cx="20" cy="26" rx="40" ry="42"/><ellipse cx="240" cy="24" rx="43" ry="43"/><ellipse fill="#c3b2eb" rx="1" ry="1" transform="matrix(35.9011 57.45377 -74.55862 46.5894 114.9 76.1)"/><ellipse cx="230" cy="16" rx="31" ry="31"/><ellipse fill="#fff" cx="82" cy="73" rx="55" ry="10"/><path d="M-16 50L9-16l76 55z"/><ellipse fill="#24c1e3" rx="1" ry="1" transform="matrix(-33.20343 13.3477 -8.25377 -20.5319 138.3 21)"/><ellipse fill="#ff1cff" cx="184" cy="16" rx="15" ry="15"/><ellipse fill="#fe2bf8" rx="1" ry="1" transform="matrix(-16.66407 -14.54003 9.69516 -11.11146 76.6 20)"/><ellipse fill="#d37298" cx="204" cy="74" rx="48" ry="31"/><path fill="#311335" d="M164 34h60v29h-60z"/><path fill="#260f3d" d="M88 0h15v55H88z"/><path fill="#ffe9ff" d="M48 66h170v9H48z"/><path fill="#ff9794" d="M19 49l18-8 43 30z"/><ellipse cx="30" cy="8" rx="27" ry="34"/><ellipse rx="1" ry="1" transform="rotate(-19.5 171.6 -705.1) scale(70.2814 15.78022)"/><path fill="#dd007b" d="M66 55l-78 20 22 17z"/><path fill="#003ea6" d="M171 29l-3-45-21 66z"/><path fill="#8bdef7" d="M131.5 2.8l-26 64.6 34.3-43.5 47.5-21z"/><path fill="#ff68e7" d="M54.9 1.1l46 47.2L75-13.4l9.5 19.1z"/><ellipse cx="145" rx="183" ry="2"/><ellipse fill="#bfa2b3" cx="180" cy="49" rx="66" ry="4"/></g></svg>