<svg xmlns="http://www.w3.org/2000/svg" viewBox="0 0 700 467"><filter id="b"><feGaussianBlur stdDeviation="12" /></filter><path fill="#424928" d="M0 0h700v464H0z"/><g filter="url(#b)" transform="translate(1.4 1.4) scale(2.73438)" fill-opacity=".5"><ellipse fill="#ecebff" rx="1" ry="1" transform="rotate(-152.3 76.5 40.6) scale(18.86196 25.08837)"/><path fill="#fff" d="M111 38h31v28h-31z"/><ellipse fill="#ffb319" rx="1" ry="1" transform="matrix(176.56826 -2.1934 .14776 11.89488 139.1 164)"/><path fill="#ff0" d="M126 7l71-23-13 40z"/><ellipse fill="#001522" rx="1" ry="1" transform="matrix(99.46585 -25.01077 16.28745 64.77391 24.4 26.7)"/><ellipse fill="#001e00" rx="1" ry="1" transform="matrix(47.36073 7.2274 -5.91027 38.72965 188.7 57.4)"/><ellipse fill="#fff" cx="78" cy="87" rx="7" ry="24"/><ellipse fill="#0049c1" rx="1" ry="1" transform="matrix(-4.65284 16.72475 -24.11626 -6.70916 89.3 44)"/><ellipse fill="#020101" cx="182" cy="113" rx="25" ry="40"/><ellipse fill="#12000c" rx="1" ry="1" transform="matrix(-22.69392 -33.0356 19.67136 -13.51331 59.8 124.2)"/><ellipse fill="#afd300" rx="1" ry="1" transform="matrix(-5.57554 -8.6971 34.92316 -22.38853 255 9.6)"/><path fill="#bacc7e" d="M24 99l7 35-35 1z"/><ellipse fill="#000400" cx="15" cy="34" rx="25" ry="67"/><path fill="#dcd9e1" d="M107.6 183l4.8 2-6.6-55.5 15.5-25.4z"/><path fill="#b9c258" d="M205 95l51 36-35 1z"/><ellipse fill="#d0b100" cx="13" cy="152" rx="40" ry="5"/><path fill="#ffff41" d="M175 15l-36-30 1 28z"/><ellipse fill="#87a01e" rx="1" ry="1" transform="rotate(-177.3 29.7 19.5) scale(8.94074 23.66401)"/><ellipse fill="#ffeaff" cx="155" cy="90" rx="4" ry="10"/><ellipse fill="#003b22" rx="1" ry="1" transform="rotate(147.3 114.4 69.8) scale(24.11483 36.42704)"/><ellipse fill="#ffc751" rx="1" ry="1" transform="matrix(-100.37282 1.52336 -.06685 -4.40443 170.9 169)"/><path fill="#05071f" d="M86 119l72-54-72 4z"/></g></svg>