<svg xmlns="http://www.w3.org/2000/svg" viewBox="0 0 700 467"><filter id="b"><feGaussianBlur stdDeviation="12" /></filter><path fill="#b6b196" d="M0 0h700v464H0z"/><g filter="url(#b)" transform="translate(1.4 1.4) scale(2.73438)" fill-opacity=".5"><ellipse fill="#5b3414" cx="217" cy="71" rx="136" ry="38"/><ellipse fill="#fff" rx="1" ry="1" transform="rotate(161.7 25.8 72) scale(82.84168 30.90446)"/><ellipse fill="#1e7e00" rx="1" ry="1" transform="rotate(84.9 -13 171.3) scale(34.64381 73.05963)"/><ellipse fill="#ff9700" rx="1" ry="1" transform="matrix(6.94544 22.02812 -40.87402 12.88753 15 104)"/><ellipse fill="#faf4f9" cx="33" rx="81" ry="81"/><path fill="#fff" d="M153 112l118 73v-62z"/><ellipse fill="#ffeba6" rx="1" ry="1" transform="matrix(-14.53047 -3.812 10.39948 -39.64045 178.4 47.8)"/><ellipse fill="#f6ffff" cx="89" cy="115" rx="35" ry="32"/><ellipse fill="#535c52" rx="1" ry="1" transform="matrix(57.08128 32.16365 -9.20347 16.33353 119.6 78.2)"/><path fill="#fff39e" d="M269.3 63.6l-24.7 32.8-16-12 24.8-32.8z"/><path fill="#36121e" d="M193 67l75 50-103-18z"/><ellipse fill="#eefeff" cx="53" cy="145" rx="35" ry="33"/><ellipse fill="#c0c2e8" rx="1" ry="1" transform="rotate(-111.7 100.7 -57.2) scale(19.80603 58.76955)"/><ellipse fill="#ff6009" cx="215" cy="70" rx="14" ry="25"/><path fill="#000d00" d="M111 93l40-15 12-35z"/><ellipse fill="#373952" rx="1" ry="1" transform="matrix(-64.47605 5.53695 -.4516 -5.25868 242.5 15.4)"/><ellipse fill="#fb0" cx="33" cy="97" rx="27" ry="17"/><ellipse fill="#4d7f00" rx="1" ry="1" transform="matrix(-2.09535 16.21128 -82.78108 -10.69967 165 169)"/><ellipse fill="#fbffff" cx="158" cy="122" rx="72" ry="8"/><path fill="#8d3c00" d="M13 0h12v20H13z"/><path fill="#b50000" d="M13.8 86.1L-1.9 65.8l-14.1 14 33.5 28.4z"/><path fill="#6ea82e" d="M178.6 130.8l37 6.4 3.7 47.8-85.1-57.9z"/></g></svg>