<svg xmlns="http://www.w3.org/2000/svg" viewBox="0 0 700 467"><filter id="b"><feGaussianBlur stdDeviation="12" /></filter><path fill="#370c14" d="M0 0h700v464H0z"/><g filter="url(#b)" transform="translate(1.4 1.4) scale(2.73438)" fill-opacity=".5"><ellipse fill="#e141a5" rx="1" ry="1" transform="matrix(-.17934 10.78329 -96.52915 -1.60539 117.6 154.6)"/><ellipse fill="#a7171d" cx="43" cy="76" rx="191" ry="25"/><ellipse fill="#be0017" rx="1" ry="1" transform="matrix(51.9709 -9.82 2.9422 15.5712 168.1 158.4)"/><path fill="#9da0ff" d="M196 4L176-8l-3 30z"/><ellipse fill="#a6aaff" cx="79" cy="155" rx="62" ry="4"/><ellipse cx="98" cy="31" rx="240" ry="23"/><ellipse cx="222" cy="118" rx="92" ry="26"/><ellipse fill="#000400" rx="1" ry="1" transform="matrix(-1.98381 23.14017 -51.8146 -4.44208 31.5 116.7)"/><ellipse fill="#6e506c" cx="116" cy="75" rx="34" ry="24"/><ellipse cx="245" cy="58" rx="18" ry="232"/><ellipse fill="#ff111e" rx="1" ry="1" transform="matrix(2.1134 -30.76106 6.68386 .4592 66.3 72.7)"/><ellipse fill="red" cx="20" cy="69" rx="6" ry="33"/><path fill="#ac0000" d="M161 52h67v41h-67z"/><path d="M168 41l17-18-8 72z"/><path fill="#000201" d="M158 21l-27 116 33 2z"/><ellipse fill="#000702" cx="77" cy="69" rx="6" ry="82"/><path fill="red" d="M37 51h12v35H37z"/><ellipse fill="#9e389c" rx="1" ry="1" transform="matrix(3.9771 18.14188 -34.01182 7.45614 107.6 167.6)"/><ellipse rx="1" ry="1" transform="matrix(-6.48531 55.53833 -5.13421 -.59953 32 68.5)"/><path fill="#001423" d="M0 157h79v13H0z"/><ellipse cx="54" cy="51" rx="5" ry="58"/><ellipse rx="1" ry="1" transform="matrix(8.35233 46.00257 -2.97379 .53993 214.6 77)"/></g></svg>