<svg xmlns="http://www.w3.org/2000/svg" viewBox="0 0 200 133"><filter id="b"><feGaussianBlur stdDeviation="12" /></filter><path fill="#1a1719" d="M0 0h200v133H0z"/><g filter="url(#b)" transform="translate(.5 .5)" fill-opacity=".5"><ellipse fill="#69ceff" cx="102" cy="61" rx="41" ry="21"/><ellipse fill="#ff0200" rx="1" ry="1" transform="rotate(99.1 11.3 89.4) scale(15.53775 44.72427)"/><path d="M-15 63L6-16 215 9z"/><ellipse fill="#4fa2ee" rx="1" ry="1" transform="matrix(9.41713 -13.22149 21.06315 15.00244 118.3 64.3)"/><path fill="#000b00" d="M215 70l-227 64 222-2z"/><ellipse fill="#ff0d00" cx="95" cy="89" rx="31" ry="12"/><path fill="#0057e2" d="M137.9 61.5l-2.2 21-75.6-8 2.2-21z"/><ellipse fill="#c2f2be" cx="120" cy="54" rx="18" ry="9"/><path fill="#ff8bb8" d="M102 108h9v14h-9z"/><ellipse fill="#000e00" rx="1" ry="1" transform="matrix(33.85012 -.52857 1.92954 123.56923 172.4 64)"/><ellipse fill="#000300" rx="1" ry="1" transform="matrix(33.44417 -1.26359 7.02401 185.90878 27.6 61.5)"/><path fill="#aee2c3" d="M66 44h15v13H66z"/><path fill="#000100" d="M0 0h133v44H0z"/><path fill="#9dc6ab" d="M139 47.8l-31.5 2.6 33 28.3-11.1-37.4z"/><ellipse fill="#2f5f17" rx="1" ry="1" transform="rotate(30.6 -88.9 353.3) scale(5.17002 29.08193)"/><path fill="#ec0c06" d="M117.7 95.4l-47.3 6.3L60.3 75l38.5 2.5z"/><path fill="#003fe9" d="M121 72h18v11h-18z"/><ellipse fill="#1f0002" cx="82" cy="116" rx="19" ry="19"/><ellipse rx="1" ry="1" transform="matrix(-82.27495 -24.68367 8.1769 -27.25504 182.4 23.4)"/><path fill="#0a0205" d="M122 88l67 60-89-9z"/><path fill="#013ec0" d="M64 60h45v16H64z"/><ellipse fill="#0084fe" cx="101" cy="75" rx="16" ry="3"/></g></svg>