<svg xmlns="http://www.w3.org/2000/svg" viewBox="0 0 200 101"><filter id="b"><feGaussianBlur stdDeviation="12" /></filter><path fill="#694f61" d="M0 0h200v101H0z"/><g filter="url(#b)" transform="translate(.5 .5)" fill-opacity=".5"><ellipse fill="#ffd1ff" cx="106" cy="93" rx="64" ry="64"/><ellipse rx="1" ry="1" transform="matrix(-17.97512 116.70468 -26.00882 -4.00594 17.3 47.7)"/><path d="M181 106.2L143.2 2 193-16.2 231 88z"/><ellipse fill="#ffb3ff" cx="61" cy="58" rx="22" ry="22"/><ellipse fill="#1d1f12" cx="109" cy="12" rx="199" ry="24"/><ellipse fill="#f4a1eb" rx="1" ry="1" transform="matrix(-21.49131 18.2756 -16.09267 -18.92429 138.4 64)"/><ellipse cx="185" cy="46" rx="21" ry="49"/><path d="M-16-4l85 120-84-47z"/><ellipse fill="#2b1e12" cx="110" cy="83" rx="5" ry="19"/><path fill="#e6b2e4" d="M47.4 82.5L35 82.3l35-47.5 95.7 5z"/><ellipse fill="#756760" rx="1" ry="1" transform="matrix(.43003 7.23822 -75.94333 4.51187 89.4 10.7)"/><ellipse fill="#a88677" cx="19" cy="95" rx="17" ry="5"/><ellipse fill="#4c0000" cx="139" cy="100" rx="83" ry="2"/><ellipse fill="#06020b" cx="7" cy="51" rx="35" ry="37"/><ellipse fill="#975869" cx="89" cy="72" rx="50" ry="5"/><path fill="#e2acdf" d="M48 38h114v29H48z"/><ellipse fill="#db93de" rx="1" ry="1" transform="matrix(-5.91704 16.16908 -21.33894 -7.80894 61.4 75.3)"/><path fill="#777073" d="M11.8 33l-5.4-6 17.8-16 5.4 6z"/><ellipse fill="#130d0d" rx="1" ry="1" transform="matrix(-16.67233 5.00035 -2.69706 -8.99262 139 27.1)"/><path fill="#231d1f" d="M85 19h85v17H85z"/><path fill="#d480cb" d="M168.6 74.4l-8.2-37-90.2 15 68 10z"/><path fill="#f9b7ef" d="M112 75.5l11.9 2.1-2 10.9-11.8-2.1z"/></g></svg>