<svg xmlns="http://www.w3.org/2000/svg" viewBox="0 0 200 133"><filter id="b"><feGaussianBlur stdDeviation="12" /></filter><path fill="#837374" d="M0 0h200v133H0z"/><g filter="url(#b)" transform="translate(.5 .5)" fill-opacity=".5"><ellipse fill="#fff" rx="1" ry="1" transform="matrix(3.01965 -29.7279 161.3236 16.38665 92.8 7.7)"/><ellipse rx="1" ry="1" transform="matrix(-160.95704 103.88638 -20.37901 -31.57435 167.6 101)"/><ellipse fill="#371e11" cx="55" cy="92" rx="24" ry="67"/><path fill="#fff5ff" d="M58-12L25 86-9 6z"/><ellipse fill="#fff1ed" rx="1" ry="1" transform="rotate(56.3 50.2 143.6) scale(21.91138 43.54265)"/><ellipse fill="#000005" cx="162" cy="71" rx="22" ry="20"/><path fill="#fff6da" d="M132.1 92.3l11.8-24.5-35.3 6.8 8.6 16.9z"/><path fill="#651200" d="M11 26h14v29H11z"/><path fill="#56270e" d="M83 27h21v52H83z"/><ellipse fill="#fefcff" cx="69" cy="2" rx="38" ry="26"/><path fill="#e4cfc6" d="M80 77.3l1.3 32 23.4 4.3-4.3-32.5z"/><path fill="#ddd5db" d="M46 96h18v29H46z"/><ellipse fill="#000017" rx="1" ry="1" transform="matrix(-26.81542 11.86862 -9.5099 -21.48626 133.8 117)"/><path fill="#fff6ef" d="M151.8 112.5l3.5-3.5 14.1 22.8-3.4-27z"/><ellipse fill="#452b36" cx="181" cy="40" rx="12" ry="25"/><path fill="#050000" d="M17 124h66v9H17z"/><ellipse fill="#b3704d" rx="1" ry="1" transform="matrix(-23.30398 13.64027 -4.50664 -7.69945 132.3 42.3)"/><ellipse fill="#f9ffff" cx="165" cy="33" rx="9" ry="17"/><path fill="#020002" d="M70.6 61.9l.8 23-36 1.2-.8-23z"/><ellipse fill="#fff" cx="184" cy="2" rx="39" ry="15"/><path fill="#cfc0b9" d="M19 95h20v18H19z"/><path fill="#271912" d="M103.7 59.8l60.8.7L97.3 75l32.3 57.5z"/></g></svg>