<svg xmlns="http://www.w3.org/2000/svg" viewBox="0 0 200 133"><filter id="b"><feGaussianBlur stdDeviation="12" /></filter><path fill="#7a656b" d="M0 0h200v133H0z"/><g filter="url(#b)" transform="translate(.5 .5)" fill-opacity=".5"><ellipse fill="#ff0e00" rx="1" ry="1" transform="matrix(-14.31111 46.24406 -79.76849 -24.68589 160.5 132)"/><ellipse fill="#003890" cy="51" rx="71" ry="71"/><ellipse fill="#bef9f7" cx="168" cy="37" rx="50" ry="50"/><path fill="#820000" d="M91-9L79 138l63-120z"/><path fill="#fff" d="M120 61h79v23h-79z"/><ellipse fill="#d2eee0" cx="75" cy="18" rx="10" ry="107"/><ellipse fill="#222901" cx="156" cy="53" rx="35" ry="9"/><ellipse rx="1" ry="1" transform="rotate(90.9 38.8 73.7) scale(53.86989 9.24711)"/><ellipse fill="#00487e" rx="1" ry="1" transform="matrix(11.93983 -91.59969 47.36675 6.17416 20.7 31.7)"/><ellipse fill="#ff2100" cx="171" cy="101" rx="93" ry="18"/><path fill="#ff1e00" d="M82 52l15 68 7-135z"/><path fill="#fff" d="M32 112h18v18H32z"/><path fill="#36472d" d="M136 11h53v14h-53z"/><ellipse fill="#005ac1" cx="132" cy="122" rx="9" ry="10"/><path fill="#baebff" d="M83 119l-12 27 47-16z"/><path fill="#d2ffff" d="M123 0h6v82h-6z"/><ellipse fill="#fff" cx="199" cy="20" rx="9" ry="65"/><ellipse fill="#f83300" rx="1" ry="1" transform="matrix(-28.12641 -12.71405 13.26588 -29.34719 170.4 116)"/><ellipse fill="#0078b1" cx="5" cy="90" rx="35" ry="52"/><ellipse fill="#00295f" cx="43" cy="17" rx="25" ry="49"/><path fill="#0a120a" d="M60 80L38 69l20 62z"/><path fill="#fff" d="M157.5-16.4L165 3.2l-34.5 13.2L123-3.2z"/></g></svg>