<svg xmlns="http://www.w3.org/2000/svg" viewBox="0 0 200 133"><filter id="b"><feGaussianBlur stdDeviation="12" /></filter><path fill="#432847" d="M0 0h200v133H0z"/><g filter="url(#b)" transform="translate(.5 .5)" fill-opacity=".5"><ellipse fill="#e0e9ff" rx="1" ry="1" transform="matrix(-35.05003 -2.14736 1.20413 -19.6542 92.9 59.4)"/><ellipse cx="179" cy="38" rx="22" ry="73"/><ellipse fill="#dc234a" rx="1" ry="1" transform="matrix(2.01454 -21.40097 30.03276 2.82708 146.2 57.4)"/><ellipse fill="#e25455" rx="1" ry="1" transform="matrix(3.17256 -15.1862 55.65707 11.62737 15.2 59.8)"/><ellipse cx="26" cy="8" rx="30" ry="30"/><ellipse fill="#5c5ab8" rx="1" ry="1" transform="matrix(1.33144 -22.22193 39.86322 2.38844 85.5 127.4)"/><ellipse fill="#0213a5" cx="95" cy="14" rx="48" ry="14"/><path d="M0 79h23v54H0z"/><ellipse fill="#cbe5e8" rx="1" ry="1" transform="matrix(-16.69805 15.35465 -8.3482 -9.0786 80 58.4)"/><path d="M99 6L60 37l65 2z"/><ellipse rx="1" ry="1" transform="matrix(2.255 -24.3499 41.80767 3.87173 180.5 16.5)"/><ellipse fill="#180b00" rx="1" ry="1" transform="matrix(-109.97692 -3.4476 .3328 -10.6161 114.4 93.2)"/><path fill="#ff6f97" d="M45 32h9v46h-9z"/><path d="M19 75l4-49 6 25z"/><path fill="#a9afff" d="M119 34l7.4-22.8L135 14l-7.4 22.8z"/><ellipse fill="#816181" cx="96" cy="73" rx="76" ry="6"/><path d="M130 36h7v30h-7z"/><path fill="#ff0f4d" d="M177.1 75.6l-7-43-18.5 43.8L150 32z"/><path fill="#ff6691" d="M27.3 83.6L27.1 35l8.3 1.8 4.4 4.4z"/><path d="M37 15h7v53h-7z"/><path fill="#000308" d="M158 27h7v105h-7z"/><path fill="#6078ff" d="M93 67l8-33 26 25z"/></g></svg>