<svg xmlns="http://www.w3.org/2000/svg" viewBox="0 0 700 467"><filter id="b"><feGaussianBlur stdDeviation="12" /></filter><path fill="#825f71" d="M0 0h700v464H0z"/><g filter="url(#b)" transform="translate(1.4 1.4) scale(2.73438)" fill-opacity=".5"><ellipse fill="#000701" cx="122" cy="40" rx="87" ry="22"/><ellipse fill="#4496ff" cx="138" cy="90" rx="68" ry="14"/><ellipse fill="#dbd7f7" rx="1" ry="1" transform="rotate(89.1 77.8 79) scale(18.26244 248.76399)"/><ellipse fill="#ab2809" rx="1" ry="1" transform="matrix(8.30965 -30.5846 93.89843 25.51164 230 153.8)"/><ellipse fill="#b81503" cx="61" cy="144" rx="48" ry="20"/><path fill="#fff9c6" d="M112 116h28v54h-28z"/><ellipse fill="#a992fc" rx="1" ry="1" transform="rotate(8.9 -431.6 856.4) scale(42.09215 20.71723)"/><ellipse fill="#00210a" cx="69" cy="51" rx="21" ry="30"/><ellipse fill="#f5ffff" cx="6" cy="132" rx="12" ry="12"/><path fill="#f40100" d="M207 88l33-12-79-7z"/><path fill="#7b9ff7" d="M218 111.4l-7.5-21.8 43.5-15 7.5 21.8z"/><path fill="#003525" d="M202.5 43.3L168 57l-5 10.5 37.5 7z"/><ellipse fill="#d79646" rx="1" ry="1" transform="matrix(113.15879 .98062 -.14775 17.0496 136.3 169)"/><path fill="#4293ff" d="M9 107l10-59 14 62z"/><ellipse fill="#ff686f" rx="1" ry="1" transform="matrix(9.00328 -3.28574 9.27215 25.4067 243.1 120.5)"/><path fill="#201a29" d="M152 113h27v38h-27z"/><ellipse fill="#b59cc2" rx="1" ry="1" transform="rotate(-163.5 110.1 -11.7) scale(99.57273 24.61246)"/><path d="M24 66h15v21H24z"/><ellipse fill="#ff6b4f" rx="1" ry="1" transform="matrix(34.47317 -2.1139 .25709 4.1926 122.4 74)"/><path fill="#cdd3f5" d="M69 110h17v22H69z"/><path fill="#fff" d="M111 124l27-10-54 5z"/><path fill="#25001b" d="M145 110l-15-14-36 17z"/></g></svg>