<svg xmlns="http://www.w3.org/2000/svg" viewBox="0 0 700 467"><filter id="b"><feGaussianBlur stdDeviation="12" /></filter><path fill="#5b5c4e" d="M0 0h700v464H0z"/><g filter="url(#b)" transform="translate(1.4 1.4) scale(2.73438)" fill-opacity=".5"><ellipse fill="#e6ffff" cx="54" cy="150" rx="54" ry="54"/><ellipse fill="#fff" rx="1" ry="1" transform="matrix(-11.46232 53.97482 -24.17658 -5.13424 180.2 78)"/><ellipse rx="1" ry="1" transform="matrix(245.15737 -70.1631 14.9268 52.15583 109.6 0)"/><path d="M247-16l24 134-98 67z"/><ellipse fill="#f8ffff" rx="1" ry="1" transform="matrix(17.26015 -1.90817 2.92956 26.4991 246.5 169)"/><ellipse fill="#c0fcff" rx="1" ry="1" transform="matrix(-24.40751 2.13614 -4.92664 -56.29163 67 146.2)"/><ellipse fill="#b79859" cx="133" cy="154" rx="40" ry="40"/><ellipse fill="#040000" rx="1" ry="1" transform="matrix(26.04088 -6.9747 20.4286 76.27273 28.2 27.8)"/><ellipse rx="1" ry="1" transform="rotate(-177.8 120.4 12.4) scale(25.65529 108.40391)"/><ellipse fill="#43b1ff" rx="1" ry="1" transform="matrix(-14.0073 9.27404 -7.41023 -11.19224 69.3 83.6)"/><path fill="#dcd2c3" d="M114.7 57V43L222 45.7l-26 34z"/><ellipse fill="#ac6112" rx="1" ry="1" transform="matrix(-47.12781 -11.22743 2.56041 -10.74748 195.7 27.8)"/><ellipse cx="98" cy="45" rx="15" ry="49"/><ellipse fill="#e9dbe3" rx="1" ry="1" transform="matrix(-10.60078 34.67358 -10.0473 -3.07177 173 117.1)"/><ellipse fill="#898338" rx="1" ry="1" transform="matrix(-16.51294 -8.69414 32.4162 -61.56872 3.4 131)"/><path d="M162.4 78l1.6-5.7 33.6 9.6-1.6 5.8z"/><ellipse fill="#74590f" rx="1" ry="1" transform="matrix(33.04776 -21.43523 14.7766 22.78182 119 93.6)"/><ellipse fill="#f5ffff" rx="1" ry="1" transform="matrix(24.13191 4.07844 -1.60963 9.5241 47.8 126.9)"/><ellipse fill="#3e3300" rx="1" ry="1" transform="rotate(157.8 85.3 96.2) scale(36.80752 21.57742)"/><ellipse cx="139" cy="5" rx="86" ry="7"/><path fill="#5e695b" d="M45 49h36v21H45z"/><path fill="#0032b4" d="M49 114h36v4H49z"/></g></svg>