<svg xmlns="http://www.w3.org/2000/svg" viewBox="0 0 200 133"><filter id="b"><feGaussianBlur stdDeviation="12" /></filter><path fill="#75605d" d="M0 0h200v133H0z"/><g filter="url(#b)" transform="translate(.5 .5)" fill-opacity=".5"><ellipse fill="#fff" rx="1" ry="1" transform="rotate(-167.3 60.8 21.5) scale(54.45761 12.99684)"/><ellipse fill="#570000" rx="1" ry="1" transform="matrix(-70.17669 -15.81327 3.866 -17.15668 152.2 91.2)"/><ellipse fill="#fff" cx="113" cy="127" rx="21" ry="27"/><ellipse fill="#f80000" cx="56" cy="64" rx="13" ry="65"/><ellipse fill="#000009" cx="189" cy="47" rx="21" ry="62"/><ellipse fill="#c8e9f7" cx="31" cy="55" rx="12" ry="63"/><ellipse fill="#060" rx="1" ry="1" transform="matrix(9.02768 -17.42658 32.52246 16.84796 106.3 21.4)"/><ellipse fill="#fff" rx="1" ry="1" transform="rotate(144.4 32.8 37.3) scale(16.63324 17.24691)"/><ellipse fill="#004399" rx="1" ry="1" transform="matrix(12.65582 1.4644 -13.17453 113.85873 6.9 53.7)"/><ellipse fill="#320300" rx="1" ry="1" transform="matrix(-65.27913 25.58261 -6.72183 -17.15209 32.4 129)"/><path fill="#f5ffff" d="M171.3 23.6l-4.8 7.7-39.8-25 4.8-7.6z"/><ellipse fill="#5a0000" rx="1" ry="1" transform="rotate(-39.4 212.2 -178) scale(43.10339 12.29359)"/><ellipse fill="#f7ffff" rx="1" ry="1" transform="matrix(-3.93213 31.28965 -2.97638 -.37404 71 30.4)"/><path fill="#fff" d="M126 126h34v7h-34z"/><path fill="#d5eaf4" d="M67 58l103-17-5 32z"/><ellipse fill="#c50300" cx="53" cy="96" rx="15" ry="30"/><path fill="#c7e7fb" d="M164.5 120.5l49.3-16.2-6.7 24.5-29.4-3.2z"/><ellipse fill="#bcd7dd" rx="1" ry="1" transform="rotate(-85.6 28.5 -16.2) scale(46.12693 8.02634)"/><ellipse fill="#c70000" cx="62" cy="3" rx="7" ry="58"/><ellipse fill="#3fc7ff" cx="3" cy="45" rx="7" ry="27"/><ellipse fill="#001620" rx="1" ry="1" transform="rotate(36.1 -182 75.5) scale(130.76186 16.47385)"/><ellipse fill="#860000" rx="1" ry="1" transform="matrix(39.64094 13.8531 -5.3187 15.21954 127.2 86.1)"/></g></svg>