<svg xmlns="http://www.w3.org/2000/svg" viewBox="0 0 200 133"><filter id="b"><feGaussianBlur stdDeviation="12" /></filter><path fill="#0c080a" d="M0 0h200v133H0z"/><g filter="url(#b)" transform="translate(.5 .5)" fill-opacity=".5"><path fill="#7c8ca6" d="M33 67.3L19.4 49.5l9.7 32.7 7.8 26.6z"/><path fill="#757f93" d="M132.1 54.3l-.6 27.5 11.7-1.2-26.7-14z"/><path fill="#505655" d="M171 59h16v47h-16z"/><path fill="#8fa0a3" d="M18 93l11 11 10-10z"/><path fill="#8a8988" d="M69.4 68.8L56 73.4l-7.1 11.7 36.6-17.3z"/><path fill="#66739d" d="M129 95h13v14h-13z"/><ellipse fill="#d2ddcb" cx="186" cy="103" rx="4" ry="4"/><path fill="#fff" d="M141.6 80.3l-1.3 1.6-7.9-6.2 1.3-1.6z"/><path fill="#b0bea9" d="M69 97l9 8v-7z"/><ellipse rx="1" ry="1" transform="rotate(23.3 -33 318.4) scale(64.44387 22.29682)"/><path fill="#b7b9bd" d="M188.2 58.9L177.5 78l-1.7-1 10.7-19z"/><ellipse fill="#c3bcc7" rx="1" ry="1" transform="matrix(.28256 -8.11946 .9994 .03478 179.2 88.6)"/><path d="M215 58l-39 46 17-70z"/><path fill="#825723" d="M120 116l-16 2 22 4z"/><path fill="#040203" d="M38 78h37v55H38z"/><ellipse fill="#a0a7bb" cx="123" cy="65" rx="7" ry="3"/><ellipse rx="1" ry="1" transform="matrix(-18.01918 34.58906 -2.99807 -1.56185 17.8 120.6)"/><path fill="#040407" d="M75.4 109.6l57.9-27.7 5.3-12.5-43.9 4.3z"/><path fill="#feffff" d="M25 91l-4 2 1 5z"/><path fill="#fff" d="M174 100l-2 4-5-5zM65 74l-8 2-4-3z"/><path fill="#040002" d="M137 95l45-27-24 57z"/></g></svg>