<svg xmlns="http://www.w3.org/2000/svg" viewBox="0 0 200 133"><filter id="b"><feGaussianBlur stdDeviation="12" /></filter><path fill="#5f4846" d="M0 0h200v133H0z"/><g filter="url(#b)" transform="translate(.5 .5)" fill-opacity=".5"><path fill="#fefbff" d="M65 100h45v23H65z"/><ellipse fill="#cea57a" rx="1" ry="1" transform="matrix(-33.98263 -17.08194 8.10462 -16.12324 186.1 80)"/><ellipse fill="#c789ae" rx="1" ry="1" transform="rotate(-108.1 115.9 12.7) scale(17.36934 27.95882)"/><path fill="#fff" d="M90.4 29.6l5.3 11.9-20.1 9-5.3-12z"/><ellipse fill="#150a0f" rx="1" ry="1" transform="rotate(68.1 -49 62.8) scale(97.15899 12.55171)"/><ellipse fill="#170811" rx="1" ry="1" transform="rotate(166.3 52.3 42.9) scale(9.44524 59.68976)"/><ellipse fill="#140000" cx="56" cy="46" rx="11" ry="32"/><path fill="#040008" d="M208.5 133.5h-43v-27h43z"/><path fill="#1c1206" d="M215 72l-91-88 75 29z"/><path fill="#0062eb" d="M140.7 51.3L139 64.2l-27.8-3.5 1.6-12.9z"/><ellipse fill="#bfa4aa" cx="5" cy="100" rx="8" ry="23"/><path fill="#d4874f" d="M32 67h21v24H32z"/><ellipse fill="#b4accf" cx="86" cy="115" rx="18" ry="18"/><ellipse fill="#1d0c06" cx="119" cy="21" rx="38" ry="8"/><ellipse fill="#fff7c6" cx="22" cy="13" rx="8" ry="6"/><ellipse fill="#ffc5a9" cx="118" cy="35" rx="11" ry="5"/><path fill="#dad1c6" d="M192.1 72l1-15-41.1 3.3 6 1.4z"/><ellipse cx="8" cy="1" rx="14" ry="14"/><ellipse fill="#8b5613" rx="1" ry="1" transform="matrix(7.7281 -8.06571 23.16839 22.19863 169.2 87.6)"/><path fill="#dedcda" d="M215 93.8v26L184.7 91l4.7-7.3z"/><ellipse fill="#986871" cx="70" cy="118" rx="9" ry="71"/><path fill="#e8bfd6" d="M128 115l29-10 7 18z"/></g></svg>