<svg xmlns="http://www.w3.org/2000/svg" viewBox="0 0 700 467"><filter id="b"><feGaussianBlur stdDeviation="12" /></filter><path fill="#121327" d="M0 0h700v464H0z"/><g filter="url(#b)" transform="translate(1.4 1.4) scale(2.73438)" fill-opacity=".5"><ellipse fill="#754c56" rx="1" ry="1" transform="matrix(55.93534 -6.90393 5.26408 42.64935 131.8 126)"/><ellipse fill="#00097c" cx="115" cy="22" rx="49" ry="29"/><ellipse cx="255" cy="55" rx="83" ry="83"/><ellipse cx="19" cy="59" rx="55" ry="77"/><ellipse fill="#1b1e9b" cx="27" cy="151" rx="29" ry="9"/><path fill="#6665b4" d="M96 146h72v12H96z"/><ellipse fill="#1b54ff" cx="147" cy="15" rx="8" ry="8"/><ellipse fill="#1b56ff" cx="111" cy="19" rx="8" ry="8"/><ellipse fill="#5f291c" rx="1" ry="1" transform="rotate(70 11 177.2) scale(14.80302 43.88368)"/><ellipse fill="#081c1c" rx="1" ry="1" transform="matrix(-3.32897 21.50387 -15.01966 -2.32517 125.7 130.8)"/><ellipse fill="#111c7b" cx="233" cy="147" rx="28" ry="11"/><ellipse fill="#001f32" cx="113" cy="55" rx="74" ry="34"/><path fill="#906253" d="M68 130l53-20 9-31z"/><path fill="#c42582" d="M168 110l-23.7-4.2 1.8-9.8 23.6 4.2z"/><ellipse fill="#001285" cx="59" cy="20" rx="22" ry="8"/><ellipse cx="12" cy="63" rx="32" ry="73"/><ellipse cx="255" cy="70" rx="53" ry="53"/><ellipse rx="1" ry="1" transform="matrix(5.63214 -13.59718 24.2068 10.02679 191.9 163.5)"/><path fill="#002be3" d="M80 41h13v10H80z"/><path fill="#00000a" d="M14 15.8l66.6-1.7 6 20.5 28-50.6z"/><ellipse fill="#000200" rx="1" ry="1" transform="matrix(-2.42489 -16.22531 22.55903 -3.37147 72.6 160.6)"/><ellipse fill="#1b1105" rx="1" ry="1" transform="matrix(22.7474 -3.07896 1.34934 9.96898 182.6 127.4)"/></g></svg>