<svg xmlns="http://www.w3.org/2000/svg" viewBox="0 0 700 467"><filter id="b"><feGaussianBlur stdDeviation="12" /></filter><path fill="#8b2f8c" d="M0 0h700v464H0z"/><g filter="url(#b)" transform="translate(1.4 1.4) scale(2.73438)" fill-opacity=".5"><ellipse fill="#f6142b" cx="121" cy="9" rx="90" ry="27"/><ellipse fill="#a0cfc4" rx="1" ry="1" transform="rotate(113 44.4 89.7) scale(42.23499 18.69733)"/><ellipse fill="#000035" rx="1" ry="1" transform="matrix(4.76215 35.06881 -19.07417 2.59016 183 79.3)"/><ellipse fill="#c223d5" rx="1" ry="1" transform="rotate(160.8 -7 49.2) scale(65.64699 125.88508)"/><ellipse fill="#00073b" rx="1" ry="1" transform="matrix(-21.94591 -5.57049 9.786 -38.55365 255 99.8)"/><ellipse fill="#340435" rx="1" ry="1" transform="matrix(-38.40724 -26.90274 9.80958 -14.00448 89 44.5)"/><ellipse rx="1" ry="1" transform="matrix(38.91415 .3034 -.12323 15.80648 254.3 165.6)"/><ellipse fill="#bb7ef0" cx="185" cy="143" rx="66" ry="10"/><ellipse fill="#98bad9" rx="1" ry="1" transform="matrix(-11.04217 6.07599 -18.31203 -33.2793 46.7 71.2)"/><path fill="#95edfd" d="M228.4 70.8l2.2 31-21 1.4-2.2-31z"/><ellipse fill="#020032" rx="1" ry="1" transform="matrix(24.79599 -4.1174 2.02584 12.20007 99 98.4)"/><path fill="#240030" d="M83 154h70v16H83z"/><path fill="#5dacff" d="M197.4 12.3L227 33l-10.3 14.7L187 27z"/><ellipse fill="#de0092" rx="1" ry="1" transform="matrix(.4139 -20.58744 31.50892 .63347 22 18.2)"/><ellipse fill="#6e009b" rx="1" ry="1" transform="matrix(-29.76494 34.3469 -13.90141 -12.04693 15.7 107.5)"/><ellipse fill="#ff00ca" cx="187" cy="154" rx="35" ry="7"/><ellipse fill="#dc00e8" rx="1" ry="1" transform="matrix(-10.12474 5.82198 -9.56126 -16.62755 237.6 34.6)"/><ellipse fill="#df6c36" cx="169" cy="5" rx="43" ry="14"/><ellipse fill="#100428" cx="135" cy="47" rx="12" ry="10"/><ellipse fill="#5f4a79" cx="165" cy="123" rx="111" ry="11"/><ellipse fill="#e65ac9" cx="35" cy="137" rx="72" ry="8"/><path fill="#c2aad5" d="M41 109l52-54-45 14z"/></g></svg>