<svg xmlns="http://www.w3.org/2000/svg" viewBox="0 0 700 467"><filter id="b"><feGaussianBlur stdDeviation="12" /></filter><path fill="#252f33" d="M0 0h700v464H0z"/><g filter="url(#b)" transform="translate(1.4 1.4) scale(2.73438)" fill-opacity=".5"><ellipse fill="#bea589" rx="1" ry="1" transform="rotate(112.3 20 47.7) scale(23.17933 75.7391)"/><ellipse fill="#a68874" rx="1" ry="1" transform="matrix(-4.86193 19.84655 -49.12562 -12.03461 191.8 52.4)"/><ellipse fill="#008afb" cx="178" cy="4" rx="153" ry="9"/><ellipse cx="35" cy="142" rx="255" ry="61"/><path fill="#bcb4b2" d="M117 51L86 26l11 94z"/><ellipse fill="#847f78" rx="1" ry="1" transform="matrix(1.92078 -13.4961 29.97283 4.26577 248.1 146.4)"/><path fill="#9d7b54" d="M9.1 25.3l51-3.5 2.8 40.9-51 3.5z"/><ellipse rx="1" ry="1" transform="matrix(-9.71744 -23.83704 32.52947 -13.261 52.6 87.5)"/><path fill="#b29f8c" d="M166 25h24v44h-24z"/><ellipse fill="#03375b" cx="70" cy="15" rx="23" ry="26"/><path d="M184 59h21v111h-21z"/><path fill="#000002" d="M224 63h32v69h-32z"/><path fill="#afd3e7" d="M164 88h11v14h-11z"/><path fill="#95b3d6" d="M89 109l-8 22-9-22z"/><path fill="#000005" d="M133 58h30v112h-30z"/><ellipse fill="#b6d6ea" rx="1" ry="1" transform="matrix(-.62616 4.99374 -8.04436 -1.00867 131.6 80.2)"/><path fill="#bea286" d="M212 47h10v36h-10z"/><path fill="#000609" d="M148 95.2L86.3 68.7 146 175.5l103-54.8z"/><path fill="#9abed6" d="M187.1 79l-5.4 7.7-15.9-23-1.3-8.5z"/><path fill="#000001" d="M-16 40l136 125-110-13z"/><ellipse fill="#c2ae98" rx="1" ry="1" transform="matrix(-12.61215 29.15267 -4.78715 -2.07104 102.1 60)"/><path fill="#0c263d" d="M114 20h9v54h-9z"/></g></svg>