<svg xmlns="http://www.w3.org/2000/svg" viewBox="0 0 200 133"><filter id="b"><feGaussianBlur stdDeviation="12" /></filter><path fill="#1a1719" d="M0 0h200v133H0z"/><g filter="url(#b)" transform="translate(.5 .5)" fill-opacity=".5"><ellipse fill="#68bfff" rx="1" ry="1" transform="matrix(45.0689 1.99629 -.9099 20.54229 103 62.6)"/><ellipse fill="red" cx="92" cy="89" rx="39" ry="13"/><path fill="#baffec" d="M99 47h36v15H99z"/><ellipse fill="#000b00" rx="1" ry="1" transform="matrix(-7.3687 -101.79736 27.98759 -2.0259 166.7 64.1)"/><ellipse rx="1" ry="1" transform="rotate(-177.3 13.7 30.5) scale(37.31211 109.9071)"/><ellipse fill="#ef0a03" rx="1" ry="1" transform="matrix(27.14325 7.9887 -4.42452 15.03325 87.3 92)"/><ellipse fill="#0041e4" cx="86" cy="66" rx="28" ry="11"/><ellipse rx="1" ry="1" transform="matrix(143.28132 -4.75313 .88786 26.76414 112.5 17.6)"/><path fill="#0071fa" d="M118.2 59l31.2 26.6-40.1-5-15.4-4.7z"/><path fill="#ff9dca" d="M102.5 111.6l-2.1 2 6.4 11.3 4.1-13.3z"/><ellipse fill="#0b0000" rx="1" ry="1" transform="matrix(16.77366 10.40332 -11.71704 18.89181 81.5 120)"/><path fill="#d90e06" d="M137 100l2-15-49-10z"/><path fill="#c1eac4" d="M62.3 51.1l1.8-7.8 15.6 3.6-1.8 7.8z"/><path fill="#8bc6a9" d="M121 44h18v26h-18z"/><ellipse fill="#0c1f04" cx="160" cy="91" rx="22" ry="65"/><path fill="#ff1c06" d="M86 81h31v20H86z"/><path fill="#0066ec" d="M124 68.3L86 76l36.4 5 23.9 9.7z"/><path fill="#df0000" d="M60.6 81.6L59 73.4 97.5 81 88 98.4z"/><ellipse cx="138" cy="131" rx="38" ry="16"/><path fill="#569027" d="M178 86l-19 15-6 19z"/><ellipse fill="#000700" cx="195" cy="60" rx="16" ry="199"/><ellipse fill="#021306" cx="31" cy="114" rx="39" ry="39"/></g></svg>