<svg xmlns="http://www.w3.org/2000/svg" viewBox="0 0 200 133"><filter id="b"><feGaussianBlur stdDeviation="12" /></filter><path fill="#5d5c50" d="M0 0h200v133H0z"/><g filter="url(#b)" transform="translate(.5 .5)" fill-opacity=".5"><ellipse fill="#e9ffff" cx="41" cy="117" rx="42" ry="42"/><ellipse fill="#fff" rx="1" ry="1" transform="matrix(-15.31558 -1.74499 5.2072 -45.70302 133.7 69.2)"/><ellipse rx="1" ry="1" transform="rotate(76.1 32.3 54.5) scale(33.4279 166.24015)"/><ellipse rx="1" ry="1" transform="matrix(-27.45187 -11.67092 24.233 -56.9999 192.9 60.4)"/><ellipse fill="#eececc" cx="150" cy="44" rx="13" ry="32"/><ellipse fill="#fff" cx="199" cy="126" rx="21" ry="18"/><ellipse fill="#aeeeff" rx="1" ry="1" transform="matrix(5.2497 -42.75532 16.2643 1.997 50.5 101)"/><ellipse fill="#b7934c" rx="1" ry="1" transform="matrix(17.62766 -11.81306 30.99404 46.24985 104.5 122.2)"/><ellipse fill="#020000" rx="1" ry="1" transform="rotate(-23.6 38.2 -23.4) scale(24.3239 70.16013)"/><ellipse cx="187" cy="17" rx="18" ry="91"/><ellipse fill="#281d00" rx="1" ry="1" transform="rotate(41.3 -81.5 272) scale(18.31763 31.36575)"/><path fill="#5d450c" d="M63 50h57v43H63z"/><ellipse rx="1" ry="1" transform="matrix(1.21851 -40.28126 12.55543 .3798 76.6 30)"/><path fill="#d1cabc" d="M90 34h77v16H90z"/><ellipse fill="#bbe4ff" cx="48" cy="106" rx="26" ry="26"/><ellipse fill="#a35e0f" rx="1" ry="1" transform="rotate(15.5 -3.8 598.5) scale(33.42016 6.8658)"/><path fill="#332c30" d="M119 56l38 16-2-12z"/><path fill="#2789f9" d="M73 62L31 81l25-31z"/><ellipse fill="#888136" cy="95" rx="17" ry="31"/><ellipse cx="122" cy="2" rx="157" ry="7"/><path fill="#5d5030" d="M-16 72l69-42-15 57z"/><path fill="#ef2100" d="M193.6 105.4l21.4.5v22.7L190 112z"/></g></svg>