<svg xmlns="http://www.w3.org/2000/svg" viewBox="0 0 700 467"><filter id="b"><feGaussianBlur stdDeviation="12" /></filter><path fill="#121327" d="M0 0h700v464H0z"/><g filter="url(#b)" transform="translate(1.4 1.4) scale(2.73438)" fill-opacity=".5"><ellipse fill="#754c58" rx="1" ry="1" transform="matrix(54.80092 -2.39266 1.8952 43.40704 129.6 127.5)"/><ellipse fill="#000774" rx="1" ry="1" transform="rotate(-19.6 106.4 -355.4) scale(63.90317 31.77618)"/><ellipse cx="255" cy="39" rx="97" ry="97"/><ellipse rx="1" ry="1" transform="matrix(62.85119 -8.94955 10.79859 75.83668 13.8 60.7)"/><path fill="#1c21a2" d="M0 143h54v14H0z"/><ellipse fill="#63362e" cx="156" cy="103" rx="62" ry="18"/><ellipse fill="#6f6dcd" cx="149" cy="151" rx="19" ry="7"/><ellipse fill="#1c51ff" cx="147" cy="14" rx="8" ry="8"/><path fill="#1848ff" d="M108.2 5.3l12.7 6-7.1 15.4-12.7-6z"/><path fill="#000e09" d="M146.2 131.4L122.9 147l-15-22.4L131 109z"/><path fill="#101d78" d="M271 159l-62.9-1.5-3-21.5 65.3 3.4z"/><ellipse fill="#00312f" rx="1" ry="1" transform="rotate(-87.5 98.7 -29.5) scale(18.40158 71.41633)"/><path fill="#5465b2" d="M94 143h24v15H94z"/><ellipse fill="#9c7272" rx="1" ry="1" transform="rotate(-124.2 82.9 26.6) scale(4.40104 18.7917)"/><path d="M33.3 183L97 161.1l-2.3-12.4-28.4-4.4z"/><path fill="#002d6b" d="M36.2 12.3l13 42.4 4.5 5.4L60 23.5z"/><ellipse rx="1" ry="1" transform="rotate(169.1 117 44.1) scale(35.80087 81.52539)"/><path fill="#b92075" d="M159.5 99.7l-14.4-6.5.1 19.1 27-10.7z"/><ellipse cx="9" cy="57" rx="33" ry="79"/><ellipse fill="#1f150a" rx="1" ry="1" transform="matrix(-13.05906 25.62986 -23.13692 -11.78885 199.5 107)"/><ellipse fill="#0036ff" cx="75" cy="20" rx="5" ry="7"/><ellipse rx="1" ry="1" transform="matrix(-25.01865 -5.90455 4.54884 -19.27428 190.7 165.2)"/></g></svg>