<svg xmlns="http://www.w3.org/2000/svg" viewBox="0 0 200 133"><filter id="b"><feGaussianBlur stdDeviation="12" /></filter><path fill="#50322b" d="M0 0h200v133H0z"/><g filter="url(#b)" transform="translate(.5 .5)" fill-opacity=".5"><ellipse fill="#c7952b" cx="89" cy="64" rx="98" ry="20"/><ellipse fill="#ffcbff" cx="81" cy="132" rx="108" ry="9"/><ellipse cx="199" cy="15" rx="34" ry="133"/><ellipse fill="#f8f000" cx="88" cy="57" rx="24" ry="14"/><ellipse rx="1" ry="1" transform="matrix(103.06376 9.37954 -1.57118 17.26433 58.1 24)"/><ellipse fill="#000007" cx="9" cy="89" rx="57" ry="20"/><ellipse rx="1" ry="1" transform="rotate(168.9 74.2 56.6) scale(52.03268 20.56624)"/><path fill="#ffa12a" d="M178.8 79l-5.5-34.5 9.9-1.6 5.5 34.6z"/><ellipse fill="#000004" rx="1" ry="1" transform="matrix(-2.68896 -30.73496 6.25323 -.54709 116.5 49.2)"/><path fill="#ffc674" d="M24.7 86l16.2-26.1-2.4-28.7-6.4-.7z"/><ellipse fill="#d3d49c" rx="1" ry="1" transform="matrix(5.64886 .21936 -.82546 21.25744 72.2 89.5)"/><ellipse fill="#00000d" cx="47" cy="56" rx="7" ry="25"/><ellipse fill="#b5bd95" cx="95" cy="98" rx="6" ry="37"/><ellipse fill="#ff8fff" rx="1" ry="1" transform="matrix(95.54043 -.28356 .01595 5.37325 68.8 131)"/><path d="M14.3 112l-6.8-1.6L29.7 14l6.8 1.6z"/><path fill="#ffdb72" d="M126.6 84.2l-2.2-42 7-.4 2.2 42z"/><path fill="#ff9653" d="M75-2.5v11H47v-11z"/><ellipse fill="#9a2cca" rx="1" ry="1" transform="matrix(-2.9971 14.86747 -13.96561 -2.8153 141.8 0)"/><path d="M-16-15.8l19.3 144 1.4-55.3L18.4.6z"/><path fill="#ec78f0" d="M131 124h53v9h-53z"/><ellipse fill="#000007" rx="1" ry="1" transform="rotate(-127.9 94.2 -39.6) scale(84.8551 23.05145)"/><path fill="#ffa12f" d="M22.5 39.1L9.9 89.5V62.4L11.3 33z"/></g></svg>