<svg xmlns="http://www.w3.org/2000/svg" viewBox="0 0 641 195"><filter id="b"><feGaussianBlur stdDeviation="12" /></filter><path fill="#b5babd" d="M0 0h641v192H0z"/><g filter="url(#b)" transform="translate(1.3 1.3) scale(2.5039)" fill-opacity=".5"><ellipse fill="#000008" rx="1" ry="1" transform="matrix(-3.7418 23.89597 -77.16141 -12.0825 210.6 76)"/><ellipse cx="4" cy="61" rx="25" ry="20"/><ellipse fill="#fff" cx="70" rx="69" ry="69"/><ellipse fill="#fff" rx="1" ry="1" transform="matrix(1.2125 22.2809 -190.55434 10.36975 160.8 1.3)"/><ellipse fill="#2d3759" rx="1" ry="1" transform="matrix(9.54038 -32.80776 22.68225 6.59592 227.6 70.6)"/><path fill="#191a2b" d="M114 46l2 27-17-28z"/><ellipse fill="#868daa" rx="1" ry="1" transform="matrix(93.4181 10.52968 -1.46153 12.96656 190 46.8)"/><ellipse fill="#fcf7ce" cx="68" cy="76" rx="42" ry="42"/><path fill="#000001" d="M0 61h23v16H0z"/><ellipse fill="#0a0300" cx="210" cy="76" rx="84" ry="7"/><path fill="#e1dbd2" d="M192.7 37.1l16.2 8-13.6 27.8-16.2-8z"/><path fill="#484f73" d="M30.8 66l2.6-14 15.5.8-27.7-8z"/><path fill="#4e4b66" d="M133 56.5l37 11 17-28.4-19-2.3z"/><path fill="#e8d5ae" d="M109 83l11-37 30 25z"/><path fill="#878fa3" d="M19 49L8 8l-23 38z"/><ellipse fill="#fff" cx="123" rx="192" ry="10"/><path fill="#bbcee4" d="M94 14l6 36 86-33z"/><path fill="#fffff1" d="M47 72L65 8 11 92z"/><path fill="#63a0f0" d="M243 41h13v25h-13z"/><path fill="#474148" d="M218 80l25-26-55 2z"/><ellipse fill="#bfb985" cx="68" cy="75" rx="21" ry="9"/><path fill="#434d6d" d="M15.6 55.4l18.6-11.6 4.2 6.8-18.6 11.6z"/></g></svg>