<svg xmlns="http://www.w3.org/2000/svg" viewBox="0 0 700 467"><filter id="b"><feGaussianBlur stdDeviation="12" /></filter><path fill="#0a0809" d="M0 0h700v464H0z"/><g filter="url(#b)" transform="translate(1.4 1.4) scale(2.73438)" fill-opacity=".5"><path fill="#99abc7" d="M45 94L27 67l15 50z"/><path fill="#acaca7" d="M73.4 91l42.9-5.3L66 101.5l-4 5z"/><ellipse fill="#596261" cx="231" cy="94" rx="9" ry="23"/><ellipse fill="#9aa9c1" cx="160" cy="83" rx="8" ry="8"/><path fill="#718588" d="M50.9 123.4l-7.4 11.9L23 122.6l7.4-11.9z"/><ellipse fill="#778ab6" rx="1" ry="1" transform="rotate(154.3 72.5 85) scale(6.83401 9.15393)"/><path fill="#f3ffe7" d="M240 127l1 14-9-18z"/><path fill="#7b867c" d="M213 132l21.6-33-15.2 45.7 2-2.8z"/><path fill="#bcbec7" d="M149.1 77.7l31 27.4 6.8-2.5-32.8-14.7z"/><ellipse fill="#faffef" cx="97" cy="129" rx="4" ry="4"/><path fill="#fff" d="M106.8 88.5l-6 3.5-1.6-2.5 6-3.5z"/><path fill="#010509" d="M69.6 99.7l-2.8 9.6-38.4-11 2.8-9.6z"/><path fill="#fff" d="M234 81l7-10-5 14z"/><ellipse cx="170" cy="49" rx="121" ry="31"/><ellipse fill="#664819" rx="1" ry="1" transform="rotate(-89 146 6.8) scale(2.57449 26.44105)"/><path d="M242.8 75.6l13.3 4-14.9 48.8-13.3-4z"/><ellipse fill="#548990" cx="40" cy="55" rx="5" ry="5"/><path fill="#d7e7d8" d="M43 121l5-4-2 11z"/><path fill="#f1faff" d="M32 77h5v9h-5z"/><ellipse fill="#010101" cx="64" cy="116" rx="186" ry="4"/><path fill="#2a312e" d="M92 76l3 18-23-2z"/><path fill="#040201" d="M203.2 55.6l62.2 69.8-54.3 1.3 40.3-25.6z"/></g></svg>