<svg xmlns="http://www.w3.org/2000/svg" viewBox="0 0 313 195"><filter id="b"><feGaussianBlur stdDeviation="12" /></filter><path fill="#3c3b1b" d="M0 0h313v194H0z"/><g filter="url(#b)" transform="translate(.6 .6) scale(1.22266)" fill-opacity=".5"><path fill="#fcc75d" d="M0 139h201v12H0z"/><ellipse fill="#e8a749" cx="234" cy="151" rx="110" ry="6"/><path fill="#f2a7ff" d="M206 17.8v-9l32-.6v9z"/><path fill="#ff96ff" d="M182 26h23v7h-23z"/><ellipse fill="#212b09" cx="218" cy="90" rx="189" ry="55"/><ellipse fill="#b05483" rx="1" ry="1" transform="matrix(2.97019 9.73736 -23.73979 7.24134 128.6 21.7)"/><ellipse fill="#e184ff" cx="55" cy="14" rx="16" ry="3"/><ellipse cx="12" cy="154" rx="75" ry="7"/><path fill="#00f51a" d="M93.1 83l-7.9 21.7-10.3-3.8 7.9-21.6z"/><ellipse fill="#072100" cx="80" cy="38" rx="26" ry="26"/><ellipse fill="#00bc36" cx="176" cy="14" rx="28" ry="4"/><path fill="#634437" d="M71.5 129.7l9.3-30.6 49.7 15.2-9.3 30.6z"/><ellipse fill="#00a225" rx="1" ry="1" transform="matrix(-9.45469 .0165 -.02053 -11.76493 174.7 89.2)"/><ellipse fill="#807132" cx="133" cy="137" rx="25" ry="7"/><ellipse fill="#ffff8c" cx="130" cy="147" rx="22" ry="3"/><ellipse fill="#080801" cx="12" rx="29" ry="29"/><ellipse fill="#0e0c00" cx="255" cy="64" rx="21" ry="62"/><path fill="#c28643" d="M205 113l15 10 6 34z"/><path fill="#ffff8b" d="M69 142h29v5H69z"/><path fill="#3a4868" d="M99 113h10v42H99z"/><path fill="#3ddf77" d="M70 12h73v4H70z"/><path fill="#db6ffb" d="M23.4 28.9l.3-4 25 2.2-.4 4z"/></g></svg>