<svg xmlns="http://www.w3.org/2000/svg" viewBox="0 0 200 133"><filter id="b"><feGaussianBlur stdDeviation="12" /></filter><path fill="#6b5c57" d="M0 0h200v133H0z"/><g filter="url(#b)" transform="translate(.5 .5)" fill-opacity=".5"><ellipse fill="#ffffe6" cx="139" cy="37" rx="37" ry="37"/><ellipse cx="56" cy="111" rx="42" ry="59"/><ellipse fill="#e1e9ff" cx="112" cy="73" rx="19" ry="36"/><ellipse rx="1" ry="1" transform="matrix(-13.13462 .92551 -1.77836 -25.23798 99 19)"/><ellipse fill="#060408" cx="52" cy="99" rx="27" ry="95"/><path fill="#0f0000" d="M171 14h29v27h-29z"/><ellipse fill="#ffddb4" rx="1" ry="1" transform="rotate(173.5 73.6 8.6) scale(23.2412 57.3679)"/><ellipse rx="1" ry="1" transform="matrix(23.28244 -19.27284 13.47418 16.2774 81.7 126)"/><path fill="#efd7c6" d="M86 71L57-16l29 36z"/><ellipse fill="#a47f74" cx="13" cy="36" rx="14" ry="144"/><ellipse fill="#dcb683" cx="180" cy="72" rx="30" ry="8"/><path fill="#adb5dc" d="M41.5 20l-6.4 15 4.4 27 3.5-5.4z"/><ellipse fill="#a58577" cx="70" cy="57" rx="10" ry="14"/><ellipse fill="#0b0000" rx="1" ry="1" transform="matrix(2.90857 2.3302 -12.26015 15.30317 72.6 31.2)"/><ellipse fill="#4e2f25" cx="172" cy="122" rx="32" ry="32"/><path fill="#3d223a" d="M128.6 58.7l12.9 1.8-2.1 14.8-12.9-1.8z"/><path d="M130.7 98.6l-25.8-3.2.4-4 25.8 3.2z"/><path fill="#a06764" d="M109 0h16v38h-16z"/><ellipse fill="#fff" cx="100" cy="52" rx="7" ry="7"/><path fill="#b2978d" d="M88.5 98.6l9.7-2.7-26.4 6.6-3-12.6z"/><ellipse fill="#d9d8d7" rx="1" ry="1" transform="matrix(4.4256 -2.38743 7.55272 14.0005 82 54.6)"/><ellipse fill="#513a30" rx="1" ry="1" transform="matrix(8.3548 49.55233 -12.55905 2.11753 7.9 125.9)"/></g></svg>