<svg xmlns="http://www.w3.org/2000/svg" viewBox="0 0 700 467"><filter id="b"><feGaussianBlur stdDeviation="12" /></filter><path fill="#5c4843" d="M0 0h700v464H0z"/><g filter="url(#b)" transform="translate(1.4 1.4) scale(2.73438)" fill-opacity=".5"><ellipse fill="#fff" rx="1" ry="1" transform="rotate(174.1 53.5 73.8) scale(32.33681 15.59466)"/><ellipse fill="#c2965f" cx="232" cy="100" rx="35" ry="35"/><ellipse fill="#fdc2f1" cx="187" cy="150" rx="23" ry="12"/><path fill="#fff" d="M95 40h26v17H95z"/><ellipse fill="#140b0e" rx="1" ry="1" transform="matrix(-15.44737 6.68467 -73.63217 -170.1539 24.5 83.3)"/><path fill="#d3b2b7" d="M-16 147l48 4-48-76z"/><ellipse fill="#000014" cx="153" cy="107" rx="15" ry="42"/><ellipse fill="#18020a" rx="1" ry="1" transform="matrix(-6.48257 49.64027 -14.36449 -1.87587 74.6 46.3)"/><ellipse fill="#000004" rx="1" ry="1" transform="matrix(35.49795 24.6015 -8.52266 12.2975 241.3 162)"/><ellipse fill="#322611" cx="229" cy="29" rx="65" ry="44"/><ellipse fill="#0064ea" cx="164" cy="71" rx="19" ry="11"/><ellipse fill="#d5cebd" cx="218" cy="81" rx="33" ry="8"/><path fill="#fff1ba" d="M40.6 15.4l-3 7.8-24.8 2.2L31 8.1z"/><ellipse fill="#d38853" cx="55" cy="101" rx="14" ry="19"/><ellipse fill="#aba3c5" cx="105" cy="151" rx="28" ry="20"/><path fill="#f7f2ed" d="M271 157.7v5.6l-6.2-32.3-40.4-35z"/><ellipse fill="#1e0000" rx="1" ry="1" transform="matrix(-34.89015 -4.53144 1.00248 -7.71867 136.1 29)"/><path fill="#e3ad69" d="M142.5 52.7L212 34.3l-52 7.4-17.8-5.6z"/><ellipse rx="1" ry="1" transform="matrix(-41.70823 14.07138 -2.56591 -7.60548 12 8)"/><path fill="#f8a36e" d="M52 54L24 35l33 1z"/><path fill="#002b92" d="M170.5 108.8l12.5-8.1 18.5 28.5-12.5 8.1z"/><ellipse fill="#73460a" rx="1" ry="1" transform="matrix(17.39878 27.73342 -13.68474 8.58523 212.2 111.1)"/></g></svg>