<svg xmlns="http://www.w3.org/2000/svg" viewBox="0 0 700 467"><filter id="b"><feGaussianBlur stdDeviation="12" /></filter><path fill="#4a6676" d="M0 0h700v464H0z"/><g filter="url(#b)" transform="translate(1.4 1.4) scale(2.73438)" fill-opacity=".5"><ellipse fill="#f3ffff" rx="1" ry="1" transform="matrix(73.60806 -2.18464 .72668 24.48442 122 45.3)"/><ellipse fill="#feffff" cx="106" cy="100" rx="20" ry="79"/><ellipse cx="218" cy="107" rx="38" ry="38"/><ellipse rx="1" ry="1" transform="rotate(-34.6 186.3 18.1) scale(38.32109 24.37697)"/><ellipse cx="132" cy="6" rx="150" ry="16"/><ellipse fill="#f4e1ff" rx="1" ry="1" transform="matrix(44.8515 -11.92343 4.1593 15.64571 178 156.6)"/><path d="M70.4 21.1l12-.2 1.2 64-12 .2z"/><ellipse cx="181" cy="51" rx="4" ry="92"/><ellipse fill="#00000b" rx="1" ry="1" transform="matrix(16.33342 -.12928 .25683 32.44816 140 87.7)"/><ellipse fill="#dfcfec" rx="1" ry="1" transform="matrix(8.83397 -18.77314 45.78238 21.54355 101 167.2)"/><path fill="#6ff" d="M185 8h14v78h-14z"/><ellipse fill="#7affff" cx="5" cy="56" rx="10" ry="35"/><ellipse cx="20" cy="48" rx="6" ry="89"/><ellipse fill="#00d0ff" cx="244" cy="41" rx="8" ry="44"/><ellipse fill="#abffff" rx="1" ry="1" transform="matrix(.76127 -36.32436 8.15852 .17098 63.5 42.5)"/><ellipse cx="235" cy="111" rx="79" ry="27"/><path fill="#76ffff" d="M27 31h15v48H27z"/><path fill="#00000d" d="M103 122h47v16h-47z"/><path fill="#2ce9ff" d="M212 14h15v66h-15z"/><ellipse cx="6" cy="162" rx="39" ry="10"/><path d="M44 17.3l12 .4-2 53-12-.4zM200 0h12v132h-12z"/></g></svg>