<svg xmlns="http://www.w3.org/2000/svg" viewBox="0 0 200 133"><filter id="b"><feGaussianBlur stdDeviation="12" /></filter><path fill="#6b5c57" d="M0 0h200v133H0z"/><g filter="url(#b)" transform="translate(.5 .5)" fill-opacity=".5"><ellipse fill="#fff7e1" cx="138" cy="29" rx="33" ry="61"/><ellipse cx="59" cy="116" rx="41" ry="64"/><ellipse fill="#c9caed" rx="1" ry="1" transform="matrix(3.08058 -39.73363 21.28658 1.65036 114.6 71.1)"/><path fill="#0a0000" d="M93-16l36 35-41 34z"/><ellipse cx="68" cy="127" rx="42" ry="42"/><path fill="#4f302a" d="M151.7 148l63.3-14.6-57-62.2-32.1-13.1z"/><ellipse fill="#0f0b10" cx="47" cy="38" rx="20" ry="199"/><ellipse fill="#1a0200" rx="1" ry="1" transform="rotate(128.7 90.1 59.7) scale(13.54108 26.56094)"/><ellipse fill="#f1d6d2" cx="81" cy="47" rx="7" ry="22"/><ellipse fill="#f5d2b4" cx="138" cy="32" rx="30" ry="30"/><path fill="#fff" d="M67.2 8.9L79 16.3l-4.3 6.8L63 15.7z"/><ellipse fill="#9c8180" rx="1" ry="1" transform="matrix(-7.19034 35.34166 -36.71039 -7.46881 6 37.4)"/><ellipse fill="#ffffe7" cx="63" rx="15" ry="6"/><path fill="#f7feff" d="M94 48.4l28.4-5.5 3.6 18.7L97.6 67z"/><path fill="#eac58c" d="M163 66h37v14h-37z"/><ellipse fill="#dfb6ab" cx="79" cy="96" rx="7" ry="7"/><path fill="#a58276" d="M14 0h12v133H14z"/><path fill="#78594a" d="M84 64.2l-13.7 8.2L58 51.8l13.7-8.2z"/><path fill="#010309" d="M111.7 92.7l34.5 3.6-34.3 1.6-10.5-9.2z"/><ellipse cx="65" cy="36" rx="10" ry="10"/><path fill="#040004" d="M59.7 144.2L28 22l-1.3 44 .5 74.5z"/><path fill="#cae3ff" d="M38 34h5v18h-5z"/></g></svg>