<svg xmlns="http://www.w3.org/2000/svg" viewBox="0 0 200 133"><filter id="b"><feGaussianBlur stdDeviation="12" /></filter><path fill="#747072" d="M0 0h200v133H0z"/><g filter="url(#b)" transform="translate(.5 .5)" fill-opacity=".5"><ellipse fill="#000003" cx="187" cy="37" rx="38" ry="33"/><ellipse fill="#bbc4cd" rx="1" ry="1" transform="matrix(-28.23062 1.06369 -5.13867 -136.3822 10.7 82.7)"/><ellipse fill="#41112d" rx="1" ry="1" transform="matrix(-28.7471 -34.9973 19.68508 -16.1695 150 94.5)"/><path fill="#e7ffff" d="M114 2.7l12.5-6.6 31.4 59.2-12.4 6.6z"/><ellipse cx="65" cy="132" rx="11" ry="57"/><path fill="#f5ffff" d="M70 41h15v52H70z"/><path fill="#1a0c00" d="M85 36h32v31H85z"/><ellipse cx="162" cy="24" rx="18" ry="18"/><path fill="#002cff" d="M137 78h15v31h-15z"/><path fill="#ebffff" d="M17.3 34.3l20.6 4-7.2 37.4-20.6-4z"/><ellipse fill="#ffffe2" cx="159" rx="42" ry="8"/><ellipse fill="#ebf1f6" rx="1" ry="1" transform="matrix(-5.02735 11.34485 -24.34204 -10.7869 101 132.1)"/><path fill="#ffffc5" d="M109 34V-5L87 37z"/><path fill="#262200" d="M44 18h43v17H44z"/><path fill="#f1e9b4" d="M75.5-1.8l-6.7 22L8.5 1.8l6.7-22z"/><path fill="#2e0000" d="M16 82h14v15H16z"/><path fill="#5d5531" d="M35.7 8.8L1 .7l-16.9 14L76.6 43z"/><ellipse cx="115" cy="20" rx="5" ry="24"/><path fill="#fff" d="M-14.3 111.3L6 105.8l8.3 31-20.3 5.4z"/><ellipse fill="#1b1109" rx="1" ry="1" transform="matrix(-7.65692 2.77177 -16.73557 -46.2315 171.9 101.8)"/><path fill="#cce8ff" d="M126.3 29.9l16.6 3.8-5.2 22.4-16.6-3.8z"/><ellipse fill="#f72811" cx="125" cy="79" rx="9" ry="17"/></g></svg>