<svg xmlns="http://www.w3.org/2000/svg" viewBox="0 0 200 133"><filter id="b"><feGaussianBlur stdDeviation="12" /></filter><path fill="#897e7a" d="M0 0h200v133H0z"/><g filter="url(#b)" transform="translate(.5 .5)" fill-opacity=".5"><ellipse rx="1" ry="1" transform="matrix(-2.18632 24.5773 -152.27537 -13.54592 107.3 83.5)"/><ellipse fill="#fff" rx="1" ry="1" transform="rotate(-86.4 99 31.2) scale(22.04883 167.72326)"/><ellipse fill="#fff" cx="11" rx="41" ry="41"/><ellipse fill="#fff" cx="132" cy="7" rx="199" ry="18"/><ellipse fill="#140000" rx="1" ry="1" transform="matrix(14.51011 -23.93483 22.50403 13.64272 69.5 88.4)"/><ellipse fill="#5d3f34" cx="102" cy="51" rx="84" ry="28"/><ellipse fill="#fff" rx="1" ry="1" transform="matrix(139.43827 3.87923 -.50667 18.2121 74.4 132)"/><ellipse fill="#fff" cx="27" cy="123" rx="33" ry="24"/><ellipse fill="#d2dbe8" rx="1" ry="1" transform="matrix(3.62807 -20.2861 70.73115 12.6499 155.7 12)"/><path fill="#1c0000" d="M98 23h27v22H98z"/><path fill="#2b0b02" d="M137.6 73.3l112.9 22-6.1 31.4-112.9-22z"/><ellipse fill="#130000" cx="91" cy="83" rx="31" ry="18"/><ellipse fill="#2f0e02" cy="84" rx="129" ry="15"/><path fill="#130000" d="M48.8 99.9l44.1.6-29.3 17.8-10.3-6.1z"/><path fill="#462518" d="M215 36.6v8l-39 17.5-50.8-17.3z"/><path fill="#9c9490" d="M128.7 48l-2.5 15.2L158.8 86 87.2 58z"/><path fill="#fff" d="M191.7 83.8l5.8-27.4 8.8 1.8-5.8 27.4z"/><ellipse fill="#dde5e2" rx="1" ry="1" transform="matrix(.88962 -10.69366 34.5676 2.87574 139.1 118.2)"/><ellipse fill="#877a74" cx="58" cy="40" rx="32" ry="20"/><path fill="#e8ecef" d="M184 58h5v26h-5z"/><ellipse fill="#f7fcf9" cx="95" cy="132" rx="28" ry="28"/><path fill="#0e0000" d="M84 44h11v56H84z"/></g></svg>