<svg xmlns="http://www.w3.org/2000/svg" viewBox="0 0 700 467"><filter id="b"><feGaussianBlur stdDeviation="12" /></filter><path fill="#343859" d="M0 0h700v464H0z"/><g filter="url(#b)" transform="translate(1.4 1.4) scale(2.73438)" fill-opacity=".5"><ellipse fill="#a097c4" cx="131" cy="101" rx="67" ry="67"/><ellipse rx="1" ry="1" transform="matrix(192.65457 -28.81618 4.72 31.55627 109 11.3)"/><path fill="#ffffec" d="M207.3 130.8l19.2-16.1 12.2 14.5-19.2 16.1z"/><ellipse cx="123" cy="135" rx="28" ry="10"/><ellipse fill="#fffffd" cx="37" cy="134" rx="10" ry="14"/><ellipse fill="#000001" cx="251" cy="134" rx="21" ry="83"/><ellipse fill="#00002c" cx="20" cy="69" rx="40" ry="56"/><ellipse fill="#0014d6" rx="1" ry="1" transform="matrix(-21.03897 20.4595 -18.67845 -19.20748 243.1 39.3)"/><ellipse fill="#b080d2" rx="1" ry="1" transform="matrix(10.6286 11.69668 -21.92977 19.92725 83.8 62)"/><ellipse fill="#3347bb" rx="1" ry="1" transform="rotate(-8.4 573 -888.2) scale(75.70425 17.42822)"/><ellipse fill="#000008" cx="164" cy="22" rx="58" ry="23"/><path d="M-6 171l42 14L-1 26z"/><ellipse fill="#f5ffdd" cx="166" cy="128" rx="12" ry="12"/><ellipse fill="#e1e6ee" cx="117" cy="157" rx="27" ry="8"/><ellipse fill="#000013" cx="220" cy="83" rx="12" ry="39"/><path d="M91.2 187.3l-39-.6.6-36 39 .6z"/><ellipse cx="195" cy="169" rx="27" ry="18"/><ellipse fill="#000018" cx="83" cy="7" rx="157" ry="33"/><ellipse fill="#8a73a5" rx="1" ry="1" transform="matrix(2.88312 33.63011 -18.45433 1.5821 191.3 81.2)"/><path fill="#8da59e" d="M50 146.4L32.4 162l-16.6-15 18.5-46.4z"/><ellipse fill="#aea895" rx="1" ry="1" transform="matrix(-19.30917 16.49159 -9.7903 -11.46296 84.9 128.7)"/><ellipse fill="#000032" rx="1" ry="1" transform="matrix(29.85102 -1.56788 .2189 4.1677 137.6 90)"/></g></svg>