<svg xmlns="http://www.w3.org/2000/svg" viewBox="0 0 700 467"><filter id="b"><feGaussianBlur stdDeviation="12" /></filter><path fill="#b6a390" d="M0 0h700v464H0z"/><g filter="url(#b)" transform="translate(1.4 1.4) scale(2.73438)" fill-opacity=".5"><ellipse fill="#634e34" rx="1" ry="1" transform="matrix(90.33845 22.99064 -9.72361 38.20753 67 145)"/><ellipse fill="#fff" cx="235" cy="145" rx="40" ry="40"/><ellipse fill="#faffff" rx="1" ry="1" transform="matrix(-12.79076 21.79533 -55.74329 -32.7134 128.8 14.7)"/><ellipse fill="#b17014" cx="237" cy="12" rx="42" ry="42"/><ellipse fill="#00143d" rx="1" ry="1" transform="matrix(7.51979 -5.22848 16.78582 24.14199 85.3 30)"/><ellipse rx="1" ry="1" transform="rotate(155.6 19.6 69.8) scale(9.45859 27.48018)"/><ellipse fill="#daeaec" rx="1" ry="1" transform="matrix(-8.05592 1.01048 -6.33755 -50.52512 90.5 136)"/><ellipse fill="#d7cdf2" cx="22" cy="25" rx="30" ry="30"/><ellipse fill="#eebc6e" cx="209" cy="79" rx="42" ry="42"/><ellipse fill="#f6ffff" rx="1" ry="1" transform="matrix(-7.41084 78.98785 -13.76917 -1.29186 255 120.7)"/><path fill="#854436" d="M91.5 151l12.2-47.7L126 90.9l14.8 94.1z"/><path fill="#f3ffff" d="M173 106l-33 13-21-40z"/><path d="M69 119l3 41 20 25z"/><path fill="#3d0d00" d="M244 0h12v39h-12z"/><path fill="#dcffff" d="M26.9-4.1l72.6-7.7 1.6 16-72.6 7.6z"/><ellipse fill="#fffff3" cx="84" cy="100" rx="22" ry="8"/><path fill="#d3d4f0" d="M111 93l-9-51-30 70z"/><path fill="#825f49" d="M124 71l13-30 48 69z"/><ellipse fill="#fdffff" rx="1" ry="1" transform="matrix(-35.01794 -16.38168 7.20814 -15.40831 117.3 1.2)"/><path fill="#5b546b" d="M84.7 53l3.6 41-13 1-3.6-40.8z"/><path fill="#e4d4ff" d="M67.2 74.9l-8.7 15.8L45 103.6l10.5-74.4z"/><ellipse fill="#d4e3da" rx="1" ry="1" transform="matrix(14.13274 -7.80169 21.45058 38.85766 160.5 48.7)"/></g></svg>