<svg xmlns="http://www.w3.org/2000/svg" viewBox="0 0 200 133"><filter id="b"><feGaussianBlur stdDeviation="12" /></filter><path fill="#9c8c9c" d="M0 0h200v133H0z"/><g filter="url(#b)" transform="translate(.5 .5)" fill-opacity=".5"><ellipse fill="#92000f" rx="1" ry="1" transform="matrix(-109.40766 -6.65171 2.08947 -34.36777 91.2 105.5)"/><ellipse fill="#bcffff" cx="153" cy="23" rx="50" ry="50"/><ellipse fill="#90ffff" cx="41" cy="19" rx="54" ry="54"/><ellipse fill="#e0000c" cx="83" cy="132" rx="40" ry="40"/><path fill="#9d0000" d="M74.2 60.8L105 40.1l12.9 19L87 80z"/><ellipse fill="#b9f1ff" rx="1" ry="1" transform="matrix(-11.9058 20.78871 -73.74306 -42.23305 139.3 26.4)"/><ellipse fill="#b9ffff" rx="1" ry="1" transform="matrix(-12.12522 4.25979 -4.93175 -14.03792 114 85.4)"/><ellipse fill="#f47898" cx="168" cy="88" rx="22" ry="22"/><path fill="#00d5ff" d="M7 133l11-21-22-2z"/><path fill="#000001" d="M122 133l10-58 23-6z"/><ellipse fill="#27c6eb" cx="76" cy="25" rx="19" ry="22"/><ellipse fill="#ee0009" cx="89" cy="107" rx="10" ry="54"/><ellipse fill="#d4eefb" cy="32" rx="39" ry="39"/><path fill="#bf0000" d="M16 109h49v24H16z"/><ellipse fill="#5f7278" rx="1" ry="1" transform="matrix(52.8232 -14.7485 6.24486 22.36659 172 124.1)"/><ellipse fill="#93a3cc" rx="1" ry="1" transform="matrix(-4.45137 -.45536 2.7273 -26.66092 71.6 109)"/><path fill="#ffa7d1" d="M29.5 93.3l12-18.4 15 9.8-12 18.4z"/><path d="M0 72h7v40H0zm42 13l-23 1-1-17z"/><path fill="#5e3e39" d="M106 27l5.2 57.5 1.6-.6-30-44.8z"/><path d="M181 73h15v5h-15z"/><ellipse fill="#c97ea5" rx="1" ry="1" transform="rotate(-177.5 6 47) scale(5.31952 15.62711)"/></g></svg>