<svg xmlns="http://www.w3.org/2000/svg" viewBox="0 0 200 133"><filter id="b"><feGaussianBlur stdDeviation="12" /></filter><path fill="#6f5247" d="M0 0h200v133H0z"/><g filter="url(#b)" transform="translate(.5 .5)" fill-opacity=".5"><ellipse fill="#fff" rx="1" ry="1" transform="rotate(-160.1 100.4 45.1) scale(24.4092 31.04966)"/><ellipse fill="#dbe3e6" cx="69" cy="81" rx="18" ry="35"/><path fill="#000c22" d="M9.5 122L-4.3 77l48.8-15 13.8 45z"/><ellipse fill="#4c0400" rx="1" ry="1" transform="matrix(64.75868 67.76609 -19.4808 18.61625 153.4 24.6)"/><ellipse fill="#080000" cx="137" cy="104" rx="12" ry="121"/><path fill="#f8b89e" d="M100 35h29v42h-29z"/><ellipse fill="#010000" rx="1" ry="1" transform="matrix(-14.29014 -.58557 2.10784 -51.4395 34.7 0)"/><ellipse fill="#d6cbc7" cx="30" cy="61" rx="56" ry="8"/><ellipse fill="#c59a73" cx="82" cy="127" rx="14" ry="61"/><ellipse fill="#fffffa" cx="177" cy="123" rx="20" ry="19"/><ellipse rx="1" ry="1" transform="matrix(16.93923 49.47544 -9.49899 3.25223 80.3 23.6)"/><ellipse fill="#dcab91" rx="1" ry="1" transform="rotate(85.9 45 115.8) scale(34.89563 7.45367)"/><ellipse fill="#00111e" rx="1" ry="1" transform="matrix(13.89732 -5.03556 19.92874 55.00007 52.8 128.5)"/><path fill="#d00000" d="M165 57h28v34h-28z"/><path fill="#100000" d="M84.6 65.8L92 69l-8.5 19.2L76 85z"/><path fill="#c8998e" d="M45 16h18v56H45z"/><path fill="#ffccb2" d="M31.4 128.2l-21.2 6-3.6-12.4 21.2-6z"/><ellipse fill="#000700" cx="151" cy="10" rx="20" ry="20"/><ellipse fill="#ffdfbc" cx="2" cy="44" rx="9" ry="12"/><ellipse fill="#250c00" cx="131" cy="86" rx="12" ry="31"/><path fill="#0a0703" d="M31 16L-16-3l119-1z"/><ellipse fill="#2a1810" cx="85" cy="32" rx="20" ry="19"/></g></svg>