<svg xmlns="http://www.w3.org/2000/svg" viewBox="0 0 700 467"><filter id="b"><feGaussianBlur stdDeviation="12" /></filter><path fill="#695a74" d="M0 0h700v464H0z"/><g filter="url(#b)" transform="translate(1.4 1.4) scale(2.73438)" fill-opacity=".5"><ellipse fill="#ffffe2" cx="189" cy="148" rx="26" ry="30"/><ellipse rx="1" ry="1" transform="matrix(-16.09365 -3.83405 13.68688 -57.4515 58 17)"/><ellipse fill="#050041" rx="1" ry="1" transform="matrix(-3.46362 -25.66416 138.45044 -18.68518 226.1 57.2)"/><ellipse fill="#fff" cx="87" cy="50" rx="22" ry="17"/><ellipse fill="#fffff2" cx="116" cy="122" rx="19" ry="19"/><ellipse rx="1" ry="1" transform="matrix(-42.75596 -22.98707 8.80402 -16.37547 93.4 16.8)"/><ellipse fill="#7a8ff2" cx="8" cy="57" rx="26" ry="96"/><ellipse fill="#e6dfce" cx="75" cy="160" rx="24" ry="24"/><ellipse fill="#c6c68a" cy="119" rx="59" ry="34"/><path d="M124 130h43v18h-43z"/><ellipse fill="#060800" cx="75" cy="120" rx="20" ry="20"/><path fill="#f0eec9" d="M116 151h60v19h-60z"/><ellipse fill="#900200" rx="1" ry="1" transform="matrix(10.59356 16.18865 -27.596 18.05831 23.5 169)"/><path fill="#eaf5d6" d="M169 132l-16.5-35.3L167 90l16.5 35.4z"/><path fill="#0c0000" d="M271 103.4L217 163l23-60.5 31 33.8z"/><ellipse fill="#3348f2" cx="6" cy="47" rx="34" ry="34"/><path fill="#000600" d="M118 189.5L73 96.9l9-4.4 45 92.6z"/><path fill="#fff" d="M93 30.5v27H67v-27z"/><ellipse fill="#873cab" cx="189" cy="18" rx="37" ry="37"/><path fill="#fff" d="M177.4 123.6l47.5 15.5-4.3 13.3-47.5-15.5z"/><path fill="#f2fffb" d="M118.7 160.8l-13.5-3.6 8-30 13.6 3.6z"/><ellipse cx="51" cy="21" rx="15" ry="49"/></g></svg>