<svg xmlns="http://www.w3.org/2000/svg" viewBox="0 0 700 467"><filter id="b"><feGaussianBlur stdDeviation="12" /></filter><path fill="#3b2a25" d="M0 0h700v464H0z"/><g filter="url(#b)" transform="translate(1.4 1.4) scale(2.73438)" fill-opacity=".5"><ellipse fill="#a0694d" rx="1" ry="1" transform="matrix(-49.67445 1.38753 -.93276 -33.39337 68.5 20.2)"/><ellipse fill="#275cc0" rx="1" ry="1" transform="matrix(14.92191 5.84783 -14.6333 37.33976 241.1 27)"/><ellipse cx="51" cy="120" rx="45" ry="42"/><ellipse fill="#9c8799" cx="191" cy="125" rx="22" ry="22"/><path fill="#ffa88a" d="M145.7 86.8l9.4 16.5-6 18-16-14z"/><path d="M118 13h30v48h-30z"/><path fill="#ffbd9d" d="M185.6 95.1l2.8-40.9 10 .7-2.8 40.9z"/><ellipse fill="#d78c52" cx="7" cy="57" rx="13" ry="13"/><path fill="#af2923" d="M155 75l13-59-55 61z"/><ellipse cx="186" rx="39" ry="20"/><ellipse fill="#050500" cx="55" cy="74" rx="55" ry="15"/><path fill="#ffb696" d="M61 27h12v27H61z"/><ellipse fill="#c18366" cx="169" cy="26" rx="11" ry="11"/><ellipse fill="#250002" rx="1" ry="1" transform="matrix(-20.40449 -21.82062 22.9329 -21.44458 146.8 149.2)"/><path d="M156 68l21-23 16 83z"/><ellipse fill="#070705" cx="249" cy="86" rx="52" ry="23"/><ellipse fill="#000200" cx="129" cy="44" rx="19" ry="23"/><path d="M88 18l-8 21-14-23z"/><ellipse fill="#603823" cx="15" cy="21" rx="22" ry="33"/><path fill="#eb9a85" d="M87 20h19v17H87z"/><ellipse fill="#927f8f" rx="1" ry="1" transform="matrix(15.68776 -20.29759 5.12717 3.96273 201.6 121.6)"/><path d="M229.6 116.2l-2.3 33-19-1.4 2.4-33z"/></g></svg>