<svg xmlns="http://www.w3.org/2000/svg" viewBox="0 0 200 133"><filter id="b"><feGaussianBlur stdDeviation="12" /></filter><path fill="#76797a" d="M0 0h200v133H0z"/><g filter="url(#b)" transform="translate(.5 .5)" fill-opacity=".5"><ellipse rx="1" ry="1" transform="matrix(26.92084 -12.66799 16.14676 34.3136 96.5 92)"/><ellipse fill="#e8dedb" cx="41" cy="20" rx="48" ry="48"/><ellipse cx="42" cy="46" rx="14" ry="26"/><path fill="#f2f0f1" d="M69.2 94.7l-21.8 31-60.6-42.4 21.8-31z"/><ellipse fill="#181818" cx="157" cy="110" rx="103" ry="18"/><ellipse fill="#fffdfc" cx="68" cy="16" rx="16" ry="44"/><ellipse fill="#e4e7e3" cx="159" cy="36" rx="7" ry="57"/><ellipse fill="#1b1d1e" rx="1" ry="1" transform="rotate(173.9 94.9 37.8) scale(8.83825 73.30752)"/><ellipse fill="#000510" cx="40" cy="131" rx="47" ry="9"/><ellipse fill="#000001" rx="1" ry="1" transform="matrix(-18.17263 -21.96722 13.81201 -11.42614 88 81.5)"/><ellipse fill="#96b5b3" cx="115" cy="27" rx="19" ry="43"/><path fill="#e2e1e0" d="M7 0h24v128H7z"/><path fill="#ceced1" d="M39.5 117.1L29.3 85.7 62.5 75l10.2 31.4z"/><ellipse fill="#303940" cy="89" rx="6" ry="106"/><path fill="#012a42" d="M32 99l-2 22 14-9z"/><path fill="#fff" d="M67.6 59.8l-6.3 29.4-4.9-1 6.3-29.4z"/><ellipse fill="#32231d" cx="40" cy="62" rx="10" ry="17"/><path fill="#060910" d="M47 126l72-47-1 48z"/><path fill="#373a3a" d="M136 0h15v94h-15z"/><ellipse fill="#3e332e" cx="45" cy="62" rx="13" ry="16"/><ellipse fill="#e3dfdf" rx="1" ry="1" transform="matrix(30.29374 -3.51285 1.75694 15.1513 54.6 5.5)"/><ellipse fill="#fdede9" cx="100" cy="24" rx="3" ry="28"/></g></svg>