<svg xmlns="http://www.w3.org/2000/svg" viewBox="0 0 200 120"><filter id="b"><feGaussianBlur stdDeviation="12" /></filter><path fill="#d4d5cf" d="M0 0h200v120H0z"/><g filter="url(#b)" transform="translate(.5 .5)" fill-opacity=".5"><ellipse fill="#2d4a00" cx="140" cy="5" rx="47" ry="19"/><path fill="#070818" d="M12.8 107.7l-13-20.1 23.4-15.3 13 20.1z"/><ellipse fill="#664b40" cx="191" cy="46" rx="15" ry="25"/><ellipse fill="#fff" cx="158" cy="90" rx="38" ry="38"/><ellipse fill="#fff" rx="1" ry="1" transform="matrix(56.12205 47.42681 -26.1107 30.89784 57.5 32.8)"/><ellipse fill="#455a00" rx="1" ry="1" transform="rotate(-119.2 65.6 -25.7) scale(26.09117 8.03614)"/><path fill="#7e8552" d="M75 91l29 44 49-6z"/><path fill="#fff" d="M132 25l67 110-31-110z"/><ellipse fill="#6c8a00" cx="120" cy="14" rx="26" ry="12"/><ellipse fill="#8e8005" cx="181" cy="7" rx="15" ry="15"/><ellipse fill="#3a353b" rx="1" ry="1" transform="matrix(26.4045 4.04046 -.76856 5.02258 24.6 89.1)"/><ellipse fill="#ffe" rx="1" ry="1" transform="rotate(158.5 80.5 15.3) scale(5.30069 36.05493)"/><ellipse fill="#feffff" cx="172" cy="97" rx="33" ry="33"/><ellipse fill="#e8d5cf" cx="75" cy="10" rx="25" ry="50"/><path fill="#000212" d="M130.4 51l-15.2 3.5-3-.7 26 4.6z"/><path fill="#e6e9ef" d="M16 88l-8 47-16-39z"/><path fill="#455500" d="M163 15l-43 4 15-35z"/><path fill="#eef4fd" d="M85 28l25 76 12-81z"/><path d="M127.4 23.2l2.7 1-7.5 18.6-2.7-1z"/><ellipse fill="#fcf7ff" cx="30" cy="44" rx="30" ry="30"/><ellipse fill="#fff" cx="152" cy="46" rx="16" ry="25"/><path fill="#00001a" d="M130 36l7 10-6-24z"/></g></svg>