<svg xmlns="http://www.w3.org/2000/svg" viewBox="0 0 700 467"><filter id="b"><feGaussianBlur stdDeviation="12" /></filter><path fill="#64554e" d="M0 0h700v464H0z"/><g filter="url(#b)" transform="translate(1.4 1.4) scale(2.73438)" fill-opacity=".5"><ellipse fill="#d2ffff" rx="1" ry="1" transform="matrix(59.72002 -1.9904 .81645 24.49684 131.2 67.5)"/><ellipse rx="1" ry="1" transform="matrix(.18314 -34.97684 254.99647 1.33517 77.8 9.2)"/><ellipse fill="#c9a95e" cx="227" cy="79" rx="46" ry="46"/><ellipse cx="79" cy="164" rx="255" ry="18"/><ellipse fill="#daa3a5" cx="115" cy="131" rx="21" ry="23"/><ellipse fill="#d3f6ff" rx="1" ry="1" transform="matrix(-.21576 -15.1246 48.46942 -.69144 129 71)"/><path fill="#8596b9" d="M2 45h114v29H2z"/><ellipse fill="#db8128" cx="230" cy="131" rx="26" ry="17"/><path fill="#ffa174" d="M59 106h21v35H59z"/><ellipse cx="242" cy="16" rx="24" ry="24"/><ellipse rx="1" ry="1" transform="matrix(67.32068 -17.78689 6.4051 24.24235 33.4 17.1)"/><ellipse fill="#755f57" rx="1" ry="1" transform="matrix(3.0236 -16.15646 41.02318 7.67728 133.5 26.5)"/><ellipse fill="#b08574" cx="176" cy="108" rx="147" ry="6"/><ellipse fill="#67adff" rx="1" ry="1" transform="matrix(10.26437 4.59148 -11.1167 24.85167 94.2 68)"/><path fill="#b6b388" d="M185 52l45 5-10-40z"/><ellipse fill="#ffe1df" cx="129" cy="137" rx="46" ry="3"/><path fill="#8cbcfa" d="M151 44h32v46h-32z"/><ellipse fill="#020015" cx="77" cy="46" rx="3" ry="37"/><ellipse fill="#160000" rx="1" ry="1" transform="matrix(3.1483 23.64809 -49.97288 6.65295 239.5 169)"/><ellipse fill="#ffae8a" rx="1" ry="1" transform="rotate(-83.9 85 59.8) scale(4.20526 25.6236)"/><ellipse rx="1" ry="1" transform="matrix(.23124 -9.19184 171.41047 4.3122 143.4 169)"/><ellipse fill="#8e3d1d" rx="1" ry="1" transform="matrix(-20.85766 -5.46827 6.8863 -26.26646 202 130.6)"/></g></svg>