<svg xmlns="http://www.w3.org/2000/svg" viewBox="0 0 700 467"><filter id="b"><feGaussianBlur stdDeviation="12" /></filter><path fill="#7b6d73" d="M0 0h700v464H0z"/><g filter="url(#b)" transform="translate(1.4 1.4) scale(2.73438)" fill-opacity=".5"><ellipse cx="41" cy="148" rx="76" ry="22"/><ellipse fill="#ffe6f9" rx="1" ry="1" transform="matrix(-6.72034 -42.1148 76.4506 -12.19938 25.2 32.9)"/><ellipse fill="#ffffda" rx="1" ry="1" transform="rotate(-101.3 148 10.6) scale(23.90044 64.62136)"/><ellipse rx="1" ry="1" transform="matrix(4.66993 29.11775 -61.78884 9.90974 227.1 9.4)"/><ellipse cx="142" cy="99" rx="56" ry="30"/><path d="M209 49h33v43h-33z"/><ellipse fill="#e1ffff" rx="1" ry="1" transform="matrix(39.27499 4.94899 -1.44792 11.49066 163 46)"/><ellipse fill="#ffe6e0" rx="1" ry="1" transform="rotate(-43.4 273.8 -261.4) scale(40.20523 27.13732)"/><ellipse fill="#e5bfce" cx="71" cy="105" rx="19" ry="32"/><ellipse cx="59" cy="153" rx="50" ry="20"/><path fill="#caecff" d="M204.1 72.2l-80.5-25.3-21 35.2-5.8-61.6z"/><path fill="#fff" d="M172 136h40v21h-40z"/><ellipse cx="94" cy="83" rx="5" ry="43"/><path fill="#bfd0fb" d="M71 42h19v82H71z"/><ellipse fill="#130000" cx="234" cy="13" rx="27" ry="27"/><path fill="#02020a" d="M244.1 51.5l-5 28.3-51.7 29.5-5.2-37.2z"/><ellipse fill="#000100" rx="1" ry="1" transform="matrix(-11.37592 11.61565 -19.04425 -18.6512 160 108.1)"/><path fill="#000511" d="M146 51l-57 72 30-74z"/><path fill="#c0d0f3" d="M187 38l-22 36 73-34z"/><ellipse fill="#973728" rx="1" ry="1" transform="matrix(22.58395 -17.74179 9.81588 12.49488 34.2 88)"/><ellipse fill="#d6c4d6" cx="255" cy="74" rx="13" ry="46"/><path fill="#afe9ff" d="M211.2 101.2l-2.5 28.9-14-1.3 2.6-28.9z"/></g></svg>