<svg xmlns="http://www.w3.org/2000/svg" viewBox="0 0 200 133"><filter id="b"><feGaussianBlur stdDeviation="12" /></filter><path fill="#7a626e" d="M0 0h200v133H0z"/><g filter="url(#b)" transform="translate(.5 .5)" fill-opacity=".5"><ellipse fill="#fff" rx="1" ry="1" transform="matrix(-43.93673 -26.50433 27.93876 -46.31461 169.2 40)"/><ellipse fill="#001139" cx="33" cy="54" rx="88" ry="88"/><ellipse fill="#e50000" rx="1" ry="1" transform="matrix(.80362 27.40726 -79.76352 2.33877 141.7 116.4)"/><ellipse fill="#fff" rx="1" ry="1" transform="rotate(-29.1 178.3 -294.3) scale(51.19474 39.1874)"/><ellipse fill="#ef5d3a" cx="81" cy="40" rx="19" ry="79"/><ellipse fill="#00487f" rx="1" ry="1" transform="matrix(-30.59779 -92.89508 60.17017 -19.81885 12.4 72.8)"/><ellipse fill="#b60000" cx="170" cy="120" rx="94" ry="32"/><ellipse fill="#96b8ab" rx="1" ry="1" transform="matrix(6.88277 -59.46656 10.361 1.1992 69.8 60.5)"/><ellipse fill="#c10000" cx="92" cy="30" rx="9" ry="195"/><ellipse fill="#defffc" cx="150" cy="5" rx="30" ry="84"/><ellipse cx="109" cy="43" rx="11" ry="56"/><ellipse fill="#f8ffff" cx="184" cy="58" rx="66" ry="31"/><path fill="#fbffff" d="M118 63h82v26h-82z"/><path fill="#fff" d="M10 122h17v11H10z"/><ellipse fill="#001e56" rx="1" ry="1" transform="matrix(-34.06068 -.38822 .8145 -71.4611 32.4 26.6)"/><path fill="#83e052" d="M136 20l3 14 51-13z"/><path fill="#fffffe" d="M176 0h24v88h-24z"/><ellipse fill="#829996" cx="74" rx="11" ry="96"/><ellipse fill="#a70000" rx="1" ry="1" transform="matrix(-29.97714 -9.91823 5.1424 -15.54254 107.5 103.7)"/><path fill="#004893" d="M125.2 123l1.4 10-13.8 2-1.4-10z"/><ellipse fill="#004180" cx="15" cy="86" rx="36" ry="36"/><ellipse fill="#65787c" cx="159" cy="42" rx="2" ry="54"/></g></svg>