<svg xmlns="http://www.w3.org/2000/svg" viewBox="0 0 700 467"><filter id="b"><feGaussianBlur stdDeviation="12" /></filter><path fill="#173652" d="M0 0h700v464H0z"/><g filter="url(#b)" transform="translate(1.4 1.4) scale(2.73438)" fill-opacity=".5"><ellipse fill="#8fffff" rx="1" ry="1" transform="rotate(157.1 54.3 55.2) scale(74.5629 46.40212)"/><ellipse cx="229" cy="105" rx="32" ry="255"/><ellipse cy="104" rx="70" ry="70"/><ellipse fill="#61bcff" cx="108" cy="89" rx="49" ry="49"/><ellipse cx="65" rx="166" ry="41"/><ellipse fill="#000006" rx="1" ry="1" transform="matrix(3.23023 29.21842 -149.93097 16.57554 66.8 169)"/><ellipse fill="#b3dfff" rx="1" ry="1" transform="matrix(33.09263 -40.07598 10.29384 8.50011 102.2 98.7)"/><ellipse fill="#1187d5" cx="148" cy="108" rx="40" ry="25"/><path fill="#89b8d2" d="M169 31h29v63h-29z"/><ellipse cx="233" cy="50" rx="33" ry="101"/><ellipse fill="#000c81" cx="57" cy="84" rx="13" ry="50"/><ellipse fill="#0084d0" rx="1" ry="1" transform="matrix(10.52789 -12.33934 19.4784 16.61891 125.2 55.1)"/><path fill="#94bbf4" d="M71 46h35v92H71z"/><ellipse fill="#000010" rx="1" ry="1" transform="rotate(13.3 -266.1 63.8) scale(40.43855 251.30348)"/><path fill="#003571" d="M161.6 82.4l-3.3 33.1 44.4 37.4 18-20.9z"/><ellipse rx="1" ry="1" transform="matrix(-56.7285 -9.96973 4.24679 -24.16453 181.4 168.7)"/><ellipse fill="#00185b" rx="1" ry="1" transform="matrix(57.66361 -5.273 .78968 8.63568 87 37)"/><ellipse fill="#d1eef5" rx="1" ry="1" transform="rotate(63.4 -18.7 130) scale(11.20319 23.84107)"/><ellipse fill="#00197f" rx="1" ry="1" transform="matrix(-.90533 -7.1664 32.67033 -4.12722 98.3 142.6)"/><path fill="#83b8e3" d="M161 55.7l-3.8 76-8.6-3 1.1-93.3z"/><path fill="#002591" d="M55.5 91.2l11.8 55.2 1-82.9-40.4.2z"/><ellipse cx="255" cy="66" rx="51" ry="80"/></g></svg>