<svg xmlns="http://www.w3.org/2000/svg" viewBox="0 0 700 467"><filter id="b"><feGaussianBlur stdDeviation="12" /></filter><path fill="#4d5783" d="M0 0h700v464H0z"/><g filter="url(#b)" transform="translate(1.4 1.4) scale(2.73438)" fill-opacity=".5"><ellipse fill="#fff" rx="1" ry="1" transform="matrix(-100.17016 -14.92432 4.10539 -27.55483 131.2 128.4)"/><ellipse fill="#000015" cx="9" cy="116" rx="28" ry="255"/><ellipse rx="1" ry="1" transform="matrix(-168.48742 .29407 -.03558 -20.3862 179 5.6)"/><ellipse cx="173" cy="169" rx="239" ry="14"/><ellipse fill="#fff" cx="105" cy="137" rx="70" ry="20"/><ellipse cx="190" cy="169" rx="23" ry="31"/><ellipse fill="#264def" rx="1" ry="1" transform="rotate(-139 42.2 19.7) scale(27.03692 48.68156)"/><ellipse fill="#889ae2" rx="1" ry="1" transform="matrix(6.49915 29.80777 -39.21162 8.54952 166.4 88.8)"/><ellipse rx="1" ry="1" transform="matrix(9.2908 0 0 34.55026 218.9 89.6)"/><ellipse fill="#1e1907" rx="1" ry="1" transform="matrix(14.76096 16.45135 -12.88135 11.55778 71.7 157.8)"/><path d="M259.4 101.8l22.9 23.8-31.7 30.6-22.9-23.8z"/><ellipse fill="#fff" rx="1" ry="1" transform="rotate(31.3 -143.4 457.5) scale(28.2155 11.89331)"/><path fill="#a0c3ff" d="M-9.3 11.8l22 1.5-3.4 49-22-1.6z"/><ellipse fill="#3367ff" cx="240" cy="68" rx="16" ry="38"/><ellipse fill="#00055b" rx="1" ry="1" transform="matrix(-23.5599 11.35158 -5.3874 -11.1814 199 111)"/><ellipse fill="#00001a" rx="1" ry="1" transform="matrix(-192.92793 -30.68453 3.9048 -24.55135 169.7 5)"/><ellipse rx="1" ry="1" transform="rotate(-36.2 206.7 30) scale(25.09812 17.77697)"/><ellipse fill="#7c9ae1" cx="85" cy="100" rx="59" ry="22"/><ellipse cx="218" cy="49" rx="7" ry="77"/><ellipse fill="#000005" cx="40" cy="12" rx="28" ry="19"/><ellipse fill="#fff" cx="157" cy="134" rx="22" ry="22"/><ellipse cx="18" cy="73" rx="8" ry="82"/></g></svg>