<svg xmlns="http://www.w3.org/2000/svg" viewBox="0 0 200 133"><filter id="b"><feGaussianBlur stdDeviation="12" /></filter><path fill="#897986" d="M0 0h200v133H0z"/><g filter="url(#b)" transform="translate(.5 .5)" fill-opacity=".5"><ellipse fill="#270400" rx="1" ry="1" transform="matrix(-30.22805 -22.88048 34.2133 -45.20018 54.1 111.2)"/><ellipse fill="#fff" cx="163" rx="35" ry="35"/><ellipse fill="#fff" cx="183" cy="107" rx="14" ry="54"/><ellipse fill="#fff" cx="22" cy="66" rx="19" ry="19"/><ellipse fill="#dbc1f4" cx="92" rx="86" ry="27"/><path fill="#05127a" d="M139 54h24v79h-24z"/><ellipse fill="#a30a00" rx="1" ry="1" transform="matrix(16.60942 9.39645 -15.73499 27.81357 11.8 114.4)"/><path fill="#fff" d="M97 54h17v32H97z"/><ellipse fill="#332f1a" rx="1" ry="1" transform="rotate(105 5.8 50.2) scale(30.46495 16.85745)"/><ellipse fill="#2d4c5a" rx="1" ry="1" transform="rotate(121.9 14.5 87.8) scale(42.41909 18.25635)"/><ellipse fill="#531fa7" cx="115" cy="23" rx="19" ry="19"/><path fill="#302617" d="M190.6 34l1.3 15-55.7 43.3L180 42z"/><path fill="#fff" d="M160 39l8 19 6-28z"/><path fill="#fffdfb" d="M162 86l18 38 15-81z"/><path fill="#0e0a00" d="M145 56.7L129.3 38l15.2 63.2 9.5-20.5z"/><path fill="#ffd09b" d="M148 25h6v45h-6z"/><ellipse fill="#7797c7" rx="1" ry="1" transform="matrix(-7.10902 -15.25333 25.07037 -11.68438 136.3 106.7)"/><path fill="#f0e9f6" d="M93-16L68-3l30 50z"/><path fill="#051916" d="M42 90h20v43H42z"/><ellipse fill="#5f5c57" cx="79" cy="80" rx="17" ry="55"/><path fill="#0a0007" d="M115 64V34l10 27z"/><path fill="#4f3023" d="M189 69l8-8-3 29z"/></g></svg>