<svg xmlns="http://www.w3.org/2000/svg" viewBox="0 0 700 467"><filter id="b"><feGaussianBlur stdDeviation="12" /></filter><path fill="#737977" d="M0 0h700v464H0z"/><g filter="url(#b)" transform="translate(1.4 1.4) scale(2.73438)" fill-opacity=".5"><ellipse rx="1" ry="1" transform="rotate(72.7 -26 146.2) scale(60.99789 33.8516)"/><ellipse fill="#fff" rx="1" ry="1" transform="matrix(23.45579 -9.1627 19.92823 51.01465 84 23.2)"/><ellipse fill="#fff" rx="1" ry="1" transform="matrix(-2.77311 -97.25618 17.39475 -.49599 23.3 64.9)"/><ellipse fill="#fefaf8" rx="1" ry="1" transform="matrix(-6.10329 18.7259 -29.47516 -9.60677 58.9 117.3)"/><path fill="#161916" d="M271 162V99L41 162z"/><ellipse fill="#170700" cx="54" cy="62" rx="17" ry="37"/><ellipse fill="#f7f1ed" rx="1" ry="1" transform="matrix(-1.81048 -16.75413 48.30077 -5.21948 63.7 11)"/><ellipse fill="#fffcf5" cx="201" cy="43" rx="6" ry="75"/><ellipse cx="123" cy="120" rx="34" ry="43"/><path fill="#fffef9" d="M75 25l35-4-36 91z"/><path fill="#1c1f1e" d="M228-16l17 182 26-79z"/><path fill="#00030c" d="M0 159h104v11H0z"/><path fill="#cdbfd0" d="M106.1 165.8l57-4.8 67.8 4L110 185z"/><path fill="#97b8b5" d="M125 0h46v77h-46z"/><path fill="#e7e8e4" d="M51 103h17v56H51z"/><ellipse fill="#303533" cx="182" cy="33" rx="10" ry="95"/><ellipse fill="#0d1011" cx="107" cy="101" rx="25" ry="32"/><ellipse fill="#1b2220" cx="116" cy="12" rx="5" ry="48"/><path fill="#2f4d5f" d="M106.1 185l-38-57 1.5-16.2 4 5.4z"/><path fill="#7c675d" d="M99 61h29v14H99z"/><path fill="#7ba4a1" d="M205 0h25v118h-25z"/><ellipse fill="#262a2c" cx="240" cy="13" rx="10" ry="41"/></g></svg>