<svg xmlns="http://www.w3.org/2000/svg" viewBox="0 0 700 467"><filter id="b"><feGaussianBlur stdDeviation="12" /></filter><path fill="#717881" d="M0 0h700v464H0z"/><g filter="url(#b)" transform="translate(1.4 1.4) scale(2.73438)" fill-opacity=".5"><ellipse cx="65" rx="85" ry="85"/><ellipse fill="#fff" rx="1" ry="1" transform="matrix(-56.20708 -23.884 14.4121 -33.91653 51.8 118)"/><path fill="#fff" d="M284.4 119.2l-3.1 44.8-131.7-9.2 3.1-44.8z"/><path fill="#f8feff" d="M154 65h102v32H154z"/><ellipse cx="129" cy="121" rx="23" ry="23"/><path fill="#000018" d="M-15 43L97-16l174 26z"/><path fill="#fff" d="M14 40h41v20H14z"/><path fill="#dae4ed" d="M33 75h79v87H33z"/><ellipse fill="#0a1729" cx="34" cy="77" rx="18" ry="23"/><ellipse rx="1" ry="1" transform="matrix(.87403 4.34174 -25.6537 5.16428 93 109)"/><ellipse fill="#100a00" cx="19" cy="156" rx="20" ry="20"/><ellipse cx="210" cy="68" rx="6" ry="19"/><ellipse fill="#000009" cx="241" cy="103" rx="81" ry="8"/><ellipse rx="1" ry="1" transform="matrix(-20.7537 4.71356 -2.4737 -10.89163 167.2 57)"/><ellipse rx="1" ry="1" transform="matrix(12.68586 -2.3283 2.75981 15.03703 163.4 165)"/><ellipse rx="1" ry="1" transform="rotate(-39.1 15.7 -44.3) scale(123.47265 23.72763)"/><ellipse fill="#000307" cx="135" cy="112" rx="14" ry="38"/><ellipse fill="#fff" rx="1" ry="1" transform="matrix(-47.63187 -24.80154 8.5919 -16.5009 35 123.3)"/><path fill="#fff" d="M165 20h22v24h-22z"/><ellipse fill="#0c153c" rx="1" ry="1" transform="matrix(62.57134 -4.86982 1.38958 17.85443 220 7.6)"/><ellipse fill="#fff" cx="212" cy="35" rx="11" ry="11"/><path fill="#d8eaf8" d="M187 142.6l-77.7 11-15.7-6.6 30.8 20.9z"/></g></svg>