<svg xmlns="http://www.w3.org/2000/svg" viewBox="0 0 700 467"><filter id="b"><feGaussianBlur stdDeviation="12" /></filter><path fill="#35405b" d="M0 0h700v464H0z"/><g filter="url(#b)" transform="translate(1.4 1.4) scale(2.73438)" fill-opacity=".5"><path fill="#fff" d="M200 74h24v52h-24z"/><ellipse fill="#00000b" cx="53" cy="36" rx="164" ry="29"/><ellipse fill="#b5ffff" cx="37" cy="93" rx="13" ry="32"/><ellipse fill="#e6ffff" cx="255" cy="77" rx="12" ry="55"/><ellipse fill="#8a7e92" cx="119" cy="118" rx="50" ry="50"/><ellipse fill="#2852ff" rx="1" ry="1" transform="matrix(-4.6571 -11.02422 50.8287 -21.47221 246.8 37.3)"/><ellipse rx="1" ry="1" transform="rotate(-87.7 178.7 -62) scale(65.26329 10.68395)"/><ellipse fill="#fff" cx="133" cy="81" rx="17" ry="7"/><path fill="#ccfeff" d="M200 64h18v66h-18z"/><path fill="#8fceff" d="M12.5 36.4l-4 38.8-15-1.6 4-38.8z"/><ellipse fill="#000003" rx="1" ry="1" transform="matrix(-75.49746 -34.96226 10.28338 -22.20592 52.4 18.6)"/><path fill="#c5d4d0" d="M86.9 150.5l53.5-3.2 17 19-36.5.6z"/><path fill="#146df6" d="M150 65h39v29h-39z"/><ellipse rx="1" ry="1" transform="rotate(-87.2 58.3 41.1) scale(100.76629 7.23743)"/><path fill="#0a2210" d="M26 134h195v14H26z"/><ellipse fill="#001a7d" cx="109" cy="81" rx="15" ry="26"/><ellipse rx="1" ry="1" transform="matrix(0 2.5718 -98.90234 0 81.5 168.5)"/><path d="M62.8 64.3l-9.7 92.5-10-1L53 63.1z"/><ellipse fill="#fdb19d" rx="1" ry="1" transform="matrix(.38597 -6.9036 27.20307 1.52089 128.6 114.8)"/><ellipse fill="#161638" cx="115" cy="99" rx="64" ry="9"/><ellipse fill="#161708" rx="1" ry="1" transform="matrix(-17.1518 -33.08917 23.35533 -12.10625 238.3 152.5)"/><path fill="#e9dcff" d="M92.7 76.2l3.6 8.2-21 9.4-3.6-8.2z"/></g></svg>