<svg xmlns="http://www.w3.org/2000/svg" viewBox="0 0 700 467"><filter id="b"><feGaussianBlur stdDeviation="12" /></filter><path fill="#736b70" d="M0 0h700v464H0z"/><g filter="url(#b)" transform="translate(1.4 1.4) scale(2.73438)" fill-opacity=".5"><ellipse fill="#fff" cx="220" cy="6" rx="66" ry="29"/><ellipse fill="#faffff" cx="35" cy="11" rx="54" ry="24"/><ellipse fill="#fff" rx="1" ry="1" transform="matrix(11.9631 -.48049 3.75673 93.53453 82.7 149.4)"/><ellipse fill="#1f181e" rx="1" ry="1" transform="matrix(-14.56564 32.3672 -96.6542 -43.49561 174 84.1)"/><ellipse fill="#020514" rx="1" ry="1" transform="matrix(23.0612 -23.73523 43.29786 42.06827 10.3 78.6)"/><ellipse fill="#00061a" cx="243" cy="63" rx="23" ry="31"/><ellipse fill="#ffcfbf" rx="1" ry="1" transform="matrix(.36054 11.14965 -63.70337 2.05993 67.4 152)"/><ellipse fill="#d6feff" rx="1" ry="1" transform="matrix(7.2611 -4.24749 25.48949 43.57444 203.4 47.8)"/><ellipse fill="#773d40" rx="1" ry="1" transform="matrix(62.84884 -1.20676 .74818 38.96562 211.1 154.4)"/><ellipse fill="#97cce1" cx="36" cy="60" rx="7" ry="26"/><ellipse fill="#f2e5ff" rx="1" ry="1" transform="matrix(15.83403 -21.25673 25.03872 18.6512 239.8 5.8)"/><ellipse fill="#81ada9" cx="134" cy="8" rx="28" ry="28"/><ellipse fill="#ffffef" rx="1" ry="1" transform="matrix(-9.52536 .7069 -2.87142 -38.6922 82.5 119.6)"/><ellipse fill="#ffe2bb" cx="166" cy="62" rx="5" ry="17"/><ellipse fill="#101419" cx="170" cy="158" rx="10" ry="69"/><path fill="#b0dcf2" d="M249.5 50l-10.3 17-48.8 30 8.1-9.9z"/><ellipse fill="#0f0e11" rx="1" ry="1" transform="matrix(.75312 -10.77018 98.39417 6.8804 228.2 103.9)"/><path fill="#000517" d="M211.4 33.5l58 2-.8 21-58-2z"/><ellipse fill="#ce9f9e" cx="161" cy="148" rx="245" ry="8"/><path fill="#291a36" d="M139 157h117v13H139z"/><path fill="#0e0e19" d="M62 35h8v82h-8z"/><ellipse fill="#f6d3ee" cx="194" cy="19" rx="31" ry="16"/></g></svg>