<svg xmlns="http://www.w3.org/2000/svg" viewBox="0 0 200 133"><filter id="b"><feGaussianBlur stdDeviation="12" /></filter><path fill="#635b51" d="M0 0h200v133H0z"/><g filter="url(#b)" transform="translate(.5 .5)" fill-opacity=".5"><ellipse fill="#fff" rx="1" ry="1" transform="rotate(178 9.6 23) scale(80.83884 24.13436)"/><ellipse cx="160" cy="128" rx="152" ry="62"/><ellipse fill="#faffff" cy="77" rx="30" ry="30"/><ellipse fill="#d8d2cf" rx="1" ry="1" transform="matrix(18.04994 20.76218 -11.05304 9.60914 85.7 72.5)"/><ellipse fill="#c4a16e" cx="148" cy="16" rx="44" ry="44"/><path fill="#100c0a" d="M36 49l-9 43 48-5z"/><ellipse fill="#281400" cx="34" rx="41" ry="23"/><ellipse fill="#fff" rx="1" ry="1" transform="rotate(-5.4 396.9 -170.1) scale(41.69606 13.58591)"/><path d="M158 51h42v18h-42zm-63.5 7h29v22h-29z"/><path fill="#f6eff3" d="M188.8 97.7l22.7-23.4-21.4 5.5 5 25.5z"/><path fill="#fdfeff" d="M29 88.6l1 16-17 .8-1-16z"/><path fill="#a7b5c1" d="M61 23h34v60H61z"/><ellipse fill="#0a0b0c" cx="62" cy="131" rx="199" ry="27"/><path fill="#fffff1" d="M140 47l22 10-14 12z"/><ellipse fill="#e0f2ea" cx="169" rx="5" ry="51"/><path fill="#5a441e" d="M126 3l60 26-35 11z"/><path fill="#e3a852" d="M54 14h68v12H54z"/><path fill="#ffe4b6" d="M87.8 84.3l17.7-6.8 4.7 12.2-17.7 6.8z"/><path fill="#6d543f" d="M77.4 49.1l-31.3 25L16 38l31.6 17.3z"/><ellipse fill="#0e0a0c" cx="179" cy="90" rx="12" ry="53"/><path fill="#fff" d="M185 20h13v6h-13z"/></g></svg>