<svg xmlns="http://www.w3.org/2000/svg" viewBox="0 0 200 133"><filter id="b"><feGaussianBlur stdDeviation="12" /></filter><path fill="#726b87" d="M0 0h200v133H0z"/><g filter="url(#b)" transform="translate(.5 .5)" fill-opacity=".5"><ellipse fill="#fff" cx="26" cy="23" rx="40" ry="40"/><ellipse fill="#0b000f" rx="1" ry="1" transform="rotate(172.8 92.4 25.8) scale(36.68087 126.65058)"/><ellipse fill="#fff" cx="27" cy="25" rx="37" ry="37"/><ellipse fill="#0b082f" cx="25" cy="88" rx="87" ry="25"/><ellipse fill="#ffd5ea" rx="1" ry="1" transform="matrix(-4.11663 -12.90764 58.59717 -18.68837 113.1 125.6)"/><path fill="#ffffd0" d="M111 63h14v70h-14z"/><ellipse fill="#fff" rx="1" ry="1" transform="matrix(23.29737 20.42998 -9.44678 10.77265 37.7 41)"/><ellipse fill="#d3aede" rx="1" ry="1" transform="matrix(56.0456 -12.01627 4.29214 20.01917 43.2 132)"/><ellipse fill="#131650" rx="1" ry="1" transform="matrix(12.00699 -8.53292 23.29083 32.77339 87.4 47.8)"/><path fill="#cab3d9" d="M62 41l-4 77 15-28z"/><ellipse fill="#1d0b0e" rx="1" ry="1" transform="matrix(18.32377 -24.02358 6.54491 4.99207 157.5 132)"/><ellipse fill="#fff" cx="36" cy="43" rx="27" ry="20"/><path fill="#3771bd" d="M-7.7 13l36.4.5-11.4 11.1-33.3-6.4z"/><path fill="#0d0109" d="M101 55h7v64h-7z"/><ellipse fill="#87b8d7" rx="1" ry="1" transform="matrix(24.53393 18.42001 -7.92399 10.5541 100 2.5)"/><path fill="#352633" d="M126 80h34v25h-34z"/><ellipse fill="#1d0d2d" rx="1" ry="1" transform="rotate(-117.4 93.6 -50.5) scale(27.74571 32.63834)"/><path fill="#2d3260" d="M125.8 33l3.2 39.5 11-5.8-69.5-55z"/><path fill="#fff" d="M22 0h39v58H22z"/><ellipse fill="#000010" cx="127" rx="3" ry="36"/><path fill="#fff" d="M0 28h13v32H0z"/><path fill="#b08fc2" d="M188 130.3l-6.3 12.5-17.8-9.1 6.4-12.5z"/></g></svg>