<svg xmlns="http://www.w3.org/2000/svg" viewBox="0 0 200 133"><filter id="b"><feGaussianBlur stdDeviation="12" /></filter><path fill="#313445" d="M0 0h200v133H0z"/><g filter="url(#b)" transform="translate(.5 .5)" fill-opacity=".5"><ellipse fill="#c5b5c4" cx="115" cy="99" rx="19" ry="53"/><ellipse cx="170" cy="40" rx="37" ry="125"/><ellipse fill="#48527b" cx="31" cy="122" rx="67" ry="67"/><path fill="#b0c1fb" d="M-18.1 69l-.6-9L52 55l.6 9z"/><path fill="#b8dcff" d="M-9.5 19.5l46.3 8.1-1.3 7-46.3-8.2z"/><ellipse cx="93" cy="73" rx="7" ry="32"/><path fill="#edc3e1" d="M112.5 15.2l4.7-1.8 8.3 21.4-4.7 1.8z"/><path fill="#adf" d="M68.3 28.9L66.2 36H98l-14.5-5.3z"/><ellipse rx="1" ry="1" transform="matrix(3.79677 6.47144 -33.43865 19.61834 15.5 97)"/><ellipse fill="#b4aab5" cx="116" cy="107" rx="23" ry="13"/><path fill="#1a1c34" d="M114 117h86v16h-86z"/><path fill="#a89fcd" d="M104.7 73L123 91.8l19.4-29.3-40 29.6z"/><ellipse rx="1" ry="1" transform="matrix(-4.95434 5.32673 -10.30877 -9.5881 95.7 63.1)"/><path d="M145 92l-37 2 35-12z"/><ellipse fill="#070c0a" rx="1" ry="1" transform="matrix(88.03136 31.69324 -7.8224 21.72754 193.3 29.2)"/><ellipse fill="#636ea9" rx="1" ry="1" transform="matrix(-4.12244 -4.89397 28.72812 -24.19918 16.4 117.7)"/><ellipse cx="7" cy="68" rx="27" ry="3"/><path d="M65 47h32v16H65z"/><path fill="#a8dafc" d="M88 75l-16 7-18-5z"/><path fill="#413c45" d="M108 94.9l5.5-24.1L143.2-7l-12 75.3z"/><path fill="#9f9cbc" d="M134.8 125.8l-8.8 4.7-10.8-20.3 8.8-4.7z"/><path d="M39 63h15v5H39z"/></g></svg>