<svg xmlns="http://www.w3.org/2000/svg" viewBox="0 0 800 533"><filter id="b"><feGaussianBlur stdDeviation="12" /></filter><path fill="#71191d" d="M0 0h800v531H0z"/><g filter="url(#b)" transform="translate(1.6 1.6) scale(3.125)" fill-opacity=".5"><ellipse fill="#f90717" cx="141" cy="169" rx="94" ry="94"/><path fill="#90deff" d="M128.1 64.5L98.3 68 92 15.5l29.8-3.6z"/><ellipse fill="#0d0700" cx="20" cy="70" rx="80" ry="80"/><ellipse fill="#000d04" rx="1" ry="1" transform="matrix(106.53607 -11.24821 3.29375 31.19637 214.7 0)"/><ellipse fill="#ff0029" cx="97" cy="169" rx="119" ry="19"/><path fill="#d8593b" d="M10 79h192v14H10z"/><ellipse fill="#152418" rx="1" ry="1" transform="rotate(-70.8 178.4 -115) scale(40.84894 23.30342)"/><ellipse fill="#ff0977" cx="248" cy="143" rx="38" ry="11"/><ellipse fill="#867d4c" rx="1" ry="1" transform="matrix(-65.05066 -29.20405 6.98342 -15.55525 247 53.4)"/><path fill="#042132" d="M180 72.5h-56v-45h56z"/><path d="M98.2 115.5L85.1 63.6l-4.5 42.8-1 50.9z"/><path fill="#fd2a1b" d="M60 77h15v61H60z"/><ellipse cx="21" cy="119" rx="35" ry="26"/><ellipse cx="171" cy="108" rx="8" ry="17"/><path fill="#f1e7dd" d="M102 48.1l22.3-24-11.9-2.5 9.8 58.7z"/><path fill="#ff955f" d="M145 9h14v10h-14z"/><ellipse cx="129" cy="104" rx="5" ry="16"/><ellipse fill="#3a4170" rx="1" ry="1" transform="matrix(-13.40579 -.56944 1.2315 -28.99215 91.4 33.3)"/><path fill="#ff644e" d="M138 87h19v40h-19z"/><path fill="#ffefc1" d="M74 1.2L51.4 5.6 50-1.2l22.6-4.4z"/><ellipse rx="1" ry="1" transform="matrix(38.06545 -12.14823 5.0874 15.94095 239.2 8.8)"/><ellipse fill="#0d0004" cx="36" cy="40" rx="29" ry="41"/></g></svg>