<svg xmlns="http://www.w3.org/2000/svg" viewBox="0 0 700 467"><filter id="b"><feGaussianBlur stdDeviation="12" /></filter><path fill="#71191d" d="M0 0h700v464H0z"/><g filter="url(#b)" transform="translate(1.4 1.4) scale(2.73438)" fill-opacity=".5"><ellipse fill="#80c4ff" rx="1" ry="1" transform="matrix(-3.69286 -36.36054 16.9882 -1.72536 112 41.4)"/><ellipse fill="#ff0015" cx="147" cy="169" rx="129" ry="59"/><ellipse rx="1" ry="1" transform="matrix(-21.48672 81.43578 -58.03285 -15.31189 12.8 74.5)"/><ellipse cx="229" rx="31" ry="31"/><path fill="#e51a22" d="M98 79h105v88H98z"/><ellipse fill="#191d19" cx="162" cy="32" rx="41" ry="41"/><path fill="#ff4c1a" d="M92 81l-78-6 11 20z"/><ellipse fill="#0b1610" cx="231" cy="100" rx="30" ry="30"/><ellipse fill="#ff002e" rx="1" ry="1" transform="matrix(-128.98648 6.48653 -.81764 -16.25902 69.2 168.7)"/><ellipse fill="#8b8851" rx="1" ry="1" transform="matrix(-49.12066 -5.33621 1.41642 -13.03839 230.5 41.9)"/><ellipse rx="1" ry="1" transform="matrix(.95055 -26.23234 8.06346 .29218 86 113.9)"/><path d="M164 97h14v34h-14z"/><ellipse fill="#181a21" rx="1" ry="1" transform="matrix(24.2794 41.14664 -18.82066 11.10551 71.5 46.9)"/><ellipse fill="#fffccb" cx="111" cy="52" rx="11" ry="11"/><path fill="#fd735d" d="M137.8 72.2l28.3 15-9.9 18.6-28.3-15z"/><ellipse fill="#ff16cd" cx="255" cy="145" rx="32" ry="7"/><path fill="#fa3b26" d="M63.2 116l-9.8-40.7 21.8 4.1-1.3 48.9z"/><ellipse cx="28" cy="119" rx="29" ry="27"/><ellipse fill="#010012" rx="1" ry="1" transform="matrix(7.67017 -14.48642 25.91875 13.72327 112.3 0)"/><path fill="#ffa466" d="M155.8 22.7L144 11.8l6.1-6.5L162 16.2z"/><ellipse cx="224" cy="1" rx="55" ry="24"/><path fill="#ff7513" d="M14.6 76l18-1 .8 17-18 1z"/></g></svg>