<svg xmlns="http://www.w3.org/2000/svg" viewBox="0 0 200 133"><filter id="b"><feGaussianBlur stdDeviation="12" /></filter><path fill="#5d5c50" d="M0 0h200v133H0z"/><g filter="url(#b)" transform="translate(.5 .5)" fill-opacity=".5"><ellipse fill="#e9ffff" cx="44" cy="121" rx="45" ry="45"/><ellipse fill="#fff" cx="140" cy="64" rx="21" ry="39"/><ellipse cx="49" rx="68" ry="68"/><path d="M237.7-27.2l-71.3 185.8-40.1-15.4 71.3-185.8z"/><path fill="#f5ffff" d="M215.7 128.4l-14 24.2-29.4-17 14-24.2z"/><ellipse fill="#b4f5ff" rx="1" ry="1" transform="matrix(11.70886 -50.31584 12.3963 2.8847 49.8 99)"/><ellipse fill="#0a0000" cx="52" cy="6" rx="147" ry="26"/><ellipse fill="#9a7e41" cx="100" cy="110" rx="27" ry="80"/><ellipse fill="#d8b8ae" cx="144" cy="45" rx="20" ry="33"/><path fill="#fde8ee" d="M123 65h15v51h-15z"/><ellipse fill="#00020a" rx="1" ry="1" transform="matrix(.6868 -29.40995 33.76145 .78842 191.3 79.4)"/><ellipse fill="#bbe6ff" rx="1" ry="1" transform="rotate(-19.5 346.7 -87.5) scale(23.59371 29.55143)"/><ellipse fill="#402e00" rx="1" ry="1" transform="matrix(-9.59054 11.46869 -22.64502 -18.9366 94.9 67.6)"/><ellipse rx="1" ry="1" transform="matrix(19.02403 25.90473 -30.72119 22.56116 3.8 30.6)"/><path fill="#006cff" d="M56.2 54.3l8 12.7-20.4 12.7-8-12.7z"/><ellipse fill="#a94800" cx="130" cy="17" rx="10" ry="10"/><ellipse rx="1" ry="1" transform="rotate(-151.4 97 -20) scale(72.50964 17.7787)"/><ellipse fill="#456f74" cx="59" cy="24" rx="7" ry="32"/><ellipse fill="#a9b4aa" cx="103" cy="40" rx="16" ry="8"/><path fill="#2f2a2c" d="M198.4 67l-70-8.7v6l49.7 9.9z"/><ellipse fill="#94904f" rx="1" ry="1" transform="matrix(8.69465 4.41105 -20.92868 41.25267 6.6 107.2)"/><ellipse fill="#b9d1cf" cx="88" cy="18" rx="6" ry="6"/></g></svg>