<svg xmlns="http://www.w3.org/2000/svg" viewBox="0 0 700 467"><filter id="b"><feGaussianBlur stdDeviation="12" /></filter><path fill="#394355" d="M0 0h700v464H0z"/><g filter="url(#b)" transform="translate(1.4 1.4) scale(2.73438)" fill-opacity=".5"><ellipse fill="#a8b3c9" rx="1" ry="1" transform="matrix(-2.01914 -44.36881 145.35718 -6.61494 143.3 122)"/><ellipse cx="88" cy="28" rx="193" ry="50"/><ellipse rx="1" ry="1" transform="rotate(179.4 105.5 58.4) scale(74.80764 10.36489)"/><ellipse fill="#cdd68a" cx="132" cy="56" rx="21" ry="21"/><ellipse rx="1" ry="1" transform="matrix(-.9561 -7.66642 53.75334 -6.70374 82.3 119.5)"/><ellipse rx="1" ry="1" transform="matrix(17.67524 52.5209 -79.25394 26.6719 47.2 28.9)"/><ellipse fill="#e0f9ff" cx="187" cy="92" rx="36" ry="14"/><ellipse fill="#f5ffff" rx="1" ry="1" transform="rotate(171.8 34.9 55) scale(47.53526 9.54951)"/><ellipse cx="195" cy="18" rx="52" ry="52"/><ellipse fill="#3e3d02" cx="141" cy="109" rx="14" ry="56"/><ellipse fill="#0040fb" rx="1" ry="1" transform="matrix(-.5246 -10.19527 90.95276 -4.67997 241.8 74)"/><ellipse fill="#d7d7df" rx="1" ry="1" transform="matrix(32.21053 1.28627 -.6515 16.31482 98.5 142)"/><ellipse fill="#023bda" rx="1" ry="1" transform="matrix(1.86825 11.66386 -98.32211 15.74865 19.6 98.4)"/><path fill="#d8d4df" d="M150 125h60v26h-60z"/><ellipse fill="#001aa0" rx="1" ry="1" transform="matrix(67.64887 13.39484 -2.95164 14.90687 15.4 159.7)"/><ellipse fill="#b5c9f5" rx="1" ry="1" transform="matrix(71.44027 -.76081 .1238 11.62499 226.8 92.7)"/><path fill="#d6c69f" d="M135 15l13 41h-34z"/><ellipse fill="#1f479d" cx="211" cy="169" rx="70" ry="20"/><path fill="#0f0800" d="M195.8 105.2l62.2-1.3 13 24-69.2-2z"/><ellipse rx="1" ry="1" transform="matrix(61.99682 -20.14399 11.2389 34.5898 216.3 28)"/><path fill="#fffbff" d="M153.7 107l78.6-5.2-83.5-6.9.6 12.7z"/><ellipse cx="69" cy="38" rx="45" ry="45"/></g></svg>