<svg xmlns="http://www.w3.org/2000/svg" viewBox="0 0 700 467"><filter id="b"><feGaussianBlur stdDeviation="12" /></filter><path fill="#9a8c99" d="M0 0h700v464H0z"/><g filter="url(#b)" transform="translate(1.4 1.4) scale(2.73438)" fill-opacity=".5"><ellipse fill="#8c000e" rx="1" ry="1" transform="matrix(208.18065 19.55004 -7.12119 75.83072 95.6 169)"/><ellipse fill="#a4ffff" rx="1" ry="1" transform="matrix(-254.99955 -.47725 .0943 -50.38764 124.6 42.3)"/><ellipse fill="#a7000a" cx="124" cy="102" rx="25" ry="63"/><path fill="#b2ffff" d="M132 92h24v36h-24z"/><path fill="#00efff" d="M0 142h18v28H0z"/><ellipse fill="#3ad2f1" cx="85" cy="41" rx="35" ry="35"/><ellipse fill="#ef0000" cx="124" cy="160" rx="32" ry="32"/><path fill="#cb0000" d="M23.5 139.5h61v41h-61z"/><path d="M161.8 119.2l8.3-28.8 22 6.4-8.2 28.8z"/><ellipse fill="#ff779e" rx="1" ry="1" transform="matrix(16.74948 13.08096 -18.68848 23.92962 212.2 108.8)"/><ellipse fill="#5d8993" cx="217" cy="168" rx="49" ry="32"/><ellipse fill="#8c1311" rx="1" ry="1" transform="rotate(127.1 37.4 69.3) scale(32.39422 15.31543)"/><path fill="#111b15" d="M185 114.7l-4 44.8-26-2.2 4-44.8z"/><ellipse fill="#afe6f6" cx="178" cy="43" rx="44" ry="44"/><ellipse fill="#c7e6f2" cx="7" cy="37" rx="50" ry="54"/><path fill="#ffb0d8" d="M57.7 95.3l14.4 7-15.8 32.4-14.4-7z"/><path d="M230 93h21v10h-21zM34 80l-19 34 26-7z"/><ellipse fill="#c6e4f2" rx="1" ry="1" transform="rotate(81.6 90.3 178.7) scale(29.2569 58.17082)"/><path fill="#b4d3ff" d="M87 122h6v48h-6z"/><path d="M-16 112l21 31 2-53z"/><path fill="#f9b3d6" d="M7.6 124.3l55.6-7.2-43.7-3.7 3.1-58.5z"/></g></svg>