<svg xmlns="http://www.w3.org/2000/svg" viewBox="0 0 700 467"><filter id="b"><feGaussianBlur stdDeviation="12" /></filter><path fill="#354851" d="M0 0h700v464H0z"/><g filter="url(#b)" transform="translate(1.4 1.4) scale(2.73438)" fill-opacity=".5"><ellipse fill="#89a4a8" rx="1" ry="1" transform="matrix(1.00612 -54.40233 39.77343 .73558 103.8 44.1)"/><ellipse cx="205" cy="17" rx="65" ry="27"/><ellipse fill="#e4cdcc" rx="1" ry="1" transform="matrix(12.03582 15.97626 -7.73633 5.82821 64.5 121.4)"/><ellipse fill="#7db2ce" rx="1" ry="1" transform="matrix(17.2935 -19.71594 10.08798 8.8485 231 56.9)"/><ellipse fill="#0064a7" rx="1" ry="1" transform="matrix(-55.3154 4.03468 -1.49808 -20.53858 141.1 151.9)"/><ellipse fill="#32b4ff" rx="1" ry="1" transform="rotate(111.2 61.5 143.7) scale(7.57147 26.57886)"/><ellipse fill="#070000" cx="244" cy="87" rx="100" ry="11"/><ellipse fill="#090c05" cy="51" rx="23" ry="66"/><path fill="#6693b5" d="M239.7 100l6.7 39-70.3-36.3 73 7z"/><ellipse fill="#0c0b13" rx="1" ry="1" transform="rotate(-64.2 154.2 53.5) scale(37.22627 41.5592)"/><ellipse fill="#050000" rx="1" ry="1" transform="matrix(-23.43048 202.50375 -15.27828 -1.76776 255 138)"/><ellipse fill="#c4dae6" rx="1" ry="1" transform="matrix(-16.16695 -21.6132 2.63967 -1.9745 23.3 155.4)"/><path fill="#2592e5" d="M166.5 124l49.5 39-8.6 11-49.6-38.8z"/><path fill="#f49d64" d="M144 51v46l-12-11z"/><ellipse fill="#4b666e" cx="54" cy="56" rx="43" ry="36"/><path fill="#000807" d="M149 15h18v84h-18z"/><ellipse fill="#030000" rx="1" ry="1" transform="matrix(-36.9773 -47.54335 4.4368 -3.45076 171.7 156.4)"/><path fill="#60ffff" d="M241 27h7v39h-7z"/><ellipse fill="#000b27" cx="126" cy="119" rx="39" ry="10"/><path fill="#93c5ff" d="M143 103h51v6h-51z"/><ellipse fill="#92492d" rx="1" ry="1" transform="matrix(23.34126 -17.07235 5.9796 8.17528 37.9 107.9)"/><ellipse rx="1" ry="1" transform="matrix(17.03713 3.2217 -1.23274 6.51904 200 121.4)"/></g></svg>