<svg xmlns="http://www.w3.org/2000/svg" viewBox="0 0 200 133"><filter id="b"><feGaussianBlur stdDeviation="12" /></filter><path fill="#5d5c66" d="M0 0h200v133H0z"/><g filter="url(#b)" transform="translate(.5 .5)" fill-opacity=".5"><ellipse fill="#fcffff" rx="1" ry="1" transform="matrix(6.82455 -47.04485 52.57566 7.62687 63.5 51)"/><ellipse fill="#00001c" cx="199" cy="76" rx="95" ry="95"/><ellipse fill="#90b3ff" rx="1" ry="1" transform="rotate(156.8 43 29.8) scale(38.02172 25.2447)"/><path fill="#370f00" d="M181 148l-40-63-157 40z"/><ellipse fill="#fffdcc" cx="53" cy="74" rx="28" ry="28"/><path fill="#cceaff" d="M13 10h35v60H13z"/><path d="M12.2 99.5l-25.4-15.9 17-27.1 25.4 15.9z"/><path fill="#000008" d="M-16 8l99-24 92 29z"/><ellipse fill="#526993" cx="102" cy="64" rx="21" ry="34"/><ellipse fill="#b09d90" rx="1" ry="1" transform="matrix(11.8496 1.37663 -2.29298 19.73725 151.5 69)"/><ellipse fill="#fffffe" cx="28" cy="91" rx="9" ry="9"/><ellipse cx="4" cy="20" rx="8" ry="81"/><path fill="#e2e5f9" d="M13 12h107v25H13z"/><ellipse fill="#865518" cx="62" cy="107" rx="57" ry="11"/><path fill="#e8cd96" d="M91 74h19v32H91z"/><path fill="#488ff9" d="M189 52h11v33h-11z"/><ellipse fill="#150000" cx="187" cy="113" rx="18" ry="31"/><ellipse fill="#010042" cx="134" cy="34" rx="13" ry="50"/><ellipse fill="#3e200c" cx="20" cy="130" rx="84" ry="23"/><path fill="#4f2503" d="M111 53.7l-2.4 13.7L93 52.6l10.8-4.3z"/><ellipse fill="#ccb862" rx="1" ry="1" transform="rotate(77.1 22 40) scale(42.49818 7.91116)"/><path fill="#89abeb" d="M12 35h25v35H12z"/></g></svg>