<svg xmlns="http://www.w3.org/2000/svg" viewBox="0 0 200 133"><filter id="b"><feGaussianBlur stdDeviation="12" /></filter><path fill="#5b4c4f" d="M0 0h200v133H0z"/><g filter="url(#b)" transform="translate(.5 .5)" fill-opacity=".5"><ellipse fill="#bebfc3" cx="123" cy="85" rx="35" ry="35"/><ellipse fill="#000003" rx="1" ry="1" transform="matrix(132.71037 7.94256 -1.67855 28.04643 125.3 19.7)"/><ellipse fill="#c3a999" rx="1" ry="1" transform="rotate(-108.1 59.3 28.3) scale(31.00942 38.01697)"/><ellipse fill="#e2b2a6" rx="1" ry="1" transform="matrix(4.08319 15.56418 -29.38464 7.70892 163.8 101)"/><ellipse fill="#7c0000" rx="1" ry="1" transform="matrix(-.44618 -13.45007 170.5577 -5.65798 157.5 130.4)"/><ellipse fill="#a4faff" cx="113" cy="62" rx="18" ry="18"/><path fill="#fffbf2" d="M51.6 72L19.5 93.1 3.9 107l34.6-6.7z"/><path fill="#000415" d="M136 6h17v72h-17z"/><path fill="#150000" d="M148.3 93.9L86.1 84l1.6-9.9 62.2 9.9z"/><path fill="#ffecd3" d="M85.7 106.7V88.5l62.5 6-53 6.8z"/><ellipse fill="#799580" cx="30" cy="52" rx="47" ry="16"/><path fill="#9ebf9b" d="M150 49.6l37.8 4-1.8 16.8-37.8-4z"/><ellipse rx="1" ry="1" transform="matrix(-19.87648 6.93786 -8.12259 -23.27065 37.9 15.9)"/><ellipse fill="#4c221c" cx="57" cy="103" rx="25" ry="9"/><ellipse fill="#000f1c" cx="89" cy="64" rx="7" ry="32"/><path d="M197.8 17.9l-6 37.5-33.6-5.3 6-37.5z"/><ellipse fill="#5643b4" cx="77" cy="15" rx="24" ry="7"/><ellipse fill="#cbdde9" rx="1" ry="1" transform="matrix(28.57681 -3.90757 .7092 5.18652 64.1 76.2)"/><path fill="#0b0000" d="M216.9 132.6L180 158.4l-18.9-27 36.9-25.8z"/><ellipse fill="#3d1c07" cx="192" cy="101" rx="99" ry="3"/><path fill="#0067de" d="M99 43h32v11H99z"/><path fill="#c8d8ff" d="M95 53h33v24H95z"/></g></svg>