<svg xmlns="http://www.w3.org/2000/svg" viewBox="0 0 700 467"><filter id="b"><feGaussianBlur stdDeviation="12" /></filter><path fill="#252f33" d="M0 0h700v464H0z"/><g filter="url(#b)" transform="translate(1.4 1.4) scale(2.73438)" fill-opacity=".5"><ellipse fill="#d0b398" cx="103" cy="60" rx="29" ry="29"/><ellipse fill="#b49f85" rx="1" ry="1" transform="matrix(-76.36501 -29.00835 6.50814 -17.13281 39.7 34)"/><ellipse fill="#debb9f" rx="1" ry="1" transform="matrix(-14.66646 -4.09495 6.94856 -24.88694 177.3 44.3)"/><ellipse cx="49" cy="140" rx="231" ry="62"/><path fill="#d39c77" d="M200 40h32v29h-32z"/><path fill="#0098ff" d="M242.6-1.5l-.3 16-169-3 .4-16z"/><ellipse fill="#a8998e" cx="236" cy="144" rx="16" ry="12"/><path fill="#8fb7e1" d="M91 86h12v27H91z"/><ellipse fill="#bd8d59" cx="36" cy="44" rx="21" ry="21"/><ellipse fill="#174d74" rx="1" ry="1" transform="rotate(153.6 28.4 9.2) scale(15.52309 51.30817)"/><ellipse fill="#88a0c1" cx="81" cy="118" rx="9" ry="9"/><ellipse fill="#000005" rx="1" ry="1" transform="rotate(-28.6 311.4 -439) scale(20.63343 38.57237)"/><ellipse fill="#000001" rx="1" ry="1" transform="matrix(-56.23637 16.12552 -6.55984 -22.87687 30.1 90.6)"/><path fill="#abd0e3" d="M164 89h10v14h-10z"/><ellipse fill="#d9f3ff" cx="131" cy="80" rx="8" ry="6"/><path fill="#002241" d="M113 10l3 73 13-46z"/><ellipse cx="154" cy="127" rx="72" ry="27"/><ellipse fill="#686e6b" rx="1" ry="1" transform="rotate(119.9 91.9 98.8) scale(36.70376 8.81192)"/><path fill="#948b84" d="M178 33l-32 6 39 51z"/><ellipse fill="#1a0000" cy="46" rx="17" ry="17"/><ellipse fill="#064873" cx="25" rx="88" ry="16"/><path fill="#b5bfb5" d="M13 68L9 57l40 2z"/></g></svg>