<svg xmlns="http://www.w3.org/2000/svg" viewBox="0 0 200 133"><filter id="b"><feGaussianBlur stdDeviation="12" /></filter><path fill="#572f31" d="M0 0h200v133H0z"/><g filter="url(#b)" transform="translate(.5 .5)" fill-opacity=".5"><ellipse fill="#fff" rx="1" ry="1" transform="matrix(-10.36905 -61.50114 16.94936 -2.85765 110 110.1)"/><ellipse fill="#48b8eb" cx="37" cy="50" rx="28" ry="21"/><ellipse fill="#700000" cx="165" cy="90" rx="45" ry="45"/><ellipse fill="#f67336" rx="1" ry="1" transform="matrix(-5.0803 -64.13651 13.50686 -1.06989 24.2 90.8)"/><ellipse fill="#000d17" cx="114" cy="18" rx="58" ry="58"/><path fill="#e4f6ff" d="M105 16.5l26.6-4.7 3.4 19.7-26.6 4.7z"/><ellipse fill="#c10000" cx="43" cy="129" rx="55" ry="25"/><ellipse fill="#fdffff" rx="1" ry="1" transform="matrix(-13.03708 -39.48986 12.2956 -4.05923 109.8 115)"/><ellipse fill="#000001" rx="1" ry="1" transform="rotate(-29.1 24.7 -20.2) scale(71.93007 20.92517)"/><ellipse fill="#000406" rx="1" ry="1" transform="matrix(14.61126 -26.14377 16.53481 9.241 73.2 73.8)"/><ellipse cx="142" cy="59" rx="27" ry="27"/><ellipse cx="2" cy="73" rx="11" ry="45"/><ellipse fill="#900" cx="162" cy="105" rx="38" ry="33"/><path fill="#ffaa5d" d="M34 79h22v17H34z"/><ellipse fill="#007ac8" cx="48" cy="54" rx="20" ry="15"/><path fill="#cd0000" d="M148-16l25 81V8z"/><ellipse fill="#e59d7d" rx="1" ry="1" transform="rotate(76 11.7 96.2) scale(17.7993 7.92774)"/><ellipse fill="#a10000" cx="68" cy="122" rx="27" ry="27"/><ellipse fill="#000009" cx="84" cy="22" rx="21" ry="33"/><ellipse fill="#506b6b" rx="1" ry="1" transform="matrix(14.84134 45.94966 -11.39648 3.68096 190.4 37)"/><ellipse fill="#ddac7f" cx="19" cy="58" rx="8" ry="37"/><path fill="#3e0e00" d="M27.2 81.9l-5-44.1 7 61.5-35.7-18.7z"/></g></svg>