<svg xmlns="http://www.w3.org/2000/svg" viewBox="0 0 200 133"><filter id="b"><feGaussianBlur stdDeviation="12" /></filter><path fill="#75605d" d="M0 0h200v133H0z"/><g filter="url(#b)" transform="translate(.5 .5)" fill-opacity=".5"><ellipse fill="#fff" rx="1" ry="1" transform="matrix(-2.5373 12.56987 -55.30324 -11.16325 113.6 55.7)"/><path fill="#fff" d="M95 101h34v32H95z"/><ellipse rx="1" ry="1" transform="matrix(11.46637 -61.23404 25.13245 4.70617 195.2 54.1)"/><ellipse fill="#e40000" rx="1" ry="1" transform="matrix(-12.9525 -1.17877 9.00585 -98.9576 54 84.5)"/><ellipse fill="#720000" rx="1" ry="1" transform="rotate(106.3 35 96.7) scale(18.80434 55.85691)"/><ellipse fill="#c0e6f6" cx="32" rx="13" ry="117"/><ellipse fill="#006200" rx="1" ry="1" transform="matrix(18.47433 4.39414 -7.50514 31.55397 96 3.6)"/><ellipse fill="#000616" rx="1" ry="1" transform="matrix(113.57942 46.76915 -9.99518 24.27342 8 132)"/><path fill="#0047a5" d="M-25.9 105.8l14-114.2L26-3.8 12 110.4z"/><path fill="#faffff" d="M65 24l2 35 108 12z"/><ellipse fill="azure" rx="1" ry="1" transform="matrix(-3.1174 4.33221 -26.65913 -19.18349 143.2 13.1)"/><path fill="#007c10" d="M160.9 44l-39.4 5.2-7.6-49 48.5 34.4z"/><ellipse fill="#adcfbf" rx="1" ry="1" transform="rotate(60.3 31.7 158.2) scale(27.68402 10.701)"/><path fill="#fff" d="M125.3 121.4l40.1 8.5-2.7 12.7-40.1-8.5z"/><path fill="#4c0000" d="M106.8 75.8L119 90.4l-49.8 41.8L57 117.6z"/><ellipse fill="#630000" rx="1" ry="1" transform="matrix(20.40831 -1.14795 1.49465 26.57182 147.7 98.9)"/><ellipse fill="#bed9e4" cx="195" cy="117" rx="38" ry="8"/><path fill="#feffff" d="M126.4 101.5l-.8 24-28-1 .8-24z"/><ellipse fill="#33c2ff" rx="1" ry="1" transform="rotate(10.2 -268.7 49.9) scale(5.43497 88.04259)"/><ellipse fill="#c90200" cx="59" cy="71" rx="17" ry="17"/><ellipse fill="#000334" cx="194" cy="27" rx="12" ry="80"/><path fill="#deccbe" d="M71 80l28-27-26 56z"/></g></svg>