<svg xmlns="http://www.w3.org/2000/svg" viewBox="0 0 200 133"><filter id="b"><feGaussianBlur stdDeviation="12" /></filter><path fill="#272f35" d="M0 0h200v133H0z"/><g filter="url(#b)" transform="translate(.5 .5)" fill-opacity=".5"><ellipse fill="#c3a992" rx="1" ry="1" transform="matrix(59.38955 25.82331 -6.15918 14.16514 54 35.3)"/><path fill="#c59f8a" d="M129 15l72 30-73 6z"/><ellipse fill="#0087f9" cx="148" cy="1" rx="130" ry="10"/><ellipse cx="25" cy="104" rx="183" ry="42"/><ellipse fill="#b1b0bf" rx="1" ry="1" transform="matrix(7.84944 -.37963 1.04724 21.6535 76.7 62.4)"/><path fill="#9d918c" d="M169.8 108.6l5 11L200 125l-5.5-22.3z"/><path fill="#d9bba4" d="M68 27h22v27H68z"/><path fill="#c39569" d="M11.1 51.4L9 20.4l25.9-1.8 2.1 31z"/><path fill="#9d928d" d="M113 33l32 35-5-45z"/><path fill="#b19887" d="M171 30l-10 20 16 30z"/><ellipse fill="#000001" rx="1" ry="1" transform="matrix(25.04967 -24.10584 22.43865 23.3172 24.7 84.5)"/><path fill="#000003" d="M180.4 110.6l-22.3-20 33.5-37.2 22.3 20z"/><path fill="#7085a8" d="M66.1 101l3.2-14.7-17.7-1.7 8.5 16.1z"/><path fill="#133b5b" d="M58.2 37.2l-41-42.4 16.6-16 41 42.4z"/><path fill="#00000d" d="M149 20h9v113h-9z"/><path fill="#000003" d="M106 47h21v86h-21z"/><path fill="#b3d2eb" d="M127 70h10v9h-10z"/><ellipse fill="#0085e4" cx="146" cy="2" rx="34" ry="7"/><path fill="#00030a" d="M174.5 35.2l22.6 7.9-28.5 27.4 38.2 3.1z"/><path fill="#fff" d="M75 77h4v11h-4z"/><path fill="#f3d6b9" d="M132.3 125.7l8.1 7.4-4.7 5.2-8.1-7.4z"/><path fill="#324f77" d="M89 29h34v17H89z"/></g></svg>