<svg xmlns="http://www.w3.org/2000/svg" viewBox="0 0 200 133"><filter id="b"><feGaussianBlur stdDeviation="12" /></filter><path fill="#183655" d="M0 0h200v133H0z"/><g filter="url(#b)" transform="translate(.5 .5)" fill-opacity=".5"><ellipse fill="#8affff" cx="96" cy="67" rx="44" ry="44"/><ellipse cx="199" cy="49" rx="49" ry="49"/><ellipse fill="#b3f6ff" cx="144" cy="49" rx="11" ry="28"/><path fill="#8bd3ff" d="M55 39h48v68H55z"/><ellipse cy="98" rx="52" ry="52"/><ellipse cx="23" rx="50" ry="50"/><ellipse fill="#000007" rx="1" ry="1" transform="matrix(2.5101 23.48763 -184.90215 19.76034 107.7 127.4)"/><ellipse fill="#00000c" rx="1" ry="1" transform="rotate(-7.6 165.3 -659.3) scale(130.84693 16.48211)"/><ellipse rx="1" ry="1" transform="matrix(-26.2823 .2447 -1.0167 -109.19899 180.6 57.8)"/><path fill="#3c90db" d="M105 25h40v79h-40z"/><path fill="#88b3ff" d="M52 35h31v72H52z"/><ellipse fill="#00337a" rx="1" ry="1" transform="matrix(-18.2281 -20.30658 10.88441 -9.77034 143 95)"/><ellipse fill="#001b8d" cx="44" cy="65" rx="11" ry="40"/><path fill="#0090ed" d="M81 32h26v22H81z"/><path fill="#2296f2" d="M127.9 101.3l-40.8 4.3-3-28.9 40.8-4.3z"/><path fill="#dcf8ff" d="M105.2 63.5L75 83l-8.2-12.6L97 51z"/><ellipse fill="#000014" cx="7" cy="100" rx="37" ry="63"/><ellipse fill="#00000b" rx="1" ry="1" transform="matrix(33.20756 20.17348 -12.61187 20.76039 131.9 132)"/><path fill="#001249" d="M-2 48l146-28-94-7z"/><path fill="#78a6bb" d="M114 26h41v44h-41z"/><path fill="#002f67" d="M124 75l8-3V47z"/><path fill="#00147c" d="M60 106h44v12H60z"/></g></svg>