<svg xmlns="http://www.w3.org/2000/svg" viewBox="0 0 200 133"><filter id="b"><feGaussianBlur stdDeviation="12" /></filter><path fill="#b8b199" d="M0 0h200v133H0z"/><g filter="url(#b)" transform="translate(.5 .5)" fill-opacity=".5"><ellipse fill="#4b2309" rx="1" ry="1" transform="rotate(-79.7 104.8 -48) scale(19.52299 78.64881)"/><ellipse fill="#fff" rx="1" ry="1" transform="matrix(-14.17427 -26.89904 51.81407 -27.30309 51.2 109.7)"/><ellipse fill="#1d7b00" rx="1" ry="1" transform="matrix(-.71345 -27.2455 54.60674 -1.42993 125.3 132)"/><ellipse fill="#fef6fc" cx="24" rx="64" ry="64"/><ellipse fill="#ff9400" cx="17" cy="78" rx="29" ry="16"/><ellipse fill="#794426" rx="1" ry="1" transform="rotate(70.1 56.7 144.5) scale(16.33138 31.99294)"/><ellipse fill="#faffff" cx="145" cy="97" rx="129" ry="8"/><ellipse fill="#fcffff" cx="195" cy="112" rx="27" ry="19"/><path fill="#ffde5d" d="M155.8 48.4l-27.6 21.4-4.5-24 24-21.5z"/><path fill="#fdffff" d="M46 66h33v49H46z"/><ellipse fill="#978042" cx="93" cy="39" rx="85" ry="7"/><path fill="#ff6105" d="M159 41h18v29h-18z"/><ellipse fill="#ef8807" rx="1" ry="1" transform="matrix(-.82524 21.97565 -23.51421 -.88302 4.3 81.2)"/><ellipse fill="#edfaff" rx="1" ry="1" transform="matrix(-16.30086 -19.93235 57.8385 -47.30087 27.8 124.4)"/><ellipse fill="#cccbf4" rx="1" ry="1" transform="matrix(-7.93585 -13.58058 25.68319 -15.00804 146 14)"/><path fill="#001405" d="M103 74l-23-4 46-30z"/><path fill="#4d7b00" d="M63 121h114v12H63z"/><ellipse fill="#4b4c6a" cx="184" cy="13" rx="48" ry="5"/><path fill="#893900" d="M22 11l-9 5-4-32z"/><ellipse fill="#e6bf80" rx="1" ry="1" transform="matrix(7.2211 -5.24644 8.00834 11.02253 188.3 66.8)"/><ellipse fill="#1b1b3a" rx="1" ry="1" transform="matrix(-55.37428 -12.886 1.28252 -5.5113 176.3 81)"/><path fill="#f2ffff" d="M93.4 117.8l-12.8-14.2 26-23.4 12.8 14.2z"/></g></svg>