<svg xmlns="http://www.w3.org/2000/svg" viewBox="0 0 800 533"><filter id="b"><feGaussianBlur stdDeviation="12" /></filter><path fill="#3a4269" d="M0 0h800v531H0z"/><g filter="url(#b)" transform="translate(1.6 1.6) scale(3.125)" fill-opacity=".5"><ellipse fill="#93ff87" rx="1" ry="1" transform="matrix(39.41868 -60.96287 49.55752 32.04396 165.8 0)"/><ellipse fill="#000008" rx="1" ry="1" transform="matrix(29.79943 232.62091 -39.4769 5.0571 15.7 89)"/><ellipse fill="#f8bbff" rx="1" ry="1" transform="matrix(54.55165 2.34469 -.52475 12.20881 118.9 140)"/><ellipse fill="#3635f6" cx="232" cy="38" rx="31" ry="57"/><path fill="#e8c2e8" d="M116 78h32v37h-32z"/><ellipse cx="181" cy="164" rx="176" ry="11"/><ellipse fill="#ffd1ff" cx="218" cy="142" rx="12" ry="11"/><ellipse fill="#d9afec" rx="1" ry="1" transform="matrix(16.30638 16.30638 -8.21237 8.21237 95.5 135.3)"/><ellipse fill="#b1e671" cx="157" cy="24" rx="31" ry="31"/><ellipse fill="#00004c" cx="36" cy="30" rx="42" ry="42"/><ellipse fill="#17a54b" cx="99" cy="37" rx="27" ry="27"/><ellipse fill="#0a005b" rx="1" ry="1" transform="matrix(23.53043 -6.26837 12.53526 47.05533 184.2 114)"/><ellipse fill="#0a0060" cx="250" cy="107" rx="19" ry="48"/><ellipse fill="#b8a4bf" cx="223" cy="73" rx="5" ry="77"/><path fill="#a770c1" d="M41 86l32 10-15-41z"/><path fill="#2a0e4a" d="M23 128h133v7H23z"/><ellipse fill="#170337" rx="1" ry="1" transform="matrix(-10.99522 -16.29831 39.33173 -26.53411 81 99)"/><path fill="#e2b9ff" d="M63 138h73v13H63z"/><path fill="#04b57d" d="M220.9 31.6l6.3 15.7-62 25.1-6.4-15.7z"/><ellipse fill="#00001f" cx="17" cy="103" rx="29" ry="63"/><path fill="#fff" d="M92.9 117l12.4 11.5-6.2 6.6-12.4-11.6z"/><path fill="#ce56ff" d="M46 168h210v2H46z"/></g></svg>