<svg xmlns="http://www.w3.org/2000/svg" viewBox="0 0 200 133"><filter id="b"><feGaussianBlur stdDeviation="12" /></filter><path fill="#5e3b3a" d="M0 0h200v133H0z"/><g filter="url(#b)" transform="translate(.5 .5)" fill-opacity=".5"><ellipse fill="#a7838d" cx="95" cy="71" rx="78" ry="40"/><ellipse cx="11" cy="27" rx="13" ry="69"/><ellipse cx="192" cy="18" rx="25" ry="79"/><path fill="#21b7fe" d="M166.9 54.9l-28.7 4-3-21.8 28.6-4z"/><ellipse fill="#0c0000" rx="1" ry="1" transform="matrix(.14385 -13.14367 156.89665 1.7172 103.6 132)"/><ellipse fill="#1f110c" cx="106" cy="17" rx="51" ry="19"/><path fill="#dfdfff" d="M87 41h37v17H87z"/><path fill="#180608" d="M135 22l3 62-27-71z"/><ellipse fill="#c5805d" cx="164" cy="57" rx="8" ry="44"/><path fill="#d0a799" d="M43.7 79.8l45.6-8.1-61.6 37.7 41.4 1.2z"/><ellipse fill="#c1ebff" cx="65" cy="48" rx="10" ry="10"/><ellipse fill="#7e332b" cx="144" cy="86" rx="20" ry="30"/><path fill="#321d0e" d="M30 94L85-16 45 18z"/><path fill="#efb092" d="M62.8-67.2L25 96.5l-5.8-1.3L57-68.5z"/><ellipse fill="#230000" cx="18" cy="127" rx="19" ry="29"/><ellipse fill="#fa22e7" cx="104" cy="39" rx="13" ry="5"/><ellipse fill="#2f1516" rx="1" ry="1" transform="rotate(85.3 16.8 63.8) scale(31.36038 5.4634)"/><ellipse fill="#0a0800" cx="83" cy="97" rx="8" ry="8"/><ellipse fill="#100" rx="1" ry="1" transform="matrix(-19.43039 28.16595 -22.07022 -15.22523 3.5 19.6)"/><ellipse fill="#cd8481" cx="116" cy="91" rx="8" ry="27"/><path fill="#ae5c4c" d="M180 103l10-37 11 43z"/><ellipse fill="#070000" rx="1" ry="1" transform="matrix(5.30207 57.15462 -18.95653 1.75854 199.1 26.5)"/></g></svg>