<svg xmlns="http://www.w3.org/2000/svg" viewBox="0 0 200 133"><filter id="b"><feGaussianBlur stdDeviation="12" /></filter><path fill="#7d6d76" d="M0 0h200v133H0z"/><g filter="url(#b)" transform="translate(.5 .5)" fill-opacity=".5"><ellipse fill="#ffe5fa" rx="1" ry="1" transform="matrix(-56.60848 5.84992 -4.22283 -40.86345 21.7 17.9)"/><ellipse cx="40" cy="116" rx="50" ry="17"/><ellipse fill="#fffbd0" cx="136" cy="130" rx="50" ry="29"/><ellipse fill="#010000" rx="1" ry="1" transform="matrix(-6.2363 -51.49005 22.86824 -2.76973 170.8 18.4)"/><ellipse fill="#00030a" rx="1" ry="1" transform="rotate(175.4 55.7 40.6) scale(46.19458 23.76681)"/><ellipse fill="#d9fbff" cx="140" cy="40" rx="28" ry="12"/><ellipse fill="#ffdad5" rx="1" ry="1" transform="matrix(-12.24608 25.55955 -19.63022 -9.40522 194 95.2)"/><ellipse fill="#e1e3ff" cx="62" cy="66" rx="8" ry="41"/><ellipse fill="#e4eeff" cx="156" cy="34" rx="103" ry="4"/><ellipse cx="40" cy="132" rx="30" ry="30"/><ellipse fill="#0f0007" cx="180" cy="8" rx="52" ry="23"/><path d="M71 34h7v57h-7z"/><path fill="#c9f6ff" d="M78 23h12v37H78z"/><path fill="#fff" d="M133 108h36v15h-36z"/><ellipse rx="1" ry="1" transform="matrix(-16.16271 -14.10006 7.47003 -8.5628 126.2 86.5)"/><path fill="#803433" d="M161.3 118.7l36.8-3.3 2.6 30-36.8 3.2z"/><path fill="#1d181d" d="M73.4 3.9l-9.3 10 41.2 1.5-14-11.1z"/><path fill="#de8882" d="M62 105l-30-4 10-74z"/><path fill="#050005" d="M143 60l44-24 2 39z"/><ellipse fill="#dbc8dd" cx="199" cy="56" rx="10" ry="34"/><path fill="#000006" d="M92 41h24v9H92z"/><path fill="#b6ebff" d="M154 78h10v24h-10z"/></g></svg>