<svg xmlns="http://www.w3.org/2000/svg" viewBox="0 0 800 533"><filter id="b"><feGaussianBlur stdDeviation="12" /></filter><path fill="#64554e" d="M0 0h800v531H0z"/><g filter="url(#b)" transform="translate(1.6 1.6) scale(3.125)" fill-opacity=".5"><path fill="#cdffff" d="M190.5 43.5v47h-109v-47z"/><ellipse cx="52" cy="12" rx="255" ry="33"/><ellipse cx="105" cy="163" rx="250" ry="16"/><ellipse fill="#dac47d" rx="1" ry="1" transform="matrix(-39.89556 -21.12361 11.64241 -21.98869 235.5 65.7)"/><ellipse fill="#b17a3a" cx="224" cy="106" rx="56" ry="40"/><ellipse fill="#bc847d" cx="101" cy="122" rx="47" ry="27"/><ellipse fill="#abd8ff" cx="130" cy="66" rx="51" ry="25"/><ellipse fill="#a99f91" cx="32" cy="65" rx="31" ry="21"/><ellipse fill="#77625d" rx="1" ry="1" transform="matrix(-4.286 16.93802 -35.19182 -8.90493 133.6 27.3)"/><ellipse rx="1" ry="1" transform="matrix(-4.51034 -28.74274 70.9828 -11.1387 25.2 13.4)"/><ellipse rx="1" ry="1" transform="matrix(-9.81148 22.4369 -26.24334 -11.47601 244.9 15.6)"/><path fill="#5e0600" d="M176.5 136.4l10.5-26 32.5 13.2-10.5 26z"/><path fill="#5280d4" d="M46 44h139v13H46z"/><path fill="#edb4c0" d="M102.8 148.4l-6.4-10.6-27.8-3.5 121.9 1.7z"/><ellipse fill="#73572f" cx="190" cy="63" rx="11" ry="28"/><ellipse fill="#eceee1" cx="133" cy="72" rx="33" ry="19"/><ellipse fill="#aaa474" cx="216" cy="45" rx="8" ry="33"/><path fill="#220909" d="M78 121h19v49H78z"/><ellipse fill="#2d2438" rx="1" ry="1" transform="matrix(31.22776 6.01352 -1.98766 10.32179 151.8 123)"/><ellipse fill="#ffaf88" cx="12" cy="137" rx="27" ry="5"/><ellipse fill="#160000" cx="238" cy="169" rx="25" ry="25"/><path fill="#f4dcbd" d="M103 104l16 39 6-24z"/></g></svg>