<svg xmlns="http://www.w3.org/2000/svg" viewBox="0 0 700 467"><filter id="b"><feGaussianBlur stdDeviation="12" /></filter><path fill="#695c55" d="M0 0h700v464H0z"/><g filter="url(#b)" transform="translate(1.4 1.4) scale(2.73438)" fill-opacity=".5"><ellipse fill="#fff5ea" rx="1" ry="1" transform="rotate(26.9 -51.4 385.8) scale(40.96621 77.84701)"/><ellipse rx="1" ry="1" transform="matrix(31.65266 78.06338 -43.75846 17.7429 86 149.3)"/><ellipse fill="#020203" rx="1" ry="1" transform="rotate(91.2 -33.2 100) scale(129.55776 33.93315)"/><ellipse cx="126" cy="24" rx="14" ry="34"/><ellipse fill="#48312e" rx="1" ry="1" transform="matrix(-24.96708 -51.5117 18.78894 -9.10677 194 130.4)"/><ellipse fill="#ffe3da" cx="105" cy="55" rx="8" ry="27"/><ellipse fill="#f4daaa" rx="1" ry="1" transform="matrix(-20.04218 -79.79127 25.9702 -6.52326 183 16.6)"/><path fill="#0b0000" d="M226.5 11.5l35.7 4.3-4.7 38.7-35.7-4.3z"/><path fill="#fff" d="M94.9 31.7L83.5 19l9.6-8.7L104.5 23z"/><ellipse fill="#fff" rx="1" ry="1" transform="matrix(-2.48838 -13.55811 20.03086 -3.67635 143 64)"/><ellipse fill="#b9998c" cx="22" cy="28" rx="13" ry="91"/><ellipse fill="#d2b07c" cx="244" cy="93" rx="51" ry="10"/><ellipse fill="#c9d6fd" rx="1" ry="1" transform="matrix(.74802 -18.62404 4.01247 .16116 50.3 56.8)"/><path d="M181 117l-15 10-36-10z"/><ellipse rx="1" ry="1" transform="matrix(2.20387 -35.94502 20.89098 1.28087 117.3 161)"/><path fill="#b18b79" d="M115.3 50.2l-2.8-27-21 70.1L72 62.6z"/><path fill="#fff6e3" d="M93.6 128.6l-1.8-7.8 14.6-3.4 1.8 7.8z"/><path fill="#16180e" d="M94 85h28v25H94z"/><path fill="#142247" d="M128.8 81.3l8-.5 2.4 33.9-8 .5z"/><path d="M131.2 37.6l8.3 11.4-26.7 19.4-8.3-11.4z"/><path fill="#ffffed" d="M105.2-16l8.4 12.9-26.9 10L46.2-3.6z"/><path fill="#7c4a46" d="M140.8 10.5l23.2 6.2-8.8 32.8-23.2-6.2z"/></g></svg>