<svg xmlns="http://www.w3.org/2000/svg" viewBox="0 0 700 467"><filter id="b"><feGaussianBlur stdDeviation="12" /></filter><path fill="#5a4163" d="M0 0h700v464H0z"/><g filter="url(#b)" transform="translate(1.4 1.4) scale(2.73438)" fill-opacity=".5"><ellipse rx="1" ry="1" transform="matrix(20.81664 162.5971 -34.6422 4.4351 232.7 48.6)"/><ellipse fill="#f1ffff" rx="1" ry="1" transform="matrix(-13.59534 -15.31997 23.01612 -20.4251 98.5 88.2)"/><ellipse fill="#ffdeff" rx="1" ry="1" transform="matrix(1.28405 20.40212 -95.32719 5.9996 113.9 167.1)"/><path fill="#970dff" d="M104-8.6l13 45.2-49 14L55 5.4z"/><ellipse fill="#000012" rx="1" ry="1" transform="matrix(-64.11206 -6.06037 2.6835 -28.38844 .6 29)"/><ellipse fill="#d06aff" cx="159" cy="26" rx="24" ry="24"/><path fill="#e7b07c" d="M153 62h69v38h-69z"/><ellipse fill="#070800" cx="19" cy="131" rx="59" ry="20"/><ellipse fill="#e4ca99" cx="46" cy="82" rx="21" ry="21"/><ellipse fill="#ffe9d0" rx="1" ry="1" transform="matrix(-6.78977 -1.10036 5.34656 -32.99102 12.4 80.7)"/><path fill="#e5d9a7" d="M127 134l-56-1 40-30z"/><ellipse fill="#20190a" cx="170" cy="127" rx="52" ry="20"/><ellipse cx="250" cy="37" rx="44" ry="44"/><ellipse fill="#2b009a" rx="1" ry="1" transform="matrix(-30.6022 55.89605 -23.7103 -12.98101 135.2 8.7)"/><path fill="#beffff" d="M79 63h61v18H79z"/><path fill="#0a000b" d="M120 81h16v75h-16z"/><path fill="#e4abff" d="M223 150l-115 35-116-31z"/><path d="M42 46h8v89h-8z"/><ellipse cx="253" cy="80" rx="30" ry="101"/><path fill="#000007" d="M166.9 119.9l5.7 25.4 1.7-79-10.2-8.1z"/><ellipse fill="#ff5eff" cx="88" cy="22" rx="22" ry="8"/><ellipse fill="#005" cx="107" cy="52" rx="43" ry="12"/></g></svg>