<svg xmlns="http://www.w3.org/2000/svg" viewBox="0 0 200 133"><filter id="b"><feGaussianBlur stdDeviation="12" /></filter><path fill="#8a2316" d="M0 0h200v133H0z"/><g filter="url(#b)" transform="translate(.5 .5)" fill-opacity=".5"><ellipse fill="#ff2d1c" rx="1" ry="1" transform="matrix(48.58301 -7.46684 5.96675 38.82266 95.3 31.3)"/><ellipse fill="#000017" cx="194" cy="82" rx="52" ry="29"/><ellipse cx="13" rx="44" ry="36"/><ellipse fill="#ff5d59" cx="177" cy="117" rx="193" ry="12"/><ellipse fill="#1b0000" cx="199" cy="18" rx="52" ry="52"/><ellipse fill="#151015" rx="1" ry="1" transform="matrix(-79.90896 3.6148 -.78033 -17.25 19 91)"/><path fill="#ffb500" d="M151.4 60l-17.7 29.9-8-8.9 21-63z"/><ellipse fill="#ff3a27" cx="78" cy="39" rx="30" ry="30"/><path fill="#fff200" d="M21.7 35.6l-6.3-5 13 29.7 37.3 28.5z"/><path fill="#2f0000" d="M110 38l27 16-43-70z"/><path fill="#ff913e" d="M0 115h29v17H0z"/><ellipse fill="#280000" rx="1" ry="1" transform="matrix(8.46532 -7.12846 43.75344 51.95888 8.6 49.6)"/><ellipse fill="#040f17" rx="1" ry="1" transform="matrix(33.94791 -12.62512 5.49962 14.78803 168 84)"/><path fill="#b370b0" d="M183.4 97h-8l-.8-42h8z"/><ellipse fill="#ff6f95" cx="147" cy="115" rx="78" ry="3"/><path fill="#120001" d="M74 69h24v33H74z"/><ellipse fill="#001" rx="1" ry="1" transform="matrix(-5.20082 -7.84193 4.10264 -2.7209 109.8 125.1)"/><ellipse fill="#030226" rx="1" ry="1" transform="matrix(-1.11834 6.54259 -8.4338 -1.44162 33.8 121.7)"/><ellipse fill="#ff1a35" cx="111" cy="100" rx="5" ry="22"/><path fill="#fffe06" d="M52 128l-12-12 20-3z"/><path fill="#ff0918" d="M103 118l-67 30 10-27z"/><ellipse fill="#bc312d" rx="1" ry="1" transform="matrix(-4.82372 -11.25701 12.8434 -5.5035 64.2 84.8)"/></g></svg>