<svg xmlns="http://www.w3.org/2000/svg" viewBox="0 0 700 467"><filter id="b"><feGaussianBlur stdDeviation="12" /></filter><path fill="#615b4f" d="M0 0h700v464H0z"/><g filter="url(#b)" transform="translate(1.4 1.4) scale(2.73438)" fill-opacity=".5"><ellipse fill="#feffff" rx="1" ry="1" transform="matrix(-3.6421 -33.0225 89.68623 -9.89164 41.7 61.3)"/><ellipse cx="170" cy="169" rx="94" ry="94"/><ellipse fill="#eefdff" cy="96" rx="40" ry="40"/><ellipse rx="1" ry="1" transform="matrix(24.51594 .84098 -2.08894 60.89648 58.8 131.6)"/><ellipse fill="#efe1d1" rx="1" ry="1" transform="matrix(-7.76267 13.83292 -25.08074 -14.07465 112.3 101.9)"/><ellipse fill="#c2a873" rx="1" ry="1" transform="rotate(-141 112.4 -18.2) scale(27.14715 54.02795)"/><ellipse cx="230" cy="85" rx="25" ry="25"/><ellipse fill="#ffe6a0" rx="1" ry="1" transform="rotate(-79.7 92.6 -70.6) scale(25.07779 10.2195)"/><ellipse fill="#231100" cx="40" cy="9" rx="52" ry="19"/><path fill="#fff" d="M0 28h68v30H0z"/><ellipse fill="#050808" cx="172" cy="155" rx="238" ry="27"/><path fill="#f3f4f2" d="M20.4 133.6l-1.8-26 19-1.2 1.8 26z"/><ellipse fill="#dae9dd" cx="216" cy="9" rx="7" ry="56"/><path fill="#ffecde" d="M175.7 69.2L192.3 58l14 20.8L189.7 90z"/><ellipse fill="#99aebf" cx="98" cy="71" rx="23" ry="37"/><path d="M122 72h34v30h-34z"/><path fill="#604617" d="M251.7 33.5l-75-8.8 2.4-1.6 1.5 33.3z"/><ellipse fill="#aa7320" rx="1" ry="1" transform="matrix(-43.74918 -.34287 .07997 -10.20442 92.8 22.4)"/><path fill="#fff" d="M245 112l-1.8-13 21.8-3 1.8 13zm3-77l5-11-17 3z"/><path fill="#302a1f" d="M52.7 62.9L28 60.5l110.6 72.8-107.8-27.5z"/><ellipse fill="#ad8561" rx="1" ry="1" transform="matrix(-11.48063 -.47255 2.15105 -52.2604 164 29.2)"/></g></svg>