<svg xmlns="http://www.w3.org/2000/svg" viewBox="0 0 700 467"><filter id="b"><feGaussianBlur stdDeviation="12" /></filter><path fill="#301e2e" d="M0 0h700v464H0z"/><g filter="url(#b)" transform="translate(1.4 1.4) scale(2.73438)" fill-opacity=".5"><ellipse fill="#e5c2ff" rx="1" ry="1" transform="matrix(71.53663 -8.40362 4.2388 36.0832 121.9 82.2)"/><path fill="#ffcdff" d="M47 97h177v14H47z"/><ellipse cx="90" cy="142" rx="255" ry="31"/><path d="M19 0h63v82H19z"/><path fill="#ff4dff" d="M72 45h27v21H72z"/><path fill="#6e9dff" d="M111 46h78v27h-78z"/><path d="M229-3l28 85-88-1z"/><ellipse rx="1" ry="1" transform="matrix(2.05743 20.51343 -106.87523 10.71922 177.5 24.3)"/><path fill="#ff08f2" d="M167 48h24v20h-24z"/><ellipse rx="1" ry="1" transform="rotate(-88.6 159.2 4.4) scale(40.58202 255.00001)"/><path fill="#c9759c" d="M183 82l-16.7 33.7 66.8-24L202 80z"/><path d="M21 16h54v62H21z"/><path fill="#fff0ff" d="M86 110l-36-9 81-16z"/><path fill="#cb0098" d="M14.3 111.2l-1.1-7.9 46.5-6.5 1.1 7.9z"/><path fill="#47d6e4" d="M115 45l60 1-53 42z"/><path d="M101 185l50.7-85.4 8.7 18.1L271 167.8z"/><ellipse fill="#000523" cx="105" cy="49" rx="7" ry="18"/><path fill="#d719c6" d="M-14.6 42.1l1.4-11.9L16.6 34l-1.4 11.9z"/><path fill="#cc07c7" d="M269.8 45.2l-27.6 4.4-2-12.8 27.6-4.4z"/><path fill="#030000" d="M230 61h26v109h-26z"/><ellipse fill="#ffe4ff" cx="157" cy="102" rx="63" ry="3"/><path fill="#020006" d="M239.3 36.8l-80.8 41 4.9 7.9 68.4-16.3z"/></g></svg>