<svg xmlns="http://www.w3.org/2000/svg" viewBox="0 0 200 133"><filter id="b"><feGaussianBlur stdDeviation="12" /></filter><path fill="#4b494b" d="M0 0h200v133H0z"/><g filter="url(#b)" transform="translate(.5 .5)" fill-opacity=".5"><ellipse fill="#fff" rx="1" ry="1" transform="matrix(-2.05793 34.7525 -67.07327 -3.97186 134.7 8.3)"/><ellipse rx="1" ry="1" transform="matrix(-1.61082 -36.74203 187.6002 -8.22464 80.2 87.7)"/><ellipse fill="#fff" rx="1" ry="1" transform="matrix(-22.14855 20.37934 -14.41005 -15.66104 146.2 0)"/><ellipse fill="#94827f" rx="1" ry="1" transform="matrix(80.52197 23.60296 -6.41086 21.87077 66 20.9)"/><ellipse fill="#5d5656" cx="167" cy="31" rx="21" ry="21"/><path fill="#fff" d="M34 87h3v28h-3z"/><ellipse fill="#fff" cx="137" rx="99" ry="7"/><ellipse fill="#989fa7" cx="157" cy="102" rx="7" ry="16"/><path fill="#9ca2a6" d="M139 148h24l18.2-60.8 2.4 21.3z"/><ellipse fill="#e3ede5" cx="10" cy="7" rx="35" ry="3"/><ellipse fill="#7a6667" cx="75" cy="33" rx="26" ry="26"/><path fill="#fff" d="M133-16l55 16-69 26z"/><ellipse fill="#080a14" cx="174" cy="73" rx="26" ry="26"/><ellipse fill="#07090a" cx="130" cy="95" rx="21" ry="32"/><path fill="#fff" d="M82 38h21v5H82z"/><path fill="#cbd0d2" d="M4 105h5v28H4z"/><ellipse fill="#9ea2a6" rx="1" ry="1" transform="matrix(15.8233 -13.33093 6.8774 8.16322 192.3 24)"/><ellipse fill="#060709" cx="56" cy="82" rx="22" ry="25"/><ellipse fill="#06070c" rx="1" ry="1" transform="rotate(-53 86.2 22.4) scale(35.71085 14.98921)"/><path fill="#c9c7bd" d="M104 102.8l7.6 12-9.2-5.7-3.2-5z"/><path fill="#d9d7cf" d="M175 96h9v13h-9z"/><path d="M195 135v-20l-18-22z"/></g></svg>