<svg xmlns="http://www.w3.org/2000/svg" viewBox="0 0 700 467"><filter id="b"><feGaussianBlur stdDeviation="12" /></filter><path fill="#332018" d="M0 0h700v464H0z"/><g filter="url(#b)" transform="translate(1.4 1.4) scale(2.73438)" fill-opacity=".5"><ellipse fill="#ff3f91" rx="1" ry="1" transform="matrix(-1.71822 -32.78566 13.81757 -.72415 206.2 60.3)"/><ellipse fill="#d86c8b" cx="56" cy="73" rx="11" ry="51"/><ellipse fill="#685237" rx="1" ry="1" transform="rotate(-7.5 302.7 -899.4) scale(97.08198 27.71692)"/><ellipse fill="#030200" rx="1" ry="1" transform="matrix(-137.91467 -39.19042 9.42426 -33.16485 215.5 125.3)"/><ellipse rx="1" ry="1" transform="rotate(-87.4 64.7 43.5) scale(87.92485 18.30021)"/><path fill="#ad6475" d="M35 142L60 39l9 57z"/><ellipse fill="#000001" rx="1" ry="1" transform="rotate(152.3 38.5 28.4) scale(19.88162 11.96584)"/><path fill="#ff4181" d="M194.8 62.5l9-29.7 15.4 4.7-9 29.7z"/><path fill="#c1687c" d="M63 53l41 14 4-13z"/><ellipse fill="#d01a53" rx="1" ry="1" transform="rotate(163 97.6 57.5) scale(17.06624 7.33983)"/><path fill="#050706" d="M148 46h46v69h-46z"/><ellipse cx="253" cy="99" rx="33" ry="33"/><path fill="#8e2045" d="M37 48l12 52 23-20z"/><path fill="#6c5235" d="M118 11h81v37h-81z"/><path fill="#877376" d="M43.4 126.4l-16-14.4 41.4-4.9.5-9z"/><path fill="#faef9c" d="M96 11l-13 6 10 4z"/><path fill="#597090" d="M109 83h5v25h-5z"/><ellipse fill="#221306" cx="87" cy="144" rx="44" ry="44"/><path fill="#000505" d="M53.4 99.6L2 131.7l12-68.4 18.7-.7z"/><path fill="#816a66" d="M46 102l24 30-2-47z"/><path d="M226 17h16v28h-16z"/><ellipse fill="#000909" rx="1" ry="1" transform="matrix(-6.69037 33.9821 -30.5988 -6.02427 .5 5.3)"/></g></svg>