<svg xmlns="http://www.w3.org/2000/svg" viewBox="0 0 200 133"><filter id="b"><feGaussianBlur stdDeviation="12" /></filter><path fill="#655d67" d="M0 0h200v133H0z"/><g filter="url(#b)" transform="translate(.5 .5)" fill-opacity=".5"><ellipse fill="#bac2f1" cx="29" cy="21" rx="76" ry="43"/><path d="M77 148l-93-40 231 4z"/><ellipse fill="#f7ecf0" rx="1" ry="1" transform="matrix(16.6173 4.40692 -6.47754 24.42503 94.1 89.1)"/><ellipse cx="132" cy="76" rx="21" ry="21"/><ellipse fill="#090000" rx="1" ry="1" transform="matrix(-38.74698 9.74373 -2.9703 -11.81175 41 80.7)"/><path d="M112 70h88v25h-88z"/><ellipse fill="#7986d3" rx="1" ry="1" transform="matrix(-57.54667 17.74356 -6.59842 -21.40027 147.8 4.8)"/><path fill="#e6c08b" d="M0 98h162v12H0z"/><path fill="#000800" d="M58.9 100.5l10.4-60.6 23.1 16.9-24.7 39.5z"/><ellipse rx="1" ry="1" transform="matrix(2.00754 21.64065 -7.92945 .7356 109 48.7)"/><ellipse cx="92" cy="116" rx="199" ry="6"/><path fill="#edb06c" d="M128 123h55v7h-55z"/><path d="M126 98l-12 9-4-17z"/><ellipse cx="170" cy="132" rx="143" ry="4"/><path fill="#918b95" d="M181 35l-64 33 26-84z"/><ellipse cx="120" cy="30" rx="4" ry="19"/><path fill="#b8a2a7" d="M25 7h12v71H25z"/><ellipse fill="#fbc77b" rx="1" ry="1" transform="matrix(-1.4214 -5.36858 18.29327 -4.84338 13.7 132)"/><path d="M6.5 106.3l-22.5-.7 17.7 22.9 19.3-1.6zM8 77l-17 3L2 98z"/><ellipse fill="#7c92dc" rx="1" ry="1" transform="rotate(-122.7 45.3 -9.8) scale(32.64917 16.48282)"/><ellipse fill="#cc9b69" cx="170" cy="106" rx="176" ry="5"/></g></svg>