<svg xmlns="http://www.w3.org/2000/svg" viewBox="0 0 313 195"><filter id="b"><feGaussianBlur stdDeviation="12" /></filter><path fill="#654c6f" d="M0 0h313v194H0z"/><g filter="url(#b)" transform="translate(.6 .6) scale(1.22266)" fill-opacity=".5"><ellipse fill="#ffc3ed" cx="98" cy="114" rx="152" ry="27"/><ellipse fill="#80bbff" rx="1" ry="1" transform="matrix(-6.6858 -29.21219 72.74974 -16.65025 140.9 61.2)"/><ellipse rx="1" ry="1" transform="matrix(-.77095 -27.91522 192.96733 -5.32926 159.7 3.5)"/><path d="M288 8.6l-36.5 112.2-47.5-15.4L240.5-6.8z"/><ellipse rx="1" ry="1" transform="rotate(74.8 -27.2 31.2) scale(46.88133 23.17485)"/><ellipse fill="#ff39ff" rx="1" ry="1" transform="matrix(-26.06512 -21.94887 10.65143 -12.64898 58.4 52.5)"/><ellipse cx="169" cy="152" rx="232" ry="13"/><ellipse fill="#ff00fe" rx="1" ry="1" transform="rotate(-46.2 163.5 -215.3) scale(28.1789 16.74058)"/><ellipse fill="#ffdfff" cx="76" cy="125" rx="185" ry="10"/><ellipse fill="#48dfff" cx="138" cy="45" rx="46" ry="18"/><ellipse rx="1" ry="1" transform="matrix(-19.37781 -5.71051 32.99457 -111.9624 4.3 50.8)"/><ellipse rx="1" ry="1" transform="matrix(-.28077 -20.78826 190.0712 -2.56715 135.2 9)"/><path fill="#e9c3cc" d="M210 87h46v13h-46z"/><path fill="#710460" d="M194.3 98l76.7 17.7-59 2-91-8.2z"/><path fill="#421f51" d="M74 30h23v75H74z"/><path d="M256.6 84.3l-31-1.7 3.8-72.9 31 1.7z"/><path fill="#160900" d="M156.4 128.4l12-4.2 10.2 49.8-38.5-7.7z"/><path fill="#ff9cfe" d="M45.6 29.5l28-1 .8 22-28 1z"/><path fill="#2f0853" d="M135.3 124.6l-.1-8.1-23.2 2.7 14.5-37.6z"/><path fill="#006dcd" d="M185 69.8L162.2 68l2.8-39.9 23 1.7z"/><ellipse cx="81" cy="133" rx="7" ry="6"/><ellipse fill="#de6a61" cy="104" rx="43" ry="17"/></g></svg>