<svg xmlns="http://www.w3.org/2000/svg" viewBox="0 0 700 467"><filter id="b"><feGaussianBlur stdDeviation="12" /></filter><path fill="#380226" d="M0 0h700v464H0z"/><g filter="url(#b)" transform="translate(1.4 1.4) scale(2.73438)" fill-opacity=".5"><path fill="#f92ae7" d="M177.8 27.2L174 80.1l-75.9-5.3 3.7-52.9z"/><ellipse rx="1" ry="1" transform="matrix(-7.27951 -55.6927 70.53607 -9.21967 210.5 131.1)"/><ellipse cx="47" cy="138" rx="65" ry="65"/><ellipse fill="#ba0098" cx="122" rx="72" ry="17"/><ellipse fill="#9c0070" cx="28" cy="52" rx="26" ry="26"/><path fill="#ff6ad6" d="M97 35h67v15H97z"/><path fill="#8d006c" d="M298.3 58.1l-16.9 36.3-69.7-32.5 16.9-36.3z"/><path fill="#4c003e" d="M197-13l-47 79 48 12z"/><ellipse fill="#000100" rx="1" ry="1" transform="matrix(15.62663 38.00747 -70.18638 28.85686 220 141.2)"/><path fill="#d504f2" d="M81 71h105v5H81z"/><path fill="#580055" d="M47 3l104 11-65 31z"/><ellipse cy="142" rx="65" ry="65"/><path fill="#c7dcca" d="M114.3 43.7l.5-9 31 1.6-.6 9z"/><path fill="#8f0078" d="M156 80L85 26l26 53z"/><ellipse fill="#eb0f9d" rx="1" ry="1" transform="rotate(74.1 36.7 118.3) scale(9.2705 27.53665)"/><ellipse fill="#a30045" rx="1" ry="1" transform="rotate(-23.7 317.3 -249.1) scale(13.13831 7.65312)"/><ellipse fill="#23000c" rx="1" ry="1" transform="matrix(-24.50055 5.94243 -7.25363 -29.90663 6.6 20.1)"/><ellipse fill="#3f0001" rx="1" ry="1" transform="rotate(146.6 35.2 94.8) scale(37.42679 30.76017)"/><path fill="#48004e" d="M137 12l47 20-98-6z"/><ellipse fill="#170000" rx="1" ry="1" transform="matrix(-8.98288 -1.48584 7.2365 -43.74954 207 56.8)"/><path fill="#3e002b" d="M216.5 93.7l-44.8 3.4-5.6-38.6 8-13.7z"/><ellipse fill="#9f03ff" rx="1" ry="1" transform="matrix(1.75735 11.48434 -1.89639 .29019 89 36.3)"/></g></svg>