<svg xmlns="http://www.w3.org/2000/svg" viewBox="0 0 200 133"><filter id="b"><feGaussianBlur stdDeviation="12" /></filter><path fill="#675a4c" d="M0 0h200v133H0z"/><g filter="url(#b)" transform="translate(.5 .5)" fill-opacity=".5"><ellipse fill="#ffdf64" cx="12" cy="78" rx="11" ry="76"/><ellipse fill="#f2facc" cx="144" cy="63" rx="72" ry="9"/><ellipse cx="54" cy="14" rx="34" ry="29"/><ellipse cx="174" cy="2" rx="32" ry="32"/><path fill="#0a0000" d="M18.7 125.5l2.6-49 36 2-2.6 49z"/><path fill="#c7cbe3" d="M121 47h17v50h-17z"/><path fill="#ffc1c5" d="M0 126h189v7H0z"/><ellipse fill="#fabc76" cx="163" cy="102" rx="10" ry="29"/><path fill="#070e27" d="M74.4 76.1l29.9-2 3.3 47.8-29.9 2z"/><path fill="#ffe0bf" d="M62 84h13v25H62z"/><ellipse fill="#150100" cx="194" cy="114" rx="19" ry="19"/><path fill="#7a94db" d="M5 2h16v45H5z"/><ellipse fill="#001c24" cx="176" cy="60" rx="5" ry="35"/><ellipse fill="#e2c41b" cx="7" cy="82" rx="17" ry="33"/><ellipse fill="#a7dba9" cx="188" cy="54" rx="11" ry="21"/><path fill="#dac498" d="M98 77l-22-3 5-47z"/><path fill="#e86c33" d="M40 32l11 45-34-3z"/><path fill="#020613" d="M76.5 5.7l26 9L164-.9 73.1-8z"/><ellipse fill="#ffffe9" cx="160" cy="49" rx="4" ry="21"/><ellipse cx="38" cy="9" rx="17" ry="19"/><ellipse fill="#247ea9" rx="1" ry="1" transform="matrix(30.40061 -2.6597 .60387 6.9023 93 52.6)"/><path fill="#642a0e" d="M98 97h57v28H98z"/></g></svg>