<svg xmlns="http://www.w3.org/2000/svg" viewBox="0 0 700 467"><filter id="b"><feGaussianBlur stdDeviation="12" /></filter><path fill="#717773" d="M0 0h700v464H0z"/><g filter="url(#b)" transform="translate(1.4 1.4) scale(2.73438)" fill-opacity=".5"><ellipse fill="#00060f" rx="1" ry="1" transform="matrix(14.66313 61.07634 -36.17085 8.68385 116.8 87.4)"/><ellipse fill="#c9ccc8" rx="1" ry="1" transform="matrix(-243.61018 -7.9013 .52024 -16.03972 132.7 159.5)"/><ellipse fill="#d5e4d9" cx="131" cy="118" rx="10" ry="20"/><ellipse fill="#b5ecff" rx="1" ry="1" transform="matrix(-.65651 12.79136 -45.9996 -2.3609 39.1 3.4)"/><ellipse fill="#32372a" rx="1" ry="1" transform="matrix(18.7861 -25.68424 37.86798 27.69759 10.2 52.7)"/><ellipse fill="#9ea292" rx="1" ry="1" transform="rotate(56.8 16.2 284.2) scale(190.68198 25.27481)"/><ellipse fill="#363935" cx="123" cy="144" rx="40" ry="16"/><ellipse fill="#acb7b3" rx="1" ry="1" transform="rotate(55.9 -63.7 105.2) scale(24.9984 29.12867)"/><path fill="#000004" d="M91 40h33v77H91z"/><ellipse fill="#3e3d2d" cx="246" cy="41" rx="14" ry="35"/><ellipse fill="#1d1f26" cx="147" cy="71" rx="15" ry="36"/><path fill="#262928" d="M193 60h14v58h-14z"/><path fill="#c7cbbe" d="M170.7 65.2v48.7l27 16.5-47.6-4.8z"/><ellipse fill="#8a969e" rx="1" ry="1" transform="matrix(58.6784 -39.28108 10.0859 15.06639 89.5 12.5)"/><ellipse fill="#ccd4ca" cx="50" cy="117" rx="41" ry="6"/><path fill="#cfc1a7" d="M28 54l-7-10-37 26z"/><ellipse fill="#91a7a8" cx="129" cy="41" rx="5" ry="27"/><ellipse fill="#b6bab9" cx="210" cy="163" rx="46" ry="24"/><path fill="#00050c" d="M89 108h8v52h-8z"/><path fill="#1a1000" d="M262 122l-41 7 50 7z"/><path fill="#b4a68f" d="M197 88l-49 28 38-66z"/><path fill="#403e32" d="M98.9 149.7l85.7-8 50-2.8-87.6-13.1z"/></g></svg>