<svg xmlns="http://www.w3.org/2000/svg" viewBox="0 0 700 467"><filter id="b"><feGaussianBlur stdDeviation="12" /></filter><path fill="#3c3022" d="M0 0h700v464H0z"/><g filter="url(#b)" transform="translate(1.4 1.4) scale(2.73438)" fill-opacity=".5"><ellipse fill="#f3d2a5" cx="66" cy="54" rx="20" ry="67"/><ellipse fill="#ffe9cb" cx="133" cy="90" rx="14" ry="14"/><ellipse rx="1" ry="1" transform="matrix(-37.1601 -34.4134 72.4517 -78.2344 161.3 169)"/><path fill="#e9b579" d="M193 37h44v23h-44z"/><ellipse rx="1" ry="1" transform="rotate(1.2 -5875.8 1085.7) scale(32.27486 95.46972)"/><path fill="#ffeee1" d="M109 106h25v11h-25z"/><ellipse fill="#ecd4bc" cx="64" cy="48" rx="19" ry="19"/><ellipse fill="#a16d14" rx="1" ry="1" transform="rotate(94 98.8 141.8) scale(62.04343 9.37077)"/><path fill="#fff" d="M196.2 55.3L192 45l15.7-6.4L212 49z"/><ellipse fill="#0d1200" cx="42" rx="30" ry="16"/><path fill="#ffd0c4" d="M108.1 123.6l-2-9.4 15.5-9.5 12-1.7z"/><path fill="#fffce1" d="M154 94.7l1.6-5.2-32.9-7.8 6.8 14.4z"/><path fill="#212122" d="M54 85l65 19-38 21z"/><ellipse fill="#230000" cx="97" cy="71" rx="20" ry="15"/><path fill="#0a0803" d="M127 99h50v71h-50z"/><ellipse fill="#150700" rx="1" ry="1" transform="matrix(-12.15038 5.61362 -7.51985 -16.27631 141.1 69.4)"/><path fill="#051018" d="M45 154l74 31-14-64z"/><path fill="#ffffef" d="M66 20l-6-7 30-1z"/><path fill="#fff0d5" d="M119 84l9-13 6 6z"/><path fill="#ffcfb0" d="M186.8 30l18 18.6-3.6 3.5-18-18.7z"/><ellipse rx="1" ry="1" transform="matrix(11.18708 8.12535 -5.5484 7.6391 105.5 93.6)"/><path fill="#252115" d="M0 1h51v74H0z"/></g></svg>