<svg xmlns="http://www.w3.org/2000/svg" viewBox="0 0 700 467"><filter id="b"><feGaussianBlur stdDeviation="12" /></filter><path fill="#4a3e36" d="M0 0h700v464H0z"/><g filter="url(#b)" transform="translate(1.4 1.4) scale(2.73438)" fill-opacity=".5"><ellipse fill="#adffff" rx="1" ry="1" transform="matrix(-3.83503 -23.64552 30.54199 -4.95355 117 59.4)"/><ellipse cx="27" cy="11" rx="255" ry="26"/><ellipse fill="#b2826b" rx="1" ry="1" transform="matrix(191.556 -8.21983 .90964 21.19838 159.5 112.9)"/><ellipse cx="161" cy="169" rx="255" ry="21"/><ellipse fill="#9ed2ff" cx="116" cy="62" rx="31" ry="19"/><ellipse fill="#83896c" rx="1" ry="1" transform="matrix(45.15778 9.69931 -3.99039 18.57833 216.4 52)"/><ellipse fill="#007cff" cx="117" cy="40" rx="39" ry="6"/><ellipse fill="#0f0000" cx="210" cy="163" rx="93" ry="30"/><ellipse fill="#87855f" cx="32" cy="48" rx="31" ry="17"/><ellipse fill="#110801" cx="68" cy="59" rx="19" ry="34"/><ellipse rx="1" ry="1" transform="matrix(15.76944 20.18396 -22.97322 17.94864 226.6 9.6)"/><ellipse rx="1" ry="1" transform="matrix(-7.45429 30.57605 -9.66245 -2.35566 160.3 55.5)"/><ellipse fill="#1b2f35" cx="111" cy="102" rx="24" ry="15"/><ellipse fill="#f3b89a" cx="91" cy="125" rx="167" ry="3"/><ellipse fill="#2e1409" cx="38" cy="143" rx="11" ry="78"/><path fill="#ab9698" d="M17.6 89.8l46.4 16-3.6 10.4-46.4-16z"/><ellipse rx="1" ry="1" transform="matrix(-1.9453 14.15577 -65.27959 -8.97078 17.4 16)"/><path fill="#b89e87" d="M259.9 61.3L249 128.7l-7-29.2L255.4 33z"/><ellipse fill="#560000" cx="14" cy="140" rx="250" ry="5"/><path fill="#d6ab92" d="M76.2 100.7l-6.7 13 22.6-53.8-8.8 68.4z"/><path fill="#1b1e05" d="M197 106h39v15h-39z"/><path fill="#ff0f08" d="M143 99h12v24h-12z"/></g></svg>