<svg xmlns="http://www.w3.org/2000/svg" viewBox="0 0 200 133"><filter id="b"><feGaussianBlur stdDeviation="12" /></filter><path fill="#434655" d="M0 0h200v133H0z"/><g filter="url(#b)" transform="translate(.5 .5)" fill-opacity=".5"><ellipse fill="#b9ffff" rx="1" ry="1" transform="matrix(18.37795 -15.66807 12.82318 15.04102 97.2 45.1)"/><ellipse fill="#fab292" rx="1" ry="1" transform="rotate(-2.9 2140 -3520.7) scale(33.9691 12.99319)"/><path fill="#fffff6" d="M62 114l23-35v34z"/><ellipse fill="#00296a" cx="13" cy="31" rx="50" ry="50"/><ellipse fill="#002f73" cx="180" cy="31" rx="47" ry="47"/><ellipse fill="#6b0000" cx="11" cy="123" rx="27" ry="33"/><path fill="#ffffe1" d="M35 89h16v26H35z"/><path fill="#6bccff" d="M76 43h47v24H76z"/><ellipse fill="#6b290e" cx="97" cy="82" rx="89" ry="15"/><ellipse fill="#2a0f00" cx="161" cy="132" rx="49" ry="18"/><ellipse fill="#ff000d" rx="1" ry="1" transform="rotate(-14.6 415.2 -4.1) scale(15.92732 8.50824)"/><ellipse fill="#0066a9" cx="15" cy="14" rx="26" ry="26"/><ellipse fill="#0e6eb0" rx="1" ry="1" transform="matrix(-3.57254 -23.5703 33.72476 -5.11165 194 14.9)"/><path fill="#000200" d="M-7.5 115.5h97v11h-97z"/><ellipse fill="#00163e" cx="163" cy="60" rx="29" ry="22"/><path fill="#000e2b" d="M53.7 85.8l-42.2-8.2 6.8-35.4 42.2 8.2z"/><ellipse fill="#0a0000" cx="127" cy="101" rx="24" ry="8"/><ellipse fill="#c0eaff" cx="135" cy="87" rx="6" ry="6"/><ellipse fill="#8a401d" cx="97" cy="132" rx="15" ry="63"/><ellipse fill="#fff1ce" cx="81" cy="97" rx="9" ry="7"/><path fill="#a50000" d="M82 69h43v13H82z"/><path fill="#fff3e2" d="M83 25h25v8H83z"/></g></svg>