<svg xmlns="http://www.w3.org/2000/svg" viewBox="0 0 200 133"><filter id="b"><feGaussianBlur stdDeviation="12" /></filter><path fill="#a7a7ae" d="M0 0h200v133H0z"/><g filter="url(#b)" transform="translate(.5 .5)" fill-opacity=".5"><ellipse fill="#030c2a" rx="1" ry="1" transform="matrix(-3.8449 -66.68264 26.3381 -1.51865 105.2 100)"/><ellipse rx="1" ry="1" transform="matrix(.97573 45.08381 -11.3992 .2467 190.4 73.9)"/><ellipse fill="#fff" rx="1" ry="1" transform="matrix(3.36079 -33.08635 56.65064 5.75436 23.8 13.5)"/><ellipse fill="#f9fbfe" cx="33" cy="100" rx="41" ry="41"/><ellipse fill="#fff" cx="175" cy="21" rx="67" ry="14"/><path fill="#2c2518" d="M184 40h16v92h-16z"/><ellipse fill="#8a4835" rx="1" ry="1" transform="matrix(-10.67301 2.13268 -10.36017 -51.84758 94.6 0)"/><ellipse fill="#0a0000" rx="1" ry="1" transform="matrix(-5.1478 38.07395 -11.70963 -1.5832 97 128.8)"/><ellipse fill="#fff" cx="20" cy="17" rx="30" ry="26"/><ellipse fill="#6987b6" cx="107" cy="58" rx="25" ry="25"/><path fill="#8e3813" d="M143.3 74.3l1.3 18-20 1.4-1.2-18z"/><path fill="#eae5e4" d="M186 127.6l-23.8 7.3-36.3-118.5L150 9z"/><path fill="#310000" d="M6 75l-22 52 6-116z"/><path fill="#ecf1f3" d="M82.6-16l-10 98.7L54 68.1l.7-31.3z"/><ellipse fill="#fff" cx="10" cy="43" rx="7" ry="83"/><path fill="#45494b" d="M192 8l-29-24L79 7z"/><path fill="#391b0b" d="M3.2 79.2L-14.5 10 3.2 74.2l41.9.6z"/><path fill="#313441" d="M166 43h11v29h-11z"/><path fill="#607793" d="M34.3 33.9L52.9 56 33.7 72 15.1 50z"/><path fill="#fff" d="M110 11h73v22h-73z"/><path fill="#586b7c" d="M182 9h11v38h-11z"/><path d="M86 125h44v8H86z"/></g></svg>