<svg xmlns="http://www.w3.org/2000/svg" viewBox="0 0 700 467"><filter id="b"><feGaussianBlur stdDeviation="12" /></filter><path fill="#424f67" d="M0 0h700v464H0z"/><g filter="url(#b)" transform="translate(1.4 1.4) scale(2.73438)" fill-opacity=".5"><ellipse fill="#15e4ff" rx="1" ry="1" transform="matrix(60.81074 15.06175 -11.64956 47.03428 201.5 57.3)"/><ellipse fill="#830000" cx="181" cy="169" rx="76" ry="76"/><ellipse fill="#fffff6" rx="1" ry="1" transform="matrix(-5.42403 41.7627 -20.66748 -2.68424 84 116.2)"/><ellipse fill="#7e0000" cx="124" cy="109" rx="20" ry="242"/><ellipse cx="4" cy="108" rx="32" ry="86"/><ellipse fill="#fff" cx="240" cy="96" rx="98" ry="8"/><ellipse fill="#21b6ff" rx="1" ry="1" transform="matrix(22.4529 -1.1189 2.97243 59.64744 168.6 41.2)"/><ellipse fill="#5f0000" rx="1" ry="1" transform="matrix(-1.31797 -27.94751 95.39876 -4.4989 191.7 132.2)"/><ellipse fill="#1a9efb" rx="1" ry="1" transform="rotate(-170.9 27.1 28.6) scale(11.96187 81.60556)"/><ellipse fill="#0082f4" cx="218" cy="66" rx="77" ry="29"/><ellipse rx="1" ry="1" transform="rotate(-171.6 12.6 26.7) scale(15.46202 255.00002)"/><ellipse fill="#86ffff" rx="1" ry="1" transform="matrix(8.19485 1.21303 -6.28356 42.44978 0 26.4)"/><ellipse fill="#b9a07d" rx="1" ry="1" transform="matrix(8.11043 1.72302 -15.1136 71.1413 103 51.4)"/><ellipse fill="#001a58" rx="1" ry="1" transform="matrix(17.89454 5.15706 -14.76278 51.22548 41.1 153.3)"/><ellipse fill="#a20000" cx="126" cy="62" rx="11" ry="74"/><ellipse fill="#69bcff" cx="215" cy="27" rx="64" ry="10"/><path fill="#fff" d="M149 94h107v8H149z"/><path fill="#001032" d="M96-6.3l-9.3 90.8-23.2-50.3 11-50.2z"/><ellipse fill="#fffffe" cx="80" cy="98" rx="15" ry="15"/><path fill="#000808" d="M135 0h10v95h-10z"/><path fill="#35bdff" d="M185.6 82l-42.8 18.4-.7-24 29.6-30.6z"/><ellipse fill="#460100" rx="1" ry="1" transform="rotate(148.6 94 105.4) scale(46.62787 37.56061)"/></g></svg>