<svg xmlns="http://www.w3.org/2000/svg" viewBox="0 0 700 467"><filter id="b"><feGaussianBlur stdDeviation="12" /></filter><path fill="#363635" d="M0 0h700v464H0z"/><g filter="url(#b)" transform="translate(1.4 1.4) scale(2.73438)" fill-opacity=".5"><ellipse fill="#948e87" cx="146" cy="21" rx="93" ry="41"/><ellipse fill="#000102" cx="177" cy="169" rx="89" ry="89"/><path fill="#fff" d="M174 40l-24-12.3L160 8l24 12.2z"/><ellipse rx="1" ry="1" transform="matrix(123.05976 9.50012 -3.50895 45.4531 51.8 154.5)"/><ellipse fill="#685f4f" rx="1" ry="1" transform="matrix(-29.96474 18.59596 -29.85793 -48.11182 124 67.6)"/><ellipse fill="#6d7883" rx="1" ry="1" transform="matrix(-7.57573 21.10494 -34.21447 -12.28147 30.7 8)"/><path fill="#d9dce8" d="M215.2 58l6 22 22.5-45 6.8 10.6z"/><ellipse fill="#b5988a" rx="1" ry="1" transform="matrix(12.82267 -2.28407 3.21316 18.0386 97 65.4)"/><path fill="#eedc8a" d="M161.6 102l9.3-34.2-19.8 40.5-14.3 34.5z"/><path d="M-16 9L3 133 19 27z"/><ellipse fill="#293332" rx="1" ry="1" transform="matrix(-2.57123 -18.06643 32.39783 -4.6109 119.3 23)"/><ellipse fill="#97b9c7" rx="1" ry="1" transform="matrix(3.03493 -12.55718 28.10348 6.7923 167.2 1)"/><path fill="#b09984" d="M52.9 90.2l-14-36.4 10.2-4 14 36.4z"/><ellipse fill="#4f392a" cx="194" cy="63" rx="14" ry="51"/><path fill="#000009" d="M231 62l28 53-60 25z"/><path fill="#e1f6ff" d="M159.3 14.8l18.4 4.5L188 41.7l-37.5-12.8z"/><ellipse fill="#f3e58f" rx="1" ry="1" transform="rotate(-57.4 142.8 -91.4) scale(14.32821 3.07875)"/><path fill="#121919" d="M86 97h60v65H86z"/><path fill="#c9d8e9" d="M247 87l17 2-14 10z"/><ellipse fill="#13202c" cx="68" cy="33" rx="15" ry="11"/><ellipse fill="#44b493" rx="1" ry="1" transform="matrix(1.01608 -8.35515 6.04661 .73533 34.1 134)"/><path fill="#fdffff" d="M97 93l7-18-8 2z"/></g></svg>