<svg xmlns="http://www.w3.org/2000/svg" viewBox="0 0 700 467"><filter id="b"><feGaussianBlur stdDeviation="12" /></filter><path fill="#64554e" d="M0 0h700v464H0z"/><g filter="url(#b)" transform="translate(1.4 1.4) scale(2.73438)" fill-opacity=".5"><ellipse fill="#cdfaff" rx="1" ry="1" transform="rotate(175 72.9 37.4) scale(83.56641 24.03817)"/><ellipse cx="80" cy="19" rx="254" ry="25"/><ellipse cx="97" cy="167" rx="255" ry="20"/><ellipse fill="#bb8c46" cx="227" cy="92" rx="55" ry="55"/><ellipse fill="#a9ddff" rx="1" ry="1" transform="matrix(-51.48624 -5.95716 2.37053 -20.48792 132 63.6)"/><path fill="#e7b2b3" d="M99.5 147.5l-6.1-11 17.3-28.8 49 35.8z"/><ellipse fill="#ada395" cx="32" cy="63" rx="32" ry="19"/><ellipse fill="#f49f7a" rx="1" ry="1" transform="matrix(-9.97372 -2.17462 5.16721 -23.69897 69.3 118.3)"/><ellipse cx="34" cy="15" rx="56" ry="28"/><ellipse fill="#7c655b" rx="1" ry="1" transform="matrix(-34.39083 -6.78144 3.26427 -16.55413 135.2 26.5)"/><ellipse fill="#a0946e" cx="222" cy="57" rx="43" ry="22"/><path fill="#610900" d="M208.1 149.7l-30.3-12.9 12-28.5 30.4 12.9z"/><ellipse cx="243" cy="2" rx="26" ry="38"/><ellipse fill="#dbebf1" cx="127" cy="76" rx="47" ry="15"/><ellipse fill="#4589ff" cx="98" cy="55" rx="21" ry="12"/><ellipse fill="#ffa37f" cx="13" cy="138" rx="26" ry="6"/><ellipse rx="1" ry="1" transform="matrix(-.16669 8.2577 -171.24368 -3.45673 181.3 167.1)"/><ellipse fill="#664f2f" rx="1" ry="1" transform="matrix(-10.9279 2.48841 -6.6969 -29.40955 192.9 69)"/><ellipse fill="#c0bd8d" cx="216" cy="38" rx="7" ry="21"/><path fill="#a18587" d="M49 119l147-13L79 83z"/><ellipse fill="#5c4448" cx="69" cy="79" rx="12" ry="26"/><ellipse fill="#9bae98" rx="1" ry="1" transform="matrix(12.77173 5.73984 -4.76028 10.5921 50 51.2)"/></g></svg>