<svg xmlns="http://www.w3.org/2000/svg" viewBox="0 0 200 133"><filter id="b"><feGaussianBlur stdDeviation="12" /></filter><path fill="#374854" d="M0 0h200v133H0z"/><g filter="url(#b)" transform="translate(.5 .5)" fill-opacity=".5"><ellipse fill="#8da5aa" cx="83" cy="20" rx="30" ry="59"/><ellipse rx="1" ry="1" transform="rotate(163.7 80.7 18.2) scale(54.48628 22.84356)"/><path fill="#cdafb2" d="M38 82h25v24H38z"/><ellipse fill="#0465ab" rx="1" ry="1" transform="matrix(1.35152 30.95495 -46.68695 2.0384 115.3 132)"/><ellipse fill="#0e0000" cx="199" cy="68" rx="57" ry="11"/><path fill="#8fbcdc" d="M193.4 35l3.1 18.2-36.6 4L174 32.7z"/><ellipse fill="#210b05" rx="1" ry="1" transform="matrix(-11.07435 9.76335 -70.8976 -80.41753 0 75.2)"/><path fill="#41a1e1" d="M181 119l8-38-36 22z"/><ellipse fill="#84bdfe" cx="131" cy="82" rx="20" ry="4"/><path fill="#000810" d="M140 74l-23-52-2 61z"/><ellipse cx="196" cy="107" rx="4" ry="86"/><ellipse rx="1" ry="1" transform="matrix(-8.35594 -18.34603 11.91112 -5.42507 5.6 130.2)"/><ellipse fill="#0a100d" cy="19" rx="17" ry="70"/><ellipse fill="#a86a5e" rx="1" ry="1" transform="matrix(45.5599 -8.44403 1.04474 5.63692 9.8 93)"/><path fill="#687e86" d="M26 20h86v51H26z"/><path fill="#0d1422" d="M105 82l53 58-75-47z"/><path fill="#040000" d="M156 99l38 7-42-20z"/><path fill="#000003" d="M151 59l54-67-43-8z"/><path fill="#3290dc" d="M170.3 127.3l-13.5 5.6L119 99.1l10.6-1.4z"/><path fill="#71a0c5" d="M165 75l-34 2 67 27z"/><path fill="#3effff" d="M194 27l-3 17-2-22z"/><ellipse fill="#170400" rx="1" ry="1" transform="rotate(122.2 52.4 108.2) scale(4.55622 39.25642)"/></g></svg>