<svg xmlns="http://www.w3.org/2000/svg" viewBox="0 0 200 133"><filter id="b"><feGaussianBlur stdDeviation="12" /></filter><path fill="#3d4c82" d="M0 0h200v133H0z"/><g filter="url(#b)" transform="translate(.5 .5)" fill-opacity=".5"><ellipse fill="#ff1304" cx="84" cy="105" rx="22" ry="34"/><ellipse fill="#4483f5" rx="1" ry="1" transform="matrix(-19.06842 -41.50297 114.89872 -52.78989 122 11.9)"/><ellipse fill="#0e1000" rx="1" ry="1" transform="rotate(66.5 -23.9 171.6) scale(43.81633 49.66115)"/><ellipse fill="#000d00" rx="1" ry="1" transform="rotate(-156.4 28.4 57.5) scale(36.04689 44.79517)"/><ellipse fill="#dea663" rx="1" ry="1" transform="matrix(-3.36002 29.49052 -8.4987 -.9683 142 64.3)"/><ellipse fill="#b3e0ff" rx="1" ry="1" transform="rotate(-18.9 72.5 -333.9) scale(20.39568 15.23263)"/><path fill="#e6c8a4" d="M24.4 78l19-38.3 21 2.3-23 36z"/><ellipse fill="#1555d6" rx="1" ry="1" transform="matrix(-25.46793 6.30268 -15.22728 -61.53058 178 26.9)"/><ellipse fill="#002e90" rx="1" ry="1" transform="matrix(-2.0998 20.3745 -46.60681 -4.80332 16.4 19.4)"/><path fill="#ff5a50" d="M75 57h14v68H75z"/><ellipse fill="#101600" cx="185" cy="115" rx="25" ry="25"/><path fill="#a5a8ce" d="M52 41h148v13H52z"/><path fill="#001816" d="M26 127h100v6H26z"/><ellipse fill="#1044d1" cy="68" rx="27" ry="25"/><path fill="#cbffff" d="M84 116h10v10H84z"/><path fill="#3f4234" d="M143 55h23v69h-23z"/><path fill="#efb562" d="M191 101h5v32h-5z"/><path fill="#00182c" d="M102.3 120.6L113 60.5l16.8 3-10.6 60z"/><path fill="#ff133e" d="M64 81h37v19H64z"/><ellipse fill="#0347b3" rx="1" ry="1" transform="matrix(-12.1197 -8.60605 24.79193 -34.91388 139.4 10.6)"/><ellipse fill="#0f52e9" rx="1" ry="1" transform="rotate(123.8 33 28.7) scale(16.54317 29.3658)"/><ellipse fill="#061e1d" cx="11" cy="106" rx="63" ry="16"/></g></svg>