<svg xmlns="http://www.w3.org/2000/svg" viewBox="0 0 700 467"><filter id="b"><feGaussianBlur stdDeviation="12" /></filter><path fill="#3b2a25" d="M0 0h700v464H0z"/><g filter="url(#b)" transform="translate(1.4 1.4) scale(2.73438)" fill-opacity=".5"><ellipse fill="#9d674b" cx="64" cy="23" rx="55" ry="29"/><ellipse fill="#9a879a" rx="1" ry="1" transform="matrix(14.8821 10.932 -14.9679 20.37633 193.6 125.5)"/><ellipse fill="#2359be" rx="1" ry="1" transform="matrix(-27.8729 44.35613 -16.001 -10.05485 251.3 19.6)"/><ellipse cx="50" cy="114" rx="47" ry="47"/><ellipse fill="#e89d83" rx="1" ry="1" transform="matrix(-5.38471 -.68025 3.80424 -30.11369 191.1 67.6)"/><ellipse fill="#ffc6a4" cx="145" cy="104" rx="8" ry="15"/><ellipse fill="#ffa866" rx="1" ry="1" transform="matrix(20.71463 -11.74675 3.06055 5.39707 3.4 64.2)"/><ellipse fill="#000100" rx="1" ry="1" transform="matrix(-10.13716 -10.82152 58.9664 -55.23732 136 32.2)"/><path fill="#f29476" d="M157 22l22.9 1.1-.8 15-23-1.2z"/><ellipse fill="#140000" rx="1" ry="1" transform="rotate(90.1 -14.3 154.5) scale(29.14793 45.43176)"/><ellipse fill="#dfa182" rx="1" ry="1" transform="matrix(-10.43205 -1.47392 1.61615 -11.4387 65.1 38)"/><ellipse fill="#bd1219" rx="1" ry="1" transform="matrix(6.96945 1.68014 -6.5737 27.26866 152.2 56)"/><ellipse cx="192" cy="6" rx="24" ry="24"/><ellipse fill="#06070a" rx="1" ry="1" transform="matrix(14.48113 7.24161 -20.49785 40.98977 242.4 76.9)"/><path d="M77 19h7v59h-7z"/><path fill="#fea791" d="M83.8 32.1l14-15.6 10.4 9.4-14 15.6z"/><path fill="#000001" d="M160 41h22v55h-22z"/><path fill="#f7af8b" d="M109.3 78.8l.4-10 13 .4-.4 10z"/><ellipse fill="#924e28" rx="1" ry="1" transform="matrix(-16.9842 13.68272 -6.4405 -7.99453 5.5 93.9)"/><path fill="#e2bfc5" d="M175.6 129.7l-8.5-13.6 9.3-5.8 8.5 13.6z"/><ellipse fill="#030d07" rx="1" ry="1" transform="rotate(-99.4 50.6 18.4) scale(32.85502 15.88118)"/><path fill="#79553e" d="M121.6 125L88 172l-71.8-14.8L33.7 185z"/></g></svg>