<svg xmlns="http://www.w3.org/2000/svg" viewBox="0 0 700 467"><filter id="b"><feGaussianBlur stdDeviation="12" /></filter><path fill="#5f6465" d="M0 0h700v464H0z"/><g filter="url(#b)" transform="translate(1.4 1.4) scale(2.73438)" fill-opacity=".5"><ellipse cx="227" cy="151" rx="109" ry="109"/><ellipse fill="#a8b9bc" cx="99" cy="33" rx="121" ry="48"/><ellipse fill="#f9f4e4" rx="1" ry="1" transform="rotate(165 20.8 70) scale(69.51267 17.12851)"/><ellipse fill="#fffff2" cx="188" cy="106" rx="15" ry="15"/><path d="M123 70h38v89h-38z"/><ellipse fill="#000417" rx="1" ry="1" transform="rotate(-98.5 170.5 -60) scale(109.08569 42.89348)"/><ellipse fill="#3b3337" cx="144" cy="23" rx="13" ry="73"/><ellipse fill="#f2e8e9" cx="163" cy="28" rx="6" ry="61"/><ellipse fill="#fff" cx="195" cy="61" rx="5" ry="17"/><ellipse fill="#2a2521" cx="102" cy="169" rx="24" ry="43"/><path fill="#e1e3df" d="M8.5 50l1 56h-10l-1-56z"/><path fill="#566cb9" d="M220.1 32.8l32.1-24.2L193.5-16l-6.1 1.1z"/><path fill="#0e1200" d="M120.7 70.7l-11.2 32-62.3 11 106.2-9.2z"/><path fill="#fff" d="M130.5 3.8l3 56-8 .4-3-56z"/><ellipse fill="#1b1e1e" cx="12" cy="27" rx="4" ry="59"/><path fill="#e9e6db" d="M-16 115.3L8.3 112l86-8.2 20.9-9.9z"/><ellipse fill="#fffffd" cx="50" cy="39" rx="4" ry="49"/><ellipse fill="#fff" cx="82" cy="38" rx="3" ry="47"/><path fill="#eceae0" d="M128 135l-65-21 53-3z"/><path fill="ivory" d="M129 134v-23l5 17z"/><path fill="#fffff5" d="M50 164l-3 12-12-30z"/><ellipse fill="#373a3a" cx="41" cy="39" rx="4" ry="60"/></g></svg>