<svg xmlns="http://www.w3.org/2000/svg" viewBox="0 0 700 467"><filter id="b"><feGaussianBlur stdDeviation="12" /></filter><path fill="#67af91" d="M0 0h700v464H0z"/><g filter="url(#b)" transform="translate(1.4 1.4) scale(2.73438)" fill-opacity=".5"><ellipse fill="#fff" rx="1" ry="1" transform="matrix(-2.06109 -22.65804 194.18458 -17.664 118.8 39.2)"/><ellipse rx="1" ry="1" transform="matrix(-103.3927 12.25233 -2.74687 -23.17975 67.2 0)"/><ellipse rx="1" ry="1" transform="rotate(-85.2 167 -42.6) scale(29.97601 15.03071)"/><ellipse cx="151" cy="162" rx="25" ry="22"/><ellipse fill="#00ae44" cx="39" cy="169" rx="62" ry="62"/><path d="M224 54h32v28h-32z"/><path fill="#a9642c" d="M35 21h37v108H35z"/><ellipse cx="7" cy="78" rx="31" ry="9"/><path fill="#f5ffff" d="M188-4L77 27l55 54z"/><ellipse fill="#00170c" cx="91" cy="73" rx="28" ry="11"/><path fill="#80ffe2" d="M67 83h116v47H67z"/><ellipse fill="#002213" rx="1" ry="1" transform="rotate(60 27.7 181.3) scale(9.64028 29.49125)"/><ellipse fill="#28ffb4" cx="244" cy="119" rx="35" ry="38"/><path fill="#fff" d="M201 72.5l-3 28.8-17-1.8 3-28.8z"/><ellipse fill="#00ffa9" cx="228" cy="2" rx="75" ry="12"/><ellipse fill="#fff" cx="217" cy="85" rx="5" ry="42"/><path fill="#00aca3" d="M137 106l21 33-136 34z"/><ellipse fill="#f1ffff" cx="236" cy="44" rx="23" ry="11"/><path fill="#222708" d="M202 48l17-8-16 63z"/><ellipse fill="#fff" cy="53" rx="37" ry="19"/><path fill="#b05a00" d="M34 92l20 63 20-60z"/><ellipse cx="92" cy="7" rx="37" ry="10"/></g></svg>