<svg xmlns="http://www.w3.org/2000/svg" viewBox="0 0 200 133"><filter id="b"><feGaussianBlur stdDeviation="12" /></filter><path fill="#756d77" d="M0 0h200v133H0z"/><g filter="url(#b)" transform="translate(.5 .5)" fill-opacity=".5"><ellipse fill="#e9ffff" cx="113" cy="132" rx="43" ry="43"/><ellipse fill="#35242a" cx="85" cy="50" rx="55" ry="55"/><ellipse fill="#b0dbfa" rx="1" ry="1" transform="matrix(-11.68123 16.90855 -32.74061 -22.61878 171 55)"/><ellipse fill="#faf2ff" cx="100" cy="45" rx="17" ry="14"/><ellipse fill="#fffff6" rx="1" ry="1" transform="rotate(-61.1 189.3 -86.5) scale(27.63128 12.48544)"/><path fill="#000b00" d="M152.6 7.3l-1.3 26-50-2.6 1.4-26z"/><ellipse fill="#c3eadf" cx="79" cy="128" rx="46" ry="21"/><path d="M69 9l19.2 8.5L67 65l-19.2-8.5z"/><ellipse fill="#e0ffff" cx="31" cy="30" rx="30" ry="4"/><ellipse fill="#3d1345" rx="1" ry="1" transform="matrix(-26.52493 -29.0485 15.11521 -13.80209 17.4 59.5)"/><ellipse fill="#fff" rx="1" ry="1" transform="matrix(16.65141 15.95256 -2.25943 2.3584 141 38.9)"/><ellipse fill="#c9efff" cx="187" cy="27" rx="36" ry="4"/><path fill="#823c34" d="M133 61l53 40-68 3z"/><ellipse fill="#213951" cx="187" cy="38" rx="33" ry="7"/><ellipse fill="#fff" rx="1" ry="1" transform="matrix(11.62087 -7.92722 6.68343 9.79754 174.6 125.7)"/><path fill="#fff" d="M148 56l-20-30 63 42z"/><ellipse fill="#959fa3" rx="1" ry="1" transform="matrix(1.67466 10.22657 -36.54294 5.98414 102 99.3)"/><path fill="#890000" d="M190 109h9v24h-9z"/><ellipse fill="#ce7d9f" cx="72" rx="61" ry="7"/><path fill="#f3adff" d="M32 72l-7 4-1-28z"/><ellipse fill="#120000" rx="1" ry="1" transform="matrix(1.28073 8.26763 -19.4137 3.00737 62.5 16.6)"/><path fill="#aad8d0" d="M43 119l-16-5 30-32z"/></g></svg>