<svg xmlns="http://www.w3.org/2000/svg" viewBox="0 0 700 467"><filter id="b"><feGaussianBlur stdDeviation="12" /></filter><path fill="#424928" d="M0 0h700v464H0z"/><g filter="url(#b)" transform="translate(1.4 1.4) scale(2.73438)" fill-opacity=".5"><ellipse fill="#d6d1e8" rx="1" ry="1" transform="matrix(14.43072 8.33158 -17.15016 29.70496 125.1 117.8)"/><ellipse fill="#fff" cx="127" cy="51" rx="15" ry="15"/><ellipse fill="#ffb419" cx="176" cy="169" rx="255" ry="18"/><path fill="#ff0" d="M192.1 5.4l-6.3 22.1-52-14.9 6.4-22.1z"/><ellipse fill="#001325" rx="1" ry="1" transform="matrix(7.5414 47.77823 -84.47876 13.3343 33.4 40)"/><path fill="#fff" d="M75 65h10v44H75z"/><ellipse fill="#001b00" rx="1" ry="1" transform="matrix(34.28738 16.93165 -27.07953 54.83733 185.3 67.8)"/><ellipse fill="#0045af" rx="1" ry="1" transform="rotate(105.2 28.1 57) scale(22.15701 24.28032)"/><ellipse fill="#11000b" rx="1" ry="1" transform="rotate(52.1 -98.8 124.6) scale(38.48612 23.16394)"/><path fill="#c6e800" d="M218.5 20.7l43-19.1 6 13.7-43 19.1z"/><path fill="#dad56f" d="M4 119h31v17H4z"/><ellipse fill="#000500" cy="39" rx="47" ry="47"/><path fill="#fff" d="M152 85l3 15 8-12z"/><ellipse fill="#170009" rx="1" ry="1" transform="matrix(13.54224 -19.7307 25.85163 17.74337 186 126.8)"/><path fill="#98af21" d="M50 19h16v34H50z"/><path fill="#ffff59" d="M169 15l-26-31-3 27z"/><ellipse fill="#dcdc66" cx="231" cy="127" rx="19" ry="6"/><ellipse fill="#003a1f" cx="247" cy="64" rx="27" ry="35"/><path fill="#623e00" d="M113.8 162.9l-2.5-29 32.9-2.8 2.5 29z"/><ellipse fill="#cdb400" cy="151" rx="50" ry="5"/><path fill="#d2cde6" d="M141 67.2l1.1-25.4-28.2-1.4-3.4 25.6z"/><ellipse fill="#c0fa68" cx="212" cy="99" rx="7" ry="11"/></g></svg>