<svg xmlns="http://www.w3.org/2000/svg" viewBox="0 0 200 133"><filter id="b"><feGaussianBlur stdDeviation="12" /></filter><path fill="#9c8c9c" d="M0 0h200v133H0z"/><g filter="url(#b)" transform="translate(.5 .5)" fill-opacity=".5"><ellipse fill="#910014" rx="1" ry="1" transform="matrix(1.19387 -45.59224 191.67563 5.0192 54.2 117.3)"/><ellipse fill="#b8ffff" rx="1" ry="1" transform="matrix(-66.58551 -27.04728 14.54592 -35.80944 149.8 28.6)"/><ellipse fill="#91ffff" cx="38" cy="30" rx="52" ry="43"/><ellipse fill="#ba000e" cx="96" cy="118" rx="20" ry="89"/><ellipse fill="#a5ffff" rx="1" ry="1" transform="matrix(6.1086 15.66884 -11.65097 4.5422 113 85.8)"/><path d="M122.3 104.9l16.6-37.5 12.8 5.7-16.6 37.5z"/><path fill="#03eaff" d="M0 111h15v22H0z"/><ellipse fill="#c50000" rx="1" ry="1" transform="matrix(1.23844 15.73581 -25.7991 2.03043 42.4 120.5)"/><ellipse fill="#f67c9b" cx="168" cy="87" rx="22" ry="22"/><ellipse fill="#29cbf1" rx="1" ry="1" transform="rotate(66 13.1 70.7) scale(24.76062 18.71762)"/><ellipse fill="#b5e8fc" cx="149" cy="44" rx="38" ry="29"/><ellipse fill="#568591" cx="178" cy="127" rx="48" ry="19"/><ellipse fill="#c9eefb" rx="1" ry="1" transform="rotate(124.1 1.8 19.6) scale(49.50943 21.88801)"/><ellipse fill="#e20010" rx="1" ry="1" transform="rotate(151.9 33 74) scale(21.30647 32.42155)"/><path fill="#550613" d="M99 101h36v23H99z"/><ellipse fill="#aae3ef" cx="155" rx="61" ry="61"/><path fill="#ec97bb" d="M-16 60.4L57.9 80l-17 36.9-.5-59.4z"/><ellipse cx="22" cy="81" rx="8" ry="8"/><path d="M179 72h15v8h-15z"/><ellipse cx="2" cy="89" rx="4" ry="19"/><path fill="#dda5c6" d="M2.8 108.5l7.8-19.8 29.6-45.2-28.7 20.2z"/><path fill="#041612" d="M101 59l2-32 6 21z"/></g></svg>