<svg xmlns="http://www.w3.org/2000/svg" viewBox="0 0 700 467"><filter id="b"><feGaussianBlur stdDeviation="12" /></filter><path fill="#644a3c" d="M0 0h700v464H0z"/><g filter="url(#b)" transform="translate(1.4 1.4) scale(2.73438)" fill-opacity=".5"><ellipse fill="#c5b7aa" cx="110" cy="91" rx="132" ry="37"/><ellipse rx="1" ry="1" transform="matrix(-224.78936 2.74646 -.3553 -29.07968 126.6 164.2)"/><ellipse rx="1" ry="1" transform="matrix(-.07255 -20.78348 174.47833 -.60905 131.5 35)"/><ellipse fill="#b5feff" cx="120" cy="72" rx="22" ry="17"/><ellipse fill="#f6954b" cx="120" rx="255" ry="15"/><ellipse fill="#3a0000" rx="1" ry="1" transform="matrix(-18.36257 -1.38907 8.55887 -113.14234 251.7 78.5)"/><ellipse fill="#b79a73" rx="1" ry="1" transform="rotate(-68.7 159.5 -127.4) scale(31.77888 19.66022)"/><ellipse fill="#350600" cy="87" rx="15" ry="86"/><ellipse fill="#03000f" cx="151" cy="65" rx="9" ry="27"/><path fill="#1e1012" d="M84 39h17v74H84z"/><ellipse cx="176" cy="158" rx="255" ry="19"/><ellipse fill="#c29e76" rx="1" ry="1" transform="matrix(-10.83202 4.96036 -18.9248 -41.3264 36.3 72.8)"/><path fill="#bac3ac" d="M174 67l-2-24 63 31z"/><ellipse fill="#b88678" rx="1" ry="1" transform="rotate(88.6 35.3 68.9) scale(4.65854 49.49846)"/><ellipse fill="#f8e7e7" rx="1" ry="1" transform="matrix(13.08624 1.13614 -1.0666 12.28515 115.9 115.6)"/><path d="M214.7 55.3l-30-.6.6-38 30 .6z"/><ellipse fill="#d99e7a" cx="193" cy="117" rx="41" ry="9"/><path fill="#ffe6c5" d="M22.7 120.8l8-77.6-8.5 11.6-7.6 69z"/><path fill="#005cec" d="M102 56h41v9h-41z"/><path fill="#604b3d" d="M135 81h38v30h-38z"/><path fill="#f1f5ff" d="M116.3 77.7l-20.1 5.5 41.1 6.2-12.3-30z"/><path fill="#fee4c9" d="M76 86h9v36h-9z"/></g></svg>