<svg xmlns="http://www.w3.org/2000/svg" viewBox="0 0 700 467"><filter id="b"><feGaussianBlur stdDeviation="12" /></filter><path fill="#464881" d="M0 0h700v464H0z"/><g filter="url(#b)" transform="translate(1.4 1.4) scale(2.73438)" fill-opacity=".5"><ellipse rx="1" ry="1" transform="matrix(-40.03693 -30.25962 68.10083 -90.10517 30 49.2)"/><ellipse fill="#545dff" cx="198" cy="62" rx="135" ry="39"/><path fill="#ded6c2" d="M43 117h82v44H43z"/><ellipse fill="#b94200" cx="83" cy="166" rx="104" ry="9"/><ellipse fill="#a862ff" cx="222" cy="48" rx="19" ry="45"/><ellipse fill="#030000" rx="1" ry="1" transform="matrix(7.74922 2.13449 -12.23604 44.42266 83.1 167.4)"/><ellipse fill="#ff73a8" rx="1" ry="1" transform="matrix(.36459 8.32873 -24.1575 1.05749 148.1 71)"/><ellipse fill="#cfccf0" cx="230" cy="130" rx="33" ry="9"/><path fill="#83e699" d="M102 185l77-33 92 15z"/><path fill="#f2f6dc" d="M156.1 142.8l20-18.5-11.6-12.6-18.3.6z"/><ellipse fill="#001428" rx="1" ry="1" transform="matrix(-20.88075 1.30419 -2.77192 -44.37995 136.4 0)"/><ellipse fill="#000020" rx="1" ry="1" transform="matrix(20.27716 -9.54384 19.94783 42.38181 248.7 0)"/><ellipse fill="#f4f8df" cx="106" cy="131" rx="9" ry="30"/><ellipse fill="#0c30a0" cx="85" cy="52" rx="34" ry="34"/><ellipse fill="#010815" cx="17" cy="48" rx="41" ry="71"/><ellipse fill="#230e06" rx="1" ry="1" transform="matrix(-53.46533 -9.63586 3.98112 -22.08955 15.9 169)"/><ellipse fill="#4e27fd" rx="1" ry="1" transform="rotate(109.9 91.6 128.4) scale(43.05264 24.71482)"/><path fill="#d3e0ff" d="M19 128h20v16H19z"/><ellipse fill="#011a40" rx="1" ry="1" transform="matrix(1.70978 33.20962 -16.1485 .8314 188.3 12.7)"/><path fill="#00080d" d="M108 99h21v20h-21z"/><ellipse fill="#a7c8ad" cx="160" cy="87" rx="14" ry="14"/><path fill="#37313d" d="M124 145h92v16h-92z"/></g></svg>