<svg xmlns="http://www.w3.org/2000/svg" viewBox="0 0 200 133"><filter id="b"><feGaussianBlur stdDeviation="12" /></filter><path fill="#4c3e39" d="M0 0h200v133H0z"/><g filter="url(#b)" transform="translate(.5 .5)" fill-opacity=".5"><path fill="#b1ffff" d="M69 30h45v34H69z"/><ellipse fill="#b8836d" rx="1" ry="1" transform="matrix(.3488 15.3705 -189.82915 4.30783 107.1 90.4)"/><ellipse cx="85" cy="11" rx="171" ry="17"/><ellipse cx="164" cy="132" rx="197" ry="18"/><path fill="#78baff" d="M68 29h47v32H68z"/><path fill="#89846b" d="M209 26h-82l79 56z"/><ellipse fill="#140000" cx="170" cy="132" rx="90" ry="28"/><ellipse fill="#ffe5d1" cx="91" cy="98" rx="59" ry="2"/><ellipse fill="#928c6b" cx="16" cy="40" rx="23" ry="12"/><ellipse fill="#010000" rx="1" ry="1" transform="rotate(95.4 10.4 46.7) scale(35.15426 9.18079)"/><ellipse fill="#006cfa" cx="92" cy="31" rx="32" ry="4"/><path d="M119 8h15v50h-15z"/><path fill="#340000" d="M36.1 96.7l12.7 34.8-48.9 17.8-12.7-34.8z"/><ellipse cx="23" cy="15" rx="174" ry="9"/><ellipse rx="1" ry="1" transform="matrix(2.25467 .05117 -.54163 23.86736 198.9 34.2)"/><path fill="#ffcdc4" d="M15 67h4v33h-4z"/><ellipse fill="#7d5547" cx="82" cy="3" rx="44" ry="5"/><ellipse fill="#223138" cx="87" cy="79" rx="19" ry="12"/><ellipse fill="#798462" cx="153" cy="28" rx="7" ry="21"/><ellipse fill="#ffc39d" cx="64" cy="85" rx="4" ry="18"/><path fill="#503621" d="M96.4 92.8l82-11.8L202-16 189 96.3z"/><path fill="#ff3b26" d="M120 100V76l-16 3z"/></g></svg>