<svg xmlns="http://www.w3.org/2000/svg" viewBox="0 0 200 133"><filter id="b"><feGaussianBlur stdDeviation="12" /></filter><path fill="#8e8b83" d="M0 0h200v133H0z"/><g filter="url(#b)" transform="translate(.5 .5)" fill-opacity=".5"><ellipse rx="1" ry="1" transform="matrix(.4029 28.13965 -44.85368 .6422 57.6 18.7)"/><ellipse fill="#eaf1ff" rx="1" ry="1" transform="matrix(-78.24137 -18.20734 3.93006 -16.88843 147.1 98)"/><ellipse fill="#59180c" rx="1" ry="1" transform="matrix(4.39643 -21.33483 30.48322 6.28162 167.3 62)"/><ellipse fill="#faf3ff" cx="136" cy="40" rx="20" ry="20"/><ellipse fill="#cad1d5" cx="18" cy="102" rx="37" ry="37"/><ellipse fill="#162900" rx="1" ry="1" transform="matrix(-19.38817 9.3848 -13.69924 -28.30142 50.7 29)"/><ellipse fill="#342b00" rx="1" ry="1" transform="matrix(3.03539 -13.46909 36.95871 8.329 93 18.4)"/><path fill="#380000" d="M96.5 51.4l53 10.4-2 10.8-53-10.4z"/><ellipse fill="#d7c1a3" rx="1" ry="1" transform="matrix(45.52322 67.23752 -17.6328 11.9383 185.5 18)"/><ellipse fill="#170000" rx="1" ry="1" transform="matrix(-1.02484 5.3275 -94.6556 -18.20875 198.7 80.1)"/><ellipse fill="#92acbe" rx="1" ry="1" transform="rotate(14.9 -436.3 581.8) scale(118.6114 29.69698)"/><path fill="#c0c1c9" d="M93.9 26.4L65 39.7l21.8 56.5L97.4 28z"/><path d="M47 70h23v7H47z"/><ellipse fill="#c6c8d3" rx="1" ry="1" transform="matrix(2.9469 22.08595 -11.02078 1.47049 15.8 53.8)"/><path fill="#235c80" d="M62.8 148L42 115.2l64.5-8.6-91 41.4z"/><path d="M-4.8 51.2l9-.4.6 18-9 .4z"/><ellipse fill="#1e3000" cx="40" cy="21" rx="23" ry="23"/><path fill="#602503" d="M152 36h23v34h-23z"/><ellipse fill="#e6edff" rx="1" ry="1" transform="rotate(80.4 51.5 102.4) scale(7.60261 22.22418)"/><ellipse fill="#d5d5de" rx="1" ry="1" transform="matrix(44.65817 19.32532 -5.53183 12.7833 128.3 92.3)"/><path fill="#e0dad6" d="M135.6 52.8l-12-.7 2.8-54.9 12 .7z"/><path fill="#b6bfd5" d="M195.9 58l-8.2 16-11.6-6 8.2-16z"/></g></svg>