<svg xmlns="http://www.w3.org/2000/svg" viewBox="0 0 700 467"><filter id="b"><feGaussianBlur stdDeviation="12" /></filter><path fill="#354851" d="M0 0h700v464H0z"/><g filter="url(#b)" transform="translate(1.4 1.4) scale(2.73438)" fill-opacity=".5"><ellipse fill="#8ba6a9" cx="106" cy="39" rx="38" ry="61"/><ellipse cx="204" cy="15" rx="61" ry="31"/><path fill="#87c4e6" d="M213 43h36v29h-36z"/><ellipse fill="#c8abaa" cx="65" cy="119" rx="18" ry="19"/><ellipse fill="#0163a7" cx="148" cy="158" rx="60" ry="29"/><ellipse fill="#3e89bc" rx="1" ry="1" transform="rotate(-126.9 143.3 7.6) scale(24.57728 19.6867)"/><ellipse fill="#050000" cx="251" cy="87" rx="103" ry="11"/><path fill="#0a0a03" d="M22-10.1L-16-16v124.2l35.3 10z"/><path fill="#020001" d="M2 126l94 19-35 40z"/><ellipse fill="#7da6d0" cx="181" cy="104" rx="35" ry="6"/><ellipse cx="254" cy="124" rx="8" ry="125"/><ellipse cx="1" cy="167" rx="23" ry="23"/><ellipse fill="#040000" rx="1" ry="1" transform="matrix(-3.50474 2.95126 -27.7068 -32.90288 167.2 149.2)"/><ellipse fill="#536f78" cx="64" cy="57" rx="35" ry="35"/><path fill="#889795" d="M143 48L49-12l94 109z"/><ellipse fill="#001116" cx="155" cy="41" rx="11" ry="63"/><path fill="#46e8ff" d="M198.6 134.6l2.6-7.6 30.2 10.4-2.6 7.6z"/><ellipse fill="#00000b" cx="201" cy="48" rx="13" ry="22"/><path fill="#0a0000" d="M174 117l33-3 38 26z"/><ellipse fill="#864931" rx="1" ry="1" transform="rotate(-19.2 349 -57.1) scale(56.65505 10.41355)"/><path fill="#140500" d="M242.4 185l-80.8-68.5 57.2 31.8 52.2 20.8z"/><ellipse fill="#000f2f" cx="137" cy="118" rx="49" ry="9"/></g></svg>