<svg xmlns="http://www.w3.org/2000/svg" viewBox="0 0 200 133"><filter id="b"><feGaussianBlur stdDeviation="12" /></filter><path fill="#aea8a3" d="M0 0h200v133H0z"/><g filter="url(#b)" transform="translate(.5 .5)" fill-opacity=".5"><ellipse fill="#2d0f07" rx="1" ry="1" transform="matrix(2.60426 22.169 -87.25517 10.25013 75.4 87.2)"/><ellipse fill="#fdffff" rx="1" ry="1" transform="matrix(39.83704 .15827 -.40771 102.6239 171.6 110)"/><ellipse fill="#fff" cx="27" cy="14" rx="44" ry="44"/><ellipse fill="#412f31" rx="1" ry="1" transform="rotate(-75.9 77 -29.2) scale(39.20978 19.83499)"/><ellipse cx="154" cy="4" rx="46" ry="7"/><ellipse fill="#fff" cx="65" cy="132" rx="30" ry="36"/><path fill="#150000" d="M173.4 80.4l-51 14.6-3.8-13.4 51-14.6z"/><path fill="#1e0600" d="M8 91h33v31H8z"/><ellipse fill="#624840" rx="1" ry="1" transform="matrix(-25.03897 -16.9254 17.9139 -26.50133 102 83.1)"/><path fill="#fff" d="M215 89L20 132l190 9z"/><path fill="#183700" d="M199-1l-74 22-14-37z"/><ellipse fill="#dfedff" rx="1" ry="1" transform="matrix(-5.96975 16.22531 -36.03297 -13.25755 140.3 42)"/><ellipse fill="#4b2109" cx="44" cy="79" rx="18" ry="18"/><ellipse fill="#f3eed8" rx="1" ry="1" transform="matrix(12.91167 6.413 -25.23932 50.81581 17.1 51)"/><ellipse fill="#f4ffff" cx="112" cy="25" rx="6" ry="29"/><ellipse fill="#fcf9e6" rx="1" ry="1" transform="matrix(28.62416 -28.29284 12.87466 13.02543 70 6.4)"/><ellipse fill="#675651" rx="1" ry="1" transform="matrix(31.97493 4.89285 -4.10727 26.84114 96.8 88.3)"/><ellipse fill="#e4e2e5" cx="180" cy="35" rx="42" ry="28"/><path fill="#fff" d="M63.4 145.7L57 158.2l-78.4-40 6.4-12.4z"/><ellipse fill="#455d00" rx="1" ry="1" transform="matrix(-9.97496 -10.44187 22.98768 -21.95978 147.8 0)"/><ellipse fill="azure" cx="141" cy="63" rx="23" ry="4"/><path fill="#f4fafa" d="M43 96l100.5 50.2-6.4-36.5L48.7 131z"/></g></svg>