<svg xmlns="http://www.w3.org/2000/svg" viewBox="0 0 800 533"><filter id="b"><feGaussianBlur stdDeviation="12" /></filter><path fill="#5b5c64" d="M0 0h800v531H0z"/><g filter="url(#b)" transform="translate(1.6 1.6) scale(3.125)" fill-opacity=".5"><ellipse fill="#f8ffff" cx="80" cy="67" rx="66" ry="66"/><ellipse fill="#000019" cx="255" cy="99" rx="122" ry="122"/><ellipse fill="#6b91e6" rx="1" ry="1" transform="rotate(116.4 46.5 70.6) scale(47.87411 30.82385)"/><ellipse cx="108" cy="3" rx="122" ry="12"/><ellipse fill="#4c1600" cx="76" cy="169" rx="50" ry="50"/><ellipse cy="100" rx="29" ry="29"/><ellipse fill="#ffffd2" cx="69" cy="92" rx="35" ry="35"/><ellipse fill="#d8efff" cx="40" cy="39" rx="27" ry="27"/><ellipse cx="3" cy="44" rx="12" ry="81"/><path fill="#dbedff" d="M82 17h73v34H82z"/><ellipse fill="#b4a089" cx="194" cy="90" rx="12" ry="34"/><ellipse fill="#6b6d69" rx="1" ry="1" transform="rotate(74.9 2.4 129.1) scale(36.20802 22.20626)"/><ellipse fill="#fff" cx="35" cy="116" rx="12" ry="10"/><ellipse fill="#2f1300" cx="155" cy="166" rx="255" ry="31"/><path fill="#438ff7" d="M242 67h14v42h-14z"/><path fill="#2968c8" d="M133.3 67.7l44.8-21.3-70.1-6.6-7.3 59.4z"/><path fill="#d4bb86" d="M138 137l-25.9-2.2L116 91l25.9 2.2z"/><ellipse fill="#d7efff" rx="1" ry="1" transform="rotate(45 -16.5 49) scale(17.76801 12.5031)"/><ellipse fill="#87b1ef" cx="32" cy="67" rx="19" ry="26"/><ellipse fill="#0a070a" cx="175" cy="139" rx="35" ry="30"/><ellipse fill="#b77d10" cx="51" cy="131" rx="83" ry="7"/><ellipse fill="#00001a" rx="1" ry="1" transform="matrix(4.86555 -10.27834 4.49466 2.12767 30.1 99)"/></g></svg>