<svg xmlns="http://www.w3.org/2000/svg" viewBox="0 0 700 467"><filter id="b"><feGaussianBlur stdDeviation="12" /></filter><path fill="#635d65" d="M0 0h700v464H0z"/><g filter="url(#b)" transform="translate(1.4 1.4) scale(2.73438)" fill-opacity=".5"><ellipse fill="#b7c2ed" cx="42" cy="27" rx="92" ry="55"/><ellipse cx="86" cy="156" rx="255" ry="16"/><ellipse fill="#faf3f6" cx="121" cy="112" rx="22" ry="31"/><ellipse rx="1" ry="1" transform="rotate(96.5 56.8 144.2) scale(19.74372 66.52398)"/><ellipse fill="#120000" cx="28" cy="107" rx="72" ry="16"/><ellipse cx="90" cy="87" rx="11" ry="37"/><ellipse fill="#dab581" cx="186" cy="132" rx="223" ry="10"/><ellipse fill="#778bd2" rx="1" ry="1" transform="rotate(-104.5 97.1 -65) scale(20.38383 114.54161)"/><path fill="#0a0a07" d="M127 42l32-4-5 123z"/><path fill="#ffffb7" d="M38 160l-2 25-49-20z"/><ellipse rx="1" ry="1" transform="matrix(-1.20013 13.55305 -98.63247 -8.73394 68.3 155.9)"/><path fill="#dca765" d="M162 156h88v9h-88z"/><ellipse fill="#8b8a98" rx="1" ry="1" transform="matrix(23.30659 -44.3925 26.8255 14.0837 196 21.3)"/><path d="M254.6 155.3l-143 2.4-.2-15 143-2.4zM142 64l-3-56-14 62z"/><path fill="#d2c5bf" d="M145 62h16v23h-16z"/><ellipse cx="149" cy="120" rx="10" ry="15"/><ellipse fill="#d7d9f9" cx="133" cy="98" rx="11" ry="11"/><ellipse fill="#9f7e75" rx="1" ry="1" transform="matrix(61.84146 -8.96149 2.76338 19.06958 27.7 79.5)"/><path fill="#0e0f14" d="M45.8 118.3L115 83.5l5.4-7.8-72.3 10z"/><ellipse fill="#060303" rx="1" ry="1" transform="matrix(-12.04434 -21.08432 17.19425 -9.82215 176 98.2)"/><ellipse fill="#dea971" cx="28" cy="169" rx="13" ry="16"/></g></svg>