<svg xmlns="http://www.w3.org/2000/svg" viewBox="0 0 700 467"><filter id="b"><feGaussianBlur stdDeviation="12" /></filter><path fill="#969897" d="M0 0h700v464H0z"/><g filter="url(#b)" transform="translate(1.4 1.4) scale(2.73438)" fill-opacity=".5"><ellipse fill="#fff" cx="145" cy="21" rx="198" ry="59"/><ellipse fill="#200e00" rx="1" ry="1" transform="matrix(254.98442 2.81888 -.50975 46.10943 167.4 134)"/><ellipse fill="#efffff" rx="1" ry="1" transform="matrix(-115.42393 0 0 -68.44226 144 16)"/><ellipse rx="1" ry="1" transform="rotate(-51.8 269 -194) scale(69.53208 22.48471)"/><path fill="#ffdab3" d="M211.6 126.8L175 121l3.4-21.8L215 105z"/><ellipse fill="#a09488" cx="109" cy="89" rx="80" ry="21"/><path fill="#312a20" d="M225 62h15v30h-15z"/><path fill="#fff" d="M20 159h22v11H20z"/><ellipse fill="#51483a" rx="1" ry="1" transform="rotate(-106.5 47.8 38) scale(11.11548 65.24317)"/><ellipse fill="#d6e6fa" cx="144" cy="57" rx="57" ry="33"/><ellipse fill="#bcd8f2" cx="18" cy="52" rx="57" ry="30"/><ellipse fill="#ecf7ff" rx="1" ry="1" transform="matrix(-7.48782 39.62817 -189.15956 -35.74207 162.2 7.5)"/><ellipse fill="#424134" cx="136" cy="160" rx="85" ry="56"/><ellipse fill="#e7d1a7" cx="223" cy="99" rx="9" ry="6"/><path fill="#3f3227" d="M204 81.6l-20.3-5-.2 19 14.7-1z"/><path fill="#dae3db" d="M86 95.2l-9.1-12 19.2-14.4 9 12z"/><path fill="#869aa9" d="M172.5 169.8l-2.1-9.7 37.1-8 2.1 9.8z"/><ellipse fill="#d7edfd" rx="1" ry="1" transform="matrix(9.66733 -27.9345 9.61652 3.328 254.8 61)"/><path fill="#e6d0b5" d="M183 103h33v14h-33z"/><path fill="#cdc3ae" d="M91 81l-12 34-14-5z"/><path fill="#000300" d="M247.2 178.5L222 166.2l18.8-38.7 25.2 12.3z"/><path fill="#484736" d="M69 64l12 27-23 4z"/></g></svg>