<svg xmlns="http://www.w3.org/2000/svg" viewBox="0 0 200 130"><filter id="b"><feGaussianBlur stdDeviation="12" /></filter><path fill="#a0a783" d="M0 0h200v130H0z"/><g filter="url(#b)" transform="translate(.5 .5)" fill-opacity=".5"><ellipse fill="#0b0f00" rx="1" ry="1" transform="rotate(46.6 -34.9 130.1) scale(29.01384 55.12825)"/><ellipse fill="#fff" rx="1" ry="1" transform="rotate(-177.3 79.9 45.2) scale(41.07697 33.15691)"/><ellipse cx="186" cy="35" rx="24" ry="27"/><ellipse fill="#f1ffa0" rx="1" ry="1" transform="matrix(-63.09254 81.04594 -43.87352 -34.1546 .1 42)"/><ellipse rx="1" ry="1" transform="matrix(-13.8657 15.13176 -12.42174 -11.38242 74.4 116.3)"/><ellipse fill="#7aa41e" rx="1" ry="1" transform="matrix(-8.51386 -41.43316 21.63394 -4.44543 40.8 50.8)"/><ellipse fill="#fff7ff" cx="149" cy="79" rx="27" ry="36"/><ellipse fill="#fff" cy="21" rx="9" ry="115"/><ellipse fill="#f1ffc6" rx="1" ry="1" transform="rotate(-7.1 948.6 -187.4) scale(29.10978 12.99731)"/><ellipse fill="#fffff3" cx="137" cy="3" rx="40" ry="15"/><ellipse fill="#3f4014" rx="1" ry="1" transform="rotate(-124.9 61.4 .5) scale(33.59336 26.21416)"/><ellipse fill="#231a0d" cx="79" cy="119" rx="23" ry="9"/><ellipse fill="#fff" rx="1" ry="1" transform="matrix(-1.13292 19.14211 -11.08918 -.65631 61.6 12.8)"/><ellipse fill="#cdd39e" rx="1" ry="1" transform="rotate(67.8 -23 140.7) scale(34.08442 17.25052)"/><path fill="#a0b8ff" d="M195 43h5v87h-5z"/><ellipse fill="#ffffdc" cx="28" cy="6" rx="67" ry="9"/><path fill="#75ae1f" d="M15 93l8 24 46-27z"/><ellipse fill="#443325" rx="1" ry="1" transform="rotate(18.8 -156.2 275.7) scale(15.56017 58.20955)"/><path fill="#788b4a" d="M147.6 127l-9.8 10.1-37.4-36.1 9.8-10.1z"/><path fill="#263709" d="M186.8 63l-30.2-19.5 18.6-28.6 30.2 19.6z"/><ellipse fill="#fff" cx="162" cy="95" rx="11" ry="39"/><path fill="#3c5326" d="M153.7 56.3l1.2 3.8-66.6 21.6-1.2-3.8z"/></g></svg>