<svg xmlns="http://www.w3.org/2000/svg" viewBox="0 0 200 133"><filter id="b"><feGaussianBlur stdDeviation="12" /></filter><path fill="#7c7879" d="M0 0h200v133H0z"/><g filter="url(#b)" transform="translate(.5 .5)" fill-opacity=".5"><ellipse cx="51" cy="12" rx="61" ry="61"/><ellipse fill="#fff" cx="135" cy="109" rx="109" ry="30"/><ellipse fill="#000034" cx="188" cy="39" rx="27" ry="15"/><ellipse fill="#dfe5ff" cx="161" cy="14" rx="39" ry="12"/><ellipse fill="#0d0000" rx="1" ry="1" transform="matrix(-50.31902 -32.18036 16.86386 -26.3693 47.8 17.2)"/><path fill="#fff" d="M202.9 36.5l15 9.8-22.8 35.2-15-9.8z"/><ellipse cy="64" rx="13" ry="62"/><path fill="#81c5ff" d="M16 37l25 1 3 27z"/><ellipse fill="#def1f6" rx="1" ry="1" transform="matrix(110.95138 29.21542 -3.61538 13.73012 120.6 116.6)"/><path fill="#565243" d="M89 84l4-33 102 44z"/><path fill="#100004" d="M172 12l36-16-65-12z"/><ellipse fill="#fff" rx="1" ry="1" transform="rotate(-15.3 144.5 -728.7) scale(19.12759 8.37179)"/><ellipse fill="#40252f" cx="153" cy="49" rx="37" ry="14"/><path fill="#4958f1" d="M3 58h25v18H3z"/><ellipse fill="#bc7916" rx="1" ry="1" transform="matrix(-89.31128 -45.3102 5.74785 -11.32963 19.2 126.4)"/><ellipse fill="#acb3e4" rx="1" ry="1" transform="matrix(10.88141 32.31696 -18.64256 6.27712 144.9 4.6)"/><path fill="#130100" d="M49-16l59 76-124-36z"/><ellipse fill="#58330f" rx="1" ry="1" transform="rotate(99.9 36.7 43.2) scale(23.62657 39.29012)"/><ellipse fill="#c6d3d6" cx="111" cy="45" rx="10" ry="10"/><path fill="#f7ffff" d="M176 136l-31-43-26 20z"/><ellipse fill="#faeebf" cx="87" cy="63" rx="16" ry="3"/><ellipse fill="#acaca7" rx="1" ry="1" transform="matrix(-1.49511 -18.44228 32.83413 -2.66186 45.3 94.2)"/></g></svg>