<svg xmlns="http://www.w3.org/2000/svg" viewBox="0 0 700 467"><filter id="b"><feGaussianBlur stdDeviation="12" /></filter><path fill="#344f52" d="M0 0h700v464H0z"/><g filter="url(#b)" transform="translate(1.4 1.4) scale(2.73438)" fill-opacity=".5"><ellipse fill="#a9e2da" rx="1" ry="1" transform="matrix(95.82739 -34.08526 14.36682 40.39091 153.5 65.9)"/><ellipse rx="1" ry="1" transform="rotate(178.5 6.7 42.1) scale(46.97657 212.36377)"/><ellipse fill="#0085ff" cx="242" cy="108" rx="42" ry="45"/><ellipse rx="1" ry="1" transform="rotate(6.1 -1532.8 1139.7) scale(192.12928 36.0771)"/><path fill="#5ad6eb" d="M110 80l99-64-149 7z"/><ellipse cx="154" cy="8" rx="255" ry="11"/><ellipse rx="1" ry="1" transform="matrix(-53.26276 -.01194 .0018 -8.02932 156 107)"/><ellipse fill="#da9c00" rx="1" ry="1" transform="rotate(-5.8 1110.2 -245.8) scale(38.03806 11.60273)"/><path fill="#ffdd72" d="M103 72h101v26H103z"/><ellipse fill="#0074d5" rx="1" ry="1" transform="matrix(40.6642 -20.53652 8.36999 16.57335 100.2 60)"/><ellipse cx="113" cy="159" rx="144" ry="16"/><ellipse rx="1" ry="1" transform="matrix(-5.56836 53.82403 -36.57532 -3.7839 23.6 49.3)"/><path fill="#fffa44" d="M204 16h52v16h-52z"/><path fill="#ffffb2" d="M109 20h47v12h-47z"/><ellipse fill="#dfd7e6" cx="101" cy="114" rx="46" ry="7"/><path fill="#105549" d="M170 84.6l-29-16 15-27.2 29 16z"/><ellipse cx="159" cy="4" rx="255" ry="13"/><path fill="#beb25a" d="M59 27.7l25.7 43.5 10.1-42.7-13.5-11z"/><path fill="#70f7ff" d="M196.2 62l-26-15 15.6-27 26 15z"/><path fill="#ffde81" d="M111 68h38v33h-38z"/><ellipse fill="#010000" rx="1" ry="1" transform="matrix(-38.35972 1.2055 -.24087 -7.66462 164 104.8)"/><ellipse cx="52" cy="157" rx="143" ry="25"/></g></svg>