<svg xmlns="http://www.w3.org/2000/svg" viewBox="0 0 200 133"><filter id="b"><feGaussianBlur stdDeviation="12" /></filter><path fill="#756b73" d="M0 0h200v133H0z"/><g filter="url(#b)" transform="translate(.5 .5)" fill-opacity=".5"><ellipse fill="#fff" cx="174" cy="8" rx="52" ry="19"/><ellipse fill="#fbffff" cx="29" cy="7" rx="40" ry="21"/><ellipse fill="#fff" rx="1" ry="1" transform="matrix(.33826 64.60154 -9.10276 .04766 65 114.1)"/><ellipse fill="#211c23" cx="122" cy="62" rx="38" ry="38"/><ellipse fill="#0e0e1e" cy="69" rx="42" ry="42"/><ellipse rx="1" ry="1" transform="matrix(-6.36474 -18.27704 33.52021 -11.67297 189.7 74.8)"/><ellipse fill="#000017" cx="187" cy="39" rx="20" ry="14"/><ellipse fill="#ffcec3" cx="41" cy="118" rx="81" ry="8"/><ellipse fill="#1e1e2d" rx="1" ry="1" transform="matrix(2.78822 -14.88092 39.55484 7.41133 82.5 43.5)"/><ellipse fill="#703439" cx="165" cy="114" rx="47" ry="29"/><ellipse fill="#c7e1ff" rx="1" ry="1" transform="matrix(27.72917 52.36822 -8.30764 4.39893 150.2 18.5)"/><path fill="#fbd8f7" d="M215-14l-5 39-117-1z"/><path fill="#c8f1ff" d="M30.8 0l23.6 26.5-7.2-24-27.5 84z"/><path fill="#ffe" d="M56 53h16v64H56z"/><path fill="#b9958d" d="M80 71h24v59H80z"/><ellipse fill="#ce93a2" cx="170" cy="117" rx="33" ry="6"/><path fill="#fcceb2" d="M125.6 38.9l5-.6 3.8 36.8-5 .6z"/><path fill="#191926" d="M153.3 45L166 57.7 130.7 93 118 80.3z"/><ellipse fill="#25222a" cx="43" cy="79" rx="13" ry="13"/><ellipse fill="#241535" cx="199" cy="131" rx="91" ry="10"/><ellipse fill="#0b0b18" cy="57" rx="22" ry="30"/><ellipse fill="#6fa7a6" cx="104" cy="8" rx="27" ry="14"/></g></svg>