<svg xmlns="http://www.w3.org/2000/svg" viewBox="0 0 700 467"><filter id="b"><feGaussianBlur stdDeviation="12" /></filter><path fill="#301e2e" d="M0 0h700v464H0z"/><g filter="url(#b)" transform="translate(1.4 1.4) scale(2.73438)" fill-opacity=".5"><path fill="#fccfff" d="M20 111l200-1-65-73z"/><path fill="#9998f9" d="M93 110l104-63-126-2z"/><ellipse cx="114" cy="159" rx="255" ry="46"/><ellipse cx="233" cy="39" rx="47" ry="47"/><ellipse fill="#060000" rx="1" ry="1" transform="matrix(-28.21424 -10.28622 46.8912 -128.61865 39.5 55.7)"/><ellipse fill="#ffd5d7" rx="1" ry="1" transform="matrix(-5.14187 15.36364 -20.66608 -6.91649 78.3 98.2)"/><path d="M20 16h221v30H20z"/><ellipse fill="#ff07ff" rx="1" ry="1" transform="rotate(-131 102.4 -11.2) scale(8.64276 15.64633)"/><path fill="#ffa9ef" d="M115 99h111v11H115z"/><path fill="#ff2aec" d="M101.3 73.1L82 78l-7.2-29.1L94 44z"/><ellipse fill="#5e2a4e" rx="1" ry="1" transform="matrix(3.31005 -10.98197 32.63031 9.83502 191.2 85.6)"/><ellipse fill="#31afca" cx="139" cy="66" rx="27" ry="21"/><path fill="#601f3d" d="M119.7 78.2L116.4 94l-38.1-8.1L81.6 70z"/><ellipse cx="210" cy="135" rx="31" ry="31"/><ellipse fill="#b12d87" cx="51" cy="94" rx="11" ry="17"/><ellipse fill="#c912b8" rx="1" ry="1" transform="matrix(17.00385 2.5149 -1.27913 8.6485 255 44)"/><path fill="#fffeff" d="M62 99h120v7H62z"/><ellipse fill="#000002" rx="1" ry="1" transform="matrix(40.41956 -7.8491 1.24117 6.39148 200.7 73.1)"/><ellipse cx="122" cy="153" rx="255" ry="31"/><ellipse fill="#c816af" rx="1" ry="1" transform="matrix(19.24681 -5.12118 1.93197 7.2609 0 41.9)"/><path fill="#de00b0" d="M19 100h21v10H19z"/><ellipse fill="#ed8f8f" cx="216" cy="98" rx="8" ry="14"/></g></svg>