<svg xmlns="http://www.w3.org/2000/svg" viewBox="0 0 200 133"><filter id="b"><feGaussianBlur stdDeviation="12" /></filter><path fill="#747776" d="M0 0h200v133H0z"/><g filter="url(#b)" transform="translate(.5 .5)" fill-opacity=".5"><ellipse fill="#00000d" rx="1" ry="1" transform="rotate(160.8 40.9 38.9) scale(30.89778 38.21255)"/><ellipse fill="#d4d6d5" cx="79" cy="132" rx="199" ry="17"/><ellipse fill="#bcf1ff" cx="35" cy="2" rx="34" ry="10"/><ellipse fill="#414241" rx="1" ry="1" transform="matrix(-32.38651 3.9192 -1.86576 -15.41782 99.9 110.6)"/><ellipse fill="#34362b" rx="1" ry="1" transform="rotate(-142.7 5.9 17.4) scale(47.10469 24.72017)"/><path fill="#cad9d5" d="M96.2 103.5l-5-23.5 16.6-3.5 5 23.5z"/><ellipse fill="#03050b" rx="1" ry="1" transform="matrix(6.01889 -47.30324 12.54366 1.59606 83.9 71)"/><ellipse fill="#a8aca5" cx="44" cy="91" rx="25" ry="37"/><ellipse fill="#abac9d" rx="1" ry="1" transform="matrix(15.89997 -3.84035 14.84716 61.47078 182.5 89)"/><ellipse fill="#a6b2b2" cx="147" rx="19" ry="35"/><ellipse fill="#423f2f" cx="199" cy="29" rx="19" ry="29"/><path fill="#b5b5ac" d="M136 102.5l-17.5-4 9.5-41 17.5 4z"/><ellipse fill="#5e6169" cx="115" cy="34" rx="19" ry="22"/><path fill="#434138" d="M44 94l-56 11 62 5z"/><path fill="#483e2b" d="M223.8 104.1l-92.5 9.7-1-10 92.4-9.6z"/><path fill="#29363e" d="M152.4 70.1L168.7 94 158 90.6l-29.4 2.7z"/><ellipse fill="#babbb7" rx="1" ry="1" transform="matrix(-1.04574 7.53622 -55.13661 -7.65084 39.8 121.3)"/><ellipse fill="#d9dad2" rx="1" ry="1" transform="matrix(-13.57551 .71146 -.18507 -3.53126 146.2 98.8)"/><ellipse fill="#9098a3" rx="1" ry="1" transform="matrix(-11.3083 -11.71008 39.08192 -37.74097 77.4 0)"/><ellipse fill="#c3c1bc" cx="159" cy="114" rx="36" ry="4"/><ellipse fill="#cfd5cf" rx="1" ry="1" transform="matrix(-28.40199 4.19404 -.56714 -3.84067 35 89.8)"/><ellipse fill="#c5ceca" rx="1" ry="1" transform="matrix(-24.14114 15.43818 -3.12085 -4.88017 196.3 65.5)"/></g></svg>