<svg xmlns="http://www.w3.org/2000/svg" viewBox="0 0 700 467"><filter id="b"><feGaussianBlur stdDeviation="12" /></filter><path fill="#aba8a5" d="M0 0h700v464H0z"/><g filter="url(#b)" transform="translate(1.4 1.4) scale(2.73438)" fill-opacity=".5"><ellipse fill="#5b5955" rx="1" ry="1" transform="rotate(121.8 104.8 93) scale(23.59103 121.17916)"/><ellipse fill="#4f1612" cx="32" cy="70" rx="23" ry="23"/><ellipse fill="#d8e2e3" cx="183" cy="169" rx="93" ry="93"/><ellipse fill="#4d3516" cx="85" cy="117" rx="23" ry="15"/><ellipse cy="164" rx="14" ry="14"/><ellipse fill="#523934" cx="92" cy="40" rx="20" ry="20"/><ellipse fill="#d1edf4" cx="29" cy="134" rx="28" ry="36"/><path fill="#8e7f79" d="M132 0h92v52h-92z"/><ellipse fill="#414844" cx="228" cy="49" rx="19" ry="21"/><ellipse fill="#c4dddf" cx="70" cy="159" rx="25" ry="28"/><path d="M1 146.5l13.2 17.6L-1 175.5l-13.2-17.6z"/><path fill="#645b48" d="M92.3 113L73.7 82.2l12-7.2 18.6 30.8z"/><path fill="#dcb5af" d="M102 92l17-64 120 95z"/><path fill="#763513" d="M11.9 29.7l19.7 25.2-9.5 7.4L2.4 37.1z"/><path fill="#c0c7c4" d="M170.5-6.6l13.2 36 76 135.7-63.4-136.5z"/><ellipse fill="#86796d" cx="49" rx="9" ry="95"/><path fill="#381312" d="M26 91l9-31 14 24z"/><path fill="#000001" d="M254.3 98L247 84.9l8.7-4.9 7.3 13.1z"/><ellipse fill="#ccdadf" rx="1" ry="1" transform="rotate(-22.3 261.7 51.6) scale(18.66977 44.77655)"/><path fill="#c3c6cc" d="M0 59h29v12H0z"/><path fill="#c4d0d0" d="M264 185L245 70l-41-3z"/><path fill="#a8b3b4" d="M223 41h9v66h-9z"/></g></svg>