<svg xmlns="http://www.w3.org/2000/svg" viewBox="0 0 700 467"><filter id="b"><feGaussianBlur stdDeviation="12" /></filter><path fill="#736b70" d="M0 0h700v464H0z"/><g filter="url(#b)" transform="translate(1.4 1.4) scale(2.73438)" fill-opacity=".5"><ellipse fill="#fff" rx="1" ry="1" transform="matrix(-.24874 -30.99935 57.83832 -.4641 210 5.1)"/><ellipse fill="#fdffff" cx="30" cy="9" rx="57" ry="26"/><ellipse fill="#fff" rx="1" ry="1" transform="rotate(177.6 40 67.4) scale(10.69516 74.41933)"/><ellipse fill="#20181f" rx="1" ry="1" transform="rotate(-67.2 156.9 -93) scale(37.47585 109.87508)"/><ellipse fill="#0a0d1d" cy="87" rx="53" ry="53"/><ellipse fill="#000012" rx="1" ry="1" transform="matrix(-36.56384 -13.59797 5.62244 -15.11827 248 53.6)"/><ellipse fill="#ffd0c2" cx="55" cy="151" rx="102" ry="10"/><path fill="#efffff" d="M234.5 89.3l-7.7 4.7-23.3-37.3 7.7-4.7z"/><ellipse fill="#f4e4ff" cx="228" cy="12" rx="63" ry="22"/><ellipse cx="246" cy="93" rx="18" ry="25"/><ellipse fill="#1e0019" cx="221" cy="169" rx="84" ry="13"/><ellipse fill="#bdebfd" rx="1" ry="1" transform="matrix(5.43727 1.79017 -16.61088 50.45206 44.4 41.8)"/><ellipse fill="#fffff7" cx="82" cy="112" rx="10" ry="41"/><ellipse fill="#0e0607" rx="1" ry="1" transform="matrix(-4.45398 -35.75871 9.4637 -1.17877 168.1 123.3)"/><path fill="#bea08f" d="M159 46h15v45h-15z"/><ellipse fill="#c0e6fe" rx="1" ry="1" transform="matrix(11.0979 -3.7681 7.52592 22.16552 199.3 36.9)"/><ellipse fill="#7dabab" cx="135" cy="3" rx="34" ry="31"/><ellipse fill="#b06660" cx="204" cy="134" rx="25" ry="25"/><ellipse fill="#0f0d12" cx="58" cy="104" rx="13" ry="13"/><path fill="#b9e9ff" d="M233 71l-17-12-17 30z"/><ellipse fill="#0b0f21" cx="68" cy="52" rx="10" ry="19"/><ellipse fill="#0e0c17" cy="75" rx="29" ry="41"/></g></svg>