<svg xmlns="http://www.w3.org/2000/svg" viewBox="0 0 700 467"><filter id="b"><feGaussianBlur stdDeviation="12" /></filter><path fill="#3c1e72" d="M0 0h700v464H0z"/><g filter="url(#b)" transform="translate(1.4 1.4) scale(2.73438)" fill-opacity=".5"><ellipse fill="#7b36f7" cx="29" cy="114" rx="49" ry="79"/><ellipse fill="#050c00" cx="119" cy="115" rx="46" ry="46"/><ellipse fill="#0b0b0f" rx="1" ry="1" transform="matrix(3.20588 -33.31959 118.98221 11.448 181.6 1.7)"/><ellipse fill="#6c42c0" cx="173" cy="142" rx="30" ry="30"/><ellipse cx="168" cy="97" rx="45" ry="11"/><path fill="#ef6070" d="M190.9 84l37.8-35.2 9-25.3-24 68z"/><ellipse fill="#5c2207" rx="1" ry="1" transform="rotate(170.2 54.7 34.6) scale(18.81889 30.30703)"/><ellipse fill="#030a07" rx="1" ry="1" transform="matrix(-5.72277 66.75325 -30.1864 -2.58789 117.2 167.6)"/><ellipse fill="#f25997" cx="133" cy="62" rx="18" ry="10"/><path d="M128 34l-36 7 6 37z"/><path fill="#ab7261" d="M107.2 101.3l8.2-26.7 13.4 4-8.2 26.8z"/><ellipse fill="#3a1d93" rx="1" ry="1" transform="rotate(-52.6 79.8 -34.8) scale(21.04165 46.06638)"/><path fill="#eda5f4" d="M135 147l-4-13-3 29z"/><ellipse fill="#6926d8" rx="1" ry="1" transform="matrix(28.37205 -11.11888 25.34618 64.67583 6.6 77)"/><path fill="#714bba" d="M146 108h15v46h-15z"/><path d="M177.8 113.7l-45.5-20 59.8-3.4 30.4-2.4z"/><ellipse fill="#442297" cx="226" cy="152" rx="55" ry="55"/><ellipse fill="#482198" rx="1" ry="1" transform="matrix(-22.12139 17.79143 -12.07402 -15.01252 185.4 67.9)"/><path fill="#ff9237" d="M211.2 70.2l6.9 4.1-9.3 15.5-6.9-4.1z"/><path fill="#c44150" d="M126 81l-6 14-16-38z"/><path fill="#38208f" d="M132 50l29 24 21-34z"/><ellipse fill="#43209a" rx="1" ry="1" transform="matrix(-9.69724 16.71078 -74.50648 -43.236 17 37.3)"/></g></svg>