<svg xmlns="http://www.w3.org/2000/svg" viewBox="0 0 700 467"><filter id="b"><feGaussianBlur stdDeviation="12" /></filter><path fill="#9c8371" d="M0 0h700v464H0z"/><g filter="url(#b)" transform="translate(1.4 1.4) scale(2.73438)" fill-opacity=".5"><ellipse fill="#020000" rx="1" ry="1" transform="rotate(-102.4 157.7 -2.7) scale(52.12134 104.84119)"/><ellipse fill="#fffff3" cx="81" cy="20" rx="163" ry="51"/><ellipse cx="22" cy="129" rx="21" ry="53"/><ellipse fill="#29001b" cx="105" cy="89" rx="26" ry="30"/><ellipse fill="#fff5d0" rx="1" ry="1" transform="matrix(-7.27149 -52.997 21.23168 -2.9131 55.9 67.1)"/><ellipse fill="#ffffd7" cx="219" cy="58" rx="22" ry="35"/><ellipse fill="#ff9af0" rx="1" ry="1" transform="matrix(4.38277 -16.94691 29.74986 7.69384 95.7 130.2)"/><ellipse cx="158" cy="82" rx="10" ry="29"/><ellipse cx="66" cy="162" rx="16" ry="16"/><ellipse rx="1" ry="1" transform="matrix(-16.01077 -43.27741 29.59415 -10.94855 220.8 155.3)"/><ellipse rx="1" ry="1" transform="rotate(-148.2 131 -24.1) scale(12.27082 29.66466)"/><ellipse fill="#ffffe5" rx="1" ry="1" transform="matrix(-30.82711 38.755 -11.33568 -9.0168 0 82)"/><path fill="#fffbba" d="M147 41l-24 69 18 20z"/><path d="M46 113l-62 11 48-50z"/><ellipse fill="#22210f" rx="1" ry="1" transform="matrix(-6.16 -3.20937 14.05264 -26.97237 180.8 76.2)"/><ellipse fill="#ffe7c7" rx="1" ry="1" transform="rotate(102 54.5 58.9) scale(28.23887 95.52635)"/><ellipse fill="#c66320" cx="169" cy="151" rx="19" ry="19"/><path fill="#a86d03" d="M27 12h20v26H27z"/><path fill="#f9d5b5" d="M206 134l-16-37 13 3z"/><ellipse fill="#040600" rx="1" ry="1" transform="rotate(122.1 -37 86.4) scale(28.98748 19.09502)"/><path fill="#ffffd7" d="M169 48h11v33h-11z"/><path d="M97 138h10v32H97z"/></g></svg>