<svg xmlns="http://www.w3.org/2000/svg" viewBox="0 0 200 133"><filter id="b"><feGaussianBlur stdDeviation="12" /></filter><path fill="#4c3e39" d="M0 0h200v133H0z"/><g filter="url(#b)" transform="translate(.5 .5)" fill-opacity=".5"><ellipse fill="#a9ffff" rx="1" ry="1" transform="matrix(-24.12638 5.9135 -4.70998 -19.21614 90.8 47.3)"/><ellipse fill="#ba8671" rx="1" ry="1" transform="matrix(-.56146 -14.88387 126.13229 -4.75803 95.7 90.5)"/><ellipse cx="104" cy="10" rx="197" ry="18"/><ellipse cx="116" cy="132" rx="199" ry="16"/><path fill="#7cc0ff" d="M73 29h42v32H73z"/><ellipse fill="#949a7c" rx="1" ry="1" transform="rotate(6.8 -240.7 1392.8) scale(28.36598 13.24455)"/><ellipse fill="#100000" cx="173" cy="132" rx="91" ry="28"/><ellipse fill="#b9ae8f" cx="197" cy="43" rx="3" ry="39"/><ellipse fill="#8c8663" rx="1" ry="1" transform="matrix(4.39188 11.88577 -22.69429 8.38572 21.2 40.6)"/><ellipse cx="57" cy="40" rx="10" ry="30"/><ellipse fill="#ffbfa1" cx="81" cy="98" rx="136" ry="2"/><ellipse fill="#381d12" cx="29" cy="89" rx="9" ry="39"/><path fill="#252c2f" d="M68 64h38v26H68z"/><path fill="#0072ff" d="M70 28h51v7H70z"/><path d="M114 34h17v27h-17z"/><path fill="#dbb1a5" d="M18.8 88l8-17h-15l7 36.1z"/><path fill="#c6d6fc" d="M68 39h34v24H68z"/><path fill="#f4b28b" d="M60 63h7v39h-7z"/><ellipse fill="#774f43" cx="80" rx="55" ry="8"/><ellipse cx="44" cy="14" rx="194" ry="8"/><ellipse fill="#59250e" cx="162" cy="91" rx="62" ry="4"/><path fill="#0b0000" d="M52.7 120.4l-56.3-12.2L2.8 148 215 126.3z"/></g></svg>