<svg xmlns="http://www.w3.org/2000/svg" viewBox="0 0 700 467"><filter id="b"><feGaussianBlur stdDeviation="12" /></filter><path fill="#380226" d="M0 0h700v464H0z"/><g filter="url(#b)" transform="translate(1.4 1.4) scale(2.73438)" fill-opacity=".5"><ellipse fill="#de1fc9" rx="1" ry="1" transform="rotate(-178.4 67.8 18.3) scale(38.83017 45.15278)"/><ellipse cx="212" cy="143" rx="71" ry="71"/><ellipse cx="42" cy="144" rx="69" ry="69"/><ellipse fill="#9c006f" rx="1" ry="1" transform="matrix(16.34244 -23.42633 18.97903 13.23995 27.7 51)"/><path fill="#ff76e3" d="M158.6 35.5l-.2 16-59-1 .2-16z"/><ellipse fill="#620050" rx="1" ry="1" transform="matrix(84.03064 -.63327 .15936 21.14644 127.7 10.4)"/><path fill="#ec0cff" d="M85 70h93v6H85z"/><ellipse fill="#850064" cx="245" cy="49" rx="28" ry="28"/><ellipse fill="#000100" cx="218" cy="145" rx="60" ry="45"/><path fill="#a50082" d="M75 0h49v17H75z"/><ellipse fill="#0a000a" rx="1" ry="1" transform="matrix(-60.66996 .8353 -.0612 -4.4445 159.6 19)"/><ellipse rx="1" ry="1" transform="rotate(-109.8 48.1 62.2) scale(67.50044 40.05938)"/><ellipse fill="#ef089b" rx="1" ry="1" transform="matrix(-1.81506 8.46652 -24.95454 -5.3498 126.3 52.5)"/><path fill="#ab03ff" d="M86 29h7v13h-7z"/><path fill="#c7fcc8" d="M118 36h30v7h-30z"/><ellipse fill="#890033" cx="128" cy="115" rx="13" ry="18"/><ellipse fill="#5e0047" rx="1" ry="1" transform="matrix(11.78053 -.56575 2.06886 43.07923 185.9 51.3)"/><path fill="#f211af" d="M113.4 55l38.7-2 18.6-9.5-7.3-11.3z"/><ellipse fill="#3d0000" cx="119" cy="155" rx="34" ry="34"/><ellipse fill="#25000e" cx="7" cy="24" rx="26" ry="26"/><ellipse fill="#080100" rx="1" ry="1" transform="matrix(-35.31773 29.0278 -12.5964 -15.32587 80.8 116)"/><path fill="#0c0000" d="M201 102l23-88h-26z"/></g></svg>