<svg xmlns="http://www.w3.org/2000/svg" viewBox="0 0 700 467"><filter id="b"><feGaussianBlur stdDeviation="12" /></filter><path fill="#562f2f" d="M0 0h700v464H0z"/><g filter="url(#b)" transform="translate(1.4 1.4) scale(2.73438)" fill-opacity=".5"><ellipse fill="#fff" rx="1" ry="1" transform="matrix(8.10295 58.50592 -22.34204 3.09433 140.7 129)"/><ellipse fill="#4b9fc2" rx="1" ry="1" transform="rotate(136.4 12.9 40) scale(37.89844 34.982)"/><ellipse fill="#000b13" cx="153" cy="23" rx="77" ry="77"/><path fill="#cce3ff" d="M136 17h38v29h-38z"/><ellipse fill="#f5682b" rx="1" ry="1" transform="rotate(78.7 -62.7 92) scale(91.68122 20.22101)"/><ellipse fill="#760000" cx="201" cy="118" rx="48" ry="48"/><ellipse fill="azure" rx="1" ry="1" transform="matrix(-13.71173 -37.46906 17.40557 -6.36953 137 132.3)"/><ellipse fill="#a80000" cx="70" cy="169" rx="53" ry="53"/><ellipse fill="#00030c" rx="1" ry="1" transform="matrix(117.68695 -17.85616 4.31206 28.42006 70.5 8.8)"/><ellipse rx="1" ry="1" transform="matrix(-11.3314 -27.08916 37.16362 -15.54555 184.4 71.5)"/><ellipse fill="#0082e2" rx="1" ry="1" transform="rotate(-172.8 31.7 32.5) scale(19.81384 20.78917)"/><path d="M142-16l-32 133-51 16z"/><ellipse fill="#bf130b" cx="217" cy="24" rx="13" ry="44"/><path fill="#f8c1a4" d="M118.5 63.2l16-5.8 15 41.4-16 5.8z"/><ellipse cy="73" rx="15" ry="88"/><ellipse fill="#930000" rx="1" ry="1" transform="matrix(-27.12949 53.06942 -36.78762 -18.8061 208.5 146.7)"/><path fill="#ffd09b" d="M19 28h12v71H19z"/><ellipse fill="#a80000" rx="1" ry="1" transform="matrix(-66.78383 12.5971 -4.53726 -24.05442 49.1 160.4)"/><path fill="#eebd7b" d="M71.4 118.7l-15.8 6.5L30 93.7 32.5 82z"/><path fill="#e6d98a" d="M15.9 118l35.8 15-41 13 .8-6.8z"/><ellipse fill="#38666c" rx="1" ry="1" transform="matrix(24.12409 -5.54898 20.99136 91.25963 246.7 15)"/><path d="M44.1 88.1l31-2.2.8 12-31 2.2z"/></g></svg>