<svg xmlns="http://www.w3.org/2000/svg" viewBox="0 0 641 195"><filter id="b"><feGaussianBlur stdDeviation="12" /></filter><path fill="#6b6c5d" d="M0 0h641v192H0z"/><g filter="url(#b)" transform="translate(1.3 1.3) scale(2.5039)" fill-opacity=".5"><ellipse fill="#cde4ff" cx="40" cy="51" rx="24" ry="35"/><ellipse fill="#fff" rx="1" ry="1" transform="matrix(-1.99949 -35.76346 17.319 -.96828 133.2 42)"/><ellipse cx="92" cy="42" rx="18" ry="31"/><ellipse fill="#191d00" cx="182" cy="61" rx="30" ry="35"/><ellipse fill="#455e00" cx="212" cy="17" rx="38" ry="38"/><ellipse rx="1" ry="1" transform="rotate(171.7 2.6 21.7) scale(5.45474 43.79496)"/><path fill="#c8c5ad" d="M179.6 26l7.1 29 14.6-6.4-21.1-26.3z"/><path fill="#050005" d="M81 11h32v49H81z"/><ellipse fill="#e1cdeb" rx="1" ry="1" transform="matrix(.4997 -55.16684 10.10802 .09156 121.1 11.7)"/><path fill="#aecaff" d="M38 92l-2-73 39 23z"/><path fill="#fff" d="M250 0h5v37h-5z"/><ellipse fill="#09081d" rx="1" ry="1" transform="matrix(28.6143 -19.42245 3.9318 5.79257 23.8 20.2)"/><ellipse fill="#f8c9dc" rx="1" ry="1" transform="matrix(-11.04932 -1.6953 1.21693 -7.93146 67.4 4.6)"/><ellipse fill="#00000f" cx="66" cy="70" rx="5" ry="22"/><path fill="#223800" d="M223 63h27v14h-27z"/><ellipse fill="#442e30" cx="25" cy="76" rx="14" ry="14"/><path fill="#8d433f" d="M59 11h29v29H59z"/><ellipse fill="#e1e6e6" rx="1" ry="1" transform="matrix(-4.51962 .8607 -12.90278 -67.7544 145.6 75.4)"/><ellipse fill="#c9dcc1" rx="1" ry="1" transform="rotate(-105.8 84.8 -57) scale(27.97036 3.32601)"/><path fill="#070001" d="M159 44h24v33h-24z"/><path fill="#d4d9f0" d="M17 12.6L2.7 3.3 13-12.6l14.3 9.3z"/><ellipse fill="#2e4000" cx="235" cy="7" rx="16" ry="29"/></g></svg>