<svg xmlns="http://www.w3.org/2000/svg" viewBox="0 0 700 467"><filter id="b"><feGaussianBlur stdDeviation="12" /></filter><path fill="#562f2f" d="M0 0h700v464H0z"/><g filter="url(#b)" transform="translate(1.4 1.4) scale(2.73438)" fill-opacity=".5"><ellipse fill="#fff" rx="1" ry="1" transform="matrix(20.28918 -3.37668 11.12202 66.82808 141 137.8)"/><ellipse fill="#58b6da" cx="42" cy="65" rx="32" ry="32"/><ellipse fill="#002337" cx="112" cy="15" rx="86" ry="86"/><path fill="#980000" d="M238.6 75.1l38.3 86-89.5 39.8-38.3-86z"/><path fill="#d4dffc" d="M135 17h39v26h-39z"/><ellipse fill="#f46527" rx="1" ry="1" transform="rotate(-100.8 78.2 53.2) scale(103.00026 19.35222)"/><ellipse rx="1" ry="1" transform="matrix(39.2143 -14.19538 10.33653 28.55436 186.7 71.8)"/><ellipse fill="#b70000" rx="1" ry="1" transform="rotate(165.7 20 88.3) scale(62.64334 40.20416)"/><ellipse fill="#fcffff" rx="1" ry="1" transform="matrix(16.26662 -5.29992 13.65988 41.92517 135.8 139)"/><ellipse fill="#0793e3" rx="1" ry="1" transform="matrix(18.24855 -14.61049 15.2645 19.0654 61.5 65)"/><ellipse cx="6" cy="51" rx="9" ry="104"/><path d="M140 0L75 2l29 133z"/><ellipse fill="#eba177" rx="1" ry="1" transform="matrix(-8.81943 -19.0709 10.44826 -4.83184 132.3 77.8)"/><ellipse fill="#cf9755" rx="1" ry="1" transform="matrix(6.50736 12.35242 -30.5014 16.0684 39.9 122.5)"/><path d="M108.5 123.6l-34.8 3.6-4.2-40.8 34.8-3.6z"/><ellipse rx="1" ry="1" transform="rotate(167.8 14.7 1.6) scale(49.26024 26.3026)"/><ellipse fill="#130000" rx="1" ry="1" transform="rotate(145.4 91.4 40) scale(19.00211 47.42532)"/><path fill="#e6b987" d="M56 121L23 28 11 81z"/><ellipse fill="#a90000" rx="1" ry="1" transform="matrix(9.79038 -3.13014 33.4132 104.50895 220.6 50.8)"/><ellipse rx="1" ry="1" transform="matrix(8.95766 -22.85724 33.64 13.18337 173.8 72)"/><ellipse fill="#e46e42" rx="1" ry="1" transform="matrix(-7.91268 -26.75685 4.86904 -1.4399 80.5 58.5)"/><ellipse cx="60" cy="95" rx="15" ry="8"/></g></svg>