<svg xmlns="http://www.w3.org/2000/svg" viewBox="0 0 700 467"><filter id="b"><feGaussianBlur stdDeviation="12" /></filter><path fill="#8b846e" d="M0 0h700v464H0z"/><g filter="url(#b)" transform="translate(1.4 1.4) scale(2.73438)" fill-opacity=".5"><ellipse fill="#d0e7db" cx="211" rx="90" ry="90"/><ellipse fill="#552800" cx="177" cy="169" rx="208" ry="78"/><ellipse fill="#c5d9d1" rx="1" ry="1" transform="matrix(-32.40786 -48.50592 64.67373 -43.20993 59.6 26.7)"/><ellipse fill="#e3f2ff" cx="57" cy="99" rx="11" ry="30"/><ellipse fill="#000d12" cx="229" cy="157" rx="28" ry="44"/><ellipse fill="#e9f8fa" rx="1" ry="1" transform="rotate(-14 333.9 -985.4) scale(19.95152 74.343)"/><ellipse fill="#e76100" cx="103" cy="169" rx="42" ry="42"/><ellipse fill="#11211b" rx="1" ry="1" transform="matrix(-34.91152 -29.86997 10.35932 -12.1078 26.7 117.3)"/><ellipse fill="#756d5b" cx="165" cy="82" rx="79" ry="41"/><ellipse fill="#b5dee3" rx="1" ry="1" transform="rotate(140.8 73.8 54.8) scale(33.49307 16.26552)"/><path fill="#000b28" d="M163.4 87.8l24.9 2.7-5.7 53.7-24.9-2.7z"/><path fill="#ffe8ce" d="M182.1 113.5l11.4-6.3 18.4 33.3-11.4 6.3z"/><path fill="#d67900" d="M127 96h31v45h-31z"/><path d="M138 42l-14 21 32-22z"/><ellipse fill="#a68867" rx="1" ry="1" transform="matrix(4.8359 65.0374 -17.95406 1.33499 202.4 44.7)"/><path fill="red" d="M96 128h27v25H96z"/><path d="M40.4 110L30.3 97.6l9.3-7.6 10.1 12.4z"/><path fill="#202c2b" d="M173.2 94.2l-50.9 3.6-1.5-22 50.9-3.6z"/><path fill="#f1c3c1" d="M0 157.4L19.2 185l8.7-42.6-3.6 10.8z"/><path fill="#a28b00" d="M29 143h71v27H29z"/><path fill="#99a9b9" d="M104.4 73.8l27.5 21 4.3-16.2-39.9 47z"/><path fill="#fff" d="M19 0h7v94h-7z"/></g></svg>