<svg xmlns="http://www.w3.org/2000/svg" viewBox="0 0 200 133"><filter id="b"><feGaussianBlur stdDeviation="12" /></filter><path fill="#716c7d" d="M0 0h200v133H0z"/><g filter="url(#b)" transform="translate(.5 .5)" fill-opacity=".5"><ellipse fill="#f5dee2" rx="1" ry="1" transform="matrix(94.3312 -5.21003 1.55132 28.08763 161.6 42.6)"/><ellipse rx="1" ry="1" transform="rotate(-5.9 1236.2 -1475.1) scale(62.33884 28.80303)"/><ellipse rx="1" ry="1" transform="matrix(-40.17576 64.96117 -21.36642 -13.21423 33 127.6)"/><path fill="#eed2e2" d="M55.7 38.8l-40 46-29.4-25.6 40-46z"/><ellipse fill="#4f1600" cx="153" cy="68" rx="12" ry="42"/><ellipse fill="#fffff3" cx="79" cy="124" rx="17" ry="17"/><ellipse fill="#003695" rx="1" ry="1" transform="matrix(-2.96279 27.7235 -40.70722 -4.35035 69.6 3)"/><ellipse fill="#002370" rx="1" ry="1" transform="matrix(-21.69843 -21.46025 21.23772 -21.47343 11.7 120.3)"/><ellipse fill="#cfcbea" cx="189" cy="11" rx="27" ry="76"/><ellipse fill="#7e3a02" cx="55" cy="72" rx="24" ry="24"/><ellipse fill="#e1e3ff" cx="121" cy="29" rx="18" ry="18"/><path fill="#001673" d="M132.6 23.5l-15-27.1 35.8-19.9 15 27.1z"/><ellipse fill="#72524c" rx="1" ry="1" transform="rotate(163.8 49.8 52.6) scale(18.52741 34.10953)"/><ellipse fill="#dce3ff" cx="85" cy="75" rx="6" ry="32"/><ellipse fill="#003793" rx="1" ry="1" transform="matrix(31.48363 -24.46523 14.69464 18.91012 .3 4.4)"/><ellipse fill="#bcc3ef" rx="1" ry="1" transform="rotate(106.8 31 95.3) scale(25.6977 4.8892)"/><path fill="#0d0000" d="M41 88h28v32H41z"/><path fill="#928da1" d="M0 73h46v26H0z"/><ellipse fill="#000746" rx="1" ry="1" transform="rotate(52 -32.3 265.5) scale(32.63663 33.11827)"/><ellipse fill="#2e0500" cx="146" cy="113" rx="14" ry="30"/><path fill="#d7851e" d="M97 42h18v23H97z"/><path fill="#fffffc" d="M67 121h26v12H67z"/></g></svg>