<svg xmlns="http://www.w3.org/2000/svg" viewBox="0 0 200 133"><filter id="b"><feGaussianBlur stdDeviation="12" /></filter><path fill="#731920" d="M0 0h200v133H0z"/><g filter="url(#b)" transform="translate(.5 .5)" fill-opacity=".5"><ellipse fill="#ff0516" cx="106" cy="132" rx="72" ry="72"/><ellipse fill="#9be3ff" cx="87" cy="34" rx="13" ry="24"/><ellipse fill="#0c0702" cx="19" cy="55" rx="60" ry="60"/><ellipse fill="#000601" rx="1" ry="1" transform="rotate(179.3 87.4 3.1) scale(101.68259 14.857)"/><ellipse fill="#ff002d" cx="76" cy="132" rx="90" ry="15"/><ellipse fill="#ff056a" cx="192" cy="110" rx="26" ry="10"/><path fill="#f9281d" d="M42 60h17v46H42z"/><ellipse fill="#0c1d25" cx="123" cy="36" rx="28" ry="21"/><path fill="#838650" d="M145.9 17.5l71.8 5-1.6 22-71.8-5z"/><ellipse fill="#161712" cx="182" cy="78" rx="25" ry="25"/><path fill="#ff6913" d="M12 60h18v14H12z"/><ellipse fill="#030000" cx="67" cy="94" rx="7" ry="24"/><ellipse fill="#ea6f59" cx="131" cy="68" rx="33" ry="7"/><ellipse fill="#0b0e12" cx="135" cy="77" rx="6" ry="21"/><ellipse cx="23" cy="90" rx="23" ry="19"/><ellipse fill="#4e6099" rx="1" ry="1" transform="rotate(101.8 27 41.4) scale(17.3755 12.06843)"/><path fill="#ffbc7f" d="M115 9h8v8h-8z"/><ellipse fill="#000100" cx="101" cy="82" rx="5" ry="12"/><ellipse fill="#eae9e1" cx="87" cy="33" rx="5" ry="20"/><ellipse rx="1" ry="1" transform="matrix(-20.39328 6.0795 -3.5526 -11.91698 178.3 10)"/><path fill="#ff5648" d="M115.3 101.4L102 97.3l8.8-28.7 13.4 4.1z"/><ellipse fill="#0f0003" cx="24" cy="34" rx="19" ry="29"/></g></svg>