<svg xmlns="http://www.w3.org/2000/svg" viewBox="0 0 200 133"><filter id="b"><feGaussianBlur stdDeviation="12" /></filter><path fill="#767d7f" d="M0 0h200v133H0z"/><g filter="url(#b)" transform="translate(.5 .5)" fill-opacity=".5"><ellipse fill="#fffefb" rx="1" ry="1" transform="matrix(11.28443 33.19821 -50.42922 17.14144 69.9 18)"/><ellipse rx="1" ry="1" transform="rotate(-96 87.3 5.7) scale(57.07274 21.40543)"/><ellipse fill="#e9e4e0" rx="1" ry="1" transform="rotate(79.2 -37.2 78.1) scale(60.59521 24.61742)"/><ellipse rx="1" ry="1" transform="matrix(-.964 -110.46362 12.9555 -.11306 7.4 79.3)"/><ellipse fill="#fff" rx="1" ry="1" transform="matrix(4.74616 -.26558 5.54752 99.13983 157.4 72.7)"/><ellipse fill="#060605" cx="196" cy="39" rx="14" ry="123"/><ellipse fill="#09304e" rx="1" ry="1" transform="matrix(12.8021 -1.48125 7.14118 61.71937 140 64.2)"/><path d="M75 65h37v68H75z"/><path fill="#e1d8d6" d="M122 58l-4-74-80 48z"/><ellipse fill="#243634" cx="47" cy="32" rx="4" ry="116"/><ellipse fill="#dfe0e1" rx="1" ry="1" transform="matrix(-.91268 -20.0988 9.4345 -.42842 119.5 115)"/><path fill="#731600" d="M101 76h36v18h-36z"/><path fill="#fff" d="M62.2 104.1l-.4-18 12-.2.4 18z"/><path fill="#13415d" d="M153.5 91.7l1 56-30 .6-1-56z"/><ellipse fill="#d5d0d1" cx="33" cy="119" rx="12" ry="188"/><ellipse fill="#695552" cx="86" cy="51" rx="9" ry="25"/><ellipse fill="#090b10" cx="77" cy="70" rx="15" ry="15"/><path fill="#f0ebec" d="M55 0h9v133h-9z"/><path d="M111 0h3v26h-3z"/><path fill="#f1f1f5" d="M146 1.7l5.2 37 7.2-1.8 4.3-51.6z"/><path fill="#210f0e" d="M120 88l-8-39-15 9z"/><path d="M5 76l5 69-15 1-4.8-68.8z"/></g></svg>