<svg xmlns="http://www.w3.org/2000/svg" viewBox="0 0 200 133"><filter id="b"><feGaussianBlur stdDeviation="12" /></filter><path fill="#685340" d="M0 0h200v133H0z"/><g filter="url(#b)" transform="translate(.5 .5)" fill-opacity=".5"><ellipse fill="#e6ffff" cx="60" cy="58" rx="18" ry="18"/><ellipse fill="#000007" rx="1" ry="1" transform="matrix(58.28695 21.27392 -8.65817 23.72193 32 95.9)"/><ellipse fill="#00000a" rx="1" ry="1" transform="rotate(105.7 30.6 84.6) scale(43.14415 22.01328)"/><ellipse fill="#ffb438" rx="1" ry="1" transform="rotate(6.6 -61 833.8) scale(53.12318 15.39059)"/><ellipse fill="#f5dbc8" cx="164" cy="130" rx="44" ry="12"/><path fill="#fff" d="M145 37h12v28h-12zM23.2 5.7L19.1-9l-2.2 67.2 6 51.2z"/><path fill="#9ed5ff" d="M45 51h26v34H45z"/><path d="M27 43h16v34H27z"/><ellipse fill="#bd7226" cx="152" cy="10" rx="83" ry="32"/><ellipse fill="#000415" rx="1" ry="1" transform="matrix(-19.65009 5.74673 -7.81986 -26.73884 125.8 91.1)"/><ellipse fill="#ffd2da" cx="45" cy="38" rx="6" ry="15"/><path fill="#ffdebf" d="M23.6 122l1.5 14.9-48.7 5.1-1.5-14.9z"/><path fill="#fff" d="M97 49h5v31h-5z"/><path fill="#cb6f00" d="M199.1 122.3l13-50-25-8.9-7.8 47.8z"/><path fill="#2b0e00" d="M161 112.2L215 1.8l-34 101.6-3.1 13.4z"/><ellipse fill="#6f3900" rx="1" ry="1" transform="rotate(110.3 80 77.3) scale(15.61594 52.6146)"/><path fill="#fff" d="M168-16l16 18-14 2z"/><path fill="#ffd75b" d="M157 84h14v21h-14z"/><ellipse cx="49" cy="106" rx="29" ry="18"/><path fill="#3c1600" d="M51.9 49.7l20-31.5 54.4 16.5-81.3-12z"/><ellipse fill="#f8b163" cx="81" cy="5" rx="33" ry="17"/></g></svg>