<svg xmlns="http://www.w3.org/2000/svg" viewBox="0 0 700 467"><filter id="b"><feGaussianBlur stdDeviation="12" /></filter><path fill="#372c2c" d="M0 0h700v464H0z"/><g filter="url(#b)" transform="translate(1.4 1.4) scale(2.73438)" fill-opacity=".5"><ellipse fill="#f4d6ce" rx="1" ry="1" transform="matrix(-22.99747 -14.82086 41.29689 -64.08023 118 21.1)"/><path d="M104-16l10 90L81-7z"/><ellipse fill="#debeac" rx="1" ry="1" transform="matrix(-12.04144 -25.0649 20.3551 -9.7788 129.7 23.5)"/><ellipse fill="#050501" rx="1" ry="1" transform="matrix(-96.41648 -93.39663 20.61107 -21.2775 113.5 142.8)"/><ellipse cx="180" cy="7" rx="27" ry="39"/><path fill="#ceb1e3" d="M161 43l46 30-9-27z"/><path fill="#ffe1ff" d="M207.6 141.7l-13.5 11.5-10.4-7 7.9-9.3z"/><ellipse fill="#edf4ff" rx="1" ry="1" transform="matrix(-12.01517 1.53778 -1.96312 -15.33846 95 68.8)"/><ellipse fill="#8e635f" rx="1" ry="1" transform="matrix(-7.0882 18.95824 -24.18086 -9.04085 44.3 121.5)"/><path fill="#fff3ff" d="M109.5 46.1l.8-1.9-34.6-14 10.4-13.7z"/><ellipse cx="255" cy="36" rx="26" ry="51"/><path fill="#f7ffc3" d="M116 101l7-26 11 22z"/><ellipse rx="1" ry="1" transform="matrix(-25.73898 -.95352 1.49533 -40.36468 .7 95)"/><ellipse fill="#a98781" cx="2" cy="143" rx="48" ry="8"/><path fill="#000a00" d="M-5 1l70 58 27-74z"/><ellipse fill="#000100" rx="1" ry="1" transform="matrix(75.66318 -1.63466 .45225 20.9332 67.9 166.7)"/><ellipse cx="219" cy="151" rx="14" ry="74"/><path fill="#827c7e" d="M82.3 75.7l49.4-3.3-36.8 16.8L71 92.9z"/><path fill="#422532" d="M106 43h61v42h-61z"/><ellipse fill="#fff" cx="101" cy="70" rx="4" ry="20"/><ellipse fill="#856034" cx="216" cy="17" rx="10" ry="62"/><path fill="#b0b1b3" d="M44.4 110.2l-3-10.1L5 119.6l40.5-6.7z"/></g></svg>