<svg xmlns="http://www.w3.org/2000/svg" viewBox="0 0 700 467"><filter id="b"><feGaussianBlur stdDeviation="12" /></filter><path fill="#252f33" d="M0 0h700v464H0z"/><g filter="url(#b)" transform="translate(1.4 1.4) scale(2.73438)" fill-opacity=".5"><ellipse fill="#bea486" rx="1" ry="1" transform="matrix(9.20665 -22.44812 67.55917 27.70803 72 49.7)"/><ellipse fill="#a38b7e" cx="191" cy="49" rx="50" ry="21"/><ellipse cx="38" cy="141" rx="254" ry="62"/><ellipse fill="#0089f9" rx="1" ry="1" transform="matrix(163.14178 -.28474 .02333 13.36826 297 .8)"/><ellipse fill="#bfb9bd" rx="1" ry="1" transform="matrix(-.97243 -38.28874 8.6343 -.21929 97.7 69.5)"/><path fill="#907f73" d="M266 154.3L248.3 172 220 143.7l17.7-17.7z"/><path fill="#000101" d="M49 55l52 20-111 110z"/><path fill="#b18d66" d="M12 17h35v49H12z"/><ellipse fill="#aa9e8f" cx="178" cy="52" rx="11" ry="32"/><path d="M178.5 65.3l19.8-9.6 13.2 27-19.8 9.6z"/><path fill="#cab69d" d="M224 92l-13-18 8-33z"/><path fill="#8ca4c5" d="M72 110h15v17H72z"/><ellipse fill="#113f5f" rx="1" ry="1" transform="matrix(-17.51494 -26.98464 13.12703 -8.52037 64.8 18)"/><path fill="#90aebf" d="M99.8 124.1l2-20.5 1.7-3-21.1-35.2z"/><path fill="#000001" d="M137 57h26v113h-26z"/><path d="M226 73h30v60h-30z"/><path fill="#c8af9b" d="M115 26l-3 49-37-17z"/><path fill="#061317" d="M193 14h63v27h-63z"/><path fill="#9cc0d3" d="M163 101l8-17 6 15z"/><ellipse fill="#000002" cx="32" cy="105" rx="41" ry="41"/><path fill="#290b00" d="M17 15l4 41-37-1z"/><path fill="#4b85a7" d="M57.3 13L22.3.7l-19 32.2L-16 14.3z"/></g></svg>