<svg xmlns="http://www.w3.org/2000/svg" viewBox="0 0 700 467"><filter id="b"><feGaussianBlur stdDeviation="12" /></filter><path fill="#825f71" d="M0 0h700v464H0z"/><g filter="url(#b)" transform="translate(1.4 1.4) scale(2.73438)" fill-opacity=".5"><ellipse fill="#000b03" cx="119" cy="38" rx="84" ry="23"/><ellipse fill="#8f97ff" cx="128" cy="80" rx="47" ry="24"/><ellipse fill="#dcd6f7" rx="1" ry="1" transform="matrix(.05692 -18.13203 202.31241 .6351 119 1.2)"/><ellipse fill="#a62101" rx="1" ry="1" transform="rotate(15.8 -425.4 827) scale(72.86635 27.1095)"/><path fill="#d21f00" d="M13.5 179.5l23.3-63.9 51.7 18.9-23.3 63.9z"/><path fill="#fff7c2" d="M148.8 191.6l-28.7 4-10.9-77.2 28.7-4z"/><ellipse fill="#00250a" cx="67" cy="57" rx="21" ry="25"/><ellipse fill="#e3ffff" rx="1" ry="1" transform="rotate(19.8 -376.3 86.4) scale(10.50235 14.3899)"/><path fill="#092f25" d="M163 28h37v44h-37z"/><ellipse fill="#304491" rx="1" ry="1" transform="matrix(-6.09425 -37.21536 36.82035 -6.02956 0 85.5)"/><path fill="#d7b0d6" d="M209 90l23-8 31 60z"/><ellipse fill="#2573ff" cx="253" cy="87" rx="7" ry="27"/><ellipse fill="#0087df" rx="1" ry="1" transform="matrix(-2.54542 9.41094 -24.40035 -6.59968 176 87.8)"/><ellipse fill="#3f87ff" cx="99" cy="91" rx="33" ry="10"/><ellipse fill="#c41a00" cx="202" cy="78" rx="34" ry="7"/><path fill="#600" d="M86 126h27v27H86z"/><path fill="#ff2c46" d="M231 115h18v26h-18z"/><ellipse fill="#bf8bb5" rx="1" ry="1" transform="matrix(15.49099 -18.8256 28.35336 23.33109 225 16.8)"/><ellipse fill="#311b29" rx="1" ry="1" transform="matrix(15.7804 5.41913 -7.05707 20.55004 162.3 132.9)"/><ellipse fill="#bea5c6" rx="1" ry="1" transform="matrix(-3.01644 -19.2152 63.0738 -9.90144 42.6 8.4)"/><ellipse fill="#d39648" rx="1" ry="1" transform="matrix(126.81238 -3.79497 .4642 15.51154 121.1 169)"/><ellipse fill="#729df6" cx="18" cy="78" rx="6" ry="35"/></g></svg>