<svg xmlns="http://www.w3.org/2000/svg" viewBox="0 0 641 195"><filter id="b"><feGaussianBlur stdDeviation="12" /></filter><path fill="#a0abae" d="M0 0h641v192H0z"/><g filter="url(#b)" transform="translate(1.3 1.3) scale(2.5039)" fill-opacity=".5"><ellipse rx="1" ry="1" transform="matrix(6.58828 37.3243 -24.18934 4.26977 253.4 57.4)"/><ellipse fill="#090f14" cx="21" cy="50" rx="25" ry="28"/><ellipse fill="#fff" cx="203" cy="43" rx="26" ry="225"/><ellipse fill="#fff" cx="146" rx="37" ry="37"/><path d="M226.4 70.6l5.4-44.6 27.8 3.4-5.4 44.6z"/><ellipse fill="#d3e9ea" cx="72" cy="18" rx="20" ry="89"/><ellipse fill="#fffffb" rx="1" ry="1" transform="matrix(6.8329 -35.44836 10.81601 2.08485 130.1 41.4)"/><ellipse fill="#c6d4d2" cx="50" cy="61" rx="20" ry="9"/><path fill="#07120f" d="M238 13h18v64h-18z"/><path fill="#050e22" d="M11 45l-27 16 85 31z"/><path fill="#5d615c" d="M1 22h52v32H1z"/><path fill="#fff" d="M172.5 67.7l-29-7.7 2-7.7 29 7.7z"/><ellipse fill="#769891" rx="1" ry="1" transform="rotate(13.1 -108.2 737.7) scale(25.55092 14.22002)"/><path fill="#428d92" d="M67 58h22v19H67z"/><ellipse fill="#06391c" cx="105" rx="16" ry="5"/><path fill="#59776f" d="M93 15h24v32H93z"/><ellipse fill="#f7faf3" cx="206" cy="62" rx="20" ry="58"/><ellipse fill="#6dace7" cx="30" rx="26" ry="26"/><path fill="#55728c" d="M211-13l-38 4 17 23z"/><ellipse fill="#fff9f9" rx="1" ry="1" transform="matrix(-4.83488 -41.24962 4.99769 -.58578 85.4 19.9)"/><path fill="#58656e" d="M137 59l43 11-55 22z"/><ellipse fill="#edece9" rx="1" ry="1" transform="rotate(-58.8 83 -133.2) scale(22.83745 33.00634)"/></g></svg>