<svg xmlns="http://www.w3.org/2000/svg" viewBox="0 0 700 467"><filter id="b"><feGaussianBlur stdDeviation="12" /></filter><path fill="#909ea1" d="M0 0h700v464H0z"/><g filter="url(#b)" transform="translate(1.4 1.4) scale(2.73438)" fill-opacity=".5"><ellipse fill="#412600" cx="196" cy="74" rx="111" ry="22"/><ellipse fill="#fff" cx="43" cy="136" rx="103" ry="36"/><ellipse fill="#350000" rx="1" ry="1" transform="rotate(-108.8 172 -8.6) scale(26.53349 46.83231)"/><ellipse fill="#48d0ff" rx="1" ry="1" transform="matrix(.1011 28.96126 -150.64467 .52585 69 29.6)"/><ellipse fill="#bc6e1c" cx="239" cy="27" rx="24" ry="106"/><ellipse rx="1" ry="1" transform="rotate(-85.3 130.1 -57.5) scale(20.47809 28.19958)"/><path fill="#1f0000" d="M173.4 168.7l-40.7 25.4-18-28.8 40.6-25.4z"/><ellipse fill="#fff" cy="23" rx="25" ry="28"/><path fill="#d3d0cc" d="M208 78h25v57h-25z"/><ellipse fill="#fff" cx="172" cy="32" rx="15" ry="15"/><ellipse fill="#0088fe" cx="97" cy="47" rx="70" ry="10"/><ellipse fill="#cbc9bc" cx="129" cy="88" rx="12" ry="34"/><path fill="#394dff" d="M188 9h27v45h-27z"/><ellipse fill="#f8eee1" rx="1" ry="1" transform="matrix(118.32587 -30.56253 6.94246 26.87843 31 142.2)"/><ellipse fill="#473300" rx="1" ry="1" transform="matrix(-5.34525 -24.05107 9.44866 -2.09992 103.3 76.6)"/><path fill="#342200" d="M170 71h16v55h-16z"/><ellipse fill="#c3b3ad" cx="24" cy="89" rx="52" ry="26"/><ellipse fill="#81ccff" rx="1" ry="1" transform="matrix(36.70744 -22.40632 8.91756 14.60932 44.8 32.4)"/><path fill="#4c330a" d="M236 107h20v63h-20z"/><ellipse fill="#005496" cx="69" cy="56" rx="18" ry="8"/><ellipse fill="#fff" cy="21" rx="20" ry="25"/><ellipse fill="#43baff" cx="113" cy="20" rx="53" ry="17"/></g></svg>