<svg xmlns="http://www.w3.org/2000/svg" viewBox="0 0 200 133"><filter id="b"><feGaussianBlur stdDeviation="12" /></filter><path fill="#7a656b" d="M0 0h200v133H0z"/><g filter="url(#b)" transform="translate(.5 .5)" fill-opacity=".5"><ellipse fill="#ff2a00" cx="140" cy="132" rx="63" ry="63"/><ellipse fill="#fff" rx="1" ry="1" transform="matrix(-.26471 -12.63724 57.48493 -1.20414 175.5 72.6)"/><ellipse fill="#003991" cy="50" rx="72" ry="72"/><ellipse fill="#aeecec" cx="174" cy="31" rx="53" ry="53"/><ellipse fill="#860000" rx="1" ry="1" transform="rotate(5.8 -522.2 1039) scale(19.26332 67.93401)"/><ellipse fill="#d2e5d1" cx="72" cy="79" rx="11" ry="49"/><ellipse fill="#f71900" cx="174" cy="106" rx="96" ry="23"/><ellipse fill="#000007" cx="113" cy="32" rx="10" ry="57"/><ellipse fill="#004a80" rx="1" ry="1" transform="matrix(-37.1579 -6.33706 17.71211 -103.85648 34 19.8)"/><ellipse fill="#ff1f00" rx="1" ry="1" transform="matrix(4.81188 -70.58314 8.58518 .58528 94.3 39.3)"/><ellipse fill="#1f2d0c" cx="147" cy="53" rx="45" ry="8"/><ellipse fill="#d6e9dc" cx="78" cy="19" rx="10" ry="53"/><ellipse fill="#0057c4" cx="132" cy="122" rx="10" ry="10"/><ellipse fill="#fff" cx="161" cy="72" rx="42" ry="12"/><path fill="#9dc7cf" d="M19 128l19-20 75 25z"/><path fill="#101f20" d="M42.4 34.6l-.7 69L70 148l-.1-11.6z"/><path fill="#fff" d="M191 0h9v85h-9z"/><path fill="#293404" d="M127.1 17.3l60.4-8.5 1.4 10-60.4 8.4z"/><ellipse fill="#0076b3" rx="1" ry="1" transform="matrix(32.17976 -10.14624 12.4439 39.46698 7.5 84)"/><ellipse fill="#e7ffff" rx="1" ry="1" transform="matrix(-.62756 26.0295 -3.39709 -.0819 124.6 57.3)"/><ellipse fill="#fff" rx="1" ry="1" transform="rotate(74 72.9 96.7) scale(9.02789 23.65259)"/><ellipse fill="#002a63" cx="27" cy="12" rx="41" ry="41"/></g></svg>