<svg xmlns="http://www.w3.org/2000/svg" viewBox="0 0 200 133"><filter id="b"><feGaussianBlur stdDeviation="12" /></filter><path fill="#35407c" d="M0 0h200v133H0z"/><g filter="url(#b)" transform="translate(.5 .5)" fill-opacity=".5"><ellipse fill="#fff" cx="112" cy="132" rx="17" ry="88"/><path d="M-38.6 125.6l-.8-47 132-2.2.8 47z"/><path fill="#070600" d="M124.2 79.6l93.3-18.2 10.3 53-93.3 18.2z"/><ellipse fill="#2f48d1" cx="96" rx="61" ry="61"/><ellipse fill="#fdffff" cx="112" cy="132" rx="21" ry="35"/><path fill="#f0d6ac" d="M141 64l12-38 14 51z"/><ellipse fill="#fffffa" cx="113" cy="68" rx="17" ry="9"/><ellipse fill="#2c3668" cx="81" cy="85" rx="57" ry="10"/><path fill="#a3adef" d="M90.7 25.9l-25-28.7 19.6-17 25 28.6z"/><ellipse fill="#082cc1" cx="175" cy="3" rx="37" ry="37"/><ellipse fill="#061279" cx="23" cy="70" rx="73" ry="18"/><path fill="#aac0d8" d="M18 124h123v9H18z"/><ellipse fill="#00077d" cx="18" cy="12" rx="28" ry="28"/><ellipse fill="#060a10" cx="44" cy="106" rx="52" ry="18"/><path fill="#a67822" d="M122.2 49.4l-9.6 12.8-12.8-9.6 9.6-12.8z"/><ellipse fill="#7b6aad" cx="47" cy="46" rx="55" ry="7"/><ellipse fill="#b2b4b3" rx="1" ry="1" transform="matrix(4.68697 -.40658 .6815 7.85617 126.5 78.2)"/><ellipse fill="#1239cf" rx="1" ry="1" transform="matrix(-14.00724 9.06962 -16.3769 -25.29271 59.7 13.6)"/><ellipse fill="#e5ffff" cx="154" cy="63" rx="6" ry="6"/><ellipse fill="#0e1b7d" cx="199" cy="62" rx="27" ry="27"/><path fill="#0e1323" d="M0 90h95v34H0z"/><path fill="#0b218d" d="M118.1 5l12.4 20.5-32.6 19.6-12.4-20.6z"/></g></svg>