<svg xmlns="http://www.w3.org/2000/svg" viewBox="0 0 200 133"><filter id="b"><feGaussianBlur stdDeviation="12" /></filter><path fill="#4b494b" d="M0 0h200v133H0z"/><g filter="url(#b)" transform="translate(.5 .5)" fill-opacity=".5"><ellipse fill="#fff" cx="136" cy="4" rx="70" ry="39"/><ellipse fill="#000001" rx="1" ry="1" transform="matrix(1.04234 37.31637 -198.92241 5.5564 97.3 88.2)"/><ellipse fill="#fff" rx="1" ry="1" transform="rotate(159.2 72.8 17.6) scale(32.34529 13.83133)"/><ellipse fill="#917e7b" rx="1" ry="1" transform="matrix(4.46144 -21.00464 79.48873 16.88363 72.8 24.9)"/><ellipse fill="#6a625f" cx="171" cy="28" rx="24" ry="20"/><ellipse fill="#87929d" cx="156" cy="113" rx="6" ry="29"/><ellipse fill="#fff" cx="137" cy="6" rx="20" ry="20"/><path fill="#fff" d="M175 108V97l14 13z"/><path fill="#adb1b4" d="M27.2 91.9l10-.7 1.6 23-10 .6z"/><ellipse fill="#c9cfd2" rx="1" ry="1" transform="matrix(10.99035 23.35568 -12.53434 5.89821 192.9 11)"/><path fill="#786564" d="M56 6h39v51H56z"/><ellipse fill="#d6deda" rx="1" ry="1" transform="matrix(-.4229 -6.5512 57.44596 -3.70827 84.7 0)"/><path fill="#fff" d="M82.7 43.1l.7-6 14 1.8-.8 6z"/><ellipse fill="#fff" cx="181" rx="116" ry="6"/><ellipse cx="190" cy="97" rx="7" ry="33"/><path fill="#fff" d="M203 111.8l-2.8 5.3-5.3-2.9 2.9-5.3z"/><ellipse fill="#070a0b" cx="129" cy="99" rx="20" ry="31"/><path fill="#e6e5de" d="M101 96h4v15h-4z"/><ellipse rx="1" ry="1" transform="matrix(16.2359 16.16075 -9.65312 9.69801 9 89.4)"/><path fill="#fff" d="M10.9 125.3l-6 14.9-3.8-1.5 6-14.9zm-1.1-6l-1 .2-2.6-12.8 1-.2z"/><path fill="#8294a2" d="M100 2h22v33h-22z"/></g></svg>