<svg xmlns="http://www.w3.org/2000/svg" viewBox="0 0 200 133"><filter id="b"><feGaussianBlur stdDeviation="12" /></filter><path fill="#756b73" d="M0 0h200v133H0z"/><g filter="url(#b)" transform="translate(.5 .5)" fill-opacity=".5"><ellipse fill="#fff" rx="1" ry="1" transform="rotate(-93.4 88.6 -73) scale(16.32405 62.89985)"/><ellipse fill="#feffff" cx="26" cy="3" rx="42" ry="25"/><ellipse fill="#fff" cx="64" cy="109" rx="9" ry="62"/><path fill="#331f26" d="M205.4 23l28.9 71.3L128.6 137 99.7 65.7z"/><ellipse fill="#0d0f1f" cy="68" rx="42" ry="42"/><ellipse fill="#090b19" rx="1" ry="1" transform="matrix(-3.21918 22.976 -28.60705 -4.00815 98.3 50.2)"/><path fill="#ffd6ca" d="M0 111h118v12H0z"/><path fill="#dffbff" d="M182 81l-33-97-25 11z"/><ellipse fill="#c17979" cx="163" cy="107" rx="25" ry="17"/><path fill="#1e2335" d="M39 27h107v15H39z"/><ellipse fill="#aed5e7" rx="1" ry="1" transform="matrix(8.19594 2.63143 -10.07574 31.38224 35.4 31.3)"/><path d="M165 82l50-53v70z"/><ellipse fill="#fffff7" rx="1" ry="1" transform="matrix(5.28036 -.82369 4.77383 30.60336 62.4 85.3)"/><ellipse fill="#1a0018" rx="1" ry="1" transform="matrix(29.9467 .19113 -.06107 9.56807 180.2 132)"/><ellipse fill="#6f979b" rx="1" ry="1" transform="matrix(1.38537 -16.7185 26.38093 2.18604 104.4 9.3)"/><ellipse fill="#f5dcff" rx="1" ry="1" transform="matrix(-.49834 15.02225 -38.91944 -1.2911 180 11.8)"/><ellipse fill="#0c0f17" rx="1" ry="1" transform="rotate(176.7 73.9 42.4) scale(46.20506 7.20563)"/><path fill="#000014" d="M168 26h32v17h-32z"/><ellipse fill="#ba7a73" cx="106" cy="109" rx="20" ry="20"/><path fill="#19141c" d="M1 72h55v17H1z"/><ellipse fill="#c1dfeb" cx="10" cy="12" rx="60" ry="15"/><path fill="#9bcbe8" d="M148.4 74.8l34.2-29.5 8.4 5-36 23.5z"/></g></svg>