<svg xmlns="http://www.w3.org/2000/svg" viewBox="0 0 641 195"><filter id="b"><feGaussianBlur stdDeviation="12" /></filter><path fill="#6b6c5d" d="M0 0h641v192H0z"/><g filter="url(#b)" transform="translate(1.3 1.3) scale(2.5039)" fill-opacity=".5"><ellipse fill="#fffbff" rx="1" ry="1" transform="matrix(-19.62259 -.24344 .56845 -45.82096 131.8 51.7)"/><ellipse fill="#cee7ff" cx="41" cy="55" rx="22" ry="40"/><ellipse rx="1" ry="1" transform="rotate(-167.3 49.1 13.7) scale(16.574 32.35904)"/><ellipse fill="#1a1f00" rx="1" ry="1" transform="matrix(30.88654 -10.57483 8.58087 25.06268 182 55.3)"/><ellipse fill="#465f00" cx="212" cy="14" rx="38" ry="41"/><ellipse rx="1" ry="1" transform="matrix(6.54394 35.9009 -8.22306 1.49888 5.2 37.9)"/><path fill="#dad0ef" d="M113 3h22v51h-22z"/><path fill="#e6e4c1" d="M180.9 29.2l6.4-2.9 11.8 26.5-6.4 2.9z"/><ellipse fill="#ffffe1" cx="255" cy="13" rx="6" ry="27"/><ellipse fill="#000002" cx="97" cy="40" rx="15" ry="25"/><ellipse fill="#adcdff" rx="1" ry="1" transform="matrix(-21.3058 9.88982 -3.40551 -7.33655 52.4 51.4)"/><path fill="#665e59" d="M148.7 92l-20-52.2-.7 27-85-19.6z"/><ellipse fill="#b7ceff" cx="47" cy="48" rx="13" ry="33"/><path fill="#070519" d="M2.6 26l71-42-27.7 28.4L-16 51.8z"/><ellipse fill="#3a2326" cx="23" cy="76" rx="14" ry="14"/><ellipse fill="#ffdbef" rx="1" ry="1" transform="matrix(-6.02064 -10.98988 9.25757 -5.07162 66.8 0)"/><ellipse fill="#2a3f00" rx="1" ry="1" transform="matrix(14.72455 2.14893 -1.71937 11.78122 236.3 72.8)"/><path fill="#b7c0db" d="M16 25l8-34L2-5z"/><path fill="#c9c4fe" d="M18 24h6v40h-6z"/><path fill="#000012" d="M62 51h9v26h-9z"/><path fill="#070001" d="M161.2 84.3l-6-38.5 25.6-4 6 38.4z"/><ellipse fill="#344500" cx="230" cy="7" rx="21" ry="29"/></g></svg>