<svg xmlns="http://www.w3.org/2000/svg" viewBox="0 0 200 133"><filter id="b"><feGaussianBlur stdDeviation="12" /></filter><path fill="#94938d" d="M0 0h200v133H0z"/><g filter="url(#b)" transform="translate(.5 .5)" fill-opacity=".5"><ellipse fill="#070000" cx="82" cy="132" rx="39" ry="39"/><ellipse fill="#fffff7" rx="1" ry="1" transform="matrix(-.26894 17.32408 -198.97603 -3.08888 51.3 3)"/><ellipse cx="15" cy="108" rx="14" ry="30"/><ellipse fill="#deefff" cx="16" cy="46" rx="33" ry="33"/><ellipse fill="#1f1e21" cx="60" cy="31" rx="21" ry="16"/><ellipse fill="#d8f4ff" rx="1" ry="1" transform="rotate(90.4 -21 63.7) scale(37.71999 15.05393)"/><ellipse fill="#070400" cx="117" cy="21" rx="6" ry="29"/><ellipse fill="#9d6e00" cx="117" cy="117" rx="21" ry="21"/><path fill="#ffffe9" d="M124 28.3l8.8-25.5L182 19.7l-8.8 25.5z"/><path fill="#12141d" d="M174 79l4-58 37-3z"/><path fill="#050516" d="M47 105h49v28H47z"/><path fill="#d8e1ff" d="M63 57h29v28H63z"/><ellipse fill="#fff" rx="1" ry="1" transform="matrix(-6.36398 14.70628 -17.98007 -7.78067 18.1 20.3)"/><path fill="#f9e596" d="M159.5 86.6l-3 55.9-20-1 3-56z"/><path fill="#daf8fb" d="M100.5 51.5v-33h13v33z"/><ellipse fill="#4f6469" cx="7" cy="44" rx="30" ry="9"/><path d="M7 77h19v28H7z"/><ellipse fill="#270e00" cx="99" cy="53" rx="2" ry="41"/><path fill="#695846" d="M153 41l-26 46 75-12z"/><path fill="#c3cfcf" d="M72 98L54 83l21 43z"/><path fill="#2f384a" d="M191 87l8.1 5.7-24 34.4-8.2-5.8z"/><ellipse fill="#cfd8c5" cx="3" cy="105" rx="4" ry="18"/></g></svg>