<svg xmlns="http://www.w3.org/2000/svg" viewBox="0 0 200 133"><filter id="b"><feGaussianBlur stdDeviation="12" /></filter><path fill="#7d6d76" d="M0 0h200v133H0z"/><g filter="url(#b)" transform="translate(.5 .5)" fill-opacity=".5"><ellipse fill="#ffe8fe" cx="20" cy="19" rx="57" ry="38"/><ellipse cx="41" cy="132" rx="39" ry="39"/><ellipse fill="#ffffd6" cx="130" cy="129" rx="44" ry="28"/><ellipse fill="#00030b" rx="1" ry="1" transform="matrix(43.99448 -2.16193 1.22297 24.88695 112.2 76.6)"/><ellipse cx="175" cy="13" rx="55" ry="18"/><path d="M165 38h25v37h-25z"/><ellipse fill="#ffdad6" rx="1" ry="1" transform="matrix(20.26213 -30.38177 19.6471 13.10298 198.8 89)"/><path fill="#d7f3ff" d="M156.8 54.5L154 30.9 44.7 23.7l41.9 14.6z"/><path fill="#d8a8b5" d="M37 23h32v82H37z"/><ellipse cx="41" cy="115" rx="53" ry="14"/><path fill="#fffbff" d="M132 106h42v18h-42z"/><ellipse fill="#c1ffff" cx="84" cy="42" rx="7" ry="15"/><path d="M70 56h17v33H70z"/><ellipse fill="#000a24" rx="1" ry="1" transform="matrix(-1.30584 -8.88721 11.60183 -1.7047 102.9 47)"/><ellipse fill="#b6bcdf" cx="61" cy="74" rx="9" ry="36"/><ellipse fill="#e2eaff" cx="175" cy="34" rx="95" ry="3"/><path d="M109 74h30v21h-30z"/><ellipse fill="#150000" rx="1" ry="1" transform="matrix(27.09097 -4.38778 3.47034 21.42651 177.3 9.3)"/><ellipse cx="74" cy="47" rx="4" ry="17"/><ellipse cx="174" cy="53" rx="16" ry="16"/><ellipse fill="#973a2f" cx="25" cy="74" rx="16" ry="21"/><path fill="#1e1110" d="M68 6h30v10H68z"/></g></svg>