<svg xmlns="http://www.w3.org/2000/svg" viewBox="0 0 200 133"><filter id="b"><feGaussianBlur stdDeviation="12" /></filter><path fill="#5b4c4f" d="M0 0h200v133H0z"/><g filter="url(#b)" transform="translate(.5 .5)" fill-opacity=".5"><ellipse fill="#b7b9bf" cx="127" cy="84" rx="37" ry="37"/><ellipse fill="#000005" rx="1" ry="1" transform="matrix(141.7581 26.28331 -8.08667 43.61515 84.8 0)"/><path fill="#fbfdf3" d="M4 111l83-36-40-9z"/><ellipse fill="#9dfaff" cx="114" cy="60" rx="19" ry="17"/><ellipse fill="#820000" cx="154" cy="129" rx="156" ry="11"/><ellipse fill="#b28774" cx="66" cy="101" rx="145" ry="20"/><path fill="#00000c" d="M126 0l39 83-28-11z"/><ellipse cx="37" cy="6" rx="21" ry="34"/><ellipse fill="#09060e" cx="114" cy="84" rx="31" ry="6"/><ellipse fill="#74917f" cx="21" cy="58" rx="45" ry="21"/><ellipse fill="#0e0000" cx="196" cy="119" rx="21" ry="14"/><path fill="#fffff6" d="M10 92h30v11H10z"/><path fill="#fffff8" d="M144 96l-67 4 30-12z"/><ellipse fill="#4a1700" cx="8" cy="121" rx="18" ry="18"/><path fill="#fceadf" d="M194 96l-45-1 24-15z"/><path d="M215 20L90-9l84 60z"/><ellipse fill="#fd9d9b" cx="41" cy="119" rx="28" ry="7"/><path fill="#a3c4a0" d="M146 49l43 6-9 21z"/><path fill="#422626" d="M119 123l-72-16 1-24z"/><path fill="#5541b4" d="M58 9h41v13H58z"/><path fill="#020d22" d="M77.5-16l-2.3 82 28.7 25.5-4.3-.9z"/><path fill="#351b10" d="M98 100h84v4H98z"/></g></svg>