<svg xmlns="http://www.w3.org/2000/svg" viewBox="0 0 700 467"><filter id="b"><feGaussianBlur stdDeviation="12" /></filter><path fill="#27543e" d="M0 0h700v464H0z"/><g filter="url(#b)" transform="translate(1.4 1.4) scale(2.73438)" fill-opacity=".5"><ellipse fill="#cbffd1" cx="154" cy="89" rx="174" ry="23"/><ellipse rx="1" ry="1" transform="matrix(230.4767 4.14658 -1.06893 59.41385 47 167)"/><ellipse cx="16" cy="24" rx="33" ry="59"/><path fill="#008a61" d="M256.2-14l-3.6 68.9L83.8 46l3.6-68.9z"/><ellipse fill="#fff0cf" rx="1" ry="1" transform="matrix(-28.94623 .9396 -.50252 -15.48102 48.1 92)"/><ellipse cx="46" cy="119" rx="12" ry="23"/><ellipse fill="#579860" cx="229" cy="96" rx="68" ry="28"/><ellipse cx="57" cy="165" rx="58" ry="58"/><path fill="#c4f9ed" d="M207 119.5l23.4-34.7-4.6 18.9 8.5 20.3z"/><ellipse fill="#cbfff5" rx="1" ry="1" transform="matrix(-55.89786 2.09417 -.2426 -6.47539 155.4 71.9)"/><path d="M119 101h16v69h-16zM-16 16l65 60 2-92z"/><ellipse fill="#010000" cx="161" cy="148" rx="195" ry="25"/><path fill="#002e09" d="M123.7 67.9l-43.5 6.9L76.3 50l43.5-6.9z"/><path fill="#d7ffff" d="M143 88h21v28h-21z"/><path fill="#006121" d="M237.6 55l13.4-3.8 15.4 53.8-13.4 3.8z"/><path fill="#2f281e" d="M131 76h97v9h-97z"/><ellipse fill="#00471d" cx="170" cy="55" rx="126" ry="9"/><path fill="#fdcf78" d="M33 64h9v31h-9z"/><ellipse fill="#03815a" cx="67" cy="35" rx="20" ry="39"/><ellipse fill="#80a980" cx="170" cy="110" rx="12" ry="29"/><ellipse fill="#fffcff" cx="72" cy="79" rx="25" ry="5"/></g></svg>