<svg xmlns="http://www.w3.org/2000/svg" viewBox="0 0 700 467"><filter id="b"><feGaussianBlur stdDeviation="12" /></filter><path fill="#49508d" d="M0 0h700v464H0z"/><g filter="url(#b)" transform="translate(1.4 1.4) scale(2.73438)" fill-opacity=".5"><ellipse fill="#a298ff" cx="127" cy="73" rx="93" ry="41"/><ellipse fill="#080f00" rx="1" ry="1" transform="matrix(-34.03906 33.68446 -34.67094 -35.03593 34.8 149.7)"/><ellipse fill="#0c0e00" cx="224" cy="169" rx="57" ry="57"/><ellipse cx="26" cy="32" rx="9" ry="112"/><path fill="#84d5ff" d="M239 3l32 88-37 34z"/><ellipse rx="1" ry="1" transform="matrix(-187.75958 -8.85533 .74486 -15.79336 113.8 .5)"/><ellipse fill="#c5afff" rx="1" ry="1" transform="matrix(10.1179 -23.96842 33.49768 14.14053 172.3 88)"/><ellipse fill="#0f32e8" rx="1" ry="1" transform="matrix(58.13473 16.00061 -5.61737 20.40947 163.7 37.6)"/><ellipse fill="#b3c6b5" rx="1" ry="1" transform="rotate(-87.9 140.9 12.6) scale(12.55888 48.55189)"/><ellipse fill="#041210" cx="88" cy="130" rx="196" ry="10"/><path fill="#71afff" d="M-16 41l30 87L19-7z"/><ellipse fill="#af7eff" cx="75" cy="50" rx="39" ry="33"/><path fill="#0d2deb" d="M28 71l25 41 118-1z"/><ellipse fill="#020a02" cx="228" cy="81" rx="8" ry="74"/><path fill="#00000a" d="M103 130h10v40h-10z"/><ellipse fill="#3b76ff" rx="1" ry="1" transform="matrix(-6.57087 .24094 -1.8335 -50.00203 240.6 33.6)"/><path fill="#d5ebff" d="M271 94l-35-32 2 41z"/><path fill="#ebfeff" d="M84 144h18v21H84z"/><path fill="#030f1b" d="M132.5 150l-22-35.7 37.7 24.5-15.2 27.5z"/><path fill="#010d11" d="M132 146.7l36.1-21.1-15.2 43.8-5.1-41z"/><ellipse fill="#3e4a70" cx="55" cy="124" rx="40" ry="25"/><ellipse cx="128" cy="169" rx="203" ry="4"/></g></svg>