<svg xmlns="http://www.w3.org/2000/svg" viewBox="0 0 200 133"><filter id="b"><feGaussianBlur stdDeviation="12" /></filter><path fill="#183655" d="M0 0h200v133H0z"/><g filter="url(#b)" transform="translate(.5 .5)" fill-opacity=".5"><ellipse fill="#8fffff" rx="1" ry="1" transform="matrix(13.20375 35.5308 -53.35927 19.82906 98.9 65.9)"/><ellipse cx="183" cy="48" rx="29" ry="199"/><ellipse rx="1" ry="1" transform="matrix(44.43204 -9.7725 19.09895 86.836 5.6 52.8)"/><ellipse fill="#7bbfff" cx="74" cy="72" rx="29" ry="39"/><ellipse fill="#000007" rx="1" ry="1" transform="rotate(-97.7 48 -30.3) scale(18.99987 140.27024)"/><ellipse fill="#000004" rx="1" ry="1" transform="matrix(.13147 -25.151 90.05931 .47076 92.5 132)"/><ellipse fill="#1793f6" cx="110" cy="86" rx="27" ry="18"/><path fill="#92bdd9" d="M136 23h18v51h-18z"/><ellipse fill="#000d6c" cx="40" cy="69" rx="15" ry="45"/><path fill="#c3e1ff" d="M58 92.6l19.4-41.7L100 61.4l-19.4 41.7z"/><ellipse cx="180" cy="51" rx="24" ry="67"/><path fill="#0098f6" d="M82 31h30v24H82z"/><path fill="#034b91" d="M125 72h26v34h-26z"/><ellipse fill="#00000b" rx="1" ry="1" transform="matrix(24.83535 -3.99541 8.32802 51.76676 16.4 99.1)"/><path fill="#80b2f7" d="M84 98l-31 11 2-77z"/><ellipse fill="#00000e" cx="123" cy="132" rx="35" ry="29"/><ellipse fill="#53acee" cx="113" cy="66" rx="13" ry="37"/><ellipse fill="#00000c" cx="158" rx="163" ry="22"/><path fill="#002d74" d="M131 50l2 24-9 4z"/><ellipse fill="#001b69" rx="1" ry="1" transform="rotate(80.7 29 64.6) scale(7.75785 30.16666)"/><ellipse fill="#0032bf" rx="1" ry="1" transform="matrix(-5.01934 -16.59285 6.48643 -1.96214 48.5 64.2)"/><path fill="#c0f8fc" d="M88.5 58.6l-3.6 7 20.4 6.1-9.8-23.2z"/></g></svg>