<svg xmlns="http://www.w3.org/2000/svg" viewBox="0 0 700 467"><filter id="b"><feGaussianBlur stdDeviation="12" /></filter><path fill="#0a0809" d="M0 0h700v464H0z"/><g filter="url(#b)" transform="translate(1.4 1.4) scale(2.73438)" fill-opacity=".5"><path fill="#d8f0ff" d="M29.7 75.9l7.9-1.5L40.3 88l-7.9 1.5z"/><path fill="#576a75" d="M40.3 86.4l-13.7 38.8 16.8 17.6 7.7-16.6z"/><path fill="#4b534e" d="M220 75h21v64h-21z"/><path fill="#d0d1cb" d="M106 87l-27-1-11 13z"/><path fill="#8d99ac" d="M186 108l-23-33-13 8z"/><ellipse fill="#8d9bc4" rx="1" ry="1" transform="rotate(-120.9 123.8 14.7) scale(12.77455 3.3436)"/><path fill="#c3dac7" d="M96 120h4v16h-4z"/><ellipse fill="#f7ffea" cx="239" cy="130" rx="6" ry="3"/><path d="M46 0h51v94H46z"/><path fill="#fff" d="M218 126h3v8h-3z"/><path fill="#3e515e" d="M36 47h8v66h-8z"/><path fill="#000001" d="M200 76l-61 47-72 2z"/><path fill="#fff" d="M237.4 85.8l-4-1 3.2-12.6 4 1z"/><ellipse fill="#fff" cx="29" cy="121" rx="5" ry="3"/><path fill="#fff" d="M151 80h6v4h-6zm74 33l7-1-2-8z"/><path d="M251 26l-22 96 42 17z"/><path fill="#543812" d="M150.3 149.3l19.4.5-19.2 9.7-39.3-6.7z"/><ellipse cx="160" cy="9" rx="71" ry="71"/><path d="M6.4 129.4L-9.2-6 42 118l35.6-18.8z"/><path fill="#020000" d="M140.7-16L34.5 68l.2 13.3 45.7 10.3z"/><ellipse fill="#fff" cx="72" cy="97" rx="3" ry="3"/></g></svg>