<svg xmlns="http://www.w3.org/2000/svg" viewBox="0 0 700 467"><filter id="b"><feGaussianBlur stdDeviation="12" /></filter><path fill="#5c513f" d="M0 0h700v464H0z"/><g filter="url(#b)" transform="translate(1.4 1.4) scale(2.73438)" fill-opacity=".5"><ellipse fill="#fff" cx="219" cy="26" rx="37" ry="70"/><path d="M-2 55l1 116 143-1z"/><ellipse fill="#fff" rx="1" ry="1" transform="matrix(-3.59255 23.01102 -70.69815 -11.03762 222.4 37.2)"/><ellipse rx="1" ry="1" transform="rotate(-91.7 188.1 -26.5) scale(39.002 83.5311)"/><ellipse fill="#e4b36f" rx="1" ry="1" transform="rotate(3.6 -1821.3 1727) scale(41.22015 21.19138)"/><path d="M227 63h29v21h-29z"/><ellipse rx="1" ry="1" transform="matrix(23.45958 2.09371 -18.38817 206.03544 0 109.7)"/><path fill="#fff75c" d="M236 97l6.3 12.5L204 129l-6.3-12.5z"/><ellipse fill="#243100" cx="221" rx="42" ry="12"/><path fill="#fff" d="M191 15l2 70 78-69z"/><path d="M47 185l213-76 11 73z"/><ellipse fill="#8d8668" rx="1" ry="1" transform="rotate(-143.9 81.5 -8.6) scale(34.54546 49.50249)"/><ellipse cx="48" cy="151" rx="36" ry="36"/><ellipse fill="#090b0b" cx="183" cy="98" rx="10" ry="61"/><ellipse fill="#0a1a33" rx="1" ry="1" transform="rotate(151.2 66.4 56.5) scale(13.18799 33.58664)"/><ellipse fill="#2e0005" rx="1" ry="1" transform="rotate(-72.7 79.4 -2.7) scale(31.03863 16.64003)"/><ellipse fill="#ffe9c9" cx="207" cy="85" rx="13" ry="13"/><ellipse fill="#c79469" cx="33" cy="63" rx="15" ry="15"/><ellipse fill="#d0b787" cx="131" cy="113" rx="47" ry="9"/><path fill="#defff4" d="M176 48l-12 35V29z"/><path fill="#e8dacd" d="M131 58l-6-41-8 61z"/><path fill="#e4cdc4" d="M126.8 95.6L104 103l-2.8-8.6L124 87z"/></g></svg>