<svg xmlns="http://www.w3.org/2000/svg" viewBox="0 0 700 467"><filter id="b"><feGaussianBlur stdDeviation="12" /></filter><path fill="#65686b" d="M0 0h700v464H0z"/><g filter="url(#b)" transform="translate(1.4 1.4) scale(2.73438)" fill-opacity=".5"><ellipse fill="#fff" rx="1" ry="1" transform="matrix(148.1378 -4.84557 1.50072 45.87965 157.6 13.8)"/><ellipse fill="#04060b" cx="183" cy="133" rx="80" ry="80"/><ellipse cx="43" cy="98" rx="182" ry="37"/><ellipse fill="#fff" cx="94" cy="1" rx="87" ry="28"/><ellipse fill="#f3f3dd" cx="219" cy="18" rx="48" ry="48"/><ellipse fill="#8997a9" cx="121" cy="143" rx="27" ry="27"/><ellipse fill="#9ea6ae" rx="1" ry="1" transform="rotate(17.3 -361.8 781.2) scale(15.93821 42.31365)"/><path fill="#fcffff" d="M16 0h57v52H16z"/><ellipse rx="1" ry="1" transform="matrix(-23.23627 -10.34545 12.10688 -27.1925 171.8 142)"/><path fill="#0c0d13" d="M88.7 120.1l-44-33 38.6-51.2 44 33z"/><path fill="#01020a" d="M209 55h34v48h-34z"/><ellipse fill="#000208" cx="54" cy="96" rx="73" ry="23"/><ellipse fill="#fff" cx="103" cy="8" rx="46" ry="19"/><path fill="#200816" d="M241 36h12v21h-12z"/><path fill="#fff" d="M195 49h14v19h-14z"/><ellipse fill="#816f66" rx="1" ry="1" transform="matrix(-28.17493 -2.9613 1.224 -11.64553 168 57)"/><ellipse fill="#2a384b" cx="13" cy="142" rx="31" ry="31"/><ellipse fill="#fff" cx="244" rx="20" ry="35"/><path d="M234 97l5 64 22-90z"/><path fill="#fff" d="M41.7 48.7l-15.6-43 1.4 40.4 9 21z"/><ellipse fill="#8f8f90" rx="1" ry="1" transform="matrix(-.67537 -9.19686 51.37793 -3.77296 116.3 50.3)"/><ellipse fill="#f3f2ec" rx="1" ry="1" transform="matrix(9.47495 -21.09537 4.07621 1.83082 230.5 47)"/></g></svg>