<svg xmlns="http://www.w3.org/2000/svg" viewBox="0 0 700 427"><filter id="b"><feGaussianBlur stdDeviation="12" /></filter><path fill="#5a3c59" d="M0 0h700v426H0z"/><g filter="url(#b)" transform="translate(1.4 1.4) scale(2.73438)" fill-opacity=".5"><ellipse fill="#e4fdf3" rx="1" ry="1" transform="rotate(-86.4 107.7 -23) scale(44.53736 79.13065)"/><ellipse cx="235" cy="16" rx="29" ry="167"/><ellipse fill="#000004" cx="9" cy="34" rx="46" ry="87"/><ellipse fill="#00000b" rx="1" ry="1" transform="matrix(-21.46227 30.089 -115.71373 -82.5378 231.9 37)"/><ellipse fill="#00e6ff" cx="77" cy="74" rx="31" ry="13"/><ellipse fill="#6a0000" cx="136" cy="146" rx="255" ry="16"/><path fill="#dbffc6" d="M94 53h110v26H94z"/><ellipse fill="#5400a4" cx="125" cy="22" rx="31" ry="31"/><ellipse fill="#bc6dc6" cx="156" cy="123" rx="103" ry="7"/><ellipse fill="#bf8a93" cx="194" cy="103" rx="23" ry="23"/><path fill="#e492c5" d="M22.6 123.8l15.6-33.6 17.2 8-15.6 33.6z"/><path fill="#8229cd" d="M73 17h52v34H73z"/><path fill="#e8ffff" d="M49.4 66.6l-.7-13 44-2.2.6 13z"/><ellipse fill="#000014" cx="112" cy="3" rx="255" ry="10"/><ellipse fill="#18c600" rx="1" ry="1" transform="matrix(21.14876 -1.7505 .32942 3.9799 184 62)"/><ellipse fill="#2f0055" cx="158" cy="35" rx="41" ry="17"/><ellipse fill="#bb9b6a" cx="77" cy="109" rx="23" ry="23"/><ellipse fill="#ce817e" rx="1" ry="1" transform="matrix(36.67442 2.16976 -1.34569 22.7455 161.4 92.3)"/><ellipse fill="#010007" cx="254" cy="90" rx="44" ry="44"/><ellipse fill="#000012" rx="1" ry="1" transform="matrix(22.95784 -1.31359 3.7739 65.9573 8.6 57.9)"/><ellipse fill="#00bef0" rx="1" ry="1" transform="matrix(14.69072 8.06463 -5.71433 10.40936 80.8 77.3)"/><path fill="#e435ff" d="M140 16h15v15h-15z"/></g></svg>