<svg xmlns="http://www.w3.org/2000/svg" viewBox="0 0 313 195"><filter id="b"><feGaussianBlur stdDeviation="12" /></filter><path fill="#3c3b1b" d="M0 0h313v194H0z"/><g filter="url(#b)" transform="translate(.6 .6) scale(1.22266)" fill-opacity=".5"><ellipse fill="#f6c45c" cx="106" cy="145" rx="121" ry="7"/><ellipse fill="#e8a146" rx="1" ry="1" transform="matrix(111.68417 12.39588 -.71556 6.447 251 158)"/><ellipse fill="#241603" rx="1" ry="1" transform="matrix(74.3107 -2.59499 .95892 27.45995 217.2 122.7)"/><ellipse fill="#ff8fff" cx="219" cy="15" rx="18" ry="5"/><path fill="#ca509a" d="M108.4 32.4l14.8-23.8 14.4 9-14.8 23.8z"/><ellipse fill="#052f04" rx="1" ry="1" transform="matrix(19.48554 -55.35213 23.70947 8.34642 75.1 59)"/><path fill="#ff7eff" d="M183 26h26v8h-26z"/><ellipse fill="#181f03" cx="240" cy="68" rx="52" ry="52"/><path d="M-4.7 159.4l.4-12 91 3.2-.4 12z"/><path fill="#44cc7c" d="M41 11h154v5H41z"/><ellipse fill="#054309" cx="156" cy="93" rx="88" ry="14"/><path fill="#dd36d6" d="M39 12h28v7H39z"/><ellipse fill="#00ec1d" rx="1" ry="1" transform="matrix(-4.69305 11.56122 -5.13091 -2.0828 85 92.2)"/><path fill="#ffeb74" d="M59.6 140.7l39 .6-.2 8-39-.6z"/><path fill="#f6fd7a" d="M158.6 155.1l-9.4-9.2h-43.4l32.2 7.6z"/><ellipse fill="#0a0902" rx="1" ry="1" transform="rotate(134.5 8 7.8) scale(28.62087 18.29561)"/><path fill="#c28843" d="M221.9 125l-8.5 44.5 13-22.7-27.5-37z"/><path fill="#d46cec" d="M27 26h26v4H27z"/><path fill="#bea83c" d="M247 128h7v29h-7z"/><ellipse fill="#192400" rx="1" ry="1" transform="rotate(-172.1 81.6 19.1) scale(18.36508 35.26285)"/><path fill="#6a572f" d="M179.7 103.4l-36 26.8L41 139.4l104 6z"/><path fill="#f45fb5" d="M150.6 21.8L118 15l.2-3.3 31.8 4z"/></g></svg>