<svg xmlns="http://www.w3.org/2000/svg" viewBox="0 0 700 467"><filter id="b"><feGaussianBlur stdDeviation="12" /></filter><path fill="#b6a390" d="M0 0h700v464H0z"/><g filter="url(#b)" transform="translate(1.4 1.4) scale(2.73438)" fill-opacity=".5"><ellipse fill="#634d34" cx="55" cy="145" rx="95" ry="41"/><ellipse fill="#fff" rx="1" ry="1" transform="rotate(-42.7 302.3 -235.8) scale(49.22609 38.77858)"/><ellipse fill="#fff" cx="138" rx="46" ry="46"/><path fill="#001d47" d="M61 9.4L74.7-1 109 44.6 95.4 55z"/><ellipse fill="#bf8124" cx="227" cy="27" rx="40" ry="40"/><path fill="#000003" d="M84.8 183.4L49.2 99.7l12-5.1 35.6 83.7z"/><path fill="#e7fbfb" d="M77.5 92.4l16-1.4 9 102.6-16 1.4z"/><ellipse fill="#e6deff" rx="1" ry="1" transform="matrix(14.12962 4.55077 -12.93863 40.17295 29.9 29.1)"/><ellipse fill="#f3c375" rx="1" ry="1" transform="matrix(32.6581 -7.90372 14.19024 58.63392 210 80.2)"/><path fill="#efffff" d="M156 19l-20-35L14 0z"/><path fill="#401100" d="M244.8 44.5l-3-60.5 13.7 3L271 37.7z"/><ellipse fill="#e7fbff" rx="1" ry="1" transform="matrix(-7.84904 6.17659 -13.2454 -16.8319 138.4 101)"/><path fill="#faffff" d="M255 48l-27 137 43-6z"/><ellipse fill="#dce3cd" rx="1" ry="1" transform="matrix(13.03023 44.71055 -18.33437 5.34328 165.3 43.2)"/><ellipse fill="#662918" rx="1" ry="1" transform="rotate(-52.4 236.2 -48.5) scale(11.6259 44.75316)"/><path fill="#eefbf7" d="M110.6 95.7l-43.3 18.4-5.9-13.8 43.3-18.4z"/><ellipse fill="#ebdfff" cx="56" cy="67" rx="7" ry="26"/><ellipse fill="#6d6583" rx="1" ry="1" transform="matrix(-5.07047 -23.33895 13.0235 -2.8294 79.5 72.3)"/><path fill="#926e54" d="M131 77l50 26-65-93z"/><ellipse fill="#eafbff" rx="1" ry="1" transform="rotate(-34.2 113.2 -110.3) scale(3.69967 54.99207)"/><path fill="#914a3e" d="M89 146l22-54 25 22z"/><ellipse fill="#ffffd7" cx="231" cy="145" rx="32" ry="27"/></g></svg>