<svg xmlns="http://www.w3.org/2000/svg" viewBox="0 0 200 133"><filter id="b"><feGaussianBlur stdDeviation="12" /></filter><path fill="#572f31" d="M0 0h200v133H0z"/><g filter="url(#b)" transform="translate(.5 .5)" fill-opacity=".5"><ellipse fill="#fff" rx="1" ry="1" transform="matrix(-8.22441 -47.12375 17.4249 -3.04113 109.3 101.5)"/><ellipse fill="#009eff" rx="1" ry="1" transform="matrix(-15.38658 6.70838 -8.74799 -20.0647 45.8 48.5)"/><ellipse fill="#fcae72" cx="22" cy="72" rx="12" ry="47"/><ellipse cx="140" cy="53" rx="31" ry="28"/><ellipse fill="#980000" cx="163" cy="100" rx="42" ry="33"/><ellipse fill="#d40000" rx="1" ry="1" transform="rotate(-9.2 785.8 -226) scale(46.358 21.28576)"/><ellipse fill="#000004" rx="1" ry="1" transform="rotate(11.3 -144.3 445) scale(18.98229 64.22475)"/><path fill="#aad4fe" d="M106 13h30v23h-30z"/><ellipse fill="#000001" cx="36" rx="124" ry="18"/><ellipse fill="#f7ffff" rx="1" ry="1" transform="matrix(-13.45242 3.88284 -15.66892 -54.28623 113.7 128.3)"/><path d="M13 91L7 4l-23 117z"/><path fill="#ffb760" d="M34.6 77L55 85.1 49.4 99 29 90.8z"/><path d="M145.9-29.5L172.3 69 148 75.5 121.7-23z"/><ellipse fill="#00185a" rx="1" ry="1" transform="matrix(2.7172 24.6324 -4.41023 .4865 30.2 38.4)"/><ellipse fill="#a50000" rx="1" ry="1" transform="matrix(29.73212 91.33822 -7.7075 2.50892 168.4 28.2)"/><ellipse fill="#40646a" rx="1" ry="1" transform="rotate(-13 108.5 -820.3) scale(14.81805 112.49323)"/><ellipse fill="#7f0000" cx="157" cy="104" rx="33" ry="31"/><path fill="#0099e9" d="M48.3 32.8L56.2 67l-18.5 4.3L29.8 37z"/><ellipse fill="#ac8679" rx="1" ry="1" transform="rotate(-105.7 52 2.2) scale(14.60063 5.45947)"/><ellipse rx="1" ry="1" transform="rotate(145.4 25.4 52.7) scale(30.25098 6.74738)"/><ellipse fill="#e9b68f" cx="19" cy="54" rx="8" ry="30"/><path fill="#970000" d="M103.2 148L86.6 90.8l-27.4 11.1-75.2 17.3z"/></g></svg>