<svg xmlns="http://www.w3.org/2000/svg" viewBox="0 0 700 467"><filter id="b"><feGaussianBlur stdDeviation="12" /></filter><path fill="#b6b4af" d="M0 0h700v464H0z"/><g filter="url(#b)" transform="translate(1.4 1.4) scale(2.73438)" fill-opacity=".5"><ellipse rx="1" ry="1" transform="matrix(2.70212 42.86382 -72.72983 4.58486 68.4 137.6)"/><ellipse fill="#fff" rx="1" ry="1" transform="rotate(-.5 3510.2 -16875.3) scale(255 38.30323)"/><ellipse fill="#112501" rx="1" ry="1" transform="matrix(32.6699 -49.92484 25.23784 16.51518 95 146.8)"/><ellipse fill="#fff" rx="1" ry="1" transform="matrix(-1.84707 -60.2173 254.88012 -7.81806 154.4 4)"/><ellipse fill="#d2d8cd" cx="61" cy="102" rx="14" ry="29"/><ellipse fill="#a26d6e" rx="1" ry="1" transform="matrix(-97.07787 -20.69589 7.16219 -33.59555 228.1 156)"/><path fill="#5d3b22" d="M143 68h40v29h-40z"/><ellipse fill="#173100" rx="1" ry="1" transform="matrix(-8.42205 32.80173 -10.66068 -2.7372 28.9 118.4)"/><ellipse fill="#918d80" rx="1" ry="1" transform="rotate(82 16.8 117.3) scale(56.72893 14.29951)"/><path fill="#112008" d="M3 124h55v28H3z"/><ellipse fill="#fff" cx="213" cy="30" rx="50" ry="50"/><ellipse fill="#fff" rx="1" ry="1" transform="matrix(-191.45564 52.37634 -10.35952 -37.86803 59.8 24)"/><ellipse fill="#d8f2ff" cx="213" cy="107" rx="63" ry="11"/><ellipse fill="#a1a9a1" cx="87" cy="83" rx="43" ry="22"/><path fill="#91989d" d="M59.7 159.9L86.1 185h-98.5l7.3-40.2z"/><ellipse fill="#2d3522" rx="1" ry="1" transform="matrix(-.58602 55.72634 -23.44987 -.2466 113 157.2)"/><path fill="#5f6b58" d="M138 84h90v12h-90z"/><path fill="#fff" d="M152 35l-16 33 7 17z"/><path fill="#ad9091" d="M121.3 149l1 16.5 56.3 13.7-29.2-17z"/><path fill="#d0dcce" d="M22 114.8l1.6 12.8L-16 65.8l41.9 26.9z"/><path fill="#f4ffff" d="M140 103l-5.6 10.9 1.8 33.6 2.3 36.9z"/><path fill="#1e2818" d="M79.8 165l-62.5-18 6.9-24 62.5 18z"/></g></svg>