<svg xmlns="http://www.w3.org/2000/svg" viewBox="0 0 700 467"><filter id="b"><feGaussianBlur stdDeviation="12" /></filter><path fill="#706b85" d="M0 0h700v464H0z"/><g filter="url(#b)" transform="translate(1.4 1.4) scale(2.73438)" fill-opacity=".5"><ellipse fill="#fff" rx="1" ry="1" transform="matrix(-52.29705 -24.94441 18.87602 -39.5744 30.1 34.8)"/><ellipse fill="#08000b" rx="1" ry="1" transform="matrix(35.19385 -3.14665 11.90463 133.1479 229.3 50.4)"/><ellipse fill="#ffd7e7" rx="1" ry="1" transform="matrix(4.03103 13.98205 -82.75365 23.8579 144.2 156.9)"/><ellipse fill="#fff" rx="1" ry="1" transform="matrix(26.69702 26.85057 -35.46438 35.26156 38.3 36.3)"/><ellipse fill="#0b092c" cx="55" cy="113" rx="89" ry="31"/><ellipse fill="#181845" rx="1" ry="1" transform="matrix(19.84312 -6.77424 15.80778 46.30415 117 66.2)"/><path fill="#ffffc7" d="M143 185l-2.5-78.4L160 73.4l.8 111.6z"/><ellipse fill="#cbadd0" cx="84" cy="132" rx="9" ry="62"/><path fill="#fff" d="M71-16l-85 79 99 23z"/><ellipse fill="#c3a6d7" cx="58" cy="163" rx="60" ry="21"/><path fill="#2e222b" d="M161 104h46v30h-46z"/><path d="M187 168l42-39-29 56z"/><path fill="#040002" d="M130 95h10v56h-10z"/><ellipse fill="#88bddb" cx="129" rx="25" ry="25"/><ellipse fill="#4a83c0" rx="1" ry="1" transform="matrix(26.78323 1.66634 -.56394 9.0643 8 21.7)"/><ellipse fill="#1d1e3d" rx="1" ry="1" transform="matrix(-3.91786 -27.04816 59.70669 -8.64836 17.8 123.5)"/><path fill="#3c4173" d="M179 73.4L80.2 88.2l-2.5-67.7 54 3.6z"/><ellipse fill="#7096cc" cx="177" cy="34" rx="13" ry="41"/><ellipse fill="#1b0e2c" cx="223" cy="16" rx="35" ry="35"/><ellipse fill="#ecc2d1" cx="95" cy="142" rx="34" ry="4"/><ellipse fill="#f9ffff" cx="3" cy="1" rx="76" ry="15"/><ellipse fill="#000023" cx="162" cy="18" rx="4" ry="31"/></g></svg>