<svg xmlns="http://www.w3.org/2000/svg" viewBox="0 0 641 195"><filter id="b"><feGaussianBlur stdDeviation="12" /></filter><path fill="#343864" d="M0 0h641v192H0z"/><g filter="url(#b)" transform="translate(1.3 1.3) scale(2.5039)" fill-opacity=".5"><ellipse rx="1" ry="1" transform="matrix(-49.35097 7.28752 -17.38945 -117.76114 4.2 57.3)"/><ellipse fill="#b2b0ab" rx="1" ry="1" transform="rotate(11.1 -43 724.9) scale(19.74248 79.16436)"/><ellipse fill="#2ecc85" cx="157" cy="4" rx="76" ry="18"/><ellipse fill="#5f3ac9" rx="1" ry="1" transform="matrix(26.09306 -39.19061 20.04415 13.34537 230.5 14.7)"/><ellipse fill="#c189d2" cx="56" cy="33" rx="12" ry="12"/><ellipse fill="#150063" rx="1" ry="1" transform="matrix(34.53792 23.2658 -11.9797 17.78378 174.8 51)"/><ellipse fill="#ae9fbb" rx="1" ry="1" transform="matrix(-6.16156 .16494 -.89565 -33.4588 224.5 29.9)"/><path fill="#fff" d="M76.8 73.3l22-1.6.4 7-22 1.6z"/><path fill="#d7c6f1" d="M159.2 79.2L128 27.7l-15.5 43.2 21-16.5z"/><ellipse fill="#000019" rx="1" ry="1" transform="matrix(-60.20873 -32.33123 14.36316 -26.74775 9.9 50)"/><ellipse fill="#0f0082" cx="251" cy="26" rx="24" ry="71"/><ellipse fill="#0b0021" cx="78" cy="46" rx="11" ry="27"/><path fill="#9b215b" d="M143.4-12.1l-9.9 1.2 5.5 32.7-25.4 3.2z"/><path fill="#670d35" d="M141.2 57.7l-.4 19-20-.4.4-19z"/><path fill="#76f180" d="M148.7-19.7l34.6 13.3-10 26.1-34.6-13.3z"/><ellipse fill="#00313b" cx="105" cy="17" rx="12" ry="27"/><ellipse fill="#020037" cx="31" rx="47" ry="23"/><ellipse fill="#9276b0" cx="226" cy="52" rx="7" ry="35"/><ellipse fill="#0d0c7a" rx="1" ry="1" transform="matrix(-.02603 7.45793 -43.9038 -.15325 176.2 29)"/><path fill="#ffb350" d="M62 18h10v6H62z"/><path fill="#00ae87" d="M199 21.4l-22 1.2-2-36 22-1.2z"/><ellipse fill="#0e0a41" cx="162" cy="63" rx="15" ry="14"/></g></svg>