<svg xmlns="http://www.w3.org/2000/svg" viewBox="0 0 200 133"><filter id="b"><feGaussianBlur stdDeviation="12" /></filter><path fill="#4b5090" d="M0 0h200v133H0z"/><g filter="url(#b)" transform="translate(.5 .5)" fill-opacity=".5"><ellipse fill="#a896ff" rx="1" ry="1" transform="matrix(8.17544 -32.227 72.6181 18.42197 99.5 53)"/><ellipse fill="#0a0d00" rx="1" ry="1" transform="rotate(-101.2 61.1 49.6) scale(36.52828 40.55881)"/><ellipse fill="#111200" cx="172" cy="123" rx="38" ry="38"/><ellipse cx="127" rx="145" ry="14"/><ellipse fill="#9eeeff" rx="1" ry="1" transform="matrix(14.59902 2.18909 -4.60387 30.7032 199 56.3)"/><ellipse rx="1" ry="1" transform="matrix(5.10042 -58.98609 6.93359 .59953 21.4 28.5)"/><path fill="#05130d" d="M53.5 109.5v-17h107v17z"/><ellipse fill="#71adff" cx="6" cy="47" rx="8" ry="44"/><ellipse fill="#0c2deb" rx="1" ry="1" transform="matrix(49.89698 15.35032 -3.78345 12.29828 123.6 29)"/><ellipse fill="#d1b8ff" cx="131" cy="67" rx="22" ry="22"/><ellipse fill="#c1d0bf" rx="1" ry="1" transform="rotate(-86.5 109.2 13.1) scale(8.90755 29.78763)"/><ellipse fill="#b07dff" cx="53" cy="52" rx="26" ry="23"/><path fill="#1335fd" d="M42 87L25 58l107 27z"/><path d="M173 11h10v70h-10z"/><path fill="#2c72ff" d="M183 0h14v55h-14z"/><ellipse cx="84" cy="132" rx="4" ry="32"/><ellipse cx="62" cy="132" rx="199" ry="3"/><path fill="#fefff8" d="M134 107l-3 19-11 3z"/><path d="M15 10h12v73H15zm184 114l-28-14 30-27z"/><path fill="#c5c6ca" d="M169 128v-16l16 15z"/><ellipse fill="#505ea9" cx="121" cy="90" rx="71" ry="6"/></g></svg>