<svg xmlns="http://www.w3.org/2000/svg" viewBox="0 0 200 133"><filter id="b"><feGaussianBlur stdDeviation="12" /></filter><path fill="#655b6a" d="M0 0h200v133H0z"/><g filter="url(#b)" transform="translate(.5 .5)" fill-opacity=".5"><ellipse fill="#fffffd" cx="108" cy="13" rx="199" ry="26"/><ellipse fill="#0e0b25" cx="117" cy="114" rx="132" ry="69"/><path fill="#bb6e60" d="M7 23h165v21H7z"/><ellipse fill="#fff" rx="1" ry="1" transform="matrix(-4.79652 -10.99006 23.9569 -10.4558 176.6 10)"/><ellipse fill="#e3e3e6" rx="1" ry="1" transform="matrix(-4.57177 23.96604 -53.49324 -10.20438 91 4.5)"/><path fill="#a15f65" d="M153.4 107l38.5-92 9.8 41.4L164 26.7z"/><path fill="#fff" d="M21 0h9v35h-9z"/><path fill="#98787a" d="M174 45L88 2l9 30z"/><ellipse fill="#c06723" cx="199" cy="122" rx="17" ry="17"/><ellipse fill="#fff" cx="1" rx="10" ry="41"/><path fill="#00348e" d="M49 10L88-8 62-4z"/><path fill="#fcffff" d="M154.4 44.8l26-25.6-1.2 23.9L150.9 23z"/><path fill="#d0b5b8" d="M23.6 90.5l8.5 10-3.8-4.8-2.8-52.5z"/><path fill="#31548d" d="M12.6 23.3L16.7-.4l12.4 16.2-45.1 5.4z"/><ellipse fill="#132234" rx="1" ry="1" transform="rotate(-88.6 94 39) scale(19.88211 141.51912)"/><path fill="#374d9b" d="M49 38l-60 56 36-62z"/><path fill="#7d3c39" d="M54 21h21v29H54z"/><path fill="#5477a8" d="M171.5 7.3l-63.8-5.6.8-9 63.8 5.6z"/><path fill="#6f3d4e" d="M115 31l74 21-56 26z"/><ellipse fill="#fff" rx="1" ry="1" transform="matrix(-1.2864 11.12414 -13.14685 -1.52032 73 12.3)"/><path fill="#0b4ea6" d="M83.9 4.9L101.5 19 91.6 2.9 38.6-16z"/><path fill="#fff" d="M117 11l28-13-7 28z"/></g></svg>