<svg xmlns="http://www.w3.org/2000/svg" viewBox="0 0 200 133"><filter id="b"><feGaussianBlur stdDeviation="12" /></filter><path fill="#8d8887" d="M0 0h200v133H0z"/><g filter="url(#b)" transform="translate(.5 .5)" fill-opacity=".5"><ellipse cx="133" cy="71" rx="48" ry="48"/><ellipse fill="#fff" cx="95" cy="1" rx="199" ry="26"/><ellipse fill="#1a0701" rx="1" ry="1" transform="matrix(3.80366 28.07723 -72.21917 9.78363 66.4 88.4)"/><ellipse fill="#fff" cx="141" cy="127" rx="188" ry="12"/><ellipse fill="#fff" cx="196" cy="68" rx="12" ry="188"/><path d="M111.7 59.8l-40-.7.6-33 40 .8z"/><path fill="#fff" d="M182.9-17.4l-.8 43-127-2.2.8-43z"/><ellipse fill="#fff" cx="11" cy="10" rx="34" ry="21"/><ellipse fill="#fff" cx="180" cy="131" rx="196" ry="15"/><path fill="#222b34" d="M184 39L79 109l105 6z"/><ellipse fill="#fff" cx="17" cy="61" rx="19" ry="8"/><ellipse fill="#000007" cx="175" cy="35" rx="10" ry="10"/><path fill="#f8ccb9" d="M52.2 63l-18-31 15.6-9 18 31z"/><path fill="#6f5348" d="M35 61h52v59H35z"/><path fill="#391f15" d="M8 118l41-16-1-67z"/><ellipse fill="#fff" cx="194" cy="17" rx="10" ry="69"/><path fill="#fff" d="M5.2-15.3L-16 148l167.9-27-149.1-.2z"/><ellipse fill="#494d57" cx="154" cy="59" rx="31" ry="35"/><path fill="#fbffff" d="M90 112h31v21H90z"/><path fill="#94714c" d="M31 13h27v14H31z"/><ellipse fill="#fff" rx="1" ry="1" transform="matrix(67.49092 -4.00575 .76297 12.85496 137 12.4)"/><ellipse fill="#742b00" cx="29" cy="40" rx="8" ry="8"/></g></svg>