<svg xmlns="http://www.w3.org/2000/svg" viewBox="0 0 700 467"><filter id="b"><feGaussianBlur stdDeviation="12" /></filter><path fill="#b6b196" d="M0 0h700v464H0z"/><g filter="url(#b)" transform="translate(1.4 1.4) scale(2.73438)" fill-opacity=".5"><ellipse fill="#5c3312" cx="223" cy="70" rx="148" ry="37"/><ellipse fill="#218100" rx="1" ry="1" transform="rotate(81.2 -21.5 174.3) scale(33.6755 76.08717)"/><ellipse fill="#fff" cx="69" cy="127" rx="45" ry="45"/><ellipse fill="#ff8a00" cx="17" cy="100" rx="42" ry="22"/><path fill="#f2ffff" d="M266 128L77 85l-93 74z"/><ellipse fill="#faf4f9" cx="33" rx="82" ry="82"/><ellipse fill="#fde9af" rx="1" ry="1" transform="matrix(16.4784 3.23389 -7.49503 38.1912 179.2 44.4)"/><ellipse fill="#fbffff" rx="1" ry="1" transform="matrix(-13.94967 14.8088 -30.01835 -28.27685 243 149.2)"/><ellipse fill="#477d06" rx="1" ry="1" transform="matrix(-6.60534 -24.85432 28.874 -7.67361 154.3 154.6)"/><ellipse fill="#f5ffff" cx="26" cy="162" rx="56" ry="32"/><ellipse fill="#484a59" cx="208" cy="101" rx="77" ry="15"/><ellipse fill="#56573d" rx="1" ry="1" transform="matrix(-49.85413 -21.5326 7.38017 -17.0872 116.8 68.8)"/><path fill="#ffe896" d="M248 100l-24-19 41-37z"/><ellipse fill="#ffaf00" cx="31" cy="98" rx="29" ry="17"/><path fill="#f24c00" d="M230.8 93.7L205 97l-5.8-46.6L225 47z"/><ellipse fill="#464e7d" cx="230" cy="16" rx="60" ry="6"/><path fill="#001400" d="M154.9 51.6l7.5 8-37.3 34.8-7.5-8z"/><path fill="#568900" d="M84 151h40v19H84z"/><ellipse fill="#d0ceee" rx="1" ry="1" transform="matrix(55.24675 -24.94486 6.41496 14.20756 184.7 13.7)"/><ellipse fill="#964900" cx="19" cy="3" rx="8" ry="19"/><path fill="#aa0009" d="M17.5 100l-7.3-20.5-23.8-30.3 6.7 44.6z"/><path fill="#a4ac64" d="M13 45h95v14H13z"/></g></svg>