<svg xmlns="http://www.w3.org/2000/svg" viewBox="0 0 200 133"><filter id="b"><feGaussianBlur stdDeviation="12" /></filter><path fill="#2f3360" d="M0 0h200v133H0z"/><g filter="url(#b)" transform="translate(.5 .5)" fill-opacity=".5"><path fill="#d9d7ff" d="M117 10h51v103h-51z"/><ellipse fill="#abcdff" cx="69" cy="90" rx="76" ry="14"/><ellipse rx="1" ry="1" transform="matrix(-82.31723 37.34075 -17.82617 -39.29757 45.6 28)"/><ellipse fill="#0c25ff" rx="1" ry="1" transform="matrix(103.37565 12.8931 -2.12168 17.01145 161.5 107.4)"/><ellipse cx="6" cy="132" rx="142" ry="26"/><path fill="#fff" d="M119 17h48v27h-48z"/><ellipse fill="#fff" cx="181" cy="79" rx="102" ry="6"/><ellipse fill="#fff" rx="1" ry="1" transform="matrix(-57.03864 7.61058 -.9298 -6.96851 34.2 90.1)"/><ellipse rx="1" ry="1" transform="matrix(-57.76638 -16.24812 12.2977 -43.72161 32.1 34)"/><ellipse fill="#00000d" cx="198" cy="25" rx="26" ry="67"/><path fill="#241f3c" d="M71 45h108v28H71z"/><ellipse rx="1" ry="1" transform="rotate(97.5 -33.6 81.7) scale(19.11052 168.58242)"/><ellipse cx="141" cy="89" rx="80" ry="4"/><path d="M195-16L27 9.6l121.4-2.4L215 48.7z"/><ellipse fill="#3553ff" cx="161" cy="105" rx="105" ry="12"/><path fill="#eddfda" d="M169 17l-57 22 63 6z"/><path fill="#c9c6d5" d="M100.2 55l59.2-5.8-68.6 6.9 6.7 46.7z"/><ellipse cx="28" cy="124" rx="13" ry="29"/><ellipse fill="#0002ff" cx="37" cy="79" rx="33" ry="3"/><ellipse fill="#fff" cx="116" cy="81" rx="44" ry="5"/><ellipse rx="1" ry="1" transform="matrix(-6.23664 -2.09886 3.04056 -9.03483 80.2 110.1)"/><path d="M142 148l36-6-22-34z"/></g></svg>