<svg xmlns="http://www.w3.org/2000/svg" viewBox="0 0 200 133"><filter id="b"><feGaussianBlur stdDeviation="12" /></filter><path fill="#272f35" d="M0 0h200v133H0z"/><g filter="url(#b)" transform="translate(.5 .5)" fill-opacity=".5"><ellipse fill="#c2a48a" rx="1" ry="1" transform="matrix(50.02083 21.18055 -7.49994 17.71217 57.6 38.7)"/><ellipse fill="#a98d82" cx="145" cy="38" rx="35" ry="17"/><ellipse rx="1" ry="1" transform="rotate(18.9 -281.7 299.4) scale(104.20814 45.6512)"/><ellipse fill="#008eff" cx="142" cy="3" rx="95" ry="8"/><path fill="#aea5a7" d="M57 35l39-11-18 64z"/><ellipse fill="#000001" rx="1" ry="1" transform="rotate(-21.2 328.3 -373.7) scale(80.37883 20.99345)"/><ellipse fill="#e6e2cb" cx="21" cy="48" rx="15" ry="3"/><path fill="#a28f81" d="M164 32h12v45h-12z"/><ellipse fill="#204f74" rx="1" ry="1" transform="rotate(146.6 19.7 5.9) scale(14.14848 48.64808)"/><ellipse fill="#d1af94" cx="139" cy="30" rx="10" ry="13"/><path fill="#ae9377" d="M-8.5 5.2l50 14.3-5 17.3-50-14.3z"/><path fill="#748aae" d="M56.8 86.2L70 80.3l-3.5 21.3-8.2-4.4z"/><path fill="#000005" d="M154 18l18 130-38-24z"/><ellipse fill="#000001" rx="1" ry="1" transform="matrix(-14.6543 -8.56328 5.02537 -8.59989 118.3 56.6)"/><ellipse fill="#967f75" cx="185" cy="113" rx="12" ry="10"/><ellipse cx="24" cy="87" rx="31" ry="31"/><ellipse fill="#001b38" cx="92" cy="35" rx="4" ry="23"/><path fill="#04080e" d="M70 53l-76 95L38 46z"/><path fill="#150800" d="M14.8 7.5l5.2 3-28.8 48-5.2-3z"/><path fill="#a1c3dc" d="M132.2 46.2L147 67.5l-3.3 2.3L129 48.5z"/><path fill="#cee5ef" d="M91 60h17v5H91z"/><path fill="#9ac1e7" d="M158 68h5v9h-5z"/></g></svg>