<svg xmlns="http://www.w3.org/2000/svg" viewBox="0 0 700 467"><filter id="b"><feGaussianBlur stdDeviation="12" /></filter><path fill="#565e5f" d="M0 0h700v464H0z"/><g filter="url(#b)" transform="translate(1.4 1.4) scale(2.73438)" fill-opacity=".5"><ellipse rx="1" ry="1" transform="matrix(-.2452 28.7102 -137.76883 -1.1766 65.8 16.4)"/><ellipse fill="#c7daf7" cx="62" cy="76" rx="42" ry="42"/><path fill="#ccffa9" d="M241.1 164.5l-49.6 48-64.6-67 49.6-48z"/><ellipse fill="#a6cfff" cx="237" cy="29" rx="40" ry="27"/><ellipse cx="253" cy="94" rx="36" ry="38"/><ellipse fill="#090000" rx="1" ry="1" transform="matrix(-10.2368 -66.02944 20.6535 -3.202 105.6 169)"/><path fill="#77a5f8" d="M123 54h22v116h-22z"/><ellipse fill="#170000" rx="1" ry="1" transform="matrix(186.84836 -24.99252 3.47232 25.95968 46 19.8)"/><path fill="#e7e2ff" d="M213 119l-22-43 31-3z"/><ellipse fill="#e2cd94" rx="1" ry="1" transform="matrix(-7.5394 28.73845 -16.45008 -4.3156 67.1 153.4)"/><path fill="#fff" d="M36 72l-52 30 30 1z"/><ellipse cx="247" cy="89" rx="27" ry="33"/><ellipse fill="#0060d0" rx="1" ry="1" transform="rotate(-145.8 135 31.5) scale(60.50584 11.32677)"/><ellipse fill="#0c0000" rx="1" ry="1" transform="rotate(-147.5 88.2 -14) scale(30.61876 26.31932)"/><path fill="#00000b" d="M142 84h56v18h-56z"/><ellipse fill="#fbb37e" rx="1" ry="1" transform="matrix(26.64263 -5.66307 1.5507 7.2955 70.8 45)"/><path d="M194 55h44v11h-44z"/><path fill="#af92ff" d="M198 7h58v21h-58z"/><path fill="#120000" d="M118.6 65.6l-24-12.2 20.8-41 24 12.2z"/><path d="M33 121l-35 9 26-36z"/><ellipse fill="#e4c5a7" rx="1" ry="1" transform="matrix(14.1292 -27.97106 8.09828 4.09074 139.3 75.8)"/><ellipse fill="#005ae1" rx="1" ry="1" transform="rotate(-109.2 115.6 24) scale(42.17647 10.23858)"/></g></svg>