<svg xmlns="http://www.w3.org/2000/svg" viewBox="0 0 700 467"><filter id="b"><feGaussianBlur stdDeviation="12" /></filter><path fill="#66533e" d="M0 0h700v464H0z"/><g filter="url(#b)" transform="translate(1.4 1.4) scale(2.73438)" fill-opacity=".5"><ellipse cx="65" cy="131" rx="131" ry="25"/><ellipse fill="#cafcff" cx="77" cy="79" rx="22" ry="30"/><ellipse fill="#ffbc3c" rx="1" ry="1" transform="matrix(-4.63462 21.14291 -67.35045 -14.76352 115.9 11.2)"/><ellipse fill="#000014" rx="1" ry="1" transform="matrix(30.10464 -2.74985 4.75248 52.02888 160 99.8)"/><ellipse fill="#fde9d4" rx="1" ry="1" transform="matrix(68.71315 6.28753 -.88952 9.72104 227.3 164.3)"/><path fill="#fff" d="M185 48h17v33h-17z"/><ellipse fill="#fff" cx="26" cy="29" rx="4" ry="107"/><path d="M62.6 131.9l-21.8 2.7L31.4 58l21.8-2.7z"/><ellipse fill="#bb7223" rx="1" ry="1" transform="matrix(-75.79787 12.68421 -5.10272 -30.49267 184.5 20.3)"/><ellipse fill="#010000" cy="89" rx="19" ry="52"/><path fill="#ffe1e9" d="M49 34h14v28H49z"/><path fill="#fff" d="M128 99.2l-6-.5 4-43.9 6 .5z"/><ellipse fill="#fedcbe" rx="1" ry="1" transform="matrix(.65536 12.60094 -24.21573 1.25944 11.5 169)"/><ellipse fill="#e7911b" cx="246" cy="131" rx="14" ry="29"/><ellipse cx="68" cy="138" rx="30" ry="25"/><ellipse fill="#722c00" rx="1" ry="1" transform="rotate(-165.2 131.9 16.8) scale(18.79578 59.84127)"/><ellipse fill="#fff" cx="224" rx="11" ry="6"/><ellipse fill="#ffe34f" cx="209" cy="121" rx="9" ry="15"/><path fill="#8eb9ff" d="M58 66h36v43H58z"/><path fill="#feae55" d="M62 0h75v27H62z"/><path d="M216 113h17v35h-17z"/><ellipse fill="#743b00" rx="1" ry="1" transform="matrix(59.18176 21.67984 -5.95377 16.25264 226.6 36.5)"/></g></svg>