<svg xmlns="http://www.w3.org/2000/svg" viewBox="0 0 200 133"><filter id="b"><feGaussianBlur stdDeviation="12" /></filter><path fill="#25264b" d="M0 0h200v133H0z"/><g filter="url(#b)" transform="translate(.5 .5)" fill-opacity=".5"><ellipse fill="#685ffa" cx="124" cy="43" rx="44" ry="26"/><path fill="#b3a8e0" d="M81 78h33v43H81z"/><path d="M6-16l-22 60L215 2z"/><ellipse fill="#88b0da" cx="153" cy="86" rx="18" ry="18"/><path fill="#fff" d="M46 63L32 86l13 10z"/><ellipse rx="1" ry="1" transform="matrix(12.04854 -75.03949 28.5207 4.57936 199 33.5)"/><ellipse fill="#90dcff" cx="12" cy="80" rx="7" ry="14"/><path fill="#635ddf" d="M60 21h88v26H60z"/><ellipse fill="#000002" cx="78" cy="106" rx="47" ry="6"/><ellipse cx="81" cy="132" rx="199" ry="11"/><ellipse fill="#000017" cx="99" cy="60" rx="27" ry="10"/><ellipse rx="1" ry="1" transform="matrix(-112.5145 90.88831 -17.56162 -21.74027 15.8 30.7)"/><ellipse fill="#000004" rx="1" ry="1" transform="matrix(-1.49368 -27.62174 6.45627 -.34913 152.4 91.3)"/><path fill="#e5d5ff" d="M87.2 83.2l14.6-2.6 13.9 27.3-27.9-13.6z"/><ellipse fill="#fff" cx="163" cy="83" rx="6" ry="13"/><path fill="#a4c8b3" d="M158 110h20v12h-20z"/><path fill="#849eff" d="M127.9 23l11.6 73 5.8 4.3 4-12.6z"/><path fill="#bcccc2" d="M95.1 122.7l-.2-11 28-.4.2 11z"/><path fill="#000006" d="M45-10L34 89-13-3z"/><path fill="#f6ffff" d="M36 75l14 1-13 20z"/><ellipse rx="1" ry="1" transform="rotate(92.3 81.8 88) scale(10.79419 124.03123)"/><ellipse fill="#21177b" cx="53" cy="30" rx="24" ry="15"/></g></svg>