<svg xmlns="http://www.w3.org/2000/svg" viewBox="0 0 700 467"><filter id="b"><feGaussianBlur stdDeviation="12" /></filter><path fill="#23253a" d="M0 0h700v464H0z"/><g filter="url(#b)" transform="translate(1.4 1.4) scale(2.73438)" fill-opacity=".5"><ellipse fill="#8b81b1" cx="134" cy="110" rx="92" ry="31"/><ellipse fill="#729dde" cx="171" cy="38" rx="52" ry="17"/><ellipse cx="30" rx="78" ry="78"/><ellipse fill="#1738d7" rx="1" ry="1" transform="rotate(107.3 65.4 109.9) scale(27.7507 21.76472)"/><ellipse rx="1" ry="1" transform="matrix(0 18.19699 -240.39283 0 120.5 159.5)"/><ellipse cx="203" cy="8" rx="255" ry="15"/><path fill="#350000" d="M188.6 88.1l-3.2 17.2-13.8 10.5 99.4 2.3z"/><path fill="#5173ff" d="M18 79l20-17-10 84z"/><path fill="#2c56ff" d="M246 93.7L230.2 96 226 66.3l15.8-2.3z"/><ellipse fill="#000ead" rx="1" ry="1" transform="matrix(22.1533 -1.0979 .80362 16.21545 72 92.5)"/><path fill="#93afa0" d="M246 131l-116 4 29-27z"/><path d="M258 112l-1-123-47 11z"/><ellipse rx="1" ry="1" transform="matrix(-153.91257 -16.24315 2.14955 -20.36813 91.4 160.2)"/><ellipse fill="#dff" cx="87" cy="127" rx="9" ry="9"/><path d="M73.5 130.4l-8 .2-1-59 8-.2z"/><ellipse rx="1" ry="1" transform="matrix(-26.31786 -8.03383 31.8637 -104.38157 0 63)"/><ellipse fill="#92a9cf" rx="1" ry="1" transform="matrix(-10.57255 -6.21453 11.81217 -20.0956 117.6 102.8)"/><ellipse fill="#789b93" rx="1" ry="1" transform="matrix(25.28924 -5.14515 1.5871 7.80084 37 126.4)"/><path fill="#4866ff" d="M169.8 73.8L207.3 56l-33.4 44 7.9 16z"/><path fill="#e80000" d="M232 95h17v19h-17z"/><path fill="#040000" d="M178 124l5 61-45-42z"/><path d="M52 94l-18 42 5-99z"/></g></svg>