<svg xmlns="http://www.w3.org/2000/svg" viewBox="0 0 700 467"><filter id="b"><feGaussianBlur stdDeviation="12" /></filter><path fill="#7a7876" d="M0 0h700v464H0z"/><g filter="url(#b)" transform="translate(1.4 1.4) scale(2.73438)" fill-opacity=".5"><ellipse rx="1" ry="1" transform="matrix(38.9855 52.45342 -70.44501 52.35759 74.3 19.4)"/><ellipse fill="#fff" rx="1" ry="1" transform="rotate(99.5 25.7 154.4) scale(39.64656 163.09759)"/><ellipse fill="#000018" rx="1" ry="1" transform="matrix(-32.12238 17.4443 -8.66974 -15.96468 231 52.2)"/><ellipse fill="#c9d7ff" rx="1" ry="1" transform="rotate(141.2 90 37.6) scale(24.12467 39.82105)"/><ellipse fill="#050000" rx="1" ry="1" transform="matrix(60.15535 34.75547 -15.59975 27.00031 72 34)"/><ellipse fill="#ecfdf1" cx="255" cy="100" rx="29" ry="35"/><path fill="#fff" d="M267.3.8L273 20l-56.4 17.3L211 18z"/><ellipse fill="#080000" rx="1" ry="1" transform="matrix(-10.252 1.05882 -5.67653 -54.96292 2.9 107.5)"/><ellipse fill="#54ceff" cx="38" cy="60" rx="15" ry="13"/><ellipse fill="#ebffff" cx="176" cy="165" rx="38" ry="38"/><ellipse cx="4" cy="34" rx="24" ry="41"/><ellipse fill="#4b5fea" rx="1" ry="1" transform="matrix(-29.98575 1.03435 -.34818 -10.09375 10.5 84.8)"/><ellipse fill="#412a2e" rx="1" ry="1" transform="matrix(7.12972 14.40775 -22.8361 11.3005 179.4 62.7)"/><ellipse fill="#edffff" rx="1" ry="1" transform="matrix(6.88863 13.93808 -39.41407 19.47965 244.4 153.7)"/><ellipse fill="#bf7c12" rx="1" ry="1" transform="matrix(-7.65352 15.32744 -96.93539 -48.4032 26.7 165)"/><ellipse fill="#e3fbfd" rx="1" ry="1" transform="matrix(1.64766 22.75522 -23.09298 1.67211 124 140.7)"/><ellipse fill="#00004d" rx="1" ry="1" transform="matrix(15.89454 7.54728 -9.24147 19.46249 234.7 53.3)"/><ellipse fill="#9c9b91" cx="217" cy="120" rx="21" ry="32"/><ellipse fill="#492000" cx="100" cy="13" rx="43" ry="36"/><path fill="#200815" d="M210 19l49-20-51-15z"/><path fill="#ee9118" d="M197.9 79.2l26.3-9.7-22.7-17L201 71z"/><ellipse fill="#151a0a" cx="151" cy="91" rx="33" ry="5"/></g></svg>