<svg xmlns="http://www.w3.org/2000/svg" viewBox="0 0 700 467"><filter id="b"><feGaussianBlur stdDeviation="12" /></filter><path fill="#615b4f" d="M0 0h700v464H0z"/><g filter="url(#b)" transform="translate(1.4 1.4) scale(2.73438)" fill-opacity=".5"><ellipse fill="#fff" cx="44" cy="55" rx="100" ry="28"/><ellipse cx="155" cy="167" rx="139" ry="79"/><ellipse fill="#f6ffff" rx="1" ry="1" transform="rotate(-96.8 46.2 37.6) scale(46.6414 25.79303)"/><ellipse fill="#e9e3d7" rx="1" ry="1" transform="rotate(-144.7 68 32) scale(34.07723 16.85405)"/><ellipse fill="#cfc48a" rx="1" ry="1" transform="matrix(20.00092 5.12399 -9.7196 37.93937 226 25.2)"/><ellipse cx="227" cy="84" rx="24" ry="24"/><ellipse fill="#be9563" rx="1" ry="1" transform="rotate(-146.1 84.5 -1.9) scale(60.90395 24.63908)"/><ellipse fill="#090908" rx="1" ry="1" transform="rotate(-2.9 2080.6 -1067) scale(20.59962 29.49767)"/><ellipse fill="#1e0e00" cx="24" cy="10" rx="67" ry="17"/><ellipse fill="#1f1516" cx="150" cy="82" rx="30" ry="29"/><path fill="#feffff" d="M0 29h69v28H0z"/><ellipse fill="#090c09" rx="1" ry="1" transform="rotate(-.8 10710.2 -4757) scale(114.29853 20.75366)"/><path fill="#ffffb7" d="M155.9 34.8l-16 1.4-1.8-21 16-1.4z"/><path fill="#fff" d="M214 11h10v19h-10z"/><path fill="#d8dbe5" d="M243 99h13v20h-13z"/><path fill="#f2f2f3" d="M37.2 114.1l2.2 17.9-64.6 7.9-2.2-17.9z"/><ellipse fill="#000002" rx="1" ry="1" transform="rotate(93.8 41.1 186.8) scale(44.36331 31.80896)"/><path fill="#fff5e5" d="M193.8 60l12 18.5L188.2 90l-12-18.4z"/><path fill="#261e14" d="M28 52.2l22.4 18.2 40.2 32-55.4-33.2z"/><path fill="#ffddb1" d="M120.8 126.7l-6.6-15.6 23-9.8 6.6 15.6z"/><ellipse fill="#865c17" cx="90" cy="18" rx="47" ry="13"/><path fill="#9eb8d0" d="M69 36l51 70 1-76z"/></g></svg>