<svg xmlns="http://www.w3.org/2000/svg" viewBox="0 0 200 133"><filter id="b"><feGaussianBlur stdDeviation="12" /></filter><path fill="#4e4f57" d="M0 0h200v133H0z"/><g filter="url(#b)" transform="translate(.5 .5)" fill-opacity=".5"><ellipse fill="#fffffd" cx="140" cy="132" rx="151" ry="30"/><ellipse cx="32" cy="27" rx="58" ry="58"/><ellipse fill="#ffffe9" cx="97" cy="96" rx="25" ry="32"/><ellipse cx="167" cy="130" rx="95" ry="7"/><path d="M95 104.6l9.4-1.2 2.9-26.6L88.5-.5z"/><ellipse fill="#e5f4fe" rx="1" ry="1" transform="matrix(6.07686 .174 -1.14438 39.96468 189.5 81.7)"/><ellipse fill="#0b1030" rx="1" ry="1" transform="matrix(-27.39557 -11.57302 27.6695 -65.49906 161 44.4)"/><path fill="#0c0000" d="M20 0h55v108H20z"/><path fill="#9f0921" d="M32 117l12-81 12 86z"/><path fill="#fffcd7" d="M91.6 129l1.8-53.7L87 39.8l-15 31z"/><path fill="#fff" d="M122 63l-11-25-7 65z"/><ellipse fill="#001a43" rx="1" ry="1" transform="matrix(11.5747 30.56109 -44.94355 17.02192 102 14.5)"/><path fill="#fff" d="M87 101L3 136l179-21z"/><path fill="#000205" d="M160.6 121.7l47-2.7-13 29-129.3-15.6z"/><path fill="#e9e9e1" d="M12 68h8v65h-8z"/><path fill="#fff" d="M127 118l53 2 35-23z"/><path fill="#2b1e2c" d="M182.4 104.4L182 52l-59.3 52.4 5.7 6.5z"/><ellipse fill="#000504" rx="1" ry="1" transform="rotate(81.6 -8.7 22.8) scale(31.48858 48.39585)"/><path fill="#6a1525" d="M35 59h22v62H35z"/><path fill="#fff" d="M106 77h15v48h-15zm-95.5 68.4l-15.8 2.8-5.2-29.6 15.8-2.8z"/><ellipse fill="#fff" cx="29" cy="126" rx="8" ry="13"/></g></svg>