<svg xmlns="http://www.w3.org/2000/svg" viewBox="0 0 200 133"><filter id="b"><feGaussianBlur stdDeviation="12" /></filter><path fill="#67686d" d="M0 0h200v133H0z"/><g filter="url(#b)" transform="translate(.5 .5)" fill-opacity=".5"><ellipse fill="#fff" rx="1" ry="1" transform="matrix(139.0266 1.44884 -.39159 37.57583 115.6 8.4)"/><ellipse cx="65" cy="78" rx="199" ry="30"/><ellipse rx="1" ry="1" transform="matrix(2.98146 -63.28307 19.56018 .92154 133.7 117.6)"/><ellipse fill="#fff" rx="1" ry="1" transform="matrix(-66.84692 11.54647 -4.1157 -23.82731 78.1 1.7)"/><ellipse fill="#ffffef" rx="1" ry="1" transform="rotate(122.8 84.4 54.7) scale(41.5714 23.89925)"/><ellipse fill="#000008" cx="50" cy="73" rx="72" ry="18"/><ellipse cx="190" cy="132" rx="8" ry="64"/><ellipse fill="#252729" rx="1" ry="1" transform="matrix(.67334 -30.80994 12.42203 .27148 0 31)"/><ellipse fill="#989ba9" cx="170" cy="97" rx="15" ry="15"/><ellipse fill="#f3f5fa" rx="1" ry="1" transform="rotate(125.4 11.5 18.7) scale(29.35289 19.43694)"/><path fill="#2b1d1b" d="M58 26h12v23H58z"/><ellipse cx="132" cy="120" rx="19" ry="31"/><ellipse fill="#75829a" rx="1" ry="1" transform="rotate(-29.5 275.5 -91) scale(37.52393 22.06099)"/><ellipse fill="#fff" rx="1" ry="1" transform="matrix(2.40339 -14.80658 52.25988 8.48276 73 4.7)"/><ellipse fill="#09030e" rx="1" ry="1" transform="matrix(-20.0143 29.5932 -3.60548 -2.43844 178.4 59.5)"/><ellipse fill="#51403a" cx="136" cy="58" rx="20" ry="22"/><ellipse fill="#2e3950" rx="1" ry="1" transform="matrix(1.36784 24.85094 -27.94898 1.53836 5.5 111.9)"/><path fill="#7b8081" d="M7 20h4v75H7z"/><ellipse fill="#dee5d3" cx="129" cy="5" rx="21" ry="30"/><path fill="#0c0b13" d="M192 72l-25-31-33 45z"/><path fill="#756b89" d="M188 29h11v39h-11z"/><ellipse fill="#746d74" rx="1" ry="1" transform="rotate(-176.5 46.2 19) scale(34.66574 10.48421)"/></g></svg>