<svg xmlns="http://www.w3.org/2000/svg" viewBox="0 0 700 467"><filter id="b"><feGaussianBlur stdDeviation="12" /></filter><path fill="#615b4f" d="M0 0h700v464H0z"/><g filter="url(#b)" transform="translate(1.4 1.4) scale(2.73438)" fill-opacity=".5"><ellipse fill="#fff" cx="25" cy="58" rx="109" ry="32"/><ellipse cx="168" cy="169" rx="94" ry="94"/><ellipse fill="#faffff" rx="1" ry="1" transform="matrix(-30.32546 -21.39226 16.85265 -23.89015 3.7 103.8)"/><ellipse cx="59" cy="142" rx="25" ry="70"/><ellipse fill="#f6eada" rx="1" ry="1" transform="matrix(-7.32009 12.29567 -25.89136 -15.41413 111.1 100.6)"/><ellipse fill="#bb9c67" rx="1" ry="1" transform="matrix(6.6582 46.86175 -68.56818 9.74228 181.2 25.9)"/><ellipse rx="1" ry="1" transform="matrix(22.47945 -15.91417 13.49533 19.06274 231.3 82)"/><ellipse fill="#fff" rx="1" ry="1" transform="matrix(-42.52334 12.0329 -4.27903 -15.12177 28.4 49.3)"/><ellipse fill="#fffde4" cx="193" cy="75" rx="12" ry="12"/><ellipse fill="#050707" cx="38" cy="156" rx="255" ry="22"/><ellipse fill="#1c0b00" rx="1" ry="1" transform="matrix(70.1414 8.86092 -2.1076 16.68336 9.1 9.6)"/><path fill="#ecf8f0" d="M212 6h11v57h-11z"/><path fill="#504018" d="M271 50L153 2l35 39z"/><path fill="#2b1d1d" d="M124.7 53.3l50 3.5-3.4 47.9-50-3.5z"/><ellipse fill="#a4afb4" cx="100" cy="65" rx="25" ry="45"/><path fill="#ffeda3" d="M136 13h17v27h-17z"/><path fill="#080000" d="M29 59l18 3 3 16z"/><path fill="#fce0bf" d="M144 108.3l-26.4 18.2 4-51.9-9.2 26z"/><path fill="#dfe1e0" d="M27.2 108.7l-43.2 29 55.7-5.3-2-19.2z"/><ellipse fill="#7f5312" rx="1" ry="1" transform="matrix(-2.43047 -17.07737 40.74343 -5.79865 103 13.4)"/><path fill="#ecf0fd" d="M243 101l5 24 6-27z"/><path fill="#050606" d="M249 165l-59 16 49-131z"/></g></svg>