<svg xmlns="http://www.w3.org/2000/svg" viewBox="0 0 200 133"><filter id="b"><feGaussianBlur stdDeviation="12" /></filter><path fill="#94868d" d="M0 0h200v133H0z"/><g filter="url(#b)" transform="translate(.5 .5)" fill-opacity=".5"><path fill="#fff" d="M126 83.4L22 81.6l2-105 104 1.8z"/><ellipse fill="#4c0000" rx="1" ry="1" transform="matrix(.62155 32.37055 -198.96332 3.8203 75.8 114.4)"/><ellipse fill="#00006c" rx="1" ry="1" transform="rotate(-4.7 749 -2370.6) scale(32.31673 68.89336)"/><ellipse fill="#feffff" cx="29" cy="25" rx="98" ry="57"/><ellipse fill="#910000" cx="135" cy="42" rx="9" ry="194"/><ellipse fill="#002e79" cx="199" cy="21" rx="33" ry="95"/><path fill="#fff" d="M78.5 24l48-1 1 59-48 1z"/><ellipse fill="#951400" cx="27" cy="97" rx="111" ry="16"/><ellipse fill="#d0d0bc" cx="177" cy="131" rx="33" ry="13"/><ellipse fill="#8ca38f" rx="1" ry="1" transform="rotate(-102.1 117.3 -11) scale(21.55443 16.01288)"/><ellipse fill="#dcf6ff" cx="24" cy="31" rx="103" ry="51"/><ellipse fill="#809db3" rx="1" ry="1" transform="matrix(-11.87406 -4.39582 9.75705 -26.35589 25 39.3)"/><ellipse fill="#b20200" cx="137" cy="22" rx="8" ry="59"/><path fill="#0a1412" d="M140 148H82l53.3-35.4 15-18z"/><path fill="#9fd3ff" d="M54.3 120.4L75.9 131l-6.2 12.6L48.1 133z"/><path fill="#faffff" d="M83 124l-6-20 16 12z"/><ellipse fill="#37281d" cx="21" cy="117" rx="60" ry="16"/><path fill="#003877" d="M213 104l2-44-73 18z"/><path fill="#b91f00" d="M129 133l-16-26 28-54z"/><path fill="#be1300" d="M16 122l7.3-37.3L40 88l-7.3 37.3z"/><ellipse fill="#00337b" rx="1" ry="1" transform="matrix(-18.5363 .55014 -1.83268 -61.74946 185.1 34.5)"/><path fill="#54452d" d="M164 89h18v44h-18z"/></g></svg>