<svg xmlns="http://www.w3.org/2000/svg" viewBox="0 0 700 467"><filter id="b"><feGaussianBlur stdDeviation="12" /></filter><path fill="#2f3442" d="M0 0h700v464H0z"/><g filter="url(#b)" transform="translate(1.4 1.4) scale(2.73438)" fill-opacity=".5"><ellipse fill="#bcafbc" rx="1" ry="1" transform="matrix(-25.95971 -1.46053 3.94889 -70.18804 148 132.7)"/><ellipse rx="1" ry="1" transform="matrix(22.97971 131.2643 -53.97872 9.44975 219.3 71.9)"/><path fill="#b1c8ff" d="M-14.2 87.8l88-7.8-7-7.4-65.2.5z"/><ellipse fill="#4e5d8c" rx="1" ry="1" transform="rotate(138.5 -22 88.3) scale(117.25723 26.97235)"/><ellipse fill="#b8deff" cx="13" cy="36" rx="33" ry="6"/><ellipse fill="#91beff" rx="1" ry="1" transform="rotate(-174.5 49.8 18.7) scale(22.65374 4.5958)"/><ellipse rx="1" ry="1" transform="matrix(-1.11791 -36.68544 9.47301 -.28867 119.8 91.7)"/><ellipse fill="#e8c1db" cx="151" cy="35" rx="9" ry="10"/><path fill="#b6aeb4" d="M123 121h54v27h-54z"/><path fill="#000002" d="M240.3 176.7L142 182l6.7-34.5 7.5 13.4z"/><path d="M188.4 121.1l-53.7-1.3 25-4.6 17-12z"/><path fill="#000100" d="M79 61l79-13-76 35z"/><path fill="#000410" d="M56.1 116.5l-61.8 32.9-8.4-16 61.8-32.8z"/><path fill="#a7dcf4" d="M68.2 102l39.5-6.5-16.1 11-19.6-5.2z"/><path fill="#dee0ff" d="M156 98h15v12h-15z"/><path fill="#586d91" d="M30.6 112.1l23-27.6L-16 98.3l6.6 12.9z"/><ellipse fill="#020805" cx="240" cy="61" rx="35" ry="84"/><path fill="#766f71" d="M174 103l-5-50-44 14z"/><path fill="#667cbe" d="M27.5 163l-1.9-23.3-16 5.3 50.6-29.5z"/><ellipse fill="#000206" cx="23" cy="65" rx="44" ry="8"/><ellipse fill="#0e161a" rx="1" ry="1" transform="matrix(7.9465 16.14943 -44.67222 21.98145 127.4 9.3)"/><path fill="#212841" d="M149 78l-6 31 28-35z"/></g></svg>