<svg xmlns="http://www.w3.org/2000/svg" viewBox="0 0 641 195"><filter id="b"><feGaussianBlur stdDeviation="12" /></filter><path fill="#949787" d="M0 0h641v192H0z"/><g filter="url(#b)" transform="translate(1.3 1.3) scale(2.5039)" fill-opacity=".5"><ellipse fill="#fff" rx="1" ry="1" transform="matrix(.1136 21.69536 -217.79817 1.1404 123.3 10)"/><ellipse fill="#2e2f14" cx="207" cy="76" rx="49" ry="49"/><ellipse fill="#1a1100" rx="1" ry="1" transform="rotate(85.6 -7.3 74.4) scale(27.27589 114.71506)"/><ellipse fill="#fff" cx="112" rx="232" ry="15"/><ellipse fill="#a6af9e" rx="1" ry="1" transform="rotate(-178.4 89.4 16) scale(208.37416 11.90085)"/><ellipse fill="#33230e" rx="1" ry="1" transform="matrix(-132.38516 6.01157 -.9251 -20.3721 234.1 75.9)"/><path d="M91.9 83l-104-2 .2-12 104 2z"/><ellipse fill="#6b7b5b" cx="108" cy="52" rx="168" ry="14"/><ellipse fill="#b3b5a9" cx="212" cy="29" rx="49" ry="11"/><path fill="#0e060a" d="M264.6 91L271-16l-21 77.5L209.2 92z"/><path fill="#73ec74" d="M88 49l11.4-11.4 1.8 5.4-2 17.5z"/><path fill="#3c4112" d="M-10.3 92l36.1-22.6-22.9-19-17 7z"/><path fill="#534536" d="M139 51l10 25 89-15z"/><ellipse fill="#51805c" rx="1" ry="1" transform="matrix(5.51778 7.83066 -22.34611 15.7459 245.1 48.1)"/><ellipse fill="#fff" cx="116" rx="237" ry="7"/><path fill="#bd8542" d="M185 67h10v10h-10z"/><path fill="#0a0b04" d="M118.8 69.7l48.7 5.5-105.4 2 44 3z"/><path fill="#050000" d="M196 71h16v6h-16z"/><ellipse fill="#859580" rx="1" ry="1" transform="matrix(-89.28815 5.90703 -.40149 -6.0687 186 42.2)"/><ellipse fill="#7b4e38" cx="76" cy="63" rx="45" ry="6"/><path fill="#1a180a" d="M117.1 92l-67-21.1-.7-9.7L7.9 75.4z"/><path fill="#867e2c" d="M208.8 64l19.9 17.7 7.5-34.5L219.9 92z"/></g></svg>