<svg xmlns="http://www.w3.org/2000/svg" viewBox="0 0 700 1050"><filter id="b"><feGaussianBlur stdDeviation="12" /></filter><path fill="#afb78e" d="M0 0h697v1050H0z"/><g filter="url(#b)" transform="translate(2 2) scale(4.10156)" fill-opacity=".5"><ellipse fill="#000700" rx="1" ry="1" transform="matrix(-28.50265 35.92735 -21.69787 -17.21381 72.3 130.4)"/><ellipse fill="#fff" cx="26" cy="240" rx="60" ry="25"/><ellipse fill="#4b4b2c" rx="1" ry="1" transform="matrix(-51.64603 -45.9316 19.73177 -22.18663 94.8 216)"/><ellipse fill="#ffffc8" cx="13" cy="42" rx="79" ry="56"/><ellipse cx="159" cy="103" rx="23" ry="23"/><ellipse fill="#fff" cx="134" cy="148" rx="36" ry="23"/><path fill="#fff" d="M140.5-6.1l27.7 8.5L139.5 96l-27.7-8.5z"/><ellipse fill="#fff" cx="41" cy="255" rx="41" ry="41"/><ellipse fill="#fff" cy="79" rx="13" ry="110"/><ellipse fill="#020004" rx="1" ry="1" transform="matrix(-16.41387 27.75433 -6.24689 -3.6944 59.6 189.6)"/><ellipse fill="#92c81c" cx="30" cy="110" rx="21" ry="32"/><ellipse fill="#63485a" rx="1" ry="1" transform="matrix(18.16343 -1.68933 3.6404 39.14097 158.8 224.2)"/><ellipse fill="#fff" cx="136" cy="159" rx="10" ry="48"/><ellipse fill="#d2d5c1" cx="97" cy="187" rx="29" ry="10"/><ellipse fill="#fff" rx="1" ry="1" transform="rotate(-99.8 26.6 25.4) scale(31.16921 35.26572)"/><path fill="#2d1c0d" d="M89 81L66 198 59 96z"/><ellipse fill="#c0d74c" rx="1" ry="1" transform="matrix(14.33517 -52.26643 22.07112 6.05347 90 27.4)"/><ellipse fill="#fffff1" rx="1" ry="1" transform="matrix(-3.71181 -2.13242 7.8318 -13.63249 85.7 153.1)"/><path fill="#ffffef" d="M48 175l-5-18-52 47z"/><ellipse fill="#fff" rx="1" ry="1" transform="matrix(-27.8249 18.98086 -5.5209 -8.09333 62.5 248)"/><ellipse fill="#fbffff" rx="1" ry="1" transform="rotate(-145.1 83.1 -26.1) scale(20.03464 71.00859)"/><ellipse fill="#76b310" cx="70" cy="211" rx="20" ry="18"/></g></svg>