<svg xmlns="http://www.w3.org/2000/svg" viewBox="0 0 700 467"><filter id="b"><feGaussianBlur stdDeviation="12" /></filter><path fill="#6e6c7a" d="M0 0h700v464H0z"/><g filter="url(#b)" transform="translate(1.4 1.4) scale(2.73438)" fill-opacity=".5"><ellipse fill="#f5e1e5" cx="192" cy="54" rx="111" ry="34"/><ellipse cx="207" cy="153" rx="87" ry="39"/><ellipse rx="1" ry="1" transform="matrix(20.65838 13.00928 -28.66092 45.51276 61.9 141.4)"/><ellipse fill="#ead3e0" cx="27" cy="57" rx="32" ry="32"/><ellipse fill="#000f54" rx="1" ry="1" transform="matrix(-16.26036 31.81618 -38.99234 -19.9279 18.3 153)"/><ellipse fill="#fff" cx="99" cy="169" rx="20" ry="34"/><ellipse fill="#d2cde7" cx="241" cy="21" rx="34" ry="91"/><ellipse fill="#4a1400" rx="1" ry="1" transform="rotate(2 -2331.4 5651.1) scale(14.35597 50.2352)"/><ellipse fill="#003791" rx="1" ry="1" transform="matrix(-7.21387 35.1194 -55.07153 -11.31223 84 4.3)"/><ellipse fill="#6d2d00" rx="1" ry="1" transform="matrix(-27.0687 17.44954 -16.01737 -24.84703 67.3 94.1)"/><ellipse fill="#00247b" cx="182" cy="3" rx="29" ry="23"/><ellipse fill="#00328c" cy="11" rx="30" ry="27"/><path fill="#dce0ff" d="M101 57h16v74h-16z"/><ellipse fill="#bec9f1" cx="168" cy="94" rx="9" ry="41"/><ellipse fill="#734c31" cx="137" cy="104" rx="19" ry="55"/><ellipse fill="#dedaed" cx="153" cy="43" rx="28" ry="28"/><ellipse fill="#070000" rx="1" ry="1" transform="rotate(153.3 19.5 75.5) scale(27.53704 18.37812)"/><ellipse fill="#000644" rx="1" ry="1" transform="rotate(106.1 57.6 173.1) scale(46.25561 30.59931)"/><path fill="#f9e6f2" d="M48 29L41 7 15 33z"/><ellipse fill="#001841" rx="1" ry="1" transform="rotate(-156.8 26.1 82.7) scale(48.10462 34.17322)"/><ellipse fill="#370e00" cx="191" cy="145" rx="21" ry="47"/><ellipse fill="#c2a1af" cx="11" cy="90" rx="25" ry="25"/></g></svg>