<svg xmlns="http://www.w3.org/2000/svg" viewBox="0 0 700 467"><filter id="b"><feGaussianBlur stdDeviation="12" /></filter><path fill="#5c513f" d="M0 0h700v464H0z"/><g filter="url(#b)" transform="translate(1.4 1.4) scale(2.73438)" fill-opacity=".5"><path fill="#fff" d="M215.2 101.6L148.3 37l60.5-62.6L275.7 39z"/><ellipse rx="1" ry="1" transform="matrix(30.6583 -40.24477 192.21147 146.4259 9.7 128.2)"/><ellipse cx="205" cy="150" rx="62" ry="28"/><ellipse fill="#fff" cx="226" cy="37" rx="42" ry="25"/><ellipse fill="#e3b474" rx="1" ry="1" transform="matrix(-.29538 21.73029 -42.19547 -.57356 106.2 114.5)"/><ellipse cx="183" cy="81" rx="9" ry="44"/><ellipse fill="#fff85c" rx="1" ry="1" transform="matrix(-3.6638 -6.5556 20.77542 -11.611 221 113.6)"/><ellipse rx="1" ry="1" transform="rotate(94.4 -24 35.7) scale(114.23884 16.2292)"/><path fill="#fff" d="M271 6l-91 14 22 71z"/><ellipse rx="1" ry="1" transform="rotate(-139.2 147 33.4) scale(31.21831 47.11673)"/><ellipse fill="#3f501e" cx="235" rx="62" ry="15"/><ellipse fill="#0f0b04" rx="1" ry="1" transform="matrix(-29.88698 -8.84037 3.04133 -10.28195 247.6 77)"/><ellipse fill="#978759" rx="1" ry="1" transform="matrix(39.27443 -35.11539 18.3961 20.57491 154 20.2)"/><ellipse rx="1" ry="1" transform="matrix(10.58306 -36.66589 57.08563 16.47692 32.6 150.4)"/><path fill="#250004" d="M68 35l8 56-60 32z"/><ellipse fill="#ffe2c7" cx="218" cy="85" rx="24" ry="9"/><path fill="#aca7ae" d="M135.2 65.4l-10.8-42.6-7.4 36.8-7.9 67.8z"/><path fill="#cb9e59" d="M186 102l-60 14 4 41z"/><ellipse fill="#020f2d" rx="1" ry="1" transform="matrix(8.67537 32.01903 -10.46302 2.8349 145.1 73.6)"/><path fill="#0c0800" d="M139.7 153.2L198.5 88l8.1 96.9L-16 140.6z"/><path fill="#c5936b" d="M39.3 82.7l-22-6.8 9.4-30.6 22 6.8z"/><ellipse fill="#90413b" rx="1" ry="1" transform="matrix(-6.1823 32.91093 -18.37408 -3.45156 77.4 91.2)"/></g></svg>