<svg xmlns="http://www.w3.org/2000/svg" viewBox="0 0 200 133"><filter id="b"><feGaussianBlur stdDeviation="12" /></filter><path fill="#616467" d="M0 0h200v133H0z"/><g filter="url(#b)" transform="translate(.5 .5)" fill-opacity=".5"><ellipse rx="1" ry="1" transform="matrix(-104.00997 68.06222 -26.7287 -40.84575 177.5 85.7)"/><ellipse fill="#acb7b5" cy="16" rx="109" ry="109"/><ellipse fill="#a4a7ae" cx="141" cy="25" rx="22" ry="77"/><ellipse rx="1" ry="1" transform="matrix(19.23841 29.51167 -11.40084 7.43211 110 87)"/><ellipse fill="#d8cdc4" rx="1" ry="1" transform="matrix(-61.19306 14.35944 -2.97108 -12.66134 45 104.2)"/><path fill="#000003" d="M105 55h95v19h-95z"/><path fill="#443e3c" d="M89 64l-78-3-18 48z"/><ellipse fill="#00000a" rx="1" ry="1" transform="matrix(-18.66575 -2.97161 17.42283 -109.43899 197.8 64.6)"/><ellipse fill="#d3dce5" cx="130" cy="19" rx="8" ry="30"/><path fill="#fff" d="M144.5 91.5l-3.6-15.6 14.6-3.4 3.6 15.6z"/><ellipse fill="#0a0304" rx="1" ry="1" transform="matrix(15.29632 -.2521 .5512 33.44458 110.9 90.4)"/><ellipse fill="#fff7f8" cx="99" cy="20" rx="4" ry="34"/><ellipse fill="#3f393a" cx="79" cy="119" rx="15" ry="20"/><ellipse fill="#f2ebf0" cx="152" cy="39" rx="4" ry="22"/><ellipse fill="#0a1018" cx="137" cy="61" rx="8" ry="17"/><ellipse fill="#fff" rx="1" ry="1" transform="matrix(.71406 31.26177 -2.1923 .05008 39.7 34.3)"/><ellipse fill="#251e2f" cx="106" cy="12" rx="4" ry="33"/><path fill="#eae7e1" d="M93 82l3 23-45-14z"/><ellipse fill="#a0b4bb" rx="1" ry="1" transform="matrix(-2.15746 42.0157 -15.26012 -.78359 76 21.8)"/><path fill="#25251c" d="M69.6 73l31 4.5-23.3 12 18.9-25.3z"/><ellipse fill="#fff8f7" cx="163" cy="16" rx="4" ry="9"/><path fill="#fff6f5" d="M125 0h4v69h-4z"/></g></svg>