<svg xmlns="http://www.w3.org/2000/svg" viewBox="0 0 700 467"><filter id="b"><feGaussianBlur stdDeviation="12" /></filter><path fill="#695c55" d="M0 0h700v464H0z"/><g filter="url(#b)" transform="translate(1.4 1.4) scale(2.73438)" fill-opacity=".5"><ellipse fill="#fffef4" rx="1" ry="1" transform="matrix(-39.36227 75.61421 -31.50606 -16.40102 170.5 58.5)"/><ellipse rx="1" ry="1" transform="matrix(-20.86364 -81.03972 48.07812 -12.3777 79.3 148.2)"/><ellipse fill="#050406" cx="62" cy="125" rx="30" ry="152"/><ellipse cx="126" cy="24" rx="14" ry="33"/><ellipse fill="#ffe3af" cx="198" cy="55" rx="20" ry="37"/><ellipse fill="#fff" rx="1" ry="1" transform="matrix(-3.2457 2.12326 -8.72926 -13.3439 104.7 68.9)"/><ellipse fill="#160100" rx="1" ry="1" transform="rotate(-51.4 154.7 -235.8) scale(18.64876 28.16033)"/><ellipse fill="#fff" cx="142" cy="67" rx="22" ry="15"/><ellipse fill="#ab897a" cx="18" cy="50" rx="17" ry="98"/><ellipse rx="1" ry="1" transform="matrix(-20.95459 31.5349 -23.89336 -15.87687 107.5 159.8)"/><path fill="#4d3b3b" d="M145 185l24-115 102 96z"/><path fill="#e4d5b9" d="M98.6 7.3l14-23.3-50.7 9.2 50.8 60.4z"/><ellipse fill="#e9d0a5" rx="1" ry="1" transform="rotate(154.4 85.5 26) scale(17.1547 101.69999)"/><path fill="azure" d="M48.3 39.5h6l-.6 31h-6z"/><ellipse fill="#707a9a" rx="1" ry="1" transform="matrix(19.51926 -7.25915 18.04937 48.5333 156.2 120.5)"/><ellipse fill="#cdad77" rx="1" ry="1" transform="matrix(-39.39429 23.20869 -5.72917 -9.72466 255 80.2)"/><ellipse fill="#a07963" rx="1" ry="1" transform="matrix(-4.81888 4.0292 -13.78216 -16.48328 85.9 74.6)"/><ellipse fill="#ffdfca" cx="100" cy="124" rx="10" ry="5"/><path d="M135.5 121.6l.2-3 54.8 3.8-.2 3z"/><path fill="#f2c7bd" d="M115.5 31l-11.7 36.2L90.5 63l11.7-36.1z"/><path d="M150 141l12-2v46zm-18.6-41.3l1.7 16 5-31.2-7.7 9.6z"/></g></svg>