<svg xmlns="http://www.w3.org/2000/svg" viewBox="0 0 700 467"><filter id="b"><feGaussianBlur stdDeviation="12" /></filter><path fill="#6a5a4c" d="M0 0h700v464H0z"/><g filter="url(#b)" transform="translate(1.4 1.4) scale(2.73438)" fill-opacity=".5"><ellipse fill="#f1e0cb" rx="1" ry="1" transform="matrix(-131.36569 60.1439 -13.6743 -29.86728 47 138.6)"/><ellipse fill="#ffffeb" cx="236" cy="151" rx="25" ry="46"/><ellipse rx="1" ry="1" transform="rotate(-125.4 115.5 30.8) scale(32.14509 82.63491)"/><ellipse rx="1" ry="1" transform="matrix(-70.66141 -6.1435 5.14791 -59.21035 90.7 5)"/><ellipse cx="212" cy="18" rx="21" ry="49"/><ellipse fill="#f8daab" rx="1" ry="1" transform="matrix(21.45855 -19.18299 16.65955 18.63577 .5 16.4)"/><path fill="#f3d8a9" d="M61.2-.6l12-.7 3.6 70-12 .6z"/><ellipse cx="46" cy="51" rx="17" ry="52"/><ellipse fill="#ffa883" cx="103" cy="68" rx="17" ry="20"/><path fill="#fdf0eb" d="M183.4 202.1l47.3-101.5 20 9.3-47.4 101.5z"/><ellipse fill="#e9e3d3" rx="1" ry="1" transform="rotate(-28.5 285.3 -23.2) scale(31.52612 20.41311)"/><ellipse fill="#0b0805" cx="129" cy="31" rx="34" ry="34"/><ellipse fill="#c4a36c" rx="1" ry="1" transform="matrix(14.53523 -.4591 2.16167 68.44006 177.3 27.3)"/><ellipse fill="#000001" rx="1" ry="1" transform="rotate(66.3 -70 50.6) scale(19.23642 12.90049)"/><path fill="#160000" d="M216.3 141l-105.7 68.5-28.9-44.4 105.7-68.6z"/><ellipse fill="#310c06" cx="17" cy="169" rx="22" ry="14"/><ellipse fill="#b5af8c" cx="246" cy="102" rx="14" ry="30"/><ellipse fill="#4c2d00" cx="241" cy="157" rx="15" ry="7"/><path fill="#420001" d="M70 58h21v36H70z"/><ellipse fill="#6a280c" rx="1" ry="1" transform="matrix(34.72168 -34.48012 15.12877 15.23476 169.5 169)"/><ellipse fill="#f5ead9" rx="1" ry="1" transform="matrix(-2.52182 -5.55931 37.57022 -17.0426 107 114)"/><path fill="#d65a58" d="M79 83l26-47 3 55z"/></g></svg>