<svg xmlns="http://www.w3.org/2000/svg" viewBox="0 0 200 133"><filter id="b"><feGaussianBlur stdDeviation="12" /></filter><path fill="#70616a" d="M0 0h200v133H0z"/><g filter="url(#b)" transform="translate(.5 .5)" fill-opacity=".5"><ellipse fill="#7bffff" cy="37" rx="49" ry="49"/><ellipse fill="#860000" rx="1" ry="1" transform="rotate(-81.7 153.3 -31.4) scale(38.87291 99.97092)"/><ellipse fill="#670000" cx="107" cy="36" rx="17" ry="90"/><ellipse fill="#fff" rx="1" ry="1" transform="matrix(-64.5296 .4837 -.08136 -10.85459 186.7 76.3)"/><ellipse fill="#fff" rx="1" ry="1" transform="matrix(-80.82458 -40.34016 5.96704 -11.95541 147.3 0)"/><ellipse fill="#004c8e" cx="32" cy="117" rx="44" ry="44"/><ellipse fill="#79cfff" cx="16" cy="34" rx="24" ry="72"/><ellipse fill="#002456" rx="1" ry="1" transform="matrix(36.8868 -154.45606 12.60938 3.01134 59 20.4)"/><path fill="#fff" d="M190 11h10v78h-10z"/><path fill="#a20000" d="M94 15l57 125-68-30z"/><ellipse cx="114" cy="10" rx="13" ry="76"/><ellipse fill="#760000" cx="165" cy="112" rx="57" ry="26"/><path fill="#fff" d="M128.9 21.6l64-4.3L143.3-2l-13.8-2.8z"/><path fill="#1d2300" d="M142 25h47v11h-47z"/><ellipse fill="#fff" cx="128" cy="52" rx="3" ry="31"/><ellipse fill="#e51600" rx="1" ry="1" transform="matrix(9.0157 .92689 -5.98828 58.24728 97.4 48.5)"/><ellipse fill="#fff" rx="1" ry="1" transform="rotate(-80 116.8 -46.9) scale(10.47698 19.41313)"/><ellipse fill="#b7c2aa" rx="1" ry="1" transform="matrix(10.32288 .81185 -2.3986 30.4989 81.8 26.6)"/><path fill="#f3ffff" d="M101 126h22v7h-22z"/><path d="M24.9 138.5l9.8-28.3L79 125.5l-9.8 28.3z"/><ellipse fill="#006bc3" cx="3" cy="104" rx="29" ry="34"/><path fill="#b7b198" d="M56 128l-6-74 21 30z"/></g></svg>