<svg xmlns="http://www.w3.org/2000/svg" viewBox="0 0 800 533"><filter id="b"><feGaussianBlur stdDeviation="12" /></filter><path fill="#64554e" d="M0 0h800v531H0z"/><g filter="url(#b)" transform="translate(1.6 1.6) scale(3.125)" fill-opacity=".5"><ellipse fill="#cfffff" cx="131" cy="68" rx="60" ry="26"/><ellipse rx="1" ry="1" transform="matrix(1.51732 39.49707 -226.2742 8.69258 118.9 4)"/><ellipse fill="#c39953" cx="224" cy="92" rx="51" ry="56"/><ellipse cx="97" cy="162" rx="255" ry="15"/><ellipse fill="#bf857e" cx="100" cy="123" rx="47" ry="26"/><ellipse fill="#acdaff" cx="130" cy="67" rx="52" ry="24"/><ellipse fill="#a7a093" rx="1" ry="1" transform="matrix(32.43473 -14.21308 7.92528 18.08577 38.1 63.5)"/><ellipse cx="23" cy="14" rx="66" ry="30"/><ellipse cx="250" cy="7" rx="34" ry="34"/><ellipse fill="#620200" cx="199" cy="130" rx="21" ry="15"/><path fill="#447ff8" d="M80 43h101v13H80z"/><ellipse fill="#786056" cx="133" cy="26" rx="36" ry="19"/><path fill="#f6c7cb" d="M91 134h82v8H91z"/><ellipse fill="#b3b190" rx="1" ry="1" transform="matrix(1.35421 -15.17833 43.9655 3.92261 229.3 53.5)"/><ellipse fill="#1a0104" rx="1" ry="1" transform="matrix(22.64589 -19.13726 16.8076 19.88911 76.4 164.8)"/><path fill="#1c1f2c" d="M113 113l41 23 16-21z"/><ellipse fill="#e9e9de" rx="1" ry="1" transform="matrix(-1.214 -19.3288 29.69114 -1.86484 130.4 72.8)"/><path fill="#ff9778" d="M-21 145v-12h60v12z"/><path fill="#c3c089" d="M212 15h11v23h-11z"/><ellipse fill="#100000" rx="1" ry="1" transform="matrix(2.05828 17.30292 -192.13704 22.8558 190.9 169)"/><path fill="#b9959d" d="M191.2 154.4l13.1 5-4.7-16.7-41.5-7.6z"/><path fill="#777797" d="M96 97L72 46l-2 57z"/></g></svg>