<svg xmlns="http://www.w3.org/2000/svg" viewBox="0 0 641 195"><filter id="b"><feGaussianBlur stdDeviation="12" /></filter><path fill="#65201d" d="M0 0h641v192H0z"/><g filter="url(#b)" transform="translate(1.3 1.3) scale(2.5039)" fill-opacity=".5"><ellipse fill="#ff2e29" rx="1" ry="1" transform="matrix(38.12399 -1.13596 1.25163 42.00601 132 68.1)"/><ellipse fill="#e8ffff" cx="112" rx="15" ry="24"/><ellipse cx="16" cy="30" rx="41" ry="212"/><path fill="#ff8e1b" d="M15.1 46.2l-.2-14 22-.4.2 14z"/><ellipse fill="#ff322b" cx="191" cy="51" rx="15" ry="37"/><ellipse fill="#171110" rx="1" ry="1" transform="matrix(-15.3842 20.53348 -29.97495 -22.45799 237.8 52.5)"/><ellipse fill="#ff5437" cx="65" cy="42" rx="12" ry="12"/><ellipse fill="#f66957" rx="1" ry="1" transform="matrix(36.4649 -1.12282 .2124 6.898 167.8 41.7)"/><ellipse fill="#070910" cx="70" cy="8" rx="30" ry="23"/><ellipse fill="#0e1627" cx="153" cy="1" rx="30" ry="30"/><path d="M77 49h20v28H77z"/><ellipse fill="#231d37" cx="129" cy="36" rx="6" ry="38"/><ellipse cx="173" cy="58" rx="10" ry="10"/><ellipse fill="#ff0d01" cx="67" cy="76" rx="9" ry="23"/><ellipse fill="#ff3203" cx="28" cy="37" rx="13" ry="8"/><ellipse fill="#7e6d48" rx="1" ry="1" transform="matrix(24.50056 14.26374 -13.42711 23.0635 243.5 0)"/><path fill="#fff" d="M119-8l-4 29-15-34z"/><ellipse cx="23" cy="76" rx="31" ry="31"/><path fill="#ff5849" d="M156.5 40v48h-21V40z"/><path fill="#934f54" d="M143 39l-28 5L91 3z"/><path fill="#ff0007" d="M205.7 68.8L167.5 91l17.8-38.1L206.6 92z"/><ellipse fill="#0b0000" cx="129" cy="57" rx="8" ry="8"/></g></svg>