<svg xmlns="http://www.w3.org/2000/svg" viewBox="0 0 200 133"><filter id="b"><feGaussianBlur stdDeviation="12" /></filter><path fill="#60664e" d="M0 0h200v133H0z"/><g filter="url(#b)" transform="translate(.5 .5)" fill-opacity=".5"><ellipse fill="#fff" rx="1" ry="1" transform="rotate(-23.5 241.5 22) scale(24.97974 145.7521)"/><ellipse fill="#000e00" cx="82" cy="93" rx="34" ry="34"/><ellipse fill="#d4d1ff" rx="1" ry="1" transform="matrix(-46.01828 13.0058 -6.08933 -21.5458 132.6 130.6)"/><ellipse rx="1" ry="1" transform="matrix(5.25278 -15.88293 56.87511 18.80965 27.6 14.3)"/><ellipse fill="#021800" rx="1" ry="1" transform="matrix(19.66427 49.41412 -42.33853 16.84855 187.2 26.9)"/><ellipse fill="#fffff4" cx="52" cy="53" rx="17" ry="20"/><ellipse fill="#ffffca" cx="102" cy="41" rx="18" ry="18"/><ellipse fill="#fff6ff" rx="1" ry="1" transform="matrix(-54.59823 -8.30076 1.4513 -9.54594 40.2 127)"/><path fill="#000700" d="M100 24l113-1L84-12z"/><ellipse fill="#2a4d00" rx="1" ry="1" transform="matrix(-23.82743 -3.0101 2.69176 -21.3075 52.1 96.9)"/><path fill="#d2c494" d="M159 53l-35 57-2-66z"/><ellipse fill="#102300" cx="165" cy="83" rx="20" ry="20"/><path fill="#000200" d="M93.7 56.8l25.4 5.4-8.8 41L85 97.8z"/><ellipse fill="#e8e8ea" rx="1" ry="1" transform="matrix(-3.54415 -8.83049 28.70701 -11.52166 32.2 62.8)"/><ellipse fill="#5f6193" rx="1" ry="1" transform="rotate(40.6 -41.7 321.4) scale(22.64282 60.16069)"/><ellipse fill="#fff" rx="1" ry="1" transform="matrix(-8.43468 15.37479 -6.20882 -3.40619 7.6 39)"/><path fill="#120" d="M56 103l18-75 31 77z"/><path d="M10.6 13.6l26.7-24.1 26.1 29-26.7 24z"/><path fill="#cfcd9c" d="M37.1-23.7l57.5 34.5-7.7 12.9-57.5-34.5z"/><ellipse fill="#594c69" rx="1" ry="1" transform="matrix(-1.71665 -9.34228 26.08177 -4.79256 8.4 87.5)"/><ellipse fill="#2e3d00" cx="178" cy="37" rx="26" ry="50"/><ellipse fill="#bfbdd5" cx="136" cy="119" rx="18" ry="18"/></g></svg>