<svg xmlns="http://www.w3.org/2000/svg" viewBox="0 0 200 133"><filter id="b"><feGaussianBlur stdDeviation="12" /></filter><path fill="#b8b4b1" d="M0 0h200v133H0z"/><g filter="url(#b)" transform="translate(.5 .5)" fill-opacity=".5"><ellipse cx="48" cy="113" rx="58" ry="41"/><ellipse fill="#fff" cx="104" cy="24" rx="199" ry="29"/><ellipse fill="#0c1d00" rx="1" ry="1" transform="rotate(39.5 -114.8 160.8) scale(23.51123 38.35044)"/><ellipse fill="#fff" cx="109" cy="17" rx="199" ry="34"/><ellipse fill="#c2c7bc" rx="1" ry="1" transform="rotate(31.3 -97.5 137.5) scale(16.69163 32.55729)"/><ellipse fill="#a26d71" cx="159" cy="118" rx="64" ry="27"/><ellipse fill="#82796e" cx="106" cy="65" rx="47" ry="16"/><ellipse fill="#0c1900" rx="1" ry="1" transform="rotate(103.1 -30.6 65) scale(10.18639 33.08116)"/><ellipse fill="#fff" rx="1" ry="1" transform="matrix(198.41496 15.24804 -2.0465 26.63 158 27.8)"/><ellipse fill="#a59388" rx="1" ry="1" transform="matrix(-11.00549 -.20303 .2877 -15.59494 99 40)"/><ellipse fill="#e5f8ff" cx="149" cy="82" rx="43" ry="6"/><ellipse fill="#a6aab1" rx="1" ry="1" transform="matrix(.41273 -6.16809 32.97277 2.20633 16.8 127.6)"/><path fill="#253a11" d="M45 107L24 62l-11 48z"/><ellipse fill="#fff" cy="33" rx="78" ry="23"/><ellipse fill="#4c523c" cx="136" cy="70" rx="29" ry="5"/><ellipse fill="#d5ddd1" cx="2" cy="72" rx="17" ry="23"/><path fill="#2c371c" d="M117 68.3l-46.9 73.5-15.7-58 45.7-1.4z"/><ellipse fill="#b8b8bb" cx="87" cy="59" rx="29" ry="12"/><ellipse fill="#c0bdbb" rx="1" ry="1" transform="rotate(-67.5 84.6 -2.8) scale(31.79088 7.28962)"/><ellipse fill="#cadef6" cx="193" cy="84" rx="70" ry="10"/><path fill="#8d5548" d="M136.1 73l-22.3-5.5 4.1-16.5 22.3 5.5z"/><path fill="#9e706f" d="M124 108l-16-19 82 7z"/></g></svg>