<svg xmlns="http://www.w3.org/2000/svg" viewBox="0 0 200 133"><filter id="b"><feGaussianBlur stdDeviation="12" /></filter><path fill="#444754" d="M0 0h200v133H0z"/><g filter="url(#b)" transform="translate(.5 .5)" fill-opacity=".5"><ellipse fill="#bfe8ff" rx="1" ry="1" transform="rotate(34.9 -15.6 161.1) scale(32.47181 21.60024)"/><ellipse fill="#ffda9f" cx="110" cy="98" rx="44" ry="9"/><ellipse fill="#ff6200" cx="86" cy="106" rx="20" ry="20"/><ellipse fill="#00338d" cx="11" cy="37" rx="45" ry="45"/><path fill="#ffffea" d="M27 109l-6-29-37 37z"/><ellipse fill="#001341" cx="167" cy="29" rx="37" ry="74"/><ellipse fill="#0b0000" cx="173" cy="132" rx="39" ry="39"/><ellipse fill="#100000" rx="1" ry="1" transform="rotate(-95.9 74.2 48.5) scale(15.83859 41.17207)"/><ellipse fill="#006baf" rx="1" ry="1" transform="matrix(-26.75394 -3.67302 4.6329 -33.74556 22.8 8.6)"/><path fill="#7fdaff" d="M68 33h44v28H68z"/><path fill="#fff" d="M110 92h39v15h-39z"/><path fill="#7a2c15" d="M214 103l-44-44-122 4z"/><ellipse fill="#003672" rx="1" ry="1" transform="matrix(35.87254 -59.2326 24.89731 15.07835 184.7 12.4)"/><ellipse fill="#070000" rx="1" ry="1" transform="matrix(20.4236 -5.47249 3.182 11.87535 129.4 117)"/><path fill="#765d38" d="M129 37l-47-4.1L85-1l46.8 4.1z"/><ellipse fill="#00153c" rx="1" ry="1" transform="matrix(-10.67344 -17.70787 29.11114 -17.54677 23 59.6)"/><path fill="#b97858" d="M55 0h13v88H55z"/><path fill="#1b0000" d="M23 88h49v15H23z"/><path fill="#f39766" d="M108.7 146.5l-13.9-33.9-51.3-5.7 17.9-7.5z"/><path fill="#fff4e0" d="M38 76h13v10H38z"/><path fill="#bfb194" d="M121.5 87.2l-6.2-6.6 21.2-19.8 6.2 6.6z"/><path fill="#fffffc" d="M14 98l-30 13 54 1z"/></g></svg>