<svg xmlns="http://www.w3.org/2000/svg" viewBox="0 0 313 195"><filter id="b"><feGaussianBlur stdDeviation="12" /></filter><path fill="#5d6572" d="M0 0h313v194H0z"/><g filter="url(#b)" transform="translate(.6 .6) scale(1.22266)" fill-opacity=".5"><ellipse fill="#ecfdff" rx="1" ry="1" transform="rotate(142.7 3.5 26.8) scale(102.26725 92.82552)"/><ellipse fill="#000623" cx="186" cy="86" rx="98" ry="101"/><ellipse fill="#4f6ea7" cx="85" cy="77" rx="37" ry="57"/><ellipse fill="#b89e82" cx="173" cy="89" rx="17" ry="45"/><ellipse fill="#e7c172" rx="1" ry="1" transform="matrix(23.9365 -18.8193 15.06038 19.15547 76.4 128.1)"/><ellipse fill="#fffecb" cx="18" cy="97" rx="34" ry="34"/><path fill="#bed6ff" d="M-4 10l124-26v74z"/><path d="M65 125L47 87l21 6z"/><ellipse fill="#5090ef" rx="1" ry="1" transform="matrix(1.35185 31.35935 -17.39739 .74997 253.1 88.2)"/><ellipse fill="#070000" cx="147" cy="158" rx="49" ry="39"/><ellipse fill="#9f5800" cx="33" cy="152" rx="62" ry="13"/><ellipse fill="#0c0000" cx="228" cy="142" rx="27" ry="27"/><ellipse fill="#185eb5" rx="1" ry="1" transform="rotate(141.2 31.9 39.4) scale(30.32841 18.73434)"/><ellipse fill="#002310" rx="1" ry="1" transform="matrix(53.81923 36.04647 -12.48836 18.64576 174.3 18.6)"/><ellipse fill="#1e01bf" cx="130" cy="12" rx="11" ry="55"/><ellipse fill="#eadcbd" rx="1" ry="1" transform="matrix(-.41917 80.0546 -22.45726 -.11759 13.6 39)"/><ellipse fill="#7b5226" cx="85" cy="75" rx="11" ry="22"/><path fill="#ffd" d="M23 139l38.1-.3 6.2-11.7-31.2-37.8z"/><ellipse fill="#010011" cx="124" cy="105" rx="25" ry="13"/><ellipse fill="#004" cx="138" cy="72" rx="24" ry="24"/><path fill="#c7d6f3" d="M196.3 98l-6.9 11-23.7-15 6.9-11z"/><path fill="#02070d" d="M178 102h21v32h-21z"/></g></svg>