<svg xmlns="http://www.w3.org/2000/svg" viewBox="0 0 200 133"><filter id="b"><feGaussianBlur stdDeviation="12" /></filter><path fill="#76797a" d="M0 0h200v133H0z"/><g filter="url(#b)" transform="translate(.5 .5)" fill-opacity=".5"><ellipse cx="96" cy="94" rx="30" ry="37"/><ellipse fill="#e8e0de" rx="1" ry="1" transform="matrix(-35.01599 -8.55511 22.16576 -90.72425 45.5 31.8)"/><path d="M30 27h27v51H30z"/><ellipse rx="1" ry="1" transform="matrix(22.93944 19.73103 -13.70634 15.93509 91.4 82.3)"/><ellipse fill="#191917" cx="164" cy="108" rx="100" ry="19"/><ellipse fill="#fffaf9" rx="1" ry="1" transform="matrix(-18.4517 3.5755 -6.80896 -35.1383 69.6 21.2)"/><ellipse fill="#c8d6d3" cx="161" cy="9" rx="11" ry="84"/><ellipse fill="#00000a" rx="1" ry="1" transform="rotate(-95.8 74.6 52.5) scale(7.69233 56.48533)"/><ellipse fill="#1b1d1e" cx="190" cy="31" rx="8" ry="63"/><path fill="#e8e8e8" d="M7 0h23v124H7z"/><ellipse fill="#96b8b7" cx="114" cy="32" rx="21" ry="21"/><ellipse fill="#bbc1c6" cx="40" cy="100" rx="32" ry="18"/><ellipse fill="#353b3b" rx="1" ry="1" transform="matrix(8.70114 -.57264 4.84162 73.5676 141.6 21.7)"/><path fill="#14394e" d="M43.7 106.7L29.6 102l-1.4-12.6 3.2 35.6z"/><path fill="#040c16" d="M59 105h62v22H59z"/><ellipse fill="#302420" rx="1" ry="1" transform="rotate(-22.3 91.8 -89.4) scale(10.26113 7.24544)"/><path fill="#fff" d="M99 0h4v51h-4z"/><ellipse fill="#dcd9d8" cx="27" rx="24" ry="24"/><path fill="#cbbacf" d="M87 128h88v5H87z"/><path fill="#d4c8c6" d="M196 0h4v42h-4z"/><ellipse fill="#5c8787" cx="169" cy="41" rx="8" ry="48"/><ellipse fill="#3c3d3d" rx="1" ry="1" transform="matrix(2.73261 50.96166 -5.25837 .28196 93.5 38.5)"/></g></svg>