<svg xmlns="http://www.w3.org/2000/svg" viewBox="0 0 200 133"><filter id="b"><feGaussianBlur stdDeviation="12" /></filter><path fill="#94938d" d="M0 0h200v133H0z"/><g filter="url(#b)" transform="translate(.5 .5)" fill-opacity=".5"><ellipse fill="#1b1101" cx="68" cy="132" rx="70" ry="30"/><ellipse fill="azure" rx="1" ry="1" transform="matrix(31.75113 82.78673 -20.0051 7.67254 18.5 19.3)"/><ellipse fill="#fffffa" cx="153" cy="12" rx="30" ry="32"/><path d="M7 79h21v36H7z"/><ellipse fill="#fff" rx="1" ry="1" transform="matrix(-3.2799 13.45466 -50.1524 -12.22584 63.6 0)"/><path fill="#c0cdea" d="M20.5 148l23-86.2 108.2-.6-89 30.7z"/><path fill="#030204" d="M38 21h43v16H38z"/><ellipse fill="#09081d" cx="76" cy="121" rx="24" ry="28"/><ellipse fill="#443f44" cx="190" cy="52" rx="18" ry="33"/><ellipse fill="#7f6631" rx="1" ry="1" transform="matrix(-7.26463 -31.15526 24.6928 -5.75774 112.5 102.5)"/><ellipse fill="#fff" rx="1" ry="1" transform="rotate(18.1 -56.5 57.3) scale(26.9676 16.12752)"/><path fill="#170a00" d="M118.9 54.1l4.4-14.4V-16L111.5 1.4z"/><ellipse fill="#ffffe6" cx="174" cy="10" rx="52" ry="10"/><path fill="#cddeee" d="M27.3 125.4L67.8 87l7.6 49.6L36.2 28.3z"/><ellipse fill="#3f565e" rx="1" ry="1" transform="matrix(.6046 -5.2485 26.79669 3.08681 12.3 41.4)"/><path fill="#f8e698" d="M139 85l31 24-38 39z"/><path fill="#64553f" d="M182.3 76.5l-23.7 13.1-18.9-34.1 23.7-13.1z"/><path d="M183 90h7v16h-7zM12 103.4l-8.5-18L18 78.5l8.5 18z"/><ellipse fill="#3b2c23" rx="1" ry="1" transform="matrix(-2.43861 .37316 -4.15339 -27.14252 59.7 64.5)"/><ellipse fill="#3a301e" cx="98" cy="46" rx="4" ry="36"/><ellipse fill="#ddfcff" rx="1" ry="1" transform="matrix(.39527 17.4181 -6.48668 .1472 107.3 34.9)"/></g></svg>