<svg xmlns="http://www.w3.org/2000/svg" viewBox="0 0 700 467"><filter id="b"><feGaussianBlur stdDeviation="12" /></filter><path fill="#6e6c7a" d="M0 0h700v464H0z"/><g filter="url(#b)" transform="translate(1.4 1.4) scale(2.73438)" fill-opacity=".5"><ellipse fill="#e0cdd0" cx="214" cy="53" rx="230" ry="33"/><ellipse rx="1" ry="1" transform="rotate(177.1 99.4 77.9) scale(84.24144 35.9567)"/><ellipse fill="#0c0000" rx="1" ry="1" transform="matrix(30.74096 15.08426 -32.546 66.32712 54.1 131.7)"/><ellipse fill="#002a7f" rx="1" ry="1" transform="matrix(-4.511 -30.18383 46.0619 -6.884 91 15.3)"/><ellipse fill="#fff" rx="1" ry="1" transform="matrix(16.9674 8.61065 -8.40987 16.57175 101.5 157.8)"/><ellipse fill="#d5cfeb" rx="1" ry="1" transform="matrix(8.33175 79.83914 -25.99063 2.7123 234.4 35.5)"/><ellipse fill="#4f1800" cx="196" cy="92" rx="14" ry="61"/><ellipse fill="#b1a0a7" cx="31" cy="101" rx="29" ry="29"/><ellipse fill="#001f6a" rx="1" ry="1" transform="matrix(43.82372 9.8761 -9.24019 41.00195 10.4 156.2)"/><path fill="#e8e6ff" d="M197.2 50.2l-26.6 28.5-43.8-40.9 26.6-28.5z"/><ellipse fill="#00227a" cx="182" cy="2" rx="29" ry="24"/><ellipse fill="#d6d6e8" rx="1" ry="1" transform="matrix(7.35395 -65.56196 9.84099 1.10384 107.7 120.8)"/><path fill="#c3c6ea" d="M158 159l20-50-17-50z"/><ellipse fill="#003793" rx="1" ry="1" transform="matrix(-15.17928 -17.03685 52.52976 -46.8023 18 0)"/><path fill="#93500c" d="M61 121L92 13 33 94z"/><ellipse fill="#150000" rx="1" ry="1" transform="rotate(-152 53.3 59.3) scale(20.63505 33.43677)"/><ellipse fill="#6b4a37" rx="1" ry="1" transform="matrix(20.81091 -2.1506 8.59472 83.16936 143.4 133)"/><path fill="#d4cce5" d="M24 16h24v55H24z"/><ellipse fill="#000f4a" rx="1" ry="1" transform="matrix(2.66598 47.68456 -21.72195 1.21445 235.6 157.2)"/><ellipse fill="#bba7b9" rx="1" ry="1" transform="matrix(33.138 -69.18974 14.05673 6.73238 9 80.5)"/><path fill="#ffffe8" d="M81 155h40v15H81z"/><ellipse fill="#2b0a00" rx="1" ry="1" transform="matrix(-8.04324 -41.37887 21.70214 -4.21847 192.4 152.2)"/></g></svg>