<svg xmlns="http://www.w3.org/2000/svg" viewBox="0 0 700 467"><filter id="b"><feGaussianBlur stdDeviation="12" /></filter><path fill="#354f68" d="M0 0h700v464H0z"/><g filter="url(#b)" transform="translate(1.4 1.4) scale(2.73438)" fill-opacity=".5"><ellipse fill="#c4cdce" cx="50" cy="98" rx="42" ry="42"/><ellipse rx="1" ry="1" transform="rotate(4.1 -2080 1864.4) scale(88.13676 30.58007)"/><ellipse fill="#e09756" rx="1" ry="1" transform="matrix(27.05669 -8.14916 11.136 36.97354 128.7 102.8)"/><path fill="#fcffff" d="M175 73h29v43h-29z"/><ellipse fill="#001949" cx="236" cy="81" rx="31" ry="255"/><ellipse fill="#0054ab" rx="1" ry="1" transform="rotate(-1.6 399.5 -4455.1) scale(255 29.84901)"/><path d="M142 121l58 54-125 10z"/><path fill="#aba099" d="M67 14L16 63l5 86z"/><ellipse fill="#060000" cx="160" cy="95" rx="17" ry="18"/><path fill="#fff" d="M179 95l9.6 5.4L175 125l-9.6-5.3z"/><ellipse fill="#c88058" rx="1" ry="1" transform="rotate(-38.7 154.5 -193) scale(8.97065 31.4243)"/><path fill="#000026" d="M30.6 219.4L-43 164.1l34.3-45.5L65 173.9z"/><ellipse fill="#004c9f" cx="3" cy="34" rx="15" ry="94"/><path fill="#ffbc8a" d="M193 29l16 16-13 33z"/><path fill="#f0e8e9" d="M162.4 129.4l-4.7 13.3-16.7-64-4.7 34.5z"/><ellipse fill="#300d00" cx="222" cy="96" rx="12" ry="34"/><path fill="#e6f9ff" d="M77.8 119.3l-6.5-46.5 14.9-2.1 6.5 46.5z"/><path d="M191.3 51.8l-.9 53 .3 80.2-8.6-40.8z"/><path fill="#fff" d="M191 106h18v13h-18z"/><path fill="#00072d" d="M47 176l14-86 7 41z"/><ellipse fill="#231900" rx="1" ry="1" transform="matrix(6.12889 31.11756 -12.36174 2.43476 216.2 94.1)"/><ellipse fill="#004f9d" rx="1" ry="1" transform="matrix(-6.53999 17.42338 -23.8522 -8.95309 232.3 47.4)"/></g></svg>