<svg xmlns="http://www.w3.org/2000/svg" viewBox="0 0 200 133"><filter id="b"><feGaussianBlur stdDeviation="12" /></filter><path fill="#797969" d="M0 0h200v133H0z"/><g filter="url(#b)" transform="translate(.5 .5)" fill-opacity=".5"><ellipse fill="#fff" cx="27" cy="19" rx="93" ry="12"/><ellipse fill="#202900" cx="166" cy="91" rx="49" ry="49"/><ellipse fill="#fff" rx="1" ry="1" transform="matrix(.24413 15.5405 -46.72274 .73398 74.4 122.4)"/><ellipse fill="#d8f1ff" cx="36" cy="86" rx="11" ry="39"/><ellipse fill="#1c3800" rx="1" ry="1" transform="matrix(-25.51432 5.85821 -8.09295 -35.2473 166.5 20)"/><path fill="#fff9ff" d="M89 41h27v49H89z"/><ellipse fill="#100000" cx="74" cy="63" rx="13" ry="42"/><path fill="#fff" d="M194 0h6v66h-6z"/><ellipse fill="#000001" cx="3" cy="85" rx="9" ry="46"/><ellipse rx="1" ry="1" transform="rotate(13.6 -474.6 745) scale(32.10535 20.19256)"/><ellipse fill="#fff" cx="98" cy="132" rx="22" ry="22"/><path fill="#e0deba" d="M176 106l-23 7 19-38z"/><path d="M120.1 74l18.7-7.3 25 65.4-18.6 7.2z"/><ellipse fill="#d1d6d3" rx="1" ry="1" transform="matrix(-11.19738 -27.5981 4.16875 -1.69139 116 97)"/><ellipse fill="#fff" rx="1" ry="1" transform="matrix(.19321 -5.60598 55.09647 1.89891 47.5 16)"/><path fill="#000006" d="M88.2 56.9L14.7 34.7l50.7 16-3.4 55.7z"/><path fill="#1c2c00" d="M102 29l23.6 24-.2 5-2.3 8.8z"/><ellipse fill="#abbcff" rx="1" ry="1" transform="matrix(-6.41033 -14.26363 17.00877 -7.64404 29.2 73)"/><path fill="#fff" d="M-16 15.8L10.8 47 4.4-16-16 61.4z"/><ellipse fill="#53640b" cx="161" cy="22" rx="30" ry="62"/><ellipse fill="#fff" rx="1" ry="1" transform="matrix(-3.36485 -28.7215 4.03573 -.4728 195.7 14.5)"/><path fill="#a59184" d="M70 85h34v23H70z"/></g></svg>