<svg xmlns="http://www.w3.org/2000/svg" viewBox="0 0 700 467"><filter id="b"><feGaussianBlur stdDeviation="12" /></filter><path fill="#695a74" d="M0 0h700v464H0z"/><g filter="url(#b)" transform="translate(1.4 1.4) scale(2.73438)" fill-opacity=".5"><ellipse fill="#ffffd7" cx="191" cy="169" rx="33" ry="50"/><path fill="#fff" d="M69.4 32.5l39.5 6.3-4.3 26.7-39.5-6.3z"/><ellipse rx="1" ry="1" transform="matrix(54.26097 14.94596 -4.593 16.67475 81.9 17.7)"/><ellipse fill="#04003c" rx="1" ry="1" transform="matrix(3.58647 23.99766 -158.69061 23.71647 238.7 55)"/><ellipse fill="#fcffe1" rx="1" ry="1" transform="matrix(6.72995 20.59032 -18.7218 6.11923 115.3 120.3)"/><ellipse rx="1" ry="1" transform="matrix(14.6005 2.18206 -6.69646 44.80709 53.5 30.1)"/><ellipse fill="#4861ff" cx="15" cy="44" rx="25" ry="48"/><ellipse fill="#cacea7" rx="1" ry="1" transform="matrix(-58.41364 -1.40517 .86653 -36.02204 0 118.3)"/><path d="M125 128h42v23h-42z"/><ellipse fill="#e9e1d0" cx="75" cy="159" rx="24" ry="22"/><path fill="#e7e4c4" d="M117 150h58v20h-58z"/><ellipse fill="#0c0c00" cx="73" cy="119" rx="20" ry="20"/><ellipse fill="#900400" rx="1" ry="1" transform="matrix(29.38433 -21.6359 10.57358 14.36028 22.2 169)"/><path fill="#140000" d="M254 121l-42 48 27-70z"/><path fill="#f9fffb" d="M209 143l-56-59 20 63z"/><ellipse fill="#22041b" cx="209" cy="68" rx="64" ry="18"/><path fill="#fff" d="M67 37h39v22H67z"/><path fill="#8682d7" d="M122 56h24v60h-24z"/><ellipse fill="#823eb3" rx="1" ry="1" transform="matrix(8.7561 -23.501 50.57066 18.84181 177.6 22.9)"/><path d="M74.6 95.1l3.1-.3 29.5 43.5 3.3 46.7z"/><path fill="#edf7e0" d="M135 116l-40-12 18 53z"/><path d="M20 116h18v10H20z"/></g></svg>