<svg xmlns="http://www.w3.org/2000/svg" viewBox="0 0 700 467"><filter id="b"><feGaussianBlur stdDeviation="12" /></filter><path fill="#52316e" d="M0 0h700v464H0z"/><g filter="url(#b)" transform="translate(1.4 1.4) scale(2.73438)" fill-opacity=".5"><ellipse fill="#d283ed" cx="120" cy="169" rx="89" ry="89"/><path fill="#ffd6ff" d="M0 108h59v40H0z"/><ellipse rx="1" ry="1" transform="matrix(-50.65048 47.39788 -97.9057 -104.62432 212.4 22.9)"/><ellipse fill="#020031" cx="18" cy="31" rx="74" ry="74"/><ellipse fill="#cc48ff" rx="1" ry="1" transform="matrix(-64.59996 20.26193 -4.98014 -15.8779 200.1 159.5)"/><ellipse rx="1" ry="1" transform="matrix(-.36714 11.06605 -99.8109 -3.31148 38.2 169)"/><ellipse fill="#f6a1ff" rx="1" ry="1" transform="rotate(94.9 -14.2 118) scale(9.60537 132.37315)"/><ellipse fill="#31195e" cx="138" cy="76" rx="85" ry="25"/><ellipse cx="139" cy="169" rx="11" ry="16"/><ellipse fill="#000053" cx="83" cy="122" rx="78" ry="4"/><path fill="#ffefff" d="M163.4 115.7l-61.8-5.4 1-12 61.8 5.4z"/><path fill="#1b031b" d="M167 114l48-12-25 38z"/><ellipse cx="191" cy="1" rx="239" ry="10"/><path fill="#070000" d="M23.6 141.3l.2 43.7h44.4l-35.3-43.6z"/><ellipse fill="#fff1ff" cx="8" cy="114" rx="44" ry="8"/><path fill="#f4d7f7" d="M79.6 121.6l-21-18.7-2.3-7.6 38.8 5z"/><ellipse fill="#130261" cx="92" cy="123" rx="7" ry="22"/><ellipse cx="215" cy="137" rx="9" ry="10"/><ellipse fill="#0e0f0d" cx="247" cy="34" rx="61" ry="92"/><ellipse fill="#dc93fb" cx="113" cy="145" rx="21" ry="21"/><path fill="#2b7fc1" d="M35.3 81.4L59.8 86l-5.1 26.5-24.5-4.7z"/><ellipse fill="#462873" rx="1" ry="1" transform="matrix(-55.75999 -31.10763 18.21157 -32.64398 126.3 58.5)"/></g></svg>