<svg xmlns="http://www.w3.org/2000/svg" viewBox="0 0 700 467"><filter id="b"><feGaussianBlur stdDeviation="12" /></filter><path fill="#91938a" d="M0 0h700v464H0z"/><g filter="url(#b)" transform="translate(1.4 1.4) scale(2.73438)" fill-opacity=".5"><ellipse fill="#201200" rx="1" ry="1" transform="rotate(170.1 36 82.3) scale(92.71266 26.7449)"/><ellipse fill="#fff" cx="25" cy="14" rx="34" ry="34"/><ellipse fill="#fffffa" rx="1" ry="1" transform="rotate(149.5 97.5 33.9) scale(43.16339 34.10875)"/><ellipse rx="1" ry="1" transform="matrix(-15.81584 .59336 -1.36118 -36.2819 22.6 134)"/><ellipse fill="#e2ffff" rx="1" ry="1" transform="matrix(-3.90074 -59.8149 17.91205 -1.1681 51.2 97.7)"/><ellipse fill="#fff" rx="1" ry="1" transform="matrix(-2.70604 12.95642 -56.16752 -11.731 88.5 6.2)"/><ellipse fill="#151011" rx="1" ry="1" transform="matrix(-24.1092 2.7789 -1.73618 -15.06275 72.7 39.5)"/><path fill="#3a363a" d="M226 28h30v72h-30z"/><ellipse fill="#060c24" cx="92" cy="153" rx="32" ry="32"/><ellipse cx="151" cy="24" rx="5" ry="44"/><path fill="#d8e2ff" d="M84 73h34v37H84z"/><ellipse fill="#b1881a" rx="1" ry="1" transform="matrix(-17.05373 17.84086 -24.98817 -23.8857 153.2 155.8)"/><ellipse fill="#fff" cx="14" cy="25" rx="37" ry="20"/><ellipse fill="#ecdd92" cx="191" cy="159" rx="17" ry="52"/><ellipse fill="#d5e7ff" rx="1" ry="1" transform="matrix(4.56893 -14.77002 31.21863 9.6571 42 80)"/><path fill="#000010" d="M244 115.5l-18.4 1 23 30.5-4.1-27.2z"/><path fill="#e4eedf" d="M90 123l3 33-30-57z"/><ellipse fill="#4f514a" cx="208" cy="76" rx="21" ry="21"/><ellipse fill="#fdfcd7" cx="235" rx="77" ry="25"/><path d="M10 103h24v35H10z"/><path fill="#000610" d="M209 156l23 3-5-22z"/><ellipse fill="#daebf4" cx="41" cy="169" rx="5" ry="107"/></g></svg>