<svg xmlns="http://www.w3.org/2000/svg" viewBox="0 0 700 467"><filter id="b"><feGaussianBlur stdDeviation="12" /></filter><path fill="#635d65" d="M0 0h700v464H0z"/><g filter="url(#b)" transform="translate(1.4 1.4) scale(2.73438)" fill-opacity=".5"><ellipse fill="#b8c0eb" cx="58" cy="8" rx="76" ry="76"/><path d="M27 139.4l237 4.2-1 55-237-4.2z"/><ellipse fill="#eee6e8" rx="1" ry="1" transform="matrix(-7.3764 30.87576 -22.55318 -5.3881 120.6 111.6)"/><ellipse cx="171" cy="102" rx="31" ry="21"/><ellipse cx="247" cy="107" rx="107" ry="16"/><ellipse rx="1" ry="1" transform="rotate(102.3 8.5 81.3) scale(35.24752 15.76092)"/><ellipse fill="#160000" cx="29" cy="108" rx="66" ry="15"/><ellipse fill="#010000" rx="1" ry="1" transform="matrix(143.79139 2.09365 -.17909 12.29985 45.6 152.8)"/><ellipse fill="#7882c5" cx="174" cy="5" rx="67" ry="40"/><ellipse fill="#e8bf85" rx="1" ry="1" transform="rotate(-178.3 35.8 66.1) scale(179.80711 7.20509)"/><path fill="#090000" d="M120.4 97.5l49.1-51.8-26.5-3-5-27.4z"/><ellipse cx="150" cy="116" rx="11" ry="19"/><path fill="#ffc37b" d="M163 157h77v8h-77z"/><path fill="#ffe192" d="M50 181l-55-13 38-12z"/><path fill="#ccb589" d="M174.3 142.1l49.5-7.9-58.3-19.9-12.8 23.8z"/><ellipse fill="#779fee" cx="108" cy="38" rx="24" ry="24"/><ellipse fill="#a89b95" cx="39" cy="61" rx="47" ry="27"/><ellipse fill="#cdcede" cx="184" rx="15" ry="15"/><path d="M133 45h12v43h-12z"/><ellipse cx="225" cy="148" rx="88" ry="8"/><ellipse fill="#121604" rx="1" ry="1" transform="matrix(-6.0718 -26.09848 5.84295 -1.35936 92.1 70.1)"/><ellipse fill="#0c0000" cx="153" cy="42" rx="4" ry="26"/></g></svg>