<svg xmlns="http://www.w3.org/2000/svg" viewBox="0 0 200 133"><filter id="b"><feGaussianBlur stdDeviation="12" /></filter><path fill="#4f5863" d="M0 0h200v133H0z"/><g filter="url(#b)" transform="translate(.5 .5)" fill-opacity=".5"><ellipse fill="#afc1ce" rx="1" ry="1" transform="matrix(6.24424 -22.8284 62.10977 16.98886 93.2 64)"/><path fill="#000009" d="M102-18l70 16.2L162 42 91.8 25.8z"/><ellipse cx="51" cy="24" rx="6" ry="55"/><ellipse cx="15" cy="4" rx="60" ry="17"/><ellipse fill="#0c0000" cx="183" cy="102" rx="29" ry="21"/><ellipse fill="#6bffff" cx="172" cy="46" rx="6" ry="30"/><ellipse cx="187" cy="10" rx="15" ry="15"/><ellipse fill="#0a0000" cx="76" cy="52" rx="7" ry="46"/><path fill="#69230d" d="M0 82h81v42H0z"/><ellipse fill="#90b5e3" cx="104" cy="131" rx="101" ry="10"/><ellipse fill="#b2deff" cx="15" cy="49" rx="7" ry="35"/><path fill="#c0d7e8" d="M47.5 27.3l-7 80.7-14-1.3 7-80.7z"/><path fill="#84ffff" d="M206.8 26.7l3.4 38.9-19 1.7-3.4-38.9z"/><path fill="#9effff" d="M72 31L58 9l3 71z"/><ellipse fill="#ada8a4" rx="1" ry="1" transform="rotate(162.1 59.5 46.6) scale(17.82556 50.72943)"/><path fill="#dbcedb" d="M177 42l-9 20 28 44z"/><ellipse cx="27" cy="28" rx="6" ry="44"/><path fill="#060000" d="M109 89h16v35h-16z"/><path fill="#3f86ba" d="M81 31h68v30H81z"/><ellipse fill="#b55849" rx="1" ry="1" transform="matrix(-11.65303 7.19706 -13.68753 -22.162 23.3 89)"/><ellipse fill="#000008" cx="2" cy="71" rx="5" ry="134"/><ellipse cx="49" cy="62" rx="5" ry="22"/></g></svg>