<svg xmlns="http://www.w3.org/2000/svg" viewBox="0 0 700 353"><filter id="b"><feGaussianBlur stdDeviation="12" /></filter><path fill="#664f5f" d="M0 0h700v352H0z"/><g filter="url(#b)" transform="translate(1.4 1.4) scale(2.73438)" fill-opacity=".5"><ellipse fill="#ffd5ff" rx="1" ry="1" transform="rotate(-173.8 69.6 42.7) scale(84.34901 51.0622)"/><ellipse rx="1" ry="1" transform="rotate(174.8 126.3 31.6) scale(47.45792 109.05107)"/><ellipse cx="21" cy="37" rx="34" ry="110"/><ellipse fill="#000900" rx="1" ry="1" transform="matrix(112.53016 .3217 -.0371 12.97886 180.7 34.8)"/><ellipse rx="1" ry="1" transform="matrix(18.99741 -43.32359 29.30433 12.84996 20.9 72.3)"/><ellipse fill="#fbacf8" rx="1" ry="1" transform="matrix(-1.81886 -21.21606 29.62389 -2.53966 179.8 67.5)"/><ellipse cx="240" cy="42" rx="32" ry="77"/><ellipse fill="#f29bf2" rx="1" ry="1" transform="matrix(-20.49726 6.08282 -9.65052 -32.51931 77.1 79.2)"/><ellipse fill="#f9defa" cx="112" cy="65" rx="21" ry="21"/><ellipse fill="#27200e" cx="189" cy="14" rx="34" ry="34"/><ellipse fill="#0a0700" cx="139" cy="116" rx="5" ry="33"/><path fill="#070e00" d="M55.7 53.8l30.9-55-11.6-12-22.3 55z"/><path fill="#3b0000" d="M172 127h84v2h-84z"/><path fill="#c6a78c" d="M8 117h36v7H8z"/><path fill="#050000" d="M46 107h18v22H46z"/><ellipse fill="#e0b0dc" cx="132" cy="66" rx="77" ry="21"/><ellipse fill="#db87db" rx="1" ry="1" transform="rotate(53.5 1 243) scale(34.72052 15.30699)"/><path d="M.5-31.8L37.8-1.6-.5 45.8l-37.3-30.2z"/><ellipse fill="#4c4a36" cx="107" cy="11" rx="65" ry="36"/><path fill="#774533" d="M95 86h58v11H95z"/><path fill="#6a0703" d="M0 127h194v2H0z"/><path fill="#8f8e87" d="M33.1 12.4l7.1 8.4-15.3 12.8-7.1-8.4z"/></g></svg>