<svg xmlns="http://www.w3.org/2000/svg" viewBox="0 0 700 467"><filter id="b"><feGaussianBlur stdDeviation="12" /></filter><path fill="#828989" d="M0 0h700v464H0z"/><g filter="url(#b)" transform="translate(1.4 1.4) scale(2.73438)" fill-opacity=".5"><ellipse rx="1" ry="1" transform="matrix(6.95337 -69.41603 39.84578 3.99133 112 116.4)"/><ellipse fill="#fff" cx="54" cy="40" rx="25" ry="131"/><ellipse fill="#fff" rx="1" ry="1" transform="matrix(21.18743 20.60387 -46.80171 48.12726 85.9 10.8)"/><ellipse fill="#000001" cx="110" cy="155" rx="46" ry="46"/><ellipse fill="#e3ffff" rx="1" ry="1" transform="matrix(-3.50227 -26.36195 22.80654 -3.02992 165.8 17.5)"/><ellipse fill="#252f2a" rx="1" ry="1" transform="matrix(1.62584 133.0702 -15.0743 .18418 203.6 59.7)"/><ellipse fill="#f0e9e7" rx="1" ry="1" transform="matrix(-1.4204 113.45715 -22.29874 -.27917 0 103)"/><ellipse fill="#fffff9" cx="229" cy="58" rx="9" ry="122"/><ellipse fill="#394c5a" rx="1" ry="1" transform="matrix(-18.31074 1.0454 -4.17065 -73.05171 153.7 110)"/><ellipse cx="87" cy="80" rx="8" ry="34"/><path fill="#ffffbc" d="M95 48h6v46h-6z"/><path fill="#030200" d="M102 20h12v122h-12z"/><ellipse fill="#fffcfb" cx="55" cy="82" rx="22" ry="22"/><ellipse fill="#a1dedc" cx="180" cy="91" rx="10" ry="75"/><ellipse fill="#162322" rx="1" ry="1" transform="matrix(-9.51667 -80.89821 6.03714 -.7102 252.2 167.8)"/><path fill="#9c2b00" d="M174 83l1 20-37 2-1-20z"/><ellipse fill="#272926" cx="218" cy="148" rx="6" ry="46"/><ellipse fill="#f6f1ee" cx="49" cy="138" rx="15" ry="52"/><ellipse fill="#fff" cx="156" cy="8" rx="11" ry="31"/><ellipse fill="#000301" rx="1" ry="1" transform="rotate(-19.9 394 -241.4) scale(34.55072 20.1747)"/><path fill="#eee5dd" d="M235.7 199.2l-5.4-101.9 10-.5 5.4 101.9z"/><path fill="#fee2b8" d="M138 68l-27.3-41.9 3.4-2.2 27.2 42z"/></g></svg>