<svg xmlns="http://www.w3.org/2000/svg" viewBox="0 0 700 467"><filter id="b"><feGaussianBlur stdDeviation="12" /></filter><path fill="#8c8b81" d="M0 0h700v464H0z"/><g filter="url(#b)" transform="translate(1.4 1.4) scale(2.73438)" fill-opacity=".5"><ellipse rx="1" ry="1" transform="matrix(-58.68866 11.14591 -7.04416 -37.09092 76.2 19)"/><ellipse fill="#f6feff" rx="1" ry="1" transform="matrix(4.83921 -20.4713 69.48556 16.42569 167.4 118)"/><ellipse fill="#501204" rx="1" ry="1" transform="matrix(36.92632 12.53827 -8.91129 26.24453 214.5 81.6)"/><path fill="#f4f0ff" d="M149 29h47v45h-47z"/><ellipse fill="#cad0d3" rx="1" ry="1" transform="matrix(-14.67278 72.88432 -33.02784 -6.64903 23.5 132)"/><ellipse fill="#132a00" cx="65" cy="18" rx="43" ry="43"/><path fill="#330500" d="M162 41.7l-34.5 6.1-5.5-31.5 34.5-6.1z"/><ellipse fill="#490b00" cx="169" cy="82" rx="52" ry="10"/><ellipse fill="#aabfd1" cx="191" cy="154" rx="100" ry="45"/><path d="M73.7 31.2l20.8 45.3-34.5-.4 10.7-29.7z"/><ellipse fill="#d5c09f" rx="1" ry="1" transform="matrix(-71.6297 -94.36864 23.08311 -17.52103 247.8 34.6)"/><path fill="#bcb7c0" d="M83.3 49.6l34-14.5 13.4 31.3-34 14.5z"/><ellipse cx="255" cy="98" rx="35" ry="10"/><path d="M98 88l-38 1-2 13z"/><ellipse fill="#a9b1b2" cx="79" cy="120" rx="42" ry="24"/><path fill="#070000" d="M-1.8 45.3l3.4-26.1L8 91.8l-24-13.3z"/><ellipse fill="#477f9e" rx="1" ry="1" transform="rotate(169 43.4 80.2) scale(51.20633 13.60633)"/><path fill="#c0d4ee" d="M229.6 71.8l17.3 5-4.5 15.4-17.3-5z"/><path fill="#480400" d="M120 79l1-18 60 28z"/><path fill="#e2e7f8" d="M157.3 74.2l58-34.3-6.5-6.3-65.7 7.8z"/><ellipse fill="#301000" cx="215" cy="52" rx="11" ry="10"/><path fill="#1c2c00" d="M28 1l137 16L42 57z"/></g></svg>