<svg xmlns="http://www.w3.org/2000/svg" viewBox="0 0 200 133"><filter id="b"><feGaussianBlur stdDeviation="12" /></filter><path fill="#444157" d="M0 0h200v133H0z"/><g filter="url(#b)" transform="translate(.5 .5)" fill-opacity=".5"><ellipse fill="#c9bbe3" cx="102" cy="52" rx="37" ry="37"/><ellipse rx="1" ry="1" transform="matrix(-19.39022 .60936 -2.22372 -70.75984 42.7 110.1)"/><ellipse fill="#000001" rx="1" ry="1" transform="matrix(-23.85826 7.53976 -27.68151 -87.59337 183.3 83.9)"/><ellipse fill="#fdf" cx="123" cy="123" rx="9" ry="23"/><ellipse fill="#fffaff" cx="70" cy="77" rx="9" ry="26"/><ellipse rx="1" ry="1" transform="matrix(32.7375 -41.78981 14.34096 11.23449 84.6 121.6)"/><ellipse fill="#85b0ca" cx="60" rx="31" ry="31"/><ellipse fill="#78ccff" rx="1" ry="1" transform="matrix(35.72717 30.1918 -9.90054 11.7157 6.5 130.3)"/><path fill="#121e32" d="M61 19h41v31H61z"/><path fill="#fff2ff" d="M101.6 41.2l6-21.2 30.8 8.8-6 21.2z"/><ellipse fill="#d30009" rx="1" ry="1" transform="rotate(-136 94.5 31.8) scale(10.44754 19.86142)"/><path fill="#e8d6fd" d="M74 37L64 81l47-17z"/><ellipse fill="#8271a2" rx="1" ry="1" transform="matrix(-5.37434 -24.44388 19.06045 -4.19071 136.8 80.2)"/><ellipse fill="#030822" cx="182" cy="125" rx="33" ry="58"/><path fill="azure" d="M199.1 32l-15.7-3.2 1.5-6.9 15.7 3.3z"/><ellipse fill="#000003" cx="33" cy="98" rx="24" ry="22"/><ellipse cx="83" cy="107" rx="7" ry="31"/><ellipse fill="#b098b8" rx="1" ry="1" transform="matrix(4.9618 2.33484 -5.16429 10.97467 61.9 104.3)"/><ellipse fill="#02060a" cx="34" cy="48" rx="37" ry="8"/><ellipse fill="#000909" cx="192" rx="22" ry="22"/><ellipse fill="#6090ff" rx="1" ry="1" transform="matrix(-16.01088 -7.22488 6.52638 -14.46295 5.3 129)"/><path fill="#a1bffa" d="M1 65l7-15 11 13z"/></g></svg>