<svg xmlns="http://www.w3.org/2000/svg" viewBox="0 0 200 133"><filter id="b"><feGaussianBlur stdDeviation="12" /></filter><path fill="#616467" d="M0 0h200v133H0z"/><g filter="url(#b)" transform="translate(.5 .5)" fill-opacity=".5"><ellipse cx="155" cy="103" rx="61" ry="61"/><ellipse fill="#aab9bf" cx="66" cy="27" rx="103" ry="37"/><ellipse fill="#e9e3d0" rx="1" ry="1" transform="rotate(-111.7 57 34.4) scale(18.06549 45.84797)"/><ellipse fill="#000008" rx="1" ry="1" transform="rotate(-175.1 101 31) scale(38.03344 63.60672)"/><path fill="#f3ebe1" d="M129.7 94.7l-3-18.7 29.6-4.7 3 18.7z"/><path d="M86.3 72l50.1 71.5-15-88.2L96 56.4z"/><path fill="#e3dfdb" d="M57 86h39v16H57z"/><ellipse fill="#3c3138" cx="113" cy="28" rx="10" ry="51"/><ellipse fill="#2e2626" rx="1" ry="1" transform="rotate(53.5 -77.4 142) scale(22.18554 16.95428)"/><ellipse fill="#eee7f0" cx="153" cy="45" rx="5" ry="15"/><ellipse fill="#fff8fa" cx="127" cy="29" rx="4" ry="41"/><ellipse fill="#fff8f5" cx="99" cy="15" rx="4" ry="38"/><path fill="#191824" d="M130 47h10v46h-10z"/><ellipse fill="#b8b6b8" rx="1" ry="1" transform="matrix(.29148 29.27798 -4.49384 .04474 4.4 65.6)"/><ellipse fill="#1c1c1f" cx="9" cy="18" rx="3" ry="62"/><ellipse fill="#777b6b" cx="18" cy="84" rx="76" ry="7"/><ellipse fill="#000003" cx="192" cy="53" rx="16" ry="25"/><path fill="#fff6f4" d="M36 0h6v62h-6z"/><path fill="#d5d6d5" d="M61.5-16L64 73.4l4-16.6 6.2 6.9z"/><path fill="#ded9d5" d="M27 93h30v23H27z"/><path fill="#323742" d="M157 60.3l-3-33.9 31-2.7 3 33.9z"/><ellipse fill="#c5d3d3" cx="85" cy="27" rx="4" ry="41"/></g></svg>