<svg xmlns="http://www.w3.org/2000/svg" viewBox="0 0 200 133"><filter id="b"><feGaussianBlur stdDeviation="12" /></filter><path fill="#49474e" d="M0 0h200v133H0z"/><g filter="url(#b)" transform="translate(.5 .5)" fill-opacity=".5"><ellipse fill="#fff" rx="1" ry="1" transform="matrix(-12.17647 -10.35021 19.5915 -23.04834 120.6 7.7)"/><ellipse fill="#fff" rx="1" ry="1" transform="matrix(.67711 -18.65825 37.40755 1.35753 30.9 0)"/><ellipse fill="#060000" cx="161" cy="92" rx="51" ry="51"/><ellipse fill="#e4c3ba" cx="87" cy="46" rx="16" ry="25"/><ellipse fill="#b3b8dd" rx="1" ry="1" transform="matrix(11.97857 -21.44766 14.43992 8.06473 96.8 125.3)"/><path fill="#fff" d="M159.8-10.9l14-.2.4 28-14 .2z"/><path fill="#130c04" d="M10 11l55 7 8 78z"/><path fill="#e6f0ea" d="M6.9 33.4l-19.5-7.9L3.1-13.4l19.5 7.9z"/><ellipse fill="#b2a4a6" rx="1" ry="1" transform="rotate(-100.6 105.2 -28.2) scale(5.82982 16.29087)"/><ellipse fill="#000507" rx="1" ry="1" transform="matrix(-31.4834 -86.03245 18.7216 -6.85113 9 123.3)"/><ellipse fill="#e6eff0" rx="1" ry="1" transform="matrix(14.9868 -2.9941 6.12572 30.66196 115.6 0)"/><ellipse rx="1" ry="1" transform="matrix(3.83055 -20.94278 51.4809 9.41615 181 119.2)"/><path fill="#061230" d="M214-16L110 59l92-34z"/><ellipse fill="#5d657e" cx="62" cy="123" rx="30" ry="30"/><ellipse fill="#fff" rx="1" ry="1" transform="matrix(-27.4419 -5.2454 1.25358 -6.55823 31.4 0)"/><path fill="#6c717a" d="M18 88l37 31L36 7z"/><path fill="#201b1e" d="M46.4 17.8L33.2 7-9.4 73.7 19.8 8.5z"/><path fill="#020d28" d="M74.4 21.5l10-34.6 19.2 5.6-10 34.6z"/><path fill="#6c7893" d="M190 26h10v47h-10z"/><path fill="#283448" d="M102.6 55.4l-8.8-15.7 23.6-13.1 8.8 15.7z"/><ellipse fill="#191a1c" cx="74" cy="82" rx="25" ry="14"/><ellipse fill="#bba094" rx="1" ry="1" transform="matrix(14.77326 26.11165 -9.23047 5.22235 86.2 48.5)"/></g></svg>