<svg xmlns="http://www.w3.org/2000/svg" viewBox="0 0 700 467"><filter id="b"><feGaussianBlur stdDeviation="12" /></filter><path fill="#ada8a1" d="M0 0h700v464H0z"/><g filter="url(#b)" transform="translate(1.4 1.4) scale(2.73438)" fill-opacity=".5"><ellipse fill="#2e1409" rx="1" ry="1" transform="matrix(-112.76529 16.24973 -4.48527 -31.12564 89.4 114.2)"/><ellipse fill="#fff" cx="212" cy="169" rx="62" ry="62"/><ellipse fill="#001200" rx="1" ry="1" transform="rotate(-101.7 93.1 -69.2) scale(15.38452 30.712)"/><ellipse fill="#221515" rx="1" ry="1" transform="matrix(-10.93454 29.24575 -23.18196 -8.66738 113.2 51.6)"/><ellipse fill="#fff" cx="31" cy="9" rx="65" ry="65"/><ellipse fill="#fff" rx="1" ry="1" transform="rotate(41.4 -162.1 182.8) scale(30.43525 28.64311)"/><ellipse fill="#f5ffff" cx="235" cy="53" rx="99" ry="39"/><ellipse cx="232" cy="2" rx="83" ry="8"/><ellipse fill="#fff" rx="1" ry="1" transform="matrix(-84.41975 -28.24645 5.2109 -15.57371 139 168)"/><ellipse fill="#251003" rx="1" ry="1" transform="matrix(11.55107 -15.55353 21.38516 15.88202 28.6 138.6)"/><path fill="#51362b" d="M117 66h42v80h-42z"/><ellipse fill="#f8fefe" rx="1" ry="1" transform="rotate(69.4 23.7 233.7) scale(29.4825 107.71909)"/><path fill="#f3f0d9" d="M10 2L-8 129 148-16z"/><ellipse fill="#325600" cx="172" cy="7" rx="23" ry="23"/><path fill="#54392c" d="M92 40.1l-5.3 82.6-78.7 19 32-55.6z"/><ellipse fill="#27160d" cx="198" cy="99" rx="22" ry="11"/><path fill="#fff" d="M48.7 170l-20.6 38.8-76.8-40.8 20.6-38.8z"/><ellipse fill="#e6fdff" cx="144" cy="34" rx="9" ry="34"/><ellipse rx="1" ry="1" transform="matrix(.24946 -7.79398 30.62224 .98011 233.7 1.9)"/><path fill="#4b3627" d="M142 148l42-53-112 37z"/><path fill="#e2e9fe" d="M230 87L205 7l-54 76z"/><path fill="#e8c1c2" d="M55 72h53v11H55z"/></g></svg>