<svg xmlns="http://www.w3.org/2000/svg" viewBox="0 0 700 467"><filter id="b"><feGaussianBlur stdDeviation="12" /></filter><path fill="#93858a" d="M0 0h700v464H0z"/><g filter="url(#b)" transform="translate(1.4 1.4) scale(2.73438)" fill-opacity=".5"><ellipse fill="#fff" rx="1" ry="1" transform="matrix(94.49694 -1.70646 1.06738 59.10715 75.7 48.5)"/><ellipse fill="#001747" cx="239" cy="74" rx="78" ry="78"/><ellipse fill="#3d0000" cx="49" cy="156" rx="55" ry="55"/><ellipse fill="#6c1600" cx="86" cy="137" rx="159" ry="33"/><path fill="#d41000" d="M195 54l-28-70-11 187z"/><ellipse fill="#fff" cx="130" cy="72" rx="35" ry="35"/><ellipse fill="#efffff" cx="41" cy="36" rx="123" ry="69"/><ellipse fill="#becabf" rx="1" ry="1" transform="matrix(-11.25632 .36392 -3.336 -103.18572 198 78.7)"/><ellipse fill="#002083" rx="1" ry="1" transform="matrix(17.50984 87.62818 -36.6363 7.32066 252.6 74)"/><ellipse fill="#581500" cx="153" cy="153" rx="34" ry="49"/><ellipse fill="#7f9daa" rx="1" ry="1" transform="matrix(17.60172 3.48673 -5.64713 28.50782 25.9 55)"/><ellipse fill="#fff" cx="141" cy="25" rx="21" ry="81"/><ellipse fill="#a0e4ff" rx="1" ry="1" transform="matrix(-9.94806 -13.48258 7.3517 -5.42442 78.5 169)"/><path fill="#fff" d="M0 79h162v25H0z"/><path fill="#960000" d="M182.3 54l-21-1.1 4.4-82.9 21 1.1z"/><path fill="#d3e8e2" d="M94 139.3l10.4-6 13.5 23.4-10.3 6z"/><ellipse fill="#9c1800" cx="62" cy="120" rx="118" ry="15"/><ellipse fill="#8f98a4" cx="199" cy="31" rx="15" ry="95"/><ellipse fill="#001a1a" rx="1" ry="1" transform="matrix(10.60217 .64285 -1.32633 21.8743 12 149.9)"/><path fill="#003574" d="M270 61l1 60-89-16z"/><path fill="#ad1f00" d="M166 136l19-84-22 11z"/><path fill="#acbdc2" d="M177 114l-8 16 40-16z"/></g></svg>