<svg xmlns="http://www.w3.org/2000/svg" viewBox="0 0 200 133"><filter id="b"><feGaussianBlur stdDeviation="12" /></filter><path fill="#543171" d="M0 0h200v133H0z"/><g filter="url(#b)" transform="translate(.5 .5)" fill-opacity=".5"><ellipse fill="#d382ef" cx="94" cy="132" rx="70" ry="70"/><ellipse cx="188" cy="21" rx="78" ry="78"/><ellipse fill="#ffd5ff" rx="1" ry="1" transform="rotate(170 -.1 50.4) scale(36.83012 15.59989)"/><ellipse fill="#050034" cx="12" cy="17" rx="65" ry="65"/><ellipse fill="#e185ff" cx="194" cy="116" rx="167" ry="10"/><path d="M-16 120.6l130.8 6.8-.8 16-130.8-6.8z"/><path fill="#331b6c" d="M143 81L2 68l146-38z"/><path fill="#3e104a" d="M139 89h37v24h-37z"/><ellipse fill="#000004" cx="123" cy="2" rx="101" ry="10"/><path fill="#ffdbff" d="M78 74l64 10-59 7z"/><path fill="#ec91f8" d="M1 99h99v18H1z"/><ellipse fill="#cb34ff" cx="157" cy="132" rx="29" ry="19"/><ellipse fill="#330577" rx="1" ry="1" transform="rotate(91.7 -5.2 89.2) scale(3.38992 80.10411)"/><path fill="#fff" d="M0 86h48v8H0z"/><path fill="#fff5ff" d="M42.9 81l6.4-9 17.8 13-6.4 9z"/><path d="M116 120h-14l-1 28zm-98.5-8.8l11-1.3 2 16.9-11 1.3z"/><ellipse fill="#4a2970" cx="93" cy="42" rx="37" ry="37"/><path fill="#000054" d="M75.2 109.6l-9-.2.6-29 9 .2z"/><path fill="#db8cf9" d="M75 98h27v31H75z"/><ellipse fill="#090b08" cx="199" cy="43" rx="30" ry="60"/><path d="M161 104h14v10h-14z"/></g></svg>