<svg xmlns="http://www.w3.org/2000/svg" viewBox="0 0 800 533"><filter id="b"><feGaussianBlur stdDeviation="12" /></filter><path fill="#5b5c64" d="M0 0h800v531H0z"/><g filter="url(#b)" transform="translate(1.6 1.6) scale(3.125)" fill-opacity=".5"><ellipse fill="#fff" cx="74" cy="66" rx="61" ry="61"/><ellipse fill="#00000e" rx="1" ry="1" transform="rotate(10 -481.7 1255) scale(64.00517 182.58435)"/><path fill="#cff3ff" d="M156.6 15.2l.8 41-38 .6-.8-41z"/><ellipse fill="#541e00" rx="1" ry="1" transform="matrix(-1.52176 -31.11462 75.8426 -3.70932 59.9 156.2)"/><ellipse fill="#000002" rx="1" ry="1" transform="matrix(-14.06332 -15.6189 18.90572 -17.02279 9.8 101.6)"/><ellipse fill="#416caf" cx="128" cy="77" rx="29" ry="39"/><ellipse fill="#d8f0ff" rx="1" ry="1" transform="matrix(14.74014 -16.95659 23.00399 19.99706 40.5 37.4)"/><ellipse fill="#000009" rx="1" ry="1" transform="matrix(-135.7555 -2.60664 .26302 -13.6984 104.4 2)"/><ellipse fill="#f6f8cf" rx="1" ry="1" transform="matrix(-36.64746 34.53482 -18.3292 -19.45047 65.9 91.9)"/><ellipse rx="1" ry="1" transform="matrix(14.02495 -.62042 3.28666 74.29654 1.7 26.4)"/><ellipse fill="#c1ab94" cx="193" cy="84" rx="13" ry="30"/><ellipse fill="#ffedaa" cx="113" cy="113" rx="38" ry="11"/><ellipse fill="#ccdfff" cx="110" cy="34" rx="44" ry="19"/><path fill="#4694ff" d="M242 71h14v38h-14z"/><ellipse fill="#100000" cx="172" cy="143" rx="33" ry="33"/><path fill="#a7ccff" d="M15 11h33v79H15z"/><ellipse fill="#ba8621" cx="58" cy="130" rx="80" ry="8"/><path fill="#000008" d="M40.3 87.8L20.4 121-16 141.1l2.7-43.2z"/><ellipse cx="110" cy="98" rx="6" ry="12"/><ellipse fill="#100000" rx="1" ry="1" transform="matrix(18.73835 25.88601 -24.30677 17.59516 245.1 138)"/><ellipse fill="#3082e5" cx="110" cy="59" rx="18" ry="24"/><ellipse fill="#050163" rx="1" ry="1" transform="matrix(-14.52091 1.93136 -5.82422 -43.78933 171 60.5)"/></g></svg>