<svg xmlns="http://www.w3.org/2000/svg" viewBox="0 0 700 467"><filter id="b"><feGaussianBlur stdDeviation="12" /></filter><path fill="#5b5c64" d="M0 0h700v464H0z"/><g filter="url(#b)" transform="translate(1.4 1.4) scale(2.73438)" fill-opacity=".5"><ellipse fill="#feffff" cx="78" cy="67" rx="64" ry="64"/><ellipse fill="#001" cx="207" cy="47" rx="52" ry="255"/><ellipse fill="#91bdff" cx="123" cy="42" rx="43" ry="28"/><ellipse fill="#381200" cx="147" cy="149" rx="193" ry="26"/><ellipse rx="1" ry="1" transform="matrix(9.79794 22.60424 -30.29083 13.12974 0 106.6)"/><ellipse fill="#000005" rx="1" ry="1" transform="matrix(128.14595 5.81907 -.67148 14.78722 79.4 0)"/><path fill="#e8f0e0" d="M24 15h79v106H24z"/><ellipse fill="#2c5490" rx="1" ry="1" transform="matrix(-9.99629 30.40388 -25.27674 -8.31057 127.5 78)"/><path fill="#cdc3bc" d="M196.4 67.3l18 8.8-18.8 38.6-18-8.8z"/><ellipse cx="2" cy="50" rx="13" ry="79"/><path fill="#a5cfff" d="M16 13h32v78H16z"/><path fill="#fff" d="M111 17h43v25h-43z"/><path fill="#d1b67f" d="M105 127l29-60 8 86z"/><path fill="#000007" d="M-7 92l19 38 28-42z"/><path fill="#438ef8" d="M242 65h14v44h-14z"/><path fill="#ca9a39" d="M121.8 134.5l-108 6.5-29.8-13.2 79.8-10.4z"/><ellipse fill="#08020c" cx="163" cy="137" rx="23" ry="55"/><path d="M102 90l12-5 3 32z"/><path fill="#060086" d="M184 55l-28-40v87z"/><path fill="#ffffe0" d="M56.6 113L54 52.3 24.4 121l10.7 7.7z"/><path fill="#caaf23" d="M79.4 1.4l10 19.6-18.8 9.6-10-19.6z"/><path fill="#eae7c6" d="M145.2 114l-30.4-33.6 2.5 26.9L76.7 126z"/></g></svg>