<svg xmlns="http://www.w3.org/2000/svg" viewBox="0 0 700 467"><filter id="b"><feGaussianBlur stdDeviation="12" /></filter><path fill="#e1eaf4" d="M0 0h700v464H0z"/><g filter="url(#b)" transform="translate(1.4 1.4) scale(2.73438)" fill-opacity=".5"><path fill="#1e0000" d="M55.8 101.9l4.4 30.3L81 112.3l-7.5-9.3z"/><ellipse fill="#516e79" cx="61" cy="34" rx="14" ry="21"/><ellipse fill="#7f9299" rx="1" ry="1" transform="matrix(-35.15394 5.00315 -1.01198 -7.11052 64 139)"/><ellipse fill="#c0bbb9" rx="1" ry="1" transform="rotate(164.6 86.5 75) scale(18.17139 31.49677)"/><path fill="#beba83" d="M213.2 30l1.3 15-55.7 5-1.3-15z"/><ellipse fill="#042a18" cx="68" cy="116" rx="9" ry="9"/><path fill="#edf5ff" d="M64.2 102.2l-14.7 13.3 2.1-72.8L227.4-16z"/><path fill="#00000a" d="M61 12h6v7h-6z"/><ellipse fill="#f2f9ff" rx="1" ry="1" transform="matrix(-40.92314 58.74612 -22.7349 -15.83737 24.3 21)"/><ellipse fill="#f4fbff" rx="1" ry="1" transform="rotate(-178 116.2 31.2) scale(23.91953 77.31289)"/><ellipse fill="#eef9ff" rx="1" ry="1" transform="matrix(-5.02455 -67.81728 35.79637 -2.65214 137.4 101.2)"/><path fill="#b3c9d1" d="M43 41l-4 34 41-13z"/><path fill="#f04900" d="M58 123v-15l11-8z"/><path fill="#3f5962" d="M51.5 30.4l-.5 9.3 15.4-14.1L85 36.8z"/><path fill="#00041e" d="M56 44h2v12h-2z"/><ellipse fill="#747c80" cx="38" cy="138" rx="6" ry="6"/><ellipse fill="#f4f8ff" cx="97" cy="10" rx="29" ry="32"/><ellipse fill="#89633d" cx="187" cy="138" rx="16" ry="2"/><path fill="#eaf6ff" d="M-16 58l21 79 63-6z"/><path fill="#805629" d="M207 100h2v30h-2z"/><ellipse fill="#effaff" cx="194" cy="70" rx="28" ry="28"/><path fill="#184959" d="M82 40l-4-2v10z"/></g></svg>