<svg xmlns="http://www.w3.org/2000/svg" viewBox="0 0 200 133"><filter id="b"><feGaussianBlur stdDeviation="12" /></filter><path fill="#897e7a" d="M0 0h200v133H0z"/><g filter="url(#b)" transform="translate(.5 .5)" fill-opacity=".5"><ellipse rx="1" ry="1" transform="matrix(153.95007 16.93174 -2.622 23.8403 64 80.5)"/><ellipse fill="#fff" cx="50" cy="132" rx="154" ry="27"/><ellipse fill="#fff" cx="86" cy="7" rx="199" ry="18"/><ellipse fill="#120000" rx="1" ry="1" transform="matrix(-1.40876 27.25774 -24.071 -1.24406 67.4 88.2)"/><ellipse fill="#fff" cy="14" rx="37" ry="30"/><ellipse fill="#432318" cx="117" cy="61" rx="36" ry="36"/><ellipse fill="#fff" cx="28" cy="130" rx="32" ry="32"/><ellipse fill="#49291f" cx="168" cy="68" rx="27" ry="30"/><ellipse fill="#fff" cx="109" cy="132" rx="88" ry="18"/><ellipse fill="#d4dce9" rx="1" ry="1" transform="matrix(82.23319 14.73138 -2.88955 16.12997 158.4 16)"/><ellipse fill="#270900" rx="1" ry="1" transform="rotate(-81.5 146.8 -52.2) scale(13.57181 199)"/><ellipse fill="#a6a19d" rx="1" ry="1" transform="matrix(-16.51932 -16.70849 4.45245 -4.40205 126 63.8)"/><path fill="#210000" d="M124 46.6l-26-2.3 2-22.9 26 2.3z"/><path fill="#aaa5a1" d="M114 52l5 27 19-60z"/><ellipse fill="#fff" cx="7" cy="125" rx="56" ry="24"/><ellipse fill="#340c00" cx="57" cy="30" rx="26" ry="4"/><ellipse fill="#301407" rx="1" ry="1" transform="matrix(-14.74124 -4.56318 8.45146 -27.30227 69.3 90.5)"/><ellipse fill="#c5b5af" cx="18" cy="56" rx="4" ry="20"/><path fill="#dae6e7" d="M95 58h20v6H95z"/><path fill="#070000" d="M110 94l11-42-55 56z"/><path fill="#e0f0f6" d="M182 63l9-11-7 34z"/><path fill="#bbb7b1" d="M145 50l6 13 31 4z"/></g></svg>