<svg xmlns="http://www.w3.org/2000/svg" viewBox="0 0 800 533"><filter id="b"><feGaussianBlur stdDeviation="12" /></filter><path fill="#3a4269" d="M0 0h800v531H0z"/><g filter="url(#b)" transform="translate(1.6 1.6) scale(3.125)" fill-opacity=".5"><ellipse fill="#8bff8b" cx="164" cy="25" rx="63" ry="42"/><ellipse fill="#000007" rx="1" ry="1" transform="matrix(33.4516 -4.85315 36.61205 252.358 18.5 74)"/><ellipse fill="#c18ec2" cx="118" cy="122" rx="35" ry="35"/><ellipse fill="#3331f2" cx="231" cy="29" rx="31" ry="67"/><ellipse fill="#ffdaff" rx="1" ry="1" transform="matrix(.0936 7.66097 -55.29448 .67558 119.5 143.8)"/><ellipse fill="#ffeaff" cx="222" cy="141" rx="13" ry="9"/><ellipse cx="165" cy="159" rx="217" ry="9"/><ellipse fill="#00001d" cx="85" cy="106" rx="30" ry="13"/><ellipse fill="#b7e670" cx="158" cy="23" rx="31" ry="31"/><ellipse fill="#150068" rx="1" ry="1" transform="rotate(-19.5 408.9 -468.3) scale(30.7676 47.33532)"/><path fill="#cec3e9" d="M117 90l12.5-19.3L153 86l-12.5 19.3z"/><ellipse fill="#0c9751" cx="97" cy="35" rx="22" ry="35"/><ellipse fill="#000051" cx="41" cy="24" rx="38" ry="38"/><ellipse fill="#0a0059" cx="255" cy="116" rx="26" ry="53"/><ellipse fill="#b6a0c0" cx="223" cy="68" rx="5" ry="81"/><ellipse fill="#321143" cx="141" cy="125" rx="40" ry="10"/><path fill="#deaeff" d="M169 153.2l-14 1.5-2-20 14-1.4z"/><ellipse fill="#002" cx="13" cy="94" rx="31" ry="58"/><path fill="#fff3ff" d="M78.3 129.6l.4-10 23 .8-.4 10z"/><path fill="#008884" d="M174 47h46v20h-46z"/><ellipse fill="#bc81d9" cx="56" cy="79" rx="12" ry="12"/><ellipse fill="#15083e" cx="94" cy="85" rx="25" ry="25"/></g></svg>