<svg xmlns="http://www.w3.org/2000/svg" viewBox="0 0 700 467"><filter id="b"><feGaussianBlur stdDeviation="12" /></filter><path fill="#5a4163" d="M0 0h700v464H0z"/><g filter="url(#b)" transform="translate(1.4 1.4) scale(2.73438)" fill-opacity=".5"><ellipse rx="1" ry="1" transform="rotate(-9.6 489.9 -1454.5) scale(50.49904 171.48398)"/><ellipse fill="#f5ffff" rx="1" ry="1" transform="rotate(-131.2 67.7 20.6) scale(17.10546 32.83487)"/><ellipse fill="#ffe0ff" rx="1" ry="1" transform="rotate(87.7 -28.5 142.8) scale(19.2971 90.51793)"/><ellipse fill="#6e17d9" cx="120" cy="7" rx="61" ry="61"/><ellipse fill="#000013" rx="1" ry="1" transform="matrix(-5.3689 25.54884 -55.66072 -11.69669 11.1 28.6)"/><ellipse fill="#cd9a6e" cx="188" cy="81" rx="38" ry="27"/><ellipse fill="#ffffd9" cx="58" cy="80" rx="8" ry="27"/><ellipse fill="#000200" rx="1" ry="1" transform="matrix(1.76988 -18.26615 57.4508 5.56662 16.8 131.5)"/><ellipse fill="#ffd9bf" rx="1" ry="1" transform="matrix(5.74127 -35.40342 6.73418 1.09206 11 81.4)"/><path fill="#c8e8d3" d="M79 65h37v70H79z"/><ellipse cx="255" cy="43" rx="35" ry="135"/><path fill="#000042" d="M153 62l-83-2 52-48z"/><ellipse fill="#efc9c4" rx="1" ry="1" transform="matrix(6.99712 .6984 -8.60652 86.22616 163.3 23.5)"/><path fill="#fffffc" d="M36.9 104l-11-1.4 5.2-36.7 11 1.5z"/><path fill="#0e0602" d="M109 95l145 54-122-9z"/><path fill="#d54fff" d="M68 48l2-51 43 26z"/><path fill="#dea9fd" d="M204 160.9l67 24.1-287-27.7 229.1-10.1z"/><path d="M120.5 152.6l16.8 14-14-79.7 17.8-5.6z"/><path fill="#000013" d="M168 42l9 70-15-36z"/><ellipse fill="#420000" cx="95" cy="117" rx="5" ry="19"/><path fill="#ffd5b3" d="M217.1 58.5l-9.9-2 4.9 32.9 13 10.4z"/><ellipse fill="#b1ecf1" cx="111" cy="72" rx="34" ry="10"/></g></svg>