<svg xmlns="http://www.w3.org/2000/svg" viewBox="0 0 200 133"><filter id="b"><feGaussianBlur stdDeviation="12" /></filter><path fill="#3e2a28" d="M0 0h200v133H0z"/><g filter="url(#b)" transform="translate(.5 .5)" fill-opacity=".5"><ellipse fill="#9d654c" rx="1" ry="1" transform="matrix(6.4856 -30.92246 41.46873 8.69756 51.5 10.4)"/><ellipse cx="42" cy="89" rx="37" ry="37"/><ellipse fill="#9e879d" cx="149" cy="99" rx="17" ry="17"/><ellipse fill="#244ea3" cx="193" cy="26" rx="21" ry="28"/><path fill="#f0a087" d="M144 37h10v38h-10z"/><ellipse fill="#f39f86" cx="114" cy="81" rx="9" ry="9"/><path d="M115 42L49 71l67-75z"/><path fill="#f19e61" d="M-13.4 55.4l-2.5-11.7 33.3-7.1 2.5 11.7z"/><path fill="#f5997c" d="M142.1 25.4l-7.3 6.9-11-11.7 7.4-6.9z"/><path fill="#060200" d="M214.1 32.5l16 28.9-54.2 30-16-28.8z"/><ellipse cx="149" rx="23" ry="21"/><path fill="#8e2f26" d="M67 70l42 9 22-55z"/><ellipse fill="#250309" rx="1" ry="1" transform="matrix(-26.87101 -7.9784 12.22807 -41.18377 111.7 132)"/><path fill="#090c0f" d="M141.8 80.4l6.6-50.8-21.1 12.1-14.7 68.3z"/><ellipse fill="#dc9c80" cx="50" cy="32" rx="8" ry="12"/><path fill="#f1a293" d="M66 18h17v11H66z"/><ellipse cx="63" cy="38" rx="3" ry="27"/><path fill="#080a08" d="M21 65l-4.7-18 4.8-7.8 86.4 28.6z"/><ellipse fill="#714d3d" rx="1" ry="1" transform="matrix(6.52137 4.46527 -39.19937 57.24923 66.1 125)"/><path fill="#9a889f" d="M149.5 99.8l3.2-19.8 13.8 2.2-3.2 19.8z"/><ellipse fill="#37539a" rx="1" ry="1" transform="matrix(-8.53223 -4.59586 14.34218 -26.62634 187.9 23.4)"/><path fill="#d50f27" d="M112 52l16-10-7-20z"/></g></svg>