<svg xmlns="http://www.w3.org/2000/svg" viewBox="0 0 700 467"><filter id="b"><feGaussianBlur stdDeviation="12" /></filter><path fill="#394355" d="M0 0h700v464H0z"/><g filter="url(#b)" transform="translate(1.4 1.4) scale(2.73438)" fill-opacity=".5"><ellipse fill="#a7aeb8" cx="132" cy="155" rx="88" ry="88"/><ellipse cx="51" cy="14" rx="73" ry="73"/><ellipse cx="203" rx="71" ry="71"/><path fill="#ecffff" d="M153 81h103v24H153z"/><ellipse fill="#84a4ee" rx="1" ry="1" transform="matrix(-75.5955 37.1976 -8.6052 -17.48806 32.2 121.3)"/><path fill="#070000" d="M52 112h204v13H52z"/><ellipse cx="48" cy="18" rx="73" ry="73"/><ellipse fill="#cbc8dd" rx="1" ry="1" transform="rotate(-179.7 118.8 68.4) scale(84.11622 10.94844)"/><ellipse fill="#121c00" rx="1" ry="1" transform="rotate(-149.9 82.7 27.4) scale(12.39804 35.03364)"/><ellipse cx="195" cy="20" rx="52" ry="52"/><path fill="#f8f9aa" d="M112 41h42v17h-42z"/><ellipse fill="#05f" cx="220" cy="78" rx="69" ry="11"/><path fill="#fff" d="M51 96h73v14H51z"/><ellipse fill="#dcdbe6" cx="101" cy="141" rx="30" ry="17"/><path d="M98 84l28-16L21 26z"/><path fill="#000684" d="M-16 142l137 26L0 185z"/><ellipse fill="#0035df" rx="1" ry="1" transform="matrix(-94.15864 18.72332 -1.96772 -9.89555 13 99.5)"/><path fill="#c4d1f2" d="M70.7 97l3.3 15.6L15.3 125 12 109.4z"/><path d="M41 116l57 1-79 21z"/><ellipse rx="1" ry="1" transform="matrix(112.5295 -69.00243 15.10723 24.63694 77.6 22.3)"/><ellipse fill="#163c8e" rx="1" ry="1" transform="matrix(-1.30892 -19.26452 95.55825 -6.49267 218 169)"/><path fill="#c9c7d5" d="M150 125h41v28h-41z"/></g></svg>