<svg xmlns="http://www.w3.org/2000/svg" viewBox="0 0 313 195"><filter id="b"><feGaussianBlur stdDeviation="12" /></filter><path fill="#93a4aa" d="M0 0h313v194H0z"/><g filter="url(#b)" transform="translate(.6 .6) scale(1.22266)" fill-opacity=".5"><ellipse rx="1" ry="1" transform="matrix(-13.93107 21.37022 -112.22625 -73.15937 21.4 138)"/><ellipse fill="#d5dbda" cx="157" cy="55" rx="87" ry="87"/><ellipse rx="1" ry="1" transform="matrix(-15.51034 -1.27518 3.03222 -36.88156 255 90.5)"/><ellipse fill="#001d00" rx="1" ry="1" transform="rotate(-60.1 248.4 -118.4) scale(21.47846 35.19037)"/><ellipse fill="#2b2820" rx="1" ry="1" transform="matrix(26.07928 -6.84177 5.26777 20.07953 15 83)"/><ellipse fill="#5d654f" rx="1" ry="1" transform="matrix(-3.4628 -20.91708 39.35923 -6.51588 150.4 130.7)"/><ellipse fill="#fff" cx="218" cy="83" rx="22" ry="48"/><ellipse fill="#2675d6" cx="39" cy="10" rx="59" ry="23"/><ellipse fill="#00000f" rx="1" ry="1" transform="matrix(-37.26773 -17.64102 12.8043 -27.04986 36.8 158)"/><ellipse fill="#e7f6f0" cx="57" cy="77" rx="12" ry="56"/><ellipse fill="#fffdfa" cx="152" cy="53" rx="42" ry="21"/><ellipse fill="#1f5c9a" rx="1" ry="1" transform="matrix(11.83945 -1.46064 3.357 27.21062 197.5 19)"/><path fill="#677d77" d="M89 34h29v76H89z"/><ellipse cx="255" cy="96" rx="17" ry="27"/><ellipse fill="#c3e6db" rx="1" ry="1" transform="matrix(-54.94936 -35.0066 6.71587 -10.54181 90.4 137.3)"/><ellipse fill="#1f6ed2" cx="245" cy="9" rx="12" ry="32"/><path fill="#1c4d73" d="M144 8l39-24-16 35z"/><path fill="#fff9f6" d="M116 53h19v71h-19z"/><ellipse fill="#465718" rx="1" ry="1" transform="matrix(-1.47472 4.55301 -46.93482 -15.20214 152.5 151.8)"/><path fill="#648781" d="M142 71h49v25h-49z"/><path fill="#fff" d="M77 16h8v89h-8zm12 26h27v9H89z"/></g></svg>