<svg xmlns="http://www.w3.org/2000/svg" viewBox="0 0 700 467"><filter id="b"><feGaussianBlur stdDeviation="12" /></filter><path fill="#484949" d="M0 0h700v464H0z"/><g filter="url(#b)" transform="translate(1.4 1.4) scale(2.73438)" fill-opacity=".5"><ellipse fill="#f8f5f1" cx="174" rx="137" ry="49"/><ellipse fill="#000406" cx="85" cy="169" rx="112" ry="112"/><ellipse cx="226" cy="98" rx="116" ry="37"/><ellipse fill="#fff" rx="1" ry="1" transform="matrix(33.35645 -18.33786 15.36628 27.95116 184.2 0)"/><ellipse fill="#7c6a64" rx="1" ry="1" transform="matrix(128.09709 15.50215 -3.52973 29.16681 74 38.8)"/><ellipse fill="#62605f" rx="1" ry="1" transform="matrix(-27.48737 3.61878 -3.79993 -28.86332 214.7 41.5)"/><path fill="#fff" d="M161-16L271 0 154 24z"/><path fill="#a0a4a4" d="M35 114h13v35H35z"/><ellipse fill="#cadfea" rx="1" ry="1" transform="rotate(74.3 32.8 107.8) scale(5.53752 25.93735)"/><ellipse fill="#040606" cx="19" cy="97" rx="90" ry="27"/><ellipse fill="#d3d8d5" cx="8" cy="160" rx="4" ry="27"/><path fill="#fffffe" d="M225 139.2l8.1 3.5-7.4-24.3-1.6 12z"/><ellipse fill="#526371" rx="1" ry="1" transform="matrix(.12612 -10.25526 102.23414 1.2573 128 168.4)"/><ellipse fill="#70564f" cx="71" cy="37" rx="34" ry="34"/><path fill="#e5f3e9" d="M10.6 11.3L42.9 10 109.7-.7-16 9.7z"/><ellipse fill="#98a0a1" rx="1" ry="1" transform="rotate(-86.9 167.7 -40.4) scale(21.58596 5.42026)"/><ellipse fill="#fff" cx="118" rx="36" ry="5"/><ellipse rx="1" ry="1" transform="matrix(8.35829 -.1938 .94887 40.92378 243.4 125.6)"/><path fill="#fff" d="M156 0h34v33h-34zm-25.3 131.9l5.6 4.2-3 4-5.6-4.2z"/><ellipse fill="#151819" cx="213" cy="85" rx="109" ry="26"/><path fill="#fffff9" d="M245.8 144.9l24.3 14.8.9-18.5-19 1z"/></g></svg>