<svg xmlns="http://www.w3.org/2000/svg" viewBox="0 0 800 533"><filter id="b"><feGaussianBlur stdDeviation="12" /></filter><path fill="#301e2e" d="M0 0h800v531H0z"/><g filter="url(#b)" transform="translate(1.6 1.6) scale(3.125)" fill-opacity=".5"><ellipse fill="#dbb7fd" rx="1" ry="1" transform="matrix(-2.91014 -38.70365 74.92194 -5.6334 127.2 84.4)"/><ellipse cx="120" cy="140" rx="255" ry="29"/><ellipse rx="1" ry="1" transform="matrix(-21.95192 -9.16926 17.54977 -42.01553 212.1 50.2)"/><path fill="#ffddf8" d="M178 106L81 82l-33 27z"/><ellipse fill="#d475a1" rx="1" ry="1" transform="rotate(89.8 52.1 150.5) scale(16.4173 30.64121)"/><ellipse cx="50" cy="47" rx="33" ry="43"/><path fill="#f4f" d="M95.9 45.3l12.8 33.5L67.8 59l10.5-12.7z"/><ellipse fill="#39deff" cx="137" cy="62" rx="28" ry="17"/><path fill="#f3f" d="M165 47h26v20h-26z"/><path d="M21 42l226-58-16 62z"/><path fill="#ffcdff" d="M36 99h184v7H36z"/><ellipse rx="1" ry="1" transform="rotate(160.7 89.6 89) scale(62.41285 28.61293)"/><ellipse rx="1" ry="1" transform="matrix(-2.88075 -7.41779 29.97034 -11.6392 192.3 71)"/><path fill="#000002" d="M86.1 76.2l-18 8.8L56 59.8 74 51z"/><ellipse cx="88" cy="157" rx="239" ry="36"/><ellipse rx="1" ry="1" transform="matrix(-14.31345 15.56576 -56.04316 -51.53432 247.1 86)"/><path fill="#a14c64" d="M44 78h64v18H44z"/><path fill="#000013" d="M99 17h12v49H99z"/><path fill="#ba0087" d="M25 99h29v11H25z"/><path fill="#e947ec" d="M74 47h25v25H74z"/><ellipse fill="#38002d" cx="181" cy="92" rx="33" ry="4"/><ellipse fill="#0c0000" rx="1" ry="1" transform="matrix(5.80896 -21.19655 117.03665 32.07412 7.4 7.2)"/></g></svg>