<svg xmlns="http://www.w3.org/2000/svg" viewBox="0 0 700 467"><filter id="b"><feGaussianBlur stdDeviation="12" /></filter><path fill="#565e5f" d="M0 0h700v464H0z"/><g filter="url(#b)" transform="translate(1.4 1.4) scale(2.73438)" fill-opacity=".5"><ellipse fill="#cae2ff" cx="62" cy="80" rx="39" ry="39"/><ellipse fill="#020000" rx="1" ry="1" transform="matrix(-122.15737 -16.08232 6.56555 -49.87028 78.6 0)"/><ellipse fill="#cbffa8" rx="1" ry="1" transform="matrix(27.27752 48.88105 -36.27001 20.24007 185.3 158.8)"/><ellipse fill="#abd1ff" rx="1" ry="1" transform="matrix(-3.62743 24.41688 -40.77698 -6.05792 239.3 30.7)"/><ellipse cx="248" cy="93" rx="30" ry="37"/><path fill="#e0dced" d="M125 50l-4 86 35-83z"/><path fill="#010000" d="M111.6 105.7L122 171l-33.6 5.4L78 111z"/><path fill="#d1d7ff" d="M215.9 113.3l-19 .4-.8-43 19-.4z"/><ellipse cx="17" cy="11" rx="41" ry="41"/><ellipse fill="#fffffb" rx="1" ry="1" transform="rotate(138.9 -14 50.2) scale(19.73011 9.40063)"/><ellipse fill="#1b78fe" cx="134" cy="135" rx="15" ry="36"/><path fill="#ffbe94" d="M51 36h46v18H51z"/><ellipse fill="#cdc49b" cx="64" cy="148" rx="21" ry="31"/><ellipse fill="#0047e7" rx="1" ry="1" transform="rotate(30.6 -123.7 473.2) scale(37.80532 8.26461)"/><ellipse fill="#1f0000" cx="150" cy="19" rx="50" ry="36"/><ellipse fill="#000003" rx="1" ry="1" transform="matrix(-9.09464 -5.0378 14.86473 -26.83499 12.2 125)"/><ellipse rx="1" ry="1" transform="matrix(-22.02127 -35.37865 20.55137 -12.7921 248 93)"/><path fill="#c2c5ff" d="M199 9l66-10-7 30z"/><path fill="#470c00" d="M61.6-16l49.2 1.5L124 70.2l-2 22z"/><path fill="#03041c" d="M142 102l14-48 45 45z"/><ellipse fill="#cbd684" rx="1" ry="1" transform="rotate(108.7 42.3 147.7) scale(16.1068 61.55886)"/><path fill="#c5beff" d="M224.2 78.2l-29.4-2.6 5.3 34.7 25.3-21.4z"/></g></svg>