<svg xmlns="http://www.w3.org/2000/svg" viewBox="0 0 700 467"><filter id="b"><feGaussianBlur stdDeviation="12" /></filter><path fill="#5b5c4e" d="M0 0h700v464H0z"/><g filter="url(#b)" transform="translate(1.4 1.4) scale(2.73438)" fill-opacity=".5"><ellipse fill="#e8ffff" cx="54" cy="158" rx="56" ry="61"/><ellipse fill="#fff7fa" rx="1" ry="1" transform="matrix(-26.46946 -4.57207 9.36884 -54.23979 181.3 80)"/><ellipse rx="1" ry="1" transform="matrix(-12.6269 -42.83032 229.1346 -67.55165 126.2 4.4)"/><ellipse rx="1" ry="1" transform="rotate(-61.4 169.5 -190) scale(156.36618 35.22294)"/><ellipse fill="#bffdff" cx="64" cy="141" rx="24" ry="54"/><path fill="#f8ffff" d="M224.3 169.6l13.8-31 35.6 15.8-13.8 31z"/><ellipse fill="#b79858" cx="134" cy="153" rx="39" ry="39"/><ellipse rx="1" ry="1" transform="matrix(22.09297 -7.68572 22.87513 65.7556 26.2 34.8)"/><ellipse cx="98" cy="50" rx="15" ry="44"/><ellipse fill="#5ad5ff" rx="1" ry="1" transform="rotate(134.4 18.6 57.1) scale(16.0044 10.12509)"/><path d="M218 0h38v134h-38z"/><ellipse fill="#ad6416" rx="1" ry="1" transform="matrix(42.71686 8.89609 -2.51895 12.09537 192.4 28.2)"/><path fill="#d7cfbc" d="M116 42h87v21h-87z"/><path fill="#f2e3e4" d="M159 83h18v65h-18z"/><ellipse fill="#6e5003" rx="1" ry="1" transform="matrix(29.58634 1.9067 -1.93434 30.01515 124.4 91.3)"/><ellipse fill="#89853d" rx="1" ry="1" transform="rotate(-148.7 19.2 62.5) scale(23.09407 60.81968)"/><path fill="#261f1b" d="M161 71l13 14 41-2z"/><ellipse rx="1" ry="1" transform="matrix(69.57788 -5.31114 1.05085 13.76656 151 1.6)"/><path fill="#00339a" d="M46 116l40-69-47 46z"/><ellipse fill="#200000" rx="1" ry="1" transform="matrix(15.24956 -8.45642 16.34456 29.47434 142.6 18)"/><ellipse fill="#73600d" rx="1" ry="1" transform="matrix(-27.6244 37.59721 -7.90316 -5.80682 183.1 148.7)"/><ellipse fill="#edffff" rx="1" ry="1" transform="rotate(105.9 -21.2 84.7) scale(11.65765 29.44904)"/></g></svg>