<svg xmlns="http://www.w3.org/2000/svg" viewBox="0 0 200 133"><filter id="b"><feGaussianBlur stdDeviation="12" /></filter><path fill="#655b6a" d="M0 0h200v133H0z"/><g filter="url(#b)" transform="translate(.5 .5)" fill-opacity=".5"><ellipse fill="#fffffe" cx="110" cy="7" rx="198" ry="32"/><ellipse fill="#0e0c26" rx="1" ry="1" transform="matrix(148.48125 -22.19067 12.17094 81.43763 97.9 129.6)"/><path fill="#fff" d="M119 5h73v14h-73z"/><ellipse fill="#b8685a" rx="1" ry="1" transform="matrix(.5262 10.2086 -78.28626 4.03518 79 34)"/><path fill="#fff" d="M76-6L54 15l48 18z"/><path fill="#012a73" d="M145 2h8v27h-8z"/><ellipse fill="#f6fdff" rx="1" ry="1" transform="matrix(-11.4153 -1.54341 4.13022 -30.54774 0 16)"/><path fill="#c8695c" d="M167 11l9 47-21 27z"/><path fill="#fff" d="M171 0h10v41h-10z"/><ellipse fill="#c06722" cx="199" cy="122" rx="17" ry="17"/><ellipse fill="#8a3423" rx="1" ry="1" transform="matrix(-6.08343 .1593 -.3337 -12.74374 188 31)"/><path fill="#fff" d="M22 0h9v32h-9zm138.8 41.8l-10-.7 2.4-33 10 .8z"/><path fill="#b86b46" d="M29 17l63 34-14-30z"/><ellipse fill="#713f55" cx="131" cy="54" rx="24" ry="24"/><path fill="#fff" d="M105 17L81-16l30 15zm28.6-8.7l-21.8-3.1 25.4 23.7 15-44.9z"/><ellipse fill="#112134" cx="53" cy="131" rx="136" ry="18"/><path fill="#fff" d="M219-14.5l-45.3 40.9-10.7-12 45.3-40.8z"/><ellipse fill="#d7a9a4" cx="26" cy="78" rx="3" ry="18"/><path fill="#224786" d="M1.1-16l20 34.5L-16 28.8 23.9 9z"/><path fill="#e98745" d="M72 67h24v7H72z"/></g></svg>