<svg xmlns="http://www.w3.org/2000/svg" viewBox="0 0 700 467"><filter id="b"><feGaussianBlur stdDeviation="12" /></filter><path fill="#39353a" d="M0 0h700v464H0z"/><g filter="url(#b)" transform="translate(1.4 1.4) scale(2.73438)" fill-opacity=".5"><ellipse fill="#79e6ff" rx="1" ry="1" transform="matrix(83.09113 7.56188 -2.5361 27.86707 123 53.6)"/><ellipse fill="#020000" rx="1" ry="1" transform="matrix(-6.89954 -197.86003 37.36593 -1.30298 243 49)"/><ellipse rx="1" ry="1" transform="rotate(-7.5 171.4 -138) scale(24.14236 51.74254)"/><ellipse fill="#bd2031" cx="134" cy="85" rx="119" ry="9"/><ellipse fill="#200000" rx="1" ry="1" transform="matrix(241.8366 -15.84044 1.47474 22.51496 91.5 169)"/><ellipse cx="188" cy="2" rx="195" ry="24"/><ellipse fill="#0898cb" cx="68" cy="63" rx="27" ry="16"/><path fill="#239bbd" d="M170 35h35v46h-35z"/><ellipse fill="#7b5f5c" rx="1" ry="1" transform="matrix(7.90202 22.31208 -33.5741 11.89056 63.5 115.7)"/><path fill="#72b6c8" d="M116 24l-72-6v20z"/><path fill="#af807c" d="M118.3 106.3L144.6 90l11.1 17.8-26.3 16.4z"/><path fill="#a3b9bf" d="M93 46h90v24H93z"/><path d="M200.6 18.4l62.6-13.3 14.2 66.5-62.6 13.3z"/><ellipse fill="#654a44" rx="1" ry="1" transform="matrix(-1.15722 -17.61756 43.2931 -2.84374 210.8 117.1)"/><ellipse cx="5" cy="39" rx="39" ry="32"/><ellipse fill="#c80d0e" cx="6" cy="77" rx="43" ry="6"/><path fill="#150000" d="M-47.9 70l38.7-16.4 57 134.4-38.6 16.4z"/><ellipse fill="#3a3e73" rx="1" ry="1" transform="matrix(56.31218 .85998 -.06696 4.38468 114 74.5)"/><path d="M218.7-.5L214 37.2l-38.7-4.7L180-5.2z"/><path fill="#007b9a" d="M64.9 49.9l-23.8-3 2-16.8 23.8 3z"/><ellipse fill="#310000" cx="119" cy="162" rx="102" ry="16"/><ellipse fill="#b69583" cx="32" cy="113" rx="64" ry="3"/></g></svg>