<svg xmlns="http://www.w3.org/2000/svg" viewBox="0 0 200 133"><filter id="b"><feGaussianBlur stdDeviation="12" /></filter><path fill="#736a59" d="M0 0h200v133H0z"/><g filter="url(#b)" transform="translate(.5 .5)" fill-opacity=".5"><ellipse fill="#fff4c5" cx="75" cy="12" rx="65" ry="65"/><ellipse cx="70" cy="132" rx="73" ry="73"/><ellipse fill="#00040a" cx="168" cy="103" rx="199" ry="30"/><ellipse fill="#d6c2a4" rx="1" ry="1" transform="matrix(140.79995 -20.37623 3.38229 23.37164 164.6 41.8)"/><ellipse fill="#fff" rx="1" ry="1" transform="matrix(23.67635 -10.8689 7.88389 17.17393 27.7 30.5)"/><path fill="#774004" d="M114.5-4.9l5.2 19.3L95.5 21 90.3 1.6z"/><ellipse fill="#bdad8e" cx="143" cy="13" rx="34" ry="53"/><ellipse fill="#fff" rx="1" ry="1" transform="rotate(-95.3 28.6 -5.5) scale(26.73578 10.01958)"/><ellipse fill="#5d3604" cx="106" cy="44" rx="13" ry="7"/><ellipse fill="#0e0907" cx="20" cy="105" rx="29" ry="37"/><path fill="#d7dabd" d="M181.9 45l16 17.9-17.8 16-16-17.8z"/><path fill="#61725a" d="M133 135l-85-4 75-19z"/><ellipse fill="#bd9b71" cx="44" cy="57" rx="66" ry="13"/><path fill="#7c490c" d="M1 14.4l6.6-26.2 21.3 5.4-6.5 26.2z"/><ellipse fill="#0c0303" rx="1" ry="1" transform="rotate(70.2 15.1 160.8) scale(10.64754 59.84848)"/><ellipse fill="#f8e8d4" cx="84" cy="63" rx="34" ry="6"/><path fill="#b17a31" d="M52 4h33v22H52z"/><path d="M151 28h12v11h-12z"/><path fill="#403c54" d="M69.2 136.6l-33.1-74 12.2 10.6L74 65.6z"/><path fill="#f1e6db" d="M122.5 72.7l19-14.7-6.1-3.7-13.2-14.6z"/><path fill="#110e0c" d="M38.1 124.6l133.4-22L7 91.8l16.5-41.6z"/><path fill="#3a4d43" d="M190 0h10v40h-10z"/></g></svg>