<svg xmlns="http://www.w3.org/2000/svg" viewBox="0 0 700 467"><filter id="b"><feGaussianBlur stdDeviation="12" /></filter><path fill="#7a7d87" d="M0 0h700v464H0z"/><g filter="url(#b)" transform="translate(1.4 1.4) scale(2.73438)" fill-opacity=".5"><ellipse fill="#fff" cx="41" cy="118" rx="73" ry="24"/><ellipse fill="#100000" cx="140" cy="169" rx="157" ry="31"/><ellipse fill="#c9feff" rx="1" ry="1" transform="matrix(-56.91617 -10.21813 3.55216 -19.78594 77.3 44.4)"/><ellipse fill="#9593ff" rx="1" ry="1" transform="matrix(-54.17924 5.02606 -2.89584 -31.21624 210.7 58.6)"/><path fill="#031400" d="M65 68h66v28H65z"/><path d="M-19.1 76l56-1 .2 17-56 1z"/><ellipse fill="#574a3c" cx="89" cy="2" rx="91" ry="31"/><ellipse fill="#a98651" cx="151" cy="140" rx="40" ry="40"/><path fill="#0000ed" d="M31.4 69.3l-18-.6 1.2-36 18 .6z"/><ellipse fill="#b9bba7" rx="1" ry="1" transform="matrix(-62.32907 -28.71704 10.21652 -22.1745 205.4 108.3)"/><path fill="#1f0700" d="M163.9 14.6L122.6 37l11.3-27 28.4 44.6z"/><ellipse fill="#fff" rx="1" ry="1" transform="rotate(83.3 2.7 55.7) scale(14.81579 26.76961)"/><ellipse fill="#000501" cx="83" cy="153" rx="31" ry="17"/><ellipse fill="#b4c5f1" rx="1" ry="1" transform="rotate(-140.7 101.4 -15.5) scale(35.30885 16.61653)"/><ellipse fill="#424448" rx="1" ry="1" transform="rotate(-51.1 111 -232.2) scale(22.70472 43.97672)"/><ellipse fill="#78beff" cx="102" cy="46" rx="24" ry="24"/><ellipse fill="#7a75ff" cx="224" cy="51" rx="65" ry="21"/><ellipse fill="#000b00" rx="1" ry="1" transform="matrix(-6.65652 -20.63623 9.14222 -2.94896 118.4 90)"/><ellipse fill="#c8d7d0" cx="10" cy="123" rx="45" ry="28"/><ellipse fill="#c8e3ea" cx="80" cy="107" rx="33" ry="14"/><path fill="#fcc27d" d="M162 32V14h38v18z"/><path fill="#160300" d="M87 136h46v9H87z"/></g></svg>