<svg xmlns="http://www.w3.org/2000/svg" viewBox="0 0 700 467"><filter id="b"><feGaussianBlur stdDeviation="12" /></filter><path fill="#635d65" d="M0 0h700v464H0z"/><g filter="url(#b)" transform="translate(1.4 1.4) scale(2.73438)" fill-opacity=".5"><ellipse fill="#b7c1ef" rx="1" ry="1" transform="matrix(6.19785 56.5862 -77.84496 8.5263 58.8 22.2)"/><ellipse fill="#f4ebeb" rx="1" ry="1" transform="matrix(-19.11742 -5.80832 9.80362 -32.26752 119.8 113.4)"/><ellipse cx="107" cy="156" rx="255" ry="16"/><ellipse rx="1" ry="1" transform="matrix(-1.66867 22.01502 -67.4125 -5.10967 209.3 102)"/><ellipse fill="#0e0c06" rx="1" ry="1" transform="matrix(11.38776 16.32397 -32.40856 22.60853 80.4 90.8)"/><ellipse fill="#8092d5" rx="1" ry="1" transform="matrix(-14.37952 -23.50415 58.15155 -35.57634 198.5 .9)"/><ellipse fill="#0e0000" rx="1" ry="1" transform="matrix(71.23436 -3.5607 .60182 12.0399 25 110.3)"/><ellipse fill="#dab581" cx="97" cy="132" rx="255" ry="9"/><ellipse rx="1" ry="1" transform="matrix(-11.62277 -3.42407 7.35597 -24.96934 153.4 112.1)"/><path fill="#ffffb8" d="M0 163h40v7H0z"/><ellipse rx="1" ry="1" transform="matrix(-17.5461 9.32942 -5.4981 -10.34044 143.8 57.7)"/><path fill="#b3aaae" d="M27 0h57v88H27z"/><path fill="#ecb470" d="M161 157h84v9h-84z"/><ellipse rx="1" ry="1" transform="matrix(-42.32123 2.44023 -1.24924 -21.66584 81.8 165)"/><path d="M0 140h63v16H0z"/><path fill="#020801" d="M84 51h14v72H84z"/><path fill="#2265f9" d="M83 14h82v12H83z"/><ellipse fill="#737276" rx="1" ry="1" transform="rotate(-80.5 150.5 -85.3) scale(27.586 16.48444)"/><path fill="#0e0100" d="M150 15h8v47h-8z"/><path fill="#000401" d="M88 142h78v28H88z"/><ellipse cx="208" cy="149" rx="90" ry="7"/><path fill="#c3c4dd" d="M142 89.8l-.8 39.9-6.5 15.2L99 87.8z"/></g></svg>