<svg xmlns="http://www.w3.org/2000/svg" viewBox="0 0 700 467"><filter id="b"><feGaussianBlur stdDeviation="12" /></filter><path fill="#5b3b37" d="M0 0h700v464H0z"/><g filter="url(#b)" transform="translate(1.4 1.4) scale(2.73438)" fill-opacity=".5"><path fill="#a58389" d="M29 48h189v93H29z"/><ellipse rx="1" ry="1" transform="matrix(-25.2402 -.82796 3.27602 -99.86856 241 24.5)"/><ellipse rx="1" ry="1" transform="matrix(.0776 -72.7833 22.79818 .0243 12.7 42.9)"/><ellipse fill="#d8bdf8" cx="134" cy="64" rx="25" ry="17"/><path fill="#00b1ff" d="M174 47h27v24h-27z"/><ellipse fill="#070000" cx="115" cy="169" rx="255" ry="18"/><ellipse fill="#050000" rx="1" ry="1" transform="matrix(1.34034 -17.0519 44.27369 3.48006 149.3 28.1)"/><path fill="#a8d1f2" d="M69 47h27v28H69z"/><path fill="#511c16" d="M159 180l2-153 33 84z"/><path fill="#362211" d="M80-16L11 173l60-85z"/><path fill="#bcc6bb" d="M50 99h56v15H50z"/><path fill="#060000" d="M64 11h46v30H64z"/><path d="M205 128h21v19h-21z"/><ellipse fill="#ebae8c" rx="1" ry="1" transform="rotate(-167.8 26.3 16.4) scale(4.81111 89.31729)"/><ellipse fill="#301716" cx="102" cy="56" rx="8" ry="35"/><path fill="#b2716c" d="M165 152H97l60-66z"/><path fill="#1e1f1c" d="M91 106h25v28H91z"/><path fill="#ca916d" d="M204 32h15v85h-15z"/><ellipse fill="#1e0000" rx="1" ry="1" transform="matrix(13.37237 -33.038 19.17609 7.76166 17.2 161.2)"/><ellipse rx="1" ry="1" transform="matrix(-17.86895 .65522 -3.56812 -97.30797 255 23)"/><ellipse fill="#0b0000" rx="1" ry="1" transform="rotate(-70.5 17.3 1.6) scale(72.50148 26.93812)"/><path fill="#a55644" d="M249.2 99.4l-7-15.9-13.3 51 20.9 4.7z"/></g></svg>