<svg xmlns="http://www.w3.org/2000/svg" viewBox="0 0 200 133"><filter id="b"><feGaussianBlur stdDeviation="12" /></filter><path fill="#b8b4b1" d="M0 0h200v133H0z"/><g filter="url(#b)" transform="translate(.5 .5)" fill-opacity=".5"><ellipse cx="52" cy="109" rx="55" ry="37"/><ellipse fill="#fff" rx="1" ry="1" transform="rotate(-178.7 44.6 2.5) scale(199 48.40279)"/><ellipse fill="#fff" cx="155" cy="10" rx="50" ry="50"/><ellipse fill="#fff" rx="1" ry="1" transform="matrix(140.86246 -22.1398 6.60582 42.02892 63.2 6.6)"/><ellipse fill="#102001" rx="1" ry="1" transform="matrix(-19.3187 -10.88553 18.62953 -33.06208 80.1 107.8)"/><ellipse fill="#e3e7e1" cx="48" cy="64" rx="14" ry="38"/><path fill="#5a311c" d="M114 51h28v24h-28z"/><ellipse fill="#a16d71" rx="1" ry="1" transform="rotate(-91.5 137.5 -10.7) scale(35.4201 57.58395)"/><path fill="#071600" d="M59 103l-7 23-68-26z"/><ellipse fill="#e9ffff" cx="184" cy="81" rx="75" ry="6"/><ellipse fill="#fff" rx="1" ry="1" transform="matrix(-5.28809 30.2124 -184.11943 -32.2265 52.8 10.5)"/><ellipse fill="#918980" rx="1" ry="1" transform="rotate(-177.9 49.4 27.4) scale(10.98841 32.77639)"/><path fill="#162f00" d="M29 121L19 63l16 17z"/><ellipse fill="#979ca3" cx="16" cy="128" rx="33" ry="9"/><path fill="#2e3d09" d="M121 74l-9-7-18 19z"/><ellipse fill="#9fa4a0" cx="70" cy="65" rx="36" ry="17"/><ellipse fill="#54614a" rx="1" ry="1" transform="matrix(-14.17382 -1.07672 .44717 -5.88654 145.2 68.8)"/><ellipse fill="#fff" rx="1" ry="1" transform="rotate(51.9 -10.5 36.7) scale(23.74319 153.97096)"/><path fill="#c7d4c4" d="M16.2 92l7.2-27-39.4 1.3v9.6z"/><ellipse fill="#2d3817" cx="16" cy="103" rx="23" ry="13"/><path fill="#68704f" d="M24.2 74.7l23.7 42.7L33.6 69 6.9 66.8z"/><path fill="#fff" d="M106 93h3v40h-3z"/></g></svg>