<svg xmlns="http://www.w3.org/2000/svg" viewBox="0 0 700 353"><filter id="b"><feGaussianBlur stdDeviation="12" /></filter><path fill="#664f5f" d="M0 0h700v352H0z"/><g filter="url(#b)" transform="translate(1.4 1.4) scale(2.73438)" fill-opacity=".5"><ellipse fill="#ffdaff" cx="133" cy="89" rx="84" ry="46"/><ellipse rx="1" ry="1" transform="matrix(-44.09459 159.0125 -40.64394 -11.27067 14.4 62.2)"/><ellipse cx="240" cy="43" rx="32" ry="88"/><ellipse fill="#000500" rx="1" ry="1" transform="matrix(.8034 16.18408 -96.55582 4.7932 198.6 30.5)"/><ellipse fill="#ffa3ff" rx="1" ry="1" transform="matrix(16.80378 16.1977 -13.33384 13.83277 76.7 68.6)"/><ellipse cx="18" cy="56" rx="37" ry="61"/><ellipse cx="255" cy="71" rx="44" ry="44"/><ellipse fill="#f9affa" rx="1" ry="1" transform="rotate(153.2 82.9 55) scale(29.78151 15.68691)"/><ellipse fill="#e58ee0" cx="191" cy="101" rx="26" ry="26"/><ellipse fill="#f4c7ef" rx="1" ry="1" transform="rotate(82.2 25.9 106.7) scale(19.5087 51.2678)"/><path fill="#020000" d="M136 90h9v39h-9z"/><ellipse fill="#131009" cx="213" rx="50" ry="50"/><ellipse fill="#424432" cx="80" cy="17" rx="64" ry="30"/><path fill="#261a11" d="M33 107h32v22H33z"/><ellipse fill="#e293e2" cx="76" cy="99" rx="16" ry="29"/><ellipse fill="#dee1e7" cx="132" cy="50" rx="61" ry="5"/><path fill="#a88b78" d="M10 116h33v11H10z"/><ellipse fill="#804238" cx="135" cy="91" rx="44" ry="6"/><path fill="#600" d="M0 127h242v2H0z"/><path fill="#b7b2a5" d="M105.8 8.3l15.6 12.2 9.1-8.6 15.3-3z"/><path fill="#da8dd2" d="M171 70L53 79l7-33z"/><ellipse fill="#000002" rx="1" ry="1" transform="matrix(-31.30472 -3.29026 2.4544 -23.35201 18.5 94.4)"/></g></svg>