<svg xmlns="http://www.w3.org/2000/svg" viewBox="0 0 800 533"><filter id="b"><feGaussianBlur stdDeviation="12" /></filter><path fill="#301e2e" d="M0 0h800v531H0z"/><g filter="url(#b)" transform="translate(1.6 1.6) scale(3.125)" fill-opacity=".5"><ellipse fill="#e6c3ff" rx="1" ry="1" transform="matrix(5.31469 35.08422 -72.67869 11.00964 127.1 82.9)"/><ellipse fill="#e482b4" rx="1" ry="1" transform="matrix(-44.18143 3.86537 -1.15747 -13.22996 194 98.3)"/><path fill="#a580d1" d="M74 46h116v64H74z"/><ellipse rx="1" ry="1" transform="matrix(.10367 34.91939 -239.69458 .7116 124.9 146.8)"/><path fill="#090000" d="M179 0h77v99h-77z"/><ellipse rx="1" ry="1" transform="matrix(-10.06993 14.68652 -31.99023 -21.93434 51.1 57.6)"/><path fill="#fef" d="M38 101l89-12-46 25z"/><path fill="#1dc7e4" d="M117 46h48v33h-48z"/><ellipse rx="1" ry="1" transform="matrix(1.47946 -17.25715 110.69557 9.48996 101.7 27)"/><path fill="#ff14ff" d="M166.9 69.4l2.4-22.9 19.8 2.1-2.4 22.9z"/><path fill="#ff38ff" d="M74 46h25v23H74z"/><path fill="#210021" d="M228.2 35l-46 31.1-31.3 8.7 26 21.3z"/><path fill="#d486aa" d="M104 83h122v28H104z"/><ellipse rx="1" ry="1" transform="matrix(-.7337 47.48299 -183.1889 -2.83057 142.9 169)"/><path fill="#000c2f" d="M110 42l-11 9 15 39z"/><ellipse fill="#d114c4" cx="252" cy="44" rx="10" ry="10"/><ellipse cx="46" cy="53" rx="28" ry="28"/><path fill="#fffcff" d="M67 99h133v7H67z"/><path fill="#d700a3" d="M53 97l10 13-52-5z"/><ellipse fill="#000400" cx="202" cy="73" rx="9" ry="26"/><ellipse fill="#bd10a3" rx="1" ry="1" transform="rotate(77.5 -25.5 21.7) scale(9.50319 16.67922)"/><path fill="#60155f" d="M81 84l-9-30 47 35z"/></g></svg>