<svg xmlns="http://www.w3.org/2000/svg" viewBox="0 0 200 133"><filter id="b"><feGaussianBlur stdDeviation="12" /></filter><path fill="#44492b" d="M0 0h200v133H0z"/><g filter="url(#b)" transform="translate(.5 .5)" fill-opacity=".5"><ellipse fill="#f0efff" rx="1" ry="1" transform="matrix(10.41496 5.31633 -9.02953 17.68931 100.3 87.7)"/><ellipse fill="#fff" rx="1" ry="1" transform="matrix(-7.66018 7.021 -8.95336 -9.76846 99.3 40.3)"/><ellipse fill="#ffb41c" cx="134" cy="132" rx="191" ry="14"/><ellipse fill="#ff0" rx="1" ry="1" transform="rotate(115.3 63 39.9) scale(16.17385 26.05258)"/><ellipse rx="1" ry="1" transform="matrix(-4.79073 49.75365 -21.74547 -2.09385 17.3 29.7)"/><ellipse fill="#001a01" rx="1" ry="1" transform="rotate(94 54.8 93.4) scale(26.31897 39.68466)"/><ellipse fill="#002a8d" rx="1" ry="1" transform="rotate(-7.9 268.3 -484.3) scale(19.72256 25.48298)"/><ellipse fill="#020102" cx="142" cy="87" rx="19" ry="33"/><path fill="#fff" d="M67 84l-10-1 5-34z"/><ellipse fill="#160010" rx="1" ry="1" transform="matrix(-14.18222 11.48454 -20.47447 -25.28386 48.6 97.6)"/><path fill="#c9ea00" d="M171 16.7l41.1-18.3 4.9 11-41.1 18.2z"/><path fill="#c3c06a" d="M31.9 91L4.2 95.4-16 97.8l36.5 12.6z"/><ellipse fill="#ffffe2" cx="85" cy="97" rx="3" ry="22"/><path fill="#ffe4e6" d="M58 83l1-35 11 15z"/><ellipse fill="#00200d" cx="50" rx="59" ry="21"/><ellipse fill="#dee16a" cx="190" cy="100" rx="23" ry="4"/><path fill="#ff3" d="M138.8-8L131 15.8 107.2 8l7.8-23.8z"/><path fill="#080b25" d="M69 42l-4 54 42-39z"/><ellipse fill="#e8ca00" cx="15" cy="118" rx="23" ry="3"/><path fill="#d0ceee" d="M87 30h23v20H87z"/><ellipse fill="#fff" cx="17" cy="82" rx="4" ry="4"/><path fill="#97af4b" d="M177 106l-17-30 20-12z"/></g></svg>