<svg xmlns="http://www.w3.org/2000/svg" viewBox="0 0 641 195"><filter id="b"><feGaussianBlur stdDeviation="12" /></filter><path fill="#6b6c5d" d="M0 0h641v192H0z"/><g filter="url(#b)" transform="translate(1.3 1.3) scale(2.5039)" fill-opacity=".5"><ellipse fill="#fff" cx="133" cy="37" rx="19" ry="33"/><ellipse fill="#c5dcff" cx="42" cy="49" rx="28" ry="28"/><ellipse cx="94" cy="38" rx="18" ry="32"/><ellipse fill="#415100" cx="203" cy="40" rx="51" ry="51"/><ellipse fill="#00000f" cy="45" rx="16" ry="42"/><ellipse fill="#05000a" rx="1" ry="1" transform="matrix(-3.87656 22.63064 -18.58576 -3.18369 168.9 64.5)"/><path fill="#c5e1ff" d="M46 108.9L33.2 17.8 52 15l12.8 91.1z"/><ellipse fill="#dde2b4" cx="167" cy="16" rx="7" ry="16"/><path fill="#ffe" d="M250 0h6v38h-6z"/><path d="M62 50l1 28 14-28z"/><path fill="#ffe2fc" d="M113.6-.6L132.3 9l-5.9 11.6-18.7-9.6z"/><path d="M83 14h27v50H83z"/><ellipse fill="#cfd1de" cx="133" cy="62" rx="15" ry="57"/><path fill="#1d2700" d="M159.3 65.7L147.7-16l-18.5 9.5 38.5 60.2z"/><path fill="#0b0716" d="M-16 37.9L52-6l3.7 10.6-7 5.3z"/><ellipse fill="#fff" cx="71" cy="5" rx="6" ry="6"/><ellipse fill="#cac9aa" rx="1" ry="1" transform="matrix(5.13172 -2.66003 6.40458 12.35568 189 42)"/><path fill="#4b5656" d="M124.8 91.8l.7-3.8 3.6-49.6L146.6 92z"/><ellipse fill="#8e3a35" rx="1" ry="1" transform="rotate(-41.1 64 -105) scale(36.3872 10.27052)"/><path fill="#acb8d4" d="M19-4.7l1 25-13 .4-1-25z"/><path fill="#acb17a" d="M232 32l12 13-43 47z"/><path fill="#a8bff9" d="M74 55.1l-35.2-43L33 66.8l43-29.6z"/></g></svg>