<svg xmlns="http://www.w3.org/2000/svg" viewBox="0 0 700 467"><filter id="b"><feGaussianBlur stdDeviation="12" /></filter><path fill="#454d54" d="M0 0h700v464H0z"/><g filter="url(#b)" transform="translate(1.4 1.4) scale(2.73438)" fill-opacity=".5"><ellipse fill="#f2ffff" cx="241" cy="29" rx="30" ry="30"/><ellipse fill="#98c0d4" cx="140" cy="44" rx="48" ry="31"/><ellipse fill="#100" cx="172" cy="106" rx="44" ry="44"/><ellipse fill="#00000b" rx="1" ry="1" transform="matrix(29.97663 14.76845 -25.18946 51.12895 82.8 13.4)"/><ellipse fill="#b2b6c0" rx="1" ry="1" transform="matrix(24.77297 18.82348 -14.28795 18.8039 90.2 155.2)"/><ellipse fill="#1a0603" cx="105" cy="105" rx="210" ry="22"/><path fill="#cfffff" d="M167 0h17v57h-17z"/><ellipse fill="#bbb5af" rx="1" ry="1" transform="rotate(-105.5 74.9 -2.5) scale(9.83849 85.6083)"/><path d="M128 0h11v103h-11z"/><path fill="#e2d2e0" d="M146.7 139l10.2 46 4.6-61.7-14-5z"/><ellipse fill="#72c9ff" rx="1" ry="1" transform="rotate(93.5 -65.7 97.4) scale(14.26147 127.5886)"/><path fill="#ffe1e1" d="M203 120h19v34h-19z"/><path d="M166-3v60h-10V-3z"/><ellipse fill="#000007" cx="7" cy="56" rx="17" ry="98"/><path fill="#babbc9" d="M120 132.9l14.6-3.6L144 167l-14.6 3.6z"/><path fill="#d18759" d="M27 0h17v79H27z"/><ellipse fill="#cef5ff" cx="121" cy="43" rx="7" ry="38"/><ellipse fill="#fff7df" cx="37" cy="135" rx="5" ry="18"/><ellipse fill="#babdb5" cx="228" cy="38" rx="31" ry="22"/><ellipse cx="202" cy="10" rx="18" ry="18"/><ellipse fill="#84faff" cx="102" cy="46" rx="6" ry="26"/><ellipse fill="#deffff" cx="147" cy="29" rx="7" ry="23"/></g></svg>