<svg xmlns="http://www.w3.org/2000/svg" viewBox="0 0 800 533"><filter id="b"><feGaussianBlur stdDeviation="12" /></filter><path fill="#3b2b18" d="M0 0h800v531H0z"/><g filter="url(#b)" transform="translate(1.6 1.6) scale(3.125)" fill-opacity=".5"><ellipse fill="#ffffe5" rx="1" ry="1" transform="matrix(9.74698 -11.43355 21.75074 18.54228 177.5 27.2)"/><path fill="#fffcfd" d="M43.5 98.2L15 77.7l50-41.1 8 19.3z"/><ellipse fill="#a98a50" cx="17" cy="30" rx="45" ry="28"/><ellipse fill="#0b0000" rx="1" ry="1" transform="matrix(-59.9046 60.71572 -25.86827 -25.52269 100.2 86.4)"/><path d="M43 26l11 32L8 78z"/><ellipse fill="#000001" cx="193" cy="158" rx="57" ry="57"/><ellipse fill="#ffffed" cx="181" cy="30" rx="15" ry="15"/><path fill="#000103" d="M258 33l-27 82-88-46z"/><path fill="#fff" d="M62.9 75.9l-14.7-40 12.3-5 10 37.3zm-79.2-22.7l20.7-23 12 10.6-20.8 23z"/><ellipse fill="#614200" rx="1" ry="1" transform="rotate(-88.8 88.5 -87) scale(12.46383 28.94605)"/><ellipse fill="#020000" rx="1" ry="1" transform="rotate(-138.9 27 51.4) scale(41.92124 23.56413)"/><path fill="#fffffe" d="M71 55L27 72l5 21z"/><ellipse fill="#560000" rx="1" ry="1" transform="matrix(-4.13304 -8.11959 12.75544 -6.49279 57.3 82.2)"/><path d="M83 25l-53 5L70 5z"/><ellipse fill="#8d7c5b" cx="203" cy="34" rx="12" ry="18"/><path fill="#ffedc6" d="M169 59l19-40-20-7z"/><path fill="#bb9362" d="M250 53h6v51h-6z"/><path fill="#ac8469" d="M167.2 97.4l10-6.5 18.7 6.7-2.3 13.9z"/><ellipse cx="19" cy="85" rx="14" ry="5"/><ellipse fill="#060600" rx="1" ry="1" transform="rotate(-10.9 445.4 -535.2) scale(50.38637 21.79397)"/><ellipse fill="#552500" cx="94" cy="169" rx="47" ry="47"/></g></svg>