<svg xmlns="http://www.w3.org/2000/svg" viewBox="0 0 200 133"><filter id="b"><feGaussianBlur stdDeviation="12" /></filter><path fill="#5f4846" d="M0 0h200v133H0z"/><g filter="url(#b)" transform="translate(.5 .5)" fill-opacity=".5"><path fill="#eae4ff" d="M69 98h40v31H69z"/><path fill="#ddbca1" d="M190 53l-37 6 62 60z"/><ellipse fill="#e6a9d6" rx="1" ry="1" transform="matrix(-1.55028 11.4714 -18.34452 -2.47914 145.8 119)"/><path fill="#fff" d="M97.3 37.6l-21.1 9-3.5-8.2 21.1-9z"/><path fill="#000013" d="M28.8 97.8l30-1.6 2.4 48-30 1.6z"/><path fill="#00000b" d="M18 108L2 40l31-2z"/><ellipse fill="#000217" cx="121" cy="86" rx="11" ry="34"/><path fill="#392914" d="M191-12L73 13l142 54z"/><ellipse fill="#01000a" rx="1" ry="1" transform="matrix(9.77472 -26.01147 9.93199 3.73229 56.7 39)"/><ellipse fill="#010007" rx="1" ry="1" transform="matrix(-11.40595 9.84535 -22.23217 -25.75621 188.7 132)"/><ellipse fill="#c8a7b0" rx="1" ry="1" transform="matrix(-7.5348 5.05878 -15.01256 -22.36048 3.7 98.8)"/><path fill="#fefeff" d="M74 102h37v12H74z"/><ellipse fill="#0068f4" cx="127" cy="55" rx="15" ry="8"/><path d="M36-2l-52 28 9-42z"/><path fill="#fffff3" d="M21 8h9v12h-9z"/><path fill="#965b20" d="M148 82l27 24 40-47z"/><path fill="#86647f" d="M176 125L57 109l8 32z"/><ellipse fill="#ffe8dc" cx="115" cy="34" rx="6" ry="6"/><ellipse fill="#cd8063" rx="1" ry="1" transform="matrix(6.59004 -1.6799 4.78286 18.76265 45.8 83.4)"/><path fill="#2e0000" d="M84 13l21 42 5-30z"/><path fill="#e98f2b" d="M118 31h25v10h-25z"/><path fill="#fd9d68" d="M23 31l18-5-1 20z"/></g></svg>