<svg xmlns="http://www.w3.org/2000/svg" viewBox="0 0 700 467"><filter id="b"><feGaussianBlur stdDeviation="12" /></filter><path fill="#786569" d="M0 0h700v464H0z"/><g filter="url(#b)" transform="translate(1.4 1.4) scale(2.73438)" fill-opacity=".5"><ellipse fill="#c3f8f2" cx="224" cy="45" rx="69" ry="69"/><ellipse fill="red" cx="193" cy="140" rx="96" ry="35"/><ellipse fill="#00348c" cx="30" cy="39" rx="56" ry="119"/><ellipse cx="142" cy="46" rx="15" ry="70"/><ellipse fill="red" rx="1" ry="1" transform="matrix(-10.872 117.1966 -10.81555 -1.00333 123.5 39)"/><ellipse fill="#fff" rx="1" ry="1" transform="matrix(-54.62353 .4767 -.13435 -15.39482 203.8 94.1)"/><ellipse fill="#306f71" cx="198" cy="44" rx="37" ry="37"/><ellipse fill="#d0eee1" cx="96" cy="62" rx="12" ry="97"/><ellipse fill="#ff3200" cx="215" cy="140" rx="35" ry="35"/><ellipse fill="#00376f" cx="29" cy="30" rx="61" ry="61"/><path fill="#fff" d="M44 141h21v26H44z"/><ellipse fill="#0077b3" cx="10" cy="105" rx="44" ry="53"/><path fill="#0059ab" d="M157 146h22v23h-22z"/><ellipse fill="#493e00" cx="194" cy="71" rx="52" ry="8"/><ellipse fill="#71dcff" rx="1" ry="1" transform="rotate(-95.7 123.6 -70.3) scale(14.13738 35.42828)"/><ellipse fill="#e10f00" rx="1" ry="1" transform="matrix(18.29875 -12.6021 22.03364 31.99374 132 124.7)"/><path d="M132 0h23v104h-23z"/><ellipse fill="#fff" cx="178" cy="2" rx="21" ry="17"/><path fill="#fff" d="M246-7l-1 118 26-90z"/><ellipse fill="#001002" rx="1" ry="1" transform="matrix(-12.31733 2.7436 -6.19143 -27.79633 64.1 119.9)"/><ellipse fill="#ec2900" cx="197" cy="125" rx="95" ry="19"/><path fill="#fff" d="M155 78h101v29H155z"/></g></svg>