<svg xmlns="http://www.w3.org/2000/svg" viewBox="0 0 200 133"><filter id="b"><feGaussianBlur stdDeviation="12" /></filter><path fill="#8d2f8e" d="M0 0h200v133H0z"/><g filter="url(#b)" transform="translate(.5 .5)" fill-opacity=".5"><ellipse fill="#fb152c" cx="94" cy="4" rx="70" ry="24"/><ellipse fill="#aad0c0" cx="111" cy="59" rx="18" ry="18"/><ellipse fill="#c12cd9" cy="72" rx="61" ry="61"/><ellipse fill="#000538" rx="1" ry="1" transform="matrix(-13.29027 3.65678 -8.07078 -29.33263 143.8 67.5)"/><path fill="#002" d="M194.1 94.4l-16.2-8 18-36.8 16.2 8z"/><ellipse fill="#2e1137" rx="1" ry="1" transform="matrix(-28.32997 -8.33796 3.88849 -13.21195 80.2 43)"/><ellipse cx="186" cy="127" rx="17" ry="9"/><path fill="#a2d3fb" d="M165 53h18v27h-18z"/><ellipse fill="#180e3d" rx="1" ry="1" transform="rotate(72.7 -10.3 91.5) scale(12.17723 19.50474)"/><path fill="#b2f0e6" d="M36 52h17v27H36z"/><ellipse fill="#bbf4eb" cx="103" cy="81" rx="11" ry="11"/><ellipse fill="#2c003c" cx="91" cy="127" rx="30" ry="10"/><ellipse fill="#be71ed" rx="1" ry="1" transform="matrix(-.31101 8.27045 -49.32382 -1.85483 139.5 112.2)"/><ellipse fill="#c200c6" rx="1" ry="1" transform="matrix(-3.39983 -22.15173 35.39617 -5.43257 31.9 132)"/><ellipse fill="#7f8af4" cx="162" cy="23" rx="14" ry="14"/><ellipse fill="#e300a5" rx="1" ry="1" transform="matrix(22.95477 -18.37929 11.5294 14.39961 13.5 18.7)"/><path fill="#5fcce8" d="M20 30h14v25H20z"/><path fill="#dd00de" d="M198 24l-16 48-6-57z"/><path fill="#500093" d="M0 67h34v22H0z"/><path fill="#f500c5" d="M122 116h48v12h-48z"/><path fill="#5a0051" d="M39 13h31v26H39z"/><ellipse fill="#e964d2" cx="43" cy="107" rx="41" ry="6"/></g></svg>