<svg xmlns="http://www.w3.org/2000/svg" viewBox="0 0 200 133"><filter id="b"><feGaussianBlur stdDeviation="12" /></filter><path fill="#6c5a76" d="M0 0h200v133H0z"/><g filter="url(#b)" transform="translate(.5 .5)" fill-opacity=".5"><ellipse fill="#ffffe1" cx="149" cy="116" rx="22" ry="23"/><ellipse rx="1" ry="1" transform="matrix(7.31059 -14.9843 65.31936 31.8682 42.6 0)"/><path fill="#fff" d="M53 26h30v23H53z"/><ellipse fill="#04003f" rx="1" ry="1" transform="matrix(2.637 18.7633 -86.15759 12.10866 165 46)"/><ellipse fill="#4760ff" cx="4" cy="31" rx="27" ry="40"/><ellipse fill="#feffea" cx="90" cy="90" rx="12" ry="23"/><ellipse cx="39" cy="28" rx="12" ry="29"/><path fill="#d7e0b8" d="M46.8 112l-59.1 10.4-6.5-36.4 59.1-10.4z"/><path d="M104.5 120.7l-5.8-19.2 26.8-8.2 5.8 19.2z"/><ellipse fill="#ede2d3" cx="60" cy="125" rx="17" ry="18"/><ellipse fill="#ffffe0" cx="110" cy="123" rx="23" ry="6"/><path d="M45 86h28v21H45z"/><path fill="#dce0c5" d="M123 73h23v28h-23z"/><ellipse fill="#9a0500" rx="1" ry="1" transform="matrix(5.53733 11.45451 -23.2258 11.2278 15.5 129.4)"/><path fill="#0e0000" d="M214 101l-32.5 5.7L178 87l32.5-5.7z"/><path fill="#280526" d="M114 38h86v29h-86z"/><ellipse fill="#863cb5" rx="1" ry="1" transform="rotate(108 66.7 63.8) scale(20.91815 29.05237)"/><ellipse fill="#542fae" rx="1" ry="1" transform="matrix(12.8092 -35.44029 9.06594 3.2767 105.1 44.7)"/><ellipse cx="22" cy="96" rx="7" ry="7"/><path fill="#fff" d="M52 27h27v18H52z"/><ellipse fill="#a06b51" cx="177" cy="124" rx="40" ry="10"/><path fill="#bcc3b5" d="M61.7 66l59 12-26.3 35.5 3.4 24.7z"/></g></svg>