<svg xmlns="http://www.w3.org/2000/svg" viewBox="0 0 200 133"><filter id="b"><feGaussianBlur stdDeviation="12" /></filter><path fill="#5c4165" d="M0 0h200v133H0z"/><g filter="url(#b)" transform="translate(.5 .5)" fill-opacity=".5"><ellipse fill="#e3e5e3" cx="75" cy="106" rx="19" ry="62"/><path d="M136-5l79 4-23 149z"/><path fill="#ffd2ff" d="M24 118h140v15H24z"/><ellipse fill="#8411f5" cx="95" cy="17" rx="55" ry="20"/><ellipse fill="#000013" rx="1" ry="1" transform="matrix(3.04884 -18.53703 39.66443 6.52372 14 24.5)"/><ellipse fill="#cc986f" cx="146" cy="66" rx="30" ry="22"/><ellipse fill="#b3baab" cx="47" cy="62" rx="64" ry="16"/><ellipse fill="#190f0b" cx="182" cy="98" rx="86" ry="20"/><ellipse fill="#2b210b" cx="28" cy="104" rx="64" ry="17"/><path fill="#ffdede" d="M141.2-16l-23.3 42 4.5 56.4 11-63.4z"/><ellipse rx="1" ry="1" transform="matrix(-20.0338 5.94714 -17.39608 -58.60122 190.7 46.6)"/><path fill="#000061" d="M61 27h49v23H61z"/><path d="M14 12h8v78h-8z"/><ellipse cx="35" cy="62" rx="4" ry="24"/><path fill="#0e0001" d="M89 65h18v27H89z"/><path fill="#b8fcff" d="M64 51h34v23H64z"/><path fill="#04005a" d="M80-1l14 45 17-51z"/><path fill="#000025" d="M68 33L53 77l-3-29z"/><path fill="#e8b7ff" d="M107 115h48v18h-48z"/><path fill="#fff3cd" d="M52 76L38 88l5-49z"/><path fill="#ffd2c8" d="M1.8 82.4l4.4-41.8 10 1-4.4 41.8z"/><path fill="#ec5fff" d="M96.6 16.1L63 22.8l-4 19.4-5.8-32.4z"/></g></svg>