<svg xmlns="http://www.w3.org/2000/svg" viewBox="0 0 200 133"><filter id="b"><feGaussianBlur stdDeviation="12" /></filter><path fill="#754651" d="M0 0h200v133H0z"/><g filter="url(#b)" transform="translate(.5 .5)" fill-opacity=".5"><ellipse fill="#ca9699" cx="92" cy="46" rx="36" ry="36"/><ellipse cx="175" cy="11" rx="43" ry="15"/><ellipse fill="#d9a1a1" cx="168" cy="105" rx="29" ry="29"/><ellipse fill="#f4000d" cx="17" cy="54" rx="27" ry="27"/><ellipse fill="#160620" rx="1" ry="1" transform="rotate(74.8 -60 69.2) scale(24.73877 62.9807)"/><path fill="#ffe1a0" d="M31 50h53v23H31z"/><ellipse rx="1" ry="1" transform="matrix(-13.45852 -22.24017 9.26396 -5.60604 127 69)"/><ellipse fill="#250000" rx="1" ry="1" transform="matrix(8.6912 -12.15855 28.95718 20.69925 40.7 23)"/><ellipse fill="#e4d0dd" cx="100" cy="14" rx="14" ry="22"/><ellipse fill="#a284b6" rx="1" ry="1" transform="rotate(-115.6 92 24.5) scale(51.27825 15.78819)"/><ellipse fill="#410000" rx="1" ry="1" transform="rotate(51.2 -21.2 220) scale(13.27095 10.56052)"/><path fill="#ffefd0" d="M67 51L31 63l-7 24z"/><path fill="#07001a" d="M141 91L82 34l29 6z"/><ellipse fill="#ebdeef" rx="1" ry="1" transform="matrix(5.16603 -.51564 2.00647 20.1022 149.2 91.8)"/><path d="M60 116l25.8-8 6.2 20-25.8 8z"/><path fill="#0f0000" d="M212 38l-33 39 31 35z"/><ellipse fill="#fec5cd" cx="175" cy="130" rx="17" ry="17"/><path fill="#ffeefa" d="M160 57l11.3 24.5-7.2 3.4-11.4-24.4z"/><ellipse fill="#b10010" rx="1" ry="1" transform="matrix(-11.87094 -18.1407 24.11234 -15.77867 15.6 49.6)"/><path d="M66 8l25-20-10 29z"/><ellipse fill="#8a69a6" cx="23" cy="99" rx="7" ry="28"/><ellipse fill="#200" cx="7" cy="112" rx="9" ry="39"/></g></svg>