<svg xmlns="http://www.w3.org/2000/svg" viewBox="0 0 200 120"><filter id="b"><feGaussianBlur stdDeviation="12" /></filter><path fill="#d4d5cf" d="M0 0h200v120H0z"/><g filter="url(#b)" transform="translate(.5 .5)" fill-opacity=".5"><ellipse fill="#1d3d00" cx="131" cy="10" rx="34" ry="15"/><ellipse fill="#191826" rx="1" ry="1" transform="matrix(-24.65329 -2.50671 .96265 -9.46756 24.3 87.5)"/><ellipse fill="#7c6836" rx="1" ry="1" transform="rotate(172.7 95.3 15.5) scale(22.88167 54.45701)"/><ellipse fill="#fff" rx="1" ry="1" transform="matrix(-25.73923 32.94294 -56.6468 -44.25972 157 97)"/><ellipse fill="#fff8ff" cx="58" cy="43" rx="49" ry="49"/><path fill="#596e00" d="M154-1l-50 4 23 40z"/><ellipse fill="#fff" rx="1" ry="1" transform="matrix(-11.88345 -7.9754 13.56242 -20.20817 161.8 41.2)"/><path fill="#747b3c" d="M90 109h39v11H90z"/><path fill="#0f1825" d="M136 55l-16 2-5-10z"/><ellipse fill="#363640" cx="22" cy="86" rx="11" ry="16"/><path fill="#316000" d="M175 14.2L162.3-6.2l12.7-8 12.7 20.4z"/><path fill="#180600" d="M142 12l24 11-5-14z"/><ellipse fill="#fcfaff" rx="1" ry="1" transform="matrix(-48.61542 -41.78938 20.3655 -23.69208 7.6 20.3)"/><path fill="#858d97" d="M50 128L30 80l20-8z"/><path fill="#13142b" d="M128 5l-5.7 34.1 16 6.8-14.8-37.5z"/><ellipse fill="#fff" rx="1" ry="1" transform="rotate(64.4 18.3 177.6) scale(72.08526 20.85377)"/><ellipse fill="#7e9c09" rx="1" ry="1" transform="matrix(21.40623 -11.56848 5.24413 9.7037 118.1 11)"/><ellipse fill="#d3b49b" cx="72" cy="40" rx="12" ry="20"/><path fill="#45425b" d="M179.9 49l-5.4 8.6L215 87.4l-39.3-50.8z"/><ellipse fill="#ffffdc" cx="161" cy="5" rx="7" ry="7"/><path fill="#919b82" d="M79.1 89.4l3.6-2.6 47.8 48.2-70.8-36.8z"/><path fill="#fdffff" d="M116 62.4l-8.1-2.7-8.8-25 25.7-14.1z"/></g></svg>