<svg xmlns="http://www.w3.org/2000/svg" viewBox="0 0 641 195"><filter id="b"><feGaussianBlur stdDeviation="12" /></filter><path fill="#697583" d="M0 0h641v192H0z"/><g filter="url(#b)" transform="translate(1.3 1.3) scale(2.5039)" fill-opacity=".5"><ellipse fill="#fff" rx="1" ry="1" transform="matrix(-52.20531 -110.94193 39.86936 -18.7611 77.7 54)"/><ellipse fill="#000019" rx="1" ry="1" transform="rotate(13.6 -156.2 880.2) scale(57.64104 128.62188)"/><ellipse rx="1" ry="1" transform="matrix(-15.55181 3.05114 -17.15892 -87.45976 2.1 42.4)"/><ellipse fill="#fffac4" cx="66" cy="66" rx="39" ry="39"/><ellipse fill="#00287d" cx="109" cy="39" rx="8" ry="26"/><ellipse fill="#c4b3a0" rx="1" ry="1" transform="rotate(-73.1 130.5 -107.5) scale(24.26699 10.45329)"/><path fill="#64b4ff" d="M86.8-1l59.9-16 8.5 32-59.9 16z"/><path d="M38 48.7L21.7 71.4 16 67.3l16.5-22.7z"/><path fill="#9bd4ff" d="M13 12h30v35H13z"/><path fill="#4592fd" d="M243 31h13v35h-13z"/><ellipse fill="#010043" cx="169" cy="24" rx="14" ry="66"/><ellipse fill="#00000a" rx="1" ry="1" transform="matrix(26.86026 -4.73619 2.37824 13.48767 5.5 60.2)"/><ellipse fill="#004224" rx="1" ry="1" transform="matrix(-8.89916 25.13045 -38.50483 -13.63528 222.4 8.2)"/><path fill="#d0863c" d="M184 13h18v20h-18z"/><path fill="#090404" d="M220 92l51-21-83-17z"/><path fill="#fffff9" d="M52.7 46.5L22.6 69.8 24 80.7l35-15z"/><path fill="#130200" d="M115.3 72.3L115 49l-20.3-2 3-.7z"/><path fill="#00000d" d="M13-11L12 92l-28-75z"/><ellipse fill="#e2dcbb" rx="1" ry="1" transform="matrix(-3.1121 -56.98114 22.56992 -1.23269 71 30.7)"/><path fill="#557deb" d="M141 0h15v46h-15z"/><path fill="#e5be7d" d="M114 66h38v9h-38z"/><path fill="#1d2653" d="M147.7 92l-6.2-88.5-23 34.4L135.2 25z"/></g></svg>