<svg xmlns="http://www.w3.org/2000/svg" viewBox="0 0 700 467"><filter id="b"><feGaussianBlur stdDeviation="12" /></filter><path fill="#a5a7ac" d="M0 0h700v464H0z"/><g filter="url(#b)" transform="translate(1.4 1.4) scale(2.73438)" fill-opacity=".5"><ellipse fill="#000723" rx="1" ry="1" transform="matrix(-13.78242 -74.85498 32.7953 -6.03832 133.8 127.7)"/><ellipse rx="1" ry="1" transform="matrix(-20.89781 1.52648 -4.88295 -66.84837 251 111.9)"/><ellipse fill="#fff" rx="1" ry="1" transform="matrix(2.50234 -43.78526 57.502 3.28626 46 17.5)"/><ellipse fill="#feffff" rx="1" ry="1" transform="rotate(39.6 -165.1 127.4) scale(41.95737 66.52388)"/><ellipse fill="#fff" cx="209" cy="28" rx="72" ry="18"/><ellipse fill="#81381f" cx="127" cy="25" rx="13" ry="38"/><ellipse fill="#fff" cx="23" cy="17" rx="40" ry="40"/><ellipse rx="1" ry="1" transform="rotate(-150.4 87.9 63.7) scale(27.04452 20.57131)"/><ellipse fill="#5d81ae" rx="1" ry="1" transform="matrix(38.53285 .19516 -.1465 28.9266 139.4 77.7)"/><path fill="#7e0b00" d="M154.7 106.3L176 95.4l7.2 14.3-21.4 10.9z"/><ellipse fill="#e3e0dd" rx="1" ry="1" transform="matrix(-22.78556 -91.2284 16.89477 -4.2197 205 112.9)"/><path fill="#fff" d="M32.3 136.4L17.6 139-.4 37.6 14.5 35z"/><path fill="#32323a" d="M219.6 54.2L236 89.5l-13.6 6.3L206 60.5z"/><path fill="#698295" d="M22 54h29v46H22z"/><path fill="#30372f" d="M234 11h12v150h-12z"/><path fill="#fdffff" d="M144.3 49.3l-.6-35 88-1.6.6 35z"/><path fill="#424947" d="M97 12l146-3-50-25z"/><path fill="#fff" d="M270.9-3.9l-2.8 40-31-2.2 2.8-40z"/><path fill="#efffff" d="M16.4 94.4l-.7-20 24-.8.6 20z"/><path fill="#350000" d="M0 74h6v36H0z"/><ellipse fill="#fff" rx="1" ry="1" transform="matrix(18.55643 -19.89933 16.18938 15.09684 17.7 123.4)"/><path fill="#1a1109" d="M142.2 139.5l-27.8 8-6.6-23 27.8-8z"/></g></svg>