<svg xmlns="http://www.w3.org/2000/svg" viewBox="0 0 700 467"><filter id="b"><feGaussianBlur stdDeviation="12" /></filter><path fill="#3b4c7f" d="M0 0h700v464H0z"/><g filter="url(#b)" transform="translate(1.4 1.4) scale(2.73438)" fill-opacity=".5"><ellipse fill="#ff190c" rx="1" ry="1" transform="matrix(-26.59912 6.35166 -8.3308 -34.88724 109.1 128)"/><ellipse fill="#4289ff" cx="146" cy="9" rx="76" ry="76"/><ellipse fill="#0a0d00" cx="214" cy="144" rx="93" ry="29"/><ellipse fill="#000c00" cx="42" cy="151" rx="51" ry="51"/><ellipse fill="#96b3e7" rx="1" ry="1" transform="rotate(-116.2 50.1 19) scale(26.28195 30.66472)"/><ellipse fill="#115ade" rx="1" ry="1" transform="rotate(67.2 94.6 191) scale(94.06689 43.91158)"/><ellipse fill="#ffb558" rx="1" ry="1" transform="rotate(97.6 58.4 115.7) scale(31.48732 8.30815)"/><ellipse fill="#ccf4ff" cx="139" rx="24" ry="26"/><ellipse fill="#1452d8" rx="1" ry="1" transform="matrix(23.18163 35.97085 -33.22614 21.41279 0 76)"/><ellipse fill="#9ba0bf" cx="199" cy="61" rx="186" ry="9"/><ellipse fill="#0041b9" cx="38" cy="24" rx="90" ry="27"/><ellipse fill="#ff2c44" cx="106" cy="114" rx="25" ry="19"/><path fill="#333b28" d="M142 78h70v92h-70z"/><path fill="#fff" d="M34 86h25v13H34z"/><ellipse fill="#c9ab97" cx="177" cy="86" rx="6" ry="41"/><ellipse cx="117" cy="168" rx="43" ry="7"/><path fill="#dfffff" d="M109 161.5v-17h10v17z"/><path fill="#ff0119" d="M120 136l-31 4-5 36z"/><path fill="#dbab52" d="M248 185l-5-53 13 12z"/><ellipse fill="#000300" cx="224" cy="158" rx="20" ry="41"/><path fill="#cd9f62" d="M91.6 80l18 25 5.9-27.2-14.9-11.1z"/><ellipse fill="#0346ac" rx="1" ry="1" transform="matrix(-31.40702 25.87755 -11.53176 -13.99584 171 29)"/></g></svg>