<svg xmlns="http://www.w3.org/2000/svg" viewBox="0 0 200 133"><filter id="b"><feGaussianBlur stdDeviation="12" /></filter><path fill="#49474e" d="M0 0h200v133H0z"/><g filter="url(#b)" transform="translate(.5 .5)" fill-opacity=".5"><ellipse fill="#ebe7e9" rx="1" ry="1" transform="rotate(127 52 37) scale(62.61597 15.77177)"/><ellipse fill="#fff" rx="1" ry="1" transform="matrix(2.366 -15.10893 39.59421 6.20029 29.8 0)"/><ellipse cx="160" cy="111" rx="42" ry="79"/><ellipse fill="#abb1d5" rx="1" ry="1" transform="matrix(17.22243 8.69967 -12.55027 24.8453 95.2 127.4)"/><ellipse fill="#fff" cx="166" rx="9" ry="19"/><path fill="#f9fffd" d="M-2.5 31.3L3.6-3.2l10.9 2-6.1 34.4z"/><ellipse fill="#f0fafa" cx="119" cy="4" rx="20" ry="23"/><ellipse cx="56" cy="50" rx="12" ry="35"/><path fill="#f0dcdb" d="M137 67h22v9h-22z"/><ellipse fill="#83716f" cx="91" cy="43" rx="27" ry="27"/><ellipse fill="#000404" rx="1" ry="1" transform="matrix(19.54627 -1.22975 3.06363 48.69494 7 128.8)"/><ellipse fill="#222732" cx="121" cy="52" rx="25" ry="25"/><ellipse fill="#060100" rx="1" ry="1" transform="matrix(-24.06348 1.34536 -.861 -15.40022 199.1 10.6)"/><ellipse fill="#010000" cx="175" cy="114" rx="45" ry="19"/><ellipse fill="#000c2b" cx="88" cy="2" rx="13" ry="26"/><path fill="#d1afa1" d="M101 81L66 29l20-8z"/><ellipse fill="#fff" cx="33" rx="26" ry="7"/><path fill="#100c0c" d="M14 10h19v32H14z"/><ellipse fill="#211e1c" rx="1" ry="1" transform="matrix(-20.21235 -23.74943 8.02818 -6.83252 78.8 78.8)"/><path fill="#67707e" d="M50.8 99.2L19 102.5l-5.8-55.7L45 43.5z"/><ellipse fill="#606780" rx="1" ry="1" transform="matrix(25.2701 7.5255 -6.82084 22.90388 66.4 120)"/><ellipse fill="#152a64" rx="1" ry="1" transform="rotate(-158.2 78.9 .6) scale(25.30765 15.07198)"/></g></svg>