<svg xmlns="http://www.w3.org/2000/svg" viewBox="0 0 700 1050"><filter id="b"><feGaussianBlur stdDeviation="12" /></filter><path fill="#afb78e" d="M0 0h697v1050H0z"/><g filter="url(#b)" transform="translate(2 2) scale(4.10156)" fill-opacity=".5"><ellipse fill="#141400" rx="1" ry="1" transform="matrix(20.5589 -63.80551 25.23533 8.13113 72 142.2)"/><ellipse fill="#fff" rx="1" ry="1" transform="matrix(2.57374 -23.69164 51.8164 5.62906 32.6 239.2)"/><ellipse fill="#ffffd4" rx="1" ry="1" transform="rotate(-69.6 25.5 17.7) scale(81.64776 69.62078)"/><ellipse rx="1" ry="1" transform="matrix(.52327 -22.56709 21.48319 .49813 158.7 103.6)"/><ellipse fill="#534e31" rx="1" ry="1" transform="rotate(106.9 -20.8 162.2) scale(25.45703 86.90947)"/><ellipse fill="#fff" rx="1" ry="1" transform="matrix(-18.34015 -6.5729 22.27636 -62.15708 149.5 24.6)"/><ellipse fill="#f7f4ff" rx="1" ry="1" transform="matrix(-3.36454 -24.20438 51.20213 -7.11738 126.7 153.8)"/><ellipse fill="#75a713" rx="1" ry="1" transform="matrix(8.8019 42.93815 -17.23485 3.53298 34.7 123.6)"/><ellipse fill="#fff" rx="1" ry="1" transform="matrix(-57.4788 9.61865 -3.9186 -23.41661 30.4 242.7)"/><path fill="#fff" d="M1-16l37 84-54 35z"/><path fill="#e9ffbb" d="M0 163h46v38H0z"/><path fill="#fff" d="M100.3 78.5l-5 17.3-7.6-2.3 5-17.3z"/><ellipse fill="#393b18" rx="1" ry="1" transform="matrix(19.69191 17.84769 -26.58638 29.33358 78.7 120.8)"/><ellipse fill="#fff" cx="136" cy="161" rx="10" ry="50"/><ellipse fill="#fbffc2" cy="138" rx="29" ry="25"/><path fill="#fff" d="M71 180h16v15H71z"/><ellipse fill="#ddf677" cx="56" cy="19" rx="46" ry="46"/><ellipse fill="#6d6658" cx="106" cy="238" rx="19" ry="80"/><path fill="#619c00" d="M56 228l37-44 7 42z"/><path fill="#6ca900" d="M10 196h16v26H10z"/><ellipse fill="#3b5e00" cx="164" cy="47" rx="10" ry="10"/><ellipse fill="#fff" rx="1" ry="1" transform="rotate(82.7 -2 94) scale(11.03881 6.18931)"/></g></svg>