<svg xmlns="http://www.w3.org/2000/svg" viewBox="0 0 313 195"><filter id="b"><feGaussianBlur stdDeviation="12" /></filter><path fill="#3c4368" d="M0 0h313v194H0z"/><g filter="url(#b)" transform="translate(.6 .6) scale(1.22266)" fill-opacity=".5"><ellipse fill="#95ff8d" cx="155" cy="24" rx="54" ry="39"/><ellipse fill="#000016" cx="8" cy="79" rx="81" ry="81"/><ellipse fill="#f5b8ff" cx="115" cy="133" rx="55" ry="14"/><ellipse fill="#3f45eb" cx="231" cy="35" rx="31" ry="54"/><ellipse fill="#edbddb" cx="130" cy="98" rx="18" ry="18"/><path fill="#fff" d="M210 128h22v15h-22z"/><ellipse rx="1" ry="1" transform="matrix(107.83263 2.25877 -.24344 11.62178 140 152.3)"/><path fill="#370228" d="M104 127l65 2-37-31z"/><path fill="#e4b0fa" d="M69.8 88.4l-13.9 2-3.7-26.8 13.9-2z"/><path fill="#fff" d="M78 114h22v9H78z"/><ellipse fill="#089858" cx="96" cy="31" rx="23" ry="33"/><ellipse fill="#bde785" cx="163" cy="18" rx="26" ry="26"/><ellipse fill="#120266" rx="1" ry="1" transform="rotate(174.1 90.4 55.2) scale(28.90289 47.42942)"/><ellipse fill="#000020" rx="1" ry="1" transform="matrix(43.48546 156.80349 -28.6768 7.95278 14.8 83.5)"/><path fill="#02bf86" d="M150 33l20 32 61-20z"/><ellipse fill="#0b0050" cx="255" cy="144" rx="25" ry="101"/><path fill="#e0bbff" d="M62 132h107v14H62z"/><path fill="#b498b7" d="M142.1 99l-16.7 3.2L116 53l16.7-3.3z"/><ellipse fill="#339b99" rx="1" ry="1" transform="matrix(16.03027 -4.36447 12.4238 45.63134 208 11.5)"/><ellipse fill="#bb92bf" cx="223" cy="68" rx="5" ry="77"/><ellipse fill="#170045" rx="1" ry="1" transform="matrix(1.52801 -5.04854 16.61872 5.0299 79.1 125.9)"/><ellipse fill="#090054" cx="36" cy="15" rx="40" ry="40"/></g></svg>