<svg xmlns="http://www.w3.org/2000/svg" viewBox="0 0 200 133"><filter id="b"><feGaussianBlur stdDeviation="12" /></filter><path fill="#5c4165" d="M0 0h200v133H0z"/><g filter="url(#b)" transform="translate(.5 .5)" fill-opacity=".5"><ellipse fill="#ffdeff" cx="93" cy="132" rx="77" ry="18"/><ellipse cx="193" cy="19" rx="38" ry="128"/><ellipse fill="#eafff0" cx="73" cy="76" rx="18" ry="29"/><ellipse fill="#7e14e8" rx="1" ry="1" transform="rotate(-166.2 45.3 -1.2) scale(59.00146 28.81796)"/><ellipse fill="#00001a" rx="1" ry="1" transform="matrix(-27.24355 -8.48542 8.0401 -25.8138 20.2 18)"/><ellipse fill="#db9a75" rx="1" ry="1" transform="matrix(3.71915 -21.64634 19.33891 3.3227 155.8 65)"/><ellipse fill="#000100" cx="22" cy="104" rx="40" ry="13"/><ellipse fill="#bdc6b5" rx="1" ry="1" transform="rotate(-100.1 51 12.6) scale(11.77845 65.36378)"/><path fill="#ffffb8" d="M120.8 50.8l10 .5-1.6 30-10-.6z"/><path fill="#efd6de" d="M124 56l-10-25 27-43z"/><ellipse rx="1" ry="1" transform="rotate(177.1 96.2 24.6) scale(22.53756 43.89279)"/><path fill="#000052" d="M88 49l-4-63 34 60z"/><path fill="#181009" d="M97 86h103v28H97z"/><path fill="#7c5f50" d="M42 93l67 34-29-49z"/><ellipse fill="#2a1d19" rx="1" ry="1" transform="matrix(5.2917 -.0178 .16355 48.62283 18.2 94.7)"/><path fill="#ffd9d7" d="M17 46L7 37 6 83z"/><ellipse fill="#f7beff" cx="21" cy="122" rx="77" ry="4"/><path d="M32 39h7v65h-7z"/><path fill="#b82fff" d="M86 17.5L59.6 37.3 44 16.5 70.4-3.3z"/><path fill="#000061" d="M51 40l1 37 35-54z"/><path fill="#fffde0" d="M24 47l4 35 7-41z"/><path fill="#ffecc6" d="M51.5 53.3L40.9 96l-4.7-7.6 7.7-51z"/></g></svg>