<svg xmlns="http://www.w3.org/2000/svg" viewBox="0 0 700 467"><filter id="b"><feGaussianBlur stdDeviation="12" /></filter><path fill="#173652" d="M0 0h700v464H0z"/><g filter="url(#b)" transform="translate(1.4 1.4) scale(2.73438)" fill-opacity=".5"><ellipse fill="#8affff" rx="1" ry="1" transform="matrix(17.76348 45.56096 -69.39499 27.05598 126.4 85)"/><ellipse cx="230" cy="65" rx="32" ry="255"/><ellipse cx="10" cy="117" rx="59" ry="59"/><ellipse fill="#5db6ff" rx="1" ry="1" transform="matrix(48.92406 23.00994 -19.21396 40.853 110.9 88)"/><ellipse rx="1" ry="1" transform="rotate(-99.3 30 -13) scale(39.64495 248.2656)"/><ellipse fill="#000007" rx="1" ry="1" transform="matrix(114.55219 -9.82059 2.3648 27.58422 98.1 164.7)"/><ellipse fill="#d1ecff" rx="1" ry="1" transform="rotate(136.3 32.8 67.6) scale(34.35528 15.26631)"/><path fill="#6fa8cf" d="M194.9 98.5l4-66.4-6.3-2.4-69.7 8.9z"/><ellipse rx="1" ry="1" transform="rotate(-176.1 122.3 15.5) scale(42.36846 99.86047)"/><path fill="#000a7a" d="M46 37h23v96H46z"/><ellipse fill="#00499d" rx="1" ry="1" transform="matrix(-10.67843 -25.57416 13.70554 -5.72272 172.6 113.4)"/><path fill="#9ec2ff" d="M68 110h41v27H68z"/><path fill="#0094df" d="M138.5 36.7l5.3 27.5-36.3 7-5.3-27.4z"/><ellipse fill="#00000e" rx="1" ry="1" transform="rotate(103.5 -42.4 53.8) scale(208.0094 37.62181)"/><path fill="#88c3f9" d="M70 46h27v39H70z"/><ellipse fill="#1f87e7" rx="1" ry="1" transform="matrix(2.45644 -14.52336 28.49856 4.82017 138.7 119)"/><ellipse fill="#000001" rx="1" ry="1" transform="matrix(-64.7466 -17.20152 5.10728 -19.22382 188.4 165.8)"/><path fill="#001b83" d="M58 141l49 13 32-24z"/><ellipse fill="#000001" rx="1" ry="1" transform="matrix(-38.45473 -11.75679 6.20874 -20.30788 172.5 5.8)"/><path fill="#002e61" d="M165 29h4v70h-4z"/><ellipse fill="#001a69" cx="112" cy="32" rx="34" ry="9"/><path fill="#12a3e3" d="M146 68l-39 36 44 7z"/></g></svg>