<svg xmlns="http://www.w3.org/2000/svg" viewBox="0 0 700 467"><filter id="b"><feGaussianBlur stdDeviation="12" /></filter><path fill="#6e6c7a" d="M0 0h700v464H0z"/><g filter="url(#b)" transform="translate(1.4 1.4) scale(2.73438)" fill-opacity=".5"><ellipse fill="#f4e1e4" cx="212" cy="54" rx="132" ry="35"/><ellipse rx="1" ry="1" transform="rotate(3.4 -2697.1 3697.6) scale(96.41606 54.90124)"/><ellipse rx="1" ry="1" transform="matrix(-30.6621 64.41855 -23.0355 -10.96449 61.2 143.7)"/><ellipse fill="#ebd6e9" rx="1" ry="1" transform="matrix(-18.37595 34.25494 -22.52514 -12.08354 29 57.4)"/><ellipse fill="#fff" cx="100" cy="161" rx="21" ry="21"/><ellipse fill="#000e55" rx="1" ry="1" transform="rotate(139.7 -15.6 80.8) scale(29.36818 41.75464)"/><ellipse fill="#421200" rx="1" ry="1" transform="matrix(15.99857 1.54968 -8.73435 90.17157 189.6 123.1)"/><ellipse fill="#003894" rx="1" ry="1" transform="rotate(-75 39.8 -45) scale(29.93768 65.16582)"/><ellipse fill="#cfc9e4" rx="1" ry="1" transform="matrix(35.44708 -1.0965 2.43667 78.77185 244.4 36.4)"/><path fill="#dde1f8" d="M87 185l24-140 8 75z"/><ellipse fill="#833d00" cx="70" cy="91" rx="33" ry="26"/><ellipse fill="#c3c9ea" cx="167" cy="87" rx="11" ry="53"/><path fill="#003b8c" d="M38-2.3l139.8 28.5 34.2-8.5L173.2-16z"/><ellipse fill="#6c4b38" rx="1" ry="1" transform="matrix(-22.69308 .97997 -3.51294 -81.34885 139.2 131.3)"/><ellipse fill="#e0defc" cx="154" cy="36" rx="23" ry="23"/><ellipse fill="#170000" cx="73" cy="132" rx="21" ry="26"/><ellipse fill="#003b8d" rx="1" ry="1" transform="matrix(17.58717 -21.14293 15.16071 12.61103 7 15.3)"/><ellipse fill="#000641" cx="248" cy="163" rx="41" ry="41"/><ellipse fill="#00173e" cx="9" cy="160" rx="52" ry="27"/><ellipse fill="#c77c23" rx="1" ry="1" transform="matrix(-6.40514 6.32041 -22.71323 -23.0177 207.3 84)"/><path fill="#eed5dc" d="M76.8 25.1l31.5-17.5 2.9 5.3-31.5 17.5z"/><ellipse fill="#bd9ca7" cx="10" cy="91" rx="27" ry="23"/></g></svg>