<svg xmlns="http://www.w3.org/2000/svg" viewBox="0 0 700 467"><filter id="b"><feGaussianBlur stdDeviation="12" /></filter><path fill="#3c3022" d="M0 0h700v464H0z"/><g filter="url(#b)" transform="translate(1.4 1.4) scale(2.73438)" fill-opacity=".5"><ellipse fill="#ffdcae" rx="1" ry="1" transform="matrix(18.39062 .90517 -2.8418 57.73787 67.8 59.7)"/><ellipse fill="#e6c1ab" rx="1" ry="1" transform="matrix(-8.38782 19.60557 -12.58499 -5.38422 129.5 96.4)"/><ellipse rx="1" ry="1" transform="matrix(81.6464 -12.78549 5.31068 33.91332 166.9 141.5)"/><path fill="#fffff6" d="M193.2 58.7l-.4-19 18-.4.4 19z"/><ellipse rx="1" ry="1" transform="matrix(35.37713 -4.23439 10.70572 89.44329 13 90.5)"/><ellipse fill="#9b6914" rx="1" ry="1" transform="matrix(-21.84212 -1.22116 3.11417 -55.70107 255 54)"/><path fill="#f1d8bf" d="M48 31h34v29H48z"/><ellipse fill="#010000" cx="106" cy="89" rx="16" ry="22"/><ellipse fill="#b87b27" rx="1" ry="1" transform="matrix(26.7004 -12.2244 3.3071 7.22332 226.5 47)"/><path fill="#ffffe6" d="M123 76l34 17-28 5z"/><path fill="#ecc3bb" d="M126 116l-6-13-33 24z"/><path fill="#0d0e0b" d="M131 98h107v72H131z"/><path fill="#470a00" d="M73.8 71.2l21-24.2 11.4 9.8-21 24.2z"/><path fill="#342f32" d="M81.6 111.6L54.8 94.2l7.6-11.8 26.8 17.4z"/><path fill="#ad735d" d="M121 130l7 28-23-27z"/><ellipse fill="#0e0200" cx="141" cy="66" rx="11" ry="20"/><path fill="#1b1e04" d="M52-16l27 27-93 2z"/><ellipse fill="#00060e" cx="222" cy="82" rx="17" ry="20"/><path fill="#fff" d="M74-2l-1 8L85-5z"/><path fill="#ffffc2" d="M51 14.1L86.8 13l.2 5-36 1z"/><ellipse fill="#957d6b" rx="1" ry="1" transform="rotate(118.4 6.3 74) scale(22.3668 7.97946)"/><ellipse fill="#060c0d" rx="1" ry="1" transform="matrix(7.91462 -10.16677 59.36542 46.21472 47.6 128.3)"/></g></svg>