<svg xmlns="http://www.w3.org/2000/svg" viewBox="0 0 700 467"><filter id="b"><feGaussianBlur stdDeviation="12" /></filter><path fill="#676f5c" d="M0 0h700v464H0z"/><g filter="url(#b)" transform="translate(1.4 1.4) scale(2.73438)" fill-opacity=".5"><ellipse fill="#fff" rx="1" ry="1" transform="rotate(122.9 80 130.1) scale(76.3102 41.56845)"/><path d="M256.7 47L2 56-.7-19 254-28z"/><ellipse fill="#e1e9ff" rx="1" ry="1" transform="matrix(-39.95656 22.14829 -32.78603 -59.14757 21 129.8)"/><ellipse fill="#f0f8d7" rx="1" ry="1" transform="matrix(36.47176 .73934 -.502 24.76393 145.4 64)"/><ellipse fill="#010800" rx="1" ry="1" transform="rotate(36.3 3.5 348.5) scale(21.71971 107.01366)"/><path fill="#f6f8ee" d="M134 185l128-43-175 7z"/><path fill="#051700" d="M89.4 93.8l-55.6 6.8-9.2-74.4 55.6-6.8z"/><path fill="#fff" d="M35 129l23-53 13 72z"/><ellipse fill="#2c6100" rx="1" ry="1" transform="rotate(-170.1 73.8 56.6) scale(28.37658 34.53239)"/><path fill="#e8f0ce" d="M90 58h31v48H90z"/><ellipse rx="1" ry="1" transform="rotate(-75.3 23.7 -4) scale(27.56041 38.02996)"/><path fill="#326200" d="M70 132l-4-40 130 51z"/><ellipse fill="#e2cbbf" cx="237" cy="130" rx="53" ry="53"/><ellipse fill="#000b00" cx="188" rx="124" ry="40"/><ellipse fill="#020511" cx="201" cy="95" rx="13" ry="13"/><path fill="#fff" d="M67.4 77.9L46.9 99.3 12 119.2l53.2-11.8z"/><ellipse fill="#ecf4dd" cx="156" cy="80" rx="16" ry="14"/><ellipse fill="#9a8362" rx="1" ry="1" transform="matrix(-15.49604 -7.8638 17.3179 -34.12586 75 163)"/><path d="M74 64l-37 41 17-89z"/><path fill="#edffff" d="M173.1 145.4l-19.9 32.8-73-42.2 35.9 36.6z"/><path fill="#def0ff" d="M34 127l-3-52L5 57z"/><path fill="#6e7851" d="M88 34l41 12-2 46z"/></g></svg>