<svg xmlns="http://www.w3.org/2000/svg" viewBox="0 0 312 195"><filter id="b"><feGaussianBlur stdDeviation="12" /></filter><path fill="#6f1a1e" d="M0 0h312v195H0z"/><g filter="url(#b)" transform="translate(.6 .6) scale(1.21875)" fill-opacity=".5"><ellipse fill="#ff0e1d" cx="148" cy="130" rx="60" ry="60"/><ellipse fill="#96deff" cx="111" cy="38" rx="17" ry="31"/><ellipse fill="#000100" cx="40" cy="26" rx="50" ry="50"/><ellipse cx="12" cy="113" rx="47" ry="28"/><ellipse fill="#f8001f" cx="168" cy="156" rx="169" ry="32"/><ellipse fill="#000300" rx="1" ry="1" transform="matrix(58.99785 1.31834 -.52355 23.42957 213 0)"/><ellipse fill="#081d26" cx="154" cy="44" rx="30" ry="30"/><ellipse fill="#7d7e4c" rx="1" ry="1" transform="matrix(-44.51014 -24.57092 7.91198 -14.33252 230.5 42.4)"/><ellipse fill="#0c1911" cx="233" cy="91" rx="27" ry="30"/><ellipse cx="5" cy="64" rx="11" ry="80"/><path d="M166 89h15v25h-15z"/><path fill="#ff7b0d" d="M37 72.8l-1 16-21-1.6 1-16z"/><ellipse fill="#445f92" rx="1" ry="1" transform="matrix(-12.5652 -9.08342 18.02558 -24.935 97.2 19)"/><ellipse fill="#bc523f" cx="137" cy="81" rx="79" ry="11"/><path d="M89 132l-18-30 35-46z"/><path fill="#ff18ff" d="M230 139h26v7h-26z"/><path fill="#d6dcdd" d="M106 13h14v43h-14z"/><ellipse fill="red" cx="67" cy="116" rx="10" ry="16"/><ellipse fill="#0d0000" rx="1" ry="1" transform="matrix(-23.32378 29.53845 -18.09593 -14.28868 31.7 116.7)"/><path fill="#ff0520" d="M-34.4 174.9l-1.6-18 158.4-13.8 1.6 18z"/><path fill="#000100" d="M127 118l-3-38 13 12z"/><path fill="#ff5845" d="M136 76h25v44h-25z"/></g></svg>