<svg xmlns="http://www.w3.org/2000/svg" viewBox="0 0 800 533"><filter id="b"><feGaussianBlur stdDeviation="12" /></filter><path fill="#414652" d="M0 0h800v531H0z"/><g filter="url(#b)" transform="translate(1.6 1.6) scale(3.125)" fill-opacity=".5"><ellipse fill="#abf5ff" cx="126" cy="57" rx="33" ry="31"/><ellipse fill="#ffc5a5" cx="224" cy="131" rx="31" ry="17"/><ellipse fill="#ffffe0" rx="1" ry="1" transform="matrix(-11.61427 -6.46442 9.2639 -16.64394 100.1 130.6)"/><ellipse fill="#002f72" cx="226" cy="48" rx="54" ry="54"/><path fill="#ffffd8" d="M45.6 145.9l4-37.8 18.8 2-4 37.8z"/><ellipse fill="#002967" cx="21" cy="45" rx="60" ry="60"/><ellipse fill="#6b0000" cx="12" cy="151" rx="35" ry="35"/><ellipse fill="#650100" cx="111" cy="95" rx="87" ry="10"/><path fill="#4c2206" d="M129.5 94.8l101.4 56.3-34.4 62L95.1 157z"/><path fill="#ff0005" d="M3 123h29v22H3z"/><ellipse fill="#0064a5" cx="20" cy="20" rx="33" ry="33"/><ellipse fill="#66bdff" cx="121" cy="69" rx="29" ry="18"/><ellipse fill="#0a6fae" cx="239" cy="21" rx="35" ry="28"/><ellipse fill="#00162b" cx="48" cy="81" rx="31" ry="32"/><ellipse fill="#000c05" rx="1" ry="1" transform="matrix(.6134 23.35574 -60.5431 1.59008 25.1 169)"/><ellipse fill="#001632" rx="1" ry="1" transform="matrix(11.28544 23.10358 -30.7591 15.02494 203.4 78.8)"/><path fill="#fcf9ff" d="M112 145l-15-23-12 24z"/><ellipse fill="#fff" cx="175" cy="112" rx="7" ry="6"/><path fill="#886242" d="M153.6 182.7l-26.3 9.6-23-63 26.4-9.6z"/><path fill="#fff" d="M47 128h18v17H47z"/><path fill="#ffffe9" d="M111 32h30v12h-30z"/><path fill="#66b1ff" d="M94 52h64v32H94z"/></g></svg>