<svg xmlns="http://www.w3.org/2000/svg" viewBox="0 0 700 467"><filter id="b"><feGaussianBlur stdDeviation="12" /></filter><path fill="#4e3229" d="M0 0h700v464H0z"/><g filter="url(#b)" transform="translate(1.4 1.4) scale(2.73438)" fill-opacity=".5"><ellipse fill="#fcd916" rx="1" ry="1" transform="matrix(-37.75527 -2.27795 1.76718 -29.28962 109 81)"/><ellipse fill="#ffc7ff" cx="105" cy="169" rx="137" ry="12"/><ellipse rx="1" ry="1" transform="matrix(-97.1558 13.13598 -3.91915 -28.98664 233.5 123.5)"/><ellipse fill="#ce873a" rx="1" ry="1" transform="rotate(150.7 83.3 63.6) scale(31.13498 27.8171)"/><ellipse cx="99" cy="32" rx="250" ry="23"/><ellipse fill="#ffe56a" cx="45" cy="65" rx="8" ry="27"/><ellipse cx="6" cy="122" rx="54" ry="24"/><path fill="#ffd33c" d="M10.1 95.6l10-51 9.8 1.8-10 51z"/><ellipse fill="#cbc7b8" cx="92" cy="118" rx="8" ry="23"/><ellipse fill="#932aba" rx="1" ry="1" transform="matrix(14.49726 8.95244 -10.13625 16.41427 182 7.8)"/><ellipse cx="255" cy="9" rx="25" ry="93"/><path fill="#ff9316" d="M225 49h11v43h-11z"/><ellipse fill="#dbe790" cx="122" cy="106" rx="6" ry="36"/><ellipse fill="#ffeb6e" rx="1" ry="1" transform="matrix(-5.7394 .07747 -.32272 -23.90935 164.8 84.3)"/><path fill="#000028" d="M116 85.9l-2 41-14-.8 2-41z"/><ellipse fill="#ffcb8a" cx="38" cy="91" rx="5" ry="19"/><ellipse rx="1" ry="1" transform="matrix(-32.49358 -2.78568 2.32937 -27.17092 27.2 18.2)"/><ellipse cx="198" cy="90" rx="4" ry="55"/><ellipse fill="#ff92ff" cx="60" cy="166" rx="172" ry="6"/><ellipse fill="#dbca00" rx="1" ry="1" transform="matrix(29.48019 -7.8379 4.1996 15.7957 115 73.2)"/><ellipse fill="#f38948" cx="80" rx="24" ry="12"/><ellipse fill="#ffe365" cx="145" cy="7" rx="7" ry="7"/></g></svg>