<svg xmlns="http://www.w3.org/2000/svg" viewBox="0 0 200 133"><filter id="b"><feGaussianBlur stdDeviation="12" /></filter><path fill="#624040" d="M0 0h200v133H0z"/><g filter="url(#b)" transform="translate(.5 .5)" fill-opacity=".5"><ellipse fill="#fff5f3" rx="1" ry="1" transform="matrix(2.59054 25.95385 -33.63612 3.35733 111 112.7)"/><ellipse fill="#acbcd8" cx="194" cy="89" rx="27" ry="28"/><ellipse fill="#210000" rx="1" ry="1" transform="matrix(-4.46208 -49.14694 140.67417 -12.77188 82.3 1.5)"/><ellipse fill="#e5a77c" cx="108" cy="63" rx="14" ry="29"/><path fill="#010013" d="M145 64h24v69h-24z"/><path fill="#b46e55" d="M197.6 69.2l-36-8.4 8.8-38 36 8.4z"/><ellipse fill="#450001" cx="9" cy="132" rx="25" ry="28"/><ellipse fill="#7d8184" rx="1" ry="1" transform="matrix(11.69434 -8.34149 16.4723 23.0933 67.9 106.2)"/><path fill="#d2c6c4" d="M155 148l-57-23 23-44z"/><ellipse fill="#c17352" rx="1" ry="1" transform="matrix(12.73833 28.61076 -7.39785 3.29373 6.4 59.6)"/><ellipse fill="#000013" rx="1" ry="1" transform="rotate(-123.8 89.6 3) scale(14.70226 8.5182)"/><path fill="#4b0908" d="M-10-5l64 92-30 5z"/><ellipse fill="#601308" cx="89" cy="132" rx="16" ry="7"/><ellipse fill="#ad8d79" cx="107" cy="60" rx="26" ry="13"/><ellipse fill="#001126" rx="1" ry="1" transform="matrix(2.30296 7.79634 -38.40065 11.34315 184.7 129.4)"/><path d="M154 30h13v24h-13z"/><path fill="#6e130f" d="M65.2 56.7l48.7 36.7-9 12L56 68.5z"/><ellipse fill="#dc8663" cx="147" cy="48" rx="6" ry="14"/><path fill="#0f0003" d="M182 19h18v15h-18z"/><ellipse fill="#674343" rx="1" ry="1" transform="matrix(-7.34268 -7.97546 20.57524 -18.94279 44.4 40.1)"/><path fill="#c7acb7" d="M92 122l-29 7 39-43z"/><ellipse fill="#cdc5db" cx="156" cy="96" rx="5" ry="5"/></g></svg>