<svg xmlns="http://www.w3.org/2000/svg" viewBox="0 0 200 133"><filter id="b"><feGaussianBlur stdDeviation="12" /></filter><path fill="#855f74" d="M0 0h200v133H0z"/><g filter="url(#b)" transform="translate(.5 .5)" fill-opacity=".5"><path fill="#000903" d="M37 17h121v31H37z"/><ellipse fill="#e0d9fd" cx="103" cy="6" rx="199" ry="8"/><ellipse fill="#8d96ff" cx="98" cy="64" rx="38" ry="18"/><ellipse fill="#bd3315" cx="172" cy="118" rx="65" ry="29"/><ellipse fill="#c92706" cx="43" cy="118" rx="32" ry="21"/><ellipse fill="#fffec9" cx="99" cy="118" rx="11" ry="29"/><ellipse fill="#002b0a" cx="53" cy="54" rx="15" ry="9"/><path fill="#faffff" d="M-16 122L4 94l12 14z"/><path fill="#41101c" d="M137.2 81.8l11.5 24.5-30 14-11.4-24.6z"/><path fill="#b2c4f8" d="M167.5 67.9l24 1.2-1 19-24-1.2z"/><ellipse fill="#d20000" cx="163" cy="62" rx="18" ry="6"/><ellipse fill="#264ead" rx="1" ry="1" transform="matrix(-6.8632 -19.62127 14.37476 -5.02806 11.3 64.4)"/><ellipse fill="#b39ac5" cx="178" cy="10" rx="40" ry="14"/><path fill="#5486ff" d="M193 49h7v56h-7z"/><ellipse fill="#d7a75f" cx="96" cy="131" rx="71" ry="12"/><ellipse fill="#bda3c5" rx="1" ry="1" transform="rotate(-17 28.1 -147) scale(53.23559 17.88057)"/><path fill="#1780ff" d="M156.7 70.8l-1.8 7.8-49.6-11.4 1.8-7.8z"/><path fill="#ecfaff" d="M63 91h49v6H63z"/><ellipse fill="#520000" cx="76" cy="106" rx="12" ry="9"/><path fill="#327aff" d="M90 60L38 72l61 9z"/><path fill="#3f0728" d="M124 85.3L114 80l-36 1.7L67 93z"/><path fill="#ff5b33" d="M75 55h74v5H75z"/></g></svg>