<svg xmlns="http://www.w3.org/2000/svg" viewBox="0 0 200 133"><filter id="b"><feGaussianBlur stdDeviation="12" /></filter><path fill="#b9a392" d="M0 0h200v133H0z"/><g filter="url(#b)" transform="translate(.5 .5)" fill-opacity=".5"><ellipse fill="#644e37" rx="1" ry="1" transform="rotate(99.5 -23.2 79.7) scale(34.82437 65.98803)"/><ellipse fill="#fff" rx="1" ry="1" transform="matrix(18.64812 18.91034 -27.6493 27.2659 186 109.5)"/><path fill="#faffff" d="M53.2.8l23-34 74.6 50.4-23 34z"/><ellipse fill="#c98a30" rx="1" ry="1" transform="matrix(-26.96741 -4.42512 7.05654 -43.00369 174.2 23.2)"/><ellipse fill="#455b7d" cx="61" cy="27" rx="18" ry="22"/><ellipse fill="#e6ddff" rx="1" ry="1" transform="matrix(10.45672 -37.45178 11.08861 3.096 24.5 17.9)"/><path d="M74.9 142.6l-9.2 4L37 79.4l9.2-4z"/><path fill="#d7e8f8" d="M73 148L58 83l22-47z"/><ellipse fill="#eebe7d" cx="163" cy="66" rx="32" ry="32"/><ellipse fill="#521d00" rx="1" ry="1" transform="matrix(9.7213 -4.69044 12.40421 25.7087 199 17)"/><path fill="#fbffff" d="M135 81l-26 11-12-27z"/><path fill="#f8ffff" d="M215 120l-19-76-15 104z"/><path fill="#00071f" d="M79.5 33.8l-5.6 4.3-23.4-30L56.1 4z"/><ellipse fill="#8b443b" rx="1" ry="1" transform="matrix(4.51126 -25.73273 11.83687 2.07515 88.2 99.7)"/><path fill="#fff" d="M49 22l19 14L42-2z"/><path fill="#000311" d="M60 90l-18-9 23 52z"/><path fill="#e6ffff" d="M1 3.7l57.7 3.4 59.1 19.2-3.7-42.3z"/><ellipse fill="#997466" rx="1" ry="1" transform="rotate(131.2 42.3 51) scale(7.62745 48.56532)"/><path fill="#655575" d="M69.5 46v26h-19V46z"/><path fill="#e7cfff" d="M53.4 63l-12.9 1.8L36.6 37l12.9-1.8z"/><ellipse fill="#fff6b0" cx="172" cy="107" rx="16" ry="26"/><ellipse fill="#dbc89d" rx="1" ry="1" transform="matrix(-18.33049 .20921 -.47829 -41.90632 142.3 32.3)"/></g></svg>