<svg xmlns="http://www.w3.org/2000/svg" viewBox="0 0 200 133"><filter id="b"><feGaussianBlur stdDeviation="12" /></filter><path fill="#971e60" d="M0 0h200v133H0z"/><g filter="url(#b)" transform="translate(.5 .5)" fill-opacity=".5"><ellipse fill="#ff1bff" cx="47" cy="17" rx="68" ry="42"/><ellipse fill="#520d08" cx="110" cy="101" rx="182" ry="25"/><ellipse fill="#16190d" rx="1" ry="1" transform="rotate(-147.6 77.5 -10.8) scale(24.5258 34.93121)"/><ellipse fill="#ff2128" rx="1" ry="1" transform="matrix(18.73734 21.75632 -14.4083 12.40896 154 78.3)"/><ellipse fill="#ff0bff" rx="1" ry="1" transform="matrix(-95.66067 18.10802 -4.15897 -21.9709 34.8 17.9)"/><ellipse fill="#4c774e" cx="185" cy="29" rx="22" ry="50"/><path fill="#ff0015" d="M55 61h107v20H55z"/><ellipse fill="#ff3c88" cy="81" rx="21" ry="34"/><ellipse fill="#001525" cx="41" cy="103" rx="24" ry="24"/><ellipse fill="#abaea1" rx="1" ry="1" transform="matrix(-4.7371 13.43567 -31.22894 -11.0106 194.2 29.2)"/><ellipse fill="#1f1a3d" rx="1" ry="1" transform="matrix(-16.81576 -6.59003 10.01754 -25.56176 99 96.7)"/><path fill="#ff0715" d="M160 92h22v28h-22z"/><path fill="#1a0009" d="M196 92l11-20-46-29z"/><ellipse fill="#4e3c4e" cx="114" cy="46" rx="20" ry="20"/><ellipse fill="#e059c5" rx="1" ry="1" transform="rotate(116.4 28.6 42) scale(27.47318 23.01153)"/><path fill="#000708" d="M73 49L50 76l-26 2z"/><path fill="#ff0b4a" d="M81.2 96.3L53.3 85.1l13.5-33.4 27.9 11.2z"/><path fill="#eead9f" d="M158.3 89L170 60.6l6.8 19.6-1.6 5.8z"/><path d="M204.6 48.6l-16-50.3 8-1.2L215 9.8z"/><ellipse fill="#210d1f" rx="1" ry="1" transform="matrix(12.70374 -.9876 1.62313 20.87864 147 116.5)"/><ellipse fill="#ff04f0" cx="50" cy="12" rx="24" ry="37"/><path fill="#ff0331" d="M141 51h20v44h-20z"/></g></svg>