<svg xmlns="http://www.w3.org/2000/svg" viewBox="0 0 200 133"><filter id="b"><feGaussianBlur stdDeviation="12" /></filter><path fill="#3b4357" d="M0 0h200v133H0z"/><g filter="url(#b)" transform="translate(.5 .5)" fill-opacity=".5"><ellipse fill="#adb2bb" cx="108" cy="116" rx="64" ry="64"/><ellipse rx="1" ry="1" transform="matrix(-3.59524 55.7686 -164.27528 -10.59034 45.5 6.7)"/><ellipse fill="#ecffff" rx="1" ry="1" transform="rotate(-4 1142.8 -2686.9) scale(78.61998 9.00801)"/><path fill="#9dc0ff" d="M-5 112l114-51-125 20z"/><path fill="#d6d694" d="M108.8 60.4l-23.5-17 15.9-21.8 23.5 17z"/><ellipse cx="21" cy="33" rx="68" ry="35"/><ellipse cx="155" cy="14" rx="43" ry="43"/><path fill="#3f3b03" d="M99 46h18v87H99z"/><ellipse fill="#b1b4d3" rx="1" ry="1" transform="matrix(-194.68581 1.14995 -.05685 -9.62442 97 109.2)"/><ellipse fill="#090000" cx="118" cy="92" rx="83" ry="6"/><ellipse fill="#0b62ff" cx="164" cy="61" rx="46" ry="8"/><path fill="#f7fbfc" d="M22 91l83-35-18 28z"/><ellipse fill="#001999" rx="1" ry="1" transform="rotate(-74.8 106.5 39.6) scale(12.09929 123.88237)"/><ellipse fill="#073ad0" rx="1" ry="1" transform="rotate(173.5 14 37.9) scale(65.11903 7.28266)"/><path d="M100.2 5.3L80.4 62.9 21.8 42.7l19.8-57.6z"/><ellipse fill="#585932" rx="1" ry="1" transform="rotate(-100.2 89 -1) scale(47.04253 9.43839)"/><ellipse fill="#d4dbff" cx="154" cy="73" rx="35" ry="9"/><ellipse fill="#190f01" cx="183" cy="86" rx="71" ry="5"/><path fill="#c3aa84" d="M104 67.1l-4.5-52.6 4-4 7.3 14.9z"/><ellipse fill="#103797" cx="177" cy="132" rx="68" ry="15"/><ellipse cx="162" cy="17" rx="53" ry="34"/><ellipse fill="#001bd3" cx="197" cy="56" rx="45" ry="8"/></g></svg>