<svg xmlns="http://www.w3.org/2000/svg" viewBox="0 0 200 133"><filter id="b"><feGaussianBlur stdDeviation="12" /></filter><path fill="#4c6678" d="M0 0h200v133H0z"/><g filter="url(#b)" transform="translate(.5 .5)" fill-opacity=".5"><ellipse fill="#f3ffff" rx="1" ry="1" transform="matrix(39.74547 -23.1406 12.3821 21.26706 96.6 45.8)"/><ellipse rx="1" ry="1" transform="matrix(-.83152 -22.67671 48.8787 -1.7923 172.4 85.4)"/><ellipse cx="22" cy="84" rx="23" ry="23"/><ellipse fill="#fef" cx="71" cy="122" rx="28" ry="16"/><ellipse fill="#fff4ff" cx="139" cy="121" rx="25" ry="14"/><ellipse fill="#e0f4fa" rx="1" ry="1" transform="matrix(6.5593 63.47295 -15.90007 1.64311 82.3 82)"/><ellipse rx="1" ry="1" transform="matrix(.01922 -11.01257 113.8447 .1987 102 6)"/><path fill="#00000d" d="M99 48h23v63H99z"/><ellipse fill="#bfffff" cx="49" cy="45" rx="7" ry="38"/><path fill="#7fffff" d="M144 11h11v45h-11z"/><path fill="#defffd" d="M65 18h72v33H65z"/><path fill="#80ffff" d="M-11 17.7l21-.4 1 53-21 .4z"/><ellipse cx="60" cy="4" rx="5" ry="109"/><path fill="#00a0e7" d="M165 11h30v47h-30z"/><ellipse cx="16" cy="20" rx="5" ry="87"/><path d="M177 0h8v65h-8z"/><ellipse cx="161" cy="58" rx="5" ry="54"/><path fill="#6af4ff" d="M21 13h12v51H21z"/><ellipse fill="#000304" cx="14" cy="126" rx="55" ry="5"/><ellipse fill="#000001" rx="1" ry="1" transform="rotate(-127.2 32 36.6) scale(15.15768 32.47443)"/><ellipse cx="174" cy="84" rx="36" ry="23"/><path d="M33 0h9v78h-9z"/></g></svg>