<svg xmlns="http://www.w3.org/2000/svg" viewBox="0 0 700 467"><filter id="b"><feGaussianBlur stdDeviation="12" /></filter><path fill="#3f55a9" d="M0 0h700v464H0z"/><g filter="url(#b)" transform="translate(1.4 1.4) scale(2.73438)" fill-opacity=".5"><ellipse fill="#002400" cx="16" cy="125" rx="23" ry="243"/><ellipse fill="#526eff" cx="180" rx="119" ry="119"/><ellipse fill="#0e001e" rx="1" ry="1" transform="matrix(42.40933 19.12858 -10.774 23.88669 54 155.2)"/><ellipse fill="#deefdb" rx="1" ry="1" transform="matrix(-13.897 21.6551 -9.69032 -6.21868 152.7 143)"/><path fill="#240749" d="M147 107l-14-40-86 33z"/><ellipse fill="#00ef00" rx="1" ry="1" transform="rotate(42.9 -57.3 44.8) scale(10.71132 35.71506)"/><ellipse fill="#b9e53d" cx="222" cy="26" rx="6" ry="47"/><ellipse fill="#0e89f9" rx="1" ry="1" transform="matrix(18.59858 -69.31074 22.12301 5.9364 65 21.2)"/><ellipse fill="#571f32" rx="1" ry="1" transform="matrix(-115.08985 73.88637 -13.26003 -20.65462 225.8 169)"/><ellipse fill="#d9e587" rx="1" ry="1" transform="rotate(-100.8 159.4 -44.7) scale(51.51375 6.27145)"/><ellipse fill="#447f4a" cx="129" cy="161" rx="17" ry="88"/><path fill="#7bbbff" d="M183.5 82.7l-68.9-32 11.9-25.4 68.9 32z"/><path fill="#cb88fb" d="M220 157l-23-43-27 45z"/><ellipse fill="#7c64f5" rx="1" ry="1" transform="rotate(-168.2 11.2 64.7) scale(5.71635 37.42921)"/><path fill="#9272e3" d="M73 110h35v40H73z"/><ellipse fill="#000020" rx="1" ry="1" transform="matrix(11.18375 10.63767 -17.38102 18.27327 16.8 87.9)"/><ellipse fill="#080baf" rx="1" ry="1" transform="matrix(21.38404 21.45698 -12.41669 12.37448 81.2 90.5)"/><ellipse fill="#005b52" cx="219" rx="19" ry="20"/><ellipse fill="#510" cx="138" cy="169" rx="121" ry="4"/><ellipse fill="#402ef4" rx="1" ry="1" transform="matrix(34.49487 51.52783 -20.54046 13.75064 181.6 17.2)"/><path fill="#00003b" d="M110 122h8v44h-8z"/><path fill="#000034" d="M176 122.1l8.6 2.8-12.7 39-8.5-2.8z"/></g></svg>