<svg xmlns="http://www.w3.org/2000/svg" viewBox="0 0 200 133"><filter id="b"><feGaussianBlur stdDeviation="12" /></filter><path fill="#67686d" d="M0 0h200v133H0z"/><g filter="url(#b)" transform="translate(.5 .5)" fill-opacity=".5"><ellipse fill="#fff" cx="126" rx="189" ry="45"/><ellipse rx="1" ry="1" transform="matrix(198.5852 12.84193 -2.17172 33.58305 140.6 85.5)"/><ellipse cx="133" cy="131" rx="20" ry="56"/><path fill="#fff" d="M9.7 5.2L89.4-27l16.9 41.8L26.6 47z"/><ellipse fill="#fffff6" cx="147" cy="6" rx="68" ry="29"/><ellipse fill="#9da1ae" rx="1" ry="1" transform="rotate(9.7 -512.2 1055.5) scale(14.20011 22.3298)"/><ellipse fill="#1f232f" cx="4" cy="42" rx="7" ry="194"/><path fill="#0c0a15" d="M122 86L65 23 14 99z"/><ellipse fill="#818da5" cx="89" cy="112" rx="27" ry="16"/><path d="M185 70l20 78-21-23z"/><path fill="#fffffd" d="M151 57l19-20-13-10z"/><ellipse fill="#130d10" rx="1" ry="1" transform="matrix(-13.01244 74.5579 -19.12228 -3.33737 133.4 116.3)"/><ellipse fill="#fff" rx="1" ry="1" transform="matrix(51.4827 6.64516 -2.44638 18.95304 68.2 1.7)"/><ellipse fill="#07050d" cx="20" cy="73" rx="94" ry="15"/><path fill="#02010f" d="M189.4 47.2l7.2 31.2-36 8.4-7.2-31.2z"/><path fill="#908789" d="M109 20L22 43l135 4z"/><path fill="#6d6282" d="M189 29h10v39h-10z"/><ellipse fill="#6e7376" cx="9" cy="59" rx="3" ry="46"/><path fill="#fff" d="M187.2-16L175 53.5l29-46.7 5.1 29.8zM11 46l17-62v54z"/><ellipse fill="#323d51" rx="1" ry="1" transform="matrix(-20.41567 19.50963 -10.45698 -10.9426 13.4 116.6)"/><path fill="#68748d" d="M30.6 125.4l9-5.7 29 28.3-12.4-60.8z"/></g></svg>