<svg xmlns="http://www.w3.org/2000/svg" viewBox="0 0 641 195"><filter id="b"><feGaussianBlur stdDeviation="12" /></filter><path fill="#a0abae" d="M0 0h641v192H0z"/><g filter="url(#b)" transform="translate(1.3 1.3) scale(2.5039)" fill-opacity=".5"><ellipse cx="250" cy="67" rx="23" ry="54"/><ellipse fill="#000008" cx="18" cy="56" rx="19" ry="35"/><ellipse fill="#dee8e5" cx="141" cy="16" rx="88" ry="221"/><path d="M231 27h25v48h-25z"/><ellipse fill="#6a7f7d" cx="104" cy="42" rx="14" ry="118"/><ellipse fill="#798e92" cx="159" cy="65" rx="26" ry="39"/><ellipse fill="#fffffe" cx="207" cy="49" rx="21" ry="50"/><ellipse fill="#f3eeed" rx="1" ry="1" transform="matrix(2.0589 -14.28772 57.34325 8.26329 160 16.2)"/><path fill="#525754" d="M0 24h54v34H0z"/><path fill="#fff" d="M131.4 48.3L194.5 64l-2 7.7-63-15.7z"/><path fill="#348e95" d="M84.5 62.2l10.1 9.2L67.1 92l.3-36z"/><ellipse fill="#000003" cx="252" cy="58" rx="24" ry="24"/><ellipse fill="#6baae5" rx="1" ry="1" transform="matrix(31.90571 3.27316 -2.47729 24.14782 25.1 0)"/><path fill="#fffffc" d="M119 22h21v38h-21z"/><path fill="#faffff" d="M91 64h18v13H91z"/><path fill="#061022" d="M68 85l-84-45 28 32z"/><path fill="#687077" d="M131 66h50v11h-50z"/><path fill="#ccdfef" d="M-13 65.9l25 7 53.3 18.7L20 87.8z"/><path fill="#d1dedd" d="M35 66l-7-12 47 1z"/><path fill="#fff" d="M84.7 6.4l27.5-1.1-41.6 27L83-2.9z"/><path fill="#0a3d22" d="M96 4l25-3-55-17z"/><ellipse fill="#668d8c" cx="72" cy="40" rx="11" ry="11"/></g></svg>