<svg xmlns="http://www.w3.org/2000/svg" viewBox="0 0 700 467"><filter id="b"><feGaussianBlur stdDeviation="12" /></filter><path fill="#753884" d="M0 0h700v464H0z"/><g filter="url(#b)" transform="translate(1.4 1.4) scale(2.73438)" fill-opacity=".5"><ellipse fill="#e766f6" rx="1" ry="1" transform="matrix(40.68883 30.66123 -20.28551 26.91978 93 97.4)"/><ellipse fill="#171244" cx="209" cy="97" rx="51" ry="51"/><ellipse fill="#95bc7a" cx="255" cy="38" rx="38" ry="38"/><ellipse fill="#ec6176" cx="157" cy="46" rx="24" ry="39"/><ellipse fill="#2e3425" rx="1" ry="1" transform="rotate(62.9 90.6 157.1) scale(62.99949 24.52624)"/><ellipse fill="#210000" cx="68" cy="169" rx="119" ry="11"/><ellipse fill="#b82eec" cx="198" cy="163" rx="30" ry="30"/><ellipse fill="#b660c7" cx="69" cy="142" rx="111" ry="11"/><ellipse fill="#8619ff" rx="1" ry="1" transform="matrix(-15.7633 -4.97015 7.76984 -24.6428 6.2 100.3)"/><ellipse fill="#c60dec" cx="146" cy="84" rx="14" ry="31"/><ellipse fill="#8aa7a5" rx="1" ry="1" transform="matrix(14.19237 15.1805 -20.36447 19.0389 8.7 34.7)"/><ellipse fill="#1c0068" rx="1" ry="1" transform="matrix(.27355 -9.32706 62.49912 1.833 55.9 6)"/><ellipse fill="#f4d" cx="71" cy="88" rx="20" ry="25"/><ellipse fill="#4e41d6" cx="125" cy="103" rx="24" ry="26"/><ellipse fill="#c2723f" cx="168" cy="35" rx="20" ry="24"/><path fill="#1e0f24" d="M202 99l-55 47L202-6z"/><path fill="#d06965" d="M85 15h103v18H85z"/><ellipse fill="#af85e1" cx="207" cy="107" rx="5" ry="22"/><path fill="#180f3f" d="M223 99h33v49h-33z"/><ellipse fill="#01003e" rx="1" ry="1" transform="matrix(-54.05094 12.16292 -2.669 -11.86076 208.4 0)"/><ellipse fill="#3a168b" rx="1" ry="1" transform="matrix(32.8657 -6.8093 2.9963 14.46195 33.4 125.6)"/><ellipse fill="#c4b7a0" cx="95" cy="123" rx="16" ry="16"/></g></svg>