<svg xmlns="http://www.w3.org/2000/svg" viewBox="0 0 700 467"><filter id="b"><feGaussianBlur stdDeviation="12" /></filter><path fill="#414652" d="M0 0h700v464H0z"/><g filter="url(#b)" transform="translate(1.4 1.4) scale(2.73438)" fill-opacity=".5"><ellipse fill="#abfbff" cx="126" cy="59" rx="33" ry="29"/><ellipse fill="#ffc5a2" cx="228" cy="130" rx="35" ry="16"/><ellipse fill="#fff5d2" cx="99" cy="129" rx="15" ry="19"/><ellipse fill="#002969" cx="26" cy="43" rx="57" ry="57"/><ellipse fill="#002f72" cx="227" cy="48" rx="55" ry="55"/><path fill="#fff" d="M46 124h20v22H46z"/><path fill="red" d="M36 148.7l-36.8-4.5L2 121.3l36.8 4.5z"/><ellipse fill="#590d00" cx="129" cy="97" rx="104" ry="12"/><ellipse cx="27" cy="158" rx="52" ry="13"/><path fill="#4f2206" d="M84 185l49-101 94 79z"/><ellipse fill="#0065a6" rx="1" ry="1" transform="matrix(-6.00098 31.16264 -40.37246 -7.77451 13 18.5)"/><ellipse fill="#0a6ead" rx="1" ry="1" transform="rotate(-145.9 120.6 -27.1) scale(28.73417 34.42012)"/><path fill="#61baff" d="M93 52h58v34H93z"/><path fill="#7d5227" d="M19 104h79v23H19z"/><ellipse fill="#001934" cx="46" cy="77" rx="31" ry="37"/><ellipse fill="#001f44" rx="1" ry="1" transform="rotate(87.8 67 144.6) scale(33.83284 36.67495)"/><ellipse fill="#f0d8be" cx="128" cy="35" rx="17" ry="11"/><ellipse fill="#001325" cx="186" cy="34" rx="11" ry="107"/><ellipse fill="#89694a" rx="1" ry="1" transform="rotate(-121.3 104.5 38.9) scale(27.57513 15.36647)"/><path fill="#efded5" d="M101.3 145l-18.2 4 22.3-48 4.3 50.2z"/><ellipse fill="#fff" cx="176" cy="113" rx="6" ry="6"/><path fill="#c60000" d="M112.4 86l34.9 3-1.7 19-34.9-3z"/></g></svg>