<svg xmlns="http://www.w3.org/2000/svg" viewBox="0 0 200 133"><filter id="b"><feGaussianBlur stdDeviation="12" /></filter><path fill="#5e4580" d="M0 0h200v133H0z"/><g filter="url(#b)" transform="translate(.5 .5)" fill-opacity=".5"><ellipse fill="#1b0000" rx="1" ry="1" transform="matrix(-1.18972 -22.28273 198.17864 -10.58114 56.4 129.6)"/><ellipse fill="#ed8ccf" cx="103" cy="4" rx="56" ry="28"/><ellipse fill="#5196ff" cx="166" cy="73" rx="24" ry="24"/><ellipse fill="#5b83ff" cx="35" cy="75" rx="27" ry="27"/><path fill="#2fffff" d="M82 49h35v20H82z"/><ellipse cx="72" cy="51" rx="10" ry="22"/><path d="M137 32l1 28-71-24z"/><ellipse fill="#ad6ec5" rx="1" ry="1" transform="rotate(48.1 58 203.7) scale(16.27071 40.45214)"/><ellipse fill="#b061be" rx="1" ry="1" transform="matrix(10.09285 -14.57592 34.934 24.18945 25.8 23.1)"/><ellipse fill="#160017" rx="1" ry="1" transform="matrix(16.69543 16.98939 -10.47285 10.29164 190.8 59.3)"/><path fill="#86a7f4" d="M43 76l79 16-22 17z"/><path fill="#000004" d="M141 26L91 95l45-28z"/><ellipse fill="#370000" cy="58" rx="14" ry="21"/><ellipse fill="#a4bee9" cx="162" cy="83" rx="38" ry="8"/><path fill="#55c3ff" d="M90 48h29v21H90z"/><path fill="#060029" d="M86 68h38v19H86z"/><ellipse fill="#35218e" rx="1" ry="1" transform="matrix(-9.58082 16.95986 -15.3069 -8.64704 28 105.9)"/><path fill="#beccfb" d="M51.4 72.9l1.2 7.9-78 12.3-1.2-7.9z"/><ellipse fill="#3d0100" rx="1" ry="1" transform="matrix(-80.69502 8.50966 -2.19072 -20.77406 87.5 132)"/><ellipse fill="#c174c9" cx="168" cy="31" rx="35" ry="7"/><path fill="#d96e78" d="M93 0h17v39H93z"/><path fill="#ef9ce9" d="M50 23h25v9H50z"/></g></svg>