<svg xmlns="http://www.w3.org/2000/svg" viewBox="0 0 200 133"><filter id="b"><feGaussianBlur stdDeviation="12" /></filter><path fill="#675550" d="M0 0h200v133H0z"/><g filter="url(#b)" transform="translate(.5 .5)" fill-opacity=".5"><ellipse fill="#d0ffff" cx="101" cy="52" rx="48" ry="20"/><ellipse cx="63" cy="2" rx="199" ry="33"/><ellipse fill="#cba45b" rx="1" ry="1" transform="matrix(-28.0866 22.93808 -29.27508 -35.84595 182 69.3)"/><ellipse cx="110" cy="132" rx="199" ry="17"/><path fill="#d48f82" d="M41 84h63v27H41z"/><path fill="#a6d4ff" d="M62 36h80v33H62z"/><ellipse fill="#968a86" cx="32" cy="50" rx="33" ry="18"/><ellipse rx="1" ry="1" transform="rotate(-106 14.3 -7.4) scale(28.80317 52.63243)"/><ellipse fill="#ffdde2" cx="102" cy="107" rx="35" ry="3"/><ellipse fill="#796568" rx="1" ry="1" transform="matrix(3.66712 -12.90118 29.24315 8.31228 113.3 22.6)"/><ellipse cx="194" cy="10" rx="22" ry="22"/><path fill="#b4ab8d" d="M154 57l13-40 45 40z"/><path fill="#fbf9f3" d="M81 47h46v17H81z"/><path fill="#923018" d="M142 89h31v32h-31z"/><ellipse fill="#426eda" rx="1" ry="1" transform="rotate(-11.1 247.8 -399.3) scale(27.53545 7.03313)"/><ellipse cx="114" cy="132" rx="192" ry="8"/><path fill="#563940" d="M62.3 35.2l-31 36L81 93.7l-19.2 33z"/><ellipse fill="#ffa282" cx="2" cy="108" rx="29" ry="5"/><ellipse fill="#b48a86" cx="98" cy="84" rx="75" ry="5"/><ellipse fill="#5c0000" rx="1" ry="1" transform="matrix(.61723 6.29497 -39.79858 3.90228 .3 120.7)"/><path fill="#598ff5" d="M108 34h33v11h-33z"/><path fill="#bb94aa" d="M101 96l-30 19 55-3z"/></g></svg>