<svg xmlns="http://www.w3.org/2000/svg" viewBox="0 0 700 467"><filter id="b"><feGaussianBlur stdDeviation="12" /></filter><path fill="#424f67" d="M0 0h700v464H0z"/><g filter="url(#b)" transform="translate(1.4 1.4) scale(2.73438)" fill-opacity=".5"><ellipse fill="#0ee0ff" cx="198" cy="54" rx="60" ry="50"/><path fill="#810000" d="M105 54l166 100-165 31z"/><ellipse fill="#fff" cx="81" cy="118" rx="19" ry="40"/><ellipse rx="1" ry="1" transform="matrix(-18.48933 -1.5851 9.79206 -114.21941 15.7 101.5)"/><ellipse fill="#600000" cx="213" cy="137" rx="111" ry="33"/><ellipse fill="#870000" cx="124" cy="35" rx="21" ry="97"/><path fill="#40bdff" d="M271 108L154-16 139 99z"/><ellipse fill="#179af6" rx="1" ry="1" transform="rotate(-80.8 62.5 3.3) scale(83.56514 11.80321)"/><path fill="#fff" d="M192 85l54 18-105-4z"/><ellipse fill="#91ffff" rx="10" ry="46"/><ellipse fill="#a79b7a" rx="1" ry="1" transform="rotate(-86.1 77.6 -31.6) scale(86.85832 11.96239)"/><ellipse fill="#007ee8" cx="215" cy="64" rx="72" ry="30"/><ellipse fill="#000026" cx="25" cy="149" rx="37" ry="37"/><path fill="#ffffdc" d="M193 93h63v12h-63z"/><ellipse fill="#581300" rx="1" ry="1" transform="matrix(-65.08224 -11.79352 1.5717 -8.67342 225 4.8)"/><ellipse fill="#630000" rx="1" ry="1" transform="matrix(14.38835 -19.80387 30.64219 22.26285 230.2 133.9)"/><ellipse fill="#001637" cx="81" cy="18" rx="14" ry="61"/><ellipse fill="#610000" rx="1" ry="1" transform="matrix(11.48234 -.98608 4.84944 56.46873 131.6 48.4)"/><ellipse rx="1" ry="1" transform="matrix(-21.07717 151.12522 -9.5958 -1.33831 9.5 94.4)"/><path fill="#eadfd0" d="M66 86h28v67H66z"/><ellipse fill="#b2d4ff" rx="1" ry="1" transform="matrix(62.92089 12.82946 -.72099 3.53601 212.6 27)"/><ellipse fill="#000d0e" rx="1" ry="1" transform="matrix(-4.49711 91.95012 -4.96687 -.24292 141.9 20.9)"/></g></svg>