<svg xmlns="http://www.w3.org/2000/svg" viewBox="0 0 700 467"><filter id="b"><feGaussianBlur stdDeviation="12" /></filter><path fill="#848d8d" d="M0 0h700v464H0z"/><g filter="url(#b)" transform="translate(1.4 1.4) scale(2.73438)" fill-opacity=".5"><ellipse rx="1" ry="1" transform="rotate(84 -20.5 117.8) scale(82.15773 22.79753)"/><ellipse rx="1" ry="1" transform="matrix(17.34678 80.9155 -28.92845 6.20172 229.6 148)"/><ellipse fill="#fff" cx="55" cy="62" rx="22" ry="214"/><ellipse fill="#fff" rx="1" ry="1" transform="rotate(-41.3 64.7 -92.6) scale(43.53855 27.25945)"/><ellipse fill="#d1f9fe" rx="1" ry="1" transform="matrix(-15.99672 4.19666 -18.49885 -70.51343 171.8 55.8)"/><ellipse fill="#272425" rx="1" ry="1" transform="matrix(-24.98024 40.12403 -28.1279 -17.51174 132.1 93.8)"/><ellipse fill="#fffffd" rx="1" ry="1" transform="matrix(7.28076 151.88754 -21.23338 1.01783 1.6 70.2)"/><path fill="#fff" d="M223 0h18v72h-18z"/><ellipse rx="1" ry="1" transform="matrix(-19.92305 4.96035 -12.02277 -48.28895 220.4 141.3)"/><ellipse rx="1" ry="1" transform="matrix(-19.55416 7.34966 -14.05532 -37.39489 99.6 140.9)"/><ellipse fill="#333a38" cx="207" cy="34" rx="15" ry="93"/><ellipse fill="#fffbf9" cx="55" cy="84" rx="18" ry="202"/><path fill="#174c68" d="M131.5 112.4l38-2.6 5 71.8-38 2.6z"/><path fill="#0b1013" d="M71 61l21 113 13-139z"/><path fill="#fff" d="M117 0h10v52h-10z"/><ellipse fill="#aadcda" rx="1" ry="1" transform="matrix(-6.06358 -46.5032 13.49667 -1.75984 183.7 144.2)"/><ellipse fill="#d7ecec" cx="169" cy="12" rx="22" ry="39"/><ellipse fill="#fff" cx="86" cy="2" rx="14" ry="46"/><path fill="#fff" d="M127 118h4v52h-4z"/><path fill="#f9f5f4" d="M50 124l33 61L70 37z"/><path fill="#4887a5" d="M131 80l40 7-45-103z"/><path fill="#db4008" d="M123 95h44v16h-44z"/></g></svg>