<svg xmlns="http://www.w3.org/2000/svg" viewBox="0 0 700 467"><filter id="b"><feGaussianBlur stdDeviation="12" /></filter><path fill="#5c457d" d="M0 0h700v464H0z"/><g filter="url(#b)" transform="translate(1.4 1.4) scale(2.73438)" fill-opacity=".5"><ellipse fill="#170000" cx="137" cy="157" rx="254" ry="22"/><ellipse fill="#eb8dcc" cx="130" cy="11" rx="69" ry="30"/><ellipse fill="#28ffff" cx="129" cy="74" rx="25" ry="15"/><ellipse fill="#6fa3ff" rx="1" ry="1" transform="rotate(143.9 88 76) scale(23.07562 38.01379)"/><ellipse fill="#6492ff" cx="48" cy="96" rx="37" ry="28"/><ellipse cx="165" cy="66" rx="14" ry="28"/><ellipse cx="93" cy="64" rx="13" ry="28"/><ellipse rx="1" ry="1" transform="matrix(54.06574 .3997 -.05876 7.94854 131.3 53.7)"/><ellipse fill="#9b5db7" cx="48" cy="22" rx="43" ry="43"/><path fill="#cc81da" d="M175 26l15 44 70-33z"/><path fill="#0e0000" d="M262.2 47.2L276.5 94l-28.7 8.8L233.5 56z"/><ellipse fill="#95beeb" rx="1" ry="1" transform="matrix(-29.34303 -13.00304 4.23033 -9.54627 109.3 117)"/><path fill="#94bbfb" d="M128 117l143-4-55-23z"/><path fill="#00000d" d="M110 88h50v24h-50z"/><ellipse fill="#3f4fff" rx="1" ry="1" transform="matrix(-8.31882 -2.00273 4.19006 -17.40445 35.5 142.2)"/><path fill="#200000" d="M17 54l-8 48-25-60z"/><path fill="#0243d0" d="M185 64h54v28h-54z"/><ellipse fill="#350000" rx="1" ry="1" transform="matrix(-1.28222 24.94799 -114.85888 -5.90323 147.2 169)"/><path fill="#f0e7dc" d="M58.2 94.7l-44.3 3.6 21.5 8.4 37.7-3.4z"/><path fill="#fff" d="M123.9 78.8l.2-12 18 .4-.2 12z"/><path fill="#0f53ea" d="M19 63h52v27H19z"/><path fill="#ffffda" d="M49 56h30v8H49z"/></g></svg>