<svg xmlns="http://www.w3.org/2000/svg" viewBox="0 0 200 133"><filter id="b"><feGaussianBlur stdDeviation="12" /></filter><path fill="#474d57" d="M0 0h200v133H0z"/><g filter="url(#b)" transform="translate(.5 .5)" fill-opacity=".5"><ellipse fill="#f2ffff" cx="191" cy="22" rx="26" ry="25"/><ellipse fill="#94bbd1" cx="107" cy="33" rx="38" ry="25"/><ellipse rx="1" ry="1" transform="matrix(-16.62418 -15.97811 22.83679 -23.76018 63.2 16.8)"/><path fill="#130000" d="M215 41L-16 81l163 32z"/><ellipse fill="#8595aa" cx="77" cy="125" rx="69" ry="24"/><path fill="#000008" d="M-16 108l40 15L13-16z"/><ellipse fill="#c5ffff" rx="1" ry="1" transform="matrix(.54001 -34.6092 7.02318 .10958 137.2 14)"/><ellipse fill="#d2beb4" rx="1" ry="1" transform="matrix(58.23123 -13.17564 1.45686 6.43878 75 54.5)"/><path fill="#ffdfe2" d="M159 94h14v29h-14z"/><ellipse cx="104" rx="5" ry="82"/><ellipse rx="1" ry="1" transform="rotate(87.6 50.3 77) scale(44.40928 4.37236)"/><path d="M131.5 92l28-1 1 27-28 1z"/><ellipse rx="1" ry="1" transform="matrix(16.54207 -14.08154 11.3406 13.32218 198.7 77.5)"/><path d="M36 93h13v32H36z"/><path fill="#e8ffff" d="M118.2 6.3l1.5 43-10 .4-1.4-43z"/><path fill="#e08a58" d="M34-10l-2 70-15-27z"/><ellipse fill="#74c1ff" cx="23" cy="132" rx="67" ry="11"/><path fill="#e9c4c9" d="M113 95h13v17h-13z"/><path fill="#b7c4c7" d="M184 55l-31-28 55-43z"/><ellipse rx="1" ry="1" transform="matrix(12.48737 2.69986 -3.8702 17.90038 156.6 4.7)"/><path fill="#d3ffff" d="M90 12h10v43H90z"/><ellipse fill="#000b3e" cx="55" cy="33" rx="21" ry="21"/></g></svg>