<svg xmlns="http://www.w3.org/2000/svg" viewBox="0 0 200 133"><filter id="b"><feGaussianBlur stdDeviation="12" /></filter><path fill="#3b0229" d="M0 0h200v133H0z"/><g filter="url(#b)" transform="translate(.5 .5)" fill-opacity=".5"><ellipse fill="#d21bc3" cx="103" cy="25" rx="36" ry="39"/><ellipse cx="165" cy="114" rx="57" ry="57"/><ellipse rx="1" ry="1" transform="matrix(19.02339 37.49714 -48.37677 24.54294 35.4 102)"/><ellipse fill="#ff64e2" rx="1" ry="1" transform="rotate(-90.3 69.6 -35.8) scale(9.8577 22.23815)"/><path fill="#af0080" d="M46.3 41.5L17 64.2 1.7 44.5 31 21.8z"/><ellipse fill="#470038" cx="123" cy="14" rx="80" ry="12"/><ellipse fill="#90006d" rx="1" ry="1" transform="rotate(-132 104.7 -20.8) scale(24.79697 14.61396)"/><path fill="#ff0bff" d="M62 56h82v3H62z"/><ellipse fill="#000100" rx="1" ry="1" transform="matrix(-52.96183 15.62069 -9.0513 -30.68838 169.3 112.6)"/><ellipse fill="#a1007c" cx="56" cy="4" rx="17" ry="10"/><ellipse fill="#080100" cy="104" rx="74" ry="45"/><path fill="#e4acd5" d="M86.8 31.2l20.8 5.6 18.7-10-52.6 3.4z"/><ellipse fill="#8d0069" rx="1" ry="1" transform="matrix(-21.64107 -4.39637 2.21562 -10.90635 143.7 0)"/><ellipse fill="#a80048" cx="100" cy="85" rx="9" ry="9"/><ellipse fill="#040025" rx="1" ry="1" transform="matrix(-.676 9.916 -5.17145 -.35255 72 43.5)"/><ellipse fill="#390004" cx="82" cy="119" rx="40" ry="20"/><path fill="#0a0000" d="M161.8 9.5l12.7 3-8.3 36-12.7-3z"/><path fill="#e9069b" d="M81 35h35v14H81z"/><ellipse fill="#140014" cx="105" cy="15" rx="67" ry="3"/><path fill="#0c0000" d="M-29.7 14L24.1-7.9 29.7 6l-53.8 21.7z"/><path fill="#54003f" d="M151.5 81.2L131 49.6l1.1-17 22.8-4.7z"/><ellipse fill="#260110" cx="108" cy="71" rx="110" ry="7"/></g></svg>