<svg xmlns="http://www.w3.org/2000/svg" viewBox="0 0 200 133"><filter id="b"><feGaussianBlur stdDeviation="12" /></filter><path fill="#998b85" d="M0 0h200v133H0z"/><g filter="url(#b)" transform="translate(.5 .5)" fill-opacity=".5"><ellipse fill="#251811" cx="184" cy="89" rx="171" ry="24"/><ellipse fill="#e8f5fb" cx="119" rx="63" ry="63"/><ellipse rx="1" ry="1" transform="matrix(-16.15901 12.95745 -7.2185 -9.00208 31 104.1)"/><ellipse fill="#e2c9dd" rx="1" ry="1" transform="matrix(26.46525 -58.34233 27.4489 12.45138 21.6 33.8)"/><ellipse fill="#560c00" rx="1" ry="1" transform="matrix(13.10947 -37.32373 13.87479 4.87334 185.4 74.5)"/><ellipse fill="#fff" rx="1" ry="1" transform="rotate(-57 150.5 -109.8) scale(8.75261 10.93167)"/><ellipse fill="#d6bd99" cx="94" cy="130" rx="66" ry="29"/><path fill="#fff" d="M87 65h10v29H87z"/><ellipse fill="#252521" cx="134" cy="80" rx="17" ry="28"/><path fill="#626173" d="M28 26h99v15H28z"/><ellipse fill="#00001a" rx="1" ry="1" transform="matrix(-1.53684 -21.97783 9.98947 -.69853 75.3 79.4)"/><ellipse fill="#ebdac4" cx="156" cy="38" rx="15" ry="45"/><ellipse fill="#5c4f4c" rx="1" ry="1" transform="matrix(15.81531 18.4108 -12.07327 10.37122 34.1 72)"/><path fill="#eaddcb" d="M64 110L51 81l12-38z"/><path fill="#ffffed" d="M110 39h7v61h-7z"/><ellipse rx="1" ry="1" transform="matrix(33.46695 6.68805 -1.6419 8.2161 156.3 92)"/><ellipse fill="#e4ebd9" cx="52" cy="48" rx="29" ry="9"/><path fill="#000007" d="M48 107l-33 8.3-5-20.4 33-8.2z"/><path fill="#e59a00" d="M181 36h19v22h-19z"/><ellipse fill="#5e4b59" rx="1" ry="1" transform="rotate(39.8 -31.1 155.4) scale(18.20875 8.06587)"/><ellipse fill="#deadfe" cx="7" cy="62" rx="8" ry="58"/><path fill="#d2c6c6" d="M132.3 82.8l-7-1 4.4-30.6 7 1z"/></g></svg>