<svg xmlns="http://www.w3.org/2000/svg" viewBox="0 0 700 467"><filter id="b"><feGaussianBlur stdDeviation="12" /></filter><path fill="#414652" d="M0 0h700v464H0z"/><g filter="url(#b)" transform="translate(1.4 1.4) scale(2.73438)" fill-opacity=".5"><ellipse fill="#adfcff" cx="125" cy="58" rx="33" ry="29"/><ellipse fill="#ffc09f" cx="225" cy="131" rx="33" ry="17"/><path fill="#fff" d="M45 145.3l4.2-25.7 19.7 3.1-4 25.7z"/><ellipse fill="#ffe6c4" cx="100" cy="126" rx="15" ry="22"/><ellipse fill="#002e71" rx="1" ry="1" transform="matrix(-7.11038 72.51723 -46.04547 -4.5148 221.1 29.5)"/><path fill="red" d="M-16 135l53 15-8-34z"/><ellipse fill="#002766" cx="36" cy="44" rx="44" ry="60"/><path fill="#791000" d="M64 87h99v31H64z"/><ellipse fill="#0a0100" cx="24" cy="162" rx="93" ry="17"/><ellipse fill="#0066a6" cx="17" cy="16" rx="36" ry="36"/><ellipse fill="#0a6cab" rx="1" ry="1" transform="rotate(101 110.8 111.2) scale(29.89472 37.11256)"/><path fill="#5eb2ff" d="M92 86l72-2-67-41z"/><ellipse fill="#040000" rx="1" ry="1" transform="matrix(4.8199 11.2399 -46.33236 19.86826 184.4 169)"/><ellipse fill="#5e2b0b" cx="139" cy="150" rx="32" ry="64"/><ellipse fill="#001323" cx="48" cy="82" rx="31" ry="31"/><ellipse fill="#00162e" rx="1" ry="1" transform="matrix(-43.91309 -2.16175 1.07503 -21.83786 216.5 82.8)"/><path fill="#775329" d="M94 125l-85 1 91-33z"/><path fill="#d1cdd5" d="M115 25h22v47h-22z"/><path fill="#fff" d="M83 128l8 20 18-24z"/><ellipse fill="#6e5c3b" cx="95" cy="29" rx="18" ry="23"/><path fill="#a50000" d="M158 50h9v49h-9z"/><path fill="#faefca" d="M97 99l19 25-18 7z"/></g></svg>