<svg xmlns="http://www.w3.org/2000/svg" viewBox="0 0 700 467"><filter id="b"><feGaussianBlur stdDeviation="12" /></filter><path fill="#644a3c" d="M0 0h700v464H0z"/><g filter="url(#b)" transform="translate(1.4 1.4) scale(2.73438)" fill-opacity=".5"><ellipse fill="#c5bab0" cx="124" cy="90" rx="117" ry="38"/><ellipse cx="211" cy="169" rx="49" ry="49"/><ellipse rx="1" ry="1" transform="matrix(-254.99029 -2.22527 .15825 -18.13342 77 153.7)"/><ellipse fill="#040100" rx="1" ry="1" transform="matrix(-129.91133 .90697 -.16013 -22.9371 127.1 34.6)"/><ellipse fill="#aff3ff" rx="1" ry="1" transform="matrix(21.06726 -6.65595 5.49073 17.37914 121.3 72.6)"/><ellipse fill="#fd9c53" rx="1" ry="1" transform="matrix(153.72212 5.9054 -.55736 14.50845 85 0)"/><ellipse fill="#3a0000" cx="255" cy="102" rx="24" ry="94"/><path fill="#ffdeb4" d="M18.3 34.7l-2.5 86.7 6.4 2 10.4-88.2z"/><ellipse fill="#b3875d" rx="1" ry="1" transform="matrix(8.27826 -54.04621 21.96207 3.36393 218.6 88.2)"/><ellipse fill="#281a1c" cx="151" cy="62" rx="10" ry="57"/><path fill="#1d0f0f" d="M84 36h16v78H84z"/><ellipse fill="#cd978a" cx="107" cy="32" rx="51" ry="4"/><ellipse fill="#030000" cx="61" cy="169" rx="253" ry="30"/><ellipse fill="#d47f62" rx="1" ry="1" transform="rotate(-82.6 98.5 26.3) scale(14.48811 38.22988)"/><path fill="#f7d5d5" d="M101 125l77-6-75-14z"/><ellipse rx="1" ry="1" transform="matrix(-52.60962 -17.24937 3.2841 -10.01631 35.5 32.6)"/><path fill="#521b00" d="M19.7 30.5l-8.5 97.7-31-2.7 8.6-97.7z"/><ellipse fill="#b1b8a2" cx="199" cy="65" rx="31" ry="11"/><path fill="#babe9e" d="M174 39h9v32h-9z"/><ellipse rx="1" ry="1" transform="rotate(114.9 86 83.2) scale(15.60739 19.12478)"/><path fill="#0057db" d="M105 55h42v8h-42z"/><ellipse fill="#c9ad87" rx="1" ry="1" transform="matrix(21.7299 -5.53888 2.33468 9.15932 36.8 66.1)"/></g></svg>