<svg xmlns="http://www.w3.org/2000/svg" viewBox="0 0 200 133"><filter id="b"><feGaussianBlur stdDeviation="12" /></filter><path fill="#3c426c" d="M0 0h200v133H0z"/><g filter="url(#b)" transform="translate(.5 .5)" fill-opacity=".5"><ellipse fill="#8fff89" rx="1" ry="1" transform="rotate(-55.1 64.3 -123.2) scale(57.19594 48.00609)"/><ellipse fill="#00000d" rx="1" ry="1" transform="matrix(-26.6963 2.24175 -9.86626 -117.49412 18.3 68.6)"/><path fill="#ffc9ff" d="M68 91l66 23-90 5z"/><ellipse fill="#3331f5" cx="199" cy="30" rx="44" ry="44"/><ellipse fill="#f3c0df" cx="102" cy="81" rx="13" ry="17"/><path fill="#fdf" d="M163 104h20v13h-20z"/><ellipse cx="151" cy="128" rx="148" ry="9"/><path fill="#efc8ff" d="M70 106h63v12H70z"/><ellipse fill="#c1e875" rx="1" ry="1" transform="rotate(162.8 61.8 18.2) scale(21.96223 21.8532)"/><ellipse fill="#18006d" rx="1" ry="1" transform="matrix(23.90772 -5.16903 6.7242 31.10069 145 84.4)"/><ellipse fill="#00004c" rx="1" ry="1" transform="matrix(-20.06192 -15.649 25.10286 -32.18173 27.7 29)"/><ellipse fill="#008d4e" cx="78" cy="25" rx="13" ry="30"/><ellipse fill="#b7a2c9" cx="174" cy="40" rx="4" ry="77"/><path fill="#ba80d4" d="M51.3 52.9l.4 22-15 .2-.4-22z"/><ellipse fill="#13005e" rx="1" ry="1" transform="matrix(-19.91802 -.01176 .02789 -47.24926 199 92)"/><path fill="#50123b" d="M113 106l-6-28-29 25z"/><ellipse fill="#090022" cx="34" cy="81" rx="49" ry="16"/><ellipse fill="#330bea" rx="1" ry="1" transform="matrix(-15.28289 3.98607 -8.02693 -30.77581 192.4 22.4)"/><path fill="#150353" d="M19 102h56v6H19z"/><path fill="#08ab84" d="M124 35h43v19h-43z"/><path fill="#a045ff" d="M0 131h200v2H0z"/><path fill="#96568d" d="M85.2 57.6L130.7 75 111 59.6l-4.5-19.8z"/></g></svg>