<svg xmlns="http://www.w3.org/2000/svg" viewBox="0 0 200 133"><filter id="b"><feGaussianBlur stdDeviation="12" /></filter><path fill="#0c080a" d="M0 0h200v133H0z"/><g filter="url(#b)" transform="translate(.5 .5)" fill-opacity=".5"><ellipse fill="#505b6d" cx="28" cy="83" rx="9" ry="27"/><path fill="#5d6361" d="M168 103l21 3-4-56z"/><path fill="#c7c6c4" d="M56.2 72.6l29.2-6.4-3.8 3.2-27.2 9.3z"/><path fill="#a4adc6" d="M141 81l-23-19 12-1z"/><ellipse fill="#7986b3" rx="1" ry="1" transform="matrix(4.152 7.87498 -3.77552 1.9906 134.9 101.2)"/><path fill="#effff2" d="M75 99h3v11h-3z"/><path fill="#fff" d="M123 70l3-3-6-4z"/><path fill="#b3aeb2" d="M178 69l11-7-2-7z"/><ellipse fill="#8d96b6" rx="1" ry="1" transform="matrix(1.52118 7.11585 -3.46414 .74054 26.3 65.3)"/><path fill="#030103" d="M125 0h58v76h-58z"/><path d="M-14.7 68.3L-.5 24.2l29.8 47.4-1 23z"/><path fill="#bdc6b4" d="M184 99h5v10h-5z"/><path fill="#fff" d="M24 91l3 3-8 3z"/><ellipse fill="#fff" cx="178" cy="84" rx="2" ry="6"/><ellipse rx="1" ry="1" transform="matrix(8.89914 1.55093 -2.73584 15.69805 190.4 83)"/><path fill="#7a5320" d="M115.2 117.9l11.8 1.3-18.7 4.5L96 118z"/><ellipse rx="1" ry="1" transform="matrix(7.70614 -34.76014 52.86352 11.71956 87 28.9)"/><path fill="#607074" d="M41.8 102.8l-10.6 3-3-10.6 10.6-3z"/><path d="M188 148l9-23-26-42z"/><path fill="#d9d9e3" d="M30 79h3v13h-3z"/><path fill="#030000" d="M25.3 100l-41.3 1.8L27.7 148l5.4-63.8z"/><path fill="#424e52" d="M174 65h9v19h-9z"/></g></svg>