<svg xmlns="http://www.w3.org/2000/svg" viewBox="0 0 700 353"><filter id="b"><feGaussianBlur stdDeviation="12" /></filter><path fill="#664f5f" d="M0 0h700v352H0z"/><g filter="url(#b)" transform="translate(1.4 1.4) scale(2.73438)" fill-opacity=".5"><ellipse fill="#ffd7ff" rx="1" ry="1" transform="matrix(-85.8566 -4.64983 2.37549 -43.86216 134.4 88.2)"/><ellipse rx="1" ry="1" transform="matrix(7.12386 104.28263 -38.74235 2.6466 244.3 36)"/><ellipse rx="1" ry="1" transform="matrix(5.56515 -80.63297 33.89104 2.3391 22.9 50.9)"/><path fill="#000100" d="M253.7 21.4l-1.6 30-127.8-6.8 1.6-30z"/><ellipse cx="240" cy="45" rx="29" ry="100"/><ellipse cx="17" cy="71" rx="36" ry="46"/><path fill="#eca0e1" d="M148 47h60v78h-60z"/><ellipse fill="#fac0f7" cx="112" cy="65" rx="59" ry="20"/><ellipse fill="#0d0800" rx="1" ry="1" transform="rotate(-7 1104.7 -1096.6) scale(4.81081 42.44554)"/><ellipse fill="#e190df" rx="1" ry="1" transform="matrix(-19.66988 8.22809 -13.33239 -31.8721 76.1 96.3)"/><ellipse fill="#333422" rx="1" ry="1" transform="rotate(-179 59.3 8.2) scale(118.77196 29.04429)"/><ellipse fill="#6e3725" cx="157" cy="91" rx="19" ry="6"/><path fill="#0e0a00" d="M62.9 130l-23-1.1 1.2-23 23 1.2z"/><path fill="#a89f96" d="M110 9h43v10h-43z"/><path fill="#fbacf3" d="M208 106h10v20h-10z"/><path fill="#703f34" d="M92 87h55v10H92z"/><path fill="#db91db" d="M59 48h34v59H59z"/><path d="M12.8 20.5L99-16-16 2.3 4.6 144z"/><ellipse fill="#793938" cx="165" cy="127" rx="172" ry="4"/><path fill="#ab8e74" d="M0 117h38v8H0z"/><path fill="#797377" d="M36 23L20 40.2 18 24 33.2 8.3z"/><path fill="#ddf2df" d="M144.8 86.1L94.5 64.2 106.8 5l-15 81z"/></g></svg>