<svg xmlns="http://www.w3.org/2000/svg" viewBox="0 0 700 467"><filter id="b"><feGaussianBlur stdDeviation="12" /></filter><path fill="#5e664c" d="M0 0h700v464H0z"/><g filter="url(#b)" transform="translate(1.4 1.4) scale(2.73438)" fill-opacity=".5"><ellipse fill="#fff" rx="1" ry="1" transform="matrix(-65.51284 -148.361 40.23767 -17.76804 0 118)"/><ellipse fill="#ebe8ff" rx="1" ry="1" transform="rotate(147.1 56.4 108.5) scale(50.93014 29.56381)"/><ellipse fill="#001b00" rx="1" ry="1" transform="matrix(-58.06696 16.93684 -10.04876 -34.45159 95.9 115.8)"/><ellipse fill="#fffff7" cx="65" cy="71" rx="21" ry="26"/><ellipse rx="1" ry="1" transform="matrix(-9.04077 20.5229 -76.45694 -33.68087 32 13.7)"/><ellipse fill="#001500" rx="1" ry="1" transform="matrix(-22.477 37.12606 -111.08654 -67.25446 202.5 20.6)"/><ellipse fill="#fffac1" rx="1" ry="1" transform="matrix(-1.45727 -23.29163 23.37418 -1.46243 131 54)"/><path fill="#fff5ff" d="M122.6 166.5l-9 36-124.2-31 9-36z"/><ellipse fill="#d5ca92" rx="1" ry="1" transform="matrix(-18.06929 36.56043 -14.34712 -7.09079 170.6 90.4)"/><ellipse fill="#092000" rx="1" ry="1" transform="rotate(138.9 88.4 91.3) scale(33.25346 25.01362)"/><path fill="#fff" d="M0 34h19v29H0z"/><ellipse cx="46" cy="23" rx="30" ry="25"/><ellipse fill="#182c00" cx="108" cy="121" rx="42" ry="42"/><ellipse fill="#dee4ef" rx="1" ry="1" transform="matrix(47.27887 -12.49859 3.14937 11.91323 25.4 85.5)"/><ellipse fill="#596240" cx="27" cy="109" rx="41" ry="12"/><ellipse cx="96" cy="60" rx="9" ry="35"/><path fill="#d6d49f" d="M103.2 24.3l-39.9-16 7.5-18.6 39.9 16z"/><ellipse rx="1" ry="1" transform="matrix(14.12005 -9.83969 6.41691 9.20834 140.3 85)"/><path fill="#7072af" d="M256 155l15-97-73 119z"/><path d="M121 0h34v32h-34z"/><path fill="#f2f9e2" d="M61 50.8l1.4-8L87 47.3l-1.4 8z"/><ellipse fill="#283a00" cx="228" cy="46" rx="31" ry="69"/></g></svg>