<svg xmlns="http://www.w3.org/2000/svg" viewBox="0 0 200 133"><filter id="b"><feGaussianBlur stdDeviation="12" /></filter><path fill="#33363f" d="M0 0h200v133H0z"/><g filter="url(#b)" transform="translate(.5 .5)" fill-opacity=".5"><path fill="#a1c0ae" d="M5 37.8l19-43 21 9.4-19 43z"/><ellipse fill="#afaba1" cx="75" cy="5" rx="19" ry="19"/><path d="M72.8 28.5l-15.5 58-26.1-7 15.5-58z"/><ellipse fill="#d3e3ff" rx="1" ry="1" transform="rotate(116.1 19.6 59.6) scale(12.73037 3.89033)"/><path fill="#010920" d="M29 96.5h152v51H29z"/><ellipse fill="#8d7874" cx="95" cy="44" rx="19" ry="19"/><ellipse fill="#c8a086" cx="132" cy="45" rx="6" ry="17"/><ellipse fill="#a17e64" cx="199" cy="26" rx="18" ry="18"/><ellipse fill="#0b0e18" rx="1" ry="1" transform="matrix(-23.96533 -51.1118 3.48812 -1.63551 74.4 6.3)"/><ellipse fill="#997a67" rx="1" ry="1" transform="rotate(-102 89.3 -51) scale(27.70241 4.90279)"/><ellipse fill="#f2ffff" cx="75" cy="91" rx="4" ry="5"/><path fill="#9fada5" d="M111.9-2.8l-36.1 10L124.4-16l-8.7 50.3z"/><ellipse fill="#2a2c29" cx="4" cy="34" rx="14" ry="49"/><path fill="#95897d" d="M36 9h59v10H36z"/><ellipse fill="#9cb7b0" cx="25" cy="45" rx="2" ry="72"/><path d="M120.5 3.6L133 .2l6.5 24.2-12.5 3.4z"/><ellipse fill="#566773" cx="12" cy="114" rx="9" ry="32"/><ellipse fill="#273358" cx="104" cy="81" rx="24" ry="26"/><path fill="#eaead5" d="M-5.8 30.5L8.1 47.6l-2.3 1.9-13.9-17.1z"/><path d="M185 14L169-2l-14 19z"/><path fill="#f9efec" d="M85 92h13v4H85z"/><ellipse fill="#06090c" rx="1" ry="1" transform="matrix(18.77503 1.7651 -.83179 8.84763 52 92.4)"/></g></svg>