<svg xmlns="http://www.w3.org/2000/svg" viewBox="0 0 700 467"><filter id="b"><feGaussianBlur stdDeviation="12" /></filter><path fill="#121327" d="M0 0h700v464H0z"/><g filter="url(#b)" transform="translate(1.4 1.4) scale(2.73438)" fill-opacity=".5"><ellipse fill="#754e5c" cx="130" cy="129" rx="49" ry="49"/><ellipse fill="#000a81" rx="1" ry="1" transform="matrix(-46.63787 25.62831 -14.85252 -27.02831 116.9 14.9)"/><ellipse cx="247" cy="60" rx="77" ry="77"/><ellipse rx="1" ry="1" transform="matrix(-63.67849 -12.03218 14.05915 -74.40594 11.7 62.9)"/><ellipse fill="#4c281b" rx="1" ry="1" transform="matrix(-7.75166 -20.19376 50.13543 -19.24519 161.6 109)"/><path fill="#6561ad" d="M97 147h70v12H97z"/><ellipse fill="#1e24a6" cx="29" cy="149" rx="28" ry="8"/><path fill="#296bff" d="M107 9h7v19h-7z"/><ellipse fill="#2866ff" rx="1" ry="1" transform="rotate(-136.7 76.4 -21.2) scale(6.92995 5.34703)"/><ellipse fill="#00352d" rx="1" ry="1" transform="matrix(62.34306 -2.89561 .84094 18.10555 120 72.6)"/><path fill="#1a1d86" d="M271 152l-54 6-21-25z"/><path fill="#000e13" d="M108.4 134.3l14.3-22.9 22.9 14.3-14.3 22.9z"/><ellipse fill="#b0216c" rx="1" ry="1" transform="matrix(-3.32306 8.06235 -11.14068 -4.59186 155.7 104.2)"/><ellipse fill="#79483c" rx="1" ry="1" transform="matrix(-36.64743 21.58844 -4.87689 -8.27875 98.7 109.2)"/><ellipse fill="#000e3a" cx="70" cy="31" rx="35" ry="35"/><path fill="#002fff" d="M71 14h9v14h-9z"/><ellipse cx="16" cy="53" rx="25" ry="83"/><ellipse cx="252" cy="56" rx="41" ry="80"/><ellipse fill="#000100" cx="74" cy="162" rx="23" ry="18"/><ellipse rx="1" ry="1" transform="matrix(9.6788 -14.97885 24.24187 15.66423 191.5 169)"/><path fill="#acb4ca" d="M123 110l-9-3 7-15z"/><ellipse fill="#000003" cx="60" rx="46" ry="14"/></g></svg>