<svg xmlns="http://www.w3.org/2000/svg" viewBox="0 0 700 467"><filter id="b"><feGaussianBlur stdDeviation="12" /></filter><path fill="#978b83" d="M0 0h700v464H0z"/><g filter="url(#b)" transform="translate(1.4 1.4) scale(2.73438)" fill-opacity=".5"><ellipse fill="#2f1000" cx="215" cy="109" rx="45" ry="45"/><ellipse fill="#e6f6f9" cx="152" rx="80" ry="80"/><ellipse cx="44" cy="127" rx="27" ry="27"/><ellipse fill="#000904" cx="146" cy="115" rx="67" ry="18"/><ellipse fill="#f8eee3" rx="1" ry="1" transform="matrix(-1.81439 -35.8165 17.31687 -.87724 202.5 75.3)"/><ellipse fill="#d9d0da" cy="23" rx="112" ry="56"/><path fill="#00000e" d="M82 78h29v52H82z"/><ellipse fill="#ffd7ff" cx="6" cy="93" rx="14" ry="28"/><path fill="#506d93" d="M174 48L71 53l55-32z"/><ellipse fill="#fff" rx="1" ry="1" transform="matrix(-8.31957 -.3824 .72924 -15.86577 117.5 100.3)"/><path fill="#9e3700" d="M230 47h26v63h-26z"/><ellipse rx="1" ry="1" transform="matrix(-16.68869 20.11155 -10.4062 -8.63513 36.1 134.7)"/><ellipse fill="#fff7e1" cx="145" cy="95" rx="5" ry="45"/><ellipse rx="1" ry="1" transform="matrix(-7.86954 -19.2837 14.44575 -5.8952 225.4 129.5)"/><ellipse fill="#7d431f" cx="56" cy="40" rx="26" ry="12"/><ellipse fill="#cab48d" cx="109" cy="163" rx="74" ry="36"/><path fill="#3e2e25" d="M176.2 65.8l-21.8 8-5.6 27.2 36.5-14.5z"/><path d="M141.6 82.2l-2.3 26.9-15-1.3 2.4-26.9z"/><path fill="#111" d="M44 82h20v27H44z"/><ellipse fill="#c6b287" rx="1" ry="1" transform="rotate(-157.7 125 63.1) scale(38.17088 23.32781)"/><path d="M230 22h13v14h-13z"/><path fill="#1a3e7d" d="M101 53h18v21h-18z"/></g></svg>