<svg xmlns="http://www.w3.org/2000/svg" viewBox="0 0 700 467"><filter id="b"><feGaussianBlur stdDeviation="12" /></filter><path fill="#4a3e36" d="M0 0h700v464H0z"/><g filter="url(#b)" transform="translate(1.4 1.4) scale(2.73438)" fill-opacity=".5"><ellipse fill="#a5ffff" rx="1" ry="1" transform="matrix(6.28153 22.9614 -32.37166 8.85588 115.3 59)"/><ellipse fill="#b7866e" cx="118" cy="114" rx="224" ry="19"/><ellipse rx="1" ry="1" transform="matrix(215.14083 -11.27505 .98643 18.82217 94.8 169)"/><ellipse cx="91" cy="13" rx="255" ry="23"/><ellipse fill="#98cfff" cx="118" cy="61" rx="29" ry="21"/><ellipse fill="#868b6f" rx="1" ry="1" transform="matrix(-41.91082 -12.63895 5.35145 -17.74545 216 53.5)"/><ellipse fill="#0f0600" cx="70" cy="61" rx="17" ry="31"/><ellipse fill="#100" cx="211" cy="164" rx="98" ry="31"/><ellipse fill="#0071ff" cx="124" cy="41" rx="39" ry="6"/><ellipse fill="#898560" rx="1" ry="1" transform="rotate(154.1 .9 31.2) scale(47.48668 16.28185)"/><ellipse cx="158" cy="56" rx="13" ry="19"/><ellipse cx="80" cy="21" rx="172" ry="12"/><path fill="#001015" d="M133.1 98.5l2.4 21.1-37-28.5 11-9.4z"/><ellipse fill="#f3bb9e" cx="74" cy="125" rx="165" ry="3"/><ellipse fill="#281108" cx="40" cy="138" rx="10" ry="75"/><ellipse fill="#530000" cx="23" cy="141" rx="250" ry="4"/><path fill="#ceac8d" d="M234 108l37-83v74z"/><ellipse fill="#7e5844" cx="112" cy="4" rx="57" ry="5"/><path fill="#111301" d="M209.3 118.4l1.6-13 33.8 4.2-1.6 13z"/><path fill="#070000" d="M-16 185v-45l169 25z"/><ellipse fill="#ff0407" cx="147" cy="114" rx="8" ry="11"/><path fill="#879763" d="M194.6 39l-3-24.8 9.8-1.2 3 24.8z"/></g></svg>