<svg xmlns="http://www.w3.org/2000/svg" viewBox="0 0 700 467"><filter id="b"><feGaussianBlur stdDeviation="12" /></filter><path fill="#73605b" d="M0 0h700v464H0z"/><g filter="url(#b)" transform="translate(1.4 1.4) scale(2.73438)" fill-opacity=".5"><ellipse fill="#fff" rx="1" ry="1" transform="matrix(67.59256 16.97808 -4.10322 16.33562 146.2 67.8)"/><ellipse fill="#400" cx="233" cy="113" rx="126" ry="25"/><ellipse fill="#fff" rx="1" ry="1" transform="rotate(94.7 -1.2 146) scale(32.68771 26.03726)"/><ellipse fill="#e60000" rx="1" ry="1" transform="matrix(-2.61424 98.30981 -16.25595 -.43227 72.3 98.5)"/><ellipse fill="#cbeefa" rx="1" ry="1" transform="rotate(-172 23.4 24.9) scale(17.25728 89.24968)"/><ellipse fill="#00000c" rx="1" ry="1" transform="matrix(-36.79033 6.09562 -12.2193 -73.75 255 68.4)"/><ellipse fill="#00090c" cx="5" cy="169" rx="91" ry="29"/><ellipse fill="#006d09" rx="1" ry="1" transform="matrix(10.79275 -23.57145 48.80388 22.346 141.2 27.8)"/><ellipse fill="#004ea9" rx="1" ry="1" transform="matrix(19.08215 1.03345 -5.33153 98.44384 7.4 42)"/><ellipse fill="#fff" cx="107" cy="65" rx="23" ry="23"/><path fill="#b1dfc7" d="M178 15h37v80h-37z"/><ellipse fill="#7c0000" rx="1" ry="1" transform="matrix(35.1398 16.2293 -10.17525 22.03153 192.1 120.2)"/><ellipse fill="#fff" rx="1" ry="1" transform="rotate(-78.1 197 -30) scale(9.31704 34.06169)"/><ellipse fill="#aa0b00" cx="70" cy="142" rx="19" ry="114"/><ellipse fill="#eff" rx="1" ry="1" transform="matrix(-30.53338 -19.87394 4.75594 -7.3068 160.4 0)"/><path fill="#9f0000" d="M112.2 104.4l4.6-23.5 55 10.7-4.6 23.5z"/><path fill="#fff" d="M91 9.5l-6.3 70L104.5-16l-8.8 6.7z"/><ellipse fill="#d1eefa" cx="255" cy="152" rx="45" ry="9"/><ellipse fill="#42caff" rx="1" ry="1" transform="matrix(-8.18314 50.82533 -6.74978 -1.08675 8 57.4)"/><path fill="#0e0000" d="M108 114l17 24-56 47z"/><ellipse fill="#0c0000" rx="1" ry="1" transform="matrix(-43.76584 -10.58807 1.42736 -5.9 206.8 159)"/><ellipse fill="#edffff" cx="149" cy="72" rx="35" ry="13"/></g></svg>