<svg xmlns="http://www.w3.org/2000/svg" viewBox="0 0 200 133"><filter id="b"><feGaussianBlur stdDeviation="12" /></filter><path fill="#33363f" d="M0 0h200v133H0z"/><g filter="url(#b)" transform="translate(.5 .5)" fill-opacity=".5"><path fill="#abcbb9" d="M9 23l38-39-19 70z"/><ellipse fill="#aaa79f" cx="76" cy="6" rx="20" ry="19"/><path fill="#908285" d="M91 17l27 26-45 39z"/><ellipse fill="#040c23" cx="127" cy="124" rx="100" ry="30"/><ellipse cx="50" cy="48" rx="22" ry="27"/><path fill="#b49587" d="M127 33h11v31h-11z"/><ellipse fill="#ac8769" cx="194" cy="24" rx="12" ry="15"/><path fill="#947462" d="M172 39L149-6l9 59z"/><ellipse fill="#090f17" cx="43" cy="90" rx="17" ry="39"/><path fill="#9ea190" d="M41.8 1.5L10 9.6l34.5 10.9 11.3-2.9z"/><path fill="#fff" d="M80.8 73.3l-2.6-1.5 11-19 2.6 1.4z"/><path fill="#b9cdc7" d="M25 26h2v100h-2z"/><ellipse fill="#bec7b0" cx="116" rx="4" ry="24"/><path fill="#adb0c0" d="M79.8 92.5l24.7 2.8-30.9 2L72.3 75z"/><path fill="#0d0f10" d="M95 6h51v23H95z"/><ellipse fill="#1d2239" rx="1" ry="1" transform="matrix(-4.78452 2.03133 -25.33099 -59.66361 94.5 53.3)"/><ellipse fill="#596b79" rx="1" ry="1" transform="matrix(-4.0728 -21.32774 8.28852 -1.5828 13.9 114.2)"/><path fill="#8c7768" d="M87.3 51l-9.7-31.4L76 66.2V54z"/><ellipse fill="#283356" cx="119" cy="76" rx="37" ry="24"/><path d="M157.2 14.9l-13.6 9.7 31-8.7-1.5-31.9z"/><path fill="#eeedd2" d="M-6.4 24L7.2 49.6l-.8.4-13.6-25.6z"/><ellipse fill="#a2ac9c" cx="116" cy="9" rx="3" ry="26"/></g></svg>