<svg xmlns="http://www.w3.org/2000/svg" viewBox="0 0 200 133"><filter id="b"><feGaussianBlur stdDeviation="12" /></filter><path fill="#b8b4b1" d="M0 0h200v133H0z"/><g filter="url(#b)" transform="translate(.5 .5)" fill-opacity=".5"><ellipse rx="1" ry="1" transform="matrix(6.42543 39.38283 -56.3392 9.1919 50 113.9)"/><ellipse fill="#fff" cx="70" rx="79" ry="79"/><ellipse fill="#fff" cx="155" cy="18" rx="199" ry="34"/><ellipse fill="#7c7b6e" cx="88" cy="66" rx="73" ry="18"/><ellipse fill="#0f1f00" rx="1" ry="1" transform="matrix(28.36746 -34.75742 16.85603 13.75714 72.6 113.4)"/><path fill="#fff" d="M213 60L-16 12l214-28z"/><ellipse fill="#a36a6f" rx="1" ry="1" transform="matrix(-14.29951 29.84539 -53.74379 -25.7497 171.1 130)"/><path fill="#0e2100" d="M48 120l-52-6 29-43z"/><ellipse fill="#eaedeb" cx="46" cy="60" rx="14" ry="41"/><ellipse fill="#dcedff" cx="157" cy="83" rx="50" ry="9"/><ellipse fill="#fff" rx="1" ry="1" transform="matrix(29.3771 5.33872 -7.06266 38.86331 163.3 26.6)"/><path fill="#a5a9b2" d="M-16 130l42-13 37 18z"/><ellipse fill="#a0918a" cx="97" cy="45" rx="10" ry="22"/><ellipse fill="#fff" rx="1" ry="1" transform="matrix(132.87327 -56.46405 13.07447 30.76732 54 8.4)"/><path fill="#784f3f" d="M114 52h29v24h-29z"/><path fill="#b1898b" d="M113.5 144l5.4-74.5-22 78.2-.9-38.3z"/><ellipse fill="#6f7950" rx="1" ry="1" transform="matrix(4.19631 4.95841 -40.79447 34.5244 2.3 98.4)"/><ellipse fill="#fff" cx="169" cy="20" rx="66" ry="32"/><path fill="#fff" d="M120.3 46l17.6 9.6L106.5-16l3 81.2z"/><path fill="#364113" d="M95 91l16-24 5 7z"/><path fill="#68766b" d="M128 65h49v11h-49z"/><ellipse fill="#935a59" cx="165" cy="97" rx="33" ry="4"/></g></svg>