<svg xmlns="http://www.w3.org/2000/svg" viewBox="0 0 200 133"><filter id="b"><feGaussianBlur stdDeviation="12" /></filter><path fill="#797969" d="M0 0h200v133H0z"/><g filter="url(#b)" transform="translate(.5 .5)" fill-opacity=".5"><ellipse fill="#273600" rx="1" ry="1" transform="matrix(44.68133 -5.06248 10.4773 92.47235 165.8 88.8)"/><ellipse fill="#fff" rx="1" ry="1" transform="matrix(2.975 24.02395 -46.76634 5.79129 73.7 131.3)"/><ellipse fill="#fff" cx="46" cy="19" rx="75" ry="12"/><path fill="#fef7ff" d="M89 40h26v51H89z"/><ellipse fill="#d8f1ff" rx="1" ry="1" transform="matrix(-1.80889 36.57574 -10.50263 -.51942 37.3 88.4)"/><ellipse fill="#0e0000" cx="73" cy="59" rx="14" ry="38"/><path d="M136.5 69.8l38 81.5-19 9-38-81.6z"/><ellipse fill="#fff" cx="199" cy="16" rx="8" ry="51"/><ellipse fill="#000001" cx="4" cy="81" rx="8" ry="42"/><path fill="#bcc79e" d="M127 70l-13-48 34-4z"/><ellipse fill="#aab2f5" rx="1" ry="1" transform="matrix(12.46273 14.80763 -18.12698 15.25643 33 70.6)"/><path fill="#fff" d="M79 113h33v20H79z"/><path fill="#d3d2ac" d="M172 78l9.5 5.6-17.5 30.3-9.5-5.5z"/><ellipse fill="#405600" cx="161" cy="21" rx="32" ry="32"/><ellipse cx="159" cy="128" rx="30" ry="11"/><ellipse fill="#fff" cy="4" rx="10" ry="35"/><path fill="#fff" d="M18 11h83v13H18z"/><ellipse fill="#01031a" rx="1" ry="1" transform="matrix(-7.50738 -7.45957 19.36012 -19.4842 70 73.7)"/><path fill="#f7e4e6" d="M42.8 48.9l27.4-33.4L8 6.8l65.8 28.1z"/><ellipse fill="#543a33" cx="12" cy="106" rx="19" ry="23"/><ellipse fill="#294400" rx="1" ry="1" transform="matrix(-11.69697 -37.67152 3.5322 -1.09674 107.2 19.5)"/><path fill="#fff" d="M103 72h16v8h-16z"/></g></svg>