<svg xmlns="http://www.w3.org/2000/svg" viewBox="0 0 700 467"><filter id="b"><feGaussianBlur stdDeviation="12" /></filter><path fill="#a1867d" d="M0 0h700v464H0z"/><g filter="url(#b)" transform="translate(1.4 1.4) scale(2.73438)" fill-opacity=".5"><ellipse fill="#ffffe2" cx="77" cy="22" rx="109" ry="31"/><ellipse cx="159" cy="95" rx="37" ry="35"/><ellipse fill="#6e0000" rx="1" ry="1" transform="matrix(1.96896 34.148 -24.56113 1.41619 61.2 91.2)"/><ellipse fill="#000025" rx="1" ry="1" transform="matrix(-24.8891 54.59944 -10.33029 -4.70905 244 105.8)"/><path fill="#feffff" d="M229 114.5h-32v-51h32z"/><ellipse fill="#521600" cx="207" cy="21" rx="25" ry="18"/><ellipse fill="#e1d8d0" rx="1" ry="1" transform="matrix(-23.51188 8.15357 -21.80275 -62.8711 10.3 90.4)"/><path fill="#fff" d="M104.5 54.1l9.5 45-22.5 4.8-9.5-45z"/><ellipse fill="#7f532a" cx="156" cy="143" rx="43" ry="31"/><path d="M60 91l-15 27-13-65z"/><ellipse fill="#e00" rx="1" ry="1" transform="matrix(-2.5015 39.7601 -9.89596 -.6226 74.9 94.9)"/><ellipse rx="1" ry="1" transform="matrix(3.05741 35.66314 -12.21795 1.04745 147.3 94.7)"/><ellipse fill="#fffce5" rx="1" ry="1" transform="matrix(-46.8391 -13.69671 6.25425 -21.38788 71.9 16.3)"/><path fill="#f6eadf" d="M143.5 13.5L173 94.7l4.2-52.3 43.5 3.3z"/><ellipse fill="#2f1d10" cx="249" cy="144" rx="8" ry="104"/><ellipse fill="#324673" cx="107" cy="127" rx="16" ry="28"/><ellipse fill="#ae6043" rx="1" ry="1" transform="rotate(75 -9.2 65.9) scale(27.40753 14.20717)"/><path fill="#c4ceec" d="M220 87l-36 50 54-22z"/><ellipse fill="#c4d1e2" cx="60" cy="110" rx="4" ry="43"/><ellipse fill="#caaa99" rx="1" ry="1" transform="rotate(77 14.3 115.2) scale(62.23963 7.43083)"/><path fill="#e3d1cd" d="M96 135.3l-59.2 11.8 44.7-25.4 8.8-66.5z"/><path fill="#040613" d="M172 77h25v42h-25z"/></g></svg>