<svg xmlns="http://www.w3.org/2000/svg" viewBox="0 0 200 120"><filter id="b"><feGaussianBlur stdDeviation="12" /></filter><path fill="#d4d5cf" d="M0 0h200v120H0z"/><g filter="url(#b)" transform="translate(.5 .5)" fill-opacity=".5"><ellipse fill="#2e4700" rx="1" ry="1" transform="matrix(50.1381 -5.80118 1.84343 15.93229 145.6 7.5)"/><ellipse fill="#00000f" cx="17" cy="88" rx="17" ry="12"/><ellipse fill="#866448" rx="1" ry="1" transform="matrix(22.99629 -.2272 .38026 38.48833 199 36.4)"/><ellipse fill="#fff" rx="1" ry="1" transform="matrix(-17.53876 31.10606 -59.9514 -33.80284 154.3 87.7)"/><ellipse fill="#fffaff" cx="47" cy="24" rx="52" ry="52"/><path fill="#051000" d="M136 43h-14l2-48z"/><path fill="#fff" d="M164 135L135 32l45-10z"/><path fill="#648100" d="M151.8-.9l4.2 20.7-54.2 6.4-2.6-22.9z"/><ellipse fill="#899269" rx="1" ry="1" transform="matrix(4.98043 -8.63356 23.85895 13.76346 94.6 108.4)"/><path fill="#fff" d="M100.8 57.8l6.4 22-50 14.4-6.4-22z"/><path fill="#697181" d="M42 71h9v43h-9z"/><path d="M118 53h19v4h-19z"/><ellipse fill="#fffffa" cx="160" cy="5" rx="8" ry="6"/><path fill="#b8b8bf" d="M1.6 92l19-2 1.8 18-19 2z"/><path fill="#cba992" d="M61 28.8l22 1.5-2 27-22-1.6z"/><path fill="#393c4d" d="M178 57l-1-26 38 59z"/><ellipse fill="#000207" cx="15" cy="87" rx="18" ry="4"/><path fill="#2f1b27" d="M167.4 27.6l-11.7-6-6.7-6.3.4-19.8z"/><path fill="#fff" d="M68 102l-78 19 132 14z"/><ellipse fill="#fff" rx="1" ry="1" transform="matrix(38.56207 45.79393 -20.29683 17.09152 190 105.5)"/><path fill="#618000" d="M186-16l-8 38-10-6z"/><ellipse fill="#fcfeff" rx="1" ry="1" transform="matrix(-40.5445 -48.83608 11.9216 -9.8975 37.7 37.3)"/></g></svg>