<svg xmlns="http://www.w3.org/2000/svg" viewBox="0 0 200 133"><filter id="b"><feGaussianBlur stdDeviation="12" /></filter><path fill="#a7a7ae" d="M0 0h200v133H0z"/><g filter="url(#b)" transform="translate(.5 .5)" fill-opacity=".5"><ellipse fill="#08102c" cx="102" cy="118" rx="28" ry="89"/><ellipse cx="199" cy="69" rx="30" ry="30"/><ellipse fill="#fdffff" cx="29" cy="22" rx="48" ry="139"/><path fill="#fff" d="M142 53L102 8l113 1z"/><ellipse fill="#1a1000" cx="194" cy="94" rx="12" ry="48"/><path fill="#354868" d="M17 44h37v17H17z"/><path fill="#050501" d="M87.8 148h57.7L98.8 98.3l-18.1-5.8z"/><ellipse fill="#e7e1e1" rx="1" ry="1" transform="matrix(-15.47234 .6768 -1.7402 -39.78303 159.8 95)"/><path fill="#2e2c27" d="M83 11l-1-27 48 24z"/><ellipse fill="#1f0000" cy="71" rx="5" ry="19"/><ellipse fill="#fff" cx="18" cy="17" rx="32" ry="28"/><ellipse fill="#697496" rx="1" ry="1" transform="matrix(-11.05666 19.08611 -29.35078 -17.00302 113 66)"/><path fill="#872700" d="M129.1 93.7L149 79.8l-15-5.2L91.6 105z"/><ellipse fill="#c0c1c4" cx="72" cy="126" rx="11" ry="38"/><ellipse fill="#fff" rx="1" ry="1" transform="matrix(23.10924 -15.96567 9.62192 13.9271 8.1 99.5)"/><path fill="#af4f33" d="M90 11h19v31H90z"/><path fill="#4f4d4e" d="M187.3-1.7l.3 9-71 2.4-.2-9z"/><path fill="#ecf6ff" d="M176 11h5v91h-5z"/><ellipse fill="#fff" cx="196" cy="10" rx="5" ry="27"/><path fill="#fff" d="M117 10h55v22h-55z"/><path fill="#425360" d="M182 8h10v49h-10z"/><ellipse fill="#090000" cx="14" cy="75" rx="27" ry="2"/></g></svg>