<svg xmlns="http://www.w3.org/2000/svg" viewBox="0 0 700 467"><filter id="b"><feGaussianBlur stdDeviation="12" /></filter><path fill="#4f555a" d="M0 0h700v464H0z"/><g filter="url(#b)" transform="translate(1.4 1.4) scale(2.73438)" fill-opacity=".5"><ellipse fill="#afc6dd" cx="41" cy="86" rx="57" ry="57"/><ellipse cx="172" cy="137" rx="67" ry="67"/><ellipse fill="#93a4b5" cy="12" rx="160" ry="22"/><ellipse fill="#e4ffff" rx="1" ry="1" transform="matrix(-5.17775 -.68166 4.65062 -35.32497 114.7 90.7)"/><ellipse cx="163" cy="113" rx="40" ry="40"/><ellipse fill="#2f2a24" cx="255" cy="102" rx="93" ry="93"/><ellipse fill="#ffbb8d" rx="1" ry="1" transform="matrix(-1.98865 14.36726 -7.63822 -1.05725 170.2 58.1)"/><ellipse fill="#616a70" rx="1" ry="1" transform="matrix(-56.09718 4.0211 -2.57641 -35.94278 66.7 52.2)"/><path fill="#a3b1c3" d="M14.8 67L3.7-15.2l-19.5 163 109.2-16.2z"/><ellipse fill="#656e78" cx="219" cy="98" rx="21" ry="21"/><path fill="#202525" d="M113.8 169.5L2.7 183.2l-4.5-36.7 111.1-13.7z"/><path fill="#000002" d="M129 64l-10 37 108 36z"/><path fill="#eebcab" d="M171 133.1l-10.6-10.7 22-.3-12.8 11.7z"/><ellipse fill="#cad4df" rx="1" ry="1" transform="matrix(9.9056 15.39899 -47.9911 30.87088 4.5 0)"/><path d="M93.2 125.8l11.8-67 7.8 1.4-11.8 67z"/><path fill="#eea178" d="M112 39h12v34h-12z"/><ellipse fill="#a0b4cf" cx="50" cy="46" rx="14" ry="14"/><path fill="#eadbdf" d="M122 113l-12-24 5 30z"/><path fill="#27669b" d="M91.3 169.7l15.6-67.2 7.8 1.8L99 171.5z"/><ellipse fill="#515d63" rx="1" ry="1" transform="matrix(13.95392 16.47345 -22.7789 19.295 88.6 50)"/><ellipse rx="1" ry="1" transform="rotate(-111.9 124.4 -16.8) scale(23.17679 12.18559)"/><path fill="#000d1e" d="M105.1 156.7l-2.1-83-4.6 41.6 27.2 4.3z"/></g></svg>