<svg xmlns="http://www.w3.org/2000/svg" viewBox="0 0 200 133"><filter id="b"><feGaussianBlur stdDeviation="12" /></filter><path fill="#675a4c" d="M0 0h200v133H0z"/><g filter="url(#b)" transform="translate(.5 .5)" fill-opacity=".5"><ellipse fill="#f9dc63" cx="11" cy="79" rx="12" ry="75"/><path fill="#f3f4cc" d="M130 48L54 74l161-6z"/><ellipse cx="56" cy="3" rx="36" ry="36"/><ellipse rx="1" ry="1" transform="matrix(-1.39903 -27.29527 38.62325 -1.97965 181.4 5.6)"/><ellipse cx="40" cy="95" rx="19" ry="19"/><path fill="#fcc" d="M173 121l-150 9 83 18z"/><ellipse fill="#deb581" cx="163" cy="102" rx="9" ry="71"/><ellipse fill="#b7e8b3" rx="1" ry="1" transform="matrix(8.91199 -.92096 2.23055 21.58462 189.9 54)"/><path fill="#bdc2db" d="M120 48h18v49h-18z"/><ellipse fill="#ffba8f" cx="66" cy="93" rx="9" ry="18"/><ellipse fill="#1b2328" rx="1" ry="1" transform="matrix(-15.41848 -13.26195 17.72278 -20.60468 97.4 102.7)"/><ellipse fill="#100000" cx="199" cy="112" rx="24" ry="19"/><path fill="#7c93d3" d="M5 0h17v47H5z"/><path fill="#140000" d="M22 0h36v49H22z"/><ellipse fill="#ff7745" rx="1" ry="1" transform="matrix(-.93566 -18.67395 7.93913 -.39779 37 53.7)"/><path fill="#001016" d="M169.9 86l8.6-54.6-27.3-27.7 40.2 94.4z"/><ellipse fill="#202138" cx="144" cy="75" rx="6" ry="51"/><path fill="#320c12" d="M8.7 122.7l-24.7 6.6 91-4.2-33.3-48.5z"/><path fill="#f2c210" d="M5.3 59l17.3-8.2-5.8 76.9-15.2-22.1z"/><ellipse fill="#bea7a7" cx="83" cy="52" rx="8" ry="24"/><ellipse fill="#f6acb3" cx="31" cy="132" rx="157" ry="6"/><path fill="#007096" d="M86 37l37 14-36 8z"/></g></svg>