<svg xmlns="http://www.w3.org/2000/svg" viewBox="0 0 700 467"><filter id="b"><feGaussianBlur stdDeviation="12" /></filter><path fill="#6e6067" d="M0 0h700v464H0z"/><g filter="url(#b)" transform="translate(1.4 1.4) scale(2.73438)" fill-opacity=".5"><ellipse fill="#63ffff" rx="1" ry="1" transform="matrix(-17.07677 108.33258 -36.91448 -5.81893 16.6 46.9)"/><ellipse fill="maroon" cx="195" cy="149" rx="118" ry="40"/><ellipse fill="#fff" cx="218" cy="97" rx="63" ry="14"/><ellipse fill="#fff" rx="1" ry="1" transform="rotate(12.9 30.7 936.8) scale(54.60608 12.43717)"/><ellipse fill="#003174" cx="35" cy="169" rx="65" ry="65"/><ellipse fill="#680000" rx="1" ry="1" transform="matrix(-23.22664 -2.97649 16.72874 -130.54055 137.3 62.7)"/><path fill="#fff" d="M263.5 115.7l-26.9-2.9 10-94.5 26.8 2.9z"/><ellipse fill="#002d59" rx="1" ry="1" transform="matrix(-16.07776 -3.35882 31.66431 -151.56852 70.2 50.7)"/><ellipse fill="#87cfff" cx="25" cy="35" rx="27" ry="94"/><ellipse fill="#800" rx="1" ry="1" transform="matrix(-111.28442 -23.8604 5.96872 -27.838 207 141.3)"/><ellipse cx="148" cy="40" rx="13" ry="75"/><ellipse fill="#e10600" cx="126" cy="47" rx="11" ry="89"/><ellipse fill="#f6ffff" cx="165" cy="56" rx="4" ry="51"/><ellipse fill="#c9c7a2" rx="1" ry="1" transform="rotate(-88.4 97.8 19.5) scale(33.37404 9.62956)"/><path fill="#bbc0a4" d="M121-18.5l-7 100.7-25-1.7 7-100.7z"/><path fill="#fff" d="M131 162h26v8h-26z"/><path fill="#0070c5" d="M-29.5 184.5l17.9-101.4 59 10.4-17.8 101.4z"/><path fill="#fff" d="M167 92h82v16h-82zm-2-89h36v20h-36z"/><ellipse fill="#41350c" rx="1" ry="1" transform="matrix(-38.37045 -8.50652 2.21949 -10.01147 204.2 76.8)"/><ellipse fill="#002f5e" cx="194" cy="155" rx="16" ry="11"/><ellipse fill="#000906" rx="1" ry="1" transform="matrix(49.2059 10.3351 -3.28126 15.62221 80.8 169)"/></g></svg>