<svg xmlns="http://www.w3.org/2000/svg" viewBox="0 0 800 533"><filter id="b"><feGaussianBlur stdDeviation="12" /></filter><path fill="#3b2b18" d="M0 0h800v531H0z"/><g filter="url(#b)" transform="translate(1.6 1.6) scale(3.125)" fill-opacity=".5"><ellipse fill="#fff" rx="1" ry="1" transform="matrix(-9.62381 12.9427 -17.4457 -12.9721 178.5 30)"/><ellipse fill="#f7e0e0" rx="1" ry="1" transform="matrix(16.52046 8.11557 -14.41418 29.34223 49.4 65.3)"/><ellipse fill="#d2ac57" cx="10" cy="30" rx="23" ry="28"/><ellipse fill="#130600" rx="1" ry="1" transform="matrix(14.24312 -53.71547 114.83819 30.45035 158 119.9)"/><ellipse fill="#fff" rx="1" ry="1" transform="matrix(1.4635 5.48163 -27.15605 7.25015 40.9 73.1)"/><path fill="#0f0700" d="M29 40h26v27H29z"/><ellipse fill="#ffffdf" cx="181" cy="29" rx="15" ry="15"/><ellipse fill="#f4fffb" cx="56" cy="50" rx="7" ry="23"/><path fill="#fff" d="M44 63l2 32-16-5z"/><ellipse fill="#fff" cy="42" rx="12" ry="12"/><ellipse fill="#100000" cx="20" cy="127" rx="51" ry="36"/><path fill="#bc9574" d="M197.8 99l-3.8 8-21.8-10 3.8-8.2z"/><path fill="#663808" d="M23 185L165 80l-33 92z"/><ellipse cx="104" cy="70" rx="31" ry="31"/><ellipse fill="#000405" cx="209" cy="72" rx="39" ry="23"/><path fill="#b0a78f" d="M193.6 32.1l5.3-8.4 19.5 12.2-5.3 8.4z"/><ellipse fill="#a1774d" rx="1" ry="1" transform="matrix(-11.45732 55.32532 -7.17478 -1.48582 255 75.8)"/><path fill="#080000" d="M45 42l-55 44 69-30z"/><path fill="#d9c39e" d="M151.8 66l41.5-19.4-7.7-32L166 58.5z"/><ellipse fill="#fff" rx="1" ry="1" transform="matrix(.04725 -3.38414 8.58838 .11992 52.9 34.6)"/><ellipse fill="#754e14" cx="24" cy="5" rx="33" ry="33"/><path fill="#fffaba" d="M149 15l21-5 25 28z"/></g></svg>