<svg xmlns="http://www.w3.org/2000/svg" viewBox="0 0 700 467"><filter id="b"><feGaussianBlur stdDeviation="12" /></filter><path fill="#676f5c" d="M0 0h700v464H0z"/><g filter="url(#b)" transform="translate(1.4 1.4) scale(2.73438)" fill-opacity=".5"><ellipse fill="#fff" rx="1" ry="1" transform="matrix(123.74224 -120.75499 31.24957 32.02262 223.9 145.3)"/><ellipse cx="68" rx="79" ry="79"/><ellipse fill="#e1ecff" rx="1" ry="1" transform="rotate(126.1 -27.5 60.9) scale(51.61081 71.03162)"/><ellipse rx="1" ry="1" transform="matrix(-10.86134 36.70161 -81.83786 -24.2188 209.6 23.8)"/><ellipse fill="#eaf2ce" rx="1" ry="1" transform="rotate(177.9 67.1 33.3) scale(47.64233 23.19048)"/><ellipse fill="#0c3700" rx="1" ry="1" transform="rotate(21.8 -227.5 479.4) scale(29.26179 27.25218)"/><ellipse rx="1" ry="1" transform="matrix(17.61445 10.83158 -44.40686 72.21502 212.5 47.5)"/><ellipse fill="#faffff" rx="1" ry="1" transform="matrix(-4.57275 8.7675 -48.39488 -25.2407 132.8 169)"/><ellipse rx="1" ry="1" transform="matrix(-8.98471 41.55593 -10.64237 -2.30096 47 64.1)"/><ellipse fill="#fff" rx="1" ry="1" transform="matrix(-7.41046 32.53293 -12.90899 -2.94045 51.7 118.5)"/><ellipse fill="#000c00" cx="76" cy="14" rx="253" ry="25"/><path fill="#002e00" d="M111.3 115.8L99 136.4l-40.3-24.2L71 91.6z"/><ellipse fill="#f8ffd6" rx="1" ry="1" transform="scale(20.19716 13.8865) rotate(90 -.8 6)"/><ellipse fill="#457500" cx="128" cy="127" rx="58" ry="23"/><ellipse fill="#edd3ca" rx="1" ry="1" transform="matrix(-42.60967 73.21074 -24.57628 -14.30374 221 134)"/><path fill="#f2fef6" d="M163 93l-32-11 50-16z"/><path fill="#000006" d="M199 51h12v58h-12z"/><ellipse fill="#fff" rx="1" ry="1" transform="matrix(32.10982 -18.84838 4.25614 7.25069 139.2 169)"/><path fill="#609c05" d="M55 56l-71-17 57 41z"/><path d="M89 108.8L61 22.3 7.6-16l70 131z"/><path fill="#0a1a00" d="M176.2 106.3l-7.6 19.9-41.8-13.2-5.8-35z"/><path d="M50.9 79.1l3 18.8-18.8 3-3-18.8z"/></g></svg>