<svg xmlns="http://www.w3.org/2000/svg" viewBox="0 0 700 467"><filter id="b"><feGaussianBlur stdDeviation="12" /></filter><path fill="#394355" d="M0 0h700v464H0z"/><g filter="url(#b)" transform="translate(1.4 1.4) scale(2.73438)" fill-opacity=".5"><ellipse fill="#a5adb9" cx="143" cy="169" rx="100" ry="100"/><ellipse rx="1" ry="1" transform="rotate(-108.4 35.1 -4.6) scale(56.36213 81.55168)"/><ellipse cx="201" rx="70" ry="70"/><path fill="#dffeff" d="M153 80h103v24H153z"/><ellipse fill="#dbf3ff" rx="1" ry="1" transform="matrix(2.0602 9.60994 -70.33156 15.07778 55.6 108.4)"/><ellipse fill="#25e" rx="1" ry="1" transform="matrix(-9.2904 44.30432 -20.31984 -4.26097 8.6 127.5)"/><path fill="#050000" d="M60 111h196v14H60z"/><ellipse cx="64" cy="33" rx="52" ry="52"/><ellipse fill="#0030f0" cx="255" cy="75" rx="106" ry="10"/><ellipse fill="#d6d7e6" rx="1" ry="1" transform="matrix(-33.025 .36308 -.1829 -16.63566 96.9 142.3)"/><ellipse fill="#6b6927" rx="1" ry="1" transform="matrix(17.62525 -.35742 1.3983 68.95395 137.2 86)"/><ellipse cx="196" cy="15" rx="56" ry="56"/><path fill="#e6edb5" d="M151.8 44L150 61.7 114.2 58l1.8-18z"/><path fill="#c0bdd2" d="M149 126h107v24H149z"/><path fill="#073fd5" d="M25 81l-40 39 139-42z"/><ellipse fill="#000064" rx="1" ry="1" transform="rotate(-176.5 25 83.8) scale(89.15632 11.37394)"/><ellipse fill="#032c84" rx="1" ry="1" transform="rotate(-179.8 112.5 84.3) scale(86.53296 17.64158)"/><ellipse fill="#000100" rx="1" ry="1" transform="matrix(8.42501 7.14952 -36.31246 42.7907 160.4 64.3)"/><ellipse cx="24" cy="37" rx="52" ry="52"/><path fill="#f1f3ff" d="M45 98h76v12H45z"/><path fill="#cfd4e5" d="M-.7 137.2L14.8 115l14 9.7L13.1 147z"/><path fill="#181104" d="M188 106h68v21h-68z"/></g></svg>