<svg xmlns="http://www.w3.org/2000/svg" viewBox="0 0 200 133"><filter id="b"><feGaussianBlur stdDeviation="12" /></filter><path fill="#7d7d8a" d="M0 0h200v133H0z"/><g filter="url(#b)" transform="translate(.5 .5)" fill-opacity=".5"><ellipse fill="#100000" cx="108" cy="132" rx="121" ry="24"/><ellipse fill="#fff" cx="34" cy="95" rx="52" ry="17"/><ellipse fill="#c2ffff" rx="1" ry="1" transform="rotate(-174.3 32 16.8) scale(41.52583 17.30464)"/><ellipse fill="#9a96ff" rx="1" ry="1" transform="matrix(39.67211 -5.44521 3.6481 26.57896 162.6 46.2)"/><ellipse cx="90" cy="66" rx="14" ry="14"/><path fill="#020a41" d="M40 70L12 26-7 73z"/><ellipse fill="#ae8a5f" cx="118" cy="105" rx="31" ry="56"/><path fill="#39332c" d="M108-16l21 42L-16 2z"/><path fill="#040601" d="M-5 121l97-19-14 46z"/><ellipse fill="#a8b4ab" cx="184" cy="84" rx="53" ry="28"/><path fill="#182e21" d="M96 54l9 32-82-36z"/><path fill="#fff" d="M26.5 26h37v18h-37z"/><path fill="#def4f4" d="M0 76h87v17H0z"/><path fill="#0018ff" d="M15 25h11v27H15z"/><ellipse fill="#7f7aff" cx="176" cy="40" rx="52" ry="17"/><path fill="#dbdedd" d="M137.6 61.6l-11.1-52 27.5 3.9-6.4 15.2z"/><ellipse fill="#494849" rx="1" ry="1" transform="rotate(-165.8 90.5 -7.4) scale(25.70624 17.67372)"/><path fill="#1a0000" d="M122.2 49.8l6.6-30.4-19-13.3 11.1 30.5z"/><path fill="#4ea5ff" d="M64 24h27v30H64z"/><path d="M-10 69.2l1.3-11L28 62.9l-1.3 11z"/><path fill="#e19d82" d="M101 21h17v30h-17z"/><ellipse fill="#887669" cx="36" cy="15" rx="65" ry="11"/></g></svg>