<svg xmlns="http://www.w3.org/2000/svg" viewBox="0 0 700 467"><filter id="b"><feGaussianBlur stdDeviation="12" /></filter><path fill="#676f5c" d="M0 0h700v464H0z"/><g filter="url(#b)" transform="translate(1.4 1.4) scale(2.73438)" fill-opacity=".5"><ellipse fill="#fff" rx="1" ry="1" transform="rotate(39 -69.2 404.8) scale(46.08711 105.84535)"/><ellipse fill="#e1e7ff" rx="1" ry="1" transform="rotate(-28.7 274.9 3) scale(36.15628 73.75933)"/><ellipse cx="58" cy="22" rx="62" ry="56"/><ellipse rx="1" ry="1" transform="matrix(-10.9745 36.84432 -160.0144 -47.66208 202 17.7)"/><ellipse fill="#dfe9c4" rx="1" ry="1" transform="rotate(60 3 150.9) scale(24.79826 49.00122)"/><ellipse fill="#1d4d00" cx="142" cy="121" rx="34" ry="34"/><ellipse fill="#e3e8d9" rx="1" ry="1" transform="rotate(-91.2 148.3 9.3) scale(12.8008 68.47591)"/><ellipse fill="#000003" cx="198" cy="72" rx="18" ry="37"/><ellipse fill="#000900" cx="77" cy="13" rx="255" ry="27"/><path fill="#fff" d="M64 84l2 68-40-36z"/><ellipse cx="42" cy="89" rx="11" ry="11"/><path fill="#d4dbc2" d="M184 61L76 56l84 38z"/><ellipse fill="#001c00" rx="1" ry="1" transform="rotate(98.3 -2.8 82.5) scale(29.42742 10.18021)"/><path d="M174.7 82.2l21 17-26.4 32.6-21-17z"/><ellipse fill="#694c43" rx="1" ry="1" transform="matrix(25.8252 -12.37336 7.67791 16.02504 70.9 169)"/><ellipse fill="#f6dbd1" rx="1" ry="1" transform="matrix(-1.35514 48.24022 -24.47779 -.68762 234.7 120.5)"/><path fill="#416b00" d="M184 140l-62-65-1 89z"/><path fill="#104100" d="M72.4 126l3.8-23.8 49.4 7.9-3.8 23.7z"/><path fill="#f6fdff" d="M119.3 169.5l50.8-25.9 8.6 17-50.8 25.8z"/><ellipse fill="#929a77" rx="1" ry="1" transform="matrix(-5.7297 25.01719 -19.86288 -4.5492 109.6 62.7)"/><ellipse fill="#0f2400" cx="59" cy="56" rx="26" ry="26"/><path fill="#d4d8bc" d="M127 92.3l-3.3 17.5-41.5-8L92 81z"/></g></svg>