<svg xmlns="http://www.w3.org/2000/svg" viewBox="0 0 700 1050"><filter id="b"><feGaussianBlur stdDeviation="12" /></filter><path fill="#bcc0af" d="M0 0h697v1050H0z"/><g filter="url(#b)" transform="translate(2 2) scale(4.10156)" fill-opacity=".5"><ellipse fill="#000300" cx="117" cy="113" rx="31" ry="60"/><ellipse fill="#fff" rx="1" ry="1" transform="rotate(-70.8 125.1 55.4) scale(64.25217 54.87846)"/><ellipse fill="#fff" cx="107" cy="246" rx="65" ry="65"/><ellipse fill="#000300" cx="125" cy="114" rx="18" ry="37"/><ellipse fill="#869d2c" rx="1" ry="1" transform="matrix(30.34461 -10.49213 14.39825 41.64161 119 17.6)"/><path fill="#718700" d="M160.3 167l17.7-27-96.6 17 4.3 21z"/><path fill="#000007" d="M4 222h24v13H4z"/><ellipse fill="#fff8d2" rx="1" ry="1" transform="matrix(6.74517 -6.46839 22.7219 23.69417 88 131.9)"/><ellipse fill="#7e8a61" rx="1" ry="1" transform="matrix(3.42362 -6.84017 29.07586 14.55295 82.7 247.5)"/><ellipse fill="#fefeff" cx="18" cy="147" rx="52" ry="52"/><ellipse fill="#fff" cx="131" cy="199" rx="19" ry="28"/><ellipse fill="#3b404c" rx="1" ry="1" transform="matrix(53.49637 2.36381 -.17897 4.05025 42 25.7)"/><path fill="#554752" d="M151.5 169.7l26.3 54.2-26-16.9-1.8 3.4z"/><path fill="#ebf2d7" d="M76 40h33v33H76z"/><path fill="#080f1c" d="M115.5 189.4l-6.7-23-5.7 19-3.8 7.6z"/><ellipse fill="#3b5600" rx="1" ry="1" transform="matrix(-8.88297 20.64337 -9.34236 -4.02008 140.3 94.3)"/><ellipse fill="#fff" rx="1" ry="1" transform="matrix(23.95752 -9.58418 10.94786 27.3663 144.1 232.9)"/><ellipse fill="#3b3c03" cx="114" cy="90" rx="10" ry="42"/><path fill="#fffff1" d="M153 71h17v44h-17z"/><path fill="#fff" d="M13 2h49v13H13z"/><ellipse fill="#ebf2a4" cx="145" cy="65" rx="16" ry="16"/><ellipse fill="#fff" rx="1" ry="1" transform="rotate(-129.3 60.4 42.1) scale(12.59947 27.51642)"/></g></svg>