<svg xmlns="http://www.w3.org/2000/svg" viewBox="0 0 200 133"><filter id="b"><feGaussianBlur stdDeviation="12" /></filter><path fill="#444157" d="M0 0h200v133H0z"/><g filter="url(#b)" transform="translate(.5 .5)" fill-opacity=".5"><path fill="#f2dbff" d="M139 74l-3-68-88 70z"/><ellipse rx="1" ry="1" transform="matrix(-18.44743 -1.3547 3.78807 -51.58376 43.3 88.8)"/><ellipse fill="#000006" cx="185" cy="78" rx="31" ry="199"/><ellipse fill="#fff8ff" cx="121" cy="131" rx="8" ry="32"/><ellipse fill="#fffbff" cx="73" cy="71" rx="9" ry="26"/><ellipse rx="1" ry="1" transform="matrix(-12.54617 -16.40971 27.13784 -20.74844 88 117.5)"/><ellipse fill="#84b1ce" rx="1" ry="1" transform="rotate(88.7 29.6 40.6) scale(11.33039 43.95041)"/><path fill="#73c6ff" d="M20.4 120L40 148H-1.4l1.6-41.5z"/><path fill="#ff0822" d="M126 111h22v22h-22z"/><ellipse fill="#d6ffff" rx="1" ry="1" transform="rotate(95.8 87.3 103.4) scale(5.41144 15.51906)"/><ellipse fill="#7c6b9f" cx="134" cy="83" rx="22" ry="25"/><path fill="#fff2ff" d="M109.8 24l-10.5 8.8L124.1 49l11.3-20.3z"/><ellipse cx="29" cy="99" rx="20" ry="20"/><ellipse fill="#242c44" cx="138" cy="11" rx="30" ry="15"/><path fill="#d1cfff" d="M100.3 87.7L89.8 76.1 80.3 33 59.6 64.6z"/><ellipse fill="#9f90c3" rx="1" ry="1" transform="matrix(-10.19985 22.49516 -8.13375 -3.68804 71 91.8)"/><ellipse rx="1" ry="1" transform="matrix(-22.20574 -25.83556 9.33118 -8.02018 39 65)"/><path fill="#00080f" d="M83.7 52l2.8-20 13.8 2-2.8 19.8z"/><path fill="#a3afe4" d="M24 78L-1 55l25 5z"/><ellipse rx="1" ry="1" transform="matrix(-10.1245 -11.36349 32.50698 -28.96267 78.8 117.7)"/><path fill="#000210" d="M77 80l7 36.7 7-50-1 8.5z"/><ellipse fill="#ddecff" rx="1" ry="1" transform="matrix(-10.2517 17.29074 -4.08406 -2.42144 118.4 125.9)"/></g></svg>