<svg xmlns="http://www.w3.org/2000/svg" viewBox="0 0 700 467"><filter id="b"><feGaussianBlur stdDeviation="12" /></filter><path fill="#343859" d="M0 0h700v464H0z"/><g filter="url(#b)" transform="translate(1.4 1.4) scale(2.73438)" fill-opacity=".5"><ellipse fill="#9f95c2" cx="131" cy="102" rx="77" ry="64"/><ellipse rx="1" ry="1" transform="rotate(86.1 28.5 51) scale(25.2697 170.23853)"/><ellipse rx="1" ry="1" transform="matrix(.05658 9.64151 -29.9634 .17585 124 136)"/><path fill="#f1ffea" d="M226 165l-16-37 24-15z"/><ellipse fill="#000047" rx="1" ry="1" transform="matrix(-24.51435 8.40865 -39.3763 -114.79664 242.4 86.2)"/><path fill="#fefff1" d="M24 128l24-11-8 39z"/><ellipse fill="#000028" cx="22" cy="54" rx="40" ry="71"/><ellipse fill="#0a2de8" rx="1" ry="1" transform="matrix(8.50903 -25.94889 22.29862 7.31205 243.3 38.3)"/><ellipse fill="#112fad" rx="1" ry="1" transform="rotate(172.3 66.3 41.4) scale(40.5705 21.92466)"/><ellipse rx="1" ry="1" transform="matrix(80.8551 -9.76049 2.26455 18.75932 233.7 166.1)"/><path fill="#c9cfd7" d="M96 144h55v22H96z"/><path d="M36.6 108.8L56 96.6l15.3 24.6L52 133.4zM-6.6 189L-32.7 54.7 6.6 47l26.1 134.5z"/><ellipse cx="72" cy="165" rx="22" ry="19"/><path fill="#dee1bb" d="M144 120.8l21-13.6 17 26-21 13.6z"/><ellipse fill="#000002" cx="177" cy="22" rx="42" ry="22"/><ellipse fill="#9e7acd" rx="1" ry="1" transform="matrix(-12.6113 -8.2526 17.49502 -26.73519 79 67.6)"/><ellipse fill="#7469b7" rx="1" ry="1" transform="rotate(175.5 88.4 38) scale(32.62831 22.50712)"/><ellipse fill="#001" cx="116" cy="13" rx="106" ry="27"/><path fill="#dcf0cd" d="M85.2 141.3l-9-16.8 18.6-9.8 9 16.8z"/><path fill="#aebec4" d="M29 112h13v46H29z"/><path d="M210 44h12v75h-12z"/></g></svg>