<svg xmlns="http://www.w3.org/2000/svg" viewBox="0 0 700 467"><filter id="b"><feGaussianBlur stdDeviation="12" /></filter><path fill="#5c457d" d="M0 0h700v464H0z"/><g filter="url(#b)" transform="translate(1.4 1.4) scale(2.73438)" fill-opacity=".5"><ellipse fill="#160000" rx="1" ry="1" transform="matrix(244.1465 5.18063 -.46835 22.07161 152 159)"/><ellipse fill="#f389b6" cx="135" rx="47" ry="47"/><ellipse fill="#698aff" rx="1" ry="1" transform="matrix(19.21939 19.18353 -32.0651 32.12505 47.4 92)"/><ellipse fill="#5494ff" rx="1" ry="1" transform="matrix(-15.49685 21.48691 -29.52274 -21.29247 213.8 98)"/><path fill="#24ffff" d="M106 61h45v27h-45z"/><ellipse cx="162" cy="64" rx="15" ry="30"/><path d="M84 42h22v49H84z"/><ellipse fill="#a765b2" cx="131" cy="18" rx="255" ry="24"/><ellipse fill="#0f0000" cx="251" cy="77" rx="20" ry="26"/><path fill="#090000" d="M79 40h100v19H79z"/><path fill="#92ace5" d="M160 133L77 91l-93 13z"/><ellipse fill="#c78ce4" rx="1" ry="1" transform="rotate(-23.9 224 -468) scale(33.04077 12.22812)"/><path fill="#001" d="M106.1 88.4l49-1.7.8 23-49 1.6z"/><ellipse fill="#300000" cx="5" cy="72" rx="10" ry="29"/><ellipse fill="#382ea2" rx="1" ry="1" transform="rotate(18.6 -385 171.5) scale(18.10515 27.54067)"/><path fill="#b4b8e4" d="M225.8 88.8l2.8 9.6-114.4 32.8-2.8-9.6z"/><ellipse fill="#370000" cx="130" cy="169" rx="105" ry="27"/><path fill="#b268d1" d="M72 51l-88-2 132-33z"/><path fill="#efffff" d="M118 67h28v12h-28z"/><path fill="#fff9af" d="M88 64l-46-4 32-6z"/><path fill="#0f53ed" d="M71 89.1l-53.8 4.7L15 69l53.8-4.7z"/><ellipse fill="#cc7581" cx="129" cy="25" rx="23" ry="23"/></g></svg>