<svg xmlns="http://www.w3.org/2000/svg" viewBox="0 0 700 467"><filter id="b"><feGaussianBlur stdDeviation="12" /></filter><path fill="#828989" d="M0 0h700v464H0z"/><g filter="url(#b)" transform="translate(1.4 1.4) scale(2.73438)" fill-opacity=".5"><ellipse cx="111" cy="128" rx="40" ry="85"/><ellipse fill="#fff" cx="54" cy="59" rx="25" ry="109"/><ellipse fill="#fff" rx="1" ry="1" transform="matrix(-18.49669 -16.02792 52.95968 -61.11704 88.8 11.4)"/><ellipse rx="1" ry="1" transform="matrix(-33.24265 -9.15211 19.4133 -70.51372 99.8 152.2)"/><ellipse fill="#fff" rx="1" ry="1" transform="matrix(-17.34948 -3.49827 5.57409 -27.6444 162.7 10.8)"/><ellipse fill="#242b27" rx="1" ry="1" transform="matrix(15.34883 -.96567 7.5503 120.00844 203.9 102.8)"/><ellipse fill="#fffbf5" rx="1" ry="1" transform="matrix(5.56823 117.52139 -10.008 .47418 229.8 88.8)"/><ellipse fill="#efe9e7" cx="2" cy="103" rx="20" ry="144"/><ellipse fill="#213a51" cx="158" cy="128" rx="14" ry="90"/><ellipse fill="#f4efee" rx="1" ry="1" transform="matrix(12.99025 -121.0417 19.84128 2.12938 59.3 71.8)"/><ellipse fill="#a0dedc" rx="1" ry="1" transform="matrix(10.16826 -.5043 3.92623 79.16515 180.8 89.5)"/><path fill="#0e2021" d="M243 127h13v43h-13z"/><path fill="#c43000" d="M131 83h43v17h-43z"/><ellipse fill="#f7f0c8" cx="97" cy="43" rx="4" ry="57"/><path fill="#0c0c09" d="M102 20h11v119h-11z"/><ellipse fill="#fff5f0" rx="1" ry="1" transform="matrix(8.05394 34.54963 -7.72143 1.79996 118 3.9)"/><path d="M89 43.7l9.5 3.1L89 76.3l-9.5-3.1z"/><ellipse fill="#373c38" cx="243" cy="76" rx="5" ry="56"/><path fill="#f5f3f5" d="M79.8 35.5L54.2 59.3 107 37.1 75.4-16z"/><path fill="#fff" d="M146 0h21v38h-21z"/><ellipse fill="#2a2e2c" cx="213" cy="30" rx="4" ry="46"/><path fill="#ffffe5" d="M131.4 50.1l6.8 20.7-18.7-30.2 7.8-12z"/></g></svg>