<svg xmlns="http://www.w3.org/2000/svg" viewBox="0 0 200 133"><filter id="b"><feGaussianBlur stdDeviation="12" /></filter><path fill="#716c7d" d="M0 0h200v133H0z"/><g filter="url(#b)" transform="translate(.5 .5)" fill-opacity=".5"><ellipse fill="#e4ced1" cx="147" cy="42" rx="168" ry="24"/><ellipse cx="165" cy="123" rx="69" ry="34"/><ellipse fill="#000019" cx="32" cy="117" rx="34" ry="34"/><ellipse fill="#3d0b00" cx="57" cy="78" rx="14" ry="57"/><ellipse fill="#dcd5f2" cx="197" cy="29" rx="36" ry="61"/><ellipse fill="#002f8c" cx="70" cy="11" rx="38" ry="22"/><ellipse fill="#fff" cx="77" cy="132" rx="16" ry="24"/><ellipse fill="#511700" cx="151" cy="95" rx="12" ry="72"/><ellipse fill="#a497a4" cx="11" cy="80" rx="36" ry="25"/><ellipse fill="#cfd6fb" rx="1" ry="1" transform="matrix(-9.84772 -34.3834 15.47788 -4.433 127.6 43)"/><ellipse fill="#d6d2e8" cx="84" cy="87" rx="7" ry="64"/><path fill="#dbd4f8" d="M128 81l-5 41 20-49z"/><ellipse fill="#002568" rx="1" ry="1" transform="matrix(-22.08193 11.48637 -16.49866 -31.71777 19.3 123.6)"/><ellipse fill="#003693" rx="1" ry="1" transform="matrix(-10.87603 -8.86263 22.78662 -27.96328 15.1 3)"/><ellipse fill="#633000" cx="54" cy="73" rx="26" ry="23"/><ellipse fill="#704a36" cx="107" cy="97" rx="16" ry="60"/><ellipse fill="#002380" cx="139" rx="20" ry="20"/><ellipse fill="#cabcd6" rx="1" ry="1" transform="rotate(96.6 -4.7 31.3) scale(33.6117 12.31104)"/><ellipse fill="#000001" cx="58" cy="99" rx="17" ry="17"/><ellipse fill="#000846" cx="193" cy="125" rx="31" ry="31"/><ellipse fill="#ffe5e7" rx="1" ry="1" transform="matrix(-1.50984 -1.8645 7.60726 -6.16024 67 17.6)"/><path fill="#dac3ba" d="M23 41l90 25 17-37z"/></g></svg>