<svg xmlns="http://www.w3.org/2000/svg" viewBox="0 0 200 133"><filter id="b"><feGaussianBlur stdDeviation="12" /></filter><path fill="#aea8a3" d="M0 0h200v133H0z"/><g filter="url(#b)" transform="translate(.5 .5)" fill-opacity=".5"><ellipse fill="#36150c" cx="84" cy="82" rx="70" ry="28"/><ellipse fill="#fff" cx="166" cy="119" rx="50" ry="34"/><path d="M10 85.7l34.7 17.7-12.7 25-34.7-17.8z"/><ellipse fill="#fff" cx="23" cy="15" rx="47" ry="47"/><ellipse cx="157" rx="48" ry="11"/><ellipse fill="#f8ffff" rx="1" ry="1" transform="matrix(1.07818 -25.48678 54.91575 2.32313 161.2 45)"/><ellipse fill="#473637" rx="1" ry="1" transform="matrix(-11.32057 32.19038 -19.32252 -6.79526 85.6 49.1)"/><path fill="#fff" d="M46.3 98l64.4 24.7-9 23.3-64.4-24.7z"/><ellipse fill="#183f00" cx="136" rx="19" ry="25"/><ellipse fill="#feffff" rx="1" ry="1" transform="rotate(63.2 13.3 205.2) scale(25.79889 141.01902)"/><path fill="#1f0902" d="M143 71h29v13h-29z"/><path fill="#fdffff" d="M159 8h41v20h-41z"/><ellipse fill="#8d7a7e" rx="1" ry="1" transform="matrix(12.67262 -11.46632 18.84964 20.8327 73.5 65)"/><ellipse fill="#594340" rx="1" ry="1" transform="rotate(100 20.6 86.9) scale(36.12446 18.08195)"/><ellipse fill="#f7f4e4" rx="1" ry="1" transform="matrix(50.09707 -32.96775 13.3768 20.3271 57.5 8.4)"/><path fill="#fbffff" d="M108 0h9v52h-9z"/><ellipse fill="#f1e8c8" rx="1" ry="1" transform="matrix(-4.487 -12.4631 32.65728 -11.75735 2.8 70)"/><ellipse fill="#fff" cx="47" cy="129" rx="106" ry="4"/><path fill="#422009" d="M32.4 64L55 76.6 37.6 108 15 95.4z"/><path fill="#3f312f" d="M85 13h21v48H85z"/><path fill="#e5cec3" d="M0 57h83v8H0z"/><ellipse fill="#f3f8f7" rx="1" ry="1" transform="matrix(3.38453 -12.83995 58.81196 15.50248 99.4 128.4)"/></g></svg>