<svg xmlns="http://www.w3.org/2000/svg" viewBox="0 0 200 133"><filter id="b"><feGaussianBlur stdDeviation="12" /></filter><path fill="#929ea4" d="M0 0h200v133H0z"/><g filter="url(#b)" transform="translate(.5 .5)" fill-opacity=".5"><ellipse cx="136" cy="60" rx="28" ry="20"/><ellipse fill="#fff" cx="38" cy="107" rx="75" ry="28"/><ellipse fill="#3e0500" cx="188" cy="132" rx="39" ry="39"/><ellipse fill="#47d1ff" cx="70" cy="23" rx="100" ry="22"/><ellipse fill="#ad5300" cx="196" cy="18" rx="29" ry="77"/><path fill="#391500" d="M64.4 65.2l13-23.6 20.2 11.2-13 23.6z"/><ellipse fill="#1f0000" cx="115" cy="129" rx="16" ry="16"/><ellipse fill="#fff" rx="1" ry="1" transform="matrix(-.1963 -23.8936 14.8801 -.12225 4.9 21)"/><ellipse fill="#000300" rx="1" ry="1" transform="rotate(-171 71.1 24.2) scale(19.94944 14.0069)"/><path fill="#fff" d="M136.6 11.6l-13.5 6.7 7.7 21.7 20.8-6.8z"/><ellipse fill="#f6ebde" rx="1" ry="1" transform="matrix(-84.31246 24.33293 -8.85103 -30.6684 29.8 118.3)"/><ellipse fill="#1088f3" cx="60" cy="39" rx="68" ry="8"/><path fill="#354aff" d="M146 6h23v36h-23z"/><path fill="#cfc0b3" d="M159 62h23v44h-23z"/><path fill="#74461c" d="M133 75h14v23h-14z"/><ellipse fill="#c3b1a7" cx="27" cy="70" rx="48" ry="19"/><ellipse fill="#70c0ff" rx="1" ry="1" transform="matrix(23.36121 6.82992 -10.60279 36.26604 38.8 8.7)"/><ellipse fill="#fff" rx="1" ry="1" transform="rotate(-112 5.4 5.3) scale(31.42027 12.20719)"/><path fill="#0060a6" d="M74 47.6l-30.8 2.7-1.3-14 31-2.6z"/><path fill="#43230e" d="M126.4 111l-28 12-23.6 20 53-4.7z"/><path fill="#784c00" d="M72 44h27v18H72z"/><ellipse fill="#46b7ff" rx="1" ry="1" transform="matrix(3.11283 17.65375 -36.67037 6.46598 90.2 22.5)"/></g></svg>