<svg xmlns="http://www.w3.org/2000/svg" viewBox="0 0 700 467"><filter id="b"><feGaussianBlur stdDeviation="12" /></filter><path fill="#173652" d="M0 0h700v464H0z"/><g filter="url(#b)" transform="translate(1.4 1.4) scale(2.73438)" fill-opacity=".5"><ellipse fill="#90ffff" rx="1" ry="1" transform="matrix(-19.58447 -42.19113 66.96603 -31.0846 129.5 84.7)"/><ellipse cx="228" cy="65" rx="32" ry="255"/><ellipse fill="#60bdff" cx="109" cy="87" rx="49" ry="49"/><ellipse cx="23" cy="63" rx="46" ry="255"/><ellipse fill="#000001" rx="1" ry="1" transform="matrix(-.91287 -21.16511 178.59226 -7.70286 97 16.8)"/><ellipse fill="#00000a" cx="195" cy="157" rx="243" ry="20"/><ellipse fill="#99c1fd" cx="90" cy="93" rx="25" ry="45"/><ellipse fill="#0028a7" cx="60" cy="81" rx="12" ry="50"/><path fill="#75a8c6" d="M171 29h28v72h-28z"/><ellipse cx="231" cy="63" rx="31" ry="86"/><path fill="#1385d6" d="M106 133.6l34-72.7 47.2 49.9-7.7 21.8z"/><ellipse fill="#006ac1" rx="1" ry="1" transform="rotate(-137.5 68.7 2.2) scale(11.60094 23.78017)"/><ellipse fill="#def6fb" rx="1" ry="1" transform="matrix(5.84514 9.03746 -23.5421 15.22626 106.5 90)"/><ellipse fill="#00387b" rx="1" ry="1" transform="matrix(11.76612 -9.48525 22.54345 27.96435 182.4 119.3)"/><path fill="#85bff8" d="M67 110h18v28H67z"/><ellipse fill="#000006" rx="1" ry="1" transform="matrix(-23.04133 -87.55492 32.23766 -8.4838 0 95.6)"/><path fill="#69b9e9" d="M68 46h32v36H68z"/><path fill="#001246" d="M45 51L-8 14l153 21z"/><ellipse fill="#000007" rx="1" ry="1" transform="rotate(-70.9 197 -37.3) scale(25.82791 44.83323)"/><path fill="#8cbce0" d="M149 39h9v92h-9z"/><ellipse fill="#001162" cx="111" cy="145" rx="38" ry="11"/><ellipse fill="#000005" cx="172" cy="10" rx="36" ry="21"/></g></svg>