<svg xmlns="http://www.w3.org/2000/svg" viewBox="0 0 700 467"><filter id="b"><feGaussianBlur stdDeviation="12" /></filter><path fill="#5c457d" d="M0 0h700v464H0z"/><g filter="url(#b)" transform="translate(1.4 1.4) scale(2.73438)" fill-opacity=".5"><ellipse fill="#190000" rx="1" ry="1" transform="matrix(213.37592 -.5521 .08523 32.93973 137.4 167.5)"/><ellipse fill="#f08dc7" rx="1" ry="1" transform="rotate(174.4 67.6 12.8) scale(66.64056 21.68197)"/><ellipse fill="#5889ff" cx="46" cy="95" rx="33" ry="33"/><path fill="#4e9bff" d="M230.7 125.4l-50-9.8 10.6-55 50 9.8z"/><ellipse fill="#2cffff" cx="129" cy="72" rx="25" ry="15"/><path d="M152 40h24v53h-24z"/><ellipse rx="1" ry="1" transform="matrix(-14.06884 -3.63845 7.31305 -28.27747 97.1 61.8)"/><ellipse fill="#9f5dbc" cx="47" cy="14" rx="48" ry="48"/><ellipse fill="#0d0000" cx="255" cy="76" rx="26" ry="26"/><path fill="#dc94e0" d="M179 30h36v34h-36z"/><path fill="#020000" d="M79 44h101v17H79z"/><ellipse fill="#000012" cx="133" cy="99" rx="27" ry="13"/><path fill="#93b7e4" d="M66.6 104L75 89.1l66.5 36.9-8.3 14.9z"/><path fill="#a5c0f2" d="M271 112l-63-24-62 26z"/><path fill="#ffffe1" d="M49 56h32v9H49z"/><path fill="#270000" d="M-21.7 94.9l12.3-49.5 31 7.7-12.2 49.5z"/><ellipse fill="#a05fb9" rx="1" ry="1" transform="matrix(29.7687 -23.41726 17.47773 22.2182 241.1 20.8)"/><path fill="#eeeae5" d="M12 97h55v9H12z"/><path fill="#42c1ff" d="M105 61h46v25h-46z"/><ellipse fill="#4b63ff" cx="35" cy="146" rx="10" ry="10"/><ellipse fill="#370000" rx="1" ry="1" transform="matrix(0 27.59856 -104.61556 0 130.6 169)"/><path d="M84 42h21v50H84z"/></g></svg>