<svg xmlns="http://www.w3.org/2000/svg" viewBox="0 0 200 133"><filter id="b"><feGaussianBlur stdDeviation="12" /></filter><path fill="#797969" d="M0 0h200v133H0z"/><g filter="url(#b)" transform="translate(.5 .5)" fill-opacity=".5"><ellipse fill="#1f2800" cx="168" cy="96" rx="50" ry="50"/><ellipse fill="#fff" rx="1" ry="1" transform="rotate(81 -40.7 108.9) scale(23.48199 47.42313)"/><ellipse fill="#fff" cx="27" cy="20" rx="94" ry="12"/><ellipse fill="#365000" rx="1" ry="1" transform="rotate(-12 205.9 -754.5) scale(32.03771 47.73261)"/><path d="M61 41h26v49H61z"/><ellipse fill="#bfcfff" rx="1" ry="1" transform="matrix(17.0324 -.9504 1.90911 34.21364 31.8 80.6)"/><ellipse fill="#fcf5ff" cx="102" cy="70" rx="15" ry="30"/><ellipse fill="#fff" cx="198" cy="24" rx="6" ry="43"/><ellipse fill="#10000a" rx="1" ry="1" transform="matrix(-6.96026 -66.2224 13.91913 -1.46296 0 92)"/><ellipse rx="1" ry="1" transform="matrix(-3.60716 16.2246 -31.57681 -7.02037 160.3 129.8)"/><ellipse fill="#fff" cx="93" cy="132" rx="17" ry="28"/><ellipse rx="1" ry="1" transform="matrix(-10.4811 5.00164 -15.10773 -31.65875 138.4 99.8)"/><path fill="#c8c9a3" d="M157 91h18v23h-18z"/><path fill="#fff" d="M-16 9.4l119 4.3 2.5 13 5.8 4.3z"/><path fill="#8f3121" d="M71 16L54 62l35-26z"/><path fill="#593d2b" d="M11.5 87l19.9 2.4-5 39.7-19.8-2.5z"/><path fill="#fff" d="M-9.8 1.1L7.2 0l2.6 38.9-17 1.1z"/><path fill="#c6d9ff" d="M28 55h16v74H28z"/><ellipse fill="#848e44" rx="1" ry="1" transform="rotate(109.9 66.1 101.4) scale(16.43067 49.15967)"/><ellipse fill="#304100" cx="165" cy="12" rx="25" ry="37"/><path fill="#9a8d81" d="M77 88h49v17H77z"/><path fill="#000008" d="M83 39l4 42-38 3z"/></g></svg>