<svg xmlns="http://www.w3.org/2000/svg" viewBox="0 0 200 133"><filter id="b"><feGaussianBlur stdDeviation="12" /></filter><path fill="#41392c" d="M0 0h200v133H0z"/><g filter="url(#b)" transform="translate(.5 .5)" fill-opacity=".5"><ellipse fill="#e7c88a" cx="94" cy="18" rx="92" ry="21"/><ellipse fill="#000001" rx="1" ry="1" transform="rotate(-10.2 635.1 -735.6) scale(154.35976 43.94607)"/><path fill="#b79671" d="M23 16l36.8 3.2L57 50l-36.9-3.3z"/><ellipse fill="#03050d" rx="1" ry="1" transform="matrix(-34.11248 -50.30404 16.09719 -10.91593 30 82.5)"/><path fill="#fff" d="M6.2 74.8l.6 18-13 .4-.6-18z"/><ellipse fill="#af946f" rx="1" ry="1" transform="matrix(13.08651 -7.60269 16.4146 28.25447 111.6 32.6)"/><path fill="#030307" d="M67 33h27v41H67z"/><ellipse fill="#705a2f" cx="21" rx="31" ry="31"/><ellipse fill="#5b432f" cx="126" cy="41" rx="61" ry="10"/><ellipse fill="#816b3f" rx="1" ry="1" transform="matrix(19.2405 20.82965 -13.06375 12.06708 177 9.2)"/><path fill="#c8b78c" d="M144.5 12v20h-83V12z"/><ellipse fill="#01070f" cx="179" cy="92" rx="61" ry="32"/><path fill="#5e6e57" d="M116 133l38-16 30 31z"/><path fill="#ffff7f" d="M95.9 74l-2-.2L96.1 56l2 .3z"/><path fill="#c6a990" d="M108 27L91 49l20-3z"/><path fill="#e0e1d9" d="M45 40l-3-12h20z"/><path fill="#221f14" d="M156 33l-47-1 6 14z"/><path fill="#111113" d="M10 56h45v77H10z"/><ellipse fill="#d19779" cx="46" cy="87" rx="4" ry="4"/><path d="M4.9 54.4L-4 109.7l-1-.1 9-55.3z"/><path fill="#94805a" d="M34.8 61.6l-8.4-3.2 10.8-28 8.4 3.2z"/><path fill="#000208" d="M186 39h14v93h-14z"/></g></svg>