<svg xmlns="http://www.w3.org/2000/svg" viewBox="0 0 200 133"><filter id="b"><feGaussianBlur stdDeviation="12" /></filter><path fill="#5f2847" d="M0 0h200v133H0z"/><g filter="url(#b)" transform="translate(.5 .5)" fill-opacity=".5"><ellipse fill="#7e9fe8" cx="92" cy="54" rx="63" ry="30"/><ellipse fill="#ff082f" rx="1" ry="1" transform="matrix(-29.85152 16.3626 -12.12562 -22.12169 159.3 98.1)"/><ellipse cx="189" cy="31" rx="27" ry="55"/><ellipse fill="#000001" rx="1" ry="1" transform="matrix(-17.84372 -8.8923 58.67107 -117.7322 13.3 18.6)"/><ellipse fill="#4e0000" rx="1" ry="1" transform="matrix(-93.0167 -15.89964 5.79367 -33.89434 60.4 132)"/><ellipse fill="#fe2220" cx="66" cy="97" rx="30" ry="12"/><ellipse fill="#000b3a" rx="1" ry="1" transform="matrix(49.21183 -28.75707 11.23336 19.22359 102.7 0)"/><ellipse fill="#ff313b" rx="1" ry="1" transform="matrix(.30145 34.54241 -5.4173 .04728 36.2 56.9)"/><path fill="#2f060c" d="M94 70h33v42H94z"/><ellipse fill="#accab7" rx="1" ry="1" transform="rotate(-70.3 82.3 -40.5) scale(22.98305 19.46967)"/><ellipse fill="#8597ff" rx="1" ry="1" transform="matrix(9.88598 9.38916 -4.64172 4.88733 128.5 26.8)"/><path fill="#121166" d="M56 12h21v52H56z"/><path fill="#bb87c5" d="M131 54h28v31h-28z"/><ellipse fill="#350000" rx="1" ry="1" transform="rotate(148.3 72.7 89.6) scale(85.83684 14.74286)"/><ellipse fill="#fe1030" rx="1" ry="1" transform="rotate(-105.3 124.2 -10.6) scale(10.54038 49.58292)"/><ellipse fill="#6a97f9" rx="1" ry="1" transform="matrix(-7.6896 .28196 -1.2075 -32.93007 54.4 56.6)"/><ellipse fill="#00000c" rx="1" ry="1" transform="matrix(-80.74095 -114.03453 20.30979 -14.38013 178 15.6)"/><ellipse cx="98" cy="132" rx="199" ry="7"/><path fill="#200279" d="M119 80l-3-62 20 44z"/><path fill="#e000bb" d="M67.5-18.7l6.3 4.9-33.3 42.5-6.3-4.9z"/><ellipse fill="#6a0000" cx="87" cy="109" rx="50" ry="9"/><path fill="#fa3547" d="M149 40h10v68h-10z"/></g></svg>