<svg xmlns="http://www.w3.org/2000/svg" viewBox="0 0 200 133"><filter id="b"><feGaussianBlur stdDeviation="12" /></filter><path fill="#696153" d="M0 0h200v133H0z"/><g filter="url(#b)" transform="translate(.5 .5)" fill-opacity=".5"><ellipse fill="#fff" rx="1" ry="1" transform="rotate(87.2 55.7 58.6) scale(21.74218 143.39499)"/><ellipse fill="#ded8b6" rx="1" ry="1" transform="matrix(-24.75586 40.51949 -51.04063 -31.18387 0 17.5)"/><ellipse fill="#0a0100" rx="1" ry="1" transform="rotate(61.1 -52.2 91.3) scale(42.76918 31.18993)"/><ellipse fill="#180e0b" cx="188" cy="88" rx="67" ry="67"/><path fill="#010000" d="M34 12h36v17H34z"/><ellipse fill="#dfc78e" cx="104" cy="94" rx="22" ry="22"/><ellipse fill="#fffffe" rx="1" ry="1" transform="matrix(-92.10569 -5.05113 .89134 -16.25323 108.7 0)"/><ellipse fill="#f6f2df" rx="1" ry="1" transform="matrix(-7.5911 54.6898 -8.85086 -1.22853 12.9 30.1)"/><path fill="#1e1610" d="M58 26h53v43H58z"/><path fill="#2a2b00" d="M2.2-16l-17.6 68 .7-10.1 25.6-23.6z"/><path fill="#c7af7f" d="M182 91h18v30h-18z"/><ellipse fill="#000001" rx="1" ry="1" transform="matrix(9.9443 37.3734 -7.82663 2.0825 9.2 122)"/><ellipse fill="#0c0800" cx="150" cy="123" rx="25" ry="18"/><ellipse fill="#7e6c5e" cx="166" cy="42" rx="24" ry="25"/><path fill="#1b1500" d="M53 116h69v17H53z"/><path fill="#000005" d="M130 29h12v44h-12z"/><ellipse fill="#d8baa2" rx="1" ry="1" transform="matrix(-10.82463 -5.84051 8.53312 -15.81503 40.1 49.2)"/><ellipse fill="#ad8d5b" rx="1" ry="1" transform="matrix(16.48393 18.22747 -8.87401 8.02517 33 120)"/><ellipse fill="#000409" rx="1" ry="1" transform="matrix(-11.49156 25.61893 -10.90845 -4.89307 184.2 76.7)"/><path fill="#05090c" d="M7 113l20-33-2-46z"/><path fill="#f9f4de" d="M82 6l1.6 36.6L107.1-16 1.7 15.6z"/><path fill="#1a181c" d="M144 120l24-91-48 61z"/></g></svg>