<svg xmlns="http://www.w3.org/2000/svg" viewBox="0 0 700 467"><filter id="b"><feGaussianBlur stdDeviation="12" /></filter><path fill="#b26a3c" d="M0 0h700v464H0z"/><g filter="url(#b)" transform="translate(1.4 1.4) scale(2.73438)" fill-opacity=".5"><ellipse rx="1" ry="1" transform="matrix(177.0825 -5.39236 .4236 13.9107 175.4 126.2)"/><path fill="#ffd248" d="M79-16l134 125L271-8z"/><ellipse fill="#fff" cx="28" cy="108" rx="33" ry="15"/><ellipse fill="#042457" cx="95" cy="96" rx="37" ry="37"/><ellipse fill="#ddff84" rx="1" ry="1" transform="matrix(-15.35212 11.6529 -40.80902 -53.7639 41.5 36)"/><ellipse fill="#830000" cx="77" cy="28" rx="23" ry="32"/><ellipse fill="#fff" cx="140" cy="91" rx="12" ry="25"/><ellipse fill="#ffdb00" rx="1" ry="1" transform="matrix(19.49383 -20.09325 33.29652 32.30322 18.8 46.6)"/><path fill="#f5ffff" d="M194.3 62.6l13.4 8.7-30 46.1-13.4-8.7z"/><ellipse fill="#ef2d2e" cx="101" cy="155" rx="255" ry="22"/><path fill="#fff" d="M93 86h12v32H93z"/><ellipse fill="#000001" cx="231" cy="112" rx="13" ry="35"/><path fill="#fff" d="M56 57h22v24H56z"/><path fill="#000017" d="M188 94h15v54h-15z"/><ellipse fill="#e36c00" rx="1" ry="1" transform="matrix(15.82898 -22.65695 48.70905 34.02995 141.9 32.7)"/><path fill="#00000d" d="M151 97h16v54h-16z"/><path fill="#bfeeff" d="M21.4 25.3l-.8-50 36-.6.8 50z"/><ellipse fill="#ffa29a" cx="240" cy="155" rx="73" ry="11"/><ellipse fill="#f70000" rx="1" ry="1" transform="matrix(-5.7747 16.67634 -15.72098 -5.44388 96 44.2)"/><path fill="#0e1036" d="M106 49h24v101h-24z"/><path fill="#12070c" d="M60 82h35v54H60z"/><ellipse fill="#f2da8c" rx="1" ry="1" transform="matrix(-42.47887 -2.15189 1.43335 -28.29473 217 -.1)"/></g></svg>