<svg xmlns="http://www.w3.org/2000/svg" viewBox="0 0 200 133"><filter id="b"><feGaussianBlur stdDeviation="12" /></filter><path fill="#7d7d8a" d="M0 0h200v133H0z"/><g filter="url(#b)" transform="translate(.5 .5)" fill-opacity=".5"><ellipse fill="#170400" rx="1" ry="1" transform="matrix(.54954 25.3658 -107.649 2.33218 100.8 132)"/><ellipse fill="#fbffff" rx="1" ry="1" transform="matrix(52.69804 -4.70318 1.63613 18.33243 40.8 92.6)"/><ellipse fill="#cbffff" rx="1" ry="1" transform="matrix(-39.97264 -3.15446 1.30432 -16.52799 64.1 36.7)"/><ellipse fill="#9b96ff" rx="1" ry="1" transform="matrix(42.24059 -8.62973 4.67464 22.88131 162 47.1)"/><ellipse fill="#010" cx="75" cy="62" rx="27" ry="11"/><path d="M30 57.4l-1 17-33-1.8 1-17z"/><ellipse fill="#b7915e" cx="121" cy="104" rx="26" ry="53"/><path fill="#3e3830" d="M-16 4l141 21 1-41z"/><path fill="#0000e4" d="M25.5 27.3l-3 28.9-14-1.5 3-28.9z"/><ellipse fill="#b4bbaf" rx="1" ry="1" transform="matrix(63.1799 29.76386 -7.65768 16.25499 179.2 89.2)"/><path fill="#131c1c" d="M96.6 98.3L75.3 55.1l29.2-2.1 7.5-4z"/><path fill="#c1d5fc" d="M130 12h26v35h-26z"/><path fill="#fff" d="M25 26h40v19H25z"/><ellipse fill="#020a0a" cx="57" cy="126" rx="30" ry="17"/><ellipse fill="#4f9bfd" cx="75" cy="38" rx="11" ry="21"/><ellipse fill="#7d73ff" cx="182" cy="40" rx="58" ry="16"/><ellipse fill="#45464b" rx="1" ry="1" transform="matrix(23.31744 -7.53391 7.89429 24.43279 181 0)"/><ellipse fill="#9d887a" cx="64" cy="17" rx="34" ry="9"/><ellipse fill="#cbdad8" cx="8" cy="94" rx="65" ry="21"/><ellipse fill="#0c0003" rx="1" ry="1" transform="matrix(4.78847 -3.1486 9.10687 13.84999 120.5 21.6)"/><ellipse fill="#ca9183" cx="110" cy="40" rx="10" ry="21"/><path d="M-10.1 61.3l38-.6.2 12-38 .6z"/></g></svg>