<svg xmlns="http://www.w3.org/2000/svg" viewBox="0 0 200 133"><filter id="b"><feGaussianBlur stdDeviation="12" /></filter><path fill="#685340" d="M0 0h200v133H0z"/><g filter="url(#b)" transform="translate(.5 .5)" fill-opacity=".5"><path fill="#c1efff" d="M44 43h34v42H44z"/><ellipse fill="#000215" rx="1" ry="1" transform="matrix(82.45445 -14.61584 4.47547 25.2481 83.3 95.6)"/><path fill="#ffc440" d="M135.8 34.4L44.8 15l5.4-25.4 91 19.4z"/><ellipse fill="#ffe5d0" cx="170" cy="132" rx="41" ry="14"/><ellipse fill="#fffffb" cx="20" cy="49" rx="4" ry="55"/><ellipse fill="#040000" cx="3" cy="86" rx="16" ry="37"/><path fill="#fff" d="M143 38h14v25h-14z"/><ellipse cx="35" cy="70" rx="10" ry="28"/><ellipse fill="#c6cff7" rx="1" ry="1" transform="rotate(144.7 19.6 41.2) scale(8.24261 33.44398)"/><path fill="#000717" d="M102 40h42v79h-42z"/><ellipse fill="#ac600d" cx="185" cy="14" rx="62" ry="27"/><path fill="#f5c9a3" d="M25 117l4.3 17.5L3 141l-4.4-17.5z"/><ellipse fill="#9497a0" rx="1" ry="1" transform="matrix(6.52127 .253 -1.08328 27.92188 95.5 61.5)"/><path fill="#f2cd6a" d="M153.1 81.1l5.3 27.2 7.4-2.9 5-20.7z"/><path fill="#d17401" d="M183 69h17v50h-17z"/><path fill="#ffffe2" d="M191 15l-15-28-27 3z"/><path d="M35 90h37v36H35z"/><ellipse fill="#3a1500" rx="1" ry="1" transform="matrix(-8.53444 -4.40495 30.5554 -59.2 196 59.8)"/><path fill="#ffd4ce" d="M45.7 26.4L52 51.6l-7.7 2L38 28.4z"/><path fill="#d8d7f3" d="M62 30h8v53h-8z"/><path fill="#c0b5ad" d="M137.1 113l58.6 35-103.5-34 48.5 7z"/><ellipse fill="#f89f4f" cx="81" cy="6" rx="34" ry="18"/></g></svg>