<svg xmlns="http://www.w3.org/2000/svg" viewBox="0 0 700 467"><filter id="b"><feGaussianBlur stdDeviation="12" /></filter><path fill="#372c2c" d="M0 0h700v464H0z"/><g filter="url(#b)" transform="translate(1.4 1.4) scale(2.73438)" fill-opacity=".5"><ellipse fill="#f1d3cc" rx="1" ry="1" transform="matrix(-21.93864 -16.45908 41.01297 -54.667 114.7 29.8)"/><ellipse fill="#f5f9ff" rx="1" ry="1" transform="matrix(-4.61887 -24.7117 6.69784 -1.2519 97.5 66.6)"/><path fill="#ffebff" d="M126 20h26v24h-26z"/><ellipse cx="114" cy="148" rx="50" ry="50"/><path d="M110 56L84 0l23-12z"/><ellipse cx="180" cy="9" rx="28" ry="28"/><ellipse cx="16" cy="75" rx="62" ry="30"/><ellipse fill="#c29fd3" rx="1" ry="1" transform="rotate(-145 103.5 -.1) scale(20.40907 8.89742)"/><ellipse fill="#ffe6ff" cx="194" cy="144" rx="11" ry="7"/><ellipse fill="#9b8381" cx="34" cy="125" rx="13" ry="25"/><path fill="#fffeff" d="M99.3 41.5l-10.8 5.3-11.8-24.3 10.8-5.3z"/><ellipse cx="255" cy="38" rx="26" ry="48"/><path fill="#ffffdf" d="M117 101l21-10-19-8z"/><ellipse fill="#0c0801" cx="232" cy="146" rx="28" ry="55"/><path d="M132.4 50.7l4 14.4-28.8 8.2-4-14.4z"/><ellipse fill="#000900" rx="1" ry="1" transform="matrix(38.27537 -19.2063 15.15785 30.2074 53.8 0)"/><path fill="#a5847f" d="M7 154l-23-17 82-3z"/><path fill="#fff" d="M106.8 70.6l-4-19.2-19.9 14.4 2.4 12z"/><ellipse fill="#08175a" cx="167" cy="157" rx="25" ry="27"/><ellipse fill="#947029" rx="1" ry="1" transform="matrix(4.01981 -16.97373 12.04274 2.85203 218.8 17.3)"/><path fill="#020200" d="M-44.4 166.2l131-27.8 5.8 27.4-131 27.8z"/><path fill="#e9d9b4" d="M108 0h19v30h-19z"/></g></svg>