<svg xmlns="http://www.w3.org/2000/svg" viewBox="0 0 200 133"><filter id="b"><feGaussianBlur stdDeviation="12" /></filter><path fill="#444754" d="M0 0h200v133H0z"/><g filter="url(#b)" transform="translate(.5 .5)" fill-opacity=".5"><ellipse fill="#c2f0ff" rx="1" ry="1" transform="matrix(-26.7572 -14.95409 10.17585 -18.20754 89.7 40.2)"/><path fill="#fff" d="M103.3 90.2l48 1.6-.6 16-48-1.6z"/><ellipse fill="#ff7614" rx="1" ry="1" transform="matrix(-18.19278 4.95532 -7.02975 -25.80878 87.1 107.8)"/><ellipse fill="#003691" cy="26" rx="56" ry="56"/><ellipse fill="#00061e" rx="1" ry="1" transform="matrix(21.68809 -7.72132 30.8191 86.56644 162.1 60.2)"/><path fill="#fff" d="M-14.8 119.7l-3.5-16.6 41-8.8 3.6 16.6z"/><ellipse fill="#0d0000" cx="16" cy="123" rx="60" ry="11"/><ellipse fill="#002f76" cx="175" cy="28" rx="38" ry="38"/><ellipse fill="#0f0000" cx="147" cy="131" rx="42" ry="27"/><path fill="#bc795a" d="M55 0h13v88H55z"/><path fill="#820a00" d="M121 82H69V62h52z"/><ellipse fill="#87d7ff" cx="95" cy="44" rx="23" ry="11"/><ellipse fill="#006cae" rx="1" ry="1" transform="matrix(23.84722 38.61194 -25.71852 15.88408 11.9 0)"/><ellipse fill="#001948" cx="17" cy="54" rx="29" ry="29"/><ellipse fill="#7c6642" cx="106" cy="10" rx="25" ry="25"/><ellipse fill="#ffcc8e" rx="1" ry="1" transform="matrix(2.4672 -13.86441 9.58813 1.70622 15.7 96.6)"/><ellipse rx="1" ry="1" transform="matrix(23.377 2.29969 -.47997 4.879 47.3 93.2)"/><path fill="#7dbfff" d="M109 39.2L67.1 31l2.2 32 48.2-4.5z"/><ellipse fill="#a63e22" rx="1" ry="1" transform="matrix(6.61633 -8.34773 20.82294 16.50406 193.4 88.2)"/><path fill="#ffe8c8" d="M126 69l9 38-26-1z"/><path fill="#daddd7" d="M37 76l26 2-27 9z"/><path fill="#ff7e87" d="M49 102h21v10H49z"/></g></svg>