<svg xmlns="http://www.w3.org/2000/svg" viewBox="0 0 700 467"><filter id="b"><feGaussianBlur stdDeviation="12" /></filter><path fill="#615b4f" d="M0 0h700v464H0z"/><g filter="url(#b)" transform="translate(1.4 1.4) scale(2.73438)" fill-opacity=".5"><ellipse fill="#f2fbff" rx="1" ry="1" transform="matrix(-104.22979 6.95218 -2.58973 -38.82625 25.4 66.5)"/><ellipse cx="219" cy="169" rx="104" ry="104"/><ellipse rx="1" ry="1" transform="matrix(-28.68983 6.47265 -12.23457 -54.22938 66 130.3)"/><path fill="#e8f4fd" d="M0 28h38v108H0z"/><ellipse fill="#bf9f6d" cx="185" cy="26" rx="57" ry="57"/><ellipse cx="27" cy="164" rx="32" ry="32"/><ellipse cx="126" cy="155" rx="35" ry="35"/><path fill="#d8cbbd" d="M120 123.8L78.6 94.2 113.2 78l30 38.9z"/><path fill="#fff" d="M38 32h32v28H38z"/><ellipse fill="#1c0d00" rx="1" ry="1" transform="matrix(-50.27677 .1755 -.0755 -21.62917 33 7.1)"/><ellipse rx="1" ry="1" transform="rotate(-37.4 196.7 -165) scale(25.74358 12.27524)"/><ellipse fill="#fff5e2" cx="192" cy="74" rx="12" ry="12"/><path fill="#fff" d="M243 126l5-25 23-12z"/><ellipse fill="#fff" cx="218" cy="19" rx="10" ry="10"/><path fill="#e6ae57" d="M85.6 29.2l7.5-18.6 35.3 14.2-7.5 18.6z"/><path fill="#fff" d="M219.5 45.5v17h-9v-17z"/><ellipse fill="#030203" cx="228" cy="147" rx="17" ry="99"/><path fill="#18130d" d="M58 122L31 94l50-24z"/><path fill="#ffb" d="M138 14h15v20h-15z"/><path fill="#0d0000" d="M29 49l26 29-22-14z"/><path fill="#fff" d="M253.7 32L240 34.9l-1.7-8.9 13.7-2.7z"/><path fill="#3d3209" d="M178 13h24v28h-24z"/></g></svg>