<svg xmlns="http://www.w3.org/2000/svg" viewBox="0 0 200 133"><filter id="b"><feGaussianBlur stdDeviation="12" /></filter><path fill="#374854" d="M0 0h200v133H0z"/><g filter="url(#b)" transform="translate(.5 .5)" fill-opacity=".5"><ellipse fill="#838c8f" rx="1" ry="1" transform="matrix(33.56339 12.14978 -24.84427 68.63155 72.9 38)"/><ellipse rx="1" ry="1" transform="rotate(-100.5 86.6 -61.7) scale(21.79203 53.24122)"/><ellipse fill="#12639e" rx="1" ry="1" transform="matrix(-5.0442 -18.82518 64.78742 -17.35974 128.5 117.2)"/><ellipse fill="#80b7da" cx="180" cy="42" rx="14" ry="14"/><ellipse fill="#0a0000" cx="199" cy="68" rx="86" ry="9"/><path fill="#899c9e" d="M77 14l35-1.9 3 58-35 1.8z"/><ellipse fill="#391a12" cx="6" cy="93" rx="35" ry="35"/><ellipse fill="#1c1623" rx="1" ry="1" transform="rotate(19.1 -216.7 285.2) scale(40.41157 10.59186)"/><ellipse rx="1" ry="1" transform="matrix(-7.10795 -.19635 4.77976 -173.02732 199 109.8)"/><path fill="#dd9b9d" d="M26.1 86.5l34.3 24-3.2-12.3-30.8-22.1z"/><ellipse fill="#8ca9db" cx="135" cy="83" rx="43" ry="3"/><path d="M70.2 128.3l-31 13.8-7.4-16.4 31-13.8z"/><ellipse fill="#0b1412" rx="1" ry="1" transform="rotate(105.5 -10.7 14) scale(122.70369 20.6819)"/><ellipse fill="#b6a3a8" rx="1" ry="1" transform="rotate(-11.9 347 -793.7) scale(32.77734 3.49877)"/><path fill="#bbccda" d="M36.3 141.2L-1 93.5l-15-41.4L-3 102z"/><ellipse rx="1" ry="1" transform="matrix(-29.87117 35.085 -8.966 -7.6336 181.7 12.7)"/><ellipse fill="#5fffff" cx="191" cy="37" rx="3" ry="17"/><path fill="#59ebff" d="M155 105l35 9-24-14z"/><ellipse fill="#2493ec" rx="1" ry="1" transform="matrix(19.02149 17.8585 -4.13947 4.40904 150.2 121.4)"/><path fill="#0d0000" d="M156.3 139.8l-53.4-9 41.4 14.6-45.7-68z"/><path fill="#769dbb" d="M190.2 92.6l-4.1 9.2-50.3-22.4 4.1-9.2z"/><ellipse fill="#0a152c" cx="127" cy="93" rx="39" ry="8"/></g></svg>