<svg xmlns="http://www.w3.org/2000/svg" viewBox="0 0 800 533"><filter id="b"><feGaussianBlur stdDeviation="12" /></filter><path fill="#777967" d="M0 0h800v531H0z"/><g filter="url(#b)" transform="translate(1.6 1.6) scale(3.125)" fill-opacity=".5"><ellipse fill="#192c00" cx="207" cy="113" rx="44" ry="169"/><ellipse fill="#fff" cx="100" cy="160" rx="54" ry="24"/><ellipse fill="#fff" rx="1" ry="1" transform="rotate(-89.4 37.5 -13.2) scale(13.79289 107.87728)"/><ellipse fill="#190000" cx="92" cy="86" rx="18" ry="56"/><ellipse fill="#c1d5ff" cx="40" cy="100" rx="23" ry="39"/><ellipse fill="#fff" cx="132" cy="86" rx="19" ry="34"/><ellipse rx="1" ry="1" transform="matrix(28.75474 67.02325 -16.4843 7.0722 186.2 157.2)"/><ellipse fill="#fff" cx="251" cy="13" rx="5" ry="74"/><ellipse fill="#3b231d" cy="136" rx="39" ry="39"/><path fill="#000016" d="M-16 69v45l79-74z"/><ellipse fill="#cbddff" cx="46" cy="146" rx="10" ry="86"/><ellipse fill="#d1cfae" cx="211" cy="134" rx="14" ry="14"/><ellipse fill="#fff" rx="1" ry="1" transform="rotate(-128.1 102.5 54.7) scale(27.29883 29.58269)"/><path fill="#e8c0ba" d="M-3-1l64 52 76 7z"/><ellipse rx="1" ry="1" transform="matrix(9.33249 -24.584 13.67898 5.19277 98 84.6)"/><ellipse fill="#f3f1f9" rx="1" ry="1" transform="matrix(9.7088 -3.06117 9.067 28.75687 8.9 32.6)"/><ellipse fill="#adc282" cx="168" cy="42" rx="20" ry="20"/><ellipse fill="#fff" rx="1" ry="1" transform="matrix(5.22684 -4.38122 13.76762 16.42492 124 28.6)"/><ellipse fill="#798434" rx="1" ry="1" transform="matrix(-5.84266 17.98184 -70.30538 -22.8436 220.3 90.4)"/><ellipse fill="#fff" cx="80" cy="21" rx="54" ry="8"/><path fill="#394407" d="M84.8 25.4l70 39.4-25.4-79.2 4.2 58.3z"/><path d="M210 137h20v33h-20z"/></g></svg>