<svg xmlns="http://www.w3.org/2000/svg" viewBox="0 0 700 467"><filter id="b"><feGaussianBlur stdDeviation="12" /></filter><path fill="#5f5d59" d="M0 0h700v464H0z"/><g filter="url(#b)" transform="translate(1.4 1.4) scale(2.73438)" fill-opacity=".5"><ellipse fill="#dff" rx="1" ry="1" transform="matrix(38.00837 19.53365 -37.19287 72.3695 152.2 132.4)"/><ellipse fill="#1a0900" rx="1" ry="1" transform="rotate(-60.8 60.4 -3.3) scale(111.38698 64.78615)"/><ellipse fill="#270000" rx="1" ry="1" transform="matrix(111.74148 -7.61777 1.81565 26.63294 191.6 10.7)"/><path fill="#9fd9ff" d="M90 45h34v72H90z"/><path fill="#ebffff" d="M35.8 147.3l5.4-25.4 41 8.8-5.4 25.4z"/><ellipse fill="#c4ffff" cx="138" cy="141" rx="20" ry="53"/><ellipse rx="1" ry="1" transform="matrix(10.5756 43.38288 -19.25341 4.69348 29.2 156)"/><path fill="#ffc712" d="M12 15.5L17.5-13 46-7.5 40.5 21z"/><ellipse fill="#aeb3ae" rx="1" ry="1" transform="rotate(-10.5 450.7 -1270) scale(27.34397 30.89496)"/><ellipse fill="#ffcfa1" cx="72" cy="40" rx="9" ry="24"/><ellipse fill="#001407" cx="225" cy="116" rx="19" ry="37"/><path d="M62 53l32 71-52 1z"/><ellipse fill="#42342c" cx="158" cy="70" rx="9" ry="52"/><path fill="#bce5f8" d="M40 129l41-4-12 60z"/><ellipse fill="#4f1400" rx="1" ry="1" transform="rotate(37.9 71.1 293.8) scale(32.69321 32.10446)"/><path fill="#e6b595" d="M41 62h10v52H41z"/><ellipse fill="#000715" rx="1" ry="1" transform="matrix(-24.59759 -12.51668 19.77 -38.8517 12.4 90)"/><path d="M215 34l-27-21 24 96z"/><path fill="#f47f00" d="M185.3 12.4l6.6-23 28.8 8.2-6.6 23z"/><ellipse fill="#c1fcff" cy="155" rx="9" ry="21"/><ellipse fill="#1c5e9c" cx="134" cy="77" rx="25" ry="16"/><path d="M83 120h21v24H83z"/></g></svg>