<svg xmlns="http://www.w3.org/2000/svg" viewBox="0 0 200 133"><filter id="b"><feGaussianBlur stdDeviation="12" /></filter><path fill="#685340" d="M0 0h200v133H0z"/><g filter="url(#b)" transform="translate(.5 .5)" fill-opacity=".5"><ellipse fill="#cadfff" rx="1" ry="1" transform="rotate(-112.5 48.2 8) scale(30.36202 15.82436)"/><ellipse fill="#000007" rx="1" ry="1" transform="matrix(27.32623 6.15823 -6.19792 27.50235 123.9 88.6)"/><ellipse cx="54" cy="104" rx="87" ry="19"/><ellipse fill="#ffbd41" cx="94" cy="9" rx="50" ry="17"/><path fill="#ffe7d3" d="M132.5 144.5v-25h67v25z"/><path fill="#fff" d="M144 38h12v23h-12zM18 0h6v99h-6z"/><ellipse cx="33" cy="68" rx="11" ry="28"/><path d="M49 29l18-8-14 29z"/><ellipse fill="#ba7129" cx="150" cy="4" rx="39" ry="39"/><path fill="#0b0000" d="M-16 98l34 18L8 7z"/><path fill="#fed7b7" d="M42 148l-58-24 38-4z"/><path fill="#afcafb" d="M73.2 83.5l-25.8 2.7-4.6-43.7 25.8-2.7z"/><ellipse fill="#a25200" cx="195" cy="50" rx="13" ry="75"/><ellipse fill="#031026" cx="124" cy="60" rx="22" ry="22"/><path d="M30.1 124.4l1.8-35 40 2.2-1.8 35z"/><ellipse fill="#e4933d" rx="1" ry="1" transform="matrix(-22.64192 -19.36515 9.43285 -11.02898 112.3 19.3)"/><path fill="#fff" d="M96 44h6v30h-6z"/><ellipse fill="#ffe655" cx="162" cy="94" rx="8" ry="8"/><path fill="#000001" d="M166 113l13-42 3 39z"/><path fill="#ffffec" d="M177-16h-45l54 26z"/><ellipse fill="#d8a05a" cx="199" cy="113" rx="20" ry="22"/></g></svg>