<svg xmlns="http://www.w3.org/2000/svg" viewBox="0 0 700 467"><filter id="b"><feGaussianBlur stdDeviation="12" /></filter><path fill="#181717" d="M0 0h700v464H0z"/><g filter="url(#b)" transform="translate(1.4 1.4) scale(2.73438)" fill-opacity=".5"><ellipse fill="#ab7ab6" cx="127" cy="91" rx="49" ry="49"/><ellipse fill="#ba0000" rx="1" ry="1" transform="rotate(-79.6 133.3 -8.6) scale(26.64671 48.69567)"/><ellipse fill="#18adfa" rx="1" ry="1" transform="matrix(-.52112 22.35562 -52.45597 -1.22277 133 79.4)"/><ellipse cx="117" cy="26" rx="255" ry="31"/><ellipse fill="#ef0000" cx="121" cy="116" rx="46" ry="17"/><ellipse fill="#000b00" cx="120" cy="150" rx="255" ry="24"/><ellipse fill="#a6f0c0" rx="1" ry="1" transform="rotate(176.3 77.1 37) scale(22.35528 13.95283)"/><path fill="#004cf7" d="M180.2 111.9l-34.8-9.3 4.4-16.5 34.8 9.3z"/><path fill="#002dc7" d="M78 75h58v22H78z"/><path fill="#f6a2cd" d="M142.2 137.1l-.3-.4L138 160l-9.2-14.5z"/><path fill="#000f00" d="M178 0h78v170h-78z"/><ellipse rx="1" ry="1" transform="matrix(26.569 -6.8279 28.3671 110.38315 45.5 78.7)"/><path fill="#c30000" d="M159.9 104.1l20.7 7.6-4.5 12.2-20.7-7.6z"/><path fill="#94e0ba" d="M83.3 55l21.8 3.1-2.4 16.8L81 72z"/><ellipse fill="#0e0503" rx="1" ry="1" transform="rotate(6.6 -1152.5 1411) scale(10.04553 32.06152)"/><path fill="#fd1500" d="M103 101h40v29h-40z"/><path fill="#d10000" d="M76 98h44v19H76z"/><ellipse fill="#306613" rx="1" ry="1" transform="matrix(18.11615 -30.93382 4.87873 2.85719 213.3 122.2)"/><ellipse fill="#000300" rx="1" ry="1" transform="matrix(60.28047 11.15646 -5.48172 29.61876 140.6 26.1)"/><ellipse fill="#b5dfbb" rx="1" ry="1" transform="matrix(-3.70174 4.8345 -16.22707 -12.42494 159.8 77.2)"/><ellipse fill="#000100" cx="2" cy="46" rx="75" ry="75"/><path fill="#0c5967" d="M108 54h60v6h-60z"/></g></svg>