<svg xmlns="http://www.w3.org/2000/svg" viewBox="0 0 700 467"><filter id="b"><feGaussianBlur stdDeviation="12" /></filter><path fill="#93858a" d="M0 0h700v464H0z"/><g filter="url(#b)" transform="translate(1.4 1.4) scale(2.73438)" fill-opacity=".5"><ellipse fill="#fff" rx="1" ry="1" transform="matrix(-89.7925 -6.12144 5.05131 -74.09529 73.3 33.3)"/><ellipse fill="#4e0000" rx="1" ry="1" transform="matrix(.45928 -38.99517 115.21828 1.35703 83.2 143.4)"/><ellipse fill="#005" cx="239" cy="68" rx="33" ry="90"/><ellipse fill="#fff" rx="1" ry="1" transform="matrix(-5.44979 28.03673 -39.96253 -7.76793 125.3 77.3)"/><ellipse fill="#8a0000" cx="173" cy="92" rx="12" ry="255"/><ellipse fill="#eff" cx="68" cy="39" rx="96" ry="67"/><ellipse fill="#003688" cx="255" cy="73" rx="50" ry="50"/><ellipse fill="#801f00" cx="12" cy="131" rx="184" ry="27"/><ellipse fill="#fff" rx="1" ry="1" transform="matrix(114.9276 1.20356 -.11393 10.87882 22 95.8)"/><ellipse fill="#82abbd" rx="1" ry="1" transform="rotate(-74.7 46 7.5) scale(33.90266 21.82342)"/><ellipse fill="#002b6b" cx="243" cy="8" rx="30" ry="146"/><path fill="#c2dac9" d="M131 171l-40-33 14-5z"/><ellipse fill="#fdffff" cx="131" cy="73" rx="32" ry="32"/><ellipse fill="#5f3a00" cx="225" cy="138" rx="18" ry="22"/><ellipse fill="#f9ffff" cx="141" cy="10" rx="22" ry="95"/><ellipse fill="#a31c00" cx="144" cy="121" rx="34" ry="17"/><ellipse fill="#b00700" cx="173" cy="46" rx="12" ry="60"/><ellipse fill="#001917" rx="1" ry="1" transform="matrix(16.38335 -31.87855 19.2303 9.88303 -.1 164.6)"/><ellipse fill="#335054" rx="1" ry="1" transform="matrix(24.03995 -30.33086 27.73018 21.97867 71.5 169)"/><path fill="#c3d6ff" d="M101 171l-34-20 2 23z"/><ellipse fill="#00362a" rx="1" ry="1" transform="matrix(-12.21968 27.48487 -7.8211 -3.47723 180.1 149.3)"/><path fill="#deb575" d="M187 135h20v31h-20z"/></g></svg>