<svg xmlns="http://www.w3.org/2000/svg" viewBox="0 0 700 467"><filter id="b"><feGaussianBlur stdDeviation="12" /></filter><path fill="#4a454d" d="M0 0h700v464H0z"/><g filter="url(#b)" transform="translate(1.4 1.4) scale(2.73438)" fill-opacity=".5"><ellipse fill="#7ab8de" cx="120" cy="61" rx="90" ry="41"/><ellipse fill="#210000" cx="208" cy="152" rx="255" ry="27"/><ellipse fill="#0094e2" cx="61" cy="32" rx="33" ry="19"/><ellipse fill="#a46b6b" rx="1" ry="1" transform="rotate(-2.3 2346.6 -3413.8) scale(75.8892 36.60642)"/><ellipse rx="1" ry="1" transform="matrix(15.86282 -17.84272 50.31325 44.7303 234.4 12.5)"/><ellipse fill="#1e0100" rx="1" ry="1" transform="matrix(-5.85415 127.50918 -31.8384 -1.46175 0 69.7)"/><ellipse fill="#d6cdc0" rx="1" ry="1" transform="matrix(25.5992 -.89394 .46445 13.30012 133.4 47.5)"/><ellipse fill="#99707a" cx="141" cy="147" rx="27" ry="8"/><ellipse fill="#0087b9" cx="96" cy="32" rx="65" ry="12"/><ellipse fill="#1b0400" cx="244" cy="139" rx="21" ry="48"/><ellipse fill="#1b1315" cx="135" cy="2" rx="136" ry="16"/><ellipse fill="#643d31" rx="1" ry="1" transform="matrix(48.5103 -14.00178 7.17523 24.85917 59.8 108.3)"/><ellipse fill="#0f89c5" cx="183" cy="45" rx="28" ry="14"/><path fill="#0076ba" d="M58.4 78.2l-28-.4 1.2-66 28 .4z"/><ellipse fill="#2f0000" cx="49" cy="160" rx="35" ry="26"/><ellipse fill="#95614f" cx="64" cy="126" rx="74" ry="8"/><path fill="#ae8592" d="M83.9 163l-1.7-16 20-2 1.6 16z"/><path d="M271 150l-123 2 2 33z"/><ellipse fill="#b6afa9" cx="130" cy="48" rx="27" ry="17"/><ellipse fill="#eac7b0" cx="108" cy="118" rx="32" ry="3"/><ellipse fill="#8fb6c8" cx="73" cy="65" rx="17" ry="17"/><ellipse fill="#bc7875" cx="175" cy="95" rx="39" ry="15"/></g></svg>