<svg xmlns="http://www.w3.org/2000/svg" viewBox="0 0 200 133"><filter id="b"><feGaussianBlur stdDeviation="12" /></filter><path fill="#4c6678" d="M0 0h200v133H0z"/><g filter="url(#b)" transform="translate(.5 .5)" fill-opacity=".5"><ellipse fill="#e6ffff" cx="96" cy="40" rx="58" ry="24"/><ellipse fill="#000002" rx="1" ry="1" transform="matrix(7.18685 -23.50713 65.6516 20.0717 157.2 80)"/><ellipse fill="#fff" cx="82" cy="74" rx="19" ry="19"/><ellipse cx="21" cy="85" rx="23" ry="23"/><ellipse fill="#e4cbe8" cx="110" cy="124" rx="75" ry="17"/><ellipse rx="1" ry="1" transform="matrix(0 13.70296 -125.51189 0 101.1 3.7)"/><path fill="#e1ffff" d="M124 17h14v64h-14z"/><ellipse cx="60" cy="50" rx="5" ry="60"/><path fill="#79ffff" d="M147 4l-3 63 17-1z"/><path d="M33 0h10v92H33z"/><path fill="#dbf2f9" d="M69 23h27v103H69z"/><path fill="#86ffff" d="M-16 67l25 2 2-61z"/><ellipse fill="#000722" rx="1" ry="1" transform="matrix(-9.54149 .16655 -.5718 -32.7582 107.3 97.9)"/><ellipse cx="16" cy="32" rx="5" ry="75"/><path fill="#00d0ff" d="M184 9h12v54h-12z"/><path d="M156 0h10v107h-10z"/><path fill="#79ffff" d="M22 18h11v42H22z"/><ellipse fill="#0c1417" rx="1" ry="1" transform="matrix(-53.62987 -1.49802 .1751 -6.26872 10.2 127.1)"/><path d="M145.3 73.8l-4 .2-4.6-87.8 4-.2z"/><ellipse fill="#120609" rx="1" ry="1" transform="rotate(-2.6 2871.8 -4057.4) scale(28.0125 5.56868)"/><path fill="#2cf1ff" d="M165 11h12v44h-12z"/><ellipse rx="1" ry="1" transform="matrix(-45.05325 12.91881 -4.99344 -17.4142 182.1 84.8)"/></g></svg>