<svg xmlns="http://www.w3.org/2000/svg" viewBox="0 0 200 133"><filter id="b"><feGaussianBlur stdDeviation="12" /></filter><path fill="#696f5e" d="M0 0h200v133H0z"/><g filter="url(#b)" transform="translate(.5 .5)" fill-opacity=".5"><ellipse fill="#fff" rx="1" ry="1" transform="matrix(-26.71713 -14.09185 32.46121 -61.54413 171.6 115)"/><ellipse cx="44" cy="16" rx="46" ry="46"/><ellipse fill="#e4ebff" rx="1" ry="1" transform="matrix(-25.52943 18.61638 -28.15917 -38.61586 17.6 94.6)"/><ellipse cx="166" cy="12" rx="45" ry="45"/><ellipse fill="#ffffe7" cx="118" cy="51" rx="20" ry="22"/><ellipse cx="93" cy="15" rx="199" ry="18"/><ellipse fill="#ece3dc" cx="140" cy="132" rx="85" ry="18"/><ellipse fill="#255500" cx="114" cy="97" rx="35" ry="24"/><path fill="#c9d2b2" d="M65 42l53-14-32 60z"/><path d="M25.1 105l30.4-68.4-35.2 33 15.3 12z"/><path fill="#000008" d="M135 55h30v30h-30z"/><path fill="#fff" d="M24 92l31 30-8-60z"/><path fill="#000f00" d="M35.2 68l37.1-6.5-16.5 47-7.7-94z"/><ellipse fill="#0e3b00" rx="1" ry="1" transform="rotate(-79.4 88.6 2.8) scale(8.47659 23.65282)"/><ellipse fill="#e4d0cb" rx="1" ry="1" transform="matrix(-63.0805 34.00145 -11.5054 -21.34517 149 129)"/><ellipse fill="#f1efc9" cx="77" cy="72" rx="11" ry="11"/><path fill="#e7ffff" d="M107 148l-42-39 55 23z"/><ellipse fill="#cbdbff" rx="1" ry="1" transform="matrix(-8.88665 1.9813 -5.57538 -25.00714 16.9 74)"/><path fill="#334907" d="M99 70h47v43H99z"/><ellipse fill="#f9dfd8" rx="1" ry="1" transform="rotate(28.8 -66.2 390.3) scale(12.58424 28.80028)"/><path fill="#836663" d="M31.7 127L66 106.4 78.3 127 44 147.6z"/><path fill="#639115" d="M104 126l47-28-97-4z"/></g></svg>