<svg xmlns="http://www.w3.org/2000/svg" viewBox="0 0 200 133"><filter id="b"><feGaussianBlur stdDeviation="12" /></filter><path fill="#44492b" d="M0 0h200v133H0z"/><g filter="url(#b)" transform="translate(.5 .5)" fill-opacity=".5"><ellipse fill="#e7e3ff" cx="96" cy="88" rx="17" ry="17"/><ellipse fill="#ffb41c" cx="140" cy="132" rx="199" ry="14"/><path fill="#fff" d="M87 30h23v24H87z"/><path fill="#ff0" d="M110.6-8l42 12.8-5.2 17.2-42-12.8z"/><ellipse fill="#001727" cx="23" rx="75" ry="75"/><path fill="#fff" d="M58 52h8v34h-8z"/><ellipse fill="#051200" rx="1" ry="1" transform="rotate(-77.4 108.5 -64.3) scale(59.47993 21.30524)"/><path fill="#0042ae" d="M52 19h36v31H52z"/><ellipse fill="#000200" cx="11" cy="29" rx="19" ry="50"/><path fill="#e3da74" d="M1.2 94.7l25-1.3.6 12-25 1.2z"/><path fill="#2c1015" d="M28 84h56v41H28z"/><path fill="#caeb00" d="M178 9l-2 19 39-23z"/><ellipse fill="#002a16" rx="1" ry="1" transform="rotate(-81.6 123.7 -87.1) scale(21.47946 83.20566)"/><path fill="#dcda6c" d="M168 89l40 13-34 1z"/><path fill="#edefff" d="M97.8 69.5l14.8 2.1-2.4 16.9-14.8-2.1z"/><path fill="#080820" d="M59 97l64-44-47-4z"/><path fill="#d2c7af" d="M91.8 129.8l-8 .3-1.6-46 8-.2z"/><ellipse fill="#c18f0a" cx="17" cy="132" rx="48" ry="17"/><path fill="#99a81e" d="M38 14h13v27H38z"/><path fill="#edeb19" d="M112.8-12.5l36.4 6.4-4 22.6-36.4-6.4z"/><ellipse fill="#9fdc56" rx="1" ry="1" transform="matrix(.703 -7.83896 6.74652 .60503 167 79.3)"/><ellipse fill="#605600" cx="155" cy="12" rx="22" ry="22"/></g></svg>