<svg xmlns="http://www.w3.org/2000/svg" viewBox="0 0 200 133"><filter id="b"><feGaussianBlur stdDeviation="12" /></filter><path fill="#36385c" d="M0 0h200v133H0z"/><g filter="url(#b)" transform="translate(.5 .5)" fill-opacity=".5"><ellipse fill="#9f92c2" cx="104" cy="78" rx="60" ry="52"/><ellipse cx="82" cy="10" rx="104" ry="22"/><ellipse fill="#000025" cx="14" cy="56" rx="34" ry="34"/><path fill="#feffe7" d="M161.5 102.9l15.1-13.1 9.9 11.3-15.1 13.1z"/><ellipse fill="#000060" cx="191" cy="34" rx="30" ry="71"/><path d="M79 97h35v16H79z"/><path fill="#ebf1df" d="M33.7 90l4.4 27.7-13.8 2.2-4.4-27.6z"/><ellipse cx="199" cy="132" rx="19" ry="84"/><ellipse fill="#1d38f9" rx="1" ry="1" transform="rotate(166.7 94 23.5) scale(21.9892 14.09484)"/><ellipse cy="132" rx="14" ry="112"/><ellipse fill="#1032b4" cx="103" cy="59" rx="29" ry="17"/><path fill="#c5bdb1" d="M120 85h29v28h-29z"/><path d="M0 120h72v13H0z"/><ellipse fill="#00000f" cx="130" cy="18" rx="41" ry="18"/><ellipse fill="#d6dbe6" cx="91" cy="121" rx="22" ry="9"/><path fill="#9180b3" d="M42.3 59.3L67 27.8l25.6 64.7-23 14.6z"/><path d="M52 90.8L34 31l-2.7 60-47.3 14.6z"/><ellipse fill="#000019" cx="48" cy="9" rx="133" ry="23"/><path d="M131.1 132.1l2-15.9 29.8 3.7-2 15.9z"/><ellipse cx="170" cy="72" rx="7" ry="23"/><ellipse cx="102" cy="71" rx="27" ry="3"/><ellipse fill="#141b28" cx="93" cy="132" rx="6" ry="27"/></g></svg>