<svg xmlns="http://www.w3.org/2000/svg" viewBox="0 0 200 133"><filter id="b"><feGaussianBlur stdDeviation="12" /></filter><path fill="#3e1e74" d="M0 0h200v133H0z"/><g filter="url(#b)" transform="translate(.5 .5)" fill-opacity=".5"><ellipse fill="#7f36fc" rx="1" ry="1" transform="matrix(-6.3651 -69.37271 32.60285 -2.99139 25.6 96.5)"/><ellipse fill="#120b00" cx="88" cy="91" rx="28" ry="64"/><ellipse fill="#140c1e" cx="161" rx="39" ry="39"/><ellipse cx="131" cy="76" rx="35" ry="10"/><ellipse fill="#ce4666" rx="1" ry="1" transform="rotate(120 32.4 55.5) scale(17.75773 11.68509)"/><ellipse fill="#6940bc" rx="1" ry="1" transform="matrix(21.17031 33.1031 -17.14856 10.96696 140.9 121.7)"/><ellipse fill="#0e0c1d" cx="107" cy="3" rx="49" ry="16"/><path fill="#ff627b" d="M180.2 51L159 73.4 154 59l17.6-15.5z"/><path fill="#4a22ae" d="M74.7 60.5L51.4 79.3-16 11.7l88 25z"/><path fill="#ff75c6" d="M95 40l23 10-10 6z"/><ellipse fill="#000413" cx="86" cy="119" rx="14" ry="41"/><ellipse fill="#7328e3" rx="1" ry="1" transform="matrix(18.2569 -11.92185 28.5722 43.75492 0 61.6)"/><ellipse fill="#462197" rx="1" ry="1" transform="rotate(-9.1 381.4 -852.5) scale(24.06535 22.48674)"/><ellipse fill="#46219a" cx="180" cy="106" rx="39" ry="32"/><path fill="#000300" d="M101 53l-4 34 54-5z"/><path fill="#926e93" d="M100 106h5v27h-5z"/><ellipse cx="140" cy="76" rx="26" ry="6"/><ellipse fill="#000500" cx="109" cy="116" rx="4" ry="44"/><ellipse fill="#3b2284" rx="1" ry="1" transform="rotate(-83.4 84.3 54.5) scale(9.60175 42.71214)"/><path fill="#ff6f65" d="M159 51h10v17h-10z"/><ellipse fill="#23143b" cx="147" rx="73" ry="28"/><ellipse fill="#000012" rx="1" ry="1" transform="rotate(-45.1 84.3 -79) scale(10.7211 8.64443)"/></g></svg>