<svg xmlns="http://www.w3.org/2000/svg" viewBox="0 0 700 467"><filter id="b"><feGaussianBlur stdDeviation="12" /></filter><path fill="#5e664c" d="M0 0h700v464H0z"/><g filter="url(#b)" transform="translate(1.4 1.4) scale(2.73438)" fill-opacity=".5"><ellipse fill="#fff" rx="1" ry="1" transform="matrix(43.2887 125.8056 -39.05592 13.43883 .6 120.2)"/><ellipse fill="#e1e0ff" rx="1" ry="1" transform="matrix(6.63382 19.38636 -49.6902 17.0035 169.4 158)"/><ellipse fill="#000b00" cx="107" cy="118" rx="43" ry="43"/><ellipse rx="1" ry="1" transform="matrix(63.88632 23.67719 -6.77715 18.28625 44.9 19)"/><ellipse fill="#001400" rx="1" ry="1" transform="matrix(93.74315 35.60522 -12.64403 33.28982 208.5 28.9)"/><ellipse fill="#ffffe9" rx="1" ry="1" transform="matrix(13.02746 -25.24025 19.13507 9.87634 64 70.7)"/><path fill="#fff9ff" d="M112.4 204.4L-13 166l10.5-34.5L123 170z"/><path fill="#fff9bf" d="M107 36.4l43.8-4.6 4.2 39.8-43.8 4.6z"/><ellipse fill="#061c00" rx="1" ry="1" transform="rotate(40.8 -16.2 343.2) scale(22.80722 42.81184)"/><ellipse fill="#d5c992" rx="1" ry="1" transform="matrix(-15.8475 -6.22456 13.71918 -34.92848 172.3 89.9)"/><ellipse fill="#244a00" rx="1" ry="1" transform="matrix(-34.27219 6.72394 -4.57007 -23.29383 69 118.3)"/><ellipse rx="1" ry="1" transform="matrix(36.23283 16.4892 -9.72492 21.36923 44 20.3)"/><path fill="#fff" d="M0 34h20v31H0z"/><ellipse rx="1" ry="1" transform="rotate(-40.3 195.7 -132.7) scale(25.27163 15.91331)"/><path fill="#011300" d="M134 140l-48-28 5-92z"/><ellipse fill="#d0cf9a" rx="1" ry="1" transform="matrix(-27.23888 -10.6461 4.14145 -10.59622 89.6 7)"/><path d="M167 5l-22-21-44 60z"/><ellipse fill="#6f72ad" rx="1" ry="1" transform="matrix(-11.27822 -8.53902 84.49458 -111.59934 228.8 148.3)"/><ellipse fill="#dce5ff" rx="1" ry="1" transform="rotate(167.9 7.4 44.5) scale(37.27783 12.01749)"/><ellipse fill="#273900" cx="225" cy="33" rx="32" ry="91"/><path fill="#5b5f4e" d="M-19.2 127.5l-3.6-22.7 78-12.3 3.6 22.7z"/><path fill="#f4f6ff" d="M58 152l-63 19h119z"/></g></svg>