<svg xmlns="http://www.w3.org/2000/svg" viewBox="0 0 700 467"><filter id="b"><feGaussianBlur stdDeviation="12" /></filter><path fill="#676f5c" d="M0 0h700v464H0z"/><g filter="url(#b)" transform="translate(1.4 1.4) scale(2.73438)" fill-opacity=".5"><ellipse fill="#fff" rx="1" ry="1" transform="matrix(-33.55552 60.5879 -39.64758 -21.9581 237.1 134.6)"/><ellipse cx="66" rx="78" ry="78"/><ellipse fill="#e0ecff" cx="12" cy="123" rx="57" ry="57"/><ellipse rx="1" ry="1" transform="matrix(-101.73767 -22.633 7.99289 -35.92888 224.1 27.5)"/><ellipse fill="#c9d5aa" cx="123" cy="71" rx="37" ry="37"/><path fill="#fcebe8" d="M243 185l-179-9 201-56z"/><ellipse fill="#0c3700" rx="1" ry="1" transform="rotate(175.5 71.7 61.3) scale(39.48335 25.07251)"/><path d="M24.3 103.5l34.5-78.8 10.6 21-20 54z"/><ellipse rx="1" ry="1" transform="matrix(49.60452 -72.44557 14.70942 10.07175 212.2 51.5)"/><ellipse fill="#e2e6cb" rx="1" ry="1" transform="matrix(22.85845 -3.53778 4.36138 28.17998 153.9 66.3)"/><ellipse fill="#f7ffff" rx="1" ry="1" transform="matrix(3.46229 -6.23382 27.78606 15.4325 116.6 160)"/><ellipse fill="#fff" rx="1" ry="1" transform="matrix(-20.3881 -21.85497 8.42427 -7.85885 51.8 124.7)"/><ellipse fill="#083c00" rx="1" ry="1" transform="matrix(-6.58276 12.91939 -22.33716 -11.38135 84.4 115.9)"/><ellipse rx="1" ry="1" transform="matrix(-13.92722 20.60321 -28.2912 -19.1241 33.5 25.6)"/><ellipse fill="#001400" cx="117" cy="20" rx="40" ry="24"/><path fill="#000b00" d="M125.7 86.8l21 .4-.4 22-21-.4z"/><path fill="#ebf3ff" d="M2.6 86.8L69 154.5 57.3 74.7l-6.8 26.5z"/><path fill="#edf3d9" d="M87 88h37v18H87z"/><path fill="#09070d" d="M196 0h16v109h-16z"/><ellipse fill="#315300" rx="1" ry="1" transform="rotate(30.6 -93.6 92) scale(65.21957 12.85864)"/><ellipse fill="#f3d9d0" cx="255" cy="99" rx="36" ry="36"/><path d="M86.2 73.6L31.7 86.3l5.6 25 28.9-55z"/></g></svg>