<svg xmlns="http://www.w3.org/2000/svg" viewBox="0 0 200 133"><filter id="b"><feGaussianBlur stdDeviation="12" /></filter><path fill="#510726" d="M0 0h200v133H0z"/><g filter="url(#b)" transform="translate(.5 .5)" fill-opacity=".5"><ellipse fill="#df1827" rx="1" ry="1" transform="matrix(5.62971 39.86072 -55.61755 7.85512 104.2 79.9)"/><ellipse fill="#000004" cy="34" rx="72" ry="72"/><ellipse fill="#a8a3bb" rx="1" ry="1" transform="matrix(-7.18784 -.26357 1.80782 -49.302 79 111.4)"/><ellipse fill="#e200c1" rx="1" ry="1" transform="rotate(-87 137.7 -15.4) scale(7.63521 23.68796)"/><ellipse fill="#000006" rx="1" ry="1" transform="matrix(52.00053 12.19662 -6.29279 26.82944 198.6 36.4)"/><ellipse fill="#00111d" cx="104" cy="115" rx="16" ry="26"/><ellipse fill="#c70007" cx="116" cy="58" rx="71" ry="17"/><ellipse fill="#7c06f0" rx="1" ry="1" transform="rotate(-93.1 57.6 -51) scale(19.9659 9.19922)"/><ellipse fill="#000104" rx="1" ry="1" transform="matrix(-5.52853 50.44726 -35.73592 -3.91631 3.1 90)"/><ellipse fill="#a55282" rx="1" ry="1" transform="matrix(.45398 -6.83502 25.73319 1.7092 54 117)"/><ellipse fill="#180037" cx="69" cy="18" rx="40" ry="31"/><ellipse fill="#110007" cx="199" cy="78" rx="29" ry="80"/><ellipse fill="#5a00b5" cx="169" cy="3" rx="20" ry="10"/><ellipse rx="1" ry="1" transform="matrix(66.92476 -13.7903 3.00774 14.59663 31.4 6.7)"/><path fill="#a0000f" d="M41 65h29v26H41z"/><ellipse fill="#460047" rx="1" ry="1" transform="matrix(-30.39507 -.8113 .37833 -14.174 41 35)"/><path fill="#fb00ff" d="M135 23h8v7h-8z"/><path fill="#c8d2dd" d="M87.3 72.4l-2.7 16.8-9.9-1.6 2.7-16.8z"/><path fill="#330609" d="M35 85h22v27H35z"/><ellipse fill="#891965" cx="127" cy="112" rx="43" ry="4"/><ellipse fill="#d20017" rx="1" ry="1" transform="matrix(52.95746 7.06554 -1.33466 10.0035 126.2 66)"/><path fill="#67031d" d="M72 131l7-37 7 53z"/></g></svg>