<svg xmlns="http://www.w3.org/2000/svg" viewBox="0 0 641 195"><filter id="b"><feGaussianBlur stdDeviation="12" /></filter><path fill="#b5babd" d="M0 0h641v192H0z"/><g filter="url(#b)" transform="translate(1.3 1.3) scale(2.5039)" fill-opacity=".5"><ellipse fill="#2e2e40" cx="198" cy="76" rx="54" ry="54"/><ellipse rx="1" ry="1" transform="matrix(3.47913 -17.57087 19.84446 3.9293 9.6 60.3)"/><ellipse fill="#fff" cx="77" rx="100" ry="47"/><ellipse fill="#eff5f3" cx="201" cy="6" rx="36" ry="49"/><ellipse cx="238" cy="76" rx="109" ry="11"/><ellipse fill="#ffffef" rx="1" ry="1" transform="matrix(-36.36715 -.33074 .9834 -108.1324 68.2 76)"/><ellipse cx="5" cy="76" rx="18" ry="18"/><ellipse fill="#463c49" cx="157" cy="66" rx="22" ry="22"/><ellipse fill="#fff" cx="223" cy="3" rx="255" ry="12"/><path fill="#010010" d="M105 49h9v14h-9z"/><ellipse fill="#97a0be" rx="1" ry="1" transform="matrix(-45.44898 5.268 -1.619 -13.96773 144.1 35.2)"/><ellipse fill="#b2aaa9" rx="1" ry="1" transform="matrix(6.88765 -2.22943 8.7066 26.89845 185.8 47.5)"/><path fill="#ebe1b0" d="M24 65h124v10H24z"/><ellipse fill="#808294" rx="1" ry="1" transform="matrix(3.85455 18.51574 -7.0338 1.46427 7 33)"/><path fill="#585f74" d="M20.3 46.6l23 2.9L-16 77V26z"/><path fill="#667fa9" d="M265 71l-33-49-31 23z"/><path fill="#d9f4ff" d="M13 12h31v36H13z"/><ellipse fill="#23222f" rx="1" ry="1" transform="matrix(38.03771 11.1951 -3.01885 10.25717 238.2 73.3)"/><path fill="#e8eae2" d="M182.8 57.7l1.7 14.3-.1-3.8 15.8 2z"/><ellipse fill="#fbfbe6" rx="1" ry="1" transform="rotate(30.2 -102 109.7) scale(10.88748 58.22608)"/><path fill="#575967" d="M114 46l4 36-18-37z"/><path fill="#c1bd88" d="M39 69h51v8H39z"/></g></svg>