<svg xmlns="http://www.w3.org/2000/svg" viewBox="0 0 200 133"><filter id="b"><feGaussianBlur stdDeviation="12" /></filter><path fill="#756d77" d="M0 0h200v133H0z"/><g filter="url(#b)" transform="translate(.5 .5)" fill-opacity=".5"><ellipse fill="#fcffff" rx="1" ry="1" transform="matrix(-2.19312 -29.33906 70.46268 -5.26716 116.9 132)"/><ellipse fill="#3f293a" cx="59" cy="19" rx="84" ry="84"/><ellipse fill="#fff" rx="1" ry="1" transform="matrix(33.84781 25.69189 -4.98575 6.56848 167.4 59.7)"/><ellipse fill="#f1ebff" rx="1" ry="1" transform="matrix(.45239 -12.33732 17.48313 .64108 102 46.3)"/><path d="M89 16L65.4 74.2 45 66.1 68.6 7.7z"/><ellipse fill="#eff" rx="1" ry="1" transform="matrix(-20.28542 .26649 -.05888 -4.48176 35.4 30.9)"/><path fill="#000500" d="M94 6h58v22H94z"/><ellipse fill="#9bbbe2" rx="1" ry="1" transform="rotate(-31 182.3 -284.5) scale(25.57613 31.6449)"/><ellipse fill="#fbffff" rx="1" ry="1" transform="matrix(4.09836 .58328 -3.97668 27.94162 184.8 108.4)"/><ellipse fill="#cb84a8" cx="34" rx="139" ry="7"/><path fill="#afe3d9" d="M34.1 118l11 30 8-62.9-10.8 5z"/><ellipse fill="#8f030e" cx="140" cy="83" rx="13" ry="13"/><ellipse fill="#0c0000" cx="62" cy="18" rx="19" ry="10"/><path fill="#705839" d="M140 52l17 71 25-20z"/><path fill="#dff" d="M128.8 22.7l-1 11.6 27.6 22.8 16.9.5z"/><ellipse fill="#b6d5cf" cx="118" cy="117" rx="29" ry="29"/><path fill="#470f07" d="M0 76h120v11H0z"/><path fill="#2d435a" d="M215 30l-11 29-54-25z"/><path fill="#09201d" d="M119 7l-5 58 31-3z"/><ellipse fill="#8e0000" rx="1" ry="1" transform="matrix(12.01065 -.9393 2.03788 26.05816 199 132)"/><ellipse fill="#edffff" cx="40" cy="29" rx="29" ry="2"/><path fill="#c079d7" d="M17.1 44l12.6 23.7 5.2 3.3-7 15.3z"/></g></svg>