<svg xmlns="http://www.w3.org/2000/svg" viewBox="0 0 700 467"><filter id="b"><feGaussianBlur stdDeviation="12" /></filter><path fill="#817372" d="M0 0h700v464H0z"/><g filter="url(#b)" transform="translate(1.4 1.4) scale(2.73438)" fill-opacity=".5"><ellipse fill="#fff" cx="161" rx="73" ry="73"/><ellipse cx="211" cy="144" rx="79" ry="79"/><ellipse fill="#fff" rx="1" ry="1" transform="rotate(-95.2 30 -20) scale(39.72022 84.26454)"/><ellipse fill="#230800" cx="75" cy="95" rx="35" ry="35"/><ellipse fill="#fff" rx="1" ry="1" transform="rotate(65.2 2.6 178.2) scale(12.24202 18.86553)"/><ellipse fill="#fdfbff" cx="159" cy="3" rx="249" ry="32"/><ellipse fill="#5f3119" rx="1" ry="1" transform="matrix(18.9004 -25.4743 16.06155 11.9167 110.1 59.2)"/><path fill="#010001" d="M-16 173l196-47 42 59z"/><ellipse fill="#fff" rx="1" ry="1" transform="matrix(6.4903 -18.80342 9.23512 3.18765 43.9 54)"/><path fill="#5e4030" d="M124 53l147 9-201 49z"/><ellipse fill="#feca99" cx="23" cy="85" rx="21" ry="25"/><ellipse fill="#030511" cx="238" cy="100" rx="46" ry="46"/><ellipse fill="#ddcdc6" rx="1" ry="1" transform="rotate(-102.4 108.5 17.6) scale(24.83231 12.50066)"/><path fill="#fff" d="M221-16l-5 88-35-64z"/><ellipse fill="#4600d8" cx="150" cy="4" rx="19" ry="8"/><ellipse fill="#4e0800" cx="24" cy="43" rx="11" ry="11"/><ellipse fill="#fff" cx="211" cy="145" rx="4" ry="16"/><path fill="#712b06" d="M53.5 60l4.3-27.6L80.5 36l-4.3 27.6z"/><ellipse fill="#fff" rx="1" ry="1" transform="matrix(-13.86446 4.99922 -14.2253 -39.45139 255 25.3)"/><path fill="#0e0d05" d="M83 108h17v62H83z"/><ellipse fill="#a75930" rx="1" ry="1" transform="rotate(83.5 -67 71) scale(56.3021 14.69817)"/><path d="M64 185l-20-11 11-65z"/></g></svg>