<svg xmlns="http://www.w3.org/2000/svg" viewBox="0 0 200 133"><filter id="b"><feGaussianBlur stdDeviation="12" /></filter><path fill="#3c426c" d="M0 0h200v133H0z"/><g filter="url(#b)" transform="translate(.5 .5)" fill-opacity=".5"><ellipse fill="#a2ff80" cx="121" cy="13" rx="41" ry="41"/><ellipse fill="#000018" cx="3" cy="66" rx="65" ry="65"/><ellipse fill="#e3a6fe" rx="1" ry="1" transform="rotate(-171 44.1 50.7) scale(39.43145 11.76269)"/><ellipse fill="#4245f7" rx="1" ry="1" transform="matrix(-10.07717 55.85435 -22.7169 -4.09855 181.2 22)"/><path fill="#f4c9ed" d="M89 65h26v26H89z"/><ellipse cx="118" cy="132" rx="199" ry="13"/><path fill="#b980c6" d="M32 42l25 11-9 21z"/><ellipse fill="#ffc4ff" cx="122" cy="112" rx="9" ry="9"/><ellipse fill="#ffe9ff" cx="174" cy="110" rx="8" ry="8"/><ellipse fill="#15006a" cx="145" cy="84" rx="23" ry="35"/><ellipse fill="#030024" cx="25" cy="92" rx="34" ry="24"/><path fill="#c2ec7a" d="M110 0h36v35h-36z"/><ellipse fill="#01004a" cx="22" cy="23" rx="36" ry="36"/><path fill="#139b54" d="M59 8h35v44H59z"/><ellipse fill="#19ae8c" rx="1" ry="1" transform="matrix(11.4258 7.44769 -15.79716 24.23505 154.3 30.4)"/><ellipse fill="#b49ebd" cx="173" cy="53" rx="4" ry="64"/><path fill="#0e0078" d="M182 34h18v85h-18z"/><path fill="#e6c0ff" d="M47 107h84v11H47z"/><ellipse fill="#3209f1" cx="189" cy="13" rx="14" ry="36"/><ellipse fill="#9e41ff" cx="109" cy="132" rx="135" ry="2"/><path fill="#551030" d="M78 104l28-25 7 24z"/><ellipse fill="#fff" rx="1" ry="1" transform="matrix(-6.22578 -7.81055 2.18655 -1.7429 75.7 99.4)"/></g></svg>