<svg xmlns="http://www.w3.org/2000/svg" viewBox="0 0 200 133"><filter id="b"><feGaussianBlur stdDeviation="12" /></filter><path fill="#2f3360" d="M0 0h200v133H0z"/><g filter="url(#b)" transform="translate(.5 .5)" fill-opacity=".5"><ellipse fill="#fff" cx="144" cy="31" rx="27" ry="23"/><ellipse fill="#fff" rx="1" ry="1" transform="matrix(98.81626 -9.67324 .86334 8.81935 88.2 83.6)"/><ellipse rx="1" ry="1" transform="matrix(74.00249 -43.76495 23.16352 39.16738 55.9 20.2)"/><ellipse fill="#2f4fff" rx="1" ry="1" transform="rotate(-84.3 136.1 -32) scale(16.3411 108.43748)"/><ellipse rx="1" ry="1" transform="rotate(95.1 -38.5 86) scale(24.75433 139.63586)"/><ellipse cx="45" cy="28" rx="53" ry="53"/><ellipse fill="#fff" cx="157" cy="82" rx="123" ry="3"/><path fill="#fff" d="M116 18h48v26h-48z"/><ellipse fill="#00000f" cx="199" cy="6" rx="29" ry="86"/><path fill="#faffff" d="M2 84h57v14H2z"/><ellipse fill="#3b63ff" cx="122" cy="102" rx="88" ry="11"/><path d="M0 103h88v30H0z"/><ellipse fill="#5b505e" rx="1" ry="1" transform="rotate(-169.1 77.4 22.4) scale(38.72892 14.86177)"/><ellipse fill="#fff" cx="151" cy="79" rx="47" ry="5"/><path fill="#00e" d="M-23 88.6l-.4-5L92.9 71.4l.5 5z"/><ellipse fill="#040b4b" cx="87" cy="48" rx="30" ry="30"/><ellipse fill="#c3becd" cx="96" cy="75" rx="5" ry="25"/><ellipse cx="123" cy="2" rx="199" ry="7"/><path d="M-16 97.1L154.9 148l-3.3-41.6 19.4 19.9z"/><ellipse fill="#0500fa" cx="184" cy="119" rx="21" ry="12"/><path fill="#03013e" d="M161 45h39v31h-39z"/><path fill="#00001a" d="M66.5 86h77v6h-77z"/></g></svg>