<svg xmlns="http://www.w3.org/2000/svg" viewBox="0 0 700 467"><filter id="b"><feGaussianBlur stdDeviation="12" /></filter><path fill="#686458" d="M0 0h700v464H0z"/><g filter="url(#b)" transform="translate(1.4 1.4) scale(2.73438)" fill-opacity=".5"><ellipse fill="#dbffff" cx="93" cy="169" rx="63" ry="63"/><ellipse fill="#feffff" cx="197" cy="168" rx="28" ry="61"/><ellipse fill="#1d100b" rx="1" ry="1" transform="matrix(26.04948 53.28956 -108.36764 52.97323 239.6 48.9)"/><ellipse fill="#0b0000" cx="32" cy="67" rx="21" ry="79"/><ellipse fill="#3f3835" rx="1" ry="1" transform="matrix(13.21837 -1.25555 4.3358 45.6471 93.3 125)"/><ellipse fill="#cbf9ff" cx="200" cy="156" rx="20" ry="51"/><ellipse fill="#af9281" rx="1" ry="1" transform="matrix(-14.58054 -32.92573 15.26499 -6.75982 196.9 58.8)"/><ellipse fill="#e7ffff" cx="129" cy="155" rx="23" ry="34"/><path fill="#d6f5ff" d="M64 89l-35 96h64z"/><ellipse fill="#190b00" rx="1" ry="1" transform="matrix(11.87229 -5.23773 28.74498 65.15578 158.4 30.5)"/><path fill="#ffed85" d="M93.5 22.6l39.7 4.2L116.8-16h-14z"/><path fill="#fff" d="M137 105.4l-1 22-13-.8 1-22z"/><ellipse fill="#120a00" rx="1" ry="1" transform="rotate(137.6 108.7 63.9) scale(25.94162 61.99953)"/><ellipse fill="#585f75" cx="95" cy="115" rx="29" ry="22"/><path fill="#ffffa9" d="M170.4-16h-5.6L163 26.6l25-20.4z"/><ellipse fill="#000008" cx="158" cy="141" rx="8" ry="20"/><ellipse fill="#684700" cx="84" cy="14" rx="19" ry="43"/><ellipse fill="#d7d2ce" cx="62" cy="57" rx="19" ry="8"/><path fill="#fff" d="M192.6 131.4l90.9 63.7-8 11.5-91-63.7z"/><path fill="#ffc3a6" d="M149.2 67.3l-11.8-2 5.4-30.6 11.8 2z"/><path fill="#2657f6" d="M194 94.4l10.6-5.8 19.3 35-10.5 5.8z"/><ellipse fill="#9d8236" cx="11" cy="143" rx="27" ry="39"/></g></svg>