<svg xmlns="http://www.w3.org/2000/svg" viewBox="0 0 200 120"><filter id="b"><feGaussianBlur stdDeviation="12" /></filter><path fill="#d4d5cf" d="M0 0h200v120H0z"/><g filter="url(#b)" transform="translate(.5 .5)" fill-opacity=".5"><ellipse fill="#2d4700" cx="144" cy="9" rx="49" ry="14"/><path d="M4.3 87.1L18 72.5l19.8 18.4L24 105.5z"/><ellipse fill="#fff" rx="1" ry="1" transform="rotate(22.9 -107.6 269) scale(179.11177 34.10087)"/><ellipse fill="#5e443c" cx="199" cy="47" rx="24" ry="24"/><path fill="#506a00" d="M149-1L99 3l29 39z"/><path fill="#fff" d="M135 22h42v79h-42z"/><path fill="#767c3b" d="M121.3 132.7L88.8 127l3.9-21.7 32.5 5.7z"/><ellipse fill="#a88e29" rx="1" ry="1" transform="matrix(11.01972 14.1046 -11.44163 8.93918 185.4 11.1)"/><ellipse fill="#61667d" cx="128" cy="45" rx="10" ry="14"/><ellipse fill="#5b5b69" cx="27" cy="86" rx="28" ry="10"/><path fill="#6c820a" d="M103.2-16l-3.8 44.3L174.1 16 50-16z"/><path fill="#fff" d="M177.8 32.6l-57.4 13.7 54 31.3L158.2-16z"/><ellipse fill="#caa692" rx="1" ry="1" transform="rotate(56.4 -5.7 91.3) scale(14.37562 11.02722)"/><ellipse fill="#899c9a" cx="82" cy="97" rx="15" ry="10"/><path fill="#f3f2ff" d="M48-16l35 151-99-121z"/><path fill="#858c91" d="M52 67L34 89l15 33z"/><path fill="#000010" d="M136 47.5l-10-30.4 2-.6 9.8 30.4z"/><ellipse fill="#000407" cx="2" cy="87" rx="31" ry="4"/><ellipse fill="#fff" rx="1" ry="1" transform="rotate(-127.2 112.6 2.1) scale(30.92321 25.46159)"/><path fill="#fff" d="M106.8 55.4l7.7-31 8.7 2.2-7.7 31z"/><ellipse fill="#dbbaa4" cx="195" cy="29" rx="12" ry="25"/><path fill="#feffff" d="M142.6 64.4l36.7 39.4-2.9-70.3L130.1 21z"/></g></svg>