<svg xmlns="http://www.w3.org/2000/svg" viewBox="0 0 700 467"><filter id="b"><feGaussianBlur stdDeviation="12" /></filter><path fill="#0a1d06" d="M0 0h700v464H0z"/><g filter="url(#b)" transform="translate(1.4 1.4) scale(2.73438)" fill-opacity=".5"><ellipse fill="#ebffcf" cx="160" cy="73" rx="20" ry="20"/><path fill="#92ee8a" d="M153.3 52.6l3-6.4 62.4 29.2-3 6.4z"/><ellipse fill="#63ec15" cx="57" cy="3" rx="30" ry="9"/><path fill="#fff" d="M170.8 59l-22.5 26.2 33.4 6.1-8.2-10.2z"/><path fill="#ffffef" d="M103.8 81.6L90.3 72l15.6 3.6 9.6 11.9z"/><ellipse fill="#007200" rx="1" ry="1" transform="matrix(20.08236 12.79388 -7.99121 12.5437 168 105.7)"/><path fill="#fff" d="M234 83l14.8 2-.8 6-14.8-2z"/><path fill="#004a01" d="M176.6 83l-9.8-36.7 12.6-3.3 9.8 36.7z"/><ellipse fill="#61f631" rx="1" ry="1" transform="rotate(-137.4 89.7 5.1) scale(11.06992 20.01883)"/><ellipse cx="225" cy="27" rx="44" ry="44"/><ellipse cx="209" cy="153" rx="111" ry="38"/><ellipse rx="1" ry="1" transform="matrix(102.98945 -9.19156 2.75663 30.88747 32.5 56)"/><path fill="#c0dfc0" d="M213.3 73.6l36.4 14-1 2.8-36.4-14z"/><ellipse fill="#030000" cx="18" cy="164" rx="58" ry="58"/><ellipse fill="#43bd36" rx="1" ry="1" transform="matrix(24.68937 -19.35894 1.87025 2.38522 151.6 0)"/><path fill="#016200" d="M129 94l12-47 23-9z"/><path fill="#2d940b" d="M62.7 17L-14.9.5 5 2.6 99.5-16z"/><path fill="#89a76e" d="M217.5 74l-32.6-2.8-3-13.5-14.8-8.4z"/><path fill="#fffffd" d="M158 85l-7-18 28 21z"/><ellipse fill="#005e00" cx="155" cy="102" rx="32" ry="15"/><ellipse fill="#000800" cx="228" cy="111" rx="26" ry="27"/><path fill="#299b1f" d="M105 100h31v7h-31z"/></g></svg>