<svg xmlns="http://www.w3.org/2000/svg" viewBox="0 0 200 133"><filter id="b"><feGaussianBlur stdDeviation="12" /></filter><path fill="#494884" d="M0 0h200v133H0z"/><g filter="url(#b)" transform="translate(.5 .5)" fill-opacity=".5"><ellipse fill="#000002" cy="26" rx="74" ry="74"/><ellipse fill="#535cff" rx="1" ry="1" transform="matrix(-100.42278 -4.62555 1.47014 -31.91744 149 52.2)"/><ellipse fill="#d8bfaa" rx="1" ry="1" transform="matrix(-36.58125 3.59725 -1.95134 -19.84369 68 110.6)"/><ellipse fill="#b53900" cx="60" cy="131" rx="85" ry="8"/><ellipse fill="#96f" cx="173" cy="33" rx="12" ry="75"/><path fill="#ff80b3" d="M100 49h33v13h-33z"/><ellipse fill="#9bffb6" cx="157" cy="132" rx="49" ry="8"/><path fill="#00001e" d="M58.5 125.4l6.6-19.2 6.4-7.4 6.8 25.4z"/><ellipse fill="#11181f" cx="104" rx="102" ry="14"/><path fill="#fffffe" d="M80 120l-1-48 23 56z"/><path fill="#b8b3d7" d="M156 93h44v17h-44z"/><path fill="#e5e8e0" d="M118.7 110.7l14-6.8 3.7-21.3L116.7 94z"/><ellipse fill="#0a30a1" cx="74" cy="35" rx="39" ry="21"/><ellipse fill="#040616" rx="1" ry="1" transform="rotate(-163.7 11.2 24.1) scale(28.33005 55.0791)"/><ellipse fill="#7935ff" rx="1" ry="1" transform="matrix(-13.56245 6.48046 -18.52 -38.75908 182.3 40)"/><ellipse fill="#300c03" rx="1" ry="1" transform="rotate(103.7 -33.5 80.5) scale(10.39882 112.67397)"/><ellipse fill="#dde7ff" cx="21" cy="104" rx="8" ry="8"/><path fill="#fff" d="M51 98h8v25h-8z"/><path fill="#000035" d="M230.4 13l-31.6 22.9L167.6-7l31.6-22.9z"/><path fill="#050027" d="M96 103h9v22h-9z"/><path fill="#e5e7e5" d="M77 94h20v25H77z"/><ellipse fill="#11349c" cx="128" cy="25" rx="31" ry="17"/></g></svg>