<svg xmlns="http://www.w3.org/2000/svg" viewBox="0 0 700 467"><filter id="b"><feGaussianBlur stdDeviation="12" /></filter><path fill="#b6a390" d="M0 0h700v464H0z"/><g filter="url(#b)" transform="translate(1.4 1.4) scale(2.73438)" fill-opacity=".5"><ellipse fill="#4e4322" cx="35" cy="148" rx="50" ry="52"/><ellipse fill="#fff" rx="1" ry="1" transform="matrix(28.2826 -33.58667 31.94392 26.89928 238.6 145.3)"/><ellipse fill="#fdffff" rx="1" ry="1" transform="rotate(-146.3 67.7 -14.4) scale(63.94629 30.23285)"/><ellipse fill="#6e2c1b" rx="1" ry="1" transform="matrix(19.9842 -5.5757 11.47485 41.12767 120 142)"/><path fill="#000020" d="M63.4 10L75 2l29.6 44L93 53.9z"/><path fill="#b6751b" d="M231.6 73.7L188 9l66.4-44.7L298 29z"/><ellipse fill="#e8e0ff" rx="1" ry="1" transform="rotate(-72.3 35.5 -7.4) scale(41.41806 13.94162)"/><path d="M81 184.7L46.5 91.4l29 33L91.1 185z"/><ellipse fill="#f2ba63" cx="219" cy="75" rx="27" ry="57"/><ellipse fill="#dee7f5" rx="1" ry="1" transform="matrix(22.1 24.96198 -8.67694 7.6821 145.8 105.6)"/><ellipse fill="#f1ffff" cx="253" cy="126" rx="12" ry="77"/><path fill="#e8ffff" d="M13 7l147-1-79-22z"/><path fill="#d4e6ee" d="M80.6 112.3l6.2 50 24.4-94.8-48.3 37z"/><path fill="#3a0a00" d="M242.8-6.4l22-1.1 2.4 45.9-22 1.1z"/><path fill="#b09c83" d="M-7 61.4l41.2-12.6L69 162.6l-41.2 12.6z"/><path fill="#e9daff" d="M45 93.7l-3 12.2 25.8-28.5-8.9-40.7z"/><ellipse fill="#e0d6a8" cx="173" cy="46" rx="19" ry="44"/><path fill="#63556e" d="M98 75L77 96 48 2z"/><ellipse fill="#805036" cx="137" cy="69" rx="14" ry="14"/><path fill="#d6e0ff" d="M88 54h16v48H88z"/><ellipse fill="#fff" rx="1" ry="1" transform="matrix(-1.73673 1.21156 -30.42492 -43.6131 64 19.7)"/><path fill="#fffec7" d="M199.2 170l5.8-54.6 43.8 4.6-5.8 54.6z"/></g></svg>