<svg xmlns="http://www.w3.org/2000/svg" viewBox="0 0 200 133"><filter id="b"><feGaussianBlur stdDeviation="12" /></filter><path fill="#929ea4" d="M0 0h200v133H0z"/><g filter="url(#b)" transform="translate(.5 .5)" fill-opacity=".5"><ellipse fill="#412500" cx="146" cy="58" rx="79" ry="17"/><ellipse fill="#fff" rx="1" ry="1" transform="matrix(-4.73326 -29.22401 78.12697 -12.6538 43.8 108.8)"/><ellipse fill="#460f00" rx="1" ry="1" transform="matrix(15.54335 17.98966 -29.70166 25.6627 182.6 114.9)"/><ellipse fill="#4dd0ff" cx="63" cy="22" rx="106" ry="24"/><ellipse fill="#c06b15" rx="1" ry="1" transform="matrix(4.08797 -75.38065 30.78453 1.66948 199 11)"/><ellipse fill="#160000" rx="1" ry="1" transform="matrix(-14.39015 9.7348 -6.27312 -9.27304 113 127.3)"/><ellipse fill="#000400" rx="1" ry="1" transform="matrix(22.73148 5.51945 -3.66155 15.07986 138.8 57.2)"/><ellipse fill="#fff" rx="1" ry="1" transform="matrix(-9.57759 -23.58676 15.12664 -6.14229 1.8 16.4)"/><ellipse fill="#c9b7a6" rx="1" ry="1" transform="rotate(111.1 59.3 100.7) scale(28.44159 15.83964)"/><path fill="#007cf7" d="M46 30h69v15H46z"/><ellipse fill="#fff" rx="1" ry="1" transform="matrix(7.7374 12.9796 -10.15574 6.05404 136 26.6)"/><path fill="#3942ff" d="M170 10l-26-9 21 54z"/><path fill="#c1c3be" d="M115 47.6l-8.6 29.8-17.3-5 8.5-29.8z"/><ellipse fill="#fcf2e5" rx="1" ry="1" transform="matrix(64.21518 -10.64004 3.57561 21.57968 33.7 109.2)"/><ellipse fill="#563800" cx="83" cy="60" rx="11" ry="17"/><ellipse fill="#dbc9c2" cx="29" cy="61" rx="35" ry="12"/><path fill="#532700" d="M133 70h12v30h-12z"/><ellipse fill="#927c69" rx="1" ry="1" transform="matrix(-40.46082 4.82466 -.81557 -6.83958 59.5 75.7)"/><ellipse fill="#47b9ff" rx="1" ry="1" transform="matrix(-.7794 -21.28797 25.15618 -.92102 101 23.7)"/><ellipse fill="#016aaf" rx="1" ry="1" transform="rotate(-96.9 45.9 -2) scale(7.34077 21.10551)"/><path fill="#503519" d="M150 108h50v25h-50z"/><ellipse fill="#ffbe79" cx="104" rx="36" ry="4"/></g></svg>