<svg xmlns="http://www.w3.org/2000/svg" viewBox="0 0 200 133"><filter id="b"><feGaussianBlur stdDeviation="12" /></filter><path fill="#3e1e74" d="M0 0h200v133H0z"/><g filter="url(#b)" transform="translate(.5 .5)" fill-opacity=".5"><ellipse fill="#7d35fa" cx="18" cy="90" rx="43" ry="64"/><ellipse fill="#0e0a00" rx="1" ry="1" transform="matrix(-1.34452 -77.0277 25.7587 -.44962 89 105)"/><ellipse fill="#0d0b11" rx="1" ry="1" transform="rotate(4.3 71.7 1907.4) scale(93.13097 27.12859)"/><path fill="#f05392" d="M89 41h28v16H89z"/><ellipse cx="127" cy="76" rx="37" ry="11"/><path fill="#ff7178" d="M178.2 47l-13.9 23.1-8.5-5.1 13.9-23.1z"/><ellipse fill="#663cba" cx="140" cy="112" rx="27" ry="27"/><path fill="#b4584d" d="M88.1 45.2l-1.7 37 16.9-16.6-21.8-16.9z"/><ellipse fill="#4924a3" cx="51" cy="50" rx="24" ry="24"/><ellipse fill="#752be1" rx="1" ry="1" transform="rotate(148.4 -5.4 38.8) scale(22.53603 37.19772)"/><path fill="#000301" d="M95 148l5.5-89.6L158 80.2 72.3 91.8z"/><ellipse fill="#4c239d" rx="1" ry="1" transform="matrix(1.05204 16.1152 -23.12638 1.50974 138.2 55.1)"/><ellipse fill="#3e1c99" rx="1" ry="1" transform="rotate(30.7 -37 43.9) scale(68.79938 12.79046)"/><ellipse fill="#421e96" cx="189" cy="107" rx="41" ry="41"/><ellipse fill="#9b719e" cx="103" cy="118" rx="3" ry="13"/><ellipse fill="#020332" cx="74" cy="86" rx="15" ry="25"/><path fill="#010000" d="M69.5 37.9l22.7-12.6 8.3 14.8-22.7 12.6z"/><ellipse fill="#3b2283" cx="20" cy="132" rx="26" ry="11"/><path fill="#c85e4c" d="M92.7 42.8l12.8-10L93 75.6l6.7-11.7z"/><path fill="#000200" d="M112 103l-10 25 16 15z"/><path fill="#362673" d="M80.5 21.2l42 35.3-1.2-33.6-40.7-11.8z"/><path fill="#070b14" d="M74 113.4L103.4 61l11.3-1.9-3.8 46.5z"/></g></svg>