<svg xmlns="http://www.w3.org/2000/svg" viewBox="0 0 641 195"><filter id="b"><feGaussianBlur stdDeviation="12" /></filter><path fill="#65201d" d="M0 0h641v192H0z"/><g filter="url(#b)" transform="translate(1.3 1.3) scale(2.5039)" fill-opacity=".5"><ellipse fill="#db2420" cx="134" cy="62" rx="76" ry="34"/><ellipse fill="#e1ffff" rx="1" ry="1" transform="rotate(-7.5 55.6 -850.7) scale(14.01492 26.65406)"/><ellipse fill="#150000" rx="1" ry="1" transform="matrix(-4.55528 146.20211 -76.48927 -2.3832 21 48.8)"/><path fill="#ff5023" d="M14.2 47l.6-18 61 2-.6 18z"/><ellipse fill="#141314" rx="1" ry="1" transform="matrix(-19.57162 -20.13013 21.82881 -21.22317 232.4 55.5)"/><path fill="#ff544b" d="M156.5 90.5L131.7 87l7.8-55.5 24.8 3.5z"/><path d="M173.5 83.9l11-37.9-21.9 7.5 12.5 38.2z"/><ellipse fill="#ed4436" cx="192" cy="36" rx="14" ry="22"/><path fill="#ff1d11" d="M87 92L65 45 55 92z"/><ellipse rx="1" ry="1" transform="matrix(.15663 18.35845 -37.73621 .32195 21.2 63)"/><ellipse fill="#0d172a" rx="1" ry="1" transform="matrix(-26.6183 16.40246 -15.02542 -24.38362 154.1 .2)"/><ellipse fill="#090000" rx="1" ry="1" transform="matrix(-8.47787 1.14625 -4.15247 -30.71236 45.3 24.6)"/><ellipse fill="#877850" rx="1" ry="1" transform="rotate(109.6 112.9 79.6) scale(10.94638 131.9747)"/><path d="M122.3 47.4L134 45l3.7 17.7L126 65z"/><path fill="#fff" d="M123.9-16H108l-2 20.3 7.6 18.1z"/><path d="M-23.4 72.7l34-111 24.8 7.6-34 111z"/><path fill="#ea4737" d="M67 63L53 31l29 9z"/><path fill="#ffff46" d="M15 39h16v7H15z"/><ellipse fill="#f61610" rx="1" ry="1" transform="rotate(-74.7 102.3 -36) scale(29.4389 12.9296)"/><path fill="#060000" d="M99 54l-25.2-6.9-2.2 14.4L91 92z"/><ellipse fill="#fff" cx="63" cy="35" rx="4" ry="4"/><path fill="#5a394a" d="M134 12.3l4.2 15.4-52.2 14-4.2-15.4z"/></g></svg>