<svg xmlns="http://www.w3.org/2000/svg" viewBox="0 0 200 133"><filter id="b"><feGaussianBlur stdDeviation="12" /></filter><path fill="#595e62" d="M0 0h200v133H0z"/><g filter="url(#b)" transform="translate(.5 .5)" fill-opacity=".5"><ellipse fill="#cbe4ff" cx="47" cy="63" rx="30" ry="30"/><ellipse fill="#020000" rx="1" ry="1" transform="rotate(-175.6 22.1 3.7) scale(116.31486 28.30458)"/><ellipse fill="#c4ffad" rx="1" ry="1" transform="rotate(155 59.3 82.4) scale(35.36955 53.31503)"/><ellipse cx="187" cy="78" rx="16" ry="36"/><ellipse fill="#a7ccff" cx="182" cy="23" rx="29" ry="21"/><ellipse cx="76" cy="115" rx="12" ry="35"/><path fill="#f1e6f0" d="M92 88.8l6.1-49.6 15.9 2-6.1 49.6z"/><ellipse fill="#ffc09c" rx="1" ry="1" transform="rotate(167.7 25.3 21.3) scale(25.38886 6.90438)"/><path fill="#f5efff" d="M154 58h16v25h-16z"/><path fill="#fffffc" d="M-16 70.7L1.9 80l3.8 3.4L35.4 61z"/><ellipse rx="1" ry="1" transform="rotate(-129.7 12.8 3.4) scale(20.06718 37.40517)"/><ellipse fill="#d8c18c" rx="1" ry="1" transform="rotate(114.6 -16.7 77.9) scale(31.39269 14.96015)"/><ellipse fill="#0f75ff" rx="1" ry="1" transform="matrix(-8.09127 -30.81044 8.54512 -2.24407 104 112.9)"/><path fill="#005af5" d="M161 81l-9 19 63 19z"/><ellipse fill="#270000" rx="1" ry="1" transform="rotate(56 49.5 114.8) scale(25.52587 50.56343)"/><ellipse rx="1" ry="1" transform="matrix(-47.17504 -28.44598 4.50004 -7.4629 190.8 59.5)"/><path fill="#231611" d="M-4 119l22-51 19 61z"/><ellipse fill="#ccd9de" rx="1" ry="1" transform="rotate(93.2 -45.4 65.2) scale(14.83153 3.9931)"/><ellipse rx="1" ry="1" transform="matrix(-17.7669 18.56808 -11.37514 -10.88431 189 75.7)"/><ellipse fill="#7bf303" rx="1" ry="1" transform="rotate(-39 129.3 -214) scale(13.86388 5.72053)"/><path fill="#83a4cd" d="M19 47h67v35H19z"/><ellipse fill="#bc9dff" cx="189" cy="11" rx="35" ry="8"/></g></svg>