<svg xmlns="http://www.w3.org/2000/svg" viewBox="0 0 700 467"><filter id="b"><feGaussianBlur stdDeviation="12" /></filter><path fill="#8b8885" d="M0 0h700v464H0z"/><g filter="url(#b)" transform="translate(1.4 1.4) scale(2.73438)" fill-opacity=".5"><ellipse cx="152" cy="89" rx="86" ry="57"/><ellipse fill="#fff" cx="94" cy="13" rx="255" ry="21"/><ellipse fill="#2d190e" cx="72" cy="118" rx="90" ry="35"/><ellipse fill="#fff" cx="179" cy="169" rx="255" ry="21"/><ellipse fill="#fff" cx="253" cy="85" rx="17" ry="255"/><ellipse fill="#fff" rx="1" ry="1" transform="rotate(89.8 55.7 68.7) scale(20.69267 189.71791)"/><ellipse fill="#d5b49d" rx="1" ry="1" transform="matrix(-40.83293 -60.44701 10.40692 -7.03005 70.7 57.6)"/><path fill="#1e2a30" d="M109 34h128v113H109z"/><path fill="#fff" d="M113 140l-1 45 159-26zM3 124L8-9l-24 77z"/><path fill="#fff" d="M41 85l6-29-58 32z"/><ellipse fill="#211108" rx="1" ry="1" transform="matrix(13.00469 -28.27422 21.64025 9.9534 27.7 121.7)"/><ellipse fill="#fff" cx="95" cy="166" rx="255" ry="14"/><ellipse fill="#6f584e" rx="1" ry="1" transform="matrix(-22.6245 -38.02525 18.2467 -10.85653 86.7 116)"/><ellipse fill="#616469" rx="1" ry="1" transform="rotate(-40.6 189.5 -221.6) scale(26.10274 39.87077)"/><path fill="#531800" d="M43.6 89L58 47.4 68.4 51 54 92.6z"/><ellipse fill="#5c390b" cx="61" cy="26" rx="10" ry="10"/><ellipse fill="#fff" rx="1" ry="1" transform="matrix(-26.50489 17.34957 -13.08032 -19.98278 17.7 12.3)"/><path fill="#231915" d="M102.8 33.3l71.5 23.9-74 31-23.1-47.8z"/><ellipse fill="#fff" cx="165" cy="9" rx="96" ry="23"/><path fill="#fff" d="M58.3 37.4H68L65 77l24.3-3zm179.2 65.1v-79h31v79z"/></g></svg>