<svg xmlns="http://www.w3.org/2000/svg" viewBox="0 0 200 133"><filter id="b"><feGaussianBlur stdDeviation="12" /></filter><path fill="#25253c" d="M0 0h200v133H0z"/><g filter="url(#b)" transform="translate(.5 .5)" fill-opacity=".5"><ellipse fill="#8c7daf" cx="100" cy="86" rx="69" ry="26"/><ellipse fill="#577ade" cx="141" cy="43" rx="25" ry="25"/><ellipse rx="1" ry="1" transform="matrix(177.06822 -71.849 12.55758 30.94752 73.1 0)"/><path fill="#6888be" d="M106 45l72-28-97 1z"/><ellipse fill="#2746ff" cx="20" cy="71" rx="7" ry="19"/><ellipse rx="1" ry="1" transform="matrix(-.65213 18.07223 -170.60158 -6.15612 114 125.3)"/><ellipse cx="117" cy="2" rx="199" ry="16"/><path fill="#480000" d="M146 75h54v16h-54z"/><path fill="#8b849a" d="M79 65h45v46H79z"/><path fill="#3248ff" d="M179 54h13v22h-13z"/><ellipse fill="#9da597" rx="1" ry="1" transform="matrix(-.23095 -7.21316 25.3286 -.81096 163.6 98.7)"/><ellipse rx="1" ry="1" transform="matrix(.42406 -29.83542 21.96303 .31217 199 30.8)"/><ellipse fill="#0016d2" rx="1" ry="1" transform="rotate(95.3 43.7 104) scale(10.5111 17.25368)"/><path fill="#000db8" d="M40 61h32v22H40z"/><ellipse rx="1" ry="1" transform="matrix(17.20282 1.14261 -3.03831 45.74398 2 49.1)"/><path fill="#030716" d="M29 43h108v19H29z"/><ellipse fill="#0c0000" rx="1" ry="1" transform="rotate(64.2 -50.7 115) scale(5.47982 35.65788)"/><path fill="#83a397" d="M14 93h69v12H14z"/><path fill="#0f0000" d="M47.5 94.5l29.2 50.6-18.4-49.6-2.7-45.6z"/><ellipse cx="99" cy="132" rx="199" ry="22"/><path d="M146 63h10v33h-10z"/><path fill="#b0d3cf" d="M103 104l45-9-19-11z"/></g></svg>