<svg xmlns="http://www.w3.org/2000/svg" viewBox="0 0 700 467"><filter id="b"><feGaussianBlur stdDeviation="12" /></filter><path fill="#442f22" d="M0 0h700v464H0z"/><g filter="url(#b)" transform="translate(1.4 1.4) scale(2.73438)" fill-opacity=".5"><ellipse fill="#ffffe4" rx="1" ry="1" transform="matrix(3.30625 -42.52708 25.18395 1.95792 196.1 16.5)"/><path fill="#ff243d" d="M132.4 102L109 96.6 121.6 42l23.4 5.4z"/><ellipse fill="#060000" cx="28" cy="115" rx="32" ry="102"/><path fill="#d3b351" d="M111-3.5v41H87v-41z"/><ellipse fill="#b9758a" cx="76" cy="108" rx="15" ry="33"/><ellipse fill="#b6a286" rx="1" ry="1" transform="rotate(70.3 84 208.8) scale(34.07669 14.76655)"/><ellipse fill="#00020b" rx="1" ry="1" transform="matrix(21.7364 -18.673 45.8777 53.4042 231.5 144.8)"/><path fill="#ce7588" d="M58 39.7l30.8 35.5L76 86.3 45.2 50.8z"/><ellipse fill="#ffffd9" cx="211" cy="21" rx="8" ry="40"/><ellipse rx="1" ry="1" transform="matrix(1.521 -31.09926 26.80444 1.31096 137.5 4.8)"/><ellipse fill="#290c00" rx="1" ry="1" transform="matrix(7.88691 26.75295 -57.01742 16.80904 123 142.6)"/><path fill="#484340" d="M182 16h24v102h-24z"/><path fill="#d7af89" d="M166 99l-17-7 1 37z"/><path fill="#ffd6ae" d="M238 112.5l8.1-38.2 5.9 1.2-8.1 38.2z"/><path d="M60 3h28v35H60z"/><path fill="#ebd59f" d="M177.3-16l-7.9 55.8 33.7-14 2.7-32.7z"/><path fill="#e3353a" d="M142 54l6.8 15.5-30.4 45.8 3.3-83.3z"/><path fill="#000001" d="M146 58h24v37h-24z"/><path d="M228.2-4.7l35.5-9.7-17.4 36.9-27 22.8z"/><ellipse fill="#110700" rx="1" ry="1" transform="rotate(49.1 -67.3 99.2) scale(20.43238 28.39902)"/><path fill="#caad88" d="M171 75l29-33-17 3z"/><path fill="#f6dbbc" d="M156 61l2-16 9-2z"/></g></svg>