<svg xmlns="http://www.w3.org/2000/svg" viewBox="0 0 641 195"><filter id="b"><feGaussianBlur stdDeviation="12" /></filter><path fill="#4b3b24" d="M0 0h641v192H0z"/><g filter="url(#b)" transform="translate(1.3 1.3) scale(2.5039)" fill-opacity=".5"><ellipse fill="#fff" rx="1" ry="1" transform="rotate(-144.7 93.7 -13) scale(23.46692 14.6168)"/><path fill="#fef5f5" d="M78.8 45L53.5 99.2 27.2 87.1l25.3-54.4z"/><ellipse fill="#100000" rx="1" ry="1" transform="matrix(38.48063 54.3516 -35.71009 25.28254 117.6 51.5)"/><ellipse fill="#e7c374" cy="38" rx="29" ry="19"/><ellipse cx="210" cy="67" rx="41" ry="20"/><ellipse fill="#fffff7" rx="1" ry="1" transform="matrix(-3.49818 -8.28135 25.1908 -10.641 37.5 76)"/><path fill="#ffffe7" d="M170 16h23v25h-23z"/><ellipse cx="44" cy="52" rx="11" ry="11"/><ellipse fill="#0c0700" rx="1" ry="1" transform="matrix(-10.41874 -59.08764 26.52953 -4.67787 233.2 0)"/><path fill="#fff" d="M62 30l6 38-24-38z"/><path d="M55 72.1L23.4 92l216.2-20.3-130.4-17.2z"/><ellipse fill="#ae7d11" rx="1" ry="1" transform="matrix(3.16276 41.10368 -6.7643 .52048 19.6 16.3)"/><ellipse fill="#f3f3ff" rx="1" ry="1" transform="rotate(94.3 -19.1 23.6) scale(11.04164 6.01346)"/><path fill="#9e6c1b" d="M66 30h23v23H66z"/><ellipse fill="#3d2700" cx="134" cy="32" rx="31" ry="18"/><ellipse fill="#030000" rx="1" ry="1" transform="matrix(-2.66158 -6.73505 21.7856 -8.6093 22.5 65.5)"/><path fill="#ecce8a" d="M250 56h6v18h-6z"/><path fill="#d0d4dd" d="M213 45l3-14h-14z"/><path fill="#d5bb93" d="M168 58.2l-6.8 4.2 22.6-34.3 18.5 5z"/><ellipse fill="#000003" cx="66" cy="21" rx="15" ry="13"/><ellipse fill="#ffffd0" cx="178" cy="25" rx="17" ry="9"/><path fill="#f0e692" d="M152 19l24-5-25-2z"/></g></svg>