<svg xmlns="http://www.w3.org/2000/svg" viewBox="0 0 700 467"><filter id="b"><feGaussianBlur stdDeviation="12" /></filter><path fill="#47474c" d="M0 0h700v464H0z"/><g filter="url(#b)" transform="translate(1.4 1.4) scale(2.73438)" fill-opacity=".5"><ellipse fill="#fff" rx="1" ry="1" transform="rotate(134.1 73.3 38.6) scale(30.82603 22.33978)"/><ellipse fill="#fff" rx="1" ry="1" transform="matrix(-61.30055 -10.55875 2.38128 -13.82489 27.8 2)"/><ellipse cx="204" cy="134" rx="54" ry="95"/><ellipse fill="#fbd2b9" rx="1" ry="1" transform="matrix(-14.8197 5.23236 -10.26412 -29.07124 105.5 62)"/><ellipse fill="#a8b0d1" cx="123" cy="156" rx="27" ry="27"/><ellipse fill="#fff" cx="212" rx="12" ry="25"/><path fill="#ecf9ef" d="M4.5 44.3L-14 34l33.4-60.4L38-16z"/><path fill="#010000" d="M61.1 87.7l-15-56L81 22.2l15 56z"/><ellipse fill="#e1d3cf" cx="193" cy="90" rx="16" ry="8"/><ellipse fill="#000302" cx="8" cy="169" rx="26" ry="67"/><ellipse fill="#e2eeed" rx="1" ry="1" transform="rotate(108.7 71.3 58.5) scale(27.83413 21.97864)"/><path fill="#fff" d="M34.5-15.6L68.3-3.2l-6.8 18.8L27.7 3.2z"/><path d="M233-10l-14 37 52 5z"/><ellipse fill="#0a0602" cx="28" cy="30" rx="16" ry="18"/><ellipse cx="222" cy="148" rx="52" ry="25"/><ellipse fill="#a5a1ab" rx="1" ry="1" transform="matrix(12.68489 7.00505 -14.67692 26.57726 119 56.7)"/><ellipse fill="#101311" rx="1" ry="1" transform="rotate(106.1 7.9 87.9) scale(18.2357 31.80832)"/><ellipse fill="#5e6b75" rx="1" ry="1" transform="matrix(-22.55265 5.16356 -11.28312 -49.28078 41.8 104)"/><ellipse fill="#5b647b" rx="1" ry="1" transform="matrix(28.59942 -2.83106 3.70171 37.39484 92 159.3)"/><path fill="#9a6c52" d="M60.4 30.5L45 39.8 31.6 17.5 47 8.2z"/><ellipse fill="#011332" cx="107" cy="3" rx="23" ry="27"/><ellipse fill="#03287e" cx="198" cy="44" rx="28" ry="15"/></g></svg>