<svg xmlns="http://www.w3.org/2000/svg" viewBox="0 0 200 133"><filter id="b"><feGaussianBlur stdDeviation="12" /></filter><path fill="#696153" d="M0 0h200v133H0z"/><g filter="url(#b)" transform="translate(.5 .5)" fill-opacity=".5"><ellipse fill="#fff" rx="1" ry="1" transform="rotate(-179.8 43.7 .8) scale(128.21595 21.42976)"/><ellipse fill="#fffad6" cx="20" cy="42" rx="26" ry="26"/><ellipse fill="#030000" rx="1" ry="1" transform="matrix(-26.89387 -30.326 22.46382 -19.9215 49.7 90)"/><ellipse fill="#160d08" cx="176" cy="88" rx="56" ry="56"/><ellipse fill="#dfc78e" cx="102" cy="94" rx="22" ry="22"/><path fill="#20160f" d="M37 10h34v20H37z"/><ellipse fill="#fff" cx="129" cy="5" rx="121" ry="9"/><ellipse fill="#221a19" cx="99" cy="38" rx="44" ry="14"/><ellipse fill="#17110b" cx="67" cy="132" rx="18" ry="94"/><ellipse fill="#b69f77" cx="194" cy="109" rx="31" ry="12"/><path fill="#fffff2" d="M-6 25.6l25.8 3.2L14 76.4l-25.8-3.2z"/><path fill="#000007" d="M17.1 111.8l5.7 24.9-19.2-4.1-19.6-83z"/><path fill="#fff" d="M54.8 28.6l3.9 13.5-11.5 3.3-3.9-13.5z"/><ellipse fill="#1d1600" rx="1" ry="1" transform="matrix(-74.79296 -.78326 .16726 -15.9711 121.7 130.6)"/><path fill="#837062" d="M165.4 2.4l23 17.4-.2 36.8-26.8 28z"/><path fill="#97865c" d="M16 54l13-42 34 67z"/><path fill="#3a3d00" d="M3 28.2L-6-16 9.4 7.4l7.4-22.3z"/><ellipse fill="#c6a772" cx="26" cy="115" rx="10" ry="15"/><ellipse fill="#07090e" rx="1" ry="1" transform="matrix(9.93864 9.04346 -27.88631 30.64666 185.4 78.8)"/><ellipse fill="#394218" rx="1" ry="1" transform="rotate(42.3 -26.3 60.6) scale(4.6613 19.70133)"/><ellipse fill="#ffffe1" rx="1" ry="1" transform="rotate(-48.4 54.2 -112.6) scale(29.71044 10.95556)"/><path fill="#0e121f" d="M52 101L23 47l-13 54z"/></g></svg>