<svg xmlns="http://www.w3.org/2000/svg" viewBox="0 0 800 533"><filter id="b"><feGaussianBlur stdDeviation="12" /></filter><path fill="#889f96" d="M0 0h800v531H0z"/><g filter="url(#b)" transform="translate(1.6 1.6) scale(3.125)" fill-opacity=".5"><ellipse rx="1" ry="1" transform="rotate(-149.1 25.4 71) scale(144.70522 24.74655)"/><ellipse fill="#dee6d7" cx="184" cy="76" rx="67" ry="67"/><ellipse fill="#000e00" cx="227" cy="161" rx="32" ry="22"/><ellipse fill="#5d7157" rx="1" ry="1" transform="matrix(-24.07835 -12.98135 31.76192 -58.91336 157.8 135.2)"/><ellipse fill="#26230b" rx="1" ry="1" transform="matrix(-38.03754 17.89911 -8.56824 -18.20843 0 93.2)"/><path d="M245 118l26 28-19-85z"/><ellipse fill="#1161b3" cx="32" cy="5" rx="61" ry="31"/><ellipse fill="#06467a" cx="201" cy="9" rx="13" ry="41"/><ellipse fill="#cee1d5" cx="61" cy="72" rx="25" ry="51"/><ellipse cx="27" cy="164" rx="32" ry="32"/><ellipse fill="#ffffea" cx="221" cy="115" rx="25" ry="24"/><ellipse fill="#edf0df" cx="140" cy="46" rx="33" ry="31"/><ellipse fill="#fffff8" cx="121" cy="89" rx="7" ry="44"/><ellipse fill="#ebeddd" rx="1" ry="1" transform="matrix(-26.838 17.49547 -14.859 -22.79365 223.6 64)"/><path fill="#fff" d="M206 122l-74-14 36-5z"/><ellipse fill="#233b00" cx="119" cy="142" rx="16" ry="12"/><ellipse fill="#e3e1b5" rx="1" ry="1" transform="matrix(-2.31495 7.53765 -33.68757 -10.34608 104.4 157.9)"/><path fill="#2eb8af" d="M54 110h31v31H54z"/><ellipse fill="#244c2a" rx="1" ry="1" transform="rotate(-97.7 71.4 -27) scale(5.47092 14.43021)"/><ellipse fill="#2a698f" cx="62" cy="28" rx="9" ry="28"/><path fill="#13415c" d="M174-3L146 8l30 17z"/><ellipse fill="#324232" cx="110" cy="92" rx="6" ry="35"/></g></svg>