<svg xmlns="http://www.w3.org/2000/svg" viewBox="0 0 200 133"><filter id="b"><feGaussianBlur stdDeviation="12" /></filter><path fill="#5f2847" d="M0 0h200v133H0z"/><g filter="url(#b)" transform="translate(.5 .5)" fill-opacity=".5"><ellipse fill="#749ee1" cx="113" cy="51" rx="38" ry="38"/><ellipse fill="#ff0c36" cx="158" cy="97" rx="29" ry="29"/><ellipse fill="#8598e5" cx="61" cy="55" rx="28" ry="28"/><ellipse cx="193" cy="30" rx="32" ry="54"/><ellipse fill="#000002" rx="1" ry="1" transform="matrix(-20.03575 -11.60223 60.96545 -105.28044 0 38.2)"/><ellipse fill="#000b40" rx="1" ry="1" transform="matrix(6.31635 18.97487 -50.172 16.70124 98.1 8.6)"/><ellipse fill="#6f020a" cx="86" cy="132" rx="57" ry="57"/><ellipse fill="#020302" rx="1" ry="1" transform="rotate(-176.3 55.4 64.3) scale(199 9.62847)"/><path fill="#ff4a59" d="M55 85h39v15H55z"/><ellipse fill="#a7c3b3" rx="1" ry="1" transform="rotate(19.7 -90 295.8) scale(18.30027 25.16345)"/><ellipse fill="#eb414b" rx="1" ry="1" transform="matrix(2.80427 33.56467 -7.08135 .59163 37.2 63.4)"/><path fill="#251727" d="M96 67h33v37H96z"/><path fill="#0a0549" d="M56.8 64.6l6.7-38.4 17.7 3.2-6.7 38.4z"/><path fill="#d7c2fa" d="M135 50h21v20h-21z"/><ellipse fill="#fd1556" cx="145" cy="112" rx="26" ry="14"/><ellipse fill="#450000" rx="1" ry="1" transform="rotate(43 -64.2 312.2) scale(24.06119 46.3819)"/><path fill="#7dc0ff" d="M44 29l7 56 14-9z"/><ellipse fill="#00000c" rx="1" ry="1" transform="rotate(15.7 34.6 733) scale(59.81279 24.83465)"/><ellipse fill="#750000" cx="16" cy="109" rx="124" ry="13"/><ellipse fill="#e40a06" rx="1" ry="1" transform="matrix(-.4688 13.53417 -23.7168 -.82152 187.2 95.6)"/><path fill="#e01296" d="M54.2-3.3l8.2 5.7-28.6 41-8.2-5.8z"/><path fill="#e4ccbd" d="M97.1 70.1L86 83 70.9 69.9 82 57z"/></g></svg>