<svg xmlns="http://www.w3.org/2000/svg" viewBox="0 0 700 467"><filter id="b"><feGaussianBlur stdDeviation="12" /></filter><path fill="#49508d" d="M0 0h700v464H0z"/><g filter="url(#b)" transform="translate(1.4 1.4) scale(2.73438)" fill-opacity=".5"><ellipse fill="#a197ff" cx="125" cy="75" rx="94" ry="41"/><ellipse fill="#080d00" cx="34" cy="152" rx="49" ry="49"/><ellipse fill="#0d1000" rx="1" ry="1" transform="matrix(-44.28183 22.4429 -17.11619 -33.77176 216.3 152.9)"/><path d="M38.2 107.5l-23-1.2 6.6-123.8 23 1.2z"/><ellipse fill="#a876ff" cx="63" cy="57" rx="31" ry="38"/><ellipse fill="#98eeff" cx="248" cy="72" rx="13" ry="41"/><ellipse rx="1" ry="1" transform="matrix(.58588 -14.56115 185.33495 7.45715 137.6 2.5)"/><ellipse fill="#cfb4ff" rx="1" ry="1" transform="rotate(119.8 61.2 93.8) scale(24.7864 33.85702)"/><path fill="#bfd3c0" d="M84 143h90v22H84z"/><ellipse fill="#000900" cx="134" cy="131" rx="74" ry="10"/><ellipse fill="#68a5ff" cx="9" cy="51" rx="9" ry="70"/><ellipse fill="#0d31eb" rx="1" ry="1" transform="matrix(-55.61076 -15.63148 5.54655 -19.7325 166.3 37.3)"/><path d="M237 108l-18-25 14-63z"/><ellipse fill="#0a2cc7" rx="1" ry="1" transform="rotate(-163.7 48.6 45.6) scale(50.88342 19.35094)"/><ellipse fill="#1b65ff" rx="1" ry="1" transform="matrix(10.87638 34.08022 -10.7873 3.44266 247.8 39.3)"/><path fill="#000008" d="M136 179l7-48h-14z"/><ellipse cx="255" cy="136" rx="22" ry="22"/><ellipse cx="126" cy="169" rx="215" ry="4"/><path d="M150 142l11 1-6 21z"/><ellipse fill="#000008" rx="1" ry="1" transform="rotate(170.3 111.5 20.3) scale(5.90756 53.07886)"/><path fill="#000004" d="M103 140h10v24h-10z"/><ellipse fill="#794eff" cx="98" cy="23" rx="41" ry="7"/></g></svg>