<svg xmlns="http://www.w3.org/2000/svg" viewBox="0 0 700 467"><filter id="b"><feGaussianBlur stdDeviation="12" /></filter><path fill="#3c3022" d="M0 0h700v464H0z"/><g filter="url(#b)" transform="translate(1.4 1.4) scale(2.73438)" fill-opacity=".5"><ellipse fill="#ffe0b3" rx="1" ry="1" transform="matrix(-16.3048 -1.59922 5.90303 -60.1843 68.1 59.4)"/><ellipse fill="#fff" cx="133" cy="91" rx="15" ry="9"/><ellipse cx="180" cy="151" rx="61" ry="61"/><path fill="#ffe4b3" d="M193 40h34v14h-34z"/><ellipse fill="#010200" rx="1" ry="1" transform="matrix(16.6945 111.50685 -30.51892 4.5692 18.7 93.2)"/><path fill="#d9b4a4" d="M96.4 135.3L134 72.5l-12.6.8 7.6 37.6z"/><path fill="#f5dabd" d="M48 30h32v33H48z"/><ellipse fill="#7f540e" cx="255" cy="46" rx="41" ry="41"/><ellipse fill="#000001" cx="66" cy="94" rx="8" ry="8"/><ellipse fill="#0b0b0c" cx="113" cy="157" rx="37" ry="37"/><ellipse fill="#00000c" cx="227" cy="82" rx="11" ry="23"/><ellipse fill="#1d0600" rx="1" ry="1" transform="rotate(-93.6 91.3 -9.3) scale(28.47467 17.85222)"/><path fill="#c98568" d="M122.2 148.6L104.7 131l10.3-1.2 10.7 9.5z"/><path fill="#fdd0c4" d="M109 107h25v9h-25z"/><path fill="#ede49e" d="M49 13h36v8H49z"/><path fill="#ffe0bb" d="M120 94l24 3-17-28z"/><path fill="#ae9174" d="M88.5 87.8L50.7 18.6l22.5 82.5-11.1 35.7z"/><ellipse fill="#fff" cx="149" cy="91" rx="4" ry="4"/><path fill="#ae7a2c" d="M258 92l-16 16-8-53z"/><path fill="#5a2715" d="M89 95L78 66l56-60z"/><path fill="#fee0d0" d="M215 44l-18 10-10-22z"/><path fill="#292910" d="M11 19L92 9-16-16z"/></g></svg>