<svg xmlns="http://www.w3.org/2000/svg" viewBox="0 0 700 467"><filter id="b"><feGaussianBlur stdDeviation="12" /></filter><path fill="#4b4253" d="M0 0h700v464H0z"/><g filter="url(#b)" transform="translate(1.4 1.4) scale(2.73438)" fill-opacity=".5"><ellipse fill="#f6d5d8" rx="1" ry="1" transform="rotate(22.4 -115.8 331.9) scale(33.27217 20.31812)"/><ellipse fill="#f6aaff" rx="1" ry="1" transform="matrix(13.70681 14.75029 -28.14565 26.15456 17 144.9)"/><ellipse fill="#050000" rx="1" ry="1" transform="rotate(-72.1 140.3 -128.5) scale(41.65918 89.38691)"/><ellipse fill="#000019" rx="1" ry="1" transform="matrix(43.22484 -55.15956 25.48304 19.96934 31.7 30.4)"/><ellipse fill="#c8cedc" rx="1" ry="1" transform="rotate(26.9 -80.3 180.5) scale(12.92619 32.94286)"/><ellipse fill="#949287" rx="1" ry="1" transform="rotate(-130.9 153 20.4) scale(32.47613 71.97876)"/><ellipse fill="#a6aeb0" rx="1" ry="1" transform="rotate(37.9 -153.4 223.7) scale(30.55925 14.77461)"/><path fill="#e2e0f5" d="M134.3 84.5l-15.8-6.4 17.2-42.6 15.8 6.4z"/><ellipse fill="#450000" rx="1" ry="1" transform="matrix(3.83581 -11.80113 28.62841 9.3053 242.6 169)"/><ellipse fill="#fffcee" rx="1" ry="1" transform="matrix(-9.17927 12.82223 -3.92488 -2.80977 194.6 98.6)"/><ellipse fill="#12080c" rx="1" ry="1" transform="matrix(16.61982 -11.78513 16.2639 22.93593 167.6 78.7)"/><path fill="#fff" d="M111 86h10v14h-10z"/><ellipse fill="#48c7ff" rx="1" ry="1" transform="matrix(9.70764 4.83084 -13.79846 27.72822 199 169)"/><path fill="#ffffed" d="M222 85.9l-20.3 5-1.7-6.8 20.3-5z"/><path fill="#000905" d="M149 135h23v35h-23z"/><path fill="#f2c992" d="M136.4 113.1l29.8-3.1 1.4 12.9-29.8 3.1z"/><path fill="#ff62ff" d="M93.4 105.6l6 10.3-14.8 8.5-6-10.3z"/><ellipse fill="#08142d" rx="1" ry="1" transform="matrix(-37.69771 8.01652 -2.083 -9.79527 70.6 91.2)"/><ellipse fill="#0f0000" cx="214" cy="103" rx="15" ry="15"/><path fill="#af8be4" d="M32.3 120.9l-4.6 87.9-32-1.7 4.6-87.9z"/><path fill="#2d0a5e" d="M79 44l42-15-47 36z"/><path fill="#90afc7" d="M131.9 166.2l-8.7-21.6 27 .2-2.4 13.7z"/></g></svg>