<svg xmlns="http://www.w3.org/2000/svg" viewBox="0 0 700 467"><filter id="b"><feGaussianBlur stdDeviation="12" /></filter><path fill="#736d75" d="M0 0h700v464H0z"/><g filter="url(#b)" transform="translate(1.4 1.4) scale(2.73438)" fill-opacity=".5"><ellipse fill="#f3ffff" rx="1" ry="1" transform="matrix(100.35505 -7.1253 2.63638 37.13162 140.3 169)"/><ellipse fill="#2f1f23" cx="105" cy="59" rx="67" ry="67"/><ellipse fill="#e7ffff" rx="1" ry="1" transform="matrix(-51.52526 -39.82325 7.92586 -10.25487 220.1 80)"/><ellipse fill="#f3f2ff" cx="128" cy="57" rx="22" ry="18"/><path fill="#050000" d="M55 10h138v26H55z"/><ellipse fill="#eff" cx="49" cy="39" rx="30" ry="6"/><ellipse fill="#521628" cx="52" cy="95" rx="71" ry="19"/><path fill="#fdfff8" d="M244 104l-48 81 42-17z"/><ellipse fill="#d8ffff" rx="1" ry="1" transform="matrix(-.03318 -5.49298 26.81267 -.16197 222.1 36.1)"/><ellipse fill="#000400" cx="80" cy="58" rx="18" ry="20"/><path fill="#c77699" d="M4 6l119-22 5 32z"/><path fill="#83110c" d="M158 108.9l13.3-21.2L212 113l-13.3 21.2z"/><path fill="#cfe7ff" d="M218 109l25-37-80-38z"/><ellipse fill="#014a5b" cx="24" cy="59" rx="44" ry="15"/><ellipse fill="#860000" rx="1" ry="1" transform="matrix(10.36772 1.62354 -4.52321 28.88463 249 162)"/><ellipse fill="#b1d1c4" rx="1" ry="1" transform="matrix(-3.25347 29.98933 -50.63215 -5.49296 140.7 146)"/><ellipse fill="#db8dff" cx="34" cy="83" rx="5" ry="15"/><path fill="#033426" d="M188.1 78.9l-29.4-50.8L139 41l17.7 42.2z"/><path fill="#ade7dd" d="M40 146l19 12 7-50z"/><path fill="#2b0000" d="M42.9 128.8l4.2 4.3 28.4-62.4-36.3 29.6z"/><ellipse fill="#140000" rx="1" ry="1" transform="rotate(-59.5 163.4 57.5) scale(19.06345 7.42043)"/><path fill="#7e6e3c" d="M233.3 145.5l-38.3 7.4-6.3-32.4 38.3-7.4z"/></g></svg>