<svg xmlns="http://www.w3.org/2000/svg" viewBox="0 0 700 467"><filter id="b"><feGaussianBlur stdDeviation="12" /></filter><path fill="#747d7d" d="M0 0h700v464H0z"/><g filter="url(#b)" transform="translate(1.4 1.4) scale(2.73438)" fill-opacity=".5"><ellipse fill="#fffffc" rx="1" ry="1" transform="matrix(-44.83068 -27.33992 43.75737 -71.75123 85.3 3.2)"/><ellipse rx="1" ry="1" transform="matrix(26.4466 -3.21139 8.02015 66.04798 115.6 118.2)"/><ellipse cy="113" rx="26" ry="211"/><ellipse fill="#e5e0dc" rx="1" ry="1" transform="matrix(-13.8153 -69.9475 32.88114 -6.49434 60.7 134.3)"/><ellipse fill="#f8efec" rx="1" ry="1" transform="matrix(5.36042 -30.65078 20.59985 3.60264 136.4 38.8)"/><ellipse fill="#040603" cx="250" cy="40" rx="17" ry="171"/><ellipse fill="#08314b" cx="177" cy="133" rx="19" ry="136"/><ellipse fill="#fff" cx="202" cy="68" rx="6" ry="115"/><ellipse rx="1" ry="1" transform="matrix(-17.03704 48.37929 -22.784 -8.02351 120.2 118.9)"/><path fill="#364a43" d="M56 0h12v170H56z"/><path fill="#fff" d="M156 121l4.9 54.8-13 1.2-4.8-54.8zm39-60l-8-66 17 9z"/><path d="M120 112l-38-5 4-39z"/><path fill="#861b00" d="M130 99h45v20h-45z"/><path fill="#7e675d" d="M102 37h20v51h-20z"/><ellipse fill="#e1dcdc" rx="1" ry="1" transform="matrix(7.7195 79.6235 -8.38594 .81302 36.6 109.3)"/><ellipse fill="#fff" cx="150" cy="34" rx="5" ry="49"/><path fill="#000100" d="M141 22h4v54h-4z"/><path fill="#f3eeed" d="M72 109h21v53H72z"/><ellipse fill="#f3f0f1" rx="1" ry="1" transform="matrix(26.3087 -24.03767 18.64017 20.40125 99.4 10.4)"/><ellipse rx="1" ry="1" transform="matrix(5.8844 42.25605 -10.07629 1.40318 132.5 153.9)"/><path fill="#77afae" d="M207 74h29v96h-29z"/></g></svg>