<svg xmlns="http://www.w3.org/2000/svg" viewBox="0 0 200 133"><filter id="b"><feGaussianBlur stdDeviation="12" /></filter><path fill="#9e9fac" d="M0 0h200v133H0z"/><g filter="url(#b)" transform="translate(.5 .5)" fill-opacity=".5"><ellipse rx="1" ry="1" transform="matrix(32.25654 3.74559 -6.22655 53.62226 101.1 89.9)"/><path fill="#fff" d="M67-13v140h-84V-13z"/><ellipse fill="#fcffff" cx="157" cy="88" rx="27" ry="49"/><ellipse rx="1" ry="1" transform="matrix(-24.43522 23.72857 -19.05315 -19.62056 101 97)"/><ellipse fill="#001b91" cx="143" cy="12" rx="27" ry="18"/><path fill="#010916" d="M72 46h30v77H72z"/><ellipse fill="#a18c67" rx="1" ry="1" transform="matrix(-27.23695 -47.46128 9.66618 -5.5472 82.8 29.6)"/><ellipse fill="#c7cecf" cx="190" cy="37" rx="24" ry="73"/><ellipse fill="#e8ebfe" cx="146" cy="50" rx="18" ry="18"/><ellipse fill="#99948c" rx="1" ry="1" transform="matrix(-14.28027 2.69705 -5.6029 -29.66612 9.7 123)"/><path fill="#b7a899" d="M125.6 24.3L24 12l84.6 33.2-3 40.7z"/><ellipse fill="#96b6ff" cx="69" cy="80" rx="3" ry="26"/><path fill="#000015" d="M69 112h5v21h-5z"/><path fill="#d1cfe8" d="M184.8 102.2L140.3 78 119 113.2l-4-13.3z"/><path fill="#001" d="M113 53h19v17h-19z"/><ellipse fill="#e6ebeb" rx="1" ry="1" transform="matrix(-18.07139 23.5511 -35.66627 -27.3677 30.5 40.4)"/><path fill="#d4d9e6" d="M124.3 79.3l2.3-4.4 23.1 11.8-2.3 4.4z"/><ellipse fill="#000002" rx="1" ry="1" transform="matrix(7.3891 -2.07698 7.42486 26.41479 104.2 88.4)"/><path fill="#efd6c2" d="M116 25L84 49l31-65z"/><ellipse fill="#223d7d" cx="156" cy="6" rx="12" ry="28"/><ellipse fill="#b07eac" cx="132" cy="132" rx="26" ry="14"/><ellipse fill="#f6f8e9" cx="199" cy="56" rx="5" ry="75"/></g></svg>