<svg xmlns="http://www.w3.org/2000/svg" viewBox="0 0 700 467"><filter id="b"><feGaussianBlur stdDeviation="12" /></filter><path fill="#686458" d="M0 0h700v464H0z"/><g filter="url(#b)" transform="translate(1.4 1.4) scale(2.73438)" fill-opacity=".5"><ellipse fill="#d3f7ff" rx="1" ry="1" transform="matrix(35.91007 40.64942 -58.18193 51.39844 82.6 169)"/><ellipse fill="#fcffff" cx="197" cy="169" rx="29" ry="62"/><ellipse fill="#241300" cx="239" cy="18" rx="97" ry="97"/><ellipse fill="#140600" cx="30" cy="67" rx="23" ry="83"/><ellipse fill="#17132a" rx="1" ry="1" transform="matrix(22.87644 37.7837 -28.79578 17.43462 156.2 95.1)"/><ellipse fill="#53504a" rx="1" ry="1" transform="matrix(-16.36258 -.05712 .2135 -61.16149 95.8 109.2)"/><ellipse fill="#f7ffff" rx="1" ry="1" transform="matrix(5.97707 -37.42125 26.06813 4.1637 128 169)"/><ellipse fill="#d8b5a5" rx="1" ry="1" transform="matrix(9.45743 -5.00745 14.06838 26.57056 202 53.2)"/><path fill="#deffff" d="M30 182l34-89 28 88z"/><ellipse fill="#ecfffe" rx="1" ry="1" transform="matrix(51.25733 36.88534 -7.99497 11.11013 215.6 160.9)"/><path fill="#ffffc0" d="M191 10.2L170.7-16h-8l1.5 39.1z"/><ellipse fill="#0c0700" rx="1" ry="1" transform="matrix(-17.49731 13.0421 -36.03023 -48.33826 223.6 33.8)"/><ellipse fill="#ffe57f" cx="113" cy="9" rx="17" ry="17"/><path fill="#fff" d="M125 129l-1-24h20z"/><path fill="#f7bb9c" d="M139 35h15v30h-15z"/><ellipse fill="#cec4c2" cx="62" cy="60" rx="20" ry="10"/><ellipse fill="#575c71" cx="95" cy="113" rx="28" ry="23"/><path fill="#ffb881" d="M154 126l18-42-12-2z"/><ellipse fill="#997d2f" rx="1" ry="1" transform="matrix(-2.99668 -48.9953 30.60945 -1.87215 5.4 145.7)"/><ellipse fill="#200f00" rx="1" ry="1" transform="rotate(-36.7 94.3 -212.4) scale(14.3901 34.3612)"/><ellipse fill="#805d0f" cx="80" cy="23" rx="34" ry="27"/><ellipse fill="#959a93" cx="105" cy="77" rx="16" ry="48"/></g></svg>