<svg xmlns="http://www.w3.org/2000/svg" viewBox="0 0 700 467"><filter id="b"><feGaussianBlur stdDeviation="12" /></filter><path fill="#78626c" d="M0 0h700v464H0z"/><g filter="url(#b)" transform="translate(1.4 1.4) scale(2.73438)" fill-opacity=".5"><ellipse fill="#fff" cx="219" cy="49" rx="70" ry="70"/><ellipse fill="#000e5a" cx="38" cy="50" rx="43" ry="238"/><ellipse fill="#e10000" rx="1" ry="1" transform="matrix(99.75315 -1.7828 .60393 33.79187 188.4 146)"/><ellipse fill="#fff" cx="219" cy="49" rx="66" ry="66"/><path fill="#5d0000" d="M100 181.6L112.1-52l45.9 2.4L145.8 184z"/><path fill="#f4ffff" d="M174 113.4l96.8.7-110.3-85-12.6 87.7z"/><ellipse fill="#002b5e" cy="64" rx="82" ry="82"/><ellipse fill="#be0000" cx="200" cy="144" rx="101" ry="31"/><ellipse fill="#000015" cx="140" cy="53" rx="13" ry="74"/><ellipse fill="#f10000" cx="116" cy="78" rx="10" ry="106"/><path fill="#fff" d="M16 156h19v14H16z"/><ellipse fill="#00182f" cx="73" cy="167" rx="36" ry="21"/><ellipse fill="#00325d" rx="1" ry="1" transform="matrix(-33.69338 -2.00176 7.8861 -132.73815 50 36)"/><path fill="#f5ffff" d="M152 67h104v47H152z"/><ellipse fill="#81a290" cx="85" cy="115" rx="17" ry="36"/><ellipse fill="#beeedc" cx="182" cy="12" rx="29" ry="29"/><path fill="#3fdb2d" d="M172.8 37l11.3 2.5 25.3-1.2 10.4-14.2z"/><path fill="#b30800" d="M271 113l-183 2 112 70z"/><path fill="#004681" d="M-16 38l93 54-72 79z"/><ellipse fill="#92b3a3" cx="97" cy="17" rx="12" ry="70"/><ellipse fill="#004993" cx="153" cy="169" rx="9" ry="13"/><path fill="#fcfffb" d="M275.8 115.6L209 111l11.2-160.6L287-45z"/></g></svg>