<svg xmlns="http://www.w3.org/2000/svg" viewBox="0 0 800 533"><filter id="b"><feGaussianBlur stdDeviation="12" /></filter><path fill="#3a4269" d="M0 0h800v531H0z"/><g filter="url(#b)" transform="translate(1.6 1.6) scale(3.125)" fill-opacity=".5"><ellipse fill="#8fff87" rx="1" ry="1" transform="matrix(59.81294 -13.58917 11.01048 48.46283 163.6 17.3)"/><ellipse fill="#00000b" cx="22" cy="100" rx="34" ry="255"/><path fill="#ffc3ff" d="M87 114l-28 36h122z"/><ellipse fill="#3737f4" rx="1" ry="1" transform="matrix(-30.12623 -2.86319 5.87238 -61.78868 231.5 33.8)"/><path fill="#d2abcd" d="M116 65h32v53h-32z"/><ellipse cx="194" cy="160" rx="255" ry="7"/><ellipse fill="#fffcff" cx="218" cy="140" rx="12" ry="9"/><ellipse fill="#b8e773" rx="1" ry="1" transform="matrix(19.35285 -24.59308 22.20372 17.4726 160.7 22.6)"/><ellipse fill="#17006f" rx="1" ry="1" transform="matrix(9.16925 -20.75396 40.2983 17.80408 178.6 93.5)"/><ellipse fill="#0c9653" cx="97" cy="33" rx="21" ry="38"/><path fill="#e5c7ff" d="M171 152l-9-20-69 7z"/><ellipse fill="#01005b" cx="46" cy="20" rx="31" ry="49"/><path fill="#b578b4" d="M74.2 65.5l-17 28.3-15.4-9.3 17-28.3z"/><ellipse fill="#b4a0c0" rx="1" ry="1" transform="matrix(4.77073 -.18477 3.06816 79.22043 224 75.8)"/><path fill="#200932" d="M77 53l50 84-66-38z"/><ellipse fill="#000001" rx="1" ry="1" transform="matrix(-3.56325 -9.89731 29.63739 -10.67012 179 153.9)"/><ellipse fill="#00002a" rx="1" ry="1" transform="matrix(41.29834 138.53251 -38.27556 11.41044 11.8 110.2)"/><ellipse fill="#0b006a" rx="1" ry="1" transform="matrix(10.08092 -51.86355 22.48845 4.37117 255 100.4)"/><path fill="#039b83" d="M166 69l53-10-1-75z"/><path fill="#000028" d="M52.4 117.1l37.8 18.4-2.6 5.4-37.8-18.4z"/><ellipse fill="#3109e8" rx="1" ry="1" transform="rotate(89 117 137.4) scale(48.32021 26.94163)"/><path fill="#ffe876" d="M210 49l-22-20-35 3z"/></g></svg>