<svg xmlns="http://www.w3.org/2000/svg" viewBox="0 0 200 133"><filter id="b"><feGaussianBlur stdDeviation="12" /></filter><path fill="#76797a" d="M0 0h200v133H0z"/><g filter="url(#b)" transform="translate(.5 .5)" fill-opacity=".5"><ellipse cx="95" cy="94" rx="31" ry="37"/><ellipse fill="#ddd4d1" cx="22" cy="37" rx="67" ry="67"/><ellipse rx="1" ry="1" transform="matrix(3.72007 29.4474 -14.31643 1.80859 44.4 49.7)"/><ellipse cx="88" cy="79" rx="24" ry="27"/><ellipse fill="#191816" rx="1" ry="1" transform="matrix(84.82359 -.37092 .07947 18.17236 152.7 109.5)"/><ellipse fill="#fef9f7" rx="1" ry="1" transform="matrix(-8.38314 -39.43959 19.80048 -4.20872 66 15.8)"/><ellipse fill="#cdd4d8" cx="31" cy="100" rx="39" ry="22"/><ellipse fill="#f4eeea" cx="157" cy="27" rx="6" ry="65"/><ellipse fill="#00000c" cx="43" cy="129" rx="46" ry="6"/><ellipse fill="#272829" cx="198" rx="18" ry="112"/><ellipse fill="#2b353c" cy="83" rx="7" ry="87"/><ellipse fill="#e8e6e6" cx="18" cy="55" rx="12" ry="73"/><ellipse fill="#b5c4c2" cx="105" cy="27" rx="10" ry="36"/><path fill="#00172b" d="M31 103h9v30h-9z"/><path fill="#0f1b26" d="M55 104h45v25H55z"/><ellipse fill="#414241" cx="145" cy="62" rx="9" ry="61"/><path fill="#392c28" d="M31.4 75L30 31.5l26.6-4.3-4.6 52z"/><path fill="#000005" d="M83 44l-6 73-11-52z"/><path fill="#f1e4e3" d="M194-16l21 56-13 47z"/><ellipse fill="#80928e" rx="1" ry="1" transform="matrix(3.6319 58.86388 -6.8855 .42484 127.9 94.4)"/><path fill="#c5b5c9" d="M79 128h97v5H79z"/><path fill="#e0d9d6" d="M52.2 5.7l6.9 71 11.5-22L99 61.2z"/></g></svg>