<svg xmlns="http://www.w3.org/2000/svg" viewBox="0 0 700 467"><filter id="b"><feGaussianBlur stdDeviation="12" /></filter><path fill="#5c2845" d="M0 0h700v464H0z"/><g filter="url(#b)" transform="translate(1.4 1.4) scale(2.73438)" fill-opacity=".5"><ellipse fill="#7a97df" rx="1" ry="1" transform="matrix(82.39438 -2.76264 1.33428 39.79435 120.5 66.4)"/><ellipse fill="#ff0122" rx="1" ry="1" transform="rotate(-19 487.6 -544.7) scale(50.74405 24.604)"/><ellipse rx="1" ry="1" transform="matrix(35.04914 -16.04675 32.43662 70.84771 237 40.2)"/><ellipse fill="#000938" rx="1" ry="1" transform="matrix(-7.11453 -21.797 55.6264 -18.15642 116.7 15)"/><path fill="#4c0000" d="M0 125h162v45H0z"/><ellipse rx="1" ry="1" transform="matrix(-40.07294 101.75823 -26.10837 -10.28162 16.9 17.3)"/><ellipse fill="#ff231f" rx="1" ry="1" transform="rotate(-104.5 90.9 29.7) scale(13.55918 31.92202)"/><ellipse fill="#b6dbc3" rx="1" ry="1" transform="matrix(17.00189 10.1734 -17.3995 29.0782 120.5 67)"/><ellipse fill="#ff3557" cx="197" cy="95" rx="7" ry="66"/><path fill="#a6b6ff" d="M89.6 108.7L46.1 43l32.2-12.8-25.4 72.1z"/><ellipse fill="#100e15" cx="144" cy="107" rx="23" ry="19"/><path fill="#ff3237" d="M40 33h13v72H40z"/><ellipse fill="#03004c" cx="85" cy="58" rx="13" ry="27"/><path fill="#817dfa" d="M174.3 86l-25.5-66.3 15-5.7 25.4 66.3z"/><ellipse fill="#2b0000" cx="255" cy="165" rx="50" ry="26"/><ellipse fill="#76a3fa" rx="1" ry="1" transform="matrix(10.18828 -24.00207 8.98229 3.81275 176.7 84.8)"/><path fill="#5d0674" d="M145.4 42.9l64-11.3 5.2 29.5-64 11.3z"/><ellipse rx="1" ry="1" transform="rotate(88.9 -53.9 117.4) scale(8.13632 72.8198)"/><path fill="#ff1b47" d="M225.5 159.5h-45v-31h45z"/><ellipse rx="1" ry="1" transform="rotate(165.7 121.5 33.2) scale(33.65192 77.98261)"/><ellipse fill="#ec00b8" rx="1" ry="1" transform="matrix(-3.73089 -3.01627 25.03836 -30.97047 70 7.6)"/><ellipse fill="#070821" cx="168" cy="7" rx="91" ry="15"/></g></svg>