<svg xmlns="http://www.w3.org/2000/svg" viewBox="0 0 200 133"><filter id="b"><feGaussianBlur stdDeviation="12" /></filter><path fill="#707071" d="M0 0h200v133H0z"/><g filter="url(#b)" transform="translate(.5 .5)" fill-opacity=".5"><ellipse fill="#fff" rx="1" ry="1" transform="matrix(189.6447 1.655 -.25468 29.18389 95 16)"/><ellipse rx="1" ry="1" transform="matrix(116.22066 3.34902 -1.52094 52.78113 91.9 104.5)"/><ellipse fill="#faffff" rx="1" ry="1" transform="matrix(138.60057 10.17819 -2.52201 34.3433 116.5 0)"/><path fill="#b9b3b5" d="M148 22.1l24.5 8.9-34.6 94.9-24.4-8.9z"/><path fill="#fdffff" d="M106 112l-14 3 16 30z"/><ellipse fill="#040202" rx="1" ry="1" transform="matrix(22.85677 9.98588 -18.19369 41.6437 88.9 86.3)"/><path fill="#e3e8e5" d="M47.3 86.6l5.4 15-16 5.8-5.4-15z"/><ellipse fill="#120c00" rx="1" ry="1" transform="matrix(-46.42388 41.85917 -19.0839 -21.16497 185.6 112.2)"/><path fill="#49372e" d="M157 36h-37l4 40z"/><ellipse fill="#5d2c15" cx="97" cy="41" rx="9" ry="13"/><ellipse fill="#0e0c09" cx="43" cy="120" rx="48" ry="19"/><ellipse fill="#5c4429" rx="1" ry="1" transform="rotate(-64.4 51.8 .6) scale(20.95957 8.20564)"/><path fill="#e3e0dd" d="M99.8-15L37.3 44.3-16 39l63.9 19z"/><ellipse fill="#95887a" rx="1" ry="1" transform="matrix(9.43617 -12.89289 9.0481 6.62221 6.4 75.6)"/><ellipse fill="#08090b" cx="67" cy="65" rx="20" ry="20"/><ellipse fill="#dddce9" cx="139" cy="89" rx="5" ry="30"/><ellipse fill="#edfbff" rx="1" ry="1" transform="matrix(-34.1818 14.96616 -14.47643 -33.0633 123.2 2.3)"/><ellipse fill="#261c12" rx="1" ry="1" transform="rotate(-159.3 18.5 23.3) scale(3.79182 25.29928)"/><path fill="#c3cad3" d="M153 27h47v25h-47z"/><ellipse fill="#b4e5ff" cx="57" cy="95" rx="4" ry="7"/><path fill="#f2fdff" d="M81 0h8v55h-8z"/><path fill="#4d4832" d="M146 67h46v32h-46z"/></g></svg>