<svg xmlns="http://www.w3.org/2000/svg" viewBox="0 0 700 467"><filter id="b"><feGaussianBlur stdDeviation="12" /></filter><path fill="#93858a" d="M0 0h700v464H0z"/><g filter="url(#b)" transform="translate(1.4 1.4) scale(2.73438)" fill-opacity=".5"><ellipse fill="#fff" rx="1" ry="1" transform="matrix(2.12754 -63.74314 98.96526 3.30315 71.6 43.1)"/><ellipse fill="#3c0000" cx="51" cy="160" rx="57" ry="57"/><ellipse fill="#000054" rx="1" ry="1" transform="matrix(29.6511 .17181 -.5041 86.99626 236 71)"/><ellipse fill="#681600" cx="87" cy="148" rx="153" ry="44"/><ellipse fill="#9d0000" rx="1" ry="1" transform="matrix(-.73426 84.13755 -12.17877 -.10628 174.3 64.4)"/><ellipse fill="#fff" cx="107" cy="48" rx="58" ry="58"/><ellipse fill="#fff" cx="140" cy="79" rx="24" ry="27"/><ellipse fill="#002a73" cx="243" cy="54" rx="31" ry="101"/><ellipse fill="#871100" cx="145" cy="133" rx="30" ry="30"/><ellipse fill="#fff" cx="31" cy="91" rx="133" ry="14"/><ellipse fill="#788f95" rx="1" ry="1" transform="matrix(-25.2095 11.01376 -7.94226 -18.17912 91 158)"/><ellipse fill="#fbffff" rx="1" ry="1" transform="rotate(84.6 66.2 83.6) scale(96.24142 17.96288)"/><ellipse fill="#a10100" cx="172" cy="33" rx="11" ry="79"/><ellipse fill="#dbf8ff" cx="58" cy="10" rx="105" ry="95"/><path fill="#644f76" d="M21.1 85.5L9.6 71.7l25.3-21.2 11.5 13.8z"/><ellipse fill="#93a5a3" cx="201" cy="76" rx="12" ry="247"/><ellipse fill="#000001" rx="1" ry="1" transform="rotate(48.1 -109 264.3) scale(12.95417 34.7907)"/><path fill="#901c00" d="M119 139L5 105l203-1z"/><ellipse fill="#4f6b6a" cx="193" cy="115" rx="24" ry="22"/><path fill="#9f0900" d="M0 106h47v28H0z"/><ellipse fill="#00317a" rx="1" ry="1" transform="matrix(22.94147 -3.43113 15.29 102.23322 241 51.5)"/><ellipse fill="#d4d4d9" rx="1" ry="1" transform="matrix(-9.42589 -15.14332 9.2514 -5.7585 242 166.4)"/></g></svg>