<svg xmlns="http://www.w3.org/2000/svg" viewBox="0 0 200 133"><filter id="b"><feGaussianBlur stdDeviation="12" /></filter><path fill="#4e4f57" d="M0 0h200v133H0z"/><g filter="url(#b)" transform="translate(.5 .5)" fill-opacity=".5"><ellipse fill="#fffffd" rx="1" ry="1" transform="matrix(28.74148 -40.4432 35.51016 25.23576 94.8 132)"/><ellipse cx="25" cy="23" rx="66" ry="66"/><ellipse fill="#fff" rx="1" ry="1" transform="rotate(84.1 -18.6 113.1) scale(9.23175 106.5587)"/><path fill="#fffff4" d="M86.8 129.4l8.4-65.1-19-9.3-.6 54z"/><path d="M69 126h131v7H69z"/><ellipse fill="#fff" cx="113" cy="76" rx="7" ry="32"/><path fill="#0c0000" d="M21 0h54v109H21z"/><path fill="#f5ffff" d="M184 51h12v71h-12z"/><ellipse fill="#000f2b" cx="107" cy="19" rx="199" ry="26"/><ellipse fill="#fff" rx="1" ry="1" transform="matrix(-30.9351 -5.49644 3.30213 -18.58506 22.8 132)"/><path fill="#030d30" d="M119 76.6l39.8-5 4.1 33.8-39.7 5z"/><path fill="#fff" d="M56 108h144v13H56z"/><path fill="#d3d1c7" d="M29 123L11 56v53z"/><ellipse rx="1" ry="1" transform="matrix(-5.082 .26634 -1.58506 -30.24477 99.2 77.4)"/><ellipse fill="#8d071f" cx="46" cy="94" rx="14" ry="29"/><ellipse fill="#202039" rx="1" ry="1" transform="matrix(20.15549 48.47263 -26.9485 11.2055 150.2 55.6)"/><path fill="#0e1313" d="M14.4 136.1l200.6-6.6-20.9-9.5-80.4 5.6z"/><path fill="#fff5d0" d="M83 31l-11 98 27-9z"/><ellipse fill="#131915" rx="1" ry="1" transform="matrix(6.75095 24.32847 -4.3027 1.19396 4.7 105.2)"/><path fill="#00002b" d="M141.3 109.4l-16 .2-.6-31 16-.2z"/><path fill="#000c00" d="M53 65h20v44H53z"/><ellipse fill="#072b4d" cx="95" cy="22" rx="29" ry="29"/></g></svg>