<svg xmlns="http://www.w3.org/2000/svg" viewBox="0 0 700 467"><filter id="b"><feGaussianBlur stdDeviation="12" /></filter><path fill="#363635" d="M0 0h700v464H0z"/><g filter="url(#b)" transform="translate(1.4 1.4) scale(2.73438)" fill-opacity=".5"><ellipse fill="#f4f3f0" rx="1" ry="1" transform="rotate(-155.3 88 -14.5) scale(16.99677 53.29832)"/><ellipse cx="201" cy="144" rx="255" ry="46"/><ellipse fill="#756f64" rx="1" ry="1" transform="matrix(-63.7151 -87.92314 36.18501 -26.22212 93.9 23.6)"/><ellipse fill="#86786e" rx="1" ry="1" transform="rotate(-59.5 136 -167.7) scale(31.34849 37.58027)"/><ellipse fill="#b7d2e4" rx="1" ry="1" transform="matrix(-8.66063 6.47746 -21.80163 -29.14967 162.8 13.1)"/><ellipse rx="1" ry="1" transform="rotate(146.3 -5.8 21) scale(21.66293 19.87457)"/><ellipse fill="#616f79" cx="73" rx="161" ry="21"/><ellipse fill="#c6a18a" cx="97" cy="63" rx="10" ry="23"/><ellipse fill="#baac62" rx="1" ry="1" transform="matrix(4.51656 2.28596 -9.57236 18.91288 155.2 109.3)"/><ellipse fill="#a48068" cx="48" cy="59" rx="9" ry="19"/><ellipse cx="140" cy="103" rx="12" ry="12"/><path fill="#d4dcec" d="M218 57l3 24 12-29z"/><ellipse fill="#000306" rx="1" ry="1" transform="matrix(-10.7703 -3.08676 16.90031 -58.96851 168 115.7)"/><path fill="#44352b" d="M182 16h25v107h-25z"/><path fill="#fff" d="M174 20.8l-19 11-5-8.6 19-11z"/><ellipse fill="#0d1413" rx="1" ry="1" transform="matrix(23.4467 -37.70696 7.91178 4.91965 146.5 94.8)"/><ellipse fill="#906246" cx="157" cy="47" rx="19" ry="16"/><path fill="#111a21" d="M59 23l7 69 43 12z"/><path fill="#d2ebff" d="M68 70L51 84l7 2z"/><ellipse cy="74" rx="11" ry="57"/><path fill="#00040e" d="M263 167L237 48l-26 53z"/><path fill="#d2e0f0" d="M245.2 49.7l-6.4-2.6 6-14.8 6.4 2.6z"/></g></svg>