<svg xmlns="http://www.w3.org/2000/svg" viewBox="0 0 200 133"><filter id="b"><feGaussianBlur stdDeviation="12" /></filter><path fill="#767d7f" d="M0 0h200v133H0z"/><g filter="url(#b)" transform="translate(.5 .5)" fill-opacity=".5"><ellipse fill="#fffbf9" cx="70" rx="54" ry="54"/><ellipse rx="1" ry="1" transform="matrix(20.8675 -1.82567 4.65227 53.17568 91.7 94)"/><ellipse fill="#e9e4e1" rx="1" ry="1" transform="matrix(-15.52304 -74.33453 22.15026 -4.62557 47 97.5)"/><ellipse cx="3" cy="72" rx="16" ry="199"/><ellipse fill="#060605" cx="194" cy="30" rx="12" ry="129"/><ellipse fill="#fafdff" rx="1" ry="1" transform="matrix(6.04265 85.21984 -5.68772 .4033 158.2 76)"/><ellipse fill="#0b3250" cx="138" cy="86" rx="15" ry="91"/><ellipse rx="1" ry="1" transform="matrix(-17.75767 2.0095 -6.04378 -53.40825 91.9 117.3)"/><ellipse fill="#fff" cx="117" cy="114" rx="7" ry="20"/><ellipse fill="#354845" cx="48" cy="99" rx="5" ry="173"/><path fill="#f5edea" d="M92 44l28-22 3 40z"/><path fill="#451609" d="M112.5 39.9L89.2 97.8l61.2-7-31.4-14z"/><ellipse fill="#f7f4f6" cx="81" cy="9" rx="30" ry="21"/><path fill="#fffcfc" d="M57 86h17v23H57z"/><path fill="#e5e0e0" d="M21 31h19v102H21z"/><path d="M64 62l24-22-24 53z"/><path fill="#f3eeee" d="M55 16h9v81h-9z"/><ellipse fill="#7c6460" cx="86" cy="49" rx="9" ry="23"/><ellipse cx="112" cy="16" rx="2" ry="30"/><path fill="#e9e5e7" d="M145.4 7.7L155.5-16l5.3 17.6-3 86.1z"/><ellipse cy="118" rx="8" ry="44"/><ellipse fill="#6fa7a9" cx="172" cy="70" rx="11" ry="97"/></g></svg>