<svg xmlns="http://www.w3.org/2000/svg" viewBox="0 0 200 133"><filter id="b"><feGaussianBlur stdDeviation="12" /></filter><path fill="#4d4256" d="M0 0h200v133H0z"/><g filter="url(#b)" transform="translate(.5 .5)" fill-opacity=".5"><ellipse fill="#eba5ff" rx="1" ry="1" transform="matrix(19.86884 -17.51674 13.02512 14.7741 13.4 113)"/><ellipse fill="#d7bccc" rx="1" ry="1" transform="matrix(3.47877 -17.97155 36.93155 7.14887 78 48.9)"/><ellipse fill="#0d0100" cx="170" cy="21" rx="57" ry="57"/><ellipse fill="#00021b" rx="1" ry="1" transform="matrix(-19.03515 -14.65904 30.63258 -39.77721 27 29.8)"/><ellipse fill="#a7b7ba" rx="1" ry="1" transform="matrix(45.84123 -28.70153 5.37469 8.58429 186.6 106.6)"/><path fill="#b39ed1" d="M82 122l-25.4-17.7L68 87.9l25.4 17.8z"/><ellipse fill="#f3ece1" rx="1" ry="1" transform="matrix(6.53357 3.047 -11.63674 24.95226 99 55.7)"/><ellipse fill="#fff3e6" rx="1" ry="1" transform="matrix(3.3303 3.54132 -9.95363 9.36048 156 72.3)"/><path fill="#06001e" d="M63 53.2l21.5 10.9-9.6 18.7-21.4-10.9z"/><path fill="#d4ffff" d="M45 55l18-40 8 10z"/><path fill="#a6c4a6" d="M86.3 125.7l9.2-16.6 20.2 11.2-9.2 16.6z"/><path fill="#f2f5e7" d="M59.3 51.2l1.3 12-16 1.6-1.2-12z"/><path fill="#c9a788" d="M107.7 96.7l-14-1.5 34.6-12.6 7.2 20.8z"/><path fill="#38175a" d="M85-16h126L60 47z"/><path d="M114 65h33v13h-33z"/><path fill="#000503" d="M105 148l19-46 22 38z"/><path fill="#691a00" d="M168 120h28v13h-28z"/><path fill="#07020f" d="M118 75l-43 4 28 15z"/><ellipse fill="#e4c6ca" rx="1" ry="1" transform="rotate(77.7 15.7 99.9) scale(9.44934 5.26124)"/><path fill="#54cbff" d="M129 148h17.3l26-36.6-8.6-.7z"/><ellipse fill="#9b756f" cx="192" cy="102" rx="16" ry="24"/><ellipse fill="#080000" cx="166" cy="85" rx="14" ry="7"/></g></svg>