<svg xmlns="http://www.w3.org/2000/svg" viewBox="0 0 200 133"><filter id="b"><feGaussianBlur stdDeviation="12" /></filter><path fill="#393638" d="M0 0h200v133H0z"/><g filter="url(#b)" transform="translate(.5 .5)" fill-opacity=".5"><ellipse fill="#e5e0df" rx="1" ry="1" transform="rotate(107 62.4 55.6) scale(39.8643 14.87169)"/><ellipse fill="#000104" cx="134" cy="132" rx="69" ry="69"/><ellipse fill="#766d67" cx="107" cy="27" rx="87" ry="49"/><ellipse cx="25" cy="111" rx="78" ry="27"/><path fill="#fff" d="M118 14h24v11h-24z"/><ellipse fill="#2d2621" cx="142" cy="69" rx="29" ry="38"/><path d="M-16 4l55 32-42 10z"/><path fill="#dccc88" d="M131.6 64.5L108 115.2l-3.6-1.7L128 62.8z"/><path fill="#0f131a" d="M80.3 72.3l97 75.7h-84L29 4.3z"/><ellipse fill="#67717d" rx="1" ry="1" transform="matrix(-.92776 -20.4308 84.6604 -3.8444 44 0)"/><ellipse fill="#c7a490" cx="75" cy="49" rx="7" ry="21"/><ellipse fill="#b18c7f" rx="1" ry="1" transform="matrix(-4.5939 -22.34352 7.87103 -1.6183 170.4 31.4)"/><ellipse fill="#000009" cx="184" cy="88" rx="17" ry="17"/><ellipse cx="2" cy="50" rx="7" ry="38"/><path fill="#a0c0d4" d="M100-8l33 24 15-28z"/><ellipse fill="#000002" cx="136" cy="70" rx="6" ry="32"/><path fill="#060508" d="M202 10l-17-9-3 38z"/><path fill="#271918" d="M136.8 14l17.3-1.6L191.8 128l-41-103.3z"/><path fill="#adbad3" d="M194 27l-3 14-20 6z"/><ellipse fill="#000009" cx="186" cy="64" rx="5" ry="28"/><ellipse fill="#d0eff4" cx="43" cy="65" rx="4" ry="4"/><path fill="#d2d6e0" d="M193.1 75.9l-1-8 12.8-1.8 1 8z"/></g></svg>