<svg xmlns="http://www.w3.org/2000/svg" viewBox="0 0 200 133"><filter id="b"><feGaussianBlur stdDeviation="12" /></filter><path fill="#e2eaf5" d="M0 0h200v133H0z"/><g filter="url(#b)" transform="translate(.5 .5)" fill-opacity=".5"><path fill="#070000" d="M45 80h16v17H45z"/><ellipse fill="#4d6677" rx="1" ry="1" transform="matrix(-9.29655 -2.66657 3.99749 -13.9366 49.8 22.6)"/><path fill="#748089" d="M22 113.6l5.3-8.2 32-1.8 18.2 4.7z"/><path fill="#b8b4bb" d="M135.5 86h27v36h-27z"/><path fill="#f9fdff" d="M39-16L215 0 72 43z"/><path fill="#c1b885" d="M123.8 38l-.6-12 41-2 .6 12z"/><ellipse fill="#495e67" rx="1" ry="1" transform="matrix(-10.11291 3.3552 -1.12033 -3.37679 46.9 26.2)"/><ellipse fill="#f2faff" rx="1" ry="1" transform="matrix(-3.79985 73.32588 -26.8005 -1.38884 189.3 65.7)"/><ellipse fill="#f0f9ff" rx="1" ry="1" transform="matrix(29.19236 -7.30484 13.31055 53.19304 103.8 75.7)"/><ellipse fill="#5d3113" cx="52" cy="89" rx="9" ry="9"/><ellipse fill="#642900" cx="162" cy="91" rx="1" ry="15"/><path fill="#eff9ff" d="M69.5 35L45.2 86.7 29.7 66.6l48.4 26.5z"/><ellipse fill="#c4d4e0" rx="1" ry="1" transform="rotate(152.7 19 27.4) scale(20.01177 13.14855)"/><ellipse fill="#f7fbff" cx="21" cy="5" rx="25" ry="25"/><path fill="#91663e" d="M138 107h20v2h-20z"/><path fill="#eef7ff" d="M155 6.8l-5.3 29.4L49 101.5l110.9-35.8z"/><path fill="#622000" d="M136 75h1v37h-1z"/><path fill="#c5b4a5" d="M143 86l20-9-28-3z"/><ellipse fill="#ebf5ff" rx="1" ry="1" transform="matrix(20.8525 -15.17054 25.90185 35.60312 12.8 66.1)"/><path fill="#004c91" d="M51.2 95.9l-3.7-3.4 9.3-10.4 3.7 3.4z"/><path fill="#a2b1bc" d="M64 100l15.2 3-30.8 13.6-31-4.4z"/><path fill="#899dad" d="M32 35h22v5H32z"/></g></svg>