<svg xmlns="http://www.w3.org/2000/svg" viewBox="0 0 200 133"><filter id="b"><feGaussianBlur stdDeviation="12" /></filter><path fill="#655d67" d="M0 0h200v133H0z"/><g filter="url(#b)" transform="translate(.5 .5)" fill-opacity=".5"><ellipse fill="#b6bcf1" rx="1" ry="1" transform="matrix(-28.31567 -45.84697 67.06817 -41.42215 56.4 0)"/><ellipse cx="74" cy="132" rx="199" ry="23"/><ellipse fill="#fcf2f8" rx="1" ry="1" transform="rotate(95.6 6.5 86.4) scale(22.52401 17.49151)"/><ellipse cx="157" cy="77" rx="45" ry="18"/><path fill="#010000" d="M82 57l-8 39-90-5z"/><ellipse fill="#8485a5" cx="156" rx="36" ry="69"/><ellipse fill="#fecc87" rx="1" ry="1" transform="rotate(-91.6 121 -12.2) scale(3.09141 49.53802)"/><path fill="#eac7a0" d="M0 98h110v10H0z"/><ellipse fill="#1d1b49" cx="112" cy="9" rx="11" ry="65"/><path d="M171 110L42 148l-14-36z"/><path fill="#fffbb1" d="M28 148l-43-18 45-6z"/><ellipse cx="70" cy="58" rx="5" ry="20"/><path fill="#1a0f10" d="M111 71h89v26h-89z"/><path fill="#eeb273" d="M128 122h60v8h-60z"/><ellipse fill="#63595b" cx="171" cy="52" rx="29" ry="30"/><path fill="#e3d2a3" d="M165.3 94.3l.3 8-41 1.4-.2-8z"/><ellipse fill="#737bc9" cx="114" cy="2" rx="53" ry="31"/><ellipse fill="#b5adb4" cx="40" cy="21" rx="25" ry="45"/><ellipse cx="186" cy="116" rx="78" ry="6"/><path d="M113 70l-4-59-12 39z"/><ellipse fill="#8aabf1" cx="86" cy="30" rx="18" ry="18"/><path fill="#290305" d="M32 93.9L-7.9 98-10 78.1 29.8 74z"/></g></svg>