<svg xmlns="http://www.w3.org/2000/svg" viewBox="0 0 700 467"><filter id="b"><feGaussianBlur stdDeviation="12" /></filter><path fill="#3f55a9" d="M0 0h700v464H0z"/><g filter="url(#b)" transform="translate(1.4 1.4) scale(2.73438)" fill-opacity=".5"><ellipse fill="#001a00" rx="1" ry="1" transform="matrix(70.5588 222.00763 -27.38376 8.70315 12 65)"/><ellipse fill="#4e76ff" rx="1" ry="1" transform="matrix(11.52763 -49.53705 150.3766 34.99373 190.3 52.8)"/><path fill="#ffe7e7" d="M167 105l-2 61-26-24z"/><ellipse fill="#00e900" rx="1" ry="1" transform="matrix(-8.0435 -7.42682 25.59783 -27.72334 18 48.8)"/><ellipse fill="#2c1f9b" rx="1" ry="1" transform="matrix(-6.10911 -21.75482 78.38737 -22.01247 69.7 100.2)"/><path fill="#e9ff14" d="M217 0h8v51h-8z"/><ellipse fill="#451f20" rx="1" ry="1" transform="matrix(-254.99936 .5705 -.0197 -8.8052 185 167)"/><ellipse fill="#dfe482" rx="1" ry="1" transform="matrix(-6.12537 .84732 -7.84629 -56.7215 231.3 97.8)"/><ellipse fill="#c78afe" cx="197" cy="133" rx="13" ry="26"/><ellipse fill="#1583f2" rx="1" ry="1" transform="matrix(-7.86867 69.06241 -15.89025 -1.81047 53.2 45.7)"/><path fill="#8ac1ff" d="M130 60l75 8-94-54z"/><path fill="#4c3f0e" d="M263.5 150.9l-36 1.2-1-29 36-1.2z"/><ellipse fill="#4a8c4c" cx="129" cy="132" rx="14" ry="61"/><ellipse fill="#182700" rx="1" ry="1" transform="rotate(-56 17.5 -7.7) scale(47.88365 18.94545)"/><ellipse fill="#511fff" cx="185" cy="25" rx="27" ry="27"/><path fill="#cf9cff" d="M103 154l-16-11 28-43z"/><path fill="#120752" d="M83.8 179.1l-10.4-20.5 42.8-21.7 10.4 20.5z"/><ellipse fill="#070039" rx="1" ry="1" transform="rotate(-9.4 907.2 -181.4) scale(31.60695 20.47554)"/><path fill="#000017" d="M0 72h37v34H0z"/><path fill="#006361" d="M207.7-13l30.8 14.3-10.2 21.8-30.8-14.4z"/><ellipse fill="#4542ff" cx="246" cy="34" rx="18" ry="37"/><path fill="#000046" d="M172 115l19 8-27 41z"/></g></svg>