<svg xmlns="http://www.w3.org/2000/svg" viewBox="0 0 200 101"><filter id="b"><feGaussianBlur stdDeviation="12" /></filter><path fill="#694f61" d="M0 0h200v101H0z"/><g filter="url(#b)" transform="translate(.5 .5)" fill-opacity=".5"><ellipse fill="#ffcfff" rx="1" ry="1" transform="matrix(65.88725 0 0 45.42208 101.7 77.6)"/><path d="M40.3 92.6l-62-2.2 3.4-95 62 2.2z"/><ellipse cx="187" cy="39" rx="24" ry="65"/><ellipse fill="#0f1200" rx="1" ry="1" transform="matrix(-52.6314 15.7017 -5.3661 -17.9869 148 13.3)"/><ellipse fill="#f5aef5" cx="65" cy="58" rx="23" ry="23"/><ellipse fill="#f39ff0" rx="1" ry="1" transform="rotate(-168 75.8 23.8) scale(19.56501 27.37297)"/><ellipse rx="1" ry="1" transform="matrix(-19.36352 -42.70896 25.1743 -11.4136 192.1 50.1)"/><ellipse rx="1" ry="1" transform="matrix(-12.68577 31.2413 -34.67157 -14.07867 5 58.7)"/><path d="M34 84h17v17H34z"/><ellipse fill="#efbfec" cx="109" cy="51" rx="54" ry="16"/><path fill="#292012" d="M114.3 88.2l-7.6-26-1.9 44.5 10 9.3z"/><ellipse fill="#404030" rx="1" ry="1" transform="matrix(-.5812 -22.19533 54.78593 -1.43462 76.7 15.1)"/><path fill="#5a0000" d="M0 99h200v2H0z"/><ellipse fill="#834942" cx="100" cy="72" rx="36" ry="5"/><ellipse fill="#171119" rx="1" ry="1" transform="matrix(-56.31727 9.76855 -2.28413 -13.16835 178 21.9)"/><ellipse fill="#8c817a" cx="106" cy="9" rx="50" ry="4"/><ellipse fill="#cf80d0" rx="1" ry="1" transform="rotate(-26.8 228 -286.4) scale(12.69648 30.96871)"/><ellipse rx="1" ry="1" transform="rotate(160.2 5.3 1) scale(65.53959 14.6177)"/><path fill="#06020b" d="M57 14L19 89l-35-48z"/><ellipse fill="#d79ad5" cx="70" cy="47" rx="27" ry="11"/><path fill="#dd99d6" d="M100.6 85.2l-8.8 19-54.4-25.4 8.8-19z"/><ellipse fill="#c7bbcd" cx="81" cy="99" rx="42" ry="1"/></g></svg>