<svg xmlns="http://www.w3.org/2000/svg" viewBox="0 0 700 467"><filter id="b"><feGaussianBlur stdDeviation="12" /></filter><path fill="#424751" d="M0 0h700v464H0z"/><g filter="url(#b)" transform="translate(1.4 1.4) scale(2.73438)" fill-opacity=".5"><ellipse fill="#c1e6ff" cx="109" cy="51" rx="40" ry="29"/><ellipse fill="#fff" cx="167" cy="125" rx="29" ry="11"/><ellipse fill="#ff7f10" rx="1" ry="1" transform="matrix(-23.75075 3.8821 -4.67882 -28.62505 112.1 139.5)"/><ellipse fill="#fff" cx="9" cy="133" rx="25" ry="12"/><ellipse fill="#00348c" cx="27" cy="27" rx="43" ry="79"/><ellipse fill="#000924" rx="1" ry="1" transform="rotate(71.1 44.7 203.7) scale(138.30909 37.62188)"/><ellipse fill="#0e0000" cx="43" cy="169" rx="58" ry="27"/><ellipse fill="#0c0000" rx="1" ry="1" transform="matrix(-.03272 19.56406 -45.51867 -.07612 179.9 154.2)"/><ellipse fill="#003d86" cx="230" cy="31" rx="43" ry="43"/><ellipse fill="#b25531" cx="78" cy="69" rx="9" ry="45"/><path fill="#82d4ff" d="M83 70l66.2 11.8 1.7-40.8-34.8 4.7z"/><ellipse fill="#006fb0" cx="25" cy="16" rx="35" ry="35"/><path fill="#887959" d="M70 0h96v46H70z"/><ellipse fill="#921000" cx="118" cy="89" rx="44" ry="11"/><ellipse fill="#b04725" rx="1" ry="1" transform="matrix(7.5343 -12.85223 29.4908 17.28823 249.9 111)"/><ellipse fill="#fff" cx="157" cy="128" rx="19" ry="10"/><ellipse fill="#001034" rx="1" ry="1" transform="matrix(-8.55224 -22.10019 46.57178 -18.02215 22.4 80.8)"/><path fill="#ffe195" d="M25.8 141.6l-18.6-4 7-33.2 18.6 4z"/><path fill="#150000" d="M27 112h63v18H27z"/><path fill="#fff" d="M106.1 36l-23-1.1.8-13 23 1.2z"/><path fill="#a1c2c3" d="M33.9 110.5l20.3-12.6 35.3 4.4-10.4 9z"/><path fill="#ff98a7" d="M65 130h23v11H65z"/></g></svg>