<svg xmlns="http://www.w3.org/2000/svg" viewBox="0 0 641 195"><filter id="b"><feGaussianBlur stdDeviation="12" /></filter><path fill="#697583" d="M0 0h641v192H0z"/><g filter="url(#b)" transform="translate(1.3 1.3) scale(2.5039)" fill-opacity=".5"><ellipse fill="#fff" rx="1" ry="1" transform="matrix(40.27642 -21.0575 46.75937 89.43604 75.4 52)"/><ellipse fill="#00001a" rx="1" ry="1" transform="rotate(110.6 91.3 94.1) scale(118.79996 61.49047)"/><ellipse cy="76" rx="18" ry="85"/><ellipse rx="1" ry="1" transform="rotate(54.8 -62.4 40.3) scale(11.40284 33.66202)"/><path d="M109.1 66.2l-8.8-25.5 8.6-3 8.8 25.6z"/><path fill="#fffdc7" d="M123 92L66-16 20 85z"/><ellipse fill="#4d9eff" rx="1" ry="1" transform="matrix(7.0773 -39.73171 22.09468 3.93566 114.5 3.6)"/><ellipse fill="#bfa180" cx="193" cy="43" rx="12" ry="31"/><path fill="#4795ff" d="M243 33h13v33h-13z"/><ellipse fill="#050039" rx="1" ry="1" transform="matrix(13.94918 1.77437 -9.86633 77.5641 169.9 38.7)"/><ellipse fill="#6594ff" cx="149" cy="15" rx="7" ry="33"/><path fill="#8ec8ff" d="M13 10h29v38H13z"/><ellipse fill="#003513" rx="1" ry="1" transform="matrix(-50.926 -8.06487 2.3255 -14.6845 223.7 6.3)"/><path fill="#00000d" d="M-16 17l29-33-1 108z"/><ellipse fill="#0a0408" cx="223" cy="76" rx="29" ry="20"/><ellipse fill="#2d2a48" rx="1" ry="1" transform="matrix(-23.4381 -4.21255 1.14152 -6.35125 130.6 30)"/><path fill="#bfc9de" d="M210.7 57l-7-1.7-22.3-5.5 18.6-9.4z"/><path fill="#fff" d="M179.3 62.6l3-5.2 10.4 6-3 5.2z"/><ellipse fill="#abc9fd" rx="1" ry="1" transform="matrix(-1.16982 -9.1821 37.54566 -4.78339 121.1 0)"/><path fill="#f5cb83" d="M119 66h33v8h-33z"/><path fill="#fffff7" d="M58.2 57.3L23.9 88.6l-.2-18.3 23.9-28z"/><path fill="#000018" d="M22.8 92L-16 43.2l55 7-16 14.4z"/></g></svg>