<svg xmlns="http://www.w3.org/2000/svg" viewBox="0 0 700 467"><filter id="b"><feGaussianBlur stdDeviation="12" /></filter><path fill="#4e3229" d="M0 0h700v464H0z"/><g filter="url(#b)" transform="translate(1.4 1.4) scale(2.73438)" fill-opacity=".5"><ellipse fill="#ffc8ff" cx="101" cy="169" rx="138" ry="12"/><ellipse fill="#d39b1e" cx="116" cy="76" rx="123" ry="21"/><ellipse fill="#030000" rx="1" ry="1" transform="matrix(-56.6427 -4.9556 10.42044 -119.10621 250.4 40.5)"/><ellipse rx="1" ry="1" transform="matrix(-1.77288 21.56394 -114.2034 -9.38923 85.2 31.7)"/><ellipse fill="#d06b2f" rx="1" ry="1" transform="matrix(-10.30561 -27.47543 19.121 -7.172 222 74.7)"/><ellipse fill="#b6ba3b" rx="1" ry="1" transform="matrix(27.67508 5.17877 -7.93957 42.42865 110.2 95.2)"/><ellipse rx="1" ry="1" transform="matrix(75.2424 -.65438 .21364 24.56523 203.9 130.5)"/><ellipse rx="1" ry="1" transform="rotate(172.5 -.3 62.5) scale(34.61406 25.77415)"/><ellipse fill="#000007" cx="62" cy="62" rx="10" ry="34"/><path fill="#000019" d="M99 91h18v39H99z"/><ellipse fill="#ffd66f" cx="45" cy="62" rx="7" ry="25"/><ellipse fill="#00000a" cx="150" cy="74" rx="7" ry="36"/><path fill="#ffd06f" d="M158 48h12v57h-12z"/><ellipse fill="#ff93ff" cx="94" cy="169" rx="130" ry="9"/><ellipse cy="43" rx="10" ry="58"/><ellipse rx="1" ry="1" transform="matrix(-6.44482 28.09601 -4.247 -.9742 30.1 77)"/><ellipse fill="#6d1fa2" rx="1" ry="1" transform="matrix(22.45522 21.76062 -8.9724 9.2588 185 13)"/><path fill="#00000e" d="M169 50l4 44 19-84z"/><path fill="#ffb73d" d="M12 50h10v49H12z"/><ellipse fill="#e3c000" cx="109" cy="72" rx="33" ry="17"/><ellipse fill="#ffaf61" cx="189" cy="80" rx="6" ry="32"/><path d="M226.2 3.2l36.5-5.8 21.1 133.4-36.5 5.8z"/></g></svg>