<svg xmlns="http://www.w3.org/2000/svg" viewBox="0 0 200 133"><filter id="b"><feGaussianBlur stdDeviation="12" /></filter><path fill="#364f54" d="M0 0h200v133H0z"/><g filter="url(#b)" transform="translate(.5 .5)" fill-opacity=".5"><ellipse fill="#a2ecf5" cx="134" cy="45" rx="88" ry="32"/><ellipse rx="1" ry="1" transform="matrix(2.48354 122.52204 -31.55217 .63957 16 52.2)"/><ellipse fill="#0072ff" cx="188" cy="86" rx="33" ry="33"/><ellipse rx="1" ry="1" transform="matrix(-159.13235 -24.35583 3.0739 -20.08372 136.3 132)"/><ellipse fill="#edcf9b" rx="1" ry="1" transform="rotate(-17.7 281.1 -206.6) scale(49.10679 14.14524)"/><ellipse cx="91" cy="4" rx="134" ry="11"/><ellipse fill="#0771ca" rx="1" ry="1" transform="matrix(17.83055 9.06798 -13.56677 26.67661 67.7 47.1)"/><path fill="#ffd071" d="M66.3 78.8L159.7 52l-6.8 63.5 3.6-39.7z"/><ellipse cx="9" cy="37" rx="40" ry="40"/><path fill="#e6def0" d="M53.5 83.8l65.2 5.6-32.4 7L61.8 92z"/><path fill="#fffd5a" d="M198.3 11.1l4.7 12-40 3.2-17.5-8.7z"/><path fill="#ca8600" d="M0 79h42v16H0z"/><path fill="#e0cf5a" d="M51.7 40.7l-.4-25 21-.4.4 25z"/><ellipse rx="1" ry="1" transform="matrix(-189.32189 -20.6091 2.02412 -18.59426 86.3 124.9)"/><path fill="#009bff" d="M116 30.2l2.7 19.8L78 55.8 75.3 36z"/><path fill="#ffffb7" d="M86 16.4l42-.8v10l-42 .8z"/><ellipse fill="#303300" cx="130" cy="43" rx="16" ry="6"/><path fill="#3e4651" d="M159 33h41v19h-41z"/><ellipse cx="96" cy="82" rx="43" ry="3"/><path fill="#4ee2fb" d="M124 16h36v22h-36z"/><ellipse fill="#016cd6" rx="1" ry="1" transform="matrix(17.68793 30.22386 -22.57847 13.21361 186.7 84)"/><ellipse rx="1" ry="1" transform="rotate(-91.9 58.3 -51.8) scale(10.87567 100.34889)"/></g></svg>