<svg xmlns="http://www.w3.org/2000/svg" viewBox="0 0 700 467"><filter id="b"><feGaussianBlur stdDeviation="12" /></filter><path fill="#b26a3c" d="M0 0h700v464H0z"/><g filter="url(#b)" transform="translate(1.4 1.4) scale(2.73438)" fill-opacity=".5"><ellipse cx="227" cy="127" rx="215" ry="16"/><ellipse fill="#ffcb44" cx="197" cy="27" rx="63" ry="63"/><ellipse fill="#fff" cx="26" cy="108" rx="35" ry="15"/><ellipse fill="#f5ff32" rx="1" ry="1" transform="matrix(27.2371 62.46243 -24.16513 10.53734 23.3 22.4)"/><ellipse fill="#09275c" rx="1" ry="1" transform="rotate(46.4 -62.4 160.7) scale(33.40854 41.7228)"/><ellipse fill="#890000" rx="1" ry="1" transform="matrix(16.71429 -7.80432 16.41704 35.15992 80.5 32)"/><ellipse fill="#fff" cx="68" cy="68" rx="14" ry="14"/><path fill="#fff" d="M152.9 114.4l-23-.8 1.2-36 23 .8z"/><ellipse fill="#e9f1ff" rx="1" ry="1" transform="rotate(35.8 -48.8 333) scale(9.78334 32.06705)"/><ellipse fill="#b9ebff" cx="37" cy="4" rx="20" ry="26"/><path d="M223 77h19v56h-19z"/><ellipse fill="#f72f2e" cx="77" cy="168" rx="211" ry="34"/><ellipse fill="#ef8000" cx="136" cy="15" rx="42" ry="42"/><ellipse fill="#fffaeb" rx="1" ry="1" transform="rotate(178.9 49.4 49.5) scale(8.26594 14.82636)"/><ellipse fill="#f5ba00" cx="26" cy="52" rx="32" ry="32"/><path fill="#c73100" d="M212 51L69 32l101 45z"/><ellipse fill="#000037" cx="191" cy="104" rx="11" ry="11"/><ellipse fill="#000110" cx="159" cy="121" rx="9" ry="30"/><ellipse fill="#e7e2ff" rx="1" ry="1" transform="matrix(-14.64881 -23.81813 6.90342 -4.2458 203 87.7)"/><ellipse fill="#ffa29c" cx="232" cy="155" rx="68" ry="10"/><ellipse fill="#f2d476" cx="213" rx="43" ry="43"/><ellipse fill="#160007" cy="129" rx="250" ry="7"/></g></svg>