<svg xmlns="http://www.w3.org/2000/svg" viewBox="0 0 700 467"><filter id="b"><feGaussianBlur stdDeviation="12" /></filter><path fill="#716a56" d="M0 0h700v464H0z"/><g filter="url(#b)" transform="translate(1.4 1.4) scale(2.73438)" fill-opacity=".5"><ellipse fill="#ffe9ba" rx="1" ry="1" transform="matrix(-6.95048 51.01346 -146.90187 -20.01509 102 36)"/><ellipse cx="131" cy="144" rx="255" ry="52"/><ellipse fill="#fff" cx="42" cy="35" rx="25" ry="27"/><ellipse fill="#000105" rx="1" ry="1" transform="matrix(-3.71296 -25.45141 208.40066 -30.40237 49.8 139.9)"/><path fill="#583403" d="M35.5 9.7l-51.2 47.8-19.8-21.2 51.2-47.8z"/><ellipse fill="#cacdb3" cx="230" cy="75" rx="20" ry="20"/><ellipse fill="#fff" rx="1" ry="1" transform="matrix(-2.04666 34.11208 -11.81614 -.70895 43.2 29.4)"/><ellipse fill="#744606" cx="134" rx="18" ry="27"/><ellipse fill="#928f72" rx="1" ry="1" transform="matrix(47.62454 44.4814 -19.31612 20.68104 210.2 28.6)"/><path fill="#f0e1ca" d="M110 97L88 71l93-3z"/><path fill="#000004" d="M12.2 88.8l43 1.5-1.4 37-43-1.6z"/><ellipse fill="#2f2a30" cx="182" cy="104" rx="54" ry="20"/><path d="M197 50l18-5-22-12z"/><path fill="#573607" d="M117.7 56l23.7-8.2 4.9 14.2-23.7 8.2z"/><ellipse fill="#b19267" cx="42" cy="74" rx="55" ry="17"/><path fill="#fffbd7" d="M135 36.1l2.4 11.8-82.5 16-2.3-11.8z"/><path fill="#a27227" d="M106 19.6L74.6 37.1 62 14.4 93.4-3.1z"/><path d="M164 131h26v36h-26z"/><path fill="#fff7df" d="M86.5 75l2.4 10.7L65.5 91l-2.4-10.8z"/><ellipse fill="#454972" cx="78" cy="104" rx="21" ry="17"/><path fill="#080600" d="M271 100V70.1L237.1 97l33.9 57.4z"/><path fill="#806641" d="M39.2 67.7l-8.5 35-37.4-49 40.4.7z"/></g></svg>