<svg xmlns="http://www.w3.org/2000/svg" viewBox="0 0 700 467"><filter id="b"><feGaussianBlur stdDeviation="12" /></filter><path fill="#5f6465" d="M0 0h700v464H0z"/><g filter="url(#b)" transform="translate(1.4 1.4) scale(2.73438)" fill-opacity=".5"><ellipse cx="233" cy="162" rx="120" ry="120"/><ellipse fill="#adb9b4" rx="1" ry="1" transform="rotate(27.2 -100.3 147) scale(68.79866 105.85118)"/><ellipse fill="#abb1b6" cx="184" cy="24" rx="28" ry="98"/><ellipse fill="#0c0c0b" cx="165" cy="87" rx="159" ry="10"/><ellipse fill="#dfd9cb" cx="78" cy="122" rx="56" ry="11"/><path fill="#fef5e0" d="M179 95l22.9-2.8 3 24.8-22.8 2.8z"/><ellipse fill="#000005" rx="1" ry="1" transform="matrix(2.00277 -104.45391 31.01536 .59468 255 97.5)"/><ellipse rx="1" ry="1" transform="matrix(20.74085 -2.07021 4.97746 49.86768 142.3 122.8)"/><path fill="#e3dace" d="M86.3 142.7l-60.6 13-6-28.4 60.6-13z"/><ellipse fill="#fff" rx="1" ry="1" transform="matrix(-2.5191 -53.41726 4.4645 -.21054 162 22)"/><ellipse fill="#00070d" rx="1" ry="1" transform="matrix(-11.2821 -4.31094 7.26569 -19.0149 177.9 76)"/><ellipse fill="#5b5b54" rx="1" ry="1" transform="matrix(-5.76521 -16.92377 96.88029 -33.00301 0 116)"/><path fill="#fef9ec" d="M124 137l-4-30-30 4z"/><ellipse fill="#373330" rx="1" ry="1" transform="matrix(17.5445 -12.9212 28.9893 39.3619 115.4 167)"/><path d="M-16 135.4v-7.2l33.2-12.4v14.5z"/><ellipse fill="#f6eeee" cx="5" cy="73" rx="3" ry="39"/><ellipse fill="#fef2ef" cx="127" cy="29" rx="5" ry="45"/><ellipse fill="#99adae" rx="1" ry="1" transform="matrix(10.71875 -24.76107 16.80522 7.27476 100 65)"/><path fill="#e8e4e7" d="M191.4 79.3l6.3-6.4 3.5-16.3L189-6z"/><path fill="#999892" d="M165 64v52l-13-46z"/><ellipse fill="#52696e" cx="27" rx="20" ry="121"/><ellipse fill="#fff" rx="1" ry="1" transform="rotate(174.6 25.9 54.3) scale(42.92753 1)"/></g></svg>