<svg xmlns="http://www.w3.org/2000/svg" viewBox="0 0 200 133"><filter id="b"><feGaussianBlur stdDeviation="12" /></filter><path fill="#390c16" d="M0 0h200v133H0z"/><g filter="url(#b)" transform="translate(.5 .5)" fill-opacity=".5"><ellipse fill="#ce48b6" rx="1" ry="1" transform="matrix(-66.70324 -3.61252 .51956 -9.59334 79 122.5)"/><ellipse fill="#b0161d" cx="81" cy="57" rx="101" ry="17"/><ellipse fill="#cc001b" rx="1" ry="1" transform="matrix(.52753 12.8922 -36.68037 1.5009 137.9 122.4)"/><ellipse rx="1" ry="1" transform="rotate(95.4 77.4 114.7) scale(88.32374 35.54587)"/><path d="M23-16l-39 51 231 6z"/><ellipse fill="#9784ff" rx="1" ry="1" transform="matrix(5.79517 3.41595 -10.30525 17.4829 145.4 0)"/><ellipse fill="#70516c" cx="94" cy="63" rx="22" ry="22"/><path fill="#fb0000" d="M181 60.7l-12.3-34.6V66l7.5 8.5z"/><ellipse fill="#000b03" rx="1" ry="1" transform="matrix(84.9484 -4.2757 .84871 16.86196 0 96)"/><ellipse cx="149" cy="93" rx="50" ry="17"/><ellipse fill="#bfadff" cx="66" cy="120" rx="45" ry="3"/><path fill="#ff192c" d="M55 32l-1 50-11-12z"/><ellipse fill="red" rx="1" ry="1" transform="matrix(-4.6998 -.67255 3.3502 -23.41116 16 55.5)"/><path fill="#000c1a" d="M0 124h61v9H0z"/><path d="M-16-7.2l71 41.7 2.4 66.8 14.7-72.6z"/><path d="M39 16h7v91h-7z"/><ellipse fill="red" cx="130" cy="60" rx="4" ry="21"/><path fill="#000507" d="M114-16l-36 2 51 103z"/><path fill="red" d="M40.9 37.7l-6 30.5-9.8-2 6-30.4z"/><ellipse fill="#000306" cx="180" cy="18" rx="35" ry="22"/><ellipse fill="red" cx="145" cy="59" rx="5" ry="15"/><path fill="red" d="M-7 77.3l5-41.7 9 1.1-5 41.7z"/></g></svg>