<svg xmlns="http://www.w3.org/2000/svg" viewBox="0 0 200 133"><filter id="b"><feGaussianBlur stdDeviation="12" /></filter><path fill="#4255ac" d="M0 0h200v133H0z"/><g filter="url(#b)" transform="translate(.5 .5)" fill-opacity=".5"><ellipse fill="#002500" cx="13" cy="48" rx="17" ry="199"/><ellipse fill="#5274ff" rx="1" ry="1" transform="matrix(-23.05712 79.36312 -132.56162 -38.51271 157 3.7)"/><ellipse fill="#0d001f" rx="1" ry="1" transform="rotate(-134.6 42.9 51.7) scale(30.12105 22.24636)"/><ellipse fill="#ece6e4" rx="1" ry="1" transform="matrix(6.94695 -18.2589 8.32412 3.16707 121 111)"/><ellipse fill="#00ad04" rx="1" ry="1" transform="matrix(6.56804 18.52831 -30.34258 10.75604 .2 36.3)"/><ellipse fill="#d9fd18" cx="172" cy="12" rx="4" ry="33"/><ellipse fill="#5c2c47" cx="199" cy="132" rx="42" ry="42"/><ellipse fill="#c4d09a" rx="1" ry="1" transform="rotate(-96.2 125.7 -43) scale(41.64281 6.10061)"/><ellipse fill="#c188ff" cx="153" cy="101" rx="9" ry="23"/><ellipse fill="#1b0977" cx="81" cy="69" rx="35" ry="15"/><ellipse fill="#0e8af5" rx="1" ry="1" transform="matrix(15.74852 3.51585 -11.2502 50.39294 48.6 19)"/><ellipse fill="#4e8c49" cx="102" cy="128" rx="12" ry="74"/><path fill="#c3f4fd" d="M99 22h15v26H99z"/><ellipse fill="#725dde" rx="1" ry="1" transform="matrix(-6.67036 23.26231 -13.24953 -3.79924 0 108)"/><path fill="#491c1f" d="M69 118l-78 30 159-16z"/><ellipse fill="#3e24f4" rx="1" ry="1" transform="matrix(-29.08529 -23.80603 13.19156 -16.11694 138.9 14.4)"/><path fill="#b37ee6" d="M82 113.3l-31.2 1.9 8.8 4.4 38.7-54.7z"/><ellipse fill="#435eff" rx="1" ry="1" transform="rotate(-97.1 55.7 -13.5) scale(23.3754 27.9064)"/><path fill="#002a55" d="M172 0h12v14h-12z"/><ellipse fill="#00002e" rx="1" ry="1" transform="matrix(12.99744 -17.95468 9.2816 6.71898 14 66.3)"/><ellipse fill="#2d170d" rx="1" ry="1" transform="matrix(6.05115 -20.29816 11.24378 3.35192 9 13.2)"/><ellipse fill="#692300" cx="164" cy="132" rx="86" ry="3"/></g></svg>