<svg xmlns="http://www.w3.org/2000/svg" viewBox="0 0 700 467"><filter id="b"><feGaussianBlur stdDeviation="12" /></filter><path fill="#332018" d="M0 0h700v464H0z"/><g filter="url(#b)" transform="translate(1.4 1.4) scale(2.73438)" fill-opacity=".5"><ellipse fill="#ff4086" rx="1" ry="1" transform="rotate(-5.8 695.4 -2014) scale(15.89592 33.0175)"/><ellipse fill="#c5697f" rx="1" ry="1" transform="matrix(-12.6239 -.11017 .4366 -50.02838 59.3 72.7)"/><ellipse fill="#655036" rx="1" ry="1" transform="matrix(15.82157 39.96071 -126.29052 50.00195 158.6 1.4)"/><ellipse rx="1" ry="1" transform="matrix(97.00365 32.08089 -9.23737 27.93121 209.7 116.7)"/><ellipse cx="8" cy="113" rx="25" ry="161"/><path fill="#9c7d82" d="M32.2 111.2l27.6-14 10 19.6-27.6 14z"/><path fill="#e01e68" d="M211.2 58.6l-2.4 34-16-1.2 2.4-34z"/><path fill="#000005" d="M65 24h31v25H65z"/><ellipse fill="#081211" cx="102" cy="107" rx="34" ry="34"/><ellipse fill="#f24f83" rx="1" ry="1" transform="matrix(-7.74114 2.74026 -8.377 -23.6647 206 53.4)"/><path fill="#ffffd5" d="M93 19l-7-2 10-6z"/><ellipse rx="1" ry="1" transform="matrix(-1.50663 -31.94791 24.69464 -1.16457 246 101.3)"/><ellipse fill="#a96879" cx="87" cy="59" rx="33" ry="4"/><path fill="#0c0900" d="M144-3L59-2l47 19z"/><path fill="#070906" d="M149 47h45v72h-45z"/><path fill="#6f5736" d="M115 13h81v33h-81z"/><path fill="#e5b484" d="M32.3 144.5l14-23.1 3.4 2-14 23.2z"/><path fill="#ba4e6d" d="M60.8 108.6L44.1 33.7l15.8-1 4 6.6z"/><ellipse fill="#000002" cx="27" cy="91" rx="19" ry="23"/><ellipse fill="#2d0d00" cx="213" cy="169" rx="45" ry="45"/><path fill="#231e10" d="M64 60h22v30H64z"/><path d="M225.7 16l18 1-1.4 27-18-1z"/></g></svg>