<svg xmlns="http://www.w3.org/2000/svg" viewBox="0 0 200 133"><filter id="b"><feGaussianBlur stdDeviation="12" /></filter><path fill="#3e1e74" d="M0 0h200v133H0z"/><g filter="url(#b)" transform="translate(.5 .5)" fill-opacity=".5"><ellipse fill="#7e35fc" rx="1" ry="1" transform="matrix(-36.68385 11.70731 -18.68322 -58.54228 19.8 83.5)"/><ellipse fill="#110c00" cx="90" cy="96" rx="25" ry="69"/><ellipse fill="#0d0b13" rx="1" ry="1" transform="matrix(-4.1388 24.0674 -94.46724 -16.24523 123.5 0)"/><ellipse rx="1" ry="1" transform="matrix(.07644 8.75875 -32.09607 .2801 133.6 75.6)"/><path fill="#ff599c" d="M91 40h22v16H91z"/><path fill="#ff6d7a" d="M159 46h13v23h-13z"/><ellipse fill="#633ab8" rx="1" ry="1" transform="rotate(142 52.3 88.1) scale(26.96582 42.48017)"/><path fill="#ae4a49" d="M84 49h15v28H84z"/><ellipse fill="#01042d" cx="76" cy="98" rx="17" ry="41"/><ellipse fill="#4e26aa" cx="48" cy="52" rx="26" ry="26"/><ellipse cx="132" cy="77" rx="32" ry="8"/><ellipse fill="#762be3" rx="1" ry="1" transform="matrix(8.95464 28.5342 -19.33963 6.06918 14.2 76.9)"/><ellipse fill="#000807" rx="1" ry="1" transform="matrix(-10.53255 -5.03035 11.7528 -24.608 103.5 84)"/><ellipse fill="#431f95" cx="175" cy="107" rx="32" ry="32"/><ellipse fill="#4a259b" rx="1" ry="1" transform="matrix(-21.07872 -17.29122 9.18185 -11.19306 131.6 51.2)"/><ellipse cx="83" cy="36" rx="12" ry="10"/><ellipse fill="#33188c" cx="15" cy="24" rx="69" ry="16"/><path fill="#b280bf" d="M101 104h4v18h-4z"/><path fill="#f46c5b" d="M174 49l-20 12 11 9z"/><path fill="#de60ca" d="M103 47h14v10h-14z"/><path fill="#ffa97c" d="M95 74l1-9-5-2z"/><path d="M106 107h9v26h-9z"/></g></svg>