<svg xmlns="http://www.w3.org/2000/svg" viewBox="0 0 700 467"><filter id="b"><feGaussianBlur stdDeviation="12" /></filter><path fill="#49508d" d="M0 0h700v464H0z"/><g filter="url(#b)" transform="translate(1.4 1.4) scale(2.73438)" fill-opacity=".5"><ellipse fill="#a998ff" rx="1" ry="1" transform="matrix(11.54916 -40.54364 89.25993 25.42636 122.8 64.9)"/><ellipse fill="#080e00" rx="1" ry="1" transform="matrix(-40.55183 -32.9765 35.56061 -43.72957 29.1 157)"/><ellipse fill="#0d0f00" rx="1" ry="1" transform="rotate(-22 523.4 -490.9) scale(55.43666 46.22241)"/><ellipse cx="154" rx="177" ry="17"/><ellipse fill="#e2ffff" cx="255" cy="86" rx="21" ry="21"/><ellipse fill="#000d00" rx="1" ry="1" transform="rotate(.3 -22084.8 23131) scale(74.51863 10.3404)"/><ellipse cx="27" cy="40" rx="10" ry="77"/><ellipse fill="#052be2" rx="1" ry="1" transform="matrix(-4.63357 18.86895 -57.31698 -14.0751 160 35.3)"/><ellipse fill="#acbfaf" cx="120" cy="152" rx="53" ry="14"/><ellipse cx="227" cy="52" rx="8" ry="58"/><ellipse fill="#9770ff" cx="64" cy="72" rx="30" ry="35"/><ellipse fill="#c8b7ff" rx="1" ry="1" transform="rotate(-71 141 -75.3) scale(23.13175 37.78818)"/><ellipse fill="#6eaeff" cy="62" rx="17" ry="54"/><path fill="#60b3ff" d="M236 20h20v92h-20z"/><ellipse fill="#0834f4" rx="1" ry="1" transform="matrix(-50.28072 -12.16419 3.00772 -12.43242 82.2 99)"/><ellipse fill="#676fff" cx="212" cy="62" rx="9" ry="35"/><path fill="#000016" d="M106 172l-4-43 17-9z"/><ellipse fill="#00000a" cx="136" cy="159" rx="5" ry="34"/><path d="M84 166h172v4H84z"/><path fill="#739fff" d="M5 5h14v40H5z"/><path fill="#959ea4" d="M232.1 147.8l-9 31-16.9-41.6-43.1 12.3z"/><path fill="#0d49ff" d="M229-4l11 43 31 1z"/></g></svg>