<svg xmlns="http://www.w3.org/2000/svg" viewBox="0 0 700 467"><filter id="b"><feGaussianBlur stdDeviation="12" /></filter><path fill="#73464e" d="M0 0h700v464H0z"/><g filter="url(#b)" transform="translate(1.4 1.4) scale(2.73438)" fill-opacity=".5"><ellipse fill="#ffcaa3" cx="89" cy="80" rx="49" ry="20"/><ellipse rx="1" ry="1" transform="matrix(2.97313 34.68002 -58.73626 5.03547 226.1 0)"/><ellipse fill="#ffeaed" cx="124" cy="28" rx="21" ry="21"/><ellipse fill="#e00000" rx="1" ry="1" transform="matrix(51.2565 -47.72158 19.20482 20.6274 3.1 84.7)"/><ellipse fill="#daaaa9" cx="212" cy="135" rx="31" ry="49"/><ellipse fill="#1d0a1a" cx="75" cy="123" rx="35" ry="35"/><ellipse rx="1" ry="1" transform="rotate(6.8 -1316.4 151) scale(11.78244 56.61631)"/><ellipse fill="#b185aa" rx="1" ry="1" transform="matrix(45.1783 102.91906 -17.4484 7.65932 136.7 138.8)"/><ellipse cx="165" cy="96" rx="17" ry="30"/><ellipse fill="#1c0000" rx="1" ry="1" transform="matrix(-34.10644 -34.95017 16.08436 -15.69607 43.4 21.3)"/><path fill="#460000" d="M192.9 110.3l22.5-8.2 13.7 37.6-22.5 8.2z"/><ellipse fill="#e3a29a" cx="156" cy="43" rx="18" ry="18"/><ellipse fill="#000900" rx="1" ry="1" transform="matrix(-22.04796 -7.0364 4.14051 -12.97393 100.4 154.4)"/><path fill="#040000" d="M246.7 118.9l-20.3-23.4 18.9-16.4 20.3 23.4z"/><path fill="#f7cdd8" d="M29.5 100.3l20.7-31.9 14.3 9.3-20.7 31.9z"/><path fill="#ebe3f3" d="M189 157l-7-70 16 27z"/><ellipse fill="#d8cad5" rx="1" ry="1" transform="matrix(-15.59054 -25.2366 7.15667 -4.42121 213.8 99.2)"/><ellipse fill="#ffff48" cx="76" cy="75" rx="12" ry="12"/><ellipse fill="#fdc4c7" cx="225" cy="158" rx="20" ry="14"/><ellipse fill="#00000c" cx="174" cy="168" rx="14" ry="21"/><path d="M92.2-14.2L114.6-9l-6.8 29.2L85.4 15z"/><ellipse fill="#d6abb8" cx="132" cy="7" rx="20" ry="31"/></g></svg>