<svg xmlns="http://www.w3.org/2000/svg" viewBox="0 0 200 133"><filter id="b"><feGaussianBlur stdDeviation="12" /></filter><path fill="#848a8b" d="M0 0h200v133H0z"/><g filter="url(#b)" transform="translate(.5 .5)" fill-opacity=".5"><ellipse cx="93" cy="103" rx="38" ry="67"/><ellipse fill="#fffaf8" rx="1" ry="1" transform="matrix(36.83405 -186.02557 49.02317 9.70685 12.9 61.7)"/><ellipse rx="1" ry="1" transform="matrix(25.43902 10.29664 -16.36897 40.44139 80.8 112.8)"/><path fill="#fff" d="M112.4 0l25-1.8 2.2 31.9-25 1.7z"/><path fill="#faf5f5" d="M26 0h73v33H26z"/><path fill="#282c2b" d="M145.6 4.7l24-1.2 6.8 131.8-24 1.2z"/><ellipse fill="#162624" rx="1" ry="1" transform="matrix(3.28756 136.03985 -3.43817 .08309 20 75.7)"/><ellipse fill="#fffbf7" cx="179" cy="63" rx="8" ry="76"/><path fill="#2d2010" d="M96 19L63 41l-2 43z"/><path fill="#fdf9f9" d="M72.7 4.9L26 41.6l6.6 97.7 10.1 4.2z"/><ellipse fill="#f2dca2" cx="76" cy="55" rx="4" ry="23"/><path fill="#555c68" d="M129 33L75 11l63 137z"/><ellipse fill="#9edcde" cx="142" cy="105" rx="8" ry="102"/><path fill="#001016" d="M191.3 133l-1.6-31 17-1 1.6 31z"/><path fill="#ca3605" d="M100 64h36v11h-36z"/><ellipse fill="#417290" cx="121" cy="114" rx="13" ry="35"/><path fill="#fffae4" d="M106 49L91 27l3-40z"/><ellipse fill="#2f3333" cx="190" cy="50" rx="3" ry="54"/><path fill="#0c0d10" d="M78 51h25v68H78z"/><ellipse fill="#fff" cx="121" rx="8" ry="31"/><ellipse fill="#e1d8d8" cx="175" cy="18" rx="6" ry="56"/><ellipse fill="#788984" cx="24" cy="57" rx="4" ry="129"/></g></svg>