<svg xmlns="http://www.w3.org/2000/svg" viewBox="0 0 700 467"><filter id="b"><feGaussianBlur stdDeviation="12" /></filter><path fill="#464881" d="M0 0h700v464H0z"/><g filter="url(#b)" transform="translate(1.4 1.4) scale(2.73438)" fill-opacity=".5"><ellipse rx="1" ry="1" transform="matrix(40.26601 24.17608 -49.23893 82.00895 37.5 46.7)"/><ellipse fill="#6b62f3" cx="198" cy="76" rx="66" ry="66"/><ellipse fill="#c7beb7" rx="1" ry="1" transform="matrix(59.04808 -.19447 .07856 23.853 81.9 137.8)"/><ellipse fill="#d85600" cx="104" cy="165" rx="88" ry="7"/><ellipse fill="#1646dc" rx="1" ry="1" transform="matrix(9.6804 27.33661 -39.44415 13.9679 100.4 56.1)"/><path fill="#454f57" d="M124 97h95v63h-95z"/><ellipse fill="#ff6cb0" rx="1" ry="1" transform="matrix(-.2127 -7.1666 29.13819 -.8648 146.7 71.6)"/><ellipse fill="#9b5eff" cx="222" cy="50" rx="19" ry="47"/><path fill="#150000" d="M94 116l6 69-34-11z"/><ellipse fill="#f0f1df" rx="1" ry="1" transform="matrix(-14.72847 2.5164 -4.40211 -25.76558 110.4 136)"/><ellipse fill="#001430" rx="1" ry="1" transform="matrix(2.73922 -22.97179 18.43047 2.1977 189 16.7)"/><ellipse fill="#dadbe0" rx="1" ry="1" transform="matrix(11.11787 1.82062 -2.74796 16.78077 159.2 128.5)"/><ellipse fill="#cccce3" cx="255" cy="130" rx="57" ry="9"/><ellipse fill="#270e00" cx="21" cy="167" rx="32" ry="24"/><ellipse fill="#040d09" rx="1" ry="1" transform="matrix(-7.59874 12.20788 -29.70897 -18.4922 124.9 5.2)"/><ellipse fill="#92ffb7" cx="199" cy="166" rx="60" ry="7"/><ellipse fill="#00002e" rx="1" ry="1" transform="matrix(-22.9588 -32.13579 11.10566 -7.93423 248 16.2)"/><ellipse fill="#010814" rx="1" ry="1" transform="matrix(31.34388 6.29892 -19.56057 97.33482 24.8 38.6)"/><path fill="#3100f3" d="M271 73l-42 66 11-118z"/><path fill="#fff" d="M65 119h10v36H65z"/><ellipse fill="#0750c7" rx="1" ry="1" transform="matrix(45.7904 -1.7925 .69696 17.80418 157.8 44.7)"/><path fill="#2777fa" d="M105 63l40 22-9 30z"/></g></svg>