<svg xmlns="http://www.w3.org/2000/svg" viewBox="0 0 200 133"><filter id="b"><feGaussianBlur stdDeviation="12" /></filter><path fill="#8e8b83" d="M0 0h200v133H0z"/><g filter="url(#b)" transform="translate(.5 .5)" fill-opacity=".5"><ellipse rx="1" ry="1" transform="rotate(-100.5 37.2 -18.8) scale(31.79483 49.40173)"/><ellipse fill="#cddbed" rx="1" ry="1" transform="matrix(-81.45178 -23.04853 7.78878 -27.52496 141.9 107.7)"/><path fill="#2c0000" d="M92 61l92-8 31 36z"/><ellipse fill="#fff" rx="1" ry="1" transform="matrix(-17.71526 11.79447 -7.55432 -11.34657 136.2 38.9)"/><ellipse fill="#c9cfd3" rx="1" ry="1" transform="matrix(-10.1017 66.15566 -28.38018 -4.33354 18.3 112)"/><ellipse fill="#132800" cx="52" cy="10" rx="34" ry="34"/><ellipse fill="#661400" cx="167" cy="51" rx="16" ry="16"/><path d="M44 58l26 1-4-26z"/><path fill="#531000" d="M95.5 32.2l22-24.5 9 8-22 24.6z"/><ellipse fill="#d6c0a2" rx="1" ry="1" transform="matrix(45.61043 61.63296 -18.14882 13.43072 185.5 16.5)"/><path fill="#bdc2c9" d="M72 31h22v51H72z"/><ellipse fill="#5b8bab" cx="87" cy="122" rx="44" ry="18"/><ellipse fill="#ecebf4" rx="1" ry="1" transform="matrix(-4.05697 14.2491 -31.20493 -8.8846 138 94)"/><ellipse fill="#c9cade" cx="185" cy="63" rx="8" ry="8"/><path d="M69 68.5l.8 6-24.8 3-.8-6z"/><ellipse fill="#180600" cy="40" rx="4" ry="33"/><path fill="#500000" d="M93 59l3-8 25 7z"/><path fill="#e1e3f8" d="M123 54l46-24-41-14z"/><path fill="#d6b57e" d="M143 14l-23-30L87 6z"/><path fill="#172300" d="M-5 23L91-1l18 27z"/><ellipse fill="#788a91" rx="1" ry="1" transform="matrix(-22.48277 -3.76233 2.52721 -15.10201 154 125.2)"/><path fill="#2c0400" d="M218.8 81.7l-1.8 7.8L99.2 62.3l1.8-7.8z"/></g></svg>