<svg xmlns="http://www.w3.org/2000/svg" viewBox="0 0 700 467"><filter id="b"><feGaussianBlur stdDeviation="12" /></filter><path fill="#5c4843" d="M0 0h700v464H0z"/><g filter="url(#b)" transform="translate(1.4 1.4) scale(2.73438)" fill-opacity=".5"><ellipse fill="#eae5ff" cx="115" cy="147" rx="33" ry="21"/><ellipse fill="#c2965f" cx="232" cy="100" rx="35" ry="35"/><ellipse fill="#d497c2" cx="187" cy="162" rx="26" ry="25"/><ellipse fill="#180d0f" rx="1" ry="1" transform="matrix(-16.43154 6.3841 -48.17637 -123.9975 29.8 94)"/><path fill="#fff" d="M96 41h26v14H96z"/><ellipse fill="#130000" cx="72" cy="58" rx="15" ry="40"/><ellipse fill="#000003" rx="1" ry="1" transform="matrix(26.29167 11.098 -6.08272 14.41023 235.6 154.3)"/><ellipse fill="#bfa9ab" cx="3" cy="125" rx="13" ry="29"/><path fill="#0c0612" d="M114 19l56 64-13 77z"/><ellipse fill="#332711" cx="243" cy="33" rx="80" ry="41"/><path fill="#1b75ef" d="M144 61h38v18h-38z"/><path fill="#d7c7ae" d="M233 61l-46 21 62 3z"/><ellipse fill="#d1864c" cx="53" cy="102" rx="15" ry="19"/><ellipse fill="#f8d393" rx="1" ry="1" transform="matrix(-16.0085 4.45935 -1.69974 -6.10184 24.6 20)"/><ellipse fill="#6e4a61" rx="1" ry="1" transform="rotate(95.1 -3.3 152.3) scale(18.61547 71.12502)"/><ellipse fill="#f6f5f7" cx="119" cy="135" rx="25" ry="9"/><path fill="#f8b25d" d="M138 40h44v10h-44z"/><path fill="#eaf3f4" d="M257.8 103l12.5 14.3-18.1 15.7-12.5-14.3z"/><path fill="#cca1b8" d="M8 139h27v14H8z"/><path fill="#1b0000" d="M195 26l-62 14-37-22z"/><ellipse rx="1" ry="1" transform="matrix(-56.24324 22.26827 -4.77578 -12.06225 17.6 0)"/><path fill="#80500c" d="M191 74l71 65-61-4z"/></g></svg>