<svg xmlns="http://www.w3.org/2000/svg" viewBox="0 0 641 195"><filter id="b"><feGaussianBlur stdDeviation="12" /></filter><path fill="#2d3013" d="M0 0h641v192H0z"/><g filter="url(#b)" transform="translate(1.3 1.3) scale(2.5039)" fill-opacity=".5"><path fill="#ff8afd" d="M188-2.9l-2.5 10.7-21.5-5 2.5-10.6z"/><path fill="#ff72e8" d="M132.7-7.7l2.6 8.6-22 6.8-2.6-8.6z"/><ellipse fill="#061400" rx="1" ry="1" transform="rotate(-170.8 123 10) scale(39.01359 36.80006)"/><ellipse fill="#494d3a" rx="1" ry="1" transform="matrix(15.8753 8.72873 -19.8869 36.1691 47.8 27.7)"/><ellipse fill="#00cc1b" cx="96" cy="47" rx="8" ry="8"/><path fill="#775045" d="M115.9 78.9l-24.4 5.6-5.4-23.4 24.4-5.6z"/><ellipse fill="#d761ff" rx="1" ry="1" transform="matrix(-105.8052 -8.14127 .08799 -1.14347 239.2 0)"/><path fill="#009a1b" d="M164 30l-10 24 16 3z"/><path fill="#00cc0c" d="M229 48h9v15h-9z"/><path fill="#864623" d="M177.7 61.3l63.5 24.5L202 61.3 186.8 92z"/><ellipse fill="#3e7f2e" cx="126" cy="37" rx="5" ry="30"/><path fill="#090600" d="M168 37l61 31-60-7z"/><path fill="#eb71fd" d="M55-4.2l16.8 2.4-.8 6-16.8-2.4z"/><path fill="#070003" d="M13 70h79v7H13z"/><path fill="#121a03" d="M79 79l25-79-25-1z"/><path fill="#957b14" d="M216.2 68.3l7.4 18.5 8.1-30-.4 36.2z"/><path fill="#4a4316" d="M107 4h35v35h-35z"/><ellipse fill="#006f14" cx="198" cy="49" rx="8" ry="8"/><ellipse fill="#050000" rx="1" ry="1" transform="matrix(11.30077 9.0308 -18.4839 23.13001 255 57)"/><ellipse fill="#3c3f14" cx="182" cy="25" rx="23" ry="23"/><path fill="#6c3421" d="M48 62h35v10H48z"/><path fill="#ffc5ff" d="M187.4 2.8l-19-1.6.2-2 19 1.6z"/></g></svg>