<svg xmlns="http://www.w3.org/2000/svg" viewBox="0 0 700 467"><filter id="b"><feGaussianBlur stdDeviation="12" /></filter><path fill="#b6a390" d="M0 0h700v464H0z"/><g filter="url(#b)" transform="translate(1.4 1.4) scale(2.73438)" fill-opacity=".5"><ellipse rx="1" ry="1" transform="matrix(-10.05458 3.7193 -15.28546 -41.32197 70.4 135.4)"/><ellipse fill="#fff" rx="1" ry="1" transform="matrix(-31.01524 43.2857 -28.11264 -20.14338 236.3 143)"/><ellipse fill="#fff" cx="137" rx="45" ry="45"/><ellipse fill="#6d2c1a" rx="1" ry="1" transform="matrix(-11.8852 -33.26176 21.52115 -7.69 120.3 140.3)"/><ellipse fill="#785f2b" rx="1" ry="1" transform="matrix(2.29354 59.70251 -54.08765 2.07784 4.8 157)"/><ellipse fill="#b27115" cx="237" cy="17" rx="40" ry="40"/><ellipse fill="#00123e" rx="1" ry="1" transform="matrix(-7.53263 5.72594 -15.31122 -20.14232 82.9 26.8)"/><path fill="#f4c471" d="M145-16l95 45-2 155z"/><ellipse fill="#e4dcff" rx="1" ry="1" transform="rotate(-74.6 33.2 -7) scale(47.35148 14.60611)"/><ellipse fill="#ffe" rx="1" ry="1" transform="matrix(2.82443 -30.44644 54.55796 5.06119 255 147.7)"/><path fill="#fbffff" d="M137.6 89.1l19.7 22.6-12.9 11.2-19.7-22.6z"/><ellipse fill="#deebdf" rx="1" ry="1" transform="rotate(67.8 52.2 140.2) scale(50.50288 20.67699)"/><ellipse fill="#eff" cx="110" cy="1" rx="38" ry="16"/><path fill="#3c0c00" d="M241.6-7.7l21.8-2.3 5 47.7-21.8 2.3z"/><path fill="#ccdffc" d="M88 50l23 24-27 84z"/><ellipse fill="#dbfbff" cx="255" cy="105" rx="10" ry="55"/><path fill="#fffffd" d="M87.7 90.3l5.5 12.9-24.9 10.5-5.5-12.9z"/><path fill="#00030a" d="M74.5 110.3L46 97.9l28.8 63 9.5 24.1z"/><path fill="#605371" d="M65 58h25v34H65z"/><path fill="#75513d" d="M160 77l-24-38-7 41z"/><path fill="#e5d6ff" d="M67 73L51 25l-3 78z"/><ellipse fill="#ceffff" cx="64" rx="48" ry="9"/></g></svg>