<svg xmlns="http://www.w3.org/2000/svg" viewBox="0 0 200 133"><filter id="b"><feGaussianBlur stdDeviation="12" /></filter><path fill="#b9a392" d="M0 0h200v133H0z"/><g filter="url(#b)" transform="translate(.5 .5)" fill-opacity=".5"><ellipse fill="#493f25" cx="35" cy="112" rx="33" ry="33"/><ellipse fill="#fff" rx="1" ry="1" transform="rotate(-30.9 287.2 -305.3) scale(49.97567 29.56299)"/><ellipse fill="#fdffff" rx="1" ry="1" transform="rotate(-61.2 58.8 -79.5) scale(19.17616 52.27126)"/><ellipse fill="#6d2b1c" rx="1" ry="1" transform="rotate(-108.5 88.8 24) scale(35.74151 15.73898)"/><path fill="#000024" d="M79 46L49 8h17z"/><ellipse fill="#d5963e" cx="173" cy="17" rx="27" ry="77"/><ellipse fill="#e2daff" rx="1" ry="1" transform="matrix(-9.64204 32.55099 -12.38115 -3.66746 23.8 19.8)"/><ellipse fill="#00000f" rx="1" ry="1" transform="rotate(159.7 18.7 63.7) scale(6.40888 45.94909)"/><ellipse fill="#521e00" rx="1" ry="1" transform="matrix(1.01539 29.51768 -14.72409 .5065 199 6.8)"/><ellipse fill="#f5ffff" rx="1" ry="1" transform="matrix(-2.96482 48.60096 -8.77674 -.53541 195.2 89.2)"/><path fill="#fbffff" d="M122.7 78.8l-7 13.2-20.4-10.8 7-13.2z"/><ellipse fill="#a68b63" cx="7" cy="116" rx="44" ry="44"/><path fill="#c9d5f3" d="M67 40h14v63H67z"/><ellipse fill="#e9bd82" cx="164" cy="63" rx="30" ry="40"/><ellipse fill="#e3f7f8" rx="1" ry="1" transform="matrix(8.8772 -4.43879 27.57732 55.15226 111.3 15.7)"/><path fill="#876959" d="M107.3 32l20.4 28.7 27.5 38-51.7-42.2z"/><path fill="#002036" d="M53.9 9.9l5.6-4.1L80.1 34l-5.6 4.1z"/><ellipse fill="#e3ffff" cx="69" rx="55" ry="7"/><path fill="#604c6b" d="M50 44.3l17-.6 1 28-17 .6z"/><path fill="#e6d3ff" d="M38 77l17-19-16-37z"/><path fill="#fbffff" d="M76.3 54l-12-22.5L35-12.4 41.5 7z"/><ellipse fill="#c8dad5" rx="1" ry="1" transform="rotate(172.3 30.6 59.4) scale(4.5296 44.85275)"/></g></svg>