<svg xmlns="http://www.w3.org/2000/svg" viewBox="0 0 700 467"><filter id="b"><feGaussianBlur stdDeviation="12" /></filter><path fill="#232648" d="M0 0h700v464H0z"/><g filter="url(#b)" transform="translate(1.4 1.4) scale(2.73438)" fill-opacity=".5"><ellipse fill="#6563fb" rx="1" ry="1" transform="rotate(10.8 -202 828.8) scale(69.40647 27.33733)"/><ellipse fill="#b7b1df" rx="1" ry="1" transform="matrix(16.03478 -7.5454 14.34089 30.47594 129.6 129.2)"/><path fill="#fff" d="M203 89h15v37h-15z"/><ellipse fill="#fff" cx="51" cy="105" rx="9" ry="17"/><ellipse cx="17" cy="21" rx="61" ry="61"/><ellipse cx="255" cy="19" rx="70" ry="70"/><ellipse fill="#7ec3ff" rx="1" ry="1" transform="matrix(-9.17442 -2.62454 6.1256 -21.41286 19.1 100.1)"/><path fill="#8186ff" d="M174 25h14v104h-14z"/><ellipse fill="#565ac1" rx="1" ry="1" transform="matrix(-4.52816 -19.58938 43.52447 -10.06085 182.6 46.4)"/><ellipse rx="1" ry="1" transform="rotate(-179 67.5 84) scale(231.77736 13.39174)"/><ellipse cx="159" cy="8" rx="255" ry="16"/><path fill="#cfc4ff" d="M143.7 135.5l-13.3-40-29.3 17.1 40 23z"/><path fill="#c8dfd4" d="M101 143h52v13h-52z"/><path fill="#00050b" d="M44.8 126.3l154.9 5.4-.5 14-154.9-5.4z"/><path fill="#98bea7" d="M203 138h26v18h-26z"/><ellipse rx="1" ry="1" transform="matrix(-26.70176 18.5582 -9.85073 -14.17334 240.6 78.6)"/><path d="M18 121l11 51L57 47z"/><ellipse fill="#03022e" rx="1" ry="1" transform="matrix(-24.8315 5.10784 -3.12259 -15.1803 135 78.6)"/><path fill="#f5ffff" d="M207 125l11-19-17-15z"/><ellipse fill="#1a1a80" rx="1" ry="1" transform="matrix(-1.45118 37.77525 -27.39186 -1.05229 76 59.3)"/><path fill="#9921ff" d="M181 91l29-23-53 18z"/><path fill="#c7faff" d="M114 60l9-32 6 17z"/></g></svg>