<svg xmlns="http://www.w3.org/2000/svg" viewBox="0 0 200 133"><filter id="b"><feGaussianBlur stdDeviation="12" /></filter><path fill="#313445" d="M0 0h200v133H0z"/><g filter="url(#b)" transform="translate(.5 .5)" fill-opacity=".5"><ellipse fill="#c2b1c0" rx="1" ry="1" transform="matrix(-18.4601 -.70925 2.3143 -60.23548 115.8 103.1)"/><ellipse cx="178" cy="52" rx="45" ry="99"/><ellipse fill="#48527b" cx="31" cy="122" rx="69" ry="69"/><ellipse fill="#b5d0ff" cx="9" cy="60" rx="49" ry="4"/><path fill="#b0d1ff" d="M0 23h35v9H0z"/><path fill="#a7d9ff" d="M63 28l13 9 24-5z"/><path fill="#e9bfdc" d="M127 27l-16-15 7 22z"/><ellipse cx="93" cy="65" rx="10" ry="29"/><ellipse fill="#000409" rx="1" ry="1" transform="matrix(-4.36874 -7.53646 31.92082 -18.50385 18 95.2)"/><path fill="#c0b5be" d="M101 96h38v16h-38z"/><path d="M115.2 123l26.7 8.6-3.1 9.5-26.7-8.7z"/><path fill="#666da8" d="M-16 128l32 20 29-57z"/><ellipse fill="#d4d6ff" cx="126" cy="80" rx="7" ry="7"/><path fill="#b9f3ff" d="M66 76h19v5H66z"/><path fill="#090d14" d="M183.1 52.3l31.9 71.2-77.2-32.3-28 8z"/><ellipse fill="#0d1012" cx="111" cy="4" rx="35" ry="12"/><path fill="#37405a" d="M114.1 61.7l16.7-6.2 9 13L118.7 79z"/><ellipse fill="#000401" rx="1" ry="1" transform="rotate(-121 94.8 -38) scale(37.15144 19.18992)"/><path fill="#121227" d="M98 83l-46 64 34 1z"/><ellipse fill="#051015" cx="27" cy="18" rx="23" ry="7"/><path fill="#000200" d="M61 45.5h30v17H61z"/><path fill="#a29aa6" d="M94 100h41v20H94z"/></g></svg>