<svg xmlns="http://www.w3.org/2000/svg" viewBox="0 0 200 133"><filter id="b"><feGaussianBlur stdDeviation="12" /></filter><path fill="#5b4c4f" d="M0 0h200v133H0z"/><g filter="url(#b)" transform="translate(.5 .5)" fill-opacity=".5"><ellipse fill="#a9a9a4" rx="1" ry="1" transform="matrix(80.88803 20.66536 -7.8761 30.82852 100.8 81.6)"/><ellipse fill="#000002" rx="1" ry="1" transform="matrix(172.49175 3.99358 -.75296 32.52216 164.2 16.5)"/><ellipse fill="#b8ffff" rx="1" ry="1" transform="matrix(-3.76297 -13.56884 20.03994 -5.55757 114.6 64)"/><ellipse fill="#d2937f" cx="40" cy="104" rx="32" ry="25"/><path fill="#00000e" d="M77 35h19v55H77z"/><path fill="#790000" d="M0 126.2l198.8-10.4 1.1 22L1.2 148.2z"/><ellipse fill="#ffecdb" cx="166" cy="93" rx="81" ry="4"/><path fill="#fff" d="M12 92h28v11H12z"/><path fill="#f8ffff" d="M44 72h42v8H44z"/><path fill="#25101a" d="M54 107.9l28.7-1.4-30-23.9-9.7 25.1z"/><path fill="#0084ff" d="M99 44h35v9H99z"/><ellipse rx="1" ry="1" transform="matrix(21.03702 4.28947 -6.8463 33.5766 38.8 9)"/><ellipse fill="#99ba97" rx="1" ry="1" transform="matrix(20.65163 3.58469 -1.53038 8.81662 170 60.5)"/><ellipse fill="#617865" cx="23" cy="56" rx="55" ry="21"/><ellipse fill="#ffc2c3" cx="148" cy="109" rx="35" ry="5"/><path fill="#040f1b" d="M136 29h19v47h-19z"/><path d="M159 12h33v39h-33z"/><ellipse fill="#674fc6" rx="1" ry="1" transform="matrix(-.61863 4.90983 -22.54962 -2.8412 78.9 14.2)"/><path fill="#200" d="M214.9 130.5l-25.8-67.2 9.2 42.7-93.2 42z"/><path fill="#3f1800" d="M24.3 107.9l-11 30-21.6-7.8 11-30z"/><path fill="#19070d" d="M81 82l73 11-31-17z"/><ellipse fill="#fff" cx="40" cy="81" rx="10" ry="6"/></g></svg>