<svg xmlns="http://www.w3.org/2000/svg" viewBox="0 0 700 467"><filter id="b"><feGaussianBlur stdDeviation="12" /></filter><path fill="#35405b" d="M0 0h700v464H0z"/><g filter="url(#b)" transform="translate(1.4 1.4) scale(2.73438)" fill-opacity=".5"><ellipse fill="#fff" rx="1" ry="1" transform="matrix(12.38034 -.3441 .9402 33.82748 210.7 95.3)"/><ellipse rx="1" ry="1" transform="matrix(115.96235 16.4931 -3.79655 26.6934 87 31)"/><path fill="#fff" d="M268.6 125.1l-22 1.6-5.2-75.8 22-1.6z"/><path fill="#acf5ff" d="M45 143l5-94-29 36z"/><ellipse fill="#837a90" cx="125" cy="118" rx="59" ry="49"/><ellipse cx="233" cy="109" rx="9" ry="57"/><ellipse fill="#2456dc" rx="1" ry="1" transform="matrix(81.31589 -46.37461 5.71163 10.0151 216.5 54)"/><path fill="#cbd8d9" d="M84 148h64v18H84z"/><path fill="#fffcff" d="M116.7 77l25.2-4 24 19.6-38.7-7.7z"/><path fill="#dcffff" d="M200 75h21v50h-21z"/><ellipse fill="#151506" rx="1" ry="1" transform="matrix(-26.44528 40.56698 -24.03882 -15.6707 51.6 168.7)"/><ellipse fill="#00042e" rx="1" ry="1" transform="matrix(61.5553 29.34927 -14.09295 29.55765 66 40.7)"/><ellipse fill="#0a2112" cx="159" cy="141" rx="133" ry="7"/><ellipse cx="14" cy="112" rx="7" ry="69"/><ellipse cx="194" cy="99" rx="6" ry="58"/><path fill="#f8b6b2" d="M107 109h56v13h-56z"/><path fill="#a2b6b0" d="M62 133l10 18-27 13z"/><path fill="#01000d" d="M56-.6l9.8 92.8 50.4-2.5-68.8 44.5z"/><path fill="#8cf" d="M-16 65L9 36 8 81z"/><ellipse fill="#0035c7" rx="1" ry="1" transform="matrix(.93983 7.9352 -50.21625 5.94755 119.9 71.5)"/><ellipse fill="#1a1707" cx="232" cy="168" rx="27" ry="57"/><path fill="#ccc2e9" d="M71 79h25v13H71z"/></g></svg>