<svg xmlns="http://www.w3.org/2000/svg" viewBox="0 0 700 467"><filter id="b"><feGaussianBlur stdDeviation="12" /></filter><path fill="#77776c" d="M0 0h700v464H0z"/><g filter="url(#b)" transform="translate(1.4 1.4) scale(2.73438)" fill-opacity=".5"><ellipse fill="#fdffff" cx="199" rx="51" ry="51"/><path fill="#fff" d="M172 115.5H98v-33h74z"/><ellipse fill="#0e0900" rx="1" ry="1" transform="rotate(109.4 11.8 8.4) scale(47.30093 74.82305)"/><ellipse fill="#030300" cx="80" cy="147" rx="19" ry="92"/><ellipse fill="#bec4c2" cx="142" cy="47" rx="31" ry="31"/><ellipse fill="#0f0900" rx="1" ry="1" transform="matrix(-11.4675 -39.9919 14.36464 -4.119 194.1 83.5)"/><ellipse fill="#fff" cx="137" cy="103" rx="48" ry="12"/><path fill="#0b0a00" d="M99 141h113v17H99z"/><ellipse fill="#d0dff0" rx="1" ry="1" transform="matrix(-3.34648 22.05677 -52.95267 -8.03405 216.5 15.2)"/><path fill="#fff" d="M152.5 141.2l-25.1-.5-18.2-13.4 59.8 3.6z"/><ellipse fill="#4d4a34" cy="37" rx="25" ry="147"/><ellipse fill="#7f603a" rx="1" ry="1" transform="matrix(4.95352 10.15965 -20.04044 9.77108 190.4 47.6)"/><path fill="#ebe4c6" d="M89.3 133l2.4-23 9 1-2.4 23z"/><path fill="#010304" d="M64 86h24v62H64z"/><ellipse cx="96" cy="79" rx="5" ry="16"/><ellipse fill="#a2926c" cx="43" cy="59" rx="17" ry="29"/><ellipse fill="#484532" cx="176" cy="163" rx="39" ry="29"/><path fill="#fdfffd" d="M182.9 127.7l-26-47-67 30.7 97.6-2.8z"/><path fill="#e5c593" d="M204.6 39.6l20.5 22-11.7 10.8-20.5-22z"/><ellipse fill="#002976" rx="1" ry="1" transform="matrix(-11.93627 -.9012 1.7236 -22.82872 70 45.2)"/><ellipse fill="#8b9297" rx="1" ry="1" transform="rotate(-28.2 62 -247.3) scale(30.12611 51.95419)"/><ellipse fill="#827b57" rx="1" ry="1" transform="rotate(172.5 40.9 87.5) scale(76.2936 13.44895)"/></g></svg>