<svg xmlns="http://www.w3.org/2000/svg" viewBox="0 0 200 133"><filter id="b"><feGaussianBlur stdDeviation="12" /></filter><path fill="#783887" d="M0 0h200v133H0z"/><g filter="url(#b)" transform="translate(.5 .5)" fill-opacity=".5"><ellipse fill="#cc61de" cx="67" cy="85" rx="40" ry="40"/><ellipse fill="#1a1346" cx="162" cy="75" rx="40" ry="40"/><ellipse fill="#e86070" cx="124" cy="36" rx="21" ry="30"/><ellipse fill="#8db375" rx="1" ry="1" transform="matrix(-2.03303 24.484 -31.01954 -2.57571 190.2 29)"/><ellipse fill="#00001e" cx="149" cy="4" rx="28" ry="9"/><ellipse fill="#641bbc" cx="18" cy="93" rx="31" ry="32"/><path fill="#200" d="M131.2 142.9l-137-4.8.6-17 137 4.8z"/><ellipse fill="#cf3aff" cx="156" cy="120" rx="27" ry="11"/><path fill="#ff50e8" d="M45 45h25v45H45z"/><ellipse fill="#da03f4" cx="116" cy="63" rx="8" ry="27"/><ellipse fill="#1e0070" cx="53" rx="53" ry="12"/><ellipse fill="#18121d" cx="151" cy="30" rx="8" ry="57"/><ellipse fill="#8baaa7" cx="7" cy="24" rx="17" ry="19"/><ellipse fill="#9c29ff" rx="1" ry="1" transform="matrix(-10.52631 18.64104 -13.07504 -7.38327 0 80.4)"/><ellipse fill="#6042fc" cx="99" cy="82" rx="15" ry="19"/><path fill="#180f41" d="M174 75h25v41h-25z"/><ellipse fill="#f458ff" rx="1" ry="1" transform="rotate(93.6 -39.4 71) scale(3.60914 35.90115)"/><path fill="#0d0945" d="M111.8 91l-13.7 11.9 23.3 2.9-7.5-39.9z"/><path fill="#492971" d="M4.8 110.7l21.4-61.8 11 20.2 23.2 38.8z"/><path fill="#cbb5bd" d="M85.8 80.5l-42 34.3-12-1.9 55.5-8.3z"/><ellipse fill="#ac7834" rx="1" ry="1" transform="matrix(-4.52526 23.65564 -11.20714 -2.1439 135.6 32)"/><path fill="#4f25b8" d="M142 85h26v30h-26z"/></g></svg>