<svg xmlns="http://www.w3.org/2000/svg" viewBox="0 0 200 133"><filter id="b"><feGaussianBlur stdDeviation="12" /></filter><path fill="#736a59" d="M0 0h200v133H0z"/><g filter="url(#b)" transform="translate(.5 .5)" fill-opacity=".5"><ellipse fill="#fff2c4" cx="84" rx="76" ry="76"/><ellipse cx="70" cy="132" rx="73" ry="73"/><ellipse fill="#01070c" rx="1" ry="1" transform="rotate(88.4 8.8 116.4) scale(31.43285 198.99999)"/><ellipse fill="#fff" cx="30" cy="28" rx="22" ry="19"/><ellipse fill="#d6c1a1" cx="122" cy="46" rx="197" ry="26"/><ellipse fill="#ad9266" cx="113" cy="11" rx="64" ry="41"/><ellipse fill="#fff" rx="1" ry="1" transform="rotate(172.3 18 15.4) scale(14.22348 27.76986)"/><ellipse fill="#1d151c" cx="142" cy="88" rx="45" ry="22"/><ellipse fill="#9a733e" cx="41" cy="52" rx="59" ry="7"/><ellipse fill="#7b4b0f" cy="5" rx="28" ry="17"/><path fill="#0f0705" d="M51 148L7 81l16-29z"/><path fill="#f4ddc4" d="M51 57h78v12H51z"/><path fill="#616f56" d="M55 121h73v12H55z"/><ellipse fill="#49485f" cx="88" cy="80" rx="58" ry="10"/><ellipse fill="#fff4d5" rx="1" ry="1" transform="rotate(-111.4 61.1 -18.5) scale(6.1535 33.17791)"/><path fill="#744710" d="M108.4-7.6L120 6.2l-18.4 15.4L90 7.8z"/><ellipse fill="#040507" cx="156" cy="33" rx="8" ry="6"/><path fill="#5a3e1c" d="M95 38h14v15H95z"/><ellipse fill="#c6c2a6" cx="176" cy="61" rx="15" ry="15"/><path fill="#bdbdbc" d="M149.8 26.5l9 31.7-32.6 9.3-9-31.7z"/><ellipse fill="#fff" cx="30" cy="29" rx="19" ry="15"/><path fill="#100400" d="M223.3 58.2l-37.5 41.6-11.1-10 37.5-41.6z"/></g></svg>