<svg xmlns="http://www.w3.org/2000/svg" viewBox="0 0 700 467"><filter id="b"><feGaussianBlur stdDeviation="12" /></filter><path fill="#6e706f" d="M0 0h700v464H0z"/><g filter="url(#b)" transform="translate(1.4 1.4) scale(2.73438)" fill-opacity=".5"><ellipse fill="#fff" rx="1" ry="1" transform="matrix(1.37604 -49.26314 237.1639 6.62459 138.6 10.3)"/><ellipse rx="1" ry="1" transform="rotate(-120.5 73.4 41.2) scale(56.05227 102.1296)"/><ellipse cx="234" cy="150" rx="52" ry="63"/><ellipse fill="#f9ffff" rx="1" ry="1" transform="matrix(-140.113 -7.33666 1.4491 -27.67454 149.1 16.8)"/><ellipse rx="1" ry="1" transform="matrix(23.07805 13.1777 -34.30273 60.0742 106.7 122.7)"/><ellipse fill="#cad9d7" cx="60" cy="120" rx="19" ry="10"/><ellipse fill="#080500" rx="1" ry="1" transform="matrix(-48.87843 30.5889 -17.20912 -27.49869 226 153)"/><ellipse fill="#43362d" rx="1" ry="1" transform="matrix(7.99577 13.63398 -26.44155 15.50687 162.1 67.3)"/><path d="M149 185l-22-48 47 31z"/><ellipse rx="1" ry="1" transform="matrix(-13.27216 2.82109 -4.44802 -20.92627 37.7 86.4)"/><path fill="#efffff" d="M123.6 161.1l17 23.9-7.2-38-14.6-2.4z"/><ellipse fill="#e7f1f7" rx="1" ry="1" transform="matrix(34.4995 6.3941 -1.65131 8.9097 0 51.3)"/><path fill="#220800" d="M59 34L30 61l14-27z"/><path fill="#ecf9ff" d="M114.7 58.8l-5.4 19-20.6-65.2L117.2-16z"/><path fill="#e7e5ee" d="M174 83h11v68h-11z"/><path fill="#fffff9" d="M61 73l20-27-36 26z"/><path fill="#6c3f24" d="M112.4 63.3l3.3-26.8 17.9 2.2-3.3 26.8z"/><ellipse fill="#e7dcc9" rx="1" ry="1" transform="matrix(3.34193 6.5034 -18.57045 9.54288 205.6 64.4)"/><ellipse fill="#030a0a" cx="91" cy="94" rx="30" ry="30"/><ellipse fill="#11130f" rx="1" ry="1" transform="matrix(80.21768 -33.47134 12.91129 30.9433 46.5 169)"/><ellipse fill="#ecfbff" cx="154" cy="12" rx="37" ry="37"/><ellipse rx="1" ry="1" transform="rotate(-87.7 90.7 20) scale(38.75097 3.00379)"/></g></svg>