<svg xmlns="http://www.w3.org/2000/svg" viewBox="0 0 700 467"><filter id="b"><feGaussianBlur stdDeviation="12" /></filter><path fill="#5c457d" d="M0 0h700v464H0z"/><g filter="url(#b)" transform="translate(1.4 1.4) scale(2.73438)" fill-opacity=".5"><ellipse fill="#180000" rx="1" ry="1" transform="matrix(-.40093 -28.68783 231.0762 -3.22945 99.3 164.3)"/><ellipse fill="#e689c7" rx="1" ry="1" transform="matrix(70.80901 -8.70597 3.4477 28.04152 134 14)"/><ellipse fill="#6194ff" rx="1" ry="1" transform="rotate(147 90 77.1) scale(27.69622 40.54142)"/><ellipse fill="#6287fd" cx="48" cy="90" rx="36" ry="35"/><ellipse fill="#2fffff" rx="1" ry="1" transform="rotate(178.5 64.7 38.7) scale(23.72365 13.88622)"/><ellipse cx="164" cy="64" rx="14" ry="29"/><ellipse cx="96" cy="64" rx="15" ry="29"/><ellipse fill="#98bcee" rx="1" ry="1" transform="rotate(-160.8 58.1 48.7) scale(51.11206 8.24696)"/><ellipse fill="#9b56b3" cx="42" cy="20" rx="44" ry="44"/><ellipse fill="#130000" rx="1" ry="1" transform="matrix(-14.29971 5.41364 -10.6184 -28.04768 255 78.9)"/><ellipse cx="137" cy="53" rx="48" ry="8"/><ellipse fill="#d481e6" rx="1" ry="1" transform="matrix(1.32411 -8.84585 44.84053 6.71206 203.7 41.3)"/><path fill="#00000c" d="M107 88h47v22h-47z"/><ellipse fill="#96bded" cx="209" cy="107" rx="50" ry="10"/><path fill="#34001e" d="M-13.7 102.2l66-48.4-31.6-1.4-25.6-2.2z"/><ellipse fill="#ffffeb" cx="195" cy="59" rx="19" ry="5"/><ellipse fill="#61d9ff" cx="123" cy="74" rx="21" ry="13"/><path fill="#ffffdc" d="M85 66L72 54l-29 4z"/><ellipse fill="#3436bf" rx="1" ry="1" transform="rotate(-161.1 30.7 64) scale(10.69388 26.82534)"/><ellipse fill="#350000" cx="129" cy="169" rx="106" ry="26"/><path fill="#bcc6ff" d="M38.3 93.2l18.6 11.4-72.9 12.7L38.4 87z"/><ellipse fill="#060000" rx="1" ry="1" transform="matrix(22.39642 -1.46853 .81033 12.35823 101 52)"/></g></svg>