<svg xmlns="http://www.w3.org/2000/svg" viewBox="0 0 200 133"><filter id="b"><feGaussianBlur stdDeviation="12" /></filter><path fill="#97a7b3" d="M0 0h200v133H0z"/><g filter="url(#b)" transform="translate(.5 .5)" fill-opacity=".5"><ellipse fill="#fff" cx="103" cy="96" rx="80" ry="21"/><ellipse fill="#2a100a" cx="102" cy="130" rx="199" ry="14"/><ellipse cx="190" cy="107" rx="10" ry="37"/><ellipse fill="#fff" cx="98" cy="101" rx="57" ry="18"/><path fill="#621c00" d="M110 60h25v21h-25z"/><path fill="#051b4f" d="M-16 71l26 77 9-80z"/><ellipse fill="#45749d" cx="173" cy="23" rx="29" ry="61"/><ellipse fill="#dddbde" cx="33" cy="132" rx="19" ry="54"/><ellipse fill="#a0cfe5" cx="59" cy="25" rx="88" ry="32"/><path fill="#fff" d="M126 131.5l12.5 2.4 3.5-13.4 23-6.7z"/><ellipse fill="#ffffef" cx="100" cy="68" rx="12" ry="12"/><path fill="#322628" d="M29.7 106.1l40.6 11-34.8.7-18.5-6.2z"/><path fill="#fff" d="M16 82h149v28H16z"/><ellipse fill="#549fd7" rx="1" ry="1" transform="matrix(2.70402 23.38439 -45.07357 5.21203 41.6 0)"/><path fill="#0a0000" d="M93.6 144.4l.9-26 32 1.2-1 26z"/><path fill="#38344d" d="M108.7 43.2l-8.6 7.6-24-10.2 32.5.7z"/><ellipse fill="#515268" rx="1" ry="1" transform="rotate(-107.1 108 -29.2) scale(11.67192 19.88603)"/><path d="M115 136l33-21-15-1z"/><path fill="#d0d3e1" d="M171 96h11v33h-11z"/><path fill="#295391" d="M38 81l31-17-54 11z"/><ellipse fill="#0a0000" cx="111" cy="78" rx="5" ry="5"/><path fill="#462b1d" d="M52.8 137.7l-24-16.7-6.9-18.4 1.3 24.3z"/></g></svg>