<svg xmlns="http://www.w3.org/2000/svg" viewBox="0 0 200 133"><filter id="b"><feGaussianBlur stdDeviation="12" /></filter><path fill="#543171" d="M0 0h200v133H0z"/><g filter="url(#b)" transform="translate(.5 .5)" fill-opacity=".5"><ellipse fill="#e98fff" rx="1" ry="1" transform="matrix(-107.74454 -11.14073 2.69707 -26.08402 95.4 104.7)"/><ellipse rx="1" ry="1" transform="matrix(-46.17507 1.91528 -3.15682 -76.10707 166.6 37.6)"/><ellipse fill="#070037" rx="1" ry="1" transform="matrix(-34.8911 -36.6838 43.49337 -41.3679 25.4 29.4)"/><ellipse fill="#010015" rx="1" ry="1" transform="matrix(-6.07092 27.44047 -194.30157 -42.9872 133.6 0)"/><ellipse fill="#f7b2ff" rx="1" ry="1" transform="rotate(159.6 -6 51.4) scale(26.87876 16.93918)"/><ellipse fill="#ffecff" cx="113" cy="84" rx="33" ry="5"/><path fill="#f3a3ff" d="M29 105h109v17H29z"/><ellipse rx="1" ry="1" transform="matrix(29.04662 3.93768 -1.05944 7.81501 28.3 132)"/><path d="M99 120h14v13H99z"/><ellipse fill="#571590" rx="1" ry="1" transform="matrix(89.40538 6.98243 -.55481 7.10404 127.1 101.6)"/><ellipse fill="#d851ff" cx="144" cy="124" rx="31" ry="14"/><path fill="#fff" d="M53.1 92.5l-1.2-14 13-1 1.2 14z"/><ellipse fill="#3b1685" cx="126" cy="52" rx="21" ry="29"/><ellipse fill="#fff" cx="19" cy="89" rx="28" ry="4"/><path fill="#1d7fba" d="M25 67h19v18H25z"/><path fill="#000154" d="M67 80h8v33h-8z"/><ellipse fill="#5b3a77" cx="81" cy="30" rx="25" ry="25"/><path fill="#170058" d="M87.9 93.2L81.3 96l-97.3 4.2 34.4-7z"/><path fill="#9d25f7" d="M174 102h15v31h-15z"/><path fill="#f38ef7" d="M0 99h100v10H0z"/><path fill="#1e1105" d="M5 128h107v5H5z"/><path d="M30 113l-10 7-2-11z"/></g></svg>