<svg xmlns="http://www.w3.org/2000/svg" viewBox="0 0 700 467"><filter id="b"><feGaussianBlur stdDeviation="12" /></filter><path fill="#7b6d73" d="M0 0h700v464H0z"/><g filter="url(#b)" transform="translate(1.4 1.4) scale(2.73438)" fill-opacity=".5"><ellipse rx="1" ry="1" transform="matrix(-.9308 -22.5186 72.05387 -2.97833 45 150.3)"/><ellipse fill="#fadff2" cx="41" cy="23" rx="56" ry="56"/><ellipse fill="#fffed7" rx="1" ry="1" transform="rotate(-13.4 741.7 -675.3) scale(83.1821 19.39074)"/><ellipse cx="134" cy="100" rx="47" ry="29"/><ellipse rx="1" ry="1" transform="matrix(-10.64192 -37.07297 55.48089 -15.92597 225 0)"/><ellipse rx="1" ry="1" transform="matrix(-10.88726 -15.95717 28.85555 -19.68757 212.2 75)"/><ellipse fill="#dfecff" cx="141" cy="43" rx="108" ry="7"/><path fill="#fff3eb" d="M221 97h35v33h-35z"/><ellipse fill="#e4b7c3" cx="68" cy="103" rx="22" ry="32"/><ellipse rx="1" ry="1" transform="matrix(8.63687 -29.62855 38.5037 11.22402 52.3 163.3)"/><ellipse fill="#bee4ff" rx="1" ry="1" transform="matrix(31.31987 7.41166 -3.46503 14.64237 174.5 53.3)"/><ellipse fill="#ffd6b5" cx="167" cy="154" rx="46" ry="24"/><ellipse fill="#00110f" rx="1" ry="1" transform="rotate(131.9 63.9 91.5) scale(27.79172 20.42692)"/><ellipse fill="#9d493d" rx="1" ry="1" transform="matrix(-12.21017 -8.54965 26.93946 -38.47354 47.5 72)"/><ellipse fill="#0e0000" cx="234" cy="10" rx="24" ry="31"/><ellipse fill="#b3ffff" rx="1" ry="1" transform="matrix(-7.4307 -2.18697 4.20224 -14.27799 108.4 60)"/><path d="M92.3 32.2l19.8 77.6-21.3 18.8-1-68.6zM214 47h28v43h-28z"/><ellipse fill="#b2bddf" cx="82" cy="58" rx="8" ry="81"/><ellipse fill="#d7bfcd" rx="1" ry="1" transform="matrix(3.83754 -48.10257 8.26792 .6596 249.8 78)"/><path fill="#ffe5ea" d="M-16 92l95-40-95 13z"/><ellipse fill="#000412" cx="127" cy="61" rx="12" ry="12"/></g></svg>