<svg xmlns="http://www.w3.org/2000/svg" viewBox="0 0 700 467"><filter id="b"><feGaussianBlur stdDeviation="12" /></filter><path fill="#332018" d="M0 0h700v464H0z"/><g filter="url(#b)" transform="translate(1.4 1.4) scale(2.73438)" fill-opacity=".5"><path fill="#ff3e96" d="M194 31h25v61h-25z"/><path fill="#d56e8a" d="M48 28.5h20v93H48z"/><ellipse fill="#795e3c" rx="1" ry="1" transform="matrix(11.64215 19.42326 -90.0019 53.94642 169.4 9.7)"/><ellipse fill="#010200" cx="188" cy="119" rx="120" ry="30"/><ellipse cx="2" cy="112" rx="31" ry="175"/><path fill="#a0867f" d="M32.7 152.8l27.2-47.5L74 89.6 39.7 109z"/><path fill="#da6070" d="M203 27l-30 6 50 49z"/><ellipse fill="#040605" rx="1" ry="1" transform="matrix(40.41018 -3.67239 3.1545 34.71156 153.5 80.7)"/><ellipse fill="#976265" cx="66" cy="57" rx="43" ry="7"/><ellipse fill="#887c5a" cx="74" cy="17" rx="25" ry="7"/><ellipse rx="1" ry="1" transform="matrix(18.33615 5.00655 -7.20532 26.38897 240.7 97.2)"/><ellipse fill="#301300" cx="191" cy="162" rx="174" ry="33"/><path fill="#5f4f2d" d="M115 11h109v26H115z"/><path fill="#ffffd8" d="M87 14l1 6 9-8z"/><path d="M224.7 47l1.6-31 19 1-1.6 31z"/><path fill="#26261c" d="M64 0h24v83H64z"/><path fill="#d20058" d="M61.5 72l1 19-16 1-1-19z"/><path fill="#000605" d="M0 130l51-30-25-63z"/><ellipse fill="#070b06" cx="100" rx="122" ry="4"/><path fill="#b57178" d="M104.2 64L53 56l.9-6 51.3 8.2z"/><path fill="#633837" d="M32.7 21.6l28.7-13-13.9 74.8-18.2-41z"/><path fill="#000905" d="M60 48l43-36 5 22z"/></g></svg>