<svg xmlns="http://www.w3.org/2000/svg" viewBox="0 0 200 133"><filter id="b"><feGaussianBlur stdDeviation="12" /></filter><path fill="#5e4580" d="M0 0h200v133H0z"/><g filter="url(#b)" transform="translate(.5 .5)" fill-opacity=".5"><ellipse fill="#ec8dd1" cx="102" cy="5" rx="57" ry="26"/><ellipse fill="#1a0000" cx="102" cy="123" rx="199" ry="18"/><ellipse fill="#5b9bff" cx="164" cy="75" rx="26" ry="22"/><ellipse fill="#638eff" cx="38" cy="75" rx="29" ry="23"/><path d="M107 37.9l18.4-12L145 56.1l-18.4 12z"/><path fill="#38ffff" d="M83 49h36v18H83z"/><path d="M64.5 33h17v40h-17z"/><path fill="#d486e1" d="M140 25l75 3-77 27z"/><path fill="#1a0000" d="M181 41h19v39h-19z"/><ellipse fill="#a55cb8" rx="1" ry="1" transform="rotate(34.3 -21 57.8) scale(37.81943 23.92538)"/><ellipse fill="#0d0000" cx="105" cy="40" rx="58" ry="5"/><path fill="#cdffff" d="M92.7 99.8l5.1-9.7 11.5 6.1-5.1 9.7z"/><path fill="#000019" d="M122.3 84.8l-39-.6.4-17 39 .6z"/><path fill="#4842c6" d="M1 78l45 13-22 37z"/><ellipse fill="#9ab4f2" cx="36" cy="84" rx="50" ry="7"/><ellipse fill="#290000" cx="5" cy="60" rx="7" ry="20"/><ellipse fill="#9f9fd3" rx="1" ry="1" transform="matrix(1.2538 6.82905 -46.3939 8.51777 147 84.4)"/><ellipse fill="#380000" cx="104" cy="127" rx="81" ry="16"/><path d="M120 33h17v40h-17z"/><path fill="#c6e5fc" d="M213 85.7l-1.3 5.9L149 78.3l1.2-5.9z"/><ellipse fill="#ffffdc" rx="1" ry="1" transform="matrix(13.42354 -.09155 .01833 2.6874 48.9 46.9)"/><path fill="#1555f2" d="M15 52h40v21H15z"/></g></svg>