<svg xmlns="http://www.w3.org/2000/svg" viewBox="0 0 641 195"><filter id="b"><feGaussianBlur stdDeviation="12" /></filter><path fill="#343864" d="M0 0h641v192H0z"/><g filter="url(#b)" transform="translate(1.3 1.3) scale(2.5039)" fill-opacity=".5"><ellipse rx="1" ry="1" transform="rotate(155.1 7.4 38) scale(34.53354 176.01484)"/><path fill="#c1bdb8" d="M116 0h32v70h-32z"/><ellipse fill="#35ff92" rx="1" ry="1" transform="matrix(37.23709 -8.07415 4.71462 21.7433 174.4 0)"/><ellipse fill="#624ac8" rx="1" ry="1" transform="rotate(19.6 74 665) scale(23.06443 52.99115)"/><ellipse fill="#b180c3" rx="1" ry="1" transform="matrix(12.36079 -2.2155 2.3085 12.87958 56.1 36.5)"/><path fill="#fff" d="M76 74h24v3H76z"/><path fill="#00a150" d="M126.6-.7L116 24.2 65.4 2.7 76-22.2z"/><ellipse fill="#b8a6b7" cx="223" cy="29" rx="5" ry="73"/><ellipse fill="#15035f" rx="1" ry="1" transform="rotate(-41.2 143.6 -194.2) scale(19.09844 31.96977)"/><ellipse fill="#0b0080" cx="251" cy="35" rx="20" ry="77"/><path fill="#dccbfa" d="M152.3 64l-6.1 6.6L117.7 44l6.1-6.6z"/><ellipse fill="#000020" cx="23" cy="54" rx="28" ry="207"/><ellipse fill="#ffd8eb" cx="117" cy="76" rx="4" ry="27"/><ellipse fill="#1e1038" rx="1" ry="1" transform="matrix(14.7283 18.46107 -22.58934 18.02184 91.7 43.1)"/><path fill="#6e1a38" d="M154.7 92l-21.3-37.2-35 37.2 16.7-2.8z"/><path fill="#96e684" d="M150 21l35-28-37-9z"/><ellipse fill="#230f6c" rx="1" ry="1" transform="matrix(12.33045 26.5637 -21.1539 9.81932 193.7 47)"/><path fill="#ffc2fb" d="M91.8 71.1L119 84.7l60.2 5.5-106-15.6z"/><ellipse fill="#008b89" rx="1" ry="1" transform="matrix(2.6368 7.72134 -24.39959 8.33233 195.2 11.9)"/><path fill="#c88ba7" d="M75 21l-16-7-19 21z"/><path fill="#c8bff2" d="M111.7 51.7l-2.8 3-8.6-8.4 2.8-3z"/><ellipse fill="#0b0b40" cx="48" cy="9" rx="34" ry="12"/></g></svg>