<svg xmlns="http://www.w3.org/2000/svg" viewBox="0 0 700 467"><filter id="b"><feGaussianBlur stdDeviation="12" /></filter><path fill="#6a5a4c" d="M0 0h700v464H0z"/><g filter="url(#b)" transform="translate(1.4 1.4) scale(2.73438)" fill-opacity=".5"><ellipse fill="#f2e2cb" rx="1" ry="1" transform="rotate(-112.8 79 37) scale(29.8958 113.94952)"/><ellipse fill="#ffffeb" rx="1" ry="1" transform="rotate(-155.7 129.6 48.2) scale(16.96478 100.23968)"/><ellipse rx="1" ry="1" transform="matrix(-16.25054 -22.80579 70.8755 -50.50318 155.1 145)"/><ellipse cx="93" cy="20" rx="70" ry="43"/><ellipse cx="212" cy="27" rx="22" ry="38"/><ellipse rx="1" ry="1" transform="rotate(170 21 21.1) scale(14.9471 56.27979)"/><path fill="#eecd9c" d="M76 76.4l-13 .2-1-65 13-.2z"/><ellipse fill="#edd0a3" rx="1" ry="1" transform="matrix(13.45161 -19.3623 17.25476 11.98744 6.8 20.1)"/><ellipse fill="#f0b091" cx="103" cy="83" rx="17" ry="40"/><ellipse fill="#e7ddc9" rx="1" ry="1" transform="matrix(-34.589 -8.95079 4.80156 -18.55494 40.1 130)"/><ellipse fill="#c3a16c" cx="177" cy="23" rx="15" ry="77"/><ellipse rx="1" ry="1" transform="matrix(-10.55415 -17.08862 64.15178 -39.62095 169.4 128.7)"/><ellipse fill="#2d0701" cx="17" cy="167" rx="21" ry="11"/><ellipse fill="#e0ccb2" cx="240" cy="169" rx="34" ry="57"/><path fill="#2f3d19" d="M248 56h8v74h-8z"/><ellipse cy="97" rx="18" ry="18"/><ellipse fill="#750013" rx="1" ry="1" transform="matrix(-14.97346 -12.29934 9.58725 -11.6717 87 79.2)"/><ellipse fill="#090606" cx="134" cy="35" rx="28" ry="35"/><ellipse fill="#a28f8b" rx="1" ry="1" transform="matrix(-5.8534 -13.52642 46.30538 -20.03813 63.4 157.4)"/><ellipse fill="#5a1600" rx="1" ry="1" transform="matrix(-12.29264 -16.67333 33.6053 -24.77596 174 158.3)"/><ellipse fill="#573f00" cx="242" cy="157" rx="15" ry="8"/><ellipse fill="#bb9f8e" rx="1" ry="1" transform="matrix(-62.43017 -4.96214 .54992 -6.9187 232.8 81.2)"/></g></svg>