<svg xmlns="http://www.w3.org/2000/svg" viewBox="0 0 700 467"><filter id="b"><feGaussianBlur stdDeviation="12" /></filter><path fill="#515252" d="M0 0h700v464H0z"/><g filter="url(#b)" transform="translate(1.4 1.4) scale(2.73438)" fill-opacity=".5"><ellipse fill="#eff5ee" rx="1" ry="1" transform="rotate(98.9 82 85.7) scale(34.917 105.91161)"/><ellipse cx="206" cy="158" rx="88" ry="88"/><ellipse fill="#efead4" rx="1" ry="1" transform="matrix(-53.70701 73.92136 -32.1265 -23.34127 24 15.8)"/><ellipse rx="1" ry="1" transform="rotate(27.1 -279.4 163) scale(87.93386 47.38897)"/><ellipse fill="#060000" rx="1" ry="1" transform="matrix(.0613 -7.47132 37.41278 .30699 110.6 33.5)"/><ellipse fill="#fff" cx="169" cy="93" rx="4" ry="23"/><ellipse fill="#bca794" rx="1" ry="1" transform="matrix(-10.54764 -21.32407 39.43991 -19.50838 170.6 48.4)"/><ellipse fill="#00030a" cx="116" cy="16" rx="44" ry="4"/><ellipse fill="#00000f" rx="1" ry="1" transform="rotate(-151.6 133.1 -3) scale(12.92563 70.7297)"/><ellipse fill="#f6ffff" rx="1" ry="1" transform="matrix(-1.87545 13.83718 -63.06128 -8.54713 144.9 0)"/><ellipse fill="#00020b" cx="218" cy="153" rx="103" ry="46"/><ellipse fill="#fcffff" cx="46" cy="102" rx="2" ry="34"/><ellipse fill="#b7d3e8" rx="1" ry="1" transform="matrix(-42.31135 3.7553 -2.24108 -25.25048 232 13)"/><path fill="#fff9ae" d="M162 62l10.5 72 2.1 7.9 1-35.1z"/><path fill="#d9eeff" d="M6-16l142 7L19 19z"/><path fill="#c6aaa2" d="M114 59L76 99l4-39z"/><path fill="#bdb4c2" d="M43 55h17v34H43z"/><path fill="#2b260c" d="M58 27l67 48 18-49z"/><ellipse rx="1" ry="1" transform="matrix(-30.81698 -28.53684 12.98497 -14.0225 51 159)"/><path fill="#6c6553" d="M48 7h42v21H48z"/><ellipse fill="#776f65" rx="1" ry="1" transform="matrix(19.3764 24.938 -15.38338 11.95262 189.2 53.3)"/><path fill="#f7fdff" d="M136.7 48.4l12-17.2 20.6 14.4-12 17.2z"/></g></svg>