<svg xmlns="http://www.w3.org/2000/svg" viewBox="0 0 200 133"><filter id="b"><feGaussianBlur stdDeviation="12" /></filter><path fill="#655d67" d="M0 0h200v133H0z"/><g filter="url(#b)" transform="translate(.5 .5)" fill-opacity=".5"><ellipse fill="#bbc3f2" rx="1" ry="1" transform="matrix(56.00431 -5.79232 3.72491 36.01514 47.4 27.4)"/><ellipse cx="88" cy="127" rx="199" ry="17"/><ellipse cx="171" cy="78" rx="62" ry="18"/><path fill="#fff9fb" d="M79 68h30v43H79z"/><path fill="#0e0000" d="M73 94l18-51-107 51z"/><path fill="#8689c1" d="M145 51l70-67-137 5z"/><path d="M128 43l-23-14-10 33z"/><ellipse fill="#e4b77d" cx="66" cy="104" rx="199" ry="6"/><path fill="#fff4aa" d="M-14 131l42-8 7 23z"/><path fill="#d9a368" d="M122 123h72v7h-72z"/><path d="M112 62h11v43h-11zm-128 49l148-1-9 38z"/><ellipse fill="#000300" cx="70" cy="54" rx="5" ry="16"/><ellipse fill="#6c6469" cx="172" cy="49" rx="30" ry="30"/><ellipse fill="#a99796" cx="30" cy="44" rx="38" ry="31"/><path fill="#3a7bff" d="M118 10l-3 24-54-24z"/><path fill="#96a6db" d="M0-16l92 68 14-27z"/><path fill="#cdcfe8" d="M161.8-9.5l-.7 20-29-1 .8-20z"/><ellipse cx="181" cy="114" rx="73" ry="4"/><path fill="#be9fb5" d="M26.7 107.5l27.3-22 14.9 25 3.7-12z"/><path fill="#120d0f" d="M215 78l-78 16-39-35z"/><path fill="#010000" d="M105 15h5v48h-5z"/></g></svg>