<svg xmlns="http://www.w3.org/2000/svg" viewBox="0 0 700 467"><filter id="b"><feGaussianBlur stdDeviation="12" /></filter><path fill="#594c4c" d="M0 0h700v464H0z"/><g filter="url(#b)" transform="translate(1.4 1.4) scale(2.73438)" fill-opacity=".5"><ellipse fill="#b6ffff" rx="1" ry="1" transform="matrix(25.46528 -3.17187 2.93197 23.5393 147.2 81.4)"/><ellipse rx="1" ry="1" transform="matrix(3.7477 -31.11457 169.06738 20.36386 121.3 25.4)"/><ellipse fill="#dbb9a6" rx="1" ry="1" transform="matrix(-78.78189 2.87377 -.8012 -21.96396 179.4 126.5)"/><ellipse fill="#caac9a" rx="1" ry="1" transform="matrix(-11.68915 -32.6025 49.14528 -17.62031 64.5 123.4)"/><ellipse fill="#7b0000" cx="255" cy="169" rx="255" ry="19"/><ellipse fill="#fff" cx="31" cy="125" rx="20" ry="8"/><path fill="#fff" d="M93 105L64 89l-25 21z"/><ellipse fill="#7c9b84" cx="31" cy="67" rx="67" ry="19"/><ellipse fill="#423230" rx="1" ry="1" transform="matrix(-4.94604 -10.69842 45.24985 -20.9197 87.5 121.3)"/><path fill="#afdaaf" d="M196 67h43v15h-43z"/><ellipse fill="#0e0b12" cx="153" cy="107" rx="25" ry="8"/><ellipse cx="46" cy="22" rx="28" ry="28"/><ellipse fill="#cfefff" rx="1" ry="1" transform="matrix(-5.22489 -11.69481 23.36507 -10.43881 145.3 84.4)"/><ellipse fill="#493baa" rx="1" ry="1" transform="rotate(-80.6 64.3 -49.9) scale(9.25177 32.06837)"/><ellipse cx="219" cy="36" rx="30" ry="30"/><ellipse fill="#0e0000" cx="231" cy="128" rx="34" ry="4"/><path fill="#0073ff" d="M126 58h43v11h-43z"/><ellipse fill="#160000" rx="1" ry="1" transform="matrix(-15.41295 -24.2813 39.00606 -24.75973 246.3 169)"/><path fill="#f5e8d5" d="M145.3 127l118-4.5-144.1-8-12.8 17.2z"/><ellipse fill="#000921" rx="1" ry="1" transform="matrix(8.8638 45.58794 -11.20385 2.1784 109 56.7)"/><path fill="#350c00" d="M-14 138l10 47 40-52z"/><path fill="#2d1601" d="M97 132h32v15H97z"/></g></svg>