<svg xmlns="http://www.w3.org/2000/svg" viewBox="0 0 200 130"><filter id="b"><feGaussianBlur stdDeviation="12" /></filter><path fill="#a0a783" d="M0 0h200v130H0z"/><g filter="url(#b)" transform="translate(.5 .5)" fill-opacity=".5"><ellipse fill="#060100" cx="89" cy="56" rx="32" ry="38"/><path fill="#fff" d="M108.7 91.8l38-50.3 56.6 42.7-38 50.3z"/><ellipse cx="183" cy="36" rx="20" ry="28"/><ellipse fill="#110200" cx="74" cy="107" rx="19" ry="56"/><ellipse fill="#f2ffa3" rx="1" ry="1" transform="rotate(-148.5 20.9 .6) scale(38.26298 191.23277)"/><path fill="#567408" d="M85 68L33 7l4 96z"/><ellipse fill="#fff" rx="1" ry="1" transform="matrix(4.2949 24.46303 -31.07856 5.45636 150.5 87.4)"/><ellipse fill="#fffff5" cx="135" cy="1" rx="38" ry="20"/><ellipse fill="#fff" cy="43" rx="9" ry="91"/><ellipse fill="#fff" rx="1" ry="1" transform="matrix(13.16342 -1.19797 .94806 10.41748 44.6 116.5)"/><path fill="#feffd4" d="M90.8 97.2L116 145 99 73.2 120 90z"/><path fill="#375b07" d="M123.4 68l-20.8-7.3 14-40.6 20.8 7.2z"/><ellipse fill="#fff" cx="60" cy="17" rx="9" ry="25"/><path fill="#fff" d="M57.2-.1L-18 24.3-23.2 8 52-16.3z"/><path fill="#96c42f" d="M18 8h32v67H18z"/><path fill="#2b3a10" d="M214.3 22.8l-35.2 26.4-27.9-3 31.8-41z"/><path fill="#fffaff" d="M-8 103l2-66 38 105z"/><path fill="#292413" d="M50 67.3l23 34.2L32 145l73.6-23.5z"/><ellipse fill="#b4b4ec" cx="199" cy="96" rx="26" ry="35"/><ellipse fill="#fff" cx="161" cy="92" rx="10" ry="46"/><path fill="#8d8da4" d="M147 2l14 54-34 13z"/><path fill="#fff" d="M197 42h3v23h-3z"/></g></svg>