<svg xmlns="http://www.w3.org/2000/svg" viewBox="0 0 200 133"><filter id="b"><feGaussianBlur stdDeviation="12" /></filter><path fill="#4f5786" d="M0 0h200v133H0z"/><g filter="url(#b)" transform="translate(.5 .5)" fill-opacity=".5"><ellipse fill="#fff" rx="1" ry="1" transform="matrix(-2.24036 23.26519 -71.89003 -6.92278 102.5 98.3)"/><ellipse fill="#000015" cy="60" rx="28" ry="199"/><ellipse rx="1" ry="1" transform="matrix(-136.13547 .2402 -.03503 -19.8531 129.6 0)"/><ellipse cx="147" cy="131" rx="19" ry="22"/><ellipse fill="#fff" cx="102" cy="104" rx="74" ry="12"/><ellipse rx="1" ry="1" transform="rotate(87.5 38.7 162.1) scale(31.17989 13.15069)"/><ellipse fill="#2c51eb" cx="52" cy="48" rx="32" ry="32"/><ellipse fill="#000043" rx="1" ry="1" transform="matrix(-4.38687 -8.7987 20.80288 -10.37194 158.7 86.2)"/><ellipse fill="#030000" cx="65" cy="128" rx="192" ry="7"/><ellipse fill="#fff" cx="176" cy="115" rx="9" ry="9"/><ellipse fill="#8295e2" cx="128" cy="68" rx="31" ry="24"/><ellipse rx="1" ry="1" transform="matrix(-6.65753 .11655 -1.02095 -58.3165 170.2 41.7)"/><ellipse fill="#8099df" cx="60" cy="78" rx="38" ry="18"/><ellipse fill="#5481ff" cx="188" cy="62" rx="14" ry="31"/><path fill="#6a80ff" d="M8.8 39.1L4.3 107-9.8 42.2 11.4-13z"/><path d="M30.5 84.2L40 95.7l-40.6 34-9.6-11.4zM16-16L168 5 10 25z"/><path fill="#f9ffff" d="M67 94h67v28H67z"/><ellipse fill="#fff" rx="1" ry="1" transform="matrix(-6.34813 -1.92871 2.16328 -7.1202 34.3 111)"/><ellipse fill="#000071" rx="1" ry="1" transform="rotate(18 56 633.9) scale(19.62535 28.59109)"/><ellipse fill="#4d4938" rx="1" ry="1" transform="matrix(-16.30804 3.86352 -2.84938 -12.0273 52.4 119.8)"/><path fill="#fcc6d9" d="M92 17h15v14H92z"/></g></svg>