<svg xmlns="http://www.w3.org/2000/svg" viewBox="0 0 200 133"><filter id="b"><feGaussianBlur stdDeviation="12" /></filter><path fill="#726b87" d="M0 0h200v133H0z"/><g filter="url(#b)" transform="translate(.5 .5)" fill-opacity=".5"><ellipse fill="#fff" rx="1" ry="1" transform="matrix(-47.84456 -21.00464 16.45192 -37.47434 16.3 23.4)"/><ellipse fill="#0a000e" rx="1" ry="1" transform="matrix(28.44699 -3.2222 11.28367 99.61742 180 45.8)"/><ellipse fill="#00002b" rx="1" ry="1" transform="matrix(.48454 -26.86225 39.06129 .70458 23.1 87.5)"/><ellipse fill="#fff" cx="27" cy="24" rx="38" ry="38"/><ellipse fill="#ffdef1" rx="1" ry="1" transform="matrix(53.66795 -17.71565 3.06558 9.28688 124.5 121.2)"/><path fill="#14113a" d="M71 18h38v89H71z"/><path fill="#ffffce" d="M124 148l-15-57 16-34z"/><path fill="#d7b1e4" d="M99.3 129.8L-17 142.1l-2.3-22L97 108z"/><path fill="#fff" d="M-5 47l71 20-9-83z"/><path fill="#1c0a0b" d="M171.8 105.7l43.2 3.8-86.5 34 20.3-13.1z"/><ellipse fill="#5d77ae" rx="1" ry="1" transform="rotate(-143.6 47.4 -4.8) scale(27.3737 31.58306)"/><ellipse fill="#241922" rx="1" ry="1" transform="matrix(-11.74731 -8.58059 5.06623 -6.93595 135.9 87.1)"/><path fill="#588acb" d="M-10.6 9L34 13l-8.8 9.8-25.3 1.8z"/><ellipse fill="#200f30" cx="177" cy="4" rx="29" ry="42"/><path fill="#423e6d" d="M62 23h66v37H62z"/><path fill="#21171f" d="M79 74h29v35H79z"/><path fill="#1e192c" d="M-3.6 118l-3.2-23 64.4-9 3.2 22.8z"/><path fill="#8eb0c7" d="M117.3 27.2L70 8.2l8.7-21.4 47.3 19z"/><path fill="#ffe2c4" d="M122 103l2-42-13-1z"/><path fill="#432e42" d="M124.2 87.9l48.3-8.5 3.3 18.7-48.3 8.5z"/><ellipse fill="#fff" rx="1" ry="1" transform="matrix(9.3671 -10.59464 21.19474 18.73903 39 42.6)"/><ellipse fill="#000009" cx="127" rx="3" ry="32"/></g></svg>