<svg xmlns="http://www.w3.org/2000/svg" viewBox="0 0 700 467"><filter id="b"><feGaussianBlur stdDeviation="12" /></filter><path fill="#71191d" d="M0 0h700v464H0z"/><g filter="url(#b)" transform="translate(1.4 1.4) scale(2.73438)" fill-opacity=".5"><ellipse fill="#ff0015" rx="1" ry="1" transform="matrix(119.26162 -16.68722 6.81918 48.7359 127.8 160.8)"/><ellipse fill="#90dcff" rx="1" ry="1" transform="matrix(3.61233 29.93677 -16.52466 1.99395 110.7 41.4)"/><ellipse fill="#000706" rx="1" ry="1" transform="matrix(57.99287 7.7395 -5.07297 38.01227 40.1 41)"/><ellipse cx="25" cy="122" rx="31" ry="31"/><ellipse fill="#000500" cx="201" cy="1" rx="113" ry="26"/><path fill="#de3b2d" d="M102 78h101v40H102z"/><ellipse fill="#111f15" rx="1" ry="1" transform="matrix(16.74412 19.03122 -35.07463 30.8595 242.1 95.5)"/><ellipse fill="#7e814d" rx="1" ry="1" transform="matrix(73.72859 30.4976 -6.2137 15.02175 255 54.5)"/><ellipse fill="#011d28" cx="153" cy="49" rx="30" ry="27"/><ellipse rx="1" ry="1" transform="matrix(-.36656 26.25106 -10.29417 -.14374 85.4 110.6)"/><ellipse fill="#ff108d" rx="1" ry="1" transform="matrix(-35.01257 4.67167 -1.27903 -9.58587 255 141)"/><ellipse cx="173" cy="106" rx="9" ry="14"/><ellipse fill="#ff002a" cx="37" cy="161" rx="175" ry="10"/><ellipse cx="9" cy="99" rx="7" ry="47"/><path fill="#ff920d" d="M15 82h26v10H15z"/><path fill="#ffffe9" d="M106 44h13v20h-13z"/><path fill="#ff4e2f" d="M65 108l22-19-36-16z"/><ellipse rx="1" ry="1" transform="rotate(-26.4 261.8 -6.2) scale(34.07898 20.71379)"/><path fill="#ff5f52" d="M134.7 86.1l16.1-1 16.3-14.5-17 61.4z"/><ellipse fill="#ff9d65" cx="152" cy="15" rx="7" ry="7"/><ellipse rx="1" ry="1" transform="matrix(15.36039 15.9618 -26.0527 25.07108 233.6 0)"/><path d="M125 92h10v25h-10z"/></g></svg>