<svg xmlns="http://www.w3.org/2000/svg" viewBox="0 0 700 467"><filter id="b"><feGaussianBlur stdDeviation="12" /></filter><path fill="#31363c" d="M0 0h700v464H0z"/><g filter="url(#b)" transform="translate(1.4 1.4) scale(2.73438)" fill-opacity=".5"><ellipse fill="#b3d6bf" rx="1" ry="1" transform="matrix(-12.02444 -3.9805 15.01224 -45.34955 41.3 14)"/><ellipse fill="#a9a99e" rx="1" ry="1" transform="rotate(-140.8 49.6 -14.1) scale(21.90822 28.9076)"/><ellipse rx="1" ry="1" transform="matrix(-20.49128 -4.46782 8.93323 -40.97149 65.1 67.4)"/><path fill="#bdbcc5" d="M93 127l20-51-11-34z"/><ellipse fill="#00091e" rx="1" ry="1" transform="rotate(89.1 -8.9 140.9) scale(24.79179 98.09377)"/><ellipse fill="#bea593" rx="1" ry="1" transform="matrix(-12.24843 -20.26413 7.4947 -4.53009 129.7 50.6)"/><path fill="#9b8579" d="M161 36h16v51h-16z"/><path fill="#b39374" d="M249.1 45.3l-18-6.2 9.8-28.4 18 6.2z"/><path fill="#aabfb6" d="M31 40h4v108h-4z"/><path fill="#ba825f" d="M191.4 38.7L208 27.5l10.6 15.8L202 54.5z"/><path fill="#fff" d="M122 116v7l-14-2z"/><ellipse fill="#7eb4a7" rx="1" ry="1" transform="matrix(-11.91591 -1.02155 1.61596 -18.84935 29 25)"/><path fill="#000002" d="M120 45l9-61 20 38z"/><ellipse fill="#a7b49a" cx="148" cy="18" rx="4" ry="26"/><path fill="#f7ffff" d="M110.4 69.5l4.4 2.3-13.2 24.7-4.4-2.3z"/><path fill="#010301" d="M154 9h40v29h-40z"/><ellipse fill="#0a131d" cx="62" cy="125" rx="28" ry="28"/><path fill="#c4ab8f" d="M43 3l15 24 13-7z"/><path fill="#556870" d="M5 107h20v63H5z"/><ellipse fill="#000617" rx="1" ry="1" transform="matrix(-4.49412 -.4516 1.33566 -13.292 98 81.5)"/><path fill="#af8867" d="M78 90h13v19H78z"/><ellipse fill="#171518" rx="1" ry="1" transform="matrix(21.6142 43.92584 -3.80384 1.87172 98.3 16.9)"/></g></svg>