<svg xmlns="http://www.w3.org/2000/svg" viewBox="0 0 200 130"><filter id="b"><feGaussianBlur stdDeviation="12" /></filter><path fill="#a0a783" d="M0 0h200v130H0z"/><g filter="url(#b)" transform="translate(.5 .5)" fill-opacity=".5"><ellipse fill="#191200" cx="87" cy="74" rx="31" ry="57"/><ellipse fill="#fffcff" cx="158" cy="102" rx="66" ry="39"/><ellipse rx="1" ry="1" transform="rotate(-175.8 92 15) scale(20.44668 26.45814)"/><ellipse fill="#fffff7" cy="64" rx="19" ry="199"/><ellipse fill="#feffa4" rx="1" ry="1" transform="matrix(-20.80906 29.39234 -33.1689 -23.48278 46.5 0)"/><ellipse fill="#fcf5ff" rx="1" ry="1" transform="matrix(-9.54297 -36.52567 26.28992 -6.8687 151.8 78.6)"/><ellipse fill="#303810" cx="98" cy="54" rx="31" ry="31"/><ellipse fill="#8ec21b" cx="36" cy="44" rx="21" ry="37"/><path fill="#2b290d" d="M59 145l-9-87 49 59z"/><ellipse fill="#fff" cx="149" cy="5" rx="21" ry="15"/><ellipse fill="#fff" cx="45" cy="116" rx="11" ry="11"/><path fill="#6c7d38" d="M146.5 143L105 107l10.5-12 41.5 36z"/><ellipse fill="#c9ed68" cx="22" cy="56" rx="15" ry="50"/><path fill="#598218" d="M36 41h19v64H36z"/><path fill="#fff" d="M107 25l14-20-25-16z"/><ellipse fill="#887d9f" rx="1" ry="1" transform="matrix(24.50224 -20.706 8.66553 10.25427 194.1 112.9)"/><path fill="#fff" d="M55 0h14v43H55z"/><ellipse fill="#fff" cx="2" cy="38" rx="6" ry="92"/><path fill="#434d1e" d="M85.8 22.3L99.2 4.7l21.2 58.5 20-37.7z"/><ellipse fill="#fff" rx="1" ry="1" transform="matrix(7.6994 -7.75334 5.15353 5.11768 25 84)"/><path fill="#e8ecb8" d="M130 91l-41 19 11-34z"/><ellipse fill="#767896" cx="151" cy="36" rx="10" ry="25"/></g></svg>