<svg xmlns="http://www.w3.org/2000/svg" viewBox="0 0 700 467"><filter id="b"><feGaussianBlur stdDeviation="12" /></filter><path fill="#5f6465" d="M0 0h700v464H0z"/><g filter="url(#b)" transform="translate(1.4 1.4) scale(2.73438)" fill-opacity=".5"><ellipse cx="216" cy="146" rx="99" ry="99"/><ellipse fill="#d2cebf" cx="44" cy="125" rx="80" ry="24"/><ellipse fill="#aabdc0" cx="95" cy="7" rx="80" ry="80"/><ellipse fill="#a3a8ac" rx="1" ry="1" transform="matrix(27.87725 .16887 -.49751 82.13225 184 39.7)"/><ellipse fill="#00030d" rx="1" ry="1" transform="matrix(-43.8235 -1.45378 2.4615 -74.20101 244.6 87)"/><ellipse fill="#090604" cx="153" cy="84" rx="55" ry="13"/><ellipse fill="#262321" rx="1" ry="1" transform="matrix(-7.8429 -29.94336 19.29565 -5.054 104 156)"/><ellipse cy="122" rx="23" ry="11"/><ellipse fill="#3b3337" cx="145" cy="30" rx="13" ry="64"/><path fill="#fffff4" d="M183 94h20v21h-20z"/><ellipse fill="#d0d1d1" cy="48" rx="9" ry="73"/><ellipse fill="#d6d4ca" rx="1" ry="1" transform="matrix(-4.34679 -14.12945 78.15775 -24.04446 46.3 135.6)"/><ellipse rx="1" ry="1" transform="matrix(17.60372 -7.23875 15.57618 37.87927 144 120.3)"/><ellipse fill="#8ea5a5" cx="41" cy="54" rx="29" ry="29"/><ellipse fill="#fcf5f2" cx="162" cy="28" rx="4" ry="78"/><ellipse fill="#fffffe" rx="1" ry="1" transform="matrix(4.85069 9.1596 -2.64794 1.40228 43 160.8)"/><path fill="#2d417f" d="M272.1 16.7l-36.7 27.7-35.5-47.1 36.7-27.7z"/><path fill="#f3eff0" d="M191 22h8v52h-8z"/><ellipse fill="#fffcf6" cx="83" cy="35" rx="3" ry="50"/><path fill="#09151a" d="M195.6 87.7L190.8 69l-13.5-16-24.3 51.5z"/><ellipse fill="#3a4720" rx="1" ry="1" transform="matrix(41.02217 -4.23923 .37705 3.64865 45.7 112.8)"/><ellipse fill="#3b3f3f" cx="41" cy="43" rx="5" ry="62"/></g></svg>