<svg xmlns="http://www.w3.org/2000/svg" viewBox="0 0 700 467"><filter id="b"><feGaussianBlur stdDeviation="12" /></filter><path fill="#66533e" d="M0 0h700v464H0z"/><g filter="url(#b)" transform="translate(1.4 1.4) scale(2.73438)" fill-opacity=".5"><ellipse fill="#c9f3ff" cx="77" cy="77" rx="23" ry="31"/><ellipse fill="#000008" rx="1" ry="1" transform="matrix(2.71059 30.15505 -96.64348 8.68712 96.7 127)"/><ellipse fill="#ffbd40" rx="1" ry="1" transform="matrix(.5065 -32.24223 64.39405 1.01158 123.8 1.8)"/><ellipse fill="#f5ddc6" rx="1" ry="1" transform="matrix(-.35584 17.80864 -54.1936 -1.08284 216.6 169)"/><ellipse fill="#eef5ff" cx="193" cy="69" rx="9" ry="23"/><ellipse fill="#000219" rx="1" ry="1" transform="matrix(20.56932 -17.66564 18.95728 22.07326 158.4 78.2)"/><ellipse fill="#fff" cx="26" cy="26" rx="4" ry="111"/><ellipse rx="1" ry="1" transform="matrix(13.42785 -.27116 1.1792 58.39366 4.9 94.9)"/><ellipse cx="44" cy="89" rx="13" ry="37"/><ellipse fill="#b56c1a" rx="1" ry="1" transform="matrix(3.87857 34.72984 -111.78003 12.48342 228 17.6)"/><ellipse fill="#6ea4fd" rx="1" ry="1" transform="matrix(22.07584 -1.0273 .45783 9.83834 77.4 98.9)"/><path fill="#ffd4da" d="M48 32h15v26H48z"/><ellipse fill="#fff" cx="126" cy="81" rx="4" ry="19"/><path fill="#fddab9" d="M0 157h33v13H0z"/><ellipse fill="#ef9517" cx="255" cy="128" rx="24" ry="24"/><ellipse fill="#0b2339" rx="1" ry="1" transform="matrix(-20.74184 7.87908 -5.12914 -13.50257 195.1 93.4)"/><ellipse fill="#000003" rx="1" ry="1" transform="matrix(20.04754 4.33443 -7.67325 35.49018 146.5 116)"/><ellipse rx="1" ry="1" transform="matrix(-24.5937 9.37586 -8.71133 -22.85057 73 138.8)"/><path fill="#fff" d="M236 3.9L215 6l-1-10 21-2z"/><ellipse fill="#b9e9ff" cx="76" cy="79" rx="17" ry="17"/><ellipse fill="#692600" cx="249" cy="72" rx="17" ry="47"/><path fill="#f8d254" d="M212 139l-19-21 25-13z"/></g></svg>