<svg xmlns="http://www.w3.org/2000/svg" viewBox="0 0 700 467"><filter id="b"><feGaussianBlur stdDeviation="12" /></filter><path fill="#4e0723" d="M0 0h700v464H0z"/><g filter="url(#b)" transform="translate(1.4 1.4) scale(2.73438)" fill-opacity=".5"><ellipse fill="#ea101b" rx="1" ry="1" transform="matrix(-.72472 -41.51897 78.4994 -1.37021 143.8 93.7)"/><ellipse fill="#000002" cy="39" rx="94" ry="94"/><ellipse fill="#b9b0c2" rx="1" ry="1" transform="matrix(1.91229 -41.20382 9.8426 .4568 102 127)"/><ellipse fill="#c501a1" rx="1" ry="1" transform="matrix(-29.87366 -6.07787 3.8357 -18.85311 185 159.6)"/><ellipse fill="#0f000b" cx="237" cy="70" rx="37" ry="102"/><ellipse fill="#6c07d7" rx="1" ry="1" transform="rotate(73.7 62.2 104) scale(28.50385 10.55533)"/><ellipse fill="#000300" cy="122" rx="51" ry="51"/><ellipse fill="#994f77" rx="1" ry="1" transform="matrix(-1.31303 9.11181 -40.8119 -5.88108 76.5 152)"/><ellipse fill="#cd0009" rx="1" ry="1" transform="rotate(-84.6 124.8 -51.3) scale(20.9042 68.41513)"/><ellipse fill="#6900c1" cx="217" cy="6" rx="27" ry="8"/><ellipse fill="#0d151a" rx="1" ry="1" transform="matrix(-19.72257 -1.78283 3.46671 -38.3505 131.8 152.3)"/><ellipse fill="#05003e" rx="1" ry="1" transform="matrix(25.23043 20.87242 -15.96398 19.29713 110.8 24.5)"/><path fill="#a3000a" d="M144 49L71 61l-26 61z"/><path fill="#5b007c" d="M-4.9 51.3l75-33.9L55.3 73V36.7z"/><path fill="#e201e9" d="M171 42l14-7-13-14z"/><ellipse rx="1" ry="1" transform="rotate(170.8 20.8 2.8) scale(72.0983 26.12176)"/><ellipse fill="#000001" rx="1" ry="1" transform="matrix(-4.41754 -57.5953 18.99203 -1.45668 255 49.2)"/><path fill="#9a345c" d="M71 138h94v9H71z"/><ellipse fill="#620005" rx="1" ry="1" transform="matrix(11.85235 -14.34847 32.8514 27.13644 213.2 72.8)"/><ellipse fill="#de28ff" cx="143" cy="11" rx="8" ry="7"/><path fill="#bfc8d5" d="M116.5 92.3l-4.5.8-5.5 31.3-11-29.2z"/><path fill="#8d12cb" d="M112.6 13.1l-7.1 15.4-14.7-13.6 22-.5z"/></g></svg>