<svg xmlns="http://www.w3.org/2000/svg" viewBox="0 0 641 195"><filter id="b"><feGaussianBlur stdDeviation="12" /></filter><path fill="#694d74" d="M0 0h641v192H0z"/><g filter="url(#b)" transform="translate(1.3 1.3) scale(2.5039)" fill-opacity=".5"><ellipse cx="14" cy="27" rx="43" ry="43"/><ellipse cx="240" cy="22" rx="47" ry="27"/><ellipse fill="#bfb5ed" cx="126" cy="76" rx="76" ry="76"/><ellipse fill="#ffdce2" cx="61" cy="76" rx="30" ry="30"/><ellipse cx="233" cy="10" rx="35" ry="35"/><ellipse cx="19" cy="19" rx="41" ry="27"/><path fill="#f3f" d="M170 3h31v23h-31z"/><ellipse fill="#1ec1e5" rx="1" ry="1" transform="matrix(29.36455 -11.8871 8.92788 22.05444 141.2 18.4)"/><ellipse fill="#f3f" cx="73" cy="16" rx="16" ry="16"/><path fill="#ffaed6" d="M242 71L116 47-8 92z"/><ellipse fill="#754466" cx="127" cy="50" rx="109" ry="16"/><ellipse fill="#000e2e" rx="1" ry="1" transform="matrix(6.22252 -29.30215 9.69934 2.05972 99.6 0)"/><ellipse fill="#000007" rx="1" ry="1" transform="rotate(-111.8 109.2 -49.2) scale(8.05881 30.72555)"/><path d="M0 28h78v17H0zm271 64V-1l-81-8z"/><path fill="#ffb4d2" d="M19.8 44.8l102 47.2L25 73.5l53.5-24.1z"/><ellipse fill="#fff" cx="79" cy="76" rx="39" ry="13"/><ellipse fill="#9bd5eb" rx="1" ry="1" transform="rotate(39.7 21.7 193) scale(9.03075 45.06536)"/><ellipse cx="28" cy="12" rx="29" ry="29"/><path d="M3 0h172v2H3z"/><path fill="#d60096" d="M0 68h41v9H0z"/><path fill="#e28377" d="M223.7 82.8l.6-34 20 .4-.6 34z"/></g></svg>