<svg xmlns="http://www.w3.org/2000/svg" viewBox="0 0 200 133"><filter id="b"><feGaussianBlur stdDeviation="12" /></filter><path fill="#848a8b" d="M0 0h200v133H0z"/><g filter="url(#b)" transform="translate(.5 .5)" fill-opacity=".5"><ellipse rx="1" ry="1" transform="matrix(-32.29429 -12.04834 21.76683 -58.34366 92.8 93.6)"/><ellipse fill="#fff" cx="42" cy="22" rx="20" ry="112"/><ellipse fill="#fff" rx="1" ry="1" transform="matrix(-8.66891 -18.24935 34.7644 -16.514 64.5 16.2)"/><ellipse rx="1" ry="1" transform="rotate(36.7 -122.2 176) scale(25.90415 33.7645)"/><path fill="#cdeff9" d="M147 43l-2-51-91-3z"/><ellipse fill="#2a2d2c" rx="1" ry="1" transform="matrix(12.05333 -.55684 4.16893 90.24016 161.1 65)"/><path fill="#fff6f2" d="M191 148l-8.1-164-13.4 71.9 8.2 92.1z"/><ellipse fill="#f1e9e9" cx="2" cy="88" rx="15" ry="127"/><path d="M58 75.7l8.1-41.3 9.8 2-8 41.2z"/><path fill="#060001" d="M80 16h10v97H80z"/><ellipse fill="#506678" rx="1" ry="1" transform="matrix(17.66307 111.59304 -11.02792 1.74551 119.7 96.2)"/><ellipse fill="#f9f3f2" cx="39" cy="85" rx="14" ry="58"/><path fill="#fff" d="M114 0h16v31h-16z"/><path fill="#000006" d="M192.4 140.4l-1.8-34 15-.8 1.8 34z"/><path fill="#fffff3" d="M97.8-3.9l6.5 54.5-6.6-13.5-5.5-31.2z"/><ellipse fill="#a2e1e3" cx="142" cy="93" rx="7" ry="66"/><path fill="#f3ebea" d="M171 48.9l3.5 26.8L179-3.9 169.5-16z"/><ellipse fill="#972f0a" cx="113" cy="72" rx="24" ry="9"/><path fill="#fbf6f6" d="M55-6.2l18.6 4L59 66.1l-18.6-4z"/><ellipse fill="#4b5956" cx="20" rx="5" ry="133"/><ellipse fill="#475f74" cx="122" cy="100" rx="13" ry="72"/><path d="M48 135l12 13-8-33z"/></g></svg>