<svg xmlns="http://www.w3.org/2000/svg" viewBox="0 0 200 133"><filter id="b"><feGaussianBlur stdDeviation="12" /></filter><path fill="#747072" d="M0 0h200v133H0z"/><g filter="url(#b)" transform="translate(.5 .5)" fill-opacity=".5"><ellipse rx="1" ry="1" transform="matrix(11.4203 -18.66974 42.91186 26.24922 187.8 41.2)"/><ellipse fill="#f4ffff" cx="26" cy="55" rx="14" ry="28"/><ellipse fill="#e0def3" rx="1" ry="1" transform="rotate(-69.4 95 52.6) scale(29.44882 26.53604)"/><ellipse fill="#dbf8ff" rx="1" ry="1" transform="rotate(-119.7 77.7 -24.4) scale(35.3912 8.35037)"/><path fill="#3a0931" d="M118 57h58v56h-58z"/><path fill="#f8ffff" d="M70 39h15v51H70z"/><path fill="#000002" d="M89 111L65 80l-24 68z"/><path fill="#090000" d="M86.2 52l38.4-31.6 1.7 6.4-25 49.6z"/><ellipse fill="#ffffe1" cx="158" rx="42" ry="8"/><path fill="#edf5f9" d="M77 118h35v15H77z"/><ellipse fill="#fff" cx="33" rx="25" ry="6"/><ellipse fill="#002cff" cx="144" cy="91" rx="9" ry="16"/><path fill="#f9ecad" d="M90.3 32.8l19.2 6.5 1.2-27-2.4-28.3z"/><path fill="#2a2908" d="M39 17l65 3-45 21z"/><ellipse fill="#be8568" rx="1" ry="1" transform="matrix(-19.45742 22.84003 -18.43284 -15.70294 109.8 92.8)"/><path d="M170.4 74.3l15 39.3-15.8 6-15-39.2z"/><path fill="#120b01" d="M152 7h43v36h-43z"/><ellipse fill="#8dace6" cx="196" cy="101" rx="15" ry="26"/><path fill="#c6dffd" d="M145.9 33.5l-6.5 24.2-19.3-5.2 6.5-24.2z"/><path fill="#95bdc1" d="M31 84h26v34H31z"/><path fill="#232317" d="M43.3 51L64 89.8l2-42.1-34 12.1z"/><ellipse fill="#fff" cy="132" rx="12" ry="23"/></g></svg>