<svg xmlns="http://www.w3.org/2000/svg" viewBox="0 0 200 133"><filter id="b"><feGaussianBlur stdDeviation="12" /></filter><path fill="#364f54" d="M0 0h200v133H0z"/><g filter="url(#b)" transform="translate(.5 .5)" fill-opacity=".5"><ellipse fill="#aae6e4" rx="1" ry="1" transform="matrix(11.29222 32.93669 -66.69506 22.86614 114.4 51.5)"/><ellipse rx="1" ry="1" transform="rotate(90.6 -36.4 52.6) scale(199 31.52441)"/><ellipse fill="#08f" cx="192" cy="84" rx="36" ry="36"/><ellipse rx="1" ry="1" transform="matrix(162.57708 21.69241 -2.21347 16.5892 103.9 124)"/><ellipse fill="#36b9eb" rx="1" ry="1" transform="rotate(96.7 27.7 56.4) scale(20.83907 31.45327)"/><ellipse cx="66" rx="173" ry="16"/><ellipse fill="#ddaf5b" cx="47" cy="85" rx="47" ry="9"/><path fill="#ffdc70" d="M84 57h75v21H84z"/><ellipse rx="1" ry="1" transform="rotate(2.8 -1638 2583.4) scale(37.14243 6.39212)"/><ellipse fill="#aee6b6" cx="179" cy="24" rx="134" ry="11"/><path fill="#0064cb" d="M118 43L40 74l37-57z"/><ellipse cx="17" cy="40" rx="30" ry="44"/><ellipse cx="82" cy="127" rx="119" ry="17"/><ellipse fill="#e0e1ff" rx="1" ry="1" transform="matrix(-.22246 4.10763 -27.81242 -1.50627 75.4 89.3)"/><path fill="#001202" d="M110 42h36v7h-36z"/><ellipse cx="98" cy="3" rx="121" ry="12"/><ellipse fill="#50768c" cx="174" cy="43" rx="18" ry="18"/><path fill="#28c8ff" d="M123 36l47 3-35-26z"/><path fill="#005f91" d="M128 63L98 37l42 19z"/><path fill="#ffe535" d="M157 13h40v10h-40z"/><path fill="#ffeb99" d="M103 78l15-28-42 7z"/><ellipse fill="#0c6fe7" rx="1" ry="1" transform="matrix(-11.93048 24.56985 -29.97218 -14.5537 190 81)"/></g></svg>