<svg xmlns="http://www.w3.org/2000/svg" viewBox="0 0 700 467"><filter id="b"><feGaussianBlur stdDeviation="12" /></filter><path fill="#717881" d="M0 0h700v464H0z"/><g filter="url(#b)" transform="translate(1.4 1.4) scale(2.73438)" fill-opacity=".5"><ellipse cx="70" rx="83" ry="83"/><ellipse fill="#fff" rx="1" ry="1" transform="rotate(-156.5 45.6 54.5) scale(47.75654 40.06684)"/><ellipse fill="#faffff" rx="1" ry="1" transform="matrix(65.37223 5.96909 -2.56726 28.1161 213.7 137.4)"/><ellipse fill="#fff" rx="1" ry="1" transform="matrix(-91.29082 -39.18433 8.22544 -19.16345 33.4 119.4)"/><path fill="#feffff" d="M155 67h101v30H155z"/><ellipse cx="130" cy="120" rx="20" ry="32"/><ellipse fill="#001" cx="107" cy="3" rx="214" ry="26"/><path fill="#fff" d="M54 54.3l-37.6 5.3L14 41.7l37.7-5.3z"/><ellipse fill="#fff" cx="101" cy="89" rx="15" ry="15"/><ellipse fill="#100800" cx="18" cy="163" rx="19" ry="29"/><ellipse fill="#000009" cx="229" cy="103" rx="71" ry="8"/><path fill="#fff" d="M163.6 40l5.4-20.2 15.4 4.1-5.4 20.3z"/><path d="M138 63l48 11-7-32z"/><ellipse fill="#00030d" rx="1" ry="1" transform="matrix(-23.70517 3.45821 -.91636 -6.2814 94.8 110.7)"/><path d="M30 67l-46-33 45 66zm174-22h14v39h-14zm-52 107h23v18h-23z"/><path fill="#fff" d="M201 26h22v18h-22z"/><path fill="#e3f4ff" d="M120 148h35v15h-35z"/><path fill="#fff" d="M199.4 53.5l6 42.6-16.8 2.4-6-42.6z"/><path d="M42 78h9v19h-9z"/><path fill="#171816" d="M131 138l-12-54 46-44z"/></g></svg>