<svg xmlns="http://www.w3.org/2000/svg" viewBox="0 0 700 467"><filter id="b"><feGaussianBlur stdDeviation="12" /></filter><path fill="#9c8371" d="M0 0h700v464H0z"/><g filter="url(#b)" transform="translate(1.4 1.4) scale(2.73438)" fill-opacity=".5"><ellipse fill="#020000" rx="1" ry="1" transform="matrix(-93.1022 33.01343 -19.6532 -55.4246 183.1 158.5)"/><ellipse fill="#fffff2" cx="68" rx="85" ry="85"/><ellipse rx="1" ry="1" transform="rotate(-163.3 16 76) scale(24.73446 81.32711)"/><ellipse fill="#fffed7" rx="1" ry="1" transform="matrix(48.63932 74.53432 -39.46956 25.7569 181.6 6.4)"/><ellipse fill="#2d0018" cx="106" cy="87" rx="26" ry="32"/><ellipse fill="#221a09" rx="1" ry="1" transform="matrix(-22.37123 24.01062 -10.84142 -10.1012 173 79)"/><path d="M96 179l-43-4 4-49z"/><ellipse fill="#ff9ced" rx="1" ry="1" transform="matrix(4.95807 -14.90452 32.06577 10.66686 95.2 127)"/><ellipse rx="1" ry="1" transform="matrix(32.20043 -7.40628 13.3428 58.01079 223 169)"/><ellipse fill="#ffdebb" rx="1" ry="1" transform="matrix(-.2553 -78.45162 14.65328 -.04769 134.4 55.4)"/><ellipse rx="1" ry="1" transform="matrix(-17.55901 14.78348 -8.79052 -10.4409 255 30)"/><path fill="#fffed7" d="M23.7 47l28-10.7L80.3 111l-28 10.7z"/><ellipse fill="#ffffef" cx="173" cy="52" rx="8" ry="29"/><ellipse fill="#0b0000" rx="1" ry="1" transform="matrix(2.94503 -9.39762 25.08653 7.86164 109.6 83.8)"/><ellipse fill="#fff7de" rx="1" ry="1" transform="rotate(-146.3 11.8 37) scale(17.66811 46.67469)"/><ellipse fill="#241707" cx="158" cy="100" rx="14" ry="39"/><path d="M11.5 173.2l-2-37 27-1.4 2 37z"/><ellipse cx="24" cy="104" rx="21" ry="16"/><path fill="#fff2db" d="M127.3-25.7l8.6 61.4-85.2 12-8.6-61.4z"/><path fill="#f1c489" d="M148 94h6v65h-6z"/><path fill="#fa9ec5" d="M86 163l15-77-38 27z"/><ellipse fill="#ffdfc3" rx="1" ry="1" transform="matrix(-34.83633 19.0137 -13.5679 -24.8587 209 18.7)"/></g></svg>