<svg xmlns="http://www.w3.org/2000/svg" viewBox="0 0 700 467"><filter id="b"><feGaussianBlur stdDeviation="12" /></filter><path fill="#b6b196" d="M0 0h700v464H0z"/><g filter="url(#b)" transform="translate(1.4 1.4) scale(2.73438)" fill-opacity=".5"><ellipse fill="#5b3312" cx="223" cy="71" rx="146" ry="37"/><ellipse fill="#157800" rx="1" ry="1" transform="matrix(-69.72745 4.87582 -2.0899 -29.88688 158.2 167)"/><ellipse fill="#fff" cx="83" cy="120" rx="58" ry="37"/><ellipse fill="#ff9300" rx="1" ry="1" transform="rotate(77.3 -51.6 65.3) scale(20.83539 37.59675)"/><ellipse fill="#faf4f9" cx="34" rx="81" ry="81"/><ellipse fill="#f5ffff" rx="1" ry="1" transform="matrix(11.2426 27.33923 -84.30354 34.66783 62.2 138.5)"/><ellipse fill="#f3ffff" rx="1" ry="1" transform="matrix(5.94909 -16.25664 75.29186 27.5529 238.5 142.2)"/><ellipse fill="#ffef98" rx="1" ry="1" transform="matrix(15.75868 4.66113 -9.79199 33.10543 177.8 53.1)"/><path fill="#001500" d="M118.7 100.7l-9-10.7 43.6-36.7 9 10.7z"/><ellipse fill="#918b4c" rx="1" ry="1" transform="matrix(.72267 9.04583 -74.11232 5.92079 85 49.8)"/><ellipse fill="#101f41" rx="1" ry="1" transform="matrix(-1.29956 7.44615 -96.12418 -16.77636 211 101.6)"/><ellipse fill="#ffec9a" rx="1" ry="1" transform="matrix(-9.95223 -6.86148 15.99731 -23.2033 253.2 69.8)"/><ellipse fill="#609419" cx="160" cy="163" rx="70" ry="32"/><ellipse fill="#bcc3f0" rx="1" ry="1" transform="matrix(-11.0418 -19.07944 41.22427 -23.85761 197.3 13.9)"/><path fill="#e23900" d="M202.9 50.3l26.5 5.2-8.3 42.2-26.5-5.2z"/><ellipse fill="#3a394c" cx="233" cy="17" rx="55" ry="5"/><ellipse fill="#effcff" cx="178" cy="122" rx="147" ry="8"/><ellipse fill="#ffc000" rx="1" ry="1" transform="matrix(4.81103 13.82785 -25.53697 8.88491 36.4 101.2)"/><path fill="#261c27" d="M161 99.5L67.4 80.2l68.7-35-40 44.6z"/><path fill="#be0600" d="M17.1 88.5L-16 49l2.5 28L12 105.6z"/><path fill="#8f4000" d="M23-16L11 11l17 11z"/><path fill="#fff" d="M40.2 77.8L56 51.3l38.4 61.2-19.2-5.9z"/></g></svg>