<svg xmlns="http://www.w3.org/2000/svg" viewBox="0 0 700 467"><filter id="b"><feGaussianBlur stdDeviation="12" /></filter><path fill="#5b3b37" d="M0 0h700v464H0z"/><g filter="url(#b)" transform="translate(1.4 1.4) scale(2.73438)" fill-opacity=".5"><ellipse fill="#ad8a97" cx="109" cy="83" rx="85" ry="38"/><ellipse rx="1" ry="1" transform="matrix(5.16672 115.22925 -29.43127 1.31966 7 3)"/><ellipse cx="245" cy="33" rx="36" ry="36"/><path fill="#05bfff" d="M173 46h33v27h-33z"/><ellipse fill="#c4876e" cx="206" cy="67" rx="13" ry="61"/><ellipse fill="#070000" cx="114" cy="169" rx="255" ry="18"/><ellipse fill="#dbc6fe" rx="1" ry="1" transform="matrix(20.7554 .8251 -.57788 14.53648 136.1 63.5)"/><ellipse fill="#c3a392" cx="69" cy="121" rx="23" ry="23"/><ellipse fill="#975f5e" cx="138" cy="127" rx="67" ry="27"/><ellipse fill="#0e0000" cx="252" cy="90" rx="34" ry="34"/><ellipse fill="#080100" rx="1" ry="1" transform="matrix(1.72348 -15.32194 68.62394 7.71913 127.5 28.2)"/><path fill="#a9d4f4" d="M72 45h23v30H72z"/><path fill="#170300" d="M166.8 92.4L159.4 50l13.8-2.4 7.4 42.4z"/><ellipse fill="#d99d7f" rx="1" ry="1" transform="rotate(-77.9 64.7 11.4) scale(59.67112 6.76483)"/><ellipse fill="#210000" cx="101" cy="74" rx="8" ry="18"/><path fill="#40260d" d="M22 156l50-81-10-59z"/><ellipse fill="#ffe2d2" rx="1" ry="1" transform="matrix(3.25178 -.49801 5.5746 36.39941 213 94.1)"/><ellipse fill="#f11fd9" cx="136" cy="50" rx="17" ry="6"/><ellipse fill="#1f0000" cx="20" cy="169" rx="23" ry="44"/><ellipse fill="#221646" rx="1" ry="1" transform="matrix(9.08515 3.81905 -6.9422 16.51482 112.1 114.1)"/><path fill="#cd9088" d="M119 125h40v17h-40z"/><ellipse cx="6" cy="17" rx="18" ry="67"/></g></svg>