<svg xmlns="http://www.w3.org/2000/svg" viewBox="0 0 200 133"><filter id="b"><feGaussianBlur stdDeviation="12" /></filter><path fill="#9e8374" d="M0 0h200v133H0z"/><g filter="url(#b)" transform="translate(.5 .5)" fill-opacity=".5"><ellipse cx="156" cy="132" rx="61" ry="61"/><ellipse fill="#fffff6" rx="1" ry="1" transform="rotate(175.2 19 9.8) scale(157.77125 41.79462)"/><ellipse rx="1" ry="1" transform="matrix(11.8735 -49.83977 18.08299 4.30798 12.7 108.5)"/><ellipse fill="#370022" rx="1" ry="1" transform="matrix(-18.46594 1.89637 -2.68332 -26.12892 82.5 68)"/><ellipse fill="#ffd" cx="171" cy="48" rx="19" ry="25"/><path fill="#ffe1ea" d="M66.5 118l-48-71.2 19-12.9 48 71.3z"/><ellipse fill="#210600" cx="108" cy="129" rx="190" ry="13"/><ellipse fill="#4d3b23" cx="136" cy="69" rx="23" ry="23"/><path d="M187 16h13v21h-13z"/><ellipse cx="171" cy="105" rx="12" ry="30"/><ellipse fill="#fff0b9" rx="1" ry="1" transform="matrix(-2.95212 32.07998 -5.62282 -.51743 108.2 72.8)"/><path fill="#fffff1" d="M126.2 27l10-1.6 5.6 35.6-10 1.6z"/><path fill="#c87034" d="M118.2 144.3l-3.3-37.9 30.9-2.7 3.3 37.9z"/><ellipse fill="#ffdcbc" cx="63" cy="8" rx="132" ry="37"/><path fill="#ff80ff" d="M63 101l24-13-24 51z"/><path d="M2.2 82.5L-8 100.3l42-9.2-14-35.6z"/><ellipse fill="#362214" cx="122" cy="78" rx="9" ry="39"/><ellipse fill="#986204" cx="27" cy="21" rx="9" ry="9"/><ellipse fill="#4b004b" cx="76" cy="72" rx="16" ry="20"/><ellipse fill="#070700" rx="1" ry="1" transform="matrix(5.74726 18.16487 -8.4732 2.68088 51.5 123.9)"/><path fill="#d0a87a" d="M120.5 130l7.1-22.6-18.6 13.4 12.5-52.6z"/><path fill="#ffd6c4" d="M122.4 53.8l-9.3-62L97 3l-2.7 59.2z"/></g></svg>