<svg xmlns="http://www.w3.org/2000/svg" viewBox="0 0 200 133"><filter id="b"><feGaussianBlur stdDeviation="12" /></filter><path fill="#4d4256" d="M0 0h200v133H0z"/><g filter="url(#b)" transform="translate(.5 .5)" fill-opacity=".5"><ellipse fill="#faabff" rx="1" ry="1" transform="rotate(150 -12.8 58.2) scale(35.91384 17.342)"/><path fill="#f8d9de" d="M112 72l-1-40-76 13z"/><ellipse fill="#0b0000" cx="170" cy="9" rx="64" ry="64"/><ellipse fill="#00001a" rx="1" ry="1" transform="matrix(20.26327 15.52649 -27.31143 35.64352 24 26.1)"/><ellipse fill="#aeb9ba" rx="1" ry="1" transform="matrix(-40.29383 21.78629 -4.98871 -9.22665 186.7 108.3)"/><ellipse fill="#998ebb" rx="1" ry="1" transform="matrix(-11.50492 -9.4429 17.84536 -21.7422 63.8 43.5)"/><ellipse fill="#b996ce" cx="75" cy="101" rx="15" ry="15"/><ellipse fill="#ccaea1" rx="1" ry="1" transform="matrix(-3.08475 -4.0936 18.6778 -14.07473 159.2 70.2)"/><path fill="#a5c7a2" d="M112.4 114.9l-3.3 15.6-25.5-5.4 3.3-15.6z"/><ellipse fill="#effbeb" rx="1" ry="1" transform="matrix(-5.38752 1.99052 -3.19 -8.63402 89.7 71.8)"/><path fill="#ae95e9" d="M-8.8 136.5l1.4-53.6 33.2 34.3-5.3 30.8z"/><path fill="#ffdb95" d="M107 88h24v8h-24z"/><ellipse fill="#b3cee0" rx="1" ry="1" transform="rotate(117.6 20 34.9) scale(16.14446 6.02919)"/><path fill="#38105f" d="M54 48l50-12-6-52z"/><path fill="#0a000b" d="M95.7 85.6L93 68.8l53.3-8.4 2.7 16.8z"/><path d="M118 108h16v25h-16z"/><path fill="#dedff5" d="M116.8 32.9l-15.5 34.7-10-4.5 15.4-34.7z"/><path fill="#160a35" d="M52.9 99l7.6-47.6L70 54l4.5 24.8z"/><path fill="#58d1ff" d="M161 147l-20-14 24-25z"/><path fill="#fffff8" d="M149.5 78.2l7.6-14 5.4 3.2-20.7 22z"/><path fill="#0f0903" d="M222 39.9l-12 37-58-18.8 12-37z"/><ellipse fill="#511600" rx="1" ry="1" transform="rotate(-75.5 173.1 -52.5) scale(6.5359 19.02683)"/></g></svg>