<svg xmlns="http://www.w3.org/2000/svg" viewBox="0 0 700 467"><filter id="b"><feGaussianBlur stdDeviation="12" /></filter><path fill="#94816e" d="M0 0h700v464H0z"/><g filter="url(#b)" transform="translate(1.4 1.4) scale(2.73438)" fill-opacity=".5"><ellipse fill="#f4ffff" rx="1" ry="1" transform="matrix(199.98947 10.53825 -2.04228 38.75735 167.2 22.7)"/><ellipse fill="#431100" cx="122" cy="131" rx="111" ry="54"/><ellipse fill="#755a32" cx="191" cy="51" rx="30" ry="39"/><ellipse fill="#ce6f00" rx="1" ry="1" transform="matrix(-104.69278 6.2774 -1.74557 -29.11215 124.3 159.3)"/><path fill="#fff" d="M237 0h19v94h-19z"/><ellipse fill="#171624" cx="144" cy="112" rx="90" ry="21"/><ellipse fill="#fff" rx="1" ry="1" transform="matrix(2.75435 32.8007 -10.30513 .86535 4 137.6)"/><ellipse fill="#cbe1ff" rx="1" ry="1" transform="matrix(-29.89531 -21.01078 34.05373 -48.45355 131.2 13.3)"/><ellipse fill="#3e569b" rx="1" ry="1" transform="matrix(-52.743 -1.7189 .60251 -18.4876 142.4 89.7)"/><ellipse fill="#a99341" cx="55" cy="32" rx="33" ry="20"/><ellipse rx="1" ry="1" transform="matrix(-11.5736 2.20145 -2.65279 -13.9464 7.8 53)"/><ellipse fill="#12415d" rx="1" ry="1" transform="matrix(-.5593 -26.70045 24.22945 -.50753 32.6 101)"/><path fill="#f3ffff" d="M7 63l-23 33 28-10z"/><ellipse fill="#fff" cx="80" rx="210" ry="12"/><path fill="#e0c6a3" d="M271 110l-37-6 7 81z"/><ellipse fill="#e81b00" cx="176" cy="95" rx="5" ry="16"/><path fill="#faffff" d="M19 36h10v23H19z"/><path fill="#614210" d="M223 29l-20 51 5-65z"/><path fill="#b59297" d="M61 65L40 79l35 50z"/><path fill="#e8e1df" d="M95 72h14v19H95z"/><path fill="#f4ffff" d="M238 38h18v54h-18z"/><path fill="#a6b3d3" d="M201 37.4l6-28V12l-74.9-.3z"/></g></svg>