<svg xmlns="http://www.w3.org/2000/svg" viewBox="0 0 200 133"><filter id="b"><feGaussianBlur stdDeviation="12" /></filter><path fill="#978170" d="M0 0h200v133H0z"/><g filter="url(#b)" transform="translate(.5 .5)" fill-opacity=".5"><ellipse fill="#f5ffff" cx="148" cy="8" rx="166" ry="40"/><ellipse fill="#4f1d00" cx="96" cy="132" rx="85" ry="85"/><ellipse fill="#6a482d" cx="149" cy="70" rx="29" ry="60"/><ellipse fill="#8b9ad7" cx="99" cy="58" rx="35" ry="14"/><path fill="#fff" d="M215 72h-32l11-85z"/><ellipse fill="#111c3f" cx="91" cy="84" rx="86" ry="17"/><ellipse fill="#cf7000" cx="100" cy="132" rx="89" ry="31"/><ellipse fill="#d1e1ff" cx="110" rx="53" ry="44"/><path fill="#f5ffff" d="M-16 106L3 54l14 94z"/><ellipse fill="#9f8b48" cx="43" cy="28" rx="25" ry="20"/><path d="M-2.1 31.3L11.7 29 14 42.7.3 45z"/><path fill="#c09d98" d="M59 102L16 35l33 23z"/><ellipse fill="#1a0d06" rx="1" ry="1" transform="rotate(-179.6 10 46.7) scale(6.63995 22.01407)"/><path fill="#4d2000" d="M41 88h141v20H41z"/><ellipse fill="#ce9a1f" rx="1" ry="1" transform="matrix(-6.06168 -10.1794 8.02786 -4.78047 136.7 30.7)"/><ellipse fill="#fff" cx="45" rx="191" ry="9"/><path fill="#273bc3" d="M105 61h29v28h-29z"/><path fill="#0071a2" d="M26 59h15v34H26z"/><ellipse fill="#dbbc9c" cx="194" cy="111" rx="15" ry="30"/><ellipse fill="#efe9e1" cx="199" cy="39" rx="30" ry="30"/><ellipse fill="#010d19" rx="1" ry="1" transform="matrix(-.87668 6.91326 -16.21995 -2.05688 0 45)"/><ellipse fill="#e1fbff" rx="1" ry="1" transform="matrix(-6.15484 -2.98863 5.67765 -11.69265 1 64.6)"/></g></svg>