<svg xmlns="http://www.w3.org/2000/svg" viewBox="0 0 200 133"><filter id="b"><feGaussianBlur stdDeviation="12" /></filter><path fill="#767d7f" d="M0 0h200v133H0z"/><g filter="url(#b)" transform="translate(.5 .5)" fill-opacity=".5"><ellipse rx="1" ry="1" transform="matrix(.96124 -45.88934 21.35434 .44731 92.5 94.3)"/><ellipse fill="#fff9f6" rx="1" ry="1" transform="matrix(8.83568 32.82803 -52.59015 14.15467 70.3 21.7)"/><ellipse fill="#e4dfdc" rx="1" ry="1" transform="rotate(78.9 -39.5 80.3) scale(73.65051 24.55872)"/><ellipse cx="8" cy="111" rx="12" ry="165"/><ellipse fill="#070908" cx="192" cy="50" rx="10" ry="103"/><path fill="#010002" d="M79.3 133l38 15L89.9 37.5 65.4 59.7z"/><ellipse fill="#0b314f" cx="138" cy="110" rx="15" ry="116"/><ellipse fill="#d2e3e4" cx="160" cy="24" rx="9" ry="115"/><path fill="#fff" d="M111 103h13v30h-13z"/><ellipse fill="#e4dcda" rx="1" ry="1" transform="matrix(35.16994 37.54378 -12.08796 11.32365 87 19.8)"/><ellipse fill="#435450" rx="1" ry="1" transform="matrix(5.49398 -.14716 2.55288 95.31084 49.5 84)"/><path fill="#7b645e" d="M80 29h15v40H80z"/><ellipse fill="#fff9fe" cx="152" cy="10" rx="7" ry="29"/><path fill="#f7f1f0" d="M73.8 101.5l-.1-17-21 8 9.6 55.5z"/><path fill="#7c1000" d="M95.3 92.7l-.5-14 42-1.4.4 14z"/><ellipse cx="112" cy="34" rx="2" ry="49"/><path fill="#dedada" d="M21 0h19v133H21z"/><ellipse fill="#659a9d" cx="171" cy="41" rx="11" ry="112"/><path fill="#edecee" d="M54 9l2 67 47-88z"/><path fill="#030509" d="M82.4 53.8l-.8 25-18-.6.8-25z"/><ellipse cx="2" cy="109" rx="5" ry="34"/><path fill="#fff" d="M122 99l-6 13-5-19z"/></g></svg>