<svg xmlns="http://www.w3.org/2000/svg" viewBox="0 0 200 133"><filter id="b"><feGaussianBlur stdDeviation="12" /></filter><path fill="#b8b199" d="M0 0h200v133H0z"/><g filter="url(#b)" transform="translate(.5 .5)" fill-opacity=".5"><ellipse fill="#5e3517" cx="166" cy="56" rx="101" ry="30"/><ellipse fill="#1c7b00" cx="126" cy="132" rx="54" ry="28"/><ellipse fill="#fff" rx="1" ry="1" transform="rotate(159.5 17.6 58.1) scale(69.90392 24.58597)"/><ellipse fill="#fdf5fa" cx="27" cy="9" rx="55" ry="55"/><ellipse fill="#ff9a00" rx="1" ry="1" transform="matrix(7.2799 12.8672 -23.43438 13.25853 17.1 82.2)"/><ellipse fill="#fff" rx="1" ry="1" transform="matrix(-1.01059 7.42385 -124.50137 -16.94799 167.3 100)"/><ellipse fill="#f9e5b7" cx="139" cy="31" rx="14" ry="32"/><ellipse fill="#fff" cx="64" cy="87" rx="25" ry="22"/><path fill="#221430" d="M215 92L99 73l59-11z"/><ellipse fill="#584a34" rx="1" ry="1" transform="rotate(-89 71 -18.1) scale(17.80388 33.24486)"/><ellipse fill="azure" rx="1" ry="1" transform="matrix(36.63806 26.68354 -10.07605 13.835 199 121.3)"/><path fill="#fff1a2" d="M191 77l15-41-26 21z"/><ellipse fill="#f14500" rx="1" ry="1" transform="rotate(100.2 59.8 99.7) scale(16.00114 12.47013)"/><ellipse fill="azure" cx="36" cy="120" rx="30" ry="30"/><ellipse fill="#ffa200" cx="20" cy="76" rx="28" ry="12"/><ellipse fill="#9c550f" rx="1" ry="1" transform="matrix(-2.76133 -9.14595 5.417 -1.63549 16.4 9.2)"/><ellipse fill="#33305c" rx="1" ry="1" transform="matrix(.20536 3.35757 -29.79543 1.82237 173.2 13.9)"/><ellipse fill="#fff8ff" rx="1" ry="1" transform="matrix(10.9588 30.60673 -18.82159 6.7391 72.8 0)"/><ellipse fill="#588a0a" rx="1" ry="1" transform="matrix(1.43959 -13.47054 30.37397 3.24604 93.1 129)"/><ellipse fill="#9aa05f" cx="49" cy="40" rx="42" ry="7"/><ellipse fill="#c7c7f0" rx="1" ry="1" transform="rotate(-24.4 98.4 -340) scale(45.60583 13.5852)"/><path fill="#ffd47a" d="M124 16L86 60l32-19z"/></g></svg>