<svg xmlns="http://www.w3.org/2000/svg" viewBox="0 0 700 467"><filter id="b"><feGaussianBlur stdDeviation="12" /></filter><path fill="#909ea1" d="M0 0h700v464H0z"/><g filter="url(#b)" transform="translate(1.4 1.4) scale(2.73438)" fill-opacity=".5"><ellipse fill="#1a1500" rx="1" ry="1" transform="matrix(69.26163 .05456 -.01787 22.68226 157.7 74.5)"/><ellipse fill="#fff" cx="56" cy="165" rx="68" ry="68"/><ellipse fill="#46d0ff" cx="92" cy="30" rx="126" ry="29"/><ellipse fill="#400900" rx="1" ry="1" transform="matrix(24.37501 17.83981 -47.31243 64.64424 221.5 169)"/><ellipse fill="#af5700" rx="1" ry="1" transform="matrix(8.78308 72.8771 -24.37587 2.93776 241 45.5)"/><ellipse fill="#300500" rx="1" ry="1" transform="matrix(-11.9907 -16.08676 26.28106 -19.5893 139.6 169)"/><ellipse fill="#e9dfce" rx="1" ry="1" transform="rotate(-168.1 67.3 50.4) scale(15.96064 58.04503)"/><ellipse fill="#fff" rx="1" ry="1" transform="matrix(-19.72837 -1.87385 2.81642 -29.65203 5.7 27)"/><ellipse fill="#000200" cx="174" cy="72" rx="28" ry="20"/><path fill="#fff" d="M160 20.2l16.7-2.7L194.8 46l-34.4 1.8z"/><ellipse fill="#0680e3" rx="1" ry="1" transform="rotate(167.3 38.7 28.5) scale(46.61977 13.56513)"/><ellipse fill="#f1e6db" rx="1" ry="1" transform="rotate(179.2 15.9 67.7) scale(119.28917 35.64979)"/><ellipse fill="#ccbdad" cx="219" cy="106" rx="18" ry="31"/><path fill="#2f40ff" d="M190 8h28v46h-28z"/><ellipse fill="#beafaa" cx="35" cy="88" rx="44" ry="28"/><path fill="#391900" d="M170 81h14v45h-14z"/><ellipse fill="#42baff" cx="128" cy="30" rx="37" ry="26"/><path fill="#5e3900" d="M94 57h20v41H94z"/><ellipse fill="#4f3715" rx="1" ry="1" transform="matrix(4.0104 -20.0856 30.70885 6.13148 221.3 155)"/><ellipse fill="#68c1ff" rx="1" ry="1" transform="matrix(-42.99995 -11.4969 6.49914 -24.30766 59 17.5)"/><path fill="#dfc9ba" d="M164 132h28v38h-28z"/><path fill="#7c7466" d="M77.7 87.6L5 108.6l39.5-3.2 135.7-11.5z"/></g></svg>