<svg xmlns="http://www.w3.org/2000/svg" viewBox="0 0 800 533"><filter id="b"><feGaussianBlur stdDeviation="12" /></filter><path fill="#564b39" d="M0 0h800v531H0z"/><g filter="url(#b)" transform="translate(1.6 1.6) scale(3.125)" fill-opacity=".5"><ellipse fill="#e4ffff" cx="159" cy="84" rx="42" ry="50"/><ellipse cx="54" cy="1" rx="158" ry="46"/><path fill="#fff" d="M197 98h25v30h-25z"/><ellipse cx="10" cy="120" rx="34" ry="34"/><ellipse cx="255" cy="115" rx="35" ry="35"/><ellipse cx="181" cy="128" rx="15" ry="22"/><path fill="#efd8b5" d="M95 126l53 7-71-62z"/><path fill="#ffd97f" d="M210 23h18v67h-18z"/><ellipse fill="#ffd4ab" cx="48" cy="169" rx="65" ry="15"/><path fill="#fff" d="M57.9 129.8l-17-1.8 3.2-29.8 17 1.8z"/><ellipse fill="#cf6100" rx="1" ry="1" transform="matrix(21.5707 11.13703 -15.10701 29.25995 46.9 75.7)"/><ellipse rx="1" ry="1" transform="matrix(200.2048 -39.27855 6.44908 32.87127 98 14)"/><ellipse rx="1" ry="1" transform="matrix(7.76204 27.6514 -14.2706 4.0059 76.7 124.2)"/><path d="M-16 90L28-16 14 159z"/><path fill="#ffc936" d="M80 38h14v66H80z"/><ellipse rx="1" ry="1" transform="rotate(174.2 116.8 26.3) scale(9.20993 58.28785)"/><path fill="#a4c6c8" d="M112 44l78-16 32 99z"/><ellipse fill="#ffbb41" rx="1" ry="1" transform="rotate(84.2 98.1 163) scale(25.4888 6.58545)"/><path d="M116.5 70.4l3.7-86.4-25.6 49.5-1.9 68.4z"/><ellipse fill="#fffffd" rx="1" ry="1" transform="matrix(1.75165 14.9111 -11.60668 1.36347 152 109.4)"/><ellipse fill="#010000" cx="38" cy="140" rx="109" ry="11"/><ellipse fill="#ff8500" cx="27" cy="77" rx="5" ry="27"/></g></svg>