<svg xmlns="http://www.w3.org/2000/svg" viewBox="0 0 700 467"><filter id="b"><feGaussianBlur stdDeviation="12" /></filter><path fill="#334079" d="M0 0h700v464H0z"/><g filter="url(#b)" transform="translate(1.4 1.4) scale(2.73438)" fill-opacity=".5"><ellipse fill="#fffff8" rx="1" ry="1" transform="matrix(-22.64663 .17885 -.67281 -85.1924 144 145)"/><ellipse rx="1" ry="1" transform="matrix(2.4555 28.64224 -72.20324 6.19 57 130.6)"/><ellipse fill="#080a00" rx="1" ry="1" transform="matrix(3.71565 -37.51853 49.38282 4.89063 211.1 123)"/><ellipse fill="#1d42da" rx="1" ry="1" transform="matrix(-102.89811 -1.2572 .54257 -44.40738 142 10.3)"/><ellipse fill="#d1bc9d" rx="1" ry="1" transform="matrix(14.5011 -.03687 .06947 27.32471 194.9 69)"/><path fill="#f9ffff" d="M162.8 120.6l9.9 62.2-41.5 6.6-9.9-62.2z"/><ellipse fill="#b3b8e9" cx="116" cy="8" rx="23" ry="16"/><ellipse fill="#b0c9df" rx="1" ry="1" transform="matrix(.59803 -8.7722 73.54206 5.0136 115.5 169)"/><ellipse fill="#212b5e" cx="118" cy="107" rx="203" ry="8"/><ellipse fill="#000471" cx="11" cy="22" rx="45" ry="29"/><ellipse fill="#030a0c" rx="1" ry="1" transform="matrix(-1.21068 20.94725 -74.03662 -4.27907 52.4 137.5)"/><ellipse fill="#fefff9" cx="144" cy="87" rx="21" ry="11"/><ellipse fill="#031171" rx="1" ry="1" transform="matrix(89.59283 -8.71713 2.20856 22.69914 36.9 92.4)"/><ellipse fill="#756ab3" cx="62" cy="59" rx="86" ry="9"/><ellipse fill="#021988" cx="251" cy="29" rx="22" ry="81"/><path fill="#edffff" d="M189 86l10-18 13 21z"/><path fill="#6a533f" d="M159.1 78.6L146.5 52H135l-6.7 26z"/><path fill="#080f1a" d="M167 114h89v45h-89z"/><path fill="#746132" d="M182 92h33v14h-33z"/><path fill="#ddebf3" d="M123 133h36v37h-36z"/><path fill="#eaf1e3" d="M162 87h4v21h-4z"/><path fill="#142d9e" d="M-10 54.5L271 39 133.7-12.5l6.5 31.8z"/></g></svg>