<svg xmlns="http://www.w3.org/2000/svg" viewBox="0 0 700 467"><filter id="b"><feGaussianBlur stdDeviation="12" /></filter><path fill="#424751" d="M0 0h700v464H0z"/><g filter="url(#b)" transform="translate(1.4 1.4) scale(2.73438)" fill-opacity=".5"><ellipse fill="#b8f2ff" cx="116" cy="50" rx="34" ry="30"/><ellipse fill="#f4dec4" rx="1" ry="1" transform="matrix(31.57227 6.82617 -3.3293 15.3986 163.4 120.4)"/><ellipse fill="#ff800d" cx="109" cy="138" rx="23" ry="30"/><path fill="#fff" d="M-20.7 148.8l-2.3-22 53.7-5.6 2.3 22z"/><ellipse fill="#00348c" cx="29" cy="34" rx="41" ry="72"/><ellipse fill="#000925" rx="1" ry="1" transform="matrix(-37.5875 13.38431 -41.7884 -117.35545 223 93.9)"/><ellipse fill="#0a0000" cx="16" cy="163" rx="83" ry="19"/><ellipse fill="#003e85" rx="1" ry="1" transform="matrix(-32.10713 -29.01572 36.22567 -40.08525 235.7 23)"/><ellipse fill="#080000" rx="1" ry="1" transform="matrix(43.7483 1.74388 -1.04122 26.12083 180 161)"/><path fill="#fff" d="M141 118h55v16h-55z"/><ellipse fill="#98896e" cx="103" cy="15" rx="34" ry="34"/><path fill="#722e12" d="M78 78h108v38H78z"/><ellipse fill="#92c0ff" cx="111" cy="63" rx="40" ry="16"/><path fill="#cf0100" d="M71 65l15-29 1 53z"/><ellipse fill="#0070b1" cx="24" cy="14" rx="36" ry="36"/><ellipse fill="#c14524" cx="251" cy="109" rx="20" ry="20"/><ellipse fill="#645334" cx="137" cy="18" rx="30" ry="26"/><path fill="#b5dadb" d="M47 99h42v10H47z"/><ellipse fill="#000e32" rx="1" ry="1" transform="rotate(-16.5 293.6 -15.4) scale(52.54537 23.26726)"/><ellipse fill="#530f06" cx="73" cy="136" rx="27" ry="27"/><ellipse fill="#ffb0c8" cx="77" cy="135" rx="13" ry="7"/><path fill="#fff" d="M107.2 26.3l-3 11.4-20.8-2.9 2-12.4z"/></g></svg>