<svg xmlns="http://www.w3.org/2000/svg" viewBox="0 0 200 133"><filter id="b"><feGaussianBlur stdDeviation="12" /></filter><path fill="#5e5141" d="M0 0h200v133H0z"/><g filter="url(#b)" transform="translate(.5 .5)" fill-opacity=".5"><ellipse fill="#fff" cx="163" cy="32" rx="38" ry="38"/><ellipse rx="1" ry="1" transform="rotate(51.5 -99.2 80.2) scale(61.97318 32.45665)"/><ellipse rx="1" ry="1" transform="matrix(82.24303 -11.1197 2.97643 22.01412 147.4 122.8)"/><ellipse fill="#fff" rx="1" ry="1" transform="rotate(95.8 77.4 97.8) scale(20.02732 38.818)"/><path fill="#000105" d="M160 103l-19-87-10 60z"/><ellipse fill="#e5b474" cx="86" cy="92" rx="33" ry="16"/><ellipse rx="1" ry="1" transform="matrix(18.85672 1.84892 -14.22864 145.1149 0 80)"/><path fill="#fff3e3" d="M188 69.7l-41.6-44.1 8 51 32.9-4.3z"/><ellipse cx="199" cy="58" rx="28" ry="9"/><ellipse cx="188" cy="123" rx="32" ry="32"/><path fill="#ffea59" d="M153 88.4l29.4-10 4.5 13.2-29.3 10z"/><ellipse fill="#fff" cx="174" cy="29" rx="29" ry="18"/><ellipse fill="#a79661" cx="122" cy="9" rx="28" ry="28"/><ellipse rx="1" ry="1" transform="matrix(-1.74502 20.78085 -63.32546 -5.31759 23.5 114.3)"/><ellipse fill="#3e4a1c" cx="166" rx="25" ry="12"/><path fill="#f6dedf" d="M92 33h10v25H92z"/><ellipse fill="#b98d4f" rx="1" ry="1" transform="matrix(-14.94358 -7.87644 9.03399 -17.13974 104.6 101)"/><path fill="#350006" d="M36 36h21v41H36z"/><path fill="#fff" d="M139.5 26.2l20.4-22 14.6 13.6-20.4 22z"/><ellipse fill="#080100" cx="143" cy="110" rx="20" ry="20"/><ellipse fill="#b6825d" cx="26" cy="46" rx="11" ry="17"/><path fill="#d9c1a5" d="M88 86l12-21-41 26z"/></g></svg>