<svg xmlns="http://www.w3.org/2000/svg" viewBox="0 0 200 133"><filter id="b"><feGaussianBlur stdDeviation="12" /></filter><path fill="#696f5e" d="M0 0h200v133H0z"/><g filter="url(#b)" transform="translate(.5 .5)" fill-opacity=".5"><ellipse fill="#fff" cx="180" cy="112" rx="35" ry="51"/><ellipse fill="#e2e7ff" rx="1" ry="1" transform="matrix(-27.49242 -47.61828 24.0884 -13.90744 25 101)"/><ellipse rx="1" ry="1" transform="matrix(.93811 40.40303 -198.94638 4.61932 95.6 1.8)"/><ellipse fill="#faffe1" cx="114" cy="49" rx="27" ry="20"/><path fill="#fff" d="M75.4 150l-1.7-32 77-4 1.6 32z"/><ellipse cx="156" cy="42" rx="15" ry="43"/><ellipse fill="#225100" rx="1" ry="1" transform="matrix(-6.17707 -23.05315 32.47675 -8.70212 110.2 96.2)"/><ellipse fill="#011300" cx="41" cy="20" rx="41" ry="41"/><ellipse fill="#020800" rx="1" ry="1" transform="matrix(6.33972 -22.42153 7.8325 2.21465 35.4 61)"/><ellipse rx="1" ry="1" transform="rotate(-68.3 107.2 -127.2) scale(40.81026 20.68882)"/><path fill="#fff" d="M48 68L17 89l34 27z"/><ellipse fill="#d4d9b1" cx="82" cy="59" rx="14" ry="29"/><ellipse fill="#ffe2dd" cx="195" cy="82" rx="28" ry="30"/><ellipse fill="#072500" cx="60" cy="73" rx="9" ry="31"/><ellipse fill="#1a1a0c" rx="1" ry="1" transform="matrix(10.37247 3.57363 -9.021 26.18343 138.8 80.2)"/><ellipse fill="#051a00" cx="105" rx="49" ry="29"/><path fill="#143c00" d="M115 81l-39 22-29-17z"/><ellipse fill="#845e55" cx="61" cy="132" rx="19" ry="19"/><ellipse fill="#edd1cc" cx="172" cy="114" rx="27" ry="27"/><ellipse fill="#6c971b" cx="104" cy="109" rx="17" ry="17"/><path fill="#ebefd9" d="M67 69h30v12H67z"/><path fill="#fff" d="M116 64h14v9h-14z"/></g></svg>