<svg xmlns="http://www.w3.org/2000/svg" viewBox="0 0 700 467"><filter id="b"><feGaussianBlur stdDeviation="12" /></filter><path fill="#66533e" d="M0 0h700v464H0z"/><g filter="url(#b)" transform="translate(1.4 1.4) scale(2.73438)" fill-opacity=".5"><ellipse fill="#c4f2ff" rx="1" ry="1" transform="matrix(22.13985 2.16268 -2.95238 30.22416 77.5 79.5)"/><ellipse fill="#000008" cx="159" cy="112" rx="38" ry="38"/><ellipse cx="62" cy="132" rx="117" ry="25"/><path fill="#ffbb47" d="M146-16l58 76L43 10z"/><ellipse fill="#fee6ce" cx="217" cy="169" rx="51" ry="18"/><path fill="#fff" d="M187 61h14v18h-14z"/><ellipse fill="#fff" cx="26" cy="38" rx="4" ry="98"/><ellipse fill="#aa600a" rx="1" ry="1" transform="matrix(4.3664 -32.289 69.40033 9.38491 224.3 20.4)"/><ellipse rx="1" ry="1" transform="rotate(-8.2 579.5 -268) scale(13.29785 28.79082)"/><path fill="#ffe2e7" d="M49.8 33.4l13-.7 1.4 26-13 .6z"/><ellipse fill="#0a1525" rx="1" ry="1" transform="matrix(-22.79502 19.3101 -16.22028 -19.14758 157.1 72.5)"/><path d="M-16 185l40-89-39-111z"/><path fill="#fff" d="M124 58h6v39h-6z"/><path fill="#ffffd9" d="M243 23l-43-33 29-6z"/><ellipse fill="#f9d4b1" cx="17" cy="165" rx="18" ry="12"/><ellipse fill="#e88f12" rx="1" ry="1" transform="matrix(-11.96475 -26.13327 18.55265 -8.49407 255.1 131.6)"/><ellipse cx="68" cy="135" rx="27" ry="27"/><ellipse fill="#d9e8ff" rx="1" ry="1" transform="matrix(-8.65043 -16.98813 8.68144 -4.42063 66.7 75.3)"/><path d="M192 157l40-18v-33z"/><path fill="#fff876" d="M219 109l-13 25-9-21z"/><ellipse fill="#692c00" cx="243" cy="69" rx="13" ry="55"/><ellipse fill="#ffa93f" cx="87" cy="4" rx="27" ry="27"/></g></svg>