<svg xmlns="http://www.w3.org/2000/svg" viewBox="0 0 700 467"><filter id="b"><feGaussianBlur stdDeviation="12" /></filter><path fill="#95a7b0" d="M0 0h700v464H0z"/><g filter="url(#b)" transform="translate(1.4 1.4) scale(2.73438)" fill-opacity=".5"><ellipse fill="#fff" rx="1" ry="1" transform="matrix(1.12354 -25.94577 100.77212 4.36378 120.5 124)"/><ellipse fill="#1a0100" rx="1" ry="1" transform="rotate(-94.3 173.5 -6.4) scale(21.5923 128.27923)"/><path fill="#00012c" d="M-4.5 89.7l23-.4 2 111-23 .4z"/><path fill="#1d1704" d="M265.7 74.2l9.4 89.5-38.8 4-9.4-89.4z"/><path fill="#6f2600" d="M146 104.1l-2.8-31.9L170 70l2.7 31.9z"/><ellipse fill="#1a1011" rx="1" ry="1" transform="matrix(6.72264 -10.89947 24.1827 14.91556 83.8 162.5)"/><ellipse fill="#4a698a" cx="220" cy="76" rx="31" ry="31"/><ellipse fill="#1d7fc2" cx="219" cy="9" rx="45" ry="23"/><ellipse fill="#fff" cx="131" cy="126" rx="102" ry="23"/><ellipse fill="#97d1e9" cx="52" cy="1" rx="78" ry="78"/><ellipse fill="#ccdedb" rx="1" ry="1" transform="rotate(-158.8 79.3 5.7) scale(14.2561 75.25627)"/><ellipse fill="#321404" rx="1" ry="1" transform="matrix(-4.20544 4.40074 -14.96628 -14.30209 43.2 168)"/><path fill="#dce5ef" d="M220 120h13v43h-13z"/><path fill="#fdfff5" d="M186 120l-24-59 54 56z"/><path fill="#fffff6" d="M111 80h28v72h-28z"/><ellipse fill="#1f0e02" cx="129" cy="159" rx="44" ry="8"/><ellipse fill="#5ba4d1" rx="1" ry="1" transform="matrix(1.94475 19.36237 -107.58419 10.80573 94.5 0)"/><path fill="#130300" d="M64.5 144.9l92.2 16.7-94.5-10.2-24.9-18.3z"/><path fill="#18223f" d="M112 53h29v9h-29z"/><ellipse fill="#8c817d" rx="1" ry="1" transform="matrix(-34.28448 -16.74697 6.30904 -12.91589 78.1 83.3)"/><ellipse fill="#fbffff" rx="1" ry="1" transform="rotate(150 66.5 104.5) scale(25.73407 3.1377)"/><path fill="#2c0700" d="M136 93h14v12h-14z"/></g></svg>