<svg xmlns="http://www.w3.org/2000/svg" viewBox="0 0 700 467"><filter id="b"><feGaussianBlur stdDeviation="12" /></filter><path fill="#3b4c7f" d="M0 0h700v464H0z"/><g filter="url(#b)" transform="translate(1.4 1.4) scale(2.73438)" fill-opacity=".5"><ellipse fill="#ff1708" rx="1" ry="1" transform="matrix(1.71822 46.01827 -27.0649 1.01054 107.5 133.6)"/><ellipse fill="#3e80f0" rx="1" ry="1" transform="matrix(-15.97509 -50.82115 174.7549 -54.93235 160.6 24)"/><ellipse fill="#0f0f00" rx="1" ry="1" transform="matrix(5.11948 -42.0337 91.82097 11.1833 214.4 157)"/><path fill="#000b00" d="M-11.4 122.7l84.7-27.5 24 74.1-84.6 27.5z"/><ellipse fill="#c9f5ff" cx="140" cy="10" rx="24" ry="15"/><ellipse fill="#ffb55d" rx="1" ry="1" transform="matrix(-9.34242 -1.09748 3.57867 -30.4638 181.8 72.4)"/><path fill="#f9d392" d="M71 59.4l-12.9 45.2-21.2-6 13-45.2z"/><ellipse fill="#002b88" rx="1" ry="1" transform="matrix(51.26527 3.13552 -1.7138 28.02035 24.3 23.5)"/><ellipse fill="#1352cc" rx="1" ry="1" transform="rotate(-97 139.9 -79.6) scale(68.99273 29.39887)"/><path fill="#a8a1b6" d="M160 53h96v17h-96z"/><ellipse fill="#e96960" rx="1" ry="1" transform="matrix(10.42058 -1.11364 5.70175 53.35264 106.4 111.6)"/><ellipse fill="#99b0d4" cx="103" cy="61" rx="49" ry="10"/><path fill="#001203" d="M92.5 176v-14h67v14z"/><ellipse fill="#373913" cx="196" cy="95" rx="14" ry="28"/><path fill="#baffff" d="M106 147h14v16h-14z"/><ellipse fill="#000400" cx="223" cy="153" rx="20" ry="36"/><ellipse fill="#dcae55" rx="1" ry="1" transform="rotate(-7.2 1424 -1909.7) scale(4.10642 33.0396)"/><path fill="#ff0430" d="M85 100h40v26H85z"/><path fill="#161e18" d="M175 71l-32 11 12 103z"/><ellipse fill="#0049c0" rx="1" ry="1" transform="matrix(7.47297 17.18666 -47.46955 20.64035 181.2 26.5)"/><path fill="#fff" d="M34 87h24v12H34z"/><path fill="#d9d5b2" d="M173 76h8v46h-8z"/></g></svg>