<svg xmlns="http://www.w3.org/2000/svg" viewBox="0 0 200 133"><filter id="b"><feGaussianBlur stdDeviation="12" /></filter><path fill="#313445" d="M0 0h200v133H0z"/><g filter="url(#b)" transform="translate(.5 .5)" fill-opacity=".5"><ellipse fill="#c4b4c5" rx="1" ry="1" transform="matrix(19.17998 1.11385 -3.10763 53.51183 115.5 104.1)"/><ellipse rx="1" ry="1" transform="rotate(-6.5 602.2 -1656.4) scale(58.1026 150.5901)"/><ellipse fill="#bdd2ff" cx="13" cy="61" rx="39" ry="5"/><path fill="#b4d7ff" d="M0 24h35v9H0z"/><ellipse fill="#536095" rx="1" ry="1" transform="matrix(-8.70011 -12.53552 62.20825 -43.1748 19.9 119.5)"/><path fill="#7da1f2" d="M45.5 26.8l37.3 11.6 1.4.4L96.4 31z"/><ellipse cx="93" cy="68" rx="7" ry="29"/><path fill="#c49eb2" d="M111 18h15v15h-15z"/><path fill="#b8aeb8" d="M139 97l-2.3 22-37.7-4 2.3-22z"/><path fill="#060613" d="M114 123h34v10h-34z"/><path fill="#4f627f" d="M-6 86l94-3-34-31z"/><path d="M117.9 92.8l22.5-8.3 1.7 4.7-22.5 8.3z"/><ellipse fill="#00000a" rx="1" ry="1" transform="matrix(24.687 -16.03696 3.67982 5.66464 21 94.2)"/><path fill="#6c656a" d="M102 49h34v26h-34z"/><ellipse fill="#0b0f12" cx="196" cy="25" rx="72" ry="72"/><path fill="#000300" d="M56 56l42 10 11-30z"/><path fill="#c8c4ff" d="M124 70.3l7.5 2.7-7.5 20.7-7.5-2.7z"/><path fill="#0e1518" d="M62 28L15 11l68 52z"/><path fill="#8bb1ff" d="M99 35.8l-32-.6v-5l32 .6z"/><ellipse fill="#34395d" cx="63" cy="115" rx="33" ry="33"/><path fill="#a99388" d="M129.6 48l-20 17-15.4-14.3 22.8-3.5z"/><ellipse fill="#13181e" rx="1" ry="1" transform="matrix(-8.76632 -13.13587 28.933 -19.30866 102 7)"/></g></svg>