<svg xmlns="http://www.w3.org/2000/svg" viewBox="0 0 200 133"><filter id="b"><feGaussianBlur stdDeviation="12" /></filter><path fill="#978170" d="M0 0h200v133H0z"/><g filter="url(#b)" transform="translate(.5 .5)" fill-opacity=".5"><ellipse fill="#f4ffff" rx="1" ry="1" transform="matrix(142.4833 1.45722 -.42421 41.47857 115.4 5.2)"/><ellipse fill="#410" cx="96" cy="101" rx="87" ry="41"/><ellipse fill="#fff" cx="192" cy="26" rx="15" ry="51"/><ellipse fill="#7c5e3b" cx="148" cy="38" rx="24" ry="29"/><ellipse fill="#d17100" cx="104" cy="131" rx="91" ry="30"/><ellipse fill="#eff" cx="2" cy="104" rx="7" ry="53"/><ellipse fill="#012486" cx="108" cy="78" rx="26" ry="19"/><ellipse fill="#cbdfff" cx="97" cy="15" rx="34" ry="34"/><ellipse fill="#114264" cx="24" cy="77" rx="20" ry="20"/><ellipse fill="#a2884d" cx="43" cy="32" rx="25" ry="24"/><path d="M11.5 30v20h-23V30z"/><ellipse fill="#271204" cx="108" cy="93" rx="75" ry="10"/><path fill="#8a8bba" d="M66 39l71 27-64 4z"/><ellipse fill="#d7bb9f" cx="191" cy="118" rx="13" ry="38"/><ellipse fill="#fff" rx="1" ry="1" transform="matrix(.05487 -9.24497 140.34357 .83296 78.7 0)"/><path fill="#fff" d="M184.7 71.3l1.7-32 27 1.4-1.8 32z"/><path fill="#67472e" d="M166.4 55.4l6-37.7-13.2 2.9L148 80z"/><ellipse fill="#1a1413" rx="1" ry="1" transform="matrix(-8.36722 -5.36397 8.26413 -12.89116 165.7 86.2)"/><path fill="#dbb559" d="M17 10h18v45H17z"/><ellipse fill="#fbffff" rx="1" ry="1" transform="matrix(-20.35985 -4.19679 6.18483 -30.00444 0 0)"/><path fill="#b499a3" d="M58 97L14 38l32 18z"/><path fill="#502c12" d="M5.8 84.6l-21.8-6 39.2-8.8L31 148z"/></g></svg>