<svg xmlns="http://www.w3.org/2000/svg" viewBox="0 0 200 133"><filter id="b"><feGaussianBlur stdDeviation="12" /></filter><path fill="#79776e" d="M0 0h200v133H0z"/><g filter="url(#b)" transform="translate(.5 .5)" fill-opacity=".5"><path fill="#dde3ea" d="M119.1-18.9l45.3 21.2L113 112.9 67.6 91.7z"/><ellipse fill="#f7ffff" rx="1" ry="1" transform="matrix(2.83489 -19.64183 39.34348 5.67841 166.7 11.6)"/><ellipse fill="#0f0e11" rx="1" ry="1" transform="matrix(-16.99834 -194.61574 14.5083 -1.2672 63.2 84.4)"/><ellipse fill="#fff" cx="109" cy="77" rx="35" ry="13"/><ellipse fill="#231809" rx="1" ry="1" transform="matrix(33.37074 -37.36568 22.71487 20.28631 19 9.7)"/><ellipse fill="#150900" rx="1" ry="1" transform="matrix(9.59358 25.3233 -12.601 4.77382 149.5 59.6)"/><ellipse fill="#211b07" cx="118" cy="118" rx="51" ry="9"/><ellipse fill="#838076" rx="1" ry="1" transform="matrix(2.32482 20.27707 -31.6399 3.6276 108.8 46.6)"/><ellipse fill="#fff" rx="1" ry="1" transform="matrix(29.20244 3.84457 -.85253 6.47563 117.4 83.9)"/><path fill="#d7bd89" d="M32 41l21 14-6 26z"/><path fill="#5c5543" d="M71 90h53v11H71z"/><path fill="#fff3e0" d="M163 0h7v55h-7z"/><ellipse fill="#302e1a" rx="1" ry="1" transform="matrix(-65.18417 7.8591 -.74417 -6.17226 31.1 114.8)"/><path fill="#191b1e" d="M54 55l1 40 44-46z"/><path fill="#e7deca" d="M71 74h8v30h-8z"/><path fill="#050604" d="M145 80h20v14h-20z"/><path fill="#a7acba" d="M45 39h73v11H45z"/><path fill="#ebedf7" d="M93 100h31v9H93z"/><path d="M48 89h18v26H48z"/><path fill="#474e56" d="M157.6 68.6L172 148l-19.3-63.9-47.1-26.8z"/><path fill="#1449a7" d="M43.4 33.7l16.5-3.8 4.7 20.4-16.5 3.8z"/><path fill="#595441" d="M0 26h17v107H0z"/></g></svg>