<svg xmlns="http://www.w3.org/2000/svg" viewBox="0 0 700 467"><filter id="b"><feGaussianBlur stdDeviation="12" /></filter><path fill="#8b8885" d="M0 0h700v464H0z"/><g filter="url(#b)" transform="translate(1.4 1.4) scale(2.73438)" fill-opacity=".5"><ellipse fill="#0b0301" rx="1" ry="1" transform="rotate(79.6 5.4 120.7) scale(56.47581 117.21384)"/><ellipse fill="#fff" cx="129" cy="10" rx="255" ry="24"/><ellipse fill="#fff" rx="1" ry="1" transform="rotate(-.9 10800.7 -6679) scale(234.75084 15.27455)"/><ellipse fill="#fff" cx="251" cy="88" rx="15" ry="255"/><ellipse fill="#f2c7a9" cx="28" cy="60" rx="61" ry="29"/><path fill="#000209" d="M183.2 110l53 2-1.4 38-53-2z"/><ellipse fill="#fff" rx="1" ry="1" transform="matrix(.69102 23.83142 -62.96171 1.82566 155.7 8)"/><ellipse fill="#000003" cx="137" cy="91" rx="26" ry="52"/><ellipse fill="#fff" rx="1" ry="1" transform="matrix(2.39575 20.9563 -35.13867 4.0171 130.8 163.7)"/><ellipse fill="#fff" cx="89" cy="9" rx="255" ry="25"/><ellipse fill="#240d00" rx="1" ry="1" transform="rotate(113.3 -24.9 69) scale(32.65269 23.47421)"/><ellipse fill="#9f7b5d" rx="1" ry="1" transform="matrix(.47212 29.87117 -22.95985 .36288 54.8 43.1)"/><path fill="#2e3b42" d="M158 33h79v114h-79z"/><ellipse fill="#fff" cx="211" cy="162" rx="252" ry="11"/><path fill="#fdffff" d="M45 88l-3-28L1 85z"/><ellipse fill="#7f6152" rx="1" ry="1" transform="rotate(-127.4 69.8 40.8) scale(30.48349 39.32586)"/><path fill="#614e44" d="M44 75h69v78H44z"/><path fill="#fffdfd" d="M93.2 76.1l-3-6-21-25.3-5.6 32.5z"/><ellipse fill="#704d05" rx="1" ry="1" transform="rotate(65 -30.2 52.1) scale(9.075 21.80323)"/><ellipse fill="#fffffa" cx="249" cy="73" rx="12" ry="197"/><path fill="#fbfbfc" d="M52 50l24-10-52-22z"/><ellipse fill="#fff" rx="1" ry="1" transform="matrix(9.99082 16.68276 -41.42012 24.8053 15.2 13.9)"/></g></svg>