<svg xmlns="http://www.w3.org/2000/svg" viewBox="0 0 700 467"><filter id="b"><feGaussianBlur stdDeviation="12" /></filter><path fill="#969897" d="M0 0h700v464H0z"/><g filter="url(#b)" transform="translate(1.4 1.4) scale(2.73438)" fill-opacity=".5"><ellipse fill="#fff" rx="1" ry="1" transform="matrix(1.28653 -61.4181 194.32836 4.0706 130.2 19)"/><ellipse fill="#1f0d00" cx="129" cy="131" rx="255" ry="43"/><ellipse fill="#f3ffff" cx="151" cy="19" rx="71" ry="71"/><ellipse rx="1" ry="1" transform="matrix(20.58232 7.81636 -26.69707 70.29967 248.9 147.9)"/><ellipse fill="#ffefc8" cx="201" cy="109" rx="22" ry="8"/><ellipse fill="#9c8f82" rx="1" ry="1" transform="matrix(-126.887 -16.705 1.94575 -14.77943 71.6 87.9)"/><ellipse fill="#e5f8ff" rx="1" ry="1" transform="matrix(156.68648 -6.01929 1.77574 46.22372 161.5 21.7)"/><ellipse fill="#5d4b3b" rx="1" ry="1" transform="matrix(9.56952 -49.6938 10.05458 1.9362 226.5 106.6)"/><path fill="#fff" d="M25.4 158.7l16 .6-.8 20-16-.6z"/><path fill="#58503e" d="M-16 102l92 83 1-121z"/><ellipse fill="#b6d6ef" cx="25" cy="61" rx="45" ry="20"/><path fill="#220f01" d="M183 79h19v11h-19z"/><ellipse fill="#c6c4b7" rx="1" ry="1" transform="matrix(6.7759 4.77787 -16.8746 23.9313 85.7 93.7)"/><ellipse fill="#403e2f" cx="112" cy="169" rx="62" ry="62"/><path fill="#fae6ba" d="M232 91l-2 12h-19z"/><path fill="#def3ff" d="M262.7 59.1l-1.5 29-22-1.2 1.6-29z"/><path fill="#000300" d="M187.8 174.4l73.3-39 15 28.2-73.2 39z"/><ellipse fill="#453e37" rx="1" ry="1" transform="matrix(-19.7745 -25.24164 7.86103 -6.1584 244.9 102.7)"/><path fill="#d9b594" d="M183 103h30v25h-30z"/><ellipse fill="#ecf3ff" rx="1" ry="1" transform="rotate(-82.9 110.1 -105.9) scale(36.00332 168.25061)"/><ellipse fill="#b9cbdb" rx="1" ry="1" transform="matrix(-44.42867 -2.42101 .6947 -12.74856 118.3 69.5)"/><path fill="#c3997e" d="M38 94h45v9H38z"/></g></svg>