<svg xmlns="http://www.w3.org/2000/svg" viewBox="0 0 700 467"><filter id="b"><feGaussianBlur stdDeviation="12" /></filter><path fill="#27543e" d="M0 0h700v464H0z"/><g filter="url(#b)" transform="translate(1.4 1.4) scale(2.73438)" fill-opacity=".5"><ellipse fill="#ccffd2" cx="157" cy="89" rx="170" ry="23"/><ellipse cx="51" cy="150" rx="231" ry="38"/><ellipse rx="1" ry="1" transform="rotate(101 -2.3 23.7) scale(56.77734 27.72218)"/><ellipse fill="#008156" cx="158" cy="25" rx="109" ry="43"/><path fill="#fff8d5" d="M78 102l-69 2 50-39z"/><path fill="#5fb988" d="M159 101h97v23h-97z"/><path d="M42 97l229 74-287-3z"/><ellipse fill="#256124" cx="249" cy="82" rx="55" ry="15"/><ellipse rx="1" ry="1" transform="rotate(67.2 -9.2 31.1) scale(37.12703 25.86061)"/><path d="M143 88l-80 74 40 19z"/><ellipse fill="#d0fff6" rx="1" ry="1" transform="rotate(88 45 120.6) scale(5.78587 55.51351)"/><path d="M145 78h43v7h-43z"/><path fill="azure" d="M162 98.7L144.3 116l-1.6-33.8L165 93z"/><ellipse fill="#002a0b" cx="192" cy="56" rx="224" ry="8"/><path fill="#ffffe4" d="M53 80h20v28H53z"/><ellipse fill="#001400" rx="1" ry="1" transform="matrix(-26.50116 5.82666 -.88445 -4.0227 104 66.7)"/><path fill="#c6f4e6" d="M210 121l22 1-6-37z"/><ellipse fill="#b0b062" cx="16" cy="78" rx="5" ry="22"/><ellipse fill="#fed28a" cx="37" cy="79" rx="5" ry="22"/><path fill="#009c71" d="M128.4 90.2L131 106l-49.3 7.8L79 98z"/><path d="M271 156L1 185l-11-85z"/><path fill="#060000" d="M233 109h15v13h-15z"/></g></svg>