<svg xmlns="http://www.w3.org/2000/svg" viewBox="0 0 200 133"><filter id="b"><feGaussianBlur stdDeviation="12" /></filter><path fill="#51555c" d="M0 0h200v133H0z"/><g filter="url(#b)" transform="translate(.5 .5)" fill-opacity=".5"><ellipse fill="#b3c9e1" rx="1" ry="1" transform="matrix(6.44053 -40.39096 54.08544 8.62419 24 69.3)"/><ellipse rx="1" ry="1" transform="matrix(41.7721 37.60902 -41.72126 46.33955 139.7 110.8)"/><path fill="#848e9b" d="M118.1-3.6L91.4 74-20 35.6 6.6-42z"/><ellipse fill="#463e39" rx="1" ry="1" transform="matrix(32.75158 -5.51996 16.81782 99.78522 180.1 39.8)"/><path fill="#eff" d="M92 45L82 83l12 9z"/><ellipse rx="1" ry="1" transform="rotate(16.4 -187 465.3) scale(28.95873 16.08786)"/><path fill="#d4e1f3" d="M-42.3 52.2l66.6-95 18 12.6-66.6 95z"/><path d="M75 67l2 36 10-47z"/><ellipse fill="#595b5f" rx="1" ry="1" transform="rotate(-29.8 109 -126.6) scale(59.30079 12.25513)"/><ellipse fill="#a1adbe" cx="5" cy="93" rx="67" ry="19"/><ellipse fill="#00030d" rx="1" ry="1" transform="matrix(28.17097 -10.9834 12.1981 31.2865 129.4 90.4)"/><ellipse fill="#ffbc92" rx="1" ry="1" transform="matrix(1.14566 -11.21418 6.24588 .63809 131.7 46.7)"/><ellipse fill="#2a2622" cx="35" cy="125" rx="41" ry="15"/><path fill="#646a76" d="M186 90.4l-26.7 3.8-5.4-38.6 26.8-3.8z"/><path fill="#cfa191" d="M126.8 101.8l16.6-1.5-2.5 1.3L126 87.4z"/><path fill="#f5b193" d="M87 34h10v26H87z"/><ellipse fill="#241e17" rx="1" ry="1" transform="matrix(-11.1212 -2.78566 5.06773 -20.23192 150.2 39.6)"/><ellipse fill="#8a95a7" rx="1" ry="1" transform="matrix(3.13447 -8.60603 58.12161 21.16893 71.9 2.5)"/><ellipse fill="#55463c" rx="1" ry="1" transform="matrix(.58543 13.75943 -21.86725 .9304 99.4 37)"/><ellipse fill="#3e3835" rx="1" ry="1" transform="rotate(-172.3 97 21.1) scale(19.00824 31.87994)"/><path fill="#141415" d="M79 40h6v39h-6z"/><ellipse fill="#232323" cx="53" cy="113" rx="25" ry="6"/></g></svg>