<svg xmlns="http://www.w3.org/2000/svg" viewBox="0 0 200 133"><filter id="b"><feGaussianBlur stdDeviation="12" /></filter><path fill="#434655" d="M0 0h200v133H0z"/><g filter="url(#b)" transform="translate(.5 .5)" fill-opacity=".5"><ellipse fill="#b0f9ff" cx="98" cy="47" rx="24" ry="24"/><path fill="#ffbc9b" d="M198.5 96.8l-12.3 24-34.7-17.6 12.3-24z"/><ellipse fill="#fff" rx="1" ry="1" transform="matrix(-5.74177 -4.2954 9.54028 -12.75275 76.8 103)"/><ellipse fill="#00286a" rx="1" ry="1" transform="matrix(-37.69984 -5.88417 7.17735 -45.98526 23.2 36.1)"/><ellipse fill="#002e71" rx="1" ry="1" transform="rotate(8.2 -36.2 1234.3) scale(40.65528 62.4132)"/><path fill="#ec6248" d="M5 87h49v27H5z"/><ellipse fill="#3e0000" rx="1" ry="1" transform="matrix(18.05543 -12.28116 23.74638 34.9113 11.6 109.9)"/><ellipse fill="#641b06" rx="1" ry="1" transform="rotate(23.8 -156.9 324) scale(36.87179 22.22304)"/><path fill="#5cb4ff" d="M73 41h50v28H73z"/><path fill="#eff" d="M59 105.4l-17.2 10.3-6.7-11.1 17.1-10.3z"/><ellipse fill="#0065a8" cx="13" cy="14" rx="29" ry="26"/><path fill="#220600" d="M152 143l-54-27.5 78.6-.5 6.4 4z"/><ellipse fill="#0f6fb2" rx="1" ry="1" transform="matrix(-11.4028 -18.2483 21.2006 -13.24761 183.7 15)"/><ellipse fill="#ff0010" cx="13" cy="103" rx="14" ry="7"/><path fill="#730000" d="M40 68h88v13H40z"/><ellipse fill="#001730" cx="36" cy="61" rx="24" ry="28"/><path fill="#001031" d="M137 45h54v37h-54z"/><ellipse fill="#131a19" cx="55" cy="85" rx="5" ry="155"/><ellipse fill="#ffe4c2" cx="80" cy="97" rx="5" ry="19"/><path fill="#c3f1ff" d="M128 84h14v9h-14z"/><path fill="#8b552a" d="M92.6 156.2l-9.9-56.1 24.7-4.3 9.9 56.1z"/><path fill="#e5cbb4" d="M85 21h29v15H85z"/></g></svg>