<svg xmlns="http://www.w3.org/2000/svg" viewBox="0 0 700 467"><filter id="b"><feGaussianBlur stdDeviation="12" /></filter><path fill="#78626c" d="M0 0h700v464H0z"/><g filter="url(#b)" transform="translate(1.4 1.4) scale(2.73438)" fill-opacity=".5"><ellipse fill="#fff" cx="215" cy="51" rx="67" ry="67"/><ellipse fill="#e00000" cx="212" cy="151" rx="124" ry="38"/><ellipse fill="#000e5a" cx="38" cy="52" rx="43" ry="234"/><ellipse fill="#5f0000" cx="129" cy="100" rx="24" ry="249"/><ellipse fill="#fff" cx="217" cy="51" rx="64" ry="64"/><ellipse fill="#fff" cx="178" cy="97" rx="30" ry="18"/><ellipse fill="#002b5e" rx="1" ry="1" transform="matrix(58.25455 1.22161 -2.20204 105.00798 21.8 52)"/><ellipse fill="#000012" cx="140" cy="38" rx="13" ry="89"/><ellipse fill="#e50000" cx="116" cy="124" rx="12" ry="145"/><ellipse fill="#b00" cx="198" cy="145" rx="98" ry="33"/><path fill="#fff" d="M14 153l8 32 13-26z"/><ellipse fill="#00182c" cx="76" cy="163" rx="35" ry="17"/><ellipse fill="#dcfeff" cx="171" cy="29" rx="17" ry="86"/><ellipse fill="#fff" cx="245" cy="89" rx="43" ry="25"/><ellipse fill="#00305e" cx="40" cy="16" rx="42" ry="145"/><path fill="#ebfeff" d="M151 67h86v47h-86z"/><ellipse fill="#79a292" rx="1" ry="1" transform="matrix(17.37928 -2.25717 3.6636 28.2082 84 122.8)"/><ellipse fill="#8ba596" rx="1" ry="1" transform="matrix(-9.80597 -.58258 6.9901 -117.65674 98.5 35.7)"/><path fill="#20cd27" d="M213.8 33.7l-15.6 9-6-10.4 15.6-9z"/><path fill="#004685" d="M143 158h19v12h-19z"/><ellipse fill="#004b85" rx="1" ry="1" transform="matrix(-19.3348 -27.1396 45.55233 -32.45239 12.9 121.4)"/><path fill="#00121d" d="M123 127l30-50-20-93z"/></g></svg>