<svg xmlns="http://www.w3.org/2000/svg" viewBox="0 0 200 133"><filter id="b"><feGaussianBlur stdDeviation="12" /></filter><path fill="#6b645a" d="M0 0h200v133H0z"/><g filter="url(#b)" transform="translate(.5 .5)" fill-opacity=".5"><ellipse fill="#d2f3ff" rx="1" ry="1" transform="matrix(-6.35226 45.48873 -80.16408 -11.1945 107 132)"/><ellipse fill="#231515" rx="1" ry="1" transform="matrix(55.72517 -42.91416 26.19535 34.01536 158.8 50.7)"/><ellipse fill="#0b0000" rx="1" ry="1" transform="rotate(87.9 -9.7 36) scale(56.55839 17.47324)"/><ellipse fill="#ceeeff" rx="1" ry="1" transform="rotate(-167.2 84 46.3) scale(16.29712 32.95354)"/><path d="M120 129.6L114.3 99l13.7-2.7 6 30.5z"/><ellipse fill="#d3f4ff" cx="49" cy="119" rx="15" ry="40"/><ellipse fill="#5a5264" rx="1" ry="1" transform="matrix(10.92998 -3.34163 14.4002 47.10093 64.5 85.7)"/><ellipse fill="#e9ffff" rx="1" ry="1" transform="matrix(-6.33268 -39.53624 17.48997 -2.80144 104.2 132)"/><path fill="#c3a983" d="M172 60.6l-26.2-9.4L122.5-16l35.8 42.8z"/><ellipse fill="#0e0000" rx="1" ry="1" transform="rotate(-98 62 -45.8) scale(20.27135 12.36196)"/><path fill="#110800" d="M189 75.3l-52.6-87.4L175-35.3l52.6 87.4z"/><ellipse fill="#ffe987" rx="1" ry="1" transform="rotate(53.7 35.1 93) scale(16.11892 10.10802)"/><path fill="#b5a8a2" d="M33 38h28v20H33z"/><ellipse fill="#825e12" cx="61" cy="16" rx="25" ry="25"/><path fill="#51525c" d="M72.5 118L51 91.4 77.5 70 99 96.5z"/><path fill="#dbd8b2" d="M-11.4 119.8l48-1.6.8 26-48 1.6z"/><ellipse fill="#fff" cx="104" cy="86" rx="6" ry="6"/><path fill="#f8ffff" d="M142.3 105.3l16-10.3 41.4 63.7-16 10.3z"/><ellipse fill="#ffceb9" rx="1" ry="1" transform="rotate(-179.5 57.7 20.2) scale(4.50445 10.3496)"/><path fill="#070200" d="M61 41.3l6.3 37 4.2-48.2-22.8 7.1z"/><path fill="#00003a" d="M94 56h24v27H94z"/><path fill="#939998" d="M67.6 88.6l7-50.5 23.8 3.3-7 50.5z"/></g></svg>