<svg xmlns="http://www.w3.org/2000/svg" viewBox="0 0 641 195"><filter id="b"><feGaussianBlur stdDeviation="12" /></filter><path fill="#4b3b24" d="M0 0h641v192H0z"/><g filter="url(#b)" transform="translate(1.3 1.3) scale(2.5039)" fill-opacity=".5"><ellipse fill="#fff" rx="1" ry="1" transform="matrix(-8.6019 13.30437 -18.1425 -11.72999 177.2 29.7)"/><path fill="#fffafb" d="M54.4 29.5l23.2 11.8-24 47.2-23.2-11.8z"/><ellipse fill="#100" cx="118" cy="49" rx="49" ry="49"/><ellipse fill="#f7dda4" rx="1" ry="1" transform="matrix(8.87063 -20.69672 9.22837 3.95528 4.6 38.6)"/><ellipse fill="#000001" rx="1" ry="1" transform="matrix(88.83889 -56.16161 10.5631 16.70917 190.7 76)"/><path d="M55 56L-9 84l55-54z"/><path fill="#ffc" d="M187.5 51.1l-37.9-35.3 3.9-2.7 38 5z"/><path fill="#ffe9e0" d="M25.5 92.1L19 74.3l39.5-14.4L65 77.7z"/><ellipse fill="#b3831c" rx="1" ry="1" transform="matrix(2.67961 34.8247 -8.59935 .66168 19.6 26.8)"/><ellipse fill="#0c0500" cx="236" rx="38" ry="28"/><path fill="#fff" d="M67.4 57.3L59.2 61 46.6 32.7l8.2-3.7z"/><path d="M74 59h174v18H74z"/><ellipse fill="#412600" cx="93" cy="19" rx="35" ry="35"/><path fill="#070000" d="M58.8 73.1L105 37.5l74.9 53-152.1-8.9z"/><path fill="#ada699" d="M185.1 33.6l30.2-3 .8 17.9L215 45z"/><path fill="#e2bf7a" d="M251.6 83.2L250 65.8l21-67.7-11.4 54.6z"/><path fill="#00020f" d="M66.4 39.1L44.7 19.4 70.3 8.2l12 8.8z"/><path fill="#e6e8de" d="M33.2 80.4l43.6-15.2L52 61l27.4-20.2z"/><path fill="#f0eff0" d="M6.6 53.4l1-23.8L-16 45.1l15.4 8.4z"/><path fill="#976316" d="M70 31h20v24H70z"/><ellipse fill="#71522c" rx="1" ry="1" transform="matrix(-3.57038 -9.30117 15.0507 -5.77743 164 51.9)"/><path fill="#fff" d="M18 74h30v3H18z"/></g></svg>