<svg xmlns="http://www.w3.org/2000/svg" viewBox="0 0 312 195"><filter id="b"><feGaussianBlur stdDeviation="12" /></filter><path fill="#6f1a1e" d="M0 0h312v195H0z"/><g filter="url(#b)" transform="translate(.6 .6) scale(1.21875)" fill-opacity=".5"><ellipse fill="#94deff" cx="110" cy="36" rx="16" ry="33"/><ellipse fill="#ff0919" cx="146" cy="159" rx="84" ry="84"/><ellipse rx="1" ry="1" transform="matrix(55.63312 -.5061 .83458 91.7416 15.1 53)"/><ellipse fill="#f95022" cx="47" cy="82" rx="35" ry="10"/><ellipse rx="1" ry="1" transform="matrix(-2.1542 21.97016 -55.32365 -5.42453 207.9 -.1)"/><ellipse fill="#ff001b" rx="1" ry="1" transform="matrix(-77.56467 4.32246 -.71138 -12.7654 61.6 159)"/><ellipse fill="#ff066b" rx="1" ry="1" transform="matrix(-45.7639 14.34154 -3.9714 -12.67274 255 134.6)"/><path fill="#000902" d="M75.3 128.3L88 62.5l16.7 3.2L92 131.5z"/><ellipse fill="#7f824e" rx="1" ry="1" transform="matrix(-44.33667 -19.59668 6.05303 -13.69474 227.7 39.2)"/><ellipse fill="#051f2d" rx="1" ry="1" transform="rotate(28.7 -6 317.4) scale(32.58909 25.9436)"/><ellipse fill="#121812" cx="232" cy="94" rx="31" ry="31"/><ellipse fill="#c35a44" rx="1" ry="1" transform="matrix(36.5652 -4.74899 1.99632 15.3708 171.9 86.2)"/><ellipse fill="#1b212a" rx="1" ry="1" transform="matrix(20.5144 -4.73905 11.61823 50.29295 76 32.3)"/><path d="M164 89h17v27h-17z"/><path fill="#e8eee5" d="M109 15h10v46h-10z"/><ellipse rx="1" ry="1" transform="matrix(28.90097 -22.66814 12.46733 15.89534 28.6 111)"/><ellipse fill="#3d559d" rx="1" ry="1" transform="rotate(-143.2 54.6 -11.2) scale(23.70547 16.17207)"/><ellipse fill="#ff00a2" cx="162" cy="153" rx="15" ry="10"/><path fill="#141212" d="M123.4 125.7l5.4-88.4-.1 48.7 10.5 7.3z"/><ellipse fill="#a2423b" cx="109" cy="76" rx="24" ry="18"/><ellipse rx="1" ry="1" transform="matrix(15.00963 1.47033 -8.44876 86.24787 10 23.8)"/><ellipse fill="#df0000" cx="66" cy="140" rx="14" ry="42"/></g></svg>