<svg xmlns="http://www.w3.org/2000/svg" viewBox="0 0 313 195"><filter id="b"><feGaussianBlur stdDeviation="12" /></filter><path fill="#434754" d="M0 0h313v194H0z"/><g filter="url(#b)" transform="translate(.6 .6) scale(1.22266)" fill-opacity=".5"><ellipse fill="#aefbff" rx="1" ry="1" transform="rotate(9.4 -263.2 803.3) scale(32.0368 28.64828)"/><ellipse fill="#ffc3a8" cx="223" cy="125" rx="31" ry="17"/><path fill="#ddbb97" d="M47 107h68v35H47z"/><ellipse fill="#001746" rx="1" ry="1" transform="matrix(-6.37843 57.86092 -27.69186 -3.05267 49.2 53.5)"/><ellipse fill="#002e68" cx="233" cy="37" rx="61" ry="61"/><path fill="red" d="M0 118h34v23H0z"/><ellipse fill="#650300" rx="1" ry="1" transform="matrix(-10.27935 17.35585 -32.89627 -19.48347 136 105.9)"/><path fill="#190800" d="M78.4 99.8l17.5 7.4-24.3 57-17.5-7.4z"/><ellipse fill="#005395" rx="1" ry="1" transform="rotate(162.5 9.1 15.2) scale(39.50507 32.83611)"/><ellipse cx="18" cy="152" rx="48" ry="13"/><path fill="#fffff8" d="M105.9 142.3l-29-20.5 14.6 3.6 17-29.4z"/><path fill="#fff" d="M47 124h17v16H47z"/><path fill="#62c1ff" d="M95 45h62v35H95z"/><ellipse fill="#000d19" cx="187" cy="81" rx="11" ry="54"/><ellipse fill="#351b08" cx="167" cy="156" rx="178" ry="15"/><ellipse fill="#0c6ba4" rx="1" ry="1" transform="rotate(-143.9 121 -28.7) scale(32.4395 28.67839)"/><ellipse fill="#8f0600" cx="122" cy="90" rx="52" ry="10"/><ellipse fill="#001b37" cx="26" cy="70" rx="52" ry="25"/><path fill="#080d00" d="M182.4 135.6L134 103.2l6.8 44.2 58.8-50.7z"/><path fill="#eef9ff" d="M186 115l-23-9 15-4z"/><path fill="#f2dbc3" d="M110 22h35v17h-35z"/><path fill="#9f0000" d="M158 38h7v61h-7z"/></g></svg>