<svg xmlns="http://www.w3.org/2000/svg" viewBox="0 0 200 133"><filter id="b"><feGaussianBlur stdDeviation="12" /></filter><path fill="#25264b" d="M0 0h200v133H0z"/><g filter="url(#b)" transform="translate(.5 .5)" fill-opacity=".5"><ellipse fill="#716cf4" rx="1" ry="1" transform="matrix(16.2824 -15.5598 36.07246 37.74767 133 55.7)"/><ellipse fill="#b4ade8" rx="1" ry="1" transform="matrix(1.39732 23.5196 -15.95413 .94785 95.8 99.1)"/><ellipse rx="1" ry="1" transform="matrix(-14.87639 -24.27606 139.72882 -85.62593 20.4 26.4)"/><ellipse fill="#e2ffff" rx="1" ry="1" transform="matrix(2.79494 -15.718 7.10075 1.26264 43.3 82)"/><path fill="#615ee7" d="M60 21h104v28H60z"/><ellipse rx="1" ry="1" transform="matrix(-9.7816 -134.92276 29.2925 -2.12364 190.6 13)"/><ellipse cx="104" cy="128" rx="199" ry="7"/><ellipse cx="111" cy="8" rx="199" ry="11"/><path fill="#8ad1ff" d="M8 64h11v29H8z"/><path fill="#e6ffff" d="M159.4 96.3l-3.3-33.4 15.4 22.2-3.1 17.3z"/><path fill="#00000b" d="M47 97h58v15H47z"/><path fill="#f9e2ff" d="M91.3 81.1l10.8 3.7 11.9 17-23.3-2.5z"/><ellipse fill="#7f98ff" cx="141" cy="73" rx="5" ry="31"/><path fill="#d7ece2" d="M122.2 113l-.5 10-36-2 .6-10z"/><ellipse fill="#030037" cx="110" cy="61" rx="15" ry="15"/><ellipse rx="1" ry="1" transform="matrix(4.43756 -.22236 1.28179 25.58072 152.8 88.8)"/><path fill="#8ea99a" d="M139.1 122.7l38.3-.5.7-20.1-31 20z"/><path fill="#15125c" d="M47 44h38v59H47z"/><ellipse rx="1" ry="1" transform="rotate(-164.8 19.4 35.5) scale(7.56824 36.64106)"/><path d="M35 35L3-16l-19 119z"/><path fill="#020000" d="M157.3 117l-24.7 34-21.9-16 24.7-34z"/><path fill="#94d0ff" d="M19 81l-9-8 13-12z"/></g></svg>