<svg xmlns="http://www.w3.org/2000/svg" viewBox="0 0 200 133"><filter id="b"><feGaussianBlur stdDeviation="12" /></filter><path fill="#6c5a4f" d="M0 0h200v133H0z"/><g filter="url(#b)" transform="translate(.5 .5)" fill-opacity=".5"><ellipse fill="#f4e0cc" rx="1" ry="1" transform="rotate(67.5 -41.2 92.8) scale(24.06063 83.3514)"/><ellipse fill="#ffffe6" rx="1" ry="1" transform="matrix(-23.5547 52.4116 -23.52494 -10.57253 191.8 112.9)"/><ellipse rx="1" ry="1" transform="matrix(9.7113 15.30256 -58.9362 37.40204 122.3 108.4)"/><ellipse cx="73" rx="54" ry="54"/><ellipse cx="165" cy="20" rx="17" ry="32"/><path fill="#fbbea1" d="M70 41h22v55H70z"/><ellipse fill="#ffe4b8" cx="53" cy="7" rx="5" ry="55"/><ellipse cx="38" cy="34" rx="11" ry="52"/><ellipse fill="#ffe3b2" cx="4" cy="5" rx="14" ry="27"/><ellipse fill="#1f0000" cx="126" cy="122" rx="31" ry="31"/><ellipse fill="#cac3b6" cx="45" cy="105" rx="29" ry="29"/><ellipse fill="#090406" rx="1" ry="1" transform="rotate(-102.1 63.3 -29.7) scale(27.77323 21.63514)"/><ellipse fill="#caa672" cx="137" cy="20" rx="11" ry="60"/><ellipse fill="#3b1411" cx="8" cy="127" rx="24" ry="6"/><ellipse fill="#be0e32" rx="1" ry="1" transform="matrix(9.15635 -1.23799 1.75672 12.993 72.3 64.7)"/><path fill="#f8e5e2" d="M191 111l-43 35 40-86z"/><path fill="#160000" d="M61.1 132.6l95-67.1L179 79l-22 49z"/><ellipse fill="#000003" cx="2" cy="75" rx="12" ry="15"/><path fill="#475422" d="M192 70h8v32h-8z"/><path fill="#6f4c08" d="M178 124.6l7-12 20.8 18-31-3.5z"/><ellipse fill="#b59c8c" cx="177" cy="62" rx="90" ry="6"/><ellipse cx="33" cy="30" rx="11" ry="21"/></g></svg>