<svg xmlns="http://www.w3.org/2000/svg" viewBox="0 0 200 133"><filter id="b"><feGaussianBlur stdDeviation="12" /></filter><path fill="#572f31" d="M0 0h200v133H0z"/><g filter="url(#b)" transform="translate(.5 .5)" fill-opacity=".5"><path fill="#fff" d="M120.5 70.5l13.4 68.7-32.4 6.3L88 76.8z"/><path fill="#55b1d8" d="M11 30h55v40H11z"/><ellipse fill="#570000" cx="156" cy="89" rx="34" ry="77"/><ellipse fill="#d40600" cx="46" cy="127" rx="47" ry="36"/><ellipse fill="#000410" cx="75" cy="17" rx="25" ry="81"/><ellipse fill="#f6feff" cx="103" cy="98" rx="10" ry="50"/><ellipse fill="#fca157" cx="23" cy="77" rx="12" ry="37"/><path fill="#a5d4fd" d="M105 14h31v22h-31z"/><ellipse fill="#000002" cx="139" cy="54" rx="33" ry="26"/><ellipse fill="#00010a" rx="1" ry="1" transform="matrix(-2.06898 -23.00928 138.35016 -12.44033 46.7 0)"/><ellipse fill="#a10000" cx="163" cy="110" rx="38" ry="38"/><ellipse fill="#005ea9" rx="1" ry="1" transform="matrix(16.82025 -1.93582 3.55696 30.9063 45 46)"/><ellipse rx="1" ry="1" transform="matrix(-7.67768 7.5729 -14.3257 -14.5239 142.5 13.2)"/><path fill="#f5ac5a" d="M35 77l24 10-28 21z"/><ellipse rx="1" ry="1" transform="matrix(-13.18715 .40263 -2.26261 -74.10537 0 45.8)"/><path fill="#eda373" d="M5.6 60.2l16.3-44.4 4.1 36 22.1 48z"/><path fill="#daecf4" d="M89 85l9 42 42-6z"/><path fill="#af6f58" d="M60.1 13.2l15.2 75.3-20.2-60.3-19.8-11.6z"/><path fill="#000001" d="M80 95.4l-27.1 6.8.3-36.1 47.9-.4z"/><ellipse fill="#8d0000" rx="1" ry="1" transform="matrix(2.13537 38.40481 -20.1133 1.11833 78.3 132)"/><ellipse fill="#ab0000" rx="1" ry="1" transform="rotate(161.2 83.4 36.8) scale(7.2573 91.47495)"/><path fill="#59797a" d="M162.8-16l23.6 71.1 28.6-3.5-34-58.4z"/></g></svg>