<svg xmlns="http://www.w3.org/2000/svg" viewBox="0 0 200 133"><filter id="b"><feGaussianBlur stdDeviation="12" /></filter><path fill="#0b1d07" d="M0 0h200v133H0z"/><g filter="url(#b)" transform="translate(.5 .5)" fill-opacity=".5"><ellipse fill="#f4ffd4" cx="124" cy="56" rx="16" ry="15"/><path fill="#81ef70" d="M109 66l13-30 48 20z"/><ellipse fill="#58ee15" cx="38" rx="28" ry="9"/><path fill="#fff" d="M114 65l30 7-12-15z"/><path fill="#cdebf1" d="M242.9 85l-96-31.1.2-1 96 31.2z"/><path fill="#000900" d="M215 96l-85-55 40 107z"/><path fill="#dee8c8" d="M89.4 63l-1 .5-3.3 4.5-18.4-15.3z"/><ellipse cx="174" cy="22" rx="34" ry="34"/><ellipse fill="#008600" cx="130" cy="82" rx="13" ry="14"/><ellipse fill="#000400" cx="32" cy="38" rx="94" ry="23"/><ellipse fill="#050000" cx="51" cy="125" rx="151" ry="40"/><path fill="#fff" d="M135.1 62.8l-5 .4-1.2-18 5-.4z"/><path fill="#077703" d="M103.7 34.4l2.8 39.1 12.9-31.7 12.4-8.3z"/><ellipse fill="#289220" cx="111" cy="5" rx="8" ry="8"/><path fill="#aba79e" d="M185 69l-11-9 29 10z"/><ellipse fill="#1e2f04" rx="1" ry="1" transform="matrix(-30.16934 15.8335 -8.54378 -16.27942 76.2 99.4)"/><path fill="#000100" d="M203.1 79l-17.9-21L93 17.2 215-16z"/><path fill="#006202" d="M120.3 69.3L79.1 81.8l52.1 9 29.6-17.6z"/><path fill="#e2fff1" d="M130 54.3L142.4 72 124 67l-7.1 2.3z"/><path fill="#006c1a" d="M127 29l14 18 1 26z"/><path fill="#5fd816" d="M121 40h8v17h-8z"/><path fill="#7aff05" d="M28-6l49 2-24 7z"/></g></svg>