<svg xmlns="http://www.w3.org/2000/svg" viewBox="0 0 200 133"><filter id="b"><feGaussianBlur stdDeviation="12" /></filter><path fill="#675a4c" d="M0 0h200v133H0z"/><g filter="url(#b)" transform="translate(.5 .5)" fill-opacity=".5"><ellipse cx="53" cy="6" rx="34" ry="34"/><ellipse fill="#fee36f" rx="1" ry="1" transform="matrix(-9.86053 90.87774 -12.74417 -1.38278 6.4 93.4)"/><path fill="#cce4c4" d="M74 52h126v21H74z"/><ellipse rx="1" ry="1" transform="matrix(8.2392 -31.85863 33.67251 8.7083 175.3 0)"/><ellipse cx="40" cy="97" rx="18" ry="20"/><ellipse fill="#ffced4" cx="93" cy="132" rx="96" ry="7"/><ellipse fill="#ebc089" cx="161" cy="98" rx="7" ry="70"/><path fill="#c7c7dd" d="M120 48h18v50h-18z"/><ellipse fill="#1a222a" cx="97" cy="100" rx="25" ry="25"/><ellipse fill="#ffdab4" cx="67" cy="100" rx="9" ry="9"/><path fill="#0b0000" d="M195 85.6l29.5 25.6-23.6 27.2-29.4-25.6z"/><ellipse fill="#00000c" cx="175" cy="58" rx="4" ry="34"/><ellipse fill="#dbb600" rx="1" ry="1" transform="matrix(-7.42342 -22.778 17.17194 -5.59638 5.1 89.7)"/><ellipse fill="#140000" cx="43" cy="22" rx="23" ry="26"/><path fill="#fb7542" d="M29 36h15v39H29z"/><ellipse fill="#156e99" rx="1" ry="1" transform="matrix(33.94178 -4.5605 .85849 6.38933 88.8 54)"/><ellipse fill="#000415" rx="1" ry="1" transform="rotate(-177.7 51 -1) scale(33.85287 11.23137)"/><path fill="#7392da" d="M6 0h15v42H6z"/><path fill="#100919" d="M139 71h14v53h-14z"/><ellipse fill="#003c61" cx="166" cy="52" rx="24" ry="4"/><ellipse fill="#5a2720" cx="69" cy="117" rx="89" ry="10"/><path fill="#f2a19f" d="M83 62L73 26l14 5z"/></g></svg>