<svg xmlns="http://www.w3.org/2000/svg" viewBox="0 0 200 133"><filter id="b"><feGaussianBlur stdDeviation="12" /></filter><path fill="#393638" d="M0 0h200v133H0z"/><g filter="url(#b)" transform="translate(.5 .5)" fill-opacity=".5"><ellipse fill="#928d89" cx="91" rx="62" ry="62"/><ellipse cx="157" cy="116" rx="46" ry="46"/><ellipse fill="#000002" cx="52" cy="132" rx="63" ry="63"/><path fill="#e2f7ff" d="M120 0h22v29h-22z"/><ellipse fill="#a58e83" rx="1" ry="1" transform="rotate(73 73.6 118.1) scale(40.82825 11.73987)"/><ellipse fill="#564e4a" cx="73" cy="49" rx="41" ry="41"/><path d="M0 17h9v83H0z"/><path fill="#646e7c" d="M-16 0l37 24 86-25z"/><path fill="#fff" d="M76 59l-1 13 7-14zm40-37l7-11 29 15z"/><ellipse fill="#121820" rx="1" ry="1" transform="matrix(-9.53864 -27.0945 7.1781 -2.52706 53.5 46.2)"/><path fill="#342e1d" d="M107.4.4l16.1 10-17 27.2-16-10z"/><ellipse fill="#e2ad8c" cx="74" cy="44" rx="7" ry="12"/><path fill="#dfca79" d="M125 88l-17 15 22-44z"/><ellipse fill="#000007" cx="185" cy="76" rx="7" ry="27"/><path fill="#b6bdd1" d="M193 37V24l-24 28z"/><ellipse fill="#00040d" rx="1" ry="1" transform="matrix(4.8935 -25.65263 12.46514 2.37785 133.6 93.1)"/><path fill="#947c70" d="M41.8 36l8.1 35.5-14.7-3.6L32 41.3z"/><path fill="#574034" d="M145 9h16v82h-16z"/><path fill="#738896" d="M147.8 17.4l-37-12 7.4-22.8 37 12z"/><ellipse fill="#0a1013" cx="84" cy="105" rx="29" ry="29"/><ellipse fill="#46ae92" cx="27" cy="104" rx="5" ry="8"/></g></svg>