<svg xmlns="http://www.w3.org/2000/svg" viewBox="0 0 700 467"><filter id="b"><feGaussianBlur stdDeviation="12" /></filter><path fill="#635b68" d="M0 0h700v464H0z"/><g filter="url(#b)" transform="translate(1.4 1.4) scale(2.73438)" fill-opacity=".5"><ellipse fill="#fffffc" cx="152" cy="12" rx="253" ry="38"/><ellipse fill="#0a0b23" rx="1" ry="1" transform="matrix(156.52677 -6.33996 2.54297 62.78318 133.4 123.5)"/><ellipse fill="#fff" cx="225" cy="11" rx="27" ry="14"/><ellipse fill="#fff" cx="99" cy="18" rx="20" ry="14"/><ellipse fill="#bc6f59" cx="93" cy="41" rx="102" ry="14"/><path fill="#fff" d="M145 12.3L182 40 185.2.4l-36.3 7z"/><ellipse fill="#fcffff" rx="1" ry="1" transform="matrix(-6.56793 -.77999 3.10623 -26.15622 32 22.8)"/><ellipse fill="#c26e63" cx="210" cy="65" rx="12" ry="40"/><ellipse fill="#f7ffff" rx="1" ry="1" transform="rotate(-81.9 15.3 13.3) scale(27.10422 16.22657)"/><ellipse fill="#87392c" cx="241" cy="43" rx="8" ry="23"/><path fill="#f3c3b0" d="M30 125.2l1.3-45.4 6.5 29.2-7.3 11.3z"/><ellipse fill="#b7611e" rx="1" ry="1" transform="matrix(-11.9828 3.4882 -5.62517 -19.32382 247.5 153.8)"/><ellipse fill="#1e4786" cx="191" cy="16" rx="5" ry="30"/><ellipse fill="#0b1d2e" rx="1" ry="1" transform="matrix(1.93307 -16.45546 162.0503 19.03653 141.9 169)"/><ellipse fill="#f3f4f2" rx="1" ry="1" transform="matrix(-8.8203 -.47122 1.14987 -21.52318 200.6 33.7)"/><ellipse fill="#6b3d50" cx="169" cy="69" rx="32" ry="32"/><path fill="#fffffd" d="M216 57l8-73 10 63z"/><ellipse fill="#fff" rx="1" ry="1" transform="matrix(-6.52021 -28.87334 5.86779 -1.32507 128.8 0)"/><path fill="#204d8c" d="M17 0h12v24H17z"/><path fill="#3f5078" d="M25.2 20.5l-40.7 5.8L17.6 33l1.6-49z"/><ellipse fill="#fff" cx="110" cy="26" rx="10" ry="10"/><ellipse fill="#0f3777" cx="45" rx="6" ry="26"/></g></svg>