<svg xmlns="http://www.w3.org/2000/svg" viewBox="0 0 700 467"><filter id="b"><feGaussianBlur stdDeviation="12" /></filter><path fill="#9c8371" d="M0 0h700v464H0z"/><g filter="url(#b)" transform="translate(1.4 1.4) scale(2.73438)" fill-opacity=".5"><ellipse cx="201" cy="169" rx="78" ry="78"/><ellipse fill="#fff8e1" cx="87" rx="95" ry="95"/><ellipse fill="#0c0001" cx="104" cy="90" rx="27" ry="27"/><ellipse rx="1" ry="1" transform="matrix(-18.97619 -2.344 6.6073 -53.49022 20.4 129)"/><ellipse fill="#ffffe5" rx="1" ry="1" transform="matrix(-16.7614 -56.17626 26.73502 -7.97697 210 34.2)"/><ellipse fill="#140003" rx="1" ry="1" transform="matrix(-1.20074 -20.0936 77.12055 -4.6085 73.5 169)"/><ellipse fill="#ff89f7" rx="1" ry="1" transform="rotate(-173.3 48 59.2) scale(14.75925 34.3018)"/><ellipse rx="1" ry="1" transform="rotate(163 99 94.7) scale(33.55646 45.96567)"/><path d="M163 51l11 86-30-53zm103.3-22.2l-20.5 20.5-14.1-14.1 20.5-20.5z"/><ellipse fill="#ffe6ca" rx="1" ry="1" transform="rotate(-168.2 60.4 2.5) scale(121.65172 30.02437)"/><path fill="ivory" d="M81 34L-8 95l-5-53z"/><path fill="#fff5ca" d="M52.1 123.4L32.6 66.7l29.3-10.1 19.5 56.7z"/><path d="M3 92h42v26H3zm178 6l16-52-17 9z"/><ellipse fill="#430026" rx="1" ry="1" transform="rotate(-150.1 61 28.4) scale(18.59567 26.68497)"/><ellipse fill="#cd6b28" cx="167" cy="150" rx="21" ry="17"/><ellipse fill="#ffecb9" cx="138" cy="85" rx="7" ry="47"/><path d="M55 134l26 19-25 32z"/><ellipse fill="#fff4d5" cx="173" cy="44" rx="9" ry="35"/><path fill="#ffe7c6" d="M251.5 15L212 43.6 192.6 17 232-11.7z"/><path fill="#ffa1ff" d="M84 120h36v18H84z"/></g></svg>