<svg xmlns="http://www.w3.org/2000/svg" viewBox="0 0 200 133"><filter id="b"><feGaussianBlur stdDeviation="12" /></filter><path fill="#8e8470" d="M0 0h200v133H0z"/><g filter="url(#b)" transform="translate(.5 .5)" fill-opacity=".5"><ellipse fill="#542200" cx="119" cy="109" rx="123" ry="31"/><ellipse fill="#fff" rx="1" ry="1" transform="matrix(26.52435 -9.97922 15.06844 40.05127 199 35.9)"/><ellipse fill="#c0d4d0" rx="1" ry="1" transform="rotate(170.3 36.6 15.7) scale(155.39608 37.01224)"/><ellipse fill="#ea6100" cx="79" cy="121" rx="30" ry="22"/><path fill="#d8f5ff" d="M51 111L37 88l14-51z"/><path fill="#041219" d="M154.1 122.8L178 79.9l42 23.3-23.8 42.9z"/><ellipse fill="#0d1c21" rx="1" ry="1" transform="matrix(-6.04423 6.94217 -31.74828 -27.64177 20.7 87.9)"/><ellipse fill="#75594b" rx="1" ry="1" transform="matrix(20.96516 -21.40892 20.29783 19.8771 97 68)"/><ellipse fill="#f5d7bf" rx="1" ry="1" transform="matrix(5.59836 14.8389 -6.63902 2.50474 154 101.3)"/><ellipse fill="#0f1517" rx="1" ry="1" transform="matrix(8.8353 -2.70245 10.70268 34.991 136.6 99.5)"/><path fill="#000009" d="M101 33h13v13h-13z"/><path fill="#cd7500" d="M98 76h27v31H98z"/><path fill="#b6eeff" d="M108.4 40.2l31.4-6 3.8 19.6-31.4 6z"/><ellipse fill="#f5fbfb" cx="190" cy="28" rx="20" ry="20"/><path fill="#f2ece7" d="M16 54h41v18H16z"/><path fill="red" d="M76 100h21v18H76z"/><ellipse fill="#000003" rx="1" ry="1" transform="matrix(-7.15953 -.42535 .39055 -6.57375 31.1 77.3)"/><path fill="#99cfd3" d="M76-16l8 70 68-67z"/><path fill="#ba9e00" d="M23 119h56v14H23z"/><path fill="#000006" d="M112.6 57l7.9 4.4L107.4 85l-7.9-4.4z"/><path fill="#52191f" d="M62 94l12-42 17-5z"/><ellipse fill="#b38f6a" cx="161" cy="37" rx="12" ry="48"/></g></svg>