<svg xmlns="http://www.w3.org/2000/svg" viewBox="0 0 700 467"><filter id="b"><feGaussianBlur stdDeviation="12" /></filter><path fill="#3f3929" d="M0 0h700v464H0z"/><g filter="url(#b)" transform="translate(1.4 1.4) scale(2.73438)" fill-opacity=".5"><ellipse fill="#e1c487" rx="1" ry="1" transform="rotate(177.8 61.4 12.1) scale(113.38539 30.65342)"/><ellipse fill="#000001" rx="1" ry="1" transform="matrix(12.90399 89.54748 -222.08674 32.00319 192 160.3)"/><ellipse fill="#02060c" rx="1" ry="1" transform="matrix(17.072 -13.2361 49.9367 64.40866 38.5 99.7)"/><path fill="#fff" d="M7 97.8l1 24-13 .4-1-24z"/><ellipse fill="#080705" rx="1" ry="1" transform="matrix(-12.90833 26.87098 -17.7236 -8.5141 104 68.6)"/><ellipse fill="#bf9d78" cx="49" cy="53" rx="25" ry="11"/><ellipse fill="#c7b487" cx="139" cy="25" rx="64" ry="16"/><path fill="#9b7545" d="M124.4 46.7l64.2 13-7.3 10.4-62.7 20.1z"/><path fill="#79643e" d="M187-16l38 98 33-72z"/><ellipse fill="#000208" cx="255" cy="112" rx="57" ry="57"/><ellipse fill="#735d2e" cx="24" cy="12" rx="28" ry="28"/><path fill="#251c11" d="M145 41h106v10H145z"/><ellipse fill="#5c7054" rx="1" ry="1" transform="matrix(.42792 6.25763 -45.20217 3.0911 182.4 168.5)"/><path fill="#f3f0f0" d="M58 39h12v14H58z"/><ellipse fill="#b2a176" cx="228" cy="34" rx="189" ry="7"/><ellipse fill="#9b8a62" cx="198" cy="43" rx="5" ry="34"/><path fill="#2d2b1f" d="M72.8 47.5l104.1 31.7-59.6 51L129.7 40z"/><ellipse fill="#141212" cx="54" cy="100" rx="15" ry="39"/><ellipse fill="#ffe466" cx="123" cy="83" rx="2" ry="19"/><ellipse fill="#fcfcff" cx="134" cy="49" rx="8" ry="4"/><ellipse fill="#af8065" cx="58" cy="113" rx="6" ry="6"/><ellipse fill="#000301" cx="43" cy="165" rx="34" ry="43"/></g></svg>