<svg xmlns="http://www.w3.org/2000/svg" viewBox="0 0 200 133"><filter id="b"><feGaussianBlur stdDeviation="12" /></filter><path fill="#3d4c82" d="M0 0h200v133H0z"/><g filter="url(#b)" transform="translate(.5 .5)" fill-opacity=".5"><ellipse fill="#ff1d14" rx="1" ry="1" transform="matrix(-6.88774 -28.5627 19.7205 -4.75549 85 99.2)"/><ellipse fill="#3a80fa" cx="129" cy="25" rx="112" ry="33"/><ellipse fill="#151700" cx="151" cy="130" rx="55" ry="55"/><ellipse fill="#080a00" rx="1" ry="1" transform="matrix(8.96954 51.9146 -42.11842 7.277 36.6 130.7)"/><path fill="#dbdae1" d="M27 41h23v36H27z"/><ellipse fill="#e9a863" cx="142" cy="61" rx="8" ry="32"/><ellipse fill="#1c56da" cx="11" cy="59" rx="24" ry="33"/><path fill="#c8efff" d="M89 8l7.6-23 31.8 19-17.8 22.4z"/><ellipse fill="#002e89" rx="1" ry="1" transform="matrix(-47.73368 -10.75725 5.49267 -24.37292 12.9 13.6)"/><ellipse fill="#f83649" cx="84" cy="101" rx="20" ry="27"/><ellipse fill="#8a99c4" rx="1" ry="1" transform="matrix(.2665 8.9794 -60.02787 1.78159 72.7 49)"/><ellipse fill="#0044c3" cx="181" cy="13" rx="55" ry="28"/><ellipse fill="#0e42cd" rx="1" ry="1" transform="matrix(8.36859 13.66278 -26.47102 16.21376 189.7 72.5)"/><path d="M164 92h25v41h-25z"/><ellipse fill="#484d3d" rx="1" ry="1" transform="matrix(-11.86796 -3.75245 9.88371 -31.25941 149.6 84.3)"/><path fill="#ffc062" d="M191 107h5v26h-5z"/><path fill="#b3ffff" d="M85 115h6v11h-6z"/><ellipse fill="#f9f7ed" rx="1" ry="1" transform="rotate(160 13.6 39.2) scale(13.32612 5.93758)"/><path fill="#dea477" d="M86.5 63.7l2.8 9.5-8.2 9.4-9.4-28.4z"/><path fill="#1e57db" d="M44.2 69l31.4-19.7v27.5l-12.8 1.6z"/><path fill="#1758f5" d="M93.9 56.4l22 9.8-7.8 17.4-22-9.8z"/><ellipse fill="#001f1c" cx="45" cy="106" rx="40" ry="5"/></g></svg>