<svg xmlns="http://www.w3.org/2000/svg" viewBox="0 0 200 133"><filter id="b"><feGaussianBlur stdDeviation="12" /></filter><path fill="#9e9fac" d="M0 0h200v133H0z"/><g filter="url(#b)" transform="translate(.5 .5)" fill-opacity=".5"><ellipse cx="100" cy="93" rx="33" ry="56"/><ellipse fill="#fff" rx="1" ry="1" transform="rotate(79.4 -14.9 43.8) scale(84.59423 38.40154)"/><ellipse fill="#fbffff" rx="1" ry="1" transform="matrix(-25.80187 2.59861 -4.90255 -48.67784 157 83.4)"/><ellipse cx="99" cy="96" rx="30" ry="30"/><ellipse fill="#001e90" rx="1" ry="1" transform="matrix(-21.85318 -19.9547 14.7612 -16.16557 143.4 6.8)"/><ellipse fill="#fdfff0" cx="199" cy="60" rx="8" ry="60"/><path fill="#000818" d="M70 141l49-51-48-51z"/><ellipse fill="#a38648" rx="1" ry="1" transform="rotate(71.3 22 69.7) scale(32.00152 10.49221)"/><path fill="#000002" d="M135 66l-16-31-7 53z"/><path fill="#d9ddf3" d="M181 31l-10 117-51-118z"/><path fill="#fff" d="M105 57h5v19h-5z"/><ellipse fill="#c290be" cx="132" cy="132" rx="26" ry="14"/><ellipse fill="#c1cbfc" rx="1" ry="1" transform="matrix(-19.51197 -7.49283 11.65617 -30.35365 50.7 93.2)"/><ellipse fill="#c0a599" rx="1" ry="1" transform="rotate(-135.5 59 -5.4) scale(23.56059 15.12224)"/><ellipse fill="#e6ebeb" rx="1" ry="1" transform="rotate(25.2 -75.8 85.2) scale(46.38997 26.08011)"/><path fill="#384f9f" d="M117 0h51v30h-51z"/><path fill="#3c548d" d="M166.7 50.6l2.2-13L154.2-.9l-14.1 17z"/><path fill="#a299a9" d="M135.3 96.9l-1.8 12.9-18.8-2.7 1.8-12.9z"/><path fill="#d68144" d="M74 123h16v10H74z"/><ellipse fill="#cad2cd" cx="176" cy="28" rx="10" ry="45"/><path fill="#f3dfba" d="M96 0h20v25H96z"/><ellipse fill="#030c14" rx="1" ry="1" transform="rotate(-21.2 309.2 -242) scale(31.79954 7.13064)"/></g></svg>