<svg xmlns="http://www.w3.org/2000/svg" viewBox="0 0 700 467"><filter id="b"><feGaussianBlur stdDeviation="12" /></filter><path fill="#424928" d="M0 0h700v464H0z"/><g filter="url(#b)" transform="translate(1.4 1.4) scale(2.73438)" fill-opacity=".5"><ellipse fill="#e3e2fe" rx="1" ry="1" transform="matrix(-17.61397 26.25087 -12.8949 -8.6523 122.8 114.5)"/><ellipse fill="#fff" cx="126" cy="51" rx="16" ry="16"/><ellipse fill="#ffb118" rx="1" ry="1" transform="matrix(-221.90667 2.32389 -.18167 -17.348 138.9 169)"/><ellipse fill="#ff0" rx="1" ry="1" transform="matrix(8.85436 -17.64116 32.43553 16.27987 160.1 0)"/><ellipse fill="#001620" rx="1" ry="1" transform="matrix(29.03746 42.40622 -94.30176 64.57269 42.9 36.7)"/><ellipse fill="#fff" rx="1" ry="1" transform="rotate(93.4 -2.8 83) scale(19.75521 6.32005)"/><ellipse fill="#001700" cx="183" cy="61" rx="41" ry="41"/><ellipse fill="#003fa5" rx="1" ry="1" transform="rotate(-45 95.6 -87.2) scale(22.83581 27.00685)"/><ellipse fill="#120009" rx="1" ry="1" transform="rotate(54.3 -92.1 120.8) scale(41.69553 19.73729)"/><ellipse fill="#b0d700" rx="1" ry="1" transform="rotate(-115.9 126 -63.9) scale(11.13963 20.34955)"/><path fill="#b6cc7b" d="M2 134l32 2-8-41z"/><ellipse fill="#050604" cx="182" cy="110" rx="25" ry="43"/><ellipse rx="1" ry="1" transform="matrix(37.66199 13.78233 -19.57027 53.47828 0 38.3)"/><path fill="#a1b215" d="M64 60L46 43 66-1z"/><ellipse fill="#b5cc57" rx="1" ry="1" transform="rotate(66.4 24 222.3) scale(25.23585 7.03466)"/><ellipse fill="#002f18" rx="1" ry="1" transform="rotate(30.1 3.4 507.6) scale(54.42094 27.89728)"/><path fill="#cfa9b8" d="M149.2 101l16-10-2 .6-9.1-18z"/><path fill="#ffff40" d="M135 11l38 5-23-28z"/><path fill="#ffefe6" d="M76 65h8v40h-8z"/><path fill="#b0b5ca" d="M151 131l-23-45-23 47z"/><path fill="#efd600" d="M0 148h45v6H0z"/><ellipse fill="#000a27" rx="1" ry="1" transform="matrix(9.75248 -.95274 4.03348 41.2875 96.3 93.2)"/></g></svg>