<svg xmlns="http://www.w3.org/2000/svg" viewBox="0 0 641 195"><filter id="b"><feGaussianBlur stdDeviation="12" /></filter><path fill="#694d74" d="M0 0h641v192H0z"/><g filter="url(#b)" transform="translate(1.3 1.3) scale(2.5039)" fill-opacity=".5"><ellipse cx="19" cy="26" rx="41" ry="41"/><ellipse fill="#c4b5f0" rx="1" ry="1" transform="rotate(148.2 42.3 48) scale(97.45502 48.16291)"/><ellipse rx="1" ry="1" transform="matrix(14.16209 40.44058 -45.42789 15.90862 244.7 22.2)"/><ellipse fill="#ffd7fc" cx="139" cy="76" rx="111" ry="14"/><ellipse rx="1" ry="1" transform="rotate(44.9 99.4 290.5) scale(35.9868 33.11144)"/><path fill="#ff50ff" d="M57 3h31v22H57z"/><ellipse rx="1" ry="1" transform="rotate(-146.9 23 4.9) scale(44.24984 16.43701)"/><ellipse fill="#1cb8da" cx="137" cy="11" rx="34" ry="34"/><ellipse fill="#ff19ff" cx="185" cy="14" rx="16" ry="13"/><path fill="#32003e" d="M171.8 68.4l37-45.5-87.5 23.6 57.7 1z"/><ellipse rx="1" ry="1" transform="matrix(20.20574 13.75797 -47.04835 69.09789 26 10.2)"/><path fill="#ed928a" d="M242 50l-28-8 33 50z"/><path fill="#ffcac4" d="M104 60L21 42l54 46z"/><ellipse fill="#31094b" cx="97" rx="8" ry="63"/><path fill="#ee38ed" d="M57 2h29v31H57z"/><ellipse rx="1" ry="1" transform="matrix(39.78979 -3.90142 2.1966 22.40269 233 22.6)"/><path fill="#862266" d="M119 53h97v13h-97z"/><path fill="#d6008b" d="M0 68h41v9H0z"/><path d="M215 71h10v6h-10z"/><ellipse cx="137" rx="168" ry="2"/><ellipse fill="#d3bfbf" cx="204" cy="48" rx="21" ry="4"/><path fill="#ffbbf5" d="M154.7 60.4l58.9 11.4-2.3 11.8-58.9-11.4z"/></g></svg>