<svg xmlns="http://www.w3.org/2000/svg" viewBox="0 0 700 353"><filter id="b"><feGaussianBlur stdDeviation="12" /></filter><path fill="#664f5f" d="M0 0h700v352H0z"/><g filter="url(#b)" transform="translate(1.4 1.4) scale(2.73438)" fill-opacity=".5"><ellipse fill="#ffd8ff" rx="1" ry="1" transform="matrix(2.97717 -45.81679 84.76447 5.50799 132.6 90.1)"/><ellipse rx="1" ry="1" transform="matrix(-33.04433 -1.55833 4.93035 -104.54792 23.5 45)"/><ellipse rx="1" ry="1" transform="matrix(39.56987 -6.90605 18.69389 107.11113 249.3 59.5)"/><ellipse fill="#1b1f0e" cx="193" cy="22" rx="255" ry="25"/><path fill="#f9b9f6" d="M63 46h145v41H63z"/><ellipse rx="1" ry="1" transform="matrix(1.33406 62.72253 -32.21188 .68512 241.3 56.2)"/><ellipse cx="10" cy="76" rx="42" ry="42"/><ellipse fill="#322318" rx="1" ry="1" transform="matrix(6.08544 -.30047 1.48671 30.11072 140.7 112)"/><ellipse fill="#786c64" cx="104" cy="16" rx="83" ry="9"/><ellipse fill="#df8ee0" rx="1" ry="1" transform="rotate(-125.1 121 -3) scale(37.27618 17.04196)"/><ellipse fill="#e18fde" rx="1" ry="1" transform="matrix(-16.017 6.69159 -15.52194 -37.15338 78.5 84.6)"/><path d="M169 20h40v28h-40z"/><path fill="#7f473d" d="M94 86h84v11H94z"/><ellipse fill="#610000" cx="154" cy="128" rx="182" ry="2"/><path fill="#030600" d="M43 107h22v18H43z"/><path fill="#be9f86" d="M1 118l32 8 15-11z"/><path fill="#daa0ce" d="M64 100h47v28H64z"/><path fill="#c9efd9" d="M93.2 46.4l9.7-17.4-5 34.4 77.2-15.8z"/><ellipse fill="#d286d2" rx="1" ry="1" transform="rotate(87.4 52.9 144.2) scale(35.54104 18.31979)"/><path fill="#f1a9d8" d="M174.4 121l-29 2-1.8-26 29-2z"/><path fill="#92898e" d="M24 34.1L16.6 26 30 14l7.4 8.2z"/><ellipse cx="5" cy="31" rx="17" ry="86"/></g></svg>