<svg xmlns="http://www.w3.org/2000/svg" viewBox="0 0 200 133"><filter id="b"><feGaussianBlur stdDeviation="12" /></filter><path fill="#37405e" d="M0 0h200v133H0z"/><g filter="url(#b)" transform="translate(.5 .5)" fill-opacity=".5"><path fill="#fff" d="M157.7 100l-2.4-47 19-1 2.4 47z"/><ellipse fill="#000002" rx="1" ry="1" transform="matrix(-3.3696 21.27478 -104.60453 -16.56773 54.7 22.9)"/><ellipse fill="#e6ffff" rx="1" ry="1" transform="rotate(-88.2 134.8 -69.1) scale(30.75177 11.09759)"/><ellipse fill="#897c90" cx="99" cy="93" rx="46" ry="37"/><path fill="#acf2ff" d="M40 32l-5 74-18-42z"/><ellipse fill="#090600" cx="182" cy="111" rx="15" ry="32"/><ellipse fill="#3963ff" rx="1" ry="1" transform="rotate(160.2 86.8 33.6) scale(28.99207 9.36834)"/><ellipse cx="183" cy="68" rx="8" ry="28"/><ellipse fill="#3e86ff" cx="127" cy="62" rx="23" ry="11"/><ellipse fill="#000324" cx="43" cy="21" rx="34" ry="34"/><ellipse fill="#212f21" cx="88" cy="109" rx="129" ry="7"/><path fill="#d6e3ea" d="M118 128l-11-16-38 17z"/><path fill="#fff4f5" d="M105 58l-21 8 52 4z"/><ellipse fill="#deffff" cx="164" cy="78" rx="9" ry="24"/><path fill="#0c0000" d="M35 115l73 25-124-4z"/><path fill="#cb9dae" d="M93 85h34v20H93z"/><path fill="#001793" d="M91 44l-41 8 49 24z"/><path d="M39 48h10v52H39z"/><ellipse cx="12" cy="75" rx="6" ry="48"/><path fill="#c3ebff" d="M196 99l-8-69 27 60z"/><path fill="#e2cdf2" d="M64.8 61.6l9.5 3.4-15 9.8-7.4-7.2z"/><path fill="#0025a1" d="M140 46l2 28-56-29z"/></g></svg>