<svg xmlns="http://www.w3.org/2000/svg" viewBox="0 0 700 427"><filter id="b"><feGaussianBlur stdDeviation="12" /></filter><path fill="#5a3c59" d="M0 0h700v426H0z"/><g filter="url(#b)" transform="translate(1.4 1.4) scale(2.73438)" fill-opacity=".5"><ellipse fill="#ebfff1" cx="128" cy="89" rx="82" ry="43"/><ellipse rx="1" ry="1" transform="matrix(47.40379 136.84718 -36.08583 12.50011 242.5 68)"/><ellipse cy="46" rx="49" ry="78"/><ellipse fill="#1bf6ff" rx="1" ry="1" transform="matrix(-2.31561 17.96822 -32.28103 -4.16014 74.7 69.6)"/><ellipse fill="#680000" cx="162" cy="147" rx="255" ry="18"/><ellipse fill="#300070" rx="1" ry="1" transform="matrix(80.76009 19.68719 -7.2455 29.72225 122 17.2)"/><ellipse fill="#8c29ca" cx="113" cy="31" rx="43" ry="20"/><ellipse cx="233" cy="49" rx="28" ry="72"/><path fill="#d9fff6" d="M112 82l88-29-157-3z"/><ellipse fill="#ba7cb1" rx="1" ry="1" transform="matrix(-23.60002 2.68141 -1.99066 -17.5205 194.6 112.8)"/><path fill="#00ace5" d="M95 85H49V65h46z"/><path fill="#f799b1" d="M33 96l-8 32 47-44z"/><path fill="#52f300" d="M168 59h37v9h-37z"/><ellipse fill="#0b021c" cx="191" cy="7" rx="37" ry="46"/><ellipse fill="#040325" rx="1" ry="1" transform="matrix(14.22191 -40.6648 28.33515 9.9098 21.6 70.3)"/><ellipse fill="#00000b" rx="1" ry="1" transform="matrix(-1.78973 -16.47475 144.53435 -15.70146 49 -.1)"/><path fill="#c5807d" d="M68 133L46 87l167-4z"/><path fill="#faede7" d="M53.1 69.2L55.4 50l110.5 13.2-115.3 1.5z"/><ellipse fill="#5d0002" cx="175" cy="148" rx="255" ry="18"/><path fill="#1113b4" d="M194.1 95.4l7.7-8.5 8.1 5.8-9.3 33.7z"/><path fill="#d3f48c" d="M205.4 71.9l-14.8 2.8-4-20.6 14.8-2.8z"/><path fill="#ff98ff" d="M122.7 19.5l-5 16.2-10.4-3.2 5-16.2z"/></g></svg>