<svg xmlns="http://www.w3.org/2000/svg" viewBox="0 0 700 467"><filter id="b"><feGaussianBlur stdDeviation="12" /></filter><path fill="#676150" d="M0 0h700v464H0z"/><g filter="url(#b)" transform="translate(1.4 1.4) scale(2.73438)" fill-opacity=".5"><ellipse fill="#fff" cx="138" rx="131" ry="29"/><ellipse fill="#fffffd" rx="1" ry="1" transform="matrix(23.45248 -62.97186 16.74636 6.23681 20 38.5)"/><ellipse fill="#050100" cx="68" cy="114" rx="44" ry="44"/><ellipse fill="#150e08" cx="230" cy="107" rx="76" ry="76"/><ellipse fill="#dec88e" cx="131" cy="121" rx="28" ry="28"/><ellipse fill="#fffffc" cx="163" rx="117" ry="21"/><ellipse fill="#ddc8a0" cx="52" cy="58" rx="23" ry="23"/><ellipse fill="#332b20" rx="1" ry="1" transform="rotate(-24 204.3 -232.4) scale(84.72667 23.75047)"/><ellipse fill="#040300" cx="86" cy="169" rx="26" ry="64"/><ellipse fill="#c4ad7a" rx="1" ry="1" transform="matrix(20.22686 -17.198 9.79274 11.5174 248.7 134.7)"/><ellipse fill="#000003" rx="1" ry="1" transform="matrix(3.62447 45.04787 -23.52547 1.89281 0 160.6)"/><path fill="#0b0900" d="M118 147h98v23h-98z"/><ellipse fill="#fffffb" cx="3" cy="56" rx="20" ry="24"/><ellipse fill="#433d27" rx="1" ry="1" transform="rotate(178.5 32.9 10.3) scale(30.09174 6.9515)"/><ellipse fill="#87756a" rx="1" ry="1" transform="matrix(-8.67447 -28.9633 17.9166 -5.366 224.7 40)"/><path fill="#eac2a6" d="M188 74l8-26-19-17z"/><ellipse fill="#bba97c" rx="1" ry="1" transform="matrix(17.91485 -23.87843 3.89067 2.91898 218.6 85.2)"/><path fill="#d3b376" d="M24 131h22v30H24z"/><ellipse fill="#434e14" rx="1" ry="1" transform="matrix(-6.61507 -5.53106 18.20634 -21.77454 41.7 41.1)"/><path fill="#f7fbf7" d="M55 40l25-4-49 39z"/><ellipse fill="#0b121d" cx="40" cy="106" rx="26" ry="26"/><ellipse fill="#000003" rx="1" ry="1" transform="matrix(-9.60942 -10.73158 30.33983 -27.16731 236.9 103.3)"/></g></svg>