<svg xmlns="http://www.w3.org/2000/svg" viewBox="0 0 700 467"><filter id="b"><feGaussianBlur stdDeviation="12" /></filter><path fill="#7b6d73" d="M0 0h700v464H0z"/><g filter="url(#b)" transform="translate(1.4 1.4) scale(2.73438)" fill-opacity=".5"><ellipse cx="39" cy="150" rx="77" ry="20"/><ellipse fill="#fbe2f4" rx="1" ry="1" transform="rotate(77.9 7 29.3) scale(59.14229 69.22953)"/><ellipse fill="#ffeed3" rx="1" ry="1" transform="matrix(-10.3012 -22.03763 148.87663 -69.59037 187.4 146.8)"/><ellipse cx="231" cy="13" rx="67" ry="28"/><ellipse fill="#000409" rx="1" ry="1" transform="matrix(-2.33928 30.7108 -57.90023 -4.41032 147 99.7)"/><path d="M211 48h32v43h-32z"/><ellipse fill="#dff" rx="1" ry="1" transform="matrix(-33.67522 -9.35785 3.71526 -13.36976 168.6 49.3)"/><ellipse cx="52" cy="156" rx="48" ry="23"/><ellipse fill="#e4ffff" cx="109" cy="45" rx="10" ry="25"/><path fill="#e1eaff" d="M71 50h18v77H71z"/><ellipse cx="214" cy="120" rx="6" ry="16"/><ellipse fill="#dfe6ff" cx="213" cy="43" rx="115" ry="5"/><ellipse fill="#fff" rx="1" ry="1" transform="matrix(-23.79355 4.66087 -2.94088 -15.01305 188.7 149.5)"/><ellipse fill="#100" cx="221" cy="18" rx="38" ry="22"/><ellipse fill="#d9b9c6" cx="255" cy="91" rx="14" ry="64"/><ellipse cx="95" cy="85" rx="6" ry="43"/><ellipse fill="#070205" rx="1" ry="1" transform="matrix(26.60421 -19.9216 10.57728 14.12538 214.5 72)"/><path fill="#0b0705" d="M88 5h34v14H88z"/><ellipse fill="#000515" cx="127" cy="60" rx="12" ry="12"/><path fill="#9c3c2c" d="M67 59l-31 68-38-41z"/><ellipse fill="#00110d" rx="1" ry="1" transform="matrix(23.35283 20.88823 -10.68031 11.94048 168.1 108.6)"/><path fill="#96c8ff" d="M208 129l1-39-26 32z"/></g></svg>