<svg xmlns="http://www.w3.org/2000/svg" viewBox="0 0 700 467"><filter id="b"><feGaussianBlur stdDeviation="12" /></filter><path fill="#73605b" d="M0 0h700v464H0z"/><g filter="url(#b)" transform="translate(1.4 1.4) scale(2.73438)" fill-opacity=".5"><ellipse fill="#fff" rx="1" ry="1" transform="matrix(3.1483 -15.26427 96.40824 19.8845 120 66.2)"/><ellipse fill="#f8ffff" cx="147" cy="164" rx="34" ry="34"/><path fill="#e40000" d="M57 0h31v157H57z"/><ellipse fill="#400" cx="228" cy="113" rx="121" ry="25"/><ellipse fill="#00000c" rx="1" ry="1" transform="matrix(25.53976 -.71339 2.05767 73.66588 246 67)"/><ellipse fill="#4ea0d1" cx="18" cy="40" rx="47" ry="47"/><ellipse fill="#006400" cx="134" cy="24" rx="39" ry="25"/><ellipse fill="#cdd5d4" cx="39" cy="78" rx="15" ry="73"/><ellipse fill="#000007" rx="1" ry="1" transform="rotate(-154.5 23 75.6) scale(88.07293 20.4156)"/><ellipse fill="#600" rx="1" ry="1" transform="matrix(21.8654 -23.61078 15.33525 14.20163 189.2 132.4)"/><path fill="#eaffff" d="M151 3.3l8.9-13.2L217 28.7l-9 13.2z"/><ellipse fill="#fff" rx="1" ry="1" transform="matrix(31.18278 15.20886 -7.05464 14.46415 117.4 62.7)"/><ellipse fill="#003d83" cx="6" cy="10" rx="21" ry="131"/><ellipse fill="#d4edf6" cx="196" cy="77" rx="21" ry="18"/><ellipse fill="#fff" cx="144" cy="141" rx="21" ry="14"/><path fill="#c4d7d2" d="M59.2 42l-30.3-6.5L42.8-30l30.3 6.5z"/><ellipse fill="#a00000" rx="1" ry="1" transform="rotate(103.9 31.3 106.4) scale(18.03465 30.53781)"/><ellipse fill="#b30000" rx="1" ry="1" transform="matrix(20.57287 -124.27064 13.0077 2.15341 68 85.3)"/><ellipse fill="#d0ecf8" cx="253" cy="152" rx="43" ry="9"/><path fill="#1e0400" d="M88.7 169.3l-18.5-23.7 37-28.9 18.6 23.7z"/><ellipse fill="#fff" cx="180" cy="169" rx="28" ry="10"/><path fill="#004500" d="M155.5 16.5h21v39h-21z"/></g></svg>