<svg xmlns="http://www.w3.org/2000/svg" viewBox="0 0 200 133"><filter id="b"><feGaussianBlur stdDeviation="12" /></filter><path fill="#7d6d76" d="M0 0h200v133H0z"/><g filter="url(#b)" transform="translate(.5 .5)" fill-opacity=".5"><ellipse fill="#fee2f6" cx="23" cy="3" rx="57" ry="57"/><ellipse cx="38" cy="117" rx="52" ry="16"/><ellipse fill="#ffeac4" rx="1" ry="1" transform="matrix(-62.04737 10.829 -4.93128 -28.25494 136.4 132.2)"/><ellipse fill="#000006" rx="1" ry="1" transform="matrix(-1.12543 -23.00033 45.146 -2.20904 113.5 77.6)"/><ellipse cx="170" rx="41" ry="31"/><path d="M188 38l4.7 29.5-28.7 4.6-4.7-29.6z"/><ellipse fill="#ffe4e2" rx="1" ry="1" transform="matrix(-25.52842 10.90577 -8.83717 -20.6862 199 91.6)"/><ellipse fill="#d9f1ff" rx="1" ry="1" transform="matrix(1.00381 -9.10814 43.29688 4.77176 119.7 35.5)"/><path d="M56.2 142.2l-46.7-5.7 4.3-34.7 46.7 5.7z"/><path fill="#e3dfff" d="M55 42h14v65H55z"/><path fill="#671d1f" d="M224.8 138.5l-56 15-7.6-28 56-15z"/><ellipse fill="#fff" cx="148" cy="115" rx="17" ry="10"/><ellipse fill="#decee4" rx="1" ry="1" transform="matrix(5.7899 -27.00418 8.25407 1.76974 199 45.5)"/><path d="M76.8 33.9l2.3 44-6 .2-2.2-44z"/><path fill="#befeff" d="M78 29h13v27H78z"/><path fill="#142028" d="M101 35L67 82l87 21z"/><ellipse fill="#160000" cx="180" cy="10" rx="22" ry="22"/><ellipse fill="#b8d9ff" cx="143" cy="43" rx="14" ry="12"/><ellipse fill="#1f1415" cx="84" cy="10" rx="17" ry="7"/><ellipse fill="#a3453d" rx="1" ry="1" transform="matrix(8.7008 13.06743 -20.68905 13.77557 29 70.4)"/><path fill="#a3a1c8" d="M99.5 51.4l16-.8 1 20-16 .8z"/><ellipse fill="#a0ccff" rx="1" ry="1" transform="matrix(-2.1647 14.06803 -6.81663 -1.0489 157.9 91.7)"/></g></svg>