<svg xmlns="http://www.w3.org/2000/svg" viewBox="0 0 200 101"><filter id="b"><feGaussianBlur stdDeviation="12" /></filter><path fill="#694f61" d="M0 0h200v101H0z"/><g filter="url(#b)" transform="translate(.5 .5)" fill-opacity=".5"><ellipse fill="#ffd4ff" rx="1" ry="1" transform="matrix(64.59925 5.056 -2.96866 37.92982 105.6 69.3)"/><ellipse rx="1" ry="1" transform="matrix(25.1536 -7.5394 40.56153 135.32511 183 32.6)"/><ellipse rx="1" ry="1" transform="matrix(-31.62387 -3.268 8.06031 -77.99802 12.8 38.7)"/><ellipse fill="#1c1e11" cx="105" cy="11" rx="199" ry="25"/><ellipse rx="1" ry="1" transform="matrix(21.09291 1.28335 -3.72124 61.16148 187 39.2)"/><ellipse fill="#fbbef8" cx="109" cy="52" rx="56" ry="17"/><ellipse rx="1" ry="1" transform="matrix(9.24138 32.44323 -25.43282 7.24448 13.5 58.5)"/><ellipse fill="#ef93f1" cx="56" cy="66" rx="15" ry="31"/><path fill="#020000" d="M106 70h7v31h-7z"/><ellipse fill="#8b7c73" rx="1" ry="1" transform="matrix(43.04718 -3.52711 .53775 6.56308 83.2 12.7)"/><ellipse fill="#e789ea" rx="1" ry="1" transform="matrix(10.97248 -6.24615 12.41584 21.81066 153.8 74)"/><path fill="#540000" d="M0 100h200v1H0z"/><path fill="#f38eef" d="M159.6 52l-16.9-2 1.7-14 16.9 2z"/><path fill="#0c0700" d="M35 115l-2-28.8 18-1.3 2 29z"/><ellipse fill="#181014" cx="147" cy="28" rx="41" ry="10"/><path fill="#86473f" d="M81.4 68.4l53-1.8.2 9-53 1.8z"/><path fill="#be9c85" d="M5 91h28v6H5z"/><ellipse fill="#a69ba2" cx="22" cy="17" rx="6" ry="6"/><path fill="#d893d8" d="M45 38h27v47H45z"/><path fill="#8d6655" d="M147.5 10.4l21.8 10.3-14-32.1L178-16z"/><ellipse fill="#f1a3e9" cx="137" cy="83" rx="27" ry="7"/><ellipse fill="#000001" rx="1" ry="1" transform="matrix(19.23406 .55744 -.80667 27.83336 7.8 64)"/></g></svg>