<svg xmlns="http://www.w3.org/2000/svg" viewBox="0 0 700 467"><filter id="b"><feGaussianBlur stdDeviation="12" /></filter><path fill="#644a3c" d="M0 0h700v464H0z"/><g filter="url(#b)" transform="translate(1.4 1.4) scale(2.73438)" fill-opacity=".5"><ellipse fill="#c6b9ae" cx="127" cy="91" rx="118" ry="38"/><ellipse cx="122" cy="162" rx="255" ry="27"/><ellipse cx="175" cy="34" rx="254" ry="20"/><path fill="#ebffff" d="M101 65h42v22h-42z"/><ellipse fill="#f1914a" cx="142" rx="255" ry="16"/><ellipse fill="#3b0000" cx="255" cy="116" rx="24" ry="157"/><ellipse fill="#dbb184" rx="1" ry="1" transform="matrix(-11.1374 .7007 -2.30406 -36.62194 26 70.2)"/><ellipse fill="#261312" cx="91" cy="81" rx="9" ry="34"/><ellipse fill="#d1be97" cx="223" cy="53" rx="9" ry="23"/><path fill="#201216" d="M143 33h18v77h-18z"/><ellipse rx="1" ry="1" transform="matrix(254.9768 3.44013 -.26276 19.4752 184 159)"/><ellipse fill="#fffff8" rx="1" ry="1" transform="matrix(-5.0477 -.72149 2.32032 -16.2336 21 106.4)"/><ellipse fill="#b38173" rx="1" ry="1" transform="matrix(.134 4.77845 -54.55904 1.53007 116.7 31.4)"/><path fill="#fff8f5" d="M134.5 108.5l2.9 7.5-29.9 11.5-2.9-7.5z"/><ellipse fill="#d57555" rx="1" ry="1" transform="rotate(-168.5 33.4 59) scale(35.15501 11.94388)"/><path fill="#0074ff" d="M100 56h46v8h-46z"/><path fill="#c0c6aa" d="M168 55h44v18h-44z"/><ellipse fill="#501700" cx="4" cy="77" rx="11" ry="51"/><path d="M181 15.5h30v31h-30z"/><ellipse fill="#d29f65" cx="216" cy="110" rx="15" ry="15"/><path fill="#ffe7d0" d="M213 73h8v36h-8z"/><path fill="#c0b08d" d="M19 55h57v19H19z"/></g></svg>