<svg xmlns="http://www.w3.org/2000/svg" viewBox="0 0 700 467"><filter id="b"><feGaussianBlur stdDeviation="12" /></filter><path fill="#594042" d="M0 0h700v464H0z"/><g filter="url(#b)" transform="translate(1.4 1.4) scale(2.73438)" fill-opacity=".5"><ellipse fill="#e27870" cx="128" cy="32" rx="99" ry="57"/><ellipse cx="232" cy="121" rx="35" ry="46"/><ellipse cx="12" cy="79" rx="18" ry="214"/><ellipse fill="#000807" cx="117" cy="48" rx="12" ry="88"/><ellipse fill="#ffd3c4" cx="205" cy="34" rx="18" ry="51"/><path d="M161 0h25v44h-25zM59 0h16v102H59z"/><ellipse fill="#01405d" cx="113" cy="108" rx="101" ry="33"/><ellipse fill="#ff1b2a" cx="44" cy="20" rx="15" ry="62"/><ellipse rx="1" ry="1" transform="matrix(-13.41307 -110.64211 11.39175 -1.38101 237.4 49.4)"/><ellipse fill="#c388af" rx="1" ry="1" transform="matrix(2.92061 16.99746 -56.36104 9.6843 149.8 160.8)"/><ellipse fill="#ffb5ac" rx="1" ry="1" transform="matrix(15.32002 4.29395 -13.33902 47.59108 141 33.3)"/><ellipse fill="#ffa29e" cx="91" cy="39" rx="15" ry="50"/><ellipse fill="#2899fc" rx="1" ry="1" transform="matrix(-8.52478 .89213 -3.43708 -32.84319 136.6 107)"/><path fill="#c2b5a9" d="M188 87.5l-57.1-40 48.9-.7L248.5 64z"/><path d="M105 0h24v41h-24z"/><ellipse cx="101" cy="129" rx="10" ry="44"/><path d="M161 0h26v42h-26zm41 79h46v70h-46z"/><ellipse cx="2" cy="82" rx="24" ry="204"/><path d="M44 109h14v54H44zm123 19l-20-52 7 103z"/></g></svg>