<svg xmlns="http://www.w3.org/2000/svg" viewBox="0 0 200 133"><filter id="b"><feGaussianBlur stdDeviation="12" /></filter><path fill="#474d57" d="M0 0h200v133H0z"/><g filter="url(#b)" transform="translate(.5 .5)" fill-opacity=".5"><ellipse fill="#f4ffff" cx="191" cy="22" rx="25" ry="25"/><ellipse fill="#abc9d7" rx="1" ry="1" transform="matrix(-37.16501 16.39172 -8.24613 -18.69649 107.6 39.1)"/><ellipse fill="#100" rx="1" ry="1" transform="matrix(155.7697 -15.82251 2.11586 20.83022 124.2 76.9)"/><ellipse fill="#000008" rx="1" ry="1" transform="matrix(20.67872 9.26667 -16.12133 35.975 60.6 14.4)"/><ellipse fill="#879db4" rx="1" ry="1" transform="matrix(2.46911 27.73701 -67.89869 6.04426 65.8 132)"/><path fill="#c7ffff" d="M142-14v62h-12v-62z"/><path d="M126.8 118.2l1.5-28 31 1.6-1.6 28z"/><path fill="#ffd9dd" d="M159 93h14v30h-14z"/><ellipse fill="#000008" cy="46" rx="18" ry="75"/><ellipse cx="104" cy="13" rx="5" ry="61"/><ellipse fill="#c6c0ba" rx="1" ry="1" transform="matrix(23.39041 -3.90054 1.253 7.5139 46.4 62)"/><path fill="#e28754" d="M22 0h12v57H22z"/><ellipse rx="1" ry="1" transform="rotate(-90.9 71.7 -53) scale(28.31311 5.17207)"/><path fill="#e0ffff" d="M98 62l.8-55.2L90 9.5l.6 45.3z"/><path fill="azure" d="M109 10h11v42h-11z"/><ellipse fill="#c3b3b2" rx="1" ry="1" transform="matrix(-17.15926 -8.28795 6.10865 -12.64726 171.3 33)"/><path d="M43.6 123.4l-9.7-2.6 6.5-24.2 9.7 2.6z"/><path fill="#ffffef" d="M26 97h8v21h-8z"/><path d="M144-16l3 55 24-43z"/><path fill="#84c1ff" d="M8 124h82v9H8z"/><path fill="#ecc1c5" d="M124 96l-2 34-8-38z"/><ellipse rx="1" ry="1" transform="matrix(31.35387 -7.7206 4.8497 19.69494 66.8 0)"/></g></svg>