<svg xmlns="http://www.w3.org/2000/svg" viewBox="0 0 200 133"><filter id="b"><feGaussianBlur stdDeviation="12" /></filter><path fill="#3c353c" d="M0 0h200v133H0z"/><g filter="url(#b)" transform="translate(.5 .5)" fill-opacity=".5"><ellipse fill="#84e8ff" rx="1" ry="1" transform="matrix(57.69476 9.51252 -3.49319 21.18668 103.7 41.4)"/><ellipse rx="1" ry="1" transform="matrix(44.972 67.16343 -24.1915 16.1984 180.4 23)"/><ellipse fill="#34b3de" cx="55" cy="39" rx="24" ry="24"/><ellipse cx="10" cy="21" rx="25" ry="34"/><ellipse fill="#1f0000" cx="156" cy="127" rx="177" ry="17"/><ellipse fill="#c11b2c" cx="104" cy="66" rx="105" ry="6"/><ellipse fill="#856566" rx="1" ry="1" transform="matrix(-21.31108 5.48975 -4.50542 -17.48994 55 88.4)"/><ellipse rx="1" ry="1" transform="rotate(-174.3 53.3 1.7) scale(106.84946 12.72256)"/><path fill="#7babbc" d="M73 26h88v29H73z"/><ellipse fill="#a7787b" cx="109" cy="83" rx="12" ry="12"/><ellipse fill="#200000" rx="1" ry="1" transform="matrix(-1.96523 -11.871 89.71394 -14.85205 172.6 116.5)"/><path fill="#0d7ba1" d="M160.7 62.2l-30.5 4 12.6-39.7 17.5.1z"/><ellipse cx="196" cy="32" rx="37" ry="34"/><ellipse rx="1" ry="1" transform="matrix(19.84147 25.95156 -15.95693 12.2 8.3 28.4)"/><path fill="#649dae" d="M64.6 18l-1.3 18-29.9-2 1.3-18z"/><ellipse fill="#100" cy="117" rx="15" ry="53"/><ellipse fill="#c11115" cx="18" cy="60" rx="19" ry="5"/><ellipse fill="#bc978a" cx="40" cy="88" rx="35" ry="3"/><path fill="#8b6b68" d="M136 78h24v20h-24z"/><path fill="#168db4" d="M34 31h34v29H34z"/><ellipse fill="#570608" cx="173" cy="72" rx="32" ry="10"/><ellipse fill="#654e55" cx="73" cy="110" rx="42" ry="6"/></g></svg>