<svg xmlns="http://www.w3.org/2000/svg" viewBox="0 0 200 133"><filter id="b"><feGaussianBlur stdDeviation="12" /></filter><path fill="#1a1719" d="M0 0h200v133H0z"/><g filter="url(#b)" transform="translate(.5 .5)" fill-opacity=".5"><ellipse fill="#82aaff" rx="1" ry="1" transform="matrix(42.78715 4.70986 -2.6964 24.49571 105 65.3)"/><ellipse fill="red" rx="1" ry="1" transform="matrix(38.4338 4.21092 -1.40555 12.82868 100.4 90.8)"/><path fill="#a5ffe3" d="M138.1 45.8l-.3 17-36-.6.4-17z"/><path fill="#ff0300" d="M110.6 102.7l-50.9-3.5 1.7-24 50.9 3.6z"/><path fill="#000900" d="M138 0h62v133h-62z"/><ellipse cx="81" cy="13" rx="189" ry="31"/><path fill="#005ceb" d="M61 58h68v19H61z"/><ellipse fill="#000100" rx="1" ry="1" transform="matrix(-19.36994 -116.66722 32.89327 -5.46118 29.5 94.7)"/><path fill="#ff90b6" d="M97 114l11-4v12z"/><path fill="#7dc0a8" d="M61 43h24v13H61z"/><path fill="#0045f5" d="M122 71h18v13h-18z"/><ellipse fill="#9fd1a6" cx="129" cy="58" rx="9" ry="13"/><path fill="#101e02" d="M108 101l25 47 60-72z"/><path fill="#fc1400" d="M83 81h36v19H83z"/><path fill="#0076ff" d="M100 73h33v7h-33z"/><ellipse fill="#160000" rx="1" ry="1" transform="matrix(15.17779 17.27651 -24.8018 21.78892 73.5 126.4)"/><ellipse fill="#10260c" rx="1" ry="1" transform="matrix(19.42796 -5.77447 12.13612 40.83144 159.4 68.6)"/><path fill="#b00000" d="M115.3 81l27.7 8.4-2.3 7.7-27.7-8.5z"/><path fill="#a0d6c6" d="M131 54l10 17-52-21z"/><path fill="#000001" d="M0 0h64v68H0z"/><path fill="#721922" d="M113.5 102.8l-45-4.6 32 18.8 11.7-7.7z"/><path fill="#004ce7" d="M99 77L66 56l-3 17z"/></g></svg>