<svg xmlns="http://www.w3.org/2000/svg" viewBox="0 0 200 133"><filter id="b"><feGaussianBlur stdDeviation="12" /></filter><path fill="#4e4f57" d="M0 0h200v133H0z"/><g filter="url(#b)" transform="translate(.5 .5)" fill-opacity=".5"><ellipse fill="#fffffb" cx="119" cy="125" rx="127" ry="22"/><ellipse cx="31" cy="26" rx="59" ry="59"/><ellipse fill="#fffdde" cx="99" cy="91" rx="25" ry="37"/><ellipse rx="1" ry="1" transform="rotate(-3 2634 -2685.2) scale(91.79227 9.21527)"/><ellipse rx="1" ry="1" transform="matrix(.78603 37.07135 -6.88934 .14608 99.3 72.3)"/><ellipse fill="#000924" cx="91" cy="12" rx="185" ry="34"/><ellipse fill="#360000" rx="1" ry="1" transform="matrix(-19.94826 -18.40773 18.97818 -20.56646 48.8 92.5)"/><ellipse fill="#d8e5ef" rx="1" ry="1" transform="matrix(.8455 40.43937 -7.11626 .14879 191 79.7)"/><ellipse fill="#fff" rx="1" ry="1" transform="matrix(124.60403 -11.83142 .68476 7.21158 116 118.6)"/><ellipse fill="#0f0928" cx="153" cy="78" rx="34" ry="29"/><ellipse fill="#ffffe3" cx="83" cy="87" rx="9" ry="41"/><path fill="#fffff8" d="M120.9 49.5l-3.8 53.9-12-.9 3.8-53.9z"/><ellipse fill="#e8e8df" cx="15" cy="110" rx="4" ry="48"/><path fill="#000034" d="M124 58h18v52h-18z"/><path fill="#fff" d="M61 109l-40 39 108-50z"/><ellipse cx="199" cy="129" rx="55" ry="10"/><ellipse fill="#050400" cx="13" cy="7" rx="53" ry="53"/><ellipse fill="#9e0328" cx="44" cy="97" rx="10" ry="27"/><path fill="#0e355e" d="M165.2 33L80.8 49.4 64.8-33l84.4-16.4z"/><path fill="#000e02" d="M53 24h23v82H53z"/><path d="M6 80h5v47H6z"/><path fill="#0d1804" d="M116 63l-22 5 1 20z"/></g></svg>