<svg xmlns="http://www.w3.org/2000/svg" viewBox="0 0 200 133"><filter id="b"><feGaussianBlur stdDeviation="12" /></filter><path fill="#313445" d="M0 0h200v133H0z"/><g filter="url(#b)" transform="translate(.5 .5)" fill-opacity=".5"><ellipse fill="#bcacba" rx="1" ry="1" transform="rotate(-85.4 115.3 -8.6) scale(66.14083 19.44105)"/><ellipse cx="199" cy="53" rx="71" ry="71"/><ellipse fill="#aec3ff" rx="1" ry="1" transform="matrix(-37.36347 2.32537 -.28204 -4.53169 21 61)"/><ellipse fill="#bbdeff" cy="27" rx="35" ry="5"/><ellipse fill="#525c90" rx="1" ry="1" transform="matrix(49.77023 -42.44675 13.58056 15.92366 33.5 120.5)"/><path fill="#bbb1bc" d="M99 96h39v22H99z"/><path fill="#80a6fc" d="M93.2 35l5.9-2.4-42.8-6L76.8 41z"/><ellipse cx="93" cy="72" rx="7" ry="30"/><ellipse fill="#0a0c20" cx="166" cy="125" rx="33" ry="33"/><path fill="#e3bbd6" d="M117 15l9 15-16 5z"/><path fill="#d8ffff" d="M65 81.4l-.6-2.9 18.6-4 .6 3z"/><ellipse fill="#0e1222" rx="1" ry="1" transform="matrix(-7.358 3.26062 -4.90176 -11.06145 122 132.2)"/><path d="M63 47h33v16H63z"/><path fill="#080a09" d="M132-16l83 34-154-7z"/><path fill="#dbdaff" d="M131 84l5-16-22 18z"/><ellipse fill="#576a8d" rx="1" ry="1" transform="matrix(-3.1253 -6.47911 17.50977 -8.4461 22 77.9)"/><path fill="#05080c" d="M98.3 96.1l83-6.4 25.5-103.8L154 81.2z"/><path fill="#1a110a" d="M86.1 49l31.6-1.6 17.5 1.5-25.8-19z"/><path fill="#606294" d="M25.6 104l10.8 28-42 16-10.8-28z"/><ellipse fill="#000004" cx="18" cy="51" rx="34" ry="6"/><path fill="#09142c" d="M118 61l-5 12 22-9z"/><path fill="#020718" d="M45.7 90l-57.1 28.7-3.6-14L32.8 80z"/></g></svg>