<svg xmlns="http://www.w3.org/2000/svg" viewBox="0 0 200 133"><filter id="b"><feGaussianBlur stdDeviation="12" /></filter><path fill="#390c16" d="M0 0h200v133H0z"/><g filter="url(#b)" transform="translate(.5 .5)" fill-opacity=".5"><ellipse fill="#c74fbd" rx="1" ry="1" transform="matrix(-.82602 9.07643 -66.40766 -6.04357 74.2 122.9)"/><ellipse fill="#b0161e" cx="29" cy="58" rx="153" ry="18"/><ellipse fill="#d00025" cx="136" cy="128" rx="40" ry="19"/><ellipse cx="54" cy="23" rx="199" ry="19"/><path d="M209 110l6-62-142 58z"/><path fill="#b598ff" d="M151 6l-8-22-11 34z"/><ellipse fill="#785c77" cx="91" cy="60" rx="19" ry="19"/><ellipse fill="#000500" cx="20" cy="92" rx="42" ry="22"/><path fill="#ff0001" d="M55 67.5l-10-1.2 4-31.8 10 1.2z"/><path fill="#a70000" d="M127 40h51v35h-51z"/><path fill="red" d="M11 32h8v48h-8z"/><ellipse fill="#b6b7ff" rx="1" ry="1" transform="rotate(177.4 27.2 61) scale(41.56706 2.19783)"/><ellipse cx="199" rx="23" ry="188"/><path fill="#031d1f" d="M98 110L51 99l9-63z"/><ellipse cx="138" cy="58" rx="4" ry="49"/><path d="M117.6 77.2l-2.2-42 9-.4 2.2 42z"/><path fill="#001320" d="M0 123h61v10H0z"/><ellipse fill="#000200" cx="166" cy="48" rx="4" ry="43"/><path fill="red" d="M30 36h9v30h-9z"/><ellipse cx="42" cy="47" rx="4" ry="61"/><path d="M33.6-4.3l-13 60L19 93.3l7.3 2.6z"/><ellipse fill="red" cx="2" cy="48" rx="4" ry="13"/></g></svg>