<svg xmlns="http://www.w3.org/2000/svg" viewBox="0 0 200 133"><filter id="b"><feGaussianBlur stdDeviation="12" /></filter><path fill="#b8b4b1" d="M0 0h200v133H0z"/><g filter="url(#b)" transform="translate(.5 .5)" fill-opacity=".5"><ellipse rx="1" ry="1" transform="rotate(175.8 24.3 54.5) scale(57.91896 32.79255)"/><path fill="#fff" d="M.5-16h199v68H.5z"/><ellipse fill="#fff" rx="1" ry="1" transform="matrix(-198.98555 -2.39782 .54292 -45.05484 92.5 5.3)"/><ellipse fill="#111e01" cx="77" cy="114" rx="30" ry="30"/><ellipse fill="#a46f74" cx="162" cy="123" rx="69" ry="32"/><ellipse fill="#d7dcd5" cx="48" cy="74" rx="12" ry="29"/><path fill="#5a442b" d="M98 82l25-35 34 21z"/><ellipse fill="#102800" cx="27" cy="96" rx="11" ry="27"/><ellipse fill="#fff" rx="1" ry="1" transform="rotate(98.8 31 41) scale(28.37085 192.3992)"/><path fill="#8e8a7f" d="M88 37.3l17.4-20.1 4.2 91.6-20.2-33z"/><path fill="#dff4ff" d="M209.7 78.1l-.5 13-92.9-3.2.5-13z"/><path fill="#161f0a" d="M-7 114l83 8L5 94z"/><ellipse fill="#fff" rx="1" ry="1" transform="rotate(-15.9 79.2 -59.8) scale(125.05084 37.43791)"/><ellipse fill="#9a9fa8" cx="18" cy="130" rx="29" ry="11"/><path fill="#fff" d="M106 94h3v39h-3z"/><ellipse fill="#25371d" rx="1" ry="1" transform="matrix(-25.14104 16.12093 -6.93706 -10.81854 80.5 96)"/><path fill="#a3aaa1" d="M32 56l76 16-75 14z"/><ellipse fill="#fff" rx="1" ry="1" transform="rotate(6.6 -17.1 1524.7) scale(91.3579 34.7196)"/><ellipse fill="#c7cfc7" rx="1" ry="1" transform="matrix(9.82651 24.30268 -6.855 2.77174 8.8 70.5)"/><path fill="#976d6f" d="M112 92h73v10h-73z"/><path fill="#475c4c" d="M129.7 64.1l23 .8-.4 11-23-.8z"/><path fill="#a8a7a6" d="M63 43l-3 36 60-15z"/></g></svg>