<svg xmlns="http://www.w3.org/2000/svg" viewBox="0 0 641 195"><filter id="b"><feGaussianBlur stdDeviation="12" /></filter><path fill="#736651" d="M0 0h641v192H0z"/><g filter="url(#b)" transform="translate(1.3 1.3) scale(2.5039)" fill-opacity=".5"><ellipse fill="#d5f9ff" rx="1" ry="1" transform="rotate(23.3 10.3 399.4) scale(40.00724 48.62504)"/><ellipse cx="9" cy="32" rx="30" ry="205"/><ellipse cx="248" cy="57" rx="28" ry="28"/><ellipse fill="#fff" cx="207" cy="69" rx="14" ry="22"/><path d="M69 0h11v77H69z"/><ellipse fill="#c95c00" cx="45" cy="30" rx="26" ry="32"/><path fill="#fff" d="M93 51h14v26H93z"/><path d="M115.6-8.2l.8 48-22 .4-.8-48zM237.5 61L227.8-.4 244.5-3l9.7 61.2z"/><ellipse rx="1" ry="1" transform="matrix(8.63361 -10.07779 13.4076 11.48626 184 76)"/><ellipse rx="1" ry="1" transform="matrix(-17.67746 -.69409 3.58948 -91.41865 3.3 56)"/><ellipse fill="#fff" cx="51" cy="76" rx="9" ry="23"/><ellipse fill="#ffdb94" rx="1" ry="1" transform="rotate(168.8 109.2 11.8) scale(9.8151 45.16458)"/><ellipse fill="#ffc835" rx="1" ry="1" transform="matrix(2.03919 -54.49973 6.50328 .24333 87.3 6.7)"/><path d="M62 57h30v20H62zm-2.1-26.3l-11-.4 1.2-37 11 .4z"/><ellipse fill="#dddbcf" rx="1" ry="1" transform="matrix(13.0611 12.30847 -35.01484 37.1559 141.5 76)"/><path fill="#ff8a06" d="M21 20h10v38H21z"/><path d="M201 0h8v23h-8z"/><ellipse cx="247" cy="64" rx="26" ry="24"/><ellipse cx="31" cy="66" rx="13" ry="13"/><ellipse rx="1" ry="1" transform="matrix(-6.91735 -1.29455 10.28863 -54.97678 67.9 72.7)"/></g></svg>