<svg xmlns="http://www.w3.org/2000/svg" viewBox="0 0 700 467"><filter id="b"><feGaussianBlur stdDeviation="12" /></filter><path fill="#777967" d="M0 0h700v464H0z"/><g filter="url(#b)" transform="translate(1.4 1.4) scale(2.73438)" fill-opacity=".5"><path fill="#fff" d="M178 26L-5 47-16-3z"/><ellipse fill="#fff" cx="103" cy="169" rx="46" ry="46"/><ellipse fill="#212f00" cx="221" cy="110" rx="70" ry="70"/><ellipse fill="#deffff" rx="1" ry="1" transform="matrix(-2.00124 -40.83734 13.85371 -.6789 47.1 102.6)"/><ellipse fill="#100" cx="93" cy="81" rx="18" ry="55"/><ellipse fill="#fffdff" cx="131" cy="86" rx="19" ry="36"/><ellipse fill="#244300" cx="205" cy="18" rx="42" ry="42"/><path fill="#fff" d="M244-16l8 107 19-82z"/><ellipse rx="1" ry="1" transform="matrix(-45.24885 1.69499 -.46797 -12.4927 199 161.8)"/><ellipse fill="#000002" cx="3" cy="82" rx="13" ry="32"/><path fill="#f1f8ff" d="M59.6 175.3l-22.8-2.8 3.6-29.8 22.8 2.8z"/><ellipse fill="#fdffff" cx="123" cy="169" rx="31" ry="31"/><path fill="#e3e2c4" d="M194.1 137.5L215 116l13 12.5-21 21.5z"/><ellipse fill="#3f2720" rx="1" ry="1" transform="matrix(14.27574 35.1506 -23.43629 9.5182 8.8 139.1)"/><ellipse cx="181" cy="132" rx="19" ry="39"/><ellipse fill="#fff" cx="73" cy="21" rx="79" ry="8"/><ellipse fill="#a1b3fd" cx="40" cy="95" rx="27" ry="24"/><path d="M84 61h26v46H84z"/><ellipse fill="#274800" rx="1" ry="1" transform="matrix(-3.98255 1.4811 -22.7333 -61.12776 132 9.6)"/><path fill="#fff2f1" d="M69 17h17v38H69z"/><path fill="#6b625d" d="M58.7 120.5l73-21.3 20.2 41-97.8 1.2z"/><path fill="#eaf6f4" d="M176.6 87L158 54.8 142.4 32l9.3-7.5z"/></g></svg>