<svg xmlns="http://www.w3.org/2000/svg" viewBox="0 0 700 467"><filter id="b"><feGaussianBlur stdDeviation="12" /></filter><path fill="#786569" d="M0 0h700v464H0z"/><g filter="url(#b)" transform="translate(1.4 1.4) scale(2.73438)" fill-opacity=".5"><ellipse fill="red" cx="212" cy="139" rx="116" ry="33"/><ellipse fill="#bff9f4" cx="216" cy="50" rx="63" ry="63"/><ellipse fill="#00348e" rx="1" ry="1" transform="matrix(-19.79403 104.75694 -48.39376 -9.1441 34.3 56.1)"/><ellipse fill="#8a0000" rx="1" ry="1" transform="rotate(-86.2 105 -33.8) scale(94.30804 23.63262)"/><path fill="#fff" d="M155 79h101v28H155z"/><ellipse fill="#c9eadf" cx="96" cy="35" rx="13" ry="124"/><ellipse fill="#102100" cx="183" cy="68" rx="62" ry="11"/><ellipse fill="#000001" rx="1" ry="1" transform="matrix(12.49443 .7382 -4.24868 71.91033 145.1 36.2)"/><ellipse fill="#fc2a00" rx="1" ry="1" transform="rotate(-82.9 190.4 -58.6) scale(27.83706 121.65681)"/><ellipse fill="#004a7a" rx="1" ry="1" transform="rotate(7.9 -334 230.6) scale(58.7942 107.24204)"/><ellipse fill="#ff1300" rx="1" ry="1" transform="matrix(-10.27735 -.71866 6.30638 -90.18545 121.6 51.2)"/><path fill="#eff" d="M60 138.4l-.4-3.3 10.3 32.3-51.7-2.5z"/><ellipse fill="#39472f" cx="204" cy="22" rx="41" ry="11"/><path fill="#005fc0" d="M158 145h21v23h-21z"/><path fill="#fff" d="M160.8 23.5l-3.3-9 4.6-25.6L271-11z"/><ellipse fill="#fff" rx="1" ry="1" transform="matrix(9.44678 .25506 -1.76744 65.4615 254.6 42.3)"/><path fill="#000701" d="M50.2 140.8L54 98.9l25.9 2.3-3.7 41.9z"/><ellipse fill="#0071ab" rx="1" ry="1" transform="rotate(81.1 -47.5 65.5) scale(58.27029 28.92291)"/><ellipse fill="#33b7e4" cx="198" cy="48" rx="38" ry="13"/><ellipse fill="#00295e" rx="1" ry="1" transform="matrix(1.43722 -69.24926 37.10966 .77018 52.4 10.5)"/><path fill="#f8ffff" d="M157 33h6v68h-6z"/><path fill="#d5cbcf" d="M155 163l-23 22-52-35z"/></g></svg>