<svg xmlns="http://www.w3.org/2000/svg" viewBox="0 0 200 133"><filter id="b"><feGaussianBlur stdDeviation="12" /></filter><path fill="#183655" d="M0 0h200v133H0z"/><g filter="url(#b)" transform="translate(.5 .5)" fill-opacity=".5"><ellipse fill="#8cfeff" rx="1" ry="1" transform="matrix(14.59083 36.16648 -52.5164 21.18697 102.2 68.8)"/><ellipse rx="1" ry="1" transform="rotate(89.9 51 130) scale(113.9852 27.2394)"/><ellipse fill="#68c0ff" cx="86" cy="67" rx="38" ry="38"/><ellipse fill="#000001" rx="1" ry="1" transform="matrix(-.82019 -104.1578 37.82787 -.29787 15.8 67.3)"/><ellipse fill="#000013" cx="124" cy="127" rx="100" ry="24"/><ellipse rx="1" ry="1" transform="rotate(87.3 36.5 49.6) scale(17.12746 158.90428)"/><ellipse fill="#d8edff" rx="1" ry="1" transform="matrix(6.29232 7.28973 -20.9013 18.04151 81.3 71.5)"/><path fill="#8fc3dc" d="M156.6 47l-19.8 2.8-3.4-24.8 19.8-2.8z"/><ellipse cx="185" cy="52" rx="31" ry="56"/><path fill="#003e94" d="M122 72h29v37h-29z"/><path fill="#0031c1" d="M30.8 55.5L43 73.8l9.3 41 4.4-82.1z"/><path fill="#89b8fb" d="M55.5 35.1l29.8 4.4 2.2 66.8-36.2 1.5z"/><ellipse fill="#007dce" rx="1" ry="1" transform="matrix(-4.81925 -9.99086 17.68646 -8.53135 93.7 40.5)"/><ellipse fill="#000008" cy="93" rx="40" ry="40"/><path fill="#1997f2" d="M88 68h30v35H88z"/><ellipse fill="#000002" cx="125" cy="130" rx="33" ry="25"/><ellipse fill="#000732" cx="83" cy="9" rx="45" ry="24"/><ellipse fill="#6c9cc5" rx="1" ry="1" transform="matrix(1.04257 -17.79902 19.23645 1.12677 132.6 42)"/><path fill="#93b7d2" d="M135 49h15v27h-15z"/><ellipse rx="1" ry="1" transform="rotate(-160.7 78 -7.3) scale(85.76589 11.40131)"/><ellipse fill="#edecf7" cx="75" cy="72" rx="8" ry="11"/><path fill="#002257" d="M129 22h3v42h-3z"/></g></svg>