<svg xmlns="http://www.w3.org/2000/svg" viewBox="0 0 200 133"><filter id="b"><feGaussianBlur stdDeviation="12" /></filter><path fill="#8a2316" d="M0 0h200v133H0z"/><g filter="url(#b)" transform="translate(.5 .5)" fill-opacity=".5"><ellipse fill="#ff2c1e" cx="93" cy="28" rx="44" ry="44"/><ellipse fill="#000014" rx="1" ry="1" transform="matrix(-46.77416 18.67567 -9.41032 -23.56863 187.7 76.4)"/><ellipse cx="10" cy="8" rx="48" ry="27"/><ellipse fill="#170000" rx="1" ry="1" transform="rotate(68 79 142.1) scale(108.2188 33.23518)"/><ellipse fill="#ff5b53" cx="77" cy="118" rx="139" ry="13"/><ellipse fill="#070d14" rx="1" ry="1" transform="matrix(4.75644 -22.80582 30.55168 6.37193 21.2 91.8)"/><ellipse fill="#ff9b00" cx="142" cy="50" rx="9" ry="27"/><ellipse fill="#f32" cx="74" cy="37" rx="31" ry="31"/><path fill="#000006" d="M73 101.5l1.1-34 27 1-1.2 34z"/><path fill="#ff0" d="M38 70.3L56.7 77 18 33.5l-2.6.5z"/><path fill="#ffb900" d="M136.7 87l-10-4.5L143.2 45l10 4.5z"/><path fill="#a76aac" d="M176 61h8v58h-8z"/><ellipse fill="#250000" rx="1" ry="1" transform="rotate(48.4 -54.5 28.6) scale(24.44076 17.27584)"/><ellipse fill="#001600" rx="1" ry="1" transform="matrix(-9.62781 2.32884 -1.15526 -4.77605 37.9 123.7)"/><path fill="#320000" d="M133.6 48.4l-10.5 5.8L98.4 9.6l10.5-5.8z"/><path fill="#1d0006" d="M97 148h57l-49-32z"/><path d="M142 72h32v32h-32z"/><path fill="#ff883c" d="M46 103l-27 27-27-8z"/><path fill="#ff4336" d="M107 42h9v74h-9z"/><path fill="#09001e" d="M57 88l8 34 8-22z"/><path fill="#ff7298" d="M122 113h78v6h-78z"/><path fill="#ff0" d="M42.8 114l15.8 2.2-1.4 9.9-15.8-2.3z"/></g></svg>