<svg xmlns="http://www.w3.org/2000/svg" viewBox="0 0 641 195"><filter id="b"><feGaussianBlur stdDeviation="12" /></filter><path fill="#343864" d="M0 0h641v192H0z"/><g filter="url(#b)" transform="translate(1.3 1.3) scale(2.5039)" fill-opacity=".5"><ellipse cy="76" rx="55" ry="110"/><path fill="#bfb8b4" d="M115 0h32v73h-32z"/><ellipse fill="#34ff95" rx="1" ry="1" transform="matrix(-4.80142 -21.0796 39.57237 -9.01363 177.5 0)"/><ellipse fill="#b098dd" cx="224" cy="16" rx="7" ry="80"/><ellipse fill="#c18ad0" cx="57" cy="33" rx="12" ry="12"/><path fill="#fff" d="M99 71.2l.9 7L81 80.7l-1-7z"/><ellipse fill="#2409c6" rx="1" ry="1" transform="rotate(37.1 112.2 384.1) scale(25.09059 31.76848)"/><path fill="#d4cdfb" d="M134 30l-17 13 36 29z"/><ellipse fill="#039b56" rx="1" ry="1" transform="rotate(37.5 50.4 148.3) scale(25.58997 23.75662)"/><ellipse fill="#1d133c" cx="95" cy="36" rx="25" ry="25"/><ellipse fill="#000020" rx="1" ry="1" transform="matrix(34.32384 70.41822 -29.48316 14.37093 35.3 71.7)"/><ellipse fill="#230a6b" rx="1" ry="1" transform="matrix(43.49905 24.62023 -10.26866 18.14267 180.2 52.3)"/><ellipse fill="#04005c" cx="253" cy="57" rx="21" ry="35"/><path fill="#f4b5d0" d="M114 64.7l2.6 19.5 13.6-30.1-10.9-6.5z"/><ellipse fill="#3f001e" cx="132" cy="76" rx="8" ry="22"/><ellipse fill="#573eb1" rx="1" ry="1" transform="rotate(97.6 92 105.8) scale(25.83973 11.54737)"/><path fill="#7dd27a" d="M175.6-5.1l.8 23-36 1.2-.8-23z"/><path fill="#007c8f" d="M177.9 24.2l-3.4-13.5L218-.3l3.4 13.6z"/><path fill="#0a0028" d="M68 25h17v47H68z"/><path fill="#06053c" d="M8.2 7.7l66-20.2 7.6 24.8-66 20.2z"/><path fill="#e1a0b8" d="M145 30l13 14-17-8z"/><path fill="#9b7095" d="M71.5 18.3l3.5 3.3-36.3 19.6 17.7-29.3z"/></g></svg>