<svg xmlns="http://www.w3.org/2000/svg" viewBox="0 0 200 133"><filter id="b"><feGaussianBlur stdDeviation="12" /></filter><path fill="#e2eaf5" d="M0 0h200v133H0z"/><g filter="url(#b)" transform="translate(.5 .5)" fill-opacity=".5"><path d="M45 80h15v17H45z"/><path fill="#1c3a4c" d="M38 28l23 1L49 3z"/><path fill="#7b8993" d="M23 107l22.2-3.5 34.2-.2L35.5 118z"/><path fill="#c4bc8c" d="M122 40l52-13-48-2z"/><path fill="#bbb4b7" d="M136 76h27v47h-27z"/><path fill="#9db0be" d="M57.1 26.1l3.8 9.3-26 10.5-3.8-9.3z"/><path fill="#2d2922" d="M45.1 89.7L54.3 79 65 88.3 55.7 99z"/><ellipse fill="#f1f9ff" cx="97" cy="65" rx="42" ry="42"/><path fill="#f8fcff" d="M0 0h200v11H0z"/><ellipse fill="#f3fbff" rx="1" ry="1" transform="matrix(15.7721 68.67473 -33.9941 7.80721 199 78.8)"/><ellipse fill="#e9f4ff" rx="1" ry="1" transform="matrix(-22.43458 -10.89365 14.21108 -29.26655 23.5 75.2)"/><path fill="#22393c" d="M58 83.4l4.3 4-12.2 13.2-4.4-4z"/><ellipse fill="#f3f8ff" rx="1" ry="1" transform="rotate(89.6 56 68) scale(13.00167 71.87284)"/><path fill="#eff5ff" d="M40.8 22.8l-51 75.4L-11.4-16h74.1z"/><path fill="#ff5700" d="M54 80l-9 4v11z"/><path fill="#cedbe7" d="M62 26l-20 4 26 8z"/><ellipse fill="#eff8ff" rx="1" ry="1" transform="rotate(97.5 51.2 95) scale(20.41086 28.79752)"/><ellipse fill="#e9f3ff" cx="101" cy="114" rx="34" ry="101"/><path fill="#e5edff" d="M44.5 102.6l.2 4 98.7-58-88 48z"/><path fill="#bbb582" d="M158 24h9v11h-9z"/><path fill="#5a8898" d="M61.1 48.6l.3 1-32.5 9.8-.3-1z"/><ellipse fill="#005e88" rx="1" ry="1" transform="matrix(2.3812 1.86796 -4.07395 5.1933 53.4 89.4)"/></g></svg>