<svg xmlns="http://www.w3.org/2000/svg" viewBox="0 0 700 467"><filter id="b"><feGaussianBlur stdDeviation="12" /></filter><path fill="#8c8b81" d="M0 0h700v464H0z"/><g filter="url(#b)" transform="translate(1.4 1.4) scale(2.73438)" fill-opacity=".5"><ellipse cx="74" cy="23" rx="60" ry="35"/><ellipse fill="#deebfc" cx="147" cy="123" rx="94" ry="22"/><path fill="#3a0000" d="M271 113l-55-73-62 45z"/><ellipse fill="#f9f1ff" rx="1" ry="1" transform="rotate(148.5 79.8 52) scale(28.1293 22.20182)"/><ellipse fill="#c1c7ca" cx="12" cy="130" rx="50" ry="86"/><ellipse fill="#182e00" cx="69" cy="20" rx="39" ry="53"/><ellipse fill="#beb5bf" cx="107" cy="61" rx="20" ry="25"/><path fill="#4b0300" d="M123 82l-4.6-14 105.7 13.2-29.5 16.5z"/><path fill="#331600" d="M127 2.1l29 19.6-19 28.2-29-19.6z"/><ellipse fill="#dfdfe5" rx="1" ry="1" transform="matrix(-4.9115 18.23895 -55.21691 -14.86917 152.9 112.7)"/><path d="M4 54.3l4.8 33.6-12.9 1.8-4.7-33.6z"/><ellipse fill="#d7c2a3" rx="1" ry="1" transform="matrix(-7.04949 39.96091 -54.83281 -9.67304 255 17.6)"/><ellipse fill="#cccecd" rx="1" ry="1" transform="matrix(-24.14332 -18.22664 16.69425 -22.11348 244.7 145.7)"/><ellipse fill="#7f9ba9" rx="1" ry="1" transform="matrix(19.61145 -30.78381 66.63449 42.45085 116 149.2)"/><path d="M63 90h27v7H63z"/><path fill="#c2d3e6" d="M226 74h18v17h-18z"/><ellipse fill="#1d3000" cx="54" cy="27" rx="34" ry="29"/><path fill="#020206" d="M62 72l32 2-22-40z"/><path fill="#f2e4d1" d="M163 0h11v40h-11z"/><ellipse fill="#a6bdc7" rx="1" ry="1" transform="matrix(36.58483 18.67453 -8.90489 17.44535 186.1 169)"/><ellipse fill="#316886" rx="1" ry="1" transform="matrix(-35.35014 6.09015 -1.68224 -9.76455 89 149.7)"/><path d="M10 29l-16-2-10 58z"/></g></svg>