<svg xmlns="http://www.w3.org/2000/svg" viewBox="0 0 641 195"><filter id="b"><feGaussianBlur stdDeviation="12" /></filter><path fill="#65201d" d="M0 0h641v192H0z"/><g filter="url(#b)" transform="translate(1.3 1.3) scale(2.5039)" fill-opacity=".5"><ellipse fill="#ecffff" cx="112" rx="15" ry="23"/><ellipse fill="#f32e2a" rx="1" ry="1" transform="matrix(-56.36595 -1.27912 .59911 -26.40056 150 53.5)"/><ellipse cx="9" cy="46" rx="49" ry="236"/><path fill="#ff5b24" d="M16 33h60v14H16z"/><path d="M183 51.8l-6 22-5 13.5-7.8-40.8z"/><ellipse fill="#161314" cx="232" cy="54" rx="30" ry="30"/><ellipse fill="#0a1527" cx="153" cy="3" rx="30" ry="27"/><ellipse fill="#060910" cx="71" cy="7" rx="29" ry="23"/><path fill="#e02e29" d="M180 18h28v59h-28z"/><path fill="#ff594b" d="M137 37h23v40h-23z"/><ellipse fill="#ff0d0c" cx="108" cy="76" rx="15" ry="15"/><path fill="#050000" d="M-16 58.2L45 92 61.5 5 32.9 52.9z"/><ellipse cx="88" cy="61" rx="10" ry="17"/><ellipse fill="#ff0900" cx="67" cy="76" rx="10" ry="21"/><path fill="#07040a" d="M123.6 70l6.7 3.5 4.6-19-8-33z"/><ellipse fill="#7e6e49" rx="1" ry="1" transform="matrix(8.8866 -13.97194 26.64296 16.94575 239 7.3)"/><path fill="#ff590b" d="M15.5 42.5l-1.7-16.2 31.5 17.2-24 3.7z"/><path fill="#9396b6" d="M97 0h31v27H97z"/><ellipse fill="#fff" cx="62" cy="36" rx="4" ry="4"/><path fill="#fff" d="M117.9 14.3l-9 .4-.8-21 9-.4z"/><path d="M19.1-3.4L9.8 103.2l-21-1.8L-1.7-5.2z"/><path fill="#f82112" d="M49 48.8l20.2 9.5-3.4 1.3 17.8-17z"/></g></svg>