<svg xmlns="http://www.w3.org/2000/svg" viewBox="0 0 700 467"><filter id="b"><feGaussianBlur stdDeviation="12" /></filter><path fill="#3b2b18" d="M0 0h700v464H0z"/><g filter="url(#b)" transform="translate(1.4 1.4) scale(2.73438)" fill-opacity=".5"><ellipse fill="#fff" rx="1" ry="1" transform="matrix(17.60042 13.23547 -9.02887 12.00652 178.6 30.2)"/><path fill="#fff" d="M18.4 82.7l38.5-51 20.7 15.6-38.5 51z"/><ellipse fill="#e1bb64" rx="1" ry="1" transform="matrix(10.29115 -23.9091 15.82853 6.81305 12.4 34.6)"/><ellipse fill="#100000" rx="1" ry="1" transform="matrix(-22.88298 -27.35392 76.356 -63.87578 87.6 95.5)"/><ellipse fill="#000001" rx="1" ry="1" transform="rotate(-91.6 168.2 -21.7) scale(42.01002 53.59979)"/><ellipse fill="#201000" rx="1" ry="1" transform="matrix(4.80345 11.7705 -28.29901 11.54861 28.3 58)"/><path fill="#ffffcf" d="M147.7 12.1l33 34.1 15.8-7-3.6-20.6z"/><path fill="#fff" d="M31 71h12v23H31z"/><path fill="#fefdfa" d="M65.3 27L63 30l-16.3 3.6 16.5 44.1z"/><ellipse fill="#000003" cx="202" cy="75" rx="46" ry="20"/><path fill="#dcdce5" d="M-16 82.8V19l33.1 20.6z"/><ellipse rx="1" ry="1" transform="matrix(-5.4838 -18.77762 24.6761 -7.20638 9.8 99.7)"/><ellipse fill="#fff" rx="1" ry="1" transform="matrix(7.64354 -2.0447 1.83276 6.85123 62 64)"/><path fill="#f5efe6" d="M47.5 96.5L40.2 65 11.6 79.7l17.6 4.8z"/><path fill="#996f47" d="M271 73.4l-3.6-81.1-26 108 1.2 33z"/><ellipse fill="#8d6318" cx="24" rx="15" ry="59"/><path fill="#aa7d40" d="M179 51l-19-31v42z"/><path fill="#95896c" d="M193 22h22v26h-22z"/><ellipse fill="#0c0500" rx="1" ry="1" transform="matrix(-2.122 -18.1709 67.69634 -7.90555 113.5 77)"/><path fill="#0e0200" d="M-16 132.6l96.4-28.3-96.4-22 53.9-1z"/><path fill="#090000" d="M56 57L13 75l39-35z"/><ellipse fill="#eebda5" cx="182" cy="96" rx="14" ry="3"/></g></svg>