<svg xmlns="http://www.w3.org/2000/svg" viewBox="0 0 200 133"><filter id="b"><feGaussianBlur stdDeviation="12" /></filter><path fill="#4c4479" d="M0 0h200v133H0z"/><g filter="url(#b)" transform="translate(.5 .5)" fill-opacity=".5"><ellipse fill="#fff1ff" rx="1" ry="1" transform="matrix(-5.69108 -40.49413 197.06334 -27.69545 43.7 132)"/><ellipse rx="1" ry="1" transform="matrix(-54.95705 32.27985 -24.81893 -42.2547 37.6 39)"/><ellipse fill="#000026" cx="159" cy="37" rx="47" ry="47"/><ellipse fill="#fff" rx="1" ry="1" transform="matrix(-.32588 26.67264 -13.67639 -.1671 103.8 60.5)"/><path d="M58 121h30v12H58z"/><ellipse cx="38" cy="35" rx="55" ry="55"/><ellipse fill="#020054" cx="142" cy="12" rx="46" ry="46"/><ellipse fill="#dadfff" cx="150" cy="120" rx="67" ry="12"/><ellipse fill="#c496ff" rx="1" ry="1" transform="matrix(-5.93383 -22.58397 41.7475 -10.96896 28 113.2)"/><ellipse fill="#f5fbff" cx="155" cy="91" rx="82" ry="6"/><ellipse fill="#e5e3ff" rx="1" ry="1" transform="matrix(14.60679 -7.7993 7.06792 13.23704 101.2 58.1)"/><path fill="#00001c" d="M215 48l-90-19.6-9.5 55.7 22.7 1.7z"/><path d="M84 87l-24-1 35-32z"/><ellipse fill="#343d94" cx="167" cy="103" rx="67" ry="6"/><path fill="#00004e" d="M87.4 119.8l-27.2-.4-5.1 19.3 48.8 9.3z"/><ellipse fill="#d6cbf4" cx="102" cy="58" rx="7" ry="31"/><path fill="#9e9aff" d="M90 74h25v59H90z"/><ellipse fill="#170094" cx="153" rx="65" ry="20"/><ellipse fill="#85d8ff" rx="1" ry="1" transform="matrix(-17.65478 -65.50235 1.79888 -.48485 173.3 34.9)"/><path fill="#0000b8" d="M79 103l21 1-40 10z"/><ellipse fill="#00000a" cx="39" cy="40" rx="51" ry="41"/><ellipse fill="#00e2ff" rx="1" ry="1" transform="matrix(-1.57346 .38276 -7.00972 -28.81546 195.3 19.8)"/></g></svg>