<svg xmlns="http://www.w3.org/2000/svg" viewBox="0 0 700 467"><filter id="b"><feGaussianBlur stdDeviation="12" /></filter><path fill="#31363c" d="M0 0h700v464H0z"/><g filter="url(#b)" transform="translate(1.4 1.4) scale(2.73438)" fill-opacity=".5"><path fill="#a7cbb5" d="M45.7-21.7l21.9 12-37.3 67.4-21.9-12z"/><ellipse fill="#a5a59b" cx="98" cy="6" rx="26" ry="27"/><ellipse fill="#020c21" rx="1" ry="1" transform="matrix(123.7599 -1.49945 .35597 29.38069 152.5 151.5)"/><ellipse rx="1" ry="1" transform="rotate(-82.3 72.8 0) scale(48.5379 20.16756)"/><path fill="#f3fbff" d="M111 87l-18 18 23-48z"/><ellipse fill="#84746c" cx="121" cy="54" rx="25" ry="25"/><ellipse fill="#9e7e62" rx="1" ry="1" transform="matrix(19.82332 -8.3346 8.5997 20.45383 255 32.7)"/><ellipse fill="#b99882" cx="169" cy="59" rx="8" ry="24"/><path fill="#a3c4b9" d="M42 11L31 89l-6-39z"/><ellipse fill="#a48268" rx="1" ry="1" transform="matrix(5.54337 -1.0274 5.21206 28.12177 201.5 32)"/><path fill="#020301" d="M144-16l49 42 3 43z"/><ellipse fill="#4f6068" rx="1" ry="1" transform="matrix(.89214 -29.40352 27.48471 .83392 8.9 150.3)"/><path fill="#9da4b6" d="M121.3 130.2L81 114.5l35.3 5.6 9-6.6z"/><path fill="#080e19" d="M86.4-22.8l44.3 99.6-9.1 4-44.3-99.6z"/><path d="M121 45l10-60 15 37z"/><ellipse fill="#8c9986" cx="40" cy="18" rx="28" ry="11"/><path fill="#1a1d18" d="M2 0h21v53H2z"/><ellipse fill="#bdc9af" cx="149" rx="5" ry="31"/><ellipse fill="#acbbb2" cx="33" cy="114" rx="2" ry="49"/><path d="M204.1 28.6l1-44.6h-12.5l45.8 29.9z"/><path fill="#ddf6ff" d="M92 118l7-15 1 21z"/><ellipse fill="#091321" cx="64" cy="134" rx="30" ry="30"/></g></svg>