<svg xmlns="http://www.w3.org/2000/svg" viewBox="0 0 200 133"><filter id="b"><feGaussianBlur stdDeviation="12" /></filter><path fill="#393638" d="M0 0h200v133H0z"/><g filter="url(#b)" transform="translate(.5 .5)" fill-opacity=".5"><ellipse fill="#898179" cx="109" rx="73" ry="73"/><ellipse fill="#07090b" cx="131" cy="123" rx="79" ry="79"/><path fill="#eaf8ff" d="M152 27.4l-35.8 4.2 8-47.6 20.2 40.1z"/><ellipse fill="#000001" cx="28" cy="110" rx="76" ry="27"/><ellipse fill="#866f60" cx="90" cy="54" rx="24" ry="24"/><ellipse fill="#ffffa6" rx="1" ry="1" transform="matrix(1.79445 .75702 -8.65828 20.52373 122.8 78.7)"/><ellipse fill="#947c77" cx="173" cy="31" rx="11" ry="29"/><ellipse fill="#6b7380" cx="29" cy="8" rx="26" ry="17"/><ellipse cy="50" rx="10" ry="37"/><path fill="#997e71" d="M33 38h15v31H33z"/><ellipse fill="#927067" rx="1" ry="1" transform="matrix(-10.35124 6.9041 -3.40538 -5.10564 151 64.6)"/><path fill="#171920" d="M59.3 20.1L41.8 26l4 26.6 7.8 28z"/><ellipse fill="#86a2b4" cx="132" rx="21" ry="12"/><path fill="#3f3933" d="M105.9 68.1l-24.3-6L96.1 3.9l24.3 6z"/><path fill="#abb3c6" d="M190 40.3l-18.2 9.9 1-5.2 26.4-22.1z"/><path fill="#2a0900" d="M146 15h15v21h-15z"/><path fill="#b3ae85" d="M103.4 76.7l20.2-26-27.9 12.5 14-11.8z"/><path fill="#ba856b" d="M114.1 24.6L134 46l-8 7.5L106 32z"/><ellipse fill="#060813" cx="151" cy="117" rx="38" ry="38"/><path fill="#faffff" d="M116 16.5l17.7 13.2 6.8-15.8-9.8.8z"/><path fill="#271d16" d="M132 39h36v23h-36z"/><path fill="#00000c" d="M36.6 35.9L-16 48.6l33 27.7-33-73.8z"/></g></svg>