<svg xmlns="http://www.w3.org/2000/svg" viewBox="0 0 200 133"><filter id="b"><feGaussianBlur stdDeviation="12" /></filter><path fill="#285440" d="M0 0h200v133H0z"/><g filter="url(#b)" transform="translate(.5 .5)" fill-opacity=".5"><ellipse fill="#caffd0" rx="1" ry="1" transform="rotate(179.4 51.7 35.4) scale(113.04118 18.54437)"/><ellipse rx="1" ry="1" transform="matrix(-1.81745 24.78351 -166.6381 -12.22006 57 109.2)"/><ellipse rx="1" ry="1" transform="matrix(-10.33446 42.45596 -24.462 -5.95444 14.6 24.1)"/><path fill="#008158" d="M215 0v88L17-9z"/><ellipse cx="37" cy="125" rx="42" ry="42"/><path fill="#fffce4" d="M17 62h41v21H17z"/><ellipse fill="#7ac998" cx="161" cy="86" rx="55" ry="11"/><ellipse rx="1" ry="1" transform="rotate(97.3 -23.2 60.7) scale(17.06474 7.66568)"/><ellipse fill="#040000" rx="1" ry="1" transform="rotate(89 -14.4 119.7) scale(39.04479 132.71932)"/><ellipse cx="11" cy="21" rx="28" ry="28"/><ellipse fill="#002b0c" cx="69" cy="48" rx="24" ry="9"/><path fill="#f9f6ea" d="M-2.2 72.5l-.6-5 131-16 .6 5z"/><ellipse fill="#cbf3dd" cx="139" cy="55" rx="51" ry="4"/><path d="M104 78.5v9H94v-9z"/><path fill="#e9ffff" d="M114 68h14v20h-14z"/><path fill="#4d411f" d="M127 64l88 2-27-17z"/><ellipse fill="#139076" cx="84" cy="25" rx="49" ry="13"/><path fill="#003411" d="M70 35h109v15H70z"/><path fill="#b8ceaf" d="M191 51l-11 44-19-3z"/><ellipse cx="188" cy="89" rx="7" ry="6"/><path fill="#aea452" d="M11 45h5v31h-5z"/><path fill="#000900" d="M114 61h31v6h-31z"/></g></svg>