<svg xmlns="http://www.w3.org/2000/svg" viewBox="0 0 200 133"><filter id="b"><feGaussianBlur stdDeviation="12" /></filter><path fill="#999899" d="M0 0h200v133H0z"/><g filter="url(#b)" transform="translate(.5 .5)" fill-opacity=".5"><ellipse fill="#fff" cx="116" rx="80" ry="80"/><ellipse fill="#261404" cx="126" cy="132" rx="78" ry="78"/><ellipse fill="#362614" cx="37" cy="100" rx="48" ry="38"/><ellipse fill="#f1ffff" cx="27" cy="13" rx="48" ry="48"/><ellipse fill="#f2ffff" rx="1" ry="1" transform="rotate(175.6 65.2 16.6) scale(90.01422 39.70853)"/><path fill="#0f0704" d="M215 139l-41-9 9-94z"/><ellipse fill="#a28d7d" rx="1" ry="1" transform="matrix(26.41316 -19.25407 10.96625 15.04374 165.4 75.4)"/><ellipse fill="#e5f1ff" cx="121" cy="21" rx="199" ry="27"/><path fill="#494036" d="M54 148l146-42-216-27z"/><ellipse fill="#b5b4b4" rx="1" ry="1" transform="matrix(-14.94635 23.46107 -7.63418 -4.8635 73.4 66.7)"/><path fill="#e5c0a3" d="M166.2 80.1v21.4L135.8 85l-30.1-4z"/><path fill="#eaf0ee" d="M30.6 120.1l-32.5 24.3 31.7-6.2L36 148z"/><ellipse fill="#0a0908" cx="199" cy="131" rx="17" ry="62"/><path fill="#ebf4ff" d="M176.8-16h23.8l6.3 90.8-17.7-7.5z"/><path fill="#d3dbec" d="M92 46h52v24H92z"/><path fill="#54453e" d="M161 57l41 16-76 1z"/><ellipse fill="#433526" cx="4" cy="119" rx="15" ry="15"/><path fill="#53493f" d="M42 58h28v6H42z"/><ellipse fill="#6a5047" rx="1" ry="1" transform="matrix(4.31265 9.16486 -35.83547 16.8629 187.4 89.6)"/><ellipse fill="#b7cae0" rx="1" ry="1" transform="matrix(-23.35295 23.1473 -21.52648 -21.71772 5.4 39.6)"/><ellipse fill="#c4bcb4" cx="164" cy="62" rx="9" ry="9"/><ellipse fill="#030504" rx="1" ry="1" transform="matrix(-1.57964 -6.89709 77.79763 -17.81804 172.9 132)"/></g></svg>