<svg xmlns="http://www.w3.org/2000/svg" viewBox="0 0 700 467"><filter id="b"><feGaussianBlur stdDeviation="12" /></filter><path fill="#334079" d="M0 0h700v464H0z"/><g filter="url(#b)" transform="translate(1.4 1.4) scale(2.73438)" fill-opacity=".5"><ellipse fill="#fffff8" cx="144" cy="141" rx="23" ry="84"/><ellipse cx="47" cy="125" rx="79" ry="35"/><ellipse fill="#010200" cx="213" cy="125" rx="51" ry="36"/><ellipse fill="#2c47cd" cx="122" rx="79" ry="79"/><ellipse fill="#d8c4a8" rx="1" ry="1" transform="matrix(12.52571 -2.4225 5.15757 26.6675 198.1 66.5)"/><ellipse fill="#fcffff" cx="143" cy="169" rx="25" ry="46"/><ellipse fill="#222c58" cx="143" cy="109" rx="166" ry="10"/><ellipse fill="#abb6f1" cx="115" cy="4" rx="22" ry="22"/><ellipse fill="#072cba" rx="1" ry="1" transform="matrix(6.45325 -29.28593 69.0513 15.21567 228.5 22)"/><ellipse fill="#000473" cx="18" cy="23" rx="38" ry="28"/><path fill="#94b1cc" d="M22 159h97v11H22z"/><ellipse fill="#09197c" cx="54" cy="92" rx="69" ry="25"/><ellipse fill="#746690" cx="81" cy="59" rx="155" ry="9"/><ellipse fill="#f7fff1" cx="144" cy="87" rx="21" ry="12"/><path fill="#d5a22d" d="M146.8 53l2.4 27-12 1-2.4-27z"/><ellipse fill="#030b0e" cx="32" cy="135" rx="92" ry="24"/><ellipse fill="#091768" cx="244" cy="82" rx="28" ry="28"/><path fill="#d7effe" d="M196.4 75.3l-6.5 2 .8 18.1L209.3 85z"/><path fill="#0a1119" d="M167.6 115.1l128-2.2.8 44-128 2.2z"/><path fill="#6a5c33" d="M181.5 88.5h33v19h-33z"/><path fill="#0f111f" d="M80 114h43v42H80z"/><ellipse fill="#0e36c9" rx="1" ry="1" transform="matrix(-16.07859 14.61415 -31.56945 -34.73294 71 14.2)"/></g></svg>