<svg xmlns="http://www.w3.org/2000/svg" viewBox="0 0 700 467"><filter id="b"><feGaussianBlur stdDeviation="12" /></filter><path fill="#6d5245" d="M0 0h700v464H0z"/><g filter="url(#b)" transform="translate(1.4 1.4) scale(2.73438)" fill-opacity=".5"><ellipse fill="#fff" rx="1" ry="1" transform="rotate(-166.3 125.3 65.5) scale(31.53837 44.15151)"/><ellipse fill="#e9fcff" cx="81" cy="81" rx="26" ry="23"/><ellipse fill="#00071e" cx="38" cy="120" rx="33" ry="33"/><ellipse fill="#100" cx="184" cy="17" rx="50" ry="30"/><ellipse fill="#e8ddc6" rx="1" ry="1" transform="rotate(148.8 28.6 81.7) scale(15.88167 45.80373)"/><ellipse fill="#860000" cx="233" cy="76" rx="25" ry="54"/><ellipse fill="#070000" cx="176" cy="128" rx="17" ry="90"/><ellipse fill="#ffc9ac" rx="1" ry="1" transform="rotate(-68.4 119.8 -75.5) scale(29.31636 16.55594)"/><ellipse fill="#fffff6" rx="1" ry="1" transform="matrix(-7.3045 15.24569 -28.26195 -13.54086 230.5 153.6)"/><ellipse fill="#060400" rx="1" ry="1" transform="matrix(-15.87002 -42.912 15.43661 -5.70888 108.3 44.7)"/><ellipse cx="44" cy="11" rx="14" ry="54"/><ellipse fill="#dad5cc" rx="1" ry="1" transform="rotate(71.9 -40 61.4) scale(8.67908 27.4667)"/><ellipse fill="#001e27" rx="1" ry="1" transform="matrix(-26.18332 -52.05973 19.77151 -9.94404 56.3 139.3)"/><path fill="#e5b599" d="M10 150h34v20H10z"/><ellipse fill="#ce9578" rx="1" ry="1" transform="rotate(-92.7 139.7 -54.8) scale(46.82103 10.64809)"/><path fill="#ffdfba" d="M18.7 79.1l-13 5L-14.7 31l13-5z"/><ellipse cx="50" rx="66" ry="14"/><path fill="#e4bda4" d="M147 79.9l8-16.2-57.1 51.8 11.4 12.8z"/><ellipse fill="#b98472" cx="68" cy="52" rx="14" ry="36"/><ellipse fill="#be6717" cx="234" cy="14" rx="16" ry="27"/><ellipse fill="#ab0000" rx="1" ry="1" transform="matrix(13.00129 -18.60108 17.37704 12.14574 229.4 94.5)"/><ellipse fill="#1f1300" rx="1" ry="1" transform="rotate(71.6 73.4 131.6) scale(15.24491 51.80571)"/></g></svg>