<svg xmlns="http://www.w3.org/2000/svg" viewBox="0 0 200 133"><filter id="b"><feGaussianBlur stdDeviation="12" /></filter><path fill="#696f5e" d="M0 0h200v133H0z"/><g filter="url(#b)" transform="translate(.5 .5)" fill-opacity=".5"><ellipse fill="#fff" rx="1" ry="1" transform="rotate(34.3 -95.6 338) scale(30.43584 84.4725)"/><ellipse fill="#e3e9ff" rx="1" ry="1" transform="rotate(67 -65.4 68.1) scale(49.0441 30.44692)"/><ellipse rx="1" ry="1" transform="rotate(86.3 60 76.3) scale(28.69795 199.00001)"/><ellipse fill="#f0f7d8" cx="112" cy="51" rx="23" ry="23"/><ellipse rx="1" ry="1" transform="matrix(12.35775 8.74978 -49.14184 69.40552 167.3 40.4)"/><ellipse fill="#e6e4db" cx="119" cy="132" rx="64" ry="18"/><ellipse fill="#000600" rx="1" ry="1" transform="matrix(-9.17445 -7.6719 25.53218 -30.53263 50.5 48.6)"/><ellipse fill="#2f6000" cx="106" cy="96" rx="28" ry="28"/><path fill="#ebefce" d="M91 33L60 81l35-1z"/><ellipse fill="#071a00" cx="38" cy="15" rx="41" ry="41"/><path fill="#fff" d="M21 95l29-33 3 58z"/><path fill="#001800" d="M54 52h16v47H54z"/><ellipse fill="#09050b" cx="170" cy="23" rx="34" ry="34"/><ellipse fill="#f2d5cf" rx="1" ry="1" transform="matrix(21.78318 5.0917 -11.03379 47.20442 180.3 101.9)"/><path fill="#7d605b" d="M47.3 157.4l-17.5-26.8 37-24 17.4 26.8z"/><ellipse fill="#f8ffff" rx="1" ry="1" transform="matrix(2.25624 5.46026 -33.6582 13.90796 106.3 130.8)"/><ellipse fill="#051b00" cx="101" cy="11" rx="44" ry="19"/><path fill="#c2d2ff" d="M18 52l-34-13 60 88z"/><path fill="#fff" d="M46.1 62.7l-4.5 4.5-9.8 30 15.5 16.6z"/><path fill="#123d00" d="M46.5 88.4l7-14.4 36 17.6-7 14.4z"/><ellipse fill="#6f7a56" rx="1" ry="1" transform="matrix(-24.606 -11.73646 4.9964 -10.47515 75.5 37.7)"/><path fill="#0a040f" d="M155 42h10v43h-10z"/></g></svg>