<svg xmlns="http://www.w3.org/2000/svg" viewBox="0 0 200 133"><filter id="b"><feGaussianBlur stdDeviation="12" /></filter><path fill="#3c353c" d="M0 0h200v133H0z"/><g filter="url(#b)" transform="translate(.5 .5)" fill-opacity=".5"><ellipse fill="#75dbff" rx="1" ry="1" transform="matrix(2.06498 -23.1376 67.2772 6.00433 97.3 41.8)"/><ellipse rx="1" ry="1" transform="matrix(59.49008 76.4681 -25.43518 19.78787 175.8 16)"/><ellipse rx="1" ry="1" transform="matrix(-21.7912 -.3619 .5917 -35.62784 15.4 21.2)"/><ellipse fill="#1e0000" cx="163" cy="127" rx="183" ry="17"/><path fill="#c11828" d="M15 61h173v11H15z"/><ellipse cx="137" cy="5" rx="108" ry="16"/><path fill="#269fc5" d="M35 18h33v43H35z"/><ellipse fill="#7c5d60" rx="1" ry="1" transform="matrix(8.51947 -22.10778 21.97428 8.46803 52.3 92.3)"/><ellipse fill="#aabbc0" rx="1" ry="1" transform="matrix(1.074 12.5277 -29.36134 2.51715 98.2 42.8)"/><ellipse fill="#b27e83" cx="110" cy="81" rx="11" ry="11"/><path fill="#1197c2" d="M158 27l3 34-31 1z"/><ellipse fill="#290000" rx="1" ry="1" transform="matrix(198.0611 -19.30804 1.8876 19.36292 114.6 132)"/><ellipse rx="1" ry="1" transform="rotate(-47 136.9 -197.8) scale(33.67933 20.43164)"/><ellipse cx="3" cy="23" rx="30" ry="33"/><path fill="#77a1ae" d="M86 26h74v28H86z"/><path fill="#110200" d="M-13 129.5l-4-54.9 30-2 3.8 54.8z"/><ellipse fill="#b68d85" cx="147" cy="85" rx="13" ry="5"/><ellipse fill="#8f1a1d" rx="1" ry="1" transform="matrix(-1.5356 7.1048 -39.99331 -8.64402 3.6 56.3)"/><path fill="#513069" d="M70 55h65v8H70z"/><path fill="#8e6b73" d="M97 83h13v30H97z"/><path fill="#ceaa9f" d="M33 86h39v5H33z"/><ellipse fill="#8ca2a9" cx="64" cy="21" rx="31" ry="5"/></g></svg>