<svg xmlns="http://www.w3.org/2000/svg" viewBox="0 0 200 133"><filter id="b"><feGaussianBlur stdDeviation="12" /></filter><path fill="#25264b" d="M0 0h200v133H0z"/><g filter="url(#b)" transform="translate(.5 .5)" fill-opacity=".5"><ellipse fill="#6f65ff" rx="1" ry="1" transform="rotate(-166.7 65.6 13) scale(42.22308 22.8384)"/><path fill="#b9addf" d="M113 77.2l3.9 44.8-31.9 2.8L81.1 80z"/><ellipse rx="1" ry="1" transform="matrix(-19.2626 -31.46565 118.12157 -72.31147 5.9 27.1)"/><path fill="#fff" d="M160 95l-5-39 19 32zM35 72h13v23H35z"/><ellipse cx="188" cy="23" rx="26" ry="84"/><ellipse fill="#5a5ddd" rx="1" ry="1" transform="matrix(-36.64514 -3.2705 1.37198 -15.37276 94.8 37)"/><ellipse cx="105" rx="199" ry="19"/><path fill="#8da1ff" d="M144 9.7l-8 79.5 11.9 17.1L147 78z"/><path fill="#affaff" d="M22 71l-5.2 24.4L6 93l5.2-24.5z"/><ellipse cx="82" cy="132" rx="199" ry="11"/><ellipse cx="99" cy="108" rx="62" ry="4"/><path fill="#eddaff" d="M107.2 98.1l-19 1.7-1.4-16 19-1.6z"/><ellipse fill="#19055a" rx="1" ry="1" transform="rotate(64.3 3.9 121.2) scale(24.62953 15.97609)"/><path fill="#95c3d2" d="M163 122l-7-60 22 53z"/><ellipse fill="#473fb4" rx="1" ry="1" transform="matrix(-22.08983 29.20799 -12.4752 -9.43492 145.2 50.7)"/><path fill="#050605" d="M46 89h32v44H46z"/><ellipse cx="12" cy="23" rx="21" ry="40"/><path d="M44 52L25 32l-7 94z"/><path fill="#b9d5c9" d="M131 113.4l-43-1.6-8.8-.3 6.2 9.2z"/><path fill="#81a89f" d="M28 110h23v10H28z"/><path fill="#00003d" d="M69 86l35 16-18 9z"/></g></svg>