<svg xmlns="http://www.w3.org/2000/svg" viewBox="0 0 700 467"><filter id="b"><feGaussianBlur stdDeviation="12" /></filter><path fill="#b6b196" d="M0 0h700v464H0z"/><g filter="url(#b)" transform="translate(1.4 1.4) scale(2.73438)" fill-opacity=".5"><ellipse fill="#5c2c02" cx="165" cy="73" rx="81" ry="31"/><ellipse fill="#fff" rx="1" ry="1" transform="matrix(76.41654 -29.64002 11.38229 29.3453 70.7 133.8)"/><ellipse fill="#197b00" rx="1" ry="1" transform="rotate(3.6 -2559.3 2712.5) scale(65.7466 31.18836)"/><ellipse fill="#fff" rx="1" ry="1" transform="matrix(2.15938 26.31296 -71.6516 5.88012 48 19.7)"/><ellipse fill="#ff9500" cx="15" cy="98" rx="44" ry="21"/><ellipse fill="#150a1b" cx="244" cy="102" rx="59" ry="11"/><ellipse fill="#f5ffff" rx="1" ry="1" transform="matrix(13.50062 -17.04846 37.3262 29.5585 243.7 144.4)"/><ellipse fill="#232a4a" cx="237" cy="41" rx="42" ry="11"/><ellipse fill="#f6ffff" cx="88" cy="117" rx="35" ry="34"/><path fill="#fff2a6" d="M162 24h25v60h-25z"/><ellipse fill="#fff" cx="56" cy="73" rx="16" ry="17"/><ellipse fill="#fff" rx="1" ry="1" transform="matrix(-83.09412 -9.85631 1.0474 -8.83019 195 125.3)"/><ellipse fill="#dcf2ff" cx="207" cy="2" rx="36" ry="11"/><ellipse fill="#ffa800" rx="1" ry="1" transform="matrix(-34.77748 20.94549 -8.6324 -14.33306 18.7 109.6)"/><ellipse fill="#524d35" cx="124" cy="65" rx="31" ry="31"/><ellipse fill="#fff" cx="18" cy="68" rx="15" ry="15"/><path fill="#4a7e00" d="M85 153h136v17H85z"/><ellipse fill="#934500" cx="19" cy="6" rx="8" ry="16"/><path fill="#30375d" d="M271 4.7l-97.4 18.1 40-.5 48.5-3.8z"/><path fill="#fa5000" d="M228.5 90.6l-24.8 2.6-4.2-39.8 24.8-2.6z"/><ellipse fill="#eefeff" cx="45" cy="154" rx="38" ry="38"/><path fill="#3d2221" d="M138 43.4l-13.3 18.4-35 22.8-31.3-2.2z"/></g></svg>