<svg xmlns="http://www.w3.org/2000/svg" viewBox="0 0 200 133"><filter id="b"><feGaussianBlur stdDeviation="12" /></filter><path fill="#686d71" d="M0 0h200v133H0z"/><g filter="url(#b)" transform="translate(.5 .5)" fill-opacity=".5"><ellipse fill="#0c0200" rx="1" ry="1" transform="rotate(11.3 -275.4 328.3) scale(33.09967 151.52716)"/><ellipse fill="#b8d2e7" cx="165" cy="79" rx="54" ry="54"/><path fill="#fff" d="M24.5 56.3L7.9 118l-16.4-4.4L8.1 52zm94.8 13.9l-.6-30 24-.4.6 30z"/><path fill="#f3f2f4" d="M0 57h58v14H0z"/><ellipse fill="#fdffff" cx="156" cy="132" rx="20" ry="28"/><ellipse cx="95" cy="32" rx="33" ry="15"/><path fill="#f5ffff" d="M85 99h13v34H85z"/><path fill="#1b1713" d="M101 106h36v27h-36z"/><ellipse fill="#010700" rx="1" ry="1" transform="matrix(18.85137 -3.65046 7.05317 36.4234 64.2 121.4)"/><ellipse fill="#cbcdba" cx="47" cy="2" rx="90" ry="5"/><ellipse fill="#606c75" cx="170" cy="79" rx="29" ry="29"/><ellipse fill="#32251c" cx="38" cy="26" rx="45" ry="23"/><ellipse fill="#feffff" cx="1" cy="96" rx="11" ry="33"/><ellipse fill="#17262d" rx="1" ry="1" transform="rotate(53.3 -82 87.5) scale(27.73251 25.53664)"/><path fill="#d0f3ff" d="M109 44.2l22.8 16.4L103 52l-1-31z"/><ellipse fill="#ce9c7a" rx="1" ry="1" transform="matrix(-5.60986 15.49706 -8.3803 -3.03363 57.4 60.7)"/><path fill="#0b0300" d="M74.7 94.6L83 84.1l22.1-70.4-50.3 54.1z"/><path fill="#173a27" d="M119.8 68.4l.4 25-12 .2-.4-25z"/><path fill="#112128" d="M31.3 62l22.3 14.7L19.2 73l41-37z"/><path fill="#c2d5fe" d="M81.3 110.8l-6.1-18.1h7.7L94.2 148z"/><ellipse fill="#fff" rx="1" ry="1" transform="matrix(1.332 3.9955 -29.09552 9.69977 22.6 0)"/></g></svg>