<svg xmlns="http://www.w3.org/2000/svg" viewBox="0 0 700 467"><filter id="b"><feGaussianBlur stdDeviation="12" /></filter><path fill="#354f68" d="M0 0h700v464H0z"/><g filter="url(#b)" transform="translate(1.4 1.4) scale(2.73438)" fill-opacity=".5"><ellipse fill="#bfcbce" cx="48" cy="96" rx="43" ry="43"/><ellipse rx="1" ry="1" transform="rotate(101.4 -1 140.3) scale(42.39012 97.67991)"/><ellipse fill="#feaf63" cx="123" cy="99" rx="24" ry="38"/><ellipse fill="#fffcff" rx="1" ry="1" transform="rotate(28.8 -86.8 409) scale(9.03559 35.92638)"/><ellipse fill="#001a49" cx="235" cy="123" rx="32" ry="248"/><ellipse fill="#0054ac" rx="1" ry="1" transform="rotate(87.8 51.6 69.4) scale(23.55733 253.75044)"/><ellipse fill="#fff" cx="198" cy="111" rx="9" ry="9"/><path fill="#ffa371" d="M48 23l16 9-23 38z"/><ellipse fill="#f1c9ab" rx="1" ry="1" transform="matrix(16.9957 4.71332 -1.71984 6.20153 166.5 74)"/><ellipse rx="1" ry="1" transform="rotate(61.5 -60 202.5) scale(22.55974 62.6598)"/><path fill="#fff" d="M157 128l-18-43-2 28z"/><ellipse fill="#000024" rx="1" ry="1" transform="rotate(-133.1 39 76.8) scale(35.51864 20.23145)"/><ellipse fill="#260900" rx="1" ry="1" transform="matrix(-14.33369 2.60487 -6.18287 -34.02214 219.4 91.2)"/><ellipse fill="#0050a1" cy="29" rx="21" ry="95"/><path fill="#e8f7ff" d="M76 74h15v44H76z"/><ellipse fill="#100200" rx="1" ry="1" transform="matrix(-12.08807 .8146 -1.24837 -18.52479 165 92)"/><ellipse fill="#81533b" rx="1" ry="1" transform="matrix(26.92109 11.3697 -9.4883 22.46632 141 53.4)"/><ellipse fill="#ffa56c" cx="198" cy="50" rx="8" ry="18"/><path fill="#000027" d="M57 104h9v37h-9z"/><path fill="#fff" d="M176 74h10v38h-10z"/><path fill="#ee9057" d="M74 44h14v30H74z"/><path d="M97 117l3-39-17-23z"/></g></svg>