<svg xmlns="http://www.w3.org/2000/svg" viewBox="0 0 800 533"><filter id="b"><feGaussianBlur stdDeviation="12" /></filter><path fill="#889f96" d="M0 0h800v531H0z"/><g filter="url(#b)" transform="translate(1.6 1.6) scale(3.125)" fill-opacity=".5"><ellipse rx="1" ry="1" transform="matrix(-18.0669 26.21485 -80.40556 -55.41439 34.4 166)"/><ellipse fill="#e4ecdc" cx="190" cy="76" rx="60" ry="60"/><ellipse fill="#001300" rx="1" ry="1" transform="matrix(-3.33391 21.78723 -34.35165 -5.25654 229.4 161.6)"/><ellipse fill="#f6f7e6" cx="138" cy="45" rx="32" ry="32"/><ellipse fill="#26220b" rx="1" ry="1" transform="rotate(149 -9.2 46.7) scale(35.42041 18.34037)"/><ellipse fill="#1161b5" rx="1" ry="1" transform="matrix(-8.43925 -30.78608 60.55524 -16.59973 35.6 5.6)"/><path d="M247 75h9v52h-9z"/><ellipse fill="#5d6844" rx="1" ry="1" transform="matrix(-4.92013 -29.5347 38.84778 -6.47159 155 142.7)"/><ellipse rx="1" ry="1" transform="matrix(33.5896 -1.55918 1.17491 25.31128 23.3 157.8)"/><ellipse fill="#bce1d7" cx="62" cy="79" rx="23" ry="64"/><path fill="#185177" d="M216 5.6l3 43-27 1.8-3-43z"/><ellipse fill="#ffffeb" rx="1" ry="1" transform="rotate(82.3 55.2 177) scale(41.50615 23.30143)"/><path fill="#3e6e5d" d="M141 78h53v26h-53z"/><ellipse fill="#ffffef" cx="125" cy="86" rx="11" ry="47"/><path fill="#168f88" d="M83.3 123.2l-24.1 38.3-6.6-54 30 7z"/><path fill="#c9e3cd" d="M103.1 171.5l3-63.6L69 135.5l-3.6 15.7z"/><path fill="#2d4805" d="M106 133h30v19h-30z"/><ellipse fill="#376c8f" rx="1" ry="1" transform="rotate(176.1 30.5 9.6) scale(10.71476 41.24834)"/><ellipse fill="#e3e4d7" rx="1" ry="1" transform="rotate(98.3 90.9 128.6) scale(21.24102 23.71843)"/><path fill="#001700" d="M102.5 35l15.8-2 1.2 10-15.8 2z"/><ellipse fill="#1a2617" cx="112" cy="100" rx="3" ry="38"/><ellipse fill="#2a5000" cx="229" cy="164" rx="36" ry="21"/></g></svg>