<svg xmlns="http://www.w3.org/2000/svg" viewBox="0 0 700 467"><filter id="b"><feGaussianBlur stdDeviation="12" /></filter><path fill="#828989" d="M0 0h700v464H0z"/><g filter="url(#b)" transform="translate(1.4 1.4) scale(2.73438)" fill-opacity=".5"><ellipse rx="1" ry="1" transform="matrix(-51.52865 -4.59881 8.96557 -100.45726 119.3 150.5)"/><ellipse fill="#fff" cx="55" cy="22" rx="26" ry="144"/><ellipse fill="#dce5e8" cx="98" cy="19" rx="91" ry="24"/><ellipse rx="1" ry="1" transform="matrix(-31.7435 -12.39327 21.10785 -54.06458 102 144.5)"/><ellipse fill="#f2ebea" cx="6" cy="33" rx="13" ry="189"/><ellipse fill="#222b26" rx="1" ry="1" transform="matrix(9.07156 177.26652 -15.13598 .77458 205.2 93.7)"/><ellipse fill="#2c2413" rx="1" ry="1" transform="matrix(14.80355 -25.8486 17.2184 9.86102 101.2 65.2)"/><ellipse fill="#fffff9" cx="229" cy="64" rx="9" ry="114"/><path fill="#fffcfa" d="M106-16L39 185 34 45z"/><ellipse fill="#003c52" cx="136" cy="19" rx="9" ry="36"/><ellipse fill="#66716c" cx="23" cy="1" rx="10" ry="163"/><path fill="#ffffe9" d="M96 31h5v56h-5z"/><path fill="#9fe0df" d="M169 0h19v86h-19z"/><path fill="#fff" d="M146 0h22v40h-22z"/><path d="M245 138h11v32h-11z"/><ellipse fill="#67a2b4" cx="167" cy="130" rx="29" ry="29"/><ellipse fill="#1c110a" cx="108" cy="38" rx="7" ry="19"/><path fill="#b0360b" d="M174.4 83.3l-1 18-49.8-2.6 1-18z"/><ellipse cx="85" cy="81" rx="8" ry="28"/><ellipse fill="#3f6f86" cx="149" cy="56" rx="20" ry="20"/><path fill="#f1e7df" d="M247.6 213l-9 .7L230.5 95l9-.7z"/><path fill="#2f3835" d="M244.1 22l11.7 167.5-8 .6-11.6-167.6z"/></g></svg>