<svg xmlns="http://www.w3.org/2000/svg" viewBox="0 0 700 467"><filter id="b"><feGaussianBlur stdDeviation="12" /></filter><path fill="#5f403e" d="M0 0h700v464H0z"/><g filter="url(#b)" transform="translate(1.4 1.4) scale(2.73438)" fill-opacity=".5"><ellipse fill="#fff3ee" rx="1" ry="1" transform="matrix(43.02507 3.72084 -3.1675 36.62657 144.4 146.4)"/><ellipse fill="#abbcd7" cx="249" cy="114" rx="35" ry="35"/><ellipse fill="#1c0000" rx="1" ry="1" transform="matrix(8.86394 51.85621 -132.17099 22.5924 112.3 12.7)"/><ellipse fill="#dea97a" rx="1" ry="1" transform="matrix(22.75829 4.465 -5.73966 29.2553 141.4 81.3)"/><ellipse fill="#000010" cx="205" cy="169" rx="11" ry="150"/><path fill="#c37657" d="M271 70l-64 11 13-58z"/><ellipse fill="#00000f" cx="179" cy="101" rx="27" ry="15"/><ellipse fill="#410000" rx="1" ry="1" transform="matrix(-16.67738 15.33564 -30.32572 -32.97897 10.4 152)"/><path fill="#c7b9b9" d="M89 146h87v17H89z"/><ellipse fill="#687b78" cx="77" cy="129" rx="25" ry="25"/><path fill="#e2865b" d="M-16 74l43 29L-16 0z"/><ellipse fill="#5f0000" cx="43" cy="98" rx="17" ry="22"/><path fill="#652014" d="M102.2 158l29 2-1.4 20-29-2z"/><ellipse fill="#2c0600" rx="1" ry="1" transform="matrix(13.9735 -24.30067 15.22501 8.75477 250.5 18.8)"/><path fill="#000e1f" d="M286.4 177.8l-82 13-4.8-30.6 82-13z"/><ellipse fill="#700308" rx="1" ry="1" transform="rotate(-47.1 176.3 -79.3) scale(9.4488 31.15194)"/><path fill="#ebe1f9" d="M194 119h9v11h-9z"/><path fill="#917574" d="M65.7 21.2L51.6 93l18.8-54.5 15.2-1.6z"/><path fill="#b0654f" d="M191 5h13v27h-13z"/><path fill="#c5b2c5" d="M99 77l17-12-7 22z"/><ellipse fill="#ca7453" rx="1" ry="1" transform="matrix(7.67327 -3.02932 8.17562 20.70885 188 64.3)"/><path fill="#c9beba" d="M195 185l-41-86-30 60z"/></g></svg>