<svg xmlns="http://www.w3.org/2000/svg" viewBox="0 0 200 133"><filter id="b"><feGaussianBlur stdDeviation="12" /></filter><path fill="#685340" d="M0 0h200v133H0z"/><g filter="url(#b)" transform="translate(.5 .5)" fill-opacity=".5"><ellipse fill="#e2ffff" rx="1" ry="1" transform="rotate(-116 48.2 10.8) scale(19.06004 16.323)"/><ellipse fill="#000010" cx="120" cy="81" rx="24" ry="41"/><ellipse fill="#000001" cx="31" cy="103" rx="119" ry="20"/><path fill="#ffb141" d="M135 38L18 6l127-22z"/><ellipse fill="#fff3de" cx="176" cy="127" rx="44" ry="7"/><ellipse fill="#fff" cx="20" cy="39" rx="3" ry="66"/><path fill="#fff" d="M145 36h11v27h-11z"/><path d="M25.6 65.2l19.8 61.6.8-62.1-14.1-30z"/><ellipse fill="#a95d07" cx="179" cy="7" rx="38" ry="38"/><path fill="#93c9ff" d="M45 54h30v32H45z"/><ellipse fill="#0f0000" cy="67" rx="14" ry="52"/><path fill="#facda8" d="M22.7 116.4l5.4 14-44.8 17.2-5.4-14z"/><path fill="#f3f7ff" d="M96 44h6v38h-6z"/><path fill="#ffffe7" d="M168.6 3.5l19.6 12-6.4-21.4L156.3-16z"/><path fill="#f2971f" d="M179.3 114.8l10.2-35.6 21.2 6-10.2 35.6z"/><path fill="#ffcdce" d="M38 26.6l15.9 1-10.4 20-6.4-5.6z"/><path fill="#cabeb6" d="M114 117h31v8h-31z"/><ellipse rx="1" ry="1" transform="matrix(-18.32725 -8.62415 7.73067 -16.42851 54.3 108.7)"/><ellipse fill="#6a2600" cx="199" cy="56" rx="18" ry="37"/><path d="M179 106l6-33-30 46z"/><ellipse fill="#feb055" cx="74" cy="1" rx="23" ry="23"/><path fill="#703606" d="M49 16l1 27 77-15z"/></g></svg>