<svg xmlns="http://www.w3.org/2000/svg" viewBox="0 0 700 467"><filter id="b"><feGaussianBlur stdDeviation="12" /></filter><path fill="#655a4a" d="M0 0h700v464H0z"/><g filter="url(#b)" transform="translate(1.4 1.4) scale(2.73438)" fill-opacity=".5"><ellipse fill="#ffef56" rx="1" ry="1" transform="matrix(-16.8785 -3.64926 16.56526 -76.61736 6.3 109)"/><ellipse cx="71" cy="12" rx="44" ry="44"/><ellipse fill="#dfeec0" rx="1" ry="1" transform="matrix(.4544 11.82828 -99.38989 3.81817 184 80.8)"/><ellipse cx="225" rx="43" ry="43"/><ellipse fill="#080000" cx="53" cy="129" rx="25" ry="32"/><path fill="#ffd7e1" d="M39 161l20 24 87-23z"/><path fill="#f3be7c" d="M208 46l-14 138 38 1z"/><ellipse fill="#afb1c5" rx="1" ry="1" transform="matrix(-6.56164 41.90177 -13.54861 -2.12166 168.1 87.3)"/><path fill="#ffc995" d="M74 105h22v33H74z"/><ellipse fill="#181f21" cx="127" cy="130" rx="30" ry="31"/><path fill="#93b1e8" d="M24-16l4 63-35 34z"/><ellipse fill="#ffaea5" cx="157" cy="169" rx="85" ry="10"/><ellipse fill="#18180f" cx="255" cy="134" rx="34" ry="35"/><ellipse fill="#e2b900" rx="1" ry="1" transform="rotate(4.9 -1373 217.5) scale(16.88862 26.85039)"/><ellipse rx="1" ry="1" transform="matrix(17.48028 -22.13388 13.2399 10.45624 47.5 25)"/><path fill="#002725" d="M208 1.1L238.1 76 271 2.6l-48.3 99z"/><ellipse fill="#000715" rx="1" ry="1" transform="matrix(-35.74554 -1.31073 .40436 -11.02745 131.7 5.2)"/><ellipse fill="#d2f8b7" rx="1" ry="1" transform="matrix(-11.06847 20.43679 -8.48717 -4.59661 247.4 77.6)"/><ellipse fill="#101128" rx="1" ry="1" transform="matrix(-7.10774 63.51802 -3.05708 -.34209 181 98.1)"/><path fill="#ffe7ff" d="M0 164h44v6H0z"/><path fill="#f77039" d="M37.1 47.3l18-.6 1.8 52-18 .6z"/><path fill="#ffd" d="M235 40h8v18h-8z"/></g></svg>