<svg xmlns="http://www.w3.org/2000/svg" viewBox="0 0 313 195"><filter id="b"><feGaussianBlur stdDeviation="12" /></filter><path fill="#85515e" d="M0 0h313v194H0z"/><g filter="url(#b)" transform="translate(.6 .6) scale(1.22266)" fill-opacity=".5"><ellipse fill="#fff" cx="135" cy="147" rx="255" ry="22"/><ellipse fill="#400006" cx="128" cy="15" rx="181" ry="79"/><path d="M56.2 129.9l-3.9-27.7 57.5-8.1 3.9 27.7z"/><ellipse fill="#fffffc" cx="134" cy="29" rx="13" ry="13"/><ellipse cx="143" rx="195" ry="20"/><path fill="#ffeade" d="M44.3 47L33.8 33.4 67.8 7l10.4 13.4z"/><ellipse fill="#e4242c" cx="25" cy="66" rx="33" ry="33"/><ellipse fill="#ffe6ff" cx="125" cy="151" rx="255" ry="25"/><path fill="#fffff8" d="M253.5 24.4L228 45.2l-9.4-11.6L244 12.8z"/><path fill="#fff3ff" d="M162.7 45l-3.9-15.5 18.5-4.6 3.9 15.6z"/><path fill="#ff2436" d="M133 74l-30.2-7 8.1-35 30.3 7z"/><ellipse fill="#00000e" rx="1" ry="1" transform="matrix(-9.37315 -.93557 6.75444 -67.67072 184 61.2)"/><ellipse fill="#f6acbc" rx="1" ry="1" transform="rotate(-113.4 113.4 -4) scale(11.05755 27.74733)"/><path fill="#ffffe7" d="M62.5 95.8L44 78.6l-.4 42.7-46.6-5.7z"/><ellipse fill="#c4ded6" cx="4" cy="37" rx="29" ry="9"/><ellipse fill="#fffef3" rx="1" ry="1" transform="matrix(-1.36395 4.22287 -18.54793 -5.99082 150 56.3)"/><ellipse fill="#ff4d44" rx="1" ry="1" transform="matrix(-9.93956 1.22042 -4.23104 -34.45902 227.2 72.3)"/><path fill="#ffedfe" d="M196 35h15v18h-15z"/><path d="M94-16L-16-7l35 46z"/><ellipse fill="#fff" cx="215" cy="112" rx="9" ry="9"/><ellipse fill="#f4b0d3" cx="80" cy="32" rx="6" ry="19"/><ellipse fill="#fff" cx="253" cy="114" rx="9" ry="10"/></g></svg>