<svg xmlns="http://www.w3.org/2000/svg" viewBox="0 0 700 467"><filter id="b"><feGaussianBlur stdDeviation="12" /></filter><path fill="#232648" d="M0 0h700v464H0z"/><g filter="url(#b)" transform="translate(1.4 1.4) scale(2.73438)" fill-opacity=".5"><ellipse fill="#6c64ff" cx="166" cy="53" rx="51" ry="32"/><ellipse fill="#fae2ff" cx="124" cy="115" rx="18" ry="15"/><path fill="#fff" d="M220.4 119.3l-14.8 2.1-4-28.7 14.8-2.1z"/><ellipse rx="1" ry="1" transform="rotate(58.3 -12.1 27) scale(51.14407 164.22487)"/><ellipse fill="#fff" rx="1" ry="1" transform="matrix(-2.51075 19.08135 -8.40778 -1.1063 53.4 105.8)"/><ellipse cx="247" cy="28" rx="61" ry="61"/><path fill="#bcc7c4" d="M143 119l14 36-54-2z"/><path fill="#8acfff" d="M20.6 126.4l-13.8-2.6 8.6-44.2 13.8 2.6z"/><ellipse fill="#5e5ed9" cx="141" cy="44" rx="72" ry="20"/><path fill="#91a9ff" d="M175 78h13v55h-13z"/><ellipse rx="1" ry="1" transform="matrix(-.14983 11.0562 -205.5165 -2.7851 110.4 165.7)"/><ellipse cx="158" rx="30" ry="30"/><ellipse fill="#020034" cx="138" cy="77" rx="21" ry="21"/><ellipse fill="#070d12" rx="1" ry="1" transform="matrix(30.17273 10.92312 -5.49421 15.17656 174.1 140.2)"/><path fill="#a9d3d9" d="M200.7 101.2l12.8-1.8 7.8 55.4-12.8 1.8z"/><ellipse fill="#fff" cx="126" cy="114" rx="9" ry="9"/><ellipse fill="#690ef8" rx="1" ry="1" transform="matrix(-28.15057 11.85353 -2.26554 -5.38036 184 84)"/><ellipse fill="#00040c" rx="1" ry="1" transform="matrix(27.51668 -3.06662 9.30421 83.48642 242.9 87.6)"/><ellipse fill="#4146a0" rx="1" ry="1" transform="matrix(24.0997 -18.63605 11.80953 15.2718 197.7 48.5)"/><path fill="#071420" d="M1 122h132v21H1z"/><ellipse fill="#000007" rx="86" ry="87"/><ellipse fill="#1d1178" cx="54" cy="39" rx="17" ry="17"/></g></svg>