<svg xmlns="http://www.w3.org/2000/svg" viewBox="0 0 200 133"><filter id="b"><feGaussianBlur stdDeviation="12" /></filter><path fill="#75605d" d="M0 0h200v133H0z"/><g filter="url(#b)" transform="translate(.5 .5)" fill-opacity=".5"><path fill="#fff" d="M64.4 58.6l3.4-21.7 91.8 14.5-3.4 21.7z"/><ellipse fill="#000001" cx="188" cy="52" rx="20" ry="62"/><ellipse fill="#fff" rx="1" ry="1" transform="rotate(17.2 -381.8 424.6) scale(19.83254 33.45105)"/><ellipse fill="#e50000" rx="1" ry="1" transform="matrix(8.60725 -106.97806 12.64394 1.0173 54.4 83.6)"/><ellipse fill="#6d0000" rx="1" ry="1" transform="rotate(107.8 37.5 96.4) scale(17.22036 54.85272)"/><ellipse fill="#c8eaf8" cx="31" cy="54" rx="12" ry="63"/><ellipse fill="#fff" rx="1" ry="1" transform="rotate(108 27.3 55) scale(12.52812 21.92931)"/><ellipse fill="#006500" rx="1" ry="1" transform="rotate(-54.4 64.3 -91.5) scale(21.59463 43.66588)"/><ellipse fill="#00439a" rx="1" ry="1" transform="matrix(20.3831 1.9461 -11.84214 124.03256 .4 42.1)"/><ellipse fill="#00080c" rx="1" ry="1" transform="rotate(23.2 -304.8 148.5) scale(120.33863 15.47077)"/><path fill="#ade8c6" d="M122-8l47 28-1 57z"/><ellipse fill="#6d0000" cx="148" cy="95" rx="23" ry="23"/><path fill="#fcffff" d="M215 144l-59 4-64-38z"/><path fill="#fff" d="M70 0h6v54h-6z"/><path fill="#47d4ff" d="M-16 59l6 80L19 0z"/><ellipse fill="#3c0000" rx="1" ry="1" transform="matrix(15.78704 -19.49452 7.94789 6.43636 85.7 106)"/><path fill="#d2effa" d="M43 52l-6-68h18z"/><path fill="#f1ffff" d="M99 101h29v24H99z"/><ellipse fill="#117318" rx="1" ry="1" transform="rotate(-154.2 75.2 0) scale(22.29309 11.20599)"/><ellipse fill="#b50000" rx="1" ry="1" transform="rotate(-169.1 31.7 42.7) scale(15.74629 35.1239)"/><path fill="#d9f3ff" d="M209 132l-50-16 50-5z"/><path fill="#005100" d="M73.9 30.4l19-47.3 11.2 4.5-19 47.3z"/></g></svg>