<svg xmlns="http://www.w3.org/2000/svg" viewBox="0 0 700 467"><filter id="b"><feGaussianBlur stdDeviation="12" /></filter><path fill="#23253a" d="M0 0h700v464H0z"/><g filter="url(#b)" transform="translate(1.4 1.4) scale(2.73438)" fill-opacity=".5"><ellipse fill="#6a73ad" cx="156" cy="83" rx="61" ry="61"/><path fill="#9895a9" d="M142 74l-41 60-94-5z"/><ellipse cx="61" cy="15" rx="68" ry="68"/><ellipse rx="1" ry="1" transform="matrix(236.69743 -.77054 .0645 19.81615 127 160.1)"/><ellipse cx="129" cy="68" rx="46" ry="13"/><path fill="#1621b1" d="M19 74h70v37H19z"/><ellipse fill="#7f6d65" rx="1" ry="1" transform="matrix(102.24176 -2.85586 .53524 19.16196 134 122.2)"/><ellipse fill="#608bc1" cx="183" cy="37" rx="39" ry="15"/><ellipse cx="255" cy="16" rx="35" ry="62"/><ellipse fill="#021eab" cx="206" cy="81" rx="42" ry="20"/><ellipse cx="115" rx="255" ry="23"/><ellipse rx="1" ry="1" transform="matrix(2.00988 31.8951 -10.58068 .66674 218.7 86.8)"/><path fill="#010000" d="M204.2 115.3L191.6 75l-9.3 40.3 5.1 6.7z"/><ellipse rx="1" ry="1" transform="matrix(7.21565 -38.05477 7.39123 1.40147 43 92.5)"/><ellipse cx="5" cy="76" rx="14" ry="133"/><path fill="#a6bcb6" d="M207 137l25-21h-82z"/><ellipse fill="#c40000" rx="1" ry="1" transform="matrix(-7.40094 -3.80751 7.47204 -14.52396 237.9 107.9)"/><path fill="#5472ff" d="M18.8 86.7l10 54.6 3.5-30.1L38.9 57z"/><ellipse cx="222" cy="164" rx="156" ry="29"/><path fill="#030000" d="M63.3 115.8l6.6-58.5 7.6 84.7-10.4 43z"/><path fill="#b6ccdb" d="M165.6 124.5l-23.4 20.3-9.8-11.3 23.4-20.3z"/><path fill="#bffff7" d="M79 121h22v12H79z"/></g></svg>