<svg xmlns="http://www.w3.org/2000/svg" viewBox="0 0 700 467"><filter id="b"><feGaussianBlur stdDeviation="12" /></filter><path fill="#232648" d="M0 0h700v464H0z"/><g filter="url(#b)" transform="translate(1.4 1.4) scale(2.73438)" fill-opacity=".5"><ellipse fill="#5f5bc7" cx="155" cy="82" rx="60" ry="60"/><ellipse fill="#fff" cx="53" cy="104" rx="8" ry="18"/><ellipse cx="29" cy="20" rx="50" ry="61"/><path fill="#fff" d="M215.2 94.7L199 87.2l5.6 39.7 15.8-11z"/><path d="M273 92.6l-50.8 10.8-29.3-138 50.9-10.8z"/><path fill="#f6ffff" d="M105 143h51v13h-51z"/><ellipse fill="#020000" rx="1" ry="1" transform="rotate(59.3 -35.8 216) scale(86.99277 16.42879)"/><ellipse fill="#5958da" rx="1" ry="1" transform="rotate(87.5 49 98) scale(21.87975 70.83389)"/><path fill="#fffaff" d="M127.5 100.1L100 117.3l2.8-.8 43.8 16.8z"/><ellipse rx="1" ry="1" transform="matrix(.15163 -22.12477 176.26254 1.208 141.7 3.4)"/><ellipse fill="#7dc0ff" rx="1" ry="1" transform="matrix(4.62828 -23.67132 8.95462 1.75083 18 101.3)"/><path d="M27.5 212.8l-22-47 87-40.6 22 47z"/><ellipse fill="#0a0c53" cx="101" cy="79" rx="59" ry="22"/><ellipse cx="97" cy="169" rx="255" ry="14"/><ellipse cx="195" cy="111" rx="7" ry="30"/><path fill="#7ea2ff" d="M176 62h10v68h-10z"/><path fill="#96b9a7" d="M230 155l-8-22-32 22z"/><path fill="#7c9f9b" d="M37 141h29v14H37z"/><ellipse cy="49" rx="39" ry="39"/><path d="M39 18L17 161l35-77z"/><path fill="#d1f2ff" d="M46.7 125l-3-20.6 17.4-20.1v26.3z"/><path fill="#839be6" d="M166 40l19 42-55-44z"/></g></svg>