<svg xmlns="http://www.w3.org/2000/svg" viewBox="0 0 700 467"><filter id="b"><feGaussianBlur stdDeviation="12" /></filter><path fill="#a5a7ac" d="M0 0h700v464H0z"/><g filter="url(#b)" transform="translate(1.4 1.4) scale(2.73438)" fill-opacity=".5"><ellipse fill="#020d28" cx="134" cy="122" rx="35" ry="81"/><ellipse rx="1" ry="1" transform="matrix(-24.60821 1.9377 -5.06547 -64.33006 255 112)"/><ellipse fill="#fbffff" cx="34" cy="36" rx="64" ry="173"/><ellipse fill="#fff" cx="201" cy="31" rx="64" ry="21"/><ellipse fill="#3e536d" cx="47" cy="66" rx="28" ry="13"/><ellipse fill="#040000" cx="126" cy="156" rx="18" ry="39"/><ellipse fill="#89442a" cx="126" cy="21" rx="14" ry="40"/><ellipse fill="#fff" rx="1" ry="1" transform="matrix(8.42252 -37.3721 48.4449 10.918 15.4 16.9)"/><path fill="#0d0000" d="M7.4 73.6L-16 65.2l13.6-4.9 2.8 53.4z"/><ellipse fill="#6a8bb5" rx="1" ry="1" transform="matrix(-2.28565 -28.1526 43.70493 -3.54832 136.1 77.7)"/><ellipse fill="#e3e0de" rx="1" ry="1" transform="matrix(-17.05566 4.33967 -20.402 -80.18347 200 96)"/><ellipse fill="#2e3a42" cx="234" cy="69" rx="24" ry="29"/><path fill="#8f2e00" d="M166.5 98.1l22.2-3.8-12.9 22.4-51.1 13.6z"/><ellipse fill="#1e0d00" cx="24" cy="96" rx="28" ry="3"/><ellipse fill="#fff" rx="1" ry="1" transform="matrix(-14.59584 -9.91932 15.34072 -22.57318 19 126.5)"/><path fill="#495150" d="M103 0h141v12H103z"/><path fill="#fbffff" d="M140 13h94v34h-94z"/><ellipse fill="#fff" rx="1" ry="1" transform="matrix(23.3794 68.3441 -12.72674 4.3536 255 9.7)"/><ellipse fill="#4e6069" rx="1" ry="1" transform="matrix(6.32979 -.17032 .92427 34.35063 239.6 35.7)"/><path d="M109 159h58v11h-58z"/><path fill="#637a72" d="M85 8.4L60.8 29.3l21 4.4-1 13z"/><path fill="#322831" d="M96 80h11v38H96z"/></g></svg>