<svg xmlns="http://www.w3.org/2000/svg" viewBox="0 0 700 467"><filter id="b"><feGaussianBlur stdDeviation="12" /></filter><path fill="#ada8a1" d="M0 0h700v464H0z"/><g filter="url(#b)" transform="translate(1.4 1.4) scale(2.73438)" fill-opacity=".5"><ellipse fill="#32190e" rx="1" ry="1" transform="rotate(-7.5 928.3 -449.1) scale(147.19745 30.70264)"/><ellipse fill="#2d1a16" cx="113" cy="57" rx="25" ry="35"/><ellipse fill="#fff" cx="218" cy="169" rx="66" ry="66"/><ellipse fill="#fff" cx="42" cy="27" rx="47" ry="47"/><ellipse fill="#fff" cx="82" cy="157" rx="34" ry="34"/><ellipse fill="#f9ffff" cx="224" cy="54" rx="81" ry="37"/><path fill="#000e00" d="M201-29.3L217.7 8 161 33.3 144.3-4z"/><ellipse cx="233" cy="3" rx="83" ry="7"/><ellipse fill="#432a19" rx="1" ry="1" transform="matrix(1.84844 16.62635 -39.24438 4.36302 131.1 127)"/><ellipse fill="#fff" cx="171" cy="164" rx="108" ry="19"/><ellipse fill="#f9f4d5" cy="81" rx="29" ry="38"/><ellipse fill="#2d1909" rx="1" ry="1" transform="matrix(21.05803 1.91255 -2.91225 32.06527 36.5 127.6)"/><ellipse fill="#420500" cx="136" cy="75" rx="24" ry="8"/><ellipse fill="#fbfae6" rx="1" ry="1" transform="matrix(-36.16048 28.94584 -15.94775 -19.92267 86.9 9.6)"/><ellipse fill="#fff" rx="1" ry="1" transform="rotate(-62.2 140.6 72.6) scale(13.34466 26.7127)"/><ellipse fill="#52311c" cx="64" cy="100" rx="32" ry="22"/><ellipse fill="#eaffff" cx="144" cy="32" rx="9" ry="36"/><path fill="#f4fafa" d="M81 181l190-37V74z"/><path fill="#494245" d="M65.7 65.3l34.6-34.6 12 12-34.6 34.6z"/><ellipse fill="#291b11" rx="1" ry="1" transform="rotate(158.6 90.6 70.4) scale(20.87672 8.41564)"/><ellipse fill="#23323f" cx="123" cy="32" rx="15" ry="15"/><ellipse fill="#406300" cx="172" cy="3" rx="23" ry="29"/></g></svg>