<svg xmlns="http://www.w3.org/2000/svg" viewBox="0 0 700 467"><filter id="b"><feGaussianBlur stdDeviation="12" /></filter><path fill="#872314" d="M0 0h700v464H0z"/><g filter="url(#b)" transform="translate(1.4 1.4) scale(2.73438)" fill-opacity=".5"><ellipse fill="#ff3116" cx="125" cy="45" rx="70" ry="47"/><ellipse fill="#000111" rx="1" ry="1" transform="matrix(-14.21626 -32.27315 62.5929 -27.57205 243.8 94.6)"/><ellipse fill="#fe5953" cx="136" cy="149" rx="163" ry="17"/><ellipse rx="1" ry="1" transform="rotate(-131.7 14.3 7.4) scale(29.30384 151.57377)"/><ellipse fill="#191117" cx="20" cy="119" rx="98" ry="27"/><ellipse fill="#1a0000" rx="1" ry="1" transform="rotate(73 95.3 171.3) scale(109.67402 40.81708)"/><path fill="#ffb800" d="M173.6 113.8l-19.6-10 26.4-51.6 19.6 10z"/><path fill="#ffec00" d="M40 83L15 32l73 82z"/><ellipse fill="#ff3929" rx="1" ry="1" transform="matrix(17.94186 -37.44756 28.87522 13.83469 99.3 45.8)"/><ellipse fill="#9e6dac" cx="229" cy="110" rx="6" ry="42"/><path fill="#4d0000" d="M177 55l-10 35-55-106z"/><ellipse cx="110" cy="101" rx="17" ry="17"/><path fill="#ffa131" d="M3 147h32v21H3z"/><path fill="#00000a" d="M35 151h22v13H35z"/><ellipse cx="205" cy="111" rx="19" ry="30"/><ellipse fill="#160000" cx="18" cy="94" rx="10" ry="44"/><path fill="#240008" d="M172 173l-39-26-4 30z"/><path fill="#ffff02" d="M77.7 149.3l-1.8 9.9-25.6-4.5 1.8-9.9z"/><path fill="#ff552a" d="M84 53h67v34H84z"/><path fill="#ff203a" d="M136 98h13v49h-13z"/><path d="M199 153.2l2 27-10 .6-2-27z"/><path fill="#000002" d="M146 120h63v11h-63z"/></g></svg>