<svg xmlns="http://www.w3.org/2000/svg" viewBox="0 0 700 467"><filter id="b"><feGaussianBlur stdDeviation="12" /></filter><path fill="#6e6067" d="M0 0h700v464H0z"/><g filter="url(#b)" transform="translate(1.4 1.4) scale(2.73438)" fill-opacity=".5"><ellipse fill="#6fffff" rx="1" ry="1" transform="matrix(-31.5021 88.16124 -46.60209 -16.65203 0 65.5)"/><path fill="#8a0000" d="M39 102l194 83 38-71z"/><ellipse fill="#fff" rx="1" ry="1" transform="matrix(.00943 13.74005 -74.40691 .05106 232.8 97.7)"/><ellipse fill="#7a0000" cx="136" cy="138" rx="24" ry="176"/><ellipse fill="#fff" rx="1" ry="1" transform="matrix(50.07726 10.48154 -2.4104 11.51604 212.2 17.3)"/><ellipse fill="#004181" cx="42" cy="150" rx="56" ry="56"/><path fill="#fff" d="M242 16h14v99h-14z"/><ellipse fill="#003668" rx="1" ry="1" transform="matrix(-15.9036 83.36963 -17.71027 -3.37841 71.6 45.2)"/><ellipse cx="148" cy="27" rx="14" ry="82"/><ellipse fill="#81cfff" cx="19" cy="38" rx="34" ry="89"/><ellipse fill="#730000" cx="213" cy="149" rx="64" ry="39"/><ellipse fill="#c1c4a3" rx="1" ry="1" transform="rotate(87.6 -19.7 96.5) scale(30.74392 10.24413)"/><path fill="#fbffff" d="M157 83h63v24h-63z"/><ellipse rx="1" ry="1" transform="rotate(102.1 -26.3 118.5) scale(18.70764 51.62078)"/><path fill="#fdffff" d="M129.5 171.5v-11h27v11z"/><ellipse fill="#d90000" cx="127" cy="55" rx="10" ry="82"/><ellipse fill="#006cc0" rx="1" ry="1" transform="rotate(-96.8 65 59.5) scale(45.73297 28.13879)"/><ellipse fill="#fdfff9" rx="1" ry="1" transform="matrix(-17.87265 51.1853 -8.04486 -2.80907 181.2 0)"/><ellipse fill="#bdc2a7" cx="105" cy="31" rx="11" ry="66"/><ellipse fill="#473f13" rx="1" ry="1" transform="matrix(-3.68952 12.61718 -30.82839 -9.01485 209.4 73.9)"/><ellipse fill="#9b0000" rx="1" ry="1" transform="rotate(-121.7 106.6 27.8) scale(22.56947 36.7256)"/><path fill="#ffffa1" d="M203 52h24v13h-24z"/></g></svg>