<svg xmlns="http://www.w3.org/2000/svg" viewBox="0 0 200 133"><filter id="b"><feGaussianBlur stdDeviation="12" /></filter><path fill="#572f31" d="M0 0h200v133H0z"/><g filter="url(#b)" transform="translate(.5 .5)" fill-opacity=".5"><ellipse fill="#fff" cx="110" cy="107" rx="18" ry="39"/><ellipse fill="#48afe0" rx="1" ry="1" transform="rotate(-85.6 45.4 5.2) scale(22.89758 27.30758)"/><ellipse fill="#6c0000" cx="165" cy="88" rx="45" ry="45"/><ellipse fill="#c70e00" cx="49" cy="132" rx="49" ry="49"/><ellipse fill="#00111b" cx="119" cy="16" rx="59" ry="59"/><ellipse fill="#fff" cx="102" cy="88" rx="11" ry="41"/><path fill="#d6eaff" d="M104 9l4 28 32-9z"/><ellipse fill="#fea55d" cx="21" cy="67" rx="11" ry="44"/><ellipse fill="#000006" cx="69" cy="80" rx="20" ry="20"/><ellipse fill="#000411" cx="12" rx="114" ry="31"/><ellipse cy="62" rx="12" ry="62"/><ellipse fill="#005aa8" cx="43" cy="44" rx="17" ry="29"/><ellipse rx="1" ry="1" transform="rotate(-76.3 109.3 -60.8) scale(26.66387 29.65274)"/><ellipse fill="#b00" rx="1" ry="1" transform="matrix(-28.8933 -92.90742 7.16817 -2.22923 168.4 28.5)"/><ellipse fill="#980000" cx="158" cy="105" rx="33" ry="33"/><path fill="#c3c8f2" d="M116.4 14.9L127 9.3 139.6 33 129 38.7z"/><path fill="#ffd47f" d="M56 85.2l-4.5 12.2L28 88.8l4.5-12.2z"/><ellipse fill="#efffff" cx="114" cy="120" rx="14" ry="14"/><path fill="#000009" d="M86.5 52.5L99.2 73 69.5 91.5 56.8 71z"/><path fill="#537777" d="M205 26l-6 68-35-110z"/><ellipse fill="#c39259" rx="1" ry="1" transform="matrix(-26.42906 16.5225 -3.93528 -6.2948 36 95)"/><ellipse fill="#8d0000" cx="60" cy="132" rx="38" ry="38"/></g></svg>