<svg xmlns="http://www.w3.org/2000/svg" viewBox="0 0 200 133"><filter id="b"><feGaussianBlur stdDeviation="12" /></filter><path fill="#70616a" d="M0 0h200v133H0z"/><g filter="url(#b)" transform="translate(.5 .5)" fill-opacity=".5"><ellipse fill="#75ffff" cx="12" cy="13" rx="32" ry="89"/><ellipse fill="#890000" cx="109" cy="117" rx="25" ry="129"/><ellipse fill="#890000" rx="1" ry="1" transform="matrix(-79.48138 -7.5132 2.26025 -23.91097 163.2 110.7)"/><ellipse fill="#ece6d0" cx="181" cy="64" rx="27" ry="27"/><ellipse fill="#fff" cx="174" cy="5" rx="46" ry="19"/><ellipse fill="#003478" cx="28" cy="132" rx="51" ry="51"/><path fill="#fff" d="M123 67h77v18h-77z"/><ellipse fill="#002d6e" rx="1" ry="1" transform="rotate(-76.2 45.3 -24.3) scale(44.67307 13.75679)"/><ellipse fill="#4c3f1f" rx="1" ry="1" transform="matrix(-14.58418 13.91625 -20.93139 -21.93603 165.8 46)"/><ellipse fill="#860000" rx="1" ry="1" transform="matrix(-3.07439 18.77418 -87.2449 -14.2869 180.8 107.4)"/><ellipse fill="#88d1ff" cx="13" cy="7" rx="31" ry="83"/><ellipse cx="113" cy="36" rx="13" ry="50"/><path fill="#fff" d="M190 10h10v78h-10z"/><path fill="#eff" d="M126 14h6v65h-6z"/><ellipse fill="#3e0000" cx="199" rx="44" ry="8"/><path fill="#ef0600" d="M85.8 113.3l15.4-24L112.7-16 89.8 32.7z"/><ellipse fill="#0079d1" rx="1" ry="1" transform="rotate(-82.7 61.9 45.2) scale(32.5237 24.98872)"/><ellipse fill="#001120" cx="45" cy="129" rx="57" ry="12"/><path fill="#fff" d="M103 126h20v7h-20z"/><ellipse fill="#00000e" rx="1" ry="1" transform="rotate(94.3 -22 63.7) scale(47.69577 4.97181)"/><ellipse fill="#b1b49b" rx="1" ry="1" transform="rotate(93.4 -13.5 73.5) scale(28.34484 8.02978)"/><ellipse fill="#fdffff" rx="1" ry="1" transform="rotate(-163.8 84 -5) scale(34.93614 7.90044)"/></g></svg>