<svg xmlns="http://www.w3.org/2000/svg" viewBox="0 0 200 133"><filter id="b"><feGaussianBlur stdDeviation="12" /></filter><path fill="#999899" d="M0 0h200v133H0z"/><g filter="url(#b)" transform="translate(.5 .5)" fill-opacity=".5"><ellipse fill="#210e00" rx="1" ry="1" transform="matrix(189.831 2.7849 -.67024 45.68653 91.6 115.3)"/><ellipse fill="#fff" rx="1" ry="1" transform="matrix(-142.25325 7.9532 -2.58193 -46.18124 127.7 17.2)"/><ellipse fill="#f3ffff" rx="1" ry="1" transform="matrix(-.43543 -37.20104 117.67393 -1.37734 124.3 18.2)"/><ellipse rx="1" ry="1" transform="matrix(-22.51687 -7.19864 19.34762 -60.51804 199 118.7)"/><path fill="#fff6d2" d="M143 81h25v14h-25z"/><ellipse fill="#604b3d" rx="1" ry="1" transform="matrix(-6.25846 -1.39893 7.03078 -31.4539 178 75.9)"/><ellipse fill="#84796c" rx="1" ry="1" transform="matrix(11.19141 18.47922 -19.58292 11.85984 53 75.5)"/><path fill="#f2faf6" d="M13 125.8l20.9-2.5 1 8.9-20.8 2.5z"/><path fill="#c0a79a" d="M51 72l80-13 24 29z"/><ellipse fill="#604d40" rx="1" ry="1" transform="rotate(110 63 102.5) scale(11.90641 39.25487)"/><ellipse fill="#e4f1ff" cx="116" cy="12" rx="56" ry="56"/><ellipse fill="#bdd7f3" cx="9" cy="40" rx="52" ry="24"/><ellipse fill="#5d4e3f" rx="1" ry="1" transform="rotate(-36 147.1 5.3) scale(42.49604 20.37079)"/><ellipse fill="#423f36" rx="1" ry="1" transform="matrix(-9.76962 38.28249 -81.61376 -20.82768 111.5 132)"/><path fill="#c2cacf" d="M53.5 93.7L94 48l-53.3-2.2L65 59z"/><path fill="#bb9980" d="M165 101l19-33-38 29z"/><path fill="#e0f4ff" d="M189 45h11v24h-11z"/><path fill="#cb9c82" d="M36 73h29v8H36z"/><ellipse rx="1" ry="1" transform="matrix(16.92808 8.63797 -10.57748 20.729 191.9 132)"/><ellipse fill="#eef5ff" rx="1" ry="1" transform="matrix(-7.8296 34.46211 -103.27011 -23.4624 121 0)"/><path fill="#4a413f" d="M207 80l-28 25V60z"/><path fill="#8799ac" d="M142 122h25v7h-25z"/></g></svg>