<svg xmlns="http://www.w3.org/2000/svg" viewBox="0 0 700 467"><filter id="b"><feGaussianBlur stdDeviation="12" /></filter><path fill="#e1eaf4" d="M0 0h700v464H0z"/><g filter="url(#b)" transform="translate(1.4 1.4) scale(2.73438)" fill-opacity=".5"><path fill="#020000" d="M59 103h19v23H59z"/><path fill="#1b3d4a" d="M41 47L64 8l12 26z"/><ellipse fill="#6a7b80" rx="1" ry="1" transform="rotate(-99 90.5 41.5) scale(4.34102 36.55842)"/><ellipse fill="#bdb9b8" cx="190" cy="126" rx="19" ry="31"/><ellipse fill="#c6c396" rx="1" ry="1" transform="matrix(-.1143 -9.18232 29.55042 -.36784 182 40.3)"/><path fill="#b1c5cf" d="M44.7 40L80 33.3 83.3 50 48 56.8z"/><ellipse fill="#eff8ff" cx="126" cy="38" rx="46" ry="172"/><ellipse fill="#9c2b00" cx="62" cy="114" rx="5" ry="12"/><ellipse fill="#f2faff" cx="232" cy="96" rx="24" ry="198"/><path fill="#002a2c" d="M64 113l18-3-15 15z"/><path fill="#eaf3ff" d="M88 124.5l-35.2 13.1 65.7-48.2-65-15.6z"/><path fill="#95a4aa" d="M38 133h35v14H38z"/><ellipse fill="#ebf5ff" cx="10" cy="35" rx="32" ry="146"/><path fill="#b5c8d2" d="M36.8 44.3l49-13.8-49 43.4 24.8 1z"/><ellipse fill="#99806f" cx="175" cy="125" rx="2" ry="29"/><path fill="#0043a8" d="M67 107h8v12h-8z"/><path fill="#703b0a" d="M175 138h24v2h-24z"/><ellipse fill="#b0ab75" cx="164" cy="40" rx="6" ry="7"/><ellipse fill="#f1fbff" cx="192" cy="72" rx="26" ry="26"/><ellipse fill="#f1f6ff" cx="180" cy="14" rx="114" ry="18"/><path fill="#b6b581" d="M202 30h11v16h-11z"/><path fill="#de0000" d="M76 108h3v11h-3z"/></g></svg>