<svg xmlns="http://www.w3.org/2000/svg" viewBox="0 0 200 133"><filter id="b"><feGaussianBlur stdDeviation="12" /></filter><path fill="#615d5b" d="M0 0h200v133H0z"/><g filter="url(#b)" transform="translate(.5 .5)" fill-opacity=".5"><ellipse fill="#d7ffff" cx="121" cy="93" rx="40" ry="40"/><ellipse fill="#160905" rx="1" ry="1" transform="matrix(-51.2901 96.76322 -30.32367 -16.0733 26.4 65.8)"/><ellipse fill="#380000" cx="143" rx="42" ry="42"/><path fill="#f3ffff" d="M30 100h33v20H30z"/><ellipse fill="#c1f7ff" cx="102" cy="132" rx="24" ry="62"/><ellipse fill="#eadddd" rx="1" ry="1" transform="matrix(13.00133 1.07583 -2.40012 29.00536 143 66)"/><path fill="#95c6f5" d="M70 36h26v57H70z"/><ellipse fill="#babab8" cx="188" cy="44" rx="22" ry="22"/><path fill="#3a0800" d="M105 33L3-16 215 2z"/><ellipse fill="#0b1201" cx="173" cy="95" rx="16" ry="27"/><path fill="#ff9f00" d="M10 0h23v17H10z"/><path fill="#ffc097" d="M56 57l-6-34 16-11z"/><ellipse rx="1" ry="1" transform="rotate(-179.6 26.6 40) scale(14.93146 19.12417)"/><ellipse rx="1" ry="1" transform="rotate(-164.9 97.6 -9.8) scale(13.36897 22.41608)"/><ellipse fill="#000109" rx="1" ry="1" transform="matrix(-14.06765 2.60053 -15.06115 -81.47379 14.5 75.4)"/><path fill="#c8feff" d="M-16 127.1v-47l24 36.8-.4 21.8z"/><path fill="#f5bf9d" d="M33 37l11 19-10 34z"/><ellipse fill="#19559c" rx="1" ry="1" transform="matrix(-20.123 8.61819 -4.8157 -11.24438 102 61.1)"/><path fill="#000a26" d="M52.2 77.8l46 33.5-6.4 8.9-46-33.5z"/><path fill="#b9e4fa" d="M42 101h17v32H42z"/><path fill="#e87200" d="M153.7-8l23 12.2-8.4 15.8-23-12.2z"/><path fill="#000814" d="M41.4 76l.5-41.9 14.5 17 30.9.4z"/></g></svg>