<svg xmlns="http://www.w3.org/2000/svg" viewBox="0 0 700 467"><filter id="b"><feGaussianBlur stdDeviation="12" /></filter><path fill="#370c14" d="M0 0h700v464H0z"/><g filter="url(#b)" transform="translate(1.4 1.4) scale(2.73438)" fill-opacity=".5"><ellipse fill="#d541a8" rx="1" ry="1" transform="matrix(96.28882 6.27151 -.76046 11.6756 111.1 156)"/><ellipse fill="#ad171d" cx="107" cy="74" rx="128" ry="22"/><ellipse fill="#ba0001" cx="187" cy="169" rx="32" ry="32"/><ellipse rx="1" ry="1" transform="rotate(-176.5 66.6 13.1) scale(255 24.30356)"/><ellipse fill="#91a8ff" cx="182" cy="6" rx="10" ry="10"/><ellipse fill="#70556f" rx="1" ry="1" transform="matrix(4.49672 23.3853 -28.43195 5.46713 120.4 77.1)"/><ellipse cx="218" cy="118" rx="88" ry="25"/><ellipse cx="242" cy="77" rx="15" ry="234"/><ellipse fill="#b0a1fb" rx="1" ry="1" transform="rotate(177.1 43.4 78) scale(56.02661 3.2053)"/><ellipse fill="#000300" rx="1" ry="1" transform="matrix(42.56312 -3.93777 1.94252 20.99655 37.4 121.3)"/><path fill="#cf0000" d="M-29.6 94.6L-23 41l52.6 6.4L23 101z"/><ellipse fill="#ff0005" cx="66" cy="66" rx="7" ry="26"/><ellipse fill="#071a1f" cx="83" cy="91" rx="13" ry="56"/><ellipse fill="red" cx="222" cy="74" rx="6" ry="22"/><ellipse fill="red" rx="1" ry="1" transform="matrix(-1.46407 -32.24124 4.57764 -.20787 167.6 77.2)"/><ellipse rx="1" ry="1" transform="matrix(4.50876 -31.51737 3.90687 .5589 8.5 83)"/><path fill="#c30000" d="M180 49h27v45h-27z"/><path fill="#e3000d" d="M134 142h87v11h-87z"/><path d="M148 27h13v81h-13z"/><ellipse cx="176" cy="84" rx="5" ry="58"/><ellipse fill="red" rx="1" ry="1" transform="matrix(4.79333 .41316 -1.36792 15.87005 43 63)"/><path d="M50 0h9v127h-9z"/></g></svg>