<svg xmlns="http://www.w3.org/2000/svg" viewBox="0 0 200 133"><filter id="b"><feGaussianBlur stdDeviation="12" /></filter><path fill="#3e1e74" d="M0 0h200v133H0z"/><g filter="url(#b)" transform="translate(.5 .5)" fill-opacity=".5"><ellipse fill="#8136ff" rx="1" ry="1" transform="matrix(-32.83362 16.39633 -25.9822 -52.0293 19.2 80.5)"/><ellipse fill="#0f0a00" cx="89" cy="104" rx="25" ry="78"/><ellipse fill="#0d0a11" cx="164" rx="106" ry="27"/><path fill="#e24c6d" d="M81 50l22.2-15.6 13.7 19.7-22 15.5z"/><ellipse cx="128" cy="77" rx="37" ry="9"/><ellipse fill="#643bbb" cx="144" cy="119" rx="29" ry="29"/><path fill="#ff6f75" d="M149 58l27-12-12 24z"/><path fill="#03090b" d="M99.2 60.6L74.7 148l54.6-86.5-56.5-11.4z"/><ellipse fill="#5126b3" rx="1" ry="1" transform="rotate(-83.2 51.6 .6) scale(20.22431 31.17441)"/><ellipse fill="#7429e1" cx="6" cy="76" rx="29" ry="30"/><path fill="#a1856f" d="M85 72l9 9 8-24z"/><ellipse fill="#000120" rx="1" ry="1" transform="matrix(-10.55421 5.0977 -15.56875 -32.23333 80.1 98.2)"/><ellipse fill="#461f98" rx="1" ry="1" transform="rotate(138.6 62 52.6) scale(21.18459 19.23384)"/><ellipse fill="#000001" cx="82" cy="38" rx="11" ry="11"/><path d="M116 70h49v11h-49z"/><ellipse fill="#431f94" rx="1" ry="1" transform="rotate(16.4 -296.4 709.3) scale(49.15148 36.12932)"/><path fill="#ff6ab8" d="M97 47h17v6H97z"/><ellipse fill="#ce4298" cx="169" cy="50" rx="8" ry="8"/><ellipse fill="#3c19a1" rx="1" ry="1" transform="matrix(44.39736 25.04294 -6.84118 12.12838 0 18.8)"/><path fill="#9e7697" d="M100 110h5v23h-5z"/><path fill="#f5705b" d="M155.7 67.8l13.3-.4 3.9-17-12.3 7.7z"/><path fill="#6d49ab" d="M114 89h20v31h-20z"/></g></svg>