<svg xmlns="http://www.w3.org/2000/svg" viewBox="0 0 700 467"><filter id="b"><feGaussianBlur stdDeviation="12" /></filter><path fill="#454d54" d="M0 0h700v464H0z"/><g filter="url(#b)" transform="translate(1.4 1.4) scale(2.73438)" fill-opacity=".5"><ellipse fill="#f0fffe" rx="1" ry="1" transform="rotate(145.3 115.6 51.7) scale(41.7592 26.78881)"/><ellipse fill="#0e0000" rx="1" ry="1" transform="rotate(174.6 94.3 53) scale(228.10613 26.63469)"/><ellipse fill="#9fbfce" rx="1" ry="1" transform="rotate(157.5 61.6 38.5) scale(60.93877 25.97047)"/><ellipse cx="72" cy="24" rx="26" ry="44"/><ellipse fill="#829cb2" cx="88" cy="169" rx="89" ry="37"/><ellipse fill="#c6ffff" cx="175" cy="20" rx="9" ry="47"/><ellipse cx="183" cy="132" rx="22" ry="22"/><ellipse fill="#ffe1e2" rx="1" ry="1" transform="rotate(-9.1 977.4 -1262) scale(9.42234 19.54712)"/><ellipse rx="1" ry="1" transform="matrix(-1.30617 -34.00052 5.82056 -.2236 161 25.2)"/><ellipse fill="#000001" cx="12" cy="59" rx="11" ry="96"/><path d="M128 0h12v86h-12z"/><ellipse cx="52" cy="143" rx="10" ry="14"/><ellipse rx="1" ry="1" transform="matrix(14.44148 18.35185 -36.29343 28.56011 91.2 2.7)"/><ellipse fill="#d3ffff" cx="120" cy="36" rx="7" ry="31"/><path fill="#eff" d="M140 7h14v58h-14z"/><path fill="#e3cdb7" d="M35 72h45v15H35z"/><path fill="#e88549" d="M46 46L32-16l-8 81z"/><path d="M176-16l17 46 33-13z"/><ellipse fill="#fcd2d5" cx="154" cy="136" rx="8" ry="16"/><path fill="#86c5ff" d="M13 159h103v11H13z"/><path d="M27.2 121.3l1.6 31-46 2.4-1.6-31z"/><path fill="#ffffeb" d="M32 126h13v19H32z"/></g></svg>