<svg xmlns="http://www.w3.org/2000/svg" viewBox="0 0 700 467"><filter id="b"><feGaussianBlur stdDeviation="12" /></filter><path fill="#35405b" d="M0 0h700v464H0z"/><g filter="url(#b)" transform="translate(1.4 1.4) scale(2.73438)" fill-opacity=".5"><path fill="#fff" d="M200 69h22v58h-22z"/><ellipse rx="1" ry="1" transform="matrix(112.44196 19.62426 -4.74932 27.2124 81 33.7)"/><ellipse fill="#e3ffff" cx="255" cy="77" rx="12" ry="56"/><ellipse fill="#baffff" cx="37" cy="91" rx="13" ry="30"/><ellipse fill="#887d93" cx="121" cy="117" rx="50" ry="50"/><ellipse rx="1" ry="1" transform="matrix(-15.88932 72.41361 -13.56297 -2.97605 224.1 152.4)"/><ellipse fill="#2a54fd" rx="1" ry="1" transform="matrix(-56.67547 16.96738 -3.8708 -12.9295 255 37.9)"/><path fill="#fff" d="M120 83l9-13 42 19z"/><ellipse fill="#0054e9" rx="1" ry="1" transform="matrix(-3.82264 11.29104 -26.64637 -9.02128 166.7 74.2)"/><path fill="#00180c" d="M41 134h159v13H41z"/><ellipse fill="#ceffff" rx="1" ry="1" transform="matrix(-11.42613 2.31256 -6.18354 -30.55224 212 93.3)"/><path fill="#c1ceca" d="M87 147h61v20H87z"/><ellipse cy="169" rx="203" ry="5"/><ellipse fill="#00199f" rx="1" ry="1" transform="matrix(-41.54709 6.89943 -1.62953 -9.81274 111 70.1)"/><ellipse cx="15" cy="117" rx="7" ry="85"/><path fill="#090f39" d="M50 99l70-16 57 26z"/><ellipse fill="#000003" cx="55" cy="58" rx="7" ry="87"/><path fill="#85c6fa" d="M7 89L-5 49l17-15z"/><path fill="#f1b3b0" d="M105 109h59v13h-59z"/><path fill="#eedbf5" d="M92.8 77.5l3 8.5-24.6 8.5-3-8.5z"/><path d="M225 58h18v78h-18z"/><ellipse fill="#00000a" cx="194" cy="92" rx="6" ry="66"/></g></svg>