<svg xmlns="http://www.w3.org/2000/svg" viewBox="0 0 200 133"><filter id="b"><feGaussianBlur stdDeviation="12" /></filter><path fill="#998b85" d="M0 0h200v133H0z"/><g filter="url(#b)" transform="translate(.5 .5)" fill-opacity=".5"><ellipse fill="#31221b" cx="166" cy="88" rx="154" ry="28"/><ellipse fill="#e4e6e5" cx="87" cy="10" rx="133" ry="47"/><ellipse rx="1" ry="1" transform="rotate(62.3 -70.8 77.9) scale(14.4428 18.91415)"/><ellipse fill="#995100" cx="199" cy="42" rx="21" ry="54"/><path fill="#f6e7d3" d="M147 8h23v76h-23z"/><ellipse fill="#d5bd9a" cx="100" cy="119" rx="66" ry="18"/><ellipse fill="#ffceff" cx="5" cy="63" rx="13" ry="32"/><ellipse fill="#130400" cx="151" cy="94" rx="39" ry="14"/><path fill="#605971" d="M24 24h98v16H24z"/><path fill="#f2f6fb" d="M80 80.3l16.4-20.5-.3 42.1-15.8-29.1z"/><path fill="#fffff8" d="M110 45h7v60h-7z"/><path fill="#000526" d="M65 52h21v50H65z"/><path fill="#fff" d="M52 67h12v24H52z"/><ellipse fill="#e7e8e4" cx="101" cy="9" rx="98" ry="12"/><ellipse fill="#4c0600" rx="1" ry="1" transform="matrix(16.9909 2.5393 -2.34928 15.71942 187.6 73.5)"/><path d="M14 92h21v25H14zm157-4h15v27h-15z"/><path fill="#f2ffff" d="M126 63h8v16h-8z"/><ellipse fill="#7892b4" rx="1" ry="1" transform="matrix(13.31589 -22.83437 10.2783 5.9938 88.4 40.5)"/><ellipse cx="103" cy="82" rx="6" ry="19"/><ellipse cx="183" cy="25" rx="6" ry="6"/><path fill="#3f2b21" d="M25.2 68.2l23.6 13 .7-13 26-12.3z"/></g></svg>