<svg xmlns="http://www.w3.org/2000/svg" viewBox="0 0 700 467"><filter id="b"><feGaussianBlur stdDeviation="12" /></filter><path fill="#4c4f54" d="M0 0h700v464H0z"/><g filter="url(#b)" transform="translate(1.4 1.4) scale(2.73438)" fill-opacity=".5"><ellipse fill="#fff" cx="121" cy="158" rx="51" ry="51"/><ellipse rx="1" ry="1" transform="rotate(75.3 -14.2 63) scale(84.64941 49.37718)"/><ellipse fill="#fff" rx="1" ry="1" transform="matrix(.92957 10.84033 -214.16194 18.36465 131 152)"/><ellipse fill="#ffffe9" rx="1" ry="1" transform="matrix(-2.27203 -42.98125 12.41951 -.6565 109 106.2)"/><ellipse fill="#fff" cx="145" cy="110" rx="10" ry="53"/><ellipse cx="160" cy="167" rx="77" ry="7"/><ellipse fill="#001734" cx="169" rx="94" ry="94"/><ellipse fill="#e2f1f8" cx="242" cy="104" rx="9" ry="53"/><path d="M131 91.9l4.8 38.7L123 132l-4.7-38.7z"/><ellipse fill="#ffffe5" cx="144" cy="90" rx="9" ry="33"/><ellipse fill="#fff" cx="37" cy="169" rx="24" ry="24"/><path fill="#a2001a" d="M46 86h25v70H46z"/><ellipse fill="#fff" rx="1" ry="1" transform="matrix(1.21271 9.4667 -110.29799 14.1295 255 141.3)"/><ellipse fill="#ebede1" cx="20" cy="138" rx="5" ry="60"/><ellipse fill="#020603" cx="38" cy="25" rx="78" ry="78"/><path fill="#120e2a" d="M159 76h77v61h-77z"/><path fill="#fffdce" d="M97 77h22v75H97z"/><path fill="#fff" d="M131.5 157.4l-131 23-2-11.8 131-23z"/><path fill="#000200" d="M68 84h28v55H68z"/><path fill="#000433" d="M158 71h21v70h-21z"/><ellipse fill="#0d1512" cx="232" cy="169" rx="133" ry="13"/><ellipse cx="11" cy="141" rx="4" ry="25"/></g></svg>