<svg xmlns="http://www.w3.org/2000/svg" viewBox="0 0 200 133"><filter id="b"><feGaussianBlur stdDeviation="12" /></filter><path fill="#5e5141" d="M0 0h200v133H0z"/><g filter="url(#b)" transform="translate(.5 .5)" fill-opacity=".5"><ellipse fill="#fff" rx="1" ry="1" transform="rotate(87.1 66.8 102.8) scale(28.6801 38.91513)"/><ellipse rx="1" ry="1" transform="matrix(23.25648 -22.69505 123.10766 126.1531 24.2 108.7)"/><ellipse cx="169" cy="126" rx="63" ry="32"/><ellipse fill="#fff" cx="170" cy="39" rx="24" ry="36"/><ellipse fill="#efc184" cx="88" cy="90" rx="21" ry="21"/><ellipse cx="144" cy="55" rx="6" ry="25"/><path d="M175 50h25v15h-25z"/><ellipse fill="#fff" cx="173" cy="29" rx="29" ry="19"/><ellipse rx="1" ry="1" transform="rotate(96.1 -50.4 56.1) scale(199 14.48753)"/><ellipse rx="1" ry="1" transform="rotate(-113.8 131.6 -5) scale(21.85374 71.12424)"/><path fill="#ffdf53" d="M188.2 88.6l-32 14.3 2.8-15.8 29.4-10.5z"/><ellipse fill="#787d47" cx="152" cy="3" rx="53" ry="9"/><ellipse rx="1" ry="1" transform="matrix(-2.93946 18.35165 -78.77807 -12.6182 48.7 126.5)"/><path fill="#e2d6cf" d="M91.7 52.6l7.8-40.2 2 30.8 7.3 13.6z"/><ellipse fill="#b3996d" cx="123" cy="18" rx="22" ry="22"/><ellipse fill="#180002" rx="1" ry="1" transform="matrix(8.8022 2.6911 -10.43131 34.11929 41.3 66.4)"/><path fill="#ba8c4c" d="M103 119l40-38-93 13z"/><path d="M161 85l-29 18 16-41z"/><ellipse fill="#14203c" cx="115" cy="63" rx="13" ry="21"/><ellipse fill="#f8dfcc" cx="163" cy="55" rx="14" ry="22"/><ellipse fill="#fff" cx="186" cy="27" rx="44" ry="16"/><path fill="#bd8965" d="M16 39h21v23H16z"/></g></svg>