<svg xmlns="http://www.w3.org/2000/svg" viewBox="0 0 200 133"><filter id="b"><feGaussianBlur stdDeviation="12" /></filter><path fill="#a7a7ae" d="M0 0h200v133H0z"/><g filter="url(#b)" transform="translate(.5 .5)" fill-opacity=".5"><ellipse fill="#060e2c" cx="102" cy="105" rx="27" ry="75"/><ellipse cx="193" cy="82" rx="14" ry="49"/><ellipse fill="#fdffff" rx="1" ry="1" transform="rotate(6 -432.2 217.4) scale(55.97154 113.18963)"/><ellipse fill="#fff" cx="145" cy="24" rx="38" ry="16"/><path fill="#495e7b" d="M32 72.3L17.3 52.1 40 35.7l14.7 20.2z"/><path d="M92 97l45 41-56 10z"/><ellipse fill="#8e462e" cx="99" cy="5" rx="11" ry="44"/><path fill="#160000" d="M-4.5 57.5h9v29h-9z"/><ellipse fill="#fff" rx="1" ry="1" transform="matrix(33.15388 .5071 -.3831 25.04683 17.6 19.7)"/><ellipse fill="#6585b6" cx="109" cy="60" rx="24" ry="24"/><ellipse fill="#e5dede" rx="1" ry="1" transform="matrix(7.55397 53.67988 -14.6295 2.0587 160.2 97.6)"/><path fill="#34312e" d="M160 46l55-5-12 95z"/><ellipse fill="#fff" cx="170" cy="17" rx="63" ry="9"/><path fill="#791e00" d="M112 82l13 15 24-24z"/><ellipse fill="#4a4d4f" cx="143" cy="4" rx="50" ry="5"/><ellipse fill="#fff" rx="1" ry="1" transform="rotate(-138.4 25.7 45.3) scale(14.39378 21.80848)"/><path fill="#060000" d="M0 74h36v3H0z"/><path fill="#0d0c1a" d="M183 0h3v44h-3z"/><ellipse fill="#d0cdd1" rx="1" ry="1" transform="matrix(-20.00584 2.99973 -9.12155 -60.8336 63.8 125)"/><ellipse fill="#dfe9f3" cx="178" cy="61" rx="3" ry="54"/><path fill="#fff" d="M191 0h9v38h-9z"/><path fill="#646c88" d="M17 35l9 20-7 11z"/></g></svg>