<svg xmlns="http://www.w3.org/2000/svg" viewBox="0 0 200 133"><filter id="b"><feGaussianBlur stdDeviation="12" /></filter><path fill="#4f5786" d="M0 0h200v133H0z"/><g filter="url(#b)" transform="translate(.5 .5)" fill-opacity=".5"><ellipse fill="#fff" rx="1" ry="1" transform="matrix(-72.18929 -6.41767 2.13863 -24.05644 96 97.6)"/><ellipse cx="150" cy="1" rx="193" ry="18"/><ellipse fill="#000009" rx="1" ry="1" transform="matrix(-13.28604 -1.44333 16.05477 -147.78665 13.7 104.7)"/><ellipse fill="#feffff" rx="1" ry="1" transform="matrix(62.04093 .7998 -.1828 14.17984 116.5 105.7)"/><ellipse cx="149" cy="130" rx="20" ry="21"/><ellipse fill="#3959e3" rx="1" ry="1" transform="matrix(3.0261 -42.21631 19.53638 1.40039 38.8 57)"/><path fill="#fff" d="M162 109h22v13h-22z"/><ellipse rx="1" ry="1" transform="matrix(8.01746 -62.62198 14.32863 1.83449 197.8 132)"/><ellipse fill="#778add" cx="129" cy="70" rx="31" ry="30"/><ellipse cx="132" cy="132" rx="185" ry="10"/><path d="M164 0h11v99h-11z"/><path fill="#000059" d="M139 82h21v18h-21z"/><path fill="#fff" d="M54 109L6 126l49-34z"/><ellipse fill="#4571ff" cx="186" cy="56" rx="11" ry="35"/><path fill="#0227db" d="M31 17h54v31H31z"/><ellipse rx="1" ry="1" transform="matrix(46.30554 -14.34822 2.64213 8.52684 52.3 9.1)"/><ellipse fill="#000024" rx="1" ry="1" transform="matrix(-2.4232 14.56914 -103.95562 -17.29032 143.6 10.2)"/><ellipse fill="#000014" cx="3" cy="98" rx="29" ry="29"/><path fill="#f7ffff" d="M68 93h67v29H68z"/><path fill="#fff" d="M176.3 103.7l-10.6-11.1-31.1 10.7 56.7 19.7z"/><path fill="#4d4a3d" d="M42 108h25v18H42z"/><path fill="#0c1db7" d="M105 17h39v31h-39z"/></g></svg>