<svg xmlns="http://www.w3.org/2000/svg" viewBox="0 0 200 133"><filter id="b"><feGaussianBlur stdDeviation="12" /></filter><path fill="#5e3b3a" d="M0 0h200v133H0z"/><g filter="url(#b)" transform="translate(.5 .5)" fill-opacity=".5"><ellipse fill="#ab8a9a" cx="96" cy="64" rx="77" ry="30"/><ellipse rx="1" ry="1" transform="matrix(.65245 76.40334 -24.14694 .2062 191.8 20.9)"/><ellipse rx="1" ry="1" transform="matrix(13.88628 -.5017 2.33242 64.55892 10.7 21)"/><ellipse fill="#0e0000" rx="1" ry="1" transform="matrix(163.836 1.30885 -.09629 12.05282 87.6 130.2)"/><path fill="#00b1ff" d="M136 36h24v20h-24z"/><ellipse fill="#d7d8fd" rx="1" ry="1" transform="matrix(18.728 -.80147 .42226 9.86694 105 51.2)"/><ellipse fill="#c79c8b" rx="1" ry="1" transform="matrix(7.8467 9.31825 -24.13829 20.32633 59.8 93.5)"/><path fill="#8f4c4d" d="M67 57h94v63H67z"/><ellipse fill="#0e0401" rx="1" ry="1" transform="rotate(-170.3 52.9 6.4) scale(53.80965 12.71359)"/><path fill="#ebb094" d="M154.6 44.7l16.2 54 .5-25.4-11.4-63.9z"/><ellipse fill="#e5a586" rx="1" ry="1" transform="matrix(4.28872 .9222 -11.728 54.54101 34.2 47.4)"/><ellipse fill="#180909" rx="1" ry="1" transform="rotate(86.9 42.7 90) scale(31.33109 6.68398)"/><ellipse fill="#bfcfdc" rx="1" ry="1" transform="rotate(-153.9 38.5 18) scale(6.03848 17.89107)"/><path fill="#d49b98" d="M110 72h14v41h-14z"/><path fill="#1f0305" d="M75 35h11v37H75z"/><ellipse fill="#2a0500" rx="1" ry="1" transform="rotate(85.7 -64 69.5) scale(47.08595 20.2188)"/><ellipse fill="#402c18" rx="1" ry="1" transform="matrix(11.5828 -34.62008 7.25627 2.42772 42.6 62.2)"/><path fill="#aab9b6" d="M39 77h44v10H39z"/><ellipse fill="#0e0000" rx="1" ry="1" transform="matrix(16.11167 -47.32772 16.724 5.69331 10.6 19)"/><ellipse fill="#bc5c4d" cx="189" cy="87" rx="5" ry="19"/><path fill="#ff0cfb" d="M92 37h25v5H92z"/><ellipse fill="#310000" rx="1" ry="1" transform="matrix(-14.98845 12.75617 -18.76794 -22.05226 176.6 125.6)"/></g></svg>