<svg xmlns="http://www.w3.org/2000/svg" viewBox="0 0 700 467"><filter id="b"><feGaussianBlur stdDeviation="12" /></filter><path fill="#8b2f8c" d="M0 0h700v464H0z"/><g filter="url(#b)" transform="translate(1.4 1.4) scale(2.73438)" fill-opacity=".5"><ellipse fill="#fb1827" cx="123" rx="90" ry="36"/><ellipse fill="#a8ddca" rx="1" ry="1" transform="matrix(15.3013 -34.13095 16.72995 7.50023 142.9 80.6)"/><ellipse fill="#000034" rx="1" ry="1" transform="matrix(7.89124 35.59508 -17.47486 3.87408 185.5 83.5)"/><ellipse fill="#da05dc" cx="40" cy="151" rx="45" ry="26"/><ellipse fill="#d33adc" rx="1" ry="1" transform="rotate(-47.4 61 1.8) scale(29.45621 74.12801)"/><ellipse fill="#000023" rx="1" ry="1" transform="matrix(16.1734 -31.0688 14.623 7.61225 254.9 85.6)"/><ellipse fill="#380438" rx="1" ry="1" transform="rotate(-145.6 51.9 9.8) scale(43.52219 18.92056)"/><path d="M220.5 180.8l-4.4-24.6 39.4-7 4.4 24.6z"/><ellipse fill="#aebef3" cx="218" cy="86" rx="18" ry="17"/><ellipse fill="#bb7ef0" cx="186" cy="143" rx="66" ry="10"/><ellipse fill="#000030" cx="96" cy="96" rx="28" ry="11"/><ellipse fill="#250031" rx="1" ry="1" transform="matrix(39.49925 3.24743 -1.4344 17.44688 125.4 169.3)"/><ellipse fill="#a5e4e2" cx="57" cy="84" rx="13" ry="19"/><ellipse fill="#9b5af0" cx="218" cy="31" rx="31" ry="17"/><path fill="#48cde5" d="M28.2 36.2l17.4 4.6-7.8 29-17.4-4.6z"/><ellipse fill="#d60096" rx="1" ry="1" transform="matrix(-37.21112 1.46494 -1.23147 -31.28085 15.6 18.3)"/><ellipse fill="#d56cc9" rx="1" ry="1" transform="rotate(-178.8 25.8 68) scale(51.87969 7.17213)"/><ellipse fill="#f900c6" cx="185" cy="155" rx="36" ry="8"/><ellipse fill="#6900b3" cx="21" cy="96" rx="21" ry="21"/><path fill="#da743e" d="M210.6-10.6l3.4 27.8-60.6 7.4L150-3.2z"/><ellipse fill="#190730" rx="1" ry="1" transform="matrix(-4.25846 -8.11117 15.93784 -8.36755 132.5 48.9)"/><ellipse fill="#534573" cx="233" cy="123" rx="154" ry="12"/></g></svg>