<svg xmlns="http://www.w3.org/2000/svg" viewBox="0 0 200 133"><filter id="b"><feGaussianBlur stdDeviation="12" /></filter><path fill="#6f5247" d="M0 0h200v133H0z"/><g filter="url(#b)" transform="translate(.5 .5)" fill-opacity=".5"><ellipse fill="#fff" rx="1" ry="1" transform="matrix(22.07966 19.98009 -21.8236 24.1169 185.4 122.5)"/><path fill="#e5eef2" d="M54 51h30v56H54z"/><ellipse fill="#000b22" rx="1" ry="1" transform="matrix(17.6491 -11.90446 18.62544 27.61334 34.1 97.4)"/><ellipse cx="146" cy="17" rx="26" ry="26"/><ellipse fill="#ffd1b8" cx="114" cy="47" rx="16" ry="16"/><ellipse fill="#040000" cx="138" cy="84" rx="13" ry="50"/><ellipse fill="#8d0000" cx="180" cy="63" rx="17" ry="39"/><ellipse fill="#f2caa0" rx="1" ry="1" transform="matrix(-.29317 33.59371 -11.84177 -.10334 80.6 122.9)"/><ellipse fill="#050000" cx="30" cy="6" rx="15" ry="46"/><ellipse fill="#fffff9" rx="1" ry="1" transform="rotate(-50.1 225.1 -131.7) scale(16.25192 27.10955)"/><ellipse fill="#0f0300" cx="86" cy="32" rx="20" ry="21"/><path fill="#c9bbb6" d="M77 48.6l1 18-91 4.8-1-18z"/><ellipse fill="#ce947a" cx="156" cy="62" rx="9" ry="37"/><ellipse fill="#002932" rx="1" ry="1" transform="rotate(132.8 -8.6 51.1) scale(33.7099 17.7819)"/><path fill="#ffdbc2" d="M88.7 89.5l-5-6.3 31.6-24.7 5 6.3z"/><path fill="#ffe5c2" d="M13.5 41.5L-16 74.8l15-45.6-.1-.4z"/><ellipse fill="#fac3a8" cx="22" cy="132" rx="15" ry="15"/><path fill="#030600" d="M83-16L-16 4l109 9z"/><ellipse fill="#411f0b" rx="1" ry="1" transform="matrix(6.21611 3.41887 -12.46348 22.66086 87.2 71.2)"/><path fill="#e5a794" d="M42.4 37.2L48.2 14l19.4 4.9L61.8 42z"/><path fill="#001e26" d="M52 160.4L13.7 77.9 40 65.6l38.5 82.5z"/><ellipse fill="#774820" cx="20" cy="39" rx="10" ry="25"/></g></svg>