<svg xmlns="http://www.w3.org/2000/svg" viewBox="0 0 700 467"><filter id="b"><feGaussianBlur stdDeviation="12" /></filter><path fill="#786569" d="M0 0h700v464H0z"/><g filter="url(#b)" transform="translate(1.4 1.4) scale(2.73438)" fill-opacity=".5"><ellipse fill="red" rx="1" ry="1" transform="matrix(105.6978 6.46475 -1.97269 32.25315 202.8 137.5)"/><ellipse fill="#fff" cx="218" cy="92" rx="67" ry="16"/><ellipse fill="#00398e" cy="65" rx="92" ry="92"/><ellipse fill="#aaebe7" cx="237" cy="24" rx="81" ry="81"/><ellipse fill="#940000" cx="131" cy="76" rx="24" ry="93"/><ellipse fill="#d5f1e0" cx="95" cy="71" rx="12" ry="88"/><ellipse fill="#002e69" cx="39" cy="28" rx="52" ry="52"/><ellipse rx="1" ry="1" transform="rotate(95.5 51.3 89) scale(64.84135 12.87794)"/><ellipse fill="#f30" rx="1" ry="1" transform="matrix(-60.6078 -8.0868 4.33033 -32.45428 231.6 140.8)"/><ellipse fill="#ff1f00" cx="120" cy="65" rx="11" ry="77"/><ellipse fill="#0076af" cx="13" cy="110" rx="40" ry="63"/><ellipse fill="#30472a" cx="197" cy="66" rx="48" ry="13"/><path fill="#fff" d="M40 142h25v24H40z"/><path fill="#004f9e" d="M154.4 168l5.6-26.5 21.6 4.6-5.6 26.4z"/><path fill="#fff" d="M155 80h101v28H155z"/><ellipse fill="#263b19" cx="190" cy="25" rx="29" ry="8"/><ellipse fill="#fff" cx="253" cy="34" rx="9" ry="74"/><path fill="#f1ffff" d="M157 21h6v85h-6z"/><ellipse fill="#000b00" rx="1" ry="1" transform="matrix(-6.832 -31.91937 9.43449 -2.01935 65.8 120)"/><ellipse fill="#f32400" rx="1" ry="1" transform="matrix(-12.38956 -17.36953 26.7417 -19.07468 147.8 132.5)"/><path fill="#fff" d="M174.4 16l76.5-17-89-15-4.7 37.8z"/><ellipse fill="#50cfff" rx="1" ry="1" transform="rotate(-99.7 122.3 -63.5) scale(14.09152 33.82987)"/></g></svg>