<svg xmlns="http://www.w3.org/2000/svg" viewBox="0 0 200 133"><filter id="b"><feGaussianBlur stdDeviation="12" /></filter><path fill="#4d4256" d="M0 0h200v133H0z"/><g filter="url(#b)" transform="translate(.5 .5)" fill-opacity=".5"><ellipse fill="#f8adff" rx="1" ry="1" transform="matrix(-10.7541 -11.73603 21.8535 -20.02504 13 114)"/><ellipse fill="#edccdb" cx="89" cy="50" rx="26" ry="18"/><ellipse fill="#090000" rx="1" ry="1" transform="matrix(-59.95278 -18.82603 11.93412 -38.00502 168.4 28.6)"/><ellipse fill="#00041b" cx="15" cy="13" rx="34" ry="59"/><ellipse fill="#d6d7e2" rx="1" ry="1" transform="matrix(-7.53912 -3.30069 9.99607 -22.8321 55 45.6)"/><ellipse fill="#a6bac0" rx="1" ry="1" transform="matrix(-4.66739 -7.41169 35.8677 -22.5871 176.2 111.9)"/><path fill="#bd93d3" d="M63 87h24v29H63z"/><path fill="#d1d0df" d="M122.2 31.3l-40.5 59 23.6-62.7 14 6.3z"/><path fill="#d6b59f" d="M117.3 92.5L189 50.4l-35.6 29-43.6 23.4z"/><ellipse fill="#10070d" rx="1" ry="1" transform="matrix(12.31572 2.42723 -4.33021 21.97147 137.8 65.7)"/><ellipse fill="#bbd8b4" cx="101" cy="120" rx="15" ry="8"/><path fill="#fff7f0" d="M154.7 68l-11.8 19.7 32.5-27.3-7.1 4z"/><path fill="#100c34" d="M22 65h65v21H22z"/><path fill="#000807" d="M160.9 148l-25.3-23.8-10-23.3-21.2 47.1z"/><ellipse fill="#a88774" rx="1" ry="1" transform="rotate(-153.7 102 32.5) scale(23.70903 11.47517)"/><ellipse fill="#4e1e74" cx="86" cy="17" rx="21" ry="29"/><ellipse fill="#b18ee8" cx="3" cy="122" rx="21" ry="30"/><path fill="ivory" d="M85 62h29v6H85z"/><ellipse fill="#140705" rx="1" ry="1" transform="rotate(149.7 72.6 65.4) scale(6.51532 17.81454)"/><path fill="#0a0300" d="M179.2 77.4l27.4-7.5-8.5-44-28.8 1.3z"/><path fill="#a7c7ed" d="M59.4 16l12.8 3-2.8 11.8-17.2 16z"/><path fill="#04002a" d="M37 0h24v28H37z"/></g></svg>