<svg xmlns="http://www.w3.org/2000/svg" viewBox="0 0 700 467"><filter id="b"><feGaussianBlur stdDeviation="12" /></filter><path fill="#8b8885" d="M0 0h700v464H0z"/><g filter="url(#b)" transform="translate(1.4 1.4) scale(2.73438)" fill-opacity=".5"><ellipse fill="#050100" cx="137" cy="92" rx="101" ry="59"/><ellipse fill="#fff" cx="111" cy="10" rx="255" ry="24"/><ellipse fill="#fff" cx="183" cy="163" rx="255" ry="15"/><ellipse rx="1" ry="1" transform="matrix(23.82967 -1.58538 2.14337 32.21663 25.4 121.2)"/><ellipse fill="#fff" rx="1" ry="1" transform="matrix(.89565 -105.25583 11.50182 .09787 248.2 93.3)"/><ellipse fill="#ffc8ae" cx="71" cy="56" rx="23" ry="23"/><ellipse fill="#fff" rx="1" ry="1" transform="matrix(192.44812 -4.39804 .47863 20.94357 74.4 14.3)"/><ellipse fill="#fff" cx="134" cy="163" rx="47" ry="21"/><ellipse fill="#000608" cx="142" cy="109" rx="34" ry="34"/><ellipse fill="#ffecd8" rx="1" ry="1" transform="rotate(-1 4428.2 -1191) scale(30.08985 13.40643)"/><ellipse fill="#16222b" rx="1" ry="1" transform="matrix(4.82355 -15.36353 29.32074 9.20557 209.5 50)"/><path fill="#031016" d="M235.5 148h-37v-40h37z"/><path fill="#a67a48" d="M51 12l37 32-94 33z"/><path fill="#6c4d3e" d="M42 77h71v76H42z"/><path fill="#fff" d="M0 153h256v17H0z"/><ellipse fill="#fffffc" cx="255" cy="82" rx="19" ry="255"/><ellipse fill="#091317" rx="1" ry="1" transform="matrix(38.81592 -1.19253 .71503 23.27356 128.5 63.8)"/><ellipse fill="#fdf4f4" rx="1" ry="1" transform="matrix(-4.84086 4.9261 -40.6186 -39.91578 49 37.5)"/><path fill="#fff" d="M8-16l-24 72 19 74zm93 104h7v24h-7z"/><ellipse fill="#fff" cx="189" cy="1" rx="144" ry="31"/><path fill="#531000" d="M44 81l21-37 1 23z"/></g></svg>