<svg xmlns="http://www.w3.org/2000/svg" viewBox="0 0 200 133"><filter id="b"><feGaussianBlur stdDeviation="12" /></filter><path fill="#131329" d="M0 0h200v133H0z"/><g filter="url(#b)" transform="translate(.5 .5)" fill-opacity=".5"><ellipse fill="#7d4f5e" cx="101" cy="99" rx="42" ry="33"/><ellipse fill="#00097d" rx="1" ry="1" transform="matrix(37.1196 -36.2094 22.443 23.00716 96.4 0)"/><ellipse rx="1" ry="1" transform="matrix(53.29519 29.542 -35.65833 64.32933 199 37.3)"/><ellipse rx="1" ry="1" transform="matrix(-38.46451 12.57214 -19.01953 -58.19034 0 47.4)"/><ellipse fill="#211f7b" rx="1" ry="1" transform="matrix(41.4904 -6.79431 1.11464 6.80672 27.3 115.8)"/><path fill="#3d230e" d="M42 87h110v20H42z"/><ellipse fill="#475596" cx="98" cy="116" rx="31" ry="8"/><ellipse fill="#5f352e" cx="128" cy="78" rx="32" ry="17"/><ellipse fill="#0d25b2" cx="99" cy="12" rx="24" ry="7"/><ellipse fill="#121a74" rx="1" ry="1" transform="matrix(28.59036 4.11993 -1.24526 8.64153 185.3 116.6)"/><ellipse fill="#003230" cx="104" cy="55" rx="49" ry="14"/><ellipse fill="#000026" cx="100" cy="23" rx="9" ry="28"/><path fill="#965a6a" d="M79 73h16v18H79z"/><ellipse cx="45" cy="4" rx="35" ry="7"/><path fill="#04101f" d="M85 102.7l34.3 45.3-21.9-18.1 13.9-34.1z"/><ellipse cx="10" cy="61" rx="23" ry="45"/><path fill="#000100" d="M45 115h29v18H45z"/><path fill="#ba1c75" d="M113 76h15v11h-15z"/><path fill="#573c8e" d="M104 114h27v19h-27z"/><ellipse cx="190" cy="60" rx="22" ry="45"/><path fill="#2c65ff" d="M82.3 18.2l1.4-13 6 .6-1.4 13z"/><path fill="#824c3f" d="M89.3 90.5L54.4 102l26.8-24-15.3 2.2z"/></g></svg>