<svg xmlns="http://www.w3.org/2000/svg" viewBox="0 0 200 133"><filter id="b"><feGaussianBlur stdDeviation="12" /></filter><path fill="#696153" d="M0 0h200v133H0z"/><g filter="url(#b)" transform="translate(.5 .5)" fill-opacity=".5"><ellipse fill="#fff" cx="74" rx="143" ry="23"/><ellipse fill="#fff8d5" rx="1" ry="1" transform="matrix(45.42617 -2.81615 1.27128 20.5064 14 41.4)"/><ellipse fill="#050000" cx="61" cy="100" rx="25" ry="62"/><ellipse fill="#130a05" cx="172" cy="91" rx="51" ry="51"/><ellipse fill="#e2c98f" cx="103" cy="93" rx="22" ry="22"/><ellipse fill="#241a0f" rx="1" ry="1" transform="rotate(-171 29.6 9) scale(25.17321 10.46593)"/><ellipse fill="#fffffd" cx="125" cy="3" rx="117" ry="12"/><ellipse fill="#1a1718" rx="1" ry="1" transform="matrix(-85.1786 53.01901 -7.34007 -11.79231 39 79.7)"/><path fill="#f4f1de" d="M31.1-2.6L9.4 84.7l-16.5-4L14.6-6.8z"/><path fill="#bca273" d="M225.9 98.9l-51.6 28.6L164 109l51.6-28.6z"/><path fill="#1b1400" d="M39 111l109 37 67-26z"/><path fill="#0c1006" d="M19 35h8v63h-8z"/><path d="M10 149.8l-15-41.4 17-6.2 15 41.4z"/><path fill="#262600" d="M-.3-20.5L10 24.3.3 26.5-10-18.3z"/><path fill="#e9d095" d="M163 57v27l15-25z"/><path d="M190 23h10v67h-10z"/><path fill="#04040c" d="M142.3 45.5l-54-20.7L165.2 76l-50.4-8.2z"/><path fill="#382626" d="M47 10h23v7H47z"/><path fill="#3a3f13" d="M32.2 42.2l7.6.2 9-35-29.5 36.8z"/><path fill="#dcc06d" d="M47 50l8 26 12 5z"/><path fill="#b79866" d="M20.3 121.8l-5.4-20.5 40.4 19.4L26 148z"/><path fill="#ffffde" d="M70 0h31v23H70z"/></g></svg>