<svg xmlns="http://www.w3.org/2000/svg" viewBox="0 0 700 467"><filter id="b"><feGaussianBlur stdDeviation="12" /></filter><path fill="#66533e" d="M0 0h700v464H0z"/><g filter="url(#b)" transform="translate(1.4 1.4) scale(2.73438)" fill-opacity=".5"><ellipse fill="#c9feff" cx="77" cy="80" rx="22" ry="29"/><ellipse cx="86" cy="131" rx="110" ry="26"/><path fill="#ffbc39" d="M176 42.4L60.3 26.2 66-14.4 181.8 1.8z"/><ellipse fill="#00001a" cx="159" cy="85" rx="30" ry="30"/><ellipse fill="#f9e2cc" cx="211" cy="162" rx="50" ry="11"/><ellipse fill="#fff" cx="26" cy="27" rx="4" ry="109"/><path fill="#fff" d="M187 46h15v31h-15z"/><ellipse fill="#a75e04" cx="228" cy="13" rx="45" ry="45"/><ellipse cx="45" cy="78" rx="12" ry="26"/><ellipse fill="#ffdff1" rx="1" ry="1" transform="matrix(5.59584 24.7661 -6.78113 1.53218 58.3 57.5)"/><ellipse rx="1" ry="1" transform="rotate(-98.9 36.8 43) scale(62.03667 16.86412)"/><ellipse fill="#e48b10" rx="1" ry="1" transform="matrix(.72128 26.22089 -15.5014 .4264 248 128)"/><ellipse fill="#ffe0c3" cx="3" cy="169" rx="33" ry="14"/><ellipse fill="#00020c" rx="1" ry="1" transform="matrix(-2.62358 -30.60269 29.44397 -2.52424 153.4 115.2)"/><path fill="#deeafc" d="M121.6 124.8l.9-35.5 4.6-39.6 5.3 24.4z"/><path fill="#fceab9" d="M251.3 24.9L233 16.8 206-2.4 221.4-16z"/><ellipse rx="1" ry="1" transform="matrix(-1.44193 -25.0076 28.36494 -1.63551 70.1 137.6)"/><path fill="#451600" d="M252 35l18 59-64 60z"/><path fill="#8ebbff" d="M60 66h36v42H60z"/><path fill="#fff253" d="M202.2 135.2l-2.4-23 14-1.4 2.4 23z"/><path fill="#4a5260" d="M125.9 143.3l-4.4-74L88 90.7l1.5 27.7z"/><path fill="#fff" d="M184.5 81l1-15 14 1-1 15z"/></g></svg>