<svg xmlns="http://www.w3.org/2000/svg" viewBox="0 0 641 195"><filter id="b"><feGaussianBlur stdDeviation="12" /></filter><path fill="#2d3013" d="M0 0h641v192H0z"/><g filter="url(#b)" transform="translate(1.3 1.3) scale(2.5039)" fill-opacity=".5"><path fill="#ff94ff" d="M185.5 6.6l-18.7-3.3 1.7-9.9 18.7 3.3z"/><path fill="#ff79f2" d="M119.2-11.5L108.5 5.1 130 3.6l-.7-19.6z"/><path fill="#001500" d="M252 92l-51-79 70-14z"/><ellipse fill="#484f3b" rx="1" ry="1" transform="rotate(125.8 16.3 27.1) scale(35.86254 18.14102)"/><ellipse fill="#00e817" cx="96" cy="48" rx="7" ry="7"/><ellipse fill="#e25aff" cx="245" rx="11" ry="3"/><path fill="#824e33" d="M77 60h58v9H77z"/><path fill="#00d00a" d="M237.8 48L235 67l-6.9-1 2.7-18.8z"/><ellipse fill="#3c782a" cx="126" cy="31" rx="7" ry="26"/><path fill="#c57f39" d="M200.2 92l-8-27.2L162 92l65-19.2z"/><path fill="#00ac24" d="M166 54.7L155.2 53l2.8-17.7 10.8 1.7z"/><path fill="#fa7aff" d="M71-2.4v5l-14-.2v-5z"/><path fill="#0e1602" d="M224.2 66l-56 1-.4-27 56-1z"/><path d="M13 70h58v7H13z"/><path fill="#6b6d90" d="M125.3 92l38.9-12.2-58.8 9 4.2-28.8z"/><ellipse fill="#0f0c00" cx="83" cy="46" rx="4" ry="69"/><path fill="#3c3a11" d="M103 4h106v38H103z"/><ellipse fill="#00791c" rx="1" ry="1" transform="matrix(5.07118 -2.4515 4.01874 8.31317 197.6 48.6)"/><path fill="#8c622a" d="M90.3 69.9L102.7 92l-.7-15.4-4-26.5z"/><path fill="#0b0609" d="M144 67l-30-3-6 23z"/><path fill="#8f4426" d="M49 61h13v12H49z"/><ellipse fill="#070000" rx="1" ry="1" transform="matrix(-15.26724 26.93271 -12.55606 -7.1176 250.8 66.8)"/></g></svg>