<svg xmlns="http://www.w3.org/2000/svg" viewBox="0 0 700 467"><filter id="b"><feGaussianBlur stdDeviation="12" /></filter><path fill="#454d54" d="M0 0h700v464H0z"/><g filter="url(#b)" transform="translate(1.4 1.4) scale(2.73438)" fill-opacity=".5"><ellipse fill="#f1ffff" cx="241" cy="27" rx="28" ry="33"/><ellipse fill="#8caaba" cx="159" cy="44" rx="68" ry="28"/><ellipse fill="#100" rx="1" ry="1" transform="matrix(-179.63503 17.92996 -2.82764 -28.32925 171.3 97.9)"/><ellipse cx="75" cy="8" rx="29" ry="55"/><ellipse fill="#bdffff" rx="1" ry="1" transform="matrix(-.31332 32.43207 -9.78723 -.09455 175 26.9)"/><ellipse fill="#839bb0" rx="1" ry="1" transform="matrix(2.37661 30.80842 -86.56618 6.67786 85.3 163.7)"/><ellipse fill="#a6d8ec" cx="111" cy="57" rx="19" ry="26"/><ellipse rx="1" ry="1" transform="matrix(-21.55034 -2.90208 2.63343 -19.5554 181.5 133.1)"/><ellipse fill="#c9b6aa" rx="1" ry="1" transform="matrix(65.45505 -14.05637 1.93819 9.02538 91.8 71)"/><ellipse fill="#000002" rx="1" ry="1" transform="matrix(-3.51987 88.7079 -11.9341 -.47354 11.7 70.8)"/><ellipse rx="1" ry="1" transform="matrix(-6.10665 -.05218 .62233 -72.82407 134.5 19.4)"/><path fill="azure" d="M140 8h14v56h-14z"/><path d="M184 0h15v67h-15z"/><ellipse fill="#ffdada" cx="212" cy="136" rx="10" ry="20"/><path d="M154 0h12v87h-12z"/><ellipse cx="111" cy="20" rx="4" ry="44"/><ellipse rx="1" ry="1" transform="matrix(1.16963 17.9219 -9.39866 .61338 53.4 140.7)"/><path fill="#f9eedb" d="M45.5 135.6l-5.2-10.3-9.8-2.2 4.4 36.6z"/><ellipse fill="#d58755" cx="35" cy="36" rx="9" ry="48"/><ellipse fill="#fad0d1" rx="1" ry="1" transform="rotate(-103.3 129.2 5) scale(9.12861 8.23955)"/><ellipse rx="1" ry="1" transform="rotate(-30.8 63.5 -156.7) scale(41.10456 18.25417)"/><path fill="#8bc9ff" d="M14 160h102v10H14z"/></g></svg>