<svg xmlns="http://www.w3.org/2000/svg" viewBox="0 0 700 467"><filter id="b"><feGaussianBlur stdDeviation="12" /></filter><path fill="#706b85" d="M0 0h700v464H0z"/><g filter="url(#b)" transform="translate(1.4 1.4) scale(2.73438)" fill-opacity=".5"><ellipse fill="#fff" cx="37" cy="35" rx="49" ry="49"/><ellipse fill="#08000b" rx="1" ry="1" transform="matrix(-23.57536 -116.0116 44.78624 -9.10126 242.8 82.4)"/><ellipse fill="#0e0c30" rx="1" ry="1" transform="matrix(-2.27561 -31.77111 85.15726 -6.09941 60 111.6)"/><ellipse fill="#fff" rx="1" ry="1" transform="matrix(33.05038 37.75315 -28.82942 25.23825 40.8 39)"/><ellipse fill="#ffe1f1" rx="1" ry="1" transform="matrix(-78.82188 30.52339 -5.28115 -13.63776 142.1 163)"/><path fill="#ffffc8" d="M141.5 142.5v-63h19v63z"/><ellipse fill="#d4afdd" cx="72" cy="162" rx="73" ry="21"/><ellipse fill="#2b3164" cx="117" cy="55" rx="39" ry="39"/><ellipse fill="#fff" rx="1" ry="1" transform="rotate(-69.7 55 6.6) scale(18.05696 63.99107)"/><ellipse fill="#c2a8c9" cx="83" cy="129" rx="8" ry="59"/><path fill="#88b8d9" d="M154-16l-1 53L42-12z"/><ellipse fill="#fff" cx="57" cy="20" rx="21" ry="60"/><path fill="#070000" d="M172 185l39-41 60-16z"/><ellipse fill="#191931" rx="1" ry="1" transform="matrix(47.77316 -11.04219 4.7339 20.48085 29 128.6)"/><path fill="#201827" d="M102 65h37v72h-37z"/><ellipse fill="#1b3180" rx="1" ry="1" transform="matrix(47.71964 1.72735 -.28601 7.90137 26.3 85.7)"/><ellipse fill="#261b20" rx="1" ry="1" transform="rotate(-131.9 113.7 18.7) scale(21.46093 13.13324)"/><path fill="#4481c1" d="M-9.6 38l51.1-13.8L21 14.6-3 18z"/><ellipse fill="#fff" rx="1" ry="1" transform="matrix(-1.4349 23.46048 -56.1718 -3.43561 14.2 54)"/><path fill="#273777" d="M78 20h37v28H78z"/><path fill="#1b0c29" d="M200 79l-12-95 83 22z"/><path fill="#00042e" d="M158.3 12.2L150.1-16h17.8l-4.5 80.6z"/></g></svg>