<svg xmlns="http://www.w3.org/2000/svg" viewBox="0 0 200 133"><filter id="b"><feGaussianBlur stdDeviation="12" /></filter><path fill="#2f3360" d="M0 0h200v133H0z"/><g filter="url(#b)" transform="translate(.5 .5)" fill-opacity=".5"><ellipse fill="#fff" cx="144" cy="33" rx="28" ry="25"/><ellipse fill="#91acff" rx="1" ry="1" transform="rotate(-88.9 113.9 -21.7) scale(19.5578 133.20306)"/><ellipse rx="1" ry="1" transform="rotate(169.1 16.8 15) scale(84.11862 53.5983)"/><ellipse cx="27" cy="132" rx="114" ry="28"/><ellipse fill="#0003e9" rx="1" ry="1" transform="matrix(-39.74823 -8.95765 5.0565 -22.43743 188.2 107.7)"/><path fill="#fff" d="M68 76h121v9H68z"/><ellipse fill="#00000b" cx="194" cy="20" rx="22" ry="74"/><path fill="#fff" d="M158.1 72L16.6 84.4-16 96.6v7.7z"/><ellipse fill="#2347ff" cx="129" cy="103" rx="78" ry="13"/><ellipse cx="36" cy="29" rx="48" ry="48"/><ellipse cx="152" cy="88" rx="83" ry="4"/><ellipse fill="#fff" rx="1" ry="1" transform="matrix(-1.57397 -15.72508 25.5931 -2.56169 141 29.6)"/><path fill="#00000c" d="M0 0h94v79H0z"/><ellipse rx="1" ry="1" transform="matrix(-2.50086 16.1683 -171.16413 -26.47505 47.6 122.9)"/><ellipse fill="#4b4357" cx="138" cy="58" rx="49" ry="15"/><ellipse rx="1" ry="1" transform="matrix(-112.98257 -26.49982 3.51558 -14.98877 173.2 0)"/><path fill="#fff" d="M45 81l15 15-62-2zm9 0h74v5H54z"/><path fill="#f4f1f0" d="M92 58h7v22h-7z"/><ellipse fill="#0008ff" rx="1" ry="1" transform="matrix(-32.9685 3.11644 -.31703 -3.35383 19.2 80.7)"/><ellipse fill="#e6e7ff" rx="1" ry="1" transform="matrix(-.26477 5.23634 -50.53815 -2.55544 146.6 78.6)"/><ellipse fill="#00000c" cx="104" cy="63" rx="7" ry="15"/></g></svg>