<svg xmlns="http://www.w3.org/2000/svg" viewBox="0 0 700 467"><filter id="b"><feGaussianBlur stdDeviation="12" /></filter><path fill="#5c513f" d="M0 0h700v464H0z"/><g filter="url(#b)" transform="translate(1.4 1.4) scale(2.73438)" fill-opacity=".5"><ellipse fill="#fff" cx="219" cy="32" rx="37" ry="64"/><ellipse cx="179" cy="150" rx="255" ry="26"/><ellipse fill="#fff" rx="1" ry="1" transform="rotate(-178.2 105.5 16.4) scale(65.31579 24.92354)"/><ellipse fill="#daaa6a" cx="117" cy="121" rx="43" ry="29"/><ellipse rx="1" ry="1" transform="matrix(-27.19416 -181.62996 37.29417 -5.58379 26.4 129.6)"/><ellipse fill="#293704" cx="220" rx="37" ry="14"/><path fill="#000003" d="M178 39h13v84h-13z"/><ellipse fill="#d6a173" rx="1" ry="1" transform="rotate(-74.5 58.5 7) scale(21.09525 14.2648)"/><ellipse cx="255" cy="74" rx="35" ry="11"/><ellipse fill="#fff" rx="1" ry="1" transform="matrix(1.41543 -25.00558 31.38654 1.77662 217.5 35.5)"/><ellipse rx="1" ry="1" transform="matrix(-16.70318 -32.2659 67.2911 -34.83479 226.7 160.7)"/><ellipse fill="#ffca45" rx="1" ry="1" transform="matrix(3.8217 8.91669 -25.55214 10.95166 224.6 113.7)"/><path fill="#978b60" d="M127-14l-12 94L219-4z"/><path fill="#fff6d8" d="M228 92.3l-24.2 6.4-7.8-29 24.2-6.4z"/><ellipse fill="#0c1730" rx="1" ry="1" transform="rotate(-107.7 102.6 -15.3) scale(39.22002 11.38646)"/><ellipse fill="#020400" rx="1" ry="1" transform="matrix(-147.38888 -57.46452 9.55965 -24.51923 39 141.7)"/><ellipse fill="#320008" cx="63" cy="67" rx="13" ry="29"/><path fill="#c7b58e" d="M143.5 118l-27.4 16.5L96.5 102l27.4-16.5z"/><path fill="#eed4d6" d="M119 43h13v27h-13z"/><path fill="#a7ffff" d="M165 83l9-30-10-2z"/><path fill="#131f2d" d="M177 70l-61 27 98 12z"/><path fill="#f8cc8b" d="M142 142.7l28.3-34 13-8.6-2 10.7z"/></g></svg>