<svg xmlns="http://www.w3.org/2000/svg" viewBox="0 0 200 133"><filter id="b"><feGaussianBlur stdDeviation="12" /></filter><path fill="#686d71" d="M0 0h200v133H0z"/><g filter="url(#b)" transform="translate(.5 .5)" fill-opacity=".5"><ellipse rx="1" ry="1" transform="matrix(-24.85631 -35.44346 25.19215 -17.66712 47.6 113)"/><ellipse fill="#221000" cx="63" cy="41" rx="39" ry="55"/><ellipse fill="#c6e1fe" rx="1" ry="1" transform="rotate(164.5 72.5 37.6) scale(48.42812 25.20833)"/><ellipse fill="#fff" cx="160" cy="128" rx="25" ry="25"/><ellipse fill="#fff" rx="1" ry="1" transform="rotate(19.2 -273.8 59.5) scale(14.48293 42.04477)"/><path fill="#e3c3b2" d="M35.5 64.2l13.7-21 19.3 12.6-13.7 21z"/><path fill="#f3ffff" d="M78 95l21 16-7 37z"/><ellipse fill="#869dac" rx="1" ry="1" transform="matrix(45.9081 -11.53289 6.86868 27.34164 164.6 83.6)"/><ellipse cx="94" cy="31" rx="36" ry="15"/><path fill="#fff" d="M121 41h19v34h-19zM-15.6 13.8L-18.9-.8l56.5-13L40.9.8z"/><ellipse fill="#231705" cx="116" cy="129" rx="20" ry="21"/><ellipse fill="#abac96" rx="1" ry="1" transform="matrix(-40.30488 -5.23469 1.32468 -10.1995 63.6 .1)"/><ellipse fill="#152227" cx="38" cy="99" rx="27" ry="30"/><path fill="#fff" d="M-6 67l7 46 29-64z"/><path d="M78.3 14.8l22 6.3-20.6 72.1-22-6.3z"/><path fill="#adcbe5" d="M86 69l21-39 1 36z"/><ellipse fill="#332822" cx="35" cy="29" rx="48" ry="25"/><path fill="#d7f3ff" d="M137 108h43v25h-43z"/><path fill="#242f3e" d="M145.7 75.1l.6-19 20 .8-.6 19z"/><path fill="#000015" d="M120.2 68.6l.6 7-21 1.8-.6-7z"/><path fill="#f4ffff" d="M52 60l-28-4 32 18z"/></g></svg>