<svg xmlns="http://www.w3.org/2000/svg" viewBox="0 0 200 133"><filter id="b"><feGaussianBlur stdDeviation="12" /></filter><path fill="#462f25" d="M0 0h200v133H0z"/><g filter="url(#b)" transform="translate(.5 .5)" fill-opacity=".5"><path fill="#ffffea" d="M176.4-21.5l-8 65.5-36.8-4.5 8-65.5z"/><ellipse fill="#ff2641" rx="1" ry="1" transform="matrix(-3.15037 22.81301 -10.30755 -1.42342 100 54.9)"/><ellipse rx="1" ry="1" transform="matrix(-11.02244 44.67088 -27.55707 -6.79965 19 82.4)"/><ellipse fill="#c57c95" cx="59" cy="87" rx="12" ry="21"/><ellipse fill="#c8a54e" rx="1" ry="1" transform="rotate(-177.9 39 7.8) scale(9.07682 28.64537)"/><ellipse fill="#180702" rx="1" ry="1" transform="matrix(-105.87554 -6.29017 1.5685 -26.4008 167.7 117)"/><ellipse fill="#a5937d" cx="197" cy="43" rx="18" ry="25"/><ellipse cx="107" cy="6" rx="21" ry="21"/><path fill="#c57176" d="M38 44l4-30 29 54z"/><path fill="#ffffd4" d="M161 0h10v45h-10z"/><path fill="#110e00" d="M6 5h63v25H6z"/><ellipse fill="#1f2b3a" rx="1" ry="1" transform="matrix(23.3512 -19.66354 14.42045 17.12484 163.6 67)"/><path fill="#ffc8a5" d="M191.6 62.4l4 .7-5.2 26.5-4-.7z"/><path fill="#c09a79" d="M115 76l3 35 9-40z"/><path fill="#5d493e" d="M142 24h18v43h-18z"/><path fill="#e8bb9b" d="M140 100h5v20h-5z"/><path fill="#000001" d="M137 31l-32 37 26 7z"/><ellipse fill="#3f1500" cx="19" cy="132" rx="127" ry="28"/><path fill="#000001" d="M175.8 21.8l1.4-27 27 1.4-1.4 27z"/><path fill="#ffffc4" d="M152-12l-18 2 4 40z"/><ellipse fill="#01070d" cx="199" cy="112" rx="40" ry="26"/><path fill="#94771f" d="M34-6.8L57.3-16l-15 42.7-9-6.7z"/></g></svg>