<svg xmlns="http://www.w3.org/2000/svg" viewBox="0 0 200 133"><filter id="b"><feGaussianBlur stdDeviation="12" /></filter><path fill="#49474e" d="M0 0h200v133H0z"/><g filter="url(#b)" transform="translate(.5 .5)" fill-opacity=".5"><ellipse fill="#fff" rx="1" ry="1" transform="rotate(51.3 46.6 131.8) scale(13.73895 26.67927)"/><ellipse fill="#fff" cx="28" cy="6" rx="42" ry="11"/><ellipse cx="159" cy="104" rx="42" ry="74"/><ellipse fill="#f6cdba" rx="1" ry="1" transform="matrix(10.5081 27.09148 -12.04077 4.6703 85.2 48.5)"/><ellipse fill="#adb3d7" cx="96" cy="121" rx="20" ry="20"/><path fill="#fff" d="M159 0h14v17h-14z"/><path fill="#020000" d="M45 18h22v63H45z"/><ellipse fill="#010506" rx="1" ry="1" transform="matrix(-19.91665 6.28026 -21.16404 -67.1177 11.4 131.7)"/><ellipse fill="#f4fdfe" cx="115" cy="10" rx="17" ry="17"/><path fill="#d3c3c3" d="M163.5 78l-27.7-3.5v-1.8l15.4-11.3z"/><path fill="#26150d" d="M10.3 12.7L40 8.5l3.7 26.8L14 39.5z"/><path fill="#e9f3f0" d="M0 37l-6-17 37-36z"/><ellipse fill="#fff" cx="32" rx="26" ry="7"/><ellipse rx="1" ry="1" transform="rotate(-170.8 98.5 53) scale(60.89866 18.12226)"/><path fill="#010000" d="M176.4 21.7l1-37.7 8.1 4 22.6 42.2z"/><ellipse fill="#67717e" cx="32" cy="79" rx="16" ry="36"/><ellipse fill="#5f657e" rx="1" ry="1" transform="rotate(-80.5 107.5 24.1) scale(29.69358 28.66674)"/><ellipse fill="#0b193a" rx="1" ry="1" transform="rotate(92.5 38.8 43.2) scale(18.48051 18.17556)"/><ellipse fill="#1a1d20" cx="80" cy="84" rx="29" ry="13"/><path fill="#0a2a7d" d="M135 22h41v23h-41z"/><ellipse fill="#251200" cx="148" cy="12" rx="12" ry="10"/><path fill="#ecefef" d="M174.6 9.9l1.5-25.9-18.3 32 7 4z"/></g></svg>