<svg xmlns="http://www.w3.org/2000/svg" viewBox="0 0 700 467"><filter id="b"><feGaussianBlur stdDeviation="12" /></filter><path fill="#412845" d="M0 0h700v464H0z"/><g filter="url(#b)" transform="translate(1.4 1.4) scale(2.73438)" fill-opacity=".5"><ellipse fill="#dbfbff" cx="116" cy="73" rx="41" ry="25"/><ellipse rx="1" ry="1" transform="matrix(34.32277 -13.93344 52.74715 129.93405 229.3 29.2)"/><ellipse fill="#e12449" cx="187" cy="72" rx="39" ry="27"/><ellipse fill="#e44448" cx="30" cy="75" rx="41" ry="26"/><ellipse rx="1" ry="1" transform="matrix(-46.15424 -5.409 3.05504 -26.06823 26.5 19.5)"/><ellipse fill="#5253b7" cx="113" cy="167" rx="60" ry="31"/><ellipse fill="#000050" cx="119" cy="24" rx="29" ry="29"/><path fill="#3548ff" d="M142 11h32v24h-32z"/><ellipse cx="10" cy="133" rx="20" ry="38"/><path fill="#070600" d="M271 97l-39 47-169-35z"/><ellipse fill="#e0e0df" rx="1" ry="1" transform="matrix(25.20935 -18.32022 7.45163 10.25374 99.5 78.4)"/><ellipse fill="#232eff" rx="1" ry="1" transform="matrix(.42361 7.75323 -23.34274 1.27537 90.9 17.6)"/><ellipse fill="#ff7d97" cx="63" cy="73" rx="6" ry="31"/><ellipse rx="1" ry="1" transform="matrix(4.75988 .31112 -2.56334 39.21739 29.5 66)"/><ellipse fill="#6962ee" rx="1" ry="1" transform="rotate(144.1 59.3 62) scale(13.33047 27.40564)"/><path fill="#ffd" d="M88 133h12v19H88z"/><ellipse rx="1" ry="1" transform="matrix(-24.26196 10.44885 -27.57083 -64.01874 238.5 36.4)"/><ellipse rx="1" ry="1" transform="matrix(9.39449 -87.90643 3.50215 .37427 10.3 63)"/><path d="M166 39h10v48h-10z"/><ellipse cx="51" cy="65" rx="5" ry="23"/><ellipse fill="#ffecd1" cx="35" cy="140" rx="5" ry="10"/><path fill="#ff005f" d="M222.5 74l-11 .8-2-28.9 11-.7z"/></g></svg>