<svg xmlns="http://www.w3.org/2000/svg" viewBox="0 0 700 467"><filter id="b"><feGaussianBlur stdDeviation="12" /></filter><path fill="#5b3b37" d="M0 0h700v464H0z"/><g filter="url(#b)" transform="translate(1.4 1.4) scale(2.73438)" fill-opacity=".5"><ellipse fill="#b78a97" cx="111" cy="96" rx="58" ry="58"/><ellipse cx="255" cy="33" rx="41" ry="92"/><ellipse cx="7" cy="26" rx="29" ry="61"/><ellipse fill="#61bde2" rx="1" ry="1" transform="matrix(10.19537 -11.26654 19.692 17.81976 194.3 66.7)"/><ellipse fill="#070000" cx="112" cy="169" rx="255" ry="18"/><ellipse fill="#c9755e" rx="1" ry="1" transform="matrix(6.14357 -41.80059 15.9096 2.33828 205.6 92.1)"/><ellipse fill="#d7bbf9" cx="135" cy="63" rx="24" ry="17"/><ellipse fill="#1b0e0a" rx="1" ry="1" transform="matrix(5.23594 -29.1141 55.5015 9.98151 138.7 16.6)"/><path fill="#fff2e0" d="M26.9 122.3l16.4-66 5.8 1.4-16.4 66z"/><ellipse fill="#b1927f" rx="1" ry="1" transform="matrix(21.90982 -18.84542 13.39914 15.57794 68.2 121.1)"/><path fill="#aee1ff" d="M73 47h21v29H73z"/><path fill="#d4875c" d="M46-9L65 2 44 73z"/><ellipse fill="#1a0702" cx="102" cy="56" rx="7" ry="35"/><path d="M96.7 42.9l-35-1.8 1.6-30 35 1.8z"/><path fill="#0096ec" d="M173.2 49.6l3.7 17.4 21.7 7.4 8.7-30.4z"/><ellipse fill="#1a1c09" cx="102" cy="124" rx="13" ry="13"/><ellipse fill="#120000" rx="1" ry="1" transform="matrix(-9.93713 .938 -16.1383 -170.9688 15.5 86.7)"/><ellipse fill="#9e544c" cx="149" cy="143" rx="58" ry="10"/><ellipse fill="#883934" rx="1" ry="1" transform="matrix(-18.03395 -16.12849 17.55536 -19.6294 184.1 99)"/><ellipse fill="#280000" rx="1" ry="1" transform="rotate(54.2 -35 295.6) scale(32.31506 11.63849)"/><path fill="#ebdfd1" d="M211 82h7v46h-7z"/><ellipse fill="#0c0000" cx="255" cy="29" rx="36" ry="36"/></g></svg>