<svg xmlns="http://www.w3.org/2000/svg" viewBox="0 0 200 133"><filter id="b"><feGaussianBlur stdDeviation="12" /></filter><path fill="#535355" d="M0 0h200v133H0z"/><g filter="url(#b)" transform="translate(.5 .5)" fill-opacity=".5"><ellipse fill="#eaece8" rx="1" ry="1" transform="matrix(125.89172 20.84124 -4.52643 27.34196 105.7 7.5)"/><ellipse rx="1" ry="1" transform="rotate(-98.5 107.2 16.3) scale(58.80074 199.00001)"/><ellipse fill="#e0d5c1" rx="1" ry="1" transform="matrix(20.42262 16.47363 -23.61746 29.27895 12.9 31.1)"/><ellipse fill="#2d2106" cx="78" cy="27" rx="33" ry="19"/><ellipse fill="#81706e" cx="82" cy="75" rx="29" ry="29"/><path fill="#ffffdc" d="M129 58h7v34h-7z"/><ellipse fill="#f4e5e4" rx="1" ry="1" transform="rotate(73.1 31.6 101) scale(15.53581 12.20952)"/><ellipse fill="#ddefff" rx="1" ry="1" transform="matrix(-122.4727 -14.52975 1.78461 -15.04266 144.6 0)"/><ellipse fill="#000019" cx="185" cy="109" rx="47" ry="64"/><ellipse fill="#050916" cx="13" cy="111" rx="44" ry="44"/><ellipse fill="#ffffd7" cx="88" cy="18" rx="29" ry="3"/><path fill="#030000" d="M215 16l-7 65-19-50z"/><path fill="#121523" d="M39 10h86v5H39z"/><ellipse fill="#b48f62" cx="142" cy="36" rx="14" ry="18"/><ellipse fill="#84808e" cx="39" cy="55" rx="8" ry="51"/><ellipse fill="#f7feff" rx="1" ry="1" transform="matrix(-59.8138 .69348 -.04336 -3.73987 72.3 1.4)"/><ellipse fill="#070a14" rx="1" ry="1" transform="rotate(12.1 -456.4 590.4) scale(16.1894 40.10323)"/><path fill="#302c1d" d="M115 18L99 49 23 38z"/><path fill="#0c0604" d="M59.2 91.3l-8 .4-2.4-47 8-.4z"/><path fill="#7e7e8f" d="M160 71l11-45-35 3z"/><path fill="#ccaba3" d="M69 43.3l19.8 11.4-31.3 5.5 11-18.8z"/><path d="M53 22h62v4H53z"/></g></svg>