<svg xmlns="http://www.w3.org/2000/svg" viewBox="0 0 700 467"><filter id="b"><feGaussianBlur stdDeviation="12" /></filter><path fill="#4a6676" d="M0 0h700v464H0z"/><g filter="url(#b)" transform="translate(1.4 1.4) scale(2.73438)" fill-opacity=".5"><path fill="#f2ffff" d="M53.2 30.4l120.5-10.6 5.1 57.8L58.3 88.2z"/><ellipse rx="1" ry="1" transform="matrix(57.52262 -1.29961 .71387 31.59671 218.6 108.5)"/><path fill="#f6fcff" d="M113 15l19 170-62-9z"/><ellipse rx="1" ry="1" transform="matrix(-38.03868 22.93949 -12.90344 -21.39672 18.4 111.9)"/><ellipse fill="#ffefff" rx="1" ry="1" transform="matrix(-39.44473 12.53384 -4.52293 -14.23391 175.6 156.1)"/><ellipse cx="156" cy="1" rx="255" ry="20"/><path fill="#00021a" d="M126 62h34v83h-34z"/><path d="M71 0h12v129H71z"/><path fill="#8affff" d="M-8.7 11.2l22-.4 1.4 80-22 .4z"/><ellipse fill="#7fffff" cx="191" cy="47" rx="8" ry="41"/><ellipse fill="#0088c6" rx="1" ry="1" transform="matrix(-26.67668 10.9409 -14.08416 -34.34072 239.6 47.8)"/><ellipse cx="21" cy="25" rx="7" ry="111"/><ellipse fill="#6bfeff" cx="34" cy="48" rx="9" ry="32"/><ellipse rx="1" ry="1" transform="rotate(2.7 -920.1 1045.8) scale(5.57967 73.17621)"/><ellipse fill="#0c2930" rx="1" ry="1" transform="rotate(175.1 52 68.2) scale(37.33576 7.69878)"/><ellipse cx="223" cy="109" rx="48" ry="28"/><ellipse fill="#d9ffff" cx="94" cy="72" rx="13" ry="51"/><path d="M200 0h12v107h-12z"/><path fill="#81f7ff" d="M54.5 15.7l7.7-7.3 8.6 5.2.7 80.8z"/><ellipse cx="232" cy="29" rx="5" ry="87"/><ellipse fill="#e0d7f2" rx="1" ry="1" transform="matrix(1.12814 -6.86567 54.54314 8.9623 66 149.6)"/><ellipse cx="23" cy="163" rx="30" ry="8"/></g></svg>