<svg xmlns="http://www.w3.org/2000/svg" viewBox="0 0 700 467"><filter id="b"><feGaussianBlur stdDeviation="12" /></filter><path fill="#ada8a1" d="M0 0h700v464H0z"/><g filter="url(#b)" transform="translate(1.4 1.4) scale(2.73438)" fill-opacity=".5"><ellipse fill="#381e0f" cx="48" cy="110" rx="156" ry="30"/><ellipse fill="#fff" rx="1" ry="1" transform="matrix(-18.45422 -39.21722 152.97262 -71.98345 209.3 153.4)"/><ellipse fill="#fff" rx="1" ry="1" transform="matrix(-75.92474 101.32683 -35.12044 -26.31593 43.5 18)"/><ellipse fill="#2f1f1d" rx="1" ry="1" transform="matrix(-22.35153 -11.59758 17.45333 -33.63707 110.4 56)"/><ellipse fill="#000d00" rx="1" ry="1" transform="rotate(61.6 91.1 152.7) scale(23.08955 32.88308)"/><ellipse fill="#fbffff" cx="224" cy="54" rx="80" ry="36"/><path fill="#230600" d="M43 164l32-82-91 52z"/><ellipse fill="#fff" rx="1" ry="1" transform="matrix(21.88356 34.46929 -24.29736 15.4257 83 164.8)"/><ellipse cx="238" cy="3" rx="89" ry="7"/><path fill="#44302a" d="M227 96L113 64l17 86z"/><ellipse fill="#f8fffe" cx="198" cy="145" rx="35" ry="35"/><ellipse fill="#edffff" cx="145" cy="34" rx="10" ry="29"/><ellipse fill="#3a5f00" rx="1" ry="1" transform="matrix(10.04552 19.30425 -19.04012 9.90807 171.8 10.6)"/><path fill="#feffff" d="M98.5 169.1L-1 185l1.2-53.3 14.5 27.5z"/><ellipse fill="#4a311f" rx="1" ry="1" transform="matrix(-.49912 9.94189 -33.39714 -1.67665 121.3 134)"/><ellipse fill="#feffff" rx="1" ry="1" transform="matrix(-77.9016 -21.60403 2.40587 -8.67529 136 158.1)"/><path fill="#dbe7ff" d="M160 37h59v49h-59z"/><ellipse fill="#ece8cc" rx="1" ry="1" transform="matrix(13.787 14.52665 -101.79205 96.60921 67.1 35)"/><path fill="#551700" d="M151 82l-42-5 55-15z"/><path d="M207.3.3l73-2.6.4 10-73 2.6z"/><path fill="#e2bab4" d="M73 76l38-4 15 21z"/><path fill="#ebf3ff" d="M202 10h54v11h-54z"/></g></svg>