<svg xmlns="http://www.w3.org/2000/svg" viewBox="0 0 200 133"><filter id="b"><feGaussianBlur stdDeviation="12" /></filter><path fill="#868d8f" d="M0 0h200v133H0z"/><g filter="url(#b)" transform="translate(.5 .5)" fill-opacity=".5"><ellipse rx="1" ry="1" transform="rotate(2 -2552.6 2423.7) scale(21.60811 56.48684)"/><ellipse rx="1" ry="1" transform="matrix(-.18855 -45.5794 31.82391 -.13165 185.7 100.6)"/><ellipse fill="#fff" cx="27" cy="63" rx="32" ry="199"/><ellipse fill="#fff" cx="58" cy="7" rx="31" ry="31"/><ellipse fill="#e4ffff" rx="1" ry="1" transform="matrix(10.05959 -3.3659 15.82845 47.30624 135 40.3)"/><ellipse fill="#2d3c4e" cx="117" cy="102" rx="16" ry="64"/><ellipse fill="#000001" rx="1" ry="1" transform="matrix(-13.64855 3.1601 -17.60419 -76.03305 79 113.9)"/><ellipse fill="#fff2ec" rx="1" ry="1" transform="matrix(5.80794 46.62891 -7.55427 .94093 183.5 33.5)"/><ellipse rx="1" ry="1" transform="matrix(-17.91637 -.82254 1.23097 -26.8127 173.1 118.7)"/><ellipse fill="#202628" cx="162" cy="52" rx="11" ry="81"/><ellipse fill="#4e5c57" cx="21" cy="79" rx="6" ry="199"/><ellipse fill="#fffdfc" cx="43" cy="68" rx="14" ry="127"/><path fill="#b3e6e7" d="M134 67h19v66h-19z"/><path fill="#fff" d="M91 6h8v35h-8zm6 87h6v40h-6z"/><path fill="#f4ffff" d="M118 45l-2-61h41z"/><ellipse fill="#803116" cx="104" cy="78" rx="27" ry="12"/><path fill="#f7f1f0" d="M58 99.1l9 48.9-41.3-53L64 75.2z"/><ellipse fill="#363c3a" cx="193" cy="16" rx="4" ry="56"/><path fill="#72736a" d="M76 13h13v45H76z"/><ellipse fill="#edecec" cx="49" cy="9" rx="29" ry="29"/><ellipse fill="#9cc6c7" cx="141" cy="32" rx="9" ry="127"/></g></svg>