<svg xmlns="http://www.w3.org/2000/svg" viewBox="0 0 200 133"><filter id="b"><feGaussianBlur stdDeviation="12" /></filter><path fill="#4c4550" d="M0 0h200v133H0z"/><g filter="url(#b)" transform="translate(.5 .5)" fill-opacity=".5"><ellipse fill="#73bce9" rx="1" ry="1" transform="rotate(-82 72.2 -31.2) scale(29.22439 71.13508)"/><ellipse fill="#210000" rx="1" ry="1" transform="matrix(198.58776 -12.80242 1.38802 21.53063 107.6 121.8)"/><ellipse fill="#a9767a" cx="106" cy="69" rx="62" ry="33"/><path d="M215 0v50L123-6z"/><ellipse fill="#210000" rx="1" ry="1" transform="matrix(4.2389 -121.3864 13.71452 .47892 10.6 53)"/><ellipse fill="#028bc7" rx="1" ry="1" transform="rotate(-169.4 28.8 13.4) scale(32.54344 21.99308)"/><path fill="#b1b8ba" d="M139 47l-32-24-75 28z"/><ellipse fill="#1e95d2" cx="144" cy="37" rx="16" ry="16"/><path fill="#8d6875" d="M160.3 116l-91.7 8-.9-10 91.7-8z"/><ellipse fill="#b77358" rx="1" ry="1" transform="matrix(74.53806 -8.87122 .54145 4.54938 29 99.7)"/><ellipse fill="#190d15" rx="1" ry="1" transform="rotate(-79.9 23.5 -28) scale(11.60875 60.93097)"/><ellipse rx="1" ry="1" transform="matrix(1.14366 11.25513 -69.52373 7.06448 136.2 132)"/><ellipse fill="#5d4767" cx="95" cy="57" rx="29" ry="12"/><path fill="#342321" d="M87 80L25 98l10-29z"/><ellipse fill="#260000" cx="190" cy="87" rx="12" ry="17"/><path fill="#017cc9" d="M25 11h18v52H25z"/><ellipse fill="#0072ad" cx="86" cy="21" rx="44" ry="5"/><ellipse fill="#b1757c" cx="127" cy="71" rx="46" ry="11"/><path fill="#380000" d="M80 103l-47 45-47-38z"/><path fill="#330809" d="M170 103l-68 8 9-25z"/><path fill="#100" d="M110.4 148l-30.2-46.4.5 27.4-72.9-1.6z"/><path fill="#875b54" d="M210.4 73.9l-37.6-57.1-9.3 16.3 2 8.5z"/></g></svg>