<svg xmlns="http://www.w3.org/2000/svg" viewBox="0 0 800 533"><filter id="b"><feGaussianBlur stdDeviation="12" /></filter><path fill="#564b39" d="M0 0h800v531H0z"/><g filter="url(#b)" transform="translate(1.6 1.6) scale(3.125)" fill-opacity=".5"><ellipse fill="#cde3de" cx="171" cy="88" rx="57" ry="57"/><ellipse rx="1" ry="1" transform="matrix(-3.8883 -30.35291 133.39787 -17.08866 81.4 19.3)"/><path fill="#070000" d="M190.6 100.9L149.8 133l-59 17.2 109.9-10z"/><ellipse rx="1" ry="1" transform="matrix(-24.7689 -33.98093 21.07847 -15.36422 11.6 119.3)"/><ellipse rx="1" ry="1" transform="rotate(-2.8 2392 -5006.1) scale(22.71619 41.33452)"/><ellipse fill="#fff" cx="101" cy="119" rx="10" ry="15"/><ellipse fill="#ffd042" cx="87" cy="71" rx="8" ry="38"/><ellipse fill="#ffd6ad" cx="45" cy="165" rx="69" ry="10"/><ellipse fill="#d46900" cx="45" cy="78" rx="26" ry="33"/><ellipse rx="1" ry="1" transform="matrix(-5.0535 99.71233 -12.36236 -.62653 10.7 58.2)"/><path fill="#fff" d="M58 132.1l-15.8-2.5 3.8-23.7 15.8 2.5z"/><path fill="#0c0000" d="M232.9 127.5l-32.2-103L194.3 1l6 74.1z"/><path fill="#c0cfc7" d="M118 40h50v90h-50z"/><path fill="#ffcd71" d="M224.6 15.7l7.7 72.6-19 2-7.6-72.6z"/><ellipse rx="1" ry="1" transform="matrix(14.28628 -6.22212 13.14743 30.18712 79.1 130)"/><ellipse cx="88" cy="9" rx="157" ry="28"/><ellipse cx="236" cy="33" rx="9" ry="50"/><path fill="#ffc149" d="M247 9h9v68h-9z"/><ellipse cx="106" cy="64" rx="13" ry="31"/><path fill="#c7d7d2" d="M186 48l40 83-69-42z"/><ellipse fill="#ffeebf" rx="1" ry="1" transform="matrix(-5.70678 17.19442 -3.97353 -1.3188 100 98.6)"/><path d="M174 151l-1-44 23 10z"/></g></svg>