<svg xmlns="http://www.w3.org/2000/svg" viewBox="0 0 200 133"><filter id="b"><feGaussianBlur stdDeviation="12" /></filter><path fill="#4f5786" d="M0 0h200v133H0z"/><g filter="url(#b)" transform="translate(.5 .5)" fill-opacity=".5"><ellipse fill="#f8ffff" rx="1" ry="1" transform="rotate(6.4 -822.2 974.8) scale(71.54328 25.36726)"/><ellipse rx="1" ry="1" transform="matrix(.15824 17.39971 -174.3385 1.58554 150.5 2.3)"/><ellipse rx="1" ry="1" transform="matrix(-10.91336 -1.37707 18.30846 -145.09574 8.9 113.2)"/><ellipse rx="1" ry="1" transform="matrix(16.21988 -19.81682 13.2962 10.88282 143.3 132)"/><ellipse fill="#f5ffff" cx="80" cy="105" rx="52" ry="17"/><ellipse fill="#fff" rx="1" ry="1" transform="matrix(16.47513 9.89926 -3.8503 6.40798 172.4 111.5)"/><ellipse fill="#3c60ed" cx="58" cy="59" rx="38" ry="38"/><path fill="#1c1200" d="M42 108h26v25H42z"/><path fill="#00001b" d="M178 94l-40 4 36-56z"/><ellipse fill="#7a8bde" cx="130" cy="67" rx="33" ry="25"/><ellipse rx="1" ry="1" transform="matrix(.11853 10.13292 -109.4002 1.27967 108 132)"/><ellipse rx="1" ry="1" transform="rotate(172.4 95 59.5) scale(13.56117 18.36395)"/><ellipse cx="170" cy="9" rx="6" ry="91"/><path d="M16.4 79.2l22 13.8-24.8 39.8-22-13.8z"/><path fill="#5280ff" d="M177 37h22v51h-22z"/><ellipse fill="#fff" cx="135" cy="103" rx="43" ry="7"/><ellipse cx="61" cy="8" rx="52" ry="10"/><path fill="#b0b2c9" d="M23 65h65v22H23z"/><ellipse fill="#000031" cx="188" cy="5" rx="95" ry="24"/><path fill="#071cbd" d="M147.6 22.2L143 52l-38.5-6.1L109 16z"/><ellipse fill="#0424d2" cx="59" cy="32" rx="27" ry="16"/><path fill="#e5b9db" d="M93 17h11v27H93z"/></g></svg>