<svg xmlns="http://www.w3.org/2000/svg" viewBox="0 0 700 467"><filter id="b"><feGaussianBlur stdDeviation="12" /></filter><path fill="#8c8b81" d="M0 0h700v464H0z"/><g filter="url(#b)" transform="translate(1.4 1.4) scale(2.73438)" fill-opacity=".5"><ellipse rx="1" ry="1" transform="rotate(179.6 39.1 13) scale(61.80188 35.14718)"/><ellipse fill="#d3e1f1" rx="1" ry="1" transform="matrix(6.78938 -29.1491 100.05476 23.30467 172.2 129.6)"/><ellipse fill="#3f0a00" cx="247" cy="88" rx="92" ry="20"/><ellipse fill="#fff" rx="1" ry="1" transform="matrix(-24.56905 15.47537 -9.35615 -14.85402 173.5 51.4)"/><ellipse fill="#c9d0d2" rx="1" ry="1" transform="matrix(-35.53216 -6.78625 16.06273 -84.10302 22.1 143.6)"/><ellipse fill="#112700" rx="1" ry="1" transform="matrix(-29.34615 -38.24464 18.9162 -14.51491 55 34.5)"/><path fill="#c3c9cf" d="M92 39h29v50H92z"/><ellipse fill="#1b2300" cx="99" cy="24" rx="60" ry="17"/><path fill="#590600" d="M216.8 41.5l19.7 25.3-25.3 19.7-19.7-25.3z"/><ellipse fill="#d6c1a0" rx="1" ry="1" transform="matrix(-53.34634 -86.84795 22.8588 -14.04102 230.7 13.7)"/><path fill="#350000" d="M152.3 90.2L271 104.6 130.1 67.4 114 77.7z"/><path fill="#ebe8ee" d="M112.7 118.6l7.2-31.2 95.4 22-7.2 31.2z"/><ellipse fill="#6a94ac" rx="1" ry="1" transform="matrix(-.46008 20.27393 -90.577 -2.05548 139.2 156.7)"/><path d="M58 89h38v8H58zM0 40l-9 49 19-5z"/><path fill="#cce2fd" d="M227 75h16v15h-16z"/><ellipse fill="#c8c9d2" cx="15" cy="66" rx="10" ry="36"/><ellipse fill="#e7e3e5" rx="1" ry="1" transform="matrix(-5.59918 -.2441 1.8684 -42.85624 167.1 33.7)"/><ellipse fill="#803b10" rx="1" ry="1" transform="matrix(6.62311 5.19318 -17.63365 22.48903 144.2 30.7)"/><path d="M17 26l-33 32V32z"/><path fill="#969b9c" d="M32 55h32v38H32z"/><ellipse fill="#fbfdff" rx="1" ry="1" transform="matrix(1.07783 6.3056 -10.71136 1.83093 203.1 39.2)"/></g></svg>