<svg xmlns="http://www.w3.org/2000/svg" viewBox="0 0 800 533"><filter id="b"><feGaussianBlur stdDeviation="12" /></filter><path fill="#777967" d="M0 0h800v531H0z"/><g filter="url(#b)" transform="translate(1.6 1.6) scale(3.125)" fill-opacity=".5"><ellipse fill="#fff" rx="1" ry="1" transform="rotate(-98 121 43.1) scale(32.09919 59.27673)"/><ellipse fill="#fff" cx="37" cy="24" rx="117" ry="15"/><ellipse fill="#1f3100" cx="202" cy="90" rx="49" ry="121"/><ellipse fill="#d4ebff" rx="1" ry="1" transform="matrix(-14.88825 -.11635 .3832 -49.03342 46 105.2)"/><ellipse fill="#fbf8ff" cx="132" cy="90" rx="19" ry="38"/><ellipse rx="1" ry="1" transform="matrix(-18.38073 -2.70685 4.94049 -33.54813 95.5 86.2)"/><ellipse cy="110" rx="16" ry="62"/><path fill="#fff" d="M245 0h11v54h-11z"/><ellipse rx="1" ry="1" transform="matrix(-18.1004 6.23247 -18.43587 -53.54166 182.3 142.9)"/><ellipse fill="#bacd96" cx="167" cy="41" rx="20" ry="20"/><path fill="#c2c497" d="M269.9 51.9l-43.7 63.4-12.7 42-19.8-21.2z"/><path d="M160 181l18-38 93 22z"/><path fill="#fff" d="M73 13l58 2 8 30zm82.7 161.4L127 200.9l-34.8-37.3 28.6-26.5z"/><ellipse fill="#a0b3f4" rx="1" ry="1" transform="matrix(-22.58073 8.07599 -10.07311 -28.16475 39.9 93.6)"/><ellipse fill="#fffefd" cx="30" cy="24" rx="63" ry="11"/><ellipse fill="#445a00" rx="1" ry="1" transform="matrix(4.9973 61.6303 -33.3099 2.70094 213.7 26.4)"/><ellipse fill="#501000" cx="93" cy="37" rx="10" ry="10"/><path fill="#1f0e11" d="M20.3 52.8l45.9-7-37 22.4L32 99.4z"/><path fill="#573e30" d="M0 112h38v58H0z"/><path fill="#d0d6cc" d="M134.8-6.9l40.8 77.3L157.5 87l5.5-19.8z"/><ellipse rx="1" ry="1" transform="matrix(8.27922 -18.17986 11.72753 5.34079 95 88)"/></g></svg>