<svg xmlns="http://www.w3.org/2000/svg" viewBox="0 0 200 133"><filter id="b"><feGaussianBlur stdDeviation="12" /></filter><path fill="#9e8374" d="M0 0h200v133H0z"/><g filter="url(#b)" transform="translate(.5 .5)" fill-opacity=".5"><ellipse cx="150" cy="119" rx="53" ry="53"/><ellipse fill="#fffff8" rx="1" ry="1" transform="rotate(177.3 20.8 9) scale(152.49572 39.89003)"/><ellipse rx="1" ry="1" transform="matrix(-18.90539 -4.79407 12.9818 -51.19364 11.5 110.1)"/><path fill="#41002d" d="M67 44h30v49H67z"/><ellipse fill="#ffe5d5" rx="1" ry="1" transform="matrix(-30.1811 -49.81562 11.1329 -6.74494 44.4 68.2)"/><ellipse fill="#ffffd9" cx="169" cy="40" rx="17" ry="35"/><path fill="#170005" d="M7 116h109v17H7z"/><ellipse cx="173" cy="124" rx="28" ry="28"/><path d="M116 53h16v25h-16z"/><ellipse fill="#fff8d1" cx="107" cy="29" rx="7" ry="75"/><ellipse cx="194" cy="26" rx="10" ry="11"/><ellipse fill="#ff67ff" cx="78" cy="98" rx="12" ry="12"/><ellipse fill="#fde8d2" rx="1" ry="1" transform="matrix(-40.03843 74.71723 -23.58787 -12.63994 74.4 0)"/><ellipse cx="17" cy="82" rx="14" ry="14"/><path fill="#fff6de" d="M20 53l-3-63L-7 93z"/><path fill="#ffe2b6" d="M132.6 81.8L156.8-16l-48.5 6.5 33 92.5z"/><path fill="#39003b" d="M86.3 84.2l-27.4-5.9 4.8-22.5 27.4 5.9z"/><path fill="#c46c31" d="M141 131.2l-32.6-9.4 6.6-23 32.6 9.4z"/><path fill="#1d160c" d="M145 40l-11 31 26-12z"/><path fill="#ffa5fb" d="M65 132l19-37-23-3z"/><path fill="#ae7511" d="M19 9h16v22H19z"/><ellipse cx="125" cy="69" rx="4" ry="28"/></g></svg>