<svg xmlns="http://www.w3.org/2000/svg" viewBox="0 0 200 133"><filter id="b"><feGaussianBlur stdDeviation="12" /></filter><path fill="#7d7d8a" d="M0 0h200v133H0z"/><g filter="url(#b)" transform="translate(.5 .5)" fill-opacity=".5"><ellipse fill="#190700" cx="107" cy="132" rx="112" ry="27"/><ellipse fill="#fff" rx="1" ry="1" transform="rotate(-94 54.3 38) scale(20.59442 60.84396)"/><ellipse fill="#cff" cx="66" cy="36" rx="45" ry="16"/><ellipse fill="#a5a4e5" cx="168" cy="65" rx="47" ry="47"/><ellipse fill="#1e2b24" rx="1" ry="1" transform="rotate(92 -20.4 40.5) scale(12.78956 91.29575)"/><ellipse fill="#b79259" cx="125" cy="102" rx="24" ry="49"/><path fill="#532a1d" d="M117.6 1.7l14 30-27.2 12.6-14-30z"/><path fill="#7a78ff" d="M128 26h72v30h-72z"/><ellipse fill="#0000da" cx="15" cy="37" rx="11" ry="11"/><ellipse fill="#413f3b" cx="52" rx="170" ry="12"/><path fill="#fff" d="M25 27h39v18H25z"/><ellipse fill="#000708" cx="60" cy="125" rx="28" ry="16"/><ellipse fill="#011205" cx="93" cy="64" rx="13" ry="13"/><path fill="#d0e4e4" d="M7 76h82v25H7z"/><path fill="#ffdcb6" d="M139 30l23-22-41 3z"/><path fill="#47acff" d="M64 26h27v28H64z"/><path fill="#c59d95" d="M103 22h16v65h-16z"/><path fill="#0b1309" d="M77 62l19 31.5 7.1-15.7-20.3-20z"/><path fill="#5e86ca" d="M12 43l35 36 8-35z"/><path d="M0 61h27v12H0z"/><path fill="#0000da" d="M11 26h12v27H11z"/><path fill="#060803" d="M57 111l-61 37-12-26z"/></g></svg>