<svg xmlns="http://www.w3.org/2000/svg" viewBox="0 0 200 133"><filter id="b"><feGaussianBlur stdDeviation="12" /></filter><path fill="#6c5a76" d="M0 0h200v133H0z"/><g filter="url(#b)" transform="translate(.5 .5)" fill-opacity=".5"><ellipse fill="#ffffda" cx="148" cy="132" rx="26" ry="39"/><ellipse fill="#090048" rx="1" ry="1" transform="rotate(-100.2 100.2 -45.3) scale(20.27938 89.79341)"/><ellipse rx="1" ry="1" transform="matrix(7.31302 -66.39142 13.15138 1.44863 44.4 0)"/><path fill="#fff" d="M52 28h31v21H52z"/><ellipse fill="#4760ff" cx="7" cy="31" rx="24" ry="40"/><path fill="#fff" d="M85.3 113L72.6 92.8l22-13.8 12.8 20.4z"/><ellipse rx="1" ry="1" transform="matrix(4.30254 -11.96331 38.2685 13.76307 75 17.4)"/><path fill="#d3dbb3" d="M46.5 113.2l-65.4 9.2-5.6-39.6L41 73.6z"/><path fill="#e9e0d1" d="M75.3 142.6l-33-2.3 2.4-33 33 2.4z"/><path fill="#000700" d="M95 94.8l30.6-4.3 3.5 24.7-30.7 4.3z"/><ellipse fill="#131100" rx="1" ry="1" transform="matrix(3.08811 -15.2535 15.58733 3.1557 57.2 93.3)"/><ellipse fill="#ded8bd" cx="118" cy="129" rx="27" ry="13"/><ellipse fill="#f1f9e9" rx="1" ry="1" transform="rotate(52.9 -23.5 184.6) scale(25.73129 7.30896)"/><path fill="#920100" d="M-4.4 151.4l-6-28.4 48.8-10.4 6 28.4z"/><path d="M181 84h14v23h-14z"/><path fill="#24041b" d="M116 40h84v27h-84z"/><ellipse fill="#813aaa" cx="137" cy="13" rx="36" ry="36"/><path fill="#e2e3ce" d="M73 81l15 40 33-48z"/><path fill="#796bfa" d="M107.2 51.3l10.7 34-23-29.2.7-22.2z"/><path fill="#fff" d="M54 50l-2-26 34 8z"/><path fill="#000600" d="M90.5 126.6l16.9 21.4-28.2-16.8-18.4-60.8z"/><ellipse fill="#996651" cx="188" cy="128" rx="52" ry="16"/></g></svg>