<svg xmlns="http://www.w3.org/2000/svg" viewBox="0 0 700 467"><filter id="b"><feGaussianBlur stdDeviation="12" /></filter><path fill="#562f2f" d="M0 0h700v464H0z"/><g filter="url(#b)" transform="translate(1.4 1.4) scale(2.73438)" fill-opacity=".5"><ellipse fill="#fff" rx="1" ry="1" transform="matrix(-10.41245 -66.88767 19.93783 -3.10374 139.8 136.3)"/><path fill="#62bdda" d="M78 37.8L90.2 80 20 100.2 7.8 58z"/><ellipse cx="181" cy="69" rx="39" ry="39"/><ellipse fill="#cb0f00" cx="60" cy="169" rx="61" ry="61"/><ellipse fill="#000a17" cx="94" cy="40" rx="34" ry="89"/><ellipse fill="#a00000" cx="210" cy="131" rx="51" ry="40"/><ellipse fill="#aad6fd" cx="154" cy="32" rx="21" ry="16"/><ellipse fill="#f6ffff" rx="1" ry="1" transform="matrix(-16.52924 5.7641 -13.56527 -38.90002 135.8 133.6)"/><ellipse fill="#ffb565" cx="25" cy="70" rx="11" ry="41"/><ellipse fill="#000001" cx="16" cy="2" rx="184" ry="23"/><ellipse fill="#006fc6" cx="56" cy="54" rx="20" ry="37"/><path fill="#d9a25f" d="M11.3 145.5l13.3-85.7 42.8 55.8L42 137.8z"/><ellipse cx="5" cy="68" rx="10" ry="87"/><path d="M172 0h34v96h-34z"/><ellipse fill="#8d0000" cx="224" cy="71" rx="11" ry="44"/><path fill="#f88556" d="M93.9 80l-8.6 2.7L70 36l8.6-2.8z"/><path d="M132 82l-48 54-21-17z"/><ellipse fill="#3c6369" rx="1" ry="1" transform="matrix(-21.93772 -92.08491 21.97091 -5.2342 248.8 30.9)"/><ellipse fill="#a00000" rx="1" ry="1" transform="rotate(70.1 74 183.5) scale(112.45944 9.39484)"/><ellipse fill="#00060b" cx="107" cy="26" rx="28" ry="46"/><ellipse fill="#000309" rx="1" ry="1" transform="matrix(14.16181 -20.30048 29.17423 20.35222 170.5 70)"/><ellipse fill="#a98775" rx="1" ry="1" transform="matrix(18.07377 29.71597 -9.38288 5.70683 140.2 90.1)"/></g></svg>