<svg xmlns="http://www.w3.org/2000/svg" viewBox="0 0 200 133"><filter id="b"><feGaussianBlur stdDeviation="12" /></filter><path fill="#432847" d="M0 0h200v133H0z"/><g filter="url(#b)" transform="translate(.5 .5)" fill-opacity=".5"><ellipse fill="#e6e7ff" cx="94" cy="60" rx="36" ry="20"/><ellipse rx="1" ry="1" transform="matrix(-22.91147 -84.28938 31.80667 -8.64566 186.2 28.3)"/><ellipse fill="#df1d3e" rx="1" ry="1" transform="matrix(27.0362 1.46423 -1.19332 22.03405 148.6 55.4)"/><ellipse fill="#df3e4a" rx="1" ry="1" transform="matrix(-35.3854 .43234 -.25428 -20.81196 21.4 58.7)"/><ellipse rx="1" ry="1" transform="matrix(-.4573 -18.71147 32.30367 -.78948 25.5 17.7)"/><ellipse fill="#514cab" cx="89" cy="123" rx="63" ry="17"/><ellipse fill="#01a" cx="97" cy="14" rx="48" ry="13"/><ellipse rx="1" ry="1" transform="matrix(-16.08183 -11.54104 23.59504 -32.87843 0 110.2)"/><path fill="#b2e2ff" d="M66 40h40v29H66z"/><ellipse fill="#190b00" cx="111" cy="93" rx="140" ry="12"/><path fill="#ff6f8f" d="M45.6 26.7l8.9 13.9-3 41-8.3-8z"/><path fill="#00000f" d="M117.5 37.2l-50 2.6-1-21 50-2.6z"/><ellipse cx="172" cy="24" rx="37" ry="19"/><ellipse fill="#835e54" rx="1" ry="1" transform="rotate(.5 -11983 7016) scale(43.74947 10.85099)"/><path fill="#c6c9fe" d="M60.2-16L67.7-.9 55.6 27.3l11.3-.4z"/><ellipse cx="23" cy="41" rx="4" ry="36"/><ellipse fill="#797cf1" rx="1" ry="1" transform="matrix(6.00898 2.21088 -4.81436 13.08504 128.6 20.8)"/><path fill="#664fca" d="M132.3 69.9l-16.6 13-24-30.8 16.6-13z"/><path d="M8 80.1l-5-.3 3-44 5 .4z"/><path fill="#ff31bf" d="M12 32h8v33h-8z"/><ellipse fill="#90687a" cx="88" cy="73" rx="85" ry="6"/><path fill="#ff216d" d="M152 31h6v32h-6z"/></g></svg>