<svg xmlns="http://www.w3.org/2000/svg" viewBox="0 0 200 133"><filter id="b"><feGaussianBlur stdDeviation="12" /></filter><path fill="#754651" d="M0 0h200v133H0z"/><g filter="url(#b)" transform="translate(.5 .5)" fill-opacity=".5"><ellipse fill="#ffcda6" rx="1" ry="1" transform="rotate(-83.3 72.8 -8.4) scale(14.48299 39.52681)"/><ellipse cx="177" cy="6" rx="47" ry="21"/><path fill="#ecbdc1" d="M121.2 17.8l25.9 25-75.7-8 30-50.8z"/><ellipse fill="#daa1a0" cx="169" cy="105" rx="29" ry="29"/><ellipse fill="#e90000" rx="1" ry="1" transform="rotate(55.2 -58.6 30.6) scale(25.37921 47.58073)"/><ellipse fill="#291627" rx="1" ry="1" transform="matrix(-11.30633 -38.58531 28.28113 -8.28698 61 107.7)"/><path d="M142.3 94l-21.7 3.4-7-43.4 21.8-3.4z"/><ellipse fill="#260002" rx="1" ry="1" transform="rotate(-33.1 31.1 -52.3) scale(18.94326 46.87435)"/><ellipse cx="6" cy="117" rx="11" ry="37"/><path fill="#b191c1" d="M103.8 71.9l22.2 68.5-23.8 7.7L80 79.6z"/><path fill="#3c0000" d="M177 99l-16 19-9-43z"/><ellipse fill="#dbccda" rx="1" ry="1" transform="matrix(16.31107 21.7243 -4.89976 3.67884 169 80.5)"/><path fill="#150000" d="M215 35l-37.7 41.8 37.7 43.1-6.2-22.2z"/><ellipse fill="#efb286" rx="1" ry="1" transform="matrix(-6.46332 -9.69134 28.95489 -19.31051 53 62)"/><path fill="#fff6f6" d="M49 126h17v7H49z"/><ellipse fill="#fff" cx="146" cy="90" rx="4" ry="20"/><ellipse fill="#dfb3be" rx="1" ry="1" transform="matrix(30.49033 17.6036 -7.00093 12.12597 174.6 131.9)"/><path fill="#fff" d="M85 12h19v9H85z"/><ellipse fill="#3f5c6c" rx="1" ry="1" transform="matrix(28.2011 -9.38173 5.18755 15.59357 159 39.5)"/><path fill="#d70016" d="M9 29h37v27H9z"/><ellipse cx="179" cy="12" rx="38" ry="11"/><ellipse fill="#300000" rx="1" ry="1" transform="rotate(106.9 -11.2 62.6) scale(25.91631 6.14744)"/></g></svg>