<svg xmlns="http://www.w3.org/2000/svg" viewBox="0 0 200 133"><filter id="b"><feGaussianBlur stdDeviation="12" /></filter><path fill="#aea8a3" d="M0 0h200v133H0z"/><g filter="url(#b)" transform="translate(.5 .5)" fill-opacity=".5"><ellipse fill="#320f06" cx="84" cy="81" rx="63" ry="29"/><ellipse fill="#fff" rx="1" ry="1" transform="matrix(124.03262 -42.70785 9.12782 26.5091 199.2 101)"/><ellipse fill="#060000" cx="23" cy="102" rx="21" ry="21"/><ellipse fill="#fff" rx="1" ry="1" transform="matrix(-60.62786 41.35752 -17.37411 -25.4695 33.4 22.7)"/><path d="M124 18l-15-34L215 0z"/><ellipse fill="#f9ffff" cx="164" cy="44" rx="57" ry="27"/><path fill="#261e22" d="M67 19h39v34H67z"/><ellipse fill="#fff" cx="61" cy="122" rx="24" ry="24"/><path fill="#180100" d="M142 70h29v15h-29z"/><ellipse fill="#452d1f" cx="107" cy="98" rx="18" ry="18"/><ellipse fill="#295100" rx="1" ry="1" transform="matrix(14.8848 -15.19986 9.6739 9.47339 138.8 6)"/><path fill="#ebeaed" d="M155 8h45v64h-45z"/><ellipse fill="#f9fffe" cx="181" cy="118" rx="39" ry="39"/><ellipse rx="1" ry="1" transform="matrix(-.40708 7.92783 -42.66645 -2.19087 185.4 0)"/><path fill="#f5f1df" d="M116-16L-4-5l31 76z"/><path fill="#fff" d="M-16 143.5L0 111l60 37 41.4-34.4z"/><path fill="#521510" d="M93 69l33-10-1-15z"/><ellipse fill="#f6d4cd" cx="53" cy="60" rx="35" ry="4"/><path fill="#472214" d="M33 130L2 100l55-39z"/><path fill="#f2ffff" d="M117.8 46.1l-14-38.5L114.2 4l14 38.5z"/><ellipse fill="#f9fefe" cx="132" cy="131" rx="26" ry="26"/><ellipse fill="#473738" cx="96" cy="36" rx="11" ry="25"/></g></svg>