<svg xmlns="http://www.w3.org/2000/svg" viewBox="0 0 700 467"><filter id="b"><feGaussianBlur stdDeviation="12" /></filter><path fill="#6a696d" d="M0 0h700v464H0z"/><g filter="url(#b)" transform="translate(1.4 1.4) scale(2.73438)" fill-opacity=".5"><ellipse fill="#d2e4e4" rx="1" ry="1" transform="rotate(95.5 91.1 103) scale(22.02848 254.99997)"/><ellipse fill="#171a2a" rx="1" ry="1" transform="matrix(-4.87733 -29.11992 172.35828 -28.86847 164 114.2)"/><ellipse fill="#ff1400" rx="1" ry="1" transform="matrix(25.72395 22.0941 -16.64662 19.3815 5 100)"/><ellipse fill="#4f1c10" rx="1" ry="1" transform="rotate(-159.4 100.6 40.2) scale(28.43941 56.29863)"/><ellipse fill="#8faacb" rx="1" ry="1" transform="rotate(-157.3 34 39.9) scale(35.66385 16.56465)"/><ellipse fill="#2b85be" cx="129" cy="96" rx="24" ry="24"/><ellipse fill="#e5eef0" cx="133" cy="9" rx="96" ry="7"/><ellipse fill="#ff2d00" cx="6" cy="103" rx="23" ry="22"/><ellipse fill="#091c21" rx="1" ry="1" transform="matrix(-4.22 -.09213 1.5891 -72.78639 157.5 12.4)"/><ellipse fill="#101e1e" rx="1" ry="1" transform="matrix(5.20594 .29885 -1.91185 33.30378 78.6 2)"/><path fill="#ff4101" d="M207.8 67.7l.4 19.8-12.5 44.3 26.6-24z"/><path fill="#000d11" d="M142 100.4L97.3 58.8l32.2-26.6-5.2 31.7z"/><path fill="#f9fdff" d="M140 65l-15 3 6-45z"/><path fill="#10372f" d="M259 124L236 10l-18 64z"/><ellipse fill="#001335" cx="93" cy="121" rx="23" ry="28"/><path fill="#090902" d="M155.8 51l-31-27.4 34.7 61.1-25.9-12.2z"/><ellipse fill="#8b9fa5" cx="38" cy="32" rx="82" ry="15"/><path fill="#98a8a9" d="M150.5 36l80.7-41.7-5 67.6-66.1-3.8z"/><path fill="#00226c" d="M34 96V37l19 24z"/><path fill="#8bbdd3" d="M137 113l19 18-10-50z"/><ellipse fill="#89817f" rx="1" ry="1" transform="matrix(62.67592 15.8494 -4.56703 18.06018 67.6 166.5)"/><path fill="#0032df" d="M92 123l-52-20-2 16z"/></g></svg>