<svg xmlns="http://www.w3.org/2000/svg" viewBox="0 0 700 467"><filter id="b"><feGaussianBlur stdDeviation="12" /></filter><path fill="#4b4253" d="M0 0h700v464H0z"/><g filter="url(#b)" transform="translate(1.4 1.4) scale(2.73438)" fill-opacity=".5"><ellipse fill="#f3a9ff" rx="1" ry="1" transform="matrix(-33.52416 30.67762 -13.20675 -14.43218 14.4 148.3)"/><ellipse fill="#f8dae0" cx="119" cy="64" rx="30" ry="23"/><ellipse fill="#080000" cx="229" rx="95" ry="95"/><ellipse fill="#e5ebed" cx="72" cy="60" rx="11" ry="24"/><ellipse fill="#00051c" cx="22" cy="33" rx="47" ry="47"/><path fill="#ffefdf" d="M220.2 80.3l-32.5 28.2-5.9-6.8 32.5-28.2z"/><path fill="#abc7c6" d="M188.5 173.6l-8.6-19.1 67.6-30.1 8.6 19.1z"/><ellipse fill="#cbc5e5" cx="97" cy="135" rx="18" ry="12"/><path fill="#d4c7bf" d="M57 84l37-59-42 25z"/><path fill="#fff" d="M122 103l-3-26-10 12z"/><path fill="#9fc19c" d="M116.6 138.2l30.5 9.9-7.7 23.7-30.5-9.9z"/><ellipse fill="#0d0406" rx="1" ry="1" transform="matrix(3.70167 9.70807 -47.57551 18.14046 181 84.5)"/><path fill="#eac08b" d="M174 133l-9-27-29 8z"/><ellipse fill="#f4f6f1" rx="1" ry="1" transform="matrix(7.03919 -23.02414 7.43264 2.27239 131.6 63.2)"/><path fill="#1c032d" d="M120.8 57.2l-17.6-16.4 28-30 17.6 16.4z"/><path fill="#cf53e4" d="M91.6 130.6l9.6 11-25.2-28 29.1-13.3z"/><path fill="#000400" d="M168 186l-23-2.3 5-47.8 23 2.4z"/><ellipse fill="#b18fe4" rx="1" ry="1" transform="matrix(-11.85905 -29.20532 20.65081 -8.38543 8.2 147.7)"/><ellipse fill="#070a37" cx="74" cy="98" rx="36" ry="14"/><ellipse fill="#aa8179" cx="255" cy="130" rx="21" ry="32"/><path fill="#5b1a00" d="M212 154h38v16h-38z"/><path fill="#9dd0ff" d="M74 40l7-20 15 19z"/></g></svg>