<svg xmlns="http://www.w3.org/2000/svg" viewBox="0 0 800 533"><filter id="b"><feGaussianBlur stdDeviation="12" /></filter><path fill="#414652" d="M0 0h800v531H0z"/><g filter="url(#b)" transform="translate(1.6 1.6) scale(3.125)" fill-opacity=".5"><ellipse fill="#abf3ff" cx="126" cy="58" rx="32" ry="32"/><ellipse fill="#ffc29f" rx="1" ry="1" transform="matrix(-37.16097 2.47814 -1.02527 -15.37444 229 131.8)"/><ellipse fill="#fffcd8" cx="100" cy="130" rx="15" ry="18"/><ellipse fill="#fffff5" rx="1" ry="1" transform="matrix(-3.4373 14.42824 -10.4118 -2.48044 55 136)"/><ellipse fill="#002968" cx="23" cy="46" rx="58" ry="58"/><ellipse fill="#002e70" rx="1" ry="1" transform="matrix(-49.5344 -3.63758 4.27367 -58.19626 223.3 45.4)"/><ellipse fill="red" cx="8" cy="133" rx="28" ry="12"/><ellipse fill="#6e1d00" rx="1" ry="1" transform="rotate(-135.6 92.4 31.7) scale(36.69682 31.81849)"/><ellipse fill="#0c0000" cx="26" cy="162" rx="92" ry="17"/><ellipse fill="#0065a5" cx="21" cy="20" rx="32" ry="32"/><ellipse fill="#0a6eae" rx="1" ry="1" transform="matrix(49.03166 -20.91378 12.47893 29.25645 254.6 13)"/><ellipse fill="#7d3815" rx="1" ry="1" transform="matrix(56.70239 -13.49876 3.98124 16.72346 78 107.6)"/><path fill="#5ebcff" d="M97 51h61v36H97z"/><ellipse fill="#2c1200" cx="209" cy="159" rx="70" ry="13"/><ellipse fill="#001a37" cx="49" cy="67" rx="30" ry="46"/><path fill="#fffcea" d="M81 151l23-49 11 23z"/><ellipse fill="#001329" rx="1" ry="1" transform="rotate(-117.4 126.7 -20.4) scale(26.97539 32.81126)"/><path fill="#fcffff" d="M180 108l-1 10-17-9z"/><path fill="#fffff5" d="M46 124h19v21H46z"/><ellipse fill="#cc926c" rx="1" ry="1" transform="rotate(-157.1 132.3 52.2) scale(4.91578 41.0537)"/><path fill="#660d00" d="M86 29h8v98h-8z"/><ellipse fill="#815c36" rx="1" ry="1" transform="matrix(16.91887 -3.63965 8.06818 37.5048 125.5 156)"/></g></svg>