<svg xmlns="http://www.w3.org/2000/svg" viewBox="0 0 700 467"><filter id="b"><feGaussianBlur stdDeviation="12" /></filter><path fill="#656d6f" d="M0 0h700v464H0z"/><g filter="url(#b)" transform="translate(1.4 1.4) scale(2.73438)" fill-opacity=".5"><ellipse fill="#080000" rx="1" ry="1" transform="matrix(41.05357 9.32761 -35.28693 155.30815 70.3 109.5)"/><ellipse fill="#f9ffff" rx="1" ry="1" transform="rotate(-98 120 -35.7) scale(31.29264 22.46977)"/><ellipse fill="#acc5d6" cx="220" cy="121" rx="55" ry="91"/><ellipse fill="#fff" rx="1" ry="1" transform="matrix(-14.44987 -8.4355 28.34843 -48.56043 0 114.6)"/><ellipse fill="#faffff" cx="203" cy="161" rx="28" ry="28"/><path fill="#fffffc" d="M27 66l40 10 15 29z"/><ellipse cx="127" cy="41" rx="37" ry="20"/><path fill="#fff" d="M0 81h16v78H0z"/><path fill="#deeeff" d="M116.3 120.5l14.6 47.8-17.2 5.2-14.6-47.8z"/><ellipse fill="#3a2b1a" rx="1" ry="1" transform="rotate(179.6 22.5 19.3) scale(49.0594 34.87644)"/><ellipse fill="#c8cab6" cx="58" rx="131" ry="9"/><path fill="#1c1506" d="M126 141h50v29h-50z"/><ellipse fill="#596b6e" cx="203" cy="102" rx="29" ry="36"/><ellipse fill="#e7ffff" rx="1" ry="1" transform="matrix(15.4522 -3.9256 6.5418 25.75031 166.2 74.2)"/><ellipse fill="#080b00" rx="1" ry="1" transform="matrix(63.8249 -119.72 16.80732 8.96028 64.2 143.5)"/><path fill="#a7cae5" d="M136 39l-24 48h34z"/><path fill="#f7c29a" d="M67.7 94.4L53.3 83.6l21-28 14.4 10.8z"/><path fill="#fff" d="M71-11l-84 28-3-23z"/><ellipse fill="#bacee2" rx="1" ry="1" transform="rotate(-172 105 21) scale(36.29087 15.28499)"/><path d="M40 23l70-1L39 2z"/><path fill="#7c7a68" d="M35 4l236 44-18-64z"/><ellipse fill="#060c03" rx="1" ry="1" transform="matrix(24.91403 4.16918 -5.80737 34.70346 82.3 163)"/></g></svg>