<svg xmlns="http://www.w3.org/2000/svg" viewBox="0 0 700 467"><filter id="b"><feGaussianBlur stdDeviation="12" /></filter><path fill="#424f67" d="M0 0h700v464H0z"/><g filter="url(#b)" transform="translate(1.4 1.4) scale(2.73438)" fill-opacity=".5"><ellipse fill="#19e2ff" rx="1" ry="1" transform="matrix(13.52884 -45.96704 63.48716 18.68529 202.2 58.2)"/><ellipse fill="#830000" cx="180" cy="169" rx="76" ry="76"/><ellipse fill="#fff" cx="81" cy="118" rx="19" ry="39"/><ellipse fill="#8f0000" rx="1" ry="1" transform="matrix(-6.199 73.4306 -18.57401 -1.56802 126.5 63)"/><ellipse cx="18" cy="110" rx="19" ry="110"/><path fill="#2eb5ff" d="M144 6h75v96h-75z"/><ellipse fill="#640000" cx="192" cy="132" rx="94" ry="30"/><ellipse fill="#fff" cx="245" cy="98" rx="103" ry="6"/><ellipse fill="#26a7ff" cx="48" cy="55" rx="11" ry="55"/><ellipse fill="#007ce9" rx="1" ry="1" transform="rotate(175.3 110.8 37.5) scale(60.30124 28.36631)"/><ellipse fill="#000008" rx="1" ry="1" transform="rotate(98.9 -8 33) scale(228.76813 16.65217)"/><path fill="#96ffff" d="M17.2-26L4.5 45.9-17.2 42l12.7-71.9z"/><path fill="#fbcdab" d="M65.7 107.3l.6 17.1 40.1-20.6-3.1-55.9z"/><path fill="#00357e" d="M28 179l44 4L24 23z"/><ellipse fill="#6c0000" rx="1" ry="1" transform="rotate(-83.4 97.1 -43.5) scale(110.22085 14.14334)"/><ellipse fill="#001335" rx="1" ry="1" transform="matrix(-4.38975 -59.90372 11.7015 -.85749 79.7 20.9)"/><path fill="#3e9ee2" d="M69-3L54.9-7.7 31 139.9l32.3-87z"/><ellipse fill="#a6835e" rx="1" ry="1" transform="matrix(-8.76686 63.4934 -12.40378 -1.71265 106 23.2)"/><ellipse fill="#69b9f7" cx="229" cy="28" rx="77" ry="10"/><ellipse fill="#009bee" rx="1" ry="1" transform="matrix(55.38214 18.5306 -1.85136 5.53312 170.4 6.2)"/><ellipse fill="#570000" cx="226" cy="137" rx="98" ry="32"/><ellipse fill="#581e00" rx="1" ry="1" transform="rotate(-83.3 113 -127) scale(13.24518 51.84554)"/></g></svg>