<svg xmlns="http://www.w3.org/2000/svg" viewBox="0 0 700 467"><filter id="b"><feGaussianBlur stdDeviation="12" /></filter><path fill="#aba8a5" d="M0 0h700v464H0z"/><g filter="url(#b)" transform="translate(1.4 1.4) scale(2.73438)" fill-opacity=".5"><ellipse fill="#353834" rx="1" ry="1" transform="rotate(126.1 103 81.3) scale(22.3832 29.35426)"/><ellipse fill="#4d100c" cx="31" cy="70" rx="21" ry="23"/><ellipse fill="#d8e1e2" cx="187" cy="165" rx="93" ry="93"/><ellipse fill="#665134" cx="84" cy="106" rx="24" ry="26"/><ellipse fill="#cce6eb" rx="1" ry="1" transform="rotate(-47 185.3 25.7) scale(30.31995 105.5142)"/><ellipse rx="1" ry="1" transform="rotate(-121.5 46.3 79) scale(16.95553 7.25086)"/><ellipse fill="#523b36" cx="92" cy="41" rx="22" ry="19"/><ellipse fill="#7b6c67" rx="1" ry="1" transform="rotate(70.5 73.4 135.3) scale(30.19537 47.19869)"/><path d="M0 191l-20-31 20-13 20.2 31z"/><path fill="#000909" d="M258 72l-12 12 25 33z"/><ellipse fill="#f2b1a9" cx="129" cy="68" rx="22" ry="26"/><path fill="#7d3f16" d="M16.3 57L.3 36.3 9.7 29l16 20.5z"/><ellipse fill="#817166" cx="48" cy="41" rx="9" ry="53"/><ellipse fill="#eba291" cx="192" cy="93" rx="20" ry="26"/><ellipse fill="#c7c4b0" cx="71" cy="85" rx="16" ry="21"/><path fill="#bfbec2" d="M27.8 73.7l3-12.3L3.7 56l-5.4 10z"/><ellipse fill="#3d1716" rx="1" ry="1" transform="matrix(-4.87439 9.32232 -8.70586 -4.55206 38.1 77.5)"/><path fill="#292224" d="M205-16l-15 31-19-31z"/><path fill="#bac9cc" d="M101 91.4L-9.9 11.2 263 156.8 137.7 185z"/><path fill="#21241c" d="M232 35h9v34h-9z"/><path fill="#615344" d="M109.9 120.5L81.5 133l-11.4-25.6L98.5 95z"/><path fill="#ddc7bc" d="M29-13l102-3-3 45z"/></g></svg>