<svg xmlns="http://www.w3.org/2000/svg" viewBox="0 0 200 133"><filter id="b"><feGaussianBlur stdDeviation="12" /></filter><path fill="#756b73" d="M0 0h200v133H0z"/><g filter="url(#b)" transform="translate(.5 .5)" fill-opacity=".5"><ellipse fill="#fff" rx="1" ry="1" transform="matrix(-52.38504 3.59695 -1.0917 -15.89924 172.5 11.3)"/><ellipse fill="#fff" cx="17" cy="11" rx="52" ry="16"/><ellipse fill="#fffff1" rx="1" ry="1" transform="rotate(87.2 -21.7 86) scale(55.20264 10.64866)"/><ellipse fill="#23171c" rx="1" ry="1" transform="matrix(12.15249 -24.48103 68.81399 34.15956 131 68)"/><ellipse fill="#040615" rx="1" ry="1" transform="matrix(17.40094 -18.63506 34.35096 32.07605 8.4 62.2)"/><ellipse fill="#000002" rx="1" ry="1" transform="rotate(-7.4 566.4 -1460.1) scale(15.16913 32.50549)"/><path fill="#ffc5bc" d="M0 110h118v15H0z"/><ellipse fill="#783e45" cx="159" cy="132" rx="47" ry="47"/><path fill="#daf6ff" d="M154 5l-41-19 70 93z"/><ellipse fill="#f8dfff" cx="183" cy="10" rx="44" ry="16"/><path fill="#000013" d="M164.3 27.3l9 27 5-7.5L215 26.7z"/><path fill="#c5f0ff" d="M21.8 66.5l2.6 5.3L49 6.4 32.5-1z"/><path fill="#fff" d="M58 57h11v62H58z"/><ellipse fill="#fff5d5" cx="129" cy="50" rx="3" ry="16"/><path fill="#302229" d="M0 72h56v22H0z"/><ellipse fill="#84aeb1" cx="107" rx="27" ry="27"/><path fill="#ad7777" d="M142 92h47v31h-47z"/><path fill="#94bedc" d="M172.5 62.2L146.2 76l43-35.7 8.6 7.6z"/><ellipse fill="#0a0a12" cx="187" cy="80" rx="84" ry="8"/><path fill="#212335" d="M46 27l101-1-98 30z"/><path fill="#1a0e2d" d="M119 124h81v9h-81z"/><path fill="#d6dad4" d="M101 79l3-11-37 8z"/></g></svg>