<svg xmlns="http://www.w3.org/2000/svg" viewBox="0 0 700 467"><filter id="b"><feGaussianBlur stdDeviation="12" /></filter><path fill="#5e664c" d="M0 0h700v464H0z"/><g filter="url(#b)" transform="translate(1.4 1.4) scale(2.73438)" fill-opacity=".5"><ellipse fill="#fffdff" cx="6" cy="138" rx="37" ry="104"/><ellipse fill="#e1e0ff" rx="1" ry="1" transform="rotate(-117.8 127.5 38.3) scale(25.22624 68.10742)"/><ellipse fill="#000d00" cx="110" cy="117" rx="44" ry="44"/><path d="M100 20L-4-16l30 82z"/><ellipse fill="#ffffe4" rx="1" ry="1" transform="rotate(-148.5 42 26.4) scale(20.609 30.24137)"/><ellipse fill="#001600" cx="223" cy="41" rx="34" ry="81"/><ellipse fill="#fff" rx="1" ry="1" transform="matrix(6.2606 -22.72898 95.52018 26.31064 43.7 169)"/><ellipse fill="#fffec5" cx="131" cy="54" rx="25" ry="22"/><ellipse rx="1" ry="1" transform="matrix(-20.18077 -19.69133 16.62952 -17.04286 142.4 7.1)"/><ellipse fill="#e1d499" rx="1" ry="1" transform="matrix(16.07336 9.15982 -12.17229 21.35955 176.7 81.5)"/><ellipse rx="1" ry="1" transform="rotate(-69.8 30.5 -17.4) scale(20.6038 77.1542)"/><ellipse fill="#2d5400" rx="1" ry="1" transform="matrix(16.96685 24.88317 -20.5731 14.02798 61.5 123.6)"/><ellipse fill="#fff" rx="1" ry="1" transform="rotate(-45.8 63.1 23.5) scale(27.97319 9.88493)"/><ellipse fill="#293b00" rx="1" ry="1" transform="matrix(2.76165 31.56581 -66.27506 5.79832 219.4 27.1)"/><ellipse fill="#c7c895" rx="1" ry="1" transform="rotate(131.7 44 19.8) scale(17.42661 35.2185)"/><ellipse cx="96" cy="58" rx="9" ry="33"/><path fill="#122600" d="M84 74h66v69H84z"/><ellipse fill="#233500" cx="211" cy="107" rx="26" ry="26"/><ellipse fill="#5b585d" cx="21" cy="109" rx="31" ry="12"/><ellipse fill="#6c6fa9" rx="1" ry="1" transform="matrix(-25.83159 -12.84837 23.9161 -48.0832 249.4 143.3)"/><path fill="#bfb98a" d="M148 98h36v24h-36z"/><ellipse fill="#28402c" rx="1" ry="1" transform="matrix(-.94958 -5.3856 24.33777 -4.29117 18.6 70)"/></g></svg>