<svg xmlns="http://www.w3.org/2000/svg" viewBox="0 0 200 133"><filter id="b"><feGaussianBlur stdDeviation="12" /></filter><path fill="#0b1d07" d="M0 0h200v133H0z"/><g filter="url(#b)" transform="translate(.5 .5)" fill-opacity=".5"><ellipse fill="#faffdd" cx="125" cy="58" rx="15" ry="15"/><path fill="#79ea66" d="M136 43l-13.6-4-16 25 69-6.2z"/><ellipse fill="#56db15" rx="1" ry="1" transform="rotate(91.6 19.8 19.3) scale(10.66332 27.51861)"/><path fill="#f0ffeb" d="M115 55h21v14h-21z"/><ellipse fill="#e6f8f1" cx="82" cy="62" rx="5" ry="5"/><ellipse fill="#007400" cx="122" cy="79" rx="26" ry="11"/><path fill="#8a9fa2" d="M141.4 51l55 15.4 4.7 13.2L215 81z"/><path d="M101.7 170.6l-21.8-53.8 122.4-49.4 21.8 53.8z"/><ellipse cx="178" cy="23" rx="35" ry="35"/><ellipse fill="#54d12e" rx="1" ry="1" transform="matrix(-8.47583 -4.85415 8.13038 -14.19645 117.7 54)"/><path fill="#001b04" d="M139.7 86.3l31.8 28.9 17.8-41.7-52.7-23.8z"/><ellipse fill="#030300" rx="1" ry="1" transform="rotate(-112.4 40 46.4) scale(92.17274 68.35342)"/><path fill="#fff" d="M134 56l7 17-18-10z"/><ellipse fill="#58d247" rx="1" ry="1" transform="matrix(-1.44696 -1.54888 7.43554 -6.94624 111.1 5.5)"/><path fill="#fcfedb" d="M73.3 57.5L87.1 66l-3.6-4.4-17.2-8.8z"/><path fill="#e3ffe3" d="M135.8 69.6L124 36.1l12 17.2L117.3 68z"/><path fill="#00681a" d="M148.1 78.3l-13.9-44.7-2 9.6 7.1 31.6z"/><ellipse fill="#000800" rx="1" ry="1" transform="matrix(5.39539 -23.59437 32.56846 7.44752 78.2 27)"/><path fill="#008200" d="M126 71h15v22h-15z"/><path fill="#001000" d="M132.3 71.8l-18.6-4.2L28 61.3l65 17.6z"/><path fill="#001900" d="M59 19l36 55 58-72z"/><ellipse fill="#2e2b05" rx="1" ry="1" transform="matrix(16.92065 7.19142 -5.33693 12.55723 66.2 107.9)"/></g></svg>