<svg xmlns="http://www.w3.org/2000/svg" viewBox="0 0 200 133"><filter id="b"><feGaussianBlur stdDeviation="12" /></filter><path fill="#4c6678" d="M0 0h200v133H0z"/><g filter="url(#b)" transform="translate(.5 .5)" fill-opacity=".5"><ellipse fill="#eefffe" rx="1" ry="1" transform="matrix(35.6613 -19.76738 15.14192 27.31675 100.2 48.8)"/><ellipse rx="1" ry="1" transform="matrix(5.05686 -24.50077 72.00694 14.86194 163.7 81.5)"/><ellipse fill="#f8ffff" cx="82" cy="105" rx="15" ry="89"/><ellipse cx="19" cy="84" rx="23" ry="23"/><ellipse fill="#ffebff" rx="1" ry="1" transform="matrix(5.60086 13.7245 -35.39595 14.44482 129.4 128.4)"/><ellipse cx="105" cy="6" rx="122" ry="11"/><path fill="#f2ffff" d="M43 14h12v50H43z"/><path fill="#89c5dc" d="M180 43l-56 37 1-66z"/><path fill="#92ffff" d="M-7.4 7.2l19 .7-2.2 63-19-.8z"/><ellipse fill="#00639f" cx="185" cy="36" rx="30" ry="30"/><ellipse fill="#e2daf5" cx="60" cy="115" rx="40" ry="8"/><ellipse cx="141" cy="46" rx="3" ry="61"/><path fill="#6afdff" d="M22 18h12v45H22z"/><path fill="#e1fefc" d="M63 18h75v30H63z"/><ellipse cx="60" cy="14" rx="5" ry="100"/><ellipse cx="16" cy="39" rx="5" ry="68"/><ellipse cx="37" cy="38" rx="5" ry="68"/><path fill="#000f25" d="M115 113l4-31-52 25z"/><ellipse cx="172" cy="84" rx="26" ry="26"/><ellipse cx="161" cy="53" rx="5" ry="55"/><path fill="#50e7ff" d="M157.4 20l-14-29.3.1 52.4 9.3 18.2z"/><path fill="#121837" d="M123.9 44.9L101 46.3l-6.9 19.5 19.8 70.1z"/></g></svg>