<svg xmlns="http://www.w3.org/2000/svg" viewBox="0 0 700 467"><filter id="b"><feGaussianBlur stdDeviation="12" /></filter><path fill="#5a4163" d="M0 0h700v464H0z"/><g filter="url(#b)" transform="translate(1.4 1.4) scale(2.73438)" fill-opacity=".5"><ellipse rx="1" ry="1" transform="matrix(-44.74466 8.33546 -29.57598 -158.76345 244.6 61.6)"/><ellipse fill="#ffdeff" cx="123" cy="165" rx="95" ry="19"/><ellipse fill="#c6bc9f" cx="91" cy="84" rx="135" ry="21"/><ellipse fill="#6d10d9" cx="118" rx="64" ry="64"/><ellipse fill="#000015" rx="1" ry="1" transform="matrix(-41.41063 -5.30482 3.33291 -26.01746 25.2 31.2)"/><path fill="#c6e7e0" d="M77 62h40v74H77z"/><path d="M-32.1 125.8l104.8-5.5 1.4 26-104.8 5.4z"/><ellipse fill="#ffe1f3" rx="1" ry="1" transform="rotate(109.5 71.7 71.2) scale(28.40364 7.89007)"/><ellipse fill="#0f000b" cx="128" cy="98" rx="18" ry="18"/><ellipse rx="1" ry="1" transform="matrix(18.0161 -3.2326 25.6277 142.82984 233.6 48)"/><ellipse rx="1" ry="1" transform="rotate(-173.9 25.3 39) scale(5.52466 35.19708)"/><path fill="#0e0900" d="M124 119h132v26H124z"/><ellipse fill="#00003c" cx="111" cy="51" rx="43" ry="13"/><path d="M14.7 101.7l-1 32.5 16.2-48.7-2.2-55.9z"/><path fill="#ffdaac" d="M218 56.5l7 49.5-11 1.5-7-49.5z"/><ellipse fill="#f93aff" cx="84" cy="21" rx="24" ry="10"/><ellipse fill="#ffffd7" cx="57" cy="76" rx="7" ry="26"/><ellipse fill="#ebbbff" rx="1" ry="1" transform="matrix(-105.40921 -9.40752 .43543 -4.87886 46.9 159.5)"/><path fill="#000004" d="M46.2 28.6L-3-16l-1 153.3 14.8-85z"/><path d="M165 52h8v62h-8z"/><path fill="#000002" d="M65 51h7v54h-7z"/><path fill="#000007" d="M124 101h12v59h-12z"/></g></svg>