<svg xmlns="http://www.w3.org/2000/svg" viewBox="0 0 200 133"><filter id="b"><feGaussianBlur stdDeviation="12" /></filter><path fill="#635b51" d="M0 0h200v133H0z"/><g filter="url(#b)" transform="translate(.5 .5)" fill-opacity=".5"><path fill="#fff" d="M-28.7 63.8l1.5-44 126 4.4-1.6 44z"/><ellipse cx="132" cy="132" rx="73" ry="73"/><ellipse fill="#fff" cx="8" cy="71" rx="22" ry="35"/><ellipse rx="1" ry="1" transform="rotate(-85.3 79.1 25) scale(44.77016 17.90918)"/><path fill="#fff1e4" d="M108.5 84.2L96.5 99l-31-25.2 12-14.8z"/><ellipse fill="#bb9965" rx="1" ry="1" transform="matrix(8.43403 -41.57045 58.37771 11.84397 133 13.7)"/><path d="M163 51h37v27h-37z"/><path fill="#fff" d="M0 23h54v22H0z"/><ellipse cx="14" cy="129" rx="25" ry="25"/><ellipse fill="#ffe" cx="149" cy="59" rx="9" ry="9"/><path fill="#2f1a00" d="M9.3 22.1L-16 3.6 115.3-16l-13 29z"/><path fill="#e9f4d7" d="M208.9 28L160 20.4l11.5-24.8-7 7z"/><path fill="#050206" d="M95 54h25v26H95z"/><ellipse fill="#0c0c11" rx="1" ry="1" transform="matrix(.4941 27.9597 -118.67723 2.09727 149.2 121.3)"/><ellipse fill="#fff" rx="1" ry="1" transform="matrix(9.86013 -1.13267 .63199 5.5016 20.2 99)"/><path fill="#ffffb7" d="M120.4 14.5l-4 17.5-10.8-2.5 4-17.5z"/><path fill="#abb8c0" d="M94.6 72.4l-26.9 11-6.3-15.8 26.9-11z"/><ellipse fill="#ffecc2" cx="103" cy="86" rx="7" ry="7"/><path fill="#2b2520" d="M31.2 55.4L15.4 35.5l25.8 21 87 86.6z"/><path fill="#fff" d="M166 36h5v15h-5z"/><path fill="#40320e" d="M140 10h18v21h-18z"/><path fill="#f1f4ff" d="M192 78h8v13h-8z"/></g></svg>