<svg xmlns="http://www.w3.org/2000/svg" viewBox="0 0 700 467"><filter id="b"><feGaussianBlur stdDeviation="12" /></filter><path fill="#47474c" d="M0 0h700v464H0z"/><g filter="url(#b)" transform="translate(1.4 1.4) scale(2.73438)" fill-opacity=".5"><ellipse fill="#f1f0ee" rx="1" ry="1" transform="matrix(47.4074 -55.98452 13.00032 11.0086 144.7 29)"/><ellipse fill="#fff" cx="41" cy="5" rx="47" ry="16"/><ellipse cx="214" cy="112" rx="62" ry="62"/><ellipse fill="#b6bee0" rx="1" ry="1" transform="matrix(7.38243 -25.936 19.25667 5.48122 128 159.9)"/><ellipse fill="#fff" rx="1" ry="1" transform="matrix(.2725 24.87885 -11.92083 .13057 212 0)"/><ellipse fill="#f7ffff" cx="152" cy="6" rx="24" ry="29"/><ellipse fill="#f7cfb5" cx="102" cy="44" rx="15" ry="15"/><ellipse fill="#1a2633" rx="1" ry="1" transform="rotate(-64.3 120 -89.9) scale(17.75288 32.011)"/><path fill="#dbcdc8" d="M177 85h31v13h-31z"/><ellipse fill="#f3fef5" rx="1" ry="1" transform="matrix(-14.16085 .94056 -1.0416 -15.68199 0 27.6)"/><ellipse fill="#1b1206" rx="1" ry="1" transform="matrix(-7.19542 18.4056 -31.67004 -12.38097 44 34.8)"/><ellipse fill="#000403" rx="1" ry="1" transform="rotate(157.4 -9.1 69) scale(19.8852 99.69065)"/><ellipse fill="#050500" cx="73" cy="70" rx="16" ry="49"/><ellipse cx="228" cy="150" rx="55" ry="24"/><ellipse fill="#667082" rx="1" ry="1" transform="matrix(67.87487 61.66653 -12.01989 13.23 83 141.3)"/><ellipse fill="#7889a3" rx="1" ry="1" transform="matrix(-9.07563 2.69315 -13.10408 -44.15934 255 74.8)"/><path fill="#d7d1c7" d="M87 11L42 31 13-16z"/><ellipse fill="#dcae9b" rx="1" ry="1" transform="rotate(-179.1 58.7 38.1) scale(13.07121 15.56527)"/><ellipse fill="#070300" cx="243" cy="13" rx="21" ry="21"/><ellipse fill="#1f1f1c" cx="86" cy="98" rx="23" ry="25"/><ellipse fill="#001b66" rx="1" ry="1" transform="rotate(85.7 75 129.9) scale(16.62424 27.9747)"/><ellipse fill="#593829" cx="41" cy="20" rx="13" ry="13"/></g></svg>