<svg xmlns="http://www.w3.org/2000/svg" viewBox="0 0 200 133"><filter id="b"><feGaussianBlur stdDeviation="12" /></filter><path fill="#8e8470" d="M0 0h200v133H0z"/><g filter="url(#b)" transform="translate(.5 .5)" fill-opacity=".5"><ellipse fill="#2d1100" cx="154" cy="119" rx="50" ry="50"/><ellipse fill="#c8ded6" cx="122" cy="17" rx="199" ry="41"/><ellipse fill="#813800" cx="63" cy="119" rx="90" ry="28"/><ellipse fill="#f9ffff" rx="1" ry="1" transform="matrix(-11.60322 -51.08941 15.77908 -3.58368 191 28.9)"/><path fill="#fcffff" d="M12 51l47 4-10 37z"/><path fill="#112026" d="M0 72h39v39H0z"/><ellipse fill="#6d5344" rx="1" ry="1" transform="matrix(13.84938 -24.75975 49.96395 27.94736 115.8 84.6)"/><ellipse fill="#da5700" rx="1" ry="1" transform="matrix(-11.77798 28.63553 -26.09339 -10.73238 84.3 130)"/><ellipse fill="#ad8c6e" cx="158" cy="68" rx="13" ry="49"/><path d="M99 52l23-21h-20z"/><ellipse fill="#111516" rx="1" ry="1" transform="rotate(142.6 73.5 88.2) scale(20.4534 27.96621)"/><ellipse fill="#d07800" cx="111" cy="92" rx="14" ry="20"/><path d="M142 108.6l-18.8-2.3 2.8-22.9 18.8 2.3z"/><path fill="#aee2ff" d="M53 111l-4-42-14 15z"/><path fill="red" d="M97.2 99l.6 17-27 1-.6-17z"/><ellipse fill="#fcffff" cx="18" cy="54" rx="3" ry="30"/><path fill="#ffe0c9" d="M163.2 106.9l-9 4.2-9.4-20 9-4.2z"/><path fill="#151c1d" d="M124.6 63.2L99.2 88.6l-7.8-7.8 25.4-25.4z"/><path fill="#e9c2cd" d="M19 120l-3 28-32-17z"/><path fill="#353749" d="M106.9 93l-36.2-1.8 12.2-40.3L29 114.3z"/><path fill="#d8ebeb" d="M-12 86l-4-33 30 52z"/><ellipse fill="#7ec8e0" rx="1" ry="1" transform="rotate(66 35.1 77) scale(27.79597 12.99359)"/></g></svg>