<svg xmlns="http://www.w3.org/2000/svg" viewBox="0 0 200 133"><filter id="b"><feGaussianBlur stdDeviation="12" /></filter><path fill="#3e3024" d="M0 0h200v133H0z"/><g filter="url(#b)" transform="translate(.5 .5)" fill-opacity=".5"><ellipse fill="#ffddb5" rx="1" ry="1" transform="matrix(-14.0789 -.46705 1.49102 -44.94617 52 50.9)"/><ellipse fill="#000002" cx="143" cy="115" rx="48" ry="48"/><path fill="#fed4c3" d="M86 89.8l13.4-30.1 14.6 6.5-13.4 30.1z"/><ellipse fill="#060403" cx="16" cy="86" rx="24" ry="99"/><path fill="#ffe1b8" d="M154 46l30-8-36-11z"/><ellipse fill="#9a6616" rx="1" ry="1" transform="matrix(-2.22193 -43.42554 17.78513 -.91 199 43.4)"/><path fill="#fff" d="M122 68l-10 8-19-8z"/><path fill="#f1d5be" d="M61 50l-27.2-6.7L39 21.9l27.1 6.8z"/><path fill="#080000" d="M74 47h21v36H74z"/><ellipse fill="#000812" cx="71" cy="132" rx="27" ry="27"/><path fill="#fff" d="M45.4-16L104-5.8 64.7.4l-6.2 5.2z"/><ellipse fill="#1e1b22" rx="1" ry="1" transform="matrix(1.60377 -4.54346 19.93996 7.0385 64 79.8)"/><path fill="#97601d" d="M150.2 49.2l12.2 1.1 52.6-24-40.6 1z"/><ellipse fill="#faf2f0" rx="1" ry="1" transform="matrix(2.46976 3.48027 -6.6809 4.74107 159.1 37)"/><path fill="#fffbc6" d="M73 11.4l-25.6 4.1-.5-3 25.7-4z"/><path fill="#15120f" d="M140.2 148l50.2-90.6-88.7 20.5-8.3 27z"/><path fill="#e2b3ad" d="M82.3 93.3L90 80.6l16.7 5.4-23.4 10.5z"/><ellipse fill="#3b100a" rx="1" ry="1" transform="matrix(2.3581 9.9755 -26.31539 6.2207 85.6 49.2)"/><path fill="#ffd7b6" d="M118 76l-24-5 2-14z"/><ellipse fill="#643a22" cx="79" cy="24" rx="16" ry="26"/><path fill="#b89272" d="M68 68l-8 18-14-51z"/><ellipse fill="#0a0a0a" rx="1" ry="1" transform="rotate(27 -183.3 95.2) scale(35.79913 16.31019)"/></g></svg>