<svg xmlns="http://www.w3.org/2000/svg" viewBox="0 0 200 133"><filter id="b"><feGaussianBlur stdDeviation="12" /></filter><path fill="#535355" d="M0 0h200v133H0z"/><g filter="url(#b)" transform="translate(.5 .5)" fill-opacity=".5"><ellipse fill="#f9fbf6" cx="144" rx="62" ry="49"/><ellipse rx="1" ry="1" transform="rotate(84.9 19 136.6) scale(43.08832 198.36124)"/><ellipse fill="#efe7d5" rx="1" ry="1" transform="rotate(-39.4 14.4 -31) scale(199 37.27185)"/><ellipse fill="#63554e" rx="1" ry="1" transform="matrix(-21.2186 77.2221 -17.23304 -4.73519 83.8 85.8)"/><path fill="#ffffcf" d="M130 54h6v43h-6z"/><ellipse fill="#000017" rx="1" ry="1" transform="matrix(-23.507 46.3921 -33.91291 -17.18376 177.2 97.5)"/><ellipse fill="#00000f" rx="1" ry="1" transform="matrix(12.74205 8.69204 -24.69972 36.20843 6.6 94.7)"/><ellipse fill="#fff" cx="86" cy="2" rx="100" ry="3"/><path fill="#3f371e" d="M46 10h62v36H46z"/><ellipse fill="#aa9689" rx="1" ry="1" transform="matrix(5.53975 6.26708 -39.68617 35.08037 120 48.1)"/><path fill="#b29e98" d="M-16 42l63 1 2 26z"/><ellipse fill="#96938d" cx="86" cy="13" rx="37" ry="9"/><ellipse fill="#edffff" cx="185" cy="24" rx="5" ry="20"/><path fill="#f3feff" d="M124 0h38v14h-38z"/><path fill="#825f3a" d="M130 28h35v18h-35z"/><path fill="#f2cbc2" d="M76.7 60.4l-15-1.9 1.6-12.9 15 1.9z"/><ellipse cx="40" cy="127" rx="22" ry="22"/><ellipse fill="#00000a" cx="121" cy="114" rx="13" ry="41"/><path fill="#000004" d="M101.6 71l-.1-30.2.8-5.5-16.4 22z"/><path fill="#e0f0ff" d="M35 58h2v58h-2z"/><ellipse fill="#05040f" cx="78" cy="11" rx="44" ry="2"/><path fill="#fff" d="M100.7 33.8l28.3 7.3-5.6-16L103.6 36z"/></g></svg>