<svg xmlns="http://www.w3.org/2000/svg" viewBox="0 0 700 467"><filter id="b"><feGaussianBlur stdDeviation="12" /></filter><path fill="#363635" d="M0 0h700v464H0z"/><g filter="url(#b)" transform="translate(1.4 1.4) scale(2.73438)" fill-opacity=".5"><ellipse fill="#94918b" cx="120" cy="8" rx="71" ry="71"/><ellipse fill="#000100" cx="78" cy="169" rx="82" ry="82"/><path fill="#dff5ff" d="M154 0h28v37h-28z"/><ellipse cx="209" cy="153" rx="66" ry="66"/><ellipse fill="#ac9589" cx="219" cy="34" rx="13" ry="42"/><ellipse fill="#7a6450" cx="116" cy="72" rx="30" ry="27"/><path fill="#34322d" d="M151.1 67.3L109.2 77 95 14.7 136.8 5z"/><path fill="#fbe585" d="M159 109l-21 21 26-47z"/><ellipse fill="#6f7882" cx="29" cy="3" rx="27" ry="27"/><path fill="#a2aec2" d="M252.8 44.1l-38.1 28.2 30.5-38 4.8 11z"/><ellipse cx="2" cy="41" rx="21" ry="21"/><path fill="#000001" d="M74 64l-7-43-15 13z"/><ellipse fill="#7b9094" cx="175" cy="5" rx="35" ry="12"/><path fill="#8d7e6f" d="M38 58l46 45-11 16z"/><path fill="#fff" d="M150 31.4l-1-13 27-1.8 1 13z"/><path fill="#f5ffff" d="M97 88l-1-11 15-7z"/><ellipse rx="1" ry="1" transform="matrix(7.80809 .0954 -.7665 62.73562 3.7 85.7)"/><path d="M140.8 19.9l11.7-11 4.7 5.2-11.7 11z"/><ellipse fill="#6f6a5f" cx="50" cy="54" rx="9" ry="50"/><path fill="#b27d5b" d="M150.4 60.5l16.3-10.2-6-20.3-28.9 9.5z"/><path fill="#4e3e33" d="M222.4 62.9l-33.2-40.4-14.9 55.8 29.9 49z"/><path fill="#e5b491" d="M88.3 43.4l12 1.3-2.6 23.9-12-1.3z"/></g></svg>