<svg xmlns="http://www.w3.org/2000/svg" viewBox="0 0 200 133"><filter id="b"><feGaussianBlur stdDeviation="12" /></filter><path fill="#5e3b3a" d="M0 0h200v133H0z"/><g filter="url(#b)" transform="translate(.5 .5)" fill-opacity=".5"><ellipse fill="#ac828d" rx="1" ry="1" transform="matrix(-2.6313 -41.25542 67.84439 -4.32717 105.5 77.9)"/><ellipse cx="187" cy="30" rx="20" ry="67"/><ellipse rx="1" ry="1" transform="matrix(-13.78449 .07709 -.38213 -68.3314 12 27.4)"/><ellipse fill="#0c0000" rx="1" ry="1" transform="matrix(-.02146 12.29558 -155.63721 -.27164 102.3 131.1)"/><path fill="#00b8ff" d="M136 36h24v20h-24z"/><path fill="#b1b7d9" d="M56 41h65v18H56z"/><ellipse fill="#060000" rx="1" ry="1" transform="matrix(-50.70094 -6.5849 1.48507 -11.43439 101.6 21.6)"/><path fill="#0f0000" d="M75 38h12v28H75z"/><path fill="#d69b85" d="M30.4 96.3l-5.3-13.5-4.3-30 18.6-40.1z"/><path fill="#772f26" d="M126 55h33v64h-33z"/><ellipse fill="#d89878" rx="1" ry="1" transform="rotate(80.2 53.2 119.8) scale(43.59789 6.37327)"/><ellipse fill="#1b100f" cx="130" cy="32" rx="8" ry="39"/><path fill="#190f17" d="M91.5 104.8l.7-27-23 23.6 1 4z"/><path fill="#c29182" d="M84.6 68.2l-35.4 50.6-10-4.8-7.8-17.1z"/><ellipse fill="#150000" rx="1" ry="1" transform="matrix(11.53845 6.44181 -13.85267 24.81265 11.1 125.6)"/><path fill="#ff0af1" d="M92 36h27v6H92z"/><path fill="#fffcf7" d="M23 74h5v19h-5z"/><ellipse fill="#94caf2" cx="65" cy="41" rx="11" ry="6"/><ellipse fill="#c77b55" cx="39" cy="15" rx="6" ry="34"/><ellipse fill="#180300" cx="7" cy="8" rx="25" ry="59"/><path d="M161 100h15v17h-15z"/><ellipse fill="#070000" rx="1" ry="1" transform="matrix(18.63345 .57491 -1.8523 60.03467 199 14.2)"/></g></svg>