<svg xmlns="http://www.w3.org/2000/svg" viewBox="0 0 700 467"><filter id="b"><feGaussianBlur stdDeviation="12" /></filter><path fill="#695a74" d="M0 0h700v464H0z"/><g filter="url(#b)" transform="translate(1.4 1.4) scale(2.73438)" fill-opacity=".5"><ellipse fill="#fbfacc" rx="1" ry="1" transform="matrix(24.23983 45.47093 -22.95047 12.23453 196 158)"/><ellipse rx="1" ry="1" transform="matrix(5.53531 -16.5379 68.21857 22.83307 71.8 13)"/><ellipse fill="#05003d" cx="223" cy="62" rx="119" ry="26"/><ellipse fill="#fff" rx="1" ry="1" transform="matrix(20.08086 6.2039 -4.89592 15.8472 88 47.7)"/><ellipse fill="#ffffea" cx="114" cy="117" rx="16" ry="27"/><ellipse fill="#798ff1" cx="13" cy="51" rx="22" ry="102"/><ellipse rx="1" ry="1" transform="rotate(-174.2 27.2 17.9) scale(14.08025 34.12824)"/><ellipse fill="#c6c08a" rx="1" ry="1" transform="matrix(58.48394 13.50485 -7.66375 33.18854 0 114.9)"/><path fill="#e3ddcc" d="M54 138h44v32H54z"/><ellipse rx="1" ry="1" transform="matrix(-27.90075 -60.43203 5.73541 -2.64797 104 153.3)"/><path fill="#ffd" d="M168 148l9 37-68-31z"/><path d="M171.2 147.5l-4.7-12.2L152 109l-27.6 41.6z"/><ellipse fill="#900100" rx="1" ry="1" transform="rotate(146.5 -13.7 88) scale(33.20839 18.70895)"/><path fill="#dbdee2" d="M125 93h47v16h-47z"/><path fill="#180000" d="M235.5 109.3l-21 61 56.5-69.4v16z"/><path fill="#fff" d="M67 36h35v24H67z"/><path fill="#060c00" d="M56 108h39v30H56z"/><ellipse fill="#3647ee" cx="3" cy="49" rx="37" ry="37"/><path fill="#feffff" d="M169 124h39v23h-39z"/><ellipse fill="#3b308b" rx="1" ry="1" transform="rotate(-148.7 70.7 17.9) scale(22.27471 41.53453)"/><ellipse fill="#823cb4" rx="1" ry="1" transform="rotate(-74 110 -108.7) scale(25.41849 38.99318)"/><path d="M35.6 114.5l2.4 9.7-13.6 3.3-2.4-9.7z"/></g></svg>