<svg xmlns="http://www.w3.org/2000/svg" viewBox="0 0 200 133"><filter id="b"><feGaussianBlur stdDeviation="12" /></filter><path fill="#726b87" d="M0 0h200v133H0z"/><g filter="url(#b)" transform="translate(.5 .5)" fill-opacity=".5"><ellipse fill="#fff" rx="1" ry="1" transform="matrix(-26.9726 24.52109 -26.60056 -29.25998 29.6 28.7)"/><path fill="#0b000e" d="M148-1.1l82.6-7.3L242 123.1l-82.7 7.3z"/><ellipse fill="#000026" cx="31" cy="89" rx="28" ry="28"/><ellipse fill="#fff" cx="20" cy="17" rx="44" ry="44"/><ellipse fill="#ffdaed" rx="1" ry="1" transform="matrix(-51.27163 17.59325 -3.43558 -10.01223 128.6 120.4)"/><ellipse fill="#19153f" rx="1" ry="1" transform="rotate(-13.8 311.2 -330.5) scale(20.77786 53.04237)"/><ellipse fill="#ffffd3" cx="117" cy="95" rx="8" ry="37"/><ellipse fill="#d9b2e3" rx="1" ry="1" transform="rotate(171 18 64.4) scale(55.87965 14.24389)"/><path fill="#fff" d="M55-2l11 66-82-9z"/><ellipse fill="#0f1238" rx="1" ry="1" transform="matrix(-23.94023 -9.32528 7.15544 -18.36972 0 96.7)"/><path fill="#2c1f24" d="M126 81h25v23h-25z"/><ellipse fill="#82b4df" cx="91" cy="4" rx="30" ry="12"/><ellipse fill="#3e78c2" rx="1" ry="1" transform="rotate(173.1 2 9.8) scale(21.74561 5.65085)"/><path fill="#565ca1" d="M62 9h19v67H62z"/><path fill="#2e2237" d="M71 53h37v56H71z"/><path fill="#180807" d="M215 99l-49 11-30 33z"/><path fill="#1e1b3f" d="M111.2 29.1l15-.2.6 30-15 .2z"/><path fill="#1b0c2c" d="M152 0h48v36h-48z"/><ellipse fill="#263784" cx="9" cy="68" rx="51" ry="8"/><ellipse fill="#7197ce" cx="139" cy="20" rx="10" ry="37"/><path fill="#0d0000" d="M207 148l-2.7-30.3L215 112l-39 .8z"/><path fill="#000018" d="M131 27.7l-3.9.4-4.2-39.8 4-.4z"/></g></svg>