<svg xmlns="http://www.w3.org/2000/svg" viewBox="0 0 200 133"><filter id="b"><feGaussianBlur stdDeviation="12" /></filter><path fill="#624040" d="M0 0h200v133H0z"/><g filter="url(#b)" transform="translate(.5 .5)" fill-opacity=".5"><ellipse fill="#fff2ef" cx="111" cy="123" rx="35" ry="39"/><ellipse fill="#abbad6" cx="195" cy="89" rx="28" ry="29"/><ellipse fill="#1b0000" cx="92" cy="9" rx="152" ry="31"/><path fill="#eaac7f" d="M130.4 59.4L112 89 85.6 72.6 104 43z"/><ellipse fill="#0a0015" rx="1" ry="1" transform="matrix(12.9015 .55479 -3.81263 88.662 155.6 131)"/><path fill="#ba7259" d="M179.3 19.1l30.5 36.6-44.1 25 3.1-64z"/><ellipse fill="#441710" rx="1" ry="1" transform="matrix(20.36789 34.1363 -32.07152 19.1359 44 43.5)"/><ellipse fill="#430001" rx="1" ry="1" transform="matrix(-24.47744 -44.3018 20.25775 -11.19272 9.4 132)"/><ellipse fill="#708181" cx="64" cy="97" rx="14" ry="22"/><path fill="#510600" d="M76 126h27v7H76z"/><ellipse fill="#040015" cx="143" cy="80" rx="21" ry="13"/><path fill="#630003" d="M90 65l-31 6 50 28z"/><ellipse fill="#d9cdc9" cx="118" cy="113" rx="11" ry="32"/><ellipse fill="#ffae85" cy="56" rx="7" ry="13"/><path fill="#00172c" d="M155.9 135.5l40.7-23.5 9.5 16.5-40.7 23.5z"/><path fill="#e58661" d="M147.8 67.4l-10.6-22.6 9-4.2 10.6 22.6z"/><ellipse fill="#baa4ad" rx="1" ry="1" transform="rotate(39 -112.4 177.3) scale(6.42751 24.97231)"/><path fill="#b18371" d="M112 90l1-57-33 29z"/><path fill="#c3bdd6" d="M159.3 94.8l.4 8-9 .4-.4-8z"/><path fill="#755d5f" d="M43 49l20-13L52 5z"/><path fill="#030809" d="M177.2 48.2l-25.8 1.4-3-30 23.3 27.9z"/><path fill="#813f2c" d="M91.3 115.3l13.9-31 5.5 2.4-13.9 31z"/></g></svg>