<svg xmlns="http://www.w3.org/2000/svg" viewBox="0 0 700 467"><filter id="b"><feGaussianBlur stdDeviation="12" /></filter><path fill="#695a74" d="M0 0h700v464H0z"/><g filter="url(#b)" transform="translate(1.4 1.4) scale(2.73438)" fill-opacity=".5"><path fill="#ffffe6" d="M173.3 114.7l44.3 12.7-15 51.9-44.2-12.7z"/><ellipse cx="52" cy="24" rx="16" ry="50"/><ellipse fill="#fff" cx="85" cy="50" rx="21" ry="16"/><ellipse fill="#09004f" cx="206" cy="58" rx="102" ry="30"/><ellipse rx="1" ry="1" transform="rotate(-68 57.5 -58.3) scale(17.05033 47.26465)"/><ellipse fill="#feffe8" cx="114" cy="115" rx="17" ry="26"/><ellipse fill="#405cff" cy="42" rx="42" ry="42"/><ellipse fill="#cbd2a9" cx="18" cy="119" rx="39" ry="33"/><ellipse fill="#e9e1d0" cx="76" cy="164" rx="24" ry="27"/><ellipse cx="145" cy="139" rx="23" ry="12"/><ellipse fill="#dcddbb" rx="1" ry="1" transform="rotate(-87 156.3 3.6) scale(9.97568 34.93288)"/><path fill="#210503" d="M221.4 140.7l49.6-12.1-74.6-61.8L271 24.5z"/><ellipse fill="#950c00" cx="27" cy="163" rx="26" ry="19"/><path d="M95.3 106.4l-1.7 33-35-1.8 1.8-33z"/><ellipse fill="#8f4ab8" rx="1" ry="1" transform="matrix(-11.85502 23.24045 -51.27034 -26.15316 170.2 16.3)"/><path fill="#fff" d="M67 38h38v19H67z"/><path fill="#cac9bf" d="M125 93h74v17h-74z"/><path d="M93 128.9l7.7-2.1L113 173l-7.8 2.1z"/><ellipse fill="#fcfff5" rx="1" ry="1" transform="matrix(-3.35604 9.26736 -32.48333 -11.76336 189.4 133)"/><path fill="#32335e" d="M115.6 61.3l22.3 23-29.5 28.4-22.3-23z"/><ellipse cx="47" cy="35" rx="9" ry="57"/><path fill="#7654ff" d="M122 44h13v37h-13z"/></g></svg>