<svg xmlns="http://www.w3.org/2000/svg" viewBox="0 0 700 467"><filter id="b"><feGaussianBlur stdDeviation="12" /></filter><path fill="#a1867d" d="M0 0h700v464H0z"/><g filter="url(#b)" transform="translate(1.4 1.4) scale(2.73438)" fill-opacity=".5"><ellipse rx="1" ry="1" transform="matrix(-27.65598 22.4079 -24.18711 -29.85189 161.8 97.6)"/><ellipse fill="#fffed8" cx="112" rx="72" ry="72"/><ellipse fill="#780000" cx="61" cy="86" rx="25" ry="42"/><ellipse fill="#fffedf" rx="1" ry="1" transform="matrix(6.93903 34.76667 -95.0247 18.96583 12.2 22.3)"/><ellipse fill="#24092d" rx="1" ry="1" transform="matrix(-35.00122 96.91874 -24.9583 -9.01344 255 115.8)"/><ellipse fill="#f7ffff" rx="1" ry="1" transform="matrix(18.95174 3.37582 -4.59985 25.82339 215 92)"/><ellipse fill="#4f1000" cx="204" cy="18" rx="20" ry="20"/><ellipse fill="#d4e3ff" rx="1" ry="1" transform="matrix(-6.59706 -24.62055 20.68415 -5.5423 23.9 126.3)"/><path fill="#764e2b" d="M65 148l125-38 13 53z"/><path fill="#fdffff" d="M86 69h27v33H86z"/><ellipse rx="1" ry="1" transform="matrix(5.35415 33.23724 -12.8795 2.07475 147.2 92.6)"/><ellipse rx="1" ry="1" transform="matrix(-10.27884 .34098 -.63547 -19.15608 47.5 93.2)"/><path fill="#ed0000" d="M65 63h19v64H65z"/><ellipse rx="1" ry="1" transform="rotate(-79.8 180.7 -103) scale(29.27209 7.06817)"/><path fill="#99c3e2" d="M169.6 53.7l7.9 1.3-9 57.3-8-1.3z"/><ellipse fill="#b57759" cx="133" cy="52" rx="49" ry="11"/><ellipse fill="#eecb9b" cx="7" cy="80" rx="31" ry="30"/><ellipse fill="#fff5e1" rx="1" ry="1" transform="matrix(17.63129 -5.55912 5.64869 17.91534 165 32.5)"/><ellipse fill="#3a4469" rx="1" ry="1" transform="rotate(76.1 -25 134.1) scale(28.47004 15.49425)"/><ellipse fill="#b47759" cx="57" cy="55" rx="23" ry="23"/><path fill="#c5c0d3" d="M68 139.4l1.8 14.9L45 130.9l16.8-31z"/><ellipse fill="#be34ce" rx="1" ry="1" transform="rotate(-168 123 32.5) scale(6.79803 33.41805)"/></g></svg>