<svg xmlns="http://www.w3.org/2000/svg" viewBox="0 0 700 467"><filter id="b"><feGaussianBlur stdDeviation="12" /></filter><path fill="#8f8f8b" d="M0 0h700v464H0z"/><g filter="url(#b)" transform="translate(1.4 1.4) scale(2.73438)" fill-opacity=".5"><ellipse fill="#fff" cx="177" cy="11" rx="131" ry="62"/><ellipse fill="#1b130c" cx="171" cy="120" rx="248" ry="28"/><ellipse fill="azure" cx="144" rx="76" ry="76"/><ellipse fill="#452b0a" rx="1" ry="1" transform="matrix(-52.76096 -35.07098 9.78273 -14.7172 27.7 31.4)"/><ellipse fill="#817f62" rx="1" ry="1" transform="matrix(-1.49468 -54.2571 25.4036 -.69982 17.2 128)"/><ellipse fill="#faffff" rx="1" ry="1" transform="matrix(3.5322 -12.8031 43.16943 11.90988 57 7.8)"/><ellipse fill="#d1e0eb" cx="205" cy="71" rx="26" ry="26"/><ellipse fill="#535f5c" rx="1" ry="1" transform="matrix(5.98727 -90.14263 38.77374 2.57535 254.9 135.8)"/><ellipse fill="#890e00" rx="1" ry="1" transform="rotate(-64.2 102 -.5) scale(31.49095 9.97599)"/><ellipse fill="#17190c" cx="109" cy="129" rx="74" ry="15"/><ellipse fill="#e6e1bc" rx="1" ry="1" transform="rotate(-77.4 54.3 18.5) scale(14.39469 27.39482)"/><ellipse fill="#746044" rx="1" ry="1" transform="rotate(45 -11.2 252.6) scale(21.73607 14.19394)"/><ellipse fill="#e1f1ff" cx="194" cy="18" rx="144" ry="38"/><ellipse fill="#7e7968" rx="1" ry="1" transform="matrix(-.52581 24.95725 -32.64237 -.68772 96.4 73.8)"/><path fill="#dfbb1f" d="M92.3 127.5l14.3-15.3 13.1 12.3-14.3 15.3z"/><path fill="#a8b0af" d="M217.2 107l23 1.1-1.4 27-23-1.2z"/><path fill="#110d00" d="M231 81h25v16h-25z"/><path fill="#33240f" d="M-9.4-16l40.7 72L-16 42l39.8-26z"/><path fill="#73a9d7" d="M181.5 139.5l1.2-19 16.2-33 3.3 37.2z"/><path fill="#fc1518" d="M42 87h18v23H42z"/><ellipse fill="#7d7c69" cx="15" cy="112" rx="30" ry="41"/><ellipse fill="#000003" cx="50" cy="131" rx="8" ry="19"/></g></svg>