<svg xmlns="http://www.w3.org/2000/svg" viewBox="0 0 700 467"><filter id="b"><feGaussianBlur stdDeviation="12" /></filter><path fill="#65686b" d="M0 0h700v464H0z"/><g filter="url(#b)" transform="translate(1.4 1.4) scale(2.73438)" fill-opacity=".5"><ellipse fill="#fff" cx="163" cy="3" rx="238" ry="54"/><ellipse cx="95" cy="99" rx="226" ry="38"/><ellipse cx="171" cy="144" rx="27" ry="47"/><ellipse fill="#fff" rx="1" ry="1" transform="matrix(.59419 20.85796 -74.47538 2.1216 87 12.9)"/><ellipse fill="#ffe" rx="1" ry="1" transform="matrix(22.44853 16.27855 -34.14598 47.08819 227 14.2)"/><ellipse fill="#151a19" cx="1" cy="44" rx="14" ry="49"/><ellipse rx="1" ry="1" transform="matrix(-4.93838 -28.59018 9.60858 -1.6597 244.3 154.7)"/><ellipse fill="#f1f7fa" rx="1" ry="1" transform="matrix(19.6129 18.56343 -24.95151 26.36214 46.1 25.6)"/><path fill="#06080f" d="M153 112L87 33 9 121z"/><ellipse fill="#8d949c" rx="1" ry="1" transform="matrix(16.52958 7.4201 -9.15158 20.38677 217.5 124.9)"/><ellipse rx="1" ry="1" transform="matrix(-19.40457 -7.13532 22.12306 -60.16382 170.5 157)"/><ellipse fill="#717f93" cx="114" cy="146" rx="34" ry="24"/><ellipse fill="#fff" cx="112" cy="11" rx="87" ry="16"/><path fill="#000006" d="M238.5 52.5l-47.1 36.2 22.4 25.2 31.5-35.7z"/><ellipse fill="#3f2528" cx="246" cy="46" rx="7" ry="12"/><ellipse fill="#2a374a" rx="1" ry="1" transform="matrix(-1.86212 -28.98356 48.4507 -3.11284 4.8 142.4)"/><ellipse fill="#04050a" cx="14" cy="92" rx="132" ry="19"/><path fill="#8c7d76" d="M3 50h189v9H3z"/><ellipse fill="#fff" rx="1" ry="1" transform="rotate(44.8 119.9 312.8) scale(36.98375 27.48866)"/><ellipse fill="#98a6e5" cx="248" cy="68" rx="6" ry="15"/><ellipse fill="#acac98" rx="1" ry="1" transform="matrix(-.13209 -30.7965 7.43712 -.0319 222.6 38.7)"/><path fill="#d7ddc4" d="M146 3h72v41h-72z"/></g></svg>