<svg xmlns="http://www.w3.org/2000/svg" viewBox="0 0 700 467"><filter id="b"><feGaussianBlur stdDeviation="12" /></filter><path fill="#4a4376" d="M0 0h700v464H0z"/><g filter="url(#b)" transform="translate(1.4 1.4) scale(2.73438)" fill-opacity=".5"><ellipse fill="#fff4ff" cx="153" cy="145" rx="197" ry="36"/><ellipse cx="49" cy="43" rx="74" ry="74"/><ellipse fill="#000026" cx="202" cy="44" rx="62" ry="62"/><ellipse fill="#faf9ff" cx="133" cy="88" rx="18" ry="49"/><ellipse rx="1" ry="1" transform="rotate(94.5 -31.3 127.8) scale(15.55327 25.27178)"/><ellipse cx="44" cy="27" rx="82" ry="82"/><ellipse fill="#f2f3ff" rx="1" ry="1" transform="rotate(-92.1 164.5 -47.7) scale(9.02597 111.37031)"/><ellipse fill="#fff" cx="133" cy="69" rx="21" ry="13"/><ellipse fill="#c29cff" cx="43" cy="148" rx="34" ry="34"/><ellipse fill="#d2d9ff" cx="201" cy="156" rx="91" ry="17"/><ellipse fill="#005" cx="166" cy="22" rx="47" ry="41"/><ellipse fill="#000013" cx="184" cy="65" rx="35" ry="42"/><ellipse fill="#323c9d" cx="184" cy="133" rx="78" ry="7"/><path fill="#00000d" d="M0 0h115v113H0z"/><ellipse fill="#00001a" rx="1" ry="1" transform="matrix(14.06144 -13.3438 11.972 12.61585 164.8 90)"/><ellipse fill="#000006" cx="91" cy="169" rx="19" ry="16"/><path fill="#c5c5ea" d="M102.4 80l56.6.5-40-22-26 37.3z"/><ellipse fill="#a6f6ff" rx="1" ry="1" transform="matrix(-1.32392 .30844 -23.13165 -99.28737 220.1 35.8)"/><ellipse fill="#a2a2ff" cx="134" cy="130" rx="12" ry="53"/><ellipse fill="#0098ff" rx="1" ry="1" transform="matrix(3.80272 -.63375 5.68776 34.12853 250.3 19.7)"/><ellipse fill="#dfa6ff" rx="1" ry="1" transform="matrix(-65.23485 1.36648 -.2192 -10.46453 53.3 126.8)"/><ellipse fill="#000016" rx="1" ry="1" transform="matrix(-12.66132 7.22189 -25.90593 -45.41794 253 77)"/></g></svg>