<svg xmlns="http://www.w3.org/2000/svg" viewBox="0 0 200 130"><filter id="b"><feGaussianBlur stdDeviation="12" /></filter><path fill="#a0a783" d="M0 0h200v130H0z"/><g filter="url(#b)" transform="translate(.5 .5)" fill-opacity=".5"><ellipse fill="#0f0c00" rx="1" ry="1" transform="matrix(-24.88573 -14.06281 28.47256 -50.38539 88 64)"/><ellipse fill="#fff" rx="1" ry="1" transform="matrix(-13.98423 31.64039 -38.17416 -16.872 158.5 90.4)"/><ellipse cx="183" cy="38" rx="20" ry="28"/><ellipse fill="#ffffba" rx="1" ry="1" transform="matrix(-23.5218 -2.45485 11.74564 -112.54388 12.6 49.4)"/><path fill="#0c0400" d="M54 145l48-27-39-37z"/><path fill="#ffffed" d="M104 27.6L96-16l86.9 20.2L119 24.6z"/><path fill="#fffffa" d="M26-4l38 37 28-49z"/><ellipse fill="#92c230" cx="34" cy="61" rx="26" ry="56"/><ellipse fill="#fffbff" cx="157" cy="88" rx="37" ry="26"/><path fill="#fff" d="M32.2 126.2l-.4-20 22-.4.4 20z"/><ellipse fill="#fff" rx="1" ry="1" transform="matrix(-5.77775 123.33834 -6.62712 -.31045 2.5 43.2)"/><ellipse fill="#dbe5a3" cx="107" cy="103" rx="12" ry="27"/><ellipse fill="#4b6e1c" rx="1" ry="1" transform="matrix(9.84544 .82539 -2.98245 35.57544 118.1 45.5)"/><path fill="#fff" d="M-5 87l32-14 10 17z"/><ellipse fill="#40331b" rx="1" ry="1" transform="matrix(-9.04476 43.04175 -22.55179 -4.73902 81.3 63.5)"/><ellipse fill="#a4a3d0" cx="199" cy="107" rx="28" ry="48"/><path fill="#1e1d11" d="M36.4 135l70.2-10.9-6.5-11-60.5 16z"/><path fill="#385502" d="M38 42h8v63h-8z"/><path fill="#203006" d="M166 14h34v31h-34z"/><ellipse fill="#fff" cx="160" cy="3" rx="7" ry="25"/><ellipse fill="#fff" cx="163" cy="113" rx="9" ry="66"/><path fill="#fffae3" d="M124 136l-22-41-16 3z"/></g></svg>