<svg xmlns="http://www.w3.org/2000/svg" viewBox="0 0 200 133"><filter id="b"><feGaussianBlur stdDeviation="12" /></filter><path fill="#94938d" d="M0 0h200v133H0z"/><g filter="url(#b)" transform="translate(.5 .5)" fill-opacity=".5"><ellipse fill="#240f00" rx="1" ry="1" transform="matrix(-49.947 8.5338 -4.41527 -25.84188 86.7 120.1)"/><ellipse fill="#fff" cx="17" rx="38" ry="38"/><ellipse cx="18" cy="109" rx="12" ry="32"/><ellipse fill="#fffff6" rx="1" ry="1" transform="matrix(15.15992 -42.79533 28.83785 10.2156 156 2.3)"/><ellipse fill="#eaffff" cx="40" cy="77" rx="14" ry="42"/><path fill="#080305" d="M41 21h38v19H41z"/><ellipse fill="#fbffff" rx="1" ry="1" transform="rotate(14.6 25 254.4) scale(48.59464 12.5374)"/><ellipse fill="#282629" rx="1" ry="1" transform="matrix(7.7927 5.81042 -36.96708 49.5787 199 30.7)"/><ellipse cx="119" cy="21" rx="4" ry="34"/><ellipse fill="#e5feff" rx="1" ry="1" transform="rotate(-121.4 61.4 16) scale(18.29686 8.49318)"/><path fill="#00001a" d="M46.7 107l46.6-6.6 6 42.6-46.6 6.6z"/><ellipse fill="#af9037" rx="1" ry="1" transform="matrix(-20.60858 11.4851 -13.152 -23.59962 120.1 116.6)"/><ellipse fill="#fff" rx="1" ry="1" transform="matrix(21.53414 13.40382 -6.82432 10.96373 17 21.7)"/><path fill="#f3e29a" d="M140.6 86l21.8 2.3-5 47.7-21.8-2.3z"/><path fill="#cadefa" d="M37.8 29.1l38 88L3 48l1.8 24z"/><path d="M7 79h19v23H7z"/><path fill="#ffffe4" d="M215 15l-53-31-42 43z"/><ellipse fill="#000012" rx="1" ry="1" transform="matrix(3.91003 8.46672 -5.6399 2.60458 187.3 100)"/><ellipse fill="#212314" cx="98" cy="36" rx="4" ry="26"/><ellipse fill="#000619" rx="1" ry="1" transform="matrix(23.55156 -2.02702 .3465 4.02581 199 23.8)"/><path fill="#daf2ed" d="M101 0h10v49h-10z"/><ellipse fill="#857c6f" rx="1" ry="1" transform="rotate(153.5 65.3 45.2) scale(22.97797 29.83719)"/></g></svg>