<svg xmlns="http://www.w3.org/2000/svg" viewBox="0 0 641 195"><filter id="b"><feGaussianBlur stdDeviation="12" /></filter><path fill="#697583" d="M0 0h641v192H0z"/><g filter="url(#b)" transform="translate(1.3 1.3) scale(2.5039)" fill-opacity=".5"><ellipse fill="#fff" rx="1" ry="1" transform="rotate(-106.9 41.6 -6.1) scale(105.582 39.50154)"/><ellipse fill="#00001a" rx="1" ry="1" transform="matrix(55.58667 31.50808 -57.55141 101.53242 220 30.4)"/><ellipse rx="1" ry="1" transform="matrix(14.08039 -3.35095 19.86068 83.45282 0 29)"/><ellipse fill="#65baff" rx="1" ry="1" transform="matrix(-25.99563 15.1942 -8.77592 -15.01464 117.6 9.4)"/><ellipse fill="#bfa482" cx="194" cy="42" rx="12" ry="30"/><path fill="#fffcc9" d="M65 98L23.9 73.1 63 8.1l41.1 24.7z"/><path d="M32.1 47.8l-.2 15-30-.6.2-15z"/><path fill="#fffed3" d="M136.4 54.7l-11.2 27.8-17.6-7.2 11.2-27.8z"/><path fill="#4a95ff" d="M243 65l-1-33 25-1 1 33z"/><ellipse fill="#00000e" rx="1" ry="1" transform="matrix(9.17513 2.1445 -6.737 28.82387 3 23)"/><path fill="#5788fe" d="M141 0h15v45h-15z"/><ellipse fill="#003011" rx="1" ry="1" transform="rotate(11 93 1137) scale(52.66926 16.52768)"/><path fill="#000048" d="M157-9l-2 81 39-34z"/><ellipse fill="#dbdbc6" cx="75" cy="47" rx="29" ry="202"/><ellipse fill="#a4ccfb" cx="34" cy="26" rx="22" ry="22"/><path fill="#120714" d="M117.5 51.6L112.6 86l2.3-21-17.6-15.8z"/><path fill="#4085e2" d="M116.3 9.2l11.7 32-26.3 9.6-11.7-32z"/><path fill="#000005" d="M40 42l-56 28 28 18z"/><path fill="#0c0811" d="M198.9 86.5l-2.6-28.9 46.8-4 2.6 28.8z"/><path fill="#eddfae" d="M24 66h128v9H24z"/><path fill="#26274e" d="M112.6 30.9l3.1-12.7 43.7 11-3.1 12.6z"/><path fill="#f2f4ef" d="M177.5 61l3.4-5 15.6 11-3.4 5z"/></g></svg>