<svg xmlns="http://www.w3.org/2000/svg" viewBox="0 0 200 133"><filter id="b"><feGaussianBlur stdDeviation="12" /></filter><path fill="#868d8f" d="M0 0h200v133H0z"/><g filter="url(#b)" transform="translate(.5 .5)" fill-opacity=".5"><ellipse cx="87" cy="94" rx="28" ry="57"/><ellipse rx="1" ry="1" transform="matrix(-23.02233 7.17066 -18.9381 -60.80324 183.2 126)"/><ellipse fill="#fff" cx="26" cy="51" rx="33" ry="199"/><ellipse fill="#dde4e6" cx="75" cy="13" rx="75" ry="23"/><ellipse fill="#000107" rx="1" ry="1" transform="rotate(79.6 -17.1 93.1) scale(58.08371 16.90635)"/><ellipse fill="#4b5953" cx="21" cy="30" rx="6" ry="199"/><path fill="#caf5f8" d="M153 37l-8 98-29-145z"/><path fill="#55606e" d="M96 42h36v91H96z"/><ellipse fill="#181c20" rx="1" ry="1" transform="rotate(82.7 34.8 139.4) scale(106.65809 13.80487)"/><path fill="#fff" d="M173.5 56V-6h15v62z"/><ellipse fill="#fffefd" rx="1" ry="1" transform="matrix(5.29143 102.07944 -15.5543 .80628 45 92)"/><ellipse fill="#fff9f9" cx="54" cy="14" rx="25" ry="25"/><ellipse fill="#a8b1ab" rx="1" ry="1" transform="matrix(-3.07934 37.77037 -7.57684 -.61772 103.7 119)"/><path fill="#04415f" d="M97.4-24.5l16-.9 3.2 60-16 .8z"/><path fill="#615e57" d="M75 12h16v75H75z"/><path fill="#af2e02" d="M96 72h31v17H96z"/><path fill="#000003" d="M156 101h36v32h-36z"/><path fill="#fff" d="M117 0h16v39h-16z"/><path fill="#a4d8d8" d="M157 148l-22-18 16-76z"/><ellipse fill="#201d22" cx="68" cy="52" rx="12" ry="16"/><ellipse fill="#fffdfc" rx="1" ry="1" transform="matrix(8.18797 5.5966 -29.56056 43.24786 75.5 3.6)"/><ellipse fill="#285b77" cx="118" cy="117" rx="16" ry="31"/></g></svg>