<svg xmlns="http://www.w3.org/2000/svg" viewBox="0 0 200 133"><filter id="b"><feGaussianBlur stdDeviation="12" /></filter><path fill="#79776e" d="M0 0h200v133H0z"/><g filter="url(#b)" transform="translate(.5 .5)" fill-opacity=".5"><ellipse fill="#f6ffff" cx="152" cy="2" rx="52" ry="31"/><path fill="#fff" d="M81 66h59v24H81z"/><ellipse fill="#100700" cx="22" cy="13" rx="53" ry="26"/><ellipse rx="1" ry="1" transform="matrix(4.3817 -44.19834 12.06024 1.19562 61 85)"/><ellipse fill="#0b0803" cx="149" cy="61" rx="17" ry="17"/><ellipse fill="#1b1703" cx="74" cy="115" rx="105" ry="6"/><ellipse fill="#c0c1c0" rx="1" ry="1" transform="matrix(24.22132 -2.84535 2.46433 20.97781 111.2 40)"/><ellipse fill="#fff" cx="108" cy="80" rx="37" ry="10"/><ellipse fill="#030301" cx="157" cy="84" rx="11" ry="11"/><path fill="#fff" d="M94 100h29v10H94z"/><ellipse fill="#daedff" rx="1" ry="1" transform="matrix(-27.55015 12.27688 -8.2117 -18.42763 159.8 3.7)"/><path fill="#ffdaa7" d="M171 57l-20-17 20-18z"/><ellipse fill="#413b2d" rx="1" ry="1" transform="rotate(-176.3 71.4 62.3) scale(29.28652 24.21671)"/><ellipse fill="#95989b" rx="1" ry="1" transform="matrix(37.24756 72.57122 -16.45247 8.44432 95.6 0)"/><path fill="#0037a8" d="M47 25h13v29H47z"/><path fill="#544d3a" d="M-16 95l29 53 6-164z"/><path fill="#37321a" d="M62 104h29v29H62z"/><ellipse fill="#a4926f" cx="36" cy="63" rx="15" ry="37"/><path fill="#040307" d="M50 67h16v48H50z"/><path fill="#906c46" d="M170 24l-38 28-13-19z"/><ellipse fill="#aba38e" cx="173" cy="92" rx="9" ry="32"/><ellipse fill="#fff" cx="108" cy="81" rx="27" ry="9"/></g></svg>