<svg xmlns="http://www.w3.org/2000/svg" viewBox="0 0 700 467"><filter id="b"><feGaussianBlur stdDeviation="12" /></filter><path fill="#676150" d="M0 0h700v464H0z"/><g filter="url(#b)" transform="translate(1.4 1.4) scale(2.73438)" fill-opacity=".5"><ellipse fill="#fff" rx="1" ry="1" transform="matrix(.2864 20.94628 -128.86509 1.76194 131.8 7.4)"/><ellipse fill="#fffff9" rx="1" ry="1" transform="rotate(25.9 -107.3 54.6) scale(18.18383 81.45177)"/><ellipse fill="#100a03" cx="217" cy="116" rx="63" ry="63"/><ellipse rx="1" ry="1" transform="matrix(-7.63417 71.43475 -28.49204 -3.04492 76.4 124.8)"/><ellipse fill="#ffffec" rx="1" ry="1" transform="matrix(7.34291 7.87431 -18.61147 17.35548 53.2 57.7)"/><ellipse fill="#ddc78c" cx="132" cy="120" rx="28" ry="28"/><ellipse fill="#000006" rx="1" ry="1" transform="matrix(27.67197 -2.61962 2.33917 24.70952 44.2 108)"/><ellipse fill="#fffffe" cx="179" rx="145" ry="19"/><path fill="#1b1612" d="M169 33l-98 1 17 64z"/><ellipse fill="#241e0b" cx="64" cy="24" rx="25" ry="12"/><ellipse fill="#b49c6b" rx="1" ry="1" transform="matrix(8.76873 14.25568 -23.56742 14.49644 240 136.3)"/><path fill="#000005" d="M-5.5 82.4l36 89-25 10.2-36-89z"/><ellipse fill="#191400" cx="163" cy="163" rx="101" ry="17"/><path d="M243 27h13v89h-13z"/><ellipse fill="#ffffe6" rx="1" ry="1" transform="matrix(-4.0794 -30.13366 11.92183 -1.61394 11.7 62.3)"/><path fill="#9f8f79" d="M233 84l16-69-51 95z"/><path fill="#000001" d="M177 87l-24 8 33-80z"/><ellipse fill="#000005" rx="1" ry="1" transform="matrix(-3.00828 24.15195 -13.39068 -1.6679 227.6 109.4)"/><ellipse fill="#b1945f" rx="1" ry="1" transform="matrix(5.53014 -13.35094 19.93184 8.25604 43.8 154.9)"/><ellipse fill="#ffd" rx="1" ry="1" transform="rotate(-162.4 60 -5.2) scale(16.08147 28.27806)"/><ellipse fill="#ece4be" cx="159" cy="150" rx="3" ry="24"/><path fill="#272d07" d="M32.9 60.9l3.5-21.7-12 8.9 2.5 83z"/></g></svg>