<svg xmlns="http://www.w3.org/2000/svg" viewBox="0 0 200 133"><filter id="b"><feGaussianBlur stdDeviation="12" /></filter><path fill="#285440" d="M0 0h200v133H0z"/><g filter="url(#b)" transform="translate(.5 .5)" fill-opacity=".5"><ellipse fill="#d1ffd6" cx="119" cy="70" rx="124" ry="18"/><ellipse rx="1" ry="1" transform="matrix(-3.26593 32.15244 -136.69083 -13.88455 92.8 119.5)"/><path d="M-21.5-24h61v74h-61z"/><ellipse fill="#008159" cx="149" cy="19" rx="113" ry="34"/><ellipse cx="51" cy="118" rx="199" ry="27"/><path fill="#ffffe9" d="M17 62h40v18H17z"/><ellipse fill="#5a9872" cx="190" cy="77" rx="124" ry="21"/><path fill="#d7ffe5" d="M110.8 68l29-2 1.4 20-29 2z"/><ellipse fill="#c9fff3" cx="130" cy="55" rx="45" ry="5"/><ellipse cx="10" cy="18" rx="27" ry="48"/><path fill="#002e00" d="M174.7 50.8l39.1 33.5 1.2-36.9-44.5 18.4z"/><path fill="#302c1f" d="M150.4 67.9l-55.6-3 21.2-4 65-4.5z"/><ellipse fill="#001e03" rx="1" ry="1" transform="rotate(157.9 39 31.7) scale(22.80911 7.01536)"/><path fill="#fbe8f1" d="M163 93l13-9 11 13z"/><path d="M42.3 76l-1.8 10-10.8-2 1.8-9.8z"/><path fill="#e6f0c8" d="M13 82l18-3V42z"/><path d="M93 79h12v54H93z"/><path fill="#002709" d="M69 38h107v12H69z"/><path fill="#f5ebd5" d="M42.4 82l-7.5-11.8 10-25 14.4 42.6z"/><path fill="#decfa4" d="M10 46h7v17h-7z"/><path fill="#fcf1fb" d="M63 57h39v7H63z"/><path fill="#998057" d="M128 58h7v50h-7z"/></g></svg>