<svg xmlns="http://www.w3.org/2000/svg" viewBox="0 0 200 133"><filter id="b"><feGaussianBlur stdDeviation="12" /></filter><path fill="#655b6a" d="M0 0h200v133H0z"/><g filter="url(#b)" transform="translate(.5 .5)" fill-opacity=".5"><ellipse fill="#fffffe" rx="1" ry="1" transform="matrix(.1491 24.98108 -198.59115 1.18525 132.9 13.6)"/><ellipse fill="#191027" cx="98" cy="132" rx="102" ry="102"/><ellipse fill="#ca8378" cx="103" cy="34" rx="120" ry="12"/><path fill="#fff" d="M76.5-7.6L71.2-16l27.9 46.5-46-13.2z"/><ellipse fill="#e7f3fe" cx="148" rx="55" ry="22"/><ellipse fill="#100c39" rx="1" ry="1" transform="rotate(170.2 91.5 47.9) scale(15.6815 30.42469)"/><path fill="#1f3467" d="M157.4-21.8l-6.9 56.6-8-1 7-56.6z"/><path fill="#fff" d="M7-13l-19 50 21 2zM170 0h13v38h-13z"/><ellipse fill="#1c2a46" cx="35" cy="123" rx="63" ry="63"/><ellipse fill="#bd6929" rx="1" ry="1" transform="matrix(6.91664 -11.21892 14.78707 9.11646 199 120.8)"/><ellipse fill="#635886" rx="1" ry="1" transform="matrix(8.64306 -33.32464 9.06612 2.35138 34.2 65.8)"/><path fill="#fff" d="M17 29l12-44 1 43zM64-8L41-3l-2 20z"/><path fill="#9b5345" d="M49 18l12 40 18-37z"/><path fill="#813f38" d="M183.7 48.8L179.5 19l12.8-1.9 4.2 29.7z"/><ellipse fill="#fff" cx="157" cy="36" rx="7" ry="7"/><path fill="#b6635f" d="M158.5 62.2l2.3 24.5 17.9-41.4-14.9-27.8z"/><path fill="#29477a" d="M154.5 3l16 5.9 5-21.5 36 6.9z"/><ellipse fill="#e3a07b" rx="1" ry="1" transform="matrix(3.34167 8.70274 -26.47072 10.16421 101.1 30.6)"/><ellipse fill="#0c3a83" rx="1" ry="1" transform="matrix(-3.90287 .88176 -3.85505 -17.0634 16 0)"/><path d="M138.2 84l-1.6-4.5 25.2-3.9-22.5 35.1z"/></g></svg>