<svg xmlns="http://www.w3.org/2000/svg" viewBox="0 0 200 133"><filter id="b"><feGaussianBlur stdDeviation="12" /></filter><path fill="#36201b" d="M0 0h200v133H0z"/><g filter="url(#b)" transform="translate(.5 .5)" fill-opacity=".5"><ellipse fill="#ff3c96" cx="162" cy="49" rx="12" ry="24"/><ellipse fill="#674643" cx="65" cy="40" rx="39" ry="39"/><ellipse fill="#100a03" cx="111" cy="93" rx="51" ry="51"/><ellipse fill="#c86387" cx="44" cy="69" rx="9" ry="31"/><ellipse fill="#735a38" cx="131" cy="6" rx="43" ry="31"/><path d="M146.6 93.5L216.8 28l26.6 28.5-70.2 65.5z"/><ellipse fill="#000001" cx="9" cy="102" rx="18" ry="128"/><path fill="#997c80" d="M34 102.8L24 89l16-11.8L50 91z"/><ellipse fill="#de416c" rx="1" ry="1" transform="rotate(156.5 76.4 37.5) scale(10.56283 18.56886)"/><path fill="#0e1415" d="M55 19h16v84H55z"/><path fill="#b16d6c" d="M54.5 38.7l31.9 10-45.7-.6.2-36.9z"/><ellipse fill="#1a0700" rx="1" ry="1" transform="matrix(-26.66985 14.00199 -27.1579 -51.72818 181.3 125.3)"/><ellipse fill="#371b0b" rx="1" ry="1" transform="matrix(9.74257 -36.10757 81.87485 22.09153 111 132)"/><path fill="#0f1002" d="M111-16l-8.1 14-32.3 38.7-29 3.5z"/><ellipse fill="#18190d" rx="1" ry="1" transform="matrix(-2.00516 27.35294 -13.67247 -1.00229 184.1 41.2)"/><path fill="#020709" d="M35.5 64l-7.4-17L-6 82.6 39.1 86z"/><path fill="#6e5539" d="M108.1 41L142 12.7l-38.3.3L62 46z"/><path fill="#ffffd3" d="M69 14l1-5 5 6z"/><path fill="#000308" d="M151.5 85.4l-60 2.1-1-29 60-2z"/><path fill="#b80944" d="M176 71l-21-24-5 23z"/><path fill="#a7837c" d="M27 113l25-37-13-1z"/><path fill="#070807" d="M215 115l-94-28 84-30z"/></g></svg>