<svg xmlns="http://www.w3.org/2000/svg" viewBox="0 0 200 133"><filter id="b"><feGaussianBlur stdDeviation="12" /></filter><path fill="#978170" d="M0 0h200v133H0z"/><g filter="url(#b)" transform="translate(.5 .5)" fill-opacity=".5"><ellipse fill="#f6ffff" rx="1" ry="1" transform="matrix(2.91787 -36.46593 153.10908 12.25124 113.3 10.2)"/><ellipse fill="#501d00" cx="97" cy="132" rx="85" ry="85"/><ellipse fill="#736155" rx="1" ry="1" transform="matrix(15.88221 -31.44143 23.48312 11.86218 144.8 44.5)"/><ellipse fill="#bfd1ff" rx="1" ry="1" transform="matrix(-21.08919 36.38822 -24.47266 -14.1834 98.9 30)"/><ellipse fill="#090a27" cx="121" cy="87" rx="61" ry="16"/><ellipse fill="#feffff" cx="194" cy="51" rx="10" ry="55"/><path fill="#0d2e49" d="M13.6 106.5L4.8 73.6l37.6-10 8.8 32.8z"/><ellipse fill="#ca6b00" rx="1" ry="1" transform="matrix(-1.9846 -32.44807 88.72397 -5.4266 97.8 132)"/><ellipse fill="#fff" cy="109" rx="14" ry="14"/><path fill="#4f5cc2" d="M133 89.9L106 88l3-43.9 27 1.9z"/><ellipse cx="5" cy="40" rx="9" ry="12"/><ellipse fill="#ad974b" cx="41" cy="26" rx="26" ry="18"/><path fill="#e8f9ff" d="M0 53h8v77H0z"/><path fill="#e6faff" d="M43.5 23.3L30.8-3.9l41.7-19.4L85.2 3.9z"/><ellipse fill="#101b2c" cx="93" cy="80" rx="11" ry="25"/><ellipse fill="#fff" rx="1" ry="1" transform="matrix(68.80325 -.70807 .07215 7.01066 125.2 2.8)"/><ellipse fill="#65421a" rx="1" ry="1" transform="matrix(20.82607 3.2839 -.69762 4.42423 184 78)"/><path fill="#f2f8fc" d="M14.2 39.4l5.3 17.5 4.2-26.3-35-46.6z"/><path fill="#4f2908" d="M159 20h10v40h-10z"/><path fill="#658aaf" d="M28 58h23v30H28z"/><ellipse fill="#532500" cx="73" cy="99" rx="62" ry="10"/><path fill="#fbffff" d="M186 39h14v32h-14z"/></g></svg>