<svg xmlns="http://www.w3.org/2000/svg" viewBox="0 0 200 133"><filter id="b"><feGaussianBlur stdDeviation="12" /></filter><path fill="#37506b" d="M0 0h200v133H0z"/><g filter="url(#b)" transform="translate(.5 .5)" fill-opacity=".5"><ellipse fill="#cbd0d4" cx="39" cy="73" rx="32" ry="32"/><ellipse cx="110" cy="128" rx="112" ry="27"/><ellipse fill="#c98a5e" cx="112" cy="72" rx="34" ry="34"/><path fill="#e4f3ff" d="M138 57h22v35h-22z"/><ellipse fill="#002054" cx="179" cy="68" rx="21" ry="199"/><ellipse fill="#0b5faa" cx="47" rx="53" ry="53"/><path fill="#000006" d="M113.2 62l7.7 36.9 30.6-44.5-3.8 12.3z"/><ellipse fill="#004d9f" rx="1" ry="1" transform="matrix(-150.91875 -9.43777 1.00802 -16.11915 150.3 14.8)"/><path fill="#a46e54" d="M65.2 54.6l6.6-14-34-24.3-18.6 30.4z"/><path fill="#ffb58f" d="M150 25h10v32h-10z"/><path fill="#aaadae" d="M13 41h26v70H13z"/><path fill="#301200" d="M161 49h22v48h-22z"/><ellipse fill="#0b0000" rx="1" ry="1" transform="rotate(-111.2 97 23.8) scale(21.79388 40.49232)"/><ellipse fill="#041d3d" cx="49" cy="112" rx="7" ry="33"/><path fill="#dfdee2" d="M175 105l-9-18-24-10z"/><path fill="#000017" d="M115 43.1L90.9 47l27.1 9.4 6.5-27.6z"/><path fill="#dfdde0" d="M73 91l-17 6 6-65z"/><path fill="#e5c39e" d="M97.1 97l-6.7-29.3 20.5-4.7 6.7 29.3z"/><ellipse fill="#003486" cx="3" cy="83" rx="8" ry="107"/><path fill="#fff" d="M138.7 75.6l-2.2-13.8 8.8-1.4 2.2 13.8z"/><ellipse fill="#ad784c" cx="93" cy="75" rx="14" ry="37"/><path fill="#f2e3e6" d="M143.2 93.8l-28.4 5 5.2 10.4 25.3-44z"/></g></svg>