<svg xmlns="http://www.w3.org/2000/svg" viewBox="0 0 800 533"><filter id="b"><feGaussianBlur stdDeviation="12" /></filter><path fill="#3b2b18" d="M0 0h800v531H0z"/><g filter="url(#b)" transform="translate(1.6 1.6) scale(3.125)" fill-opacity=".5"><ellipse fill="#fffff1" rx="1" ry="1" transform="matrix(-24.03605 -13.81396 7.43726 -12.94071 179.7 30)"/><ellipse fill="#ffeeef" rx="1" ry="1" transform="matrix(17.12459 -30.11341 13.49034 7.67155 49.2 66.6)"/><ellipse fill="#cea654" rx="1" ry="1" transform="rotate(127.6 -1.7 19.2) scale(30.51184 21.54055)"/><ellipse rx="1" ry="1" transform="matrix(-2.56953 -25.92544 47.4276 -4.70065 93.4 88.6)"/><ellipse fill="#100a04" cx="181" cy="118" rx="64" ry="64"/><path fill="#fff" d="M71 52L38 89 15 76z"/><path d="M49 39l3 19-59 21z"/><path fill="#fff" d="M66 36l-2 37-18-50z"/><ellipse fill="#070000" cx="15" cy="121" rx="67" ry="29"/><path fill="#ffefc0" d="M206 22l-34 34-10-44z"/><ellipse fill="#1a0b00" rx="1" ry="1" transform="matrix(-38.54378 53.03012 -28.63328 -20.81147 117 70)"/><path fill="#f2f4fe" d="M-12.4 19.9L-16 147.7l7.2-77.3 25-29.4z"/><path fill="#6f6043" d="M195.7 48.5l-1.4-28 20-1 1.4 28z"/><path fill="#cc9b81" d="M164.9 94.5l19.9-.7 14.4 4-20.2 7z"/><path fill="#9d7148" d="M248.5 123.7l-13.5-3.9 24.5-85.5 13.5 3.9z"/><ellipse fill="#926613" cx="146" cy="109" rx="9" ry="23"/><path d="M0 82h32v31H0z"/><ellipse fill="#6a4813" rx="1" ry="1" transform="matrix(-32.79215 5.72124 -6.5678 -37.64433 27.7 3.2)"/><ellipse fill="#fdc80b" cx="164" rx="37" ry="2"/><path fill="#840000" d="M45 77h16v15H45z"/><path fill="#fff" d="M29 91l11-22 7 27z"/><path fill="#070908" d="M257.6 48.5L204.8 103l-24.4-23.6L233.2 25z"/></g></svg>