<svg xmlns="http://www.w3.org/2000/svg" viewBox="0 0 200 133"><filter id="b"><feGaussianBlur stdDeviation="12" /></filter><path fill="#462f25" d="M0 0h200v133H0z"/><g filter="url(#b)" transform="translate(.5 .5)" fill-opacity=".5"><ellipse fill="#ffffe6" cx="153" cy="14" rx="20" ry="33"/><ellipse fill="#080000" cx="20" cy="84" rx="26" ry="74"/><ellipse fill="#ff2d44" cx="99" cy="54" rx="10" ry="27"/><ellipse fill="#00040e" rx="1" ry="1" transform="matrix(-27.14031 -40.1792 19.04848 -12.8669 175.1 110.4)"/><path fill="#bd7b91" d="M53 31l22 54-23 27z"/><path fill="#c6a88e" d="M187 21h10v65h-10z"/><ellipse fill="#c39f4d" cx="78" rx="8" ry="54"/><ellipse cx="106" cy="13" rx="19" ry="19"/><ellipse fill="#ffffcf" cx="164" cy="2" rx="7" ry="44"/><ellipse fill="#292f37" rx="1" ry="1" transform="matrix(37.03074 -3.37006 1.81169 19.90711 156.2 61.7)"/><path fill="#e37b96" d="M41.2 32.5l15.5 6.7 11 25.6-31-26.6z"/><ellipse fill="#3b1100" rx="1" ry="1" transform="rotate(90.2 -21.7 104.5) scale(19.60043 82.04305)"/><ellipse fill="#000001" rx="1" ry="1" transform="rotate(118.7 92.8 58.2) scale(30.61646 10.03723)"/><ellipse fill="#fccda6" cx="122" cy="80" rx="6" ry="6"/><path fill="#5f4940" d="M142 12h19v63h-19z"/><path d="M48.1 3.5l21 1-1.2 24-21-1z"/><ellipse fill="#fa2539" rx="1" ry="1" transform="matrix(11.02827 -1.8851 2.18957 12.8095 104 50.8)"/><path fill="#0c0000" d="M85 106l30-50v54z"/><path fill="#ffeeb6" d="M135.2-16L133 35.8l18-34.2 63-5z"/><path fill="#efbd99" d="M182 24h9v12h-9z"/><path fill="#030000" d="M73.1 105.3l-8-64.5 15.5 38.7-3.5 33.7z"/><path fill="#b2bb89" d="M94 25h10v12H94z"/></g></svg>