<svg xmlns="http://www.w3.org/2000/svg" viewBox="0 0 700 467"><filter id="b"><feGaussianBlur stdDeviation="12" /></filter><path fill="#343859" d="M0 0h700v464H0z"/><g filter="url(#b)" transform="translate(1.4 1.4) scale(2.73438)" fill-opacity=".5"><ellipse fill="#9e94c1" cx="133" cy="101" rx="77" ry="65"/><ellipse rx="1" ry="1" transform="matrix(-1.14521 -36.19371 171.4818 -5.4259 80.4 7)"/><ellipse cx="124" cy="136" rx="29" ry="9"/><ellipse fill="#ffffe6" cx="220" cy="134" rx="12" ry="14"/><ellipse fill="#e7f2df" cx="37" cy="136" rx="10" ry="22"/><ellipse fill="#000026" cx="7" cy="67" rx="54" ry="54"/><ellipse fill="#0017e2" rx="1" ry="1" transform="matrix(-18.61338 -5.3987 8.06404 -27.80278 239.4 35.7)"/><ellipse fill="#000027" rx="1" ry="1" transform="matrix(29.74017 32.68402 -20.51533 18.66752 244.7 93.4)"/><ellipse fill="#0d2eb2" cx="137" cy="73" rx="37" ry="22"/><ellipse cx="245" cy="169" rx="17" ry="46"/><ellipse fill="#00000b" cx="166" cy="22" rx="56" ry="23"/><ellipse rx="1" ry="1" transform="rotate(98.2 -47.5 104.2) scale(13.03194 75.39466)"/><path fill="#e4ebc5" d="M169.7 111l12.7 20.3-22 13.8-12.8-20.4z"/><ellipse fill="#cad1da" rx="1" ry="1" transform="matrix(-.55606 -11.79122 26.15291 -1.23334 117 154.7)"/><ellipse fill="#8a71c2" cx="87" cy="68" rx="28" ry="28"/><ellipse rx="1" ry="1" transform="matrix(-8.2286 10.13963 -14.66138 -11.89814 51.7 112.3)"/><ellipse cx="4" cy="134" rx="12" ry="93"/><ellipse fill="#000b00" rx="1" ry="1" transform="rotate(21.7 -331.7 593.7) scale(50.1793 9.81223)"/><ellipse fill="#00030b" cx="121" cy="140" rx="7" ry="14"/><path d="M200 120l21-86 3 81z"/><ellipse cx="138" cy="92" rx="41" ry="3"/><ellipse fill="#dce5c7" cx="90" cy="127" rx="8" ry="19"/></g></svg>