<svg xmlns="http://www.w3.org/2000/svg" viewBox="0 0 700 467"><filter id="b"><feGaussianBlur stdDeviation="12" /></filter><path fill="#94816e" d="M0 0h700v464H0z"/><g filter="url(#b)" transform="translate(1.4 1.4) scale(2.73438)" fill-opacity=".5"><ellipse fill="#f3ffff" rx="1" ry="1" transform="matrix(-228.2825 -22.78562 3.86426 -38.71493 155.7 22.7)"/><ellipse fill="#441400" rx="1" ry="1" transform="rotate(177.7 60.7 67.6) scale(110.4705 57.88258)"/><ellipse fill="#7c5d30" cx="193" cy="48" rx="31" ry="37"/><ellipse fill="#d07700" cx="164" cy="158" rx="148" ry="26"/><ellipse fill="#eaefee" rx="1" ry="1" transform="matrix(12.18518 .34036 -3.18344 113.96906 249.3 79.6)"/><ellipse fill="#0e2256" rx="1" ry="1" transform="rotate(167.7 64.8 59.6) scale(59.0113 23.79747)"/><ellipse fill="#faffff" rx="1" ry="1" transform="matrix(17.37398 -1.79543 3.34922 32.40977 0 138)"/><path fill="#00395c" d="M9 86h46v35H9z"/><ellipse fill="#bed3ff" rx="1" ry="1" transform="matrix(-17.3247 69.31314 -31.96242 -7.98896 119.9 17)"/><ellipse fill="#9f8144" rx="1" ry="1" transform="matrix(-33.15142 -32.98014 16.15385 -16.23774 59.8 46.4)"/><ellipse cy="52" rx="16" ry="16"/><ellipse fill="#655f93" rx="1" ry="1" transform="rotate(-164.3 77.5 30.8) scale(43.02963 16.75116)"/><ellipse fill="#120800" cx="209" cy="116" rx="20" ry="20"/><ellipse fill="#fff" cx="192" cy="4" rx="234" ry="8"/><ellipse fill="#552800" rx="1" ry="1" transform="rotate(-92.7 111.6 17.8) scale(18.22962 82.86325)"/><ellipse fill="#ecffff" rx="1" ry="1" transform="matrix(2.17554 -15.09722 8.69234 1.25259 3.4 80.7)"/><path fill="#f7ffff" d="M271 92L245-16l-8 108z"/><path fill="#664518" d="M216.9 89l67.3 19.4-3 10.5-67.4-19.3z"/><path fill="#f7ffff" d="M10-16l23 80-39-54z"/><path fill="#4d3121" d="M185.9 122.3l25.4-58 13.8 83.6-11-125.5z"/><path fill="#a4b6df" d="M205 37l-11-26-55 1z"/><ellipse fill="#b21300" rx="1" ry="1" transform="matrix(.1682 32.12379 -3.91415 .0205 175.8 96)"/></g></svg>