<svg xmlns="http://www.w3.org/2000/svg" viewBox="0 0 200 133"><filter id="b"><feGaussianBlur stdDeviation="12" /></filter><path fill="#79776e" d="M0 0h200v133H0z"/><g filter="url(#b)" transform="translate(.5 .5)" fill-opacity=".5"><ellipse fill="#f5ffff" rx="1" ry="1" transform="matrix(-2.30479 -20.84834 59.39924 -6.5666 161.6 11.2)"/><ellipse fill="#fff" rx="1" ry="1" transform="rotate(-75.4 111 -29) scale(22.11172 35.59798)"/><ellipse fill="#0f0701" cx="35" cy="10" rx="38" ry="30"/><ellipse cx="59" cy="88" rx="11" ry="38"/><ellipse fill="#464131" cx="114" cy="124" rx="53" ry="35"/><ellipse fill="#0d0a06" cx="151" cy="68" rx="13" ry="26"/><ellipse fill="#fff" cx="115" cy="78" rx="30" ry="12"/><ellipse fill="#cccbc6" rx="1" ry="1" transform="matrix(-3.0389 15.15558 -22.8326 -4.57824 110.3 42.5)"/><path fill="#fff" d="M90 109h35l-19-12z"/><ellipse fill="#16120f" rx="1" ry="1" transform="rotate(16.7 -231.2 264.8) scale(6.32271 48.1958)"/><ellipse fill="#d8eaff" cx="157" rx="32" ry="26"/><ellipse fill="#4d4735" rx="1" ry="1" transform="rotate(92.2 -27 32.6) scale(82.73564 13.6195)"/><ellipse fill="#211e10" cx="100" cy="115" rx="67" ry="6"/><path fill="#cdae88" d="M158 18l21.8 30L166 58l-21.8-30z"/><ellipse fill="#a08f6d" cx="33" cy="67" rx="17" ry="44"/><path fill="#34291e" d="M135 39h17v36h-17z"/><path fill="#0240b0" d="M60.3 53.1l-15-.2.4-24 15 .2z"/><ellipse fill="#fff" rx="1" ry="1" transform="matrix(32.7177 -1.35201 .33609 8.13306 104.8 82.2)"/><ellipse fill="#888d96" cx="104" cy="8" rx="27" ry="27"/><path fill="#0d0909" d="M52.2 27.6l-58-31.2L70.4 19l1.6 7.8z"/><path fill="#4f4c2e" d="M0 109h53v14H0z"/><path fill="#fff" d="M84 46h43v3H84z"/></g></svg>