<svg xmlns="http://www.w3.org/2000/svg" viewBox="0 0 200 133"><filter id="b"><feGaussianBlur stdDeviation="12" /></filter><path fill="#444754" d="M0 0h200v133H0z"/><g filter="url(#b)" transform="translate(.5 .5)" fill-opacity=".5"><ellipse fill="#bbe1ff" rx="1" ry="1" transform="matrix(24.6466 17.23633 -14.15912 20.24642 90.1 37.2)"/><ellipse fill="#ffbb83" rx="1" ry="1" transform="matrix(.87475 9.46155 -51.02249 4.7172 104.4 100.7)"/><ellipse fill="#fff" cx="5" cy="107" rx="25" ry="7"/><ellipse fill="#000623" rx="1" ry="1" transform="matrix(-39.04624 -169.2868 23.1391 -5.33707 167 66.8)"/><ellipse fill="#00348b" rx="1" ry="1" transform="matrix(3.07325 -52.08827 36.93148 2.17899 19.9 31.2)"/><ellipse fill="#ff6500" cx="84" cy="105" rx="16" ry="24"/><ellipse fill="#003072" rx="1" ry="1" transform="matrix(49.2728 -20.03582 12.32846 30.3186 179.3 27.5)"/><path fill="#fbffff" d="M111 91h43v15h-43z"/><ellipse fill="#0d0000" cx="136" cy="132" rx="28" ry="28"/><ellipse fill="#0d0000" cx="27" cy="127" rx="49" ry="15"/><path fill="#81d8ff" d="M67 35h46v27H67z"/><ellipse fill="#705931" rx="1" ry="1" transform="matrix(5.46729 22.77288 -23.13228 5.55357 106.7 11)"/><ellipse fill="#c37754" cx="61" cy="35" rx="7" ry="55"/><path fill="#842000" d="M112 62l-51-1 46 56z"/><ellipse fill="#ffc672" cx="15" cy="93" rx="10" ry="10"/><ellipse fill="#006fb3" rx="1" ry="1" transform="matrix(-26.08887 2.08073 -2.23522 -28.02593 21.3 11.9)"/><ellipse fill="#001038" cx="15" cy="61" rx="30" ry="22"/><ellipse fill="#683e27" cx="185" cy="82" rx="115" ry="12"/><ellipse fill="#500f08" cx="53" cy="105" rx="27" ry="20"/><path fill="#b6d7dc" d="M36 77h32v7H36z"/><path fill="#fff" d="M0 99h22v11H0z"/><path fill="#ab0000" d="M62.4 28.5h6l-.8 47h-6z"/></g></svg>