<svg xmlns="http://www.w3.org/2000/svg" viewBox="0 0 200 133"><filter id="b"><feGaussianBlur stdDeviation="12" /></filter><path fill="#716c7d" d="M0 0h200v133H0z"/><g filter="url(#b)" transform="translate(.5 .5)" fill-opacity=".5"><ellipse cx="163" cy="119" rx="70" ry="30"/><ellipse fill="#f3dfe5" rx="1" ry="1" transform="matrix(-1.13877 -28.08839 98.34264 -3.98705 163.1 41.2)"/><ellipse fill="#000009" rx="1" ry="1" transform="matrix(46.86119 -20.65144 8.64193 19.60982 29.6 112.8)"/><path fill="#f0d6e5" d="M-9.4 47l38.8-36 28 30-38.8 36z"/><path fill="#3e0f00" d="M131 125l45 22L155 9z"/><ellipse fill="#fff" cx="80" cy="132" rx="14" ry="31"/><ellipse fill="#4d1800" cx="54" cy="83" rx="14" ry="61"/><ellipse fill="#003b98" rx="1" ry="1" transform="rotate(-79.7 28.5 -31.7) scale(25.31768 58.80051)"/><ellipse fill="#d0cae9" rx="1" ry="1" transform="matrix(-24.9967 2.30205 -5.34914 -58.08328 190 32)"/><ellipse fill="#001f7d" cx="141" cy="2" rx="19" ry="19"/><ellipse fill="#765040" rx="1" ry="1" transform="matrix(16.79326 -2.34794 5.86172 41.92503 110.4 87.8)"/><ellipse fill="#c1ccf9" cx="131" cy="73" rx="6" ry="34"/><ellipse fill="#002d77" rx="1" ry="1" transform="matrix(32.17446 -3.23275 4.14923 41.29583 13 132)"/><path fill="#dbdcff" d="M79 34h12v67H79z"/><ellipse fill="#dfd6ea" cx="120" cy="34" rx="21" ry="24"/><ellipse fill="#fffffb" cx="73" cy="132" rx="13" ry="13"/><path fill="#9b95a5" d="M51 79l-21 29-46-43z"/><path fill="#e2d1cd" d="M18 33h40v19H18z"/><ellipse fill="#000950" cx="192" cy="123" rx="24" ry="30"/><ellipse fill="#8a490c" rx="1" ry="1" transform="rotate(26.8 -125.6 122.8) scale(11.25476 21.32828)"/><ellipse fill="#d4821c" cx="106" cy="52" rx="9" ry="14"/><ellipse fill="#bc8a6c" cx="171" cy="84" rx="7" ry="22"/></g></svg>