<svg xmlns="http://www.w3.org/2000/svg" viewBox="0 0 200 133"><filter id="b"><feGaussianBlur stdDeviation="12" /></filter><path fill="#3d4c82" d="M0 0h200v133H0z"/><g filter="url(#b)" transform="translate(.5 .5)" fill-opacity=".5"><ellipse fill="#ff150a" rx="1" ry="1" transform="rotate(82.5 -16.5 98.5) scale(30.57253 24.49316)"/><ellipse fill="#4288ff" cx="115" rx="64" ry="64"/><ellipse fill="#121100" cx="152" cy="123" rx="58" ry="38"/><ellipse fill="#000f00" rx="1" ry="1" transform="matrix(29.13948 26.17474 -29.12904 32.4284 28.6 120.5)"/><ellipse fill="#6889d7" cx="46" cy="54" rx="72" ry="23"/><ellipse fill="#175be1" cx="182" cy="34" rx="20" ry="58"/><ellipse fill="#c49253" rx="1" ry="1" transform="matrix(-8.38445 -.3954 1.75478 -37.21004 142 68)"/><ellipse fill="#b8e2ff" rx="1" ry="1" transform="matrix(1.09992 -11.01975 20.13265 2.0095 110.6 9.2)"/><ellipse fill="#f3d4a0" rx="1" ry="1" transform="rotate(-151.1 28.8 26.1) scale(8.9439 17.32096)"/><path fill="#0d43b9" d="M104-16L6 96-16 1z"/><path fill="#fb3c51" d="M69 79h31v48H69z"/><ellipse fill="#9b9ec3" cx="142" cy="47" rx="183" ry="7"/><path fill="#1a1f20" d="M124 137l13-82-27 7z"/><ellipse fill="#0249c2" rx="1" ry="1" transform="rotate(-90.8 88.3 -77) scale(30.44926 39.51583)"/><ellipse fill="#394131" rx="1" ry="1" transform="matrix(-11.3039 -3.29524 8.64301 -29.64875 151.7 83.2)"/><ellipse fill="#000802" cx="172" cy="122" rx="17" ry="31"/><path fill="#000a00" d="M59 127h66v6H59z"/><path fill="#aafff8" d="M81.5 126.9l13-16.6v11.9l-5.8 5z"/><path fill="#091b1a" d="M97.7 110.8l-67-22-46.7 8L-.8 108z"/><path fill="#e9b158" d="M194 102l5 42-11-25z"/><path fill="#d5654a" d="M91.8 50.1l-11 56.4L73.4 60l-2.3.8z"/><ellipse fill="#1049dc" rx="1" ry="1" transform="matrix(7.55476 14.18401 -8.98891 4.78772 102 68.7)"/></g></svg>