<svg xmlns="http://www.w3.org/2000/svg" viewBox="0 0 641 195"><filter id="b"><feGaussianBlur stdDeviation="12" /></filter><path fill="#a0abae" d="M0 0h641v192H0z"/><g filter="url(#b)" transform="translate(1.3 1.3) scale(2.5039)" fill-opacity=".5"><ellipse rx="1" ry="1" transform="matrix(-23.16164 -1.22853 2.0872 -39.35022 250.8 50.8)"/><ellipse fill="#070d13" cx="20" cy="51" rx="24" ry="29"/><ellipse fill="#fff" rx="1" ry="1" transform="matrix(6.3676 -98.46735 23.82445 1.54066 206.6 32)"/><ellipse fill="#fff" rx="1" ry="1" transform="matrix(-1.0614 -25.5467 34.74248 -1.44347 147.4 10.6)"/><ellipse cx="250" cy="54" rx="22" ry="30"/><ellipse fill="#d6eaeb" cx="72" cy="33" rx="20" ry="56"/><ellipse fill="#fffffe" rx="1" ry="1" transform="matrix(9.9553 1.80918 -7.00388 38.53988 131.2 38)"/><path fill="#85857d" d="M27 22h25v46H27z"/><path fill="#060f24" d="M61 85L5 44l-21 19z"/><path fill="#fff" d="M115.3 52.9l19-1.6 94.1 15.2-76.2-2.5z"/><path fill="#377d82" d="M65 57l24 6-18 29z"/><path fill="#d2dfde" d="M33 55h21v15H33z"/><path fill="#597a72" d="M93 16h24v36H93z"/><path fill="#124328" d="M90 0h30v5H90z"/><ellipse fill="#64abec" cx="20" cy="5" rx="37" ry="14"/><ellipse fill="#fff" rx="1" ry="1" transform="matrix(-20.39147 -6.78334 2.6717 -8.03144 193 30.7)"/><path fill="#f7fbf3" d="M188 22h40v55h-40z"/><path fill="#191400" d="M35 26h18v7H35z"/><ellipse fill="#000001" rx="1" ry="1" transform="rotate(-116.9 150.8 -40.2) scale(46.78721 14.96618)"/><path fill="#3d4f4d" d="M109.3 44h8l-.6 30h-8z"/><ellipse fill="#f9f9f5" rx="1" ry="1" transform="matrix(-.10402 3.77492 -38.76701 -1.06826 124.5 8.7)"/><path fill="#73958e" d="M141.5 30.5l17.2 22.2 29.3 9.6-5.6-30.6z"/></g></svg>