<svg xmlns="http://www.w3.org/2000/svg" viewBox="0 0 200 133"><filter id="b"><feGaussianBlur stdDeviation="12" /></filter><path fill="#5d5c66" d="M0 0h200v133H0z"/><g filter="url(#b)" transform="translate(.5 .5)" fill-opacity=".5"><ellipse fill="#fcffff" cx="64" cy="54" rx="54" ry="48"/><ellipse fill="#000017" cx="161" cy="96" rx="52" ry="118"/><ellipse fill="#769fff" cx="104" cy="36" rx="26" ry="24"/><ellipse fill="#431700" cx="47" cy="125" rx="199" ry="28"/><ellipse fill="#def1ff" cx="33" cy="37" rx="23" ry="28"/><ellipse fill="#000009" cy="94" rx="14" ry="114"/><ellipse fill="#384b78" cx="101" cy="66" rx="22" ry="22"/><ellipse fill="#ffffcf" rx="1" ry="1" transform="matrix(-6.87024 -12.62937 23.2121 -12.62713 43.3 84.9)"/><ellipse fill="#00000d" cx="85" cy="1" rx="91" ry="11"/><path fill="#f3f5ff" d="M70 13h53v20H70z"/><ellipse fill="#c4aa94" cx="151" cy="67" rx="10" ry="24"/><path fill="#00000f" d="M28.4 72.2l-7.6 16.3-27.2-12.7 7.6-16.3z"/><ellipse fill="#deedff" cx="26" cy="23" rx="15" ry="15"/><path fill="#4b90fa" d="M189 51h11v32h-11z"/><ellipse fill="#e1a43c" cx="33" cy="104" rx="78" ry="4"/><ellipse fill="#f2e9c5" rx="1" ry="1" transform="rotate(64.7 -25 80.5) scale(32.33004 21.97157)"/><ellipse fill="#ddc28c" cx="99" cy="88" rx="11" ry="17"/><ellipse fill="#d7bd25" rx="1" ry="1" transform="matrix(8.96103 1.04923 -.83228 7.10813 56.7 7.6)"/><path fill="#85aaed" d="M16.8 29l22.8 3.6L33.2 73l-22.8-3.6z"/><ellipse fill="#03003f" cx="130" cy="33" rx="9" ry="98"/><path fill="#000424" d="M82.8 61.8l3.5 6.1 6 12.8-9.8 5z"/><path fill="#5d9bef" d="M72 31h50v19H72z"/></g></svg>