<svg xmlns="http://www.w3.org/2000/svg" viewBox="0 0 200 133"><filter id="b"><feGaussianBlur stdDeviation="12" /></filter><path fill="#756d77" d="M0 0h200v133H0z"/><g filter="url(#b)" transform="translate(.5 .5)" fill-opacity=".5"><ellipse fill="#f3ffff" cx="113" cy="124" rx="74" ry="23"/><ellipse fill="#3e2a3a" rx="1" ry="1" transform="matrix(77.79149 -33.67023 27.35604 63.20322 68.5 28)"/><path fill="#ddf4ff" d="M188 111l27-41-89-46z"/><path fill="#fff9ff" d="M85 34h29v23H85z"/><path fill="#efffff" d="M10 26.6l42 .8v8l-42-.8z"/><ellipse rx="1" ry="1" transform="matrix(10.68773 -28.46806 11.68653 4.38746 66.7 37.4)"/><ellipse fill="#060800" cx="118" cy="16" rx="37" ry="12"/><ellipse fill="#d086aa" rx="1" ry="1" transform="matrix(-89.85524 5.48634 -.40788 -6.68025 94.5 0)"/><path fill="#642420" d="M149.5 69.5L-16 84l143.4 6.4 87.6 10.9z"/><path fill="#d1ffff" d="M150 24h42v8h-42z"/><path fill="#fefff6" d="M183 148l8-62-39 58z"/><ellipse fill="#d6ffff" rx="1" ry="1" transform="matrix(4.17444 -5.63088 25.53376 18.9294 154.6 49)"/><path fill="#890000" d="M192.2 100.3l15.7 3.3-8.1 38.1-15.7-3.3z"/><path fill="#584812" d="M58 83l17 33-29-4z"/><ellipse fill="#90bab6" cx="47" cy="110" rx="9" ry="22"/><path fill="#120000" d="M45 9h34v19H45z"/><ellipse fill="#b7d0cb" cx="119" cy="113" rx="30" ry="25"/><path fill="#002a18" d="M124 22l-8 45 31-8z"/><path fill="#f6ffff" d="M19 29h51v3H19z"/><path fill="#281400" d="M14.8 148.1l-9.5-8.8 21.9-23.4 9.5 8.8z"/><path fill="#7d7164" d="M205 77L84 102l92 12z"/><ellipse fill="#a05b9c" rx="1" ry="1" transform="matrix(-31.22565 -1.4246 .75514 -16.5518 20.3 6)"/></g></svg>