<svg xmlns="http://www.w3.org/2000/svg" viewBox="0 0 200 133"><filter id="b"><feGaussianBlur stdDeviation="12" /></filter><path fill="#5f2847" d="M0 0h200v133H0z"/><g filter="url(#b)" transform="translate(.5 .5)" fill-opacity=".5"><path fill="#889fec" d="M35 29h117v50H35z"/><ellipse fill="#ff062d" rx="1" ry="1" transform="rotate(-23.2 323.8 -337.8) scale(35.43197 24.50289)"/><ellipse rx="1" ry="1" transform="matrix(21.81565 -4.87869 12.27538 54.89091 185.7 32.5)"/><ellipse fill="#000003" cx="11" cy="7" rx="22" ry="52"/><ellipse fill="#690600" cx="51" cy="132" rx="51" ry="51"/><path fill="#e8384d" d="M28.9-.1l21 79.9 50.8 10.5-65.4 25z"/><ellipse fill="#000943" rx="1" ry="1" transform="matrix(-12.75456 -4.32725 20.56085 -60.60313 79.6 6)"/><ellipse fill="#78b1e0" rx="1" ry="1" transform="rotate(-107.9 65.2 -24.3) scale(9.32316 31.02861)"/><ellipse fill="#00102e" cx="102" cy="8" rx="25" ry="20"/><ellipse fill="#2f0408" rx="1" ry="1" transform="matrix(-14.49002 -7.06725 20.69661 -42.43434 101.6 109.9)"/><path fill="#ff4d67" d="M149 38h10v56h-10z"/><ellipse cx="69" cy="130" rx="199" ry="5"/><path fill="#afc7b2" d="M78.8 74l-1.5-42.9 34-1.2 1.4 43z"/><path fill="#85c6ff" d="M52.2 83.7l-7.7-65.2 10.8 39.4 12.6 24z"/><ellipse fill="#1a0020" cx="174" cy="12" rx="42" ry="42"/><ellipse fill="#390088" cx="124" cy="49" rx="9" ry="24"/><ellipse fill="#ff2250" rx="1" ry="1" transform="rotate(70.5 .2 165.8) scale(7.24714 33.39361)"/><ellipse fill="#470000" rx="1" ry="1" transform="matrix(9.84483 9.33957 -50.13132 52.84336 177.6 132)"/><ellipse rx="1" ry="1" transform="rotate(-4.3 89.6 -56.1) scale(43.00075 13.55367)"/><path fill="#8f1472" d="M140 19h25v31h-25z"/><path fill="#c30086" d="M70-13L23 29l17 8z"/><path fill="#7e8df3" d="M112.2 14.3l43 41.8-30.1 37L139 18.6z"/></g></svg>