<svg xmlns="http://www.w3.org/2000/svg" viewBox="0 0 700 467"><filter id="b"><feGaussianBlur stdDeviation="12" /></filter><path fill="#6a696d" d="M0 0h700v464H0z"/><g filter="url(#b)" transform="translate(1.4 1.4) scale(2.73438)" fill-opacity=".5"><ellipse fill="#d2e4e4" rx="1" ry="1" transform="matrix(-2.83795 24.1508 -225.27897 -26.4724 146 13.9)"/><ellipse fill="#2e1914" cx="207" cy="107" rx="51" ry="51"/><ellipse fill="#ff0100" rx="1" ry="1" transform="matrix(-11.72886 20.1101 -29.06045 -16.949 4 103)"/><ellipse fill="#001132" rx="1" ry="1" transform="matrix(2.12276 19.86317 -72.6862 7.76791 72 129.8)"/><ellipse fill="#160a11" cx="164" cy="131" rx="19" ry="38"/><path fill="#aac4e6" d="M77 123L11 80l45-3z"/><ellipse fill="#0f4b71" rx="1" ry="1" transform="matrix(-8.13059 -21.84717 48.97145 -18.22508 133.2 94.5)"/><ellipse fill="#ff3000" rx="1" ry="1" transform="matrix(25.4081 32.20175 -15.70223 12.3895 0 91)"/><path fill="#faffff" d="M88 2h111v14H88z"/><ellipse fill="#272d2b" cx="158" rx="6" ry="114"/><path fill="#ff1800" d="M220 93l-9 31-34 4z"/><path d="M105 55l23-23-7 49z"/><path fill="#98bfd0" d="M109.4 80.7l10.8-2.3 10.4 49-10.8 2.2z"/><ellipse fill="#081025" cx="95" cy="127" rx="21" ry="32"/><ellipse fill="#a0b7b0" rx="1" ry="1" transform="matrix(-16.07881 3.38834 -4.34667 -20.62643 208.7 52.5)"/><ellipse fill="#2b5050" cx="238" cy="84" rx="18" ry="67"/><path fill="#fbffff" d="M127 42h10v26h-10z"/><ellipse fill="#77757d" cx="237" cy="146" rx="35" ry="31"/><path fill="#1a1b13" d="M155.2 108.2l8.3-52.9L145.2 39l-13.8-7.5z"/><path fill="#90a3a9" d="M117 45l-133-5 71-56z"/><path fill="#90c6df" d="M140 81h11v41h-11z"/><path fill="#001b9e" d="M114.6 128.5L61 124.7l-25.7-6.5 17.3-10.3z"/></g></svg>