<svg xmlns="http://www.w3.org/2000/svg" viewBox="0 0 700 467"><filter id="b"><feGaussianBlur stdDeviation="12" /></filter><path fill="#94816e" d="M0 0h700v464H0z"/><g filter="url(#b)" transform="translate(1.4 1.4) scale(2.73438)" fill-opacity=".5"><ellipse fill="#f3ffff" rx="1" ry="1" transform="matrix(215.57912 26.03867 -4.91136 40.6621 129.5 18)"/><ellipse fill="#421100" cx="123" cy="129" rx="112" ry="52"/><ellipse fill="#775c38" rx="1" ry="1" transform="matrix(-10.55178 37.41575 -31.1401 -8.78195 190.8 50.2)"/><path fill="#fff" d="M237 0h19v93h-19z"/><ellipse fill="#ce7100" rx="1" ry="1" transform="rotate(178 63.2 78.7) scale(115.18576 23.19542)"/><ellipse fill="#121f34" cx="122" cy="110" rx="113" ry="20"/><ellipse fill="#fff" cy="152" rx="16" ry="49"/><ellipse fill="#cae1ff" cx="121" cy="24" rx="39" ry="39"/><ellipse cx="4" cy="52" rx="15" ry="15"/><path fill="#2b3fc0" d="M132 74h41v41h-41z"/><ellipse fill="#a49148" rx="1" ry="1" transform="matrix(6.73573 -21.49373 31.62176 9.90966 56 34.3)"/><path fill="#feffff" d="M11.2 66.6l-1.4 26-21-1.2 1.4-26z"/><ellipse fill="#fff" rx="1" ry="1" transform="matrix(200.77835 1.77636 -.09935 11.22918 88.8 .6)"/><ellipse fill="#3c5d75" cx="37" cy="99" rx="31" ry="21"/><ellipse fill="#dbc2a2" rx="1" ry="1" transform="matrix(2.1864 29.97008 -24.04085 1.75385 253.4 136)"/><path fill="#603e26" d="M214.2 25.6l12.2 89.2-28.8-52 5.6-34.9z"/><path fill="#c8ceed" d="M94 24h15v66H94z"/><ellipse fill="#f8ffff" cx="24" cy="46" rx="6" ry="14"/><path fill="#008f76" d="M180.5 70.2l12-.4 1 30-12 .4z"/><ellipse fill="#bd7c6e" rx="1" ry="1" transform="matrix(6.83734 -3.23102 8.78731 18.59533 61.4 104.2)"/><path fill="#4a2100" d="M147 102h79v35h-79z"/><ellipse fill="#492200" cx="92" cy="124" rx="47" ry="15"/></g></svg>