<svg xmlns="http://www.w3.org/2000/svg" viewBox="0 0 700 467"><filter id="b"><feGaussianBlur stdDeviation="12" /></filter><path fill="#344f52" d="M0 0h700v464H0z"/><g filter="url(#b)" transform="translate(1.4 1.4) scale(2.73438)" fill-opacity=".5"><ellipse fill="#9eedf2" cx="178" cy="57" rx="120" ry="40"/><ellipse rx="1" ry="1" transform="matrix(-35.47466 -.02316 .11161 -170.972 25 68.3)"/><ellipse fill="#006fff" cx="249" cy="106" rx="48" ry="48"/><ellipse rx="1" ry="1" transform="matrix(-2.97343 22.58548 -221.41765 -29.15019 153.1 162.7)"/><ellipse fill="#eec174" rx="1" ry="1" transform="rotate(-100.2 95.4 4) scale(15.76674 98.83569)"/><ellipse cx="128" cy="8" rx="166" ry="11"/><ellipse cx="130" cy="105" rx="63" ry="4"/><ellipse fill="#0076e3" rx="1" ry="1" transform="rotate(46 -38.6 139.1) scale(20.40174 37.99751)"/><ellipse cx="15" cy="53" rx="49" ry="49"/><ellipse fill="#dbe9ff" cx="100" cy="114" rx="40" ry="7"/><path fill="#fff840" d="M203.8 16l57 2-.6 16-57-2z"/><ellipse fill="#8ee2d1" cx="131" cy="33" rx="73" ry="14"/><ellipse rx="1" ry="1" transform="rotate(-84 141.2 15.4) scale(20.64389 67.50965)"/><ellipse fill="#ffed86" rx="1" ry="1" transform="rotate(-171.6 69.6 36) scale(34.06794 11.18056)"/><ellipse fill="#0085e7" rx="1" ry="1" transform="rotate(-70.6 93.2 -55) scale(14.35561 32.04236)"/><ellipse fill="#a26f00" rx="1" ry="1" transform="matrix(2.04722 10.11484 -30.95474 6.26515 27.4 110.5)"/><path fill="#424a45" d="M296.4 27.5l6.3 25.3-95.1 23.7-6.3-25.3z"/><path fill="#001300" d="M138 53h48v9h-48z"/><ellipse fill="#9b934b" cx="78" cy="39" rx="19" ry="19"/><path fill="#ffeacc" d="M183 54h20v39h-20z"/><ellipse cx="152" cy="161" rx="116" ry="14"/><path fill="#f2f3fd" d="M105.8 102l-7.5-3-24.2-6.4L51.7 107z"/></g></svg>