<svg xmlns="http://www.w3.org/2000/svg" viewBox="0 0 200 133"><filter id="b"><feGaussianBlur stdDeviation="12" /></filter><path fill="#675550" d="M0 0h200v133H0z"/><g filter="url(#b)" transform="translate(.5 .5)" fill-opacity=".5"><ellipse fill="#cdffff" rx="1" ry="1" transform="matrix(48.95618 -.46737 .18598 19.4812 101.5 52.6)"/><ellipse rx="1" ry="1" transform="matrix(-.27066 -19.38337 198.35172 -2.7697 51.6 15.4)"/><ellipse fill="#c8a25a" rx="1" ry="1" transform="rotate(61.4 32.1 183.6) scale(45.49253 33.68092)"/><ellipse rx="1" ry="1" transform="matrix(188.78229 0 0 16.70968 97.8 132)"/><path fill="#cd928b" d="M58 62l66 50-84-2z"/><path fill="#ccefff" d="M64.7 69.6l-.4-26 71-1.2.4 26z"/><path fill="#888fa9" d="M5 35h74v24H5z"/><ellipse fill="#000003" cx="28" cy="12" rx="44" ry="20"/><path d="M178.6-2.2l42 1.4-1.2 33-42-1.4z"/><path fill="#7d615b" d="M129.8 6.7l1.3 26-48.9 2.6-1.3-26z"/><path fill="#ffd0ee" d="M78 117l37-13-40 2z"/><ellipse fill="#bab196" cx="189" cy="44" rx="34" ry="14"/><path fill="#629fff" d="M63 61l82-28-84 2z"/><ellipse fill="#7b1200" rx="1" ry="1" transform="rotate(-97.7 121.7 -17) scale(10.13918 16.73174)"/><ellipse fill="#2e202d" rx="1" ry="1" transform="matrix(-5.764 .35161 -1.42223 -23.31472 57.3 40.6)"/><path fill="#250a12" d="M62 91h14v42H62z"/><ellipse cx="113" cy="132" rx="190" ry="8"/><path fill="#ff9a7f" d="M0 104h31v9H0z"/><path fill="#a5977f" d="M57 36l-68 51 44-58z"/><ellipse fill="#ccbdc0" cx="131" cy="83" rx="18" ry="4"/><ellipse fill="#edefee" cx="105" cy="55" rx="28" ry="11"/><ellipse fill="#d3784d" cx="193" cy="108" rx="79" ry="6"/></g></svg>