<svg xmlns="http://www.w3.org/2000/svg" viewBox="0 0 200 133"><filter id="b"><feGaussianBlur stdDeviation="12" /></filter><path fill="#5b4044" d="M0 0h200v133H0z"/><g filter="url(#b)" transform="translate(.5 .5)" fill-opacity=".5"><ellipse fill="#ffeddc" cx="161" cy="27" rx="14" ry="37"/><ellipse fill="#df6f67" cx="84" cy="34" rx="61" ry="32"/><ellipse cx="187" cy="93" rx="36" ry="36"/><ellipse cy="58" rx="24" ry="146"/><ellipse fill="#ff2433" rx="1" ry="1" transform="rotate(-88.2 29.4 -6.2) scale(41.55419 12.07912)"/><path d="M83 0h18v46H83z"/><ellipse fill="#697c99" cx="124" cy="103" rx="34" ry="81"/><ellipse fill="#002f46" cx="86" cy="85" rx="86" ry="26"/><path fill="#ffc4ba" d="M101 0h24v50h-24z"/><path d="M174 0h21v118h-21z"/><ellipse rx="1" ry="1" transform="matrix(6.35595 .03543 -.32459 58.23176 52.8 20.5)"/><ellipse cx="135" rx="11" ry="35"/><path fill="#ffa9a8" d="M60 0h21v69H60z"/><path fill="#ff9e96" d="M147 0h28v64h-28z"/><ellipse fill="#ff939e" rx="1" ry="1" transform="rotate(-159.8 62.5 57) scale(10.25902 31.23445)"/><ellipse cx="7" cy="51" rx="13" ry="197"/><path fill="#549ce2" d="M100.6 92l-5.1-65.3L113 81l1.3 32.6z"/><path d="M82 0h18v31H82z"/><ellipse fill="#d999c4" rx="1" ry="1" transform="matrix(14.67111 -13.87378 6.52736 6.90249 143.8 124.7)"/><ellipse cx="174" cy="89" rx="25" ry="29"/><ellipse cx="79" cy="107" rx="7" ry="39"/><ellipse rx="1" ry="1" transform="rotate(16 26.4 491) scale(7.84752 28.82847)"/></g></svg>