<svg xmlns="http://www.w3.org/2000/svg" viewBox="0 0 200 133"><filter id="b"><feGaussianBlur stdDeviation="12" /></filter><path fill="#392c2e" d="M0 0h200v133H0z"/><g filter="url(#b)" transform="translate(.5 .5)" fill-opacity=".5"><ellipse fill="#f9d7d4" rx="1" ry="1" transform="matrix(28.12959 -27.90483 16.23117 16.36191 87.4 29.3)"/><ellipse fill="#000003" cx="88" cy="119" rx="42" ry="42"/><path fill="#c39fd8" d="M135 41.9l9.3-9L161 50l-9.3 9z"/><path fill="#fff8ff" d="M78.4 68L61 14.8l8.5-2.8L87 65.2z"/><ellipse fill="#38252e" cx="104" cy="65" rx="23" ry="32"/><ellipse cx="21" cy="56" rx="31" ry="24"/><path d="M49-16l38 8-7 35z"/><path fill="#ffcff8" d="M154 121l-8.5-4 1-11 15.1 4.3z"/><ellipse cx="142" cy="12" rx="22" ry="22"/><path fill="#e5c4b1" d="M85 0h34v34H85z"/><path fill="#ffffe7" d="M92 66h9v14h-9z"/><path d="M179.2 6.8l31-1.6 2.6 52-31 1.6z"/><path fill="#9c8281" d="M18 80h20v35H18z"/><ellipse fill="#0c0604" rx="1" ry="1" transform="rotate(81 24.5 161.5) scale(41.13162 19.90859)"/><ellipse fill="#000603" cx="34" cy="2" rx="48" ry="17"/><path fill="#442f2f" d="M100 27L59 49 30 34z"/><path fill="#d1b9ca" d="M57.4 68.1l3.2-1 6 8.9 7.9-43z"/><path fill="#a07878" d="M-15.5 110.5l73.8-10.4L1 124.2l-7-39.4z"/><path fill="#825b35" d="M162 0h16v57h-16z"/><path fill="#ff2e38" d="M48 86h7v15h-7z"/><ellipse fill="#090805" rx="1" ry="1" transform="rotate(-72.3 80.7 3) scale(8.9132 85.88237)"/><ellipse fill="#090500" cx="33" cy="127" rx="37" ry="12"/></g></svg>