<svg xmlns="http://www.w3.org/2000/svg" viewBox="0 0 700 467"><filter id="b"><feGaussianBlur stdDeviation="12" /></filter><path fill="#2d335e" d="M0 0h700v464H0z"/><g filter="url(#b)" transform="translate(1.4 1.4) scale(2.73438)" fill-opacity=".5"><ellipse fill="#fff" cx="186" cy="41" rx="37" ry="29"/><ellipse fill="#9abaff" cx="159" cy="117" rx="162" ry="23"/><ellipse rx="1" ry="1" transform="matrix(12.77353 61.69777 -109.37947 22.64527 42.5 36)"/><ellipse fill="#061de7" rx="1" ry="1" transform="matrix(154.0274 4.56414 -.68155 23.00037 217.5 132.2)"/><ellipse cy="169" rx="184" ry="36"/><ellipse fill="#fff" rx="1" ry="1" transform="matrix(53.53911 1.34492 -.2031 8.08534 183.7 101)"/><path fill="#fff" d="M0 106h80v19H0z"/><path d="M224.2-80.6l73 180.8-45.4 18.4-73-180.8z"/><ellipse fill="#fffffa" rx="1" ry="1" transform="rotate(-3.2 755.9 -3247.9) scale(34.94906 20.57526)"/><ellipse fill="#fff" cx="128" cy="105" rx="73" ry="5"/><ellipse cx="43" cy="22" rx="77" ry="77"/><ellipse cx="33" cy="151" rx="24" ry="29"/><ellipse cx="232" cy="113" rx="148" ry="5"/><ellipse fill="#7f736e" rx="1" ry="1" transform="matrix(2.50376 -16.2264 31.2596 4.8234 180.9 72.5)"/><ellipse fill="#f5eee8" cx="121" cy="87" rx="5" ry="22"/><ellipse fill="#1b25ff" cx="240" cy="143" rx="32" ry="25"/><ellipse fill="#506dff" rx="1" ry="1" transform="matrix(.1013 17.095 -63.47258 .37611 171.3 134.4)"/><path d="M0 151h211v19H0z"/><ellipse fill="#003" cx="92" cy="73" rx="29" ry="29"/><ellipse rx="1" ry="1" transform="matrix(-135.32866 1.37975 -.11395 -11.17622 159.4 .5)"/><ellipse cx="31" cy="43" rx="56" ry="56"/><path d="M106.9 171.5L91 169l6.1-38.5L113 133z"/></g></svg>