<svg xmlns="http://www.w3.org/2000/svg" viewBox="0 0 200 133"><filter id="b"><feGaussianBlur stdDeviation="12" /></filter><path fill="#321e30" d="M0 0h200v133H0z"/><g filter="url(#b)" transform="translate(.5 .5)" fill-opacity=".5"><ellipse fill="#eac6ff" rx="1" ry="1" transform="matrix(4.63736 27.227 -54.10815 9.21581 96 64)"/><ellipse fill="#ffaeff" cx="141" cy="79" rx="39" ry="7"/><ellipse cx="85" cy="122" rx="36" ry="36"/><ellipse cx="163" cy="128" rx="45" ry="45"/><ellipse cx="40" cy="35" rx="26" ry="32"/><ellipse cx="44" cy="115" rx="195" ry="28"/><path fill="#ffbdf4" d="M31 76h128v11H31z"/><path fill="#ff4dff" d="M57 37h20v16H57z"/><ellipse rx="1" ry="1" transform="matrix(-40.09111 -54.57744 16.9505 -12.45138 161.5 24.7)"/><path fill="#26c3ff" d="M98 38h32v24H98z"/><path fill="#ff16ff" d="M131 37h17v17h-17z"/><path d="M127 63l81-79-31 77z"/><ellipse fill="#9d567d" cx="143" cy="70" rx="37" ry="8"/><ellipse cx="101" cy="23" rx="98" ry="13"/><ellipse fill="#000003" cx="47" cy="57" rx="25" ry="7"/><ellipse fill="#fff8fd" cx="67" cy="77" rx="14" ry="9"/><ellipse fill="#730353" rx="1" ry="1" transform="matrix(-9.70744 -3.94377 5.0298 -12.38064 36 73.3)"/><path fill="#fc45fc" d="M59 36h17v20H59z"/><path fill="#73d4ee" d="M87 37h32v22H87z"/><path fill="#ca18b5" d="M-5 43l-3-19 25 2z"/><ellipse cx="69" cy="120" rx="199" ry="25"/><ellipse fill="#110b06" cx="117" cy="103" rx="8" ry="23"/></g></svg>