<svg xmlns="http://www.w3.org/2000/svg" viewBox="0 0 200 133"><filter id="b"><feGaussianBlur stdDeviation="12" /></filter><path fill="#131329" d="M0 0h200v133H0z"/><g filter="url(#b)" transform="translate(.5 .5)" fill-opacity=".5"><ellipse fill="#7b4e5e" cx="100" cy="100" rx="41" ry="35"/><ellipse fill="#000981" rx="1" ry="1" transform="rotate(69.3 34 73) scale(20.77556 43.67971)"/><ellipse rx="1" ry="1" transform="matrix(-17.32714 -57.39027 45.60463 -13.76885 186.6 48.4)"/><ellipse cx="15" cy="49" rx="46" ry="57"/><path fill="#1e1e9b" d="M0 112h44v12H0z"/><path fill="#5e5ba6" d="M73 114h56v11H73z"/><ellipse fill="#702e26" rx="1" ry="1" transform="rotate(166.8 62.7 48.7) scale(31.82543 11.64171)"/><path fill="#184bff" d="M89.3 18.4l5.6-6.1-14-6.2 1.6 15z"/><path fill="#131c7e" d="M164 108h36v16h-36z"/><path fill="#001113" d="M102.7 86.8l14.6 15-18 17.4-14.6-15z"/><ellipse fill="#002f32" cx="94" cy="53" rx="49" ry="16"/><path fill="#00347d" d="M36.2 3.4l-7.9 16.8L46 26l-7.9 28.8z"/><path fill="#1e53ff" d="M110 6h10v12h-10z"/><path fill="#856253" d="M83.4 82.4l18.3-23-2.6 27.3-43 12.7z"/><ellipse fill="#030506" rx="1" ry="1" transform="matrix(17.80588 6.05432 -4.34874 12.78973 60 126)"/><ellipse rx="1" ry="1" transform="matrix(-10.71664 -53.01305 20.8219 -4.20917 191 60.6)"/><ellipse cx="13" cy="48" rx="20" ry="58"/><path fill="#000014" d="M62 0h16v29H62z"/><path fill="#b8227b" d="M113 83.3l4-10.3 14 5.6-4.2 10.2z"/><path fill="#3d3e72" d="M96.6 125.3l-62-19 62.2 1.7 74.1-1.8z"/><path fill="#0038ff" d="M55 10.5h6v9h-6z"/><ellipse fill="#673812" cx="64" cy="97" rx="21" ry="6"/></g></svg>