<svg xmlns="http://www.w3.org/2000/svg" viewBox="0 0 200 133"><filter id="b"><feGaussianBlur stdDeviation="12" /></filter><path fill="#3b4357" d="M0 0h200v133H0z"/><g filter="url(#b)" transform="translate(.5 .5)" fill-opacity=".5"><ellipse fill="#adb6cd" rx="1" ry="1" transform="matrix(-2.63271 -31.90553 123.2486 -10.16996 115.7 93.6)"/><ellipse cx="52" cy="23" rx="171" ry="38"/><path fill="#7e7843" d="M90 17h28v116H90z"/><ellipse fill="#010000" cx="199" cy="90" rx="144" ry="9"/><path fill="#eafaff" d="M120 66h74v16h-74z"/><ellipse cx="36" cy="28" rx="55" ry="39"/><path fill="#fff" d="M99 79L21 94l46-26z"/><ellipse cx="152" cy="14" rx="40" ry="40"/><path fill="#ffffd9" d="M121 34.9l-1 11L89 43l1-11z"/><ellipse fill="#0044fe" rx="1" ry="1" transform="rotate(-91.4 118.5 -57.4) scale(7.92241 55.05708)"/><ellipse cx="49" cy="96" rx="23" ry="6"/><path fill="#d8d7eb" d="M53 99h47v24H53z"/><ellipse fill="#ddd5e1" cx="146" cy="106" rx="29" ry="9"/><ellipse fill="#0e4aee" rx="1" ry="1" transform="matrix(-2.51957 -9.44286 75.1208 -20.0439 2.3 84.2)"/><path fill="#0a1700" d="M121 69L90 91l26-52z"/><ellipse fill="#00169f" rx="1" ry="1" transform="matrix(-53.22096 -5.21836 1.85384 -18.90695 9.1 132)"/><ellipse cx="61" cy="7" rx="41" ry="41"/><ellipse cx="185" cy="18" rx="77" ry="30"/><ellipse fill="#3359b4" rx="1" ry="1" transform="rotate(82.2 -1 151.7) scale(13.07152 45.777)"/><ellipse fill="#c3d2b1" rx="1" ry="1" transform="rotate(40.2 -44.8 158.6) scale(3.70716 31.31864)"/><path fill="#fffcce" d="M103.5 26.7l-5.2-3.1 6.2-10.3 5.2 3.1z"/><ellipse rx="1" ry="1" transform="rotate(163 10.2 23.6) scale(74.57033 20.01967)"/></g></svg>