<svg xmlns="http://www.w3.org/2000/svg" viewBox="0 0 200 133"><filter id="b"><feGaussianBlur stdDeviation="12" /></filter><path fill="#4255ac" d="M0 0h200v133H0z"/><g filter="url(#b)" transform="translate(.5 .5)" fill-opacity=".5"><ellipse fill="#001b00" rx="1" ry="1" transform="matrix(-50.75112 -192.41966 20.09537 -5.3002 21.2 84)"/><ellipse fill="#5473ff" rx="1" ry="1" transform="rotate(124.5 57.4 38.5) scale(63.74647 107.67687)"/><ellipse fill="#00e706" rx="1" ry="1" transform="matrix(19.7511 -21.68142 6.38644 5.81784 13.8 38.5)"/><ellipse fill="#ffff54" rx="1" ry="1" transform="matrix(10.65143 66.0501 -2.9276 .47211 176.1 44.6)"/><ellipse fill="#ffe5f3" cx="122" cy="112" rx="9" ry="18"/><path fill="#1781ff" d="M28 99L93-16 32-8z"/><ellipse fill="#441f21" cx="110" cy="131" rx="116" ry="9"/><ellipse fill="#1e0a6f" cx="86" cy="70" rx="33" ry="15"/><path fill="#e3afff" d="M153 121.1l-12.1-8.8 14-19.4 12.2 8.8z"/><ellipse fill="#caf9fc" cx="107" cy="36" rx="9" ry="13"/><path fill="#645410" d="M209 118l-31 1-1-25 31-1z"/><ellipse fill="#539555" cx="102" cy="108" rx="11" ry="54"/><path fill="#6050d2" d="M65.2 83.4L-7.2 85l14.5 24.2 21.8-34.1z"/><ellipse fill="#140047" cx="32" cy="118" rx="24" ry="29"/><path fill="#af84f3" d="M67 89h18v27H67z"/><ellipse fill="#192606" rx="1" ry="1" transform="matrix(-27.11193 2.61058 -2.94105 -30.544 2 -.1)"/><ellipse fill="#4029f0" cx="142" cy="12" rx="27" ry="27"/><ellipse fill="#4159fe" cx="76" cy="41" rx="28" ry="24"/><ellipse fill="#002" cx="14" cy="66" rx="15" ry="15"/><ellipse fill="#00004d" rx="1" ry="1" transform="matrix(4.306 1.4479 -6.09589 18.12885 136 108.3)"/><ellipse fill="#95f700" rx="1" ry="1" transform="rotate(-77.1 22 11.7) scale(187.80227 1)"/><path fill="#004245" d="M177.5 26.6l.3 5.3-10.4-44.7L185.8-.1z"/></g></svg>