<svg xmlns="http://www.w3.org/2000/svg" viewBox="0 0 200 122"><filter id="b"><feGaussianBlur stdDeviation="12" /></filter><path fill="#5c3c5b" d="M0 0h200v122H0z"/><g filter="url(#b)" transform="translate(.5 .5)" fill-opacity=".5"><ellipse fill="#dff2ef" rx="1" ry="1" transform="matrix(1.91802 -36.18808 65.46434 3.46971 98.7 66.6)"/><path d="M141.1 1.1l54-18.5 33.8 98.3-54 18.5z"/><ellipse fill="#000004" rx="1" ry="1" transform="matrix(41.45032 5.28723 -7.53868 59.10099 0 39.5)"/><ellipse fill="#670000" rx="1" ry="1" transform="matrix(.52228 19.48077 -170.88893 4.58153 102.5 121)"/><ellipse fill="#310071" rx="1" ry="1" transform="rotate(11 -34.9 509) scale(63.04497 22.26423)"/><ellipse fill="#0ef" cx="61" cy="58" rx="24" ry="10"/><ellipse fill="#fff" cx="87" cy="46" rx="49" ry="6"/><ellipse fill="#000003" cx="194" cy="27" rx="37" ry="66"/><ellipse fill="#a21fe3" cx="89" cy="17" rx="34" ry="8"/><ellipse fill="#c09887" cx="140" cy="72" rx="27" ry="31"/><path fill="#e19ca5" d="M53.8 69.7L13 110.1l14.5-34.8 39 32.2z"/><ellipse fill="#130522" rx="1" ry="1" transform="matrix(4.90481 24.68855 -17.61434 3.4994 138.4 17.4)"/><ellipse fill="#05052f" cx="10" cy="49" rx="32" ry="32"/><path fill="#c6e5b1" d="M149.7 60.4l-93.6 7.1L116.3 42l45 .3z"/><ellipse fill="#610001" cx="42" cy="114" rx="199" ry="12"/><ellipse fill="#000018" cx="5" rx="182" ry="10"/><path fill="#cd6fdb" d="M46 94h118v8H46z"/><path fill="#00bcf2" d="M38 50h31v17H38z"/><ellipse fill="#22bf00" cx="146" cy="49" rx="17" ry="4"/><path fill="#0b05d6" d="M155.6 68l6 .1-1.2 32-6-.2z"/><path fill="#cd8950" d="M103 87l-83-8 25-16z"/><path fill="#ffabff" d="M87 12h6v21h-6z"/></g></svg>