<svg xmlns="http://www.w3.org/2000/svg" viewBox="0 0 200 133"><filter id="b"><feGaussianBlur stdDeviation="12" /></filter><path fill="#595e62" d="M0 0h200v133H0z"/><g filter="url(#b)" transform="translate(.5 .5)" fill-opacity=".5"><ellipse fill="#cae3ff" rx="1" ry="1" transform="matrix(33.37108 3.3784 -2.6875 26.54652 48 62.5)"/><ellipse fill="#160000" cx="107" rx="50" ry="50"/><ellipse fill="#d0ffa6" rx="1" ry="1" transform="matrix(-32.39233 -40.4113 23.52982 -18.8607 150.8 127.3)"/><ellipse cx="25" cy="14" rx="130" ry="18"/><ellipse cx="189" cy="74" rx="20" ry="31"/><ellipse fill="#a8cfff" cx="186" cy="22" rx="32" ry="21"/><ellipse fill="#020000" cx="78" cy="111" rx="14" ry="29"/><ellipse fill="#f2ddd8" rx="1" ry="1" transform="matrix(8.95336 -23.28889 9.02844 3.47096 107 58)"/><ellipse fill="#2e87ff" cx="105" cy="103" rx="12" ry="30"/><ellipse fill="#d1d7ff" rx="1" ry="1" transform="rotate(96.2 50 108.5) scale(20.24595 8.17202)"/><ellipse fill="#c0bda5" cx="49" cy="111" rx="17" ry="29"/><ellipse rx="1" ry="1" transform="matrix(59.31825 -17.26247 5.93135 20.38164 0 23.7)"/><ellipse fill="#005cd6" rx="1" ry="1" transform="matrix(-5.39333 7.3217 -36.97337 -27.23544 183.5 107.7)"/><path fill="#fffffe" d="M-9.3 67.8L25.4 64 8.6 83l-11-3.7z"/><path fill="#cf9074" d="M40 29h34v21H40z"/><ellipse rx="1" ry="1" transform="rotate(-38.3 189.5 -240.7) scale(13.02164 27.8237)"/><path d="M26 88l-28 32 14-42z"/><path fill="#000003" d="M112 66h41v13h-41z"/><path fill="#fff" d="M96 38h6v16h-6z"/><path fill="#000200" d="M154 51l16-2-30-39z"/><path fill="#92ff00" d="M159 42.2l-4.2-5.7 20.3-14.7 4 5.7z"/><ellipse fill="#b53dff" cx="164" cy="15" rx="10" ry="10"/></g></svg>