<svg xmlns="http://www.w3.org/2000/svg" viewBox="0 0 200 133"><filter id="b"><feGaussianBlur stdDeviation="12" /></filter><path fill="#736a59" d="M0 0h200v133H0z"/><g filter="url(#b)" transform="translate(.5 .5)" fill-opacity=".5"><ellipse fill="#ffe8bc" rx="1" ry="1" transform="rotate(101.6 31.1 40) scale(50.16846 117.13755)"/><ellipse cx="103" cy="111" rx="198" ry="39"/><ellipse fill="#fff" cx="31" cy="29" rx="21" ry="19"/><ellipse fill="#000008" cx="25" cy="102" rx="138" ry="22"/><path fill="#5b3504" d="M26.4 10.5L-9.8 38.8l-16.6-21.3L9.8-10.8z"/><ellipse fill="#d5d6ba" cx="180" cy="59" rx="19" ry="13"/><path fill="#fff" d="M48.4 41.5l-16.6 3.2-8.2-42.2L40.2-.7z"/><ellipse fill="#774708" cx="104" rx="14" ry="21"/><ellipse fill="#0a0000" cx="157" cy="32" rx="7" ry="7"/><path fill="#d5bc98" d="M126 4L16 69l123-3z"/><path fill="#55370e" d="M96 37h16v15H96z"/><ellipse fill="#49383f" cx="135" cy="69" rx="36" ry="4"/><ellipse fill="#18130e" cx="19" cy="98" rx="30" ry="30"/><ellipse fill="#aa772d" rx="1" ry="1" transform="matrix(12.5189 -5.83766 5.18658 11.12265 66.3 13.7)"/><ellipse fill="#120a0a" rx="1" ry="1" transform="matrix(-43.56048 14.8002 -2.25943 -6.65004 180.8 82.3)"/><ellipse fill="#fffff6" rx="1" ry="1" transform="matrix(25.48555 7.49151 -3.0276 10.29964 34.2 34.6)"/><ellipse fill="#958966" rx="1" ry="1" transform="matrix(18.72744 19.69207 -22.81872 21.70093 156.8 0)"/><path fill="#5c705a" d="M150 107h27v26h-27z"/><ellipse fill="#ad8856" rx="1" ry="1" transform="matrix(21.25543 7.15324 -4.01477 11.92966 14.5 52.9)"/><path fill="#8d672e" d="M88 48.4L48.1 61.2l.5-15 39.6-1z"/><ellipse fill="#454667" rx="1" ry="1" transform="rotate(97.9 -4.2 70.2) scale(12.8924 21.45938)"/><path d="M128 103h21v27h-21z"/></g></svg>