<svg xmlns="http://www.w3.org/2000/svg" viewBox="0 0 200 133"><filter id="b"><feGaussianBlur stdDeviation="12" /></filter><path fill="#36201b" d="M0 0h200v133H0z"/><g filter="url(#b)" transform="translate(.5 .5)" fill-opacity=".5"><ellipse fill="#ff3e92" cx="162" cy="47" rx="12" ry="25"/><path fill="#d77891" d="M28 110l26-28-7-74z"/><path fill="#795c3e" d="M215 2L101 3 39 62z"/><ellipse fill="#050304" rx="1" ry="1" transform="matrix(-2.38082 28.89829 -83.31099 -6.86368 135.6 87.5)"/><ellipse fill="#000002" cy="75" rx="29" ry="83"/><path fill="#9a525e" d="M40.2 21.4l23.4 23.4-19.8 19.8-23.4-23.4z"/><path fill="#e71f60" d="M150 59h24v12h-24z"/><path fill="#e74672" d="M170 28l-3 44-22-52z"/><path fill="#ffffb9" d="M75 12l-6 3 3-10z"/><path fill="#816b70" d="M49 95l-30-3 33-21z"/><ellipse fill="#2a2310" rx="1" ry="1" transform="matrix(21.55873 -20.3782 17.81858 18.85082 182.6 4.7)"/><ellipse fill="#17160d" rx="1" ry="1" transform="matrix(21.35263 14.8386 -18.7617 26.99794 199 39.6)"/><ellipse fill="#2f1402" rx="1" ry="1" transform="rotate(99.9 17 122.2) scale(26.74908 109.4954)"/><ellipse fill="#07080b" rx="1" ry="1" transform="matrix(-11.73484 8.19994 -11.7897 -16.87211 22.9 70.4)"/><path fill="#080808" d="M118 38h34v54h-34z"/><path fill="#584f40" d="M21 30l49-15L52 5z"/><path fill="#9c5e66" d="M51.5 42.9l28.4 12.4 9.3-23.4-22.6 13.5z"/><path fill="#32435b" d="M89.3 87.2l2.6-24-20.6 8-3.2-12.7z"/><ellipse fill="#5c4a2f" cx="137" cy="22" rx="19" ry="19"/><ellipse fill="#070301" rx="1" ry="1" transform="rotate(64.5 32.5 193.2) scale(21.84205 42.26742)"/><ellipse fill="#c05" rx="1" ry="1" transform="matrix(-5.46692 -2.26538 3.44738 -8.31938 42.5 65.6)"/><path fill="#161a10" d="M53 45.4l26.6 8.3-28.6 3-1.4-12z"/></g></svg>