<svg xmlns="http://www.w3.org/2000/svg" viewBox="0 0 700 467"><filter id="b"><feGaussianBlur stdDeviation="12" /></filter><path fill="#655a4a" d="M0 0h700v464H0z"/><g filter="url(#b)" transform="translate(1.4 1.4) scale(2.73438)" fill-opacity=".5"><ellipse fill="#ffe35c" cx="13" cy="97" rx="15" ry="82"/><ellipse rx="1" ry="1" transform="matrix(26.0802 22.61227 -31.63063 36.48167 66.5 14.6)"/><ellipse fill="#faffcd" cx="190" cy="81" rx="97" ry="10"/><ellipse cx="226" cy="7" rx="43" ry="35"/><ellipse fill="#020000" cx="52" cy="130" rx="24" ry="32"/><ellipse fill="#ffcccf" cx="121" cy="167" rx="122" ry="7"/><ellipse fill="#a2c4ca" cx="161" cy="81" rx="23" ry="23"/><ellipse fill="#002f34" rx="1" ry="1" transform="matrix(11.26064 11.3342 -28.49125 28.30636 125.2 121.3)"/><ellipse fill="#f8ba6e" rx="1" ry="1" transform="matrix(-2.84698 -48.37125 10.37776 -.6108 211.1 137.5)"/><path fill="#ffb58e" d="M89.6 89.1l-20.1 44.2 31 7.5-1.7-6z"/><ellipse fill="#120300" rx="1" ry="1" transform="matrix(-28.14822 3.75567 -3.57698 -26.80896 255 143.4)"/><path fill="#89a8e6" d="M7 4h20v51H7z"/><path fill="#004440" d="M243.4 118.2l-13.7 3-15.1-71.4 13.7-3z"/><ellipse fill="#050a13" rx="1" ry="1" transform="matrix(-1.39378 -10.58302 101.09509 -13.31422 131.6 6)"/><ellipse fill="#ff713a" cx="46" cy="66" rx="10" ry="22"/><path fill="#91dca5" d="M229 54h27v43h-27z"/><path fill="#fbf7de" d="M201 43h11v44h-11z"/><ellipse fill="#521f0b" cx="143" cy="142" rx="53" ry="18"/><ellipse fill="#1f8aae" rx="1" ry="1" transform="matrix(31.01887 -4.39495 1.21494 8.57489 126 66)"/><path fill="#bcb6c2" d="M155 61h22v63h-22z"/><path fill="#dec090" d="M94.6 88.4l7.5-51.5 20.1 55.5-25.4 7.4z"/><path fill="#000c24" d="M177 83l5 70 19-58z"/></g></svg>