<svg xmlns="http://www.w3.org/2000/svg" viewBox="0 0 700 467"><filter id="b"><feGaussianBlur stdDeviation="12" /></filter><path fill="#370c14" d="M0 0h700v464H0z"/><g filter="url(#b)" transform="translate(1.4 1.4) scale(2.73438)" fill-opacity=".5"><ellipse fill="#d33892" cx="117" cy="155" rx="98" ry="14"/><ellipse fill="#ac161c" cx="41" cy="74" rx="194" ry="23"/><ellipse fill="#7999ff" rx="1" ry="1" transform="matrix(-10.53301 -3.75064 5.53734 -15.55066 184.4 -.1)"/><ellipse rx="1" ry="1" transform="rotate(6.4 -203.2 691.2) scale(128.75019 23.57029)"/><ellipse rx="1" ry="1" transform="matrix(-6.4066 135.85181 -44.7049 -2.10823 252.9 36.2)"/><ellipse fill="#b30000" cx="203" cy="73" rx="26" ry="26"/><ellipse fill="#928ceb" cx="68" cy="152" rx="63" ry="6"/><path fill="#b10000" d="M157 140h65v30h-65z"/><ellipse fill="#6d506a" cx="118" cy="78" rx="32" ry="25"/><ellipse cx="195" cy="117" rx="65" ry="24"/><path fill="red" d="M161 52h11v49h-11z"/><path fill="#000a03" d="M-16 135l45-51 127 62z"/><ellipse fill="#ff1320" rx="1" ry="1" transform="matrix(6.11974 .35286 -1.8272 31.68948 65.5 75.9)"/><ellipse fill="red" cx="20" cy="72" rx="6" ry="31"/><path fill="#00131c" d="M0 157h79v13H0z"/><path fill="#000c08" d="M72 49h13v64H72z"/><ellipse fill="red" rx="1" ry="1" transform="matrix(5.32954 -27.93844 5.8456 1.1151 43.2 68.2)"/><path fill="#000204" d="M108-16l51 52 2 77z"/><path fill="red" d="M-16 8l13 100L8 66z"/><ellipse cx="32" cy="84" rx="5" ry="54"/><path d="M50 2h9v134h-9zm127 39.8l9.9 93.5-8 .9-9.8-93.5z"/></g></svg>