<svg xmlns="http://www.w3.org/2000/svg" viewBox="0 0 200 133"><filter id="b"><feGaussianBlur stdDeviation="12" /></filter><path fill="#4f3878" d="M0 0h200v133H0z"/><g filter="url(#b)" transform="translate(.5 .5)" fill-opacity=".5"><ellipse fill="#d2a3f9" rx="1" ry="1" transform="matrix(-58.30012 -21.58277 14.04375 -37.93547 119.2 63.4)"/><ellipse cx="30" cy="132" rx="189" ry="33"/><ellipse fill="#dc7ded" cx="75" cy="82" rx="81" ry="16"/><ellipse fill="#00004b" cx="23" cy="33" rx="43" ry="43"/><ellipse fill="#000c5c" cx="199" rx="83" ry="83"/><ellipse fill="#f8f6ff" rx="1" ry="1" transform="rotate(-79.9 105.1 -75.2) scale(12.51919 14.58163)"/><ellipse fill="#ff7cff" cx="186" cy="98" rx="19" ry="14"/><path fill="#ebd9d9" d="M68 21h57v35H68z"/><ellipse cx="197" cy="27" rx="12" ry="54"/><ellipse rx="1" ry="1" transform="rotate(18.4 -373.3 281.6) scale(86.23681 25.27692)"/><ellipse fill="#000045" cx="80" cy="6" rx="199" ry="13"/><ellipse fill="#010070" cx="78" cy="59" rx="112" ry="5"/><path fill="#1b0045" d="M57 75l53 1-20 12z"/><path fill="#b180b0" d="M108 67h77v49h-77z"/><path fill="#ffb8ff" d="M65 95H35L24 61z"/><path fill="#18005d" d="M100 30h19v12h-19z"/><path fill="#f7c1ff" d="M108 66h20v38h-20z"/><path fill="#8582ff" d="M165.2 57.8l-13-22.6 22.6-13 13 22.6z"/><ellipse fill="#7f1dbc" rx="1" ry="1" transform="matrix(-46.1045 -6.89036 1.35366 -9.05754 168.9 85.3)"/><ellipse fill="#00003f" rx="1" ry="1" transform="matrix(12.73008 10.47323 -39.22007 47.6715 13.4 37.5)"/><path fill="#fff" d="M148 35h18v13h-18z"/><path fill="#201900" d="M136 108h39v25h-39z"/></g></svg>