<svg xmlns="http://www.w3.org/2000/svg" viewBox="0 0 700 467"><filter id="b"><feGaussianBlur stdDeviation="12" /></filter><path fill="#67af91" d="M0 0h700v464H0z"/><g filter="url(#b)" transform="translate(1.4 1.4) scale(2.73438)" fill-opacity=".5"><ellipse fill="#fff" rx="1" ry="1" transform="matrix(73.19881 -8.9134 2.96347 24.33666 128.7 36.8)"/><ellipse cx="57" cy="7" rx="83" ry="13"/><ellipse fill="#fff" cx="13" cy="47" rx="23" ry="23"/><ellipse cx="197" cy="129" rx="16" ry="31"/><ellipse cx="150" cy="160" rx="25" ry="21"/><path fill="#d7fff5" d="M271 55L52 33l169-46z"/><ellipse fill="#00ae4c" rx="1" ry="1" transform="matrix(-73.59137 -41.82589 21.1279 -37.17388 55.5 169)"/><path d="M224 55h32v28h-32z"/><path fill="#b55300" d="M34.5 92.6L65 87.2l8.5 48.2-30.5 5.4z"/><ellipse fill="#00160c" cx="91" cy="72" rx="28" ry="11"/><ellipse rx="1" ry="1" transform="rotate(171.9 5 39.7) scale(23.9411 8.96164)"/><ellipse fill="#004037" rx="1" ry="1" transform="matrix(-3.34416 -11.5101 27.69673 -8.04704 161.6 73.3)"/><path fill="#dbfff6" d="M130.8 114L152 5.1 123.3 76l-63.2 41.9z"/><ellipse fill="#34ffb7" cx="241" cy="126" rx="32" ry="45"/><ellipse fill="#93ffe9" cx="166" cy="110" rx="17" ry="29"/><ellipse fill="#a96e4f" rx="1" ry="1" transform="rotate(176.3 29 31.7) scale(15.87091 50.2952)"/><ellipse fill="#00212e" rx="1" ry="1" transform="matrix(-.06806 -19.91232 40.09859 -.13705 11.5 10)"/><ellipse fill="#00f58c" cx="229" rx="75" ry="12"/><ellipse fill="#fff" cx="188" cy="88" rx="12" ry="12"/><ellipse fill="#08c5b6" rx="1" ry="1" transform="rotate(92.4 -8 120.8) scale(18.90769 47.74698)"/><ellipse fill="#6a5e3e" cx="198" cy="45" rx="15" ry="28"/><path fill="#fff" d="M14 26l-30 37 77 6z"/></g></svg>