<svg xmlns="http://www.w3.org/2000/svg" viewBox="0 0 200 133"><filter id="b"><feGaussianBlur stdDeviation="12" /></filter><path fill="#4f5786" d="M0 0h200v133H0z"/><g filter="url(#b)" transform="translate(.5 .5)" fill-opacity=".5"><ellipse fill="#fff" rx="1" ry="1" transform="rotate(-89.3 107.2 -.7) scale(16.78592 78.47967)"/><ellipse fill="#000015" cx="8" cy="50" rx="20" ry="199"/><ellipse cx="118" cy="5" rx="113" ry="15"/><ellipse fill="#d5edff" rx="1" ry="1" transform="matrix(-61.91675 -15.81034 5.7642 -22.57385 83.6 91)"/><ellipse cx="150" cy="130" rx="21" ry="21"/><ellipse fill="#0a36eb" rx="1" ry="1" transform="matrix(9.6326 20.28643 -31.10106 14.7677 52.1 41.8)"/><ellipse fill="#221600" rx="1" ry="1" transform="matrix(4.952 -22.337 21.33358 4.72954 53 132)"/><path fill="#080b16" d="M206 129L163 7v85z"/><path fill="#6993ff" d="M176 42h23v51h-23z"/><path fill="#6c83ff" d="M8 41.6L5 103l-21-49.8 28.7-65.7z"/><ellipse fill="#070000" cx="132" cy="127" rx="190" ry="6"/><path fill="#fff" d="M105 98l88 26-18-26z"/><ellipse fill="#8197e7" cx="126" cy="66" rx="27" ry="27"/><path fill="#fff" d="M52.2 112l131.7-4.7L51.5 95 6.6 128.6z"/><ellipse fill="#000005" rx="1" ry="1" transform="matrix(-7.75954 -22.28272 26.91936 -9.37416 4.5 98.3)"/><ellipse fill="#00001b" rx="1" ry="1" transform="matrix(3.28182 -16.73124 126.5116 24.81512 99.4 0)"/><path d="M189 88h11v45h-11z"/><ellipse fill="#0011ab" cx="125" cy="31" rx="17" ry="17"/><path fill="#f3bed2" d="M93 16h18v12H93z"/><path fill="#3f4190" d="M52 46h49v32H52z"/><path d="M17.8 122.2l-12-.4 4.4-128 12 .4z"/><ellipse fill="#264ff4" rx="1" ry="1" transform="matrix(-6.36856 3.71088 -18.49739 -31.74493 193.2 44)"/></g></svg>