<svg xmlns="http://www.w3.org/2000/svg" viewBox="0 0 200 133"><filter id="b"><feGaussianBlur stdDeviation="12" /></filter><path fill="#5d5c50" d="M0 0h200v133H0z"/><g filter="url(#b)" transform="translate(.5 .5)" fill-opacity=".5"><ellipse fill="#e8ffff" rx="1" ry="1" transform="matrix(43.68854 1.54178 -1.51054 42.80332 43 119)"/><ellipse fill="#fff" cx="137" cy="62" rx="19" ry="39"/><ellipse cx="40" cy="10" rx="102" ry="45"/><ellipse rx="1" ry="1" transform="matrix(-22.5678 -9.562 44.85107 -105.85553 199 34.6)"/><ellipse fill="#c0faff" rx="1" ry="1" transform="matrix(1.39126 -39.84048 18.54332 .64755 50 108.8)"/><ellipse fill="#faffff" cx="197" cy="132" rx="21" ry="21"/><ellipse rx="1" ry="1" transform="matrix(-3.3327 14.89389 -103.41426 -23.14024 165 3.1)"/><ellipse fill="#ba9960" cx="106" cy="108" rx="33" ry="24"/><path fill="#dacac3" d="M82 35.4l77 34.8 5.7-28.8-1.6-7.7z"/><ellipse rx="1" ry="1" transform="matrix(-26.67736 -13.5456 24.1254 -47.51374 20.9 15.8)"/><path fill="#38aaff" d="M44 56h22v17H44z"/><ellipse fill="#f9eaf5" rx="1" ry="1" transform="matrix(8.44798 1.01926 -2.78223 23.06006 132.5 90)"/><ellipse fill="#6a4c05" cx="91" cy="73" rx="29" ry="24"/><ellipse fill="#00000d" rx="1" ry="1" transform="matrix(15.44317 -34.36103 27.56366 12.38817 195.9 68.9)"/><ellipse fill="#b06016" rx="1" ry="1" transform="matrix(31.84874 5.55554 -1.56396 8.96586 146 20.5)"/><ellipse fill="#493f28" rx="1" ry="1" transform="matrix(-19.21063 18.92296 -14.27605 -14.49308 27 63.8)"/><ellipse cx="76" cy="30" rx="12" ry="40"/><ellipse fill="#8d8740" cx="6" cy="95" rx="10" ry="34"/><ellipse fill="#aeb191" cx="97" cy="40" rx="10" ry="10"/><path fill="#1f1418" d="M133 59h22v8h-22z"/><ellipse rx="1" ry="1" transform="matrix(-24.32263 -7.91857 5.29177 -16.25418 182.1 5.5)"/><path fill="#245682" d="M33 84l31-95 2 58z"/></g></svg>