<svg xmlns="http://www.w3.org/2000/svg" viewBox="0 0 641 195"><filter id="b"><feGaussianBlur stdDeviation="12" /></filter><path fill="#3d4353" d="M0 0h641v192H0z"/><g filter="url(#b)" transform="translate(1.3 1.3) scale(2.5039)" fill-opacity=".5"><path fill="#96ffff" d="M91 36.3l1.1-33 67 2.4-1.2 33z"/><ellipse fill="#841700" cx="116" cy="54" rx="62" ry="15"/><ellipse fill="#00173a" cx="37" cy="23" rx="40" ry="40"/><ellipse fill="#001345" rx="1" ry="1" transform="matrix(35.6754 6.0981 -4.87276 28.50684 211 26)"/><path fill="#df9068" d="M219.8 53l8.5 11.8L271 78.7 175 92z"/><path fill="#fffde0" d="M98 59h15v18H98z"/><ellipse fill="#7cb7ff" cx="127" cy="15" rx="26" ry="26"/><ellipse fill="#a06f3f" rx="1" ry="1" transform="matrix(31.73483 3.75672 -1.6386 13.84206 40 70)"/><path fill="#9b0000" d="M86 1h8v48h-8z"/><path fill="#aabdc1" d="M164 56h14v16h-14z"/><ellipse fill="#680902" rx="1" ry="1" transform="matrix(15.76054 -11.22592 18.98107 26.64833 132.4 69)"/><path fill="#b80000" d="M158 1h7v45h-7z"/><path fill="#000309" d="M203.7 39.6l-11.2 27.8-22.2-9 11.2-27.8z"/><ellipse fill="#001f3a" cx="49" cy="23" rx="29" ry="44"/><ellipse fill="#002c55" cx="211" cy="15" rx="36" ry="36"/><path fill="#f7fdff" d="M138.1 25.9l-17-.5L111.8 6l23.9 9.5z"/><path fill="#49a0f4" d="M93 5h30v34H93z"/><path fill="#c9a247" d="M13 4h4v55h-4z"/><path fill="#e6f3ef" d="M221 69h19v8h-19z"/><path fill="#50a7f3" d="M94 26h62v14H94z"/><ellipse fill="#a90000" rx="1" ry="1" transform="matrix(23.89908 -4.4762 1.66422 8.88553 134 50)"/><ellipse fill="#00214c" cx="3" cy="65" rx="12" ry="74"/></g></svg>