<svg xmlns="http://www.w3.org/2000/svg" viewBox="0 0 200 133"><filter id="b"><feGaussianBlur stdDeviation="12" /></filter><path fill="#5c4165" d="M0 0h200v133H0z"/><g filter="url(#b)" transform="translate(.5 .5)" fill-opacity=".5"><ellipse cx="187" cy="57" rx="32" ry="82"/><path fill="#d0d5c8" d="M27 52l70-4-8 100z"/><ellipse fill="#ffcfff" rx="1" ry="1" transform="matrix(.17368 -16.1339 79.82353 .8593 98.3 132)"/><ellipse fill="#890dff" cx="95" cy="19" rx="54" ry="17"/><ellipse fill="#00000f" rx="1" ry="1" transform="matrix(32.93249 4.78844 -3.03827 20.89569 14.5 24.4)"/><ellipse fill="#d19a72" cx="148" cy="64" rx="30" ry="21"/><path fill="#130700" d="M56.3 78.6l5.2 24.5-57.8 12.3-5.2-24.5z"/><path fill="#d5ffff" d="M61 52h26v28H61z"/><ellipse fill="#00000a" cx="176" cy="16" rx="34" ry="34"/><ellipse fill="#140607" rx="1" ry="1" transform="matrix(-26.80961 -20.41312 5.85541 -7.69022 111 93.7)"/><ellipse fill="#000068" rx="1" ry="1" transform="matrix(-.7291 -12.64487 28.94229 -1.6688 88.3 37.8)"/><ellipse fill="#ffffd5" rx="1" ry="1" transform="rotate(9 -417 91) scale(5.44201 15.3143)"/><path fill="#e8dff4" d="M110.4 28.5L129 15l10.6 14.5L121 43z"/><path fill="#fffecf" d="M30.4 94l-.4-3.3L32 38 20.3 68.2z"/><ellipse rx="1" ry="1" transform="matrix(18.65205 43.7573 -13.55333 5.77726 192 66.6)"/><ellipse fill="#1b150f" rx="1" ry="1" transform="matrix(1.31245 -7.31833 59.3812 10.64927 46.1 107.6)"/><ellipse fill="#fda4ff" cx="58" cy="4" rx="5" ry="33"/><ellipse fill="#fff2cb" rx="1" ry="1" transform="matrix(-3.93306 -.7645 5.44024 -27.98761 43.9 68)"/><path fill="#c6f0fe" d="M73 50h40v14H73z"/><path fill="#000002" d="M50.2 66.4l5.3 20.4 3-52.7L50 57.9z"/><path d="M38 36l2 33-14 22z"/><ellipse fill="#eeb8fd" cx="51" cy="123" rx="51" ry="5"/></g></svg>