<svg xmlns="http://www.w3.org/2000/svg" viewBox="0 0 200 133"><filter id="b"><feGaussianBlur stdDeviation="12" /></filter><path fill="#97a7b3" d="M0 0h200v133H0z"/><g filter="url(#b)" transform="translate(.5 .5)" fill-opacity=".5"><ellipse fill="#fff" rx="1" ry="1" transform="rotate(-89.4 98 -.7) scale(19.52856 86.61725)"/><ellipse fill="#1b0000" rx="1" ry="1" transform="matrix(145.2236 -4.05646 .53393 19.11488 189.6 127.2)"/><path fill="#232423" d="M201.7 136.3L156 57.5l29.4-1 17.8 34.2z"/><path fill="#00002c" d="M15.7 70.8l-1.4 75-30-.6 1.4-75z"/><ellipse fill="#26110c" rx="1" ry="1" transform="matrix(33.30156 11.64904 -2.35252 6.72524 78.5 126.1)"/><ellipse fill="#fff" cx="90" cy="100" rx="50" ry="19"/><path fill="#530c00" d="M137 78l-32 4 20-32z"/><ellipse fill="#497ba7" rx="1" ry="1" transform="matrix(27.05776 4.04797 -9.0223 60.30751 174.4 20.8)"/><ellipse fill="#9ad1eb" cx="40" rx="62" ry="62"/><ellipse fill="#eae3d8" rx="1" ry="1" transform="matrix(-24.42728 33.90493 -7.98464 -5.75265 110.3 57)"/><path fill="#d6dae6" d="M171 76h11v54h-11z"/><path fill="#191603" d="M183 77h12v56h-12z"/><ellipse fill="#fff" cx="57" cy="92" rx="41" ry="15"/><path fill="#1b0a00" d="M78 119l51 20 5-21z"/><path fill="#fdffff" d="M143.1 72.6l-78.6 43 102.1-7 18.6-17z"/><ellipse fill="#3c2d2c" rx="1" ry="1" transform="matrix(-1.59217 11.66855 -32.31362 -4.40917 12.3 131)"/><path fill="#757079" d="M45 36l47 45-47-7z"/><ellipse fill="#519ad2" rx="1" ry="1" transform="matrix(-3.04535 -20.8284 42.68636 -6.24122 41.7 0)"/><ellipse fill="#ebf7ff" rx="1" ry="1" transform="matrix(22.86117 -16.36699 1.84698 2.57984 131.3 132.3)"/><path fill="#b6d3d9" d="M118-16L29 63l113-43z"/><path fill="#1f1417" d="M32.7 107.3l32.1 25.8-7-13.3 35.5 3z"/><path fill="#f9f7f5" d="M73 47l42 70 28-4z"/></g></svg>