<svg xmlns="http://www.w3.org/2000/svg" viewBox="0 0 200 133"><filter id="b"><feGaussianBlur stdDeviation="12" /></filter><path fill="#1a1719" d="M0 0h200v133H0z"/><g filter="url(#b)" transform="translate(.5 .5)" fill-opacity=".5"><ellipse fill="#75bfff" rx="1" ry="1" transform="matrix(1.37957 -22.76504 40.35856 2.44574 102 62.6)"/><ellipse fill="red" rx="1" ry="1" transform="rotate(-174.1 51.2 42.9) scale(41.76784 13.30303)"/><ellipse fill="#aeffe7" cx="120" cy="55" rx="19" ry="10"/><ellipse cx="117" cy="14" rx="199" ry="31"/><path fill="#ff0800" d="M119 82.8l-2.7 16.8L63 91.2l2.7-16.8z"/><path fill="#0055f6" d="M93 49l53 36-82-15z"/><ellipse fill="#000100" cx="29" cy="79" rx="32" ry="197"/><ellipse fill="#001500" rx="1" ry="1" transform="matrix(34.6241 -12.8826 30.80863 82.80326 184 101.3)"/><path fill="#ffb2df" d="M102 110h7v11h-7z"/><path fill="#a8e0c3" d="M81 59L62 44l19 1z"/><ellipse fill="#004af6" cx="73" cy="66" rx="11" ry="11"/><path fill="#89c4ae" d="M124.1 70.7L127 44l13 1.4-3 26.6z"/><path fill="#010400" d="M126.8 94.9L215 128l-104 20 1.6-49.3z"/><path fill="#e40a03" d="M57.7 72.3l6 27.5 49.4 2.6 6.2-14.1z"/><path fill="#0066e6" d="M112.6 75l6.3-13.5 24.5 11.4-6.3 13.6z"/><path fill="#508b20" d="M162 96l-9 23 27-36z"/><ellipse fill="#150000" rx="1" ry="1" transform="rotate(-176 42.3 60.4) scale(23.60629 24.20271)"/><ellipse rx="1" ry="1" transform="matrix(7.08038 -31.5372 194.16674 43.59215 100 0)"/><path fill="#55141b" d="M64.7 97.9l32.4 20.8L136.4 96l-25.8 5.6z"/><path fill="#0041b2" d="M60 61h46v14H60z"/><path fill="#9fd0c6" d="M93 53l29-6 19 23z"/><path fill="#ff2c07" d="M94.2 78.2l21.9 2.7-2.3 18.9L91.9 97z"/></g></svg>