<svg xmlns="http://www.w3.org/2000/svg" viewBox="0 0 700 467"><filter id="b"><feGaussianBlur stdDeviation="12" /></filter><path fill="#35405b" d="M0 0h700v464H0z"/><g filter="url(#b)" transform="translate(1.4 1.4) scale(2.73438)" fill-opacity=".5"><path fill="#fff" d="M200 65h23v66h-23z"/><ellipse fill="#e5ffff" cx="254" cy="76" rx="11" ry="54"/><ellipse fill="#000003" rx="1" ry="1" transform="rotate(-168.2 32.6 9) scale(139.97892 30.14117)"/><ellipse fill="#a4eaff" rx="1" ry="1" transform="rotate(-179.4 18.5 47.7) scale(13.53054 33.32601)"/><ellipse fill="#8b7e8c" cx="123" cy="123" rx="50" ry="51"/><ellipse fill="#090700" cx="234" cy="146" rx="25" ry="34"/><path fill="#2753f2" d="M273.7 39.7L202 73.1l-9.8-20.8L264 18.9z"/><path fill="#6293f7" d="M73 74h117v16H73z"/><path fill="#fff2e4" d="M171 88l-55-3 12-13z"/><path fill="#c3d7de" d="M89.2 163l62.1 2.5-5.8-18.2-64.1 4.1z"/><ellipse fill="#000950" rx="1" ry="1" transform="matrix(39.07742 31.4534 -6.16344 7.6574 100.3 76)"/><path fill="#232d1a" d="M171 135L-3 185l12-57z"/><path fill="#000005" d="M241 55l-33-3 36 68z"/><ellipse fill="#e5ffff" cx="212" cy="98" rx="12" ry="25"/><path d="M24.3 48.6l-10.7 76.2-10-1.4 10.8-76.2z"/><ellipse cx="56" cy="76" rx="7" ry="60"/><path fill="#002dc0" d="M188.3 94.5L98.7 58.7l100.7 5.7-22.5-1.1z"/><ellipse fill="#6ba3e1" cx="4" cy="54" rx="6" ry="31"/><path fill="#f1b1b2" d="M106 111h55v11h-55z"/><ellipse cx="97" cy="169" rx="121" ry="4"/><path fill="#e5ffd2" d="M21 130h7v23h-7z"/><ellipse fill="#acb2b9" cx="100" cy="151" rx="47" ry="5"/></g></svg>