<svg xmlns="http://www.w3.org/2000/svg" viewBox="0 0 800 533"><filter id="b"><feGaussianBlur stdDeviation="12" /></filter><path fill="#889f96" d="M0 0h800v531H0z"/><g filter="url(#b)" transform="translate(1.6 1.6) scale(3.125)" fill-opacity=".5"><ellipse rx="1" ry="1" transform="matrix(11.23087 -21.5743 88.19518 45.9115 17.3 148.5)"/><ellipse fill="#ecf3e3" cx="184" cy="68" rx="70" ry="51"/><path fill="#000b00" d="M258.3 145.6l-5.1 36.6-55.5-7.8 5.1-36.6z"/><ellipse fill="#fffff2" rx="1" ry="1" transform="rotate(-94.9 156.8 -52) scale(35.195 24.85542)"/><path d="M245 127.7l5-58.7 15 1.3-5.2 58.7z"/><ellipse fill="#2d2913" rx="1" ry="1" transform="matrix(-25.14927 17.23251 -11.32482 -16.52753 11.6 88.8)"/><ellipse fill="#1362b4" cx="26" rx="70" ry="38"/><ellipse fill="#000006" rx="1" ry="1" transform="rotate(-127.6 48.3 73.4) scale(61.65974 26.23103)"/><ellipse fill="#42705e" cx="171" cy="91" rx="30" ry="16"/><ellipse fill="#cee2d6" cx="60" cy="72" rx="25" ry="50"/><ellipse fill="#145279" rx="1" ry="1" transform="rotate(178.1 101.7 9.9) scale(14.32682 33.98651)"/><ellipse fill="#4e5c1d" rx="1" ry="1" transform="matrix(6.48311 -13.32549 33.57566 16.33522 143.2 152.4)"/><ellipse fill="#ebecda" cx="130" cy="36" rx="14" ry="91"/><ellipse fill="#fffedf" cx="220" cy="129" rx="32" ry="10"/><ellipse fill="#98d2c7" rx="1" ry="1" transform="matrix(-32.41196 -10.50893 7.69579 -23.73559 76.6 125.6)"/><ellipse fill="#68735f" cx="158" cy="140" rx="29" ry="29"/><path fill="#689fb6" d="M-16 38l29 33L144 0z"/><ellipse fill="#fff" cx="122" cy="105" rx="6" ry="27"/><path fill="#fff7ec" d="M75 21l-1 17 60-10z"/><path fill="#199088" d="M56 110h26v28H56z"/><ellipse fill="#d4dac3" rx="1" ry="1" transform="matrix(27.91447 10.49236 -1.74581 4.64466 162 155)"/><ellipse fill="#265000" rx="1" ry="1" transform="rotate(-11.9 905.4 -988.6) scale(33.3674 20.71674)"/></g></svg>