<svg xmlns="http://www.w3.org/2000/svg" viewBox="0 0 700 467"><filter id="b"><feGaussianBlur stdDeviation="12" /></filter><path fill="#4d5861" d="M0 0h700v464H0z"/><g filter="url(#b)" transform="translate(1.4 1.4) scale(2.73438)" fill-opacity=".5"><ellipse fill="#d2d6d9" rx="1" ry="1" transform="matrix(3.31224 -32.26539 49.39 5.07019 150.1 88.7)"/><path fill="#cfffff" d="M65 115L80 13l16 84z"/><ellipse fill="#000006" cx="170" cy="13" rx="215" ry="22"/><ellipse fill="#75ffff" cx="221" cy="58" rx="7" ry="40"/><ellipse fill="#0b0000" rx="1" ry="1" transform="rotate(10.3 -610.9 1355.2) scale(37.6302 24.06647)"/><ellipse fill="#caffff" cx="51" cy="58" rx="8" ry="32"/><ellipse fill="#5d240a" cy="133" rx="162" ry="25"/><ellipse fill="#b3ebff" cx="19" cy="60" rx="8" ry="43"/><ellipse fill="#79ffff" cx="250" cy="55" rx="8" ry="32"/><path fill="#8ff" d="M73 18h17v65H73z"/><ellipse fill="#dd9b8d" cx="38" cy="111" rx="19" ry="24"/><ellipse fill="#8fb9e6" cx="137" cy="165" rx="134" ry="8"/><path d="M58 0h14v99H58z"/><ellipse fill="#fff" cx="107" cy="3" rx="10" ry="9"/><ellipse fill="#000003" cx="3" cy="66" rx="6" ry="168"/><ellipse fill="#efbebd" rx="1" ry="1" transform="rotate(64.2 40 233.5) scale(27.31684 8.20242)"/><ellipse cx="35" cy="56" rx="7" ry="37"/><path fill="#000006" d="M209 8l6 84-51-95z"/><ellipse fill="#bba598" rx="1" ry="1" transform="matrix(-6.45606 -29.73309 19.01833 -4.12952 179 122)"/><path d="M90 25h11v65H90z"/><path fill="#78c3ea" d="M106 42h9v108h-9z"/><path d="M139 112h22v42h-22z"/></g></svg>