<svg xmlns="http://www.w3.org/2000/svg" viewBox="0 0 200 133"><filter id="b"><feGaussianBlur stdDeviation="12" /></filter><path fill="#374854" d="M0 0h200v133H0z"/><g filter="url(#b)" transform="translate(.5 .5)" fill-opacity=".5"><ellipse fill="#89a3a9" cx="77" cy="37" rx="36" ry="36"/><ellipse rx="1" ry="1" transform="matrix(48.9879 -19.87189 9.35291 23.05667 161.7 11)"/><ellipse fill="#ffd5d1" rx="1" ry="1" transform="matrix(5.87075 11.4894 -6.8364 3.4932 46.5 93.2)"/><ellipse fill="#0067b3" cx="99" cy="129" rx="31" ry="26"/><ellipse fill="#0a0000" cx="199" cy="68" rx="86" ry="9"/><path fill="#7fb8de" d="M166 32h29v24h-29z"/><ellipse fill="#240b01" rx="1" ry="1" transform="rotate(153.1 -4 44.5) scale(10.12538 60.33562)"/><path fill="#46d5ff" d="M145 98l39 22-7-17z"/><ellipse fill="#7493b4" rx="1" ry="1" transform="matrix(-3.52298 6.79098 -21.1273 -10.96029 165.1 86)"/><path fill="#000003" d="M-3 103.2L40.8 148l43.1-43.7-99.8 42.2z"/><path fill="#1a8eeb" d="M179.5 137l-16.8 11-35.7-42-.2-13z"/><ellipse fill="#060406" rx="1" ry="1" transform="rotate(-142.1 117.4 26.1) scale(13.69708 36.10247)"/><ellipse fill="#909e9f" rx="1" ry="1" transform="rotate(-35.2 120.1 -126) scale(12.05314 28.70002)"/><ellipse fill="#59595a" rx="1" ry="1" transform="rotate(-67.5 56.5 -10.4) scale(62.42038 14.00132)"/><path d="M194 0h6v115h-6z"/><ellipse fill="#0a110f" cx="3" cy="4" rx="14" ry="85"/><path fill="#00000a" d="M185.6 57l-2-28.7L141.2 60 193-16z"/><ellipse fill="#4a8ed4" rx="1" ry="1" transform="matrix(.59122 5.72107 -15.96354 1.64967 126.7 82.7)"/><ellipse fill="#000727" cx="103" cy="92" rx="35" ry="7"/><path fill="#ebc9c7" d="M141.4 64l-1.1-3.9 42.3-12 1.1 3.8z"/><path fill="#000a0f" d="M116 36h15v42h-15z"/><path fill="#975b50" d="M-7.9 106.7L-16 90.5l42.5-5.2L74 81.2z"/></g></svg>