<svg xmlns="http://www.w3.org/2000/svg" viewBox="0 0 700 467"><filter id="b"><feGaussianBlur stdDeviation="12" /></filter><path fill="#ada8a1" d="M0 0h700v464H0z"/><g filter="url(#b)" transform="translate(1.4 1.4) scale(2.73438)" fill-opacity=".5"><ellipse fill="#361a13" rx="1" ry="1" transform="matrix(-6.84293 45.45464 -67.82326 -10.2104 111 96.7)"/><ellipse fill="#160000" rx="1" ry="1" transform="matrix(-19.5481 -17.29448 27.52279 -31.10926 38.4 121)"/><ellipse fill="#fff" rx="1" ry="1" transform="matrix(-17.00917 -35.24181 163.96278 -79.1353 214 148.5)"/><path fill="#000200" d="M160 26.1L137.1-16 271 3 164.8 25.3z"/><ellipse fill="#fffff9" rx="1" ry="1" transform="rotate(-132.8 27 7.9) scale(41.11289 150.1876)"/><ellipse fill="#f7ffff" cx="206" cy="55" rx="71" ry="34"/><ellipse fill="#131318" cx="118" cy="37" rx="20" ry="20"/><ellipse fill="#fff" cx="83" cy="169" rx="39" ry="33"/><ellipse fill="#1d0a03" rx="1" ry="1" transform="rotate(169.9 89.6 59.5) scale(33.26631 12.11787)"/><ellipse fill="#214a00" cx="171" cy="11" rx="20" ry="20"/><ellipse fill="#eaeaec" cx="230" cy="34" rx="47" ry="25"/><path fill="#493324" d="M141 150l-53-22 107-45z"/><ellipse fill="#3e2915" rx="1" ry="1" transform="matrix(12.08637 32.1809 -15.68864 5.89228 30.3 130)"/><ellipse fill="#fcffff" rx="1" ry="1" transform="matrix(-6.77837 -22.32215 86.00207 -26.11548 201 149.8)"/><path fill="#fff" d="M-16.7 136.5l91 46.3-9.6 18.7-91-46.3z"/><path fill="#ebf4f5" d="M75.8 178.2L50 168l6-38.8 33.2-7.6z"/><ellipse fill="#000200" rx="1" ry="1" transform="matrix(-47.40404 -.82893 .1427 -8.1601 232.3 2.1)"/><path fill="#fcd6d6" d="M61 73h47v10H61z"/><path fill="#d8e3ff" d="M136.6 64L271 106 159.4 28.3 135.3-6.4z"/><path fill="#5b2008" d="M159 78l4-19-62 25z"/><ellipse fill="#525356" rx="1" ry="1" transform="rotate(54.7 8 127.5) scale(18.49798 32.24372)"/><ellipse fill="#f5f4ec" cx="45" cy="9" rx="93" ry="12"/></g></svg>