<svg xmlns="http://www.w3.org/2000/svg" viewBox="0 0 700 467"><filter id="b"><feGaussianBlur stdDeviation="12" /></filter><path fill="#6e6c7a" d="M0 0h700v464H0z"/><g filter="url(#b)" transform="translate(1.4 1.4) scale(2.73438)" fill-opacity=".5"><ellipse cx="215" cy="169" rx="61" ry="61"/><ellipse fill="#e0cbcd" cx="197" cy="54" rx="215" ry="33"/><ellipse fill="#2e0500" cx="68" cy="111" rx="22" ry="86"/><path fill="#00001a" d="M77.5 190.5h-111v-63h111z"/><ellipse fill="#fff" rx="1" ry="1" transform="matrix(-3.29078 -28.44141 21.53211 -2.49135 100.6 169)"/><ellipse fill="#002c8b" rx="1" ry="1" transform="matrix(48.92207 -3.55161 1.77704 24.47808 95 13.8)"/><ellipse fill="#d6d2ee" cx="240" cy="4" rx="34" ry="108"/><ellipse fill="#4b1200" rx="1" ry="1" transform="rotate(-83.1 147.3 -64.5) scale(54.82271 12.16918)"/><ellipse fill="#c8c5de" cx="39" cy="48" rx="22" ry="32"/><ellipse fill="#e8ebff" rx="1" ry="1" transform="matrix(-15.231 -25.10492 19.16203 -11.62549 158.7 44.3)"/><ellipse fill="#432d2c" rx="1" ry="1" transform="matrix(23.76033 -1.45324 3.41663 55.86143 143.5 138)"/><ellipse fill="#d2adb8" cx="13" cy="87" rx="26" ry="26"/><ellipse fill="#cbcae8" cx="107" cy="88" rx="10" ry="59"/><ellipse rx="1" ry="1" transform="matrix(-.36342 -20.97517 17.86612 -.30955 79.6 123.1)"/><path fill="#001777" d="M178.5-19l20.7 32-27.7 18-20.7-32z"/><path fill="#c7d0f6" d="M166 143l-9-86 22 47z"/><ellipse fill="#003994" rx="1" ry="1" transform="matrix(10.64584 13.92496 -54.7696 41.87216 21.8 4.9)"/><ellipse fill="#003179" cx="10" cy="147" rx="34" ry="34"/><ellipse fill="#572b00" cx="81" cy="92" rx="22" ry="22"/><ellipse fill="#000b52" cx="247" cy="148" rx="30" ry="30"/><path fill="#d29568" d="M193 109l39-19-15 35z"/><ellipse fill="#ab6f2b" cx="136" cy="76" rx="14" ry="27"/></g></svg>