<svg xmlns="http://www.w3.org/2000/svg" viewBox="0 0 200 133"><filter id="b"><feGaussianBlur stdDeviation="12" /></filter><path fill="#94868d" d="M0 0h200v133H0z"/><g filter="url(#b)" transform="translate(.5 .5)" fill-opacity=".5"><path fill="#fff" d="M127.3-10.9l-1.6 94-129-2.2 1.6-94z"/><ellipse fill="#490000" rx="1" ry="1" transform="rotate(177.7 45.1 55.5) scale(123.98501 27.64149)"/><ellipse fill="#00006b" rx="1" ry="1" transform="rotate(-6.4 565 -1703.4) scale(27.9886 71.34128)"/><ellipse fill="#f3ffff" cx="61" cy="36" rx="67" ry="46"/><ellipse fill="#910000" cx="135" cy="42" rx="9" ry="194"/><ellipse fill="#5d0800" cx="14" cy="111" rx="39" ry="30"/><ellipse fill="#002e78" cx="197" cy="31" rx="31" ry="84"/><ellipse fill="#9f1b00" rx="1" ry="1" transform="matrix(-61.24144 -2.56678 .58046 -13.84944 57.4 96.2)"/><ellipse fill="#98a5a4" cx="156" cy="78" rx="10" ry="158"/><ellipse fill="#fff" rx="1" ry="1" transform="matrix(-18.21554 -22.50736 19.30398 -15.623 101.5 56.3)"/><ellipse fill="#7695b1" rx="1" ry="1" transform="rotate(14.8 -142.7 115.5) scale(9.81951 29.3523)"/><ellipse fill="#fff" cx="12" cy="73" rx="115" ry="9"/><ellipse fill="#003a7b" rx="1" ry="1" transform="matrix(15.59954 14.496 -21.55068 23.19129 186.1 67.6)"/><ellipse fill="#a02200" cx="109" cy="101" rx="28" ry="19"/><ellipse fill="#ae0a00" cx="137" cy="41" rx="8" ry="49"/><ellipse fill="#506666" rx="1" ry="1" transform="rotate(-118.1 67 45) scale(23.74748 31.33828)"/><ellipse fill="#fff" rx="1" ry="1" transform="matrix(14.484 -1.34034 3.00947 32.52092 112 13)"/><ellipse fill="#fff3ea" cx="84" cy="118" rx="5" ry="9"/><path fill="#3b523d" d="M133 72h15v61h-15z"/><path fill="#caa885" d="M144.4 133l20.4-6 50.2 4-63.5-26z"/><path fill="#b9cefb" d="M72.1 141.6l-22-6.7 3.8-12.5 22 6.7z"/><ellipse fill="#dff6ff" rx="1" ry="1" transform="matrix(4.94622 -33.09591 61.87324 9.24702 63.2 16.5)"/></g></svg>