<svg xmlns="http://www.w3.org/2000/svg" viewBox="0 0 200 133"><filter id="b"><feGaussianBlur stdDeviation="12" /></filter><path fill="#3d2b1b" d="M0 0h200v133H0z"/><g filter="url(#b)" transform="translate(.5 .5)" fill-opacity=".5"><ellipse fill="#fff" cx="141" cy="24" rx="14" ry="14"/><ellipse fill="#fdebed" rx="1" ry="1" transform="matrix(9.68707 5.936 -15.43178 25.1834 38.6 51)"/><ellipse fill="#d0a655" rx="1" ry="1" transform="matrix(2.67689 25.9812 -19.53615 2.01284 6.2 19)"/><ellipse fill="#0f0000" rx="1" ry="1" transform="matrix(-58.3304 43.96016 -16.61299 -22.04365 71.6 72.4)"/><ellipse fill="#050106" rx="1" ry="1" transform="matrix(-36.67417 4.69807 -9.69875 -75.71057 157.6 115.5)"/><path fill="#ffffd3" d="M150 37L110 8l42 7z"/><path fill="#fff" d="M39.8 53.3l1 6.9-28.6 4.5-1-6.9zm11.1.8L38.7 26.7l6.4-2.8 12.2 27.4z"/><path fill="#eceaf4" d="M13.2 31.7l-29.2 36 5.3 8.6-5.3-63.8z"/><path fill="#1d0b00" d="M44.2 45.8L23.5 56l-9.7-19.7L34.5 26z"/><path fill="#9d765e" d="M135.2 70.3l-5.9 7.5 25.4 8.7-1.9-13.1z"/><path fill="#fff" d="M37.5 71.6l-7.8-18-5.4 16.6L39.5 76z"/><path d="M-.2 91.6l-5.5-19.2 27.9-8 5.5 19.2z"/><path fill="#b3885f" d="M195 43h5v44h-5z"/><path fill="#998566" d="M148 14h20v23h-20z"/><path fill="#fff" d="M50 38l-3 15-22 11z"/><ellipse fill="#530000" cx="44" cy="67" rx="10" ry="9"/><ellipse fill="#391f00" rx="1" ry="1" transform="rotate(95.8 29.8 45.9) scale(20.09846 34.31726)"/><ellipse fill="#0a0500" rx="1" ry="1" transform="matrix(-21.9858 21.53009 -16.0836 -16.42404 77 58.6)"/><path fill="#764d18" d="M-12.3-18.8L46.2-5.3l-8 34.1-58.4-13.5z"/><ellipse fill="#3b2708" cx="109" cy="29" rx="19" ry="22"/><ellipse fill="#fff" cx="42" cy="26" rx="4" ry="4"/></g></svg>