<svg xmlns="http://www.w3.org/2000/svg" viewBox="0 0 200 133"><filter id="b"><feGaussianBlur stdDeviation="12" /></filter><path fill="#321e30" d="M0 0h200v133H0z"/><g filter="url(#b)" transform="translate(.5 .5)" fill-opacity=".5"><ellipse fill="#e3c0ff" rx="1" ry="1" transform="matrix(4.75878 29.72544 -53.90923 8.63038 98.5 66)"/><ellipse rx="1" ry="1" transform="rotate(-179.6 39 55.9) scale(199 24.49484)"/><ellipse fill="#e087b8" cx="138" cy="75" rx="44" ry="13"/><path fill="#fef" d="M37 76h75v10H37z"/><ellipse cx="39" cy="35" rx="26" ry="32"/><path fill="#ff4bff" d="M57 35h20v19H57z"/><ellipse fill="#0b0000" cx="179" cy="36" rx="43" ry="43"/><path fill="#ff2fff" d="M139 62l9-24-20-3z"/><path fill="#33cfff" d="M88 36h42v25H88z"/><ellipse fill="#571164" rx="1" ry="1" transform="matrix(13.22276 11.83803 -5.84891 6.53308 136.6 65)"/><ellipse cx="98" cy="24" rx="88" ry="12"/><path fill="#ffc3d1" d="M36.5 62l4.2 1 56 12-36.3 13.8z"/><ellipse rx="1" ry="1" transform="matrix(-7.26853 10.55674 -25.32152 -17.43438 38.9 44)"/><ellipse rx="1" ry="1" transform="matrix(-123.9518 6.09407 -1.33868 -27.22836 106.2 114.8)"/><ellipse fill="#ffceff" cx="124" cy="80" rx="49" ry="4"/><path fill="#d010c5" d="M188 28h12v13h-12z"/><path fill="#d40088" d="M25.4 85.7L73 69.4 16.5 80l2.5 3.7z"/><path d="M147.6 60.2l7.3-46.4 37.5 6-7.3 46.4z"/><path fill="#eb879a" d="M163 67h13v19h-13z"/><path fill="#a70f80" d="M14 19l1 22-31-6z"/><ellipse fill="#ff21ff" cx="141" cy="44" rx="8" ry="8"/><path fill="#000839" d="M77 42l9-18v34z"/></g></svg>