<svg xmlns="http://www.w3.org/2000/svg" viewBox="0 0 200 133"><filter id="b"><feGaussianBlur stdDeviation="12" /></filter><path fill="#6c6970" d="M0 0h200v133H0z"/><g filter="url(#b)" transform="translate(.5 .5)" fill-opacity=".5"><path fill="#e3f4f7" d="M174 39L-16 2l198-18z"/><ellipse fill="#212535" rx="1" ry="1" transform="rotate(-98 112.3 -23) scale(37.02943 113.87312)"/><ellipse fill="#ff0300" rx="1" ry="1" transform="matrix(-8.1932 17.19562 -27.40437 -13.05736 0 80)"/><ellipse fill="#cd1800" rx="1" ry="1" transform="matrix(6.3941 6.62129 -14.27122 13.78156 155.8 88.4)"/><ellipse fill="#091633" rx="1" ry="1" transform="matrix(56.32588 -4.53187 .86153 10.70785 41.6 104.6)"/><ellipse fill="#3787bc" cx="98" cy="74" rx="20" ry="20"/><ellipse fill="#9facb2" cx="28" cy="19" rx="80" ry="16"/><path fill="#ff2900" d="M2 102.7l-28.3-43.6L-2 43.3l28.3 43.6z"/><path fill="#98acc1" d="M26.5 80l-17-16.7 78.8-2.5-36.4 28.3z"/><path fill="#feffff" d="M99 33h9v20h-9z"/><ellipse fill="#0e0003" cx="134" cy="97" rx="7" ry="34"/><path d="M95 67L85 36l14-8z"/><ellipse fill="#f7ffff" cx="92" cy="5" rx="28" ry="8"/><ellipse fill="#0a212b" cx="61" cy="23" rx="4" ry="50"/><path fill="#ff4604" d="M152 49l15 8 3 24z"/><ellipse fill="#99a3a3" cx="163" cy="24" rx="45" ry="24"/><path fill="#959398" d="M92 63l-1 85h30z"/><ellipse fill="#211d20" cx="122" cy="40" rx="4" ry="69"/><path fill="#002e2c" d="M178 39l-10 50 47-1z"/><ellipse fill="#05152c" rx="1" ry="1" transform="rotate(81.5 -15 92.8) scale(24.53084 11.18298)"/><path fill="#1b1a11" d="M112.7 66.3L129 46.7l-25.9-23.5 3 4.9z"/><path fill="#ff0500" d="M119 89l8-7 7 15z"/></g></svg>