<svg xmlns="http://www.w3.org/2000/svg" viewBox="0 0 200 133"><filter id="b"><feGaussianBlur stdDeviation="12" /></filter><path fill="#131329" d="M0 0h200v133H0z"/><g filter="url(#b)" transform="translate(.5 .5)" fill-opacity=".5"><ellipse fill="#7d4f5e" cx="101" cy="98" rx="42" ry="33"/><ellipse fill="#00087d" cx="92" cy="18" rx="41" ry="21"/><ellipse rx="1" ry="1" transform="matrix(38.7945 -25.1111 35.08836 54.2085 190.6 51.4)"/><ellipse rx="1" ry="1" transform="matrix(47.24326 -35.83505 38.02248 50.12706 0 46.2)"/><ellipse fill="#423d7e" cx="104" cy="127" rx="29" ry="21"/><ellipse fill="#1f249a" cx="25" cy="115" rx="20" ry="8"/><ellipse fill="#441f17" rx="1" ry="1" transform="rotate(70.7 2.9 136.3) scale(15.50573 45.2956)"/><path fill="#1f58ff" d="M123 19l-9-15-7 8z"/><path fill="#1f55ff" d="M88 4.9l5 9.9-9 4.3-5-9.9z"/><path fill="#131e7f" d="M164 107h36v16h-36z"/><ellipse fill="#00133d" rx="1" ry="1" transform="matrix(26.7249 -3.2543 4.56444 37.484 57.3 26.2)"/><path fill="#a03254" d="M112.9 77.8l23-1.6 1.2 18-23 1.6z"/><ellipse fill="#001f30" rx="1" ry="1" transform="matrix(8.51415 21.13261 -44.74868 18.02886 98.8 45.2)"/><ellipse fill="#001519" cx="98" cy="101" rx="11" ry="13"/><path fill="#9d6b59" d="M95 73l-38 27 37-12z"/><ellipse rx="1" ry="1" transform="matrix(-8.42284 -63.62626 30.51976 -4.0402 1.9 37.3)"/><ellipse cx="198" cy="42" rx="32" ry="72"/><ellipse fill="#6b5f98" cx="102" cy="119" rx="29" ry="5"/><path fill="#0043ff" d="M55 11h7v7h-7z"/><path fill="#2c1826" d="M99.9 149.1L80.4 137 94 115l19.5 12.2z"/><path fill="#0132fc" d="M75 31L64 42v-9z"/><ellipse fill="#261a12" rx="1" ry="1" transform="rotate(-155.1 34.9 34) scale(16.66321 26.48603)"/></g></svg>