<svg xmlns="http://www.w3.org/2000/svg" viewBox="0 0 200 133"><filter id="b"><feGaussianBlur stdDeviation="12" /></filter><path fill="#3b4357" d="M0 0h200v133H0z"/><g filter="url(#b)" transform="translate(.5 .5)" fill-opacity=".5"><ellipse fill="#a9b0bb" cx="110" cy="121" rx="69" ry="69"/><ellipse rx="1" ry="1" transform="rotate(-6.8 209 -863.3) scale(199 41.51016)"/><ellipse fill="#e4faff" rx="1" ry="1" transform="matrix(-.41734 -9.55865 57.05606 -2.49112 168.1 73)"/><ellipse fill="#c7e3ff" rx="1" ry="1" transform="rotate(-102.4 54.7 24.7) scale(8.98007 57.05254)"/><path fill="#e1e09e" d="M102.8 59.4l-18-12.6 18.4-26.2 18 12.6z"/><ellipse cx="44" cy="13" rx="52" ry="52"/><ellipse fill="#383200" cx="108" cy="87" rx="11" ry="37"/><ellipse fill="#b7b8d3" cx="133" cy="108" rx="178" ry="10"/><ellipse cx="158" cy="18" rx="49" ry="34"/><ellipse fill="#120500" cx="162" cy="91" rx="115" ry="8"/><ellipse fill="#0048ff" cx="190" cy="60" rx="72" ry="8"/><ellipse fill="#002fdf" rx="1" ry="1" transform="matrix(-62.2682 19.61133 -2.58234 -8.19923 5.2 82.8)"/><ellipse fill="#001da0" cy="132" rx="67" ry="19"/><path fill="#fff" d="M92 86l-50-3 52-11z"/><ellipse fill="#0f348f" cx="184" cy="129" rx="75" ry="13"/><path fill="#d1d7ff" d="M71 77L2 105l26-24z"/><path fill="#515329" d="M100 44h17v87h-17z"/><ellipse rx="1" ry="1" transform="matrix(67.8151 -15.16042 6.88989 30.81964 27 33.3)"/><path fill="#161211" d="M15.4 96L114 82.7l-55 17.4-37.8 6.2z"/><path fill="#ffcea1" d="M99 17h11v10H99z"/><ellipse cx="150" cy="18" rx="36" ry="36"/><ellipse fill="#c5d1f4" cx="151" cy="72" rx="31" ry="11"/></g></svg>