<svg xmlns="http://www.w3.org/2000/svg" viewBox="0 0 700 467"><filter id="b"><feGaussianBlur stdDeviation="12" /></filter><path fill="#b6b4af" d="M0 0h700v464H0z"/><g filter="url(#b)" transform="translate(1.4 1.4) scale(2.73438)" fill-opacity=".5"><ellipse rx="1" ry="1" transform="matrix(-4.04445 -49.19362 69.85828 -5.7434 67.7 141.7)"/><ellipse fill="#fff" cx="89" rx="102" ry="102"/><ellipse fill="#fff" rx="1" ry="1" transform="matrix(216.4493 7.18036 -1.2858 38.75987 155 27.7)"/><ellipse fill="#757864" rx="1" ry="1" transform="matrix(76.6957 -4.67875 1.57038 25.74218 107.3 86.7)"/><ellipse fill="#0c2000" rx="1" ry="1" transform="matrix(-32.16063 33.91931 -22.10418 -20.9581 96.1 138.5)"/><ellipse fill="#fff" rx="1" ry="1" transform="matrix(83.14286 10.16039 -4.93164 40.35585 213.8 31.4)"/><ellipse fill="#a16d6f" cx="193" cy="145" rx="62" ry="31"/><ellipse fill="#e4e9e6" cx="60" cy="83" rx="15" ry="49"/><ellipse fill="#0f2100" rx="1" ry="1" transform="matrix(-3.38506 15.59845 -41.39716 -8.9837 29.6 136.7)"/><ellipse fill="#fff" cx="31" cy="18" rx="52" ry="52"/><path fill="#123200" d="M25 89l16-.9 2 37-16 .8z"/><ellipse fill="#524d31" cx="172" cy="88" rx="32" ry="8"/><ellipse fill="#dcf3ff" cx="226" cy="105" rx="89" ry="10"/><ellipse fill="#9d948e" cx="125" cy="68" rx="13" ry="39"/><ellipse fill="#fff" cx="207" cy="17" rx="56" ry="56"/><path fill="#979da3" d="M-16 162.7L33 185l44.8-19.7-51-14z"/><ellipse fill="#a3aca1" rx="1" ry="1" transform="rotate(109.7 -2 62.3) scale(11.85283 46.50138)"/><path fill="#fff" d="M-16-11v95L254-16z"/><ellipse fill="#945951" cx="157" cy="78" rx="13" ry="13"/><ellipse fill="#935d5d" cx="247" cy="149" rx="7" ry="31"/><path fill="#fff" d="M180.7 13.7l-45 76.7 2.2-5L142.3 0z"/><path fill="#b59296" d="M138 166l-14-22v33z"/></g></svg>