<svg xmlns="http://www.w3.org/2000/svg" viewBox="0 0 700 467"><filter id="b"><feGaussianBlur stdDeviation="12" /></filter><path fill="#47474c" d="M0 0h700v464H0z"/><g filter="url(#b)" transform="translate(1.4 1.4) scale(2.73438)" fill-opacity=".5"><ellipse fill="#fff" rx="1" ry="1" transform="rotate(45.5 61.1 187.9) scale(19.25168 36.58212)"/><path fill="#fff" d="M85.7 19.2l-104 3.6-1.4-42 104-3.6z"/><ellipse cx="215" cy="111" rx="64" ry="64"/><ellipse fill="#d9bcaf" cx="109" cy="57" rx="25" ry="25"/><ellipse fill="#aab2d3" cx="123" cy="157" rx="27" ry="27"/><path fill="#fff" d="M220.2-2.3l3.4 23.8-19.8 2.8L200.4.5z"/><ellipse fill="#020000" cx="72" cy="57" rx="18" ry="40"/><ellipse fill="#261c13" rx="1" ry="1" transform="matrix(6.87287 22.90846 -20.96763 6.2906 35 34)"/><path fill="#decec9" d="M212 83l-11 15-37-7z"/><ellipse fill="#000404" rx="1" ry="1" transform="matrix(-37.61673 -83.26725 21.16147 -9.55988 2.4 128)"/><ellipse fill="#e8f4f2" cx="151" cy="10" rx="24" ry="26"/><ellipse rx="1" ry="1" transform="matrix(-9.60888 20.60285 -67.66493 -31.55797 216.4 156.5)"/><ellipse fill="#f5fff8" cx="1" cy="30" rx="12" ry="13"/><ellipse fill="#7f90ab" cx="255" cy="63" rx="12" ry="28"/><ellipse fill="#e1baa9" cx="114" cy="78" rx="15" ry="15"/><ellipse fill="#fff" cx="42" rx="35" ry="9"/><ellipse fill="#050100" rx="1" ry="1" transform="matrix(11.2688 21.62506 -29.04313 15.13434 255 6.5)"/><ellipse fill="#6b7880" cx="43" cy="110" rx="21" ry="31"/><path fill="#001c6f" d="M221.5 58.7l-48 1.6-1-29 48-1.6z"/><ellipse fill="#0d110f" rx="1" ry="1" transform="matrix(.68963 17.85243 -28.38688 1.09658 92.3 104.7)"/><ellipse fill="#5e687f" cx="81" cy="142" rx="35" ry="21"/><ellipse fill="#042250" rx="1" ry="1" transform="matrix(-11.86933 -43.13354 5.621 -1.54677 121.2 29.2)"/></g></svg>