<svg xmlns="http://www.w3.org/2000/svg" viewBox="0 0 700 467"><filter id="b"><feGaussianBlur stdDeviation="12" /></filter><path fill="#3b2b18" d="M0 0h700v464H0z"/><g filter="url(#b)" transform="translate(1.4 1.4) scale(2.73438)" fill-opacity=".5"><ellipse fill="#fff" rx="1" ry="1" transform="rotate(40.1 48.9 261.5) scale(21.71525 14.10555)"/><ellipse fill="#ecdfe0" rx="1" ry="1" transform="matrix(18.4087 -31.37686 14.74365 8.65005 46.7 64.9)"/><ellipse fill="#c59b4b" rx="1" ry="1" transform="rotate(-66.1 28 -4) scale(39.25807 18.83975)"/><path fill="#090000" d="M177.6 82.3L74.4 139.5l-32-57.8 103.2-57.2z"/><path fill="#fff" d="M39.3 97.4l27.3-43.8L12 78.5l21.5 4.1z"/><ellipse rx="1" ry="1" transform="rotate(-38.2 101 -24.5) scale(22.87334 8.63692)"/><ellipse cx="198" cy="153" rx="52" ry="52"/><path fill="#ffffd2" d="M184 49l-34-39 49 10z"/><ellipse rx="1" ry="1" transform="rotate(121.7 -21.8 56) scale(21.07505 69.07344)"/><path fill="#fff" d="M74 67.4l-11.1 4.7L46 32.6l11-4.7zM3.9 30.7l11.5 9.6-19.3 23-11.5-9.6z"/><ellipse fill="#000002" rx="1" ry="1" transform="matrix(5.2017 -24.61447 37.68814 7.96452 208 74)"/><path fill="#ad9778" d="M168 33h47v21h-47z"/><path fill="#88603e" d="M252.8 51.8l18.2 1-7.6 121-26.2-55.6z"/><ellipse fill="#231200" rx="1" ry="1" transform="matrix(-1.23212 -6.84782 30.70232 -5.52422 28.6 60.3)"/><path fill="#daa999" d="M174.1 108.7l6.3-6-12.4-6.9 27.4-3.2z"/><path d="M99-1l-7.6 94.6 143.9-37.9L122 65.8z"/><path fill="#452812" d="M28.8 55.3L23.3-7.4l22-2 5.4 62.8z"/><path fill="#a90906" d="M65 77l-18-4-3 24z"/><ellipse fill="#000001" cx="66" cy="22" rx="13" ry="13"/><path d="M31 81.3l4.7-1.1-12.8 18.7-30-14.1z"/><path fill="#9f7011" d="M140 101l20-22-15 51z"/></g></svg>