<svg xmlns="http://www.w3.org/2000/svg" viewBox="0 0 700 467"><filter id="b"><feGaussianBlur stdDeviation="12" /></filter><path fill="#7a7876" d="M0 0h700v464H0z"/><g filter="url(#b)" transform="translate(1.4 1.4) scale(2.73438)" fill-opacity=".5"><ellipse cx="57" cy="3" rx="90" ry="90"/><ellipse fill="#eefffe" cx="175" cy="169" rx="89" ry="89"/><ellipse fill="#e3ede3" rx="1" ry="1" transform="matrix(11.85423 -23.36932 52.64887 26.70646 71 139.8)"/><ellipse fill="#544c3a" rx="1" ry="1" transform="rotate(-177.4 81.6 40.9) scale(65.75828 30.48361)"/><ellipse fill="#00002d" cx="235" cy="50" rx="32" ry="18"/><ellipse fill="#030002" cx="8" cy="80" rx="17" ry="76"/><ellipse fill="#ccd3f8" cx="207" cy="15" rx="50" ry="22"/><ellipse fill="#0e0000" cx="69" cy="9" rx="53" ry="53"/><path fill="#fff" d="M242 103.2l-13.9-9.8L258 50.8l13.9 9.8z"/><ellipse fill="#eafbff" cx="190" cy="169" rx="81" ry="36"/><ellipse fill="#080000" rx="1" ry="1" transform="rotate(71.8 113 161.6) scale(7.87211 28.11557)"/><path fill="#5ee1ff" d="M52.5 50.3l1 20-28 1.4-1-20z"/><ellipse fill="#5668f9" cx="20" cy="84" rx="15" ry="15"/><ellipse fill="#7d716a" cx="217" cy="129" rx="20" ry="20"/><path d="M79 43h49v35H79z"/><path fill="#fff" d="M234.2 29.6L232 11.8l27.8-3.4 2.2 17.8z"/><ellipse fill="#cedcdd" cx="102" cy="134" rx="42" ry="29"/><ellipse fill="#000046" rx="1" ry="1" transform="matrix(-25.06613 15.8151 -9.88972 -15.6747 240.5 49)"/><ellipse fill="#bd7c15" rx="1" ry="1" transform="matrix(-9.37482 23.57286 -66.33788 -26.38229 18 169)"/><path fill="#131a15" d="M137 88h48v11h-48z"/><path fill="#d3e0e3" d="M135 46h19v23h-19z"/><ellipse fill="#130100" rx="1" ry="1" transform="rotate(81.3 11.5 38.9) scale(25.93053 48.586)"/></g></svg>