<svg xmlns="http://www.w3.org/2000/svg" viewBox="0 0 700 467"><filter id="b"><feGaussianBlur stdDeviation="12" /></filter><path fill="#565e5f" d="M0 0h700v464H0z"/><g filter="url(#b)" transform="translate(1.4 1.4) scale(2.73438)" fill-opacity=".5"><path d="M198 42l-225 4-1-64 225-4z"/><ellipse fill="#c9e1ff" cx="62" cy="78" rx="43" ry="38"/><ellipse fill="#c9ffa6" rx="1" ry="1" transform="rotate(57.1 -58.5 262.5) scale(71.28413 42.81849)"/><ellipse fill="#a6d0ff" cx="238" cy="29" rx="41" ry="27"/><ellipse rx="1" ry="1" transform="matrix(-24.39912 5.37748 -9.07344 -41.16871 243.1 96.3)"/><ellipse fill="#040000" rx="1" ry="1" transform="rotate(166.4 42.3 77.5) scale(16.91412 43.1351)"/><ellipse fill="#80b3ff" cx="132" cy="110" rx="12" ry="61"/><path fill="#efe3ff" d="M211 116l14-37-37-12z"/><ellipse fill="#c7c19c" cx="63" cy="148" rx="21" ry="35"/><path fill="#140000" d="M0-16l-6 73L240-3z"/><ellipse fill="#fffff9" rx="1" ry="1" transform="matrix(18.80715 -14.43123 5.4553 7.1095 6.6 98)"/><path fill="#0058d9" d="M194.5 126.3l11.3-18.9 73.7 44.3-11.3 18.9z"/><path fill="#c48661" d="M98.2 37.8l-7.5 30-38.9-9.6 7.5-30z"/><ellipse cx="255" cy="91" rx="35" ry="35"/><path d="M143 82h55v17h-55z"/><ellipse fill="#1b0000" rx="1" ry="1" transform="matrix(-19.9822 24.85079 -14.88105 -11.96566 120.2 30.9)"/><ellipse fill="#005be6" rx="1" ry="1" transform="matrix(-16.56868 -42.568 8.8061 -3.42759 131.8 142.7)"/><path fill="#0b0002" d="M3 185l29-99-48 52z"/><path fill="#ecc9a8" d="M124 52.8l-3.4 51.9 32.7-29.3-.8-19.2z"/><ellipse fill="#81f400" rx="1" ry="1" transform="rotate(-114.8 120.8 -50.7) scale(7.06378 24.40258)"/><path fill="#b19aff" d="M198.9 9.4l97-13.6 3.2 22.8-97 13.6z"/><ellipse fill="#100000" rx="1" ry="1" transform="rotate(-157.3 88.6 4.6) scale(7.84484 46.96936)"/></g></svg>