<svg xmlns="http://www.w3.org/2000/svg" viewBox="0 0 700 467"><filter id="b"><feGaussianBlur stdDeviation="12" /></filter><path fill="#7a7876" d="M0 0h700v464H0z"/><g filter="url(#b)" transform="translate(1.4 1.4) scale(2.73438)" fill-opacity=".5"><ellipse rx="1" ry="1" transform="matrix(-18.6563 -59.18333 106.2131 -33.48145 46.4 35)"/><ellipse fill="#fff" cx="173" cy="141" rx="143" ry="33"/><path fill="#00001e" d="M200.8 45.7l49.5-19 12.9 33.6-49.5 19z"/><ellipse fill="#e6f0ff" cx="229" cy="20" rx="72" ry="12"/><ellipse fill="#040000" cx="54" cy="26" rx="64" ry="27"/><ellipse fill="#f1f9ef" rx="1" ry="1" transform="matrix(-23.33976 31.84675 -15.40424 -11.28941 255 82.9)"/><ellipse fill="#290000" rx="1" ry="1" transform="matrix(2.6628 33.09547 -13.912 1.11933 4.5 130.4)"/><path fill="#87a3d4" d="M24 47h30v83H24z"/><ellipse fill="#dff8fb" rx="1" ry="1" transform="rotate(-81.8 171.3 -24.2) scale(21.7461 94.00922)"/><ellipse cx="102" cy="59" rx="30" ry="19"/><ellipse fill="#b7c5f8" rx="1" ry="1" transform="matrix(-19.33713 6.39514 -10.66743 -32.25533 186.5 14.4)"/><ellipse fill="#8d887d" cx="215" cy="121" rx="21" ry="30"/><path fill="#5864ff" d="M4 74h30v19H4z"/><path fill="#553221" d="M159 47h60v31h-60z"/><ellipse fill="#110005" rx="1" ry="1" transform="matrix(1.86045 5.26276 -20.13408 7.11764 229.6 7.2)"/><path fill="#fff" d="M260.1 22.5l-25 7.2-5.2-18.2 25-7.2z"/><ellipse rx="1" ry="1" transform="matrix(1.34592 -30.82654 19.49053 .85097 6 45.5)"/><ellipse fill="#140000" cx="43" cy="84" rx="9" ry="14"/><ellipse fill="#000042" rx="1" ry="1" transform="rotate(-128.3 129.5 -33.9) scale(12.79056 27.24125)"/><path fill="#bfc5b8" d="M19 106h95v39H19z"/><ellipse fill="#c1831a" rx="1" ry="1" transform="matrix(41.68604 8.25406 -2.47927 12.52122 20.8 158.7)"/><path fill="#918e81" d="M147 97h109v21H147z"/></g></svg>