<svg xmlns="http://www.w3.org/2000/svg" viewBox="0 0 313 195"><filter id="b"><feGaussianBlur stdDeviation="12" /></filter><path fill="#434754" d="M0 0h313v194H0z"/><g filter="url(#b)" transform="translate(.6 .6) scale(1.22266)" fill-opacity=".5"><ellipse fill="#abf8ff" rx="1" ry="1" transform="matrix(-4.27992 28.98356 -32.2486 -4.76206 126.5 54)"/><ellipse fill="#ffc3a5" rx="1" ry="1" transform="matrix(-33.80003 4.63295 -2.1238 -15.49437 225.6 125.5)"/><ellipse fill="#df745c" rx="1" ry="1" transform="rotate(85.3 -37.4 95.4) scale(17.37398 62.68283)"/><ellipse fill="#00285e" cx="10" cy="37" rx="69" ry="69"/><ellipse fill="#002e68" cx="222" cy="44" rx="50" ry="54"/><ellipse fill="#510000" cx="20" cy="150" rx="28" ry="41"/><ellipse fill="#f1fff5" rx="1" ry="1" transform="matrix(-10.06776 14.4318 -9.63715 -6.72297 101.6 127)"/><ellipse fill="#6b0000" cx="125" cy="89" rx="79" ry="9"/><path fill="#fff" d="M46 121h18v19H46z"/><ellipse fill="#612308" rx="1" ry="1" transform="matrix(30.01599 2.52476 -4.40004 52.3106 138 133.8)"/><ellipse fill="#00639e" rx="1" ry="1" transform="rotate(-23.8 52.5 -43.6) scale(31.96036 30.97815)"/><path fill="#ff0017" d="M0 119h30v18H0z"/><path fill="#61bcff" d="M96 47h60v35H96z"/><path d="M186.8 174l-1.6-30 40-2 1.6 30z"/><ellipse fill="#1d1b09" rx="1" ry="1" transform="rotate(115.9 1.5 86) scale(42.68802 8.00791)"/><ellipse fill="#001526" cx="48" cy="75" rx="31" ry="31"/><ellipse fill="#0c6ea8" rx="1" ry="1" transform="rotate(72.6 107.6 168) scale(29.65581 31.38138)"/><ellipse fill="#001730" cx="206" cy="76" rx="38" ry="24"/><path d="M94 144l-110 30 8-36zm99-39l-56 28 54-5z"/><path fill="#ffffeb" d="M111 27h31v12h-31z"/><path fill="#f0e7d0" d="M115.1 115.9L87 143.3l6-20.2 8.2-26.7z"/></g></svg>