<svg xmlns="http://www.w3.org/2000/svg" viewBox="0 0 200 133"><filter id="b"><feGaussianBlur stdDeviation="12" /></filter><path fill="#696153" d="M0 0h200v133H0z"/><g filter="url(#b)" transform="translate(.5 .5)" fill-opacity=".5"><ellipse fill="#fff" cx="90" cy="6" rx="115" ry="17"/><ellipse fill="#fffad8" rx="1" ry="1" transform="rotate(-7.2 353.3 -140.7) scale(37.70587 20.38889)"/><ellipse fill="#070000" rx="1" ry="1" transform="matrix(25.8816 3.10282 -6.0611 50.55769 58.3 90)"/><ellipse fill="#180f0b" cx="184" cy="84" rx="63" ry="63"/><ellipse fill="#fffffc" cx="122" rx="113" ry="16"/><ellipse fill="#261d12" rx="1" ry="1" transform="rotate(85.1 15.8 38) scale(11.88269 18.20173)"/><ellipse fill="#e1c88c" cx="102" cy="92" rx="21" ry="24"/><ellipse fill="#050715" cx="31" cy="80" rx="20" ry="22"/><ellipse fill="#fbf5df" rx="1" ry="1" transform="matrix(2.55191 -31.31843 11.96115 .97463 7.2 49)"/><ellipse fill="#bda170" rx="1" ry="1" transform="rotate(-27.2 315.6 -348.2) scale(25.16538 12.58054)"/><path fill="#201a1a" d="M60 26h80v25H60z"/><ellipse fill="#000004" rx="1" ry="1" transform="rotate(95.7 -59.7 66) scale(37.96473 17.2493)"/><ellipse fill="#1d1400" rx="1" ry="1" transform="matrix(-79.48064 5.54904 -1.23029 -17.62178 115.2 132)"/><path fill="#2a2c00" d="M9-16l-25 32L6 26z"/><ellipse fill="#9d8b7e" rx="1" ry="1" transform="matrix(-25.7578 50.98838 -4.20372 -2.1236 175.6 52.7)"/><ellipse fill="#917e5d" rx="1" ry="1" transform="matrix(-5.78154 -17.91149 16.8895 -5.45166 34 48.2)"/><path fill="#ffcead" d="M141 51.2l1-19 11 .6-1 19z"/><path fill="#f5f8dc" d="M10 3h24v24H10z"/><path fill="#010207" d="M156 87l23 20 36-64z"/><path fill="#40471c" d="M16 62l7-27 29-24z"/><ellipse fill="#c0a06b" rx="1" ry="1" transform="matrix(-7.47892 5.27646 -15.91061 -22.5519 32 124.2)"/><path fill="#fffffe" d="M123 32h6v10h-6z"/></g></svg>