<svg xmlns="http://www.w3.org/2000/svg" viewBox="0 0 700 467"><filter id="b"><feGaussianBlur stdDeviation="12" /></filter><path fill="#27543e" d="M0 0h700v464H0z"/><g filter="url(#b)" transform="translate(1.4 1.4) scale(2.73438)" fill-opacity=".5"><ellipse fill="#fff" cx="68" cy="87" rx="24" ry="24"/><ellipse fill="#bff7c3" rx="1" ry="1" transform="matrix(.58839 22.46968 -145.69475 3.81515 139.8 90)"/><ellipse rx="1" ry="1" transform="matrix(2.8976 -35.50824 182.39924 14.88442 97 144.7)"/><ellipse cx="7" cy="27" rx="44" ry="49"/><ellipse fill="#00875c" cx="130" rx="68" ry="68"/><path fill="#8cf1ba" d="M235.5 103.7l-5 21.4-38-8.8 5-21.4z"/><ellipse rx="1" ry="1" transform="matrix(-185.64343 -19.37996 3.9034 -37.39125 73.3 149.8)"/><ellipse fill="#ffe" cx="32" cy="92" rx="13" ry="13"/><ellipse fill="#007347" cx="255" cy="15" rx="71" ry="71"/><ellipse fill="#d4fffb" rx="1" ry="1" transform="matrix(.2637 6.29188 -58.39237 2.44737 154.1 71.9)"/><path fill="#e5ffff" d="M145 87h17v27h-17z"/><path fill="#00300b" d="M63 45l108 12L59 77z"/><ellipse cx="10" cy="27" rx="39" ry="39"/><path d="M120 173l-86 12 6-97z"/><ellipse fill="#232c1a" rx="1" ry="1" transform="rotate(83 -2 96) scale(3.74457 23.43405)"/><path fill="#000105" d="M135.6 60.9l2.3 41.6-18.6-5.7 14.7 69.7z"/><ellipse fill="#d1caa0" cx="16" cy="67" rx="5" ry="10"/><path fill="#362806" d="M171 75h85v9h-85z"/><ellipse fill="#c8b255" cx="236" cy="87" rx="8" ry="21"/><path fill="#06f49b" d="M260 84l7.6 36.2L250 124l-7.6-36.2z"/><path fill="#fff7e1" d="M51 71.8l24.5 8.9-8.6 23.5-24.4-8.9z"/><path d="M160.6 86.7l-15 .6-.2-8 15-.6z"/></g></svg>