<svg xmlns="http://www.w3.org/2000/svg" viewBox="0 0 641 195"><filter id="b"><feGaussianBlur stdDeviation="12" /></filter><path fill="#3d4353" d="M0 0h641v192H0z"/><g filter="url(#b)" transform="translate(1.3 1.3) scale(2.5039)" fill-opacity=".5"><ellipse fill="#98fcff" cx="126" cy="10" rx="32" ry="32"/><ellipse fill="#793417" cx="120" cy="63" rx="111" ry="24"/><ellipse fill="#001b3e" cx="33" cy="24" rx="45" ry="45"/><ellipse fill="#001748" rx="1" ry="1" transform="rotate(-171.9 105.6 .4) scale(37.43392 42.41539)"/><path fill="#f5f1e0" d="M99.8 59.8l16 1.4-1.6 17-16-1.4z"/><path fill="#ffe4b7" d="M219 68h31v9h-31z"/><path fill="#6dbeff" d="M94 12h61v29H94z"/><ellipse fill="#800" rx="1" ry="1" transform="matrix(.36602 -10.48132 37.7575 1.31852 127 49.5)"/><path fill="#bdeeff" d="M166 60h16v12h-16z"/><path fill="#b00" d="M158 4h7v42h-7z"/><ellipse fill="#6c2f18" cx="134" cy="1" rx="51" ry="3"/><ellipse fill="#907c59" rx="1" ry="1" transform="matrix(-3.9182 12.89644 -39.84333 -12.10522 50.7 74.2)"/><ellipse fill="#001421" cx="186" cy="47" rx="17" ry="17"/><path fill="#b80000" d="M87 3h6v41h-6z"/><path fill="#fff" d="M133.4 28l-14.6-3.4L122.6 8l14.6 3.4z"/><ellipse fill="#002f51" rx="1" ry="1" transform="rotate(-141.5 113.3 -28.1) scale(58.01746 24.47945)"/><path fill="#001224" d="M121 84l-3-24-21-19z"/><ellipse fill="#001d44" cx="49" cy="20" rx="30" ry="30"/><ellipse fill="#9d8a51" cx="14" cy="12" rx="3" ry="60"/><path fill="#5faefe" d="M132 6h25v34h-25z"/><path fill="#141a12" d="M167.6 65l15.6 27-36.7-43.3L120.4 92z"/><path fill="#c18c7f" d="M214.7 52.8L211.3 92l-24.1-10 43-21.6z"/></g></svg>