<svg xmlns="http://www.w3.org/2000/svg" viewBox="0 0 200 133"><filter id="b"><feGaussianBlur stdDeviation="12" /></filter><path fill="#374854" d="M0 0h200v133H0z"/><g filter="url(#b)" transform="translate(.5 .5)" fill-opacity=".5"><ellipse fill="#8aa2a7" rx="1" ry="1" transform="matrix(32.97 -7.30927 8.19773 36.97757 79.9 38.1)"/><ellipse cx="175" cy="7" rx="62" ry="28"/><path fill="#e8c7c4" d="M39 81h19v22H39z"/><ellipse fill="#0067b3" cx="99" cy="130" rx="29" ry="29"/><path fill="#7dabc9" d="M154.7 58.9l29.6-26.3 7.4-16.2 6 41.4z"/><ellipse fill="#0d0000" rx="1" ry="1" transform="matrix(-.34192 -8.34345 66.36376 -2.71963 179 68.5)"/><ellipse fill="#416e97" cx="155" cy="97" rx="29" ry="29"/><ellipse fill="#240d07" rx="1" ry="1" transform="matrix(11.74896 -7.60074 75.71077 117.03104 13 82.2)"/><ellipse fill="#855345" rx="1" ry="1" transform="matrix(-70.39372 24.2385 -2.68252 -7.7906 10.9 95)"/><path fill="#020719" d="M73 88h95v11H73z"/><ellipse fill="#0e0000" rx="1" ry="1" transform="rotate(114.8 51.6 122) scale(6.5364 33.46253)"/><ellipse cx="4" cy="130" rx="15" ry="15"/><path d="M194 3l21 72-22 49z"/><ellipse fill="#0c1714" rx="1" ry="1" transform="matrix(85.60763 -83.41304 19.34901 19.85808 6.5 0)"/><path d="M148 25l58-41-52 71z"/><ellipse fill="#00090f" cx="122" cy="45" rx="9" ry="35"/><path fill="#fea26a" d="M116 72l-6-28-4 30z"/><ellipse fill="#4c666f" rx="1" ry="1" transform="matrix(24.3752 7.45224 -8.11684 26.54899 46 43.6)"/><ellipse fill="#3abeff" rx="1" ry="1" transform="matrix(-12.99963 -6.33982 2.68309 -5.5016 171.7 109)"/><ellipse fill="#63a3ca" rx="1" ry="1" transform="rotate(21.8 -150.6 472.2) scale(27.14552 3.93332)"/><path fill="#3e9bfb" d="M133.2 77l1.6 14.8-12 1.3-1.6-15z"/><path fill="#dbecf9" d="M22.7 123.4L6.9 105l-22.9-2v-9.6z"/></g></svg>