<svg xmlns="http://www.w3.org/2000/svg" viewBox="0 0 200 133"><filter id="b"><feGaussianBlur stdDeviation="12" /></filter><path fill="#a3867f" d="M0 0h200v133H0z"/><g filter="url(#b)" transform="translate(.5 .5)" fill-opacity=".5"><ellipse rx="1" ry="1" transform="rotate(-59.5 128.7 -74) scale(26.70109 29.51527)"/><ellipse fill="#ffffea" rx="1" ry="1" transform="matrix(-1.29831 27.5307 -102.39273 -4.82872 41.4 10.9)"/><ellipse fill="#5b0000" cx="47" cy="74" rx="20" ry="20"/><ellipse fill="#220632" rx="1" ry="1" transform="rotate(-158.6 106.9 27.8) scale(19.44072 43.10859)"/><path fill="#fdffff" d="M156 53h26v40h-26z"/><path fill="#540d00" d="M140.4 24.3l4.8-24.5 30.4 5.9-4.8 24.5z"/><ellipse fill="#dfeeff" rx="1" ry="1" transform="rotate(-108.6 43.7 42) scale(17.74443 15.38491)"/><path fill="#fd0000" d="M52 43h13v56H52z"/><path fill="#edeaff" d="M102.6 68.9l-29.6 9-7.6-24.8 29.6-9z"/><ellipse fill="#764a28" rx="1" ry="1" transform="rotate(120.8 32.2 90.6) scale(18.75174 40.72965)"/><ellipse fill="#ffebce" rx="1" ry="1" transform="matrix(12.08828 .12922 -.4819 45.08232 132.4 12.3)"/><path d="M189 89l5-56 21 61z"/><ellipse fill="#f9d4b0" cx="12" cy="32" rx="14" ry="66"/><path d="M46 67L36 98l-9-53zm82 24l-22 8 4-56z"/><path fill="#fff0dd" d="M88-6l-9 67L7-16z"/><path fill="#343e63" d="M74 84h23v37H74z"/><path fill="#ad4429" d="M32.5 52.6l3.2-22.8 25.8 3.6-3.2 22.8z"/><path fill="#f9ebef" d="M66 47h7v59h-7z"/><path fill="#d9e8fa" d="M45 58h4v56h-4z"/><path fill="#d7e1f3" d="M154 51h19v52h-19z"/><ellipse fill="#b60ccc" cx="184" cy="70" rx="6" ry="21"/></g></svg>