<svg xmlns="http://www.w3.org/2000/svg" viewBox="0 0 700 467"><filter id="b"><feGaussianBlur stdDeviation="12" /></filter><path fill="#9b9fa9" d="M0 0h700v464H0z"/><g filter="url(#b)" transform="translate(1.4 1.4) scale(2.73438)" fill-opacity=".5"><ellipse cx="127" cy="116" rx="42" ry="68"/><ellipse fill="#fbffff" rx="1" ry="1" transform="matrix(-50.83727 4.00098 -10.43072 -132.53487 40.4 60)"/><ellipse fill="#fff" rx="1" ry="1" transform="matrix(21.94168 64.45326 -24.86797 8.46575 200 100.7)"/><ellipse fill="#000002" rx="1" ry="1" transform="matrix(-34.1035 52.71599 -22.99051 -14.87323 127.7 118.1)"/><ellipse fill="#001d90" cx="183" cy="10" rx="32" ry="32"/><ellipse fill="#00070d" cx="102" cy="89" rx="11" ry="44"/><ellipse fill="#feffef" cx="255" cy="74" rx="10" ry="77"/><path fill="#ae9f83" d="M143 100l11-91L26-16z"/><ellipse fill="#d7def0" rx="1" ry="1" transform="matrix(28.49693 18.68312 -16.92969 25.82246 197.7 136.9)"/><ellipse fill="#d2dce1" rx="1" ry="1" transform="matrix(-12.70578 -.12676 .62947 -63.0942 225 66.3)"/><ellipse fill="#00050a" rx="1" ry="1" transform="matrix(14.9684 -21.38459 24.66159 17.26217 135.8 127.9)"/><ellipse fill="#f3f3e9" rx="1" ry="1" transform="rotate(-88.3 32.9 5.2) scale(55.83013 21.29258)"/><ellipse fill="#00070e" cx="124" cy="88" rx="8" ry="30"/><ellipse fill="#fff7e2" cx="152" cy="130" rx="6" ry="6"/><path fill="#dee4f1" d="M218 111l11-63-73 54z"/><path fill="#dd8766" d="M160.5 152.7l2 26.9-25 1.7-2-26.9z"/><path fill="#9f9b8f" d="M45.6 194L14 206.2-17.6 124 14 111.8z"/><path fill="#f0e1c9" d="M123 0h26v35h-26z"/><path fill="#fff" d="M137 72l-1 29 9-25z"/><ellipse fill="#f0f3fe" rx="1" ry="1" transform="rotate(165.9 84.3 34) scale(18.93273 8.20835)"/><path fill="#d18650" d="M95 156h21v14H95z"/><path fill="#2a448a" d="M174.6 23.7L214 57.3l.1-50.6L221-16z"/></g></svg>