<svg xmlns="http://www.w3.org/2000/svg" viewBox="0 0 200 133"><filter id="b"><feGaussianBlur stdDeviation="12" /></filter><path fill="#971e60" d="M0 0h200v133H0z"/><g filter="url(#b)" transform="translate(.5 .5)" fill-opacity=".5"><ellipse fill="#ff1bff" rx="1" ry="1" transform="matrix(-22.31463 -54.60608 84.24226 -34.42537 44.8 0)"/><ellipse fill="#000d00" cx="40" cy="101" rx="23" ry="28"/><ellipse fill="#4b0e0a" rx="1" ry="1" transform="rotate(-80.8 132.5 -21.6) scale(27.22374 82.07837)"/><ellipse fill="#020c01" cx="143" cy="28" rx="23" ry="23"/><ellipse fill="#ff15ff" cx="45" rx="52" ry="52"/><ellipse fill="#406640" rx="1" ry="1" transform="rotate(80.3 78.3 135.8) scale(62.26575 37.99338)"/><ellipse fill="#ff1013" rx="1" ry="1" transform="matrix(13.092 -8.7813 22.85991 34.08173 156 84.5)"/><path fill="#ff000f" d="M61 60h93v20H61z"/><path fill="#bcd0b9" d="M163 20l52 36-29-50z"/><ellipse fill="#ff3e62" cy="82" rx="24" ry="24"/><ellipse fill="#14132b" rx="1" ry="1" transform="matrix(7.32927 13.7265 -25.71886 13.7326 104.7 95.9)"/><ellipse fill="#424656" rx="1" ry="1" transform="matrix(.16427 -13.44493 26.54398 .32431 115.8 50.4)"/><ellipse fill="#d169c5" cx="82" cy="38" rx="20" ry="20"/><path fill="#1f0006" d="M176 64h24v30h-24z"/><ellipse fill="#26000b" rx="1" ry="1" transform="rotate(3.5 88.8 2886.6) scale(45.71173 12.96951)"/><ellipse fill="#f80a49" cx="76" cy="75" rx="21" ry="21"/><ellipse fill="#ff2f45" cx="157" cy="73" rx="18" ry="26"/><path fill="#c8a98e" d="M162 69h14v19h-14z"/><ellipse fill="#00071c" cx="150" cy="110" rx="10" ry="13"/><path fill="#191629" d="M63 109L48 59 1 125z"/><ellipse fill="#ff0ae7" rx="1" ry="1" transform="matrix(85.0412 -25.2227 7.02711 23.6927 58 5.7)"/><ellipse fill="#ff3072" rx="1" ry="1" transform="rotate(176.6 18.6 27.2) scale(20.60579 11.07101)"/></g></svg>