<svg xmlns="http://www.w3.org/2000/svg" viewBox="0 0 200 133"><filter id="b"><feGaussianBlur stdDeviation="12" /></filter><path fill="#4c4550" d="M0 0h200v133H0z"/><g filter="url(#b)" transform="translate(.5 .5)" fill-opacity=".5"><ellipse fill="#7fb5dd" rx="1" ry="1" transform="rotate(10.3 -223.3 561) scale(74.79759 31.62773)"/><ellipse fill="#230000" cx="158" cy="126" rx="191" ry="29"/><path fill="#0087d1" d="M28 12h58v27H28z"/><ellipse rx="1" ry="1" transform="matrix(-67.84832 -27.82662 7.6864 -18.74138 199 17.4)"/><ellipse fill="#a26e70" cx="112" cy="70" rx="61" ry="32"/><ellipse fill="#210000" cx="10" rx="15" ry="155"/><path fill="#299ad5" d="M91 17l60.7 8.3 11 5.3L156 63z"/><path fill="#aabdc1" d="M98.4 20L62.5 55.5l-6.3-8.2 97.7 4.3z"/><path fill="#0c0105" d="M41-16L7 5l87 11z"/><path fill="#c17c61" d="M107 95.3l-117.5 10.3-.6-7 117.6-10.2z"/><ellipse fill="#7f5f69" rx="1" ry="1" transform="matrix(-58.19076 3.35301 -.27009 -4.68733 125.3 115)"/><path fill="#0383c3" d="M24 11h29v49H24z"/><ellipse fill="#1b0300" cx="191" cy="118" rx="20" ry="46"/><path fill="#97b3c4" d="M65 67L34 45l36-6z"/><ellipse fill="#310000" cx="32" cy="132" rx="35" ry="26"/><ellipse cx="158" cy="132" rx="83" ry="12"/><ellipse fill="#704541" rx="1" ry="1" transform="rotate(59.7 45.7 182) scale(27.34549 16.64562)"/><ellipse fill="#a37b8a" cx="73" cy="121" rx="8" ry="8"/><ellipse fill="#44303d" cx="71" cy="77" rx="14" ry="14"/><ellipse fill="#bc6764" cx="133" cy="75" rx="31" ry="11"/><ellipse fill="#007cbb" rx="1" ry="1" transform="matrix(-19.5695 3.21072 -.92958 -5.66583 87.1 23.5)"/><ellipse fill="#4b416f" rx="1" ry="1" transform="rotate(-92.5 73.3 -15.6) scale(7.57977 23.25154)"/></g></svg>