<svg xmlns="http://www.w3.org/2000/svg" viewBox="0 0 700 467"><filter id="b"><feGaussianBlur stdDeviation="12" /></filter><path fill="#4b4253" d="M0 0h700v464H0z"/><g filter="url(#b)" transform="translate(1.4 1.4) scale(2.73438)" fill-opacity=".5"><ellipse fill="#f7a9ff" rx="1" ry="1" transform="rotate(-127.8 42.5 68.8) scale(21.26364 39.52907)"/><ellipse fill="#cab3c2" cx="102" cy="62" rx="50" ry="28"/><ellipse fill="#0a0100" cx="217" cy="19" rx="79" ry="79"/><ellipse fill="#00001a" rx="1" ry="1" transform="matrix(-33.60004 -24.9536 35.47716 -47.77003 28 26.5)"/><ellipse fill="#a6b4af" rx="1" ry="1" transform="matrix(63.10832 -31.05314 6.8226 13.86536 247 137.2)"/><path fill="#a2a9b3" d="M134.5 174.6l-62.8-39.2 13.8-22 62.8 39.2z"/><path fill="#fff" d="M184.5 103.5l21-24.2 6 5.2-21 24.2z"/><path fill="#fdffff" d="M147.5 39L121 98.3l-11.4 3.2 24.1-61.9z"/><path fill="#0e0332" d="M73.1 46.5l43.7 61.5-55.3 3 35.8-74.8z"/><path fill="#cfebf1" d="M64 46v37l27-63z"/><path fill="#ffd290" d="M136 112h31v11h-31z"/><ellipse fill="#130029" cx="121" cy="30" rx="15" ry="20"/><ellipse fill="#120a15" rx="1" ry="1" transform="rotate(154.4 64 65.5) scale(48.32359 10.85711)"/><path fill="#000500" d="M148.8 136.3l23 .4-.6 39-23-.4z"/><path fill="#f8efe5" d="M137 61l-15 19 26 15z"/><path fill="#600900" d="M217 155h34v15h-34z"/><path fill="#0c0500" d="M185 112l37 6 47-78z"/><path fill="#e849fe" d="M83.9 124.8L76 112l18-10.8 8 12.8z"/><ellipse fill="#aa8edf" rx="1" ry="1" transform="matrix(33.3648 9.8198 -10.23846 34.7873 0 155.7)"/><path fill="#fff" d="M188.7 96.7l31.1-18 1.5 2.6-31.1 18z"/><ellipse fill="#55d2ff" rx="1" ry="1" transform="matrix(-16.09942 20.953 -5.33564 -4.09968 198.4 161.9)"/><ellipse fill="#0e1938" cx="61" cy="98" rx="34" ry="15"/></g></svg>