<svg xmlns="http://www.w3.org/2000/svg" viewBox="0 0 200 133"><filter id="b"><feGaussianBlur stdDeviation="12" /></filter><path fill="#897e7a" d="M0 0h200v133H0z"/><g filter="url(#b)" transform="translate(.5 .5)" fill-opacity=".5"><ellipse rx="1" ry="1" transform="rotate(5.7 -792.6 970.3) scale(175.94418 23.49947)"/><ellipse fill="#fff" rx="1" ry="1" transform="matrix(179.0755 17.5585 -2.23061 22.74955 99 131.3)"/><ellipse fill="#fff" cx="10" rx="41" ry="41"/><ellipse fill="#fff" rx="1" ry="1" transform="matrix(-1.45685 24.93073 -198.6611 -11.60894 106.8 0)"/><path fill="#0d0000" d="M36.9 85.8L68 62.3l27.1 36L64 121.6z"/><ellipse fill="#100000" cx="112" cy="32" rx="14" ry="14"/><ellipse fill="#fff" cx="64" cy="132" rx="142" ry="17"/><ellipse fill="#4e2e24" cx="160" cy="69" rx="36" ry="36"/><ellipse fill="#fff" cx="28" cy="132" rx="34" ry="34"/><ellipse fill="#170000" rx="1" ry="1" transform="matrix(5.62425 -12.88682 33.64737 14.68485 102.7 87.4)"/><path fill="#180000" d="M79.6 50.4L90 98.2l8.8-66 28.3 5.5z"/><path fill="#1e0400" d="M132.6 104.4l4.1-23.7 84.7 15-4.1 23.6z"/><ellipse fill="#d3dce9" rx="1" ry="1" transform="matrix(91.79434 26.67805 -5.9684 20.53618 114.2 .7)"/><ellipse fill="#634235" cx="46" cy="51" rx="26" ry="26"/><path fill="#acabab" d="M183 53h17v31h-17z"/><ellipse fill="#e9f0ee" cx="127" cy="119" rx="49" ry="12"/><path fill="#b9bab9" d="M117 61h19v14h-19z"/><ellipse fill="#441f12" rx="1" ry="1" transform="rotate(169.3 7.8 39.3) scale(49.23697 22.94493)"/><path fill="#190000" d="M51 107.2l14.7-16.4 13.3 12-14.7 16.4z"/><ellipse fill="#a89d96" rx="1" ry="1" transform="matrix(-.96236 12.50694 -14.24387 -1.096 59.4 50.4)"/><path fill="#bbb4b4" d="M22 40.1l3 .5-9 57.3-3-.5z"/><ellipse fill="#e7ebf6" cx="7" cy="13" rx="24" ry="31"/></g></svg>