<svg xmlns="http://www.w3.org/2000/svg" viewBox="0 0 200 133"><filter id="b"><feGaussianBlur stdDeviation="12" /></filter><path fill="#584b3b" d="M0 0h200v133H0z"/><g filter="url(#b)" transform="translate(.5 .5)" fill-opacity=".5"><ellipse fill="#d0e4e2" cx="133" cy="67" rx="44" ry="44"/><ellipse rx="1" ry="1" transform="rotate(168.5 52 5.6) scale(193.043 30.46545)"/><path d="M132 86h23v33h-23z"/><ellipse rx="1" ry="1" transform="matrix(24.61271 -19.062 22.02196 28.4346 0 87.6)"/><ellipse cx="199" cy="86" rx="28" ry="28"/><ellipse fill="#ffd3ac" rx="1" ry="1" transform="matrix(-54.39129 -1.95703 .31695 -8.809 36 130.9)"/><ellipse fill="#fff" cx="78" cy="86" rx="7" ry="14"/><ellipse fill="#c76500" rx="1" ry="1" transform="rotate(-24.2 152.5 -77.8) scale(31.21198 22.19345)"/><ellipse fill="#8b622e" rx="1" ry="1" transform="matrix(12.1093 -.3171 1.2345 47.14398 162.5 32)"/><ellipse fill="#ffcb86" rx="1" ry="1" transform="matrix(4.6369 28.42323 -6.97022 1.1371 173.6 45.1)"/><ellipse fill="#fff" cx="40" cy="88" rx="7" ry="13"/><ellipse cx="57" cy="77" rx="5" ry="43"/><path fill="#fff" d="M111.1 74l19 1-1.2 23-19-1z"/><ellipse cx="56" cy="9" rx="103" ry="25"/><path d="M176 35l24 52-17-103z"/><path fill="#ffca4f" d="M193 13h7v47h-7z"/><path d="M153.7 9.7l8-.4 2.6 49-8 .4z"/><ellipse fill="#afc2c3" rx="1" ry="1" transform="matrix(11.33107 -17.02645 34.1905 22.7537 128.9 58.3)"/><ellipse fill="#ffd157" cx="66" cy="53" rx="5" ry="29"/><ellipse rx="1" ry="1" transform="matrix(8.92975 17.04352 -8.72753 4.57268 60 98.4)"/><ellipse rx="1" ry="1" transform="rotate(112.5 -29.8 54.6) scale(12.33217 31.9425)"/><ellipse cy="49" rx="17" ry="72"/></g></svg>