<svg xmlns="http://www.w3.org/2000/svg" viewBox="0 0 700 467"><filter id="b"><feGaussianBlur stdDeviation="12" /></filter><path fill="#95a7b0" d="M0 0h700v464H0z"/><g filter="url(#b)" transform="translate(1.4 1.4) scale(2.73438)" fill-opacity=".5"><ellipse fill="#fff" rx="1" ry="1" transform="matrix(102.31507 5.13777 -1.2026 23.94895 119.7 124.2)"/><ellipse cx="244" cy="154" rx="13" ry="71"/><ellipse fill="#2c160e" cx="109" cy="161" rx="199" ry="12"/><ellipse fill="#001142" cx="5" cy="127" rx="15" ry="40"/><ellipse fill="#4b7596" cx="255" cy="39" rx="78" ry="78"/><ellipse fill="#fff" cx="124" cy="123" rx="109" ry="22"/><path fill="#4b0600" d="M132 106l28-39 15 32z"/><path fill="#fff" d="M31 150l35 22 1-23z"/><ellipse fill="#a0ccde" cx="52" cy="37" rx="185" ry="35"/><path fill="#fffff9" d="M110 79h31v74h-31z"/><ellipse fill="#1b0b02" rx="1" ry="1" transform="matrix(1.03152 9.32143 -45.04323 4.98455 134 161.2)"/><ellipse fill="#4ea0d9" cx="50" cy="6" rx="57" ry="21"/><path d="M63 154l-8-12 44 9z"/><path fill="#fffffb" d="M203.4 105.5l-28.6-30.3 5.8 73.2-93.9 4.3z"/><path fill="#fff" d="M203.7 136.5L184 153.8l16.4-4.4-56 35.6z"/><path fill="#100a1c" d="M109 54h31v7h-31z"/><ellipse fill="#414d67" cx="213" cy="85" rx="20" ry="21"/><path d="M221 142.4l-65.2 15-.9-3.8 65.3-15z"/><ellipse fill="#133976" rx="1" ry="1" transform="matrix(-.47542 -5.5455 61.20041 -5.24673 6 100.4)"/><ellipse fill="#2b270c" cx="242" cy="130" rx="10" ry="38"/><path fill="#675f62" d="M56 90l2-28 64 44z"/><ellipse fill="#3b90c8" rx="1" ry="1" transform="matrix(.54857 -30.07162 46.2331 .84339 211.9 1.8)"/></g></svg>