<svg xmlns="http://www.w3.org/2000/svg" viewBox="0 0 200 133"><filter id="b"><feGaussianBlur stdDeviation="12" /></filter><path fill="#494884" d="M0 0h200v133H0z"/><g filter="url(#b)" transform="translate(.5 .5)" fill-opacity=".5"><ellipse cx="14" cy="12" rx="53" ry="88"/><ellipse fill="#6d66fa" cx="167" cy="62" rx="75" ry="46"/><path fill="#e2d8c8" d="M33 94h64v32H33z"/><ellipse fill="#1037cb" cx="72" cy="38" rx="31" ry="26"/><path fill="#b84600" d="M128.3 148l20.4-22.5-99-2-65.7 5z"/><path fill="#8644ff" d="M215 71.5l-50.3-2.2-11.2-39.6L173.8-1z"/><path fill="#120000" d="M79 138l-37 8 31-48z"/><ellipse fill="#0d1414" rx="1" ry="1" transform="rotate(84.5 44.1 53.2) scale(10.89633 125.96195)"/><ellipse fill="#5c6962" cx="138" cy="100" rx="34" ry="34"/><path fill="#96ffbe" d="M121 126h79v7h-79z"/><ellipse fill="#ff6fae" cx="115" cy="55" rx="19" ry="7"/><ellipse fill="#000010" cx="199" cy="4" rx="15" ry="27"/><ellipse fill="#ece7ce" rx="1" ry="1" transform="matrix(2.98452 -.34532 5.48219 47.38116 83.5 105.5)"/><ellipse fill="#003bbe" rx="1" ry="1" transform="matrix(29.02811 -4.51667 2.18413 14.03712 132 31)"/><path fill="#f4ebd5" d="M118 86h15v17h-15z"/><path fill="#dfe8ff" d="M21.7 116.6l-10.2-11 8.8-8.2 10.2 11z"/><ellipse fill="#02041c" cx="5" cy="50" rx="41" ry="41"/><path fill="#310900" d="M60.9 128.5l-7.5 28-78.3-21 7.5-28z"/><path fill="#2500e6" d="M185 21h15v74h-15z"/><path fill="#c9c6d2" d="M156 97h44v11h-44z"/><ellipse fill="#f9ffff" cx="86" cy="113" rx="11" ry="11"/><path fill="#f5ffff" d="M59.1 122.7l-8-.4 1.8-33 8 .4z"/></g></svg>