<svg xmlns="http://www.w3.org/2000/svg" viewBox="0 0 200 133"><filter id="b"><feGaussianBlur stdDeviation="12" /></filter><path fill="#6c5a76" d="M0 0h200v133H0z"/><g filter="url(#b)" transform="translate(.5 .5)" fill-opacity=".5"><ellipse fill="#fdfcd4" rx="1" ry="1" transform="rotate(115.3 33.3 108.5) scale(34.19188 22.9845)"/><ellipse rx="1" ry="1" transform="matrix(-16.5608 48.64702 -14.81963 -5.04501 50.8 4.2)"/><ellipse fill="#060040" rx="1" ry="1" transform="matrix(2.12396 19.1438 -112.99752 12.5368 177.4 46.5)"/><path fill="#fff" d="M53 26h30v24H53z"/><ellipse fill="#4a62ff" rx="1" ry="1" transform="rotate(105.4 -14.4 19) scale(40.02486 30.92642)"/><path fill="#fff" d="M109 97.7L91.4 114 73 94.3 90.6 78z"/><ellipse fill="#c8cda6" rx="1" ry="1" transform="rotate(-157.2 17.8 44) scale(30.00854 23.93171)"/><ellipse rx="1" ry="1" transform="matrix(42.92368 13.94675 -3.50573 10.78952 74.3 17)"/><ellipse cx="114" cy="106" rx="18" ry="12"/><path fill="#e9e1d2" d="M43.8 108l34 1.1-1.6 43-34-1.2z"/><path fill="#080f00" d="M91 131L42 89l23-17z"/><path fill="#180000" d="M170 129.7l12.6-42.5 22.2.2L215 73.3z"/><path fill="#bcbba5" d="M146.7 100.5l-61 1-.4-28 61-1z"/><ellipse fill="#9f0000" rx="1" ry="1" transform="matrix(3.7375 8.35529 -29.12033 13.02615 10.4 129.6)"/><ellipse fill="#e0e3c2" rx="1" ry="1" transform="matrix(20.17063 6.4571 -1.89934 5.93314 102.5 124.3)"/><ellipse fill="#8340bd" rx="1" ry="1" transform="matrix(-26.40096 7.12353 -6.66443 -24.69948 128.6 15)"/><path fill="#fff" d="M146.8 115.5l-24-17.4 13.6-8.2 33.9 20z"/><path fill="#00030c" d="M129.7 91.5l-32 29.1 30.4-64.3-11.5 26.5z"/><path d="M30 3h22v49H30z"/><ellipse fill="#230418" cx="181" cy="54" rx="67" ry="13"/><ellipse fill="#5e50d7" cx="104" cy="53" rx="9" ry="26"/><ellipse fill="#fff" rx="1" ry="1" transform="rotate(15.8 -95.2 262.5) scale(16.09759 5.67609)"/></g></svg>