<svg xmlns="http://www.w3.org/2000/svg" viewBox="0 0 700 467"><filter id="b"><feGaussianBlur stdDeviation="12" /></filter><path fill="#394355" d="M0 0h700v464H0z"/><g filter="url(#b)" transform="translate(1.4 1.4) scale(2.73438)" fill-opacity=".5"><ellipse fill="#96a6c7" rx="1" ry="1" transform="matrix(-7.81258 -52.84742 171.2292 -25.31328 113.3 133.4)"/><ellipse rx="1" ry="1" transform="matrix(1.63143 66.98587 -240.62793 5.86044 92 11)"/><ellipse fill="#cdd68b" rx="1" ry="1" transform="rotate(141.8 55.3 51) scale(23.01309 18.0719)"/><ellipse fill="#fff" cx="184" cy="95" rx="35" ry="11"/><ellipse fill="#050000" rx="1" ry="1" transform="matrix(-186.80423 5.20775 -.27183 -9.75083 229.7 114.2)"/><ellipse cx="53" cy="26" rx="63" ry="63"/><path fill="#fff" d="M45 95h76v16H45z"/><ellipse fill="#000069" cy="169" rx="88" ry="20"/><ellipse cx="204" rx="68" ry="68"/><path fill="#ddd9df" d="M64 127h64v30H64z"/><ellipse fill="#0050fe" rx="1" ry="1" transform="rotate(-92.3 152.9 -73.4) scale(11.0182 76.65709)"/><path fill="#4a4b07" d="M123 55h27v84h-27z"/><path fill="#d4ccd5" d="M153 153l113-15-115-16z"/><ellipse fill="#002ed4" rx="1" ry="1" transform="matrix(64.4472 -13.91568 2.58114 11.95396 29.3 96.7)"/><ellipse fill="#d5e3ff" cx="239" cy="96" rx="88" ry="8"/><path fill="#0b0500" d="M36.7 122l100-17-36.2 18.8-86 12z"/><ellipse fill="#c7b888" rx="1" ry="1" transform="matrix(-6.36142 -.8509 5.17585 -38.69486 130.3 54.8)"/><ellipse fill="#c9daff" rx="1" ry="1" transform="matrix(-50.08376 8.13256 -.60944 -3.7532 34 117.3)"/><path d="M103.2 65.9l25.7-11 4 9.2-25.8 11z"/><ellipse cx="19" cy="63" rx="89" ry="22"/><path fill="#140c00" d="M195 105h61v22h-61z"/><path fill="#081e0a" d="M154.1 96.2l-20-1.4 1.8-25 20 1.4z"/></g></svg>