<svg xmlns="http://www.w3.org/2000/svg" viewBox="0 0 700 467"><filter id="b"><feGaussianBlur stdDeviation="12" /></filter><path fill="#706a59" d="M0 0h700v464H0z"/><g filter="url(#b)" transform="translate(1.4 1.4) scale(2.73438)" fill-opacity=".5"><ellipse fill="#06172b" cx="95" cy="110" rx="142" ry="44"/><ellipse fill="#f2ffff" cx="249" cy="83" rx="16" ry="253"/><ellipse fill="#ebb665" cx="116" cy="30" rx="90" ry="40"/><ellipse fill="#00082a" cx="213" cy="150" rx="18" ry="103"/><ellipse fill="#eff5f8" cx="50" cy="81" rx="8" ry="23"/><ellipse rx="1" ry="1" transform="matrix(-16.64191 -4.06166 5.34099 -21.88373 145.6 159)"/><ellipse fill="#f5f2a0" rx="1" ry="1" transform="matrix(10.09643 -31.39134 20.0603 6.45201 238 18.8)"/><ellipse fill="#ecf8ff" rx="1" ry="1" transform="matrix(6.26124 -.4137 1.99691 30.2231 89.6 86)"/><ellipse fill="#dcb678" rx="1" ry="1" transform="rotate(3 -2903.6 74.8) scale(27.30896 42.20098)"/><ellipse fill="#f9cc9b" cx="177" cy="142" rx="12" ry="40"/><ellipse fill="#facf8b" rx="1" ry="1" transform="matrix(9.27984 .73533 -3.52742 44.51586 113.2 154.5)"/><ellipse fill="#001f3d" rx="1" ry="1" transform="matrix(-16.48783 .97956 -2.14289 -36.06891 223.1 85.8)"/><ellipse fill="#e6f7f8" cx="245" cy="150" rx="17" ry="45"/><ellipse fill="#000c1a" cx="28" cy="93" rx="22" ry="22"/><ellipse fill="#bcc7de" rx="1" ry="1" transform="matrix(-7.04243 1.20769 -4.42894 -25.82656 204.5 53.1)"/><ellipse fill="#000b1a" rx="1" ry="1" transform="rotate(27.5 -231.2 211.3) scale(38.22487 21.25351)"/><ellipse fill="#0080e6" rx="1" ry="1" transform="matrix(12.0673 .80035 -1.03508 15.60654 255 53.4)"/><ellipse fill="#6d3f00" cx="14" cy="12" rx="28" ry="28"/><path fill="#472900" d="M176 38l38-17-48-9z"/><ellipse fill="#cec8d6" cx="132" cy="56" rx="35" ry="9"/><path fill="#f4d2d1" d="M141 136l-16.1-9.7 26.5-4.5-2.3 11.5z"/><ellipse fill="#caa897" cx="22" cy="51" rx="33" ry="14"/></g></svg>