<svg xmlns="http://www.w3.org/2000/svg" viewBox="0 0 200 133"><filter id="b"><feGaussianBlur stdDeviation="12" /></filter><path fill="#b9a392" d="M0 0h200v133H0z"/><g filter="url(#b)" transform="translate(.5 .5)" fill-opacity=".5"><ellipse fill="#62503c" cx="53" cy="132" rx="56" ry="56"/><ellipse fill="#fff" cx="189" cy="115" rx="36" ry="36"/><ellipse fill="#feffff" rx="1" ry="1" transform="matrix(20.5864 -21.48693 40.18043 38.49646 101.7 0)"/><ellipse fill="#c6872d" cx="173" cy="17" rx="29" ry="44"/><ellipse fill="#001742" rx="1" ry="1" transform="rotate(-36.8 70 -88.2) scale(6.79638 23.8062)"/><ellipse fill="#efffff" rx="1" ry="1" transform="matrix(-6.84823 5.07248 -9.81975 -13.25742 63.4 86.3)"/><path fill="#0e1c24" d="M47 84h17v49H47z"/><ellipse fill="#ddd1fa" cx="19" cy="14" rx="19" ry="35"/><ellipse fill="#521e00" rx="1" ry="1" transform="matrix(-14.8326 1.78104 -3.82039 -31.8163 199 2.9)"/><ellipse fill="#f4be73" cx="168" cy="65" rx="24" ry="40"/><path fill="#fff" d="M123.6 86l-6.3 9.1-18.9-13.2 6.3-9z"/><ellipse fill="#f9ffff" rx="1" ry="1" transform="rotate(-173.8 102.5 50.2) scale(12.18686 101.8265)"/><path fill="#d6ddea" d="M59 89l22-60-6 119z"/><ellipse fill="#a2885b" cx="16" cy="123" rx="39" ry="39"/><path fill="#6b2918" d="M70.4 103.7l6.5 14.1 20.9 22.5 32-2.4z"/><ellipse fill="#000a15" rx="1" ry="1" transform="matrix(-9.8691 -21.0041 6.5376 -3.0718 52.3 101)"/><path fill="#ebffff" d="M118.1-2.5l-5.2 22.4L38 2.5l5.2-22.4z"/><path fill="#916a52" d="M100 57l43 25-50-68z"/><path fill="#ede2ff" d="M50.2 37.4l-2.4 34-10-.8 2.4-34z"/><ellipse fill="#735b79" cx="57" cy="54" rx="9" ry="21"/><ellipse fill="#945446" rx="1" ry="1" transform="matrix(10.4482 26.32334 -15.36828 6.09994 93 106.4)"/><ellipse fill="#664722" rx="1" ry="1" transform="rotate(71.3 -67.5 53.8) scale(39.47626 5.65496)"/></g></svg>