<svg xmlns="http://www.w3.org/2000/svg" viewBox="0 0 200 133"><filter id="b"><feGaussianBlur stdDeviation="12" /></filter><path fill="#998b85" d="M0 0h200v133H0z"/><g filter="url(#b)" transform="translate(.5 .5)" fill-opacity=".5"><ellipse fill="#150b03" cx="134" cy="94" rx="130" ry="17"/><ellipse fill="#e4e6e5" rx="1" ry="1" transform="matrix(.4806 -43.09406 123.94528 1.38227 84 14.5)"/><path fill="#440300" d="M165 62l13 66 37-105z"/><path d="M15 91h23v29H15z"/><ellipse fill="#f6baff" cx="7" cy="68" rx="8" ry="52"/><ellipse fill="#d4bc98" rx="1" ry="1" transform="matrix(-67.23847 -4.49324 1.31257 -19.64172 104 122.4)"/><path fill="#000e3c" d="M87.6 61.3L81 108 62.2 70.2 99 24.4z"/><ellipse fill="#7b3e21" rx="1" ry="1" transform="matrix(2.40732 -8.95835 20.0216 5.38028 41 30.4)"/><path fill="#ede0cd" d="M147 0h23v85h-23z"/><ellipse fill="#131818" rx="1" ry="1" transform="matrix(20.67043 24.12857 -10.58249 9.0658 141.3 86.5)"/><ellipse fill="#b7800f" cx="199" cy="34" rx="25" ry="25"/><path fill="#fff" d="M84 76l12-15-2 40z"/><path d="M108 104L95 60h13z"/><path fill="#fff7e7" d="M110 46h7v63h-7z"/><path fill="#fff" d="M53 69h10v23H53z"/><ellipse fill="#e8f0f3" rx="1" ry="1" transform="matrix(-58.75233 7.05099 -2.65303 -22.10635 92 0)"/><ellipse fill="#5170a1" cx="98" cy="32" rx="32" ry="9"/><path fill="#241e1c" d="M34 63h16v51H34z"/><path d="M180 16h10v15h-10z"/><path fill="#060000" d="M175 63l-10 46 28 10z"/><path d="M14 90l29 24-30 4z"/><path fill="#fff" d="M127 63.2l8.9 1.9-3 13.7-8.8-1.9z"/></g></svg>