<svg xmlns="http://www.w3.org/2000/svg" viewBox="0 0 641 195"><filter id="b"><feGaussianBlur stdDeviation="12" /></filter><path fill="#3d4353" d="M0 0h641v192H0z"/><g filter="url(#b)" transform="translate(1.3 1.3) scale(2.5039)" fill-opacity=".5"><path fill="#92fbff" d="M156-16.5v57H96v-57z"/><ellipse fill="#00153c" cx="38" cy="15" rx="42" ry="42"/><ellipse fill="#793214" cx="112" cy="61" rx="100" ry="22"/><ellipse fill="#001647" cx="211" cy="20" rx="38" ry="38"/><path fill="#fffffc" d="M99 54l25 33-29 1z"/><path fill="#6dbaff" d="M95 6h60v34H95z"/><path fill="#d58d64" d="M262.1 76.7l-10.6 22.7L200 75.3l10.6-22.7z"/><path fill="#a0cbe7" d="M163 61h20v12h-20z"/><ellipse fill="#8d0000" rx="1" ry="1" transform="matrix(36.80129 .73867 -.19869 9.89876 129.6 49.5)"/><path fill="#f8c78c" d="M66 63.7l6 18-20 6.6-6-18z"/><ellipse fill="#001e39" cx="47" cy="35" rx="31" ry="31"/><path fill="#fff" d="M115 13h22v13h-22z"/><ellipse fill="#8f0000" cx="90" cy="30" rx="4" ry="32"/><ellipse fill="#c40000" cx="160" cy="26" rx="3" ry="23"/><ellipse fill="#001427" cx="188" cy="39" rx="14" ry="31"/><ellipse fill="#001e50" cy="15" rx="12" ry="121"/><ellipse fill="#003451" rx="1" ry="1" transform="rotate(50.4 97.9 239.7) scale(72.42212 32.52918)"/><ellipse fill="#753015" cx="125" rx="48" ry="4"/><path fill="#8ea190" d="M43.7 82.4L31.9 49l-5.5 23 38 19.9z"/><path fill="#f6fff5" d="M220 67l17 25-1-24z"/><path fill="#22180f" d="M146 53L97 90l107 2z"/><ellipse fill="#004674" rx="1" ry="1" transform="matrix(-2.11259 -13.45603 41.62465 -6.53504 30.2 4.4)"/></g></svg>