<svg xmlns="http://www.w3.org/2000/svg" viewBox="0 0 200 133"><filter id="b"><feGaussianBlur stdDeviation="12" /></filter><path fill="#726a5b" d="M0 0h200v133H0z"/><g filter="url(#b)" transform="translate(.5 .5)" fill-opacity=".5"><ellipse fill="#000529" cx="50" cy="96" rx="32" ry="32"/><ellipse fill="#f4ffff" cx="192" cy="57" rx="10" ry="174"/><ellipse fill="#06152c" cx="137" cy="97" rx="45" ry="45"/><ellipse fill="#e0b066" cx="82" cy="18" rx="121" ry="32"/><ellipse fill="#ffe5b4" cx="139" cy="118" rx="11" ry="31"/><ellipse fill="#00000c" rx="1" ry="1" transform="rotate(29.6 -129.3 42.4) scale(63.1671 13.5249)"/><ellipse fill="#fff" rx="1" ry="1" transform="matrix(1.53472 16.86368 -3.92221 .35695 42.5 69.9)"/><ellipse fill="#3d2000" rx="33" ry="33"/><ellipse fill="#00002b" cx="176" cy="65" rx="11" ry="26"/><ellipse fill="#00071c" rx="1" ry="1" transform="rotate(-135.1 59.8 14.7) scale(15.76858 19.6875)"/><path fill="#fff" d="M66 38h7v48h-7z"/><ellipse fill="#ebfbff" cx="193" cy="118" rx="13" ry="47"/><path fill="#d9b284" d="M84.7 120.4l5.1-57.3 13.7 84.9L-16 129.7z"/><ellipse fill="#0089eb" cx="199" cy="42" rx="12" ry="12"/><ellipse fill="#d6e0e5" rx="1" ry="1" transform="matrix(-8.40894 2.21556 -6.79217 -25.77903 179.8 23.5)"/><path fill="#000017" d="M142.7 82.3l19.5-4.2 13.1 61.6-19.5 4.2z"/><path fill="#efdcd3" d="M86.5 54.4L71.2 30.9l14.3-9.3 15.3 23.5z"/><ellipse cx="111" cy="119" rx="13" ry="13"/><ellipse fill="#604009" rx="1" ry="1" transform="matrix(18.51286 -7.7441 3.8929 9.30627 151.7 15.2)"/><ellipse fill="#d2ba90" cx="10" cy="123" rx="12" ry="21"/><path fill="#fff" d="M123 16h7v38h-7z"/><path fill="#ffdddc" d="M117.7 107l-16-1 .6-9 16 1z"/></g></svg>