<svg xmlns="http://www.w3.org/2000/svg" viewBox="0 0 700 467"><filter id="b"><feGaussianBlur stdDeviation="12" /></filter><path fill="#8c8b81" d="M0 0h700v464H0z"/><g filter="url(#b)" transform="translate(1.4 1.4) scale(2.73438)" fill-opacity=".5"><ellipse rx="1" ry="1" transform="matrix(63.2873 -5.76377 3.15235 34.61344 78.9 22.6)"/><ellipse fill="#e7f0ff" rx="1" ry="1" transform="matrix(93.58824 12.98644 -2.98873 21.53862 166.8 122.2)"/><ellipse fill="#4b1006" rx="1" ry="1" transform="matrix(-6.458 23.93443 -44.52782 -12.01453 217 86)"/><ellipse fill="#f9f4ff" cx="173" cy="51" rx="25" ry="25"/><ellipse fill="#ccd3d5" cx="22" cy="128" rx="45" ry="45"/><ellipse fill="#142c00" cx="65" cy="18" rx="44" ry="44"/><ellipse fill="#2d0000" rx="1" ry="1" transform="matrix(1.22123 -7.61647 63.87286 10.24144 183.8 86.2)"/><path fill="#492100" d="M162.9 41.8L121.2 47l-4-32.7L158.7 9z"/><ellipse fill="#000005" rx="1" ry="1" transform="matrix(14.0108 -7.51253 4.70705 8.77861 75.3 67)"/><ellipse fill="#bcb7bf" cx="106" cy="55" rx="20" ry="20"/><ellipse fill="#d9c4a5" cx="239" cy="15" rx="37" ry="37"/><ellipse fill="#5e1c00" cx="210" cy="66" rx="17" ry="22"/><ellipse fill="#95b4c6" rx="1" ry="1" transform="matrix(-130.34741 16.40741 -3.274 -26.01001 157.6 168.9)"/><ellipse fill="#7e929a" cx="81" cy="126" rx="39" ry="55"/><ellipse fill="#c7cbd0" cx="19" cy="69" rx="13" ry="36"/><path d="M61 89h33v8H61z"/><path fill="#bdbeb9" d="M223.8 83.7L250.4 58l11.8 12.3L235.6 96z"/><path fill="#e6e5ec" d="M108.3 83.5l83.4 20.8-6 24.2-83.4-20.8z"/><path d="M-5.5 88l-2-27 13-1 2 27z"/><ellipse fill="#1a2a00" rx="1" ry="1" transform="rotate(81.3 26 61.6) scale(19.84797 48.15893)"/><path fill="#ddba82" d="M118 0h57v11h-57z"/><path fill="#c6b980" d="M72.3-11l25.2 6.4-3.8 15.5-25.2-6.3z"/></g></svg>