<svg xmlns="http://www.w3.org/2000/svg" viewBox="0 0 200 133"><filter id="b"><feGaussianBlur stdDeviation="12" /></filter><path fill="#b46a3f" d="M0 0h200v133H0z"/><g filter="url(#b)" transform="translate(.5 .5)" fill-opacity=".5"><ellipse fill="#000b3d" cx="76" cy="87" rx="32" ry="32"/><ellipse cx="171" cy="99" rx="158" ry="11"/><ellipse fill="#ffcd68" rx="1" ry="1" transform="rotate(35.8 43.4 253.3) scale(34.39026 84.35748)"/><ellipse fill="#feff23" rx="1" ry="1" transform="matrix(-20.19042 13.61861 -25.30605 -37.51776 15.7 27)"/><ellipse fill="#fff" cx="22" cy="84" rx="26" ry="12"/><path fill="#940000" d="M91.6 33.3L70.4 53.1l-32-34.4L59.6-1.1z"/><path fill="#e2ffff" d="M85.7 80.7L33 50.1l22-8 2.8-.6z"/><ellipse fill="#ed8000" rx="1" ry="1" transform="rotate(23.3 -6.5 299.1) scale(50.34126 22.80401)"/><ellipse fill="#bcf2ff" rx="1" ry="1" transform="matrix(-9.98904 8.7916 -19.66426 -22.34256 23.3 0)"/><ellipse fill="#000004" rx="1" ry="1" transform="matrix(3.28267 -23.11233 9.57375 1.35977 179.6 85)"/><ellipse fill="#000005" rx="1" ry="1" transform="matrix(5.50996 .4167 -1.7361 22.9558 123.8 94.2)"/><ellipse fill="#f8302f" cx="57" cy="120" rx="199" ry="16"/><path fill="#eafeff" d="M143 54h21v20h-21z"/><path fill="#760000" d="M45 0h24v44H45z"/><path fill="#fff" d="M75 71l12-8-13 33z"/><path fill="#002" d="M145 74h14v43h-14z"/><path fill="#fff" d="M117.6 67.7l.8 22-16 .6-.8-22z"/><path fill="#00114a" d="M67 50h35v16H67z"/><ellipse fill="#ffa3a0" cx="176" cy="121" rx="45" ry="8"/><ellipse cx="2" cy="102" rx="45" ry="5"/><ellipse fill="#f74900" cy="53" rx="25" ry="25"/><ellipse fill="#f6ca53" cx="191" cy="13" rx="75" ry="27"/></g></svg>