<svg xmlns="http://www.w3.org/2000/svg" viewBox="0 0 200 133"><filter id="b"><feGaussianBlur stdDeviation="12" /></filter><path fill="#6b645a" d="M0 0h200v133H0z"/><g filter="url(#b)" transform="translate(.5 .5)" fill-opacity=".5"><ellipse fill="#d2f1ff" rx="1" ry="1" transform="matrix(85.17484 19.73155 -9.82499 42.41135 113.9 132)"/><ellipse fill="#302016" cx="153" cy="39" rx="64" ry="64"/><ellipse fill="#1a0e00" rx="1" ry="1" transform="matrix(20.50409 -2.6986 8.3082 63.12623 21.3 38.8)"/><ellipse fill="#eff" cx="156" cy="109" rx="14" ry="27"/><ellipse fill="#200b19" cx="124" cy="96" rx="10" ry="31"/><ellipse fill="#443d41" rx="1" ry="1" transform="matrix(-4.27329 -29.29234 11.06717 -1.61453 72 97.5)"/><path fill="#d2b48a" d="M131.9 13.8l44.3 61.8L136.6-16 124.4 9.2z"/><path fill="#f6ffff" d="M82.8 133.8l-.6-31 33-.6.6 31z"/><ellipse fill="#0e0400" rx="1" ry="1" transform="rotate(-33.7 166.8 -308) scale(27.69179 91.13927)"/><ellipse fill="#e1ffff" rx="1" ry="1" transform="matrix(-17.45613 -6.31903 10.527 -29.0805 45.8 126.6)"/><path fill="#f7d685" d="M74 8l50 43-38-67z"/><path d="M120.8 110L107 93l6.2-5 13.8 17z"/><path fill="#000043" d="M94 53h28v30H94z"/><path fill="#90918e" d="M80.5 20.3l19.6 27.5-13.3 70.1-21-44.6z"/><ellipse fill="#6c4900" cx="65" cy="6" rx="15" ry="39"/><path fill="#e3ffff" d="M45.5 101.9l-4-20.6 13.8.4-9.6 52.5z"/><path fill="#ffc398" d="M120 99l13-29-8-8z"/><path fill="#f4ffff" d="M107.4 107.7l-9 .6-1.8-26 9-.6z"/><ellipse fill="#9e8d4f" cx="2" cy="20" rx="13" ry="27"/><path fill="#170e00" d="M117 50l33.5-53.4 8.4 5.3-33.4 53.5z"/><ellipse fill="#d8d1a3" cx="11" cy="128" rx="23" ry="10"/><ellipse cx="25" cy="12" rx="10" ry="64"/></g></svg>