<svg xmlns="http://www.w3.org/2000/svg" viewBox="0 0 200 133"><filter id="b"><feGaussianBlur stdDeviation="12" /></filter><path fill="#25253c" d="M0 0h200v133H0z"/><g filter="url(#b)" transform="translate(.5 .5)" fill-opacity=".5"><ellipse fill="#a296c5" rx="1" ry="1" transform="rotate(87.1 2.8 94.1) scale(23.4773 48.36898)"/><ellipse fill="#4761ba" rx="1" ry="1" transform="matrix(-35.91666 -2.01668 1.92716 -34.32236 129.3 50.2)"/><path d="M-15 50l-1-66L215-2z"/><ellipse cx="57" cy="129" rx="199" ry="20"/><path fill="#e3eddf" d="M131 91l53 3-40 11z"/><ellipse fill="#5679ff" rx="1" ry="1" transform="matrix(-2.25328 29.29146 -4.24639 -.32666 22.1 81.7)"/><ellipse fill="#5f56ff" cx="45" cy="81" rx="6" ry="22"/><ellipse rx="1" ry="1" transform="matrix(21.59909 57.88383 -20.83935 7.7761 199 28.7)"/><path fill="#617fad" d="M80 19h95v21H80z"/><path fill="#000104" d="M0 42h132v19H0z"/><path fill="#3156ff" d="M178 52h12v23h-12z"/><ellipse fill="#1c0e28" rx="1" ry="1" transform="matrix(-32.39045 57.24993 -7.79743 -4.41157 63.5 75.6)"/><path fill="#94ab95" d="M19 92h58v13H19z"/><path d="M-7-16l53 1-58 157z"/><path fill="#192ecc" d="M159.4 45.6l8 30-32.8 8.8-8-30z"/><path d="M-.5 111h199v42H-.5z"/><path fill="#4851ff" d="M58 68l4 19 9-30z"/><path fill="#cb0000" d="M181 74h14v20h-14z"/><path fill="#3949ff" d="M14 69l5 23 13-51z"/><path fill="#bbc1c0" d="M101 111.3l16-1.1L141.8 88l-27.6 4.7z"/><path fill="#080000" d="M108.9 90.8l2.5 5.5L75 113.2l-2.5-5.5z"/><ellipse cx="79" cy="8" rx="192" ry="10"/></g></svg>