<svg xmlns="http://www.w3.org/2000/svg" viewBox="0 0 200 133"><filter id="b"><feGaussianBlur stdDeviation="12" /></filter><path fill="#50322b" d="M0 0h200v133H0z"/><g filter="url(#b)" transform="translate(.5 .5)" fill-opacity=".5"><ellipse fill="#ffeb1a" cx="86" cy="64" rx="25" ry="25"/><ellipse fill="#fbf" rx="1" ry="1" transform="matrix(-.18132 -8.98657 111.9737 -2.25932 72.2 132)"/><ellipse rx="1" ry="1" transform="matrix(-11.63592 110.70843 -27.39633 -2.87947 196.2 12.7)"/><path fill="#eb8f3b" d="M123 46h63v30h-63z"/><ellipse rx="1" ry="1" transform="matrix(66.64617 8.41937 -2.2344 17.6871 64.3 25)"/><path fill="#ffff7a" d="M29 82l2-47 12 7z"/><ellipse cx="154" cy="102" rx="55" ry="19"/><ellipse cx="11" cy="97" rx="21" ry="21"/><ellipse fill="#66646d" cx="84" cy="98" rx="19" ry="27"/><ellipse fill="#ffa5ff" rx="1" ry="1" transform="matrix(59.1644 -.17647 .01454 4.87632 100.1 130.4)"/><path fill="#ffda40" d="M9.2 44.1l11.7 2.3L15 78 3 75.6z"/><ellipse fill="#000003" cx="137" cy="50" rx="5" ry="26"/><path fill="#f0a700" d="M55 44h57v25H55z"/><ellipse rx="1" ry="1" transform="matrix(17.71613 11.99472 -53.58559 79.14558 0 23.6)"/><path fill="#ffb975" d="M124 57l1 28 27-15z"/><ellipse fill="#00000b" cx="154" cy="63" rx="3" ry="60"/><ellipse fill="#000005" rx="1" ry="1" transform="matrix(-45.42112 -65.52503 18.77908 -13.01742 185.2 14)"/><ellipse fill="#02001b" rx="1" ry="1" transform="matrix(2.92168 -20.52878 5.19097 .73878 84 81.2)"/><path fill="#9126c0" d="M158.7 11.8l-25.8 8-9.6-31.6 25.8-8z"/><ellipse fill="#ff73ff" cx="15" cy="130" rx="38" ry="7"/><path fill="#fc9657" d="M39-16L50 9l29-5z"/><path fill="#ffa053" d="M31 31h11v36H31z"/></g></svg>