<svg xmlns="http://www.w3.org/2000/svg" viewBox="0 0 700 467"><filter id="b"><feGaussianBlur stdDeviation="12" /></filter><path fill="#3b2b18" d="M0 0h700v464H0z"/><g filter="url(#b)" transform="translate(1.4 1.4) scale(2.73438)" fill-opacity=".5"><ellipse fill="#ffe" rx="1" ry="1" transform="matrix(-6.6007 12.84077 -26.79637 -13.77446 184.1 32)"/><ellipse fill="#fff" rx="1" ry="1" transform="matrix(-20.5672 29.15585 -10.27532 -7.24844 48.3 65.8)"/><path fill="#ecc463" d="M24 58l-40-7 42-64z"/><ellipse fill="#fcfffd" rx="1" ry="1" transform="matrix(7.52626 -3.0408 7.75257 19.18827 59.7 47.2)"/><path fill="#fff" d="M47 96l-3-33-30 15z"/><ellipse fill="#0a0100" rx="1" ry="1" transform="matrix(-8.62686 -22.44402 160.25793 -61.59873 83 105.9)"/><ellipse fill="#000001" cx="194" cy="155" rx="55" ry="55"/><path fill="#fff4cc" d="M164 21.2l25-2.2 3 33.8-25 2.2z"/><path fill="#0d0400" d="M58.6 56l-69.3 34.7-3.3-19 63.7-33.2z"/><ellipse fill="#070000" rx="1" ry="1" transform="matrix(-2.4131 -14.42008 61.51827 -10.29463 105.4 73.7)"/><path d="M31.8 82.7l-2.6 33.5-40.6-5.4 12-30.9z"/><ellipse fill="#eef4ff" cy="42" rx="13" ry="12"/><path fill="#fffffe" d="M67 65L32 90l30-43z"/><ellipse fill="#ffffc9" rx="1" ry="1" transform="rotate(16 11.8 630.9) scale(22.9246 5.98201)"/><path fill="#1a1409" d="M197 3h44v110h-44z"/><path fill="#bc9464" d="M250 55h6v49h-6z"/><path fill="#897553" d="M193.7 20l22-1.9 2.6 29.9-22 1.9z"/><ellipse fill="#130900" rx="1" ry="1" transform="rotate(153.2 55.1 37.4) scale(46.3062 16.81353)"/><ellipse fill="#78531a" rx="1" ry="1" transform="matrix(6.87546 38.2122 -19.5025 3.50905 27.4 18.4)"/><path fill="#ae8369" d="M172.2 90.8l25 10-3.4 8.4-25-10z"/><path fill="#9a6a10" d="M145.6 84.7l11.7 2.5-8.9 42-11.7-2.4z"/><path fill="#8d5b10" d="M66 32h24v22H66z"/></g></svg>