<svg xmlns="http://www.w3.org/2000/svg" viewBox="0 0 700 467"><filter id="b"><feGaussianBlur stdDeviation="12" /></filter><path fill="#354851" d="M0 0h700v464H0z"/><g filter="url(#b)" transform="translate(1.4 1.4) scale(2.73438)" fill-opacity=".5"><ellipse fill="#88a3a6" rx="1" ry="1" transform="matrix(38.51734 -1.32358 2.14264 62.35285 104.6 39.7)"/><ellipse rx="1" ry="1" transform="matrix(-29.68253 -37.31605 53.12638 -42.25863 205.4 -.1)"/><path fill="#debabb" d="M42.1 112.3l17.4-11.8L82 133.7l-17.4 11.8z"/><path fill="#87cbf0" d="M214 43h34v26h-34z"/><ellipse fill="#0065a9" rx="1" ry="1" transform="rotate(-86.8 158.5 -.4) scale(26.85408 58.11466)"/><ellipse fill="#1a1610" cx="8" cy="103" rx="17" ry="141"/><path fill="#020000" d="M147.7 79l148-5 .6 19-148 5z"/><ellipse fill="#37ccff" rx="1" ry="1" transform="matrix(2.91754 -7.00893 19.46638 8.10307 219.8 139.2)"/><ellipse fill="#0e090d" cx="59" cy="151" rx="33" ry="19"/><path fill="#7a8ca9" d="M143 100h102v12H143z"/><ellipse fill="#d5e5f4" rx="1" ry="1" transform="matrix(2.22778 -2.25123 17.81974 17.6341 10 140.6)"/><ellipse rx="1" ry="1" transform="matrix(7.59583 .1436 -3.4292 181.39643 255 102.5)"/><path fill="#ffad74" d="M136 60h8v38h-8z"/><ellipse fill="#090000" rx="1" ry="1" transform="rotate(49.9 -75.7 251.9) scale(57.2682 5.22982)"/><ellipse fill="#4c6871" cx="52" cy="57" rx="39" ry="35"/><path fill="#3bbbfe" d="M203 112l42 5 2 16z"/><path fill="#a05d48" d="M-16 122l40 7 46-37z"/><path fill="#309def" d="M160 120l57 42-36-5z"/><ellipse fill="#0e0a07" rx="1" ry="1" transform="rotate(-73.4 232.9 -83.7) scale(12.16433 42.35012)"/><ellipse fill="#000f27" cx="149" cy="118" rx="62" ry="9"/><path fill="#6bffff" d="M242 31h6v33h-6z"/><path fill="#eebfbb" d="M183 75l39-10-7 12z"/></g></svg>