<svg xmlns="http://www.w3.org/2000/svg" viewBox="0 0 200 133"><filter id="b"><feGaussianBlur stdDeviation="12" /></filter><path fill="#978170" d="M0 0h200v133H0z"/><g filter="url(#b)" transform="translate(.5 .5)" fill-opacity=".5"><ellipse fill="#f5ffff" rx="1" ry="1" transform="rotate(4.1 -208.1 1755.5) scale(155.33927 28.35074)"/><ellipse fill="#421000" cx="94" cy="100" rx="87" ry="39"/><ellipse fill="#755d3f" cx="149" cy="44" rx="25" ry="35"/><ellipse fill="#cc6c00" cx="99" cy="120" rx="86" ry="19"/><path fill="#fff" d="M185 0h15v73h-15z"/><ellipse fill="#fff" cx="2" cy="107" rx="8" ry="26"/><ellipse fill="#141b35" rx="1" ry="1" transform="matrix(74.42065 -3.4536 .6799 14.65108 103.2 86.9)"/><ellipse fill="#cbdfff" rx="1" ry="1" transform="matrix(26.7848 15.68713 -17.30964 29.55513 97.1 17.4)"/><path fill="#ae9459" d="M16 9h50v46H16z"/><path fill="#3952bf" d="M134 56l-3 34-63-30z"/><path d="M10.3 52.7l-22-1.5 1.4-20 22 1.6z"/><ellipse fill="#285679" rx="1" ry="1" transform="rotate(25.7 -152.3 97.7) scale(22.46189 17.50341)"/><ellipse fill="#fff" cx="77" rx="175" ry="9"/><path fill="#e4cbb0" d="M184 87h16v38h-16z"/><path fill="#f7ffff" d="M21 30l-3 21-5-34z"/><path fill="#feffff" d="M7.7 74.6l-17-1.2 1.6-22 17 1.2z"/><path fill="#c7c2d3" d="M74 43h12v29H74z"/><ellipse fill="#593210" rx="1" ry="1" transform="matrix(4.61206 .6646 -2.71308 18.82745 164 37.6)"/><path fill="#ce939d" d="M42 56h10v33H42z"/><path fill="#3a1c00" d="M148 75h29v33h-29z"/><ellipse fill="#552800" cx="76" cy="99" rx="65" ry="10"/><path fill="#f7ffff" d="M186 30h14v41h-14z"/></g></svg>