<svg xmlns="http://www.w3.org/2000/svg" viewBox="0 0 700 467"><filter id="b"><feGaussianBlur stdDeviation="12" /></filter><path fill="#706b85" d="M0 0h700v464H0z"/><g filter="url(#b)" transform="translate(1.4 1.4) scale(2.73438)" fill-opacity=".5"><ellipse fill="#fff" rx="1" ry="1" transform="rotate(-51.9 49.3 -17.2) scale(47.84479 56.87793)"/><ellipse fill="#06000a" rx="1" ry="1" transform="rotate(-6.1 587.1 -2169.6) scale(41.06977 119.99487)"/><ellipse fill="#000026" rx="1" ry="1" transform="matrix(-44.56018 18.59705 -12.39494 -29.69938 36.2 115.4)"/><ellipse fill="#fff" cx="24" cy="24" rx="56" ry="56"/><ellipse fill="#131035" rx="1" ry="1" transform="matrix(9.39626 64.06445 -25.2301 3.70047 115.4 83.2)"/><ellipse fill="#f4c5d6" rx="1" ry="1" transform="rotate(-99.6 134.2 21.5) scale(22.78265 74.80712)"/><path fill="#ffffcb" d="M142 80h18v90h-18z"/><path fill="#dbbff1" d="M-16 148l112-5-94 30z"/><path fill="#fff" d="M29 0h49v82H29z"/><path fill="#030000" d="M211 144l60-16-98 57z"/><path fill="#18121d" d="M127 67h14v88h-14z"/><path fill="#261b1d" d="M161 105h31v31h-31z"/><path fill="#435083" d="M78 20h88v51H78z"/><ellipse fill="#86b9db" rx="1" ry="1" transform="matrix(37.2653 9.22223 -3.66262 14.79994 118.5 6.5)"/><ellipse fill="#e0b7ce" rx="1" ry="1" transform="matrix(-1.29182 -5.87553 44.1181 -9.7 197.2 138.1)"/><path fill="#213179" d="M-.6 100.2L2 75.4l60.6 6.4-2.6 24.8z"/><ellipse fill="#447ebd" cy="22" rx="35" ry="10"/><ellipse fill="#fff" cx="38" cy="53" rx="42" ry="25"/><ellipse fill="#b9a9d4" cx="81" cy="93" rx="6" ry="38"/><ellipse fill="#252130" cx="51" cy="129" rx="86" ry="11"/><ellipse fill="#6b90c5" rx="1" ry="1" transform="matrix(-3.56204 47.1943 -12.614 -.95205 177.3 30.4)"/><ellipse fill="#e7c6e1" rx="1" ry="1" transform="rotate(78.2 -58.2 140.7) scale(9.30603 96.69678)"/></g></svg>