<svg xmlns="http://www.w3.org/2000/svg" viewBox="0 0 200 133"><filter id="b"><feGaussianBlur stdDeviation="12" /></filter><path fill="#272f35" d="M0 0h200v133H0z"/><g filter="url(#b)" transform="translate(.5 .5)" fill-opacity=".5"><path fill="#ddb695" d="M16.4 8.1L109 43.6l-9.3 24.3L7 32.4z"/><ellipse fill="#ad8f82" cx="145" cy="39" rx="37" ry="15"/><ellipse fill="#0088fa" cx="144" rx="126" ry="11"/><ellipse rx="1" ry="1" transform="matrix(-181.39235 -23.9843 5.16253 -39.044 80 103)"/><ellipse fill="#bab6bf" cx="77" cy="56" rx="8" ry="32"/><path fill="#9d8a80" d="M193 102l-25 6 37 35z"/><ellipse fill="#6f6961" cx="20" cy="20" rx="32" ry="32"/><path fill="#c8a689" d="M129 20h18v30h-18z"/><ellipse fill="#000004" rx="1" ry="1" transform="rotate(151.9 73 67.8) scale(80.09955 16.012)"/><path fill="#c2a28a" d="M174 73l-13-26 14-15z"/><ellipse fill="#7792a3" rx="1" ry="1" transform="matrix(6.72615 -12.34016 3.91485 2.13384 136.3 69.1)"/><ellipse fill="#000310" rx="1" ry="1" transform="matrix(-5.55252 .0097 -.07837 -44.90056 154 64.9)"/><path fill="#8fa7cd" d="M68.2 85l1.6 15-10 1-1.6-15z"/><path fill="#093c64" d="M9-16l53 58 8-58z"/><ellipse cx="26" cy="81" rx="31" ry="31"/><path fill="#000e20" d="M125 46.2L96.2 7.7l8 43.2 33.6 85z"/><ellipse fill="#0a0000" cy="37" rx="13" ry="13"/><path fill="#c3a991" d="M67 26h23v20H67z"/><ellipse fill="#be9168" cx="25" cy="31" rx="12" ry="20"/><path fill="#daf5ff" d="M98 59h10v7H98z"/><path fill="#072545" d="M89 21h7v37h-7z"/><ellipse fill="#370c00" cx="26" cy="41" rx="19" ry="3"/></g></svg>