<svg xmlns="http://www.w3.org/2000/svg" viewBox="0 0 200 133"><filter id="b"><feGaussianBlur stdDeviation="12" /></filter><path fill="#0c080a" d="M0 0h200v133H0z"/><g filter="url(#b)" transform="translate(.5 .5)" fill-opacity=".5"><ellipse fill="#4c586a" cx="29" cy="77" rx="7" ry="35"/><path fill="#595e5c" d="M187 52l-1 53-21-1z"/><path fill="#bcc3d9" d="M143 82l-13-17-14-3z"/><path fill="#d2cfce" d="M51.2 75.8L64 77.6l12.7-10.8 10.4 2z"/><path fill="#636c93" d="M131 92h11v18h-11z"/><path fill="#020000" d="M179.7 89.2l-54-21.7 84 45.4-9.8-96.1z"/><path fill="#919c91" d="M36.8 99l-16-1 .4-7 16 1z"/><ellipse fill="#8a968b" cx="75" cy="99" rx="3" ry="7"/><path fill="#fff" d="M25 58h2v12h-2z"/><path fill="#050103" d="M138.7 101l76.3 34.8-97.9-67.4 17.8 3.6z"/><ellipse cx="95" cy="30" rx="39" ry="39"/><path d="M26 107l10-15.7-52-18.5L28.4 74zm13-63l-19 9 36 27z"/><path fill="#a6b4c3" d="M175 79h6v11h-6z"/><path fill="#ece9ea" d="M52.2 80l14-6.4-2.4.6-4.5-.7z"/><ellipse fill="#030103" cx="162" cy="72" rx="16" ry="32"/><path fill="#fffffa" d="M186 106l-3-9 6 4z"/><path fill="#785420" d="M100 118h32v4h-32z"/><path fill="#e0eaff" d="M126.4 69.2l-2.3 3.3-2.5-1.7 2.3-3.3z"/><path fill="#e0f1df" d="M170 106v-8l4 4z"/><path fill="#666e72" d="M174 68l-1 17 17-30z"/><ellipse fill="#637280" cx="31" cy="64" rx="2" ry="27"/></g></svg>