<svg xmlns="http://www.w3.org/2000/svg" viewBox="0 0 700 467"><filter id="b"><feGaussianBlur stdDeviation="12" /></filter><path fill="#0a0809" d="M0 0h700v464H0z"/><g filter="url(#b)" transform="translate(1.4 1.4) scale(2.73438)" fill-opacity=".5"><ellipse fill="#92a3ba" rx="1" ry="1" transform="matrix(7.99514 30.46963 -2.98432 .78308 37.9 95)"/><path fill="#a9aea9" d="M68 99l47-13-29-3z"/><path fill="#fff" d="M154.3 77l9.2 10.6-3.8 3.3-9.2-10.5z"/><path fill="#606a62" d="M215 132l22-60 5 64z"/><path fill="#97a9dd" d="M165.7 123l19.8 15-13.6 3 3.5-20z"/><path fill="#c4d8c8" d="M23 120h27v5H23z"/><path fill="#fafcff" d="M171.5 97.7l2-2.3 13 11-2 2.2z"/><ellipse fill="#f7fff6" cx="97" cy="131" rx="4" ry="4"/><path fill="#9ea8b1" d="M229.3 100l5.7 6.1-10 12.6-4.3 19.1z"/><path fill="#d9d6d5" d="M104.5 89.4l1.1-4.5-39.9 15.9 8.4-6.3z"/><path fill="#fff" d="M234 127h7v7h-7z"/><path d="M231 86h25v42h-25z"/><path fill="#bfd4f6" d="M35.6 88L30 75.8l13.2 11-.4 5z"/><path d="M234 132.8L174.7-16l10.5 112.4-7.6 17.1z"/><path fill="#fff" d="M233.4 86.8l3.4-12.6 3.8 1-3.4 12.6z"/><path fill="#5b6e79" d="M20 127.4l32.4-4.7-13 19.8-6.4-29z"/><path d="M46 0h98v87H46z"/><path fill="#3a5d63" d="M43.3 44.5l-.3 1.1L29.2 60l16 1.9z"/><path fill="#dfeed2" d="M218 124h4v14h-4z"/><path fill="#617695" d="M163 73l-1 18h11z"/><ellipse fill="#976b26" cx="143" cy="152" rx="17" ry="3"/><path fill="#5d6e68" d="M229 101l-7-3 8-17z"/></g></svg>