<svg xmlns="http://www.w3.org/2000/svg" viewBox="0 0 700 467"><filter id="b"><feGaussianBlur stdDeviation="12" /></filter><path fill="#52316e" d="M0 0h700v464H0z"/><g filter="url(#b)" transform="translate(1.4 1.4) scale(2.73438)" fill-opacity=".5"><ellipse fill="#d283ed" cx="120" cy="169" rx="89" ry="89"/><ellipse fill="#ffcaff" rx="1" ry="1" transform="matrix(-1.69924 -21.85109 39.89892 -3.10273 19.1 127.1)"/><ellipse rx="1" ry="1" transform="matrix(-92.29965 -82.15604 41.13325 -46.21188 222.5 43.4)"/><ellipse fill="#040035" cx="28" cy="35" rx="64" ry="73"/><ellipse rx="1" ry="1" transform="matrix(-105.01896 -7.71211 .65319 -8.89469 55 167.2)"/><ellipse fill="#cb44ff" rx="1" ry="1" transform="matrix(-68.50683 32.91496 -8.62468 -17.95079 187.4 169)"/><ellipse fill="#faaeff" cx="103" cy="143" rx="69" ry="12"/><ellipse fill="#110e44" cx="131" cy="92" rx="64" ry="9"/><ellipse fill="#ddbff3" cx="87" cy="109" rx="95" ry="8"/><path fill="#005" d="M101 95.2l-5.4 48.3-9.5 7.4v-36.2z"/><ellipse fill="#3c183f" rx="1" ry="1" transform="matrix(-24.33751 -16.04763 11.6458 -17.6618 199.4 122)"/><ellipse cx="231" rx="201" ry="16"/><ellipse fill="#040054" cx="74" cy="123" rx="113" ry="3"/><path d="M132 152l14.5 3.7L140 182l-14.5-3.6z"/><ellipse fill="#3a1978" cx="152" cy="65" rx="37" ry="37"/><path fill="#fff" d="M0 110h61v9H0z"/><ellipse fill="#4b82bc" cx="49" cy="97" rx="18" ry="14"/><path fill="#e690ff" d="M145 147h88v15h-88z"/><path fill="#df49ff" d="M195 123h10v26h-10z"/><path d="M23 142h13v28H23z"/><path fill="#000009" d="M71 104l-9 5 1 17zm60 18h12v16h-12z"/></g></svg>