<svg xmlns="http://www.w3.org/2000/svg" viewBox="0 0 200 133"><filter id="b"><feGaussianBlur stdDeviation="12" /></filter><path fill="#664a3e" d="M0 0h200v133H0z"/><g filter="url(#b)" transform="translate(.5 .5)" fill-opacity=".5"><ellipse fill="#c5d2e9" rx="1" ry="1" transform="matrix(-16.10567 -26.05617 20.16476 -12.4641 100.6 72.6)"/><ellipse fill="#dbc2a9" cx="153" cy="71" rx="29" ry="29"/><ellipse rx="1" ry="1" transform="matrix(-178.08893 -.82849 .08576 -18.43407 110.3 124.2)"/><ellipse fill="#e7c1a0" cx="39" cy="72" rx="30" ry="30"/><ellipse rx="1" ry="1" transform="matrix(-133.50617 -.4443 .04934 -14.82664 108.3 26.5)"/><ellipse fill="#f6944d" cx="61" cy="4" rx="199" ry="8"/><path fill="#daa69b" d="M12 86h140v13H12z"/><ellipse fill="#2f0000" rx="1" ry="1" transform="rotate(5.8 -638 1993.7) scale(14.4856 105.1924)"/><path fill="#daffff" d="M83 68.7L79.6 51l29.4-5.7 3.4 17.7z"/><ellipse fill="#543b2d" cx="120" cy="71" rx="15" ry="19"/><ellipse fill="#010000" cx="79" cy="125" rx="191" ry="17"/><path fill="#eac5a4" d="M13 24h11v63H13z"/><ellipse fill="#c78f83" cx="78" cy="24" rx="40" ry="4"/><path fill="#baa98b" d="M166.3 65.4l3.6-42.5L191 64l-67.7-23.9z"/><path fill="#874322" d="M21.6 68.3l18 1.6-3.2 35.8-18-1.6z"/><path d="M167.5 12.5v29h-25v-29z"/><path fill="#bbc3a9" d="M134.5 31.8l7.9-1.4 3.1 17.8-7.9 1.4z"/><ellipse rx="1" ry="1" transform="rotate(-126.7 25.8 5.2) scale(17.03828 12.74179)"/><ellipse fill="#7a0000" rx="1" ry="1" transform="matrix(.03458 1.91509 -68.54174 1.23775 132.6 100.8)"/><path fill="#006ef4" d="M77.5 43h33v6h-33z"/><ellipse fill="#a73a27" cx="35" cy="100" rx="35" ry="7"/><ellipse fill="#4e1800" cy="50" rx="12" ry="50"/></g></svg>