<svg xmlns="http://www.w3.org/2000/svg" viewBox="0 0 313 195"><filter id="b"><feGaussianBlur stdDeviation="12" /></filter><path fill="#93a4aa" d="M0 0h313v194H0z"/><g filter="url(#b)" transform="translate(.6 .6) scale(1.22266)" fill-opacity=".5"><ellipse rx="1" ry="1" transform="matrix(-185.50937 -137.26971 19.8437 -26.81723 35.7 158)"/><ellipse fill="#f4f3f0" cx="174" cy="71" rx="68" ry="56"/><ellipse rx="1" ry="1" transform="matrix(16.44343 1.17236 -2.55743 35.87017 255 90)"/><ellipse fill="#011f00" rx="1" ry="1" transform="matrix(32.3432 .61818 -.49685 25.99534 221.5 158)"/><ellipse fill="#2c281f" rx="1" ry="1" transform="matrix(3.6145 19.31393 -25.4677 4.76615 17 82.2)"/><ellipse fill="#cae5e8" cx="69" cy="77" rx="25" ry="59"/><ellipse fill="#656d5a" rx="1" ry="1" transform="matrix(5.24591 21.684 -35.47619 8.5826 150.7 128)"/><path fill="#fff" d="M198.5 63.9l43.7 4.6-6.7 63.6-43.7-4.6z"/><ellipse fill="#00000d" rx="1" ry="1" transform="rotate(154.7 -3.6 82.2) scale(37.10942 32.50981)"/><ellipse fill="#2b7adb" rx="1" ry="1" transform="matrix(5.7586 27.32656 -61.52716 12.9658 36.5 10.2)"/><path fill="#557b77" d="M194.1 75.2l-3.7 26.7-50.5-7 3.7-26.8z"/><ellipse fill="#2261a1" cx="197" cy="18" rx="12" ry="29"/><path d="M241.7 76.1l28.9 3-4.3 40.8-28.9-3z"/><path fill="#f5f2f0" d="M129-16l53 81-69 13z"/><ellipse fill="#6d807a" cx="101" cy="80" rx="16" ry="31"/><ellipse fill="#dfedeb" rx="1" ry="1" transform="rotate(101.8 -.2 97.7) scale(34.42483 9.87387)"/><path fill="#3c510a" d="M109.7 129l86.5 36.8-3.9 9.2-86.5-36.8z"/><ellipse fill="#226ed0" rx="1" ry="1" transform="matrix(12.81021 -4.12912 14.334 44.46989 250.9 19.3)"/><path fill="#faf2f8" d="M75.3 36.5l-1.2-12 66.6-7 1.2 12z"/><ellipse fill="#d6e9e3" rx="1" ry="1" transform="matrix(6.11602 70.11525 -15.7708 1.37566 224 49.2)"/><ellipse fill="#f2e8d5" rx="1" ry="1" transform="matrix(5.61568 -9.92568 46.4495 26.27987 119 158)"/><path fill="#fff" d="M127.9 125.9l-.4-99-6.7 43.9-4.3 49.6z"/></g></svg>