<svg xmlns="http://www.w3.org/2000/svg" viewBox="0 0 200 133"><filter id="b"><feGaussianBlur stdDeviation="12" /></filter><path fill="#8d8887" d="M0 0h200v133H0z"/><g filter="url(#b)" transform="translate(.5 .5)" fill-opacity=".5"><ellipse fill="#050000" rx="1" ry="1" transform="matrix(92.84218 -21.2637 8.30338 36.25447 98.4 77.6)"/><ellipse fill="#fff" rx="1" ry="1" transform="matrix(159.45 -2.48102 .25449 16.35525 109.5 10.4)"/><ellipse fill="#fff" cx="140" cy="127" rx="188" ry="12"/><ellipse fill="#fff" cx="199" cy="64" rx="15" ry="199"/><path fill="#00020d" d="M148 118l-2-34 38-2 1.8 34z"/><path fill="#23272d" d="M70 27h115v85H70z"/><ellipse fill="#fff" rx="1" ry="1" transform="matrix(.37725 -19.6473 137.126 2.63295 93.3 6.1)"/><ellipse fill="#cd9e80" cx="43" cy="41" rx="31" ry="31"/><ellipse fill="#fff" rx="1" ry="1" transform="matrix(-4.40105 -19.439 30.16409 -6.82924 98.9 132)"/><ellipse fill="#8f695a" cx="68" cy="89" rx="20" ry="31"/><ellipse fill="#fff" rx="1" ry="1" transform="matrix(18.9723 14.69278 -53.04159 68.49085 9.7 5.5)"/><path fill="#2d140a" d="M4.9 120L1.2 78l24-2 3.6 41.8z"/><ellipse fill="#fffcfa" cx="10" cy="60" rx="26" ry="9"/><path fill="#fff" d="M-2.5 116.9l106.6 9.3-1.6 19-106.6-9.4z"/><ellipse fill="#595e67" rx="1" ry="1" transform="rotate(51.8 12.3 185.5) scale(33.57206 22.13508)"/><ellipse fill="#fff" cx="156" cy="127" rx="143" ry="10"/><path fill="#fff7f8" d="M47 59l27-1-22-21z"/><path fill="#fff" d="M186 0h14v133h-14z"/><ellipse fill="#24181a" cx="92" cy="39" rx="37" ry="13"/><path fill="#4e2a1e" d="M25 25l47 57-29-6z"/><path fill="#0c1316" d="M150 117l-61-11 28-73z"/><path fill="#6b544b" d="M34 64h52v56H34z"/></g></svg>