<svg xmlns="http://www.w3.org/2000/svg" viewBox="0 0 700 467"><filter id="b"><feGaussianBlur stdDeviation="12" /></filter><path fill="#817372" d="M0 0h700v464H0z"/><g filter="url(#b)" transform="translate(1.4 1.4) scale(2.73438)" fill-opacity=".5"><ellipse fill="#fff" cx="185" cy="11" rx="229" ry="37"/><ellipse cx="227" cy="163" rx="99" ry="99"/><ellipse fill="#210500" cx="76" cy="92" rx="35" ry="35"/><ellipse fill="#fffffa" cx="158" cy="100" rx="20" ry="13"/><ellipse fill="#050000" cx="114" cy="169" rx="97" ry="23"/><ellipse fill="#fce8e8" cx="29" cy="17" rx="26" ry="91"/><ellipse fill="#fff8f4" rx="1" ry="1" transform="rotate(2.9 -450.7 3833.6) scale(34.71756 36.95492)"/><ellipse fill="#f3f3ff" cx="125" cy="6" rx="137" ry="28"/><path fill="#651d00" d="M15 30h17v39H15z"/><ellipse fill="#050611" cx="243" cy="101" rx="48" ry="48"/><ellipse fill="#642b0a" cx="118" cy="57" rx="16" ry="28"/><ellipse fill="#fff" cx="212" cy="145" rx="5" ry="16"/><path fill="#e7e0d8" d="M104 101h25v33h-25z"/><path fill="#563c41" d="M218 22h25v50h-25z"/><ellipse fill="#9e4416" rx="1" ry="1" transform="matrix(4.09366 14.56366 -10.07164 2.83101 190 49)"/><ellipse fill="#4900da" cx="149" cy="4" rx="18" ry="8"/><ellipse fill="#19140c" rx="1" ry="1" transform="matrix(12.14498 49.75807 -9.96645 2.43262 90.1 129.2)"/><ellipse fill="#3f2610" cx="151" cy="82" rx="28" ry="9"/><ellipse fill="#fffcff" rx="1" ry="1" transform="matrix(8.85614 .25732 -.62749 21.59627 142.4 48.3)"/><ellipse fill="#040701" rx="1" ry="1" transform="matrix(2.4988 17.5575 -10.90025 1.55134 52 86.3)"/><ellipse cx="54" cy="169" rx="5" ry="59"/><ellipse fill="#00021d" cx="173" cy="144" rx="35" ry="25"/></g></svg>