<svg xmlns="http://www.w3.org/2000/svg" viewBox="0 0 700 467"><filter id="b"><feGaussianBlur stdDeviation="12" /></filter><path fill="#78626c" d="M0 0h700v464H0z"/><g filter="url(#b)" transform="translate(1.4 1.4) scale(2.73438)" fill-opacity=".5"><ellipse fill="#fff" rx="1" ry="1" transform="matrix(30.87147 -64.14619 56.53118 27.20662 214.8 50.2)"/><ellipse fill="#001137" cx="42" cy="66" rx="113" ry="113"/><ellipse fill="#eb0000" rx="1" ry="1" transform="matrix(-114.01305 -11.27289 4.0289 -40.74791 206 155)"/><ellipse fill="#fff" cx="221" cy="48" rx="69" ry="69"/><ellipse fill="#fa0000" cx="115" cy="96" rx="13" ry="255"/><ellipse fill="#b1ccb0" rx="1" ry="1" transform="matrix(-13.1083 -.91662 8.90708 -127.37713 95.2 34.7)"/><ellipse fill="#003575" cx="26" cy="55" rx="53" ry="206"/><path fill="#fff" d="M151 68h105v46H151z"/><ellipse fill="#ab0000" cx="213" cy="151" rx="116" ry="38"/><path fill="#fff" d="M15 185l.2-27 15.6-3.8 8.1 21.1z"/><ellipse rx="1" ry="1" transform="matrix(12.98047 1.3461 -8.12477 78.3472 139.5 51.2)"/><ellipse fill="#caefec" cx="185" cy="19" rx="32" ry="96"/><ellipse fill="#00295b" cx="39" cy="25" rx="41" ry="134"/><ellipse fill="#6e8882" rx="1" ry="1" transform="rotate(-112.3 85.4 36.6) scale(30.85494 14.97494)"/><path fill="#00090d" d="M107.3 183.8l-43.5-7 4.9-30.6 43.5 7z"/><path fill="#7ee93b" d="M251.5 21.8L202.2 41l-29-1.6-.9-6.7z"/><ellipse fill="#da0000" cx="118" cy="25" rx="9" ry="109"/><ellipse fill="#fff" cx="243" cy="54" rx="32" ry="60"/><ellipse fill="#b40a00" cx="230" cy="145" rx="131" ry="32"/><path fill="#0054aa" d="M161.5 160L148 183.5l-9.5-5.5 13.5-23.3z"/><path fill="#e5f0ff" d="M153 44h50v70h-50z"/><ellipse fill="#004983" rx="1" ry="1" transform="matrix(-20.63438 -36.17591 54.63998 -31.1661 5.1 117.6)"/></g></svg>