<svg xmlns="http://www.w3.org/2000/svg" viewBox="0 0 200 133"><filter id="b"><feGaussianBlur stdDeviation="12" /></filter><path fill="#999899" d="M0 0h200v133H0z"/><g filter="url(#b)" transform="translate(.5 .5)" fill-opacity=".5"><ellipse fill="#210d00" cx="89" cy="106" rx="199" ry="37"/><ellipse fill="#fff" cx="110" rx="85" ry="85"/><ellipse fill="#f4ffff" rx="1" ry="1" transform="matrix(-.8748 -34.408 170.87515 -4.3444 106.6 23.2)"/><ellipse fill="#79685b" rx="1" ry="1" transform="rotate(-175.6 76 36.8) scale(137.92229 17.69481)"/><path d="M203.6 149l-33.8-12.3L194.4 69l33.8 12.3z"/><path fill="#f1cdad" d="M142 79l25.8 2.2-1.7 19.9-26-2.3z"/><ellipse fill="#dceaff" cx="116" cy="40" rx="54" ry="28"/><path fill="#fff" d="M32.5 140h-15v-16h15z"/><ellipse fill="#45362c" rx="1" ry="1" transform="matrix(-9.1826 8.63938 -5.27182 -5.6033 148.5 70.3)"/><path fill="#f3ffff" d="M188 0h12v69h-12z"/><path fill="#60594f" d="M48 49l17 8-26 63z"/><ellipse fill="#494137" cx="110" cy="108" rx="37" ry="37"/><ellipse fill="#cadffa" rx="1" ry="1" transform="matrix(-15.0422 -25.63882 37.33298 -21.90313 30.4 30.8)"/><path fill="#382c26" d="M171 74h18l-5-32z"/><ellipse fill="#c2c1ba" rx="1" ry="1" transform="rotate(35.9 -76.4 141.5) scale(6.05625 26.76121)"/><ellipse fill="#eff7ff" cx="148" cy="3" rx="107" ry="40"/><path fill="#000201" d="M165.5 164.6l-16-27.7 65-37.5 16 27.7z"/><path fill="#ffecc0" d="M168 82l6-10 7 3z"/><ellipse fill="#b78b74" cx="56" cy="76" rx="26" ry="4"/><path fill="#443f39" d="M89.7 77.2l.3-12.7-27.8 17.3 51.3 66.2z"/><path fill="#766a64" d="M153.3 48.7l8.6 9.3-24.2 9.6 35.3-4z"/><ellipse fill="#25211a" rx="1" ry="1" transform="rotate(171.2 73.6 64.2) scale(24.58553 5.07354)"/></g></svg>