<svg xmlns="http://www.w3.org/2000/svg" viewBox="0 0 200 133"><filter id="b"><feGaussianBlur stdDeviation="12" /></filter><path fill="#868d8f" d="M0 0h200v133H0z"/><g filter="url(#b)" transform="translate(.5 .5)" fill-opacity=".5"><ellipse fill="#000309" cx="95" cy="92" rx="36" ry="53"/><ellipse rx="1" ry="1" transform="matrix(-27.3895 2.97545 -5.73958 -52.83376 181.3 108.2)"/><ellipse fill="#fff" rx="1" ry="1" transform="matrix(40.0658 .94173 -4.67614 198.94505 21.1 54.2)"/><ellipse fill="#fff" rx="1" ry="1" transform="matrix(-30.6833 -3.93043 4.26384 -33.28611 56 6)"/><path d="M58 38h23v70H58z"/><ellipse fill="#dfffff" cx="133" cy="18" rx="17" ry="39"/><path fill="#7da7b8" d="M101 83l-7 65 64-36z"/><ellipse fill="#fffbf9" cx="43" cy="100" rx="18" ry="67"/><ellipse fill="#1e2326" cx="162" cy="44" rx="11" ry="104"/><ellipse fill="#5a6661" rx="1" ry="1" transform="rotate(178.5 10.3 44) scale(7.52497 90.67285)"/><ellipse rx="1" ry="1" transform="rotate(29.8 -168.1 206.9) scale(13.90609 26.02807)"/><ellipse fill="#fffaf5" rx="1" ry="1" transform="matrix(5.46281 -1.06232 8.49529 43.6855 182.7 39.1)"/><path fill="#beeeee" d="M135.7 134.6l-6.3-89.8 21-1.4 6.2 89.8z"/><ellipse fill="#000001" cx="173" cy="118" rx="19" ry="31"/><ellipse fill="#f9f2f0" rx="1" ry="1" transform="rotate(-7.4 141.8 -715.5) scale(6.30769 31.60225)"/><path fill="#606774" d="M100 39h33v94h-33z"/><ellipse fill="#fff" cx="100" cy="128" rx="3" ry="39"/><ellipse fill="#fdf9f9" rx="1" ry="1" transform="rotate(-143.4 33.3 -2.3) scale(14.91813 50.88589)"/><path fill="#d53f0b" d="M95 74h36v14H95z"/><path fill="#44423f" d="M71 92l7-81 29 59z"/><path fill="#fff" d="M130.5 38.7l-14.8-1.9 7.8-63.5 14.8 1.9z"/><path fill="#fffffc" d="M186.2 34.1l-4.4-35.7 4-.5 4.4 35.7z"/></g></svg>