<svg xmlns="http://www.w3.org/2000/svg" viewBox="0 0 700 467"><filter id="b"><feGaussianBlur stdDeviation="12" /></filter><path fill="#5f403e" d="M0 0h700v464H0z"/><g filter="url(#b)" transform="translate(1.4 1.4) scale(2.73438)" fill-opacity=".5"><ellipse fill="#fff3ee" cx="143" cy="151" rx="44" ry="43"/><ellipse fill="#a9bbd6" cx="250" cy="115" rx="36" ry="36"/><ellipse fill="#200000" rx="1" ry="1" transform="matrix(168.6958 -18.60064 4.76916 43.25322 117.5 19.6)"/><ellipse fill="#dba677" cx="141" cy="80" rx="22" ry="34"/><path fill="#000010" d="M226 185L204 41l-29 75z"/><ellipse fill="#b16e53" cx="230" cy="56" rx="18" ry="36"/><ellipse fill="#410000" rx="1" ry="1" transform="matrix(23.64467 -13.6354 38.69792 67.10465 15.1 169)"/><path fill="#da8259" d="M3 40l-19 28 46 48z"/><ellipse fill="#6a7d7a" rx="1" ry="1" transform="rotate(26.6 -228.7 228.2) scale(21.07824 28.67471)"/><ellipse fill="#581005" cx="112" cy="169" rx="21" ry="10"/><ellipse fill="#e68a64" rx="1" ry="1" transform="rotate(169.5 90.8 41.1) scale(6.98052 21.77056)"/><ellipse fill="#000314" cx="178" cy="99" rx="30" ry="10"/><path fill="#ddd0d9" d="M86.8 160l11.4-16.3 9 6.3-11.4 16.3z"/><path fill="#570000" d="M103 117L63 49l74 65z"/><path fill="#4d0000" d="M23.5 51.4l45 53.7-16 13.5-45-53.7z"/><ellipse fill="#000416" cx="242" cy="164" rx="56" ry="9"/><ellipse fill="#d6cdca" rx="1" ry="1" transform="matrix(-5.44515 35.28014 -14.41625 -2.22501 149.4 142.9)"/><path fill="#bfa39b" d="M114 68l39 29-57-17z"/><ellipse fill="#dbd2e6" cx="199" cy="123" rx="6" ry="7"/><ellipse fill="#bcc9d7" cx="218" cy="70" rx="10" ry="8"/><path fill="#160706" d="M230 24h26v20h-26z"/><path fill="#90492f" d="M142.2 100.4l8.5 5.3-25 39.9-8.4-5.3z"/></g></svg>