<svg xmlns="http://www.w3.org/2000/svg" viewBox="0 0 700 467"><filter id="b"><feGaussianBlur stdDeviation="12" /></filter><path fill="#753884" d="M0 0h700v464H0z"/><g filter="url(#b)" transform="translate(1.4 1.4) scale(2.73438)" fill-opacity=".5"><ellipse fill="#e568eb" rx="1" ry="1" transform="matrix(-39.42332 -44.24776 23.93656 -21.3267 94 104.1)"/><ellipse fill="#0c0645" rx="1" ry="1" transform="rotate(109.8 69 127.8) scale(38.34547 56.33014)"/><path fill="#1f0000" d="M-9 159h188l-96 26z"/><ellipse fill="#656a3d" cx="212" cy="30" rx="60" ry="41"/><ellipse fill="#f1558c" cx="155" cy="48" rx="22" ry="41"/><path fill="#e241ff" d="M231.8 148.2l-.6 18-71-2.4.6-18z"/><ellipse fill="#acc1a8" cx="246" cy="30" rx="25" ry="28"/><path fill="#003" d="M198 47l-34-58 55 6z"/><path fill="#871aff" d="M-16 68v106l45-89z"/><ellipse fill="#6348f9" cx="123" cy="105" rx="23" ry="23"/><ellipse fill="#ee4dff" cx="44" cy="147" rx="39" ry="7"/><ellipse fill="#8c9b9f" cx="7" cy="33" rx="36" ry="24"/><ellipse fill="#f651d8" rx="1" ry="1" transform="matrix(-16.81825 51.97052 -9.8861 -3.19925 81.7 66.8)"/><ellipse fill="#f000f2" rx="1" ry="1" transform="matrix(5.11472 39.88079 -6.22295 .7981 151.2 82.2)"/><path fill="#1d0d2f" d="M174.5 140.8l10-6.6-55.6-1.6 101-109z"/><ellipse fill="#170069" cx="60" rx="63" ry="15"/><ellipse fill="#774ece" cx="208" cy="120" rx="9" ry="30"/><path fill="#ad642f" d="M159 14h29v66h-29z"/><path fill="#aa8e94" d="M124.8 127.8l-42.3 32-19.3-25.6 42.3-32z"/><ellipse fill="#ff46dc" cx="72" cy="87" rx="21" ry="21"/><ellipse fill="#460000" rx="1" ry="1" transform="rotate(-88 141.7 28.4) scale(6.29464 146.65988)"/><path fill="#00004c" d="M271-16l-48 27-70-8z"/></g></svg>