<svg xmlns="http://www.w3.org/2000/svg" viewBox="0 0 641 195"><filter id="b"><feGaussianBlur stdDeviation="12" /></filter><path fill="#3d4353" d="M0 0h641v192H0z"/><g filter="url(#b)" transform="translate(1.3 1.3) scale(2.5039)" fill-opacity=".5"><ellipse fill="#98f4ff" cx="127" cy="6" rx="35" ry="35"/><ellipse fill="#790500" rx="1" ry="1" transform="matrix(71.16235 1.67177 -.24021 10.2252 127.7 50)"/><ellipse fill="#00163b" cx="36" cy="19" rx="42" ry="42"/><ellipse fill="#001746" cx="211" cy="20" rx="38" ry="38"/><ellipse fill="#68b9ff" cx="127" cy="30" rx="35" ry="11"/><ellipse fill="#fffecc" rx="1" ry="1" transform="matrix(1.09764 15.77222 -8.93488 .6218 104.1 76)"/><ellipse fill="#fff6cd" rx="1" ry="1" transform="matrix(-13.8756 -.5573 .17132 -4.2655 230.5 72.6)"/><ellipse fill="#911f0b" rx="1" ry="1" transform="rotate(178.4 82 14.2) scale(7.16362 28.60661)"/><path fill="#f69f51" d="M68.4 76l3.7-14-40.7 10.6L37.7 92z"/><path fill="#fff" d="M133 25.5l-19-2.4-1.6-10.3 25-1.6z"/><ellipse fill="#750b00" cx="137" cy="64" rx="25" ry="25"/><path fill="#eef4ef" d="M176.5 71.3L156 58.8l22.1 2.8 1.3 3.8z"/><path fill="#c96b4b" d="M200.8 83.8l.4-28 26 .4-.4 28z"/><path fill="#42a7ff" d="M94 8h21v32H94z"/><path fill="#a70000" d="M86 3h8v42h-8z"/><ellipse fill="#002146" rx="1" ry="1" transform="rotate(156.2 21 14.7) scale(29.69248 32.57252)"/><ellipse fill="#002036" rx="1" ry="1" transform="matrix(-17.38057 -13.09534 17.13807 -22.74622 196.8 35.5)"/><path fill="#6b240c" d="M156-16L82 1l80 3z"/><ellipse fill="#003d70" rx="1" ry="1" transform="matrix(-27.03388 13.46266 -14.28575 -28.6867 218 .7)"/><ellipse fill="#002050" cx="1" cy="72" rx="11" ry="204"/><ellipse fill="#7b5632" cx="32" cy="67" rx="21" ry="18"/><ellipse fill="#8f0000" cx="160" cy="22" rx="3" ry="26"/></g></svg>