<svg xmlns="http://www.w3.org/2000/svg" viewBox="0 0 700 467"><filter id="b"><feGaussianBlur stdDeviation="12" /></filter><path fill="#91938a" d="M0 0h700v464H0z"/><g filter="url(#b)" transform="translate(1.4 1.4) scale(2.73438)" fill-opacity=".5"><ellipse fill="#1f1000" rx="1" ry="1" transform="matrix(95.4503 -23.97546 8.85665 35.2598 79.4 169.4)"/><ellipse fill="#fff" cx="25" cy="14" rx="35" ry="35"/><ellipse fill="#fffff6" cx="196" cy="17" rx="39" ry="39"/><ellipse fill="#e2ffff" cx="53" cy="100" rx="19" ry="56"/><ellipse fill="#000002" rx="1" ry="1" transform="matrix(6.07102 37.90264 -17.38922 2.7853 19.7 124.9)"/><path fill="#feffff" d="M113 30l45-45L36 0z"/><path fill="#0c0f16" d="M221 104l8-77 42-3z"/><path fill="#121111" d="M51 24h48v28H51z"/><ellipse fill="#0d1124" cx="94" cy="152" rx="34" ry="33"/><ellipse fill="#c9d3ea" rx="1" ry="1" transform="matrix(-10.67394 -16.04706 30.42191 -20.23557 35.7 75.5)"/><ellipse fill="#e9fcff" rx="1" ry="1" transform="matrix(-9.26474 9.04108 -16.07157 -16.46915 98.3 90.8)"/><ellipse fill="#a98827" rx="1" ry="1" transform="rotate(105.5 20.4 131) scale(28.68852 29.56443)"/><ellipse fill="#00021f" cx="240" cy="126" rx="10" ry="10"/><path fill="#060000" d="M148 0h10v67h-10z"/><ellipse fill="#fdffff" rx="1" ry="1" transform="matrix(-11.85874 16.37072 -28.93538 -20.96042 19.6 24)"/><path fill="#ffffdf" d="M281 26l-122.9-2 .8-46 123 2z"/><ellipse fill="#ffef9f" rx="1" ry="1" transform="rotate(79.5 10.5 185.2) scale(31.79522 12.35586)"/><path fill="#cec7b2" d="M81 89h10v62H81z"/><path fill="#d6f7f6" d="M131.7 16l17 1-2.4 45-17-1z"/><ellipse fill="#bfd2e7" rx="1" ry="1" transform="matrix(23.62092 -75.07793 6.37016 2.00417 45.2 148.7)"/><path fill="#fcffe8" d="M221 37h25v10h-25z"/><path fill="#3e3e35" d="M210.7 103l-22.5-39 19-11 22.6 39z"/></g></svg>