<svg xmlns="http://www.w3.org/2000/svg" viewBox="0 0 700 467"><filter id="b"><feGaussianBlur stdDeviation="12" /></filter><path fill="#635b68" d="M0 0h700v464H0z"/><g filter="url(#b)" transform="translate(1.4 1.4) scale(2.73438)" fill-opacity=".5"><ellipse fill="#fffffc" rx="1" ry="1" transform="matrix(-.83708 -31.26348 254.90864 -6.8252 186.3 17.5)"/><ellipse fill="#0a0a21" rx="1" ry="1" transform="matrix(-2.88739 -72.46477 136.4788 -5.43806 132.5 131)"/><ellipse fill="#fff" rx="1" ry="1" transform="matrix(-30.99575 12.52862 -4.83181 -11.95389 225.6 13.2)"/><path fill="#b4634e" d="M39 29h152v26H39z"/><ellipse fill="#fff" rx="1" ry="1" transform="matrix(-10.97595 11.16921 -15.35924 -15.09348 102.3 22.1)"/><path fill="#fff" d="M154 .1l31.8 20.7-9.8 15.1-31.8-20.7zM37.2 41.3l-53.2-21v52L37.1 14z"/><ellipse fill="#f4beaf" rx="1" ry="1" transform="matrix(-5.14538 -14.13682 22.79995 -8.2985 216.2 41.8)"/><ellipse fill="#945559" cx="211" cy="72" rx="9" ry="51"/><ellipse fill="#c26d28" rx="1" ry="1" transform="matrix(9.09066 -9.9905 14.6649 13.34403 250.2 152.6)"/><ellipse fill="#fff" rx="1" ry="1" transform="matrix(19.2994 -4.0319 2.32492 11.12864 0 13.9)"/><path fill="#3d3257" d="M271 76.1l-77.5 69 45.3-111.8-5.5-19.5z"/><ellipse fill="#0e2131" cx="41" cy="169" rx="182" ry="26"/><path fill="#fff" d="M116-16h25l-6 51z"/><path fill="#de773a" d="M6.1 52.3l5.2-22.4 16.6 3.8-5.2 22.4z"/><ellipse fill="#1d4685" rx="1" ry="1" transform="rotate(-91.9 103 -84.4) scale(35.277 4.16632)"/><ellipse fill="#113e82" cx="21" rx="6" ry="25"/><path fill="#fff" d="M73 7h39v19H73z"/><path fill="#0e306e" d="M48 25.4l-9-1 3-27.8 9 1z"/><path fill="#974e2e" d="M68 27h30v22H68z"/><ellipse fill="#683a57" rx="1" ry="1" transform="rotate(140.1 69.8 65.5) scale(23.75334 30.11263)"/><path fill="#fff" d="M51-2l22-2-20 28z"/></g></svg>