<svg xmlns="http://www.w3.org/2000/svg" viewBox="0 0 200 133"><filter id="b"><feGaussianBlur stdDeviation="12" /></filter><path fill="#837374" d="M0 0h200v133H0z"/><g filter="url(#b)" transform="translate(.5 .5)" fill-opacity=".5"><ellipse fill="#fff" cx="139" cy="11" rx="153" ry="28"/><ellipse rx="1" ry="1" transform="matrix(20.56332 31.76048 -113.72477 73.63108 166 101.3)"/><path fill="#230e03" d="M38 51h41v82H38z"/><ellipse fill="#f1dfeb" cx="13" cy="28" rx="35" ry="35"/><path fill="#fffbda" d="M116 68.8l23 9.8-7 16.6-23-9.8z"/><ellipse fill="#fdfcff" cx="96" rx="115" ry="27"/><ellipse fill="#020114" cx="169" cy="79" rx="30" ry="30"/><ellipse fill="#5d311c" cx="91" cy="53" rx="15" ry="30"/><ellipse fill="#e1dae0" cx="56" cy="110" rx="10" ry="15"/><ellipse fill="#be7e59" cx="12" cy="70" rx="19" ry="46"/><path fill="#622f17" d="M44 25h18v74H44z"/><path fill="#fdebe5" d="M106 12h65v36h-65z"/><ellipse fill="#000015" cx="133" cy="121" rx="28" ry="28"/><ellipse fill="#fff" cx="165" cy="113" rx="3" ry="13"/><ellipse fill="#ddc5bc" cx="91" cy="97" rx="14" ry="20"/><path fill="#5d0ce0" d="M102.1-7.3l22.3-8.7 10 24.2-26.1 2.4z"/><path fill="#210000" d="M18.3 141.9l-4.7-55.2L25 123l111.4 12.7z"/><ellipse fill="#58353b" rx="1" ry="1" transform="matrix(10.3997 1.33837 -2.53154 19.67108 181.1 35.3)"/><path fill="#000209" d="M33 60h33v23H33z"/><path fill="#954824" d="M155.7 30.5l-.3 30.6-14.8-20-.7-16.5z"/><ellipse fill="#f7e2cb" rx="1" ry="1" transform="matrix(-1.557 -11.58569 10.92844 -1.46867 23.6 74)"/><path fill="#fdffff" d="M27 0h15v51H27z"/></g></svg>