<svg xmlns="http://www.w3.org/2000/svg" viewBox="0 0 700 467"><filter id="b"><feGaussianBlur stdDeviation="12" /></filter><path fill="#5c513f" d="M0 0h700v464H0z"/><g filter="url(#b)" transform="translate(1.4 1.4) scale(2.73438)" fill-opacity=".5"><ellipse fill="#fff" rx="1" ry="1" transform="matrix(-44.70409 5.67053 -10.19846 -80.40041 210.9 16.3)"/><ellipse rx="1" ry="1" transform="matrix(25.59133 -34.13749 190.45947 142.77884 4 114.3)"/><ellipse fill="#fff" cx="231" cy="37" rx="48" ry="25"/><ellipse rx="1" ry="1" transform="matrix(9.6364 43.26399 -94.14977 20.97045 206.4 169)"/><ellipse fill="#e5b576" cx="105" cy="114" rx="42" ry="22"/><path fill="#000210" d="M186 35l12 73-41-10z"/><path d="M-19-2l49.8 3.4L19 170l-49.8-3.4z"/><ellipse cx="253" cy="74" rx="32" ry="11"/><ellipse fill="#2b3200" cx="213" rx="55" ry="11"/><ellipse fill="#a8a078" cx="164" cy="30" rx="18" ry="39"/><ellipse fill="#fff" rx="1" ry="1" transform="matrix(-30.78993 19.80962 -12.66602 -19.6867 223.4 41.5)"/><ellipse rx="1" ry="1" transform="matrix(15.27314 23.42895 -69.21947 45.1236 214.3 161)"/><path fill="#ffea55" d="M201.4 128.2l20.2-4.9L251.3 94l-52 19.9z"/><path fill="#dcc6b8" d="M118.5 72.6l-6.8-38.4 15.8-2.8 6.8 38.4z"/><ellipse cx="32" cy="152" rx="35" ry="70"/><ellipse fill="#3a010a" cx="61" cy="75" rx="15" ry="39"/><ellipse rx="1" ry="1" transform="matrix(32.29133 -18.04735 3.38573 6.05794 192.9 114)"/><ellipse fill="#ffefcd" rx="1" ry="1" transform="rotate(159.9 96.6 59.3) scale(13.09534 15.68763)"/><path fill="#0c1832" d="M136 51h28v52h-28z"/><ellipse fill="#c9966d" rx="1" ry="1" transform="rotate(139.4 5 39.5) scale(17.84317 11.76413)"/><ellipse fill="#d7eee1" cx="167" cy="52" rx="6" ry="21"/><ellipse fill="#ffdf94" rx="1" ry="1" transform="matrix(1.9156 1.76143 -17.53663 19.07146 165.2 119)"/></g></svg>