<svg xmlns="http://www.w3.org/2000/svg" viewBox="0 0 700 467"><filter id="b"><feGaussianBlur stdDeviation="12" /></filter><path fill="#0a1d06" d="M0 0h700v464H0z"/><g filter="url(#b)" transform="translate(1.4 1.4) scale(2.73438)" fill-opacity=".5"><path fill="#d2ffc1" d="M137 84l12.1-35L187 62l-12 35z"/><path fill="#fcfff9" d="M178 91l-6-30-25 22z"/><ellipse fill="#5ae213" rx="1" ry="1" transform="matrix(32.9888 -3.9923 1.5807 13.0615 56.6 0)"/><path fill="#307f3c" d="M172 58h46v21h-46z"/><path fill="#edfadf" d="M117.2 83L98.4 72.3l-3.5-.4L105 85.6z"/><path fill="#88a785" d="M210 84l45 5-80-34z"/><path fill="#008300" d="M147 88h37v28h-37z"/><ellipse cx="232" cy="24" rx="51" ry="51"/><path fill="#6cfb30" d="M136 61h29v19h-29z"/><path fill="#000d00" d="M176.9 67.5l51 14.6-4.8 16.4-51-14.6z"/><ellipse fill="#000600" rx="1" ry="1" transform="rotate(178.3 39.8 24.6) scale(83.86258 27.73643)"/><ellipse cx="221" cy="138" rx="54" ry="54"/><path fill="#fff" d="M167.7 56.4l7.4 32.1-4.8 1.1-7.4-32.1z"/><ellipse cy="110" rx="65" ry="95"/><ellipse fill="#dfbcd1" cx="242" cy="87" rx="5" ry="5"/><ellipse fill="#54d243" rx="1" ry="1" transform="rotate(-130.4 75.7 -35) scale(2.87558 24.21271)"/><ellipse fill="#64b154" rx="1" ry="1" transform="matrix(-33.65568 -15.56854 1.8012 -3.8938 180.4 61)"/><path fill="#02580a" d="M143.3 22.5L190 91.3l-28.2 55.3L186 63.5z"/><ellipse rx="1" ry="1" transform="rotate(158.8 57.6 93.7) scale(55.80772 29.49138)"/><path fill="#e8ffe2" d="M150 66.3l25.7 15.4-3.6 6-25.8-15.4z"/><path fill="#056f07" d="M189 87l-88 16 40 9z"/><path fill="#d1cf9a" d="M108 79l-7 4-12-15z"/></g></svg>