<svg xmlns="http://www.w3.org/2000/svg" viewBox="0 0 700 467"><filter id="b"><feGaussianBlur stdDeviation="12" /></filter><path fill="#635b68" d="M0 0h700v464H0z"/><g filter="url(#b)" transform="translate(1.4 1.4) scale(2.73438)" fill-opacity=".5"><ellipse fill="#fffffc" rx="1" ry="1" transform="matrix(-254.953 -4.89535 .59856 -31.17336 122.8 18)"/><ellipse fill="#0b0b22" rx="1" ry="1" transform="matrix(6.07448 71.09078 -144.26814 12.32726 127.7 130.1)"/><ellipse fill="#b76a56" rx="1" ry="1" transform="matrix(-.02563 15.04546 -88.84295 -.15137 104 41.6)"/><path fill="#fff" d="M148 6h101v18H148zm-44-9L67 16l58 25z"/><path fill="#0d326f" d="M185-16l2 58 12-40z"/><path fill="#fff7e1" d="M262-16l-48 92 9-92z"/><path fill="#7a392b" d="M267 126.8L246 19l-14.7 4.2 2 13.2z"/><ellipse fill="#fff" cx="1" cy="23" rx="11" ry="30"/><path fill="#fff" d="M29 0h10v42H29z"/><ellipse fill="#a8504e" cx="213" cy="69" rx="12" ry="31"/><path fill="#be6a26" d="M233 138h23v26h-23z"/><ellipse fill="#ffefde" cx="32" cy="93" rx="2" ry="27"/><ellipse fill="#fff" cx="199" cy="29" rx="5" ry="28"/><path fill="#fff" d="M47.6-6L63 59.5l-3.4-46 34-29.5z"/><path fill="#cc763c" d="M108.7 101.6l19.1-17.5-41.6 1.4 22 16z"/><ellipse fill="#031727" rx="1" ry="1" transform="matrix(84.66183 23.23485 -4.76347 17.35688 86.7 169)"/><path fill="#fff" d="M119-16h24l-9 54z"/><path fill="#02337c" d="M28 19l-13 6 7-41z"/><ellipse fill="#704150" rx="1" ry="1" transform="matrix(-9.51449 20.3841 -38.97463 -18.1918 180.6 70.5)"/><path fill="#ffdaa8" d="M167 137l9-4.3 3 6.4-9 4.2z"/><path fill="#2b3d6b" d="M53.5-18.8l-5 48.7-10-1 5-48.8z"/></g></svg>