<svg xmlns="http://www.w3.org/2000/svg" viewBox="0 0 800 533"><filter id="b"><feGaussianBlur stdDeviation="12" /></filter><path fill="#301e2e" d="M0 0h800v531H0z"/><g filter="url(#b)" transform="translate(1.6 1.6) scale(3.125)" fill-opacity=".5"><ellipse fill="#e8c5ff" rx="1" ry="1" transform="matrix(6.16856 34.28341 -71.37696 12.84274 125 82)"/><path fill="#ffc4ff" d="M22.8 99.7l198.4-5.1 3.6 14.2-111.4 4.1z"/><ellipse rx="1" ry="1" transform="matrix(0 32.99202 -184.66163 0 122.6 144.6)"/><path fill="#ff60ff" d="M74.4 44.4l22 1.2-.8 16-22-1.2z"/><path fill="#020000" d="M177 79.5L210.8 7 257 28.5 223.2 101z"/><ellipse rx="1" ry="1" transform="matrix(40.03227 10.6804 -3.97272 14.89056 44.9 65.3)"/><ellipse fill="#30d1ff" rx="1" ry="1" transform="matrix(-3.88 -16.00819 28.08324 -6.8067 139.1 63)"/><ellipse fill="#c16a91" cx="202" cy="96" rx="29" ry="16"/><ellipse cx="47" cy="24" rx="30" ry="55"/><path d="M236 49l33-65L20 38z"/><path fill="#ff1dff" d="M164.2 46.8l24 .4-.4 24-24-.4z"/><path fill="#fff9ff" d="M127 84l-34 26-46-3z"/><path fill="#d2009e" d="M51 96l15 15-52-5z"/><path fill="#ff43fd" d="M76 46h24v24H76z"/><ellipse cx="203" cy="165" rx="55" ry="55"/><ellipse rx="1" ry="1" transform="matrix(177.03867 -.5945 .08394 24.9969 101.2 147.5)"/><path fill="#d30dc7" d="M240 36h16v14h-16z"/><path d="M259.5 82.4l-36-84.7L201.9 53l-40 28.2z"/><ellipse fill="#bd10a8" rx="1" ry="1" transform="rotate(-99.1 19.3 18.8) scale(9.23647 12.36112)"/><path fill="#000e46" d="M111 80l-1-32H97z"/><ellipse fill="#ffcdff" cx="181" cy="103" rx="24" ry="5"/><path fill="#0a0000" d="M156.8 107.8l-9.1 7.7-4.5-5.3 9.1-7.7z"/></g></svg>