<svg xmlns="http://www.w3.org/2000/svg" viewBox="0 0 700 467"><filter id="b"><feGaussianBlur stdDeviation="12" /></filter><path fill="#3b4c7f" d="M0 0h700v464H0z"/><g filter="url(#b)" transform="translate(1.4 1.4) scale(2.73438)" fill-opacity=".5"><ellipse fill="#ff1707" rx="1" ry="1" transform="matrix(8.20972 42.7233 -25.8895 4.97493 109.3 132.1)"/><ellipse fill="#3f88ff" cx="147" rx="82" ry="82"/><ellipse fill="#0d1000" cx="197" cy="147" rx="75" ry="35"/><ellipse fill="#000a00" cx="41" cy="156" rx="52" ry="52"/><ellipse fill="#7198e3" rx="1" ry="1" transform="matrix(-45.02547 7.9392 -5.10627 -28.9591 54.3 70)"/><ellipse fill="#a37e44" rx="1" ry="1" transform="rotate(179.9 91.6 45.3) scale(16.15041 47.3069)"/><ellipse fill="#0f57d6" rx="1" ry="1" transform="rotate(57 94 206.3) scale(140.36195 39.11655)"/><ellipse fill="#c5eeff" rx="1" ry="1" transform="matrix(24.47754 1.66871 -1.00956 14.80877 139.8 10.1)"/><path fill="#fff" d="M60.2 95.6L38.7 100l-3-13.7L57.4 82z"/><ellipse fill="#a2a5c3" cx="202" cy="61" rx="167" ry="9"/><ellipse fill="#f7625f" rx="1" ry="1" transform="rotate(-92.5 108.3 7.6) scale(47.32772 9.97674)"/><ellipse fill="#003aad" rx="1" ry="1" transform="matrix(-56.40583 -22.27098 11.60256 -29.38587 36 15.7)"/><ellipse fill="#0140d6" cx="13" cy="91" rx="21" ry="27"/><ellipse fill="#001005" cx="104" cy="169" rx="55" ry="8"/><path fill="#142220" d="M144 75h28v93h-28z"/><ellipse fill="#051b1d" rx="1" ry="1" transform="matrix(-15.4176 5.93004 -27.69707 -72.01 220.8 140.8)"/><ellipse fill="#ff1438" rx="1" ry="1" transform="matrix(-3.52097 -13.67976 24.74196 -6.3682 105.2 115)"/><ellipse fill="#f2bc5e" cx="247" cy="152" rx="4" ry="24"/><ellipse fill="#dba64c" cx="55" cy="72" rx="12" ry="12"/><path fill="#c9ffff" d="M107 149h14v11h-14z"/><path fill="#eeaa7f" d="M175 46h15v46h-15z"/><path fill="#1840b5" d="M208 92h48v26h-48z"/></g></svg>