<svg xmlns="http://www.w3.org/2000/svg" viewBox="0 0 700 467"><filter id="b"><feGaussianBlur stdDeviation="12" /></filter><path fill="#4d5861" d="M0 0h700v464H0z"/><g filter="url(#b)" transform="translate(1.4 1.4) scale(2.73438)" fill-opacity=".5"><ellipse fill="#d5d3d2" rx="1" ry="1" transform="matrix(4.8259 -33.08035 48.5884 7.08828 149.8 92.4)"/><ellipse fill="#000f29" cx="196" rx="60" ry="60"/><ellipse fill="#c9ffff" cx="81" cy="58" rx="9" ry="41"/><ellipse fill="#00000c" cx="42" rx="44" ry="44"/><ellipse fill="#0a0000" cx="240" cy="128" rx="44" ry="25"/><ellipse fill="#d5e5f1" cx="48" cy="84" rx="8" ry="57"/><ellipse fill="#67ffff" rx="1" ry="1" transform="matrix(-2.4543 -39.23675 8.80297 -.55063 220.3 57.5)"/><path fill="#a7f7ff" d="M22.3 87.3L6.4 85l9.3-66.4L31.6 21z"/><ellipse fill="#5f260c" cx="16" cy="130" rx="148" ry="28"/><path fill="#86ffff" d="M239.7 36.5l12.9-1.6 5.7 46.6-12.9 1.6z"/><ellipse fill="#90bbea" cx="173" cy="169" rx="169" ry="12"/><ellipse fill="#001214" cx="132" cy="10" rx="144" ry="24"/><ellipse fill="#fff" rx="1" ry="1" transform="matrix(-4.73747 4.66469 -12.29269 -12.4845 104.4 .8)"/><ellipse fill="#e4c0ca" rx="1" ry="1" transform="matrix(13.98362 28.67067 -7.84943 3.82842 231 91.6)"/><path fill="#e3aea0" d="M48 94L7 85l50 54z"/><ellipse fill="#9befff" cx="51" cy="52" rx="9" ry="29"/><path fill="#4691c3" d="M106 37h87v40h-87z"/><ellipse fill="#000006" cx="4" cy="91" rx="6" ry="188"/><path d="M170 152l-32 1 2-51zM67 108l-13-1.4L63 22l13 1.3zM42 89l-19-7 17-70z"/><path fill="#93ffff" d="M74 19h15v77H74z"/></g></svg>