<svg xmlns="http://www.w3.org/2000/svg" viewBox="0 0 200 133"><filter id="b"><feGaussianBlur stdDeviation="12" /></filter><path fill="#69af94" d="M0 0h200v133H0z"/><g filter="url(#b)" transform="translate(.5 .5)" fill-opacity=".5"><ellipse fill="#fff" rx="1" ry="1" transform="matrix(-1.82132 -17.04249 154.66137 -16.52853 84.1 31)"/><ellipse cx="40" rx="76" ry="16"/><ellipse cx="117" cy="132" rx="21" ry="21"/><ellipse fill="#905a25" cx="42" cy="34" rx="16" ry="80"/><path d="M143 78h22v47h-22z"/><ellipse fill="#00a250" cx="13" cy="123" rx="69" ry="22"/><ellipse cx="199" cy="53" rx="26" ry="12"/><path fill="#001d17" d="M55 49h39v16H55z"/><path fill="#82ffe7" d="M59 66h83v37H59z"/><ellipse fill="#fff" cx="111" cy="25" rx="38" ry="17"/><path fill="#00210e" d="M114 46h35v18h-35z"/><path d="M0 55h28v12H0z"/><ellipse fill="#2dffb7" cx="194" cy="95" rx="31" ry="31"/><path fill="#fff" d="M169 24h31v18h-31z"/><path fill="#ffdad1" d="M141 56h34v23h-34z"/><ellipse fill="#002420" rx="1" ry="1" transform="matrix(-2.28326 -20.0689 103.9505 -11.82654 34.7 0)"/><ellipse fill="#005c99" rx="1" ry="1" transform="matrix(-5.65743 -1.04854 8.94406 -48.2578 105.2 100.5)"/><path fill="#d4e9e2" d="M30.6 71.4l-5-31.6 19.8-3.2 5 31.6z"/><path fill="#0f1608" d="M164.8 35.8L155.2 52l3.7 79.5L167.1 24z"/><path fill="#ffe9ff" d="M112.7 46.8L91 102l7.1-53 54.4-20z"/><ellipse fill="#00ffb1" cx="199" rx="80" ry="13"/><path fill="#00cd9b" d="M48 97h52v36H48z"/></g></svg>