<svg xmlns="http://www.w3.org/2000/svg" viewBox="0 0 200 133"><filter id="b"><feGaussianBlur stdDeviation="12" /></filter><path fill="#4c4479" d="M0 0h200v133H0z"/><g filter="url(#b)" transform="translate(.5 .5)" fill-opacity=".5"><ellipse fill="#fff3ff" cx="141" cy="114" rx="178" ry="30"/><ellipse cx="34" cy="25" rx="65" ry="65"/><ellipse fill="#fff" rx="1" ry="1" transform="rotate(-179.6 51.5 30.9) scale(13.84089 27.11175)"/><ellipse fill="#00002a" cx="158" cy="33" rx="50" ry="50"/><ellipse cx="39" cy="34" rx="52" ry="52"/><ellipse rx="1" ry="1" transform="matrix(-2.56524 12.03468 -17.50389 -3.73102 74.8 132)"/><ellipse fill="#b7bdff" rx="1" ry="1" transform="matrix(-57.64459 12.76777 -5.6278 -25.40865 152.9 108.9)"/><ellipse fill="#000006" rx="1" ry="1" transform="matrix(26.4199 -20.79082 10.86475 13.80637 143.3 59.6)"/><path fill="#fff" d="M115.9 44l3.8 19.7L98.1 68l-3.8-19.6z"/><ellipse fill="#414192" cx="151" cy="105" rx="72" ry="6"/><ellipse fill="#c697ff" rx="1" ry="1" transform="rotate(71.3 -66.7 75.8) scale(21.12188 48.06987)"/><ellipse fill="#00006a" cx="127" rx="38" ry="38"/><path fill="#00000f" d="M0 0h89v88H0z"/><ellipse fill="#cfceff" cx="156" cy="127" rx="61" ry="19"/><path fill="#b3affe" d="M117.8 61.6L81.1 48.8l8.5 22.5 15 75.6z"/><path fill="#00a1ff" d="M186-10l22 84 7-36z"/><path fill="#cfffff" d="M156.5-31.2l30 112-1 .4-30-112z"/><path fill="#000003" d="M60 120h22v13H60z"/><path fill="#000014" d="M62 62h29v24H62z"/><ellipse fill="#00000f" cx="193" cy="60" rx="10" ry="21"/><ellipse fill="#e7dcff" cx="54" cy="100" rx="40" ry="6"/><ellipse fill="#ebe4ff" cx="136" cy="91" rx="73" ry="6"/></g></svg>