<svg xmlns="http://www.w3.org/2000/svg" viewBox="0 0 800 533"><filter id="b"><feGaussianBlur stdDeviation="12" /></filter><path fill="#564b39" d="M0 0h800v531H0z"/><g filter="url(#b)" transform="translate(1.6 1.6) scale(3.125)" fill-opacity=".5"><ellipse fill="#e7ffff" rx="1" ry="1" transform="rotate(32.8 -62.4 309) scale(37.39943 56.09217)"/><ellipse rx="1" ry="1" transform="matrix(-239.76102 40.66643 -7.6131 -44.88534 82.5 4)"/><ellipse fill="#effaf2" rx="1" ry="1" transform="matrix(10.86029 -9.69827 21.502 24.0783 199.6 103.2)"/><path d="M52 148l-51 7L-10-6z"/><ellipse rx="1" ry="1" transform="rotate(-103.7 173.8 -40.3) scale(44.56352 30.98473)"/><ellipse fill="#ffd9ae" cx="40" cy="165" rx="75" ry="9"/><path fill="#ffe58f" d="M79 98l39 42L83 36z"/><ellipse fill="#ffd47d" cx="218" cy="61" rx="11" ry="35"/><ellipse fill="#d96c00" cx="45" cy="77" rx="26" ry="32"/><ellipse cx="74" cy="121" rx="15" ry="30"/><ellipse cx="26" cy="17" rx="180" ry="27"/><ellipse fill="#fff" rx="1" ry="1" transform="matrix(-9.51214 -1.79563 2.50085 -13.24802 52 116.6)"/><ellipse fill="#a4dae5" rx="1" ry="1" transform="rotate(-90.3 99.6 -48) scale(13.34895 31.98717)"/><path fill="#ffcc4a" d="M243 8l28 26-21 38z"/><ellipse cx="237" cy="55" rx="9" ry="106"/><path d="M93 22h25v71H93zm75 103.8l3.4-17.6 20.6 4-3.4 17.6z"/><ellipse fill="#e9f6ff" rx="1" ry="1" transform="matrix(-10.28843 .08967 -.11276 -12.93802 101.7 119.2)"/><path fill="#fff" d="M142 95h21v28h-21z"/><ellipse fill="#ffaf1c" cx="87" cy="55" rx="8" ry="25"/><path fill="#edfbf9" d="M201 150l-2-44 19-2z"/><ellipse cx="35" cy="71" rx="4" ry="84"/></g></svg>