<svg xmlns="http://www.w3.org/2000/svg" viewBox="0 0 641 195"><filter id="b"><feGaussianBlur stdDeviation="12" /></filter><path fill="#65201d" d="M0 0h641v192H0z"/><g filter="url(#b)" transform="translate(1.3 1.3) scale(2.5039)" fill-opacity=".5"><ellipse fill="#ff2f28" cx="131" cy="65" rx="37" ry="37"/><ellipse fill="#d5f8ff" rx="1" ry="1" transform="rotate(-18.4 70.3 -341.9) scale(14.01602 23.9115)"/><ellipse rx="1" ry="1" transform="matrix(-32.95776 -.88206 .47703 -17.82383 27.3 64.7)"/><ellipse rx="1" ry="1" transform="rotate(92.8 17.6 19.1) scale(29.7447 51.8602)"/><ellipse fill="#ff342b" cx="191" cy="47" rx="15" ry="34"/><ellipse fill="#181314" cx="228" cy="51" rx="28" ry="28"/><ellipse fill="#ff4700" rx="1" ry="1" transform="matrix(-1.22277 7.5896 -11.27004 -1.81572 29.7 38)"/><path fill="#ff4128" d="M58.6 40l8 52 10.3-57.1-24.5-4.7z"/><ellipse cx="7" cy="61" rx="9" ry="137"/><path fill="#ff6f5a" d="M133 37h67v12h-67z"/><ellipse fill="#0e172a" rx="1" ry="1" transform="rotate(172.3 76.1 10.8) scale(32.0502 16.58927)"/><ellipse rx="1" ry="1" transform="matrix(-.40983 -14.35187 5.76008 -.16449 130.2 55.9)"/><ellipse cx="86" cy="61" rx="11" ry="17"/><ellipse fill="#7b6b46" rx="1" ry="1" transform="rotate(-154 120 -23) scale(35.10359 15.07536)"/><path fill="#fff" d="M109 0h10v16h-10z"/><path fill="#070000" d="M172.3 83.5l2.4-4.8 9.9-27.8-23.6-4.7z"/><path fill="#ff483f" d="M137 35h25v42h-25z"/><path fill="#fff638" d="M15 36h14v10H15z"/><ellipse fill="#f0070f" cx="192" cy="72" rx="16" ry="16"/><path fill="#c3e8d6" d="M54 26.8l10.3 13.7 4.2-2.6 2.6 1.3z"/><ellipse fill="#030000" rx="1" ry="1" transform="matrix(14.56193 15.87148 -20.61475 18.91384 33.4 70.5)"/><path fill="#261d25" d="M54 31l64-7L83 4z"/></g></svg>