<svg xmlns="http://www.w3.org/2000/svg" viewBox="0 0 200 133"><filter id="b"><feGaussianBlur stdDeviation="12" /></filter><path fill="#3e3024" d="M0 0h200v133H0z"/><g filter="url(#b)" transform="translate(.5 .5)" fill-opacity=".5"><ellipse fill="#fedaaf" cx="52" cy="37" rx="14" ry="58"/><path fill="#ffe4cf" d="M81 97l17-41 21 16z"/><ellipse rx="1" ry="1" transform="matrix(43.79503 -22.2584 20.1329 39.61294 141.5 118.6)"/><ellipse fill="#030203" rx="1" ry="1" transform="matrix(9.98685 92.5275 -22.12314 2.38784 19.4 94.3)"/><path fill="#f9c28a" d="M152 32h34v15h-34z"/><ellipse fill="#9e6815" rx="1" ry="1" transform="matrix(14.2543 1.08718 -3.8312 50.23206 199 37.5)"/><ellipse fill="#f3d5bb" cx="51" cy="36" rx="15" ry="15"/><path fill="#fff" d="M166 34l-14 10-1-15z"/><path d="M96.5 81L73.1 93l.6-32.8L92 48.9z"/><path fill="#121400" d="M-16 12l82-4-44-24z"/><path fill="#ffffe6" d="M121 72l-21-8-4 12z"/><path fill="#23202a" d="M66.6 93l-22-17.3 6.8-8.7 22 17.3z"/><path fill="#020a14" d="M82.6 96.3l24 53.9-39.2 17.5-24-53.9z"/><path fill="#1c0000" d="M61 48h55v8H61z"/><path fill="#161516" d="M188 53l-12 76-79-50z"/><path fill="#ffd3cf" d="M83 86h20v5H83z"/><ellipse fill="#754c14" rx="1" ry="1" transform="rotate(83.2 74 124) scale(12.30549 25.69744)"/><path fill="#191109" d="M150 40L68 65l69-49z"/><ellipse fill="#d38960" rx="1" ry="1" transform="matrix(5.34386 8.01278 -2.48909 1.66002 149 28.1)"/><path fill="#d2ab83" d="M51.4 60.9l10.1-4.3 7 16.5-10 4.3z"/><path fill="#d3ccbc" d="M144 61h5v9h-5z"/><path fill="#ffffca" d="M48 10h19v5H48z"/></g></svg>