<svg xmlns="http://www.w3.org/2000/svg" viewBox="0 0 700 467"><filter id="b"><feGaussianBlur stdDeviation="12" /></filter><path fill="#825f71" d="M0 0h700v464H0z"/><g filter="url(#b)" transform="translate(1.4 1.4) scale(2.73438)" fill-opacity=".5"><ellipse fill="#000600" cx="120" cy="37" rx="84" ry="21"/><ellipse fill="#dad5f6" cx="53" cy="7" rx="254" ry="13"/><ellipse fill="#8e99ff" cx="129" cy="82" rx="49" ry="22"/><ellipse fill="#a92509" rx="1" ry="1" transform="matrix(-5.27205 29.01021 -66.14701 -12.02095 206.3 142.6)"/><ellipse fill="#ca1f00" cx="50" cy="151" rx="35" ry="28"/><ellipse fill="#00260c" cx="68" cy="58" rx="22" ry="22"/><path fill="#ffffcf" d="M138 116.7l-6 68.7-24-2 6-68.8z"/><ellipse fill="#0d2e24" rx="1" ry="1" transform="matrix(16.48539 -21.89591 15.2328 11.46873 184.3 48.5)"/><ellipse fill="#f9ffff" rx="1" ry="1" transform="rotate(109.5 -46.8 66.7) scale(12.05228 17.30604)"/><path fill="#4b95ff" d="M73 83h123v16H73z"/><path fill="#670500" d="M86 125h29v28H86z"/><path fill="#f40700" d="M217 89l23-15-80-4z"/><ellipse fill="#838edc" rx="1" ry="1" transform="rotate(76.7 59.7 200.6) scale(18.9134 27.84676)"/><ellipse fill="#2954b1" rx="1" ry="1" transform="rotate(58.7 -64.3 47) scale(34.64382 19.41464)"/><ellipse fill="#141824" cx="163" cy="127" rx="16" ry="16"/><ellipse fill="#eb5944" cx="239" cy="127" rx="9" ry="53"/><ellipse fill="#d4984b" rx="1" ry="1" transform="matrix(.53352 16.56269 -116.90114 3.76563 123.5 169)"/><ellipse fill="#bb87b2" cx="231" cy="15" rx="32" ry="32"/><path fill="#f2ffff" d="M84 117h52v7H84z"/><path fill="#ff7256" d="M95 69h77v8H95z"/><path fill="#780f09" d="M32 92l69-15-77-8z"/><path fill="#fbffff" d="M65 109h19v10H65z"/></g></svg>