<svg xmlns="http://www.w3.org/2000/svg" viewBox="0 0 700 467"><filter id="b"><feGaussianBlur stdDeviation="12" /></filter><path fill="#828989" d="M0 0h700v464H0z"/><g filter="url(#b)" transform="translate(1.4 1.4) scale(2.73438)" fill-opacity=".5"><ellipse rx="1" ry="1" transform="matrix(.31742 90.93264 -52.06525 .18174 122.4 143.5)"/><ellipse fill="#fff" rx="1" ry="1" transform="rotate(-176.3 29.7 23.5) scale(22.94955 131.08705)"/><ellipse fill="#fff" cx="66" cy="17" rx="37" ry="37"/><ellipse fill="#070700" cx="106" cy="139" rx="33" ry="103"/><path fill="#efffff" d="M145 0h41v41h-41z"/><path fill="#fff6ef" d="M222 0h17v170h-17z"/><ellipse fill="#262e29" cx="205" cy="114" rx="15" ry="169"/><ellipse fill="#f3ecea" cx="7" cy="80" rx="14" ry="104"/><ellipse fill="#fff" cx="116" cy="5" rx="14" ry="14"/><ellipse fill="#6aa5b8" rx="1" ry="1" transform="matrix(-21.66899 16.55776 -18.07857 -23.65925 168 131)"/><path fill="#ffffe2" d="M92.4 97l6.2-50.6 5 .6-6.2 50.6z"/><ellipse fill="#fdf7f6" cx="56" cy="86" rx="22" ry="58"/><path fill="#051617" d="M243 134h13v36h-13z"/><ellipse fill="#5c595a" cx="143" cy="69" rx="26" ry="34"/><path fill="#000709" d="M86 87l52 27-80 66z"/><path fill="#a3e2df" d="M193.5 151.5V185l-26-137.5 18.8-45.2z"/><path fill="#fff" d="M146 0h21v38h-21z"/><path fill="#181b1a" d="M218 125h6v45h-6z"/><path fill="#fffffa" d="M119 40.8l4.4-5-3.2-51.8 15 80.3z"/><ellipse fill="#c93a06" cx="152" cy="90" rx="23" ry="9"/><ellipse fill="#2d3330" rx="1" ry="1" transform="matrix(-4.08813 .25004 -7.69537 -125.81815 243.4 65.4)"/><ellipse fill="#e8e2e0" cx="223" rx="6" ry="109"/></g></svg>