<svg xmlns="http://www.w3.org/2000/svg" viewBox="0 0 313 195"><filter id="b"><feGaussianBlur stdDeviation="12" /></filter><path fill="#93a4aa" d="M0 0h313v194H0z"/><g filter="url(#b)" transform="translate(.6 .6) scale(1.22266)" fill-opacity=".5"><ellipse rx="1" ry="1" transform="matrix(-141.73093 -97.04519 19.6977 -28.76777 34.3 158)"/><ellipse fill="#efefee" cx="177" cy="72" rx="64" ry="64"/><path d="M266.2 123.6l-29.7-3.7 7.3-59.5 29.7 3.7z"/><ellipse fill="#042000" cx="221" cy="158" rx="33" ry="28"/><ellipse fill="#2b271d" rx="1" ry="1" transform="rotate(68.9 -58.3 48.5) scale(17.96062 40.46456)"/><ellipse fill="#5b644f" rx="1" ry="1" transform="matrix(4.52962 19.58033 -36.148 8.3623 150.2 128.8)"/><ellipse fill="#cde8ee" cx="66" cy="73" rx="23" ry="61"/><ellipse fill="#307ed9" cx="36" rx="47" ry="47"/><ellipse fill="#00000a" rx="1" ry="1" transform="matrix(30.02464 -9.63463 7.54057 23.49888 27.8 149.6)"/><path fill="#fffffb" d="M198 39h41v90h-41z"/><ellipse fill="#38739e" rx="1" ry="1" transform="rotate(89.2 93.2 109) scale(34.19306 15.53551)"/><ellipse fill="#5a817c" cx="167" cy="85" rx="28" ry="14"/><ellipse fill="#f1eeeb" rx="1" ry="1" transform="matrix(-38.31574 -18.84308 12.0237 -24.44913 141.6 45.4)"/><path d="M242.3 69l20 1-2.6 51-20-1z"/><ellipse fill="#f1ece4" rx="1" ry="1" transform="rotate(74.2 -36.3 127.3) scale(82.30214 6.51378)"/><ellipse fill="#2877d6" rx="1" ry="1" transform="rotate(77 118.2 167.6) scale(35.62025 21.41893)"/><path fill="#083619" d="M86.5 43.8l-.8-8 33.8-3.6.8 8z"/><path fill="#406369" d="M64.4 99.4l-7 9.8 34.3 7.6-9.7-10.5z"/><path fill="#425512" d="M201.8 168l-47.3-8.3-56-25 23.4-1.3z"/><path fill="#c3ffe8" d="M206.4-7.6l23.8-3.4 5.4 38.6-23.8 3.4z"/><ellipse fill="#fff" cx="122" cy="95" rx="6" ry="30"/><path fill="#3c6383" d="M179.8 11.2l-11.4 14-20.2-16.4 11.4-14z"/></g></svg>