<svg xmlns="http://www.w3.org/2000/svg" viewBox="0 0 200 133"><filter id="b"><feGaussianBlur stdDeviation="12" /></filter><path fill="#33363f" d="M0 0h200v133H0z"/><g filter="url(#b)" transform="translate(.5 .5)" fill-opacity=".5"><ellipse fill="#9dc0ae" cx="26" cy="11" rx="11" ry="46"/><ellipse fill="#b3aea4" rx="1" ry="1" transform="matrix(-7.811 -13.06525 17.98312 -10.75112 75.7 5.7)"/><path fill="#04070f" d="M30 26h39v107H30z"/><ellipse fill="#887776" cx="94" cy="45" rx="20" ry="20"/><ellipse fill="#010615" cx="149" cy="132" rx="40" ry="40"/><path fill="#e1eeff" d="M77 91l8-32-12 21z"/><ellipse fill="#ab876b" cx="197" cy="23" rx="15" ry="15"/><ellipse fill="#a88671" rx="1" ry="1" transform="matrix(-1.70735 -18.63852 6.98661 -.64 133.6 43.5)"/><ellipse fill="#9da592" rx="1" ry="1" transform="matrix(17.8545 1.88013 -.9109 8.6503 36 14)"/><ellipse fill="#99aba7" cx="25" cy="94" rx="2" ry="74"/><path fill="#ac7f64" d="M152 7l19 30-19 3z"/><path fill="#020203" d="M120 7h31v23h-31z"/><ellipse fill="#55515d" rx="1" ry="1" transform="matrix(-13.9803 -17.9 8.25798 -6.44967 75.3 87.8)"/><ellipse fill="#0c152e" cx="86" cy="130" rx="64" ry="33"/><ellipse fill="#0a0401" cx="11" cy="1" rx="22" ry="5"/><ellipse fill="#546471" rx="1" ry="1" transform="matrix(-4.06853 33.76095 -15.26538 -1.83963 7.6 132)"/><ellipse fill="#a9b5a0" cx="117" cy="17" rx="3" ry="19"/><ellipse fill="#babcc8" cx="83" cy="94" rx="14" ry="3"/><path fill="#0f1422" d="M95.2 65.2l6.2-8.8-23.8-53L62-16z"/><path fill="#84c3bb" d="M18 6h14v32H18z"/><path fill="#abb8b8" d="M92.1 32l-3-.4L94 2l3 .4z"/><path fill="#000207" d="M96 2h17v28H96z"/></g></svg>