<svg xmlns="http://www.w3.org/2000/svg" viewBox="0 0 700 467"><filter id="b"><feGaussianBlur stdDeviation="12" /></filter><path fill="#969897" d="M0 0h700v464H0z"/><g filter="url(#b)" transform="translate(1.4 1.4) scale(2.73438)" fill-opacity=".5"><ellipse fill="#fff" rx="1" ry="1" transform="matrix(-.43102 49.39027 -176.28476 -1.53841 141.6 31)"/><ellipse fill="#200e00" cx="141" cy="153" rx="255" ry="66"/><ellipse fill="#f1ffff" cx="144" rx="91" ry="91"/><ellipse rx="1" ry="1" transform="matrix(18.42174 8.42406 -52.76052 115.3767 249.6 144.4)"/><path fill="#ffdeb6" d="M182.2 100.7l34.7 4.8-3.1 21.8-34.7-4.8z"/><ellipse fill="#897c6c" cx="78" cy="92" rx="63" ry="20"/><ellipse fill="#e4f5ff" cx="181" cy="10" rx="255" ry="52"/><ellipse fill="#373228" rx="1" ry="1" transform="rotate(13.5 -200.7 1018.3) scale(7.83125 18.25943)"/><path fill="#fff" d="M25 159h17v11H25z"/><ellipse fill="#bdd6ed" cx="25" cy="44" rx="38" ry="38"/><path fill="#554936" d="M-11.3 99.2L5.6 179l75-92.4-9-17.6z"/><path fill="#c8d3da" d="M157 49l-61 5-28 58z"/><path fill="#aa8f7b" d="M125 87h60v22h-60z"/><ellipse fill="#3e3d2e" cx="111" cy="169" rx="62" ry="62"/><ellipse fill="#34251a" cx="191" cy="86" rx="9" ry="9"/><ellipse fill="#5b4838" cx="229" cy="92" rx="24" ry="7"/><path fill="#e6f4ff" d="M241 0h15v87h-15z"/><path fill="#c4b193" d="M213.4 121.6l-8.2-7.4 21.4-23.8 8.2 7.4z"/><ellipse fill="#0a0c06" cx="245" cy="156" rx="29" ry="25"/><path fill="#cc9e7f" d="M44 94h40v9H44z"/><path fill="#26251b" d="M201 144l-22-15-34 55z"/><path fill="#5a4838" d="M170 117h63v38h-63z"/></g></svg>