<svg xmlns="http://www.w3.org/2000/svg" viewBox="0 0 200 133"><filter id="b"><feGaussianBlur stdDeviation="12" /></filter><path fill="#5f2847" d="M0 0h200v133H0z"/><g filter="url(#b)" transform="translate(.5 .5)" fill-opacity=".5"><ellipse fill="#829ae4" rx="1" ry="1" transform="matrix(-66.08368 -.76445 .33462 -28.92652 95.9 54.2)"/><ellipse fill="#ff0329" rx="1" ry="1" transform="rotate(-111.3 114.7 -3.9) scale(20.18901 37.35281)"/><ellipse rx="1" ry="1" transform="rotate(-34.6 175.7 -295.3) scale(30.25477 103.17629)"/><ellipse fill="#000004" rx="35" ry="66"/><ellipse fill="#510003" rx="1" ry="1" transform="matrix(-31.96504 57.90457 -29.8712 -16.4898 86.1 130)"/><path fill="#d96880" d="M36 68h56v33H36z"/><ellipse fill="#000743" cx="79" rx="49" ry="31"/><ellipse fill="#4d0000" rx="1" ry="1" transform="matrix(4.55784 40.63409 -50.62128 5.67809 28.4 132)"/><path fill="#afd5c1" d="M80 29h31v43H80z"/><path fill="#090d50" d="M87.4-6.3L69 88.7 54.4 46.4l14.2-25.3z"/><path fill="#fa1f82" d="M62.4-.7l-30 54.2-8.8-4.8 30-54.2z"/><ellipse fill="#ff354f" cx="153" cy="85" rx="7" ry="45"/><ellipse fill="#4740ba" cx="124" cy="40" rx="14" ry="31"/><ellipse fill="#370000" rx="1" ry="1" transform="matrix(-98.464 34.25939 -7.64461 -21.97118 192.9 132)"/><ellipse fill="#e91616" rx="1" ry="1" transform="matrix(-2.39794 -9.48461 29.3813 -7.42831 62.1 99.8)"/><path fill="#68c3ff" d="M52.4 56.1L66.7 79l-11 6.9L41.2 63z"/><ellipse fill="#93a5ff" cx="142" cy="56" rx="12" ry="12"/><path fill="#6398ff" d="M40.7 38.3L56 23.9l10.8-9.3-20.2 50.5z"/><ellipse fill="#9f283f" rx="1" ry="1" transform="matrix(-2.26117 -20.88688 15.33744 -1.6604 31.6 60.6)"/><path fill="#8fcfff" d="M136.4 35L115 21.2l3-5.4 13.3 2.8z"/><ellipse cx="196" cy="31" rx="24" ry="52"/><path fill="#750f79" d="M167 47l-8-40-49 50z"/></g></svg>