<svg xmlns="http://www.w3.org/2000/svg" viewBox="0 0 700 467"><filter id="b"><feGaussianBlur stdDeviation="12" /></filter><path fill="#9b9fa9" d="M0 0h700v464H0z"/><g filter="url(#b)" transform="translate(1.4 1.4) scale(2.73438)" fill-opacity=".5"><ellipse rx="1" ry="1" transform="rotate(-173.7 66.7 53.3) scale(42.6027 63.59591)"/><ellipse fill="#fafeff" cx="30" cy="89" rx="62" ry="134"/><ellipse fill="#f8feff" cx="201" cy="109" rx="34" ry="66"/><ellipse rx="1" ry="1" transform="matrix(8.2457 45.82763 -28.34588 5.10023 121 127.6)"/><ellipse fill="#002090" rx="1" ry="1" transform="matrix(26.38996 -16.49032 24.5248 39.2478 180.2 0)"/><ellipse fill="#000004" cx="157" cy="91" rx="11" ry="35"/><path fill="#908b7e" d="M43 189l-32.4 13.2-29.6-73.3 32.4-13z"/><ellipse fill="#ced6d4" rx="1" ry="1" transform="matrix(-28.9651 -72.59963 18.28956 -7.297 247.3 75.4)"/><ellipse fill="#050f13" cx="103" cy="80" rx="13" ry="29"/><ellipse fill="#e0e6f7" cx="186" cy="59" rx="23" ry="23"/><ellipse fill="#a68b4c" rx="1" ry="1" transform="matrix(13.41902 -4.24263 16.69376 52.8007 100.8 22.8)"/><ellipse fill="#00050d" rx="1" ry="1" transform="matrix(32.4797 -28.29527 13.986 16.0543 121.4 125.5)"/><ellipse fill="#9d836f" rx="1" ry="1" transform="matrix(5.40669 -28.34286 9.8932 1.88723 140 62.8)"/><ellipse fill="#f1feff" rx="1" ry="1" transform="matrix(7.54723 -4.41024 2.0189 3.45495 165.9 100.5)"/><ellipse fill="#f3f3e3" cx="12" cy="36" rx="39" ry="39"/><ellipse fill="#000004" rx="1" ry="1" transform="rotate(-175.9 73.3 70.2) scale(24.53793 9.11662)"/><path fill="#d27d59" d="M160.8 171l-25 1-.6-19 25-1z"/><ellipse fill="#fff" cx="137" cy="88" rx="4" ry="13"/><path fill="#f4ddb5" d="M122 0h27v37h-27z"/><ellipse fill="#854830" cx="102" cy="169" rx="16" ry="14"/><path fill="#2b46be" d="M165.2 10.3l15.3 14.4-17.7 19-15.3-14.4z"/><ellipse fill="#f6fbe8" cx="255" cy="74" rx="7" ry="93"/></g></svg>