<svg xmlns="http://www.w3.org/2000/svg" viewBox="0 0 700 467"><filter id="b"><feGaussianBlur stdDeviation="12" /></filter><path fill="#67af91" d="M0 0h700v464H0z"/><g filter="url(#b)" transform="translate(1.4 1.4) scale(2.73438)" fill-opacity=".5"><ellipse fill="#fff" rx="1" ry="1" transform="matrix(-1.01617 -24.3842 104.15476 -4.34048 160.3 35.2)"/><ellipse rx="1" ry="1" transform="rotate(-94.7 33.8 -30.5) scale(21.1093 98.61737)"/><ellipse fill="#fff" rx="1" ry="1" transform="matrix(-4.94727 19.0341 -39.73893 -10.32879 5.6 48.3)"/><ellipse rx="1" ry="1" transform="matrix(-26.26653 3.01594 -2.38675 -20.78682 150.2 160.7)"/><ellipse fill="#000005" cx="198" cy="128" rx="17" ry="30"/><ellipse fill="#00a148" cx="40" cy="169" rx="68" ry="41"/><path d="M222 55h34v26h-34z"/><ellipse fill="#bc621e" rx="1" ry="1" transform="rotate(99.2 -10.4 70) scale(62.61675 14.52606)"/><ellipse fill="#093827" rx="1" ry="1" transform="matrix(-4.73128 -10.82813 36.74649 -16.05615 181.5 63.7)"/><path fill="#001d18" d="M69 63h52v19H69z"/><ellipse fill="#b4ffeb" rx="1" ry="1" transform="matrix(34.68465 -12.07847 6.45432 18.5343 103.6 102.5)"/><ellipse cx="17" cy="78" rx="21" ry="9"/><ellipse fill="#2dffb7" cx="244" cy="121" rx="36" ry="36"/><ellipse fill="#fff" cx="128" cy="38" rx="55" ry="25"/><path fill="#fffff6" d="M198.5 100.4l5-76.6-15 55.3-42.9 22z"/><ellipse fill="#fff" cx="218" cy="75" rx="6" ry="30"/><ellipse fill="#7dffdc" rx="1" ry="1" transform="matrix(-.31902 -29.5062 19.54669 -.21134 163.6 115.9)"/><ellipse fill="#fff" rx="1" ry="1" transform="matrix(19.72316 -14.66617 11.53265 15.50919 12.2 50.8)"/><ellipse cx="91" cy="3" rx="38" ry="15"/><ellipse fill="#00c2af" cx="106" cy="135" rx="46" ry="16"/><path fill="#dce7dd" d="M125 117l36-127-41 51z"/><ellipse fill="#00ffb4" cx="238" rx="87" ry="14"/></g></svg>