<svg xmlns="http://www.w3.org/2000/svg" viewBox="0 0 200 133"><filter id="b"><feGaussianBlur stdDeviation="12" /></filter><path fill="#4f5863" d="M0 0h200v133H0z"/><g filter="url(#b)" transform="translate(.5 .5)" fill-opacity=".5"><ellipse fill="#c7d0d8" rx="1" ry="1" transform="matrix(35.94644 9.91092 -7.90809 28.68227 116.6 67.8)"/><ellipse rx="1" ry="1" transform="matrix(2.9921 19.1201 -82.48766 12.90852 157.3 6.9)"/><ellipse cx="25" cy="1" rx="52" ry="20"/><ellipse fill="#d2ffff" cx="63" cy="47" rx="7" ry="32"/><path fill="#0a0000" d="M158 82h42v38h-42z"/><ellipse fill="#c5ffff" cx="38" cy="47" rx="7" ry="28"/><path fill="#76ffff" d="M168 22h11v52h-11z"/><ellipse fill="#5c250f" cx="26" cy="105" rx="106" ry="19"/><ellipse fill="#93b9e9" cx="113" cy="132" rx="108" ry="10"/><ellipse fill="#e08c81" cx="26" cy="87" rx="18" ry="19"/><ellipse fill="#a7ffff" rx="1" ry="1" transform="matrix(-6.22072 25.4865 -4.57696 -1.11714 17 38.2)"/><ellipse fill="#6ef1ff" rx="1" ry="1" transform="matrix(-9.43232 1.74231 -4.71576 -25.52959 199 48)"/><path fill="#fdb3a9" d="M187.5 100.9l6.3-16.1-4-16.3-14-.6z"/><ellipse cx="27" cy="13" rx="6" ry="60"/><path fill="#000001" d="M153 25h14v40h-14z"/><path d="M110.6 79.8l-2.9 9.4 4.4 32.4 22.4.6z"/><ellipse fill="#570000" cx="7" cy="94" rx="20" ry="15"/><ellipse fill="#b9a297" rx="1" ry="1" transform="matrix(12.8167 -9.6026 20.53115 27.40315 129.4 87)"/><ellipse cx="51" cy="36" rx="5" ry="41"/><path fill="#00b6ff" d="M168 54l-4-44 13 8z"/><ellipse fill="#2b74aa" cx="113" cy="40" rx="37" ry="13"/><ellipse fill="#001" cx="184" cy="12" rx="8" ry="45"/></g></svg>