<svg xmlns="http://www.w3.org/2000/svg" viewBox="0 0 200 133"><filter id="b"><feGaussianBlur stdDeviation="12" /></filter><path fill="#392c2e" d="M0 0h200v133H0z"/><g filter="url(#b)" transform="translate(.5 .5)" fill-opacity=".5"><ellipse fill="#f5d5d1" rx="1" ry="1" transform="matrix(-18.0668 -14.0478 29.00002 -37.2968 88.8 23.2)"/><ellipse fill="#000003" rx="1" ry="1" transform="rotate(45.8 -93.6 168) scale(42.49504 37.54576)"/><ellipse fill="#ebc8b9" rx="1" ry="1" transform="rotate(143.8 48.6 24.5) scale(13.48887 23.49176)"/><path d="M83 37L56-16l28 5z"/><path fill="#e6cbff" d="M156 53l1-16h-24z"/><ellipse fill="#020800" rx="1" ry="1" transform="matrix(17.33567 15.71156 -32.74181 36.12636 20 51.8)"/><path fill="#fff" d="M74 41h8v28h-8z"/><ellipse cx="139" cy="9" rx="21" ry="26"/><ellipse fill="#ffe3ff" cx="152" cy="114" rx="8" ry="6"/><ellipse rx="1" ry="1" transform="matrix(-20.39254 -.42716 .80315 -38.34192 199 29.3)"/><path fill="ivory" d="M103.8 67.2l-11.2 1.2V77l7 2.3z"/><path fill="#a58786" d="M-6.7 123l45.4-44L13 86.2l34 24.7z"/><ellipse fill="#1c0f12" cx="95" cy="48" rx="13" ry="13"/><path fill="#fcf8ff" d="M76.5 43L57.4 55.7l36.3 2.9-3.5 6.7z"/><ellipse fill="#ffefff" rx="1" ry="1" transform="matrix(6.31546 6.163 -4.37142 4.47956 69.7 22.7)"/><ellipse fill="#0d0605" rx="1" ry="1" transform="matrix(10.64464 64.12191 -21.80857 3.62036 183.9 132)"/><ellipse fill="#000502" cx="16" cy="4" rx="68" ry="14"/><ellipse fill="#7f5931" cx="170" cy="8" rx="10" ry="53"/><path d="M39 51L-2 71l81 20z"/><path d="M9.5 91l24 15.9L-16 105 2.5-16z"/><path fill="#998687" d="M19 80h19v20H19z"/><path fill="#322e27" d="M39.7 39L6.5 53.4 25.4-16l50 62.3z"/></g></svg>