<svg xmlns="http://www.w3.org/2000/svg" viewBox="0 0 700 467"><filter id="b"><feGaussianBlur stdDeviation="12" /></filter><path fill="#817372" d="M0 0h700v464H0z"/><g filter="url(#b)" transform="translate(1.4 1.4) scale(2.73438)" fill-opacity=".5"><ellipse fill="#fff" rx="1" ry="1" transform="matrix(253.69458 25.76936 -4.55048 44.79863 103.2 0)"/><ellipse rx="1" ry="1" transform="matrix(-27.83195 -40.96445 210.9234 -143.30497 182.1 152.6)"/><ellipse fill="#372010" cx="72" cy="104" rx="31" ry="74"/><ellipse fill="#fff" rx="1" ry="1" transform="matrix(-17.81221 55.81304 -11.45164 -3.65468 39.7 53)"/><ellipse fill="#f5e7f6" cx="175" rx="62" ry="62"/><path fill="#fffcd9" d="M161.2 122.6l-18.4-15.4 20-23.8 18.4 15.4z"/><ellipse fill="#000010" rx="1" ry="1" transform="matrix(30.75711 -3.45083 4.23143 37.71464 209.4 101.6)"/><ellipse fill="#f2f2ff" cx="88" cy="8" rx="177" ry="25"/><path fill="#562b0f" d="M106 31h27v69h-27z"/><path fill="#d7d2d4" d="M59 123h22v38H59z"/><ellipse fill="#492f33" cx="231" cy="46" rx="15" ry="27"/><path fill="#3f00c9" d="M173.6-1.7L161 12.6l-22-2.3-13-15.6z"/><ellipse fill="#e2cec2" rx="1" ry="1" transform="rotate(-96.8 114 10.7) scale(23.05362 16.76944)"/><path fill="#fff" d="M208 134h8v31h-8z"/><path fill="#000008" d="M233 179l-98-80 5 71z"/><ellipse fill="#030000" cx="59" cy="166" rx="49" ry="8"/><ellipse fill="#974009" cx="188" cy="46" rx="12" ry="12"/><path d="M43 78h45v28H43z"/><path fill="#fff" d="M195 51l26-67-6 82z"/><ellipse fill="#c37c48" rx="1" ry="1" transform="matrix(-11.57858 -2.7226 15.50428 -65.93611 14.5 96.9)"/><ellipse fill="#833908" cx="158" cy="68" rx="12" ry="24"/><path fill="#fff" d="M35 19h19v44H35z"/></g></svg>