<svg xmlns="http://www.w3.org/2000/svg" viewBox="0 0 700 467"><filter id="b"><feGaussianBlur stdDeviation="12" /></filter><path fill="#0a1d06" d="M0 0h700v464H0z"/><g filter="url(#b)" transform="translate(1.4 1.4) scale(2.73438)" fill-opacity=".5"><ellipse fill="#c5ffb2" rx="1" ry="1" transform="matrix(2.14382 -21.47826 22.52598 2.2484 162 71.5)"/><path fill="#fff" d="M166 56l-18 31h30z"/><path fill="#9ed8ac" d="M162.9 58.3l1.8-4.7 84.4 34.1-1.8 4.7z"/><ellipse fill="#56eb12" cx="50" rx="36" ry="12"/><path fill="#fffff7" d="M92.9 71.1l2.6-3L113 82.9l-2.6 3z"/><path fill="#003b00" d="M191.2 86.1l-11.4 3.7-13-40 11.4-3.6z"/><path fill="#007400" d="M127 89h52v27h-52z"/><ellipse rx="1" ry="1" transform="rotate(138.3 106.2 58.1) scale(38.70408 56.37912)"/><ellipse fill="#71ff3f" rx="1" ry="1" transform="matrix(13.86343 -12.4827 5.97623 6.63728 151.8 74.6)"/><ellipse cx="233" cy="158" rx="69" ry="69"/><ellipse cx="40" cy="52" rx="82" ry="33"/><path fill="#007100" d="M140 50l-6 27 35-34z"/><ellipse fill="#060100" cx="78" cy="149" rx="126" ry="43"/><path fill="#45d238" d="M147.6-2.5l8 10.5-27 8.2L140 7.6z"/><path fill="#fff" d="M157 81l23 11-11-27z"/><path fill="#accc5d" d="M224 77.8l-34-18.5-13.5-2.9 32.7 18.7z"/><path fill="#9fbd7f" d="M106 101h9v6h-9z"/><ellipse fill="#03bb03" cx="173" cy="96" rx="25" ry="3"/><path fill="#ecf3e5" d="M99 76.7l8.9-1.3 1.1 8-8.9 1.2z"/><path fill="#232902" d="M64 117h62v36H64z"/><ellipse fill="#001400" cx="212" cy="101" rx="31" ry="22"/><path fill="#001300" d="M107.3 101.6L170 93l-39.6-12.7L9.6 112.5z"/></g></svg>