<svg xmlns="http://www.w3.org/2000/svg" viewBox="0 0 700 467"><filter id="b"><feGaussianBlur stdDeviation="12" /></filter><path fill="#4a454d" d="M0 0h700v464H0z"/><g filter="url(#b)" transform="translate(1.4 1.4) scale(2.73438)" fill-opacity=".5"><ellipse fill="#7dadcf" rx="1" ry="1" transform="matrix(-9.95778 44.91667 -93.96682 -20.83194 124 66)"/><ellipse fill="#200000" rx="1" ry="1" transform="matrix(203.55375 -8.84737 1.73473 39.91144 150.3 165.7)"/><ellipse fill="#0096da" rx="1" ry="1" transform="rotate(28.3 -48.4 141.9) scale(32.18652 23.27505)"/><ellipse rx="1" ry="1" transform="matrix(140.81093 81.29723 -12.28014 21.26983 255.4 26.6)"/><ellipse fill="#1f0000" cy="60" rx="32" ry="242"/><ellipse fill="#9c5b59" cx="142" cy="98" rx="77" ry="33"/><path fill="#0a97dc" d="M162.3 26.3l44.3 7.8-4.9 27.6-44.3-7.8z"/><ellipse fill="#d3cebf" cx="129" cy="49" rx="28" ry="16"/><path fill="#007fba" d="M178 30L25 53l17-41z"/><ellipse fill="#180500" rx="1" ry="1" transform="matrix(-21.16572 -14.10433 70.7929 -106.23566 241 141.7)"/><ellipse fill="#0e0a0c" cx="38" cy="2" rx="130" ry="11"/><ellipse fill="#955e46" cx="35" cy="125" rx="105" ry="10"/><ellipse fill="#89666d" cx="139" cy="147" rx="56" ry="6"/><ellipse fill="#a1b5bf" cx="73" cy="63" rx="16" ry="19"/><path fill="#e0a8b0" d="M155.2 75.9l14 5.6-12.4 30.6-14-5.6z"/><path fill="#9bb5ce" d="M203.9 63.3l-3 21.8-30.8-4.4 3-21.8z"/><ellipse fill="#e8ccb9" cx="105" cy="118" rx="32" ry="3"/><ellipse rx="1" ry="1" transform="rotate(-95.2 160.1 8.8) scale(14.11711 115.5223)"/><path fill="#2d2729" d="M39 93h69v22H39z"/><ellipse fill="#74473d" rx="1" ry="1" transform="rotate(-123.1 134.2 -28.5) scale(27.98589 24.19416)"/><path fill="#3f0000" d="M161 129L11 181l21-44z"/><path fill="#a78a97" d="M84 146h19v17H84z"/></g></svg>