<svg xmlns="http://www.w3.org/2000/svg" viewBox="0 0 200 133"><filter id="b"><feGaussianBlur stdDeviation="12" /></filter><path fill="#918f8d" d="M0 0h200v133H0z"/><g filter="url(#b)" transform="translate(.5 .5)" fill-opacity=".5"><ellipse fill="#fff" cx="128" cy="11" rx="91" ry="46"/><ellipse fill="#1a110e" rx="1" ry="1" transform="matrix(-197.2289 -.14817 .0156 -20.75464 141.5 95.4)"/><ellipse fill="#f1ffff" cx="113" rx="60" ry="60"/><ellipse fill="#3b2006" cx="8" cy="24" rx="31" ry="17"/><ellipse fill="#744739" rx="1" ry="1" transform="rotate(-144.2 41.1 23.3) scale(24.20372 31.36369)"/><ellipse fill="#daeaff" cx="160" cy="34" rx="24" ry="39"/><ellipse fill="#525a58" rx="1" ry="1" transform="matrix(-9.30527 46.6136 -26.2542 -5.24101 193.8 98)"/><ellipse fill="#f4ffff" rx="1" ry="1" transform="matrix(-5.99244 19.72346 -64.49467 -19.59498 57.4 0)"/><ellipse fill="#837d63" cx="4" cy="94" rx="30" ry="39"/><ellipse fill="#ffd" rx="1" ry="1" transform="matrix(-2.58507 7.90904 -33.41478 -10.92163 8 47.9)"/><path fill="#483720" d="M57.9 105.8l-26.7-81 21.6 4.9 11.7 67.5z"/><ellipse fill="#201d11" rx="1" ry="1" transform="matrix(-55.86119 2.801 -.55423 -11.0532 89.6 100.3)"/><ellipse fill="#7b6650" cx="133" cy="64" rx="16" ry="16"/><ellipse fill="#d9efee" cx="66" cy="58" rx="8" ry="8"/><path fill="#ff0006" d="M46.8 66.9l.4 18-14 .2-.4-18z"/><path fill="#120c00" d="M203.1 63.6l1.5 10.9-27.7 3.9-1.5-10.9z"/><path fill="#abafae" d="M190.4 107l-11.8 5.5-11-23.5 11.8-5.5z"/><path fill="#e1ba24" d="M83.9 87.3l9.6 8.7-11.4 12.7-9.6-8.7z"/><path fill="#789fc3" d="M155.4 115l1.3-50.5-19.7 44.6 22.6-10.4z"/><path d="M35 91h11v24H35z"/><ellipse fill="#322a23" cy="12" rx="18" ry="13"/><ellipse fill="#e2eeff" cx="183" cy="8" rx="153" ry="30"/></g></svg>