<svg xmlns="http://www.w3.org/2000/svg" viewBox="0 0 700 467"><filter id="b"><feGaussianBlur stdDeviation="12" /></filter><path fill="#232648" d="M0 0h700v464H0z"/><g filter="url(#b)" transform="translate(1.4 1.4) scale(2.73438)" fill-opacity=".5"><ellipse fill="#5d58c8" cx="151" cy="77" rx="61" ry="61"/><path fill="#fff" d="M221 120.6l-16.8 3.3-5.1-26.5 16.7-3.3zm-176.4-.7l5-35.7 13.8 2-5 35.6z"/><ellipse cx="21" cy="11" rx="60" ry="69"/><path fill="#c4bfd1" d="M110 106h32v50h-32z"/><ellipse cx="237" cy="44" rx="25" ry="96"/><path fill="#80c4ff" d="M32 71l-13 60-12.7-20.7 3.3-16z"/><ellipse fill="#030000" rx="1" ry="1" transform="matrix(-13.83693 7.53677 -32.25004 -59.2086 158.2 122.6)"/><ellipse cx="140" cy="11" rx="255" ry="13"/><ellipse fill="#5958d6" cx="149" cy="44" rx="74" ry="21"/><path d="M-16 166l217 19-115-42z"/><ellipse fill="#010545" cx="91" cy="76" rx="68" ry="19"/><path fill="#000008" d="M46 126h87v17H46z"/><ellipse cx="209" cy="165" rx="255" ry="9"/><path fill="#c7dfdf" d="M104 144h52v12h-52z"/><ellipse fill="#7f99ff" cx="182" cy="93" rx="7" ry="37"/><path fill="#93bfc3" d="M204 81l28 74h-27z"/><path d="M188 87h13v63h-13z"/><path fill="#ece3ff" d="M134.9 122.6l-20 1.7-1.8-20.9 20-1.7z"/><path d="M54.5 76.7L29.4 139l-13.9-5.6L40.6 71z"/><path fill="#d2f3ff" d="M42.3 109l17-27.9 2.4 26.1-11 12.5z"/><path fill="#70918e" d="M22 150l37-14 14 18z"/></g></svg>