<svg xmlns="http://www.w3.org/2000/svg" viewBox="0 0 200 133"><filter id="b"><feGaussianBlur stdDeviation="12" /></filter><path fill="#49474e" d="M0 0h200v133H0z"/><g filter="url(#b)" transform="translate(.5 .5)" fill-opacity=".5"><ellipse fill="#fff" rx="1" ry="1" transform="matrix(-17.65675 22.84517 -12.84759 -9.92974 119.4 7.8)"/><ellipse fill="#020000" cx="170" cy="86" rx="51" ry="51"/><path fill="#fff" d="M0 0h64v15H0z"/><ellipse fill="#f1c8b4" rx="1" ry="1" transform="matrix(-9.87845 -27.14705 12.4702 -4.53774 84.4 46)"/><ellipse fill="#a8add0" rx="1" ry="1" transform="matrix(-21.65704 15.27736 -9.67569 -13.71616 93 122.9)"/><path fill="#fff" d="M174.6 15.8l-16 1.4-1.2-15 16-1.4z"/><path fill="#f2fefe" d="M0 14h10v21H0z"/><ellipse fill="#e8d7d5" rx="1" ry="1" transform="rotate(93.9 41.1 105.5) scale(5.56773 10.66588)"/><ellipse fill="#0c0902" rx="1" ry="1" transform="rotate(82.4 -2 59.8) scale(38.27856 14.98295)"/><ellipse fill="#020608" rx="1" ry="1" transform="rotate(157.1 -10.4 51) scale(21.06165 69.15757)"/><ellipse fill="#eaf3f5" rx="1" ry="1" transform="rotate(176.2 59.1 3.3) scale(18.16929 25.63536)"/><path fill="#7d8aa9" d="M191 32h9v41h-9z"/><path fill="#1e120e" d="M7.4 28L33 43.3l4.9-37-23.4 7z"/><ellipse fill="#090000" cx="172" cy="110" rx="59" ry="17"/><path fill="#fff" d="M46-17L62.7-3 46 17.1 29.2 2.8z"/><ellipse fill="#06163c" rx="1" ry="1" transform="rotate(66.7 60.4 141) scale(8.62796 64.64411)"/><path fill="#68727f" d="M18 50h30v51H18z"/><ellipse fill="#031130" cx="83" cy="11" rx="17" ry="13"/><path fill="#646a82" d="M40 91l54.8 11.6L90 125l-54.8-11.7z"/><ellipse fill="#fff" cx="27" rx="24" ry="7"/><path d="M75 70l10 29 11-21z"/><ellipse fill="#eef5ee" cx="153" rx="23" ry="3"/></g></svg>