<svg xmlns="http://www.w3.org/2000/svg" viewBox="0 0 200 133"><filter id="b"><feGaussianBlur stdDeviation="12" /></filter><path fill="#5e4580" d="M0 0h200v133H0z"/><g filter="url(#b)" transform="translate(.5 .5)" fill-opacity=".5"><ellipse fill="#1a0000" cx="110" cy="131" rx="199" ry="26"/><ellipse fill="#ed8bcd" rx="1" ry="1" transform="matrix(2.49727 28.2933 -53.98586 4.76498 105.6 4.6)"/><ellipse fill="#6a8aff" rx="1" ry="1" transform="rotate(44.7 -67.5 82.6) scale(22.51771 32.26964)"/><ellipse fill="#6594ff" rx="1" ry="1" transform="rotate(133.5 67.9 71.7) scale(19.14348 36.78165)"/><path d="M66 30L54 62l94-29z"/><path fill="#1cebff" d="M82 47h38v23H82z"/><path d="M119 31h19v40h-19z"/><ellipse fill="#9f5dc2" cx="34" cy="16" rx="48" ry="24"/><path fill="#170000" d="M179.7 77.7l8.1-38.2 22.5 4.8-8.1 38.2z"/><path fill="#d280dd" d="M153 50l62-20-89-10z"/><path fill="#8a99de" d="M189.3 63.5l-82.2 48.8-92.9-38.2 104.5 14z"/><path fill="#000027" d="M76.4 75.2L94.6 92l39-21.9-71-6.4z"/><path d="M65 35h17v33H65z"/><path fill="#260000" d="M15 45L6 80l-22-52z"/><path fill="#efffff" d="M94 52h19v13H94z"/><ellipse fill="#d97282" rx="1" ry="1" transform="rotate(-91.2 56.4 -43.1) scale(26.81816 15.61465)"/><path fill="#3a4bfc" d="M24 99.4l14.4 2-8.4 22.2-10.3-.2z"/><path fill="#3b0000" d="M215 137L4 131l104-26z"/><ellipse fill="#ffffc5" cx="51" cy="47" rx="13" ry="4"/><path fill="#c3d9eb" d="M153.4 72.7l36 6L215 89.5l-68.5-7.6z"/><path fill="#070007" d="M121.2 56.8l-8-28.7 35 28.4-37 32.7z"/><path fill="#094ae0" d="M13 50h43v18H13z"/></g></svg>