<svg xmlns="http://www.w3.org/2000/svg" viewBox="0 0 200 133"><filter id="b"><feGaussianBlur stdDeviation="12" /></filter><path fill="#747776" d="M0 0h200v133H0z"/><g filter="url(#b)" transform="translate(.5 .5)" fill-opacity=".5"><ellipse fill="#00000c" rx="1" ry="1" transform="rotate(-130.9 59.2 6.8) scale(35.21476 32.74313)"/><ellipse fill="#d6d8d8" cx="90" cy="128" rx="199" ry="12"/><path fill="#000002" d="M69 116l32 3-25-91z"/><ellipse fill="#bdf7ff" cx="32" rx="33" ry="12"/><ellipse fill="#2e3024" rx="1" ry="1" transform="matrix(-9.12728 -26.25163 22.80708 -7.92967 6.7 39.2)"/><ellipse fill="#bfc7bb" cx="189" cy="80" rx="26" ry="17"/><path fill="#b2b5ad" d="M27 62h39v71H27z"/><path fill="#bed1d8" d="M97 72h11v28H97z"/><ellipse fill="#868e8c" cx="126" cy="12" rx="41" ry="33"/><ellipse fill="#484634" rx="1" ry="1" transform="matrix(20.82479 -8.76759 10.72895 25.48342 199 27.5)"/><ellipse fill="#babab7" cx="166" cy="117" rx="43" ry="8"/><path fill="#1c212e" d="M111 57h11v69h-11z"/><ellipse fill="#c5c7b9" cx="129" cy="92" rx="10" ry="10"/><ellipse fill="#5c594d" cx="29" cy="104" rx="39" ry="8"/><ellipse fill="#d6b798" rx="1" ry="1" transform="matrix(-6.64249 -3.19004 8.7114 -18.1394 140.5 59.6)"/><ellipse fill="#060812" rx="1" ry="1" transform="rotate(-163.5 46.7 26.2) scale(14.19824 27.89388)"/><ellipse fill="#b3b3a8" rx="1" ry="1" transform="rotate(-128.6 88.8 -24.2) scale(47.46866 6.65886)"/><path fill="#404443" d="M133 92l29-2-4-50z"/><ellipse fill="#c2c2be" rx="1" ry="1" transform="rotate(-172.9 20 59) scale(30.48622 8.89733)"/><path fill="#1e1b19" d="M28 42h16v17H28z"/><path fill="#9a9da7" d="M43 0h41v27H43z"/><path fill="#989a96" d="M47 32l-63 26 34-27z"/></g></svg>