<svg xmlns="http://www.w3.org/2000/svg" viewBox="0 0 200 133"><filter id="b"><feGaussianBlur stdDeviation="12" /></filter><path fill="#635b51" d="M0 0h200v133H0z"/><g filter="url(#b)" transform="translate(.5 .5)" fill-opacity=".5"><ellipse fill="#fff" rx="1" ry="1" transform="rotate(-92.2 35.8 9.7) scale(24.95568 79.15564)"/><ellipse rx="1" ry="1" transform="matrix(9.39813 41.0344 -182.91498 41.89312 148.8 107.3)"/><ellipse fill="#f5ffff" rx="1" ry="1" transform="matrix(-20.3095 9.0418 -22.17732 -49.81424 0 57.7)"/><path fill="#cba671" d="M215 2L65 14l86 54z"/><ellipse fill="#d8cfc8" rx="1" ry="1" transform="matrix(7.90407 -11.63048 23.01771 15.64282 84.3 75.8)"/><path fill="#030204" d="M31 58h29v75H31z"/><path fill="#fff" d="M-11.6 19.3L36 49.4l20.6-12.2-4-12.5z"/><ellipse fill="#3b2200" cy="7" rx="106" ry="15"/><ellipse fill="#241411" rx="1" ry="1" transform="rotate(115.4 35.3 64.8) scale(22.92993 12.79488)"/><ellipse fill="#fff" cx="198" cy="84" rx="8" ry="8"/><ellipse fill="#defbf8" rx="1" ry="1" transform="rotate(84.9 79.2 99) scale(14.96978 5.64122)"/><path fill="#020106" d="M161 51h30v82h-30z"/><path fill="#564127" d="M152 6l-29 5 48 52z"/><path fill="#b79473" d="M127 47L90 62l28-78z"/><path fill="#ffe7e2" d="M145 51h11v18h-11z"/><ellipse fill="#0a0d12" cx="105" cy="126" rx="56" ry="28"/><path fill="#0c0d17" d="M139.8 58L93 59l5.9 13.4 43.5 35.6z"/><path fill="#fff" d="M170.6 38.1l-.2 12-11-.2.2-12z"/><ellipse fill="#e0ddde" rx="1" ry="1" transform="rotate(-91.4 51 45.6) scale(8.42458 23.24945)"/><path fill="#ffffec" d="M93.5 95.5L89 90.1l11.5-9.6 4.5 5.4z"/><ellipse fill="#9e7133" rx="1" ry="1" transform="matrix(-1.97566 -7.69468 32.03764 -8.22587 82.6 12.9)"/><ellipse fill="#a1afba" cx="77" cy="63" rx="18" ry="18"/></g></svg>