<svg xmlns="http://www.w3.org/2000/svg" viewBox="0 0 200 133"><filter id="b"><feGaussianBlur stdDeviation="12" /></filter><path fill="#737884" d="M0 0h200v133H0z"/><g filter="url(#b)" transform="translate(.5 .5)" fill-opacity=".5"><ellipse cx="55" cy="11" rx="56" ry="56"/><ellipse fill="#fff" rx="1" ry="1" transform="matrix(47.72283 22.97645 -10.5702 21.95465 42.9 96)"/><ellipse fill="#d1dae4" cx="165" cy="86" rx="49" ry="49"/><path d="M88 54h28v57H88z"/><ellipse fill="#000015" rx="1" ry="1" transform="rotate(-93.8 49.7 -37.8) scale(17.11774 167.5129)"/><ellipse cx="199" cy="81" rx="89" ry="7"/><ellipse fill="#fff" cx="64" cy="69" rx="26" ry="14"/><path fill="#fff" d="M12 30h31v15H12zm55 96L44 75l-60 17z"/><path d="M159 38h10v29h-10z"/><ellipse rx="1" ry="1" transform="matrix(-5.86639 2.67674 -19.68508 -43.1422 4.5 35.6)"/><ellipse fill="#e3ecf7" cx="165" cy="102" rx="49" ry="17"/><ellipse fill="#21190f" rx="1" ry="1" transform="matrix(-15.27287 5.43842 -9.26434 -26.01728 19 132)"/><path d="M111 38h33v15h-33z"/><path fill="#fff" d="M129 16h15v18h-15z"/><path d="M119 120h18v13h-18z"/><path fill="#dfecf9" d="M106.4 135.5l22.8-22.4-31.6 6L-16 69.5z"/><path fill="#dee9f4" d="M11 124l77-38-13 39z"/><path fill="#fff" d="M164 15.6l12.5 14.8-14.7 4.1-20.9 52z"/><path fill="#111823" d="M65.9 91.3L49.3 89l56.5-15L50 98.8z"/><ellipse cx="61" cy="60" rx="9" ry="7"/><path fill="#00000a" d="M87 78h29v36H87z"/></g></svg>