<svg xmlns="http://www.w3.org/2000/svg" viewBox="0 0 200 133"><filter id="b"><feGaussianBlur stdDeviation="12" /></filter><path fill="#5e4580" d="M0 0h200v133H0z"/><g filter="url(#b)" transform="translate(.5 .5)" fill-opacity=".5"><ellipse fill="#180000" cx="110" cy="124" rx="199" ry="18"/><ellipse fill="#c170bd" cx="106" cy="13" rx="199" ry="20"/><ellipse fill="#5a8aff" rx="1" ry="1" transform="matrix(-14.9974 -11.98713 18.95238 -23.71181 31.6 76.2)"/><path d="M116 31h21v42h-21z"/><path fill="#71a8ff" d="M129 88l66 5-34-60z"/><ellipse fill="#2cfdff" cx="100" cy="56" rx="20" ry="12"/><path d="M63 31h21v40H63z"/><path fill="#0d0000" d="M183.6 42.7l21.4-5.3 9.4 37.9-21.4 5.3z"/><ellipse fill="#100" cx="98" cy="40" rx="44" ry="8"/><ellipse fill="#90a7e6" rx="1" ry="1" transform="matrix(43.51604 10.62455 -2.44185 10.00133 64.4 88.8)"/><path fill="#000014" d="M84 69h39v18H84z"/><ellipse fill="#e67d8a" cx="101" cy="8" rx="20" ry="30"/><path fill="#c36fc1" d="M55.5 36.2l13.6 15.6L-16 35.6l36.7-8.3z"/><path fill="#240000" d="M0 38h10v43H0z"/><ellipse fill="#cb81d1" rx="1" ry="1" transform="rotate(162.8 81.9 32.9) scale(31.86027 7.20094)"/><path fill="#5455ec" d="M28.5 89.3l-11.8 38.5 23.2-14-55.9-44z"/><path fill="#ecffff" d="M112 52l-28-2 22 14z"/><ellipse fill="#3a0000" cx="100" cy="130" rx="79" ry="19"/><ellipse fill="#0046e7" cx="166" cy="61" rx="22" ry="9"/><ellipse fill="#25143d" cx="175" cy="21" rx="28" ry="4"/><ellipse fill="#a5a2d2" rx="1" ry="1" transform="rotate(166.5 64 51) scale(46.29825 5.949)"/><ellipse fill="#462891" cx="22" cy="96" rx="72" ry="8"/></g></svg>