<svg xmlns="http://www.w3.org/2000/svg" viewBox="0 0 700 467"><filter id="b"><feGaussianBlur stdDeviation="12" /></filter><path fill="#747d7d" d="M0 0h700v464H0z"/><g filter="url(#b)" transform="translate(1.4 1.4) scale(2.73438)" fill-opacity=".5"><path d="M101 208L84.3 72l48.7-6 16.7 136z"/><ellipse fill="#fffcf9" rx="1" ry="1" transform="matrix(-68.10696 56.74458 -28.88782 -34.67224 96.4 12.7)"/><ellipse cx="4" cy="120" rx="22" ry="202"/><ellipse fill="#e5e0dc" rx="1" ry="1" transform="rotate(-100.1 93 47.8) scale(91.48476 33.15182)"/><ellipse fill="#040703" cx="249" cy="52" rx="16" ry="149"/><ellipse fill="#fdfdfe" cx="200" cy="51" rx="7" ry="107"/><ellipse fill="#240c06" rx="1" ry="1" transform="rotate(-85.1 120.6 -21.4) scale(21.77141 50.24609)"/><ellipse fill="#f5ece9" rx="1" ry="1" transform="matrix(15.83428 -9.03172 12.7395 22.3347 137.4 47.5)"/><ellipse fill="#0d3852" rx="1" ry="1" transform="matrix(19.6476 -.4559 3.49134 150.46173 178 135)"/><ellipse fill="#324640" cx="61" cy="104" rx="6" ry="200"/><path fill="#fff" d="M144 121h15v49h-15z"/><ellipse cx="117" cy="139" rx="26" ry="26"/><ellipse fill="#675249" cx="111" cy="62" rx="12" ry="28"/><ellipse fill="#dcd8d8" cx="35" cy="60" rx="11" ry="138"/><path fill="#fbf6f5" d="M69 113l18 63 8-68z"/><ellipse fill="#f6f3f5" cx="105" cy="9" rx="37" ry="28"/><path fill="#e9e7e6" d="M203.6 2l6.2 183-25.5-201h-72.6z"/><ellipse fill="#f6f5f5" cx="152" cy="28" rx="4" ry="74"/><ellipse fill="#f4efef" rx="1" ry="1" transform="matrix(6.41226 .99267 -6.97216 45.03738 80 62.2)"/><ellipse cx="143" cy="43" rx="2" ry="64"/><ellipse fill="#74afae" cx="222" cy="137" rx="14" ry="139"/><ellipse fill="#3f5863" cx="168" cy="11" rx="14" ry="135"/></g></svg>