<svg xmlns="http://www.w3.org/2000/svg" viewBox="0 0 200 133"><filter id="b"><feGaussianBlur stdDeviation="12" /></filter><path fill="#6b645a" d="M0 0h200v133H0z"/><g filter="url(#b)" transform="translate(.5 .5)" fill-opacity=".5"><ellipse fill="#e5ffff" rx="1" ry="1" transform="matrix(-86.93825 3.53968 -1.42774 -35.06672 96.3 132)"/><ellipse fill="#2b1707" cx="185" cy="37" rx="91" ry="51"/><ellipse fill="#0c0000" cx="25" cy="49" rx="19" ry="53"/><path fill="#00000f" d="M132.6 107.3L88.3 19.5 120.7 123l3 25.1z"/><ellipse fill="#d7fdff" cx="158" cy="114" rx="14" ry="36"/><path fill="#d4fbff" d="M62.7 84.3l-13 52.4-20.4-5 13-52.4z"/><path fill="#ffc" d="M119.1-8.4l16.4-7.6 11.4 24.4-16.4 7.6z"/><path fill="#f1d081" d="M87-14l38 65L72 6z"/><ellipse fill="#ebffff" cx="99" cy="103" rx="10" ry="22"/><path fill="#565568" d="M94 90l-19 48L33 37z"/><ellipse fill="#d0afa1" rx="1" ry="1" transform="matrix(-11.45047 -19.07786 7.66446 -4.60018 156.2 39.7)"/><ellipse fill="#0d0700" rx="1" ry="1" transform="matrix(-16.63976 10.80599 -31.7191 -48.84313 175.4 21)"/><path fill="#000032" d="M95 58h28v24H95z"/><path d="M145 49l-19 38 23 16z"/><ellipse fill="#d8f9ff" cx="99" cy="123" rx="18" ry="28"/><ellipse fill="#979c9a" cx="82" cy="61" rx="11" ry="39"/><ellipse fill="#835e0d" rx="1" ry="1" transform="rotate(64.3 19.3 54.4) scale(25.93784 22.99143)"/><ellipse fill="#cce9ff" rx="1" ry="1" transform="rotate(165.4 20.7 61.5) scale(9.57768 36.17258)"/><path fill="#c0afaf" d="M31 56.1l20.8-36.5 3.8 20.3 10.7 9.8z"/><ellipse fill="#80611f" cx="15" cy="102" rx="15" ry="39"/><path d="M75.3 41l-5 7.5L52.8 37l5-7.6z"/><ellipse fill="#1b0700" cx="114" cy="7" rx="14" ry="19"/></g></svg>