<svg xmlns="http://www.w3.org/2000/svg" viewBox="0 0 641 195"><filter id="b"><feGaussianBlur stdDeviation="12" /></filter><path fill="#a0abae" d="M0 0h641v192H0z"/><g filter="url(#b)" transform="translate(1.3 1.3) scale(2.5039)" fill-opacity=".5"><ellipse rx="1" ry="1" transform="rotate(88.1 100 158.4) scale(39.53198 27.12295)"/><ellipse fill="#060c13" rx="1" ry="1" transform="matrix(24.0895 -2.4894 3.69581 35.76364 15.4 56)"/><ellipse fill="#fff" rx="1" ry="1" transform="matrix(6.91825 71.8488 -27.06146 2.60572 202.2 15.6)"/><ellipse fill="#fff" cx="146" rx="37" ry="37"/><ellipse rx="1" ry="1" transform="matrix(23.21607 2.34228 -2.946 29.2 250.2 54.9)"/><path fill="#ebf3f1" d="M54 4h39v54H54z"/><path fill="#fff" d="M120.8 13.7l-2.3 5.9-.2 62.1L149 58.3z"/><ellipse fill="#45413c" cx="41" cy="39" rx="10" ry="16"/><ellipse fill="#0a1223" rx="1" ry="1" transform="rotate(-65.3 64.8 18.5) scale(6.47713 61.24418)"/><ellipse fill="#fafef6" rx="1" ry="1" transform="matrix(18.90947 7.39218 -18.2793 46.75917 203.5 67.8)"/><ellipse fill="#6daee8" rx="1" ry="1" transform="matrix(-7.55516 -19.57964 32.45455 -12.52317 33.2 0)"/><path fill="#5d7972" d="M105.6 12l12.5 7.9-1 59.2-28.7-58.3z"/><path fill="#d4dedb" d="M66.8 48L64 92 23.5 53.7 55 59.1z"/><path fill="#0c4223" d="M66-16L96 3l28-2z"/><ellipse fill="#6b918a" rx="1" ry="1" transform="matrix(16.0238 -3.54861 2.62565 11.85614 171.6 44)"/><ellipse fill="#0a141a" rx="1" ry="1" transform="matrix(5.90294 -34.04763 5.64642 .97894 239.8 38.4)"/><path fill="#475462" d="M145.4 92.8l-16.7-3.2 6-30.4 16.6 3.2z"/><path fill="#5b768d" d="M188.5-9.3l15.3 7.5-8.3 17-15.3-7.4z"/><path fill="#679087" d="M140 30h18v23h-18z"/><path fill="#5b827f" d="M64 28.7l19.9 1.7-1.9 21-19.9-1.8z"/><path fill="#dbedfe" d="M-16 61l75 31h-74z"/><ellipse fill="#dde6e8" cx="174" cy="57" rx="33" ry="8"/></g></svg>