<svg xmlns="http://www.w3.org/2000/svg" viewBox="0 0 200 133"><filter id="b"><feGaussianBlur stdDeviation="12" /></filter><path fill="#e2eaf5" d="M0 0h200v133H0z"/><g filter="url(#b)" transform="translate(.5 .5)" fill-opacity=".5"><path fill="#1a0000" d="M62.4 91.2L48 102l-8.4-11.2L54 80z"/><ellipse fill="#456070" cx="47" cy="24" rx="10" ry="15"/><path fill="#707d86" d="M26 113l-1.9-2.4 20.2-9 33.5 5.1z"/><path fill="#beb8bb" d="M135 75h28v48h-28z"/><ellipse fill="#eaf5ff" rx="1" ry="1" transform="matrix(13.21378 -15.74757 22.41671 18.80986 19.5 84.3)"/><path fill="#323123" d="M52 100l-6-22 17 5z"/><path fill="#fafeff" d="M35 32L50 1l-66-5z"/><path fill="#c5be8e" d="M124 24h43v12h-43z"/><ellipse fill="#f0f8ff" cx="100" cy="63" rx="45" ry="45"/><ellipse fill="#f3fbff" cx="181" cy="76" rx="19" ry="162"/><path fill="#365265" d="M46 6l14 20-8 1z"/><ellipse fill="#fafdff" rx="1" ry="1" transform="matrix(.31423 -3.4528 12.95462 1.17896 43.8 100.4)"/><path fill="#c6d4e1" d="M27.1 35.9l35.6-10.2L67 40 31.3 50.3z"/><ellipse fill="#f6faff" cx="126" cy="9" rx="75" ry="17"/><path fill="#5c6168" d="M33.8 107.5l-1 3.9-10.6-2.9 1-3.9z"/><path fill="#9aa9b3" d="M35 105h25v10H35z"/><path fill="#e9f3ff" d="M-16 133.1l52.6-32.6 31.3-51.3-55.4 18z"/><path fill="#eef5ff" d="M-16 18l78-28-78 109z"/><ellipse fill="#e8f3ff" rx="1" ry="1" transform="rotate(140.6 31 77.1) scale(31.10432 34.78276)"/><path fill="#001932" d="M44 34h2v10h-2z"/><path fill="#465b64" d="M56 25l-20 5 8-13z"/><ellipse fill="#0048ef" cx="54" cy="87" rx="3" ry="3"/></g></svg>