<svg xmlns="http://www.w3.org/2000/svg" viewBox="0 0 200 133"><filter id="b"><feGaussianBlur stdDeviation="12" /></filter><path fill="#285440" d="M0 0h200v133H0z"/><g filter="url(#b)" transform="translate(.5 .5)" fill-opacity=".5"><ellipse fill="#ceffd5" cx="132" cy="70" rx="146" ry="18"/><ellipse rx="1" ry="1" transform="matrix(-1.82014 40.73184 -148.01298 -6.61408 67 126.7)"/><ellipse rx="1" ry="1" transform="matrix(20.22998 -37.78347 33.82438 18.1102 1.4 22.1)"/><ellipse fill="#feefcf" cx="41" cy="72" rx="28" ry="12"/><ellipse fill="#067b4c" cx="195" cy="41" rx="46" ry="46"/><ellipse fill="#007c58" cx="119" cy="15" rx="83" ry="38"/><ellipse cx="55" cy="123" rx="198" ry="32"/><ellipse fill="#75bb8f" cx="162" cy="87" rx="59" ry="11"/><ellipse fill="#d0fff4" cx="132" cy="55" rx="44" ry="5"/><path d="M34 73.8l9.6 5.4-11.6 21-9.6-5.4z"/><ellipse cx="9" cy="21" rx="30" ry="30"/><ellipse fill="#002b0b" cx="139" cy="43" rx="75" ry="7"/><ellipse fill="#030505" rx="1" ry="1" transform="matrix(-25.81021 40.62238 -4.43518 -2.81798 85.7 108.8)"/><path fill="#bb8f50" d="M164 56h27v24h-27z"/><path fill="#323d30" d="M98 59h83v8H98z"/><path fill="#f4f8f6" d="M129.4 51.5l.8 8-67.6 7-.8-8z"/><path fill="#1b3a0b" d="M74 43h8v49h-8z"/><path fill="#fff" d="M114 70h13v17h-13z"/><path fill="#b2fffa" d="M172 70h8v25h-8z"/><ellipse fill="#209a85" cx="115" cy="21" rx="34" ry="12"/><path fill="#000a00" d="M209.5 62l-17.6 3.7-3.4-15.7 17.6-3.7z"/><path fill="#81d390" d="M21 80L2 81l11-36z"/></g></svg>