<svg xmlns="http://www.w3.org/2000/svg" viewBox="0 0 200 133"><filter id="b"><feGaussianBlur stdDeviation="12" /></filter><path fill="#584b3b" d="M0 0h200v133H0z"/><g filter="url(#b)" transform="translate(.5 .5)" fill-opacity=".5"><ellipse fill="#ecffff" cx="124" cy="60" rx="34" ry="35"/><ellipse rx="1" ry="1" transform="matrix(-.02246 27.57457 -133.9899 -.10912 24 9.8)"/><path fill="#fcfff7" d="M152 71h22v30h-22z"/><path fill="#e7e3d5" d="M72 75h59v28H72z"/><ellipse rx="1" ry="1" transform="matrix(-16.68607 -27.12282 19.0788 -11.73736 9.9 93.3)"/><ellipse cx="191" cy="89" rx="17" ry="34"/><path fill="#050000" d="M-1 57L215-2-1-16z"/><ellipse fill="#c66705" rx="1" ry="1" transform="matrix(-27.59239 17.17475 -12.94084 -20.79032 44.5 57.9)"/><path fill="#ffc9a7" d="M36.4 120.2L.1 126.3 89 148l-5.4-25.9z"/><path fill="#fff7a1" d="M161.7 23.4l11.9-2 8.7 49.2-11.9 2z"/><path fill="#fff" d="M35 81h12v19H35z"/><path d="M47 106l9-59 24 76zm-26 15l-37-5L11 9z"/><path fill="#ffcd58" d="M63 26h9v62h-9z"/><path d="M179 0h12v60h-12z"/><ellipse fill="#040000" rx="1" ry="1" transform="rotate(83.4 15.5 70.2) scale(41.87099 7.30238)"/><path d="M132 85h17v16h-17z"/><path fill="#ffd452" d="M215 22l-24-7 6 47z"/><ellipse rx="1" ry="1" transform="rotate(-138.3 113 9.2) scale(33.76916 8.38896)"/><path fill="#9dc0c7" d="M153 22l8 73-73-61z"/><path fill="#e1e9e7" d="M172.4 80.1L155 82.4l3.3 36.3 13.5-37.1z"/><path fill="#000007" d="M40 21h6v52h-6z"/></g></svg>