<svg xmlns="http://www.w3.org/2000/svg" viewBox="0 0 200 133"><filter id="b"><feGaussianBlur stdDeviation="12" /></filter><path fill="#2f3360" d="M0 0h200v133H0z"/><g filter="url(#b)" transform="translate(.5 .5)" fill-opacity=".5"><ellipse fill="#fff" cx="143" cy="32" rx="28" ry="24"/><ellipse fill="#9cb9ff" cx="128" cy="91" rx="133" ry="18"/><ellipse rx="1" ry="1" transform="rotate(-17.6 111.6 -129) scale(81.39124 47.64549)"/><ellipse rx="1" ry="1" transform="rotate(-170.9 48.3 62.6) scale(129.77751 19.51582)"/><ellipse fill="#0a20eb" rx="1" ry="1" transform="matrix(.12448 -17.83018 116.18284 .81112 170 101.8)"/><ellipse fill="#fff" rx="1" ry="1" transform="matrix(-48.23054 .88089 -.13367 -7.31889 128.5 79)"/><ellipse fill="#fff" cx="30" cy="91" rx="30" ry="7"/><ellipse fill="#fff" cx="144" cy="29" rx="28" ry="16"/><ellipse cx="33" cy="32" rx="45" ry="45"/><ellipse fill="#00000c" rx="1" ry="1" transform="rotate(82.8 87.6 122.6) scale(81.04305 28.36837)"/><ellipse cx="57" cy="127" rx="79" ry="15"/><ellipse fill="#1a21ff" rx="1" ry="1" transform="matrix(-35.18588 -1.51555 .88427 -20.52975 197.7 113.2)"/><ellipse cx="144" cy="88" rx="72" ry="4"/><path fill="#fff" d="M3.5 86.5l136.4-12 .6 7-136.4 12z"/><ellipse fill="#786a6c" cx="141" cy="56" rx="26" ry="14"/><path d="M8.1-16l-23.3 90.7 86.4 4.2L99 78z"/><ellipse rx="1" ry="1" transform="matrix(16.0952 -1.12308 1.66558 23.86987 27.9 119.5)"/><ellipse cx="108" cy="2" rx="199" ry="7"/><path fill="#627bff" d="M139 121l56-25-116-7z"/><path fill="#00f" d="M61.4 78.3l-88.1 12.4-.7-5 88.1-12.4z"/><path fill="#fff" d="M94 77h100v7H94z"/><path fill="#00002d" d="M100 6h12v70h-12z"/></g></svg>