<svg xmlns="http://www.w3.org/2000/svg" viewBox="0 0 200 133"><filter id="b"><feGaussianBlur stdDeviation="12" /></filter><path fill="#655d67" d="M0 0h200v133H0z"/><g filter="url(#b)" transform="translate(.5 .5)" fill-opacity=".5"><ellipse fill="#bbc3f3" cx="29" cy="21" rx="76" ry="41"/><ellipse cx="102" cy="124" rx="199" ry="14"/><ellipse fill="#fff7ff" cx="92" cy="87" rx="16" ry="23"/><ellipse cx="154" cy="78" rx="46" ry="17"/><ellipse fill="#0a0000" rx="1" ry="1" transform="rotate(81.7 -34.2 57) scale(11.27239 52.89175)"/><ellipse fill="#838ac6" cx="144" cy="6" rx="38" ry="34"/><ellipse fill="#13120d" cx="67" cy="68" rx="12" ry="30"/><path fill="#e3ba85" d="M0 98h200v12H0z"/><path fill="#101118" d="M100 36l19 83 4-103z"/><ellipse cx="53" cy="117" rx="155" ry="7"/><path fill="#ffe79f" d="M32 120l-39 12 31 16z"/><path fill="#ffc57f" d="M131 123h57v6h-57z"/><ellipse fill="#ae9f9e" rx="1" ry="1" transform="rotate(-156 23.7 18.6) scale(31.22819 26.58234)"/><path fill="#090000" d="M168 76h32v21h-32z"/><path fill="#7e7984" d="M157 78l-37-59 67 49z"/><path fill="#d3d2f1" d="M108.4 103l-10.9-1.3 4-32.7 11 1.3z"/><path fill="#336bec" d="M90 11h38v23H90z"/><path fill="#010000" d="M96 54l32-9-23-17z"/><ellipse cx="118" cy="88" rx="8" ry="18"/><ellipse fill="#0c0500" rx="1" ry="1" transform="rotate(-73.3 107.2 29.2) scale(9.3197 50.87902)"/><path fill="#b4a3a0" d="M142 52l-29-6 1 20z"/><ellipse fill="#b7b5ca" cx="165" rx="34" ry="11"/></g></svg>