<svg xmlns="http://www.w3.org/2000/svg" viewBox="0 0 200 133"><filter id="b"><feGaussianBlur stdDeviation="12" /></filter><path fill="#3b0229" d="M0 0h200v133H0z"/><g filter="url(#b)" transform="translate(.5 .5)" fill-opacity=".5"><ellipse fill="#e120cb" rx="1" ry="1" transform="matrix(-27.86685 5.27424 -6.90869 -36.50254 104.9 30.8)"/><ellipse cx="87" cy="110" rx="199" ry="48"/><path fill="#ff5ed9" d="M72 29l39 19 24-24z"/><path fill="#9c0072" d="M11 19h30v40H11z"/><ellipse fill="#690059" cx="99" rx="63" ry="25"/><ellipse fill="#950073" rx="1" ry="1" transform="rotate(50.5 49.7 221.4) scale(23.19043 12.90672)"/><ellipse fill="#700023" rx="1" ry="1" transform="matrix(15.6698 2.50123 -5.35309 33.5362 97 109)"/><path fill="#d90aec" d="M73 55h72v5H73z"/><ellipse fill="#000100" cx="199" cy="115" rx="81" ry="36"/><path fill="#cefed5" d="M87 28h33v4H87z"/><ellipse fill="#320027" cx="86" cy="17" rx="157" ry="6"/><ellipse fill="#080100" cy="104" rx="75" ry="44"/><path fill="#a902ab" d="M85.9 46.5L60.6 6.1l10 33.2 21.6-18.2z"/><path fill="#980077" d="M67.4 14.3L33.8-11.6 158.4-.4l-34 10.8z"/><ellipse fill="#a7007e" rx="1" ry="1" transform="matrix(24.39385 .67226 -.18672 6.77547 10.6 46)"/><path fill="#9b04a2" d="M135 40L95 16l46 7z"/><ellipse fill="#90014d" cx="98" cy="86" rx="10" ry="10"/><ellipse fill="#80027d" rx="1" ry="1" transform="matrix(-1.16343 -6.58746 19.96496 -3.52606 81.3 57.2)"/><ellipse fill="#0d0000" cx="161" cy="39" rx="7" ry="30"/><ellipse fill="#36000e" rx="1" ry="1" transform="matrix(-53.60626 -4.46544 .8063 -9.67928 66.5 116.3)"/><path fill="#290012" d="M32 51h32v28H32z"/><ellipse fill="#090000" cx="6" cy="3" rx="23" ry="10"/></g></svg>