<svg xmlns="http://www.w3.org/2000/svg" viewBox="0 0 700 467"><filter id="b"><feGaussianBlur stdDeviation="12" /></filter><path fill="#872314" d="M0 0h700v464H0z"/><g filter="url(#b)" transform="translate(1.4 1.4) scale(2.73438)" fill-opacity=".5"><ellipse fill="#ff2c1b" cx="120" cy="36" rx="56" ry="56"/><ellipse fill="#00030f" rx="1" ry="1" transform="rotate(52.9 25 283.6) scale(41.13358 58.70424)"/><ellipse fill="#1c0a00" rx="1" ry="1" transform="matrix(8.02357 -137.68175 41.9251 2.44323 20 5.2)"/><ellipse fill="#ff5953" cx="147" cy="149" rx="171" ry="17"/><ellipse fill="#1f0003" cx="235" cy="20" rx="43" ry="113"/><path fill="#ff0" d="M46 91l33 13-60-66z"/><path fill="#ff8400" d="M170 27h25v72h-25z"/><ellipse fill="#1e0f18" rx="1" ry="1" transform="rotate(166.1 16.8 64.3) scale(85.97111 15.97659)"/><ellipse fill="#ff341e" rx="1" ry="1" transform="rotate(-158.8 53.4 15.9) scale(44.68017 36.75494)"/><ellipse fill="#9e699a" cx="229" cy="103" rx="6" ry="47"/><ellipse fill="#170000" cx="36" cy="3" rx="47" ry="32"/><ellipse fill="#380000" rx="1" ry="1" transform="matrix(20.2697 37.48801 -7.01513 3.79307 147.2 39.6)"/><ellipse cx="201" cy="112" rx="23" ry="25"/><path fill="#1e0000" d="M106.7 77.8l25.4 16-22.8 36.4-25.4-16z"/><path fill="#e8a600" d="M143.2 97.5L206 79l-17.7-17.3-10.7 52.3z"/><path fill="#0a1d06" d="M71.2 120l-37 42.3 24.7 3.3-4.2-12.8z"/><path fill="#ff9b34" d="M0 147h34v20H0z"/><ellipse fill="#ff2" cx="65" cy="150" rx="14" ry="5"/><path fill="#00000c" d="M136 166l21-9-27-7z"/><path fill="#ff6e87" d="M164.4 154.4l102.6-6-15.7-6.2-105.8 3z"/><path d="M187 183.2l4.1-29.7 10 1.3-4.2 29.7z"/><path fill="#760c26" d="M100 86l-26 3 11 96z"/></g></svg>