<svg xmlns="http://www.w3.org/2000/svg" viewBox="0 0 700 467"><filter id="b"><feGaussianBlur stdDeviation="12" /></filter><path fill="#4b4253" d="M0 0h700v464H0z"/><g filter="url(#b)" transform="translate(1.4 1.4) scale(2.73438)" fill-opacity=".5"><ellipse fill="#eaa9ff" cx="16" cy="143" rx="28" ry="28"/><ellipse fill="#dec1ce" rx="1" ry="1" transform="matrix(-1.64947 -24.61816 33.9235 -2.27294 121.2 62.9)"/><ellipse fill="#0a0100" cx="220" cy="16" rx="83" ry="83"/><ellipse fill="#00021a" rx="1" ry="1" transform="matrix(-23.58764 -21.31488 41.97619 -46.45202 31.4 38.5)"/><path fill="#ebeff0" d="M91 17L72 86 52 63z"/><ellipse fill="#9aabaa" rx="1" ry="1" transform="matrix(9.58546 12.077 -48.5645 38.54543 229 140)"/><ellipse fill="#ac89c6" rx="1" ry="1" transform="matrix(-15.20743 9.83813 -12.29431 -19.00412 94.8 130)"/><ellipse fill="#fff9e9" rx="1" ry="1" transform="matrix(-12.07315 12.39077 -4.38502 -4.27262 197.8 94.2)"/><path fill="#b37ce4" d="M-7.6 178.6l-8.4-45 66.2-22.2-3.2 33.3z"/><ellipse fill="#f7f2d8" rx="1" ry="1" transform="matrix(-6.63544 -3.16494 12.25403 -25.6911 123.3 75.5)"/><path fill="#b0d1a4" d="M112 146h36v17h-36z"/><path fill="#fed094" d="M137 111h29v12h-29z"/><ellipse fill="#2b084a" cx="120" cy="24" rx="23" ry="23"/><path fill="#000006" d="M97 122l68-45 22 16z"/><ellipse fill="#000602" cx="159" cy="169" rx="13" ry="36"/><ellipse fill="#365f4e" rx="1" ry="1" transform="matrix(29.2524 -14.13751 13.44678 27.82318 60.9 169)"/><ellipse fill="#0b0936" cx="79" cy="96" rx="32" ry="15"/><path fill="#d7d1c6" d="M62 63l-8 21 45-27z"/><ellipse fill="#4cc2fd" rx="1" ry="1" transform="matrix(7.00206 5.15526 -13.02899 17.69644 202 159)"/><ellipse fill="#631500" cx="233" cy="165" rx="20" ry="13"/><path d="M193 102h32v14h-32z"/><path fill="#140c0b" d="M145 51h111v26H145z"/></g></svg>