<svg xmlns="http://www.w3.org/2000/svg" viewBox="0 0 200 133"><filter id="b"><feGaussianBlur stdDeviation="12" /></filter><path fill="#8d8887" d="M0 0h200v133H0z"/><g filter="url(#b)" transform="translate(.5 .5)" fill-opacity=".5"><ellipse rx="1" ry="1" transform="matrix(6.52654 42.79206 -69.80278 10.64616 114.1 68.9)"/><path fill="#fff" d="M199.4 24.5L.5 31.5l-2-56 199-7z"/><ellipse fill="#100000" rx="1" ry="1" transform="rotate(27.7 -175.2 103.6) scale(27.04624 24.48418)"/><ellipse fill="#fff" cx="146" cy="127" rx="191" ry="11"/><ellipse fill="#fff" rx="1" ry="1" transform="matrix(-12.58535 .15377 -1.02776 -84.11952 197.3 80.4)"/><ellipse fill="#030c16" cx="165" cy="97" rx="20" ry="20"/><path fill="#fff" d="M199.6 27L.7 20l1.7-47 198.9 7z"/><ellipse fill="#f7cdbc" rx="1" ry="1" transform="matrix(-28.00947 -31.36213 4.8972 -4.3737 57 49.5)"/><ellipse fill="#000004" rx="1" ry="1" transform="matrix(-3.77687 27.93435 -20.42013 -2.76091 108.3 81.4)"/><ellipse fill="#fff" cx="150" cy="132" rx="199" ry="14"/><ellipse fill="#6a4b3e" cx="66" cy="91" rx="30" ry="30"/><path fill="#fff" d="M-16 70.6l48.1-2.8 2-18-47.4 9z"/><path fill="#2a0d00" d="M3 117l28-3 23-83z"/><path fill="#353c46" d="M125 26h60v86h-60z"/><ellipse fill="#2b2122" rx="1" ry="1" transform="rotate(-144.9 54.5 11.2) scale(34.45585 20.1197)"/><ellipse fill="#c5957c" cx="49" cy="34" rx="26" ry="26"/><path fill="#fff" d="M163-11l-79-5-49 56zM91 112h29v21H91z"/><ellipse fill="#fffffc" cx="198" cy="69" rx="14" ry="195"/><ellipse fill="#fff" cx="7" rx="30" ry="30"/><path fill="#5f1000" d="M26 29h11v17H26z"/><path fill="#fff5fb" d="M49.4 60.6L54.2 39l19.4 16.4-14.7 5z"/></g></svg>