<svg xmlns="http://www.w3.org/2000/svg" viewBox="0 0 200 133"><filter id="b"><feGaussianBlur stdDeviation="12" /></filter><path fill="#3e3024" d="M0 0h200v133H0z"/><g filter="url(#b)" transform="translate(.5 .5)" fill-opacity=".5"><ellipse fill="#fad4ad" rx="1" ry="1" transform="matrix(15.05185 .15617 -.47993 46.25605 52.6 50.6)"/><ellipse fill="#000001" cx="142" cy="111" rx="45" ry="45"/><path fill="#fff5da" d="M93 64h26v14H93z"/><ellipse fill="#050402" rx="1" ry="1" transform="matrix(26.30995 -2.01858 5.78675 75.42378 13.9 68.5)"/><path fill="#f9be76" d="M155 49l-5-16 61-9z"/><path fill="#ffe8df" d="M100 91l-25 3 25-17z"/><path fill="#dfc49a" d="M37 10h28v38H37z"/><ellipse fill="#996413" cx="198" cy="43" rx="15" ry="46"/><path fill="#0e1118" d="M78 148l35-3-68-89z"/><path fill="#2b0703" d="M70.3 42L54.4 58l30.4 10.3L118 42.2z"/><path fill="#ffe6cb" d="M96 53l1 19 20 2z"/><ellipse fill="#fff" cx="157" cy="36" rx="6" ry="6"/><ellipse fill="#2e2012" rx="1" ry="1" transform="matrix(-15.62427 -8.16817 14.05649 -26.88758 124 40.5)"/><path fill="#f8ebc3" d="M63.7 6.8l1.5 2.5L45-6.9 57.4-16z"/><ellipse fill="#583719" rx="1" ry="1" transform="matrix(-57.01035 -15.8082 .8087 -2.91648 77.6 27.4)"/><path fill="#0b1118" d="M153 47h32v35h-32z"/><path fill="#7f7353" d="M121 57l33 11-27-25z"/><path d="M85.6 55.8l10.5 26-15.7 6.4-10.5-26z"/><ellipse fill="#7c531a" cx="186" cy="37" rx="23" ry="12"/><path fill="#0b0d10" d="M160 148L-16 69l90 79z"/><path fill="#7d695f" d="M83 91l-22 16-12-12z"/><ellipse fill="#3c3421" rx="1" ry="1" transform="rotate(148 16 7.3) scale(31.8852 12.43083)"/></g></svg>