<svg xmlns="http://www.w3.org/2000/svg" viewBox="0 0 700 467"><filter id="b"><feGaussianBlur stdDeviation="12" /></filter><path fill="#515252" d="M0 0h700v464H0z"/><g filter="url(#b)" transform="translate(1.4 1.4) scale(2.73438)" fill-opacity=".5"><ellipse fill="#f0f5ee" cx="218" cy="12" rx="131" ry="43"/><ellipse fill="#efebd6" rx="1" ry="1" transform="matrix(-24.01905 -23.86433 111.72766 -112.45202 35.7 12.2)"/><ellipse rx="1" ry="1" transform="rotate(-96.4 133.5 3) scale(49.52398 254.99998)"/><ellipse fill="#050000" rx="1" ry="1" transform="matrix(-.01255 8.18701 -29.52619 -.04524 119.4 33.6)"/><ellipse fill="#82746c" cx="104" cy="98" rx="30" ry="42"/><ellipse fill="#c3b09a" cx="163" cy="54" rx="32" ry="23"/><ellipse fill="azure" cx="143" rx="249" ry="7"/><path fill="#000010" d="M114 181L270 14l-1 158z"/><path fill="#ffd" d="M177.6 134.5l-7 .7-6.2-59.7 7-.7z"/><ellipse fill="#00000b" rx="1" ry="1" transform="rotate(38.4 -146.7 81) scale(23.82546 28.75491)"/><ellipse fill="#bcaeb8" rx="1" ry="1" transform="matrix(9.58182 16.2667 -9.28652 5.47018 46.8 69.7)"/><ellipse fill="#00050e" cx="100" cy="16" rx="58" ry="4"/><ellipse fill="#232014" cx="122" cy="54" rx="15" ry="30"/><path fill="#e2f1fe" d="M159.4 21.5l-3.2-22.8 58.4-8.2 3.2 22.8z"/><path fill="#d6edff" d="M234.5 53.4l7.1 4.7 11.6-73.9-24 27.5z"/><ellipse fill="#8a7761" rx="1" ry="1" transform="matrix(-28.85507 -8.25005 4.03396 -14.10903 192.6 46.9)"/><ellipse fill="#100a00" cx="88" cy="51" rx="49" ry="6"/><ellipse rx="1" ry="1" transform="rotate(-138.1 56.4 69.8) scale(43.5758 18.49727)"/><ellipse fill="#9fa9b1" rx="1" ry="1" transform="matrix(-4.92143 -.60933 3.8888 -31.40882 135 72.6)"/><path fill="#d8ebfe" d="M41.4 26.4L14 14.2 20.6-.4 48 11.8z"/><path fill="#fff" d="M150 25l18 22-28-1z"/><path fill="#322807" d="M66 96l-7-76 33 11z"/></g></svg>