<svg xmlns="http://www.w3.org/2000/svg" viewBox="0 0 700 467"><filter id="b"><feGaussianBlur stdDeviation="12" /></filter><path fill="#747d7d" d="M0 0h700v464H0z"/><g filter="url(#b)" transform="translate(1.4 1.4) scale(2.73438)" fill-opacity=".5"><ellipse fill="#fff9f6" cx="89" cy="5" rx="67" ry="67"/><ellipse cx="117" cy="118" rx="27" ry="69"/><ellipse fill="#d7d6d2" cx="56" cy="98" rx="30" ry="255"/><ellipse cy="149" rx="26" ry="254"/><ellipse fill="#120e0e" cx="108" cy="92" rx="28" ry="28"/><ellipse fill="#0b334d" cx="175" cy="102" rx="19" ry="111"/><ellipse fill="#060a06" rx="1" ry="1" transform="rotate(178.7 123.8 40.8) scale(14.79781 125.23585)"/><path fill="#fff" d="M196 0h11v170h-11z"/><ellipse cx="116" cy="142" rx="24" ry="34"/><path fill="#fffaf8" d="M71 107h22v63H71z"/><ellipse fill="#223631" cx="60" cy="17" rx="5" ry="166"/><ellipse fill="#cac3c2" rx="1" ry="1" transform="rotate(37.3 -8.1 222.5) scale(15.5278 37.44164)"/><ellipse fill="#fff" cx="152" cy="147" rx="9" ry="27"/><ellipse cx="143" cy="42" rx="2" ry="65"/><ellipse fill="#e1dddd" cx="39" cy="99" rx="13" ry="85"/><ellipse fill="#fdfafe" rx="1" ry="1" transform="matrix(-5.35077 .63677 -4.8046 -40.37302 195.3 33.8)"/><ellipse fill="#f6f5f6" cx="112" cy="7" rx="31" ry="31"/><ellipse fill="#731600" rx="1" ry="1" transform="matrix(-1.1595 12.24997 -25.55005 -2.4184 152 107.8)"/><path fill="#fff" d="M143 64l12 24V27z"/><ellipse fill="#1f4056" cx="188" cy="167" rx="11" ry="90"/><path fill="#42362e" d="M103 37h13v61h-13z"/><path fill="#79b1b0" d="M207 48h28v122h-28z"/></g></svg>