<svg xmlns="http://www.w3.org/2000/svg" viewBox="0 0 200 133"><filter id="b"><feGaussianBlur stdDeviation="12" /></filter><path fill="#444f69" d="M0 0h200v133H0z"/><g filter="url(#b)" transform="translate(.5 .5)" fill-opacity=".5"><ellipse fill="#17d4ff" rx="1" ry="1" transform="matrix(22.59253 -35.60017 43.36906 27.52281 156 39.4)"/><ellipse fill="#860000" cx="141" cy="132" rx="60" ry="60"/><ellipse fill="#fffff1" rx="1" ry="1" transform="matrix(-16.56015 -3.18898 6.15655 -31.97052 65.7 88.7)"/><ellipse cx="12" cy="73" rx="14" ry="71"/><ellipse fill="#7c0000" rx="1" ry="1" transform="matrix(14.31158 1.17663 -10.25768 124.76657 97.2 69)"/><path fill="#fff" d="M164 82l-37-9 73-3z"/><ellipse fill="#19b1ff" cx="139" cy="51" rx="29" ry="29"/><ellipse fill="#500" cx="154" cy="118" rx="73" ry="38"/><ellipse fill="#016abd" rx="1" ry="1" transform="rotate(99.1 -1.5 43.7) scale(71.17742 15.11638)"/><path fill="#fff" d="M215 53.6L210.8 84 89.2 76l103.5-3.6z"/><ellipse fill="#630500" cx="185" rx="43" ry="10"/><ellipse fill="#000227" rx="1" ry="1" transform="rotate(-15.2 449.4 -1.7) scale(32.93486 33.50682)"/><ellipse fill="#000016" rx="1" ry="1" transform="matrix(13.5958 2.81881 -16.362 78.91776 20.8 21.3)"/><ellipse fill="#81f9ff" rx="1" ry="1" transform="rotate(7.8 -66.9 4.6) scale(9.00166 43.68831)"/><ellipse fill="#028af3" cx="184" cy="43" rx="31" ry="31"/><ellipse fill="#b70000" rx="1" ry="1" transform="matrix(-7.5226 -.68461 9.0162 -99.0713 98.9 16.5)"/><ellipse fill="#ab7f59" cx="79" cy="38" rx="8" ry="51"/><ellipse fill="#001833" rx="1" ry="1" transform="matrix(-11.3293 -.13664 .46253 -38.35035 62.9 25.8)"/><ellipse fill="#57abee" cx="37" cy="47" rx="8" ry="36"/><path fill="#70c4ff" d="M119 12h65v18h-65z"/><path fill="#e4d8d3" d="M50 69h26v52H50z"/><path fill="#050000" d="M104 0h8v83h-8z"/></g></svg>