<svg xmlns="http://www.w3.org/2000/svg" viewBox="0 0 700 467"><filter id="b"><feGaussianBlur stdDeviation="12" /></filter><path fill="#39353a" d="M0 0h700v464H0z"/><g filter="url(#b)" transform="translate(1.4 1.4) scale(2.73438)" fill-opacity=".5"><ellipse fill="#78dafa" rx="1" ry="1" transform="rotate(-174.1 63.6 24) scale(84.51207 30.57325)"/><ellipse fill="#040000" cx="231" cy="62" rx="26" ry="255"/><ellipse fill="#0a0000" rx="1" ry="1" transform="matrix(-33.03416 -4.46696 23.76713 -175.76324 8 54.9)"/><ellipse fill="#b91e29" cx="94" cy="85" rx="182" ry="8"/><ellipse fill="#230000" rx="1" ry="1" transform="matrix(166.03008 -.1326 .01498 18.75527 156.6 162.9)"/><ellipse cx="249" cy="2" rx="239" ry="28"/><ellipse fill="#6e5759" cx="55" cy="107" rx="40" ry="40"/><ellipse fill="#1c95b8" rx="1" ry="1" transform="matrix(24.8781 -2.5709 3.01838 29.20828 63.4 49)"/><ellipse fill="#a1bcbf" cx="130" cy="54" rx="42" ry="17"/><path fill="#208fae" d="M172 35h34v49h-34z"/><path fill="#ac7878" d="M121.2 108.4l4.3 16.5 28.3-9.4-1.5-32.4z"/><ellipse fill="#73554d" cx="222" cy="113" rx="52" ry="12"/><ellipse rx="1" ry="1" transform="rotate(-27.2 78 -14.2) scale(26.54239 35.85824)"/><ellipse cx="254" cy="33" rx="50" ry="50"/><ellipse fill="#cf151c" rx="1" ry="1" transform="rotate(-177 10.2 37.7) scale(29.14212 4.13632)"/><path fill="#432f64" d="M88.6 70L75 69.7l119.5 3.5-101 10.5z"/><ellipse fill="#280000" cx="165" cy="169" rx="252" ry="23"/><ellipse fill="#c6a494" cx="64" cy="112" rx="32" ry="4"/><ellipse fill="#a0181f" cx="135" cy="86" rx="103" ry="6"/><path fill="#8baab0" d="M44 23h75v10H44z"/><ellipse fill="#0c322c" rx="1" ry="1" transform="matrix(2.523 -8.88018 63.29825 17.98399 0 89.8)"/><path fill="#020000" d="M96 128l2-22 24 2-2 22z"/></g></svg>