<svg xmlns="http://www.w3.org/2000/svg" viewBox="0 0 200 133"><filter id="b"><feGaussianBlur stdDeviation="12" /></filter><path fill="#4c4550" d="M0 0h200v133H0z"/><g filter="url(#b)" transform="translate(.5 .5)" fill-opacity=".5"><ellipse fill="#78bae4" cx="94" cy="46" rx="71" ry="31"/><ellipse fill="#250000" cx="117" cy="120" rx="193" ry="21"/><ellipse fill="#a3666a" cx="116" cy="75" rx="66" ry="27"/><ellipse fill="#008ad4" rx="1" ry="1" transform="matrix(-27.06764 -2.51099 1.62446 -17.5111 47.5 27.2)"/><ellipse rx="1" ry="1" transform="matrix(-9.65083 18.23795 -45.62991 -24.1456 199 17.3)"/><ellipse fill="#240100" cx="10" cy="30" rx="15" ry="179"/><ellipse fill="#dcc6b7" rx="1" ry="1" transform="matrix(0 10.72752 -21.65919 0 102 40)"/><ellipse fill="#230c09" cx="188" cy="105" rx="33" ry="33"/><ellipse fill="#9b5f4d" cx="13" cy="99" rx="96" ry="7"/><ellipse fill="#9f7989" cx="115" cy="115" rx="26" ry="5"/><ellipse fill="#1a0f12" cx="105" rx="167" ry="11"/><path fill="#007cbd" d="M125 19L18 10l22 27z"/><ellipse fill="#ae8387" rx="1" ry="1" transform="matrix(27.9085 -7.2421 4.49653 17.32803 140.5 73.3)"/><ellipse fill="#0b84c6" cx="145" cy="35" rx="18" ry="11"/><path fill="#300f0e" d="M109 90h34v19h-34z"/><path fill="#a47b8b" d="M62.8 115.1L74 131.9l8.6-16.3-6.7-.5z"/><ellipse fill="#45333b" cx="126" cy="11" rx="36" ry="11"/><path fill="#55415c" d="M127 51L49 94l22-45z"/><ellipse fill="#340000" rx="1" ry="1" transform="matrix(-7.98238 -17.55388 31.23567 -14.20398 34.5 125.6)"/><path d="M78 123h122v10H78z"/><path fill="#9db2bf" d="M47 36h21v29H47z"/><path fill="#107eb4" d="M24 36h17v27H24z"/></g></svg>