<svg xmlns="http://www.w3.org/2000/svg" viewBox="0 0 200 133"><filter id="b"><feGaussianBlur stdDeviation="12" /></filter><path fill="#855f74" d="M0 0h200v133H0z"/><g filter="url(#b)" transform="translate(.5 .5)" fill-opacity=".5"><ellipse fill="#000600" cx="99" cy="29" rx="66" ry="17"/><ellipse fill="#ded7fb" cx="101" rx="198" ry="15"/><ellipse fill="#3da3ff" rx="1" ry="1" transform="matrix(50.83323 -2.5896 .42384 8.31996 103.8 69)"/><ellipse fill="#ba3012" cx="160" cy="132" rx="46" ry="46"/><ellipse fill="#cf2707" cx="41" cy="122" rx="28" ry="28"/><ellipse fill="#fffdc8" cx="99" cy="116" rx="11" ry="27"/><ellipse fill="#001e08" cx="54" cy="41" rx="16" ry="22"/><ellipse fill="#ab8dff" cx="100" cy="64" rx="34" ry="17"/><path fill="#f1ffff" d="M-14.7 113l1.4-20 28 2-1.4 20z"/><path fill="#390908" d="M112 91h27v25h-27z"/><path fill="#083413" d="M160 37l-15 32-19-27z"/><path fill="#ff0b00" d="M186.6 65.7l-61.7-6.5.5-5 61.7 6.6z"/><ellipse fill="#2c4499" rx="1" ry="1" transform="matrix(14.1849 21.29465 -24.35445 16.2231 0 70.5)"/><path fill="#98adf3" d="M172 94.1l-9.4-22 19.4-8.2 9.4 22z"/><ellipse fill="#bc86b3" cx="180" cy="10" rx="27" ry="27"/><path fill="#ecf4fc" d="M126 87l-62 6 31 6z"/><path fill="#3271ff" d="M197 96l18-68-24 25z"/><path fill="#d6a264" d="M201 140l-217 3 108-31z"/><path fill="#630200" d="M92.8 107.2l-8.3 17-23.3-11.4 8.3-17z"/><path fill="#ff2e02" d="M98.1 56L42.8 69.8l-1-3.8 55.4-13.8z"/><path fill="#ff5f77" d="M179 89h21v22h-21z"/><ellipse fill="#bfa3c6" rx="1" ry="1" transform="matrix(44.696 -18.557 6.88332 16.57903 46.4 0)"/></g></svg>