<svg xmlns="http://www.w3.org/2000/svg" viewBox="0 0 700 467"><filter id="b"><feGaussianBlur stdDeviation="12" /></filter><path fill="#5c4843" d="M0 0h700v464H0z"/><g filter="url(#b)" transform="translate(1.4 1.4) scale(2.73438)" fill-opacity=".5"><ellipse fill="#eae6ff" cx="113" cy="147" rx="33" ry="21"/><ellipse fill="#c2955e" cx="231" cy="101" rx="35" ry="35"/><ellipse fill="#edb1df" cx="184" cy="151" rx="26" ry="13"/><path fill="#fff" d="M88.8 54.3l33.1-2-.8-14.3-18.5 4.1z"/><ellipse fill="#00000e" cx="56" cy="151" rx="19" ry="25"/><path fill="#0e0300" d="M34.1 47.8L51.2 128l-29.3 6.2L4.8 54z"/><path fill="#110200" d="M226 185l-28-78 73 60z"/><ellipse fill="#1d0408" cx="73" cy="49" rx="15" ry="53"/><ellipse fill="#010612" rx="1" ry="1" transform="matrix(-8.38814 -38.78031 16.35108 -3.53672 150.8 109.6)"/><ellipse fill="#211a0d" rx="1" ry="1" transform="matrix(-85.62261 -95.80436 16.3762 -14.6358 247.4 45)"/><ellipse fill="#c2a1a8" rx="1" ry="1" transform="matrix(-12.04174 10.27073 -23.0589 -27.035 0 127)"/><ellipse fill="#0051d5" cx="161" cy="72" rx="19" ry="12"/><path fill="#d4c8ba" d="M182 83l51 7 35-22z"/><path fill="#fff" d="M95 131h49v13H95z"/><path fill="#f5d08e" d="M35.5 24.3L42.7 4 10.1 20l8 7.9z"/><ellipse fill="#140000" cx="151" cy="28" rx="45" ry="10"/><ellipse cx="10" cy="4" rx="19" ry="14"/><ellipse fill="#724d69" rx="1" ry="1" transform="matrix(-61.96186 -3.03044 .98164 -20.07108 141 169)"/><path fill="#bc743c" d="M60.7 125.3l-29.6-9.1 10.2-33.5 29.6 9.1z"/><path fill="#ffc4a7" d="M161.7 54l-22.4-5.3 3-12.6 22.4 5.2z"/><path fill="#e7e8dc" d="M228 107.9l43 4.4-17.7 26.9-19.8-39.8z"/><path fill="#d7895e" d="M62.2 34L42.5 64l14.4-6.5-39-21.8z"/></g></svg>