<svg xmlns="http://www.w3.org/2000/svg" viewBox="0 0 700 467"><filter id="b"><feGaussianBlur stdDeviation="12" /></filter><path fill="#334079" d="M0 0h700v464H0z"/><g filter="url(#b)" transform="translate(1.4 1.4) scale(2.73438)" fill-opacity=".5"><ellipse fill="#fffff8" rx="1" ry="1" transform="matrix(22.28057 .18135 -.77094 94.7168 144.6 149.6)"/><ellipse rx="1" ry="1" transform="rotate(-178.5 16 62.5) scale(97.54492 35.58362)"/><ellipse fill="#000100" rx="1" ry="1" transform="matrix(3.65901 -33.1429 52.48341 5.79422 214.9 128.5)"/><ellipse fill="#2c45c7" rx="1" ry="1" transform="matrix(-97.92464 18.3261 -11.72197 -62.63579 133.8 14.8)"/><path fill="#ffe19d" d="M186 45h19v43h-19z"/><path fill="#fff" d="M123 128h42v42h-42z"/><ellipse fill="#a1b0f1" rx="1" ry="1" transform="matrix(-23.80844 6.036 -6.40753 -25.27392 115.2 0)"/><ellipse fill="#a3bdd2" cx="85" cy="167" rx="97" ry="9"/><path fill="#142173" d="M201 117l-205-5-12-60z"/><ellipse fill="#d4dfd6" rx="1" ry="1" transform="matrix(23.29646 -7.69386 4.30064 13.02203 141.4 90.7)"/><ellipse fill="#00046d" cx="8" cy="20" rx="47" ry="31"/><ellipse fill="#092caa" rx="1" ry="1" transform="matrix(-88.65613 -33.1221 14.06104 -37.63644 217.3 8.4)"/><ellipse fill="#060d0f" rx="1" ry="1" transform="matrix(64.93395 4.0853 -1.3916 22.1188 59.4 136.3)"/><ellipse fill="#957027" rx="1" ry="1" transform="matrix(11.04096 -.08634 .1048 13.40145 141.7 64)"/><path fill="#defbff" d="M190 89.8l1-13 19 1.4-1 13z"/><ellipse fill="#081252" cx="247" cy="91" rx="34" ry="24"/><ellipse fill="#7a6ba6" cx="58" cy="59" rx="70" ry="9"/><ellipse fill="#0d37cf" rx="1" ry="1" transform="matrix(19.82926 23.88445 -16.74999 13.90611 76.7 22.3)"/><path fill="#4c4a3a" d="M226 83l-13 30-100-3z"/><ellipse fill="#121a29" rx="1" ry="1" transform="rotate(45 -61.6 303) scale(31.55446 31.67285)"/><path fill="#0e1e7b" d="M-16 72l146-5-13 48z"/><path fill="#7787a1" d="M220 155l-4 30 53-21z"/></g></svg>