<svg xmlns="http://www.w3.org/2000/svg" viewBox="0 0 700 467"><filter id="b"><feGaussianBlur stdDeviation="12" /></filter><path fill="#a1867d" d="M0 0h700v464H0z"/><g filter="url(#b)" transform="translate(1.4 1.4) scale(2.73438)" fill-opacity=".5"><ellipse cx="159" cy="95" rx="36" ry="36"/><ellipse fill="#ffffe3" cx="68" cy="14" rx="119" ry="38"/><ellipse fill="#650000" cx="59" cy="88" rx="28" ry="28"/><ellipse fill="#2d0c36" rx="1" ry="1" transform="matrix(45.69907 -149.47494 17.12228 5.2348 254 85.4)"/><ellipse fill="#edfaff" rx="1" ry="1" transform="matrix(17.12235 -4.94778 8.70933 30.13964 216.6 92.8)"/><ellipse fill="#581900" rx="1" ry="1" transform="matrix(14.72738 25.10222 -14.66814 8.60575 202 14.4)"/><ellipse fill="#d9eaff" cx="23" cy="123" rx="22" ry="22"/><path fill="#e6e5f7" d="M84 57h41v46H84z"/><path fill="#ec0000" d="M64 63h21v63H64z"/><ellipse rx="1" ry="1" transform="matrix(-14.05027 .22716 -.52023 -32.17697 149.3 94)"/><path fill="#835327" d="M134 139.6l42.2-28.5 31.9 47.3-42.3 28.5z"/><ellipse fill="#efd2a6" rx="1" ry="1" transform="matrix(5.46218 33.67192 -23.77968 3.85748 14 78.2)"/><ellipse fill="#f6e4cb" rx="1" ry="1" transform="rotate(2 -839 4947.3) scale(9.97337 47.74617)"/><path fill="#333b5e" d="M96 101h32v50H96z"/><ellipse fill="#ffffef" cx="81" cy="13" rx="30" ry="30"/><ellipse rx="1" ry="1" transform="matrix(.36919 23.5013 -9.18246 .14425 48.2 97)"/><ellipse cx="250" cy="95" rx="8" ry="24"/><path fill="#a54f31" d="M49.2 30.6l31.5 23-15.9 21.8-31.5-23z"/><ellipse fill="#ff8fd5" rx="1" ry="1" transform="matrix(-17.09855 -2.19038 2.26712 -17.69763 230.1 76.5)"/><ellipse fill="#000006" rx="1" ry="1" transform="matrix(6.67147 -1.50348 6.44915 28.61715 187.2 93.7)"/><ellipse fill="#8f7c7e" rx="1" ry="1" transform="matrix(11.1002 17.02277 -14.15556 9.23055 120.5 107.8)"/><path fill="#00008c" d="M238.4 90.5l12.6 22.7-11.4 6.3L227 96.8z"/></g></svg>