<svg xmlns="http://www.w3.org/2000/svg" viewBox="0 0 200 133"><filter id="b"><feGaussianBlur stdDeviation="12" /></filter><path fill="#535355" d="M0 0h200v133H0z"/><g filter="url(#b)" transform="translate(.5 .5)" fill-opacity=".5"><ellipse fill="#e5e6e0" rx="1" ry="1" transform="matrix(-3.96895 29.96103 -194.9665 -25.82727 69 3.3)"/><ellipse cx="165" cy="132" rx="76" ry="76"/><ellipse cx="25" cy="123" rx="56" ry="56"/><ellipse fill="#dbcfbb" cx="5" cy="25" rx="32" ry="37"/><ellipse fill="#261a00" rx="1" ry="1" transform="rotate(96.5 26.8 48.2) scale(17.69407 32.85549)"/><ellipse fill="#ffffc3" cx="132" cy="81" rx="4" ry="20"/><path fill="#d3c8c2" d="M116-10l55 9-71 82z"/><ellipse fill="#000015" rx="1" ry="1" transform="matrix(30.70765 28.63534 -126.03826 135.15948 186 97.4)"/><ellipse fill="#c9ddee" cx="176" cy="7" rx="53" ry="20"/><ellipse fill="#fff" rx="1" ry="1" transform="matrix(59.69987 2.1891 -.1693 4.61719 66 .8)"/><ellipse fill="#82736f" rx="1" ry="1" transform="matrix(-13.09677 10.46454 -18.59098 -23.26732 151.3 40.1)"/><path fill="#c0b0be" d="M21.3 39.8L49 45l-3.5 22.3v15z"/><ellipse fill="#8c8378" cx="88" cy="15" rx="55" ry="6"/><path fill="#dab5ad" d="M62 45h21v13H62z"/><path fill="#14161b" d="M93.6 147.2l11-75.6 11.8-22L144 117z"/><ellipse cx="39" cy="132" rx="23" ry="23"/><path fill="#e3f3ff" d="M179 41l7-35 6 37z"/><path fill="#746265" d="M60 56h15v69H60z"/><path fill="#fff" d="M35 50h2v56h-2z"/><ellipse fill="#0e1426" cx="83" cy="12" rx="43" ry="3"/><path fill="#2b261b" d="M102.7 45l-4.5 18.4-50-39 67-4.8z"/><ellipse fill="#f0f5fc" rx="1" ry="1" transform="matrix(4.73805 6.83444 -24.8902 17.25538 148.2 0)"/></g></svg>