<svg xmlns="http://www.w3.org/2000/svg" viewBox="0 0 200 133"><filter id="b"><feGaussianBlur stdDeviation="12" /></filter><path fill="#432847" d="M0 0h200v133H0z"/><g filter="url(#b)" transform="translate(.5 .5)" fill-opacity=".5"><ellipse fill="#e6d6fd" cx="86" cy="59" rx="44" ry="20"/><ellipse rx="1" ry="1" transform="matrix(-30.21619 -98.3864 35.70341 -10.96514 188.8 20.3)"/><ellipse fill="#f71f43" cx="155" cy="56" rx="20" ry="23"/><ellipse fill="#c3303a" rx="1" ry="1" transform="matrix(-.57584 -21.99044 38.09892 -.99766 27.4 58.7)"/><ellipse rx="1" ry="1" transform="matrix(29.84762 -3.37582 2.60322 23.0166 24.7 15.8)"/><ellipse fill="#5753ac" rx="1" ry="1" transform="matrix(-58.7775 -10.46987 4.42544 -24.84427 90.3 132)"/><ellipse fill="#00006e" cx="97" cy="9" rx="32" ry="32"/><ellipse cy="104" rx="23" ry="29"/><path fill="#a8dfff" d="M66 40h44v28H66z"/><path fill="#505dff" d="M126 33l-15.8-18.2 15.9-13.7 15.7 18z"/><ellipse fill="#180c00" cx="144" cy="92" rx="160" ry="13"/><ellipse cx="56" cy="52" rx="4" ry="19"/><path fill="#fe5a80" d="M121 20h9v55h-9z"/><path fill="#7a9cff" d="M59 9h10v20H59z"/><path d="M159 9h6v89h-6z"/><ellipse fill="#ff73b3" cx="32" cy="50" rx="5" ry="16"/><ellipse rx="1" ry="1" transform="matrix(-10.66237 51.94303 -23.56816 -4.83785 199 30.1)"/><path fill="#ff42aa" d="M18 28v48L9 50z"/><path fill="#00000c" d="M112.8 29.3L105 2.6 55.6 39.3l158.6-5z"/><path fill="#2b24d7" d="M120 47l-26 9 32 15z"/><path d="M20 72l9-30-8-29z"/><path fill="#865f56" d="M23 92h56v28H23z"/></g></svg>