<svg xmlns="http://www.w3.org/2000/svg" viewBox="0 0 200 133"><filter id="b"><feGaussianBlur stdDeviation="12" /></filter><path fill="#543171" d="M0 0h200v133H0z"/><g filter="url(#b)" transform="translate(.5 .5)" fill-opacity=".5"><ellipse fill="#d583f1" cx="95" cy="132" rx="69" ry="69"/><ellipse cx="187" cy="35" rx="64" ry="64"/><ellipse fill="#ffb9ff" cy="101" rx="67" ry="18"/><ellipse fill="#040034" cx="9" cy="17" rx="66" ry="66"/><path d="M0 124h115v9H0z"/><ellipse fill="#e684ff" cx="126" cy="119" rx="94" ry="9"/><ellipse fill="#220f48" cx="105" rx="79" ry="79"/><ellipse fill="#190167" cx="76" cy="95" rx="70" ry="4"/><ellipse fill="#e2c4f6" cx="81" cy="84" rx="65" ry="6"/><path fill="#513177" d="M100.5-1.3l29.3 65.8-60.3 26.8-29.3-65.8z"/><ellipse fill="#fff" cx="12" cy="89" rx="29" ry="6"/><ellipse fill="#0b0712" cx="177" rx="60" ry="60"/><path fill="#36185e" d="M150 116L76-16l84 62z"/><ellipse fill="#b228ff" rx="1" ry="1" transform="matrix(-8.6062 -7.42867 21.483 -24.88829 170.8 129.1)"/><ellipse cx="108" cy="125" rx="6" ry="6"/><ellipse fill="#e9a6ff" cx="94" cy="114" rx="59" ry="7"/><path fill="#180601" d="M41 144l-49-10 35-25z"/><path fill="#2666a7" d="M23 63h21v23H23z"/><path fill="#e0aef2" d="M134 83L33 73.3 118.8 93l14.4 5.1z"/><path d="M162 99h12v15h-12z"/><ellipse cx="97" rx="199" ry="7"/><ellipse fill="#00000e" rx="1" ry="1" transform="matrix(-2.85008 .22751 -.57511 -7.2045 50.5 89.2)"/></g></svg>