<svg xmlns="http://www.w3.org/2000/svg" viewBox="0 0 700 1050"><filter id="b"><feGaussianBlur stdDeviation="12" /></filter><path fill="#afb78e" d="M0 0h697v1050H0z"/><g filter="url(#b)" transform="translate(2 2) scale(4.10156)" fill-opacity=".5"><ellipse fill="#0f1100" rx="1" ry="1" transform="matrix(-27.55452 -8.21436 16.72897 -56.1162 71.2 142.4)"/><ellipse fill="#fff" rx="1" ry="1" transform="matrix(-.9319 23.45177 -51.01282 -2.0271 33.2 240.9)"/><ellipse fill="#ffffdb" cx="13" cy="46" rx="55" ry="55"/><ellipse cx="161" cy="102" rx="24" ry="24"/><ellipse fill="#504c2e" rx="1" ry="1" transform="matrix(8.99163 -23.67064 72.25019 27.44527 117.2 228.6)"/><ellipse fill="#f8f4ff" rx="1" ry="1" transform="matrix(-44.83877 8.33901 -5.14167 -27.64668 124.7 156.6)"/><ellipse fill="#fff" rx="1" ry="1" transform="matrix(17.93114 -56.84324 16.7465 5.28267 145.2 30.7)"/><ellipse fill="#fff" cx="45" cy="239" rx="44" ry="23"/><ellipse fill="#5e9600" cx="37" cy="121" rx="10" ry="43"/><ellipse fill="#fff" rx="1" ry="1" transform="matrix(2.75965 -105.3866 16.12922 .42236 0 86.4)"/><path fill="#fff" d="M7.9 176.4l45.8 4.5-12.2-21.3L13.6 203z"/><ellipse fill="#373e14" rx="1" ry="1" transform="matrix(-23.7307 23.23902 -17.4614 -17.83084 83 116)"/><ellipse fill="#d8f16d" cx="72" cy="22" rx="43" ry="43"/><path fill="#596146" d="M130 175l-37-23 24 56z"/><path fill="#fff" d="M71 181h13v16H71z"/><ellipse fill="#a0cd2b" cx="26" cy="108" rx="20" ry="30"/><ellipse fill="#fffeff" cx="135" cy="147" rx="24" ry="24"/><ellipse fill="#211a16" rx="1" ry="1" transform="matrix(9.22987 3.6314 -16.50664 41.95458 61.8 172.6)"/><ellipse fill="#7dc109" rx="1" ry="1" transform="matrix(17.16509 -2.29521 2.22701 16.65504 72 215.5)"/><ellipse fill="#806b81" cx="169" cy="220" rx="29" ry="67"/><path fill="#fcfee6" d="M56 110L71-4 33 62z"/><path fill="#fff" d="M103 82L93 71l-8 28z"/></g></svg>