<svg xmlns="http://www.w3.org/2000/svg" viewBox="0 0 200 133"><filter id="b"><feGaussianBlur stdDeviation="12" /></filter><path fill="#ada8a7" d="M0 0h200v133H0z"/><g filter="url(#b)" transform="translate(.5 .5)" fill-opacity=".5"><ellipse fill="#5b5655" rx="1" ry="1" transform="rotate(-55.3 118.6 -149) scale(16.97639 91.82302)"/><path fill="#541714" d="M28.9 76L6.2 61.6l9.2-28 32.7 21.8z"/><ellipse fill="#dae2e4" cx="146" cy="132" rx="75" ry="75"/><path d="M-16 128.6l29.9 13.3L8 121.6l-24-19.3z"/><ellipse fill="#4d351c" cx="69" cy="88" rx="15" ry="15"/><ellipse fill="#d2ecf5" rx="1" ry="1" transform="matrix(-10.72817 -30.6979 19.89263 -6.952 23.9 105.3)"/><ellipse fill="#58403f" rx="1" ry="1" transform="matrix(16.21233 3.59419 -3.21564 14.50483 72.6 33.2)"/><ellipse fill="#735a5c" cx="116" cy="27" rx="13" ry="13"/><ellipse fill="#ebbab7" rx="1" ry="1" transform="matrix(14.93074 4.51571 -7.01083 23.1806 97 54.2)"/><ellipse fill="#c2d2d4" rx="1" ry="1" transform="rotate(-148.1 30.6 48.9) scale(56.91821 19.15574)"/><ellipse fill="#4c504f" cx="178" cy="36" rx="17" ry="17"/><ellipse rx="1" ry="1" transform="matrix(-4.47395 3.61568 -10.35006 -12.8069 0 123.8)"/><ellipse fill="#d0a197" cx="151" cy="55" rx="14" ry="42"/><ellipse fill="#847269" rx="1" ry="1" transform="matrix(2.5843 -50.29262 6.36151 .32689 39.4 20.3)"/><path fill="#492224" d="M36.3 44l1.4 26.4.1 1.5-22.4-1.6z"/><path fill="#897965" d="M44.4 86.5L68.7 55l12.7 31.7-29.5 20z"/><path fill="#7f4735" d="M9.7 41.8l3.5 3.8 20.8-1L-1.2 21z"/><ellipse fill="#624b49" rx="1" ry="1" transform="matrix(5.15787 -.28552 1.0069 18.18947 69.5 31.3)"/><ellipse fill="#c5c9c7" cx="67" cy="53" rx="28" ry="8"/><path fill="#d1bfc0" d="M111 55h81v22h-81z"/><ellipse fill="#978e88" rx="1" ry="1" transform="matrix(-21.202 24.48445 -9.90141 -8.574 152.5 21)"/><path fill="#d4c0c0" d="M43 0h64v13H43z"/></g></svg>