<svg xmlns="http://www.w3.org/2000/svg" viewBox="0 0 700 467"><filter id="b"><feGaussianBlur stdDeviation="12" /></filter><path fill="#564b39" d="M0 0h700v464H0z"/><g filter="url(#b)" transform="translate(1.4 1.4) scale(2.73438)" fill-opacity=".5"><ellipse fill="#e8ffff" rx="1" ry="1" transform="matrix(32.5266 22.0746 -29.5097 43.48212 157.3 81.5)"/><ellipse rx="1" ry="1" transform="matrix(2.84427 30.08926 -176.52347 16.68638 69.5 18)"/><path fill="#fff" d="M201 147l22-34-30-41z"/><ellipse cy="115" rx="43" ry="43"/><path fill="#fff" d="M92 98h16v31H92z"/><ellipse cx="250" cy="116" rx="28" ry="42"/><path fill="#d16900" d="M20 52h73v50H20z"/><ellipse fill="#fbc69e" rx="1" ry="1" transform="matrix(-78.77666 -1.77629 .23042 -10.21896 41.2 164.4)"/><ellipse fill="#ffe28b" rx="1" ry="1" transform="matrix(9.30259 -1.32044 6.20858 43.73982 218.8 46.4)"/><path fill="#fff" d="M58 128l1-37-20 36z"/><path d="M62 94h29v54H62z"/><ellipse rx="1" ry="1" transform="rotate(-88 36.6 25.5) scale(93.7868 12.44054)"/><ellipse rx="1" ry="1" transform="matrix(-145.06957 4.01746 -.7749 -27.9814 73.9 13.1)"/><path d="M166 111h27v18h-27z"/><path fill="#b4c2b8" d="M118 40h52v95h-52z"/><path fill="#ffd359" d="M81 34h13v72H81z"/><path fill="#ffc549" d="M247 14h9v62h-9z"/><path d="M252.8 103.5L237.7-16 223.3.7l16 159.5zM93 21h25v63H93zM82 37.5l-6 85.7-10-.7 6-85.7zM0 103h41v53H0z"/><path fill="#fff" d="M141 97h20v25h-20z"/></g></svg>