<svg xmlns="http://www.w3.org/2000/svg" viewBox="0 0 200 133"><filter id="b"><feGaussianBlur stdDeviation="12" /></filter><path fill="#b46a3f" d="M0 0h200v133H0z"/><g filter="url(#b)" transform="translate(.5 .5)" fill-opacity=".5"><ellipse fill="#031346" cx="77" cy="84" rx="33" ry="33"/><ellipse cx="142" cy="99" rx="134" ry="10"/><ellipse fill="#ffce51" rx="1" ry="1" transform="matrix(36.94822 22.13046 -27.65832 46.17733 155.7 24.2)"/><path fill="#fff" d="M0 76h46v20H0z"/><ellipse fill="#f6ff48" rx="1" ry="1" transform="rotate(-141.2 11.7 10.3) scale(57.32415 22.58848)"/><ellipse fill="#9d0000" cx="65" cy="25" rx="23" ry="23"/><ellipse fill="#fff" cx="107" cy="75" rx="12" ry="12"/><path fill="#d8d6ff" d="M167.5 64.8l-16-20.5-5.7 12.7-19.3 39.7z"/><ellipse fill="#000001" rx="1" ry="1" transform="matrix(.9635 -22.06766 8.4086 .36713 181.2 81.1)"/><ellipse fill="#f72f2f" cx="103" cy="124" rx="199" ry="20"/><ellipse fill="#ee7e00" rx="1" ry="1" transform="rotate(-47 73.3 -116) scale(24.49305 55.71524)"/><path fill="#c4ffff" d="M16 0h28v20H16z"/><path fill="#fff" d="M83.5 93.2l-10-.4 1-28 10 .4z"/><path fill="#d6edff" d="M43.2 62.6l33 8.1-18.4-29.3-12.6 4.4z"/><path fill="#000029" d="M160 71l-15 6 8 42z"/><ellipse fill="#000012" cx="125" cy="97" rx="8" ry="22"/><ellipse fill="#fbb300" cx="17" cy="40" rx="25" ry="25"/><ellipse fill="#ff8f83" cx="171" cy="126" rx="44" ry="13"/><ellipse fill="maroon" rx="1" ry="1" transform="matrix(-10.55343 3.87464 -11.6235 -31.6591 59.6 20.7)"/><ellipse fill="#001356" cx="92" cy="63" rx="10" ry="25"/><ellipse fill="#f5d680" cx="171" cy="2" rx="48" ry="20"/><path fill="#ffe8eb" d="M102 60h17v30h-17z"/></g></svg>