<svg xmlns="http://www.w3.org/2000/svg" viewBox="0 0 200 133"><filter id="b"><feGaussianBlur stdDeviation="12" /></filter><path fill="#584b3b" d="M0 0h200v133H0z"/><g filter="url(#b)" transform="translate(.5 .5)" fill-opacity=".5"><ellipse fill="#e7ffff" rx="1" ry="1" transform="matrix(-26.00637 -19.06401 23.50728 -32.0677 123.2 63.2)"/><ellipse rx="1" ry="1" transform="matrix(-128.22663 11.53783 -2.89253 -32.14638 53.5 6.6)"/><ellipse rx="1" ry="1" transform="matrix(19.24328 40.58672 -15.43533 7.31832 9.2 83)"/><ellipse fill="#f2d9ba" rx="1" ry="1" transform="matrix(-11.40374 -3.38262 8.80961 -29.69962 166.4 70.5)"/><path fill="#fff0be" d="M63 39l29 61-18 1z"/><ellipse rx="1" ry="1" transform="matrix(13.81503 34.5486 -22.32458 8.92698 199 93.1)"/><ellipse fill="#ffd1ab" cx="19" cy="132" rx="69" ry="12"/><ellipse fill="#d76700" rx="1" ry="1" transform="matrix(-19.67158 -5.2487 6.34727 -23.7889 35.3 61.3)"/><path fill="#030000" d="M215-2L-16 58l8-74z"/><path fill="#fff" d="M34 81h13v20H34z"/><path fill="#e7b968" d="M163 2h13v58h-13z"/><path d="M70 123l-20-1 2-41 20 1z"/><ellipse cx="140" cy="94" rx="10" ry="10"/><path fill="#ffc02e" d="M62 29h11v47H62z"/><ellipse cx="182" cy="13" rx="6" ry="47"/><ellipse fill="#e7f9fd" cx="163" cy="93" rx="11" ry="11"/><ellipse fill="#ffd654" cx="198" cy="36" rx="6" ry="24"/><path d="M-18.4 88.5l47.6-11.9 9.2 37-47.6 11.8z"/><path fill="#0d0000" d="M73 0h20v76H73z"/><path fill="#ced2cc" d="M71 95l43 10 49-47z"/><ellipse cx="58" cy="55" rx="4" ry="62"/><path fill="#a8d4de" d="M154.5 25.8l-8.4-2-54 10 1.5 42z"/></g></svg>