<svg xmlns="http://www.w3.org/2000/svg" viewBox="0 0 700 467"><filter id="b"><feGaussianBlur stdDeviation="12" /></filter><path fill="#4a3e36" d="M0 0h700v464H0z"/><g filter="url(#b)" transform="translate(1.4 1.4) scale(2.73438)" fill-opacity=".5"><ellipse fill="#adffff" cx="114" cy="59" rx="32" ry="24"/><ellipse fill="#b7856c" rx="1" ry="1" transform="rotate(88.1 -8.1 112) scale(19.18884 247.69326)"/><ellipse cx="113" cy="1" rx="255" ry="35"/><ellipse rx="1" ry="1" transform="rotate(178.9 71.5 82.7) scale(247.7232 15.61577)"/><ellipse fill="#78b9ff" rx="1" ry="1" transform="rotate(-96.2 84.7 -24) scale(25.9135 30.42435)"/><path fill="#96a080" d="M184 34h58v31h-58z"/><ellipse fill="#060200" cx="72" cy="51" rx="15" ry="44"/><path fill="#006df8" d="M82 36h72v11H82z"/><ellipse fill="#8b8762" rx="1" ry="1" transform="matrix(-31.09308 16.39674 -7.97066 -15.11473 20.4 54.7)"/><ellipse fill="#080000" rx="1" ry="1" transform="rotate(78.2 4.2 203.3) scale(16.65405 184.63455)"/><ellipse fill="#470100" rx="1" ry="1" transform="matrix(4.3569 12.61666 -44.14633 15.24502 18.7 148)"/><ellipse fill="#ffd8c1" cx="119" cy="125" rx="76" ry="3"/><path d="M167 94l-21-42 28-68z"/><ellipse fill="#c9b198" rx="1" ry="1" transform="matrix(8.96782 -55.21463 5.83517 .94773 255 63)"/><path fill="#283338" d="M90 80h42v37H90z"/><ellipse rx="1" ry="1" transform="rotate(145.4 111.3 37) scale(24.89206 30.83981)"/><ellipse fill="#c0d0eb" rx="1" ry="1" transform="rotate(139.5 41.1 51.5) scale(24.16745 11.74645)"/><ellipse fill="#322812" cx="203" cy="114" rx="40" ry="8"/><path fill="#ecbbac" d="M18 88h8v42h-8z"/><ellipse fill="#fbb78b" cx="81" cy="100" rx="5" ry="24"/><path fill="#ff130c" d="M150 94l8 30-21-10z"/><ellipse rx="1" ry="1" transform="rotate(-82.6 8.1 7.1) scale(19.68568 71.37378)"/></g></svg>