<svg xmlns="http://www.w3.org/2000/svg" viewBox="0 0 700 467"><filter id="b"><feGaussianBlur stdDeviation="12" /></filter><path fill="#372c2c" d="M0 0h700v464H0z"/><g filter="url(#b)" transform="translate(1.4 1.4) scale(2.73438)" fill-opacity=".5"><ellipse fill="#f8d9d1" rx="1" ry="1" transform="matrix(20.04797 19.46763 -38.10878 39.24484 111.4 37)"/><path fill="#c49ed2" d="M205 52.7l-4 16.5-34-7.9 3.8-16.5z"/><ellipse cx="103" cy="143" rx="38" ry="48"/><ellipse fill="#fff" rx="1" ry="1" transform="rotate(167.9 45.7 39.2) scale(6.50419 16.38585)"/><ellipse rx="1" ry="1" transform="matrix(2.52024 41.20552 -5.58482 .34158 103.4 16.3)"/><ellipse cx="179" cy="19" rx="27" ry="27"/><ellipse fill="#020900" cy="37" rx="73" ry="73"/><path fill="#1f0f1b" d="M155.8 55.4l-4.2 26.7-47.4-7.5 4.2-26.7z"/><ellipse fill="#ffd9f3" cx="139" cy="33" rx="14" ry="14"/><path fill="#fffffd" d="M118 86h12v15h-12z"/><path fill="#fff8ff" d="M86.3 45L76 23.3 89.7 17 100 38.7z"/><path fill="#ffcef0" d="M187 137h17v16h-17z"/><path fill="#8a726d" d="M38 95l-50 62 76-15z"/><ellipse rx="1" ry="1" transform="matrix(25.09017 -2.42582 4.24586 43.9147 255 42.6)"/><ellipse cx="218" cy="134" rx="14" ry="55"/><ellipse fill="#000834" rx="1" ry="1" transform="rotate(47.3 -98.4 273.9) scale(52.18757 22.61083)"/><path fill="#f1e0ef" d="M107.7 48.1L78.5 93l-1.4-3.5 2-22.8z"/><path d="M-6.8 138.8l54.6-7.6-33.2-12.5L3.5 15.3z"/><ellipse fill="#000100" cx="49" cy="169" rx="52" ry="22"/><path fill="#ff3339" d="M62 113l14-5-16 29z"/><path fill="#f2e5c1" d="M108 0h14v33h-14z"/><ellipse fill="#98732c" rx="1" ry="1" transform="matrix(-7.13505 18.43391 -10.24551 -3.96564 218.3 16)"/></g></svg>