<svg xmlns="http://www.w3.org/2000/svg" viewBox="0 0 700 467"><filter id="b"><feGaussianBlur stdDeviation="12" /></filter><path fill="#4a6676" d="M0 0h700v464H0z"/><g filter="url(#b)" transform="translate(1.4 1.4) scale(2.73438)" fill-opacity=".5"><ellipse fill="#efffff" rx="1" ry="1" transform="rotate(-10.2 354.6 -654) scale(69.67573 29.31777)"/><ellipse fill="#fbffff" rx="1" ry="1" transform="matrix(-4.51574 -103.42756 19.18863 -.8378 105.7 122.8)"/><ellipse rx="1" ry="1" transform="matrix(-1.48416 -30.0647 67.54289 -3.33428 224.9 108.8)"/><ellipse cx="25" cy="108" rx="29" ry="29"/><ellipse fill="#fee9ff" rx="1" ry="1" transform="matrix(-48.52943 16.90589 -4.9983 -14.34795 167 159.5)"/><ellipse cx="134" rx="174" ry="22"/><ellipse cx="77" cy="49" rx="6" ry="92"/><ellipse fill="#001" cx="142" cy="88" rx="19" ry="34"/><ellipse fill="#81ffff" cy="52" rx="15" ry="40"/><path fill="#6effff" d="M184 11h16v74h-16z"/><ellipse fill="#abffff" cx="63" cy="48" rx="9" ry="41"/><ellipse cx="180" cy="36" rx="4" ry="103"/><ellipse fill="#fff1ff" cx="70" cy="150" rx="36" ry="8"/><ellipse fill="#0082c0" rx="1" ry="1" transform="rotate(-126.7 134.3 -38.1) scale(39.50922 33.60785)"/><ellipse rx="1" ry="1" transform="matrix(41.27976 2.38018 -1.7359 30.10609 221.6 106)"/><ellipse cx="48" cy="43" rx="7" ry="86"/><ellipse rx="1" ry="1" transform="matrix(-.23594 -65.5477 5.72217 -.0206 20.5 56.5)"/><path fill="#000b1d" d="M88 136l64 4-4-33z"/><path fill="#72ffff" d="M27 31h16v48H27z"/><ellipse fill="#cdecea" cx="166" cy="65" rx="11" ry="38"/><path d="M224.5 18.5l11.9 87.4-.7-106.2-83-15.7z"/><path d="M211.9 6.9l1.2 74-13 .2-1.2-74z"/></g></svg>