<svg xmlns="http://www.w3.org/2000/svg" viewBox="0 0 700 467"><filter id="b"><feGaussianBlur stdDeviation="12" /></filter><path fill="#564b39" d="M0 0h700v464H0z"/><g filter="url(#b)" transform="translate(1.4 1.4) scale(2.73438)" fill-opacity=".5"><ellipse fill="#e5ffff" rx="1" ry="1" transform="matrix(-30.40608 39.94138 -32.27056 -24.56654 159 77.8)"/><ellipse rx="1" ry="1" transform="matrix(-183.18264 23.14135 -3.98754 -31.5646 79.4 16.2)"/><path d="M48 148l-57 8L1-16z"/><ellipse fill="#e5e9dc" rx="1" ry="1" transform="matrix(-12.32246 -27.31268 14.67668 -6.62157 204.9 108.8)"/><ellipse fill="#ffd8af" cx="44" cy="166" rx="67" ry="11"/><ellipse cx="241" cy="111" rx="17" ry="48"/><path fill="#dfdcca" d="M92 96h77v34H92z"/><path fill="#c66600" d="M21 45h73v59H21z"/><path fill="#ffed91" d="M223-3l-15 59 22 40z"/><path fill="#fff" d="M45 100h15v29H45z"/><path d="M60.6 96.6l26.9-2.9 5.9 55.7-26.9 2.9z"/><ellipse rx="1" ry="1" transform="rotate(84.6 21.6 43.4) scale(32.93082 142.93444)"/><ellipse fill="#ffd756" cx="86" cy="62" rx="7" ry="35"/><path d="M229 0h14v69h-14z"/><ellipse fill="#ffbc43" rx="1" ry="1" transform="matrix(3.58103 36.52215 -10.21324 1.00142 255 45.4)"/><ellipse rx="1" ry="1" transform="matrix(5.1181 .00102 -.01364 68.63396 75.5 85.3)"/><path d="M165.8 126.7l7.9-21.6 22.5 8.2-7.9 21.6z"/><ellipse fill="#060000" rx="1" ry="1" transform="matrix(-8.38176 1.55282 -7.2771 -39.28026 108.3 78.1)"/><ellipse rx="1" ry="1" transform="matrix(18.42745 -14.24235 19.92875 25.78479 15.6 125.6)"/><ellipse fill="#9dc3c8" rx="1" ry="1" transform="matrix(-5.07453 -23.87377 15.83503 -3.36584 133.9 63.4)"/><path d="M49 0h10v78H49z"/><path fill="#ff8208" d="M21 61h10v43H21z"/></g></svg>