<svg xmlns="http://www.w3.org/2000/svg" viewBox="0 0 700 467"><filter id="b"><feGaussianBlur stdDeviation="12" /></filter><path fill="#727070" d="M0 0h700v464H0z"/><g filter="url(#b)" transform="translate(1.4 1.4) scale(2.73438)" fill-opacity=".5"><path d="M215 166L266 8l-80 3z"/><ellipse fill="#c5eeff" cx="34" cy="72" rx="29" ry="29"/><path fill="#d8e6fb" d="M0 125h50v45H0z"/><path fill="#dcffff" d="M165 71l-10-87 53 92z"/><path d="M112 140L80 94l-19 91z"/><ellipse fill="#170800" rx="1" ry="1" transform="matrix(15.25683 -23.70391 13.79961 8.88201 129 68.4)"/><path fill="#f9ffff" d="M105 50l8.2 89-30-49.7 9-32z"/><ellipse fill="#a3b7e0" rx="1" ry="1" transform="matrix(-15.73128 11.04769 -26.40632 -37.60111 255 129.9)"/><ellipse fill="#0000b2" cx="186" cy="117" rx="14" ry="26"/><ellipse fill="#ffffe0" cx="192" rx="42" ry="12"/><path fill="#f0fbfc" d="M100 152h43v18h-43z"/><path fill="#ffffbc" d="M119 14h21v33h-21z"/><ellipse fill="#fff" cx="41" rx="32" ry="8"/><ellipse fill="#c00000" rx="1" ry="1" transform="matrix(-11.26548 .41309 -.91757 -25.02344 159.8 95.7)"/><path fill="#1f1f00" d="M57 23h51v23H57z"/><path fill="#e1ffff" d="M32.5 34l5 5.7 11 102.1L17 48.4z"/><ellipse fill="#2e3931" rx="1" ry="1" transform="rotate(178.6 32.5 42) scale(19.52059 20.45431)"/><path fill="#0f0b00" d="M139 68.4l4.6-84.4 17.8 56.3L105 52z"/><path d="M271 49l-98-37 29 50z"/><path fill="#0e0b00" d="M191.4 113L220 98.5l18.7 36.5-28.5 14.5z"/><ellipse fill="#cec88c" cx="72" rx="24" ry="26"/><path fill="#d9ebf6" d="M135 81h11v47h-11z"/></g></svg>