<svg xmlns="http://www.w3.org/2000/svg" viewBox="0 0 700 467"><filter id="b"><feGaussianBlur stdDeviation="12" /></filter><path fill="#484949" d="M0 0h700v464H0z"/><g filter="url(#b)" transform="translate(1.4 1.4) scale(2.73438)" fill-opacity=".5"><ellipse fill="#fff" cx="176" cy="1" rx="91" ry="54"/><ellipse rx="1" ry="1" transform="matrix(-227.34534 14.70176 -3.05911 -47.30558 115.7 113.7)"/><ellipse fill="#fff" rx="1" ry="1" transform="rotate(145.8 92.3 29.9) scale(37.18169 26.07094)"/><ellipse fill="#968680" cx="84" rx="72" ry="72"/><ellipse fill="#575147" rx="1" ry="1" transform="matrix(-14.80406 -10.25096 16.00895 -23.11953 210.7 35.3)"/><path fill="#939fa5" d="M200 103l-9 38 33 44z"/><ellipse fill="#fff" cx="45" cy="127" rx="3" ry="14"/><path fill="#b9bdb9" d="M239.6 140.4l-8.9-25.2-7.5 26.9 8.6-1.2z"/><ellipse fill="#fff" cx="201" cy="2" rx="145" ry="7"/><path fill="#726e6b" d="M102 33h80v38h-80z"/><ellipse fill="#0b0e0e" cx="60" cy="87" rx="31" ry="31"/><path fill="#dde4df" d="M7 133h5v37H7z"/><ellipse fill="#5f433f" cx="106" cy="26" rx="11" ry="23"/><ellipse fill="#eaf5ea" cx="26" cy="9" rx="28" ry="4"/><ellipse fill="#fff" cx="177" cy="14" rx="21" ry="19"/><path fill="#000104" d="M249.3 148.3L270.5 57l-57.3 20.7L250.4 185z"/><path fill="#dbe4e5" d="M101 47h37v8h-37z"/><ellipse fill="#020807" cx="168" cy="129" rx="25" ry="38"/><path fill="#fff" d="M268 169l-18-28 11 1z"/><ellipse fill="#fff" cx="132" cy="137" rx="4" ry="5"/><path fill="#fff" d="M103 112h2v20h-2z"/><ellipse fill="#000406" cy="101" rx="35" ry="35"/></g></svg>