<svg xmlns="http://www.w3.org/2000/svg" viewBox="0 0 700 467"><filter id="b"><feGaussianBlur stdDeviation="12" /></filter><path fill="#6d5245" d="M0 0h700v464H0z"/><g filter="url(#b)" transform="translate(1.4 1.4) scale(2.73438)" fill-opacity=".5"><ellipse fill="#fff" cx="241" cy="158" rx="43" ry="42"/><ellipse fill="#d1c3b6" rx="1" ry="1" transform="rotate(-19.3 364.1 -218) scale(23.25511 91.5956)"/><ellipse fill="#000d21" cx="35" cy="122" rx="35" ry="35"/><ellipse fill="#540b00" rx="1" ry="1" transform="matrix(-33.69239 26.3151 -59.24498 -75.854 203.9 40.6)"/><ellipse fill="#ffd0b4" cx="145" cy="64" rx="19" ry="25"/><ellipse fill="#070100" cx="175" cy="143" rx="16" ry="200"/><ellipse cx="108" cy="44" rx="27" ry="22"/><ellipse fill="#fffff7" rx="1" ry="1" transform="matrix(-24.04667 -14.40634 10.2901 -17.17596 230.6 155.6)"/><path d="M76-14L47 65 13-4z"/><ellipse fill="#dcb395" rx="1" ry="1" transform="matrix(.99785 47.22787 -9.02527 .19069 201.7 85)"/><path fill="#d9cbbd" d="M59 77.3l2.8-14.7-59 10.8 8.3 22.5z"/><ellipse fill="#bf0007" rx="1" ry="1" transform="matrix(-20.99712 -1.83657 2.57124 -29.39634 229.4 94.3)"/><path fill="#000510" d="M86.2 137.1l2.5 35-41 2.8-2.4-35z"/><ellipse fill="#cdebff" rx="1" ry="1" transform="rotate(137.1 28 58.9) scale(23.1892 15.80432)"/><ellipse fill="#f9c2a1" cx="26" cy="169" rx="20" ry="21"/><path fill="#ffeeca" d="M-2.6 36.8l20 16.7L2.6 71.2l-20-16.7z"/><path fill="#0e1608" d="M135 0h83v38h-83z"/><path fill="#180300" d="M145.2 6.8l-2 5.8-33.4 99.7-13.7-9.5z"/><path fill="#0d0c00" d="M115.7-8L107 61.3 80.3 58 89-11.4z"/><ellipse fill="#47290f" cx="123" cy="145" rx="8" ry="41"/><path fill="#fff4d8" d="M111 116l6-22 25-7z"/><ellipse fill="#3c0f00" cx="26" cy="61" rx="14" ry="14"/></g></svg>