<svg xmlns="http://www.w3.org/2000/svg" viewBox="0 0 200 133"><filter id="b"><feGaussianBlur stdDeviation="12" /></filter><path fill="#97a7b3" d="M0 0h200v133H0z"/><g filter="url(#b)" transform="translate(.5 .5)" fill-opacity=".5"><ellipse fill="#fff" rx="1" ry="1" transform="matrix(-.0316 18.8575 -80.45166 -.13483 103.7 98.8)"/><ellipse fill="#1d0200" rx="1" ry="1" transform="matrix(-125.78852 12.2564 -1.81297 -18.6067 149.2 132)"/><path fill="#252013" d="M212.9 121l-25.4 5.4L173 59l25.4-5.4z"/><path fill="#000028" d="M-6.4 73.5l18-1.6 8.8 100.6-18 1.6z"/><ellipse fill="#fff" cx="66" cy="94" rx="51" ry="17"/><path fill="#5c1d00" d="M103.8 83.5l33.5-4.3-11-23.4 16.9-22.4z"/><ellipse fill="#4e7ca4" cx="172" cy="31" rx="31" ry="53"/><ellipse fill="#9bd1ea" rx="1" ry="1" transform="matrix(99.06248 -15.85637 5.6595 35.35767 47.9 17.8)"/><path fill="#1e0903" d="M83 148l-44-37 94 14z"/><ellipse fill="#fff" cx="144" cy="93" rx="20" ry="20"/><path fill="#fffaf0" d="M86.7 68.8l.1 79.2 11-42.5 21.5-65.8z"/><ellipse fill="#dbdfe6" rx="1" ry="1" transform="matrix(41.40075 -27.42938 1.1794 1.78012 141 124.8)"/><path d="M44 130l-19-11-1 8z"/><path fill="#d6dde9" d="M170 83h12v44h-12z"/><ellipse fill="#fff" rx="1" ry="1" transform="rotate(13.7 -355.2 546.5) scale(31.86785 15.70045)"/><ellipse fill="#4e96d1" cx="37" rx="39" ry="21"/><ellipse fill="#193e7e" rx="1" ry="1" transform="matrix(.57688 4.58468 -53.3218 6.70933 0 79.7)"/><ellipse fill="#1f2445" cx="97" cy="43" rx="13" ry="5"/><ellipse fill="#231919" cx="93" cy="122" rx="44" ry="4"/><ellipse fill="#fff" rx="1" ry="1" transform="matrix(-32.03583 6.22713 -2.20444 -11.34086 99.8 106.4)"/><ellipse fill="#ffecdc" cx="196" cy="70" rx="2" ry="22"/><path fill="#484c64" d="M174.9 85L146 73.2l9-22.2 29 11.7z"/></g></svg>