<svg xmlns="http://www.w3.org/2000/svg" viewBox="0 0 700 467"><filter id="b"><feGaussianBlur stdDeviation="12" /></filter><path fill="#412845" d="M0 0h700v464H0z"/><g filter="url(#b)" transform="translate(1.4 1.4) scale(2.73438)" fill-opacity=".5"><ellipse fill="#dfe6ff" cx="120" cy="74" rx="46" ry="26"/><ellipse cx="252" cy="8" rx="56" ry="131"/><ellipse fill="#f62444" cx="199" cy="73" rx="25" ry="30"/><ellipse fill="#d3424a" rx="1" ry="1" transform="matrix(-51.36346 -5.21731 2.71669 -26.7453 35.2 74.6)"/><path d="M0 0h66v45H0z"/><ellipse fill="#5a5ab3" rx="1" ry="1" transform="matrix(66.5099 12.41817 -3.5044 18.769 117.5 157.3)"/><ellipse fill="#000e73" rx="1" ry="1" transform="matrix(.52178 27.17471 -65.88417 1.26504 127.1 25.8)"/><ellipse fill="#d8ebdf" rx="1" ry="1" transform="matrix(23.71192 -19.68601 7.2246 8.70206 95 79.4)"/><ellipse rx="1" ry="1" transform="rotate(28.7 -279 71.4) scale(24.99936 45.88545)"/><ellipse fill="#1c1102" rx="1" ry="1" transform="matrix(-.5336 -18.19497 168.75388 -4.94892 161.4 118.8)"/><ellipse fill="#ff5a86" cx="160" cy="62" rx="6" ry="42"/><ellipse fill="#ff799a" cx="61" cy="69" rx="6" ry="30"/><path fill="#b4cbff" d="M75 11h10v26H75z"/><ellipse cx="30" cy="48" rx="5" ry="44"/><path d="M113 22l15-38 31 87z"/><path fill="#556dff" d="M172 12.5l-34.2 3.7 23 25.6L172.7 28z"/><path d="M203 0h8v170h-8z"/><ellipse rx="1" ry="1" transform="matrix(4.07465 67.93633 -24.79392 1.48708 245.8 52)"/><path fill="#ebd9c9" d="M89 128.9l-.2 24.8 12 3.4-.3-21.6z"/><ellipse fill="#775578" cx="143" cy="95" rx="77" ry="9"/><ellipse cx="52" cy="54" rx="5" ry="33"/><ellipse fill="#000006" cx="188" cy="54" rx="4" ry="98"/></g></svg>