<svg xmlns="http://www.w3.org/2000/svg" viewBox="0 0 200 133"><filter id="b"><feGaussianBlur stdDeviation="12" /></filter><path fill="#462f25" d="M0 0h200v133H0z"/><g filter="url(#b)" transform="translate(.5 .5)" fill-opacity=".5"><ellipse fill="#ffffe7" rx="1" ry="1" transform="matrix(19.72786 1.4912 -2.39558 31.69243 152.6 13.2)"/><ellipse fill="#ff2b44" rx="1" ry="1" transform="matrix(2.58198 -25.9369 9.09942 .90583 99 56.3)"/><ellipse rx="1" ry="1" transform="matrix(-23.91016 -7.26446 11.64057 -38.31363 22.9 80.4)"/><ellipse fill="ivory" cx="166" cy="27" rx="5" ry="21"/><ellipse fill="#b86e7b" rx="1" ry="1" transform="matrix(6.89939 -2.7456 14.64598 36.80373 56 56.8)"/><ellipse fill="#0c090c" rx="1" ry="1" transform="matrix(43.05906 1.1406 -1.45116 54.78296 159.2 129)"/><path fill="#ddb956" d="M86.4 28l-17.5 1.7.5-28.3L86.7-13z"/><ellipse fill="#b8a087" rx="1" ry="1" transform="rotate(-110.3 114.5 -45.5) scale(27.61661 10.89394)"/><path fill="#b07588" d="M49 73h22v33H49z"/><ellipse cx="107" cy="5" rx="21" ry="21"/><ellipse fill="#2f0c00" cx="93" cy="120" rx="28" ry="39"/><ellipse fill="#1b1300" cx="7" cy="24" rx="36" ry="22"/><path fill="#413d40" d="M142 21h18v68h-18z"/><path fill="#fffabd" d="M135 0h36v13h-36z"/><path d="M46 6h23v27H46z"/><ellipse fill="#260a00" rx="1" ry="1" transform="matrix(-68.72 -88.79796 24.10264 -18.65283 30.5 132)"/><ellipse rx="1" ry="1" transform="matrix(-12.47329 22.68477 -7.37007 -4.05246 186 9.2)"/><path fill="#fbbd9f" d="M188 60h6v26h-6z"/><path fill="#9d7d6e" d="M143.5 86l-6.7 34 5.1 5 2.7 1.6z"/><path fill="#e6b894" d="M116.2 95.8l1.4-10-1.3-11.5 15 2.5z"/><ellipse fill="#f72336" cx="103" cy="51" rx="13" ry="13"/><path fill="#000003" d="M103 92l14-50 18 6z"/></g></svg>