<svg xmlns="http://www.w3.org/2000/svg" viewBox="0 0 700 467"><filter id="b"><feGaussianBlur stdDeviation="12" /></filter><path fill="#877983" d="M0 0h700v464H0z"/><g filter="url(#b)" transform="translate(1.4 1.4) scale(2.73438)" fill-opacity=".5"><ellipse fill="#270d05" cx="79" cy="163" rx="66" ry="91"/><ellipse fill="#fff" cx="211" cy="4" rx="53" ry="37"/><ellipse fill="#fff" cx="233" cy="128" rx="18" ry="55"/><ellipse fill="#fff" rx="1" ry="1" transform="rotate(-102.4 48.2 32.4) scale(26.7707 22.46737)"/><ellipse fill="#fff9ff" rx="1" ry="1" transform="matrix(-20.30512 30.78092 -23.91598 -15.77656 108 0)"/><ellipse fill="#fff" cx="136" cy="88" rx="14" ry="25"/><ellipse fill="#031d88" rx="1" ry="1" transform="matrix(-16.64195 .8581 -4.76224 -92.35758 192 163.6)"/><ellipse fill="#9e0500" rx="1" ry="1" transform="matrix(-28.57244 38.00486 -20.64 -15.51736 11.7 149)"/><ellipse fill="#4f4836" cx="86" cy="72" rx="38" ry="41"/><ellipse fill="#040000" rx="1" ry="1" transform="matrix(-11.7605 -30.47807 6.7012 -2.58577 181.6 83.7)"/><ellipse fill="#eaebf1" rx="1" ry="1" transform="matrix(-30.85066 -45.4869 14.75324 -10.00612 243.5 149.1)"/><ellipse fill="#2c282a" rx="1" ry="1" transform="rotate(-136.2 124.7 -3.2) scale(8.99723 40.17949)"/><ellipse fill="#6833d5" cx="149" cy="25" rx="24" ry="21"/><path fill="#a6f8ee" d="M171.4 101.4l16.1 40-13 5.2-16-40z"/><path fill="#fcffff" d="M212.8 39l8.9 1.5-6.5 40.5-8.9-1.5z"/><path fill="#131c11" d="M74 170l-37-3L92 42z"/><ellipse fill="#0e0011" cx="153" cy="62" rx="6" ry="22"/><path fill="#cdb0d0" d="M-16-10l186 9L53 36z"/><path d="M137 112h22v11h-22z"/><ellipse fill="#f8f9fd" cx="199" rx="29" ry="32"/><path fill="#fff" d="M248 63l-15 8 2 47z"/><path fill="#58666e" d="M92 181L86 53l89 132z"/></g></svg>