<svg xmlns="http://www.w3.org/2000/svg" viewBox="0 0 200 133"><filter id="b"><feGaussianBlur stdDeviation="12" /></filter><path fill="#4f5863" d="M0 0h200v133H0z"/><g filter="url(#b)" transform="translate(.5 .5)" fill-opacity=".5"><ellipse fill="#b8c0c9" rx="1" ry="1" transform="matrix(-54.34836 -9.69281 4.63578 -25.99316 109.3 67.8)"/><ellipse fill="#000005" cx="114" cy="8" rx="135" ry="19"/><ellipse fill="#0b0000" rx="1" ry="1" transform="matrix(37.96459 6.10977 -2.95579 18.36653 191 102.5)"/><path fill="#acffff" d="M66.5 87.8L56.2 55.2l3.4-42.6 12 5.8z"/><path fill="#b5f2ff" d="M194 103l-25-36 1-53z"/><path fill="#b2defd" d="M40.7 89.8l-10.1-25L37.4 3 47 35.7z"/><ellipse fill="#73321e" cx="29" cy="96" rx="60" ry="29"/><ellipse fill="#7afeff" cx="196" cy="43" rx="7" ry="25"/><path fill="#d9a09d" d="M14 71h28v33H14z"/><path fill="#a6ffff" d="M11 17h11v39H11z"/><path fill="#97b4e1" d="M199 128l-180-9 88 29z"/><ellipse cx="76" cy="47" rx="7" ry="26"/><path fill="#fff" d="M87.6-11.3l8.8 6.6-12 16-8.8-6.6z"/><path d="M20.6 68l4.8-54.8 10 .8-4.8 54.8z"/><path fill="#00bdff" d="M165 14h12v27h-12z"/><ellipse fill="#030000" cx="158" cy="48" rx="7" ry="42"/><path fill="#040000" d="M109 87h15v36h-15z"/><ellipse fill="#c0aea5" rx="1" ry="1" transform="rotate(-16.5 350.4 -415.1) scale(16.36022 34.04913)"/><ellipse cx="51" cy="38" rx="6" ry="39"/><path fill="#540000" d="M27.6 113l-28 1-1.2-33 28-1z"/><ellipse fill="#000015" rx="1" ry="1" transform="rotate(97 -14 19.9) scale(36.72121 6.18354)"/><path d="M0 0h59v20H0z"/></g></svg>