<svg xmlns="http://www.w3.org/2000/svg" viewBox="0 0 200 133"><filter id="b"><feGaussianBlur stdDeviation="12" /></filter><path fill="#434655" d="M0 0h200v133H0z"/><g filter="url(#b)" transform="translate(.5 .5)" fill-opacity=".5"><ellipse fill="#b0ffff" cx="97" cy="46" rx="25" ry="22"/><path fill="#d16748" d="M120 66l-43 52-93-15z"/><ellipse fill="#ffc6a6" cx="177" cy="101" rx="27" ry="12"/><ellipse fill="#002868" cx="6" cy="31" rx="56" ry="56"/><ellipse fill="#002f73" cx="180" cy="34" rx="46" ry="46"/><ellipse fill="#580000" cx="15" cy="126" rx="22" ry="37"/><ellipse fill="#fff" rx="1" ry="1" transform="matrix(6.03133 3.00711 -5.42745 10.88578 77.3 104.3)"/><path fill="#fff" d="M41 91l-7 22 20-6z"/><ellipse fill="#570000" rx="1" ry="1" transform="matrix(14.63465 -10.19249 12.3709 17.76248 105.9 88)"/><ellipse fill="#0063a7" cx="17" cy="17" rx="25" ry="25"/><ellipse fill="#2d1b09" cx="89" cy="132" rx="196" ry="18"/><ellipse fill="#ff0008" cx="5" cy="106" rx="22" ry="8"/><ellipse fill="#73b2ff" rx="1" ry="1" transform="rotate(9.7 -268 658) scale(17.11527 16.53647)"/><ellipse fill="#0f70b3" cx="186" cy="13" rx="26" ry="24"/><ellipse fill="#001022" cx="37" cy="65" rx="24" ry="24"/><path fill="#5da4fa" d="M73 38h51v30H73z"/><path fill="#a10000" d="M61 68l41 15 38-16z"/><ellipse fill="#001c42" cx="161" cy="54" rx="27" ry="27"/><path fill="#936741" d="M94.5 149.7L80.3 96.5l23.2-6.2 14.2 53.2z"/><ellipse fill="#f6dac7" rx="1" ry="1" transform="matrix(-13.92225 .50977 -.27637 -7.54806 99.5 28.8)"/><path fill="#20261f" d="M49.1 146.5l-12-5 29.8-70 12 5z"/><path fill="#1a0500" d="M151.3 104l7-25.6-46.3 31.1 35.5-3z"/></g></svg>