<svg xmlns="http://www.w3.org/2000/svg" viewBox="0 0 700 467"><filter id="b"><feGaussianBlur stdDeviation="12" /></filter><path fill="#73464e" d="M0 0h700v464H0z"/><g filter="url(#b)" transform="translate(1.4 1.4) scale(2.73438)" fill-opacity=".5"><path fill="#f8c6b5" d="M67.6 77.1l61-90.3 29.8 20-61 90.4z"/><ellipse rx="1" ry="1" transform="rotate(80.4 106.5 135.9) scale(22.47262 52.58232)"/><ellipse fill="#d1a09d" rx="1" ry="1" transform="matrix(22.48031 65.31903 -30.49415 10.49492 219.4 143.8)"/><ellipse fill="#e00" rx="1" ry="1" transform="matrix(28.78634 -33.82384 19.41688 16.52506 21 70.5)"/><ellipse fill="#0e051c" rx="1" ry="1" transform="matrix(75.14844 -41.65546 14.5508 26.25034 27.6 149.4)"/><ellipse fill="#fff5b0" rx="1" ry="1" transform="matrix(6.24367 7.4796 -25.96697 21.67618 55 83.6)"/><path fill="#00001d" d="M193 78l-89-38 67 82z"/><ellipse fill="#de9dad" rx="1" ry="1" transform="matrix(18.6451 19.7629 -17.92823 16.91419 121.8 92.3)"/><ellipse fill="#240005" rx="1" ry="1" transform="matrix(59.87644 52.23354 -13.95819 16.00057 27.2 9.8)"/><ellipse fill="#310000" cx="211" cy="129" rx="14" ry="16"/><path fill="#a487b4" d="M131.9 186l-27.2-83.7L136.1 92l27.2 83.6z"/><ellipse fill="#000600" rx="1" ry="1" transform="rotate(29.5 -248.5 271.1) scale(21.79138 16.71476)"/><ellipse fill="#e7a69e" cx="155" cy="43" rx="19" ry="17"/><ellipse fill="#120000" cx="253" cy="97" rx="22" ry="22"/><ellipse fill="#ffccd3" cx="222" cy="160" rx="17" ry="17"/><path fill="#e6dcef" d="M188 177l13-34-19-55z"/><path fill="#f6ffff" d="M128 43l8-28-26-2z"/><path fill="#ffff40" d="M60 64h29v20H60z"/><ellipse fill="#200000" rx="1" ry="1" transform="matrix(12.08975 -14.45918 17.74247 14.83501 162.6 106)"/><ellipse fill="#100" cx="9" cy="143" rx="12" ry="45"/><ellipse fill="#040000" rx="1" ry="1" transform="matrix(-3.26984 12.63166 -73.45703 -19.01513 226 13.2)"/><path fill="#886dac" d="M21 117h17v46H21z"/></g></svg>