<svg xmlns="http://www.w3.org/2000/svg" viewBox="0 0 200 133"><filter id="b"><feGaussianBlur stdDeviation="12" /></filter><path fill="#8c8887" d="M0 0h200v133H0z"/><g filter="url(#b)" transform="translate(.5 .5)" fill-opacity=".5"><ellipse rx="1" ry="1" transform="matrix(-15.08917 36.10243 -62.22073 -26.00544 124.5 70.3)"/><ellipse fill="#fff" rx="1" ry="1" transform="rotate(87.6 58.2 63.1) scale(24.24008 195.24492)"/><ellipse fill="#25100a" rx="1" ry="1" transform="matrix(.30207 -24.72318 89.35245 1.0917 46 94.2)"/><ellipse fill="#fff" cx="95" cy="126" rx="199" ry="10"/><ellipse fill="#fff" rx="1" ry="1" transform="matrix(-.75698 92.78245 -10.2234 -.0834 195.9 72.2)"/><ellipse fill="#313844" cx="156" cy="55" rx="31" ry="31"/><ellipse fill="#fff" cx="129" cy="12" rx="199" ry="14"/><ellipse fill="#c9a297" rx="1" ry="1" transform="matrix(18.93351 26.45768 -6.54314 4.68237 71.1 65)"/><ellipse fill="#fff6ef" rx="1" ry="1" transform="matrix(-31.48123 4.33998 -1.04646 -7.5908 7 61.4)"/><ellipse fill="#513b34" cx="53" cy="89" rx="40" ry="31"/><path fill="#fff" d="M90.2 111l31.9 2.2-2.3 31.9-31.9-2.3z"/><ellipse cx="117" cy="71" rx="8" ry="41"/><ellipse fill="#d5ab98" rx="1" ry="1" transform="rotate(-122.2 34.9 2.4) scale(29.87353 14.82527)"/><ellipse fill="#fff" cx="174" cy="132" rx="199" ry="16"/><path fill="#fff" d="M5 63l-21-20 17 84z"/><path fill="#3a3d44" d="M135 26h51v44h-51z"/><ellipse fill="#fff" rx="1" ry="1" transform="matrix(-15.67108 28.77937 -22.18285 -12.07911 1.7 12.9)"/><path fill="#0c171f" d="M89 31h31v79H89z"/><path fill="#fff" d="M192 112l23-99-32-29z"/><path fill="#fff" d="M63-16l145 39-131 1z"/><path fill="#fcf2f2" d="M72.3 58.5L47 60.2l8.1-28-29.8-13.8z"/><path fill="#1f0f0a" d="M5 70h29v38H5z"/></g></svg>