<svg xmlns="http://www.w3.org/2000/svg" viewBox="0 0 700 467"><filter id="b"><feGaussianBlur stdDeviation="12" /></filter><path fill="#727070" d="M0 0h700v464H0z"/><g filter="url(#b)" transform="translate(1.4 1.4) scale(2.73438)" fill-opacity=".5"><ellipse rx="1" ry="1" transform="matrix(-3.37617 26.72512 -36.984 -4.67216 223.7 35.5)"/><ellipse fill="#f1ffff" cx="33" cy="69" rx="18" ry="35"/><ellipse fill="#ddf2ff" rx="1" ry="1" transform="matrix(9.55743 16.6882 -50.55091 28.95078 3.4 156)"/><ellipse fill="#3f1a37" cx="190" cy="116" rx="44" ry="44"/><ellipse fill="#000003" cx="85" cy="153" rx="14" ry="57"/><path fill="#fff" d="M113 131l-10-83-22 33z"/><ellipse fill="#d4f7ff" cx="175" cy="56" rx="19" ry="19"/><ellipse fill="#000405" rx="1" ry="1" transform="rotate(-52.7 183 -212.7) scale(20.88496 80.06812)"/><path fill="#ecffff" d="M185 42l-19 6.2L149-4l19-6.1z"/><ellipse fill="#0d0000" cx="129" cy="66" rx="19" ry="21"/><ellipse fill="#fff" rx="1" ry="1" transform="matrix(-37.5249 -2.75566 .47033 -6.40461 35.6 0)"/><ellipse fill="#e5f2f6" rx="1" ry="1" transform="matrix(-20.15963 -3.66507 3.3804 -18.5938 118 166.4)"/><ellipse fill="#ffffd9" cx="204" rx="53" ry="10"/><ellipse fill="#ffffbf" cx="131" cy="29" rx="11" ry="18"/><path d="M144-16l14 56-19 32z"/><ellipse fill="#101308" rx="1" ry="1" transform="matrix(12.09168 -4.20107 17.13806 49.3274 222.2 136.7)"/><ellipse fill="#0023ea" rx="1" ry="1" transform="matrix(11.63364 -2.57912 4.79371 21.62304 185.6 118.1)"/><path fill="#a9bae1" d="M270.6 131.7l-24.2 14-25-43.4 24.2-14z"/><path fill="#1c1900" d="M108 19.3l3.1 17.7L56 46.7 52.9 29z"/><path fill="#c4805c" d="M113.7 137l-2.3-44.9 60.9-3.2 2.3 45z"/><ellipse fill="#a10000" cx="161" cy="93" rx="14" ry="24"/><path fill="#86bac0" d="M41 107h32v37H41z"/></g></svg>