<svg xmlns="http://www.w3.org/2000/svg" viewBox="0 0 200 133"><filter id="b"><feGaussianBlur stdDeviation="12" /></filter><path fill="#8e8470" d="M0 0h200v133H0z"/><g filter="url(#b)" transform="translate(.5 .5)" fill-opacity=".5"><ellipse fill="#531d00" cx="134" cy="123" rx="66" ry="66"/><ellipse fill="#caded7" cx="180" rx="83" ry="83"/><ellipse fill="#c6d5d0" cx="48" cy="21" rx="53" ry="53"/><ellipse fill="#472f00" rx="1" ry="1" transform="rotate(-30.7 256.8 7.3) scale(27.99738 72.79302)"/><ellipse fill="#d66300" rx="1" ry="1" transform="rotate(164.2 27.2 64.6) scale(50.41731 15.50964)"/><path fill="#fff" d="M173 0h27v48h-27z"/><ellipse fill="#030e12" cx="182" cy="109" rx="14" ry="41"/><path fill="#fff" d="M40 72.7l11 .6-1 20-11-.6z"/><ellipse fill="#9f836a" cx="157" cy="37" rx="15" ry="79"/><ellipse fill="#60515e" cx="83" cy="76" rx="24" ry="24"/><ellipse fill="#011933" rx="1" ry="1" transform="matrix(10.83957 -.36858 .78028 22.94723 134.4 90)"/><path d="M102 47l-3-15 20 1z"/><path fill="red" d="M73 100h24v19H73z"/><path fill="#273342" d="M0 73h38v35H0z"/><path fill="#f07f00" d="M100 73h23v24h-23z"/><ellipse fill="#ffc7cc" rx="1" ry="1" transform="rotate(-124.8 38.1 62.8) scale(6.41236 11.43442)"/><path fill="#4b2f1e" d="M68 120L49 96l32-55z"/><path fill="#d0c3be" d="M163.5 114l-2.8-17.8L132.6 68l15.3 31.8z"/><path fill="#e3eeef" d="M17 75l-4-85 26 75z"/><path fill="#051000" d="M140 116h25v17h-25z"/><ellipse fill="#78735a" rx="1" ry="1" transform="matrix(-32.98805 -.46063 .29823 -21.35803 158.5 66.7)"/><path fill="#8fd4e4" d="M85 44l35-17-42-43z"/></g></svg>