<svg xmlns="http://www.w3.org/2000/svg" viewBox="0 0 200 133"><filter id="b"><feGaussianBlur stdDeviation="12" /></filter><path fill="#756d77" d="M0 0h200v133H0z"/><g filter="url(#b)" transform="translate(.5 .5)" fill-opacity=".5"><ellipse fill="#feffff" cx="118" cy="124" rx="71" ry="20"/><ellipse fill="#3f293a" cx="63" cy="23" rx="80" ry="80"/><ellipse fill="#d2ffff" rx="1" ry="1" transform="matrix(42.39187 30.6631 -6.32207 8.74029 171.5 58.7)"/><path fill="#fff" d="M85 36h29v20H85z"/><ellipse fill="#eaffff" cx="34" cy="31" rx="24" ry="5"/><path fill="#050000" d="M34 100L61 7l36 11z"/><ellipse fill="#000b00" rx="1" ry="1" transform="rotate(94.9 55.7 66.6) scale(12.23025 31.83853)"/><ellipse fill="#cc85a8" cx="52" rx="116" ry="7"/><path fill="#f3fff0" d="M193.4 78.5l.2-.1-9.5 69.6-25.8-13.4z"/><path fill="#d5ffff" d="M154 24h38v9h-38z"/><path fill="#8fb09b" d="M44.3 88.7l31.5 12.7-16 39.9-31.6-12.7z"/><path fill="#d9edff" d="M173.6 83l-33-31.9L152.4 39l33 32z"/><ellipse fill="#820e1b" cx="143" cy="83" rx="15" ry="15"/><ellipse fill="#b7d4ce" rx="1" ry="1" transform="rotate(21 -240.8 391.2) scale(29.71339 21.93432)"/><ellipse fill="#4a110a" cx="42" cy="81" rx="103" ry="6"/><ellipse fill="#7e0000" cx="193" cy="132" rx="7" ry="25"/><path fill="#002512" d="M116.7 42.8l17.2-8 11.4 24.4-17.2 8z"/><ellipse fill="#0a7178" cx="28" cy="45" rx="24" ry="11"/><path fill="#6c543d" d="M51 67h20v48H51z"/><path fill="#270d00" d="M20 117h13v16H20z"/><path fill="#ea87ff" d="M24 54h6v25h-6z"/><path fill="#140000" d="M45 12h38v15H45z"/></g></svg>