<svg xmlns="http://www.w3.org/2000/svg" viewBox="0 0 200 133"><filter id="b"><feGaussianBlur stdDeviation="12" /></filter><path fill="#726a5b" d="M0 0h200v133H0z"/><g filter="url(#b)" transform="translate(.5 .5)" fill-opacity=".5"><ellipse fill="#0b182f" cx="67" cy="86" rx="118" ry="35"/><ellipse fill="#deb470" cx="98" cy="22" rx="141" ry="28"/><path fill="#e6ffff" d="M186-13l29 122-34 39z"/><ellipse fill="#00062f" cx="167" cy="87" rx="14" ry="50"/><ellipse fill="#fff" cx="68" cy="67" rx="5" ry="20"/><path fill="#fff" d="M44 81L33 48l14 7z"/><ellipse fill="#ecc39c" rx="1" ry="1" transform="matrix(-.3444 30.8351 -11.06348 -.12357 138.4 116.9)"/><ellipse fill="#462300" rx="1" ry="1" transform="rotate(95 -4.1 6) scale(22.04526 31.95415)"/><ellipse fill="#f6cb8b" cx="89" cy="132" rx="9" ry="50"/><ellipse fill="#e0b87d" rx="1" ry="1" transform="rotate(-175.7 2.5 66) scale(22.12847 47.80163)"/><path d="M100 107h28v26h-28z"/><ellipse fill="#eef8ff" rx="1" ry="1" transform="matrix(-4.12313 45.30561 -11.05547 -1.00613 191.7 112.2)"/><path d="M159.3 101.1l10.5 22.9-14.2 24-18.7-104.7z"/><path fill="#031e3d" d="M155 8l30 81 1-39z"/><ellipse fill="#0081e3" cx="198" cy="44" rx="9" ry="15"/><path fill="#e4e5e1" d="M169 0h21v37h-21z"/><ellipse fill="#000a1f" rx="1" ry="1" transform="rotate(27.1 -182.9 163.3) scale(30.32518 16.79131)"/><path fill="#d8beac" d="M59 7l-1 36 79 11z"/><path fill="#663e00" d="M135 31.2l-7-14.4 37-18 7 14.4z"/><ellipse fill="#000002" cx="16" cy="76" rx="21" ry="10"/><path fill="#9bb3d6" d="M165 55l-9-34-6 61z"/><ellipse fill="#ffff01" cx="199" cy="10" rx="11" ry="11"/></g></svg>