<svg xmlns="http://www.w3.org/2000/svg" viewBox="0 0 700 467"><filter id="b"><feGaussianBlur stdDeviation="12" /></filter><path fill="#4d5861" d="M0 0h700v464H0z"/><g filter="url(#b)" transform="translate(1.4 1.4) scale(2.73438)" fill-opacity=".5"><ellipse fill="#d7d5d4" rx="1" ry="1" transform="matrix(-2.12176 33.77137 -44.78574 -2.81376 149.2 93)"/><ellipse fill="#000001" rx="1" ry="1" transform="matrix(-178.21746 -2.67426 .4762 -31.73434 156 3.2)"/><ellipse fill="#ceffff" rx="1" ry="1" transform="matrix(8.13326 -.46625 2.56516 44.74672 82.1 68.2)"/><ellipse fill="#5bffff" cx="221" cy="52" rx="8" ry="40"/><ellipse rx="1" ry="1" transform="matrix(-3.77606 -18.86406 39.84984 -7.97683 242.4 135.2)"/><ellipse fill="#d2ffff" cx="49" cy="67" rx="8" ry="43"/><ellipse fill="#600000" rx="1" ry="1" transform="matrix(14.0257 28.13121 -21.40172 10.6705 12.8 130)"/><ellipse fill="#a9eaff" rx="1" ry="1" transform="rotate(-169.5 12 30.5) scale(7.86836 36.0545)"/><ellipse fill="#fff" cx="108" cy="3" rx="10" ry="10"/><ellipse fill="#5df0ff" rx="1" ry="1" transform="matrix(8.57003 -.9446 3.12406 28.3438 249.3 50.4)"/><path fill="#0e0000" d="M141.3 105.7l28 45-18.6 11.6-28-45z"/><ellipse fill="#90b8e4" rx="1" ry="1" transform="matrix(133.03117 -.46437 .02963 8.48815 124 140.5)"/><ellipse rx="1" ry="1" transform="rotate(95.7 8.6 56.9) scale(71.41412 7.10313)"/><ellipse fill="#d6816d" rx="1" ry="1" transform="matrix(-13.08523 10.67205 -19.64812 -24.09098 31 109)"/><ellipse fill="#370b00" rx="1" ry="1" transform="matrix(-13.87952 -12.94286 20.95917 -22.47595 79.3 131.7)"/><ellipse fill="#d1d6ed" rx="1" ry="1" transform="matrix(5.68058 -2.11922 13.75997 36.88361 228.3 81.6)"/><ellipse cx="203" cy="50" rx="10" ry="34"/><ellipse rx="1" ry="1" transform="rotate(2.3 -1278.4 893) scale(5.47983 61.84232)"/><ellipse fill="#8affff" cx="81" cy="52" rx="9" ry="40"/><ellipse fill="#609fc0" cx="143" cy="63" rx="43" ry="26"/><ellipse rx="10" ry="174"/><path fill="#b89d8c" d="M189.9 159l-40.4-31 51.9-61.6-6.8 61.7z"/></g></svg>