<svg xmlns="http://www.w3.org/2000/svg" viewBox="0 0 200 133"><filter id="b"><feGaussianBlur stdDeviation="12" /></filter><path fill="#5e5141" d="M0 0h200v133H0z"/><g filter="url(#b)" transform="translate(.5 .5)" fill-opacity=".5"><ellipse fill="#fff" cx="170" cy="32" rx="30" ry="42"/><ellipse rx="1" ry="1" transform="rotate(126.6 -23 50.7) scale(41.52318 168.66184)"/><ellipse cx="174" cy="125" rx="69" ry="30"/><path fill="#fff" d="M128 11h72v37h-72z"/><ellipse fill="#deaa6f" rx="1" ry="1" transform="matrix(1.55459 -17.6327 35.24068 3.107 82.8 90.9)"/><path fill="#040303" d="M137 29h12v104h-12z"/><path d="M210.6 66.7l-20.7 10.1-10.5-21.5 20.7-10.1z"/><path fill="#ffff62" d="M184.6 77.3l4.4 9-29.6 14.4-4.4-9z"/><path d="M26-16L7 148-16 2z"/><path fill="#fff" d="M207 5l-67 13 22 59z"/><ellipse rx="1" ry="1" transform="matrix(-9.68212 -21.5468 59.57205 -26.76889 187.6 116.7)"/><ellipse fill="#9b8859" rx="1" ry="1" transform="matrix(-19.47087 -20.16268 41.2862 -39.86962 126.4 0)"/><ellipse fill="#304017" cx="184" rx="34" ry="11"/><ellipse rx="1" ry="1" transform="matrix(-83.16142 -27.18841 7.01766 -21.46499 42 119)"/><path fill="#c6bbca" d="M105 47L95 23l-5 57z"/><ellipse fill="#1e0007" rx="1" ry="1" transform="matrix(9.16165 3.0129 -11.5604 35.15297 41.7 66.8)"/><path fill="#3d3127" d="M166 46l40 9-31 10z"/><path fill="#c4a471" d="M147.2 81.5l-33 28.7L59.8 84l79.7-1.9z"/><ellipse fill="#17243f" rx="1" ry="1" transform="rotate(-70.8 110.6 -51) scale(9.88072 43.07067)"/><path fill="#000a29" d="M126.3 61l-24.1-13v2.6l3.8-24.8z"/><path fill="#daa37b" d="M26.2 64.9l-11.6-9.5 13.2-16.3 11.6 9.5z"/><ellipse rx="1" ry="1" transform="matrix(-40.31239 42.66376 -3.79688 -3.58762 116 120.2)"/></g></svg>