<svg xmlns="http://www.w3.org/2000/svg" viewBox="0 0 200 133"><filter id="b"><feGaussianBlur stdDeviation="12" /></filter><path fill="#432847" d="M0 0h200v133H0z"/><g filter="url(#b)" transform="translate(.5 .5)" fill-opacity=".5"><ellipse fill="#dee0ff" rx="1" ry="1" transform="matrix(38.8049 -3.69406 1.82728 19.19504 82 57.6)"/><ellipse cx="185" cy="43" rx="28" ry="66"/><ellipse fill="#fe2248" cx="155" cy="56" rx="19" ry="23"/><ellipse fill="#c7323e" rx="1" ry="1" transform="matrix(.09438 21.54961 -40.77545 .17858 28.5 57)"/><ellipse cx="20" cy="1" rx="37" ry="37"/><ellipse fill="#02128a" rx="1" ry="1" transform="matrix(49.40058 .80117 -.2962 18.26353 99.6 16.5)"/><path fill="#5956bb" d="M62 100l-33 48 123-19z"/><path fill="#b49fd2" d="M66 46h64v31H66z"/><ellipse cy="104" rx="23" ry="29"/><ellipse cx="173" cy="26" rx="38" ry="20"/><path d="M65.2 29.5l-3.5 39.8-9-.8 3.6-39.8zM72 18h38v22H72z"/><ellipse fill="#1a0c00" cx="88" cy="93" rx="192" ry="12"/><ellipse fill="#9badff" rx="1" ry="1" transform="matrix(.603 -11.95076 4.53217 .22868 62.5 19.4)"/><path fill="#797eff" d="M139 14l-13 17-18-21z"/><path fill="#a1d5ef" d="M65 67V41h44v26z"/><ellipse cx="40" cy="38" rx="4" ry="29"/><ellipse fill="#00010d" cx="162" cy="81" rx="4" ry="115"/><ellipse rx="1" ry="1" transform="matrix(-3.7695 1.89545 -12.79526 -25.44607 108.4 28.3)"/><path fill="#91685a" d="M22 95h57v23H22z"/><ellipse fill="#ff356a" rx="1" ry="1" transform="matrix(4.69587 .00159 -.00829 24.47151 125.4 54.8)"/><ellipse fill="#ff036b" cx="168" cy="51" rx="4" ry="17"/></g></svg>