<svg xmlns="http://www.w3.org/2000/svg" viewBox="0 0 200 133"><filter id="b"><feGaussianBlur stdDeviation="12" /></filter><path fill="#70616a" d="M0 0h200v133H0z"/><g filter="url(#b)" transform="translate(.5 .5)" fill-opacity=".5"><ellipse fill="#6affff" rx="1" ry="1" transform="matrix(23.93788 3.39497 -11.38991 80.3101 18.8 33.6)"/><ellipse fill="#840000" cx="136" cy="113" rx="77" ry="30"/><ellipse fill="#fff" rx="1" ry="1" transform="matrix(-25.22708 -5.15515 1.89508 -9.2737 151.2 9.8)"/><ellipse fill="#fff" cx="165" cy="76" rx="43" ry="11"/><ellipse fill="#6c0000" rx="1" ry="1" transform="matrix(-19.7046 -1.72393 6.45933 -73.83048 108 40.7)"/><ellipse fill="#00377d" cx="28" cy="126" rx="48" ry="48"/><path fill="#fffffc" d="M211 117L167 4l48 11z"/><ellipse fill="#002e6f" cx="58" cy="16" rx="14" ry="50"/><ellipse fill="#860000" cx="151" cy="110" rx="68" ry="26"/><ellipse fill="#87ceff" rx="1" ry="1" transform="matrix(28.8563 .33566 -.78848 67.78403 12.9 29)"/><ellipse fill="#fff" cx="129" cy="46" rx="3" ry="39"/><ellipse cx="117" cy="25" rx="9" ry="62"/><path fill="#574c21" d="M137 25h54v40h-54z"/><path fill="#e10000" d="M96.4 123.4l-14.9-1.8 16.1-131 14.9 1.8z"/><ellipse fill="#000b2b" rx="1" ry="1" transform="rotate(91.9 -31.2 74.1) scale(66.69104 7.75948)"/><path fill="#fbffff" d="M102 126h21v7h-21z"/><path fill="#fff" d="M215 74l-97-11 41 23z"/><ellipse fill="#006dc5" rx="1" ry="1" transform="matrix(23.51434 -7.4572 9.85138 31.06381 7.2 101)"/><path fill="#babca2" d="M73 0h19v59H73z"/><path fill="#fcd9ab" d="M148.4 41l6-10.4L179.6 45l-6 10.3z"/><path fill="#b8bb9d" d="M51 67h13v50H51z"/><path fill="#fff" d="M129 18l2-20 74 14z"/></g></svg>