<svg xmlns="http://www.w3.org/2000/svg" viewBox="0 0 200 133"><filter id="b"><feGaussianBlur stdDeviation="12" /></filter><path fill="#35407c" d="M0 0h200v133H0z"/><g filter="url(#b)" transform="translate(.5 .5)" fill-opacity=".5"><ellipse fill="#fff" cx="112" cy="119" rx="18" ry="73"/><ellipse cx="22" cy="101" rx="75" ry="26"/><ellipse fill="#050300" cx="183" cy="96" rx="58" ry="29"/><ellipse fill="#3954e5" cx="73" cy="9" rx="37" ry="47"/><path fill="#fcddac" d="M146 35h15v36h-15z"/><path fill="#fff" d="M97 100h32v33H97z"/><ellipse fill="#0e2fc2" rx="1" ry="1" transform="rotate(-102.1 82.9 -52.6) scale(18.84205 72.82083)"/><path fill="#283056" d="M49 78h104v15H49z"/><ellipse fill="#a5ade7" cx="89" cy="9" rx="13" ry="13"/><ellipse fill="#abc2da" cx="72" cy="129" rx="70" ry="6"/><ellipse fill="#00067a" cx="15" cy="9" rx="31" ry="31"/><ellipse fill="#081378" rx="1" ry="1" transform="matrix(41.96364 .39478 -.1671 17.76254 35.8 72.4)"/><ellipse fill="#e4eae1" rx="1" ry="1" transform="matrix(.34769 10.70159 -16.30668 .5298 113 69.4)"/><ellipse fill="#766698" cx="80" cy="46" rx="102" ry="7"/><path fill="#383165" d="M129.3 46l2.2 8.8L94.7 64l-2.2-8.8z"/><ellipse fill="#050a10" cx="26" cy="108" rx="71" ry="17"/><ellipse fill="#101829" cx="154" cy="109" rx="24" ry="24"/><path fill="#b7c4d7" d="M158.8 57.4l13 27.8-24.4-23.3 11.6-6.6z"/><ellipse fill="#0f1b73" rx="1" ry="1" transform="matrix(21.10164 -14.30359 11.06722 16.32713 194.2 66.5)"/><ellipse fill="#11279e" cx="65" cy="28" rx="47" ry="12"/><path fill="#706e63" d="M141.4 62.4l.7 18 17.6 12.3-13.8-40.8z"/><ellipse fill="#1636ba" rx="1" ry="1" transform="rotate(121.5 81 61.2) scale(12.74499 90.71857)"/></g></svg>