<svg xmlns="http://www.w3.org/2000/svg" viewBox="0 0 200 133"><filter id="b"><feGaussianBlur stdDeviation="12" /></filter><path fill="#390c16" d="M0 0h200v133H0z"/><g filter="url(#b)" transform="translate(.5 .5)" fill-opacity=".5"><ellipse fill="#da3ba2" rx="1" ry="1" transform="rotate(-177 48.5 60) scale(73.79196 9.78759)"/><ellipse fill="#ae1921" rx="1" ry="1" transform="matrix(-93.67017 -1.50193 .28172 -17.56983 85 59.6)"/><ellipse rx="1" ry="1" transform="rotate(9.2 31.1 388) scale(70.81756 42.61612)"/><ellipse fill="#9b9cff" cx="37" cy="120" rx="71" ry="3"/><path fill="#ba0007" d="M109 111h65v22h-65z"/><ellipse rx="1" ry="1" transform="matrix(80.5469 -7.8977 1.86864 19.0579 183.5 89.9)"/><ellipse fill="#a88dff" rx="1" ry="1" transform="rotate(31.8 60.8 251.5) scale(5.48172 13.92077)"/><ellipse rx="1" ry="1" transform="matrix(31.4715 37.75052 -21.19621 17.67066 189.3 28.2)"/><ellipse fill="#725b76" cx="90" cy="59" rx="19" ry="19"/><path fill="#ff1321" d="M48.6 33.8l7 .6-4.2 47.8-7-.6z"/><ellipse fill="#000800" cx="18" cy="93" rx="67" ry="15"/><path fill="#f70000" d="M10 35h10v49H10z"/><path fill="#bd0000" d="M141 39h36v32h-36z"/><ellipse cx="120" cy="64" rx="5" ry="47"/><ellipse rx="1" ry="1" transform="matrix(-4.11604 145.13225 -20.10044 -.57006 199 66.4)"/><path fill="red" d="M-15.1 24.5L7.4 41 4.7 63.6-.9 82.8z"/><ellipse fill="#000200" cx="61" cy="48" rx="6" ry="38"/><ellipse cx="138" cy="29" rx="176" ry="12"/><path fill="red" d="M126 46h8v32h-8z"/><path fill="#001437" d="M-2.5 142.8L65.9 129-16 113.7l19 26z"/><path fill="#e03c2d" d="M64 11h26v5H64z"/><ellipse fill="red" cx="33" cy="55" rx="5" ry="18"/></g></svg>