<svg xmlns="http://www.w3.org/2000/svg" viewBox="0 0 200 133"><filter id="b"><feGaussianBlur stdDeviation="12" /></filter><path fill="#5d5c66" d="M0 0h200v133H0z"/><g filter="url(#b)" transform="translate(.5 .5)" fill-opacity=".5"><ellipse fill="#fff" cx="61" cy="54" rx="50" ry="50"/><ellipse fill="#001" rx="1" ry="1" transform="matrix(-32.43095 193.4904 -69.7797 -11.69579 185.8 83.2)"/><ellipse fill="#99c1ff" rx="1" ry="1" transform="matrix(31.65355 .99475 -.63719 20.27569 99 31.6)"/><ellipse fill="#411600" cx="55" cy="123" rx="171" ry="26"/><path fill="#fff" d="M12 31.2l1.1-22 31 1.6-1.2 22z"/><path fill="#20489a" d="M123.9 77.2l-43-1.5 1.2-35 43 1.6z"/><ellipse rx="1" ry="1" transform="matrix(21.00436 -10.0636 6.3272 13.20587 4.2 83)"/><ellipse fill="#f7efc8" rx="1" ry="1" transform="rotate(28.8 -107.7 125) scale(17.97911 46.67547)"/><path fill="#ada09a" d="M176 70l-36 20 8-51z"/><path fill="#00000c" d="M20.8 10.2L-16 2l201.7-18-14.2 30.1z"/><path d="M8 99L-16-15 13 8z"/><path fill="#fff" d="M120.2 27.3l-22.9 2.4-1.5-15 22.9-2.4z"/><path fill="#e8d8aa" d="M29.5 63.5l80.9 53.4-7.1-55.3-14.7 23.9z"/><path fill="#53a2ff" d="M191.2 85.7l-2.3-25.9 18-1.5 2.2 25.9z"/><ellipse fill="#bed7ff" cx="30" cy="42" rx="20" ry="32"/><ellipse fill="#a16f1d" cx="58" cy="102" rx="56" ry="7"/><path fill="#001" d="M29 67l-14 33-31-18z"/><ellipse fill="#05033e" cx="133" cy="25" rx="12" ry="99"/><path fill="#000007" d="M85 68h5v21h-5z"/><path fill="#e6e5d3" d="M13 99.5l83.4-7.2-22.9-19.4L84.5 5z"/><path fill="#ceb312" d="M50.1-9.9l15 .8-1.2 23-15-.8z"/><ellipse fill="#120f1a" rx="1" ry="1" transform="rotate(-85.4 153.4 -43.4) scale(26.653 74.37)"/></g></svg>