<svg xmlns="http://www.w3.org/2000/svg" viewBox="0 0 313 195"><filter id="b"><feGaussianBlur stdDeviation="12" /></filter><path fill="#3c4368" d="M0 0h313v194H0z"/><g filter="url(#b)" transform="translate(.6 .6) scale(1.22266)" fill-opacity=".5"><ellipse fill="#8eff98" rx="1" ry="1" transform="matrix(59.59652 -13.162 9.68283 43.84314 165.6 16)"/><ellipse fill="#000004" rx="1" ry="1" transform="matrix(15.7242 204.70688 -32.43206 2.49121 26.9 119.8)"/><ellipse fill="#fef" cx="120" cy="137" rx="55" ry="9"/><ellipse fill="#3a38eb" cx="231" cy="9" rx="29" ry="82"/><path fill="#e2b8db" d="M145.7 115.1l-32.7-4.6 5.3-37.6 32.7 4.6z"/><ellipse fill="#fff0ff" cx="220" cy="134" rx="11" ry="11"/><ellipse cx="150" cy="158" rx="253" ry="10"/><path fill="#fffcff" d="M77 114h26v11H77z"/><ellipse fill="#b5e47f" rx="1" ry="1" transform="matrix(32.19041 -11.84378 7.7265 21 159.7 23.2)"/><ellipse fill="#0e9e57" rx="1" ry="1" transform="matrix(10.78793 31.31464 -22.8214 7.862 99 32.8)"/><ellipse fill="#0e0059" rx="1" ry="1" transform="rotate(159.7 79.9 69.5) scale(22.83976 46.67568)"/><ellipse fill="#000032" rx="1" ry="1" transform="matrix(-10.03378 3.08357 -23.0619 -75.04222 65 37)"/><path fill="#be7eba" d="M56.8 52.6l17.5 9.7-15 27.1-17.6-9.7z"/><ellipse fill="#ae9ab4" rx="1" ry="1" transform="matrix(-1.5594 -63.80695 5.0774 -.12409 224 68.4)"/><ellipse fill="#0f0063" rx="1" ry="1" transform="rotate(179.2 123.3 50.2) scale(15.15694 51.90415)"/><path fill="#000023" d="M-41 54.3L3.5 18.4 79 111.7l-44.3 35.9z"/><path fill="#00b184" d="M231 43l-65 23-10-30z"/><path fill="#340b3a" d="M152.3 131l39.5-28.8-72.2 16.4L132 92.4z"/><ellipse fill="#090251" cx="32" cy="21" rx="46" ry="46"/><path fill="#d18dff" d="M124 145H62l3-19z"/><path fill="#ffe6ff" d="M122.6 144.7l-33.2-35.1 10.8 35.8 27.6-15.5z"/><ellipse fill="#008883" rx="1" ry="1" transform="matrix(14.7866 16.78716 -6.79998 5.98962 204.8 27.2)"/></g></svg>