<svg xmlns="http://www.w3.org/2000/svg" viewBox="0 0 700 467"><filter id="b"><feGaussianBlur stdDeviation="12" /></filter><path fill="#412845" d="M0 0h700v464H0z"/><g filter="url(#b)" transform="translate(1.4 1.4) scale(2.73438)" fill-opacity=".5"><path fill="#e5cbee" d="M59 52h106v45H59z"/><ellipse cx="239" cy="34" rx="40" ry="105"/><ellipse fill="#f42342" rx="1" ry="1" transform="rotate(-14.4 391.5 -752.2) scale(25.87663 28.48775)"/><ellipse fill="#b22f38" cx="45" cy="73" rx="34" ry="34"/><ellipse rx="1" ry="1" transform="matrix(45.69778 10.6342 -6.60238 28.37203 24.4 16.6)"/><path fill="#5c58a7" d="M132 185l72-42-185-9z"/><ellipse fill="#000fa4" cx="126" cy="17" rx="61" ry="17"/><ellipse fill="#c6fff6" rx="1" ry="1" transform="matrix(17.9211 -15.09096 10.93223 12.98244 102.6 70.8)"/><ellipse cx="73" cy="64" rx="6" ry="26"/><ellipse cy="131" rx="31" ry="31"/><path fill="#f91c52" d="M-9.2 46.2L27.6 50l-4.4 41.8-36.8-3.8z"/><path fill="#000007" d="M117.3 6.2l50.5 41-15 18.6-50.6-41z"/><path fill="#1a1003" d="M222.6 135.3l-74.4 20-10.8-40.6 74.4-20z"/><ellipse cx="220" cy="27" rx="47" ry="29"/><path fill="#ff7fa5" d="M36.4 46.8l11 .4-1.8 54-11-.4z"/><path fill="#f95683" d="M155 26h11v70h-11z"/><ellipse cx="207" cy="54" rx="5" ry="44"/><ellipse fill="#8fa9ff" rx="1" ry="1" transform="matrix(-.88174 13.19994 -7.14071 -.47699 79.7 23.2)"/><path fill="#fffedd" d="M88 132h11v21H88z"/><path fill="#000014" d="M145 41L133 2 64 54z"/><path fill="#ff0056" d="M222.8 47.1l-.6 30-13-.2.6-30z"/><path fill="#73a1ff" d="M118 51h26v38h-26z"/></g></svg>