<svg xmlns="http://www.w3.org/2000/svg" viewBox="0 0 200 133"><filter id="b"><feGaussianBlur stdDeviation="12" /></filter><path fill="#3b0229" d="M0 0h200v133H0z"/><g filter="url(#b)" transform="translate(.5 .5)" fill-opacity=".5"><ellipse fill="#e321ce" cx="105" cy="32" rx="30" ry="34"/><ellipse rx="1" ry="1" transform="matrix(-35.14126 50.57483 -45.95352 -31.9302 163.3 117)"/><ellipse rx="1" ry="1" transform="matrix(51.67269 -12.65048 10.48635 42.83298 36.4 101.7)"/><ellipse fill="#960069" rx="1" ry="1" transform="matrix(15.82174 -17.32702 13.9482 12.73646 20.2 42)"/><ellipse fill="#6b0059" rx="1" ry="1" transform="matrix(-64.36391 .97406 -.36328 -24.00452 101.8 0)"/><path fill="#ff62da" d="M79.5 42.5v-15h47v15z"/><ellipse fill="#8e006b" rx="1" ry="1" transform="matrix(-9.85845 9.43428 -19.95723 -20.8545 191.5 44.8)"/><ellipse fill="#e908ff" cx="95" cy="57" rx="48" ry="2"/><ellipse fill="#000100" cx="171" cy="132" rx="54" ry="54"/><ellipse fill="#0b000f" cx="114" cy="15" rx="57" ry="4"/><path fill="#850079" d="M47-16l38 77 2-71z"/><path fill="#d1f5d5" d="M89 28h27v6H89z"/><ellipse fill="#010100" rx="1" ry="1" transform="matrix(-34.83694 20.09465 -28.5695 -49.5293 0 102.4)"/><path fill="#110008" d="M75 63h60v14H75z"/><ellipse fill="#450006" rx="1" ry="1" transform="rotate(-149.6 62.4 48.3) scale(25.54532 31.0519)"/><ellipse fill="#710074" rx="1" ry="1" transform="matrix(-6.00724 -.97296 7.56745 -46.72287 135.8 12)"/><ellipse fill="#e3079f" rx="1" ry="1" transform="matrix(20.2338 -7.81732 2.33663 6.04797 116.5 37.6)"/><path fill="#7f003a" d="M103.6 107.8l-15.2-24 31-23.5-7-2.5z"/><ellipse fill="#a80085" cx="20" cy="48" rx="11" ry="11"/><path fill="#320016" d="M44 14h21v58H44z"/><ellipse fill="#24000e" cy="14" rx="25" ry="25"/><path fill="#d100b5" d="M122.6 1.7L65.9 4.3 122.7-16 157.8.4z"/></g></svg>