<svg xmlns="http://www.w3.org/2000/svg" viewBox="0 0 700 1050"><filter id="b"><feGaussianBlur stdDeviation="12" /></filter><path fill="#bcc0af" d="M0 0h697v1050H0z"/><g filter="url(#b)" transform="translate(2 2) scale(4.10156)" fill-opacity=".5"><path fill="#000500" d="M163 85L83 67l23 130z"/><ellipse fill="#fff" rx="1" ry="1" transform="matrix(44.8215 -36.42545 84.4636 103.93243 84.8 204.2)"/><ellipse fill="#303900" cx="122" cy="91" rx="17" ry="83"/><path fill="#677011" d="M84 123h82v51H84z"/><ellipse fill="#9bb247" cx="118" cy="17" rx="34" ry="34"/><ellipse fill="#faeec7" cx="169" cy="58" rx="20" ry="101"/><path fill="#000016" d="M31 232.7l-47-1.1h.8L25 216z"/><ellipse fill="#040b00" rx="1" ry="1" transform="matrix(-10.92848 25.1338 -16.69078 -7.25736 129 120.6)"/><ellipse fill="#fefaff" rx="1" ry="1" transform="matrix(36.3313 35.06443 -41.10375 42.58882 34.5 148.5)"/><ellipse fill="#51595a" cx="28" cy="25" rx="88" ry="6"/><ellipse fill="#fff" cx="143" cy="236" rx="30" ry="30"/><ellipse fill="#e7e8cf" rx="1" ry="1" transform="matrix(-2.32826 25.41201 -7.13929 -.6541 124 32.9)"/><ellipse fill="#7b865c" rx="1" ry="1" transform="rotate(113.7 -40.4 148.6) scale(7.13321 28.37915)"/><path fill="#382a37" d="M150 203l3-30 18 44z"/><ellipse fill="#ffffe5" rx="1" ry="1" transform="matrix(-17.46636 24.2177 -8.81273 -6.35594 90.2 66.8)"/><path fill="#fff" d="M116 172h34v58h-34z"/><path fill="#ffffe5" d="M93 133.1l11.4-.1 7.8 19-5.5 6.4z"/><path fill="#477300" d="M88 155h27v20H88z"/><path fill="#fff" d="M14 15l55-1L4-16z"/><path fill="#605c6b" d="M44.8 212.1l-2.4 19.4-27.7 12.6-2.7-8.3z"/><ellipse fill="#585e70" cx="39" cy="62" rx="46" ry="5"/><path fill="#fff" d="M154.4 114.3l-5.9-1.3 7.1-33.3 5.9 1.3z"/></g></svg>