<svg xmlns="http://www.w3.org/2000/svg" viewBox="0 0 700 467"><filter id="b"><feGaussianBlur stdDeviation="12" /></filter><path fill="#877983" d="M0 0h700v464H0z"/><g filter="url(#b)" transform="translate(1.4 1.4) scale(2.73438)" fill-opacity=".5"><ellipse fill="#270c04" cx="79" cy="152" rx="65" ry="76"/><ellipse fill="#fff" cx="216" cy="6" rx="60" ry="32"/><ellipse fill="#fff" rx="1" ry="1" transform="matrix(2.16829 51.91294 -19.50675 .81475 235.4 129.6)"/><ellipse fill="#fff" cx="26" cy="86" rx="24" ry="24"/><ellipse fill="#d7bdee" cx="112" cy="6" rx="110" ry="27"/><path fill="#fff" d="M123.6 64.7l24-.4.8 45-24 .4z"/><ellipse fill="#001193" cx="194" cy="140" rx="17" ry="56"/><ellipse fill="#9d0c00" rx="1" ry="1" transform="matrix(-20.15692 31.5836 -22.70925 -14.49324 18.5 142.6)"/><ellipse fill="#363623" cx="74" cy="80" rx="26" ry="46"/><ellipse rx="1" ry="1" transform="matrix(-7.97947 -30.56331 7.59765 -1.9836 179.8 85.9)"/><ellipse fill="#501fab" cx="148" cy="28" rx="24" ry="24"/><path fill="#e9e7e3" d="M209.8 87.1L206.3-16l-37 75 61-32z"/><path fill="#020000" d="M206 96l17-38 23-4z"/><path fill="#fafaf6" d="M223 177l29-121-44 52z"/><path fill="#0b0112" d="M154 86l-13-30 18-15z"/><ellipse fill="#eeeaf3" cx="109" cy="7" rx="20" ry="28"/><path fill="#98ddd7" d="M157 126l16-42 15 64z"/><path fill="#00080f" d="M136 111h22v16h-22z"/><ellipse fill="#132020" cx="66" cy="147" rx="14" ry="79"/><ellipse fill="#5b605c" cx="108" cy="139" rx="18" ry="103"/><path fill="#583624" d="M.9 115.4l-13.5-40 57.8-62.8-36 58.2z"/><path fill="#f2e9e1" d="M16 60h32v49H16z"/></g></svg>