<svg xmlns="http://www.w3.org/2000/svg" viewBox="0 0 200 133"><filter id="b"><feGaussianBlur stdDeviation="12" /></filter><path fill="#736a59" d="M0 0h200v133H0z"/><g filter="url(#b)" transform="translate(.5 .5)" fill-opacity=".5"><ellipse fill="#ffe8bb" rx="1" ry="1" transform="matrix(9.88826 -49.62252 125.087 24.92604 67 15.5)"/><ellipse rx="1" ry="1" transform="matrix(188.4821 -6.91132 1.28749 35.11172 83 106.6)"/><ellipse fill="#fff" cx="32" cy="27" rx="20" ry="21"/><ellipse fill="#000007" cx="32" cy="102" rx="130" ry="21"/><ellipse fill="#603601" rx="1" ry="1" transform="matrix(-4.08706 -13.56186 24.20294 -7.2939 3.1 9.7)"/><path fill="#d7d8bf" d="M168 46h27v25h-27z"/><path fill="#fff" d="M28-23.5h20v69H28z"/><ellipse fill="#7a4a0d" cx="105" cy="8" rx="13" ry="13"/><ellipse fill="#897f61" cx="158" cy="14" rx="28" ry="28"/><ellipse fill="#14100d" rx="1" ry="1" transform="rotate(40.3 -136.2 71.1) scale(31.24555 39.47844)"/><ellipse fill="#cbb8b5" cx="75" cy="67" rx="28" ry="9"/><ellipse fill="#fff7d2" rx="1" ry="1" transform="matrix(35.40134 -8.17304 1.37935 5.97463 84.8 35.2)"/><ellipse fill="#363750" rx="1" ry="1" transform="matrix(1.6271 16.6101 -24.89694 2.43886 64.6 86)"/><path fill="#826032" d="M102.7 35.8l19 12.6-51.8 8.8 59-25.8z"/><ellipse fill="#ad7b34" cx="66" cy="14" rx="16" ry="14"/><path fill="#ffeed1" d="M74 57h58v9H74z"/><ellipse fill="#a47d4d" cx="12" cy="55" rx="25" ry="13"/><path fill="#1c110b" d="M154 40l-5-13 21 7z"/><ellipse fill="#2b2a40" rx="1" ry="1" transform="matrix(3.73601 8.05266 -29.20203 13.5482 116.2 81)"/><path fill="#7b511c" d="M49 48h22v10H49z"/><ellipse fill="#100704" rx="1" ry="1" transform="matrix(-30.89072 18.05863 -5.30805 -9.07983 199 78.3)"/><ellipse cx="137" cy="118" rx="11" ry="13"/></g></svg>