<svg xmlns="http://www.w3.org/2000/svg" viewBox="0 0 700 467"><filter id="b"><feGaussianBlur stdDeviation="12" /></filter><path fill="#716a56" d="M0 0h700v464H0z"/><g filter="url(#b)" transform="translate(1.4 1.4) scale(2.73438)" fill-opacity=".5"><ellipse fill="#ffedbe" rx="1" ry="1" transform="rotate(92.9 42.3 79.6) scale(49.78529 125.61903)"/><ellipse rx="1" ry="1" transform="matrix(-1.97686 -62.90483 254.87415 -8.00974 102.4 153.6)"/><path fill="#fff" d="M69 59L1 51l56-67z"/><ellipse fill="#c6ccb2" rx="1" ry="1" transform="matrix(-7.70613 -16.299 24.03217 -11.36235 238.1 73.8)"/><ellipse fill="#000102" cx="25" cy="142" rx="54" ry="54"/><ellipse fill="#111719" rx="1" ry="1" transform="matrix(-15.41771 -36.8449 66.74838 -27.9308 151.2 130.6)"/><ellipse fill="#764607" cx="134" cy="9" rx="17" ry="18"/><ellipse fill="#8a8468" rx="1" ry="1" transform="rotate(-140.3 107.3 -25.8) scale(57.28731 27.13788)"/><ellipse fill="#fff" cx="46" cy="37" rx="22" ry="22"/><ellipse fill="#b48f4d" rx="1" ry="1" transform="matrix(15.14104 -17.29548 25.41208 22.2466 81 15.1)"/><ellipse fill="#fff3cc" rx="1" ry="1" transform="matrix(2.02113 7.59598 -45.47684 12.10045 114.7 44)"/><ellipse fill="#c3b7ad" rx="1" ry="1" transform="matrix(-89.25393 13.65675 -2.0989 -13.71735 146.9 77.4)"/><ellipse fill="#533206" cx="130" cy="57" rx="10" ry="10"/><path fill="#070000" d="M209.5 52l-16.7-6.7 3.7-9.3 16.7 6.7z"/><path fill="#764f19" d="M1 44L-16 2l60-12z"/><path fill="#a3895b" d="M31 57l-42-41 2 134z"/><path fill="#586e55" d="M190.2 134.6l36-1.2 1.6 44-36 1.2z"/><ellipse fill="#5c6f54" cx="126" cy="166" rx="40" ry="12"/><ellipse cx="255" cy="102" rx="17" ry="18"/><ellipse fill="#0b0a06" rx="1" ry="1" transform="rotate(-100.4 123 10.8) scale(15.88167 128.19858)"/><ellipse fill="#fff" cx="43" cy="23" rx="8" ry="40"/><path fill="#cab189" d="M-1.9 79.4l46.2 10 3-14-60-4.4z"/></g></svg>