<svg xmlns="http://www.w3.org/2000/svg" viewBox="0 0 700 467"><filter id="b"><feGaussianBlur stdDeviation="12" /></filter><path fill="#6e6067" d="M0 0h700v464H0z"/><g filter="url(#b)" transform="translate(1.4 1.4) scale(2.73438)" fill-opacity=".5"><ellipse fill="#6effff" cx="18" cy="27" rx="36" ry="109"/><ellipse fill="#970000" cx="173" cy="169" rx="73" ry="73"/><ellipse fill="#fff" cx="222" cy="97" rx="69" ry="14"/><ellipse fill="#fff" cx="201" cy="11" rx="39" ry="17"/><ellipse fill="#640000" rx="1" ry="1" transform="matrix(-22.64345 -3.08068 19.4946 -143.28828 136.7 67.3)"/><ellipse fill="#003075" rx="1" ry="1" transform="matrix(-19.49157 39.6121 -61.37196 -30.19875 39.4 154.5)"/><path fill="#fff" d="M242 11h14v103h-14z"/><ellipse fill="#700000" rx="1" ry="1" transform="matrix(62.33117 4.79905 -2.2262 28.91434 209.4 138.7)"/><ellipse fill="#a5e6ff" cx="21" cy="37" rx="35" ry="35"/><ellipse fill="#002e5a" rx="1" ry="1" transform="matrix(16.92253 3.62788 -25.90132 120.81888 68.8 57.6)"/><ellipse fill="#fff" rx="1" ry="1" transform="matrix(59.53567 16.5107 -2.49638 9.00166 225 20)"/><ellipse fill="#ec0000" cx="125" cy="64" rx="10" ry="72"/><ellipse cx="148" cy="44" rx="12" ry="73"/><ellipse fill="#0080d8" cx="19" cy="130" rx="23" ry="44"/><ellipse fill="#fff" cx="210" cy="101" rx="55" ry="9"/><path fill="#fbffff" d="M131 161h26v9h-26z"/><ellipse fill="#c3c4a2" cx="74" cy="115" rx="9" ry="36"/><ellipse fill="#fff" cx="165" cy="62" rx="4" ry="45"/><ellipse fill="#000906" rx="1" ry="1" transform="matrix(3.3024 -14.89619 57.30994 12.7053 84.5 169.1)"/><ellipse fill="#530700" rx="1" ry="1" transform="rotate(-81.3 118.6 -138) scale(10.71088 62.84011)"/><ellipse fill="#b9bb9f" rx="1" ry="1" transform="rotate(4 -212.8 1547) scale(12.19081 80.32259)"/><path fill="#ffff94" d="M203 51h23v14h-23z"/></g></svg>