<svg xmlns="http://www.w3.org/2000/svg" viewBox="0 0 200 133"><filter id="b"><feGaussianBlur stdDeviation="12" /></filter><path fill="#474d57" d="M0 0h200v133H0z"/><g filter="url(#b)" transform="translate(.5 .5)" fill-opacity=".5"><ellipse fill="#f4ffff" rx="1" ry="1" transform="matrix(-8.80615 -21.39787 38.57113 -15.8737 199 19.3)"/><ellipse fill="#9fc6d8" rx="1" ry="1" transform="matrix(-10.00266 -20.9966 36.95081 -17.60314 110.6 33.8)"/><ellipse fill="#140000" cx="129" cy="79" rx="103" ry="22"/><ellipse cx="61" cy="12" rx="28" ry="28"/><ellipse fill="#839eba" cx="69" cy="128" rx="69" ry="22"/><path fill="#000003" d="M-16 23L21-9 8 148z"/><path d="M100 0h9v79h-9z"/><ellipse cx="124" rx="6" ry="39"/><path fill="#fff2f7" d="M161 94h13v27h-13z"/><ellipse fill="#d2c8c2" cx="50" cy="60" rx="26" ry="7"/><path d="M159.2 90.8l-.4 27-32-.6.4-27z"/><path fill="#b5fbff" d="M143.4 3l2 36-14.6 15.6L129-16z"/><path fill="#ecfcff" d="M109 11h12v41h-12z"/><path fill="#9bc6dd" d="M78 15l-9 46 40-10z"/><path d="M31.7 119l11.6-43.8 7.4 53.4L29.3 118z"/><path fill="#f4854b" d="M22.4 46.1l-.8-50 12-.2.8 50z"/><path fill="#facfd4" d="M114 95h12v20h-12z"/><ellipse cx="148" cy="11" rx="6" ry="21"/><path fill="#00000e" d="M42 0h32v49H42z"/><path fill="#b3ced3" d="M23 99h12v29H23z"/><path fill="#e0f8ff" d="M91 6h8v51h-8z"/><ellipse fill="#72bafc" cx="23" cy="132" rx="66" ry="11"/></g></svg>