<svg xmlns="http://www.w3.org/2000/svg" viewBox="0 0 200 133"><filter id="b"><feGaussianBlur stdDeviation="12" /></filter><path fill="#37506b" d="M0 0h200v133H0z"/><g filter="url(#b)" transform="translate(.5 .5)" fill-opacity=".5"><ellipse fill="#c7cccf" cx="40" cy="73" rx="33" ry="33"/><ellipse fill="#c19170" rx="1" ry="1" transform="rotate(-90.2 95.6 -24.1) scale(27.46211 42.62841)"/><ellipse fill="#000004" rx="1" ry="1" transform="rotate(-94.1 116.2 7.4) scale(23.66985 137.31535)"/><ellipse fill="#00031f" cx="187" cy="69" rx="30" ry="30"/><ellipse fill="#004eaa" cx="97" rx="199" ry="30"/><path fill="#00000a" d="M139 71l-14 26-31-68z"/><path fill="#c6e3ff" d="M161 89l-5-49-26 53z"/><ellipse fill="#e0ab77" cx="101" cy="78" rx="13" ry="26"/><ellipse fill="#003a84" rx="1" ry="1" transform="rotate(-118.5 97.9 -42.5) scale(94.72829 21.06579)"/><path fill="#00001b" d="M48.5 119.5l-8.9-1.5 6-33.5 8.8 1.5z"/><path fill="#ff9c60" d="M35 21h12v23H35z"/><ellipse fill="#0c0100" rx="1" ry="1" transform="matrix(7.62595 -16.0956 45.8364 21.71686 109.6 123.1)"/><path fill="#c5956a" d="M119 55l-23 55-18-28z"/><path fill="#b7aeaa" d="M9 85.3l26.5-5.1 5.5 28.5-26.5 5.1z"/><ellipse fill="#0063b5" rx="1" ry="1" transform="rotate(100.5 -2.3 13.2) scale(62.07837 15.86297)"/><path fill="#98593b" d="M112.8 19.8L125 38.1 95.2 58 83 40z"/><path fill="#f2ffff" d="M60 60h10v32H60z"/><path fill="#ff985f" d="M150 26h10v25h-10z"/><path d="M145 49h4v84h-4z"/><path fill="#175896" d="M149 95h27v38h-27z"/><ellipse fill="#103975" rx="1" ry="1" transform="matrix(7.75695 1.27025 -2.28541 13.95617 44.6 52.3)"/><path fill="#fff" d="M138 58h9v24h-9z"/></g></svg>