<svg xmlns="http://www.w3.org/2000/svg" viewBox="0 0 641 195"><filter id="b"><feGaussianBlur stdDeviation="12" /></filter><path fill="#887e76" d="M0 0h641v192H0z"/><g filter="url(#b)" transform="translate(1.3 1.3) scale(2.5039)" fill-opacity=".5"><ellipse fill="#b6f9ff" cx="129" rx="50" ry="50"/><ellipse fill="#4a1e16" rx="1" ry="1" transform="rotate(-34.6 115.5 -8.3) scale(51.43547 26.19707)"/><ellipse fill="#996c22" rx="1" ry="1" transform="matrix(-21.89331 -53.91672 40.76153 -16.55154 224.4 68.3)"/><ellipse fill="#e3f7ff" rx="1" ry="1" transform="rotate(-74.8 91.7 -84.5) scale(13.37861 34.56935)"/><ellipse fill="#583b3e" rx="1" ry="1" transform="matrix(5.87878 -15.395 32.39802 12.3716 138.3 62.2)"/><path fill="#88baff" d="M80 0h44v43H80z"/><ellipse fill="#beab76" rx="1" ry="1" transform="matrix(11.7422 -22.64926 42.4214 21.9928 231.8 8)"/><ellipse fill="#eae6d9" cx="129" cy="30" rx="29" ry="15"/><ellipse fill="#2f1c2e" cx="165" cy="76" rx="44" ry="10"/><ellipse fill="#4178ef" cx="130" rx="53" ry="9"/><ellipse fill="#5d5240" cx="175" cy="49" rx="237" ry="6"/><path fill="#b9716a" d="M153 57H55l-8 35z"/><path fill="#351218" d="M70 70h38v7H70z"/><ellipse fill="#453545" rx="1" ry="1" transform="matrix(5.48138 -22.6573 8.20969 1.98613 71.4 22.8)"/><ellipse fill="#70a9f6" cx="173" cy="7" rx="9" ry="35"/><path fill="#402a1c" d="M8.6 26.9l13 37.8-30.2 10.4-13-37.8z"/><path fill="#bb88a3" d="M191.7 59l-5 18.4-16.4-4.4 5-18.4z"/><ellipse fill="#cfcab3" cx="191" cy="51" rx="4" ry="9"/><path fill="#928575" d="M-16 65l71-41 6-40z"/><path fill="#ebb8b6" d="M111.5 88.9l-5.6-24.4 14.6-3.4 5.6 24.4z"/><ellipse fill="#c5aaa3" cx="73" cy="44" rx="3" ry="32"/><ellipse fill="#558df0" cx="94" cy="10" rx="16" ry="14"/></g></svg>