<svg xmlns="http://www.w3.org/2000/svg" viewBox="0 0 700 467"><filter id="b"><feGaussianBlur stdDeviation="12" /></filter><path fill="#4a454d" d="M0 0h700v464H0z"/><g filter="url(#b)" transform="translate(1.4 1.4) scale(2.73438)" fill-opacity=".5"><ellipse fill="#7fb2d3" rx="1" ry="1" transform="matrix(98.4465 22.25204 -9.03306 39.96365 127.3 64.8)"/><ellipse fill="#1d0000" rx="1" ry="1" transform="rotate(-4.1 2299.7 -1785.5) scale(255 29.08329)"/><ellipse fill="#0083c5" rx="1" ry="1" transform="matrix(-44.73085 .15614 -.07791 -22.3209 70 34.7)"/><ellipse fill="#1f0000" rx="1" ry="1" transform="matrix(31.8027 .95115 -4.48958 150.11435 0 65.3)"/><ellipse fill="#9a5b5b" cx="146" cy="98" rx="83" ry="33"/><ellipse rx="1" ry="1" transform="matrix(80.09245 40.70957 -10.89188 21.4288 238.5 17.2)"/><ellipse fill="#d5cabc" cx="131" cy="49" rx="28" ry="16"/><path fill="#008fd8" d="M112 18l98 19-8 25z"/><ellipse fill="#190f12" cx="93" rx="77" ry="17"/><path fill="#007bc5" d="M32 11h24v69H32z"/><ellipse fill="#866067" rx="1" ry="1" transform="rotate(84.9 -15 146.9) scale(7.18285 55.91324)"/><ellipse fill="#180400" rx="1" ry="1" transform="matrix(-47.23267 71.09088 -24.37742 -16.19632 252 132.3)"/><path fill="#e1b89d" d="M58 117h73v5H58z"/><ellipse fill="#a85937" cx="15" cy="128" rx="63" ry="8"/><path fill="#6c3f32" d="M263.6 90l-58-1 .8-41 58 1z"/><path d="M265.7 185l5.3-19.5L103.7 151l-10.2 30.2z"/><ellipse fill="#320000" cx="39" cy="161" rx="46" ry="28"/><path fill="#9fb8c5" d="M62 49h27v33H62z"/><path fill="#94b4cf" d="M172 58h27v25h-27z"/><path fill="#e4b1b1" d="M155 115l18-42-27 21z"/><ellipse fill="#3d363b" rx="1" ry="1" transform="matrix(4.17106 13.81521 -31.10763 9.39195 78.5 102.9)"/><path fill="#371917" d="M142.9 110.4l-7.9 25.8 127.9 6.3-112.6-29z"/></g></svg>