<svg xmlns="http://www.w3.org/2000/svg" viewBox="0 0 700 467"><filter id="b"><feGaussianBlur stdDeviation="12" /></filter><path fill="#737977" d="M0 0h700v464H0z"/><g filter="url(#b)" transform="translate(1.4 1.4) scale(2.73438)" fill-opacity=".5"><ellipse rx="1" ry="1" transform="rotate(-105.3 109 15.8) scale(59.1862 37.82065)"/><ellipse fill="#e5dcd7" cx="49" cy="24" rx="65" ry="65"/><ellipse cx="54" cy="61" rx="18" ry="36"/><ellipse fill="#ecefef" cx="36" cy="123" rx="53" ry="28"/><ellipse fill="#151714" cx="217" cy="139" rx="143" ry="23"/><ellipse fill="#e9eae7" cx="23" cy="77" rx="16" ry="82"/><ellipse fill="#fefbf8" cx="86" cy="13" rx="22" ry="64"/><ellipse rx="1" ry="1" transform="matrix(19.15317 33.17426 -22.12826 12.77576 112.4 115.3)"/><ellipse fill="#171e1e" cx="242" cy="55" rx="10" ry="77"/><ellipse fill="#dfe5df" rx="1" ry="1" transform="matrix(9.61193 -.38606 3.25448 81.02955 203 35.5)"/><ellipse fill="#000005" rx="1" ry="1" transform="matrix(102.31414 -9.66513 .78801 8.34182 9.7 169)"/><ellipse fill="#dccddf" cx="158" cy="169" rx="55" ry="7"/><ellipse fill="#99b7b3" rx="1" ry="1" transform="matrix(3.7514 -54.0288 22.13366 1.53681 144.7 28.3)"/><ellipse fill="#2f3a3f" cx="2" cy="143" rx="7" ry="151"/><path fill="#001f30" d="M39 132h13v38H39z"/><ellipse fill="#2f3432" cx="182" cy="28" rx="10" ry="94"/><path fill="#fffff6" d="M110.6 29.2l4.5 43-3.6 9-8.1-35z"/><path fill="#fff" d="M74 71h10v46H74z"/><path fill="#ecebea" d="M32 0h35v26H32z"/><ellipse fill="#291c12" cx="66" cy="68" rx="7" ry="32"/><path fill="#ebe5e0" d="M31.2 126.9l32.6 8.3 14.8-32.3-42-2.6z"/><path fill="#b7c9d2" d="M85 123h7v26h-7z"/></g></svg>