<svg xmlns="http://www.w3.org/2000/svg" viewBox="0 0 200 133"><filter id="b"><feGaussianBlur stdDeviation="12" /></filter><path fill="#25253c" d="M0 0h200v133H0z"/><g filter="url(#b)" transform="translate(.5 .5)" fill-opacity=".5"><ellipse fill="#6e74b2" cx="122" cy="66" rx="47" ry="47"/><ellipse fill="#000003" cx="48" cy="19" rx="52" ry="52"/><ellipse fill="#8f7f9b" rx="1" ry="1" transform="rotate(95 3.3 85.5) scale(19.71747 49.5408)"/><ellipse cx="91" cy="130" rx="199" ry="20"/><ellipse fill="#333391" cx="42" cy="76" rx="29" ry="29"/><ellipse rx="1" ry="1" transform="matrix(.0553 19.04933 -117.50262 .34107 114.4 0)"/><path fill="#5b7db3" d="M74 19h96v19H74z"/><ellipse cx="107" cy="53" rx="30" ry="10"/><path fill="#acb6a6" d="M138 93h47v12h-47z"/><path fill="#000014" d="M139.5 88.4l50.7-78 14.3 9.2-50.7 78z"/><path fill="#1432e2" d="M134 51h32v28h-32z"/><ellipse fill="#2d55ff" rx="1" ry="1" transform="matrix(-6.60613 2.58891 -4.53163 -11.56336 183.8 61.3)"/><path d="M41-16l-51 164-6-154z"/><path fill="#cdfae1" d="M79.4 106.4l-18.7-3 1.9-11.8 18.7 3z"/><path fill="#5579ff" d="M17 56h9v51h-9z"/><ellipse cx="33" cy="68" rx="6" ry="26"/><path fill="#93c1ff" d="M91 63h28v8H91z"/><ellipse fill="#f10000" cx="186" cy="81" rx="7" ry="9"/><ellipse rx="1" ry="1" transform="rotate(174.4 97.4 27) scale(8.00376 56.84945)"/><ellipse cx="128" cy="132" rx="199" ry="22"/><ellipse fill="#1f110f" rx="1" ry="1" transform="rotate(66.6 -33.8 118.6) scale(5.02547 28.29609)"/><path fill="#814a24" d="M51 106l23-25-61 10z"/></g></svg>