<svg xmlns="http://www.w3.org/2000/svg" viewBox="0 0 700 427"><filter id="b"><feGaussianBlur stdDeviation="12" /></filter><path fill="#5a3c59" d="M0 0h700v426H0z"/><g filter="url(#b)" transform="translate(1.4 1.4) scale(2.73438)" fill-opacity=".5"><ellipse fill="#e7fff0" cx="127" cy="88" rx="84" ry="43"/><ellipse cx="255" cy="38" rx="79" ry="79"/><ellipse rx="1" ry="1" transform="matrix(-26.74455 -7.28452 40.33932 -148.10273 14.7 56.3)"/><ellipse fill="#4bedff" rx="1" ry="1" transform="matrix(38.03885 -4.9668 2.7687 21.20453 84.4 66)"/><ellipse fill="#daef85" cx="187" cy="72" rx="21" ry="21"/><ellipse fill="#600" cx="188" cy="145" rx="255" ry="16"/><ellipse fill="#7207c4" rx="1" ry="1" transform="matrix(-46.17153 -1.1129 .48488 -20.11664 118.3 32.1)"/><ellipse fill="#fffffa" rx="1" ry="1" transform="matrix(.11596 6.6882 -54.19451 .93959 121.7 59)"/><ellipse fill="#bc7d98" cx="183" cy="100" rx="31" ry="31"/><ellipse fill="#000002" rx="1" ry="1" transform="matrix(23.1163 100.12766 -34.7262 8.01718 243.7 77.6)"/><path fill="#00aad6" d="M93.4 71.1l-3.5 19.7-45.3-8 3.5-19.6z"/><ellipse fill="#23004f" cx="156" cy="13" rx="39" ry="39"/><path fill="#ff96fc" d="M41 90l-23 41h18z"/><path fill="#000014" d="M-15 134l70-50L3-16z"/><ellipse fill="#00001a" cx="99" rx="255" ry="13"/><ellipse fill="#daaa73" rx="1" ry="1" transform="matrix(9.4037 23.06478 -15.5071 6.32237 74.8 109.1)"/><ellipse fill="#d75efb" cx="114" cy="25" rx="7" ry="19"/><ellipse fill="#610002" cx="239" cy="155" rx="255" ry="27"/><path fill="#eef1e6" d="M53 51h112v14H53z"/><path fill="#b8639e" d="M91 84h72v47H91z"/><path fill="#e331ff" d="M141 14h14v17h-14z"/><ellipse fill="#ab25ce" rx="1" ry="1" transform="matrix(.20858 4.8028 -36.18083 1.5713 2.7 127.7)"/></g></svg>