<svg xmlns="http://www.w3.org/2000/svg" viewBox="0 0 700 467"><filter id="b"><feGaussianBlur stdDeviation="12" /></filter><path fill="#655a4a" d="M0 0h700v464H0z"/><g filter="url(#b)" transform="translate(1.4 1.4) scale(2.73438)" fill-opacity=".5"><ellipse fill="#ffe565" rx="1" ry="1" transform="matrix(-3.59945 88.17476 -14.18498 -.57906 13.8 95.7)"/><ellipse fill="#e3f4cd" cx="154" cy="80" rx="67" ry="13"/><ellipse cx="70" cy="15" rx="43" ry="43"/><ellipse cx="222" rx="42" ry="42"/><path fill="#0b0000" d="M27.9 99.8l47-2.5 3.2 63-47 2.4z"/><ellipse fill="#dfb983" cx="209" cy="118" rx="12" ry="78"/><ellipse fill="#ffc9d0" cx="70" cy="167" rx="174" ry="6"/><path fill="#ffffe4" d="M282.5 63l-42.1 35.3L227.5 83l42.1-35.3z"/><ellipse fill="#bdbdce" cx="166" cy="88" rx="13" ry="38"/><path fill="#0e2328" d="M97 95h56v61H97z"/><path fill="#fc9" d="M73.8 104.2l20-1.4 2.4 35-20 1.4z"/><path fill="#799fe5" d="M-16 97L26-16v60z"/><path fill="#0c2118" d="M250 185l21-80-58-15z"/><ellipse fill="#336f92" cx="109" cy="64" rx="43" ry="12"/><ellipse fill="#ff783c" cx="48" cy="72" rx="9" ry="27"/><ellipse fill="#050d18" cx="114" rx="85" ry="15"/><path fill="#0a0512" d="M177 89h15v70h-15z"/><ellipse fill="#ffbb8e" cx="76" cy="53" rx="7" ry="12"/><ellipse fill="#d2b300" cx="2" cy="118" rx="29" ry="29"/><ellipse fill="#091525" rx="1" ry="1" transform="matrix(10.77201 2.48691 -7.0455 30.51745 222.1 42.6)"/><ellipse rx="1" ry="1" transform="rotate(125.1 22.5 25.6) scale(23.28656 30.5363)"/><ellipse fill="#ffb9ae" cx="104" cy="56" rx="6" ry="19"/></g></svg>