<svg xmlns="http://www.w3.org/2000/svg" viewBox="0 0 700 467"><filter id="b"><feGaussianBlur stdDeviation="12" /></filter><path fill="#91938a" d="M0 0h700v464H0z"/><g filter="url(#b)" transform="translate(1.4 1.4) scale(2.73438)" fill-opacity=".5"><ellipse cx="97" cy="157" rx="37" ry="37"/><ellipse rx="1" ry="1" transform="matrix(.05838 -37.49345 14.50073 .02258 23.5 137.8)"/><ellipse fill="#fefff4" rx="1" ry="1" transform="matrix(0 -17.46334 246.58611 0 111.6 9)"/><ellipse fill="#ecffff" cx="49" cy="93" rx="18" ry="47"/><ellipse fill="#fff" rx="1" ry="1" transform="matrix(32.85211 10.26656 -5.54149 17.73228 18.2 29.8)"/><ellipse fill="#794e00" rx="1" ry="1" transform="matrix(22.63656 -24.2074 19.86725 18.57805 147.4 154.8)"/><path fill="#111512" d="M103.3 26.6l-3.7 34.8-52-25.1 29-17.5z"/><ellipse fill="#fcfdde" cx="193" cy="27" rx="36" ry="29"/><ellipse rx="1" ry="1" transform="matrix(6.34215 -.34749 3.36164 61.3551 151 7.8)"/><path fill="#262124" d="M236 92l35-86-74 91z"/><path fill="#dce8ff" d="M82 75h35v34H82z"/><path fill="#f6e392" d="M177.3 109.9l22.8-2.4 6.6 62.6-22.8 2.4z"/><ellipse rx="1" ry="1" transform="matrix(4.76587 -.36671 2.4393 31.70142 31.3 126.4)"/><ellipse fill="#ceedff" rx="1" ry="1" transform="rotate(178.2 34.2 56.2) scale(7.2662 22.94964)"/><path fill="#010314" d="M64 135h59v35H64z"/><path fill="#f5f5cf" d="M85.2 119.3L74.4 113 93 163.8l-1.4-26.5z"/><path d="M251 136.7l-7.3 5.4-12.6-16.8 7.2-5.4z"/><ellipse fill="#cdddf5" rx="1" ry="1" transform="rotate(-80.1 60 27.4) scale(14.89984 52.20434)"/><ellipse fill="#fdffff" rx="1" ry="1" transform="matrix(-2.59387 18.91959 -27.41887 -3.75912 24.4 29)"/><ellipse cx="19" cy="113" rx="14" ry="13"/><ellipse cx="255" cy="31" rx="30" ry="5"/><ellipse rx="1" ry="1" transform="matrix(-7.44619 48.92815 -6.61614 -1.00689 12.5 161)"/></g></svg>