<svg xmlns="http://www.w3.org/2000/svg" viewBox="0 0 313 195"><filter id="b"><feGaussianBlur stdDeviation="12" /></filter><path fill="#3c4368" d="M0 0h313v194H0z"/><g filter="url(#b)" transform="translate(.6 .6) scale(1.22266)" fill-opacity=".5"><ellipse fill="#99ff8e" rx="1" ry="1" transform="rotate(-2.5 497.6 -3560) scale(52.56357 44.265)"/><ellipse fill="#000006" cx="25" cy="91" rx="31" ry="255"/><ellipse fill="#ffefff" cx="123" cy="138" rx="51" ry="9"/><ellipse fill="#4049ed" cx="230" cy="25" rx="30" ry="62"/><ellipse fill="#d3abd3" rx="1" ry="1" transform="matrix(-16.37651 -6.6385 8.38466 -20.6841 132.7 91.2)"/><path fill="#ffebff" d="M229.8 124.9l-.6 19-21-.8.6-19z"/><ellipse fill="#ffd2ff" rx="1" ry="1" transform="matrix(-19.95503 -9.66004 2.70486 -5.58752 96.6 123.9)"/><ellipse cx="150" cy="158" rx="254" ry="10"/><ellipse fill="#23036e" cx="184" cy="101" rx="39" ry="39"/><ellipse fill="#099e57" cx="97" cy="30" rx="22" ry="33"/><ellipse fill="#b6e583" rx="1" ry="1" transform="rotate(-25.3 125.3 -346) scale(31.17154 22.63248)"/><path fill="#e4b4ff" d="M69.8 146.7l-11.7-16.5 22.9 3.6 112.9-3.6z"/><ellipse fill="#11002f" rx="1" ry="1" transform="matrix(-10.9347 -12.10787 33.18184 -29.96677 81 93.6)"/><ellipse fill="#030052" rx="1" ry="1" transform="rotate(38.3 -15.7 75) scale(34.22329 37.84099)"/><path fill="#b97fbc" d="M58 93l14-36-31 12z"/><ellipse fill="#0e0062" rx="1" ry="1" transform="matrix(-2.22471 47.17495 -18.65133 -.87957 249.8 101)"/><ellipse fill="#aa9ab2" rx="1" ry="1" transform="matrix(1.903 59.25798 -5.43363 .1745 223.4 69)"/><ellipse fill="#002" cx="17" cy="105" rx="29" ry="80"/><ellipse fill="#06ae87" rx="1" ry="1" transform="matrix(-19.17259 29.5232 -11.25391 -7.30838 197.5 35.2)"/><ellipse fill="#000005" cx="188" cy="158" rx="27" ry="27"/><path fill="#e5bac7" d="M121 127l-9-24 20-43z"/><path fill="#ebdd83" d="M184.2 21.5l-34 4.7L183.5 38l29 7.4z"/></g></svg>