<svg xmlns="http://www.w3.org/2000/svg" viewBox="0 0 700 467"><filter id="b"><feGaussianBlur stdDeviation="12" /></filter><path fill="#872314" d="M0 0h700v464H0z"/><g filter="url(#b)" transform="translate(1.4 1.4) scale(2.73438)" fill-opacity=".5"><ellipse fill="#ff2d1c" rx="1" ry="1" transform="matrix(56.39208 -19.19743 14.57704 42.81977 115.9 41.6)"/><ellipse fill="#000014" rx="1" ry="1" transform="matrix(59.03866 -20.32864 10.37411 30.1286 238.6 100.5)"/><ellipse fill="#1b0b00" rx="1" ry="1" transform="matrix(-4.81742 122.3711 -36.50568 -1.43713 21.1 22)"/><path fill="#ff0" d="M63 89.4l-7 5.7-41-50.5 7-5.7z"/><ellipse fill="#ff5854" rx="1" ry="1" transform="rotate(-1.6 5595.9 -7340.8) scale(61.28426 11.61447)"/><ellipse fill="#140000" rx="1" ry="1" transform="rotate(-109.1 121.9 -68.5) scale(118.23195 35.59804)"/><ellipse fill="#ff8f00" rx="1" ry="1" transform="matrix(11.08702 -37.19066 14.05264 4.18927 178 75)"/><ellipse fill="#f3554a" cx="112" cy="150" rx="152" ry="17"/><path fill="#06000e" d="M110 130l-126 15 150-60z"/><ellipse fill="#ff5228" rx="1" ry="1" transform="rotate(31.9 -44.4 227) scale(51.01448 20.94416)"/><path fill="#9c6cac" d="M222.4 129.8l7.7 25.4 6-73-9.4-10z"/><path fill="#3d0000" d="M162 76.5L115-5l13-7.5L175 69z"/><ellipse fill="#060000" cx="20" cy="8" rx="52" ry="24"/><path d="M48 146l-12 18 24-4z"/><path fill="#ffd614" d="M14 147h20v21H14z"/><ellipse rx="1" ry="1" transform="matrix(17.54555 -12.2282 13.86927 19.90022 201.8 109.3)"/><ellipse cx="195" cy="161" rx="5" ry="8"/><path fill="#000003" d="M132 154h23v9h-23z"/><path fill="#ffdb0e" d="M65.6 165.7L79 149.6l-34.7-7.4-4-3.8z"/><ellipse fill="#ff3123" rx="1" ry="1" transform="matrix(-25.72335 -10.1846 16.55398 -41.81058 98 43.9)"/><ellipse fill="#ff2846" rx="1" ry="1" transform="matrix(-4.9717 25.37279 -3.89025 -.76228 140.4 123.6)"/><path fill="#211718" d="M0 98h65v37H0z"/></g></svg>