<svg xmlns="http://www.w3.org/2000/svg" viewBox="0 0 200 133"><filter id="b"><feGaussianBlur stdDeviation="12" /></filter><path fill="#aea8a3" d="M0 0h200v133H0z"/><g filter="url(#b)" transform="translate(.5 .5)" fill-opacity=".5"><ellipse fill="#35130b" rx="1" ry="1" transform="rotate(178.6 42 41.1) scale(63.54881 29.49975)"/><ellipse fill="#fff" cx="175" cy="112" rx="56" ry="28"/><ellipse fill="#050000" cx="24" cy="104" rx="21" ry="20"/><ellipse fill="#fff" rx="1" ry="1" transform="matrix(-61.55 39.29844 -15.35214 -24.04483 30.4 27)"/><ellipse fill="#001a00" rx="1" ry="1" transform="matrix(-10.7165 21.7788 -17.77855 -8.74813 137.4 0)"/><ellipse fill="#f8ffff" rx="1" ry="1" transform="matrix(-.57546 -29.20836 75.65004 -1.49044 181.7 43.1)"/><ellipse fill="#241e27" rx="1" ry="1" transform="matrix(-10.37326 -12.18805 20.87162 -17.76385 85.5 37.7)"/><path fill="#fff" d="M46.9 97.8l43 16.4-10.8 28-43-16.4z"/><path d="M119.4-7.1l101-1.8.2 16-101 1.8z"/><path fill="#fff" d="M39 113h161v20H39z"/><ellipse fill="#1f0a06" cx="150" cy="78" rx="20" ry="9"/><path fill="#563b32" d="M91 50h30v65H91z"/><ellipse fill="#f1f6f6" rx="1" ry="1" transform="rotate(158 77.1 69.8) scale(74.51027 24.45061)"/><path fill="#ebfeff" d="M107 32.2l.7 23.7 15.7-32L108.3-16z"/><ellipse fill="#e6bec0" cx="66" cy="59" rx="23" ry="6"/><ellipse fill="#efead5" cy="24" rx="54" ry="54"/><ellipse fill="#523423" cx="40" cy="86" rx="31" ry="14"/><path fill="#fff" d="M-3.2 136.8L-16 102.6 25.7 127l44 8.7z"/><path fill="#493430" d="M87 13h19v50H87z"/><path d="M221.5-7V7h-65V-7z"/><path fill="#482a19" d="M-4.4 109.7L8 85.7l36.5 18.6-12.3 24z"/><path fill="#e0e8f0" d="M77 91l-28 10-24 45z"/></g></svg>