<svg xmlns="http://www.w3.org/2000/svg" viewBox="0 0 700 467"><filter id="b"><feGaussianBlur stdDeviation="12" /></filter><path fill="#717773" d="M0 0h700v464H0z"/><g filter="url(#b)" transform="translate(1.4 1.4) scale(2.73438)" fill-opacity=".5"><ellipse fill="#000008" cx="119" cy="73" rx="44" ry="44"/><ellipse fill="#d0d3d0" rx="1" ry="1" transform="matrix(.18152 -13.3276 232.80852 3.1709 120.1 160.7)"/><ellipse fill="#030709" rx="1" ry="1" transform="matrix(12.99892 -5.47484 16.2172 38.5045 106 121)"/><ellipse fill="#b9f3ff" cx="41" cy="3" rx="42" ry="13"/><ellipse fill="#333a2e" cx="14" cy="54" rx="37" ry="37"/><ellipse fill="#a9b1ab" rx="1" ry="1" transform="rotate(176.8 31.7 52.6) scale(22.43158 35.99964)"/><ellipse fill="#cbe1e3" rx="1" ry="1" transform="matrix(-7.09361 1.72924 -4.89296 -20.07172 131.9 108.8)"/><ellipse fill="#a6a996" rx="1" ry="1" transform="matrix(-60.08363 -159.8708 18.44877 -6.93353 245.5 133.2)"/><ellipse fill="#080e1a" rx="1" ry="1" transform="matrix(-5.34115 .9927 -8.12039 -43.69113 147 119.5)"/><ellipse fill="#413e33" rx="1" ry="1" transform="rotate(40.8 63.1 348.1) scale(40.33848 14.08358)"/><path d="M89 108h8v53h-8z"/><ellipse fill="#000008" rx="1" ry="1" transform="matrix(-17.81249 -.99313 1.77583 -31.85063 109.3 70)"/><path fill="#ccbba1" d="M197.5 56.9l-31.3 70.3-13.7-6 31.3-70.4z"/><path fill="#9fbbbf" d="M121 31l16-1-6 41z"/><path fill="#191b1c" d="M193 60h9v57h-9z"/><path fill="#c8cfc5" d="M19 110h70v13H19z"/><ellipse fill="#8d9799" rx="1" ry="1" transform="rotate(-29 72.6 -176.4) scale(106.19477 13.29059)"/><path fill="#dfe3d7" d="M194 118l-34 11 65-2z"/><ellipse fill="#b6bcbb" rx="1" ry="1" transform="matrix(4.47986 -28.01591 43.82358 7.00756 210.5 169)"/><path fill="#1d1300" d="M265.2 125.4l-.5 9-34-1.8.6-9z"/><ellipse fill="#363427" cx="154" cy="136" rx="63" ry="7"/><ellipse fill="#bdc0b6" rx="1" ry="1" transform="matrix(-.504 19.2593 -50.69243 -1.32658 39 159.9)"/></g></svg>