<svg xmlns="http://www.w3.org/2000/svg" viewBox="0 0 200 133"><filter id="b"><feGaussianBlur stdDeviation="12" /></filter><path fill="#5f4846" d="M0 0h200v133H0z"/><g filter="url(#b)" transform="translate(.5 .5)" fill-opacity=".5"><ellipse fill="#e4ddfd" rx="1" ry="1" transform="matrix(-2.65066 -17.12223 25.50196 -3.94791 89.2 116.4)"/><ellipse fill="#cda482" rx="1" ry="1" transform="rotate(-137.3 106.3 1.4) scale(29.92544 17.34092)"/><path fill="#fdbfe5" d="M159 104l7 26-41-14z"/><ellipse fill="#ffe9d1" cx="84" cy="39" rx="11" ry="11"/><path fill="#000013" d="M29 97h30v36H29z"/><ellipse fill="#150600" cx="23" cy="72" rx="12" ry="37"/><ellipse fill="#000116" cx="119" cy="83" rx="12" ry="32"/><ellipse fill="#312513" rx="1" ry="1" transform="matrix(14.18842 -24.08715 36.39746 21.43975 168.6 26)"/><path fill="#170000" d="M48 14h20v56H48z"/><ellipse fill="#000003" rx="1" ry="1" transform="matrix(34.95962 22.18605 -7.3654 11.606 199.2 132.3)"/><ellipse fill="#bc9ba4" rx="1" ry="1" transform="matrix(-11.95233 8.55703 -13.8002 -19.27591 0 101.6)"/><path fill="#1278fe" d="M113.5 48h27v12h-27z"/><path d="M2.6 18.8L-7.4 4l24.8-16.7L27.4 2z"/><path fill="#fff" d="M20 8h9v10h-9z"/><path fill="#ede7ee" d="M69 100h41v15H69z"/><path fill="#1e0000" d="M84 16h56v14H84z"/><path fill="#fdfff4" d="M215 91l-12 18-20-26z"/><path fill="#f6aa51" d="M142.7 28.9l.5 8-31.9 2.2-.5-8z"/><ellipse fill="#794c6b" cx="113" cy="132" rx="54" ry="15"/><path fill="#e19351" d="M49.3 86.1l-17-.2.4-18 17 .2z"/><ellipse fill="#945c0e" rx="1" ry="1" transform="matrix(-7.519 8.9017 -21.67867 -18.3113 171.8 92.1)"/><path fill="#003190" d="M142.3 109.1l-9-27.6 14.4-4.6 9 27.6z"/></g></svg>