<svg xmlns="http://www.w3.org/2000/svg" viewBox="0 0 700 467"><filter id="b"><feGaussianBlur stdDeviation="12" /></filter><path fill="#8b8885" d="M0 0h700v464H0z"/><g filter="url(#b)" transform="translate(1.4 1.4) scale(2.73438)" fill-opacity=".5"><ellipse rx="1" ry="1" transform="rotate(106.2 45.3 106.9) scale(54.71024 80.18112)"/><ellipse fill="#fff" cx="124" rx="255" ry="34"/><ellipse fill="#2d1307" rx="1" ry="1" transform="matrix(67.16868 -6.91319 3.79044 36.828 63 115.3)"/><ellipse fill="#fff" cx="153" cy="160" rx="233" ry="12"/><ellipse fill="#fff" cx="246" cy="62" rx="10" ry="255"/><ellipse fill="#fff" rx="1" ry="1" transform="rotate(-31.9 16.3 -57.2) scale(86.04432 27.92024)"/><ellipse fill="#08131c" rx="1" ry="1" transform="matrix(29.65595 3.90875 -1.90255 14.4348 209 47)"/><ellipse fill="#fff" cx="160" cy="15" rx="255" ry="18"/><path fill="#fffffa" d="M0 66h44v21H0z"/><ellipse fill="#00080c" rx="1" ry="1" transform="matrix(27.8245 8.41833 -12.49492 41.29853 142.3 101.4)"/><ellipse fill="#a98b7d" rx="1" ry="1" transform="rotate(159.2 39.3 58.9) scale(12.04156 38.85788)"/><ellipse fill="#fff" rx="1" ry="1" transform="matrix(-.84738 -17.64967 201.52243 -9.67537 120.6 169)"/><ellipse fill="#c49e7f" cx="58" cy="33" rx="22" ry="22"/><path fill="#232a2e" d="M91 34h145v46H91z"/><ellipse fill="#1c0f06" cx="25" cy="119" rx="23" ry="32"/><path fill="#fff" d="M66.4 58.4l15.8 2.5-2.6 16.7-15.8-2.5z"/><path fill="#51372a" d="M81 129.5l31-1 1 24-31 1z"/><path fill="#232f34" d="M159 104h78v43h-78z"/><ellipse fill="#575e64" cx="187" cy="69" rx="30" ry="38"/><ellipse fill="#fff" rx="1" ry="1" transform="matrix(-.35373 52.92379 -11.23558 -.0751 248.8 57.7)"/><ellipse fill="#fff" cx="2" cy="109" rx="3" ry="147"/><path fill="#fdffff" d="M115 143h40v27h-40z"/></g></svg>