<svg xmlns="http://www.w3.org/2000/svg" viewBox="0 0 200 133"><filter id="b"><feGaussianBlur stdDeviation="12" /></filter><path fill="#731920" d="M0 0h200v133H0z"/><g filter="url(#b)" transform="translate(.5 .5)" fill-opacity=".5"><ellipse fill="#ff0017" cx="115" cy="129" rx="98" ry="42"/><ellipse fill="#87ceff" cx="85" cy="32" rx="14" ry="26"/><ellipse fill="#000300" cy="36" rx="60" ry="82"/><ellipse fill="#362d1f" cx="178" rx="86" ry="86"/><ellipse fill="#ea4936" cx="87" cy="69" rx="77" ry="9"/><ellipse fill="#03090c" cx="67" cy="66" rx="10" ry="41"/><ellipse rx="1" ry="1" transform="matrix(57.52852 3.6249 -.85072 13.50128 176.4 4.8)"/><path fill="#ff002f" d="M0 120h155v13H0z"/><path fill="#9a754e" d="M104 8l93 50 10.8-41.8L144 30z"/><ellipse fill="#f8312b" cx="149" cy="72" rx="11" ry="25"/><path fill="#ff4f43" d="M106 66h22v31h-22z"/><path fill="#1e0d0f" d="M164 56h36v45h-36z"/><path d="M2 74h39v37H2z"/><path fill="#ff15ff" d="M178 112h22v6h-22z"/><path fill="#ecf1e8" d="M83 16h10v33H83z"/><ellipse fill="#313c5b" rx="1" ry="1" transform="rotate(2.7 -426.3 1479) scale(11.27009 19.8876)"/><path fill="#fe140c" d="M96.8 80l-9.3 34.8-18.3-4.9 9.3-34.7z"/><ellipse fill="#ff8212" cx="18" cy="66" rx="8" ry="7"/><path fill="#130d28" d="M62.6-5.6l7.6-10.5 71.2 51.7-7.6 10.5z"/><path fill="#ffa892" d="M50.5 5.9l24-21.9H2.2L42.6 3z"/><ellipse fill="#ff1501" cx="52" cy="86" rx="5" ry="14"/><path d="M130 73h8v27h-8z"/></g></svg>