<svg xmlns="http://www.w3.org/2000/svg" viewBox="0 0 700 467"><filter id="b"><feGaussianBlur stdDeviation="12" /></filter><path fill="#4a454d" d="M0 0h700v464H0z"/><g filter="url(#b)" transform="translate(1.4 1.4) scale(2.73438)" fill-opacity=".5"><ellipse fill="#8c9fb8" cx="123" cy="69" rx="63" ry="63"/><ellipse fill="#09aaec" rx="1" ry="1" transform="rotate(83.2 6.2 57.7) scale(31.75027 35.57918)"/><ellipse fill="#250000" rx="1" ry="1" transform="rotate(-93.5 140.4 14.5) scale(33.78382 177.44277)"/><ellipse fill="#b08387" cx="175" cy="90" rx="38" ry="38"/><ellipse fill="#0c0609" cx="248" rx="251" ry="26"/><path fill="#24a5e2" d="M154.2 67.7l2.7-38.9 48.9 3.5-2.7 38.9z"/><ellipse fill="#130000" cx="11" cy="38" rx="21" ry="87"/><ellipse fill="#cdd4c9" cx="130" cy="49" rx="28" ry="16"/><ellipse fill="#008ac3" cx="89" cy="31" rx="59" ry="13"/><ellipse rx="1" ry="1" transform="rotate(145.9 123 54) scale(22.5169 57.35507)"/><ellipse fill="#744637" rx="1" ry="1" transform="matrix(-157.83644 6.70216 -.70197 -16.53136 106.5 115.7)"/><path fill="#a27f8b" d="M111 144l24 14 50-19z"/><ellipse rx="1" ry="1" transform="matrix(-92.39445 8.24433 -1.31533 -14.74095 188 166.3)"/><ellipse fill="#8c97a1" cx="61" cy="72" rx="28" ry="19"/><ellipse fill="#5a3b35" cx="67" cy="104" rx="42" ry="24"/><path fill="#1d0806" d="M241 185l-13-95 43 8z"/><ellipse fill="#b78d9c" cx="92" cy="153" rx="9" ry="9"/><ellipse fill="#2d0000" rx="1" ry="1" transform="matrix(2.65347 -25.4409 53.3328 5.56258 36 160.5)"/><ellipse fill="#9a969e" rx="1" ry="1" transform="matrix(-45.49546 -22.6832 4.25686 -8.53793 182.6 69.6)"/><ellipse fill="#0064e1" cx="43" cy="21" rx="13" ry="10"/><path fill="#e8b8a2" d="M132.9 116.5l-7.8 5-81.7 2 61.9-9z"/><ellipse fill="#2e2018" rx="1" ry="1" transform="rotate(-6.6 906 -292.6) scale(26.47422 20.67054)"/></g></svg>