<svg xmlns="http://www.w3.org/2000/svg" viewBox="0 0 200 133"><filter id="b"><feGaussianBlur stdDeviation="12" /></filter><path fill="#25264b" d="M0 0h200v133H0z"/><g filter="url(#b)" transform="translate(.5 .5)" fill-opacity=".5"><ellipse fill="#615acb" cx="121" cy="62" rx="47" ry="47"/><ellipse rx="1" ry="1" transform="matrix(105.08591 -70.6148 15.43144 22.9644 31.2 21)"/><path fill="#f9ffff" d="M35 68h12v29H35z"/><ellipse fill="#cfffff" rx="1" ry="1" transform="rotate(-102.5 115.4 -23.8) scale(18.84679 6.7829)"/><ellipse rx="1" ry="1" transform="matrix(-34.70607 -3.1585 7.78163 -85.5057 199 20.4)"/><ellipse fill="#effffe" cx="102" cy="116" rx="22" ry="6"/><path fill="#fff" d="M84 86.8l18.5-7.5 5.6 14-18.6 7.4z"/><ellipse fill="#090524" rx="1" ry="1" transform="matrix(7.58955 -9.72939 32.64644 25.46632 105.5 70.4)"/><ellipse fill="#5a53da" cx="105" cy="33" rx="64" ry="15"/><ellipse cx="106" rx="199" ry="19"/><path fill="#94dfff" d="M9.3 65.6L23 69.2l-6.2 23.2L3 88.8z"/><ellipse fill="#010000" rx="1" ry="1" transform="matrix(20.6267 19.416 -10.40455 11.05333 135.2 113.8)"/><ellipse fill="#0a1000" cx="34" cy="124" rx="48" ry="31"/><path d="M160 95.2l-10.8 2.1-5.2-26.5 10.8-2.1zM44 63.5l-29.4 52.7 6.5-39.8 6.5-52.5z"/><ellipse cx="99" cy="131" rx="199" ry="10"/><path fill="#85a095" d="M159 121.5l-18.8 1.7 36.6-21.5-.6 21.3z"/><path fill="#668891" d="M10 107h39v12H10z"/><ellipse fill="#7d8bff" cx="142" cy="65" rx="6" ry="39"/><ellipse rx="1" ry="1" transform="rotate(-164 6.4 29.2) scale(8.52041 82.68052)"/><path fill="#d7bfd5" d="M97 71l11 44 4-19z"/><path fill="#fff" d="M36.1 89.4L40.2 74l9.7 2.6L45.8 92z"/></g></svg>