<svg xmlns="http://www.w3.org/2000/svg" viewBox="0 0 700 467"><filter id="b"><feGaussianBlur stdDeviation="12" /></filter><path fill="#565e5f" d="M0 0h700v464H0z"/><g filter="url(#b)" transform="translate(1.4 1.4) scale(2.73438)" fill-opacity=".5"><ellipse fill="#c2ddff" cx="64" cy="80" rx="46" ry="36"/><ellipse rx="1" ry="1" transform="rotate(-86.4 35.4 -26.2) scale(36.14333 144.28164)"/><ellipse fill="#cbffa5" rx="1" ry="1" transform="matrix(-50.0114 -58.22517 29.7483 -25.55174 197.5 169)"/><ellipse fill="#a5cbff" rx="1" ry="1" transform="matrix(-1.73513 26.78541 -40.33505 -2.61286 237.7 29.6)"/><path d="M221 138.8l3-83 39 1.4-3 83z"/><ellipse fill="#0b0000" rx="1" ry="1" transform="matrix(-5.8323 -53.61705 18.93344 -2.05952 101 153.9)"/><path fill="#5e9dfb" d="M114.1 113.5L133 185l22.4-63.2-25.7-70.2z"/><ellipse fill="#9db5ff" rx="1" ry="1" transform="matrix(-4.2567 30.288 -11.08885 -1.55844 208.8 99.1)"/><ellipse fill="#c8c19b" cx="63" cy="148" rx="22" ry="33"/><ellipse fill="#fffffd" rx="1" ry="1" transform="rotate(64.5 -73.8 52.2) scale(11.90592 17.05962)"/><ellipse fill="#efb491" rx="1" ry="1" transform="rotate(76.8 -1.5 62.1) scale(8.06274 52.80811)"/><ellipse fill="#005bda" rx="1" ry="1" transform="matrix(50.70807 30.95234 -4.95158 8.11198 228.7 130.7)"/><ellipse rx="1" ry="1" transform="matrix(32.01236 -29.32113 21.2789 23.23197 28.5 16.1)"/><path fill="#ffdeb1" d="M123 51h20v49h-20z"/><ellipse fill="#0c0000" cx="166" cy="16" rx="33" ry="33"/><path fill="#2e0000" d="M222-1L46-14l64 73z"/><ellipse rx="1" ry="1" transform="matrix(-14.97008 -16.04272 31.84284 -29.71379 250.9 88.1)"/><path fill="#000014" d="M202 101.4l-66-.2 30-50.5.5 30.8z"/><ellipse rx="1" ry="1" transform="matrix(6.96848 3.02998 -14.64104 33.67208 13.4 126)"/><ellipse fill="#5fc900" rx="1" ry="1" transform="matrix(-26.1737 12.87252 -3.10115 -6.30557 213.7 41.3)"/><ellipse rx="1" ry="1" transform="rotate(-172.5 109.4 23.3) scale(33.76895 5.98331)"/><ellipse fill="#b49eff" cx="255" cy="14" rx="59" ry="11"/></g></svg>