<svg xmlns="http://www.w3.org/2000/svg" viewBox="0 0 700 467"><filter id="b"><feGaussianBlur stdDeviation="12" /></filter><path fill="#4d5783" d="M0 0h700v464H0z"/><g filter="url(#b)" transform="translate(1.4 1.4) scale(2.73438)" fill-opacity=".5"><ellipse fill="#fff" cx="129" cy="128" rx="88" ry="29"/><ellipse cx="209" rx="251" ry="26"/><ellipse rx="1" ry="1" transform="matrix(-8.66005 145.76518 -14.71513 -.87424 15.5 137.4)"/><path fill="#fff" d="M245.4 150l-9.6 11.5-35.2-29.5 9.6-11.5z"/><ellipse cx="150" cy="169" rx="199" ry="14"/><ellipse fill="#fff" rx="1" ry="1" transform="matrix(-.2437 13.96154 -76.89656 -1.34223 123.6 133.3)"/><ellipse fill="#000047" rx="1" ry="1" transform="matrix(23.82257 -20.2746 9.09095 10.68183 202.8 104.9)"/><ellipse fill="#466ff9" cx="71" cy="75" rx="45" ry="45"/><path fill="#8b9bdf" d="M129 60h74v50h-74z"/><path d="M225-14L192-4l32 120z"/><ellipse rx="1" ry="1" transform="rotate(162.8 116.2 92) scale(15.17328 32.09907)"/><ellipse fill="#020000" cx="192" cy="160" rx="21" ry="21"/><path fill="#fff" d="M192.4 126.4l20 31.4 32.7-3.3-41.9-35.4z"/><ellipse fill="#c7bccb" cx="58" cy="98" rx="32" ry="16"/><path fill="#fff" d="M34 159.8l3.4-24.4 20.4-15.9 18.6 8.8z"/><ellipse fill="#4e7eff" cx="241" cy="78" rx="17" ry="41"/><ellipse fill="#000008" rx="1" ry="1" transform="rotate(-8.7 108.1 -533.3) scale(71.32562 17.58887)"/><ellipse fill="#29230d" cx="68" cy="155" rx="18" ry="18"/><ellipse fill="#0428d1" rx="1" ry="1" transform="matrix(4.51028 20.8529 -35.78214 7.73933 73.2 43.4)"/><ellipse fill="#000007" rx="1" ry="1" transform="rotate(152.4 -13.8 67.2) scale(41.29093 25.87875)"/><path d="M211 56h14v67h-14z"/><path fill="#442012" d="M71 57h14v39H71z"/></g></svg>