<svg xmlns="http://www.w3.org/2000/svg" viewBox="0 0 700 467"><filter id="b"><feGaussianBlur stdDeviation="12" /></filter><path fill="#3a4269" d="M0 0h700v464H0z"/><g filter="url(#b)" transform="translate(1.4 1.4) scale(2.73438)" fill-opacity=".5"><ellipse fill="#a4ff7d" rx="1" ry="1" transform="rotate(177 77.3 13.4) scale(49.37885 46.38831)"/><path fill="#e1a7ec" d="M57 149l76-70 37 72z"/><ellipse fill="#00000b" cx="19" cy="106" rx="37" ry="255"/><ellipse fill="#404cf8" cx="228" cy="18" rx="29" ry="79"/><ellipse fill="#fff3ff" cx="220" cy="141" rx="13" ry="9"/><ellipse fill="#270726" rx="1" ry="1" transform="matrix(-31.64122 -4.08643 1.33 -10.29818 129 124.6)"/><ellipse cx="144" cy="169" rx="255" ry="16"/><ellipse fill="#150a36" rx="1" ry="1" transform="matrix(-4.20362 -30.29387 23.5999 -3.27476 94.1 90.6)"/><ellipse fill="#1e0075" cx="185" cy="104" rx="38" ry="38"/><ellipse fill="#11a550" rx="1" ry="1" transform="matrix(23.1164 -.0813 .10801 30.71237 99 38.5)"/><ellipse fill="#baeb79" rx="1" ry="1" transform="matrix(-14.17774 24.2623 -20.40054 -11.92111 164 23.8)"/><ellipse fill="#010054" cx="39" cy="17" rx="38" ry="56"/><ellipse fill="#0e0078" cx="247" cy="96" rx="17" ry="59"/><ellipse fill="#f3d7ff" cx="127" cy="143" rx="44" ry="8"/><path fill="#ba83d8" d="M41.3 84.9l10.2-18.4L70.7 77 60.5 95.5z"/><ellipse fill="#21b788" rx="1" ry="1" transform="rotate(29.6 34.6 393.2) scale(17.44297 40.12896)"/><ellipse fill="#2f05ea" cx="244" cy="21" rx="19" ry="46"/><ellipse fill="#b29cc1" rx="1" ry="1" transform="matrix(4.63321 -.13965 2.71814 90.18336 223.3 59.7)"/><ellipse fill="#000016" cy="94" rx="45" ry="45"/><ellipse fill="#b74dff" cx="103" cy="169" rx="181" ry="2"/><path fill="#ffe8ff" d="M80 119h20v12H80z"/><path fill="#c9c7db" d="M122.8 53.6l30 62.7-38.8-21 18.6-29.9z"/></g></svg>