<svg xmlns="http://www.w3.org/2000/svg" viewBox="0 0 700 467"><filter id="b"><feGaussianBlur stdDeviation="12" /></filter><path fill="#64554e" d="M0 0h700v464H0z"/><g filter="url(#b)" transform="translate(1.4 1.4) scale(2.73438)" fill-opacity=".5"><ellipse fill="#d0ffff" cx="132" cy="69" rx="60" ry="26"/><ellipse rx="1" ry="1" transform="matrix(-.31087 -23.424 254.97755 -3.38388 83 20.2)"/><ellipse fill="#c5a75e" cx="226" cy="77" rx="46" ry="46"/><ellipse cx="129" cy="161" rx="255" ry="14"/><ellipse fill="#cd989d" cx="113" cy="127" rx="25" ry="25"/><ellipse fill="#e1feff" rx="1" ry="1" transform="matrix(-38.2005 1.5343 -.67293 -16.75455 139.4 69.6)"/><ellipse fill="#869fc2" cx="129" cy="54" rx="152" ry="12"/><ellipse fill="#e58929" rx="1" ry="1" transform="rotate(73.5 30.8 225) scale(13.7742 34.42714)"/><ellipse cx="246" cy="11" rx="30" ry="30"/><ellipse cx="29" cy="5" rx="39" ry="39"/><ellipse fill="#775f56" rx="1" ry="1" transform="matrix(-38.28924 -6.29318 2.7487 -16.7238 132.2 26)"/><ellipse fill="#9f6252" rx="1" ry="1" transform="rotate(165.1 26.4 64) scale(75.24686 22.57374)"/><ellipse fill="#639dfd" rx="1" ry="1" transform="matrix(-17.3488 23.1047 -10.94568 -8.21887 92.5 66.6)"/><ellipse fill="#947d69" cx="15" cy="64" rx="67" ry="19"/><path fill="#ea1f17" d="M181 112l-4 41 20-13z"/><path fill="#ffdad4" d="M95 134h80v6H95z"/><ellipse fill="#b09590" rx="1" ry="1" transform="matrix(80.23116 -4.7666 .36817 6.19697 132.9 109.8)"/><path fill="#b5a76a" d="M209 17h13v55h-13z"/><ellipse fill="#000005" cx="77" cy="55" rx="3" ry="29"/><ellipse cx="77" cy="169" rx="253" ry="12"/><ellipse fill="#7e5b29" rx="1" ry="1" transform="rotate(160.1 92.6 60.2) scale(12.63167 49.82806)"/><ellipse fill="#411703" cx="22" cy="126" rx="36" ry="7"/></g></svg>