<svg xmlns="http://www.w3.org/2000/svg" viewBox="0 0 641 195"><filter id="b"><feGaussianBlur stdDeviation="12" /></filter><path fill="#887e76" d="M0 0h641v192H0z"/><g filter="url(#b)" transform="translate(1.3 1.3) scale(2.5039)" fill-opacity=".5"><ellipse fill="#c1ffff" cx="128" cy="24" rx="53" ry="23"/><ellipse fill="#431812" rx="1" ry="1" transform="matrix(37.0856 -22.50002 10.61374 17.49408 34.3 56.7)"/><ellipse fill="#805927" rx="1" ry="1" transform="matrix(-3.10317 -34.02883 101.67635 -9.27212 227.2 66)"/><ellipse fill="#4994ff" rx="1" ry="1" transform="matrix(11.14176 15.22738 -24.37365 17.83402 105.6 0)"/><ellipse fill="#b0d0fe" rx="1" ry="1" transform="matrix(-45.81867 12.29496 -7.18351 -26.77024 135.4 14.3)"/><ellipse fill="#bfa562" rx="1" ry="1" transform="matrix(20.82328 28.17989 -33.86384 25.02338 240.1 7)"/><path fill="#000017" d="M75 0h5v35h-5z"/><ellipse fill="#594c4b" rx="1" ry="1" transform="matrix(56.8529 -.94129 .1303 7.87014 123 51.5)"/><ellipse fill="#552a39" cx="127" cy="76" rx="93" ry="9"/><path fill="#ffccca" d="M109 88.7l-2-24 16-1.4 2 24z"/><ellipse fill="#eef4e6" cx="139" cy="26" rx="38" ry="11"/><ellipse fill="#997939" rx="1" ry="1" transform="rotate(144.5 100.3 59.7) scale(23.46389 50.20572)"/><path fill="#452917" d="M-8.1 70.5l2.3-44 18 1-2.4 44z"/><path fill="#62a1e5" d="M183 39l-65-55h60z"/><path fill="#dd937d" d="M56.5 72.1l9.9 15.4 20-23.5-59.2-9.2z"/><ellipse fill="#5e9af2" rx="1" ry="1" transform="rotate(-56.3 62.2 -87) scale(34.73362 8.24696)"/><path fill="#a5a1b1" d="M148 54h45v10h-45z"/><path fill="#a8dbfe" d="M164 25h17v17h-17z"/><path fill="#5085e9" d="M82.1 7.7l-.2-12 76-1.4.2 12z"/><ellipse fill="#60473f" rx="1" ry="1" transform="matrix(-8.58263 -.94249 3.25454 -29.63696 64.8 37.8)"/><path fill="#ff7b83" d="M8 70l14 21-8-25z"/><path fill="#21314b" d="M118 67h52v10h-52z"/></g></svg>