<svg xmlns="http://www.w3.org/2000/svg" viewBox="0 0 200 133"><filter id="b"><feGaussianBlur stdDeviation="12" /></filter><path fill="#494884" d="M0 0h200v133H0z"/><g filter="url(#b)" transform="translate(.5 .5)" fill-opacity=".5"><ellipse rx="1" ry="1" transform="matrix(-50.26469 66.46183 -29.48728 -22.30105 25 40.2)"/><ellipse fill="#555cff" cx="178" cy="49" rx="132" ry="32"/><ellipse fill="#ffe" cx="85" cy="107" rx="12" ry="21"/><ellipse fill="#dacbd1" cx="50" cy="105" rx="18" ry="18"/><ellipse fill="#c04200" cx="57" cy="132" rx="91" ry="9"/><ellipse fill="#824bff" rx="1" ry="1" transform="matrix(14.63927 65.95109 -15.4312 3.42529 178.6 47.2)"/><path fill="#c49aa3" d="M132 50l5 98-35-100z"/><ellipse fill="#000017" rx="1" ry="1" transform="matrix(-8.91487 8.18283 -25.85287 -28.16568 198.3 14.6)"/><ellipse fill="#001429" cx="107" cy="7" rx="15" ry="27"/><ellipse fill="#0e32a6" rx="1" ry="1" transform="rotate(107.4 19.6 46.2) scale(26.10641 27.1491)"/><ellipse fill="#0e1928" cx="148" rx="20" ry="20"/><path fill="#cfd7e0" d="M158 95h42v12h-42z"/><ellipse fill="#99ffaf" rx="1" ry="1" transform="matrix(54.57729 1.23853 -.13282 5.8529 168.9 136.2)"/><path fill="#f8ffff" d="M19.1 112l-7.2-6.9 7-7.2 7.2 7z"/><ellipse fill="#0a0a25" rx="1" ry="1" transform="matrix(-31.72145 1.95726 -3.46158 -56.10205 24 43.3)"/><path fill="#2e0c04" d="M-49.6 132.9l7.8-31L75.6 131l-7.8 31z"/><ellipse fill="#001821" cx="122" cy="81" rx="13" ry="6"/><path fill="#f9f5ed" d="M77 94h20v28H77z"/><ellipse fill="#2500e5" cx="199" cy="60" rx="14" ry="37"/><path fill="#ff4baf" d="M124.3 53.7l-.7 9-28-2.4.8-9z"/><path fill="#efeedc" d="M51 92l1 30 21-32z"/><path fill="#282a37" d="M97.3 96.8L97 73.3 46.2 99l-29-46.3z"/></g></svg>