<svg xmlns="http://www.w3.org/2000/svg" viewBox="0 0 200 133"><filter id="b"><feGaussianBlur stdDeviation="12" /></filter><path fill="#494884" d="M0 0h200v133H0z"/><g filter="url(#b)" transform="translate(.5 .5)" fill-opacity=".5"><ellipse cx="4" cy="34" rx="51" ry="68"/><ellipse fill="#575cff" rx="1" ry="1" transform="matrix(-104.84191 -6.77982 2.1284 -32.9131 169.7 52.5)"/><ellipse fill="#d0c8c2" cx="63" cy="106" rx="43" ry="18"/><ellipse fill="#0a130d" cx="38" rx="127" ry="17"/><ellipse fill="#9157ff" rx="1" ry="1" transform="rotate(168.8 86.4 30.6) scale(11.74371 71.88722)"/><path fill="#ec5e00" d="M23.4 137.4l.2-13 125 2.2-.2 13z"/><path fill="#fff" d="M77 103h20v22H77z"/><path fill="#280000" d="M46.8 134.4l105.2 10-74.3-17-3.7-28z"/><ellipse fill="#a69dab" rx="1" ry="1" transform="matrix(-4.2807 -37.04453 13.3317 -1.54055 122 74.8)"/><ellipse fill="#002fac" cx="85" cy="34" rx="46" ry="17"/><path fill="#dae1ea" d="M157 97h43v10h-43z"/><path fill="#000017" d="M212.8 47L170-2l15.1-13L228 34z"/><path fill="#030f40" d="M129 66l-34 65 7-44z"/><ellipse fill="#300a00" rx="1" ry="1" transform="rotate(111.6 -31.2 75.3) scale(11.73615 47.91844)"/><path fill="#ff5ab3" d="M128.7 50.6l-.4 12-33-1.2.4-12z"/><ellipse fill="#000311" rx="1" ry="1" transform="matrix(-14.76264 -2.06436 8.65887 -61.92126 18.6 41.6)"/><path fill="#94ffbb" d="M111 126h89v7h-89z"/><ellipse fill="#2e00f4" cx="195" cy="62" rx="11" ry="34"/><path fill="#fff" d="M125 100l11 1-12-20z"/><path fill="#f3faff" d="M59 92l-13 31h12z"/><path fill="#ccc8af" d="M89.7 60.9l-15 35.8 23.7 15.9-23-47.5z"/><path fill="#05205c" d="M146 46L133 7l38-8z"/></g></svg>