<svg xmlns="http://www.w3.org/2000/svg" viewBox="0 0 200 133"><filter id="b"><feGaussianBlur stdDeviation="12" /></filter><path fill="#624040" d="M0 0h200v133H0z"/><g filter="url(#b)" transform="translate(.5 .5)" fill-opacity=".5"><ellipse fill="#ffebe9" rx="1" ry="1" transform="rotate(-168 62.4 51.6) scale(34.14038 30.97511)"/><ellipse fill="#200" cx="45" cy="6" rx="166" ry="46"/><ellipse fill="#b4a8b6" cx="185" cy="81" rx="18" ry="38"/><ellipse fill="#dda479" rx="1" ry="1" transform="matrix(15.42146 -.6972 1.24934 27.63393 109.6 64)"/><ellipse fill="#001" cx="156" cy="112" rx="14" ry="50"/><ellipse fill="#b06144" rx="1" ry="1" transform="rotate(-118.1 106.5 -32.6) scale(29.7747 13.38409)"/><ellipse fill="#430004" rx="1" ry="1" transform="matrix(-12.18853 9.02445 -32.20851 -43.50119 11.7 119.8)"/><path fill="#fc9c77" d="M8.1 54.8l-3 11.4L-16 81.7.7 30z"/><ellipse fill="#5f0901" rx="1" ry="1" transform="matrix(-6.14227 7.51887 -24.92083 -20.35818 73.9 70.5)"/><path fill="#868b90" d="M74.7 131.8l-30.1-40 20.7-15.6 30.1 40z"/><path fill="#050514" d="M175 60.1l-54.3 14.3-6.4 4.7 37.5 15.1z"/><ellipse fill="#cec5c3" rx="1" ry="1" transform="matrix(-18.24678 -.35709 .5142 -26.27518 121.2 113.4)"/><path fill="#da7f63" d="M139 28l13 14-5 25z"/><ellipse fill="#691e1b" cx="35" cy="65" rx="20" ry="30"/><path fill="#000c22" d="M141 137l57-20 12 28z"/><path fill="#5a1208" d="M121 148H16l81-24z"/><path fill="#7e3823" d="M115 85l-21 31 7-32z"/><path fill="#6d7b93" d="M150.5 102.5l64.5 2.6-36.3 17.3L153 87.2z"/><ellipse fill="#b6957b" rx="1" ry="1" transform="matrix(3.39384 9.3033 -15.36588 5.60547 116.9 61.6)"/><path fill="#00030c" d="M170 8l-20 27 11 31z"/><path fill="#8e95ad" d="M203 59l-37 20 34 41z"/><ellipse fill="#d4dde8" cx="170" cy="53" rx="7" ry="5"/></g></svg>