<svg xmlns="http://www.w3.org/2000/svg" viewBox="0 0 700 467"><filter id="b"><feGaussianBlur stdDeviation="12" /></filter><path fill="#8f8f8b" d="M0 0h700v464H0z"/><g filter="url(#b)" transform="translate(1.4 1.4) scale(2.73438)" fill-opacity=".5"><ellipse fill="#fff" cx="165" cy="11" rx="119" ry="63"/><ellipse fill="#15100a" rx="1" ry="1" transform="matrix(-209.30232 6.21195 -.7846 -26.43572 167.4 120.7)"/><ellipse fill="#462d0d" rx="1" ry="1" transform="matrix(-9.27157 19.26491 -72.71822 -34.99692 10.6 26.4)"/><ellipse fill="#f6ffff" rx="1" ry="1" transform="matrix(-6.40387 40.89423 -105.0687 -16.45332 138.4 16)"/><ellipse fill="#4b160b" rx="1" ry="1" transform="matrix(16.7265 3.00199 -7.93854 44.23201 61 109)"/><ellipse fill="#4e5750" cx="242" cy="169" rx="28" ry="102"/><ellipse fill="#d8eaf9" rx="1" ry="1" transform="rotate(-30 236 -347.8) scale(17.99222 28.55383)"/><ellipse fill="#7c7a5c" rx="1" ry="1" transform="matrix(-6.32721 -51.58445 31.31815 -3.8414 12.3 124.2)"/><path fill="#000306" d="M116 117h62v25h-62z"/><ellipse fill="#fffed7" rx="1" ry="1" transform="matrix(-3.74549 9.35454 -25.49079 -10.20631 30.5 66)"/><path fill="#ff0608" d="M47.3 111.7l-4.6-28.3L53 85.7l11 23.4z"/><path fill="#87d3ff" d="M192 95h9v30h-9z"/><ellipse fill="#a0a7a4" rx="1" ry="1" transform="matrix(-8.51485 6.58102 -12.85474 -16.63209 231.4 123)"/><path fill="#523f27" d="M171.8 61.3l18 36.8-13.6 6.6-18-36.8z"/><path fill="#7e5a45" d="M100.6 47.5L68 51l74.6 75.2-36.4-56.9z"/><path fill="#1d1c10" d="M230 73l-4 30 41-16z"/><ellipse fill="#ebfcff" rx="1" ry="1" transform="matrix(4.28114 -13.176 46.92776 15.24775 42 0)"/><ellipse fill="#e5f4ff" rx="1" ry="1" transform="rotate(87.1 60 84.6) scale(23.76269 94.1822)"/><path fill="#bf9d07" d="M100.9 137.8l-8-14.7 14.4-13.2 10 18.6z"/><path fill="#daeeff" d="M135 43h23v38h-23z"/><ellipse fill="#242e32" rx="1" ry="1" transform="matrix(-8.79959 -13.91057 37.6078 -23.79004 78.6 115.1)"/><ellipse fill="#c1d6ec" rx="1" ry="1" transform="matrix(-20.86925 -12.84974 24.90245 -40.44403 225 40.8)"/></g></svg>