<svg xmlns="http://www.w3.org/2000/svg" viewBox="0 0 200 133"><filter id="b"><feGaussianBlur stdDeviation="12" /></filter><path fill="#8a2316" d="M0 0h200v133H0z"/><g filter="url(#b)" transform="translate(.5 .5)" fill-opacity=".5"><ellipse fill="#ff3524" cx="79" cy="35" rx="34" ry="34"/><ellipse fill="#000017" rx="1" ry="1" transform="matrix(38.92967 -13.08873 7.94759 23.63842 180.2 81.8)"/><ellipse cx="19" rx="37" ry="37"/><ellipse fill="#130000" rx="1" ry="1" transform="matrix(-49.01039 -98.4863 31.39607 -15.62383 189.6 28.1)"/><ellipse fill="#111019" rx="1" ry="1" transform="matrix(.18592 15.62381 -75.46335 .89801 23.6 91.9)"/><ellipse fill="#ff5954" cx="108" cy="117" rx="146" ry="13"/><ellipse fill="#e8460d" cx="121" cy="47" rx="30" ry="45"/><path fill="#ff0" d="M14 31l27 43 9-11z"/><ellipse fill="#ff3427" rx="1" ry="1" transform="matrix(11.8211 -33.00212 22.23486 7.96435 78 33.2)"/><ellipse fill="#2c0309" rx="1" ry="1" transform="matrix(21.799 58.93034 -20.6447 7.6367 0 56)"/><ellipse fill="#5a0000" rx="1" ry="1" transform="matrix(-17.22775 -25.95962 7.1538 -4.74753 116.7 33.1)"/><path fill="#9b6295" d="M173.6 47.6l3 72.8 5-11.7 1.8-51.7z"/><path fill="#130001" d="M78 66l35 4-54 48z"/><path fill="#df9500" d="M142.8 94.1l8-79.3L125.2 77l-11.1-4z"/><ellipse rx="1" ry="1" transform="matrix(-16.97923 -8.3039 5.71176 -11.67902 157.4 85.8)"/><path fill="#ffd317" d="M10.2 113.8l15-.6.6 17-15 .6z"/><ellipse fill="#ff6e72" cx="171" cy="116" rx="137" ry="4"/><ellipse fill="#d2291c" rx="1" ry="1" transform="matrix(11.28607 21.62486 -8.5933 4.48486 60 72.9)"/><path fill="#000015" d="M26.4 129.3l-1.6-10 16.8-2.6 1.6 10z"/><path fill="#160007" d="M138 148H95l12-34z"/><path fill="#ff5130" d="M66 42h51v26H66z"/><path fill="#000007" d="M116 94h57v9h-57z"/></g></svg>