<svg xmlns="http://www.w3.org/2000/svg" viewBox="0 0 200 133"><filter id="b"><feGaussianBlur stdDeviation="12" /></filter><path fill="#37405e" d="M0 0h200v133H0z"/><g filter="url(#b)" transform="translate(.5 .5)" fill-opacity=".5"><ellipse fill="#fff" cx="165" cy="76" rx="10" ry="26"/><ellipse fill="#e0ffff" cx="199" cy="59" rx="10" ry="43"/><ellipse fill="#000003" rx="1" ry="1" transform="rotate(98 18.7 37.6) scale(21.857 100.31831)"/><path fill="#b8fbff" d="M21 55h17v44H21z"/><ellipse fill="#877c95" cx="97" cy="92" rx="40" ry="40"/><ellipse cx="184" cy="94" rx="8" ry="53"/><ellipse fill="#264cf3" rx="1" ry="1" transform="matrix(-31.94172 12.97019 -3.69421 -9.09775 182.7 34.5)"/><ellipse fill="#fff" cx="105" cy="64" rx="15" ry="5"/><ellipse fill="#1a2915" cx="88" cy="110" rx="198" ry="6"/><path fill="#bcc3c5" d="M122.6 129.4l-55.4 1-3-16 51.2 1.7z"/><ellipse fill="#0068ff" rx="1" ry="1" transform="matrix(14.99224 7.10088 -4.0944 8.6446 134.3 62.4)"/><ellipse fill="#2c2f27" rx="1" ry="1" transform="rotate(126.8 -16 64.7) scale(27.37792 49.58258)"/><path fill="#cdf7ff" d="M176.6 95l-19 1-2.2-41 19-1z"/><path d="M43.3 2.5l-3.8 64.1-5.9 66.6 17.6-43.7z"/><ellipse cx="11" cy="89" rx="5" ry="58"/><path fill="#91cfff" d="M0 31h8v27H0z"/><ellipse fill="#1b170e" cx="182" cy="124" rx="20" ry="37"/><ellipse fill="#ffc4b8" cx="100" cy="91" rx="20" ry="4"/><path fill="#12103c" d="M94 65L41 79l112 6z"/><ellipse fill="#0018a4" cx="94" cy="53" rx="46" ry="6"/><path d="M0 130h145v3H0z"/><path fill="#77a9e7" d="M16.6 65.5l25.2-35-2.9 42.3-6 41z"/></g></svg>