<svg xmlns="http://www.w3.org/2000/svg" viewBox="0 0 200 133"><filter id="b"><feGaussianBlur stdDeviation="12" /></filter><path fill="#36385c" d="M0 0h200v133H0z"/><g filter="url(#b)" transform="translate(.5 .5)" fill-opacity=".5"><ellipse fill="#a397c7" cx="103" cy="79" rx="52" ry="52"/><ellipse cx="83" rx="113" ry="32"/><ellipse fill="#00001e" rx="1" ry="1" transform="rotate(114.8 -12 30.6) scale(94.12197 31.56958)"/><path d="M115.1 97.3l-.2 16-36-.6.2-16z"/><ellipse fill="#eaf4e5" cx="28" cy="106" rx="8" ry="17"/><path fill="#c7c8ad" d="M103 97l75 18 5-22z"/><ellipse fill="#000048" cx="185" cy="61" rx="23" ry="36"/><ellipse fill="#635bab" rx="1" ry="1" transform="rotate(91.8 25.4 79.6) scale(26.99563 62.85102)"/><ellipse fill="#0a26f4" cx="188" cy="27" rx="18" ry="19"/><path d="M184 61h16v72h-16z"/><ellipse rx="1" ry="1" transform="matrix(29.09206 .94194 -.0711 2.1957 104 72.5)"/><path d="M0 119h72v14H0z"/><path fill="#e1e3ef" d="M74 113h39v16H74z"/><ellipse cx="152" cy="132" rx="21" ry="14"/><ellipse fill="#00000a" cx="127" cy="20" rx="44" ry="15"/><ellipse fill="#c37fae" rx="1" ry="1" transform="matrix(-5.1481 -9.24932 16.0295 -8.92191 66.7 43.8)"/><path d="M32 30h13v65H32z"/><ellipse fill="#1538b5" cx="104" cy="56" rx="26" ry="16"/><path fill="#999393" d="M49 68h30v47H49z"/><path fill="#01101e" d="M100.9 102.4L96 133l-8.9-1.4L92 101z"/><path fill="#090817" d="M149 90h9v24h-9z"/><path fill="#b59ca2" d="M127.6 113.5l-10.3-12.2 39-32.8 10.4 12.2z"/></g></svg>