<svg xmlns="http://www.w3.org/2000/svg" viewBox="0 0 200 133"><filter id="b"><feGaussianBlur stdDeviation="12" /></filter><path fill="#747072" d="M0 0h200v133H0z"/><g filter="url(#b)" transform="translate(.5 .5)" fill-opacity=".5"><ellipse rx="1" ry="1" transform="matrix(15.6453 -15.3505 27.97127 28.50843 177.7 40.5)"/><ellipse fill="#ebffff" rx="1" ry="1" transform="matrix(14.34086 .60106 -1.1761 28.06095 27.8 55.3)"/><ellipse fill="#e3e1f6" cx="11" cy="121" rx="28" ry="27"/><path fill="#e1feff" d="M140.8 61.1L116.4 1l14.8-6 24.4 60z"/><ellipse fill="#1c0c31" cx="158" cy="99" rx="19" ry="43"/><ellipse fill="#000005" cx="66" cy="118" rx="11" ry="42"/><ellipse fill="#f3ffff" cx="75" cy="64" rx="9" ry="29"/><path fill="#120500" d="M123 35H82l19 41z"/><path fill="#f2fdff" d="M109.3 145.3l-33-.6.4-26 33 .6z"/><path fill="#ad0000" d="M115 58h21v34h-21z"/><ellipse fill="#ffffda" rx="1" ry="1" transform="matrix(.3126 5.13852 -32.80016 1.9954 163.3 2.6)"/><ellipse fill="#fff" cx="33" rx="27" ry="5"/><ellipse rx="1" ry="1" transform="matrix(-27.7401 -13.47761 4.6538 -9.57864 164.2 26.6)"/><path fill="#0127e9" d="M134 77h19v32h-19z"/><ellipse fill="#232100" rx="1" ry="1" transform="matrix(-23.9531 5.447 -1.94634 -8.55896 70.5 27.2)"/><path fill="#ece1a6" d="M103-16L81 44l31-17z"/><path d="M111 50l13-23-14-43z"/><path fill="#adbeec" d="M194.1 112.1l-19-29.3 16.8-11 19 29.4z"/><ellipse fill="#000500" rx="1" ry="1" transform="rotate(67.2 4.4 187.3) scale(28.81623 7.49162)"/><path fill="#97bfc5" d="M30 85h27v32H30z"/><ellipse fill="#b5a98e" rx="1" ry="1" transform="matrix(19.76226 -5.50408 5.27454 18.9381 99 89.1)"/><path fill="#2a2816" d="M46 51h18v32H46z"/></g></svg>