<svg xmlns="http://www.w3.org/2000/svg" viewBox="0 0 200 133"><filter id="b"><feGaussianBlur stdDeviation="12" /></filter><path fill="#94938d" d="M0 0h200v133H0z"/><g filter="url(#b)" transform="translate(.5 .5)" fill-opacity=".5"><ellipse fill="#211706" cx="64" cy="122" rx="74" ry="21"/><ellipse fill="#fbffff" rx="1" ry="1" transform="rotate(67.9 -7.7 25.7) scale(91.66883 17.15732)"/><ellipse fill="#fffffa" cx="154" rx="32" ry="44"/><ellipse cx="18" cy="106" rx="11" ry="30"/><ellipse fill="#fff" rx="1" ry="1" transform="matrix(-2.06463 17.19399 -41.4286 -4.9747 70.3 0)"/><path fill="#d7f5ff" d="M31 126.6l-7-77.7 17-1.5 6.8 77.7z"/><ellipse fill="#212023" rx="1" ry="1" transform="matrix(-1.30843 -14.37722 20.3559 -1.85253 60 31.6)"/><path fill="#0e1723" d="M177 22h23v30h-23z"/><ellipse fill="#07061e" rx="1" ry="1" transform="matrix(11.12116 -34.2863 20.4949 6.64776 74.3 127.8)"/><path fill="#e0f8ff" d="M96 71L60 59l23 36z"/><ellipse fill="#fff" cx="18" cy="21" rx="23" ry="17"/><path fill="#a47609" d="M98 100h40v33H98z"/><ellipse fill="#534c44" cx="168" cy="62" rx="20" ry="20"/><ellipse fill="#221600" rx="1" ry="1" transform="matrix(2.11558 39.06311 -5.23317 .28342 118.2 16.5)"/><ellipse fill="#f6e498" cx="147" cy="132" rx="13" ry="48"/><path fill="#cbdbe9" d="M69.1 95.3l5.7 33-26-49.8-20.7-62.2z"/><path fill="#4a5f67" d="M-16 36.4l24 7.5 18.1 7.8 22-13.3z"/><path fill="#ffffe6" d="M127 3h73v17h-73z"/><path fill="#000007" d="M6.4 98.7L31 113.3l-4.8-33-20.5-3.9z"/><path fill="#d8f5f3" d="M101 9h14v40h-14z"/><path fill="#473319" d="M95 16h6v88h-6z"/><path fill="#dfe1bc" d="M16 103h5v30h-5z"/></g></svg>