<svg xmlns="http://www.w3.org/2000/svg" viewBox="0 0 700 467"><filter id="b"><feGaussianBlur stdDeviation="12" /></filter><path fill="#424751" d="M0 0h700v464H0z"/><g filter="url(#b)" transform="translate(1.4 1.4) scale(2.73438)" fill-opacity=".5"><ellipse fill="#c0e8ff" rx="1" ry="1" transform="matrix(-12.4232 23.5627 -38.54207 -20.32093 112.9 49.5)"/><path fill="#fff" d="M140 117h52v18h-52z"/><ellipse fill="#ff7f10" rx="1" ry="1" transform="rotate(-102.8 110.2 25.1) scale(30.64873 23.43165)"/><ellipse fill="#fff" cx="12" cy="134" rx="22" ry="11"/><ellipse fill="#00338c" rx="1" ry="1" transform="matrix(42.344 5.30874 -7.60448 60.65549 27.8 44.6)"/><ellipse fill="#000926" rx="1" ry="1" transform="matrix(-48.25 -131.84932 36.92595 -13.51298 227 99.9)"/><ellipse fill="#0c0000" rx="1" ry="1" transform="rotate(174.8 17.8 81.8) scale(47.04345 18.72358)"/><ellipse fill="#110400" cx="193" cy="156" rx="58" ry="23"/><ellipse fill="#003f86" rx="1" ry="1" transform="matrix(60.2396 -14.61081 8.89742 36.68358 242.6 29.7)"/><ellipse fill="#81dbff" rx="1" ry="1" transform="matrix(30.30216 -9.14876 4.79162 15.8706 118.6 60.5)"/><ellipse fill="#951500" cx="112" cy="90" rx="44" ry="12"/><ellipse fill="#000f30" rx="1" ry="1" transform="rotate(-108.1 38.5 37.1) scale(22.54069 55.9729)"/><ellipse fill="#0070b0" cx="26" cy="12" rx="34" ry="39"/><ellipse fill="#c14723" rx="1" ry="1" transform="matrix(14.81771 17.65906 -10.495 8.80634 246.4 109.3)"/><path fill="#ac7355" d="M70 0h17v112H70z"/><path fill="#ffe69f" d="M15 106h16v38H15z"/><path fill="#fff" d="M139.4 118l23.7-3.7 3.5 21.7-23.7 3.7z"/><ellipse fill="#7a6741" rx="1" ry="1" transform="rotate(48.3 55.3 154.2) scale(35.84917 34.63717)"/><path d="M29 112h60v14H29z"/><path fill="#d59e68" d="M184 88.2l-26.8 29.7-11.2-10L172.8 78z"/><path fill="#ff99ab" d="M67 130h21v12H67z"/><ellipse fill="#fffbe2" cx="56" cy="102" rx="8" ry="8"/></g></svg>