<svg xmlns="http://www.w3.org/2000/svg" viewBox="0 0 200 133"><filter id="b"><feGaussianBlur stdDeviation="12" /></filter><path fill="#543171" d="M0 0h200v133H0z"/><g filter="url(#b)" transform="translate(.5 .5)" fill-opacity=".5"><ellipse fill="#f3a2ff" rx="1" ry="1" transform="matrix(-.85984 24.61612 -98.51637 -3.44117 66.3 100.4)"/><ellipse cx="189" cy="22" rx="76" ry="76"/><ellipse fill="#fe69ff" cx="149" cy="124" rx="38" ry="15"/><ellipse fill="#040035" cx="21" cy="19" rx="54" ry="66"/><path fill="#250b26" d="M197 59l-53 52-12-19z"/><ellipse cx="183" rx="159" ry="13"/><ellipse fill="#090000" rx="1" ry="1" transform="matrix(10.74095 16.89369 -7.76928 4.93968 30.3 128.4)"/><ellipse fill="#e68cfc" cx="46" cy="110" rx="76" ry="12"/><ellipse fill="#110a00" rx="1" ry="1" transform="matrix(5.363 6.48888 -23.64692 19.54397 5.3 131)"/><path fill="#471281" d="M67 93h60v15H67z"/><path fill="#fff" d="M0 86h40v8H0z"/><path fill="#ac3aff" d="M93 137l119-40-40 47z"/><path fill="#ffc9ff" d="M86 80h59v10H86z"/><ellipse fill="#220063" cx="43" cy="96" rx="39" ry="4"/><path fill="#dc86ff" d="M76.8 100.4l23.3-1.5v30.7l-41.7-5.5z"/><ellipse fill="#3e1789" rx="1" ry="1" transform="rotate(157.4 59.5 41.2) scale(16.45228 27.861)"/><path fill="#fcd7ff" d="M68.3 92.3l-11.9-1.7-13.8-17L65 76.3z"/><path fill="#4c244a" d="M179 111l-22 5 9-35z"/><path d="M109.6 144.7l-11-1.7 3.8-23.7 11 1.7z"/><path fill="#271f72" d="M79.2 79.3l-1.6 25.1-45.8-22 30.2 11z"/><ellipse fill="#0f0f0f" rx="1" ry="1" transform="matrix(-8.28512 -46.98724 22.58595 -3.98251 191.6 57.7)"/><ellipse fill="#db9bfc" cx="134" cy="119" rx="24" ry="10"/></g></svg>