<svg xmlns="http://www.w3.org/2000/svg" viewBox="0 0 700 467"><filter id="b"><feGaussianBlur stdDeviation="12" /></filter><path fill="#5c2845" d="M0 0h700v464H0z"/><g filter="url(#b)" transform="translate(1.4 1.4) scale(2.73438)" fill-opacity=".5"><ellipse fill="#81a0e6" rx="1" ry="1" transform="matrix(81.12797 .49297 -.21883 36.0131 119.7 71.7)"/><ellipse fill="#ff0623" cx="207" cy="127" rx="41" ry="33"/><ellipse cx="255" cy="46" rx="56" ry="56"/><ellipse rx="1" ry="1" transform="matrix(-44.7148 109.57028 -37.1441 -15.15823 0 24.2)"/><ellipse fill="#ff2216" rx="1" ry="1" transform="matrix(-39.65414 7.06348 -2.21521 -12.43612 81.4 124.8)"/><ellipse fill="#000f37" rx="1" ry="1" transform="rotate(-118.4 61.2 -30.4) scale(27.62363 52.53524)"/><ellipse fill="#400" cx="38" cy="152" rx="125" ry="29"/><ellipse fill="#a9c4ac" cx="119" cy="68" rx="25" ry="32"/><ellipse fill="#241017" cx="141" cy="106" rx="25" ry="25"/><path fill="#4d44bd" d="M145.8 19.7l32 1.7-3.6 68.9-32-1.7z"/><path fill="#00004e" d="M74.6 39.1l26.7 4.2-6 37.6-26.6-4.2z"/><ellipse fill="#200" rx="1" ry="1" transform="matrix(9.0516 15.49269 -127.84381 74.6927 234.4 161)"/><ellipse fill="#dd95c9" cx="56" cy="47" rx="16" ry="16"/><ellipse fill="#f91548" cx="194" cy="138" rx="35" ry="23"/><ellipse fill="#d03033" cx="47" cy="94" rx="9" ry="67"/><ellipse fill="#ff565e" cx="197" cy="87" rx="7" ry="36"/><path fill="#000007" d="M209-45l85.7 69L255 73 169.5 3.8z"/><path fill="#9ec9ff" d="M60 82h22v23H60z"/><path fill="#4686ef" d="M63 84l26-72-40 39z"/><path fill="#98abff" d="M144.3 20.3l28.3 5.4-2-10.4 3.6 38.3z"/><path fill="#f600c8" d="M96-16H72L49 36z"/><path fill="#80c3ff" d="M190.5 81.2l4.3.8-17-25-15.7 61.3z"/></g></svg>