<svg xmlns="http://www.w3.org/2000/svg" viewBox="0 0 200 133"><filter id="b"><feGaussianBlur stdDeviation="12" /></filter><path fill="#747776" d="M0 0h200v133H0z"/><g filter="url(#b)" transform="translate(.5 .5)" fill-opacity=".5"><ellipse fill="#020612" cx="95" cy="67" rx="30" ry="48"/><ellipse fill="#cbcdcb" cx="81" cy="123" rx="199" ry="12"/><ellipse fill="#bbf1ff" cx="33" cy="4" rx="34" ry="8"/><path fill="#d2e0db" d="M96 76h14v28H96z"/><ellipse fill="#353a30" rx="1" ry="1" transform="rotate(-129 13.4 16.3) scale(37.66385 23.22216)"/><ellipse fill="#00010e" cx="80" cy="52" rx="19" ry="28"/><ellipse fill="#3f403f" rx="1" ry="1" transform="matrix(1.70536 11.02357 -32.58119 5.04035 101.9 114.4)"/><path fill="#bfc7bb" d="M211 91.9l-40.9 9.4-7.2-31.2 41-9.4z"/><ellipse fill="#e3e9e0" cx="44" cy="90" rx="27" ry="6"/><ellipse fill="#898d85" cx="134" rx="51" ry="51"/><ellipse fill="#aea494" rx="1" ry="1" transform="matrix(-11.15146 34.13953 -10.7103 -3.49845 133.9 76.9)"/><ellipse fill="#4b4835" rx="1" ry="1" transform="matrix(-23.17968 3.84789 -5.90783 -35.58882 198.5 20.3)"/><path fill="#a5adac" d="M26 62h40v35H26z"/><path fill="#feffff" d="M121 97h50v3h-50z"/><path d="M70 78h5v48h-5z"/><path fill="#182730" d="M134.4 78.8l24.6-4.4 2.6 14.8-24.6 4.4z"/><ellipse fill="#8b95a0" rx="1" ry="1" transform="matrix(-7.68744 -11.17193 49.36167 -33.96595 74.7 6.9)"/><ellipse fill="#252833" rx="1" ry="1" transform="matrix(6.01722 2.06076 -10.07958 29.43135 123 58)"/><path fill="#adb0a9" d="M182.1 40.1L126-16l-6.5 12.7L201 79.4z"/><path fill="#1f0700" d="M158.1 64.8h-11l4.2-16.8 6.5-1.3z"/><path fill="#000102" d="M74 69l12-21 10 70z"/><path fill="#cdbba5" d="M17 33l1 11-27 9z"/></g></svg>