<svg xmlns="http://www.w3.org/2000/svg" viewBox="0 0 700 467"><filter id="b"><feGaussianBlur stdDeviation="12" /></filter><path fill="#4d3876" d="M0 0h700v464H0z"/><g filter="url(#b)" transform="translate(1.4 1.4) scale(2.73438)" fill-opacity=".5"><ellipse fill="#ecbeff" rx="1" ry="1" transform="matrix(-33.10185 25.48254 -41.0798 -53.36273 135.2 78.5)"/><ellipse cx="50" cy="169" rx="54" ry="54"/><path fill="#ff8eff" d="M35 85l130 46-181-14z"/><ellipse fill="#000049" cx="18" cy="44" rx="67" ry="53"/><ellipse cx="118" cy="169" rx="42" ry="42"/><ellipse fill="#d178e9" cx="218" cy="115" rx="86" ry="24"/><ellipse cx="249" cy="21" rx="18" ry="87"/><ellipse fill="#f6ffff" cx="207" cy="52" rx="21" ry="13"/><ellipse fill="#070700" rx="1" ry="1" transform="matrix(218.77275 21.77416 -3.66587 36.83227 146.5 169)"/><ellipse fill="#00003e" rx="1" ry="1" transform="matrix(-.88585 19.50788 -192.98859 -8.76356 142.4 6.7)"/><ellipse fill="#ecffff" cx="131" cy="63" rx="35" ry="9"/><ellipse fill="#00007e" rx="1" ry="1" transform="matrix(-100.60072 -1.76532 .11178 -6.37013 136 76.3)"/><ellipse fill="#fbd8d0" cx="107" cy="51" rx="21" ry="21"/><path fill="#fffdff" d="M45 94h15v26H45z"/><path fill="#05009e" d="M176.7 49.7l13.1 24.7-18.5 9.9-13.1-24.7z"/><path fill="#260045" d="M107 131l34-37-29 2z"/><ellipse fill="#8a7854" cx="200" cy="144" rx="68" ry="10"/><ellipse fill="#f9e4f2" cx="154" cy="90" rx="64" ry="5"/><ellipse fill="#00004a" cx="4" cy="43" rx="44" ry="44"/><path fill="#fff" d="M154 26h8v40h-8z"/><ellipse fill="#646ffa" cx="219" cy="54" rx="19" ry="19"/><path fill="#fff" d="M205.5 63.5l-16.9-2 1.9-15 16.9 2z"/></g></svg>