<svg xmlns="http://www.w3.org/2000/svg" viewBox="0 0 700 467"><filter id="b"><feGaussianBlur stdDeviation="12" /></filter><path fill="#4a6676" d="M0 0h700v464H0z"/><g filter="url(#b)" transform="translate(1.4 1.4) scale(2.73438)" fill-opacity=".5"><ellipse fill="#ecffff" cx="125" cy="47" rx="75" ry="27"/><ellipse rx="1" ry="1" transform="matrix(56.72873 -5.77599 3.29636 32.37515 224 107)"/><ellipse fill="#fff" cx="105" cy="121" rx="20" ry="99"/><ellipse cx="26" cy="107" rx="29" ry="29"/><ellipse fill="#f4e0ff" rx="1" ry="1" transform="matrix(-59.37077 22.02382 -6.12169 -16.50256 155.2 165)"/><ellipse cx="123" rx="158" ry="22"/><ellipse cx="76" cy="67" rx="6" ry="76"/><ellipse cx="180" cy="51" rx="4" ry="86"/><path fill="#86ffff" d="M15 10.5v79h-30v-79z"/><ellipse fill="#0e071a" rx="1" ry="1" transform="matrix(-2.35686 31.26552 -18.91288 -1.4257 140.7 83.9)"/><path fill="#e1d9f2" d="M126.2 140.8l2 17.3-65.7-.1L-6 141.4z"/><ellipse fill="#73ffff" cx="35" cy="52" rx="8" ry="29"/><ellipse fill="#00c0ff" rx="1" ry="1" transform="matrix(-8.5611 -.07471 .36623 -41.96561 243.8 42.5)"/><path fill="#102a35" d="M72 123h76v19H72z"/><ellipse cx="214" cy="109" rx="58" ry="24"/><ellipse cx="21" cy="45" rx="7" ry="92"/><ellipse cx="48" cy="48" rx="6" ry="82"/><path fill="#57fcff" d="M184 10h16v78h-16z"/><path fill="#32f9ff" d="M213 18h15v58h-15z"/><ellipse cx="232" cy="29" rx="5" ry="72"/><ellipse fill="#e5fef7" cx="150" cy="42" rx="22" ry="22"/><ellipse fill="#cdddfd" rx="1" ry="1" transform="matrix(5.33703 -2.44348 11.64813 25.44172 66.6 70.6)"/></g></svg>