<svg xmlns="http://www.w3.org/2000/svg" viewBox="0 0 200 133"><filter id="b"><feGaussianBlur stdDeviation="12" /></filter><path fill="#50322b" d="M0 0h200v133H0z"/><g filter="url(#b)" transform="translate(.5 .5)" fill-opacity=".5"><ellipse fill="#d09b2c" cx="104" cy="63" rx="82" ry="21"/><ellipse fill="#fbf" rx="1" ry="1" transform="matrix(102.04568 -1.16682 .09464 8.27715 83.9 131)"/><ellipse rx="1" ry="1" transform="rotate(-98.4 107.8 -62) scale(144.90755 20.28968)"/><path d="M189 35L-16-10l2 55z"/><ellipse cx="161" cy="100" rx="47" ry="23"/><ellipse cx="4" cy="96" rx="42" ry="19"/><ellipse fill="#efe500" cx="86" cy="58" rx="25" ry="15"/><path fill="#ffbd36" d="M8 35h10v42H8z"/><path fill="#ffd070" d="M30 32h11v37H30z"/><path fill="#ff9627" d="M191 81l-15-15 3-38z"/><path fill="#000014" d="M42 32h14v64H42z"/><ellipse fill="#000019" cx="117" cy="75" rx="6" ry="49"/><ellipse fill="#ff9bff" cx="91" cy="129" rx="94" ry="4"/><ellipse fill="#858273" cx="82" cy="90" rx="18" ry="23"/><path d="M78 69h12v31H78z"/><path fill="#27004f" d="M126 15l9 50 41-81z"/><path fill="#ff9250" d="M44.4-7.4l32-2.2 1.2 17-32 2.2z"/><ellipse rx="1" ry="1" transform="matrix(33.06647 64.0651 -16.99735 8.77299 192 23)"/><path fill="#bd4dcb" d="M127.6-2.9l20.5-4.7 4.3 18.5-20.5 4.7z"/><ellipse fill="#fbbd68" cx="127" cy="57" rx="6" ry="26"/><ellipse cx="155" cy="74" rx="3" ry="35"/><path fill="#ccbca6" d="M66 77h10v28H66z"/></g></svg>