<svg xmlns="http://www.w3.org/2000/svg" viewBox="0 0 700 467"><filter id="b"><feGaussianBlur stdDeviation="12" /></filter><path fill="#753884" d="M0 0h700v464H0z"/><g filter="url(#b)" transform="translate(1.4 1.4) scale(2.73438)" fill-opacity=".5"><ellipse fill="#ff6ef2" rx="1" ry="1" transform="matrix(-24.114 13.21746 -21.70253 -39.59422 82.3 96.2)"/><ellipse fill="#110c46" cx="223" cy="102" rx="67" ry="46"/><ellipse fill="#9dd280" rx="1" ry="1" transform="matrix(30.79416 1.73048 -1.66544 29.63675 250.8 30.4)"/><ellipse fill="#e95e75" rx="1" ry="1" transform="matrix(-1.0663 -37.4041 24.33663 -.69378 156.7 47.5)"/><ellipse fill="#383323" cx="196" cy="24" rx="28" ry="69"/><ellipse fill="#df3bff" rx="1" ry="1" transform="matrix(-.05765 -11.00939 33.92333 -.17762 200.2 156)"/><ellipse fill="#7b53ff" cx="122" cy="105" rx="24" ry="24"/><ellipse fill="#210000" cx="51" cy="167" rx="132" ry="9"/><ellipse fill="#7b17ff" rx="1" ry="1" transform="matrix(12.48961 -28.86179 16.35629 7.078 4 104)"/><ellipse fill="#eb64f8" cx="74" cy="147" rx="104" ry="5"/><ellipse fill="#e503ee" rx="1" ry="1" transform="rotate(81.6 30.3 124.4) scale(31.93581 9.41322)"/><ellipse fill="#1a006a" cx="59" cy="2" rx="65" ry="13"/><path fill="#d06967" d="M83 15h105v25H83z"/><ellipse fill="#8c9b9e" cx="4" cy="32" rx="39" ry="25"/><ellipse fill="#004" cx="194" rx="47" ry="13"/><ellipse fill="#7c50c3" rx="1" ry="1" transform="matrix(-6.0742 -.46738 3.59407 -46.70914 205.8 129)"/><ellipse fill="#a98a90" cx="99" cy="132" rx="25" ry="24"/><ellipse fill="#14002d" rx="1" ry="1" transform="matrix(-5.05714 -8.9603 33.12518 -18.69565 170.5 112.8)"/><path fill="#ec27cd" d="M271 73.6V58l-58 43.2L248.8 87z"/><ellipse fill="#f733d5" rx="1" ry="1" transform="matrix(-24.40448 -20.07277 11.78931 -14.33345 68.3 84.3)"/><path fill="#a9afa6" d="M206 14h50v18h-50z"/><ellipse fill="#7c166d" rx="1" ry="1" transform="matrix(-18.7421 -14.74858 24.02267 -30.52737 55.5 41.8)"/></g></svg>