<svg xmlns="http://www.w3.org/2000/svg" viewBox="0 0 200 133"><filter id="b"><feGaussianBlur stdDeviation="12" /></filter><path fill="#4b5090" d="M0 0h200v133H0z"/><g filter="url(#b)" transform="translate(.5 .5)" fill-opacity=".5"><ellipse fill="#b6a2ff" rx="1" ry="1" transform="rotate(10.5 -266.7 578.5) scale(75.49165 27.86883)"/><ellipse fill="#0b0e00" cx="27" cy="117" rx="38" ry="38"/><ellipse fill="#0e0e00" cx="173" cy="127" rx="41" ry="39"/><path fill="#87d6ff" d="M184.6 87.2l-.4-31.4V-4.6l30.8 90z"/><ellipse rx="1" ry="1" transform="rotate(91.3 64.4 63) scale(13.90346 199.00004)"/><ellipse fill="#061212" cx="135" cy="102" rx="175" ry="8"/><ellipse fill="#1636ff" rx="1" ry="1" transform="matrix(8.35566 -12.96545 30.37407 19.57475 140 33.5)"/><path d="M26.7 79.7l-14-.5 2.6-73 14 .6z"/><ellipse cx="177" cy="43" rx="6" ry="43"/><path fill="#c0cfbb" d="M133 129.5H65v-19h68z"/><ellipse fill="#7969ff" cx="68" cy="48" rx="39" ry="39"/><ellipse fill="#cfb4ff" cx="133" cy="65" rx="26" ry="20"/><path fill="#6fa9ff" d="M-16 42.4L16.3-8.4 14 51.8l-3.2 40.5z"/><path fill="#0c0000" d="M0 129h200v4H0z"/><ellipse fill="#1135e3" rx="1" ry="1" transform="rotate(-78.8 82.5 -4) scale(8.65981 51.40637)"/><ellipse fill="#2866ff" rx="1" ry="1" transform="matrix(7.53265 -2.49236 11.39713 34.44552 195.3 34.7)"/><path fill="#d28ef7" d="M28 39h50v25H28z"/><path fill="#e6f1ff" d="M192.7 81.5l-9-20 15.6-7 9 20z"/><path fill="#071020" d="M85.4 148l5.1-57.7 17.7 26.1L75.6 92z"/><path fill="#090a1a" d="M24 23l108-39L7-15z"/><path fill="#b4b3b5" d="M168.2 128.6l26.5-.1-11.7-4.2-13.9-12.6z"/><ellipse fill="#434e83" cx="45" cy="97" rx="22" ry="21"/></g></svg>