<svg xmlns="http://www.w3.org/2000/svg" viewBox="0 0 200 133"><filter id="b"><feGaussianBlur stdDeviation="12" /></filter><path fill="#462f25" d="M0 0h200v133H0z"/><g filter="url(#b)" transform="translate(.5 .5)" fill-opacity=".5"><ellipse fill="#ffffe3" rx="1" ry="1" transform="matrix(19.77754 -.16946 .246 28.71035 153 18.2)"/><ellipse fill="#0c0100" rx="1" ry="1" transform="matrix(-10.34598 -104.20651 33.89622 -3.36533 11 79)"/><ellipse fill="#ff253e" rx="1" ry="1" transform="matrix(-11.6481 -2.64638 4.45734 -19.61904 99 56.3)"/><ellipse fill="#0a080c" rx="1" ry="1" transform="rotate(117.2 45.7 106.5) scale(37.88951 41.70118)"/><path fill="#c5a78f" d="M206 33l-18 58-2-72z"/><ellipse fill="#c07a92" cx="58" cy="88" rx="12" ry="21"/><path fill="#d1af51" d="M68 0h19v31H68z"/><ellipse fill="#ffffe4" cx="166" cy="8" rx="6" ry="39"/><ellipse rx="1" ry="1" transform="matrix(-5.38538 -14.97236 21.33738 -7.6748 108.5 10.7)"/><path fill="#db768b" d="M37 43l8-19 24 38z"/><ellipse fill="#3b1000" cx="93" cy="125" rx="52" ry="26"/><path fill="#3a3b44" d="M140.2 64.3l-3.2 64.5 33.2-70.3-16.7-36z"/><ellipse rx="1" ry="1" transform="rotate(112.3 26.8 24.7) scale(28.37881 7.96014)"/><path fill="#f43641" d="M95.3 25.2l-2.5 52 2.6 7 21.9-33.8z"/><ellipse fill="#000002" rx="1" ry="1" transform="matrix(-17.96707 34.8702 -8.90344 -4.58755 190.5 0)"/><path fill="#bc9779" d="M117 73h13v15h-13z"/><path fill="#060007" d="M131 74.6l-25 .8-1-28 25-.8z"/><path fill="#fff3b8" d="M135 0h38v13h-38z"/><ellipse fill="#110800" rx="1" ry="1" transform="rotate(139.2 -10.3 46.5) scale(46.2596 25.58117)"/><path fill="#bbbf91" d="M94 25h9v12h-9z"/><path fill="#ae8393" d="M58.2 75.3l-8-30 9.6-2.6 8 30z"/><ellipse cx="199" cy="111" rx="24" ry="24"/></g></svg>