<svg xmlns="http://www.w3.org/2000/svg" viewBox="0 0 200 133"><filter id="b"><feGaussianBlur stdDeviation="12" /></filter><path fill="#783887" d="M0 0h200v133H0z"/><g filter="url(#b)" transform="translate(.5 .5)" fill-opacity=".5"><ellipse fill="#ea68f8" rx="1" ry="1" transform="rotate(126.3 16.3 57.9) scale(25.28728 39.41282)"/><ellipse fill="#140d48" cx="162" cy="78" rx="38" ry="38"/><ellipse fill="#8fbe74" rx="1" ry="1" transform="matrix(.3976 22.98162 -36.87737 .63802 199 24.5)"/><ellipse fill="#eb5f79" cx="122" cy="36" rx="19" ry="31"/><path fill="#302922" d="M177 49.2l-35.6 5.6-12.4-78 35.6-5.6z"/><ellipse fill="#240000" cx="50" cy="132" rx="96" ry="9"/><ellipse fill="#d13bff" rx="1" ry="1" transform="matrix(.78383 -8.78265 32.0189 2.85761 149.8 121.8)"/><path fill="#812bde" d="M67 120L4 53l-20 64z"/><path fill="#f0f" d="M124 50l-3 44-14-60z"/><ellipse fill="#5a3eef" rx="1" ry="1" transform="matrix(-16.22228 2.55368 -2.98225 -18.94478 98.6 81.7)"/><ellipse fill="#e26ef0" cx="99" cy="116" rx="92" ry="3"/><ellipse fill="#8caba9" cx="6" cy="26" rx="18" ry="19"/><path fill="#ff56e3" d="M47 46h23v41H47z"/><path fill="#b4752f" d="M127.4 63.3l11-6L149 29.9 129.5 2.6z"/><path fill="#210065" d="M-9 0l124-5-67 21z"/><ellipse fill="#000041" cx="155" rx="34" ry="10"/><path fill="#6337c6" d="M157 124l-17-8.6L159 78l17 8.6z"/><path fill="#41236d" d="M15 74h29v36H15z"/><ellipse fill="#1d1149" rx="1" ry="1" transform="matrix(11.92462 18.43265 -21.94083 14.19416 191.8 93.7)"/><ellipse fill="#b8948b" cx="74" cy="106" rx="15" ry="19"/><ellipse fill="#220243" rx="1" ry="1" transform="rotate(-115.6 94.9 3.2) scale(11.80166 29.86741)"/><path fill="#d624d1" d="M140.4 94L182 68.7l33-26.6-8.6 18.4z"/></g></svg>