<svg xmlns="http://www.w3.org/2000/svg" viewBox="0 0 200 133"><filter id="b"><feGaussianBlur stdDeviation="12" /></filter><path fill="#584b3b" d="M0 0h200v133H0z"/><g filter="url(#b)" transform="translate(.5 .5)" fill-opacity=".5"><ellipse fill="#ebffff" cx="123" cy="61" rx="35" ry="35"/><ellipse rx="1" ry="1" transform="rotate(-7.8 85.7 -570.5) scale(135.23583 28.98317)"/><path d="M209 119l-35-1L184-2zM0 0h29v121H0z"/><ellipse fill="#ebd0a5" rx="1" ry="1" transform="rotate(-82.2 123.4 -60.1) scale(52.95157 9.04653)"/><ellipse fill="#d3cdbd" rx="1" ry="1" transform="rotate(-66.7 115 -23) scale(9.3921 31.43559)"/><ellipse fill="#ffddb6" rx="1" ry="1" transform="rotate(90.8 -41.8 86) scale(5.82346 44.03131)"/><ellipse fill="#c2660a" rx="1" ry="1" transform="rotate(-29.5 137.1 -53.8) scale(31.15815 27.16237)"/><ellipse rx="1" ry="1" transform="matrix(-.42926 -27.32557 10.72618 -.1685 57.6 93.9)"/><path fill="#faffff" d="M33 78h15v22H33z"/><path fill="#ffc14a" d="M192 13h8v47h-8z"/><ellipse cx="63" cy="15" rx="89" ry="17"/><ellipse fill="#ffcb54" cx="67" cy="55" rx="6" ry="31"/><ellipse rx="1" ry="1" transform="matrix(-10.35462 2.29306 -1.78934 -8.08 141.4 92.4)"/><path fill="#e4feff" d="M152 79h21v21h-21z"/><path d="M0 80h34v37H0z"/><ellipse fill="#120500" rx="1" ry="1" transform="matrix(3.61753 32.22213 -9.49887 1.06642 83.2 55.2)"/><path fill="#ffffec" d="M85.8 73L81 102.7 70.2 101 75 71.3z"/><ellipse fill="#010000" rx="1" ry="1" transform="matrix(-21.32534 -56.39706 2.92517 -1.10609 173.8 80.6)"/><ellipse cx="59" cy="41" rx="4" ry="76"/><path fill="#fefbf0" d="M136.2 80.4l-7.5 21.7-18.9-6.5 7.5-21.7z"/><path fill="#ffebba" d="M172 46h8v26h-8z"/></g></svg>