<svg xmlns="http://www.w3.org/2000/svg" viewBox="0 0 200 133"><filter id="b"><feGaussianBlur stdDeviation="12" /></filter><path fill="#51555c" d="M0 0h200v133H0z"/><g filter="url(#b)" transform="translate(.5 .5)" fill-opacity=".5"><ellipse fill="#a8bcd2" cx="23" cy="55" rx="57" ry="57"/><ellipse cx="139" cy="107" rx="55" ry="55"/><path fill="#fff" d="M83.1 90.6L91 46.3l5.9 1L89 91.8z"/><ellipse fill="#6d727c" cx="65" cy="7" rx="53" ry="53"/><ellipse fill="#403833" cx="189" cy="38" rx="42" ry="95"/><ellipse fill="#000005" rx="1" ry="1" transform="rotate(-41.9 178.5 -124.1) scale(29.14829 37.93607)"/><ellipse fill="#a5b1c4" cx="43" cy="92" rx="30" ry="17"/><ellipse fill="#282929" cx="43" cy="125" rx="53" ry="16"/><path fill="#ffb084" d="M125 35h13v21h-13z"/><ellipse fill="#8998ac" cx="89" cy="7" rx="35" ry="14"/><path fill="#fffae1" d="M140 100h-12l1-9z"/><ellipse fill="#000a24" cx="80" cy="84" rx="5" ry="30"/><path fill="#666d7b" d="M155 60h29v33h-29z"/><path fill="#b4c0d3" d="M3.5 16.4l10 100.9L-16 5.3 56.7-16z"/><ellipse fill="#3d474c" cx="63" cy="37" rx="11" ry="22"/><ellipse fill="#9eacc0" cx="6" cy="86" rx="27" ry="27"/><path fill="#221e17" d="M164 24l-11 45-21-45z"/><path fill="#f2a27c" d="M92.9 31.5l5 5.1-2.4 23.8L84.9 41z"/><path fill="#8ca3c0" d="M80 84h15v9H80z"/><path fill="#00060c" d="M168 110l-24-70-31 43z"/><path fill="#cdfdff" d="M84.6 83.1l-1.9-.7 12.7-31.5 1.9.7z"/><path fill="#00040b" d="M91 84l9-36 56 48z"/></g></svg>