<svg xmlns="http://www.w3.org/2000/svg" viewBox="0 0 700 467"><filter id="b"><feGaussianBlur stdDeviation="12" /></filter><path fill="#2f3442" d="M0 0h700v464H0z"/><g filter="url(#b)" transform="translate(1.4 1.4) scale(2.73438)" fill-opacity=".5"><ellipse fill="#cebeca" cx="150" cy="129" rx="30" ry="30"/><ellipse cx="226" cy="53" rx="57" ry="200"/><ellipse fill="#a89cad" cx="150" cy="88" rx="23" ry="29"/><path fill="#aed2ff" d="M-1 26l-8 16 62-8z"/><ellipse fill="#4b5886" rx="1" ry="1" transform="matrix(-29.12828 -22.9217 58.41604 -74.23355 43.3 169)"/><ellipse fill="#bcd4ff" cx="28" cy="78" rx="40" ry="6"/><path fill="#e7c0db" d="M162.1 38l-9.8 8.4L140 32.1l9.8-8.5z"/><ellipse fill="#a5d8ff" rx="1" ry="1" transform="matrix(14.85626 2.1626 -.69604 4.78156 98.6 42)"/><path fill="#afa6b1" d="M120 138h27v32h-27z"/><path d="M104 50h28v47h-28z"/><path fill="#151c32" d="M0 110h199v11H0z"/><path fill="#bdfdff" d="M84 98h24v6H84z"/><ellipse fill="#57698a" rx="1" ry="1" transform="rotate(-103.7 48.8 42.3) scale(8.75642 43.70755)"/><ellipse fill="#c4c3f8" rx="1" ry="1" transform="matrix(-4.5935 -3.9612 9.32167 -10.80963 162.5 105.4)"/><path fill="#aba7b2" d="M175.8 150.3l-41.8-3.7 2.2-24.9 41.8 3.7z"/><ellipse fill="#000300" rx="1" ry="1" transform="matrix(-31.76548 -1.16479 1.73582 -47.33844 231.3 27.4)"/><path fill="#040b0d" d="M65.5 11v36h-21V11z"/><ellipse fill="#62689c" rx="1" ry="1" transform="matrix(-17.28701 21.73489 -12.74844 -10.13957 19.5 157.8)"/><ellipse fill="#a9d1ff" cx="35" cy="38" rx="10" ry="5"/><ellipse fill="#85afff" cx="109" cy="43" rx="17" ry="4"/><path d="M113 68h11v70h-11z"/><ellipse fill="#0c1110" cx="153" cy="6" rx="57" ry="13"/></g></svg>