<svg xmlns="http://www.w3.org/2000/svg" viewBox="0 0 700 467"><filter id="b"><feGaussianBlur stdDeviation="12" /></filter><path fill="#77776c" d="M0 0h700v464H0z"/><g filter="url(#b)" transform="translate(1.4 1.4) scale(2.73438)" fill-opacity=".5"><ellipse fill="#f6ffff" rx="1" ry="1" transform="matrix(1.63615 31.28923 -67.55646 3.5326 205.9 12)"/><ellipse fill="#fff" rx="1" ry="1" transform="matrix(-.95454 17.80333 -43.44164 -2.32917 138 101.4)"/><ellipse fill="#0e0800" rx="1" ry="1" transform="matrix(-56.94319 .48079 -.25592 -30.31041 41.6 18.5)"/><ellipse rx="1" ry="1" transform="rotate(90.4 -33.1 110.6) scale(94.04976 15.684)"/><ellipse fill="#080700" cx="192" cy="82" rx="19" ry="28"/><ellipse fill="#bec2bf" rx="1" ry="1" transform="matrix(26.3688 -13.08958 11.96687 24.1071 139.2 48.8)"/><ellipse fill="#312e13" rx="1" ry="1" transform="rotate(-88.4 130.3 21.3) scale(11.13317 129.49993)"/><ellipse fill="#fff" cx="144" cy="104" rx="43" ry="12"/><path fill="#fff" d="M120 129h41v11h-41z"/><ellipse fill="#4c4731" rx="1" ry="1" transform="matrix(18.35453 1.54127 -5.28938 62.98954 8.5 64)"/><path fill="#d3e8ff" d="M238.1 28.2l-67.5 8.3L166-2.2l67.5-8.3z"/><path fill="#070a0b" d="M71.4 75l-3.8 93 32.7-83.6-3.6-26.8z"/><path fill="#0a0b06" d="M154 135h35v17h-35z"/><ellipse fill="#6e6a4f" cx="77" cy="162" rx="133" ry="14"/><ellipse fill="#0946ac" cx="67" cy="50" rx="11" ry="19"/><ellipse fill="#fbd9a7" rx="1" ry="1" transform="rotate(86.1 80.2 137.6) scale(23.14555 6.51667)"/><path fill="#060a05" d="M214.7 118.8l-17.7 3.1-3.7-20.7 17.7-3.1z"/><path fill="#10140a" d="M120 114h38v4h-38z"/><path fill="#899197" d="M153.4 46.3L89.9 22l14.7-38.3L168.1 8z"/><ellipse fill="#fff" rx="1" ry="1" transform="matrix(3.23203 10.70501 -31.5866 9.53656 140.5 98.8)"/><ellipse fill="#101304" rx="1" ry="1" transform="matrix(.21653 -11.8956 16.87432 .30716 105 145.5)"/><path fill="#9d8e67" d="M26 37h34v100H26z"/></g></svg>