<svg xmlns="http://www.w3.org/2000/svg" viewBox="0 0 200 133"><filter id="b"><feGaussianBlur stdDeviation="12" /></filter><path fill="#434655" d="M0 0h200v133H0z"/><g filter="url(#b)" transform="translate(.5 .5)" fill-opacity=".5"><ellipse fill="#acfaff" cx="98" cy="46" rx="26" ry="23"/><ellipse fill="#f6ae8d" rx="1" ry="1" transform="matrix(.04893 13.97407 -33.84897 .11852 182.8 103.7)"/><ellipse fill="#ffffec" rx="1" ry="1" transform="matrix(-6.71958 -3.17633 7.31586 -15.47682 78.8 97)"/><ellipse fill="#002869" cx="29" cy="21" rx="33" ry="61"/><ellipse fill="#002f72" cx="181" cy="34" rx="47" ry="47"/><ellipse fill="red" cx="13" cy="104" rx="14" ry="9"/><path fill="#fffff1" d="M36 90h15v24H36z"/><ellipse fill="#740100" rx="1" ry="1" transform="matrix(.25265 -7.71893 57.1546 1.87075 102.5 75.4)"/><path fill="#0f0100" d="M0 115h84v18H0z"/><ellipse fill="#61b4ff" cx="98" cy="53" rx="26" ry="15"/><ellipse fill="#2a0f00" cx="181" cy="132" rx="68" ry="19"/><ellipse fill="#0065a8" cx="16" cy="16" rx="25" ry="25"/><ellipse fill="#0e6eb1" rx="1" ry="1" transform="matrix(-21.09339 -9.39138 10.9828 -24.66777 184 12.5)"/><ellipse fill="#fff" rx="1" ry="1" transform="matrix(8.70698 6.75383 -3.59703 4.63726 76.1 106.7)"/><ellipse fill="#662407" rx="1" ry="1" transform="matrix(14.90638 32.26037 -17.8026 8.22595 109 100.5)"/><ellipse fill="#001831" rx="1" ry="1" transform="matrix(-5.6243 -29.2066 24.61533 -4.74017 38.4 57.7)"/><ellipse fill="#001639" cx="157" cy="59" rx="23" ry="23"/><ellipse fill="#8e5322" rx="1" ry="1" transform="matrix(.09623 7.39924 -27.19848 .35374 54 93.4)"/><path fill="#fff" d="M40.3 94.3l7.9 5.3 3.7 14.5-16.6-2.2z"/><path fill="#f2d7c1" d="M114.2 34.5l-26 1-.4-14 26-1z"/><ellipse fill="#845136" cx="129" cy="32" rx="7" ry="61"/><path fill="#6c4934" d="M76 41.2l21.6-1.6L59.6 2l-.2 143.5z"/></g></svg>