<svg xmlns="http://www.w3.org/2000/svg" viewBox="0 0 700 467"><filter id="b"><feGaussianBlur stdDeviation="12" /></filter><path fill="#951e5d" d="M0 0h700v464H0z"/><g filter="url(#b)" transform="translate(1.4 1.4) scale(2.73438)" fill-opacity=".5"><ellipse fill="#ff1bff" rx="1" ry="1" transform="matrix(21.72523 48.16595 -97.31633 43.89449 66.5 18.3)"/><ellipse fill="#270e0f" rx="1" ry="1" transform="rotate(-172.9 62.3 70.2) scale(98.89488 47.27642)"/><ellipse fill="#000a00" rx="1" ry="1" transform="matrix(15.09825 -42.0448 23.209 8.33433 187 29.4)"/><ellipse fill="#ff14ff" cx="59" rx="65" ry="65"/><ellipse fill="#3e6a40" rx="1" ry="1" transform="matrix(46.37575 -4.38805 7.08027 74.82892 255 48.4)"/><ellipse fill="#ff0d03" rx="1" ry="1" transform="matrix(29.35307 37.56829 -16.7227 13.06588 200.7 110.2)"/><ellipse fill="#ff0436" rx="1" ry="1" transform="matrix(-10.26524 -21.23468 26.89547 -13.00178 97.4 94)"/><ellipse fill="#b1bca9" rx="1" ry="1" transform="matrix(-24.8814 -16.21631 8.66475 -13.29471 235.1 34)"/><ellipse fill="#300" cx="248" cy="118" rx="19" ry="42"/><ellipse fill="#05181b" cx="51" cy="120" rx="24" ry="36"/><ellipse fill="#ff425e" rx="1" ry="1" transform="matrix(19.36414 -7.80144 11.85408 29.4233 3.6 105.4)"/><ellipse fill="#d26dca" cx="105" cy="45" rx="25" ry="30"/><ellipse fill="#ff0009" cx="136" cy="89" rx="69" ry="9"/><ellipse fill="#c41961" cx="94" cy="155" rx="27" ry="16"/><ellipse fill="#ff0123" rx="1" ry="1" transform="matrix(14.231 5.5938 -11.4836 29.21507 189.4 92.2)"/><path fill="#e7a58e" d="M218 75.8l4.4 8 4.5 28.1-24.5-.2z"/><path fill="#ff3d35" d="M156.6 156.9l-7.9-20.6 18.7-7.2 7.9 20.6z"/><ellipse fill="#291430" cx="131" cy="116" rx="26" ry="26"/><path fill="#0c0814" d="M185 160l-26-59 49 34z"/><ellipse fill="#de3c76" rx="1" ry="1" transform="matrix(-9.78711 -16.20022 30.632 -18.50585 31.7 78)"/><ellipse fill="#454448" cx="147" cy="65" rx="31" ry="17"/><ellipse fill="#ff0025" rx="1" ry="1" transform="matrix(-31.56504 -9.71728 1.3689 -4.44668 255 128.5)"/></g></svg>