<svg xmlns="http://www.w3.org/2000/svg" viewBox="0 0 200 133"><filter id="b"><feGaussianBlur stdDeviation="12" /></filter><path fill="#8a2316" d="M0 0h200v133H0z"/><g filter="url(#b)" transform="translate(.5 .5)" fill-opacity=".5"><ellipse fill="#ff3624" cx="80" cy="37" rx="34" ry="34"/><ellipse fill="#000216" cx="187" cy="81" rx="46" ry="30"/><ellipse rx="1" ry="1" transform="matrix(-9.71801 -33.05759 41.06455 -12.07183 12.3 4.3)"/><ellipse fill="#ff5955" cx="110" cy="117" rx="140" ry="13"/><ellipse fill="#150000" rx="1" ry="1" transform="rotate(-25.4 130.5 -387.6) scale(28.79931 110.7461)"/><ellipse fill="#180f16" rx="1" ry="1" transform="matrix(84.08184 -12.89868 2.74158 17.87134 15.3 95.3)"/><ellipse fill="#e84709" cx="125" cy="45" rx="35" ry="35"/><path fill="#ffe800" d="M45.6 79.6L17.4 41.4l-1.6-12.7 42 49.3z"/><ellipse fill="#ff3124" cx="79" cy="33" rx="27" ry="34"/><path fill="#ffc200" d="M141 39.3l13.1 16.2-18.4 30.2-9-3.5z"/><path fill="#350000" d="M97-8l15 51 24 9z"/><path fill="#210000" d="M37 81L-12-6 12 96z"/><ellipse cx="159" cy="90" rx="16" ry="18"/><path fill="#915d95" d="M188 113l-17 1 8-61z"/><path fill="#000017" d="M44.2 124.7L32.9 133l-7-9.7L37 115z"/><path fill="#ffbd23" d="M8 115h19v17H8z"/><path fill="#090011" d="M115 135l-14.5-12.3 6.4-7.6 14.6 12.2z"/><path fill="#5f0200" d="M151 5h35v55h-35z"/><ellipse fill="#410013" rx="1" ry="1" transform="matrix(-12.52213 26.97662 -9.63905 -4.4743 75.7 89.7)"/><ellipse fill="#00000a" cx="140" cy="98" rx="27" ry="5"/><path fill="#e23422" d="M50 37h23v57H50z"/><ellipse fill="#ff4b42" cx="170" cy="119" rx="59" ry="8"/></g></svg>