<svg xmlns="http://www.w3.org/2000/svg" viewBox="0 0 200 133"><filter id="b"><feGaussianBlur stdDeviation="12" /></filter><path fill="#50322b" d="M0 0h200v133H0z"/><g filter="url(#b)" transform="translate(.5 .5)" fill-opacity=".5"><ellipse fill="#ffeb16" cx="84" cy="63" rx="30" ry="21"/><ellipse fill="#ffcdff" cx="79" cy="129" rx="105" ry="6"/><ellipse fill="#000001" cx="110" cy="25" rx="193" ry="17"/><ellipse rx="1" ry="1" transform="matrix(60.5525 -4.55323 1.54467 20.54234 163 99.2)"/><path fill="#e08a38" d="M122 48h63v28h-63z"/><ellipse fill="#ca8631" cx="26" cy="55" rx="20" ry="20"/><ellipse cy="98" rx="39" ry="22"/><path d="M31.2 36.2L17.7 113l-7-1.2L24.4 35z"/><path fill="#ffc971" d="M122 84l1-60 15 56z"/><ellipse fill="#7a766f" rx="1" ry="1" transform="matrix(2.57133 24.8822 -18.58835 1.92092 83.3 93.9)"/><ellipse rx="1" ry="1" transform="rotate(-113 104 -59) scale(134.52695 30.27361)"/><path fill="#691a98" d="M161.8 29l-33-1 1.4-37 33 1z"/><ellipse rx="1" ry="1" transform="rotate(128.1 3.2 9.6) scale(73.15148 18.3603)"/><ellipse fill="#ff90ff" cx="74" cy="129" rx="108" ry="4"/><path fill="#ffc86a" d="M30 31h11v35H30z"/><ellipse fill="#ffb960" cx="146" cy="62" rx="5" ry="25"/><path d="M133 39h8v35h-8z"/><ellipse fill="#1e0919" cx="83" cy="96" rx="7" ry="29"/><path fill="#ff9852" d="M46 0h31v8H46z"/><path fill="#e78966" d="M138.3 18.4L141-3l-29 16.5-9-23.4z"/><path d="M42 26h7v75h-7z"/><ellipse fill="#000008" rx="1" ry="1" transform="matrix(-27.87595 -112.9387 3.17518 -.7837 174.3 65.5)"/></g></svg>