<svg xmlns="http://www.w3.org/2000/svg" viewBox="0 0 200 133"><filter id="b"><feGaussianBlur stdDeviation="12" /></filter><path fill="#918f8d" d="M0 0h200v133H0z"/><g filter="url(#b)" transform="translate(.5 .5)" fill-opacity=".5"><ellipse fill="#fff" rx="1" ry="1" transform="matrix(6.45005 -39.38812 92.87047 15.20812 125 17.1)"/><ellipse fill="#180f0d" cx="145" cy="95" rx="199" ry="21"/><ellipse fill="#f9ffff" rx="1" ry="1" transform="matrix(79.24109 13.13845 -5.68692 34.29915 104.6 9.1)"/><path fill="#472b0e" d="M-16 34l98 20L2-6z"/><ellipse fill="#505957" cx="199" cy="99" rx="39" ry="39"/><path fill="#61150a" d="M33 68l3 74L61 41z"/><ellipse fill="#837d62" rx="1" ry="1" transform="rotate(-173.3 6.4 50.6) scale(26.52706 44.22337)"/><path fill="#f1eac8" d="M0 42h39v17H0z"/><path fill="#d0e3fb" d="M215 3l-81-19 20 102z"/><path fill="#191c13" d="M35 92h106v21H35z"/><path fill="#616461" d="M150 148l39-114 26 91z"/><ellipse fill="#e6bd1e" cx="82" cy="98" rx="8" ry="9"/><path fill="#3d3329" d="M134.8 84.3l15.4 5-16.4-45.1-5.2 13.6z"/><path fill="#e3f2ff" d="M77.6 13.5l36.5-22.8 32.3 51.8-36.5 22.8z"/><path fill="#e8f4ff" d="M117.7 50.8l84.6-61.7L-14.5-16 12.3 4z"/><ellipse fill="#ff131a" rx="1" ry="1" transform="matrix(-.22281 -8.14814 7.37102 -.20156 41.4 79.1)"/><path fill="#a4a8aa" d="M170 81l45 41-46-21z"/><path fill="#061025" d="M158.8 104.5l16.3-24.4-17.7-8.8-.2 15.7z"/><path fill="#5eb3ff" d="M147 81h10v16h-10z"/><ellipse fill="#1c160b" cx="193" cy="70" rx="18" ry="7"/><ellipse fill="#7e7a6b" cy="89" rx="34" ry="34"/><ellipse fill="#5d3532" rx="1" ry="1" transform="matrix(-22.44844 -4.14386 2.43653 -13.19938 78.3 79)"/></g></svg>