<svg xmlns="http://www.w3.org/2000/svg" viewBox="0 0 200 133"><filter id="b"><feGaussianBlur stdDeviation="12" /></filter><path fill="#76797a" d="M0 0h200v133H0z"/><g filter="url(#b)" transform="translate(.5 .5)" fill-opacity=".5"><ellipse rx="1" ry="1" transform="rotate(165.7 40.5 57) scale(27.23476 49.33336)"/><ellipse fill="#e6dedc" rx="1" ry="1" transform="matrix(23.88755 -91.14133 37.55637 9.84328 44.2 28.6)"/><path d="M31 24h26v53H31z"/><ellipse fill="#1c1d1b" cx="187" cy="104" rx="118" ry="22"/><ellipse fill="#fff8f6" rx="1" ry="1" transform="matrix(-16.98748 7.03645 -13.31965 -32.15648 67.9 24.5)"/><path fill="#141819" d="M178-16l37 99-29-1z"/><ellipse fill="#fef8f3" cx="158" cy="41" rx="5" ry="55"/><ellipse fill="#e1e1e2" cx="37" cy="93" rx="31" ry="17"/><ellipse fill="#000813" rx="1" ry="1" transform="matrix(46.80878 -3.91146 .75013 8.97686 32.5 132)"/><ellipse fill="#060509" rx="1" ry="1" transform="rotate(-29.9 217.3 -130.8) scale(24.5708 40.54125)"/><ellipse fill="#e1e0df" cx="17" cy="22" rx="13" ry="103"/><ellipse fill="#a2bebe" rx="1" ry="1" transform="matrix(-13.35657 1.80423 -4.22932 -31.3093 109.8 28)"/><path fill="#dbcbdf" d="M82 128h88v5H82z"/><ellipse fill="#163c53" rx="1" ry="1" transform="matrix(-7.26717 -1.13704 1.14285 -7.3043 34.8 110.1)"/><path fill="#b4c0bd" d="M156.2 92.1l-4.6-60.4 33.3 59.8-32.6.2z"/><ellipse fill="#3a3d3d" cx="143" cy="20" rx="9" ry="76"/><ellipse fill="#39424a" cx="2" cy="100" rx="5" ry="93"/><ellipse fill="#fffffe" cx="153" cy="7" rx="3" ry="32"/><path fill="#dce1e4" d="M71 97l-26 26-8-10z"/><ellipse fill="#a08f86" rx="1" ry="1" transform="matrix(-14.00768 -7.59081 1.89451 -3.49604 85.4 53.7)"/><path fill="#0d1d2b" d="M79.3 87.4l8 48.7-33.8-43.6L66 131z"/><ellipse fill="#e3d0cc" cx="100" cy="31" rx="4" ry="31"/></g></svg>