<svg xmlns="http://www.w3.org/2000/svg" viewBox="0 0 200 133"><filter id="b"><feGaussianBlur stdDeviation="12" /></filter><path fill="#444f69" d="M0 0h200v133H0z"/><g filter="url(#b)" transform="translate(.5 .5)" fill-opacity=".5"><ellipse fill="#0fe5ff" cx="158" cy="43" rx="48" ry="38"/><ellipse fill="#7b0000" cx="146" cy="111" rx="70" ry="33"/><path fill="#fff" d="M51 64h27v56H51z"/><ellipse rx="1" ry="1" transform="matrix(-13.96587 -1.69006 14.50274 -119.84416 13.8 69.6)"/><ellipse fill="#820000" rx="1" ry="1" transform="rotate(-175.2 50.6 28.2) scale(12.75723 93.73874)"/><ellipse fill="#26a8ff" rx="1" ry="1" transform="matrix(17.37472 -16.10181 37.66831 40.64612 155.4 39.5)"/><ellipse fill="#fff" cx="199" cy="75" rx="90" ry="6"/><ellipse fill="#1998f8" rx="1" ry="1" transform="matrix(9.71376 1.46907 -12.08366 79.8995 40.3 31.5)"/><ellipse fill="#5a0000" cx="152" cy="111" rx="77" ry="31"/><path fill="#a2ffff" d="M13.9-10L-.4 40-14 36 .4-14z"/><ellipse fill="#000023" rx="1" ry="1" transform="matrix(-21.6066 10.47772 -31.12202 -64.17818 19.3 112.1)"/><ellipse fill="#0083ed" cx="170" cy="55" rx="61" ry="19"/><ellipse fill="#c39470" rx="1" ry="1" transform="matrix(11.04304 -68.94402 8.34568 1.33676 79.7 38.3)"/><ellipse fill="#a30000" cx="98" cy="50" rx="9" ry="56"/><ellipse fill="#000f34" cx="64" cy="30" rx="8" ry="33"/><path fill="#16cbff" d="M128 52.4l-1 22-15-.8 1-22z"/><ellipse fill="#edecef" rx="1" ry="1" transform="rotate(-134.4 48 22.4) scale(10.03533 13.11688)"/><path fill="#5f1100" d="M215 17l-19-30-62 13z"/><ellipse fill="#870000" cx="118" cy="91" rx="36" ry="13"/><ellipse fill="#080200" rx="1" ry="1" transform="matrix(2.96757 -45.21755 5.37633 .35284 107.8 45)"/><ellipse fill="#23b2ff" cx="123" cy="27" rx="9" ry="47"/><path fill="#004c93" d="M42.7 97.7l26-65.7-49.1 63 8.3 53z"/></g></svg>