<svg xmlns="http://www.w3.org/2000/svg" viewBox="0 0 700 467"><filter id="b"><feGaussianBlur stdDeviation="12" /></filter><path fill="#4c4f54" d="M0 0h700v464H0z"/><g filter="url(#b)" transform="translate(1.4 1.4) scale(2.73438)" fill-opacity=".5"><ellipse fill="#fff" cx="123" cy="169" rx="58" ry="58"/><ellipse fill="#fff" rx="1" ry="1" transform="matrix(208.22023 -16.58905 .82244 10.32296 130.7 151.7)"/><ellipse cx="22" cy="21" rx="97" ry="97"/><ellipse fill="#fffff9" rx="1" ry="1" transform="matrix(1.17506 34.27262 -11.84842 .40623 108 99.8)"/><path fill="#fff" d="M134 108l13-61 11 109z"/><ellipse fill="#000a22" cx="129" cy="7" rx="246" ry="52"/><ellipse fill="#3d0000" cx="63" cy="121" rx="33" ry="33"/><ellipse fill="#fff" cx="213" cy="145" rx="48" ry="11"/><ellipse cx="153" cy="169" rx="73" ry="9"/><ellipse fill="#fffffc" cx="27" cy="163" rx="39" ry="18"/><ellipse fill="#e4f4fc" cx="242" cy="102" rx="8" ry="52"/><ellipse fill="#0d0926" cx="194" cy="98" rx="40" ry="40"/><path fill="#000400" d="M132.8 138.9l-15-17.1 9-98.6 9.6 72.8z"/><ellipse fill="#e7f3e6" cx="20" cy="125" rx="6" ry="37"/><path fill="#00002d" d="M159 69h21v72h-21z"/><path fill="#fff" d="M73.2 165.6L69.4 142l47.4-7.5 3.8 23.7z"/><path d="M8 113h8v49H8z"/><ellipse fill="#ffffce" cx="109" cy="120" rx="12" ry="43"/><ellipse fill="#000100" cx="82" cy="110" rx="15" ry="29"/><ellipse fill="#010600" cx="17" cy="36" rx="74" ry="40"/><path fill="#f8ffd9" d="M158 80l-20-25-3 79z"/><path fill="#a3122d" d="M53 57l-9 96 30 1z"/></g></svg>