<svg xmlns="http://www.w3.org/2000/svg" viewBox="0 0 700 467"><filter id="b"><feGaussianBlur stdDeviation="12" /></filter><path fill="#6e706f" d="M0 0h700v464H0z"/><g filter="url(#b)" transform="translate(1.4 1.4) scale(2.73438)" fill-opacity=".5"><ellipse fill="#fff" rx="1" ry="1" transform="rotate(91.2 48 68.9) scale(36.41175 250.67925)"/><ellipse cx="115" cy="132" rx="158" ry="68"/><ellipse fill="#b7b4ad" rx="1" ry="1" transform="rotate(113.9 61.1 109.9) scale(65.46123 18.94494)"/><ellipse fill="#fcffff" rx="1" ry="1" transform="rotate(93.8 61.6 71.7) scale(28.01234 131.69278)"/><ellipse fill="#080603" rx="1" ry="1" transform="rotate(-44.9 190.5 -88.6) scale(83.80676 19.2579)"/><path fill="#fff" d="M135.9 146.3L140 176l-11.9 1.7L124 148z"/><path fill="#fdfff5" d="M44 110h20v20H44z"/><ellipse fill="#0d0c00" rx="1" ry="1" transform="matrix(26.77655 32.40654 -28.88974 23.87072 223.4 146.5)"/><path fill="#9f845e" d="M49.6 32.7L75.8 63 52.4 83.3 26.2 53z"/><path fill="#0c0400" d="M116 37h12v108h-12z"/><path fill="#a3a097" d="M33 55l-49-6 22 69z"/><path fill="#dadbe8" d="M168 93l19-15-7 72z"/><ellipse fill="#000101" cx="87" cy="85" rx="27" ry="27"/><ellipse fill="#131610" rx="1" ry="1" transform="rotate(119.4 -10.3 63.8) scale(32.62746 14.81878)"/><ellipse fill="#0b0d07" rx="1" ry="1" transform="matrix(-58.96412 6.52752 -4.22285 -38.14567 60.2 169)"/><path fill="#434129" d="M185 88h67v41h-67z"/><path fill="#ad917c" d="M130.9 42l72.9 45-33.9-10.2-62-31.3z"/><ellipse fill="#e7f9ff" cx="142" cy="15" rx="98" ry="23"/><ellipse fill="#807e8a" rx="1" ry="1" transform="matrix(-16.48928 7.95584 -9.7593 -20.22713 164.6 141.8)"/><ellipse fill="#1b0c00" rx="1" ry="1" transform="matrix(6.5354 -10.62313 3.57707 2.20063 44.4 44.2)"/><path fill="#e9f3fe" d="M125.3-16L96.4 51.3l16.4 21.9 1.5-41.5z"/><ellipse fill="#9c877a" rx="1" ry="1" transform="matrix(-26.31047 14.04108 -8.2121 -15.38802 235.7 76.2)"/></g></svg>