<svg xmlns="http://www.w3.org/2000/svg" viewBox="0 0 200 133"><filter id="b"><feGaussianBlur stdDeviation="12" /></filter><path fill="#8e8b83" d="M0 0h200v133H0z"/><g filter="url(#b)" transform="translate(.5 .5)" fill-opacity=".5"><ellipse fill="#000600" cx="60" cy="7" rx="48" ry="48"/><ellipse fill="#eff6ff" rx="1" ry="1" transform="matrix(72.97716 13.47608 -2.86615 15.52112 137 95.2)"/><ellipse fill="#400801" cx="180" cy="69" rx="54" ry="15"/><path fill="#eedcf0" d="M131 57L60 41l116-20z"/><ellipse fill="#c3c9ce" rx="1" ry="1" transform="matrix(-1.17032 49.85938 -27.73222 -.65094 24.8 91.8)"/><ellipse fill="#122400" rx="1" ry="1" transform="rotate(-10.3 115 -305.3) scale(40.64205 23.16987)"/><path fill="#5d1300" d="M95 12h20v53H95z"/><path fill="#521901" d="M154 37h26v42h-26z"/><ellipse fill="#d6bfa1" rx="1" ry="1" transform="matrix(17.5903 -12.9216 52.19455 71.05292 188.9 22.9)"/><ellipse fill="#a3b8cc" rx="1" ry="1" transform="matrix(50.00209 38.36795 -25.72643 33.52734 111.2 119.1)"/><ellipse fill="#450500" rx="1" ry="1" transform="matrix(26.9371 5.27259 -1.25863 6.4302 124.7 63.7)"/><path fill="#abb0b0" d="M67 37l22 100 6-114z"/><ellipse fill="#c3c4dd" cx="182" cy="63" rx="9" ry="8"/><path d="M45 70h27v6H45z"/><ellipse fill="#4b7c9a" cx="80" cy="119" rx="37" ry="12"/><path fill="#150400" d="M0 22h6v46H0z"/><ellipse fill="#dfd9dd" cx="129" cy="88" rx="33" ry="17"/><path fill="#ecebea" d="M127 0h11v56h-11z"/><ellipse fill="#212e00" rx="1" ry="1" transform="matrix(5.89178 -21.5995 27.33915 7.4574 47.6 23)"/><ellipse fill="#202400" cx="99" cy="18" rx="26" ry="9"/><ellipse fill="#b5b6b6" rx="1" ry="1" transform="matrix(.76101 27.2446 -23.04692 .64376 189.7 119)"/><ellipse fill="#b29963" cx="101" cy="1" rx="48" ry="6"/></g></svg>