<svg xmlns="http://www.w3.org/2000/svg" viewBox="0 0 200 133"><filter id="b"><feGaussianBlur stdDeviation="12" /></filter><path fill="#44492b" d="M0 0h200v133H0z"/><g filter="url(#b)" transform="translate(.5 .5)" fill-opacity=".5"><ellipse fill="#b2accf" cx="98" cy="66" rx="16" ry="43"/><ellipse fill="#ffb31b" cx="122" cy="130" rx="190" ry="12"/><ellipse fill="#ff0" rx="1" ry="1" transform="matrix(-2.75548 16.4661 -19.8703 -3.32515 128.2 0)"/><ellipse fill="#001728" cx="30" cy="12" rx="63" ry="63"/><path fill="#000a01" d="M137 22l78 22L63 77z"/><ellipse fill="#ffeff9" rx="1" ry="1" transform="matrix(6.4223 .21124 -.50095 15.23054 61.7 65.5)"/><ellipse cx="139" cy="89" rx="17" ry="31"/><path fill="#0047b2" d="M58 12.3l35.6 13-9.5 26.4-35.7-13z"/><path fill="#d5d6d9" d="M83 79h28v25H83z"/><path fill="#fff9ff" d="M89 31h21v21H89z"/><ellipse fill="#000200" rx="1" ry="1" transform="rotate(-175.9 7.3 14.2) scale(17.55827 49.01319)"/><path fill="#1c0009" d="M32 84h39v38H32z"/><path fill="#bcdb00" d="M182 27l33-27-46 13z"/><path fill="#b5c37a" d="M28 105l-33 1 24-28z"/><path fill="#98a81a" d="M39 16h12v29H39z"/><path fill="#dcdc6b" d="M166.6 96.6l4-3.9L215 105l-36.8-.5z"/><path fill="#ffff28" d="M110.3-13.5l29.9 3.1-2.5 23.9-29.9-3.1z"/><path fill="#0e0c10" d="M93.2 45l9.1 21-23.6 18.3-28.4 24.2z"/><path fill="#f1ebff" d="M58 64h9v23h-9z"/><ellipse fill="#ecddb0" cx="86" cy="100" rx="3" ry="26"/><ellipse fill="#033115" cx="198" cy="48" rx="87" ry="25"/><path fill="#d0d2e4" d="M112 99l-1-29-16-2z"/></g></svg>