<svg xmlns="http://www.w3.org/2000/svg" viewBox="0 0 200 133"><filter id="b"><feGaussianBlur stdDeviation="12" /></filter><path fill="#595e62" d="M0 0h200v133H0z"/><g filter="url(#b)" transform="translate(.5 .5)" fill-opacity=".5"><ellipse fill="#bfd2f4" rx="1" ry="1" transform="matrix(-10.63976 -28.73854 33.44433 -12.38196 48.3 62.2)"/><ellipse cx="59" rx="105" ry="36"/><ellipse fill="#a8eebe" rx="1" ry="1" transform="matrix(-45.82007 -26.94785 14.64031 -24.89327 141.4 116.8)"/><ellipse fill="#a6cdff" rx="1" ry="1" transform="matrix(.59697 -21.37194 34.26787 .95719 189.7 23)"/><ellipse rx="1" ry="1" transform="rotate(75.2 49.1 161.7) scale(29.88001 21.78181)"/><path d="M64 85h23v48H64z"/><ellipse fill="#d6d8ff" rx="1" ry="1" transform="matrix(8.18285 .24249 -.56763 19.15466 162.3 68.8)"/><ellipse fill="#f8e0d7" rx="1" ry="1" transform="matrix(-8.01035 -.1678 .49007 -23.39578 103.2 59)"/><ellipse fill="#200" cx="115" cy="17" rx="41" ry="26"/><path fill="#d6caa2" d="M35 96h30v37H35z"/><ellipse fill="#0656fa" rx="1" ry="1" transform="matrix(8.73174 -2.53435 10.09802 34.79122 104.8 116.6)"/><ellipse fill="#020000" rx="1" ry="1" transform="rotate(67.9 -4.4 16.8) scale(25.20323 67.00107)"/><ellipse fill="#fff" cx="5" cy="73" rx="10" ry="9"/><path fill="#fff" d="M63.9 36.6l1.4-8.9L76 29.4l-1.4 8.9z"/><ellipse rx="1" ry="1" transform="matrix(20.83398 9.67081 -12.16923 26.21637 193.8 72.2)"/><path d="M-16 132l35-60 9 17z"/><path fill="#004de6" d="M152.4 94.4l7.6-11.7 53.6 34.9-7.6 11.7z"/><ellipse fill="#ddd57f" rx="1" ry="1" transform="matrix(37.96746 18.18923 -9.52424 19.88052 152.5 132)"/><path fill="#00001d" d="M113 65h39v16h-39z"/><path fill="#420d00" d="M93 76l6-74-45-18z"/><path fill="#89fa00" d="M207 19l-56 22 14-18z"/><ellipse cx="169" cy="47" rx="23" ry="5"/></g></svg>