<svg xmlns="http://www.w3.org/2000/svg" viewBox="0 0 700 467"><filter id="b"><feGaussianBlur stdDeviation="12" /></filter><path fill="#736d75" d="M0 0h700v464H0z"/><g filter="url(#b)" transform="translate(1.4 1.4) scale(2.73438)" fill-opacity=".5"><ellipse fill="#f8ffff" rx="1" ry="1" transform="rotate(-.6 15284 -14178.4) scale(95.94258 22.68379)"/><ellipse fill="#1d130c" rx="1" ry="1" transform="rotate(-165.9 42.2 32.7) scale(33.63713 70.26453)"/><ellipse fill="#daffff" rx="1" ry="1" transform="matrix(-11.41835 12.60406 -29.09885 -26.36141 207 68.6)"/><ellipse rx="1" ry="1" transform="matrix(-.82279 -16.82313 59.83317 -2.92633 139.5 24)"/><ellipse fill="#fde2ff" cx="124" cy="58" rx="17" ry="17"/><ellipse fill="#f9ffff" cx="47" cy="39" rx="32" ry="5"/><ellipse fill="#3a191d" rx="1" ry="1" transform="matrix(56.00501 -30.51246 9.31965 17.10604 126.6 91.5)"/><path fill="#c5f0ee" d="M52 111h14v37H52z"/><ellipse fill="#30243f" cx="15" cy="77" rx="75" ry="33"/><ellipse fill="#b5bbd0" cx="239" cy="102" rx="17" ry="43"/><path fill="#bdecff" d="M231.4 46.3L188.8 36l34-5.8 36 .2z"/><ellipse fill="#920001" rx="1" ry="1" transform="matrix(-16.9456 -9.34737 5.82097 -10.55269 178.7 107.5)"/><path fill="#fff" d="M208 147h31v23h-31z"/><ellipse fill="#000d00" rx="1" ry="1" transform="matrix(14.33684 5.20177 -7.2375 19.94764 82 58.1)"/><path fill="#880300" d="M254.8 150l-.5-38-23.7 73h29.2z"/><ellipse fill="#001514" rx="1" ry="1" transform="matrix(-12.39505 2.23022 -4.28832 -23.83349 163.4 63)"/><ellipse fill="#b1d3c5" cx="134" cy="150" rx="63" ry="33"/><path fill="#edffff" d="M237 79l-53-9-20-38z"/><ellipse fill="#100" cx="78" cy="22" rx="25" ry="12"/><path fill="#735f39" d="M237.6 104.3l-35.6 2.5-19.7-23.5 20.4 90.6z"/><path fill="#064b6d" d="M238 50l-81-23 55 33z"/><path fill="#140000" d="M35 185l9-38-35 26z"/></g></svg>