<svg xmlns="http://www.w3.org/2000/svg" viewBox="0 0 700 467"><filter id="b"><feGaussianBlur stdDeviation="12" /></filter><path fill="#909ea1" d="M0 0h700v464H0z"/><g filter="url(#b)" transform="translate(1.4 1.4) scale(2.73438)" fill-opacity=".5"><ellipse cx="176" cy="78" rx="39" ry="25"/><ellipse fill="#fff" cx="51" cy="137" rx="94" ry="35"/><ellipse fill="#410c00" rx="1" ry="1" transform="matrix(39.78958 -59.7212 39.30924 26.19 240.4 169)"/><ellipse fill="#2ec0ff" cx="84" rx="69" ry="69"/><ellipse fill="#b45900" cx="246" cy="38" rx="32" ry="72"/><ellipse fill="#532700" cx="108" cy="76" rx="20" ry="21"/><ellipse fill="#1b0000" cx="145" cy="169" rx="23" ry="23"/><ellipse fill="#fdffff" rx="1" ry="1" transform="matrix(3.25355 29.30738 -19.793 2.19732 7.3 27.3)"/><ellipse fill="#53bcff" cx="166" cy="30" rx="52" ry="25"/><ellipse fill="#001000" rx="1" ry="1" transform="rotate(-165 91.5 25.2) scale(28.56887 20.59512)"/><path fill="#fff" d="M160 19h30v28h-30z"/><path fill="#57bdff" d="M37 0l179 10-231 58z"/><ellipse fill="#c2b5a5" rx="1" ry="1" transform="matrix(13.13205 -27.79156 22.94894 10.84382 211.5 108)"/><path fill="#3744ff" d="M213.4 8.7l3.1 45-23.9 1.6-3.1-45z"/><ellipse fill="#f7eddf" rx="1" ry="1" transform="rotate(-100.9 88.2 37.8) scale(26.97248 86.38097)"/><ellipse fill="#0066c1" rx="1" ry="1" transform="matrix(40.01024 -4.91264 1.08436 8.8314 73 53.6)"/><ellipse fill="#ceb9ae" rx="1" ry="1" transform="matrix(57.04407 -23.3717 6.20427 15.14296 32.2 90.1)"/><path fill="#562900" d="M183 102.2l1 25-15 .6-1-25z"/><ellipse fill="#fff" rx="1" ry="1" transform="matrix(12.54104 -3.57422 7.57353 26.57363 5 18.6)"/><path fill="#523813" d="M266.9 185l-11.2-59.8-65.6 15.7 7.3 29.6z"/><path fill="#ffbd73" d="M184 6l-69-22L87 2z"/><path fill="#0f9dff" d="M164 38.7l-2.5 11.8-17.7 9.7L57 39.8z"/></g></svg>