<svg xmlns="http://www.w3.org/2000/svg" viewBox="0 0 700 467"><filter id="b"><feGaussianBlur stdDeviation="12" /></filter><path fill="#6a5a4c" d="M0 0h700v464H0z"/><g filter="url(#b)" transform="translate(1.4 1.4) scale(2.73438)" fill-opacity=".5"><ellipse fill="#fff8e4" cx="55" cy="131" rx="63" ry="29"/><ellipse fill="#fffde1" rx="1" ry="1" transform="matrix(40.18793 -93.93855 23.548 10.0741 235.6 148.4)"/><ellipse cx="118" cy="16" rx="45" ry="46"/><ellipse rx="1" ry="1" transform="rotate(52.7 -57.9 235.2) scale(26.31851 80.03885)"/><ellipse fill="#ddcdb4" rx="1" ry="1" transform="matrix(8.25125 23.1569 -86.20999 30.71827 104 109.8)"/><ellipse rx="1" ry="1" transform="matrix(5.37978 69.26916 -16.35639 1.27032 45.8 41)"/><ellipse cx="212" cy="24" rx="21" ry="42"/><ellipse fill="#edb593" rx="1" ry="1" transform="matrix(-15.517 2.79826 -6.89814 -38.25185 107.4 80.7)"/><ellipse rx="1" ry="1" transform="matrix(82.6911 -54.19682 10.65006 16.24938 135.8 150.9)"/><ellipse fill="#fbdfad" rx="1" ry="1" transform="matrix(17.18209 6.0653 -9.18667 26.02442 4.5 17.5)"/><path d="M161.8-1.4l-78.5 11-18.2 92 38.6-60.3z"/><path fill="#c9a76d" d="M163 0h28v79h-28z"/><path d="M-15.1 83.7l23.3-9 13 33.6-23.4 9z"/><path fill="#fff3b2" d="M62.2 55.9l.6-36 11 .2-.6 36z"/><path fill="#99817c" d="M161 93l-99 92-61-10z"/><ellipse cx="46" cy="23" rx="16" ry="49"/><path fill="#450d00" d="M126 171l72-2 38-85z"/><path fill="#2e3c1a" d="M247 128l24-48-21-36z"/><path fill="#f5e8ea" d="M239 80l-15 105h-32z"/><path fill="#4b2e00" d="M271 158.8l-39.9 8-3.1-1.8 6-14.8z"/><ellipse fill="#000001" cx="148" cy="25" rx="15" ry="38"/><path fill="#ff0026" d="M83 68h19v21H83z"/></g></svg>