<svg xmlns="http://www.w3.org/2000/svg" viewBox="0 0 700 467"><filter id="b"><feGaussianBlur stdDeviation="12" /></filter><path fill="#594042" d="M0 0h700v464H0z"/><g filter="url(#b)" transform="translate(1.4 1.4) scale(2.73438)" fill-opacity=".5"><ellipse fill="#ffe8d5" cx="204" cy="32" rx="18" ry="52"/><ellipse fill="#ffcbbe" rx="1" ry="1" transform="rotate(-168.4 73.6 11.6) scale(17.37477 44.78866)"/><ellipse cx="232" cy="119" rx="36" ry="47"/><ellipse fill="#ffb5ae" cx="90" cy="37" rx="16" ry="53"/><ellipse cx="2" cy="78" rx="29" ry="156"/><ellipse fill="#ff303a" cx="45" cy="29" rx="16" ry="54"/><ellipse fill="#e1b9a9" rx="1" ry="1" transform="rotate(3.1 -1085.1 3527.3) scale(45.54074 19.63714)"/><ellipse fill="#003a59" rx="1" ry="1" transform="matrix(2.88973 29.69032 -89.17578 8.67938 101.8 108.6)"/><ellipse fill="#c889ad" rx="1" ry="1" transform="matrix(3.10671 -22.1054 40.38069 5.67514 154.2 160.3)"/><ellipse cx="236" cy="35" rx="13" ry="130"/><path d="M160 0h28v46h-28z"/><ellipse fill="#35a7ff" rx="1" ry="1" transform="rotate(167.7 62.4 64) scale(7.10435 31.97691)"/><ellipse fill="#99a7d1" rx="1" ry="1" transform="matrix(10.40846 18.70032 -11.52613 6.41536 187.6 143.7)"/><ellipse cx="113" cy="12" rx="9" ry="47"/><ellipse cx="67" cy="24" rx="9" ry="62"/><ellipse cx="12" cy="51" rx="18" ry="152"/><ellipse cx="101" cy="129" rx="11" ry="43"/><ellipse fill="#ff2935" cx="44" cy="30" rx="15" ry="37"/><path fill="#000001" d="M156 174l12-49-25-63z"/><ellipse fill="#e79684" cx="88" cy="62" rx="20" ry="29"/><ellipse fill="#ff9690" cx="201" cy="9" rx="15" ry="52"/><ellipse fill="#ffa09f" rx="1" ry="1" transform="matrix(13.24536 -2.39115 5.92815 32.83792 143.4 21.7)"/></g></svg>