<svg xmlns="http://www.w3.org/2000/svg" viewBox="0 0 700 467"><filter id="b"><feGaussianBlur stdDeviation="12" /></filter><path fill="#753884" d="M0 0h700v464H0z"/><g filter="url(#b)" transform="translate(1.4 1.4) scale(2.73438)" fill-opacity=".5"><ellipse fill="#e46cec" rx="1" ry="1" transform="matrix(24.23296 -21.44892 37.78859 42.69349 96 106.7)"/><ellipse fill="#161044" cx="207" cy="98" rx="50" ry="50"/><ellipse fill="#e06363" cx="161" cy="44" rx="27" ry="38"/><ellipse fill="#94c476" cx="255" cy="31" rx="51" ry="28"/><ellipse fill="#d637ff" rx="1" ry="1" transform="matrix(.18699 -10.64353 39.09121 .68676 202.3 157)"/><path fill="#000120" d="M193 25L143-2l101 2z"/><ellipse fill="#9927f6" rx="1" ry="1" transform="matrix(14.4407 8.57455 -19.31037 32.52127 137.1 93.5)"/><ellipse fill="#200" cx="55" cy="169" rx="135" ry="11"/><ellipse fill="#8719ff" rx="1" ry="1" transform="matrix(13.09021 -24.38456 17.7403 9.52342 1.9 103.6)"/><path fill="#db4cff" d="M9 140h76v14H9z"/><ellipse fill="#342833" rx="1" ry="1" transform="matrix(-11.95563 39.49497 -21.58251 -6.5333 199.8 56.1)"/><ellipse fill="#ff3ed9" cx="70" cy="81" rx="23" ry="27"/><ellipse fill="#1d006e" rx="1" ry="1" transform="matrix(.76707 -11.4326 84.7021 5.68307 46.6 2)"/><ellipse fill="#8bada6" cx="4" cy="31" rx="25" ry="25"/><ellipse fill="#060039" rx="1" ry="1" transform="matrix(.16339 6.54323 -29.2513 .73043 154.4 127.6)"/><path fill="#8b55db" d="M210.9 85.5l-26 70.6 78.5-1-50.4-10.8z"/><ellipse fill="#ff11e9" rx="1" ry="1" transform="matrix(5.36885 20.2096 -7.59723 2.01827 149.2 74.2)"/><path fill="#1c0e43" d="M260 129l-21 56-16-97z"/><path fill="#ff32df" d="M234.6 87.1l36.2-31.5 4.6 5.3-36.2 31.5z"/><ellipse fill="#d36b5e" cx="135" cy="22" rx="55" ry="9"/><ellipse fill="#a1808b" cx="95" cy="134" rx="26" ry="25"/><ellipse fill="#644edf" cx="122" cy="104" rx="23" ry="24"/></g></svg>