<svg xmlns="http://www.w3.org/2000/svg" viewBox="0 0 700 467"><filter id="b"><feGaussianBlur stdDeviation="12" /></filter><path fill="#4c4f54" d="M0 0h700v464H0z"/><g filter="url(#b)" transform="translate(1.4 1.4) scale(2.73438)" fill-opacity=".5"><ellipse fill="#fff" rx="1" ry="1" transform="rotate(175.2 55.1 78) scale(171.21196 14.62228)"/><path fill="#ffffec" d="M96.7 159.5l-1.4-84 60-1 1.4 84z"/><ellipse rx="1" ry="1" transform="matrix(62.56327 15.15852 -21.93967 90.55088 53 30.6)"/><path d="M120 0h15v130h-15z"/><ellipse fill="#fff" cx="178" cy="146" rx="109" ry="9"/><ellipse fill="#000c24" cx="116" cy="14" rx="233" ry="45"/><ellipse fill="#6d0000" cx="57" cy="134" rx="21" ry="21"/><ellipse fill="#e7f8ff" cx="243" cy="89" rx="9" ry="37"/><ellipse fill="#0e0924" cx="193" cy="95" rx="41" ry="42"/><ellipse fill="#fff" rx="1" ry="1" transform="matrix(2.69566 10.3488 -91.04545 23.71556 45.5 168.9)"/><path fill="#e4ded0" d="M15 78h10v85H15z"/><path fill="#00002e" d="M158 74h23v67h-23z"/><path fill="#fafff3" d="M160.6 149.5l-16.5-102-9.8 79.5-25.9 37.3z"/><path fill="#180000" d="M58.6 97.3l39.9 3.5-3.1 35.9-39.9-3.5z"/><ellipse fill="#ffffd8" cx="107" cy="99" rx="11" ry="38"/><path fill="#010a05" d="M203 155L70 167l102 18z"/><ellipse fill="#040500" cx="8" cy="20" rx="70" ry="70"/><ellipse cx="127" cy="104" rx="8" ry="29"/><ellipse fill="#a01b31" cx="57" cy="112" rx="12" ry="44"/><ellipse fill="#010000" cx="215" cy="130" rx="19" ry="6"/><ellipse fill="#004b88" cx="148" cy="2" rx="41" ry="23"/><path d="M27 79h19v57H27z"/></g></svg>