<svg xmlns="http://www.w3.org/2000/svg" viewBox="0 0 200 133"><filter id="b"><feGaussianBlur stdDeviation="12" /></filter><path fill="#929ea4" d="M0 0h200v133H0z"/><g filter="url(#b)" transform="translate(.5 .5)" fill-opacity=".5"><ellipse fill="#241700" rx="1" ry="1" transform="matrix(57.0951 -2.99223 .88434 16.87427 123.1 58.5)"/><ellipse fill="#fff" rx="1" ry="1" transform="matrix(-66.88048 13.66867 -6.15233 -30.10322 49.5 111)"/><ellipse fill="#430a00" rx="1" ry="1" transform="matrix(-38.56967 44.11395 -20.55152 -17.96859 183.8 124.3)"/><ellipse fill="#50c8ff" rx="1" ry="1" transform="matrix(-122.12931 -7.39317 1.9282 -31.85246 50.2 15)"/><ellipse fill="#b85a00" rx="1" ry="1" transform="rotate(-5.1 484 -2223.6) scale(31.15915 50.86357)"/><ellipse fill="#1f0000" cx="113" cy="132" rx="17" ry="19"/><path fill="#000500" d="M110.7 64.7l14.5-26.3 34.1 19-14.5 26.2z"/><ellipse fill="#fff" rx="1" ry="1" transform="matrix(-.53432 -22.65107 21.26828 -.5017 0 19.5)"/><ellipse fill="#d6cec2" rx="1" ry="1" transform="matrix(9.197 2.84174 -8.6353 27.94724 98.6 72.4)"/><path fill="#007adf" d="M60 28.5L139.6 40 42.2 50.9l-18-7.5z"/><ellipse fill="#f6ebdf" cx="32" cy="106" rx="85" ry="24"/><path fill="#fff" d="M125 16h22v20h-22z"/><path fill="#0013ff" d="M161 6h8v32h-8z"/><ellipse fill="#49bfff" cx="91" cy="21" rx="39" ry="20"/><path fill="#d0bbaa" d="M172 108l17-13-34-58z"/><path fill="#d8c7bf" d="M-2.2 50.6l64-1.2.4 22-64 1.2z"/><ellipse fill="#503517" rx="1" ry="1" transform="matrix(-25.62374 -13.90997 9.12246 -16.8046 177.2 127.2)"/><path fill="#8c6749" d="M130 75h21v26h-21z"/><ellipse fill="#d87f3e" cx="171" rx="111" ry="5"/><path fill="#533700" d="M73 50h16v28H73z"/><path fill="#fff" d="M11.2-15l3.1 40.5-28 19.7-2.3-28.7z"/><path fill="#71c2ff" d="M56.5-1.1l3.8 35.8L17.5 39 13.7 3.3z"/></g></svg>