<svg xmlns="http://www.w3.org/2000/svg" viewBox="0 0 700 467"><filter id="b"><feGaussianBlur stdDeviation="12" /></filter><path fill="#4e0723" d="M0 0h700v464H0z"/><g filter="url(#b)" transform="translate(1.4 1.4) scale(2.73438)" fill-opacity=".5"><ellipse fill="#ef101b" rx="1" ry="1" transform="rotate(86.7 22.5 122) scale(40.23167 77.1776)"/><ellipse fill="#000002" rx="1" ry="1" transform="matrix(-41.919 -14.96016 66.75798 -187.05871 41 22.7)"/><path fill="#c0c3d5" d="M95.5 91.4l17 1.5-6 67.7-17-1.5z"/><ellipse fill="#bf039b" rx="1" ry="1" transform="matrix(33.87825 8.00848 -3.7097 15.69311 184.2 156.9)"/><ellipse fill="#0f000b" cx="235" cy="60" rx="35" ry="110"/><path fill="#7408e1" d="M130 5.9L157.6-16l-6.4 64.1-18.3-32.7z"/><path fill="#b55e87" d="M48 143h65v13H48z"/><ellipse fill="#5c00a5" rx="1" ry="1" transform="matrix(-6.53427 -18.45999 26.81276 -9.4909 218.6 0)"/><ellipse fill="#250044" rx="1" ry="1" transform="rotate(-95.5 67.5 -28.3) scale(18.0521 105.72348)"/><path fill="#d80009" d="M115 69h116v27H115z"/><ellipse fill="#101319" rx="1" ry="1" transform="rotate(82.8 -18.8 154.2) scale(44.13404 16.90411)"/><ellipse cx="15" cy="96" rx="38" ry="38"/><path fill="#cc03b0" d="M171.6 37.5l18.1 8.2-18.6-33.3 3 3.3z"/><path fill="#cc0013" d="M151 110h52v24h-52z"/><ellipse fill="#000005" rx="1" ry="1" transform="matrix(2.46288 17.97947 -105.6891 14.4776 25 11.3)"/><ellipse fill="#000002" rx="1" ry="1" transform="matrix(-6.21678 -52.13529 20.74755 -2.474 255 50.8)"/><ellipse fill="#620004" rx="1" ry="1" transform="matrix(-12.68575 15.49896 -31.25157 -25.57911 212.5 72.7)"/><path fill="#8b384c" d="M69 123h42v47H69z"/><ellipse fill="#800008" rx="1" ry="1" transform="matrix(21.098 -4.53128 7.39369 34.4256 73 101.6)"/><path fill="#7d0099" d="M50 27l15.7 5.5L33.2 40l-24 6z"/><ellipse fill="#4d162d" cx="155" cy="104" rx="38" ry="8"/><ellipse fill="#c0009e" rx="1" ry="1" transform="matrix(-.52065 -6.12483 29.15273 -2.47817 192.7 157)"/></g></svg>