<svg xmlns="http://www.w3.org/2000/svg" viewBox="0 0 200 133"><filter id="b"><feGaussianBlur stdDeviation="12" /></filter><path fill="#3e2a28" d="M0 0h200v133H0z"/><g filter="url(#b)" transform="translate(.5 .5)" fill-opacity=".5"><ellipse fill="#a46a51" cx="55" cy="15" rx="37" ry="27"/><ellipse cx="39" cy="86" rx="32" ry="40"/><ellipse fill="#2860cf" rx="1" ry="1" transform="rotate(116.7 87.8 70) scale(34.19371 9.97165)"/><ellipse fill="#a68ea4" cx="148" cy="98" rx="16" ry="16"/><path fill="#f09f86" d="M155.6 45.2l-4.3 34.7-8.9-1 4.3-34.8z"/><path fill="#fda58b" d="M110.6 67.8l11.7 11.1-11.8 18.3-3.8-18.4z"/><ellipse rx="1" ry="1" transform="matrix(11.26574 6.02798 -8.8157 16.47575 104.4 23.3)"/><ellipse fill="#d88a53" rx="1" ry="1" transform="matrix(13.63963 .80967 -.59635 10.04607 2.1 44)"/><ellipse cx="150" rx="22" ry="22"/><ellipse fill="#973029" rx="1" ry="1" transform="matrix(28.85732 -28.45718 6.28987 6.3783 112.4 46.5)"/><ellipse fill="#040303" rx="1" ry="1" transform="matrix(-20.5032 -9.78295 5.80673 -12.16982 178.6 64.7)"/><path fill="#000004" d="M124 31h19v44h-19z"/><ellipse fill="#120000" cx="107" cy="128" rx="34" ry="18"/><path fill="#f7af92" d="M49 44l11-18-13-5z"/><path fill="#160e0e" d="M154.8 62.4L215 91.8l-79.4-19.3 12.7 33.8z"/><path fill="#95849b" d="M152 81h16v16h-16z"/><path fill="#000102" d="M120 43L63 63l44-54z"/><ellipse fill="#683b28" rx="1" ry="1" transform="rotate(84.5 -1 10.3) scale(31.27469 21.19041)"/><ellipse fill="#feb693" cx="92" cy="56" rx="6" ry="4"/><path d="M60 40l10-30-12 10z"/><path fill="#de9287" d="M92 17l-24-2-2 20z"/><path fill="#d3947c" d="M124 18h15v12h-15z"/></g></svg>