<svg xmlns="http://www.w3.org/2000/svg" viewBox="0 0 700 467"><filter id="b"><feGaussianBlur stdDeviation="12" /></filter><path fill="#594042" d="M0 0h700v464H0z"/><g filter="url(#b)" transform="translate(1.4 1.4) scale(2.73438)" fill-opacity=".5"><ellipse fill="#ffedda" cx="206" cy="35" rx="18" ry="47"/><ellipse fill="#ffcbc2" rx="1" ry="1" transform="rotate(-173.3 72.6 14) scale(16.50978 51.67223)"/><ellipse fill="#ffb6ae" rx="1" ry="1" transform="rotate(85.5 24.7 69.8) scale(50.6681 15.05552)"/><ellipse cx="234" cy="119" rx="38" ry="48"/><ellipse fill="#ff323b" cx="44" cy="34" rx="16" ry="50"/><ellipse rx="1" ry="1" transform="matrix(-30.122 2.74132 -13.84356 -152.11508 0 27.4)"/><ellipse fill="#00395a" rx="1" ry="1" transform="matrix(-94.6886 9.78511 -2.8621 -27.69592 112.6 109)"/><ellipse fill="#9098b2" cx="183" cy="157" rx="16" ry="118"/><ellipse rx="1" ry="1" transform="matrix(11.9861 78.4443 -10.33355 1.57894 235.8 31.5)"/><path fill="#ffb1c2" d="M122.7 173.2L109.4 152l34-21.2 13.2 21.2z"/><ellipse fill="#dea795" rx="1" ry="1" transform="matrix(3.08527 -15.44027 59.10502 11.81035 175.5 57.8)"/><path d="M162 0h26v48h-26zm-58.2-8.4l22-2 4.4 50.8-22 2z"/><ellipse rx="1" ry="1" transform="rotate(53.2 -.4 285.8) scale(40.80303 27.66459)"/><path fill="#0c99ff" d="M128 76.5h14v55h-14z"/><path fill="#ff8a85" d="M76 0h29v83H76z"/><ellipse cx="66" cy="21" rx="8" ry="66"/><ellipse fill="#ff9c96" cx="204" cy="14" rx="18" ry="53"/><path d="M90 89h21v80H90z"/><ellipse fill="#ff2533" cx="44" cy="21" rx="15" ry="45"/><ellipse rx="1" ry="1" transform="matrix(20.82581 .58799 -4.5769 162.10813 8.7 66.6)"/><ellipse fill="#00243a" rx="1" ry="1" transform="matrix(18.81126 6.82618 -11.19453 30.84935 167.5 114)"/></g></svg>