<svg xmlns="http://www.w3.org/2000/svg" viewBox="0 0 700 467"><filter id="b"><feGaussianBlur stdDeviation="12" /></filter><path fill="#354f68" d="M0 0h700v464H0z"/><g filter="url(#b)" transform="translate(1.4 1.4) scale(2.73438)" fill-opacity=".5"><ellipse fill="#c7d0d0" rx="1" ry="1" transform="matrix(26.28647 -31.92041 31.22638 25.71493 51 96.2)"/><ellipse rx="1" ry="1" transform="rotate(-91.3 160.5 8.4) scale(39.6077 175.62723)"/><ellipse fill="#c0926a" cx="146" cy="97" rx="61" ry="33"/><path fill="#fff" d="M189.6 76.5l-6.3 44.5-10.9-1.5 6.3-44.5z"/><ellipse fill="#0051a9" rx="1" ry="1" transform="matrix(.81468 21.55291 -254.81803 9.6319 67.4 20)"/><ellipse fill="#00000a" cx="230" cy="94" rx="28" ry="28"/><path fill="#000009" d="M172.5 81.7l-39.9-27.2 25.3 75.2 20.8-37.3z"/><ellipse fill="#bef1ff" cx="197" cy="90" rx="7" ry="32"/><ellipse fill="#ff954d" rx="1" ry="1" transform="matrix(9.13837 1.2518 -2.25617 16.47045 52.4 40.3)"/><ellipse fill="#00327c" cx="255" cy="35" rx="50" ry="50"/><ellipse fill="#000f33" cx="60" cy="138" rx="7" ry="36"/><path d="M110 134l-11 1.9L86.1 62l10.8-1.9z"/><ellipse fill="#c79765" cx="124" cy="105" rx="22" ry="32"/><path fill="#e6fdff" d="M76 76h14v42H76z"/><path fill="#ffd0a6" d="M171 78.3l-10.9 1.2-3.1-29.8 10.9-1.2z"/><ellipse fill="#0d0200" rx="1" ry="1" transform="matrix(-23.2294 -37.31958 44.4626 -27.67553 142.5 169)"/><ellipse fill="#98572f" rx="1" ry="1" transform="rotate(-148.7 72 5.2) scale(15.27028 26.94571)"/><path fill="#ffa670" d="M192 35h13v31h-13z"/><ellipse fill="#0060af" rx="1" ry="1" transform="matrix(-17.21942 -6.3201 50.14872 -136.63278 0 72.4)"/><path fill="#ffe2cf" d="M153 135.5l-4.6-5.3 22.6-19.7 4.6 5.3z"/><path fill="#000303" d="M148 182l43-2-2-80z"/><ellipse fill="#aca9a4" cx="33" cy="126" rx="21" ry="19"/></g></svg>