<svg xmlns="http://www.w3.org/2000/svg" viewBox="0 0 700 467"><filter id="b"><feGaussianBlur stdDeviation="12" /></filter><path fill="#4f555a" d="M0 0h700v464H0z"/><g filter="url(#b)" transform="translate(1.4 1.4) scale(2.73438)" fill-opacity=".5"><ellipse fill="#a6bcd1" cx="22" cy="63" rx="81" ry="81"/><ellipse cx="181" cy="142" rx="76" ry="76"/><ellipse fill="#e4fbff" cx="115" cy="96" rx="6" ry="31"/><ellipse fill="#677077" rx="1" ry="1" transform="matrix(88.96776 -64.40192 33.7857 46.6731 105.5 6.8)"/><ellipse cx="154" cy="94" rx="37" ry="28"/><ellipse fill="#3e3a36" cx="238" cy="59" rx="60" ry="60"/><ellipse fill="#a2b0c2" rx="1" ry="1" transform="matrix(2.09701 -26.57464 30.3507 2.39498 62.4 113.3)"/><ellipse fill="#ffba8d" rx="1" ry="1" transform="matrix(7.45565 .43235 -.9489 16.36356 168.5 60)"/><ellipse fill="#8f9eb4" cx="109" rx="37" ry="27"/><ellipse fill="#000711" cx="171" cy="124" rx="33" ry="57"/><ellipse fill="#262826" cx="55" cy="155" rx="66" ry="15"/><ellipse fill="#616871" rx="1" ry="1" transform="matrix(-13.62817 -21.55763 17.39212 -10.99484 219.6 96.2)"/><ellipse fill="#ffeacc" cx="169" cy="124" rx="7" ry="6"/><ellipse fill="#a3b2c6" rx="1" ry="1" transform="rotate(153.8 -10.9 52.7) scale(34.89296 41.52175)"/><path fill="#fdc5a8" d="M119 95l-8-53h16z"/><ellipse fill="#3f4a4b" rx="1" ry="1" transform="matrix(3.45302 28.9567 -15.20494 1.81315 77.8 43.8)"/><ellipse fill="#070909" rx="1" ry="1" transform="matrix(-5.60304 -.828 6.33833 -42.89079 103 87.2)"/><path fill="#182936" d="M103 118h45v52h-45z"/><path fill="#c9d2de" d="M-29.8 70l-14.7-12L39.8-46l14.7 12z"/><ellipse fill="#9cb1cd" cx="51" cy="45" rx="15" ry="15"/><path fill="#211d10" d="M177 35h29v33h-29z"/><path fill="#403623" d="M102 32h76v11h-76z"/></g></svg>