<svg xmlns="http://www.w3.org/2000/svg" viewBox="0 0 200 133"><filter id="b"><feGaussianBlur stdDeviation="12" /></filter><path fill="#8d8887" d="M0 0h200v133H0z"/><g filter="url(#b)" transform="translate(.5 .5)" fill-opacity=".5"><ellipse rx="1" ry="1" transform="matrix(13.99275 -40.79784 59.72405 20.48401 127.8 71.9)"/><ellipse fill="#fff" cx="99" cy="1" rx="199" ry="26"/><ellipse fill="#210a02" cx="38" cy="95" rx="90" ry="23"/><ellipse fill="#fff" cx="141" cy="131" rx="199" ry="16"/><ellipse fill="#fff" cx="199" cy="67" rx="15" ry="199"/><ellipse fill="#fff" rx="1" ry="1" transform="matrix(-198.67902 11.29818 -1.32082 -23.22669 105.5 2.8)"/><path fill="#1f2732" d="M88 26h97v40H88z"/><ellipse fill="#654a41" cx="55" cy="89" rx="33" ry="33"/><ellipse fill="#c28c6e" cx="46" cy="35" rx="24" ry="25"/><path fill="#fff" d="M0 53h31v16H0z"/><ellipse fill="#fff" cx="106" cy="132" rx="199" ry="13"/><path fill="#cbb5ac" d="M87.4 101l.5-30.6-8.5-2.2L12.6-16z"/><ellipse fill="#1d0d08" rx="1" ry="1" transform="matrix(.7264 23.29004 -14.99104 .46756 23 92.5)"/><path fill="#fff" d="M3.5 101.3l3-103.6L-16 45 6.3 147.4z"/><ellipse fill="#231718" cx="97" cy="33" rx="37" ry="7"/><ellipse fill="#061118" rx="1" ry="1" transform="matrix(16.0202 16.12924 -19.40603 19.27484 111.6 87.2)"/><path fill="#fff" d="M90 112h31v20H90z"/><ellipse fill="#61646d" rx="1" ry="1" transform="matrix(-16.36518 -26.70554 14.9386 -9.15438 145.8 53.2)"/><ellipse fill="#fff" cx="145" cy="7" rx="101" ry="18"/><ellipse fill="#fffffd" cx="196" cy="72" rx="11" ry="116"/><path fill="#34211b" d="M86 66l-49-9-11 26z"/><path fill="#1e2730" d="M182 115h-39l44-29z"/></g></svg>