<svg xmlns="http://www.w3.org/2000/svg" viewBox="0 0 200 133"><filter id="b"><feGaussianBlur stdDeviation="12" /></filter><path fill="#510726" d="M0 0h200v133H0z"/><g filter="url(#b)" transform="translate(.5 .5)" fill-opacity=".5"><ellipse fill="#f8121f" cx="107" cy="72" rx="57" ry="31"/><ellipse fill="#000004" rx="1" ry="1" transform="rotate(-65 51.9 19) scale(156.91628 37.55953)"/><ellipse fill="#b9a2b6" cx="78" cy="97" rx="9" ry="33"/><path fill="#e700c6" d="M164 130h-42v-14h42z"/><ellipse fill="#060002" cx="199" cy="80" rx="29" ry="86"/><ellipse fill="#8e08ff" cx="111" cy="9" rx="10" ry="10"/><ellipse fill="#844369" rx="1" ry="1" transform="matrix(2.67117 -11.30816 28.75904 6.79336 59.8 120.8)"/><ellipse fill="#0c003a" rx="1" ry="1" transform="matrix(-21.15246 -29.43676 18.65469 -13.40475 82.7 12)"/><ellipse fill="#000010" cx="10" cy="51" rx="29" ry="106"/><ellipse fill="#b50007" rx="1" ry="1" transform="rotate(94.6 46.5 104) scale(13.73079 35.24185)"/><path fill="#1a0f1b" d="M96 77h21v56H96z"/><path fill="#60006d" d="M55 35l-41.7 5.8L11.1 25l41.6-5.8z"/><ellipse fill="#400097" cx="169" rx="19" ry="19"/><ellipse fill="#00000b" rx="1" ry="1" transform="matrix(37.90988 10.21107 -3.45018 12.80922 178.2 29)"/><ellipse fill="#da000f" cx="111" cy="57" rx="33" ry="19"/><path fill="#af0b31" d="M86 114l69-31 7 31z"/><ellipse fill="#740009" cx="54" cy="84" rx="20" ry="30"/><path fill="#c700ca" d="M135.2 32l-.3-1.9.2-16.6 12 19z"/><path fill="#9616e8" d="M84 22V8l-9 6z"/><path fill="#b0b2c5" d="M89 73.8l-18.7 38.4 1.6 20.5 4.8-60.1z"/><path fill="#252539" d="M128 75.3l16.9 1.5-.9 10-16.9-1.6z"/><path fill="#aa3e84" d="M44 122l37-7-64-6z"/></g></svg>