<svg xmlns="http://www.w3.org/2000/svg" viewBox="0 0 641 195"><filter id="b"><feGaussianBlur stdDeviation="12" /></filter><path fill="#736651" d="M0 0h641v192H0z"/><g filter="url(#b)" transform="translate(1.3 1.3) scale(2.5039)" fill-opacity=".5"><ellipse fill="#d5f9ff" cx="156" cy="21" rx="40" ry="56"/><ellipse fill="#370600" cx="1" cy="39" rx="81" ry="81"/><ellipse rx="1" ry="1" transform="rotate(-90.9 148.6 -90) scale(59.17251 15.66051)"/><ellipse fill="#ebf9f6" rx="1" ry="1" transform="matrix(-11.87931 4.48898 -18.257 -48.314 210.7 76)"/><path fill="#fff" d="M58 92H40l5.3-37.5L61.8 53z"/><ellipse cx="106" cy="10" rx="13" ry="40"/><ellipse rx="1" ry="1" transform="rotate(93.7 -18.6 19.9) scale(96.17546 21.26703)"/><ellipse fill="#d17502" cx="45" cy="28" rx="27" ry="27"/><ellipse fill="#fff0a5" rx="1" ry="1" transform="rotate(-104.7 115.2 -78.2) scale(34.09355 8.32421)"/><path fill="#fff" d="M97.1 86l-9.6-33.6 15.4-4.4 9.6 33.6z"/><ellipse rx="1" ry="1" transform="matrix(12.59982 10.50763 -8.92371 10.70053 183.3 76)"/><path d="M61 54h31v23H61z"/><ellipse fill="#e4e3d8" rx="1" ry="1" transform="matrix(-11.48035 -14.98331 28.14204 -21.56269 140.5 76)"/><path fill="#ffd13d" d="M81 0h12v57H81z"/><ellipse cx="247" cy="64" rx="26" ry="24"/><ellipse cx="11" cy="75" rx="31" ry="23"/><path d="M47.9 31.6l2.2-32 10 .8-2.2 32z"/><path fill="#ffce53" d="M249.3 30.5l-5.4-38.6 16.8-2.4 5.4 38.6z"/><path d="M70 0h10v77H70z"/><ellipse rx="1" ry="1" transform="matrix(-4.06373 66.60095 -3.1326 -.19114 35.2 27.4)"/><path fill="#ff8312" d="M44.2 58l-19-51.5L17 60.3l33.8-54z"/><path fill="#ffd112" d="M60 0h11v26H60z"/></g></svg>