<svg xmlns="http://www.w3.org/2000/svg" viewBox="0 0 200 133"><filter id="b"><feGaussianBlur stdDeviation="12" /></filter><path fill="#41392c" d="M0 0h200v133H0z"/><g filter="url(#b)" transform="translate(.5 .5)" fill-opacity=".5"><ellipse fill="#e6c889" cx="92" cy="12" rx="88" ry="27"/><ellipse fill="#000001" rx="1" ry="1" transform="matrix(-5.88602 -48.63945 157.03304 -19.00309 155.8 104)"/><ellipse fill="#bd9874" rx="1" ry="1" transform="rotate(100.6 3.5 36.5) scale(12.61928 21.17726)"/><ellipse fill="#080914" cx="31" cy="76" rx="25" ry="29"/><ellipse fill="#b89c75" cx="111" cy="32" rx="14" ry="25"/><path fill="#c1ad80" d="M45 17h151v15H45z"/><path fill="#2c2620" d="M57 32h106v7H57z"/><ellipse fill="#634d26" rx="1" ry="1" transform="rotate(-11.9 7 -66.2) scale(22.62402 32.35316)"/><path fill="#fff" d="M-5.5 90l3.1-17.7L7.5 74 4.4 91.7z"/><ellipse cx="79" cy="57" rx="15" ry="15"/><ellipse fill="#030305" cy="54" rx="22" ry="22"/><ellipse fill="#000007" rx="1" ry="1" transform="matrix(19.92787 .62626 -2.02413 64.40883 194 105.3)"/><ellipse fill="#6d5932" rx="1" ry="1" transform="matrix(-15.03389 21.97062 -33.57873 -22.977 181.4 0)"/><path fill="#c99b7e" d="M124 41h7v23h-7z"/><path fill="#5a6b52" d="M113 127h72v6h-72z"/><path fill="#fdf1f1" d="M1 75h5v22H1z"/><path fill="#e9c25e" d="M94 47h4v33h-4z"/><path fill="#fff" d="M56 33l-12-3v10z"/><ellipse fill="#000103" cx="38" cy="122" rx="29" ry="29"/><path fill="#c1ab8b" d="M99 7h12v40H99z"/><ellipse fill="#968562" rx="1" ry="1" transform="rotate(88.1 58.7 97.9) scale(29.24844 2.94661)"/><path fill="#9d8758" d="M31 9h7v50h-7z"/></g></svg>