<svg xmlns="http://www.w3.org/2000/svg" viewBox="0 0 700 467"><filter id="b"><feGaussianBlur stdDeviation="12" /></filter><path fill="#6e706f" d="M0 0h700v464H0z"/><g filter="url(#b)" transform="translate(1.4 1.4) scale(2.73438)" fill-opacity=".5"><ellipse fill="#fff" cx="165" cy="17" rx="255" ry="41"/><ellipse rx="1" ry="1" transform="rotate(64.4 -62.4 133.7) scale(68.97681 92.68626)"/><ellipse rx="1" ry="1" transform="matrix(-12.2434 -59.64517 52.89998 -10.8588 237.1 149.4)"/><ellipse fill="#faffff" rx="1" ry="1" transform="matrix(1.22326 -27.4372 137.46946 6.12892 147 16.6)"/><ellipse fill="#fff" cx="129" cy="159" rx="8" ry="14"/><ellipse fill="#dbddd3" rx="1" ry="1" transform="matrix(6.69372 5.19218 -10.61218 13.68114 54.2 122)"/><ellipse fill="#000202" cx="103" cy="109" rx="42" ry="42"/><ellipse fill="#ada7b0" rx="1" ry="1" transform="rotate(111.4 43 117.3) scale(32.88273 14.40563)"/><ellipse fill="#0a0800" rx="1" ry="1" transform="matrix(-46.58458 33.97006 -18.23153 -25.00166 225 148.7)"/><ellipse fill="#413328" rx="1" ry="1" transform="matrix(-7.53569 -13.88934 22.78303 -12.36098 168.7 65)"/><path fill="#d1c2a8" d="M86.5 47.7L-16 50.3 53.5 75l10.1-4z"/><ellipse fill="#271d0c" cx="41" cy="76" rx="10" ry="40"/><path fill="#765c4c" d="M136 54l-9-24-45 61z"/><ellipse fill="#0b0d07" rx="1" ry="1" transform="matrix(8.71267 -28.32097 73.39809 22.5802 61 164)"/><path fill="#e4ddcc" d="M179.2 64.2l39-12.7 4.6 14.3-39 12.7z"/><ellipse fill="#eafbff" cx="150" cy="12" rx="89" ry="25"/><path fill="#bcd9e2" d="M80 127l-3-13-37 5z"/><path fill="#fff" d="M114.5 36.7l-1 29-10-.4 1-29z"/><path fill="#050000" d="M136 151l46 14-43 20z"/><path fill="#e6e7ed" d="M173 94l13-16-4 59z"/><path fill="#040705" d="M26 67h15v68H26z"/><ellipse fill="#c1cfde" cx="247" cy="39" rx="21" ry="28"/></g></svg>