<svg xmlns="http://www.w3.org/2000/svg" viewBox="0 0 700 467"><filter id="b"><feGaussianBlur stdDeviation="12" /></filter><path fill="#5f403e" d="M0 0h700v464H0z"/><g filter="url(#b)" transform="translate(1.4 1.4) scale(2.73438)" fill-opacity=".5"><ellipse fill="#fff5ef" cx="144" cy="149" rx="42" ry="42"/><ellipse fill="#acb8d0" cx="252" cy="112" rx="38" ry="38"/><ellipse fill="#210100" cx="89" cy="19" rx="170" ry="46"/><ellipse fill="#e4ab7c" rx="1" ry="1" transform="matrix(-18.40869 -1.76833 3.19407 -33.251 139 77.1)"/><ellipse fill="#00000f" rx="1" ry="1" transform="matrix(-16.9268 .51257 -1.73159 -57.18342 201.3 136.7)"/><ellipse fill="#b96e50" rx="1" ry="1" transform="matrix(15.678 -5.52137 12.01453 34.11543 232.6 57)"/><ellipse fill="#818283" rx="1" ry="1" transform="matrix(20.53546 32.20903 -17.6114 11.22846 89.4 133)"/><ellipse fill="#400" cx="6" cy="169" rx="37" ry="39"/><ellipse fill="#d57d54" rx="1" ry="1" transform="matrix(9.7616 -5.56792 20.13973 35.3087 0 66)"/><path fill="#000014" d="M161 89h52v26h-52z"/><ellipse fill="#5e2014" cx="56" cy="76" rx="38" ry="35"/><ellipse fill="#cc7959" rx="1" ry="1" transform="matrix(-8.7799 2.4696 -5.7809 -20.5521 188 63.7)"/><ellipse fill="#6b150e" rx="1" ry="1" transform="rotate(131.2 30.2 74.2) scale(12.08629 43.35627)"/><path fill="#cad5e0" d="M208.7 69.9l14.8-8.3 5.8 10.5-14.8 8.3z"/><ellipse fill="#62190c" rx="1" ry="1" transform="matrix(-18.01732 -4.2201 1.85446 -7.91744 119.9 169)"/><path fill="#000b1d" d="M279 173.1l-74.1 17.1L199 165l74.1-17.1z"/><path fill="#b5896f" d="M174 67l-32 49-46-44z"/><ellipse fill="#e9e0f4" cx="199" cy="123" rx="6" ry="6"/><path fill="#010d0c" d="M195 31h16v62h-16z"/><ellipse fill="#d4c7c2" cx="150" cy="156" rx="17" ry="52"/><path fill="#d3bbc2" d="M127.8 124.9l-30 41.3-9.6-7.1 30-41.3z"/><ellipse fill="#1b0002" cx="154" cy="6" rx="19" ry="51"/></g></svg>