<svg xmlns="http://www.w3.org/2000/svg" viewBox="0 0 700 467"><filter id="b"><feGaussianBlur stdDeviation="12" /></filter><path fill="#4a3e36" d="M0 0h700v464H0z"/><g filter="url(#b)" transform="translate(1.4 1.4) scale(2.73438)" fill-opacity=".5"><ellipse fill="#b1ffff" cx="116" cy="59" rx="31" ry="24"/><ellipse rx="1" ry="1" transform="matrix(192.23092 1.54796 -.18341 22.77675 108.3 13.1)"/><ellipse fill="#b7866e" rx="1" ry="1" transform="matrix(-.6437 -18.82842 250.12086 -8.55105 105.2 116.2)"/><ellipse cx="212" cy="169" rx="43" ry="43"/><ellipse cx="91" cy="169" rx="255" ry="20"/><ellipse fill="#8acdff" rx="1" ry="1" transform="matrix(-9.83662 -15.07002 27.44409 -17.91351 114 58.2)"/><ellipse fill="#83886c" rx="1" ry="1" transform="rotate(-168.6 121.8 15.9) scale(69.24489 19.80676)"/><ellipse fill="#006fff" cx="118" cy="40" rx="39" ry="6"/><ellipse fill="#8a8662" rx="1" ry="1" transform="matrix(-57.8463 26.35862 -6.8823 -15.10382 0 65.5)"/><ellipse cx="71" cy="51" rx="10" ry="49"/><ellipse rx="1" ry="1" transform="matrix(-8.30737 -1.03108 3.97181 -32.00086 161.6 52.4)"/><ellipse cx="224" cy="9" rx="26" ry="26"/><ellipse fill="#311609" rx="1" ry="1" transform="rotate(-80.7 94.4 44.8) scale(71.71021 11.70052)"/><ellipse fill="#f5ba9c" cx="103" cy="125" rx="154" ry="3"/><ellipse cx="13" cy="20" rx="95" ry="14"/><ellipse fill="#745140" rx="1" ry="1" transform="rotate(88.4 54 58.6) scale(7.43292 59.3797)"/><path fill="#1a2e36" d="M86 113l55 1-32-35z"/><path fill="#2a2210" d="M172 107h64v15h-64z"/><path fill="#e2baa1" d="M33.1 103.5L22 110l-9-15.5L24 88z"/><path fill="#dab49f" d="M264 57l-16 60-6-28z"/><path fill="#ad543f" d="M169 126h75v8h-75z"/><path fill="#ffe7e9" d="M50 97h5v31h-5z"/></g></svg>