<svg xmlns="http://www.w3.org/2000/svg" viewBox="0 0 700 467"><filter id="b"><feGaussianBlur stdDeviation="12" /></filter><path fill="#717881" d="M0 0h700v464H0z"/><g filter="url(#b)" transform="translate(1.4 1.4) scale(2.73438)" fill-opacity=".5"><ellipse fill="#fff" rx="1" ry="1" transform="rotate(-66.4 120.4 16) scale(36.04506 60.24524)"/><ellipse rx="1" ry="1" transform="matrix(-113.81423 40.30373 -19.49434 -55.05032 73.8 17.5)"/><ellipse fill="#fff" rx="1" ry="1" transform="matrix(71.13056 8.4818 -3.15652 26.4714 220 139)"/><ellipse cx="130" cy="121" rx="20" ry="31"/><ellipse fill="#feffff" cx="218" cy="83" rx="72" ry="14"/><ellipse fill="#000017" cx="189" cy="9" rx="255" ry="17"/><path fill="#fff" d="M15 39h37v20H15zm66.2 39.2l29.7-4.2 3.9 27.8-29.7 4.2z"/><ellipse fill="#feffff" cx="57" cy="126" rx="27" ry="34"/><ellipse fill="#1b1408" cx="17" cy="159" rx="23" ry="23"/><path d="M119.3 109.8l-53 10.3-1.6-7.9 53-10.3z"/><path fill="#fff" d="M165 24h19v18h-19z"/><path d="M200 43l-43 1-33 40z"/><ellipse fill="#00000a" cx="251" cy="103" rx="95" ry="8"/><ellipse fill="#fff" cy="117" rx="68" ry="18"/><path fill="#d2e2ec" d="M27 150h127v13H27z"/><path d="M205 45h11v41h-11zm-59 25l3 79-39-12z"/><path fill="#fff" d="M204 66l-12 35-11-63z"/><path fill="#dbe4e5" d="M244.2 44.7l16 20.5-28.4 22.1-16-20.5z"/><path d="M151 155h24v15h-24z"/><ellipse fill="#fff" cx="213" cy="34" rx="11" ry="11"/></g></svg>