<svg xmlns="http://www.w3.org/2000/svg" viewBox="0 0 200 133"><filter id="b"><feGaussianBlur stdDeviation="12" /></filter><path fill="#664a3e" d="M0 0h200v133H0z"/><g filter="url(#b)" transform="translate(.5 .5)" fill-opacity=".5"><ellipse fill="#c7b5ab" rx="1" ry="1" transform="matrix(.64745 28.53051 -106.49823 2.41678 84.5 71.8)"/><ellipse cx="103" cy="121" rx="188" ry="16"/><path d="M0 13h200v27H0z"/><ellipse fill="#baffff" cx="94" cy="56" rx="17" ry="13"/><ellipse fill="#f6944d" cx="93" rx="199" ry="12"/><ellipse fill="#3e0100" cx="198" cy="104" rx="18" ry="142"/><ellipse fill="#3d0000" cx="3" cy="65" rx="9" ry="34"/><path fill="#ecc6a0" d="M33 55L16 19l-4 73z"/><ellipse fill="#221218" cx="118" cy="47" rx="7" ry="44"/><ellipse fill="#be887f" cx="94" cy="24" rx="47" ry="4"/><ellipse cx="123" cy="126" rx="199" ry="17"/><ellipse fill="#d2ae8b" cx="172" cy="66" rx="9" ry="42"/><path fill="#200e14" d="M66 44h13v42H66z"/><ellipse fill="#db9d92" cx="87" cy="93" rx="83" ry="7"/><ellipse fill="#b8c1ab" rx="1" ry="1" transform="matrix(24.01773 3.71814 -.73602 4.75439 154.7 48)"/><path fill="#e8dddc" d="M85 79l-5 16 57-.5-18.3-.1z"/><path fill="#030002" d="M176 11H78l89 31z"/><path fill="#004bd6" d="M79 43h35v7H79z"/><path fill="#a50000" d="M13 99h124v4H13z"/><ellipse fill="#755c4b" cx="120" cy="77" rx="15" ry="15"/><path fill="#ebe0f4" d="M101.7 66.8L75 71l5.7-16.4 25.5-5.2z"/><ellipse fill="#a7a99d" rx="1" ry="1" transform="rotate(83.6 49.2 97.2) scale(16.02256 2.67673)"/></g></svg>