<svg xmlns="http://www.w3.org/2000/svg" viewBox="0 0 700 467"><filter id="b"><feGaussianBlur stdDeviation="12" /></filter><path fill="#0a1d06" d="M0 0h700v464H0z"/><g filter="url(#b)" transform="translate(1.4 1.4) scale(2.73438)" fill-opacity=".5"><path fill="#dbffbf" d="M138.5 86.8l3.2-36.9 37.8 3.3-3.2 36.9z"/><ellipse fill="#7ac083" rx="1" ry="1" transform="matrix(-51.68573 -20.25542 1.70492 -4.35044 201 71.4)"/><ellipse fill="#56e512" cx="51" rx="35" ry="13"/><path fill="#e5ffda" d="M173.2 89.3l-30.7-3.8 2.3-18.8 30.7 3.8z"/><ellipse fill="#d8eace" cx="103" cy="79" rx="7" ry="7"/><ellipse fill="#001700" rx="1" ry="1" transform="matrix(16.68153 23.30052 -31.01161 22.20214 126.8 46.4)"/><path fill="#009a02" d="M153 90h29v27h-29z"/><ellipse cx="222" cy="30" rx="76" ry="35"/><ellipse fill="#030000" cx="146" cy="153" rx="255" ry="38"/><ellipse fill="#015714" rx="1" ry="1" transform="matrix(-8.65603 2.06216 -7.74538 -32.5117 180.8 69.8)"/><path fill="#fff" d="M165 58h7v26h-7z"/><ellipse fill="#53ea1c" rx="1" ry="1" transform="rotate(49.7 -1.3 198.6) scale(9.52495 18.72614)"/><path fill="azure" d="M173.1 79.8l8 11.6-22.5-4.9-4-15z"/><ellipse cx="34" cy="53" rx="83" ry="34"/><path fill="#30b226" d="M128.5 20.8l24.5-33-2.5 22.8 32.8-22z"/><path fill="#004c00" d="M101 111l35-31 48 24z"/><path fill="#85b862" d="M215.3 79.2l6.8-2.6-25.7-14.2-47.8-12.8z"/><path fill="#036800" d="M168 41l-28 3-9 37z"/><path fill="#d0cfad" d="M117 85l-17-4-10-14z"/><ellipse fill="#000900" rx="1" ry="1" transform="rotate(-72.6 174.8 -97.3) scale(20.01052 31.96971)"/><path fill="#1a2001" d="M107 88.3l-72.3 64 100.8.2-72-121.8z"/><path fill="#004702" d="M170.5 31.7L184 73.5l-8.6 2.8L162 34.5z"/></g></svg>