<svg xmlns="http://www.w3.org/2000/svg" viewBox="0 0 700 467"><filter id="b"><feGaussianBlur stdDeviation="12" /></filter><path fill="#8f8f8b" d="M0 0h700v464H0z"/><g filter="url(#b)" transform="translate(1.4 1.4) scale(2.73438)" fill-opacity=".5"><ellipse fill="#fff" rx="1" ry="1" transform="matrix(-123.98875 -26.35462 13.46148 -63.33128 156 7.6)"/><ellipse fill="#1d140c" cx="141" cy="120" rx="255" ry="28"/><ellipse fill="#f5ffff" cx="157" cy="19" rx="106" ry="35"/><ellipse fill="#472d0b" rx="1" ry="1" transform="rotate(-148.6 12 11.2) scale(77.55824 18.91471)"/><ellipse fill="#956e55" rx="1" ry="1" transform="rotate(135.3 -12.4 63.6) scale(70.13822 20.28385)"/><ellipse fill="#060b00" rx="1" ry="1" transform="matrix(-17.44042 1.39656 -.84532 -10.55644 243.6 88)"/><path fill="#000407" d="M115 116h62v28h-62z"/><ellipse fill="#586461" rx="1" ry="1" transform="rotate(-179.2 128 72.9) scale(40.20786 95.81491)"/><path fill="#fffdd9" d="M13 58h39v20H13z"/><ellipse fill="#cedeed" rx="1" ry="1" transform="rotate(-19.6 297 -559.8) scale(25.00381 29.86961)"/><path fill="#1d1219" d="M43 104h52v38H43z"/><ellipse fill="#746d5c" rx="1" ry="1" transform="matrix(-9.21847 8.38817 -19.74635 -21.70095 179.8 85.4)"/><ellipse fill="red" cx="52" cy="98" rx="8" ry="14"/><ellipse fill="#37270d" cx="65" cy="75" rx="9" ry="24"/><ellipse fill="#727b63" rx="1" ry="1" transform="rotate(175.9 4 67.6) scale(31.83566 63.91645)"/><ellipse fill="#eff" rx="1" ry="1" transform="rotate(113.8 20.7 13.5) scale(15.38831 53.8703)"/><path fill="#e3f4ff" d="M126 0h30v81h-30z"/><path fill="#abb3ae" d="M217 111h22v23h-22z"/><path fill="#84b3da" d="M198 81l3 33-26 36z"/><path fill="#3c3824" d="M264 150.6l-8.4 25.7-27.6-9 8.4-25.6z"/><path fill="#ed574e" d="M139.3 94.5l-25-3.6 10.8 21.3 4-3.3z"/><ellipse fill="#e7f4ff" cx="142" rx="62" ry="62"/></g></svg>