<svg xmlns="http://www.w3.org/2000/svg" viewBox="0 0 200 133"><filter id="b"><feGaussianBlur stdDeviation="12" /></filter><path fill="#7a626e" d="M0 0h200v133H0z"/><g filter="url(#b)" transform="translate(.5 .5)" fill-opacity=".5"><ellipse fill="#fff" cx="173" cy="37" rx="56" ry="56"/><ellipse fill="#000e5d" cx="25" cy="45" rx="38" ry="199"/><ellipse fill="#e50000" rx="1" ry="1" transform="matrix(-79.283 .37347 -.12755 -27.07789 150.8 114.5)"/><ellipse fill="#fff" rx="1" ry="1" transform="matrix(35.8374 28.056 -36.83953 47.05704 169.3 36.8)"/><ellipse fill="#630000" cx="100" cy="86" rx="19" ry="185"/><ellipse fill="#002a5f" cx="16" cy="49" rx="50" ry="50"/><ellipse fill="#bf0000" cx="152" cy="113" rx="74" ry="25"/><path fill="#fff" d="M150 64v26h-32V64z"/><ellipse fill="#fff" rx="1" ry="1" transform="matrix(-18.325 20.96917 -24.13352 -21.09034 184.2 59.8)"/><ellipse fill="#00021a" rx="1" ry="1" transform="matrix(2.54361 -48.96047 10.7967 .56091 109.6 44.4)"/><path fill="#f50000" d="M104.3-11.3L96.6 98.5l-17-1.2 7.8-109.8z"/><ellipse fill="#02597d" cx="29" cy="120" rx="49" ry="49"/><path fill="#fff" d="M26.6 123.7L22 143.2l-12.7-3 4.5-19.4z"/><ellipse fill="#00295d" rx="1" ry="1" transform="matrix(37.03181 .21339 -.6832 118.5646 28.4 0)"/><ellipse fill="#9ca08f" cx="66" cy="96" rx="14" ry="22"/><ellipse fill="#ddfeff" cx="134" cy="2" rx="14" ry="87"/><path fill="#48dc3b" d="M173 20l-39 5 23 7z"/><ellipse fill="#97b5a5" rx="1" ry="1" transform="rotate(92.9 26.9 50) scale(65.36729 6.48765)"/><path fill="#100" d="M49 118h36v15H49z"/><ellipse fill="#004587" cx="118" cy="132" rx="9" ry="9"/><ellipse fill="#be0d00" cx="177" cy="111" rx="69" ry="23"/><ellipse fill="#001c42" cx="32" cy="9" rx="33" ry="33"/></g></svg>