<svg xmlns="http://www.w3.org/2000/svg" viewBox="0 0 700 467"><filter id="b"><feGaussianBlur stdDeviation="12" /></filter><path fill="#aba8a5" d="M0 0h700v464H0z"/><g filter="url(#b)" transform="translate(1.4 1.4) scale(2.73438)" fill-opacity=".5"><ellipse fill="#52504a" rx="1" ry="1" transform="matrix(-56.36925 -60.24598 14.66214 -13.71866 235.8 52.2)"/><ellipse fill="#4f1914" rx="1" ry="1" transform="matrix(16.20357 -13.49316 15.43786 18.5389 34.6 71.6)"/><ellipse fill="#d5dfe0" rx="1" ry="1" transform="rotate(-95 172.8 -31.8) scale(67.65997 120.95306)"/><ellipse fill="#594426" rx="1" ry="1" transform="matrix(-6.17164 -19.69372 21.74903 -6.81573 85.3 112.6)"/><path fill="#513631" d="M90 10L67 53l48 3z"/><ellipse fill="#cce6eb" rx="1" ry="1" transform="matrix(126.25198 97.59654 -18.09013 23.4016 41.5 143.1)"/><ellipse rx="1" ry="1" transform="matrix(28.90338 47.5483 -10.78606 6.55657 0 167.3)"/><ellipse fill="#746563" cx="157" cy="26" rx="27" ry="27"/><ellipse fill="#e2bab7" cx="129" cy="74" rx="34" ry="27"/><path fill="#464a48" d="M211 29h33v41h-33z"/><ellipse cx="3" cy="163" rx="9" ry="9"/><path fill="#73361f" d="M42 58l-29-1-9-30z"/><ellipse fill="#151814" cx="255" cy="84" rx="7" ry="13"/><ellipse fill="#e9a394" rx="1" ry="1" transform="rotate(-7.8 804 -1371.9) scale(19.10777 27.52207)"/><ellipse fill="#85735e" rx="1" ry="1" transform="rotate(87.7 15.6 35) scale(29.96145 8.64494)"/><path fill="#aab8b9" d="M224 41h8v70h-8z"/><ellipse fill="#c6bda8" rx="1" ry="1" transform="matrix(-28.97535 2.87758 -1.36282 -13.72277 223.2 9.4)"/><ellipse fill="#300e0d" cx="36" cy="81" rx="10" ry="10"/><path fill="#d7c1b7" d="M127.3 34.3L54.6 3.4l16-37.7 72.8 30.9z"/><ellipse fill="#ae6628" rx="1" ry="1" transform="matrix(4.46945 1.57538 -4.4639 12.66431 196.6 68.2)"/><path fill="#c2bec0" d="M29 70l2-14-47 14z"/><ellipse fill="#7b7466" rx="1" ry="1" transform="matrix(-10.38426 -22.26912 11.48085 -5.35361 90.1 99)"/></g></svg>