<svg xmlns="http://www.w3.org/2000/svg" viewBox="0 0 700 467"><filter id="b"><feGaussianBlur stdDeviation="12" /></filter><path fill="#7a7d87" d="M0 0h700v464H0z"/><g filter="url(#b)" transform="translate(1.4 1.4) scale(2.73438)" fill-opacity=".5"><ellipse fill="#110100" cx="127" cy="160" rx="131" ry="22"/><ellipse fill="#caffff" rx="1" ry="1" transform="matrix(59.11272 5.38723 -1.63793 17.97255 84.3 48.4)"/><ellipse fill="#fcffff" rx="1" ry="1" transform="rotate(86.5 -44.3 80.3) scale(24.88645 78.41039)"/><ellipse fill="#8b88ff" cx="217" cy="51" rx="60" ry="22"/><path fill="#011200" d="M68 68h60v29H68z"/><ellipse cx="6" cy="85" rx="39" ry="9"/><path fill="#a4814f" d="M111 98.3l73-2.5 3 83.9-73 2.5z"/><ellipse fill="#4b473e" rx="1" ry="1" transform="matrix(-.76586 -20.8862 146.60617 -5.3758 130.8 1.3)"/><ellipse fill="#b9bbaf" rx="1" ry="1" transform="matrix(-62.69142 -30.03084 11.15123 -23.27895 204.8 107)"/><ellipse fill="#0000db" rx="1" ry="1" transform="matrix(10.87715 -.13897 .2611 20.43605 22.1 51)"/><ellipse fill="#fff" rx="1" ry="1" transform="matrix(-26.04682 4.8354 -2.2054 -11.87987 56 46)"/><path fill="#ccdbf3" d="M166 13h34v45h-34z"/><path d="M164 23.1l-37.4-12 19 15.6 15.8 23.7z"/><ellipse fill="#030601" rx="1" ry="1" transform="matrix(-27.05568 14.38197 -9.229 -17.3618 87.3 156.9)"/><ellipse fill="#7a77ff" rx="1" ry="1" transform="matrix(.62953 21.21093 -68.57575 2.03528 226.3 53.9)"/><ellipse fill="#41a0ff" cx="98" cy="49" rx="15" ry="21"/><path fill="#000500" d="M117.4 69l13.7 44.9-10.5 3.2L107 72z"/><ellipse fill="#c8d5ce" cx="10" cy="125" rx="46" ry="26"/><path fill="#a65d3e" d="M118 20l43 28-19 28z"/><path fill="#10140f" d="M96 167.3L-6 187l-6-30.4L90 137z"/><ellipse fill="#272114" cx="250" cy="159" rx="65" ry="14"/><path fill="#f5c089" d="M153 14l25 18 34-19z"/></g></svg>