<svg xmlns="http://www.w3.org/2000/svg" viewBox="0 0 641 195"><filter id="b"><feGaussianBlur stdDeviation="12" /></filter><path fill="#736651" d="M0 0h641v192H0z"/><g filter="url(#b)" transform="translate(1.3 1.3) scale(2.5039)" fill-opacity=".5"><ellipse fill="#d5f7ff" rx="1" ry="1" transform="matrix(-18.48235 44.62034 -37.50435 -15.53481 158.1 29.5)"/><ellipse rx="1" ry="1" transform="matrix(-.67018 -100.05988 39.22136 -.2627 0 25)"/><ellipse rx="1" ry="1" transform="matrix(25.45168 1.89334 -7.29254 98.03158 249.9 55)"/><ellipse fill="#f9ffff" rx="1" ry="1" transform="matrix(-11.57411 6.20599 -13.15988 -24.54308 206.4 65.4)"/><ellipse cx="74" cy="71" rx="6" ry="138"/><ellipse fill="#cb5a00" cx="44" cy="30" rx="27" ry="27"/><path d="M93.5 40v-54h23v54z"/><path fill="#fff" d="M86.9 52.9l14-5.4L119 95.1l-14 5.4z"/><ellipse rx="1" ry="1" transform="matrix(8.78173 -67.08626 15.99834 2.09421 4 45.6)"/><ellipse fill="#ffe59b" rx="1" ry="1" transform="rotate(-101.8 116.2 -82.5) scale(32.02253 9.27468)"/><path d="M167 87.1l7.5 1.7 25.4-19-27.7-11.7z"/><path fill="#fff" d="M51 46L41 81l25 11z"/><path fill="#ffee6d" d="M248 0h8v30h-8z"/><path d="M61.9 52l30.9 2-2.7 38-30.9-2.2z"/><path fill="#ffc439" d="M80 0h13v61H80z"/><ellipse cx="53" cy="9" rx="6" ry="42"/><ellipse rx="1" ry="1" transform="matrix(1.02142 27.74426 -32.9206 1.21199 254 61.1)"/><ellipse fill="#e4decf" rx="1" ry="1" transform="matrix(7.0586 19.95899 -24.29775 8.59303 141.5 72.5)"/><path d="M33.6 92L-1.6 77.7l12-29.7 35.2 14.3z"/><ellipse fill="#ffbd08" cx="65" cy="9" rx="6" ry="41"/><path fill="#ff9c09" d="M22 16h9v38h-9z"/><ellipse cx="34" cy="18" rx="3" ry="90"/></g></svg>