<svg xmlns="http://www.w3.org/2000/svg" viewBox="0 0 700 467"><filter id="b"><feGaussianBlur stdDeviation="12" /></filter><path fill="#424155" d="M0 0h700v464H0z"/><g filter="url(#b)" transform="translate(1.4 1.4) scale(2.73438)" fill-opacity=".5"><path fill="#dacbef" d="M83 33h92v67H83z"/><ellipse cx="53" cy="118" rx="25" ry="67"/><ellipse fill="#f0e4ff" rx="1" ry="1" transform="matrix(8.69433 2.89222 -9.91329 29.80045 158 145.4)"/><ellipse rx="1" ry="1" transform="matrix(-34.59694 26.28045 -14.26438 -18.77836 110.4 145.3)"/><ellipse rx="1" ry="1" transform="rotate(78.7 41.7 203.2) scale(133.04666 30.07593)"/><ellipse fill="#57778c" rx="1" ry="1" transform="rotate(45 28.3 116.8) scale(58.74693 42.19816)"/><ellipse fill="#e5dbff" rx="1" ry="1" transform="matrix(10.96938 -39.04036 11.02837 3.0987 92 105.4)"/><ellipse fill="#72caff" rx="1" ry="1" transform="matrix(-10.91775 9.93505 -21.71789 -23.86605 16.7 165.9)"/><ellipse fill="#ffebff" rx="1" ry="1" transform="matrix(25.73618 3.18812 -1.69042 13.64597 154.6 43.2)"/><path fill="#161524" d="M126.2 68.7L61 57.6l33.6-25L131 32z"/><ellipse fill="#ff0416" cx="176" cy="156" rx="16" ry="16"/><path fill="#a7dcea" d="M53 0l11 21 68-4z"/><path fill="#d2d2f8" d="M124.5 114L75 95.7 97.8 45l9 8z"/><ellipse fill="#746999" cx="173" cy="107" rx="27" ry="27"/><ellipse fill="#000002" rx="1" ry="1" transform="matrix(27.03712 2.36544 -1.93459 22.11241 37.3 133.4)"/><path fill="#c6ffff" d="M271 40l-41-3 11-11z"/><path d="M100 99h13v71h-13z"/><ellipse rx="1" ry="1" transform="matrix(-9.79756 -26.57525 22.58583 -8.32677 57.2 106.2)"/><ellipse fill="#010927" rx="1" ry="1" transform="rotate(25.7 -218.6 556.4) scale(26.15256 53.06886)"/><ellipse rx="1" ry="1" transform="rotate(124.6 8.2 109.6) scale(43.97296 29.98954)"/><ellipse fill="#000b0a" rx="1" ry="1" transform="matrix(-.97158 -26.44767 30.83418 -1.13272 254.4 4.6)"/><path fill="#02080b" d="M-16 48l110 8-28 37z"/></g></svg>