<svg xmlns="http://www.w3.org/2000/svg" viewBox="0 0 700 467"><filter id="b"><feGaussianBlur stdDeviation="12" /></filter><path fill="#e1eaf4" d="M0 0h700v464H0z"/><g filter="url(#b)" transform="translate(1.4 1.4) scale(2.73438)" fill-opacity=".5"><ellipse fill="#070000" cx="67" cy="115" rx="12" ry="12"/><path fill="#3e5c69" d="M79.5 22.1L62 53.6l-17.5-9.7L62 12.4z"/><path fill="#76898f" d="M33.5 149.3l-1.6-13 62.6-7.6 1.6 13z"/><path fill="#c3bebd" d="M220 126l-44 34-3-80z"/><path fill="#c0bc88" d="M158 33h56v15h-56z"/><path fill="#f8fdff" d="M54-16l217 30L80 38z"/><ellipse fill="#cddde6" rx="1" ry="1" transform="matrix(33.66657 -10.01855 4.90582 16.48561 55 55.8)"/><ellipse fill="#f1fbff" rx="1" ry="1" transform="rotate(-101 117.2 -34) scale(24.03373 100.48405)"/><path fill="#392a22" d="M64.9 124.7l-3.6-22 16.6.8 2.5 14.8z"/><path fill="#eaf6ff" d="M54.5 133l128-46.6-72.2 98.6-29.8-67.4z"/><ellipse fill="#f0f8ff" cx="239" cy="123" rx="31" ry="184"/><path fill="#4b646d" d="M46.8 40L57 19l.9 6.1 27.7 7.4z"/><path fill="#e94c00" d="M68 104l-8 18-2-17z"/><path fill="#ebf6ff" d="M21.6-16l37.3 125.7-2.6 18.1L-16 154z"/><path fill="#8a6644" d="M173 139.8l51.9-4.6v1l-51.8 4.6z"/><ellipse fill="#916a40" cx="197" cy="99" rx="11" ry="2"/><path fill="#e9f2ff" d="M257 184.6L258.7-16l-43 69.5-9 104.6z"/><path fill="#00000d" d="M67 15l-5-5-2 8z"/><ellipse fill="#365364" rx="1" ry="1" transform="matrix(4.28747 6.61877 -.8393 .54367 46.3 50.1)"/><path fill="#08364c" d="M57 54l2-8-3-5z"/><ellipse fill="#eef4ff" rx="1" ry="1" transform="matrix(-21.24506 21.17103 -30.67804 -30.78531 109.5 28.8)"/><path fill="#003b74" d="M62.5 120.3l15.4-8.4-13.4-4 1.8-5z"/></g></svg>