<svg xmlns="http://www.w3.org/2000/svg" viewBox="0 0 200 133"><filter id="b"><feGaussianBlur stdDeviation="12" /></filter><path fill="#4b5090" d="M0 0h200v133H0z"/><g filter="url(#b)" transform="translate(.5 .5)" fill-opacity=".5"><ellipse fill="#b1a1ff" rx="1" ry="1" transform="matrix(4.89038 -24.92084 92.32528 18.1176 114.5 59.3)"/><ellipse fill="#0a0e00" cx="24" cy="119" rx="41" ry="40"/><ellipse fill="#141700" rx="1" ry="1" transform="rotate(-56.9 196.1 -95) scale(43.0639 32.92633)"/><ellipse cx="132" cy="2" rx="138" ry="11"/><path d="M172 13h12v69h-12z"/><ellipse cx="21" cy="45" rx="8" ry="48"/><ellipse fill="#9e73ff" cx="56" cy="44" rx="31" ry="31"/><path fill="#000804" d="M63 96h137v14H63z"/><ellipse fill="#72aeff" rx="1" ry="1" transform="matrix(-7.47328 44.02508 -12.70003 -2.15584 0 51.3)"/><path fill="#ddf1e1" d="M66 111h38v18H66z"/><path fill="#7ed5ff" d="M184 26h16v63h-16z"/><ellipse fill="#2d45ee" cx="118" cy="29" rx="52" ry="19"/><ellipse fill="#cfb2ff" cx="133" cy="65" rx="26" ry="20"/><path fill="#1b3fff" d="M31 64h59v19H31z"/><path fill="#170a00" d="M80.4 127.9L83 78.8l7.7 62.2L-16 130.4z"/><path fill="#fff" d="M112 126l8 2-9-18z"/><path d="M71 129l113 1-69 18z"/><ellipse fill="#3171ff" rx="1" ry="1" transform="matrix(8.67409 30.37084 -7.06438 2.01763 192.9 32.2)"/><path fill="#d6dfd8" d="M171.3 42.2l-10-19.6 5.4-2.8 10 19.6z"/><path fill="#1631fd" d="M132.2 47.5l2-15.9 39.6 4.9-2 15.9z"/><path fill="#6289ff" d="M1 6h12v85H1z"/><path fill="#f1fff2" d="M125 111h9v17h-9z"/></g></svg>