<svg xmlns="http://www.w3.org/2000/svg" viewBox="0 0 200 133"><filter id="b"><feGaussianBlur stdDeviation="12" /></filter><path fill="#707071" d="M0 0h200v133H0z"/><g filter="url(#b)" transform="translate(.5 .5)" fill-opacity=".5"><ellipse fill="#fff" cx="126" cy="8" rx="199" ry="38"/><ellipse cx="66" cy="116" rx="68" ry="68"/><ellipse rx="1" ry="1" transform="matrix(30.47367 6.64433 -14.30935 65.6286 169.4 131.6)"/><ellipse fill="#f9ffff" rx="1" ry="1" transform="rotate(94.5 54.6 51.9) scale(32.26741 164.05108)"/><ellipse fill="#0b0607" cx="93" cy="75" rx="35" ry="35"/><path fill="#a7a4b1" d="M82 143l61-33V62z"/><path fill="#e1dfd9" d="M35 85h16v19H35z"/><path fill="#e8d6c0" d="M28.2 48l24.4-23.6L65.8 38 41.4 61.6z"/><ellipse fill="#0a0400" rx="1" ry="1" transform="matrix(-30.45402 11.44691 -9.98543 -26.56582 174.2 122)"/><path fill="#140c06" d="M28.3 33.7l12.4 60.8-27.8-25.8 33.2-45.1z"/><ellipse cx="63" cy="122" rx="22" ry="22"/><path fill="#f1fcff" d="M81.4 50l9.7 7.7L81.3-16l-20.7 4.6z"/><path fill="#332721" d="M131 35l24 12-77 36z"/><ellipse fill="#d4e3f4" rx="1" ry="1" transform="matrix(-18.9869 -11.91525 5.8957 -9.39478 3.4 34.6)"/><path fill="#eafeff" d="M98 111h8v22h-8z"/><path fill="#14171a" d="M116 53l4 86-67-89z"/><path fill="#afa299" d="M145 31l-6 35 76-13z"/><ellipse fill="#eaf8ff" cx="117" rx="71" ry="31"/><path fill="#0b0b08" d="M104.2 98.7l-124.3 38-4.1-13.4 124.3-38z"/><path fill="#94644c" d="M89.1 39.6l4-16.1 18.4 16.2-11.5 9.5z"/><ellipse fill="#423b25" cx="157" cy="89" rx="14" ry="26"/><path fill="#aed9f3" d="M64 89l-8 13-2-12z"/></g></svg>