<svg xmlns="http://www.w3.org/2000/svg" viewBox="0 0 800 533"><filter id="b"><feGaussianBlur stdDeviation="12" /></filter><path fill="#777967" d="M0 0h800v531H0z"/><g filter="url(#b)" transform="translate(1.6 1.6) scale(3.125)" fill-opacity=".5"><ellipse fill="#202d00" cx="219" cy="111" rx="68" ry="68"/><ellipse fill="#fff" rx="1" ry="1" transform="matrix(57.52906 -6.8912 3.1884 26.61745 95 164.6)"/><ellipse fill="#fff" cx="26" cy="24" rx="129" ry="15"/><ellipse fill="#dcf9ff" cx="46" cy="103" rx="15" ry="44"/><ellipse rx="1" ry="1" transform="matrix(-4.3084 35.73151 -18.38666 -2.217 94.6 84.7)"/><ellipse fill="#fffeff" cx="132" cy="87" rx="19" ry="36"/><ellipse fill="#193800" rx="1" ry="1" transform="rotate(-50.2 131.8 -213.4) scale(34.43274 36.84688)"/><ellipse fill="#000004" cx="6" cy="107" rx="10" ry="58"/><ellipse fill="#fff" cx="255" cy="13" rx="10" ry="74"/><ellipse rx="1" ry="1" transform="matrix(-17.3075 6.72122 -23.28635 -59.9636 184.2 146.4)"/><path fill="#e7e6c4" d="M201 121h23v18h-23z"/><ellipse fill="#fff" cx="124" cy="169" rx="30" ry="30"/><ellipse cx="223" cy="169" rx="71" ry="16"/><ellipse fill="#dbe6ff" rx="1" ry="1" transform="matrix(7.3781 2.00463 -8.02835 29.54866 48.3 133.5)"/><ellipse fill="#eeebf0" rx="1" ry="1" transform="matrix(-13.77157 8.17696 -15.01882 -25.29458 3.5 27.2)"/><path fill="#fff" d="M39 15h90v14H39zm102.4 4.3l8.7 27.5 17.1 13.5-14.1-35.7z"/><ellipse fill="#34120e" cx="93" cy="78" rx="15" ry="52"/><path fill="#a6b7ff" d="M15 80h47v32H15z"/><path fill="#c4c9ac" d="M249 141h7v29h-7z"/><ellipse fill="#f1d4e0" rx="1" ry="1" transform="matrix(-6.00787 -5.04503 8.20783 -9.77428 74 48.7)"/><ellipse fill="#425702" rx="1" ry="1" transform="matrix(-55.08944 -18.53964 7.68998 -22.85033 192.6 16)"/></g></svg>