<svg xmlns="http://www.w3.org/2000/svg" viewBox="0 0 200 133"><filter id="b"><feGaussianBlur stdDeviation="12" /></filter><path fill="#616467" d="M0 0h200v133H0z"/><g filter="url(#b)" transform="translate(.5 .5)" fill-opacity=".5"><ellipse cx="174" cy="114" rx="81" ry="81"/><ellipse fill="#adb8b5" cx="27" cy="42" rx="78" ry="78"/><ellipse fill="#a8abb2" cx="142" cy="18" rx="23" ry="85"/><ellipse fill="#211d1c" cx="114" cy="72" rx="108" ry="12"/><ellipse fill="#00000b" cx="199" cy="86" rx="25" ry="104"/><path fill="#e9ded7" d="M32.5 119.2l-5-20.4 64-16 5 20.4z"/><path fill="#fff" d="M143 73h16v17h-16z"/><ellipse fill="#292121" cx="82" cy="120" rx="18" ry="21"/><path fill="#fff" d="M125 4h6v48h-6z"/><ellipse rx="1" ry="1" transform="rotate(57.1 -22.9 145) scale(32.32436 10.66254)"/><path fill="#100108" d="M17.9 102.9l-6.5-14.8-27.4 8 3.4 8z"/><ellipse fill="#a0b0b7" rx="1" ry="1" transform="matrix(-19.0619 -10.7847 14.47936 -25.59218 79.6 24.4)"/><ellipse fill="#fff8f5" cx="99" cy="21" rx="4" ry="30"/><ellipse fill="#cfc7bc" rx="1" ry="1" transform="rotate(-23 279.2 -13) scale(47.76967 10.67529)"/><ellipse fill="#00020b" cx="139" cy="60" rx="11" ry="15"/><path fill="#cbcbc1" d="M44.8 78.7l36.5-3-33.5 16.5 53.4 13.5z"/><path fill="#dfdae3" d="M149 22h8v28h-8z"/><ellipse fill="#fff" cx="39" cy="30" rx="3" ry="37"/><ellipse fill="#fff" rx="1" ry="1" transform="matrix(1.59535 -.03186 .58948 29.51429 64.9 34.3)"/><ellipse fill="#0e0b18" rx="1" ry="1" transform="matrix(-.41431 17.54723 -9.39472 -.22182 163.8 65.5)"/><path d="M105 82h22v40h-22z"/><ellipse fill="#384b8c" rx="1" ry="1" transform="matrix(-5.80441 -18.86754 13.53291 -4.16327 181 13)"/></g></svg>