<svg xmlns="http://www.w3.org/2000/svg" viewBox="0 0 200 133"><filter id="b"><feGaussianBlur stdDeviation="12" /></filter><path fill="#4b494b" d="M0 0h200v133H0z"/><g filter="url(#b)" transform="translate(.5 .5)" fill-opacity=".5"><ellipse fill="#fff" rx="1" ry="1" transform="matrix(-1.5519 29.61197 -73.3072 -3.84187 140.7 10.5)"/><ellipse fill="#03060b" cx="72" cy="116" rx="75" ry="75"/><ellipse fill="#050507" cx="174" cy="77" rx="199" ry="27"/><ellipse fill="#9d8d8b" rx="1" ry="1" transform="matrix(67.15498 26.85403 -12.5391 31.35706 66.5 15.7)"/><ellipse fill="#fff" rx="1" ry="1" transform="matrix(28.103 -19.02716 11.1749 16.50525 148.3 0)"/><ellipse fill="#635b58" cx="169" cy="28" rx="20" ry="20"/><path fill="#fff" d="M34 86h3v23h-3z"/><ellipse fill="#fff" cx="134" rx="93" ry="7"/><ellipse fill="#6b5454" rx="1" ry="1" transform="matrix(-11.74117 29.30007 -13.03384 -5.22294 73.8 35.2)"/><ellipse fill="#010307" cx="199" cy="79" rx="31" ry="31"/><ellipse fill="#b1b4b3" cx="6" cy="121" rx="4" ry="18"/><path fill="#7a848c" d="M149.6 103.8l15.6 37.9.2-41.8-10.9-17z"/><path fill="#fff" d="M173.5 98.9l3.7-1.7 5.3 12-3.7 1.6z"/><path fill="#c8d4dc" d="M82.3 45.7L81 40l38.8-9.6L121 36z"/><ellipse fill="#505f70" cx="91" cy="132" rx="80" ry="9"/><ellipse fill="#796e70" rx="1" ry="1" transform="matrix(-68.21104 -8.13367 1.01917 -8.54704 121.4 33.6)"/><path fill="#fff" d="M150.7 26.6l-27.8-3.4 2.4-19.8 27.8 3.4z"/><ellipse cx="3" cy="82" rx="5" ry="36"/><path fill="#fff" d="M101 98h4v12h-4z"/><ellipse cx="189" cy="115" rx="6" ry="12"/><ellipse fill="#e1eae1" cx="11" cy="7" rx="33" ry="3"/><path fill="#00030f" d="M175 85l-1 38-18 1z"/></g></svg>