<svg xmlns="http://www.w3.org/2000/svg" viewBox="0 0 700 467"><filter id="b"><feGaussianBlur stdDeviation="12" /></filter><path fill="#3f3929" d="M0 0h700v464H0z"/><g filter="url(#b)" transform="translate(1.4 1.4) scale(2.73438)" fill-opacity=".5"><ellipse fill="#caaf79" cx="115" rx="79" ry="79"/><ellipse fill="#020000" cx="98" cy="77" rx="36" ry="36"/><ellipse fill="#c6af79" cx="176" cy="26" rx="195" ry="15"/><ellipse fill="#000004" cx="183" cy="140" rx="188" ry="68"/><ellipse fill="#c4a27d" cx="49" cy="47" rx="26" ry="15"/><path fill="#fff" d="M-16 109l23 10 1-25z"/><ellipse fill="#00000a" rx="1" ry="1" transform="rotate(28.1 -135.1 33.8) scale(63.5861 21.62612)"/><path fill="#0b0901" d="M144 42h37v14h-37z"/><ellipse fill="#f3d063" cx="122" cy="79" rx="3" ry="24"/><ellipse fill="#000106" rx="1" ry="1" transform="rotate(29.9 -76 506.3) scale(36.80934 59.2639)"/><ellipse fill="#7f6939" rx="1" ry="1" transform="rotate(-109.4 27 -12.3) scale(26.5455 48.79945)"/><ellipse fill="#060605" cx="98" cy="67" rx="24" ry="14"/><ellipse fill="#978251" rx="1" ry="1" transform="rotate(21.2 78.2 561.6) scale(30.05181 33.25247)"/><ellipse fill="#5d7255" cx="184" cy="169" rx="41" ry="9"/><ellipse fill="#8a653f" rx="1" ry="1" transform="matrix(-8.41832 2.06702 -5.93067 -24.1537 72.4 70.5)"/><path fill="#c2b3a4" d="M158 65.5h8v19h-8z"/><ellipse fill="#000201" rx="1" ry="1" transform="matrix(38.37358 -34.43065 23.33487 26.00714 40.7 164.2)"/><path fill="#4d4122" d="M217 18.8l14.5-25.1L293 29.2l-14.5 25.1z"/><ellipse fill="#bcaf8a" rx="1" ry="1" transform="rotate(-90.6 89.4 -56.7) scale(9.60836 56.43024)"/><ellipse fill="#9f8a64" cx="197" cy="45" rx="5" ry="30"/><path fill="#f4ffff" d="M70 37l-1 9-20 6z"/><ellipse fill="#c19783" cx="231" cy="53" rx="7" ry="7"/></g></svg>