<svg xmlns="http://www.w3.org/2000/svg" viewBox="0 0 700 467"><filter id="b"><feGaussianBlur stdDeviation="12" /></filter><path fill="#3b2b18" d="M0 0h700v464H0z"/><g filter="url(#b)" transform="translate(1.4 1.4) scale(2.73438)" fill-opacity=".5"><ellipse fill="#fff" cx="179" cy="30" rx="19" ry="19"/><path fill="#fff5f4" d="M55.8 30l23.7 16.7-37.3 53.2-23.7-16.6z"/><ellipse fill="#cca453" rx="1" ry="1" transform="matrix(-18.97013 23.73649 -16.7639 -13.39766 13.7 32.6)"/><ellipse fill="#050000" rx="1" ry="1" transform="rotate(54.3 -48.2 128.5) scale(30.23465 88.9655)"/><ellipse fill="#000004" cx="196" cy="166" rx="48" ry="117"/><path fill="#fffcc1" d="M205 26L144 7l45 45z"/><path d="M59 54L46 38-5 86z"/><path fill="#fffff9" d="M65 55L19 74l21 19z"/><path fill="#feffff" d="M-1.5 60l-14.4-14L1.5 28l14.4 14z"/><path d="M0 82h32v42H0z"/><ellipse fill="#e6e2d9" rx="1" ry="1" transform="rotate(156.2 23.4 29.5) scale(4.74318 29.15951)"/><path fill="#cd9b7e" d="M182.5 103.7L162.1 96l17.7-3.3 18.6 3.2z"/><path fill="#907e65" d="M209 11l-50 50 57-18z"/><ellipse fill="#310500" rx="1" ry="1" transform="matrix(8.73518 -16.03646 24.51908 13.35572 70 93.3)"/><ellipse fill="#9b724a" rx="1" ry="1" transform="rotate(10.2 -343.1 1458.8) scale(7.9313 35.2379)"/><ellipse fill="#463000" cx="188" cy="4" rx="57" ry="11"/><ellipse fill="#704b12" cx="29" cy="15" rx="26" ry="26"/><path fill="#251a08" d="M225.4 69.3L177 57l91-73-84 26z"/><ellipse fill="#271500" cx="111" cy="56" rx="42" ry="83"/><ellipse fill="#855510" cx="80" cy="40" rx="14" ry="14"/><path fill="#fff" d="M46 93l-4-12-14 9z"/><path fill="#f9fff8" d="M57 75l13-29-13-16z"/></g></svg>