<svg xmlns="http://www.w3.org/2000/svg" viewBox="0 0 200 122"><filter id="b"><feGaussianBlur stdDeviation="12" /></filter><path fill="#5c3c5b" d="M0 0h200v122H0z"/><g filter="url(#b)" transform="translate(.5 .5)" fill-opacity=".5"><ellipse fill="#e3f5f0" rx="1" ry="1" transform="rotate(-178.7 49.1 33.3) scale(65.42488 35.57568)"/><ellipse cx="199" cy="19" rx="41" ry="106"/><ellipse fill="#000008" rx="1" ry="1" transform="matrix(31.7878 2.60584 -4.49588 54.8438 11.6 36.8)"/><path fill="#1afdff" d="M39 38l4 29 60-8z"/><ellipse fill="#001" rx="1" ry="1" transform="matrix(-93.23234 -69.25482 17.80765 -23.97304 163.5 13.3)"/><ellipse fill="#5600a0" rx="1" ry="1" transform="matrix(47.89525 3.4486 -1.33078 18.4824 99.2 22.7)"/><ellipse fill="#6a0000" cx="129" cy="119" rx="199" ry="18"/><path fill="#fff" d="M44 41h83v10H44z"/><path fill="#bc739a" d="M21 71h146v31H21z"/><ellipse fill="#a5fd50" cx="145" cy="49" rx="17" ry="8"/><ellipse rx="1" ry="1" transform="rotate(-53.8 78.3 32.1) scale(21.1293 18.89017)"/><ellipse fill="#00001a" rx="1" ry="1" transform="matrix(1.53352 14.06545 -114.16332 12.44695 37.6 0)"/><path fill="#00b8f8" d="M70 46l1 23-38-9z"/><ellipse fill="#170829" cx="132" cy="30" rx="30" ry="11"/><ellipse fill="#0c031a" cx="38" cy="95" rx="10" ry="10"/><path fill="#ff7fff" d="M88 38l9-30-11 8z"/><path fill="#b444f3" d="M55.3 22.6L71 10.7 78.4 41H73z"/><ellipse fill="#efb6b2" rx="1" ry="1" transform="matrix(-.63576 7.54952 -28.60983 -2.40929 97.6 63.7)"/><ellipse fill="#000004" cx="188" cy="60" rx="25" ry="33"/><ellipse fill="#610008" cx="159" cy="115" rx="164" ry="15"/><path fill="#7900de" d="M34 11h12v17H34z"/><path fill="#0002ce" d="M160 67v27l-7-21z"/></g></svg>