<svg xmlns="http://www.w3.org/2000/svg" viewBox="0 0 700 467"><filter id="b"><feGaussianBlur stdDeviation="12" /></filter><path fill="#4d3876" d="M0 0h700v464H0z"/><g filter="url(#b)" transform="translate(1.4 1.4) scale(2.73438)" fill-opacity=".5"><ellipse fill="#eabaff" rx="1" ry="1" transform="matrix(-28.88685 27.23615 -52.34934 -55.52209 141.6 83.1)"/><ellipse rx="1" ry="1" transform="matrix(-202.19892 -8.8282 1.0569 -24.20704 74.3 150.8)"/><ellipse fill="#ff87ff" rx="1" ry="1" transform="matrix(-1.5638 12.37868 -113.9882 -14.40006 42.3 110)"/><ellipse fill="#000047" cx="33" cy="37" rx="54" ry="54"/><ellipse fill="#c87ade" rx="1" ry="1" transform="matrix(-5.10943 23.63206 -99.23146 -21.4546 202 113.5)"/><ellipse fill="#e5f6ff" rx="1" ry="1" transform="rotate(18.5 -69.6 665.6) scale(19.85755 14.79093)"/><ellipse fill="#000039" rx="1" ry="1" transform="rotate(-86.1 76.4 -75.3) scale(20.88755 218.66848)"/><ellipse rx="1" ry="1" transform="matrix(14.59431 .68196 -2.09775 44.89322 251 61.4)"/><ellipse fill="#000074" cx="196" cy="76" rx="133" ry="7"/><ellipse cx="50" cy="169" rx="205" ry="23"/><path fill="#d4dbdf" d="M98 24h66v47H98z"/><ellipse fill="#f0b3ff" rx="1" ry="1" transform="matrix(-18.56572 -18.13523 7.32068 -7.49446 47.6 101.7)"/><path fill="#1e0052" d="M143.6 65.7l-4-4.2 16-22.8-31.6-.4z"/><path fill="#0c00a3" d="M161 19h27v65h-27z"/><ellipse fill="#46006e" rx="1" ry="1" transform="matrix(30.29626 -5.4654 1.17683 6.52348 117 103.5)"/><ellipse rx="1" ry="1" transform="matrix(-3.49762 -61.52436 16.68418 -.94849 253.5 42.5)"/><ellipse fill="#00004b" rx="1" ry="1" transform="matrix(36.887 7.1701 -8.9442 46.01393 5.6 46.8)"/><path fill="#fff" d="M233 52l-44 13V45z"/><ellipse fill="#eaeae6" cx="145" cy="90" rx="70" ry="4"/><path fill="#310e80" d="M207 64l-18 59-28-63z"/><ellipse fill="#fff" rx="1" ry="1" transform="matrix(-3.34213 4.82845 -4.90315 -3.39384 230.9 93.6)"/><ellipse fill="#82714a" cx="225" cy="145" rx="92" ry="9"/></g></svg>