<svg xmlns="http://www.w3.org/2000/svg" viewBox="0 0 200 133"><filter id="b"><feGaussianBlur stdDeviation="12" /></filter><path fill="#5f4846" d="M0 0h200v133H0z"/><g filter="url(#b)" transform="translate(.5 .5)" fill-opacity=".5"><path fill="#f7f3ff" d="M66 100h45v25H66z"/><ellipse fill="#c2945f" cx="181" cy="80" rx="28" ry="28"/><path fill="#ffc7f7" d="M129 110h32v15h-32z"/><ellipse fill="#fff" rx="1" ry="1" transform="rotate(162.3 39.3 26.1) scale(11.18238 6.5928)"/><ellipse fill="#000211" rx="1" ry="1" transform="matrix(3.8756 23.9287 -13.50758 2.18775 18.3 63.3)"/><path fill="#00000f" d="M31 99h27v34H31z"/><ellipse fill="#00000f" cx="119" cy="87" rx="11" ry="33"/><ellipse fill="#402e19" cx="179" cy="17" rx="95" ry="38"/><ellipse fill="#000004" rx="1" ry="1" transform="matrix(8.25292 -9.71923 20.09212 17.06088 184.6 123)"/><path fill="#140009" d="M37.3 58.3l18-50.7 16 7.4-8.7 65z"/><path fill="#cba6b2" d="M12.5 126l-37.6-48.1 12.6-9.9 37.6 48.1z"/><path fill="#ffb568" d="M109 30h36v8h-36z"/><path fill="#e8e4d3" d="M150 59h42v8h-42z"/><ellipse fill="#0060f2" rx="1" ry="1" transform="matrix(-13.57123 -4.88594 2.48805 -6.91082 130.6 56.4)"/><path d="M-6-16l-10 41L47-6z"/><path fill="#fffcd0" d="M21 8h10v13H21z"/><ellipse fill="#845e82" cx="105" cy="128" rx="45" ry="14"/><path fill="#f1f9fe" d="M210.6 97.2l-13.4 8.7-9.8-15 13.4-8.8z"/><path fill="#ed936a" d="M44 25l-3 24-16-20z"/><path fill="#f8f6ff" d="M73 103h41v10H73z"/><path fill="#4a1c00" d="M29 64L6 106l38-6z"/><ellipse fill="#ca7e58" rx="1" ry="1" transform="matrix(8.31014 -2.86141 5.538 16.0835 45.2 80.8)"/></g></svg>