<svg xmlns="http://www.w3.org/2000/svg" viewBox="0 0 700 467"><filter id="b"><feGaussianBlur stdDeviation="12" /></filter><path fill="#5f5d59" d="M0 0h700v464H0z"/><g filter="url(#b)" transform="translate(1.4 1.4) scale(2.73438)" fill-opacity=".5"><ellipse fill="#d9ffff" rx="1" ry="1" transform="matrix(39.3427 23.02053 -33.20958 56.75606 155 122.8)"/><ellipse fill="#140600" rx="1" ry="1" transform="rotate(123.6 4.8 42.5) scale(95.64892 48.63757)"/><ellipse fill="#290000" rx="1" ry="1" transform="rotate(179 85.3 8.2) scale(95.37998 24.69122)"/><ellipse fill="#e6ffff" cx="64" cy="145" rx="17" ry="19"/><ellipse fill="#abe7ff" rx="1" ry="1" transform="matrix(-30.72344 -81.72274 18.70816 -7.03328 127.9 118.6)"/><ellipse cx="24" cy="169" rx="15" ry="115"/><ellipse fill="#b5b8b2" rx="1" ry="1" transform="rotate(98.8 94.1 131) scale(29.98327 24.13251)"/><ellipse fill="#181100" rx="1" ry="1" transform="matrix(11.00373 -2.21874 21.06632 104.4773 217.4 111)"/><ellipse fill="#dfac85" rx="1" ry="1" transform="matrix(-2.32638 27.13608 -10.01803 -.85885 71.4 36.4)"/><path fill="#ffae00" d="M46-3.2l-4.5 25.6L12 17.2l4.5-25.6z"/><ellipse cx="68" cy="105" rx="21" ry="21"/><path fill="#003e7d" d="M110.8 72.8L155.2 61l6 22.3L116.8 95z"/><ellipse fill="#d8c7c1" cx="185" cy="88" rx="20" ry="41"/><ellipse fill="#b1c9d4" rx="1" ry="1" transform="matrix(-21.9093 -36.82938 8.39261 -4.99265 61.2 153.6)"/><path fill="#f1bd96" d="M43.6 53L43 80.6l-5.5 53 20-61z"/><path fill="#fff" d="M88.7 114.6l-1.4-39 8-.2 1.4 39z"/><ellipse cx="33" cy="166" rx="23" ry="23"/><path d="M84 117h19v33H84zM1.4 46.2L-22.4 3.4l21-11.6 23.8 42.8z"/><path fill="#f67000" d="M191.2-10.1l31.7 9-6 21.2-31.8-9z"/><ellipse fill="#404d57" rx="1" ry="1" transform="matrix(-7.54404 -61.20882 5.42653 -.66882 160 108)"/><ellipse cx="169" cy="22" rx="40" ry="9"/></g></svg>