<svg xmlns="http://www.w3.org/2000/svg" viewBox="0 0 700 467"><filter id="b"><feGaussianBlur stdDeviation="12" /></filter><path fill="#817372" d="M0 0h700v464H0z"/><g filter="url(#b)" transform="translate(1.4 1.4) scale(2.73438)" fill-opacity=".5"><ellipse fill="#fff" cx="174" cy="11" rx="201" ry="38"/><ellipse rx="1" ry="1" transform="matrix(-26.7888 -41.09394 213.61829 -139.25601 194.4 143.3)"/><ellipse fill="#1a0000" rx="1" ry="1" transform="matrix(29.8237 -3.66189 4.14987 33.79794 70.3 90.7)"/><path fill="#fff" d="M88-16L23 107 38-2z"/><ellipse fill="#fdf4f0" rx="1" ry="1" transform="matrix(-30.0248 18.2865 -18.63264 -30.59313 192.2 30)"/><ellipse fill="#fff4d3" rx="1" ry="1" transform="matrix(-15.63513 6.22738 -5.69142 -14.2895 162.2 100.2)"/><ellipse fill="#000007" cx="208" cy="93" rx="30" ry="28"/><ellipse cx="59" cy="169" rx="46" ry="13"/><ellipse fill="#2b1e0d" cx="92" cy="149" rx="10" ry="112"/><path fill="#e4cfc2" d="M104 103h30v42h-30z"/><path fill="#671c00" d="M122.6 30L138 55.7 117.4 68 102 42.3z"/><path fill="#fff" d="M208 132h8v35h-8z"/><ellipse fill="#fafbff" cx="87" cy="20" rx="141" ry="13"/><ellipse fill="#000012" cx="171" cy="152" rx="35" ry="35"/><path fill="#20171e" d="M218 21h25v149h-25z"/><ellipse fill="#3e2f1c" cx="115" cy="84" rx="53" ry="14"/><path fill="#a05221" d="M58 33h22v45H58z"/><path fill="#9d532c" d="M176 35h22v37h-22z"/><ellipse fill="#f2b781" cx="17" cy="89" rx="26" ry="23"/><ellipse fill="#fff" cx="235" rx="49" ry="23"/><path fill="#fffdff" d="M134 20h16v48h-16z"/><path fill="#fbeeff" d="M12-16l2 79-30-57z"/></g></svg>