<svg xmlns="http://www.w3.org/2000/svg" viewBox="0 0 200 133"><filter id="b"><feGaussianBlur stdDeviation="12" /></filter><path fill="#4b494b" d="M0 0h200v133H0z"/><g filter="url(#b)" transform="translate(.5 .5)" fill-opacity=".5"><ellipse fill="#efe6e5" rx="1" ry="1" transform="rotate(-3.1 88.6 -2356) scale(95.81342 43.82379)"/><ellipse rx="1" ry="1" transform="matrix(1.51545 36.15762 -198.82546 8.33326 87.1 88)"/><ellipse fill="#fff" rx="1" ry="1" transform="matrix(-32.63463 14.08428 -6.28822 -14.57042 149 5.5)"/><ellipse fill="#78625f" rx="1" ry="1" transform="matrix(7.50326 -19.9781 66.03625 24.80153 57.7 24.8)"/><ellipse fill="#fff" cx="194" rx="131" ry="7"/><ellipse fill="#b3b4b8" cx="32" cy="99" rx="5" ry="15"/><ellipse fill="#9aa1a8" cx="155" cy="102" rx="6" ry="17"/><ellipse fill="#575356" cx="165" cy="33" rx="17" ry="24"/><path fill="#fff" d="M185 108l-7 6-3-15zM122 0h27v25h-27z"/><ellipse fill="#6e4e4b" cx="61" cy="20" rx="33" ry="16"/><path fill="#e9f7ef" d="M-3.2 7.9l40-4.6 28.8-5.2L35 9.2z"/><ellipse fill="#07090b" cx="129" cy="98" rx="23" ry="30"/><ellipse fill="#0a0b0f" cx="16" cy="75" rx="65" ry="23"/><path fill="#06060c" d="M166 65l32-29-4 98z"/><path fill="#fff" d="M108 111l-8-13 2 12zm88 34h-19l-21-22z"/><path fill="#bbccd4" d="M87 46.3l-1.9-5.6 37.8-13 2 5.6z"/><path fill="#b4b6b1" d="M-6.6 148l14-23.3.6-47.3 1.2 51.3z"/><path fill="#fff" d="M195 110h5v7h-5z"/><path fill="#70625c" d="M116.5 26h25v22h-25z"/><ellipse fill="#d7dada" cx="7" cy="122" rx="2" ry="19"/></g></svg>