<svg xmlns="http://www.w3.org/2000/svg" viewBox="0 0 200 133"><filter id="b"><feGaussianBlur stdDeviation="12" /></filter><path fill="#4c6678" d="M0 0h200v133H0z"/><g filter="url(#b)" transform="translate(.5 .5)" fill-opacity=".5"><ellipse fill="#f8ffff" cx="91" cy="38" rx="50" ry="23"/><ellipse cx="171" cy="83" rx="29" ry="29"/><ellipse fill="#feffff" cx="82" cy="92" rx="16" ry="75"/><ellipse cx="20" cy="86" rx="24" ry="24"/><ellipse fill="#ffedff" rx="1" ry="1" transform="matrix(30.30027 -8.79721 3.57644 12.31835 134.8 123.4)"/><ellipse cx="135" cy="4" rx="195" ry="13"/><ellipse fill="#0b1129" rx="1" ry="1" transform="rotate(-101.2 88.6 -8.3) scale(32.88047 17.00846)"/><path d="M58 62L54-7l13 38z"/><ellipse fill="#0785bd" cx="175" cy="35" rx="38" ry="24"/><path fill="#62e1ff" d="M-15.2-14l-.8 114.8 50.7-90.7-1.8 55.4z"/><ellipse fill="#98ffff" cx="151" cy="34" rx="5" ry="34"/><ellipse rx="1" ry="1" transform="rotate(-179.5 90.2 43) scale(54.45492 21.49671)"/><ellipse fill="#d9cdee" rx="1" ry="1" transform="matrix(1.26623 -6.89913 52.1396 9.5694 64.2 118.8)"/><path fill="#00182c" d="M114 107l7-23-62 23z"/><ellipse cx="16" cy="30" rx="6" ry="76"/><path fill="#d2f2f2" d="M122 16h15v65h-15z"/><path d="M164.8-4l1.4 84h-9l-1.4-84zM56 0h8v105h-8z"/><ellipse rx="1" ry="1" transform="matrix(3.84726 -.10812 1.50138 53.42484 181 24.8)"/><path fill="#b6ffff" d="M43 9h12v60H43z"/><ellipse cx="36" cy="28" rx="4" ry="74"/><ellipse cx="10" cy="130" rx="22" ry="10"/></g></svg>