<svg xmlns="http://www.w3.org/2000/svg" viewBox="0 0 700 467"><filter id="b"><feGaussianBlur stdDeviation="12" /></filter><path fill="#73605b" d="M0 0h700v464H0z"/><g filter="url(#b)" transform="translate(1.4 1.4) scale(2.73438)" fill-opacity=".5"><ellipse fill="#fff" cx="127" cy="66" rx="46" ry="18"/><ellipse fill="#fff" cx="144" cy="154" rx="24" ry="27"/><ellipse fill="#e40000" cx="72" cy="100" rx="16" ry="106"/><ellipse fill="#4e0000" rx="1" ry="1" transform="rotate(-172.6 105.6 52.3) scale(94.44897 24.0418)"/><path fill="#fff" d="M218.3 71.5L213.8 97l-60-10.6 4.4-25.6z"/><ellipse fill="#c5e8f6" cx="41" cy="51" rx="15" ry="96"/><ellipse fill="#000009" cx="246" cy="51" rx="31" ry="86"/><ellipse fill="#070403" rx="1" ry="1" transform="rotate(174.9 10.1 80.8) scale(82.86496 18.81714)"/><ellipse fill="#fff" cx="113" cy="62" rx="30" ry="19"/><ellipse fill="#006400" rx="1" ry="1" transform="matrix(-16.31282 21.49135 -45.09393 -34.22816 133 20)"/><ellipse fill="#0057ad" cx="8" cy="54" rx="18" ry="93"/><path fill="azure" d="M212.3 42.5l-72-45 7.4-12 72 45z"/><path fill="#d9ebec" d="M129 141l-56 44 156-12z"/><ellipse fill="#e5ffff" cx="95" cy="39" rx="6" ry="41"/><ellipse fill="#c30e00" rx="1" ry="1" transform="matrix(14.28898 1.77979 -13.59304 109.13143 68 82.3)"/><ellipse fill="#730000" cx="195" cy="126" rx="32" ry="32"/><path fill="#005100" d="M118.9-21.3l18.3 8.1-26 58.5-18.4-8.1z"/><ellipse fill="#b8dce6" cx="255" cy="150" rx="52" ry="11"/><path fill="#7d0000" d="M89 152l32-72 67 15z"/><ellipse fill="#abbcbe" cx="29" cy="108" rx="12" ry="31"/><path fill="#bbd9dc" d="M49.8-.9l4-15.1-4 126 21-126z"/><ellipse fill="#001" cx="9" cy="140" rx="7" ry="53"/></g></svg>