<svg xmlns="http://www.w3.org/2000/svg" viewBox="0 0 200 133"><filter id="b"><feGaussianBlur stdDeviation="12" /></filter><path fill="#7d7d8a" d="M0 0h200v133H0z"/><g filter="url(#b)" transform="translate(.5 .5)" fill-opacity=".5"><path d="M96 101l8.6 40.1L2 163l-8.5-40.1z"/><ellipse fill="#fcffff" cx="31" cy="93" rx="56" ry="20"/><ellipse fill="#cbffff" cx="63" cy="37" rx="40" ry="16"/><ellipse fill="#0b0000" cx="171" cy="123" rx="42" ry="11"/><path fill="#9894ff" d="M124 51.5l7.4-38.3L200 26.5l-7.5 38.3z"/><path fill="#142314" d="M0 52h102v22H0z"/><ellipse fill="#a27b4f" cx="117" cy="115" rx="29" ry="68"/><ellipse fill="#b8bdb6" rx="1" ry="1" transform="matrix(-8.01516 17.59054 -57.35956 -26.136 169.4 86)"/><ellipse fill="#110400" rx="1" ry="1" transform="matrix(16.22088 23.87728 -5.79114 3.93417 113 10.6)"/><ellipse fill="#0000f8" rx="1" ry="1" transform="matrix(-.18264 14.17364 -7.60078 -.09794 17.6 36.5)"/><ellipse fill="#0b0807" rx="1" ry="1" transform="matrix(-50.20299 5.7199 -.83414 -7.32117 60.8 116.1)"/><path fill="#feffff" d="M25 25h37v21H25z"/><ellipse fill="#44423e" rx="1" ry="1" transform="matrix(-179.39455 2.50498 -.16244 -11.6335 85.4 0)"/><path fill="#8181ff" d="M219 57.6l-91-3.2 1-30 91 3.2z"/><ellipse fill="#61b5ff" cx="66" cy="47" rx="43" ry="7"/><path fill="#001112" d="M108.8 82.5l-14.2 7.3-15.4-30.3 14.2-7.3z"/><path fill="#ffdc8c" d="M128 10h29v15h-29z"/><path fill="#060000" d="M111 13L97.5 31.7 91 27l13.5-18.7z"/><path fill="#d2e7e7" d="M7 76h81v21H7z"/><ellipse fill="#6e829b" rx="1" ry="1" transform="matrix(-14.57198 -13.02885 8.8108 -9.85434 40 60.9)"/><path fill="#fff" d="M92.5 33l-5.1-4.5 19.8 16.6-23 7.7z"/><ellipse fill="#544733" rx="1" ry="1" transform="rotate(-172.7 60.4 61.3) scale(13.37574 22.49303)"/></g></svg>