<svg xmlns="http://www.w3.org/2000/svg" viewBox="0 0 641 195"><filter id="b"><feGaussianBlur stdDeviation="12" /></filter><path fill="#343864" d="M0 0h641v192H0z"/><g filter="url(#b)" transform="translate(1.3 1.3) scale(2.5039)" fill-opacity=".5"><ellipse rx="1" ry="1" transform="matrix(32.0635 -5.88475 18.84952 102.70296 19.5 43.1)"/><ellipse fill="#c0b3b0" cx="131" cy="58" rx="16" ry="176"/><ellipse fill="#30ce85" cx="155" cy="3" rx="76" ry="20"/><ellipse fill="#ab88d8" rx="1" ry="1" transform="rotate(88.9 97.6 128.5) scale(79.3958 6.53223)"/><path fill="#b17ebe" d="M46 22h22v27H46z"/><ellipse fill="#2006b8" rx="1" ry="1" transform="matrix(.4144 -39.96938 17.61965 .18268 244.5 11.4)"/><path fill="#fff" d="M76 73h24v4H76z"/><ellipse fill="#131736" rx="1" ry="1" transform="matrix(26.01838 -33.5267 15.17476 11.77637 87.5 40.8)"/><path fill="#dfc4e6" d="M112 90l25-56-20 8z"/><ellipse fill="#7ae884" cx="158" cy="2" rx="21" ry="19"/><ellipse fill="#00001c" cx="19" cy="54" rx="39" ry="39"/><path fill="#390029" d="M140.8 67.3L173.5 92h-56.6l13-38z"/><ellipse fill="#1a0667" rx="1" ry="1" transform="matrix(35.20595 24.65147 -11.44625 16.34693 172.3 48.7)"/><path fill="#faefff" d="M151 62l-25-22 18 28z"/><ellipse fill="#4427a4" rx="1" ry="1" transform="matrix(-13.03618 25.58495 -12.98858 -6.61801 201.4 33.2)"/><path fill="#93204f" d="M120 6h18v19h-18z"/><path fill="#03004f" d="M271.4 33l2.2 42-39 2-2.2-42z"/><path fill="#bf879c" d="M121.2 18.1l44.4 29-22-7.7-12.4-22z"/><ellipse fill="#030031" rx="1" ry="1" transform="rotate(143.1 20.2 10.3) scale(110.2108 18.62259)"/><path fill="#746772" d="M84 13h10v34H84z"/><path fill="#00a985" d="M175.5 23.1l-2-39 25-1.2 2 39z"/><path fill="#b484a1" d="M57.7 16.5l20.7 3.6-35.1 17-.5-3.2z"/></g></svg>