<svg xmlns="http://www.w3.org/2000/svg" viewBox="0 0 200 133"><filter id="b"><feGaussianBlur stdDeviation="12" /></filter><path fill="#7c7879" d="M0 0h200v133H0z"/><g filter="url(#b)" transform="translate(.5 .5)" fill-opacity=".5"><ellipse cx="49" cy="21" rx="63" ry="51"/><ellipse fill="#fff" rx="1" ry="1" transform="matrix(-110.22306 -8.18223 1.86132 -25.07387 122.6 111.3)"/><path fill="#000021" d="M190 58l-70-9 95-36z"/><ellipse fill="#eef7ff" cx="190" cy="16" rx="65" ry="9"/><ellipse fill="#0c0000" cx="44" cy="21" rx="52" ry="22"/><ellipse fill="#f4fff5" rx="1" ry="1" transform="matrix(14.35569 8.2324 -14.94726 26.06512 199 69.1)"/><ellipse fill="#0a0009" cy="63" rx="19" ry="62"/><path fill="#4375eb" d="M.5 67.6l22.4-28.8 24-4.2-25 44.7z"/><ellipse fill="#ecffff" cx="138" cy="132" rx="33" ry="33"/><ellipse fill="#bac3fd" rx="1" ry="1" transform="rotate(151.4 68.8 17.5) scale(19.07544 39.47651)"/><ellipse fill="#200900" rx="1" ry="1" transform="matrix(-39.82576 -27.80485 14.25639 -20.41987 61.9 28.1)"/><ellipse fill="#b6bab7" cx="39" cy="91" rx="29" ry="15"/><ellipse fill="#ba7816" rx="1" ry="1" transform="matrix(9.05257 -25.85008 53.51205 18.73965 -.2 131.8)"/><ellipse fill="#f1ffff" cx="192" cy="128" rx="23" ry="22"/><ellipse fill="#d5e5e4" cx="88" cy="132" rx="38" ry="38"/><path fill="#210a20" d="M156 19v-2.7L188.2-16 202.8.5z"/><path fill="#fff" d="M191 21l24-26-35 16z"/><ellipse fill="#5c3611" rx="1" ry="1" transform="matrix(22.67681 13.7026 -14.94368 24.73072 93 11.5)"/><ellipse fill="#999890" rx="1" ry="1" transform="matrix(15.38534 1.04962 -1.94872 28.56437 170.4 89.8)"/><path fill="#c0cccf" d="M102 36h20v18h-20z"/><ellipse fill="#7f583f" rx="1" ry="1" transform="matrix(-28.261 -7.21459 3.51112 -13.75375 144.5 51)"/><path fill="#000052" d="M187 22l-17 43 45-44z"/></g></svg>