<svg xmlns="http://www.w3.org/2000/svg" viewBox="0 0 700 467"><filter id="b"><feGaussianBlur stdDeviation="12" /></filter><path fill="#454d54" d="M0 0h700v464H0z"/><g filter="url(#b)" transform="translate(1.4 1.4) scale(2.73438)" fill-opacity=".5"><ellipse fill="#edffff" cx="241" cy="30" rx="31" ry="31"/><ellipse fill="#aed0de" cx="134" cy="53" rx="44" ry="21"/><ellipse cx="79" cy="14" rx="36" ry="36"/><ellipse fill="#0e0000" rx="1" ry="1" transform="rotate(84.2 7.9 123.2) scale(24.8379 210.89366)"/><ellipse fill="#aab4c1" cx="86" cy="160" rx="31" ry="31"/><path fill="#ceffff" d="M166 0h18v61h-18z"/><path fill="#88caf1" d="M38 126l-46 59 70-3z"/><ellipse fill="#efffff" cx="147" cy="35" rx="8" ry="30"/><ellipse cx="183" cy="130" rx="22" ry="22"/><ellipse rx="1" ry="1" transform="matrix(4.98346 -83.88115 10.29395 .61157 10.2 74.2)"/><path fill="#010000" d="M136.3 69.8l-11 60L129.4-16l12 55z"/><path fill="#ffe8e9" d="M205 122h17v35h-17z"/><path fill="#98b8cd" d="M123 4l12 64-72 17z"/><path fill="#bcb9aa" d="M106 70l-71-1-10 28z"/><ellipse fill="#8e8a98" rx="1" ry="1" transform="matrix(-18.4404 -4.97144 9.25758 -34.33887 142 151.7)"/><ellipse fill="#00001f" cx="72" cy="35" rx="25" ry="34"/><path fill="#ec8246" d="M42.7-16L28.5.9l-.8 69.5L44 41.8z"/><ellipse cx="160" cy="26" rx="6" ry="80"/><path fill="#b7acaa" d="M198 26h44v38h-44z"/><path fill="#00030a" d="M184.1-16l37.7 14.8 1 25.6-38.6 4.4z"/><path d="M57.2 122.7l6.4 40.5-12.8 2-6.4-40.4zM108 0h7v64h-7z"/></g></svg>