<svg xmlns="http://www.w3.org/2000/svg" viewBox="0 0 700 467"><filter id="b"><feGaussianBlur stdDeviation="12" /></filter><path fill="#686458" d="M0 0h700v464H0z"/><g filter="url(#b)" transform="translate(1.4 1.4) scale(2.73438)" fill-opacity=".5"><ellipse fill="#fff" rx="1" ry="1" transform="matrix(26.74414 -5.93401 6.58182 29.66378 198.1 154)"/><ellipse fill="#fff" cx="61" cy="155" rx="25" ry="36"/><ellipse fill="#fff" rx="1" ry="1" transform="matrix(-24.90659 .6574 -1.3917 -52.72652 127.7 164.7)"/><ellipse fill="#2a1702" cx="196" cy="37" rx="73" ry="73"/><ellipse fill="#0f0300" rx="1" ry="1" transform="matrix(-.62854 -69.29437 24.44479 -.22173 31.5 64.3)"/><ellipse fill="#d5ffff" rx="1" ry="1" transform="matrix(4.74575 36.04758 -12.58502 1.65685 202.9 135.5)"/><ellipse fill="#ffffe2" cx="174" cy="6" rx="11" ry="12"/><path fill="#090d2d" d="M171 53.3l26.3 51.7-54.3 27.7L116.7 81z"/><path fill="#f5d680" d="M113-16L90 7l67 55z"/><path fill="#d7c2b7" d="M185 73l2-53 32 41z"/><ellipse fill="#c4f6ff" cx="63" cy="162" rx="19" ry="60"/><ellipse fill="#deffff" rx="1" ry="1" transform="rotate(27.7 -261.2 338.4) scale(24.9698 28.71052)"/><ellipse fill="#0e0800" rx="1" ry="1" transform="matrix(23.26027 -5.7396 21.5555 87.35556 229.7 24.2)"/><path fill="#fff" d="M124 126v-22l23 2z"/><path fill="#d7f6ff" d="M198 128l48 43-99 1z"/><ellipse fill="#cdc3bf" rx="1" ry="1" transform="matrix(-.47294 -9.22375 20.43514 -1.04778 61 60.9)"/><ellipse fill="#000006" cx="159" cy="143" rx="8" ry="19"/><ellipse fill="#bed1ce" cx="17" cy="167" rx="74" ry="16"/><path fill="#d49570" d="M155 82h12v39h-12z"/><ellipse fill="#909b9d" cx="107" cy="95" rx="13" ry="66"/><ellipse fill="#7d5a0a" cx="77" cy="21" rx="31" ry="31"/><path d="M68.6 37.8l8.2 15.4L86 69.7l9.3-27z"/></g></svg>