<svg xmlns="http://www.w3.org/2000/svg" viewBox="0 0 700 467"><filter id="b"><feGaussianBlur stdDeviation="12" /></filter><path fill="#91938a" d="M0 0h700v464H0z"/><g filter="url(#b)" transform="translate(1.4 1.4) scale(2.73438)" fill-opacity=".5"><ellipse fill="#1b0500" cx="117" cy="150" rx="58" ry="30"/><ellipse fill="#def2ff" cx="35" cy="25" rx="37" ry="79"/><ellipse rx="1" ry="1" transform="matrix(-18.59977 -1.24082 3.20797 -48.08726 19.3 141.3)"/><ellipse fill="#fffff8" cx="196" cy="15" rx="39" ry="39"/><path d="M52 26h48v26H52z"/><ellipse fill="#ddfbff" rx="1" ry="1" transform="matrix(-20.2489 .22279 -.44577 -40.51479 53.9 105.6)"/><ellipse fill="#feffff" rx="1" ry="1" transform="matrix(-46.72762 -13.22258 5.82826 -20.59665 96.6 0)"/><ellipse fill="#201c1e" rx="1" ry="1" transform="matrix(26.29744 -41.62406 9.34402 5.9034 241.3 58.2)"/><path fill="#e1f7ff" d="M120.2 105.6L103 119 75.8 84.4 93 71z"/><ellipse fill="#020000" cx="151" cy="18" rx="6" ry="50"/><ellipse fill="#fff" cx="22" cy="15" rx="33" ry="33"/><ellipse fill="#b4932b" rx="1" ry="1" transform="rotate(-109.9 133.5 29.1) scale(59.0465 22.35909)"/><ellipse fill="#020915" cx="93" cy="169" rx="36" ry="36"/><ellipse fill="#ffffe6" cx="228" cy="13" rx="71" ry="12"/><path fill="#405757" d="M47 51l-63-10 12 33z"/><path fill="#f4e393" d="M170 185l51-47-42-31z"/><path d="M251 136.2l-7.5 4.9-12.5-19.3 7.5-4.9zM9 104l3 66 18-70z"/><ellipse fill="#c6d1b9" rx="1" ry="1" transform="rotate(177 -.4 65.4) scale(6.77856 28.13199)"/><path fill="#dbe9db" d="M94 134l-4 19-19-49z"/><path fill="#4f3f0a" d="M163 98h13v72h-13z"/><path fill="#deffff" d="M131 19h16v43h-16z"/></g></svg>