<svg xmlns="http://www.w3.org/2000/svg" viewBox="0 0 700 467"><filter id="b"><feGaussianBlur stdDeviation="12" /></filter><path fill="#736d75" d="M0 0h700v464H0z"/><g filter="url(#b)" transform="translate(1.4 1.4) scale(2.73438)" fill-opacity=".5"><ellipse fill="#faffff" rx="1" ry="1" transform="rotate(176.8 74 83.5) scale(90.14048 30.86333)"/><ellipse fill="#3c2936" cx="84" cy="32" rx="98" ry="98"/><ellipse fill="#e8ffff" rx="1" ry="1" transform="matrix(-50.9431 -41.93601 7.91969 -9.6207 216.4 79.4)"/><ellipse fill="#fffdff" cx="127" cy="58" rx="20" ry="17"/><ellipse fill="#d6ffff" cx="44" cy="40" rx="32" ry="7"/><path d="M61 106L73 6l50 18z"/><ellipse fill="#000700" cx="161" cy="23" rx="41" ry="16"/><ellipse fill="#c882a4" rx="197" ry="11"/><path fill="#d7ffff" d="M195 31h52v10h-52z"/><ellipse fill="#fffffe" rx="1" ry="1" transform="rotate(102.8 59.7 166.2) scale(23.82065 7.19444)"/><ellipse fill="#aee9df" cx="57" cy="144" rx="8" ry="32"/><ellipse fill="#820000" rx="1" ry="1" transform="matrix(-7.97963 -.23193 .9246 -31.81178 247.5 166.4)"/><ellipse fill="#7e280f" rx="1" ry="1" transform="rotate(-153.1 109.6 34.5) scale(38.21971 13.62081)"/><path fill="#c6e8ff" d="M210.9 104.5l-50.3-71.6 20 9.7 60.8 28.8z"/><ellipse fill="#00140a" rx="1" ry="1" transform="matrix(-12.88245 -2.3074 3.54572 -19.79607 165.6 67.8)"/><path fill="#9aab9d" d="M71 130l154 19-64-38z"/><ellipse fill="#006876" cx="40" cy="58" rx="25" ry="15"/><path fill="#b465fb" d="M24.5 67l6.8 28 9.9 1.7-3.5-29.5z"/><ellipse fill="#c8f0e1" cx="147" cy="163" rx="52" ry="25"/><ellipse fill="#481008" cx="25" cy="103" rx="165" ry="8"/><path fill="#fff" d="M40 36h40v4H40z"/><ellipse fill="#210000" cx="87" cy="23" rx="32" ry="14"/></g></svg>