<svg xmlns="http://www.w3.org/2000/svg" viewBox="0 0 641 195"><filter id="b"><feGaussianBlur stdDeviation="12" /></filter><path fill="#697583" d="M0 0h641v192H0z"/><g filter="url(#b)" transform="translate(1.3 1.3) scale(2.5039)" fill-opacity=".5"><ellipse fill="#fff" rx="1" ry="1" transform="matrix(-42.12106 3.99605 -11.96061 -126.073 62.2 11.7)"/><ellipse fill="#000019" rx="1" ry="1" transform="matrix(-37.6536 112.81185 -54.74625 -18.27284 206.4 46.9)"/><ellipse cy="76" rx="18" ry="85"/><path fill="#d6c9be" d="M179.6 64.7l14.2-32 14.6 6.6-14.2 32z"/><ellipse fill="#fffbc8" rx="1" ry="1" transform="matrix(32.19571 7.13762 -9.2136 41.55983 68 56.1)"/><ellipse fill="#000008" rx="1" ry="1" transform="rotate(-29.5 124 12) scale(30.61014 12.15938)"/><ellipse fill="#64b1ff" cx="123" rx="35" ry="22"/><ellipse fill="#ffffd1" cx="124" cy="66" rx="10" ry="17"/><path fill="#9acdff" d="M14 0h24v48H14z"/><path fill="#458ff9" d="M242 32h14v34h-14z"/><path fill="#ffe" d="M94 56.9l32.5 19.8L93.2 92l8.8-52.7z"/><path fill="#040030" d="M188-16L176 86l-35-29z"/><ellipse fill="#3787e9" cx="111" cy="28" rx="16" ry="19"/><ellipse fill="#004022" cx="227" cy="7" rx="29" ry="29"/><ellipse fill="#d19238" cx="194" cy="24" rx="11" ry="11"/><ellipse fill="#2733c1" rx="1" ry="1" transform="matrix(-14.34687 32.68308 -7.67576 -3.36942 158.4 19)"/><ellipse fill="#fffff8" rx="1" ry="1" transform="matrix(12.25979 -15.86231 6.27475 4.84968 37.4 63.1)"/><path d="M101 48.6l9.5-3.1 6.5 20-9.5 3z"/><ellipse fill="#0b070d" cx="224" cy="76" rx="28" ry="23"/><path fill="#00000d" d="M-16 14L13-9 10 92z"/><path fill="#ceb188" d="M116 81l55-16-65-1z"/><path fill="#65799e" d="M199 32h23v26h-23z"/></g></svg>