<svg xmlns="http://www.w3.org/2000/svg" viewBox="0 0 700 467"><filter id="b"><feGaussianBlur stdDeviation="12" /></filter><path fill="#4e0723" d="M0 0h700v464H0z"/><g filter="url(#b)" transform="translate(1.4 1.4) scale(2.73438)" fill-opacity=".5"><ellipse fill="#f3111c" rx="1" ry="1" transform="matrix(-74.9613 1.6262 -.85391 -39.3619 140.2 93.4)"/><ellipse fill="#000002" rx="1" ry="1" transform="rotate(-66.9 50.5 12.3) scale(227.52956 54.28179)"/><ellipse fill="#b4a5b8" rx="1" ry="1" transform="matrix(-10.13796 -.5921 2.8065 -48.0532 101.9 130.7)"/><ellipse fill="#c502a0" rx="1" ry="1" transform="rotate(-81.5 182.7 -28.6) scale(16.06009 31.9719)"/><ellipse rx="1" ry="1" transform="matrix(-10.86065 31.106 -62.31582 -21.75754 255 50.1)"/><ellipse fill="#9009ff" cx="142" cy="9" rx="13" ry="13"/><ellipse fill="#b25d87" cx="78" cy="149" rx="37" ry="8"/><ellipse fill="#07151a" cx="133" cy="162" rx="19" ry="49"/><ellipse fill="#5100af" cx="217" cy="6" rx="26" ry="11"/><ellipse fill="#d8000b" rx="1" ry="1" transform="matrix(2.27807 24.55688 -42.6191 3.95366 147 76.3)"/><ellipse fill="#050045" rx="1" ry="1" transform="matrix(24.46912 4.6029 -5.67149 30.14973 112.7 20.4)"/><ellipse fill="#00010d" rx="1" ry="1" transform="matrix(-4.1433 -129.6306 39.54945 -1.2641 7.8 76)"/><ellipse fill="#170500" rx="1" ry="1" transform="matrix(-49.35604 9.64592 -5.67984 -29.06248 249.4 113.2)"/><ellipse fill="#660081" rx="1" ry="1" transform="matrix(-1.84431 -6.14742 29.18023 -8.75449 41.2 36.3)"/><ellipse fill="#d80014" cx="174" cy="128" rx="30" ry="7"/><ellipse fill="#000005" rx="1" ry="1" transform="matrix(-18.03038 2.534 -8.28497 -58.9506 255 55.2)"/><ellipse fill="#790000" rx="1" ry="1" transform="matrix(31.08457 20.9679 -11.7977 17.4899 210 71.6)"/><ellipse fill="#872550" cx="122" cy="143" rx="98" ry="5"/><path fill="#cd00d0" d="M170.2 28l11.7-2.6 3.9 16.5-11.7 2.7z"/><path fill="#850008" d="M53 72h41v59H53z"/><ellipse fill="#aaafbd" rx="1" ry="1" transform="matrix(8.93572 2.11068 -3.13525 13.27329 102 103.8)"/><path fill="#160050" d="M171.5 47.5l2.2-43.1-37 22.2-3.6 22.7z"/></g></svg>