<svg xmlns="http://www.w3.org/2000/svg" viewBox="0 0 200 133"><filter id="b"><feGaussianBlur stdDeviation="12" /></filter><path fill="#b8b199" d="M0 0h200v133H0z"/><g filter="url(#b)" transform="translate(.5 .5)" fill-opacity=".5"><ellipse fill="#1a7a00" cx="126" cy="132" rx="53" ry="28"/><ellipse fill="#5a2c08" rx="1" ry="1" transform="rotate(-170.2 72.4 24.3) scale(79.49016 24.02671)"/><ellipse fill="#fff" rx="1" ry="1" transform="matrix(57.57838 -29.94144 11.39551 21.91394 45.8 111)"/><path fill="#ff9800" d="M-16 56v62l74-48z"/><ellipse fill="#fbf3f5" cx="33" cy="24" rx="43" ry="43"/><ellipse fill="#ddf8ff" rx="1" ry="1" transform="rotate(105.7 51.7 122.6) scale(13.83848 106.67731)"/><ellipse fill="#fcffff" rx="1" ry="1" transform="matrix(30.37146 23.47373 -7.79636 10.0873 78.6 88.8)"/><ellipse fill="#684b49" rx="1" ry="1" transform="matrix(-32.08038 .78827 -.3597 -14.63908 183.2 37)"/><ellipse fill="#fffdff" rx="1" ry="1" transform="matrix(-17.24217 -13.47898 12.47527 -15.95823 73.6 11.4)"/><path fill="#fff4ad" d="M126 18h17v49h-17z"/><path fill="#323028" d="M56 51h61v15H56z"/><ellipse fill="#fdffff" rx="1" ry="1" transform="rotate(48.7 -85.2 97.3) scale(11.40644 46.61223)"/><path fill="#ffeb9e" d="M185.2 75.1L176.8 64l20-15 8.4 11.2z"/><ellipse fill="#e24203" rx="1" ry="1" transform="matrix(12.31753 .39855 -.66434 20.53205 167 56)"/><ellipse fill="#dff6ff" cx="159" rx="24" ry="11"/><ellipse fill="#3e4058" cx="145" cy="77" rx="42" ry="12"/><ellipse fill="#ffcb00" cx="31" cy="76" rx="15" ry="12"/><path fill="#8a924a" d="M19 38l60-7-2 17z"/><path fill="#6fa520" d="M156 148l-40.2-48.2 55.3 7.8.2-2.3z"/><ellipse fill="#f8ffff" cx="196" cy="113" rx="28" ry="17"/><ellipse fill="#373c68" cx="179" cy="12" rx="35" ry="4"/><ellipse fill="#d7d6f0" cx="137" cy="21" rx="60" ry="5"/></g></svg>