<svg xmlns="http://www.w3.org/2000/svg" viewBox="0 0 700 467"><filter id="b"><feGaussianBlur stdDeviation="12" /></filter><path fill="#594c4c" d="M0 0h700v464H0z"/><g filter="url(#b)" transform="translate(1.4 1.4) scale(2.73438)" fill-opacity=".5"><path fill="#bab8b2" d="M122 67h113v83H122z"/><ellipse rx="1" ry="1" transform="matrix(-201.70806 -19.77765 4.5907 -46.81962 146.4 12.6)"/><ellipse fill="#c9aa97" rx="1" ry="1" transform="matrix(9.81419 33.05919 -55.25826 16.40437 66 124.4)"/><path fill="#8eedff" d="M123 58h47v41h-47z"/><ellipse fill="#700" rx="1" ry="1" transform="matrix(-225.00122 17.6928 -1.1155 -14.18604 116.7 169)"/><path fill="#00000b" d="M187.9 38.8l10.8 56-22.6 4.4-10.8-56z"/><ellipse fill="#362a2a" cx="155" cy="106" rx="63" ry="9"/><ellipse fill="#fff" cx="30" cy="126" rx="20" ry="7"/><path fill="#e1f3fa" d="M82 114l28-25-68 9z"/><path fill="#200a0e" d="M66.5 141.4l-8.4-34 19.4-4.8 8.4 34z"/><ellipse fill="#ffecd4" rx="1" ry="1" transform="rotate(-2 3542 -4082) scale(42.74171 5.83499)"/><ellipse fill="#799880" cx="38" cy="66" rx="61" ry="20"/><ellipse rx="1" ry="1" transform="rotate(-75.7 41 -18.5) scale(26.61888 29.32317)"/><path fill="#ffe1c9" d="M204 124l51-3-86-26z"/><ellipse fill="#121747" rx="1" ry="1" transform="matrix(-19.96527 -.6465 1.62742 -50.25753 111.2 41.8)"/><ellipse fill="#342d22" cx="226" cy="103" rx="32" ry="11"/><ellipse fill="#000005" rx="1" ry="1" transform="matrix(5.5551 -20.49945 53.57752 14.51883 222.6 35.2)"/><path fill="#320a00" d="M31.9 137.6l5.3-3.4-53.2 2.7L4.2 185z"/><ellipse fill="#1a0000" rx="1" ry="1" transform="rotate(-42.8 329.3 -205.2) scale(45.07349 18.35898)"/><ellipse fill="#e5a39e" cx="170" cy="143" rx="43" ry="9"/><path fill="#8d75f0" d="M109.3 20.2l.7-7.3 15.6 7-3 17.2z"/><ellipse fill="#582c16" cx="212" cy="130" rx="96" ry="4"/></g></svg>