<svg xmlns="http://www.w3.org/2000/svg" viewBox="0 0 700 467"><filter id="b"><feGaussianBlur stdDeviation="12" /></filter><path fill="#736b70" d="M0 0h700v464H0z"/><g filter="url(#b)" transform="translate(1.4 1.4) scale(2.73438)" fill-opacity=".5"><ellipse fill="#fff" rx="1" ry="1" transform="matrix(3.98306 28.41725 -72.83868 10.20933 229.3 6.6)"/><ellipse fill="#f8ffff" rx="1" ry="1" transform="rotate(93.4 7.6 18.2) scale(23.87617 61.28292)"/><ellipse fill="#ffe6cd" rx="1" ry="1" transform="matrix(20.64459 -5.45454 26.57363 100.57714 104 163.9)"/><ellipse fill="#1c171f" rx="1" ry="1" transform="rotate(-68.7 157.6 -93.5) scale(35.83628 115.51326)"/><ellipse fill="#050716" rx="1" ry="1" transform="matrix(46.82874 39.43346 -23.74074 28.19303 6.6 80)"/><path fill="#e8ffff" d="M230 93l-66-83 35-8z"/><path fill="#ffebd9" d="M76 159l23-31-115 29z"/><ellipse fill="#000922" rx="1" ry="1" transform="matrix(49.80358 17.73426 -6.50492 18.26794 255.3 59)"/><ellipse fill="#fffff5" cx="81" cy="121" rx="10" ry="53"/><ellipse fill="#23001a" cx="221" cy="163" rx="85" ry="8"/><path fill="#c7f4ff" d="M39-16L28 95l33-84z"/><path fill="#47393c" d="M92 54h20v86H92z"/><path fill="#0e0406" d="M160 92h18v66h-18z"/><ellipse fill="#b7e8ff" rx="1" ry="1" transform="matrix(23.1037 -15.05646 2.27236 3.48687 223 73.4)"/><path fill="#ffe4c0" d="M170.3 63.7L165 95l-3-51.2 9.4 10.1z"/><path fill="#f3e1ff" d="M201.2 32l1.6-46 56 2-1.6 46z"/><path d="M267.6 131.6l-45.9-24.4 20.7-38.8 45.9 24.4z"/><path fill="#ad645e" d="M177 113h62v44h-62z"/><ellipse fill="#8cadb2" cx="141" cy="6" rx="39" ry="28"/><path fill="#0b0d1a" d="M0 35h27v75H0z"/><path fill="#282838" d="M60 34h99v35H60z"/><ellipse fill="#b07a75" rx="1" ry="1" transform="rotate(-52.7 212.5 -52.6) scale(38.15935 29.68929)"/></g></svg>