<svg xmlns="http://www.w3.org/2000/svg" viewBox="0 0 700 467"><filter id="b"><feGaussianBlur stdDeviation="12" /></filter><path fill="#736b70" d="M0 0h700v464H0z"/><g filter="url(#b)" transform="translate(1.4 1.4) scale(2.73438)" fill-opacity=".5"><ellipse fill="#fff" cx="212" cy="13" rx="57" ry="22"/><ellipse fill="#efffff" cx="36" rx="42" ry="42"/><ellipse fill="#fff" rx="1" ry="1" transform="rotate(-89.2 114 31.2) scale(88.18975 11.28268)"/><ellipse fill="#1d171e" rx="1" ry="1" transform="rotate(112.8 57.6 97.6) scale(35.68937 97.43091)"/><ellipse fill="#000413" rx="1" ry="1" transform="matrix(-36.65749 -40.99917 23.12446 -20.67566 14.6 79.5)"/><ellipse fill="#ffccbd" cx="86" cy="150" rx="78" ry="10"/><ellipse fill="#000319" rx="1" ry="1" transform="rotate(-149.3 135.2 -3.2) scale(45.33853 23.07987)"/><path fill="#cefdff" d="M208 63h20v24h-20z"/><ellipse fill="#562e31" cx="216" cy="145" rx="62" ry="62"/><ellipse fill="#b27875" rx="1" ry="1" transform="rotate(-92.6 169.7 -31.6) scale(22.49592 31.17433)"/><ellipse fill="#c2f2ff" rx="1" ry="1" transform="matrix(3.82835 1.15585 -13.14807 43.54851 40.3 52.5)"/><ellipse fill="#cef1ff" rx="1" ry="1" transform="rotate(-123.2 108.5 -33.2) scale(60.37664 7.22567)"/><path fill="#ffecc8" d="M162 48h7v40h-7z"/><path fill="#181929" d="M5 151L33 44.1l120.6-8.7-168.3-.7z"/><path fill="#fae9ff" d="M176 33.5v-27h94v27z"/><ellipse fill="#061217" cx="255" cy="101" rx="124" ry="12"/><ellipse fill="#8fafb0" rx="1" ry="1" transform="matrix(.76784 -21.2307 63.61968 2.3009 117.6 13)"/><path fill="#fffff8" d="M97.6 154l-16-86-8.8 25.4.8 56.5z"/><path fill="#f7e8e8" d="M17.6 166L-16 152.2l34-2.9 39.3 3.7z"/><ellipse fill="#c9e2f0" cx="6" cy="11" rx="80" ry="23"/><path fill="#030408" d="M275.6 109.3l-25.2 14.5-26-45 25.2-14.6z"/><path fill="#080c1d" d="M60 41l4 46 18-50z"/></g></svg>