<svg xmlns="http://www.w3.org/2000/svg" viewBox="0 0 200 133"><filter id="b"><feGaussianBlur stdDeviation="12" /></filter><path fill="#70616a" d="M0 0h200v133H0z"/><g filter="url(#b)" transform="translate(.5 .5)" fill-opacity=".5"><ellipse fill="#71ffff" rx="1" ry="1" transform="matrix(-24.69735 -3.77923 10.42072 -68.0997 17.4 39.3)"/><ellipse fill="#900" cx="135" cy="132" rx="57" ry="57"/><ellipse fill="#600" cx="107" cy="37" rx="18" ry="89"/><ellipse fill="#fff" cx="174" cy="77" rx="55" ry="9"/><ellipse fill="#fff" rx="1" ry="1" transform="matrix(2.80652 -13.16234 38.69636 8.25096 166.3 10.8)"/><ellipse fill="#002f77" rx="1" ry="1" transform="matrix(-12.6033 31.19427 -48.27605 -19.5048 29.9 120.2)"/><ellipse fill="#730000" cx="169" cy="114" rx="59" ry="27"/><ellipse fill="#fff" rx="1" ry="1" transform="matrix(-8.8574 -.80652 3.6099 -39.64477 198.4 48.5)"/><ellipse fill="#002e6d" cx="58" cy="27" rx="14" ry="39"/><ellipse fill="#89d1ff" rx="1" ry="1" transform="matrix(31.88581 7.94422 -17.14502 68.81514 10 28)"/><ellipse fill="#6a0000" rx="1" ry="1" transform="matrix(-17.15086 -2.38731 17.66689 -126.92182 107.2 53.5)"/><path fill="#fff" d="M124 67h54v17h-54z"/><path fill="#380000" d="M219.8 14.8L141.6-1.8l.6-3 78.2 16.6z"/><ellipse fill="#ec0d00" rx="1" ry="1" transform="matrix(7.23157 -67.9586 8.35278 .88883 98 49.2)"/><ellipse fill="#007ad2" cy="99" rx="34" ry="34"/><ellipse fill="#001b3e" rx="1" ry="1" transform="matrix(-6.96374 -.7442 11.43513 -107.00124 40.6 101.6)"/><path fill="#dff" d="M123.1 134l-24 1-.2-9 24-1z"/><ellipse fill="#000f0a" cx="115" cy="47" rx="10" ry="43"/><path fill="#bfcbb1" d="M95 0L72-16l12 93z"/><path fill="#f9ffff" d="M129-16l-4 76 20-59z"/><path fill="#b4baa1" d="M52 69h13v47H52z"/><path fill="#5e5222" d="M133 23h47v42h-47z"/></g></svg>