<svg xmlns="http://www.w3.org/2000/svg" viewBox="0 0 700 467"><filter id="b"><feGaussianBlur stdDeviation="12" /></filter><path fill="#848d8d" d="M0 0h700v464H0z"/><g filter="url(#b)" transform="translate(1.4 1.4) scale(2.73438)" fill-opacity=".5"><ellipse cx="107" cy="122" rx="32" ry="81"/><ellipse cx="228" cy="128" rx="32" ry="58"/><ellipse fill="#fff" rx="1" ry="1" transform="matrix(55.02356 2.6911 -8.59128 175.66151 23 96.5)"/><ellipse fill="#fff" rx="1" ry="1" transform="rotate(132.6 35.2 23.1) scale(42.82245 33.63545)"/><ellipse fill="#deffff" cx="170" cy="25" rx="22" ry="46"/><ellipse fill="#3f4c56" rx="1" ry="1" transform="rotate(8.2 -946 1054.9) scale(27.52933 96.90285)"/><path fill="#08090c" d="M72 50h33v40H72z"/><ellipse fill="#b5ebe9" cx="182" cy="106" rx="14" ry="71"/><ellipse cx="101" cy="140" rx="22" ry="51"/><path fill="#28302d" d="M198 139l-7-155 33 46z"/><ellipse fill="#263830" rx="1" ry="1" transform="matrix(-3.29286 -110.94789 4.3285 -.12847 27.3 107.9)"/><ellipse fill="#fff" cx="63" cy="123" rx="12" ry="106"/><path fill="#fff" d="M224 0h18v72h-18z"/><ellipse rx="1" ry="1" transform="matrix(18.67994 -4.27908 12.671 55.31418 224 151.8)"/><ellipse fill="#fff" cx="128" cy="154" rx="4" ry="39"/><ellipse fill="#a4a39c" rx="1" ry="1" transform="matrix(-11.53662 -24.23217 16.1393 -7.6837 255 92.8)"/><ellipse fill="#dfd8cd" rx="1" ry="1" transform="matrix(8.51213 -25.7383 8.96035 2.96335 115.8 39.2)"/><path fill="#f9f3f1" d="M42 135h39v35H42z"/><ellipse fill="#b6390a" cx="138" cy="102" rx="31" ry="10"/><path fill="#fff" d="M103.5-47l23.3 11.4L86.5 47 63.2 35.6z"/><ellipse fill="#fff" cx="159" rx="11" ry="51"/><path fill="#4c4640" d="M114 29L97 17l1 72z"/></g></svg>