<svg xmlns="http://www.w3.org/2000/svg" viewBox="0 0 641 195"><filter id="b"><feGaussianBlur stdDeviation="12" /></filter><path fill="#4b3b24" d="M0 0h641v192H0z"/><g filter="url(#b)" transform="translate(1.3 1.3) scale(2.5039)" fill-opacity=".5"><path fill="#fffff4" d="M161 15h35v34h-35z"/><ellipse fill="#fffcff" rx="1" ry="1" transform="rotate(-81.9 61.7 -2) scale(28.76634 12.33575)"/><ellipse fill="#0a0000" rx="1" ry="1" transform="rotate(-147.4 69.6 16.1) scale(47.79903 59.18217)"/><ellipse fill="#d5ae5a" rx="1" ry="1" transform="rotate(-68.7 32 7.3) scale(26.07202 15.28101)"/><path fill="#fff" d="M46.2 74.4L24 87.8l-6.1-10.2L40 64.2z"/><path fill="#060403" d="M236-16L160 92h93z"/><path fill="#030000" d="M56.9 58.6l-72.9 28 50-38.9 13.5-14.6z"/><path fill="#f0e1b5" d="M148.9 10.9l31.8 35.8 32.8-4 4.8-11.1z"/><ellipse fill="#f2f6ff" rx="1" ry="1" transform="matrix(-13.1804 -2.5665 2.0705 -10.63318 0 41.5)"/><path fill="#fff" d="M65 65l-3-34-17-2z"/><ellipse fill="#361b00" cx="85" cy="6" rx="37" ry="37"/><path fill="#fffbed" d="M74 52l-88 36 56-1z"/><path d="M71 57h152v20H71z"/><ellipse fill="#2c1b00" rx="1" ry="1" transform="matrix(-17.79646 -20.04463 21.60736 -19.1839 214.6 5.3)"/><path fill="ivory" d="M164.3 27.1l4.7-14.3 24.7 8-4.7 14.4z"/><path fill="#1c0000" d="M99 53L78 79l-41 2z"/><path fill="#f3d389" d="M251 54h5v21h-5z"/><ellipse fill="#5d3f1a" cx="156" cy="51" rx="30" ry="10"/><ellipse fill="#00000a" rx="1" ry="1" transform="matrix(-.148 -10.96105 13.594 -.18356 67 19.4)"/><ellipse fill="#9e6818" cx="79" cy="42" rx="12" ry="12"/><ellipse fill="#8b6013" cx="22" cy="21" rx="12" ry="37"/><path fill="#6d5837" d="M197 16h13v35h-13z"/></g></svg>