<svg xmlns="http://www.w3.org/2000/svg" viewBox="0 0 200 133"><filter id="b"><feGaussianBlur stdDeviation="12" /></filter><path fill="#5e3b3a" d="M0 0h200v133H0z"/><g filter="url(#b)" transform="translate(.5 .5)" fill-opacity=".5"><ellipse fill="#b58c9a" cx="83" cy="74" rx="45" ry="45"/><ellipse cx="199" cy="31" rx="34" ry="34"/><ellipse fill="#040000" cx="9" cy="49" rx="13" ry="199"/><ellipse fill="#01b8ff" rx="1" ry="1" transform="matrix(1.93428 -11.94262 13.09418 2.1208 146.4 46.8)"/><ellipse fill="#ce977f" cx="162" cy="57" rx="9" ry="43"/><ellipse fill="#0d0000" cx="120" cy="131" rx="199" ry="13"/><path fill="#d7e0ff" d="M86.6 60.3l-1.1-16 37.9-2.6 1.1 16z"/><ellipse fill="#0d0503" rx="1" ry="1" transform="matrix(-44.3502 1.22508 -.40616 -14.70363 97.6 20.6)"/><path fill="#e6ae9b" d="M32 18l5 46-19 41z"/><path fill="#311011" d="M73 67l18 3L80 8z"/><ellipse fill="#160000" cx="199" cy="69" rx="28" ry="28"/><path fill="#8b4f44" d="M0 92h157v26H0z"/><ellipse fill="#0c0000" cx="7" cy="16" rx="26" ry="26"/><ellipse fill="#abdafd" cx="64" cy="47" rx="11" ry="11"/><path fill="#270e2a" d="M100 74l-34 28 19 5z"/><path fill="#ceb1a0" d="M51 78h20v27H51z"/><path fill="#de9069" d="M29 53l14-69 3 35z"/><ellipse fill="#200" rx="1" ry="1" transform="matrix(14.72894 4.17214 -9.19983 32.4782 16 131)"/><path fill="#e17178" d="M119.4 65.1l20.2 8.6-9 21.2-20.2-8.6z"/><ellipse fill="#ff12ff" cx="107" cy="38" rx="13" ry="3"/><path fill="#200b06" d="M151.2 36.2l-36 .6-.4-23 36-.6z"/><ellipse fill="#0b0000" rx="1" ry="1" transform="matrix(-16.44094 -28.68051 23.99817 -13.75681 196 10.4)"/></g></svg>