<svg xmlns="http://www.w3.org/2000/svg" viewBox="0 0 200 101"><filter id="b"><feGaussianBlur stdDeviation="12" /></filter><path fill="#694f61" d="M0 0h200v101H0z"/><g filter="url(#b)" transform="translate(.5 .5)" fill-opacity=".5"><ellipse fill="#ffd9ff" rx="1" ry="1" transform="matrix(2.03932 -37.655 64.4836 3.4923 102.7 73)"/><ellipse cx="11" cy="53" rx="31" ry="199"/><path d="M129-3l71 119 3-132z"/><path fill="#eda5e4" d="M52 36h111v51H52z"/><ellipse cx="192" cy="55" rx="25" ry="64"/><ellipse cx="12" cy="60" rx="29" ry="32"/><ellipse fill="#11150e" cx="121" cy="26" rx="133" ry="10"/><path fill="#100b00" d="M105 69h9v32h-9z"/><path fill="#e6b0e6" d="M45 38h117v30H45z"/><ellipse fill="#734736" cx="101" cy="70" rx="35" ry="4"/><path fill="#030000" d="M42 84h8v17h-8z"/><path fill="#d481d3" d="M173 101.4l-10-54.6-25-8-4.6 50.6z"/><path fill="#a88975" d="M0 91h34v7H0z"/><ellipse fill="#514c39" cx="66" cy="12" rx="25" ry="25"/><path fill="#ea93f2" d="M40.5 65.3L70.1 70l-2.6 16.7L37.9 82z"/><ellipse fill="#570000" cx="92" cy="100" rx="111" ry="1"/><path d="M35-27.5L46.3 2.4l-65.3 25-11.5-29.8z"/><ellipse fill="#1c210e" rx="1" ry="1" transform="matrix(-45.87512 .83363 -.09738 -5.3591 98 0)"/><path fill="#2a2019" d="M122 11h41v26h-41z"/><ellipse fill="#09020d" rx="1" ry="1" transform="rotate(-73.7 114.3 -105.7) scale(28.48334 22.48293)"/><path fill="#e0fbe9" d="M76 54l46 12-56 1z"/><path fill="#746f6e" d="M15.7 29.7l-6-6.7L28.3 6.3l6 6.7z"/></g></svg>