<svg xmlns="http://www.w3.org/2000/svg" viewBox="0 0 200 133"><filter id="b"><feGaussianBlur stdDeviation="12" /></filter><path fill="#6f5247" d="M0 0h200v133H0z"/><g filter="url(#b)" transform="translate(.5 .5)" fill-opacity=".5"><ellipse fill="#fff" cx="187" cy="128" rx="34" ry="38"/><ellipse fill="#dcd5cc" rx="1" ry="1" transform="matrix(-14.446 -48.23927 17.61957 -5.27646 73.1 89)"/><ellipse fill="#5b0d01" cx="183" cy="29" rx="61" ry="61"/><ellipse fill="#000c23" cx="32" cy="96" rx="24" ry="29"/><ellipse fill="#ffc5ad" rx="1" ry="1" transform="matrix(11.86455 4.30291 -8.74045 24.1003 112.8 54)"/><ellipse fill="#100800" rx="1" ry="1" transform="matrix(-.90193 -104.2916 12.8925 -.1115 137.4 95)"/><ellipse cx="33" cy="5" rx="14" ry="46"/><ellipse fill="#fffffb" cx="177" cy="121" rx="19" ry="18"/><path d="M66 0h24v49H66z"/><ellipse fill="#dcb499" cx="157" cy="66" rx="8" ry="37"/><ellipse fill="#d1c6c4" cx="28" cy="60" rx="59" ry="8"/><ellipse fill="#000f18" cx="50" cy="123" rx="19" ry="19"/><ellipse fill="#14150a" cx="139" cy="14" rx="34" ry="22"/><ellipse fill="#ffcaac" cx="22" cy="132" rx="15" ry="16"/><ellipse fill="#c20008" cx="178" cy="76" rx="16" ry="25"/><path fill="#e1a491" d="M43 18h22v23H43z"/><ellipse fill="#ffcfac" cy="47" rx="10" ry="17"/><path fill="#090000" d="M75 84l27-59-3 45z"/><path fill="#dfa783" d="M181 28l11-35 5 30z"/><path fill="#cae7ff" d="M52.8 73.9l21.6-25 12.8 11.2-21.6 25z"/><ellipse fill="#00242e" cx="26" cy="93" rx="27" ry="23"/><ellipse fill="#000204" cy="4" rx="87" ry="5"/></g></svg>