<svg xmlns="http://www.w3.org/2000/svg" viewBox="0 0 200 133"><filter id="b"><feGaussianBlur stdDeviation="12" /></filter><path fill="#51555c" d="M0 0h200v133H0z"/><g filter="url(#b)" transform="translate(.5 .5)" fill-opacity=".5"><ellipse fill="#b1c6de" cx="35" cy="68" rx="43" ry="43"/><ellipse rx="1" ry="1" transform="matrix(-25.27837 -48.05579 35.83516 -18.85006 134.7 103.1)"/><ellipse fill="#8791a0" rx="1" ry="1" transform="matrix(-36.67116 -88.0968 104.38464 -43.45113 5.6 16.5)"/><ellipse fill="#25211f" cx="178" cy="132" rx="57" ry="125"/><path fill="#ecffff" d="M84 91.8l6-38.5 6 1-6 38.4z"/><ellipse fill="#000008" rx="1" ry="1" transform="matrix(16.98589 -18.60192 27.87504 25.45341 129.4 90.7)"/><path fill="#120f10" d="M84.8 75.6l6.8-65.4-13.3 45L68 138z"/><path fill="#dae7f8" d="M-43.1 24.3l63.9-66.2 22.3 21.6-63.9 66.2z"/><path fill="#ffc195" d="M124 37l8 21 8-24z"/><ellipse fill="#615f64" rx="1" ry="1" transform="matrix(-17.65572 .58506 -1.02859 -31.04046 171.8 64.3)"/><path fill="#524c48" d="M58 19l95 7L37 68z"/><ellipse fill="#17232d" rx="1" ry="1" transform="matrix(-.81605 -24.59954 96.26337 -3.19338 65.6 132)"/><path fill="#ffd1be" d="M126 93h9v9h-9z"/><ellipse fill="#9faec1" cx="12" cy="87" rx="43" ry="25"/><path fill="#f2a37c" d="M86 33h11v21H86z"/><path fill="#000208" d="M97 53h11v52H97z"/><ellipse fill="#647786" rx="1" ry="1" transform="matrix(-12.45641 9.80223 -17.92265 -22.77563 25.4 47.2)"/><path fill="#ffccb1" d="M88 92l8-2-3-8z"/><ellipse fill="#0a243f" rx="1" ry="1" transform="matrix(-6.7812 3.35175 -18.24778 -36.91858 93 118.2)"/><ellipse fill="#8b98ac" rx="1" ry="1" transform="rotate(-69 40.3 -52) scale(12.46064 31.15782)"/><path fill="#b2a5aa" d="M66 106.1l-2-12.8 10-1.4 1.8 12.8z"/><path fill="#5d94c4" d="M75 108h6v23h-6z"/></g></svg>