<svg xmlns="http://www.w3.org/2000/svg" viewBox="0 0 800 533"><filter id="b"><feGaussianBlur stdDeviation="12" /></filter><path fill="#71191d" d="M0 0h800v531H0z"/><g filter="url(#b)" transform="translate(1.6 1.6) scale(3.125)" fill-opacity=".5"><ellipse fill="#85d0ff" cx="111" cy="40" rx="17" ry="35"/><ellipse fill="#ff0015" cx="148" cy="163" rx="123" ry="53"/><ellipse cx="28" cy="70" rx="37" ry="83"/><ellipse fill="#f55543" rx="1" ry="1" transform="matrix(58.08631 -1.49442 .27337 10.62577 150.7 88.5)"/><ellipse fill="#000400" rx="1" ry="1" transform="matrix(78.68762 -.69094 .20113 22.90617 186.5 8)"/><ellipse fill="#0c1610" cx="230" cy="100" rx="30" ry="30"/><path fill="#ff5722" d="M14 77h62v16H14z"/><ellipse fill="#061d26" cx="155" cy="49" rx="32" ry="26"/><ellipse fill="#ff002a" cx="45" cy="163" rx="164" ry="11"/><path fill="#868951" d="M182.1 45.8l5.2-26.5 76.6 14.9-5.2 26.5z"/><ellipse fill="#1c1815" rx="1" ry="1" transform="matrix(15.24438 103.23475 -16.01876 2.36545 72.9 34.6)"/><path fill="#ff4438" d="M136 82h27v49h-27z"/><path fill="#ff15ff" d="M229 143h27v8h-27z"/><ellipse fill="#fff0c4" cx="111" cy="54" rx="12" ry="12"/><ellipse fill="#f41729" rx="1" ry="1" transform="matrix(12.55565 3.73047 -14.2861 48.08274 189 124.5)"/><path fill="#fb1708" d="M52.8 131l28.7-13.4-30.6-21.9 33.8-11.4z"/><path fill="#ff9863" d="M158.4 25.2l-13.6-12.6 4-3h10.8z"/><ellipse cx="17" cy="120" rx="39" ry="26"/><ellipse fill="#f2160a" cx="111" cy="114" rx="14" ry="29"/><ellipse fill="#ffffda" cx="62" rx="10" ry="4"/><path d="M170.7 140.8l12.4-46-22.2.2 6.8 23.1z"/><path fill="#2e3b5f" d="M64 30l50-46-20 75z"/></g></svg>