<svg xmlns="http://www.w3.org/2000/svg" viewBox="0 0 700 467"><filter id="b"><feGaussianBlur stdDeviation="12" /></filter><path fill="#a5a7ac" d="M0 0h700v464H0z"/><g filter="url(#b)" transform="translate(1.4 1.4) scale(2.73438)" fill-opacity=".5"><ellipse fill="#09122b" rx="1" ry="1" transform="matrix(2.54182 108.7192 -35.4992 .82996 132.9 145.7)"/><ellipse fill="#fbffff" cy="55" rx="104" ry="104"/><ellipse cx="251" cy="107" rx="21" ry="65"/><path fill="#fff" d="M141 13h93v35h-93z"/><ellipse fill="#7b8ea6" cx="38" cy="76" rx="141" ry="23"/><ellipse cx="126" cy="168" rx="18" ry="50"/><ellipse fill="#fff" cx="26" cy="21" rx="37" ry="37"/><ellipse fill="#243139" cx="238" cy="73" rx="27" ry="27"/><ellipse fill="#6f4532" cx="120" cy="12" rx="18" ry="29"/><ellipse fill="#eceeef" cx="41" cy="148" rx="47" ry="47"/><ellipse fill="#fff" cx="252" cy="13" rx="8" ry="37"/><ellipse fill="#e9e6e4" rx="1" ry="1" transform="rotate(-7.2 966.5 -1565) scale(17.73543 48.4892)"/><ellipse fill="#801a00" rx="1" ry="1" transform="rotate(143.5 66.6 82.5) scale(19.83171 7.91595)"/><ellipse fill="#494e4c" cx="175" cy="5" rx="70" ry="7"/><ellipse fill="#fff" cx="204" cy="30" rx="30" ry="20"/><path fill="#425363" d="M72.9 74.5l-29 1.9-.2 26.1-10.7-52z"/><ellipse fill="#360000" rx="1" ry="1" transform="matrix(-.2099 -20.04361 4.75379 -.04978 1.8 91.2)"/><path fill="#fcf3e9" d="M83.8 58.2l15.7 19.4-37.3 30.2-15.7-19.4z"/><ellipse fill="#fff" cx="12" cy="30" rx="11" ry="65"/><path d="M119 161h47v9h-47z"/><path fill="#fff" d="M116.2 55.9l-7 .2-1.4-42 7-.2z"/><ellipse fill="#5b779f" cx="138" cy="75" rx="31" ry="31"/></g></svg>