<svg xmlns="http://www.w3.org/2000/svg" viewBox="0 0 700 467"><filter id="b"><feGaussianBlur stdDeviation="12" /></filter><path fill="#121327" d="M0 0h700v464H0z"/><g filter="url(#b)" transform="translate(1.4 1.4) scale(2.73438)" fill-opacity=".5"><ellipse fill="#784e5a" cx="130" cy="126" rx="54" ry="43"/><ellipse fill="#000a7f" rx="1" ry="1" transform="matrix(14.58218 28.25224 -47.7004 24.6202 118 15)"/><ellipse rx="1" ry="1" transform="matrix(-12.21148 -73.43577 51.48123 -8.5607 226.5 63)"/><ellipse rx="1" ry="1" transform="matrix(45.7277 -16.65519 30.00566 82.38214 0 52.7)"/><path fill="#5d60aa" d="M93 145h74v13H93z"/><ellipse fill="#2427ae" rx="1" ry="1" transform="rotate(88.5 -61 91.6) scale(6.80429 25.75001)"/><ellipse fill="#592c1c" cx="172" cy="106" rx="29" ry="29"/><path fill="#000a04" d="M148 134l-43 2 25-34z"/><path fill="#1b4eff" d="M101.8 10.7l3.3 12.5 8.2 1.5 6-14z"/><path fill="#121973" d="M201 140.2l20.5 30.6L271 140l-72.7-4.4z"/><path fill="#1b4cff" d="M140 7h14v15h-14z"/><ellipse fill="#002929" cx="129" cy="68" rx="78" ry="20"/><path fill="#a2735f" d="M79 126.2l49.5-38-5-11.1-4 34.8z"/><path fill="#d12988" d="M141 113l27-12-19-4z"/><ellipse cx="255" cy="69" rx="52" ry="52"/><ellipse fill="#000008" cx="89" rx="11" ry="36"/><ellipse fill="#000300" rx="1" ry="1" transform="matrix(24.54088 -12.97684 10.61715 20.0784 72.5 169)"/><ellipse fill="#000208" rx="1" ry="1" transform="matrix(21.0002 -70.85872 57.39892 17.01116 15.2 64.7)"/><ellipse fill="#002870" rx="1" ry="1" transform="matrix(5.83567 -2.76919 8.42478 17.75403 47.4 28)"/><path fill="#7f3d0b" d="M57 118h36v10H57z"/><path fill="#0028fc" d="M70.1 13.4L80.8 16 78 28.6 67.2 26z"/><ellipse fill="#2a190e" rx="1" ry="1" transform="matrix(-11.24621 -11.67977 25.43892 -24.49462 197.6 111.4)"/></g></svg>