<svg xmlns="http://www.w3.org/2000/svg" viewBox="0 0 641 195"><filter id="b"><feGaussianBlur stdDeviation="12" /></filter><path fill="#697583" d="M0 0h641v192H0z"/><g filter="url(#b)" transform="translate(1.3 1.3) scale(2.5039)" fill-opacity=".5"><ellipse fill="#fff" rx="1" ry="1" transform="matrix(-44.4165 -137.25563 36.23311 -11.72519 62.8 41.7)"/><ellipse fill="#000019" rx="1" ry="1" transform="rotate(-71.4 137.6 -117) scale(115.44371 57.67471)"/><path d="M16.8 96.8l-34.7-12.6 17-47L34 49.8z"/><ellipse cy="41" rx="13" ry="128"/><ellipse fill="#72bcff" rx="1" ry="1" transform="matrix(-9.22351 -18.80199 41.09493 -20.15954 127.7 0)"/><ellipse fill="#b9a38d" rx="1" ry="1" transform="matrix(-5.22394 26.70221 -11.41381 -2.23296 194.2 48.8)"/><ellipse fill="#f9f4ca" rx="1" ry="1" transform="rotate(-64.9 82.3 -11) scale(98.91756 27.86231)"/><path fill="#fffdd2" d="M116.4 41.2L114.8 92l24.3-27.7L160.4 89z"/><path fill="#428bf3" d="M265.3 26.5l3.4 38.9-24 2-3.4-38.8z"/><ellipse fill="#00004a" cx="171" cy="11" rx="16" ry="51"/><path fill="#8dc0ff" d="M15 0h22v48H15z"/><path fill="#00391d" d="M232.5 44.6L170.6-9.2l30.9-35.4 61.9 53.8z"/><ellipse fill="#4991f4" cx="109" cy="9" rx="18" ry="38"/><ellipse cx="107" cy="53" rx="7" ry="7"/><path d="M264 64l-44 28-75-19z"/><ellipse fill="#f5efc6" rx="1" ry="1" transform="rotate(113.6 18.7 66.5) scale(26.78208 25.11631)"/><ellipse fill="#c9852d" rx="1" ry="1" transform="matrix(7.93622 3.2862 -3.87358 9.35477 192.3 23)"/><path fill="#3c58d4" d="M151 50L131 8l40-12z"/><ellipse fill="#000015" rx="1" ry="1" transform="rotate(-43.8 88 7.5) scale(25.82828 5.70812)"/><path fill="#e2b779" d="M122 66h31v9h-31z"/><ellipse fill="#bdcce6" cx="199" cy="50" rx="10" ry="6"/><path fill="ivory" d="M31.6 84l-10-11.2L42.4 54l10 11.1z"/></g></svg>