<svg xmlns="http://www.w3.org/2000/svg" viewBox="0 0 700 467"><filter id="b"><feGaussianBlur stdDeviation="12" /></filter><path fill="#484949" d="M0 0h700v464H0z"/><g filter="url(#b)" transform="translate(1.4 1.4) scale(2.73438)" fill-opacity=".5"><ellipse fill="#fff" cx="182" cy="3" rx="97" ry="52"/><ellipse cx="146" cy="111" rx="255" ry="47"/><ellipse fill="#fff" cx="181" rx="33" ry="33"/><ellipse fill="#94817b" rx="1" ry="1" transform="matrix(-14.96861 31.66524 -87.73207 -41.4722 65.1 19.4)"/><ellipse fill="#534f4a" rx="1" ry="1" transform="matrix(-32.93633 30.075 -15.46826 -16.9399 200.9 45)"/><ellipse fill="#fff" cx="177" cy="2" rx="120" ry="7"/><path fill="#606d75" d="M193 122h43v48h-43z"/><path fill="#cacecd" d="M36 118h12v23H36z"/><path fill="#fff" d="M157 0h35v33h-35z"/><path fill="#e8f8f8" d="M103 48h37v7h-37z"/><path fill="#6b4f48" d="M0 13h118v33H0z"/><path fill="#edfaef" d="M66.4 1.6l-78 8.3L13 11.4 72.7 6z"/><ellipse fill="#fff" cx="230" cy="135" rx="6" ry="6"/><path fill="#d3d3c9" d="M209 130l-14-5 3-19z"/><ellipse fill="#fff" cx="255" cy="145" rx="6" ry="6"/><ellipse fill="#040910" rx="1" ry="1" transform="rotate(-72.2 180.7 -116.8) scale(29.08651 63.98368)"/><path fill="#d2d5cd" d="M132.8 140.1l-5.7 7 1.9-19.8 7.6 11.4z"/><path fill="#c9d0cc" d="M7 131h5v39H7z"/><path d="M211 119h12v45h-12z"/><ellipse fill="#070c0b" rx="1" ry="1" transform="matrix(-1.74146 -35.60671 42.66501 -2.08667 0 125.8)"/><path fill="#fff" d="M203 163l3.2-4 14.8 12-3.2 4z"/><path fill="#040a09" d="M159.6 89.6l39.8 16-27 66.8-39.8-16z"/></g></svg>