<svg xmlns="http://www.w3.org/2000/svg" viewBox="0 0 200 133"><filter id="b"><feGaussianBlur stdDeviation="12" /></filter><path fill="#69af94" d="M0 0h200v133H0z"/><g filter="url(#b)" transform="translate(.5 .5)" fill-opacity=".5"><ellipse fill="#fffffe" cx="106" cy="30" rx="112" ry="17"/><ellipse cx="39" cy="6" rx="68" ry="10"/><ellipse cx="117" cy="126" rx="19" ry="19"/><ellipse fill="#000001" cx="154" cy="100" rx="13" ry="23"/><ellipse fill="#00a269" rx="1" ry="1" transform="matrix(-81.39253 9.0601 -2.21216 -19.87316 42.9 120.6)"/><ellipse fill="#9a5f2b" cx="41" cy="30" rx="15" ry="90"/><path fill="#000300" d="M175.9 43.2l25-1.3 1.2 25-25 1.2z"/><ellipse fill="#fff" cy="46" rx="44" ry="9"/><path fill="#1c402b" d="M163 17l-60 53 64-20z"/><ellipse fill="#e7fff8" cx="139" cy="22" rx="70" ry="16"/><ellipse cx="12" cy="61" rx="16" ry="7"/><ellipse fill="#9fffea" cx="104" cy="76" rx="50" ry="14"/><ellipse fill="#31ffb9" cx="196" cy="96" rx="33" ry="34"/><path fill="#001c15" d="M46-16l75 19-137 23z"/><ellipse fill="#00221d" cx="75" cy="57" rx="21" ry="9"/><path fill="#fff7fb" d="M156 79V34l-16 37z"/><path fill="#fff" d="M58.8 47.3l.4-25 28 .4-.4 25z"/><ellipse fill="#00ffb0" rx="1" ry="1" transform="matrix(76.73254 8.06506 -1.3751 13.08293 182.3 0)"/><path fill="#fff" d="M0 23h26v31H0z"/><ellipse fill="#8affe2" cx="126" cy="96" rx="16" ry="16"/><path fill="#cee1db" d="M29.6 38.7l20 .7-1.2 32-20-.8z"/><ellipse fill="#fff" rx="1" ry="1" transform="matrix(3.53385 -.08663 .61443 25.06433 170.4 52.4)"/></g></svg>