<svg xmlns="http://www.w3.org/2000/svg" viewBox="0 0 200 133"><filter id="b"><feGaussianBlur stdDeviation="12" /></filter><path fill="#655b6a" d="M0 0h200v133H0z"/><g filter="url(#b)" transform="translate(.5 .5)" fill-opacity=".5"><ellipse fill="#fff" cx="127" cy="14" rx="194" ry="24"/><ellipse fill="#0e0b25" cx="122" cy="106" rx="129" ry="61"/><ellipse fill="#c88070" cx="109" cy="32" rx="141" ry="10"/><path fill="#ffffef" d="M164 84.7l8.3-66.6-23-2.7 42.9-26.8z"/><path fill="#fff" d="M99.4 18l-8.2 13.6-32.6-19.5 8.2-13.7zm19.1-15.8l28.3 6-3.3 15.6-28.3-6z"/><ellipse fill="#fff" rx="1" ry="1" transform="rotate(-4.2 243.4 7.3) scale(8.34451 24.11828)"/><path fill="#c46b28" d="M199.7 106.6l3.5 28.8-16.9 2-3.5-28.8z"/><path fill="#fff" d="M215-14l-8-2h-32l-7 53.8z"/><ellipse fill="#fff" cx="155" cy="34" rx="5" ry="9"/><ellipse fill="#fff" cx="25" cy="1" rx="5" ry="32"/><ellipse fill="#885152" rx="1" ry="1" transform="matrix(9.28742 -9.08905 28.41766 29.03788 137.7 47)"/><ellipse fill="#30528a" rx="1" ry="1" transform="matrix(.7827 -29.52783 4.159 .11024 149.1 7.7)"/><path fill="#833d25" d="M78.5 50.2l-5.8-26.3L60 20.3l-13 .3z"/><ellipse fill="#26437e" cx="34" cy="1" rx="5" ry="20"/><ellipse fill="#0f2136" cx="70" cy="123" rx="98" ry="10"/><path fill="#fff6da" d="M24 59h3v34h-3z"/><ellipse fill="#0f4da9" rx="1" ry="1" transform="matrix(-19.57312 26.14282 -4.29935 -3.21893 11.8 70.7)"/><path fill="#444074" d="M170.4 47.9L192 28l11 5.2-35 89.7z"/><ellipse fill="#fff" cx="102" rx="9" ry="9"/><path fill="#002c78" d="M10.3-.7l6.3-3 7 14.4-6.2 3z"/><ellipse fill="#fff" rx="1" ry="1" transform="matrix(-4.85368 -.04717 .18147 -18.67202 44 2.8)"/></g></svg>