<svg xmlns="http://www.w3.org/2000/svg" viewBox="0 0 200 133"><filter id="b"><feGaussianBlur stdDeviation="12" /></filter><path fill="#3b0229" d="M0 0h200v133H0z"/><g filter="url(#b)" transform="translate(.5 .5)" fill-opacity=".5"><ellipse fill="#d41cc4" cx="99" cy="28" rx="34" ry="37"/><ellipse cx="164" cy="112" rx="55" ry="55"/><ellipse cx="38" cy="110" rx="52" ry="52"/><ellipse fill="#ff5ad4" rx="1" ry="1" transform="matrix(-20.29363 -.9602 .5606 -11.84805 101.5 36)"/><ellipse fill="#9c0071" cx="21" cy="41" rx="21" ry="20"/><ellipse fill="#4d0040" rx="1" ry="1" transform="rotate(178.6 48.1 7.3) scale(55.06817 10.69876)"/><ellipse fill="#94006f" rx="1" ry="1" transform="matrix(12.25897 23.29703 -9.52944 5.01443 187.6 40.8)"/><path fill="#f00eff" d="M65 55h65v4H65z"/><ellipse fill="#000100" cx="169" cy="115" rx="41" ry="41"/><ellipse fill="#730064" cx="138" cy="10" rx="17" ry="55"/><path fill="#ffabe7" d="M80 28h51v5H80z"/><path fill="#0b000f" d="M75.1 33.3l4.3 25.8L42 12.8l2 24.6z"/><path fill="#950072" d="M31 14l29-30L160 4z"/><ellipse fill="#020100" cx="1" cy="111" rx="50" ry="50"/><path fill="#120009" d="M123 11h52v11h-52z"/><ellipse fill="#24000e" cy="12" rx="27" ry="27"/><ellipse fill="#48000e" cx="96" cy="122" rx="20" ry="63"/><path fill="#ff00b8" d="M118 27h13v13h-13z"/><ellipse fill="#290020" cx="57" cy="15" rx="97" ry="3"/><path fill="#97014f" d="M93 77h16v20H93z"/><ellipse fill="#8b0066" rx="1" ry="1" transform="matrix(6.99656 -25.8015 7.85303 2.1295 26.8 34.1)"/><path fill="#0d0102" d="M0 66h87v39H0z"/></g></svg>