<svg xmlns="http://www.w3.org/2000/svg" viewBox="0 0 641 195"><filter id="b"><feGaussianBlur stdDeviation="12" /></filter><path fill="#694d74" d="M0 0h641v192H0z"/><g filter="url(#b)" transform="translate(1.3 1.3) scale(2.5039)" fill-opacity=".5"><ellipse rx="1" ry="1" transform="rotate(108.2 1.1 18.1) scale(45.49287 39.35583)"/><path d="M266.5-12.3L258 49l-62.4-8.8L204-21z"/><ellipse fill="#c6b5f1" rx="1" ry="1" transform="matrix(-79.87081 59.53387 -33.72829 -45.24997 110.4 76)"/><ellipse fill="#fff" cx="88" cy="76" rx="60" ry="13"/><ellipse cx="230" cy="14" rx="32" ry="32"/><ellipse fill="#ff45ff" cx="74" cy="16" rx="16" ry="16"/><ellipse fill="#21bedd" rx="1" ry="1" transform="matrix(-7.64352 -24.16253 34.20488 -10.82029 136.6 17.8)"/><ellipse rx="1" ry="1" transform="matrix(-12.53825 32.15894 -35.94195 -14.01318 19.5 10.7)"/><path d="M211 45l60-49-126 47z"/><ellipse fill="#ff95d7" rx="1" ry="1" transform="matrix(71.30115 2.4899 -.39981 11.44915 173.5 71.6)"/><ellipse fill="#ff0bff" cx="185" cy="16" rx="16" ry="15"/><ellipse fill="#ffa4a0" rx="1" ry="1" transform="matrix(-6.02942 4.83047 -12.97132 -16.19085 44.3 58.3)"/><ellipse fill="#020005" cx="46" cy="36" rx="39" ry="10"/><path fill="#48002d" d="M172 53h53v12h-53z"/><ellipse cx="254" cy="28" rx="11" ry="96"/><path fill="#3c1951" d="M88 0h17v57H88z"/><path fill="#d90090" d="M0 68h41v9H0z"/><ellipse fill="#e343e7" rx="1" ry="1" transform="matrix(-14.94959 -12.05574 6.69765 -8.30535 81.4 26.7)"/><ellipse fill="#004cb5" cx="164" cy="14" rx="7" ry="19"/><ellipse cx="8" cy="15" rx="49" ry="28"/><path fill="#fff" d="M46 65h44v12H46z"/><ellipse fill="#ffdff9" cx="173" cy="70" rx="62" ry="4"/></g></svg>