<svg xmlns="http://www.w3.org/2000/svg" viewBox="0 0 200 133"><filter id="b"><feGaussianBlur stdDeviation="12" /></filter><path fill="#6c5a4f" d="M0 0h200v133H0z"/><g filter="url(#b)" transform="translate(.5 .5)" fill-opacity=".5"><ellipse fill="#fff0d9" rx="1" ry="1" transform="matrix(6.1183 18.04798 -85.35251 28.93466 59.7 93.8)"/><ellipse rx="1" ry="1" transform="matrix(43.0119 -37.25808 17.64623 20.37136 130 108.1)"/><ellipse cx="74" rx="54" ry="54"/><ellipse fill="#fff" rx="1" ry="1" transform="matrix(13.33338 3.99403 -18.21748 60.81585 172.1 132)"/><ellipse cx="166" cy="10" rx="18" ry="43"/><ellipse fill="#ffb197" rx="1" ry="1" transform="matrix(-12.99062 1.29762 -2.10515 -21.0749 81.4 58.9)"/><ellipse fill="#d6c8c0" cx="45" cy="109" rx="34" ry="24"/><path fill="#fadbb1" d="M61 25L49 67v-83z"/><ellipse fill="#010000" rx="1" ry="1" transform="rotate(-32.6 252 -140) scale(80.51115 16.3842)"/><path d="M25 0h22v75H25z"/><path fill="#ffe2b1" d="M21-5.3l-8.4 39.1-21.5-4.5L-.6-9.8z"/><ellipse fill="#d0c09c" cx="199" cy="109" rx="25" ry="53"/><ellipse fill="#c9a570" cx="136" cy="11" rx="10" ry="70"/><path fill="#050202" d="M60 0h67v42H60z"/><path fill="#b89f86" d="M77 27l51 57-51 33z"/><ellipse fill="#000008" rx="1" ry="1" transform="rotate(152.5 -7.8 37.5) scale(11.83087 15.20083)"/><ellipse fill="#702109" rx="1" ry="1" transform="matrix(-8.91176 -12.2601 19.96093 -14.50942 140.5 121.5)"/><path fill="#da0022" d="M62 65.3l18.7 7-1.2-18.1L62 57z"/><ellipse fill="#b29584" rx="1" ry="1" transform="matrix(26.1959 1.9107 -.5475 7.50635 166.8 61)"/><path fill="#2e1e1c" d="M104.5 47.4l-31-43L97 60.5l68.4-27z"/><path fill="#6e5209" d="M190.8 108.7l-15.3 19.6 31.8-1-16.6-9.9z"/><path fill="#faece9" d="M190.1 94.8l-21.8 42.8-12.4-6.4 21.8-42.8z"/></g></svg>