<svg xmlns="http://www.w3.org/2000/svg" viewBox="0 0 700 467"><filter id="b"><feGaussianBlur stdDeviation="12" /></filter><path fill="#4a454d" d="M0 0h700v464H0z"/><g filter="url(#b)" transform="translate(1.4 1.4) scale(2.73438)" fill-opacity=".5"><ellipse fill="#80b1d2" rx="1" ry="1" transform="matrix(-97.55213 -21.04117 8.87269 -41.136 125.8 66)"/><ellipse fill="#1f0000" rx="1" ry="1" transform="matrix(-253.41082 28.42458 -3.80696 -33.93984 64.2 168.4)"/><ellipse fill="#0088cf" cx="71" cy="33" rx="44" ry="20"/><ellipse rx="1" ry="1" transform="matrix(114.41439 65.26081 -12.226 21.43446 234.5 14)"/><ellipse fill="#200000" cx="12" cy="49" rx="20" ry="228"/><ellipse fill="#a4625d" rx="1" ry="1" transform="matrix(6.35711 28.44008 -71.318 15.94146 153 101)"/><ellipse fill="#0995d8" rx="1" ry="1" transform="matrix(31.46836 9.0234 -3.26517 11.387 178.5 41.4)"/><ellipse fill="#d5cbbb" cx="130" cy="50" rx="29" ry="15"/><ellipse fill="#0073b7" rx="1" ry="1" transform="matrix(-14.05415 .12265 -.32848 -37.6397 44.2 43.8)"/><ellipse fill="#030001" rx="1" ry="1" transform="matrix(54.40695 10.22618 -2.4995 13.29822 44.4 0)"/><path fill="#845c63" d="M88 141h103v12H88z"/><ellipse cx="225" cy="169" rx="130" ry="20"/><ellipse fill="#6f4e60" rx="1" ry="1" transform="matrix(7.06068 22.19511 -36.73931 11.68746 117.2 82.6)"/><path fill="#1f0000" d="M227.2 130l7.3-37.4 38.3 7.5-7.3 37.3z"/><ellipse fill="#ab5d3b" cx="38" cy="128" rx="41" ry="8"/><ellipse fill="#d4b19c" cx="101" cy="119" rx="38" ry="4"/><ellipse fill="#6c4237" cx="233" cy="69" rx="29" ry="24"/><ellipse fill="#92b8c8" cx="72" cy="66" rx="17" ry="17"/><ellipse fill="#310000" rx="1" ry="1" transform="matrix(-29.1932 -2.26927 1.84417 -23.72454 54.8 155.4)"/><path fill="#92adc6" d="M207.8 65.8l-5.6 22.4-32-8 5.6-22.4z"/><path fill="#007db7" d="M37 23h117v11H37z"/><ellipse fill="#d68d99" rx="1" ry="1" transform="matrix(-7.53455 -9.25019 13.32568 -10.85416 151.3 91.3)"/></g></svg>