<svg xmlns="http://www.w3.org/2000/svg" viewBox="0 0 200 133"><filter id="b"><feGaussianBlur stdDeviation="12" /></filter><path fill="#783887" d="M0 0h200v133H0z"/><g filter="url(#b)" transform="translate(.5 .5)" fill-opacity=".5"><ellipse fill="#e76aef" rx="1" ry="1" transform="matrix(-29.86007 -33.73348 18.578 -16.4448 74.2 80.8)"/><ellipse fill="#181148" rx="1" ry="1" transform="matrix(-53.0367 .2777 -.19418 -37.0855 174.8 77.5)"/><ellipse fill="#9cb981" rx="1" ry="1" transform="matrix(-25.26396 11.12608 -12.61959 -28.65527 199 32.2)"/><ellipse fill="#dd5f5f" rx="1" ry="1" transform="matrix(-20.6191 -4.98043 6.6626 -27.58335 127.6 36.4)"/><ellipse fill="#210000" cx="53" cy="130" rx="88" ry="6"/><ellipse fill="#262525" rx="1" ry="1" transform="matrix(-12.20278 -4.86625 31.17355 -78.17181 156.1 27.4)"/><path fill="#e840ff" d="M135 115h46v14h-46z"/><ellipse fill="#f70cff" cx="116" cy="55" rx="8" ry="22"/><ellipse fill="#d75be8" cx="43" cy="115" rx="93" ry="5"/><ellipse fill="#7d18ff" rx="1" ry="1" transform="matrix(-11.96652 -5.52931 11.81486 -25.5697 2 82.8)"/><ellipse fill="#5b40f2" cx="98" cy="82" rx="17" ry="20"/><path fill="#ff3fe0" d="M34.3 60l28-15.5L79.7 76l-28 15.5z"/><ellipse fill="#000030" rx="1" ry="1" transform="rotate(-98.5 76.8 -66.1) scale(12.02927 29.89647)"/><ellipse fill="#1f006e" rx="1" ry="1" transform="matrix(57.26184 2.1107 -.27045 7.33723 44 4)"/><ellipse fill="#8aa8a5" rx="1" ry="1" transform="matrix(-14.88944 1.40383 -1.871 -19.84424 8 25.5)"/><path fill="#94998b" d="M215 7.5l-54.2.3-.2 25.6-1.1 12z"/><ellipse fill="#cc6577" cx="100" cy="22" rx="37" ry="12"/><path fill="#593a58" d="M127 113l-66-1 57-22z"/><ellipse fill="#9e70e4" cx="161" cy="95" rx="4" ry="28"/><path fill="#d1baae" d="M64 85h23v23H64z"/><path fill="#2d1376" d="M17.1 69.8l4.4 38.9 11.7-64.2-34.4-.7z"/><path fill="#ff1ce4" d="M197 55l18 1-43 20z"/></g></svg>