<svg xmlns="http://www.w3.org/2000/svg" viewBox="0 0 200 133"><filter id="b"><feGaussianBlur stdDeviation="12" /></filter><path fill="#675a4c" d="M0 0h200v133H0z"/><g filter="url(#b)" transform="translate(.5 .5)" fill-opacity=".5"><ellipse fill="#ffea3c" cx="4" cy="75" rx="21" ry="43"/><ellipse fill="#d6ebc4" rx="1" ry="1" transform="matrix(-.66144 -10.38294 76.36426 -4.86479 148.9 61.1)"/><ellipse rx="1" ry="1" transform="matrix(-29.08517 -15.9897 21.3159 -38.77349 57 3.7)"/><ellipse rx="1" ry="1" transform="rotate(-176.8 88 -1.4) scale(33.87517 31.71126)"/><ellipse fill="#ffd3d8" cx="81" cy="130" rx="111" ry="4"/><ellipse cx="37" cy="95" rx="19" ry="19"/><path fill="#aabce6" d="M5 3h16v45H5z"/><ellipse fill="#dcb07d" cx="163" cy="118" rx="10" ry="87"/><ellipse fill="#04282a" rx="1" ry="1" transform="matrix(5.99861 -1.77973 23.27297 78.44208 181.3 72)"/><path fill="#19232b" d="M75 76h47v50H75z"/><ellipse fill="#c3c1d8" cx="129" cy="69" rx="11" ry="28"/><path fill="#ffbf91" d="M58 83h17v27H58z"/><ellipse fill="#ffffd6" cx="188" cy="66" rx="10" ry="8"/><path fill="#2b202d" d="M146.3 117l-20-6 13.4-44 20 6z"/><path d="M2-14L59 4l19 44z"/><path fill="#fc6a36" d="M28 68.2l1-33 15 .6-1 33z"/><ellipse fill="#2c080b" rx="1" ry="1" transform="rotate(-60.1 116 16.3) scale(18.62554 20.25112)"/><path fill="#2f82b4" d="M54 48h57v11H54z"/><path fill="#080a1c" d="M49-16h119l-62 34z"/><ellipse fill="#003e5f" rx="1" ry="1" transform="matrix(-.00379 -4.28685 24.42805 -.02157 166.7 52.4)"/><path fill="#ffde5b" d="M74 61h24v14H74z"/><path fill="#ffe83b" d="M10 48.2l-12.4 76.3 25-65.4 1.5-22.7z"/></g></svg>