<svg xmlns="http://www.w3.org/2000/svg" viewBox="0 0 700 467"><filter id="b"><feGaussianBlur stdDeviation="12" /></filter><path fill="#5c2845" d="M0 0h700v464H0z"/><g filter="url(#b)" transform="translate(1.4 1.4) scale(2.73438)" fill-opacity=".5"><ellipse fill="#7ca0e6" cx="119" cy="70" rx="80" ry="38"/><ellipse fill="#ff0123" rx="1" ry="1" transform="matrix(49.85065 -15.18466 8.16542 26.80677 205 132)"/><ellipse cx="242" cy="40" rx="35" ry="70"/><ellipse fill="#860700" rx="1" ry="1" transform="matrix(-73.99165 30.89653 -7.43002 -17.79357 89.4 126.2)"/><ellipse rx="1" ry="1" transform="matrix(-23.03196 -10.5509 45.03324 -98.30468 19.9 22.1)"/><path fill="#000a37" d="M80.3 80.6l74-86.8L82-7.5 69 76.9z"/><ellipse fill="#a5ccb9" rx="1" ry="1" transform="rotate(-166 65.3 24.5) scale(26.25444 29.38329)"/><ellipse fill="#f72f37" rx="1" ry="1" transform="matrix(-2.86726 -12.9135 35.82177 -7.95372 84.4 124.2)"/><path fill="#2b0000" d="M242 171l-258 14 11-67z"/><ellipse fill="#82b3ff" rx="1" ry="1" transform="rotate(32.5 26.5 296) scale(15.13091 8.69433)"/><ellipse fill="#f92e58" rx="1" ry="1" transform="matrix(-6.10217 46.00185 -7.89598 -1.0474 48.6 59.3)"/><ellipse fill="#ff4059" cx="196" cy="104" rx="8" ry="57"/><ellipse fill="#2d0000" rx="1" ry="1" transform="rotate(-128.3 163 11.5) scale(20.93476 72.29443)"/><path fill="#151d56" d="M140 168l32-56L146 1z"/><path fill="#7b9dff" d="M57 34h19v72H57z"/><ellipse fill="#000019" cx="218" rx="137" ry="25"/><ellipse fill="#690000" rx="1" ry="1" transform="matrix(0 14.78925 -55.58381 0 117.1 140.7)"/><path fill="#8ebaff" d="M162 113l38-41-22-17z"/><ellipse fill="#904229" cx="34" cy="110" rx="31" ry="36"/><path fill="#ffffed" d="M100 81L88 92l32-2z"/><path fill="#92008a" d="M80.9 8l-72 62.4L76.6-16l8 46.6z"/><ellipse fill="#ba3dd2" cx="169" cy="156" rx="29" ry="5"/></g></svg>