<svg xmlns="http://www.w3.org/2000/svg" viewBox="0 0 700 467"><filter id="b"><feGaussianBlur stdDeviation="12" /></filter><path fill="#2f3442" d="M0 0h700v464H0z"/><g filter="url(#b)" transform="translate(1.4 1.4) scale(2.73438)" fill-opacity=".5"><ellipse fill="#bfb2bf" rx="1" ry="1" transform="rotate(92.3 13.9 135) scale(67.45544 24.46099)"/><ellipse cx="255" cy="66" rx="93" ry="93"/><ellipse fill="#455275" cx="11" cy="114" rx="86" ry="86"/><path fill="#9ed1ff" d="M85 39h40v8H85z"/><path fill="#b4d0ff" d="M-26.7 88.8l-1-8 94.4-11.6 1 8z"/><path fill="#b5adb3" d="M123 124h55v27h-55z"/><ellipse fill="#f0c8e3" cx="152" cy="36" rx="9" ry="9"/><path fill="#aacbff" d="M53 37L9 41l-25-18z"/><ellipse fill="#000100" cx="25" cy="63" rx="42" ry="10"/><path fill="#000107" d="M26.5 137.4l49.4-48-91.9 37.8 9 14z"/><path fill="#000200" d="M73 58l58-6-3 66z"/><ellipse fill="#070c1f" cx="210" cy="157" rx="39" ry="39"/><path fill="#6d93b6" d="M98.7 75.7l11.7 5.7-13.1 27-11.7-5.8z"/><path fill="#636da8" d="M58 118l-73 37 34 30z"/><path d="M69.6 52.3l-22 2.3-3.2-30.9 22-2.3z"/><path fill="#cdcbff" d="M174 105.2l-19.6 10-6.4-12.4 19.6-10z"/><path d="M145.7 155.5l5.8-1.7 8.8 28.7-5.8 1.7zM181 119l4-31-23 29z"/><ellipse fill="#070e10" cx="217" cy="8" rx="59" ry="106"/><ellipse fill="#baa293" cx="142" cy="70" rx="11" ry="11"/><path fill="#c1f6ff" d="M108 95l-14 9-20-3z"/><path fill="#e4c3e0" d="M145 19h8v12h-8z"/></g></svg>