<svg xmlns="http://www.w3.org/2000/svg" viewBox="0 0 200 133"><filter id="b"><feGaussianBlur stdDeviation="12" /></filter><path fill="#731920" d="M0 0h200v133H0z"/><g filter="url(#b)" transform="translate(.5 .5)" fill-opacity=".5"><ellipse fill="#ff0017" rx="1" ry="1" transform="matrix(103.16292 -5.0992 1.51776 30.7062 116 122)"/><ellipse fill="#8cd3ff" rx="1" ry="1" transform="matrix(14.04951 -2.5026 3.97931 22.33972 87 33.2)"/><ellipse fill="#000100" rx="1" ry="1" transform="matrix(-30.7094 63.2435 -46.1494 -22.40894 4 59)"/><ellipse rx="1" ry="1" transform="rotate(96.5 78.6 70.2) scale(18.05748 115.38783)"/><ellipse fill="#f52b24" rx="1" ry="1" transform="matrix(-13.80795 -21.59088 25.08622 -16.0433 102 83.9)"/><ellipse fill="#051c26" cx="119" cy="36" rx="23" ry="23"/><ellipse fill="#cd3c20" cx="49" cy="67" rx="38" ry="9"/><ellipse fill="#111713" rx="1" ry="1" transform="matrix(-15.26075 -12.1825 16.24757 -20.35297 181.9 82)"/><ellipse fill="#828a54" rx="1" ry="1" transform="matrix(-1.9375 11.83162 -37.40322 -6.12501 186 34.6)"/><ellipse fill="#ff002a" cx="12" cy="127" rx="153" ry="10"/><path fill="#f82b27" d="M147.4 48.2L136 62.7l14.1 78 11-87.7z"/><ellipse fill="#020606" rx="1" ry="1" transform="rotate(-91.8 67.4 2.1) scale(34.6965 8.38371)"/><ellipse cx="21" cy="94" rx="22" ry="22"/><ellipse fill="#f2ddb7" rx="1" ry="1" transform="matrix(1.9064 -13.06785 6.58855 .96117 86 40.8)"/><path fill="#222c3c" d="M46 4h31v37H46z"/><path fill="#ff16ff" d="M179 112h21v6h-21z"/><path fill="#ffd08b" d="M121 8l-9-4 15 17z"/><path fill="#ff7c6e" d="M105.3 75.3l20.5-14.4 6.9 9.8-20.5 14.4z"/><path fill="#f81406" d="M43 103l16-6-5-42z"/><path fill="#ff7a12" d="M35 72L14 57l-2 13z"/><ellipse rx="1" ry="1" transform="matrix(-24.67852 8.34211 -4.28176 -12.66677 183.2 8.6)"/><path d="M96 72h10v16H96z"/></g></svg>