<svg xmlns="http://www.w3.org/2000/svg" viewBox="0 0 700 467"><filter id="b"><feGaussianBlur stdDeviation="12" /></filter><path fill="#181717" d="M0 0h700v464H0z"/><g filter="url(#b)" transform="translate(1.4 1.4) scale(2.73438)" fill-opacity=".5"><ellipse fill="#68ccff" rx="1" ry="1" transform="matrix(-52.5567 -2.47851 1.2467 -26.4361 129.7 78.7)"/><ellipse fill="red" rx="1" ry="1" transform="rotate(-85.8 121.7 -7.1) scale(17.01183 60.73971)"/><path fill="#62bffa" d="M137 60h38v44h-38z"/><path d="M0 0h80v170H0z"/><path fill="#003cdf" d="M62 90l131 18-76-40z"/><ellipse fill="#ff0d00" cx="116" cy="113" rx="39" ry="14"/><ellipse rx="1" ry="1" transform="matrix(-207.30534 5.89498 -1.0812 -38.02184 150.6 19)"/><path fill="#ffcdf4" d="M132 141h7v15h-7z"/><ellipse fill="#000e00" cx="231" cy="108" rx="53" ry="255"/><path fill="#a8ddb9" d="M128 59h48v17h-48z"/><path fill="#91c5ad" d="M95.4 56.2H82.9l-6.3 6.5L122.1 81z"/><path fill="#004ccd" d="M163 109l20-8-33-25z"/><ellipse fill="#060200" rx="1" ry="1" transform="matrix(-14.31876 -26.92966 20.72823 -11.0214 166.1 150.2)"/><path fill="#f31708" d="M145.7 104.7L72 93l60.9 37.6 17.8-3.8z"/><path fill="#004ffa" d="M99.6 95.8l-20-.7.8-23 20 .8z"/><ellipse fill="#040b01" rx="1" ry="1" transform="rotate(9.8 -497.6 429.7) scale(12.7883 62.59748)"/><ellipse fill="#020000" rx="1" ry="1" transform="matrix(-42.06342 -17.85239 10.7915 -25.4267 105 169)"/><ellipse fill="#377812" rx="1" ry="1" transform="matrix(-3.5985 -2.13872 16.42547 -27.63662 213 125.7)"/><ellipse fill="#bfdba6" rx="1" ry="1" transform="rotate(-140.2 95.3 9.7) scale(16.77441 6.56682)"/><ellipse fill="#a33647" rx="1" ry="1" transform="matrix(-8.28282 4.66713 -6.31946 -11.21524 132.6 142.4)"/><ellipse fill="#073618" rx="1" ry="1" transform="matrix(-2.66727 11.24028 -43.7292 -10.37675 26.6 135)"/><path fill="#084486" d="M108 89l3-22 52 21z"/></g></svg>