<svg xmlns="http://www.w3.org/2000/svg" viewBox="0 0 700 467"><filter id="b"><feGaussianBlur stdDeviation="12" /></filter><path fill="#71191d" d="M0 0h700v464H0z"/><g filter="url(#b)" transform="translate(1.4 1.4) scale(2.73438)" fill-opacity=".5"><ellipse fill="#ff0819" cx="152" cy="146" rx="66" ry="66"/><ellipse fill="#87d3ff" cx="110" cy="40" rx="17" ry="34"/><ellipse fill="#0d0500" cx="29" cy="72" rx="72" ry="72"/><ellipse fill="#ff0028" cx="98" cy="169" rx="121" ry="19"/><ellipse fill="#000b00" rx="1" ry="1" transform="rotate(81.7 110.3 127.7) scale(30.58794 106.46699)"/><ellipse fill="#ff2a1b" cx="67" cy="104" rx="12" ry="31"/><path fill="#ff045f" d="M259.2 126.7l3.3 26.8-47.7 5.8-3.3-26.8z"/><ellipse fill="#0f1711" cx="230" cy="99" rx="30" ry="30"/><path fill="#837345" d="M134 9l118 21 19 52z"/><path fill="#ff6810" d="M15 76h25v16H15z"/><ellipse fill="#0f1b25" cx="157" cy="48" rx="34" ry="28"/><ellipse fill="#b74e3d" rx="1" ry="1" transform="matrix(-78.53237 -4.52815 .78232 -13.56797 133 87.8)"/><path d="M168.2 119.2l-7.1-17.6 16.7-6.8 7.1 17.6z"/><path fill="#fff9d0" d="M117 34l3 38-20-22z"/><ellipse cx="28" cy="114" rx="32" ry="23"/><ellipse fill="#e50000" rx="1" ry="1" transform="matrix(-16.2397 26.2943 -14.45773 -8.92928 60 146)"/><ellipse cx="86" cy="108" rx="10" ry="26"/><path fill="#2c365c" d="M50.2 28.6l50.4 42.6.3-41.3L131.8-16z"/><ellipse rx="1" ry="1" transform="matrix(-4.97095 .10886 -.31927 -14.57847 129 106.7)"/><ellipse fill="#110406" cx="42" cy="44" rx="36" ry="36"/><path d="M269.3 16.5l1.7-16-76.2-9.6 17.5 41z"/><ellipse fill="#ff5b4c" rx="1" ry="1" transform="rotate(-151.1 88.3 30.3) scale(7.75676 30.26678)"/></g></svg>