<svg xmlns="http://www.w3.org/2000/svg" viewBox="0 0 200 133"><filter id="b"><feGaussianBlur stdDeviation="12" /></filter><path fill="#444f69" d="M0 0h200v133H0z"/><g filter="url(#b)" transform="translate(.5 .5)" fill-opacity=".5"><ellipse fill="#1ae5ff" cx="161" cy="46" rx="52" ry="38"/><ellipse fill="#810000" rx="1" ry="1" transform="rotate(93.7 23.4 124.2) scale(29.68295 76.12668)"/><ellipse fill="#fffcee" rx="1" ry="1" transform="matrix(19.3198 2.08716 -3.41032 31.56764 65.8 92.6)"/><ellipse rx="1" ry="1" transform="matrix(22.04948 -101.9612 17.06998 3.69145 5.8 85.2)"/><ellipse fill="#7b0000" rx="1" ry="1" transform="matrix(-9.46704 87.14561 -12.85254 -1.39623 98.4 65.3)"/><ellipse fill="#fff" cx="187" cy="76" rx="78" ry="5"/><ellipse fill="#1bb2ff" cx="135" cy="18" rx="21" ry="56"/><path fill="#0872c4" d="M26 0h25v106H26z"/><ellipse fill="#5b0000" cx="147" cy="111" rx="32" ry="32"/><ellipse fill="#00001f" rx="1" ry="1" transform="matrix(-19.745 14.34559 -40.4457 -55.66873 14.1 108)"/><ellipse fill="#008bfd" rx="1" ry="1" transform="matrix(-5.90554 -17.6498 47.18435 -15.78766 158.4 50.6)"/><path fill="#9effff" d="M10.6-11L2.3 36.2l-7-1.2 8.4-47.2z"/><ellipse fill="#620000" cx="190" cy="105" rx="114" ry="23"/><ellipse fill="#b60000" cx="97" cy="40" rx="8" ry="66"/><ellipse fill="#c29065" rx="1" ry="1" transform="matrix(6.3425 -39.575 7.9922 1.28087 80.7 29.9)"/><ellipse fill="#00193d" rx="1" ry="1" transform="matrix(-4.91736 -.78938 18.6346 -116.08226 53.5 43.3)"/><path fill="#f0e5de" d="M51 65h20v53H51z"/><ellipse fill="#5baded" cx="37" cy="49" rx="9" ry="28"/><path fill="#5c1400" d="M121.4-1.7l37.3 8.2 42.1 8.7-1.7-31.2z"/><ellipse fill="#8ccdff" cx="134" cy="19" rx="17" ry="10"/><ellipse fill="#00041a" rx="1" ry="1" transform="rotate(107.5 -5.6 24.3) scale(45.63998 13.15562)"/><ellipse fill="#fff" cx="178" cy="76" rx="67" ry="4"/></g></svg>