<svg xmlns="http://www.w3.org/2000/svg" viewBox="0 0 800 533"><filter id="b"><feGaussianBlur stdDeviation="12" /></filter><path fill="#71191d" d="M0 0h800v531H0z"/><g filter="url(#b)" transform="translate(1.6 1.6) scale(3.125)" fill-opacity=".5"><ellipse fill="#9de9ff" rx="1" ry="1" transform="rotate(-99.4 73.7 -25.3) scale(30.40548 15.30123)"/><ellipse fill="#ff0015" cx="147" cy="169" rx="129" ry="59"/><ellipse fill="#010500" rx="1" ry="1" transform="matrix(26.71622 -99.91975 40.65494 10.87019 40.4 52.5)"/><ellipse fill="#000700" cx="192" cy="9" rx="88" ry="20"/><ellipse fill="#da3b2d" rx="1" ry="1" transform="matrix(-58.06403 -4.42695 1.67597 -21.98207 153 98.5)"/><path fill="#ff6b10" d="M40.4 93.4l-25.9-1.8 1-15 26 1.8z"/><ellipse fill="#11160f" rx="1" ry="1" transform="matrix(27.09815 7.71911 -8.96097 31.45774 229.4 102)"/><ellipse fill="#061f2b" cx="152" cy="49" rx="29" ry="29"/><path fill="#ff3a23" d="M57 77h18v47H57z"/><ellipse fill="#ff002d" rx="1" ry="1" transform="matrix(124.06705 -5.81944 .86923 18.53144 79.3 169)"/><ellipse fill="#7f844f" rx="1" ry="1" transform="matrix(-43.30026 -16.40744 5.21951 -13.77462 226.6 42.5)"/><path d="M70.4 97.1l12.3 38.3 3.5 22.2 12-60.2zm114.1-.3l-6.6 23-16.4-4.6 6.6-23z"/><ellipse cx="29" cy="119" rx="28" ry="26"/><path fill="#4f609a" d="M81 7h48v38H81z"/><path fill="#ff16ff" d="M230 143h26v8h-26z"/><path fill="#ffa670" d="M156 28L145 6l14 7z"/><path fill="#f5efda" d="M120.4 65.4l-11 1-3.8-43.8 11-1z"/><ellipse fill="#ffbd9e" cx="60" rx="13" ry="5"/><path d="M122 90l8 35 6-29z"/><path fill="#ff564b" d="M165 84.7l-12 40.5.9 10.8-24.7-57.8z"/><ellipse rx="1" ry="1" transform="matrix(27.05505 -15.1715 9.2777 16.54476 230.6 7)"/></g></svg>