<svg xmlns="http://www.w3.org/2000/svg" viewBox="0 0 700 467"><filter id="b"><feGaussianBlur stdDeviation="12" /></filter><path fill="#4d5783" d="M0 0h700v464H0z"/><g filter="url(#b)" transform="translate(1.4 1.4) scale(2.73438)" fill-opacity=".5"><ellipse fill="#fdffff" rx="1" ry="1" transform="matrix(-103.36646 -12.59971 3.4268 -28.113 132.3 127.4)"/><ellipse rx="1" ry="1" transform="matrix(191.7604 5.44702 -.45565 16.04102 144.6 9.5)"/><ellipse rx="1" ry="1" transform="matrix(8.53174 -135.60815 15.84895 .99713 17.6 119.5)"/><ellipse cx="192" cy="164" rx="25" ry="25"/><ellipse fill="#4067ed" cx="68" cy="78" rx="47" ry="47"/><ellipse fill="#fff" rx="1" ry="1" transform="matrix(.16306 -14.03916 91.45192 1.06217 126.5 133.9)"/><ellipse cx="173" cy="169" rx="233" ry="13"/><ellipse fill="#8599e1" cx="165" cy="90" rx="38" ry="32"/><path fill="#00000e" d="M224 124V60l-48 66z"/><path fill="#fff" d="M208 153l-10-43 46 46z"/><path d="M227 127.3l21-11.6 27 49-21 11.6z"/><ellipse fill="#00000c" rx="1" ry="1" transform="matrix(.2618 16.6648 -23.01367 .36153 23 122.7)"/><ellipse fill="#fff" rx="1" ry="1" transform="matrix(-10.49132 13.00204 -6.97867 -5.63108 48.3 137.9)"/><ellipse fill="#000019" rx="1" ry="1" transform="matrix(-4.01099 25.90941 -251.99822 -39.01139 152.4 0)"/><ellipse fill="#4a76ff" rx="1" ry="1" transform="matrix(13.59943 0 0 46.03247 238 74.4)"/><path d="M214 52.8l12 82.9L223.5.3 179.9-16z"/><path fill="#eff" d="M88 119h56v37H88z"/><ellipse fill="#0e20af" cx="158" cy="43" rx="25" ry="25"/><ellipse fill="#0a2cbf" rx="1" ry="1" transform="matrix(6.31533 25.0207 -41.17715 10.3933 70.5 47.3)"/><path fill="#d4afca" d="M117.7 19.6l2.7 16.5-4.8 31.4L145.1 24z"/><ellipse fill="#b9b7cf" rx="1" ry="1" transform="matrix(3.13022 -15.38551 27.08848 5.51121 59.9 99.5)"/><ellipse fill="#362f17" cx="71" cy="164" rx="20" ry="27"/></g></svg>