<svg xmlns="http://www.w3.org/2000/svg" viewBox="0 0 700 467"><filter id="b"><feGaussianBlur stdDeviation="12" /></filter><path fill="#656d6f" d="M0 0h700v464H0z"/><g filter="url(#b)" transform="translate(1.4 1.4) scale(2.73438)" fill-opacity=".5"><ellipse fill="#090100" rx="1" ry="1" transform="matrix(-39.9757 -9.43812 44.78226 -189.67782 75.3 84.2)"/><ellipse fill="#dbf9ff" rx="1" ry="1" transform="matrix(-6.5336 -19.52593 55.90876 -18.7077 188 61.2)"/><ellipse fill="#fff" cx="204" cy="161" rx="30" ry="30"/><path fill="#fff" d="M35 61L-1 82v103z"/><ellipse fill="#a2c6d8" cx="181" cy="113" rx="32" ry="32"/><ellipse fill="#fffffd" rx="1" ry="1" transform="matrix(14.48065 4.87249 -2.81426 8.36377 59.8 81)"/><path fill="#0a0600" d="M189 34L98 71 21 4z"/><ellipse fill="#a3b4c6" cx="238" cy="64" rx="33" ry="33"/><ellipse fill="#c7c9b4" cx="62" rx="136" ry="9"/><path fill="#efffff" d="M128.2 178.2l-17.9 2.2-6.5-52.6 17.9-2.2z"/><ellipse cx="80" cy="157" rx="28" ry="28"/><path fill="#faffff" d="M154 56h26v50h-26z"/><ellipse fill="#211600" cx="149" cy="164" rx="26" ry="25"/><ellipse fill="#fff" rx="1" ry="1" transform="matrix(22.72885 -27.28116 11.21477 9.3434 3.8 101.4)"/><path fill="#d1af93" d="M38 76l34 21 20-44z"/><ellipse fill="#3f332c" rx="1" ry="1" transform="rotate(-148.8 22.2 17.2) scale(42.47769 27.51486)"/><ellipse fill="#97afc4" rx="1" ry="1" transform="rotate(95.6 61 176.4) scale(31.96717 15.67963)"/><ellipse fill="#160900" rx="1" ry="1" transform="matrix(-6.55338 12.92475 -26.77033 -13.57367 94.9 92.1)"/><path fill="#f4ffff" d="M-16 135l34 20L6 77z"/><path fill="#fff" d="M1 13l-12-29H91z"/><ellipse fill="#132a32" rx="1" ry="1" transform="matrix(23.4326 2.42095 -4.06222 39.31863 38.2 126.8)"/><ellipse fill="#d4f2ff" rx="1" ry="1" transform="matrix(26.41874 -6.992 6.35403 24.00824 203 160.6)"/></g></svg>