<svg xmlns="http://www.w3.org/2000/svg" viewBox="0 0 700 467"><filter id="b"><feGaussianBlur stdDeviation="12" /></filter><path fill="#777967" d="M0 0h700v464H0z"/><g filter="url(#b)" transform="translate(1.4 1.4) scale(2.73438)" fill-opacity=".5"><path fill="#152100" d="M249.8 170.1l-79.5 15.5-24-123.7 79.4-15.5z"/><ellipse fill="#fff" rx="1" ry="1" transform="rotate(179.3 26 13) scale(83.83472 17.54268)"/><ellipse fill="#fff" cx="98" cy="168" rx="58" ry="33"/><ellipse fill="#2b4700" cx="214" cy="34" rx="32" ry="68"/><ellipse fill="#fff" rx="1" ry="1" transform="matrix(-18.79252 2.34073 -4.38423 -35.19868 133.2 86.5)"/><ellipse fill="#daf4ff" cx="45" cy="105" rx="15" ry="47"/><ellipse fill="#0c0000" rx="1" ry="1" transform="matrix(-16.25063 -.28366 .8666 -49.64782 93.7 76)"/><path fill="#080007" d="M21.4 158.6L13.1 64-16 22.7l5.3 153.3z"/><ellipse fill="#fff" cx="255" rx="9" ry="86"/><ellipse rx="1" ry="1" transform="rotate(-114.2 136.3 12) scale(56.87153 18.09349)"/><path fill="#eaeabf" d="M197 131l30-28-18 51z"/><ellipse fill="#fff" cx="89" cy="22" rx="64" ry="7"/><ellipse fill="#fff" rx="1" ry="1" transform="matrix(7.94372 18.34328 -28.33852 12.27225 122.4 164.7)"/><ellipse fill="#364a00" rx="1" ry="1" transform="matrix(-48.11661 -53.25171 18.16263 -16.4112 199.5 20.4)"/><ellipse fill="#788535" rx="1" ry="1" transform="matrix(61.49697 39.91967 -12.09928 18.63916 220.2 91.2)"/><ellipse rx="1" ry="1" transform="rotate(-156.3 57.6 31.9) scale(14.1271 26.46096)"/><path fill="#fff" d="M154.6 54.4L141 18.9l8.4-3.3L163 51.1z"/><ellipse fill="#a3b4f8" rx="1" ry="1" transform="matrix(-14.44268 -19.19819 21.36048 -16.06937 39.8 92.6)"/><ellipse fill="#fff" cy="25" rx="13" ry="25"/><path d="M166 152h75v18h-75z"/><path fill="#130614" d="M57.8 45L45.2 61-16 86l86.9-56.2z"/><path fill="#b69089" d="M155.3-4l-36.6 47.6-122.9-7.2 127.6 27.9z"/></g></svg>