<svg xmlns="http://www.w3.org/2000/svg" viewBox="0 0 200 133"><filter id="b"><feGaussianBlur stdDeviation="12" /></filter><path fill="#686d71" d="M0 0h200v133H0z"/><g filter="url(#b)" transform="translate(.5 .5)" fill-opacity=".5"><ellipse fill="#100500" cx="56" cy="54" rx="34" ry="122"/><ellipse fill="#bad4e9" cx="162" cy="81" rx="47" ry="56"/><path fill="#fff" d="M-12.4 115.2L4 53.4l20.3 5.4L8 120.6zM120 40h22v40h-22z"/><ellipse rx="1" ry="1" transform="matrix(-32.80802 .87838 -.44307 -16.54895 95.7 32.6)"/><path fill="#fff3ed" d="M60.6 49.6L-16 73.2 39.2 65l17.5 14.9z"/><ellipse fill="#eff" cx="90" cy="115" rx="8" ry="20"/><ellipse fill="#000d0f" rx="1" ry="1" transform="matrix(32.06014 7.28389 -6.45368 28.40597 46.7 113.2)"/><ellipse fill="#1e160d" cx="119" cy="130" rx="18" ry="28"/><ellipse fill="#f9ffff" cx="157" cy="132" rx="21" ry="28"/><ellipse fill="#546165" cx="161" cy="82" rx="21" ry="27"/><path fill="#f9fff4" d="M6.9-7.6L-8.8-16l-1.9 24.1L107-.2z"/><ellipse fill="#fff" rx="1" ry="1" transform="rotate(-158.3 10.6 40) scale(10.67544 24.5245)"/><ellipse fill="#95bde3" cx="107" cy="57" rx="13" ry="13"/><ellipse fill="#060000" rx="1" ry="1" transform="matrix(13.28192 -35.33599 10.57246 3.97392 80.5 59)"/><ellipse fill="#98947b" cx="86" rx="53" ry="11"/><path fill="#99acdc" d="M85 125l-9-39 22 14z"/><ellipse fill="#353446" cx="3" cy="33" rx="24" ry="24"/><path fill="#fff" d="M139.5 67.5l-22-8.5 2.2-17.8 19.8-.9z"/><ellipse fill="#86bbf0" rx="1" ry="1" transform="matrix(.77094 16.34778 -3.23544 .15258 104.7 33.7)"/><path fill="#b8c5d7" d="M147 31h53v23h-53z"/><ellipse fill="#253441" cx="29" cy="96" rx="18" ry="24"/></g></svg>