<svg xmlns="http://www.w3.org/2000/svg" viewBox="0 0 800 533"><filter id="b"><feGaussianBlur stdDeviation="12" /></filter><path fill="#3a4269" d="M0 0h800v531H0z"/><g filter="url(#b)" transform="translate(1.6 1.6) scale(3.125)" fill-opacity=".5"><ellipse fill="#8aff88" rx="1" ry="1" transform="matrix(61.63457 -9.65172 7.06936 45.144 164 22.8)"/><ellipse fill="#000009" rx="1" ry="1" transform="matrix(-32.893 3.1093 -19.41506 -205.38989 25 110.2)"/><ellipse fill="#ffebff" cx="117" cy="142" rx="56" ry="9"/><ellipse fill="#2f2df6" cx="250" cy="36" rx="49" ry="56"/><path fill="#f6cff0" d="M115 82h32v33h-32z"/><ellipse cx="148" cy="169" rx="255" ry="16"/><ellipse fill="#ffedff" cx="220" cy="138" rx="11" ry="11"/><path fill="#ffe1ff" d="M120 149.2l-26.3-36-1.8 5.3-14.2 5.9z"/><ellipse fill="#bae771" rx="1" ry="1" transform="rotate(-29.6 127.2 -290.8) scale(29.57793 28.67276)"/><ellipse fill="#00004e" cx="36" cy="26" rx="42" ry="42"/><ellipse fill="#1c0075" cx="183" cy="103" rx="37" ry="37"/><ellipse fill="#0a8d55" rx="1" ry="1" transform="matrix(-3.76768 -37.4161 22.28573 -2.2441 94.6 34.3)"/><path fill="#947fb9" d="M224 13l-15 69 25 68z"/><ellipse fill="#0c0053" cx="247" cy="117" rx="16" ry="58"/><ellipse fill="#110036" rx="1" ry="1" transform="matrix(-63.56936 41.28242 -9.11603 -14.03746 59.4 113.4)"/><path fill="#a26ec0" d="M57 53L41 85l33 11z"/><ellipse fill="#b84fff" cx="101" cy="169" rx="189" ry="2"/><ellipse fill="#000010" rx="1" ry="1" transform="matrix(-21.3987 18.2292 -23.88814 -28.04158 17.2 92.4)"/><path fill="#009f80" d="M159.9 69.6l-1.6-23 59.8-4.2 1.6 23z"/><path d="M171 140h35v26h-35z"/><path fill="#cd9bff" d="M63 135h105v16H63z"/><path fill="#a26b85" d="M137.2 83.7l-21.6-3.8 5.2-29.6 21.6 3.8z"/></g></svg>