<svg xmlns="http://www.w3.org/2000/svg" viewBox="0 0 200 133"><filter id="b"><feGaussianBlur stdDeviation="12" /></filter><path fill="#4255ac" d="M0 0h200v133H0z"/><g filter="url(#b)" transform="translate(.5 .5)" fill-opacity=".5"><ellipse fill="#001f05" rx="1" ry="1" transform="matrix(-47.82379 -182.29344 39.40634 -10.33806 .1 78.1)"/><ellipse fill="#5173ff" rx="1" ry="1" transform="matrix(94.13584 34.81992 -16.55875 44.76666 126.2 37.4)"/><ellipse fill="#ffe8f0" cx="122" cy="113" rx="8" ry="19"/><ellipse fill="#ff6" rx="1" ry="1" transform="rotate(-8.8 383.7 -1117.8) scale(3.5066 51.62147)"/><ellipse fill="#028900" cy="23" rx="32" ry="32"/><path fill="#2a26a7" d="M28 52h87v37H28z"/><ellipse fill="#2d0b0f" cx="78" cy="129" rx="27" ry="12"/><ellipse fill="#548f4c" cx="102" cy="111" rx="12" ry="56"/><ellipse fill="#5b2339" rx="1" ry="1" transform="matrix(71.41694 -42.57304 10.51136 17.63298 196.8 119.5)"/><ellipse fill="#2389fa" cx="37" cy="47" rx="9" ry="52"/><ellipse fill="#cd8dff" cx="154" cy="107" rx="11" ry="17"/><ellipse fill="#7864e5" rx="1" ry="1" transform="matrix(-10.97955 32.69487 -8.73811 -2.93442 0 112.5)"/><path fill="#c1f3fd" d="M101 23h15v26h-15z"/><ellipse fill="#15003c" rx="1" ry="1" transform="matrix(18.53864 15.34823 -15.17839 18.3335 31.6 118.2)"/><path fill="#b0a16d" d="M203 68l-25 20 8 31z"/><ellipse fill="#4b1ef9" cx="147" cy="19" rx="22" ry="22"/><ellipse fill="#0098d3" rx="1" ry="1" transform="matrix(13.0989 12.64817 -19.9125 20.62208 53.4 8)"/><path fill="#00003d" d="M146 99l-21 38 9-45z"/><path fill="#d09aff" d="M71.1 116l6-28.4L89 90l-6 28.3z"/><ellipse fill="#220037" rx="1" ry="1" transform="matrix(-17.00299 11.0828 -6.6037 -10.13123 12.7 12.6)"/><path fill="#691a00" d="M82 130h118v3H82z"/><path fill="#000021" d="M-16 70l43 12V43z"/></g></svg>