<svg xmlns="http://www.w3.org/2000/svg" viewBox="0 0 641 195"><filter id="b"><feGaussianBlur stdDeviation="12" /></filter><path fill="#949787" d="M0 0h641v192H0z"/><g filter="url(#b)" transform="translate(1.3 1.3) scale(2.5039)" fill-opacity=".5"><ellipse fill="#110a00" rx="1" ry="1" transform="matrix(-.297 -17.38629 184.80935 -3.15698 137.3 66.3)"/><ellipse fill="#fff" rx="1" ry="1" transform="matrix(-252.50226 1.0508 -.10346 -24.86117 122.9 6)"/><ellipse fill="#fff" cx="112" cy="4" rx="255" ry="10"/><ellipse fill="#140a00" rx="1" ry="1" transform="matrix(-.04045 3.86259 -147.42812 -1.54392 68 74)"/><path d="M229.6 70.4l28.3-12.6 10.5 23.8-28.3 12.6z"/><ellipse fill="#687c59" rx="1" ry="1" transform="matrix(201.41169 -4.60063 .24012 10.51238 104.6 52.4)"/><ellipse fill="#aeb3a2" rx="1" ry="1" transform="matrix(-185.10767 1.14868 -.05402 -8.70457 124.5 29.7)"/><path fill="#89a157" d="M100.7 48l-2.5-6.7-13.4 11.4L98.5 92z"/><path fill="#cc8535" d="M201 92l-9-28-13 13z"/><path fill="#9b99ac" d="M108 61l6 2-8 22z"/><ellipse fill="#4c3117" cx="194" cy="76" rx="38" ry="20"/><ellipse fill="#fff" cx="122" cy="2" rx="200" ry="5"/><ellipse fill="#2fde4d" cx="232" cy="55" rx="5" ry="9"/><ellipse fill="#020b00" cx="12" cy="76" rx="65" ry="5"/><path fill="#45fc71" d="M97.5 53h-7V41h7z"/><path fill="#4c531c" d="M8 47l11 45-28-33z"/><path fill="#58d57a" d="M168.2 55.6l-12.7-1.8 1.8-10.3 9.5-5.3z"/><path fill="#7fad71" d="M137.2 33.5l-13 33.2 13.7-2.8-19.5-13.2z"/><path fill="#2d2311" d="M114 66h33v11h-33z"/><ellipse fill="#77523d" cx="76" cy="61" rx="57" ry="6"/><path fill="#af9559" d="M208 87l-18-11-7-16z"/><ellipse fill="#5e7665" cx="250" cy="49" rx="73" ry="6"/></g></svg>