<svg xmlns="http://www.w3.org/2000/svg" viewBox="0 0 700 467"><filter id="b"><feGaussianBlur stdDeviation="12" /></filter><path fill="#464881" d="M0 0h700v464H0z"/><g filter="url(#b)" transform="translate(1.4 1.4) scale(2.73438)" fill-opacity=".5"><ellipse rx="1" ry="1" transform="matrix(57.8698 20.49277 -31.36505 88.57218 23.9 38.6)"/><ellipse fill="#545cff" cx="223" cy="63" rx="159" ry="41"/><ellipse fill="#cec7c3" cx="73" cy="135" rx="58" ry="21"/><ellipse fill="#ef7600" cx="124" cy="165" rx="82" ry="6"/><path fill="#8951ff" d="M214-9l-11 156 68-70z"/><path fill="#fff" d="M123 130.5v27H99v-27z"/><path fill="#dca3a5" d="M167.8 64L130 62.6l24.1 42.3 16.7 80.1z"/><ellipse fill="#120001" cx="88" cy="152" rx="10" ry="28"/><ellipse fill="#082372" rx="1" ry="1" transform="matrix(23.16072 24.9733 -56.96853 52.83371 114 20.5)"/><path fill="#cfd8e3" d="M203 122h53v15h-53z"/><ellipse fill="#75ffc4" cx="206" cy="166" rx="54" ry="7"/><ellipse fill="#570600" rx="1" ry="1" transform="matrix(-1.71738 14.03617 -143.04744 -17.5024 35.8 169)"/><ellipse fill="#00000d" rx="1" ry="1" transform="rotate(147.5 125.3 44.9) scale(16.9611 74.00292)"/><ellipse fill="#00050e" cx="26" cy="52" rx="23" ry="75"/><ellipse fill="#001a3b" cx="187" cy="8" rx="17" ry="37"/><path fill="#ebf9e1" d="M150 112h22v18h-22z"/><path fill="#fcf9d0" d="M62 122l44-11 28 16z"/><ellipse fill="#1900e3" cx="255" cy="91" rx="19" ry="33"/><ellipse fill="#1c1f12" rx="1" ry="1" transform="matrix(-78.62208 -.1921 .0466 -19.07483 91.6 2.3)"/><path fill="#1242c8" d="M61 29h141v26H61z"/><ellipse fill="#475143" rx="1" ry="1" transform="matrix(-6.8669 33.30929 -19.4725 -4.01437 198 127.5)"/><path fill="#ff56b2" d="M122.4 68.1l1.4 8.5 36 5.4 13-17.9z"/></g></svg>