<svg xmlns="http://www.w3.org/2000/svg" viewBox="0 0 700 467"><filter id="b"><feGaussianBlur stdDeviation="12" /></filter><path fill="#372c2c" d="M0 0h700v464H0z"/><g filter="url(#b)" transform="translate(1.4 1.4) scale(2.73438)" fill-opacity=".5"><ellipse fill="#f4d5ce" rx="1" ry="1" transform="matrix(-20.90136 -20.4248 38.28431 -39.17758 110 35.7)"/><ellipse cx="114" cy="153" rx="54" ry="54"/><path d="M107.2 30.1l-15-.2.6-32 15 .2z"/><ellipse fill="#000400" rx="1" ry="1" transform="matrix(-16.62457 -16.2094 37.85954 -38.82922 37.7 62.3)"/><path fill="#fff" d="M82 58h24v25H82z"/><ellipse fill="#aa7dad" cx="183" cy="59" rx="19" ry="15"/><ellipse fill="#ffdffb" cx="138" cy="32" rx="14" ry="14"/><ellipse cx="181" cy="14" rx="26" ry="33"/><path fill="#ffd7fa" d="M186 139h19v14h-19z"/><path fill="#e6edb1" d="M118 80h14v21h-14z"/><ellipse fill="#1a1416" cx="123" cy="67" rx="19" ry="19"/><ellipse rx="1" ry="1" transform="rotate(-89 146.5 -111) scale(47.66936 25.86613)"/><path fill="#a58f8b" d="M54 106l-23 44-6-49z"/><ellipse fill="#0b0705" rx="1" ry="1" transform="matrix(-23.98048 -52.13731 25.24187 -11.60996 237.5 141)"/><path fill="#ac8985" d="M59.1 143.8L-26.5 159l-2.6-14.7L56.5 129z"/><path fill="#ffe7ff" d="M86 13l15 33-23-13z"/><ellipse fill="#000100" cx="50" cy="5" rx="57" ry="17"/><ellipse rx="1" ry="1" transform="matrix(22.90961 24.31187 -10.54834 9.93993 60.1 89.1)"/><path fill="#5d4346" d="M71 74L58 59l67-30z"/><ellipse fill="#815c2e" cx="218" cy="14" rx="12" ry="61"/><path fill="#ff2b30" d="M60 113h12v19H60z"/><path d="M-6.1 157.7l65.7-12.8 6.5 33.4L.4 191.1z"/></g></svg>