<svg xmlns="http://www.w3.org/2000/svg" viewBox="0 0 700 467"><filter id="b"><feGaussianBlur stdDeviation="12" /></filter><path fill="#717881" d="M0 0h700v464H0z"/><g filter="url(#b)" transform="translate(1.4 1.4) scale(2.73438)" fill-opacity=".5"><ellipse cx="25" cy="11" rx="146" ry="68"/><ellipse fill="#fff" rx="1" ry="1" transform="rotate(-64 125.8 16) scale(32.01703 62.19944)"/><ellipse fill="#d2dce6" rx="1" ry="1" transform="matrix(-11.27096 58.52926 -76.34904 -14.7025 224.4 114.3)"/><ellipse cx="232" cy="104" rx="131" ry="8"/><path d="M114 63h35v83h-35z"/><ellipse fill="#000014" rx="1" ry="1" transform="matrix(-254.71372 12.07973 -.8445 -17.8071 124.7 10.7)"/><ellipse fill="#fff" cx="33" cy="49" rx="22" ry="11"/><path fill="#fff" d="M103 72l-90 54 108-30z"/><ellipse fill="#e3eff8" cx="196" cy="133" rx="47" ry="23"/><ellipse fill="#f3fdff" rx="1" ry="1" transform="rotate(24.6 -265.7 163.9) scale(86.32665 18.6258)"/><ellipse fill="#160f03" rx="1" ry="1" transform="matrix(-20.92301 23.19441 -15.3294 -13.8282 10 164.4)"/><ellipse rx="1" ry="1" transform="matrix(6.52418 -.17766 .62537 22.96544 210.8 67.5)"/><path d="M154 44h27v23h-27z"/><path fill="#fff" d="M164 21h23v25h-23z"/><path d="M62 115l31-13 29 8zM19 65h12v34H19z"/><ellipse fill="#fff" cx="210" cy="91" rx="64" ry="5"/><path d="M151.7 172l1.7-19.9 21 1.9-1.8 19.9z"/><ellipse fill="#fff" cx="212" cy="37" rx="11" ry="11"/><path fill="#f8ffff" d="M163 144l-44 9 21 12z"/><ellipse cx="46" cy="86" rx="5" ry="12"/><path fill="#f6fbff" d="M17.9 121l-28.7 55.5-5.2-74L129 97z"/></g></svg>