<svg xmlns="http://www.w3.org/2000/svg" viewBox="0 0 641 195"><filter id="b"><feGaussianBlur stdDeviation="12" /></filter><path fill="#949787" d="M0 0h641v192H0z"/><g filter="url(#b)" transform="translate(1.3 1.3) scale(2.5039)" fill-opacity=".5"><ellipse fill="#110b00" rx="1" ry="1" transform="matrix(252.11595 -6.88633 .51793 18.9619 119.3 68.7)"/><ellipse fill="#fff" rx="1" ry="1" transform="matrix(211.6483 -3.21388 .34694 22.84775 144.7 7.5)"/><ellipse fill="#fff" rx="1" ry="1" transform="matrix(.0338 -15.53843 194.39623 .42297 117 0)"/><ellipse fill="#221000" cx="124" cy="75" rx="255" ry="7"/><path fill="#66825e" d="M0 42h256v16H0z"/><ellipse fill="#b2b8a8" cx="131" cy="28" rx="177" ry="9"/><path fill="#817f58" d="M87 48h25v27H87z"/><path fill="#e19845" d="M190 65l6 12-29 15z"/><ellipse fill="#0f0905" rx="1" ry="1" transform="matrix(-14.28765 -9.67007 9.00513 -13.3052 249 76)"/><ellipse fill="#fff" rx="1" ry="1" transform="matrix(-.02454 7.0305 -83.71003 -.2922 133.6 1.4)"/><path fill="#040a05" d="M15 71h77v6H15z"/><path fill="#58ec78" d="M99 54l-10-2 9-23z"/><path fill="#33d94f" d="M229 46h8v18h-8z"/><path fill="#c38528" d="M214 73h18v4h-18z"/><ellipse fill="#fff" cx="113" rx="255" ry="5"/><path fill="#ffffa2" d="M170.1 68.2l4.7 15.3-1 .3-4.6-15.3z"/><path fill="#9d754d" d="M96 59h41v6H96z"/><ellipse fill="#7c6e4b" rx="1" ry="1" transform="matrix(-1.84578 7.31472 -40.95387 -10.33422 22.3 55.2)"/><path fill="#5dd37c" d="M168.6 40l-1.4 13.7-13.4-1 7.8-13z"/><path fill="#9e7952" d="M147.3 53.4l6 .2-.6 19-6-.2z"/><path fill="#2c2b28" d="M91.2 84.8L112 49.6 102 92 79.7 48.9z"/><path fill="#483823" d="M246.4 70L182 52.3l22.5 36.2-8.9-14z"/></g></svg>