<svg xmlns="http://www.w3.org/2000/svg" viewBox="0 0 200 133"><filter id="b"><feGaussianBlur stdDeviation="12" /></filter><path fill="#3d2b1b" d="M0 0h200v133H0z"/><g filter="url(#b)" transform="translate(.5 .5)" fill-opacity=".5"><ellipse fill="#fbe8eb" rx="1" ry="1" transform="rotate(-150.3 25.7 20) scale(12.84595 27.39396)"/><path fill="#ffffd9" d="M171 28L115-3l21 45z"/><ellipse fill="#cea354" cy="20" rx="27" ry="27"/><ellipse fill="#0a0000" rx="1" ry="1" transform="matrix(14.25844 23.66143 -53.0721 31.98139 70.8 74.4)"/><ellipse fill="#040106" cx="153" cy="107" rx="35" ry="72"/><path fill="#ffffe1" d="M151 12l-3 29-30-31z"/><path fill="#090000" d="M17.1 36l19.6-10L45 42 25.3 52z"/><path fill="#fff" d="M29 64l27-16L6 60z"/><path fill="#412700" d="M181-15L68 44 33 12z"/><ellipse fill="#fff" cx="44" cy="28" rx="6" ry="6"/><path fill="#f1eff6" d="M.7 20.6l12.7 12.7L-.7 47.4l-12.7-12.7z"/><path fill="#fff" d="M35 76l1-16-16-6z"/><path fill="#ba8b6b" d="M136 73h18v10h-18z"/><ellipse fill="#080000" cx="1" cy="86" rx="27" ry="27"/><path fill="#fff" d="M33.8 22.8l17.6 12.4-20 27.2 23-9.9z"/><ellipse fill="#271d12" rx="1" ry="1" transform="rotate(4.7 -217.4 2161.2) scale(21.11367 32.16973)"/><ellipse cx="3" cy="5" rx="6" ry="11"/><ellipse fill="#0a0000" rx="1" ry="1" transform="matrix(-1.1628 -3.30195 15.3846 -5.41777 28.6 48.6)"/><path fill="#8a6142" d="M187.4 73.5L215-10l-9.6 29.2-9.8 96.4z"/><path fill="#fff" d="M37 52l-3 19-13 1z"/><path fill="#734d1d" d="M54.1-2.7l-23.5-13L7.2 31.5l14.7 16.7z"/><ellipse cx="80" cy="47" rx="7" ry="37"/></g></svg>