<svg xmlns="http://www.w3.org/2000/svg" viewBox="0 0 200 133"><filter id="b"><feGaussianBlur stdDeviation="12" /></filter><path fill="#37405e" d="M0 0h200v133H0z"/><g filter="url(#b)" transform="translate(.5 .5)" fill-opacity=".5"><ellipse fill="#eaffff" rx="1" ry="1" transform="matrix(10.81012 -.16034 .43855 29.56706 165.7 75)"/><ellipse fill="#00000e" cx="52" cy="27" rx="115" ry="23"/><path fill="#fff" d="M192 41h8v57h-8z"/><ellipse fill="#988794" rx="1" ry="1" transform="matrix(15.7493 -50.69443 26.21467 8.14414 95.9 107)"/><path fill="#aef7ff" d="M16 70l19 34 5-70z"/><ellipse fill="#3d68ff" rx="1" ry="1" transform="rotate(-17.5 204 -586.8) scale(34.25499 8.97224)"/><ellipse fill="#080500" rx="1" ry="1" transform="matrix(-15.27075 -4.6982 6.65088 -21.61765 180.7 108.4)"/><ellipse cx="182" cy="71" rx="8" ry="30"/><ellipse fill="#508cff" cx="121" cy="61" rx="28" ry="11"/><path fill="#212e29" d="M73 93l-79 24 146-4z"/><ellipse cx="68" cy="132" rx="186" ry="3"/><ellipse fill="#00031f" rx="1" ry="1" transform="matrix(29.28348 -18.15653 36.08892 58.20546 33.8 0)"/><ellipse fill="#75b4ea" rx="1" ry="1" transform="rotate(-79 36.5 30.1) scale(32.69707 6.54539)"/><path fill="#f2ffff" d="M176 60l-20 7 11 28z"/><path fill="#bdcfdb" d="M71 116h46v13H71z"/><ellipse fill="#a37989" rx="1" ry="1" transform="matrix(.27246 11.14845 -42.26474 1.03293 92.7 94)"/><path fill="#d9c7f5" d="M68.9 59L50.6 69.8l35.2.9-24-10.9z"/><ellipse rx="1" ry="1" transform="matrix(-2.03211 41.98402 -6.60937 -.3199 10.8 77.6)"/><path fill="#00177a" d="M49 46h140v12H49z"/><path fill="#fffff2" d="M104 57l-15 8 44 4z"/><path fill="#090e49" d="M84 69h41v15H84z"/><path fill="#d0feff" d="M190 46h10v33h-10z"/></g></svg>