<svg xmlns="http://www.w3.org/2000/svg" viewBox="0 0 200 133"><filter id="b"><feGaussianBlur stdDeviation="12" /></filter><path fill="#444f69" d="M0 0h200v133H0z"/><g filter="url(#b)" transform="translate(.5 .5)" fill-opacity=".5"><ellipse fill="#12e1ff" cx="157" cy="43" rx="49" ry="39"/><ellipse fill="#860000" cx="141" cy="132" rx="60" ry="60"/><path fill="#fffff6" d="M84.5 62.3l-8.3 59.4-28.7-4 8.3-59.4z"/><ellipse fill="#840000" rx="1" ry="1" transform="matrix(15.09678 1.841 -8.69418 71.2949 96 61.5)"/><ellipse cx="12" cy="96" rx="13" ry="95"/><path fill="#35aaff" d="M113 8h87v73h-87z"/><ellipse fill="#650000" rx="1" ry="1" transform="rotate(-169.9 83.6 45.8) scale(74.43447 23.33113)"/><ellipse fill="#25a6ff" rx="1" ry="1" transform="matrix(9.26985 -57.9446 8.92235 1.42738 39.9 40.8)"/><path fill="#fffff1" d="M201.5 14L215 87 97.3 74.9l102.4-2.4z"/><path fill="#93ffff" d="M1.4 38.8l-8.7-2L4.6-14.8l8.7 2z"/><path fill="#541100" d="M197.1-16L127.9-2.8l6.6 4.4L207 17.8z"/><ellipse fill="#000833" cx="14" cy="112" rx="35" ry="35"/><path fill="#001846" d="M54.2-7l19.9 2.5L65.8 63l-19.9-2.5z"/><ellipse fill="#000006" rx="1" ry="1" transform="matrix(25.06283 -169.72512 12.38055 1.8282 16.2 42.8)"/><ellipse fill="#41ceff" rx="1" ry="1" transform="matrix(15.93552 8.68833 -5.95764 10.92708 132 12.9)"/><path fill="#8e0000" d="M109 0v100H91V0z"/><ellipse fill="#b08c70" cx="77" cy="48" rx="7" ry="59"/><path fill="#0078da" d="M139 32h61v41h-61z"/><path fill="#5f0000" d="M104 83h96v43h-96z"/><path fill="#e7ddd6" d="M51 64h23v56H51z"/><ellipse fill="#00070b" cx="109" cy="18" rx="5" ry="61"/><path fill="#005aac" d="M23 74.7l20 1.8-4 46.8-20-1.8z"/></g></svg>