<svg xmlns="http://www.w3.org/2000/svg" viewBox="0 0 700 467"><filter id="b"><feGaussianBlur stdDeviation="12" /></filter><path fill="#9b9fa9" d="M0 0h700v464H0z"/><g filter="url(#b)" transform="translate(1.4 1.4) scale(2.73438)" fill-opacity=".5"><ellipse rx="1" ry="1" transform="rotate(5.1 -1340.3 1505.2) scale(42.67701 76.46637)"/><ellipse fill="#feffff" rx="1" ry="1" transform="matrix(-48.81567 11.78235 -23.69544 -98.17302 39.2 71)"/><ellipse fill="#e8f1fc" cx="216" cy="100" rx="50" ry="62"/><ellipse cx="126" cy="123" rx="39" ry="39"/><ellipse fill="#002091" cx="185" cy="15" rx="34" ry="25"/><ellipse fill="#000006" rx="1" ry="1" transform="rotate(-86.2 94.4 -13.2) scale(31.06246 9.6266)"/><path fill="#7f8e99" d="M228 163l37 15-29-137z"/><ellipse fill="#000008" rx="1" ry="1" transform="matrix(-12.98483 -4.05567 5.39618 -17.27668 156 85)"/><ellipse fill="#deded7" rx="1" ry="1" transform="matrix(5.26285 .4142 -1.249 15.87008 138.4 87.4)"/><path fill="#e4e8f9" d="M196 77l-38.6-16.5L170 31.1l38.7 16.4z"/><ellipse fill="#dce0ef" rx="1" ry="1" transform="matrix(-27.88911 -10.53842 14.05294 -37.19004 195.7 130)"/><ellipse fill="#b6a174" cx="114" cy="25" rx="30" ry="36"/><path fill="#e38587" d="M135.2 154.8l28-1.5 1.6 30-28 1.4z"/><ellipse fill="#c2c7bc" rx="1" ry="1" transform="matrix(26.92227 -5.33075 8.64004 43.63537 243.2 27.3)"/><ellipse fill="#000007" cx="123" cy="119" rx="25" ry="25"/><ellipse fill="#e1e5db" cx="17" cy="24" rx="69" ry="69"/><ellipse fill="#c3acac" cx="156" cy="131" rx="11" ry="6"/><ellipse fill="#17398a" rx="1" ry="1" transform="matrix(15.89519 17.48305 -3.42058 3.10991 198.4 38)"/><ellipse fill="#a4693a" cx="145" cy="48" rx="11" ry="14"/><ellipse fill="#e9dccd" cx="137" cy="16" rx="13" ry="23"/><path fill="#8e9182" d="M46.5-7.5h15v39h-15z"/><path fill="#000814" d="M118.4 115.4l9 1 37.5 14.2 7.8-26.8z"/></g></svg>