<svg xmlns="http://www.w3.org/2000/svg" viewBox="0 0 200 133"><filter id="b"><feGaussianBlur stdDeviation="12" /></filter><path fill="#41392c" d="M0 0h200v133H0z"/><g filter="url(#b)" transform="translate(.5 .5)" fill-opacity=".5"><ellipse fill="#e9cb8d" rx="1" ry="1" transform="rotate(-91.2 56.3 -37) scale(21.50533 85.3256)"/><ellipse fill="#000003" cx="149" cy="111" rx="154" ry="56"/><path fill="#fff" d="M7 90L6 71-7 97z"/><ellipse fill="#9c8057" cx="41" cy="21" rx="29" ry="29"/><ellipse fill="#af9b6d" cx="172" cy="18" rx="136" ry="14"/><ellipse fill="#785b38" rx="1" ry="1" transform="matrix(-8.78594 -11.4409 23.29706 -17.89076 115.4 52)"/><path fill="#0e0f12" d="M60 33h34v97H60z"/><ellipse fill="#04050f" rx="1" ry="1" transform="matrix(-23.04318 -33.03162 12.73187 -8.88187 17 62.7)"/><ellipse fill="#000006" rx="1" ry="1" transform="matrix(-9.34171 49.917 -25.41261 -4.75584 199 81.4)"/><path fill="#a47853" d="M129 60.6L84.3 44.1l25.1-6.2 37 11.8z"/><path fill="#d2c3b2" d="M57 22.6L34.7 43.1l-1.3-2 24.5.6z"/><ellipse fill="#5a6c53" cx="148" cy="132" rx="37" ry="7"/><ellipse fill="#624f2c" cx="184" cy="6" rx="38" ry="16"/><ellipse fill="#796539" cx="16" rx="57" ry="27"/><path fill="#191916" d="M109 32h41v8h-41z"/><ellipse fill="#000102" cx="38" cy="120" rx="30" ry="26"/><ellipse fill="#c2b28e" cx="99" cy="27" rx="47" ry="6"/><ellipse fill="#000001" cx="44" cy="65" rx="10" ry="10"/><path fill="#eacfc2" d="M100 37h11v9h-11z"/><path fill="#805f40" d="M50.4 70.5L66.2 73 37.6 40.7 77.8 31z"/><path fill="#57604a" d="M10 92.7l1 20-13 .6-1-20z"/><ellipse fill="#c29888" cx="181" cy="42" rx="5" ry="5"/></g></svg>