<svg xmlns="http://www.w3.org/2000/svg" viewBox="0 0 700 467"><filter id="b"><feGaussianBlur stdDeviation="12" /></filter><path fill="#8b2f8c" d="M0 0h700v464H0z"/><g filter="url(#b)" transform="translate(1.4 1.4) scale(2.73438)" fill-opacity=".5"><ellipse fill="#ef0a3e" rx="1" ry="1" transform="rotate(-91.3 48.2 -47.1) scale(36.79375 125.95201)"/><path fill="#a9d7ce" d="M109 124l49-98 9 69z"/><ellipse fill="#000236" rx="1" ry="1" transform="matrix(-18.27433 3.45722 -6.9798 -36.89417 183.2 81.7)"/><ellipse fill="#ca43e8" rx="1" ry="1" transform="rotate(131 -2.2 29.8) scale(29.555 68.07214)"/><ellipse fill="#dc00db" cx="23" cy="156" rx="59" ry="29"/><ellipse cx="237" cy="169" rx="20" ry="20"/><ellipse fill="#000024" rx="1" ry="1" transform="matrix(-11.9416 -6.56495 20.43242 -37.16644 255 82)"/><ellipse fill="#381645" rx="1" ry="1" transform="matrix(-20.19975 -.00857 .02203 -51.90786 101.5 79.7)"/><ellipse fill="#b687ef" cx="179" cy="142" rx="70" ry="9"/><path fill="#93edfc" d="M210 70h19v35h-19z"/><ellipse fill="#230030" cx="120" cy="169" rx="39" ry="19"/><path fill="#aadddb" d="M42.6 94.7l11.6-28.8 23.2 9.4-11.6 28.8z"/><path fill="#7a94f2" d="M191 17h35v27h-35z"/><ellipse fill="#4c004f" cx="69" cy="36" rx="22" ry="21"/><path fill="#341445" d="M165 33L70 46l38 30z"/><ellipse fill="#dc7d2f" rx="1" ry="1" transform="matrix(6.09083 21.09294 -36.17624 10.4463 181.5 0)"/><ellipse fill="#ad57bd" rx="1" ry="1" transform="matrix(-52.70499 1.61757 -.53081 -17.29537 58.9 127.7)"/><ellipse fill="#7200b0" cx="14" cy="103" rx="29" ry="29"/><ellipse fill="#cb00a8" rx="1" ry="1" transform="matrix(12.92746 16.5464 -27.57286 21.54228 18 22.6)"/><path fill="#4bbfd9" d="M16.5 77l19.3-40.3 9.5 10.5-2 14z"/><path fill="#cf03e4" d="M225 20h26v33h-26z"/><path fill="#e700ca" d="M224 150l-76-4 57 34z"/></g></svg>