<svg xmlns="http://www.w3.org/2000/svg" viewBox="0 0 200 133"><filter id="b"><feGaussianBlur stdDeviation="12" /></filter><path fill="#25253c" d="M0 0h200v133H0z"/><g filter="url(#b)" transform="translate(.5 .5)" fill-opacity=".5"><ellipse fill="#9184b2" rx="1" ry="1" transform="matrix(-71.8297 -2.72973 .88 -23.15593 103.7 87.5)"/><ellipse fill="#4761ba" rx="1" ry="1" transform="matrix(-37.45303 -2.23152 1.96175 -32.92543 130.4 49.1)"/><ellipse rx="1" ry="1" transform="matrix(-185.7825 71.31522 -10.97524 -28.59148 39 16.4)"/><ellipse cx="99" cy="132" rx="199" ry="22"/><ellipse cx="170" cy="3" rx="199" ry="15"/><ellipse fill="#000992" cx="43" cy="72" rx="32" ry="15"/><path fill="#6a8ab6" d="M96 18h76v22H96z"/><path fill="#3e0000" d="M144.7 94.1l1.1-29 65.3 51.7-8.2-49.9z"/><path fill="#010007" d="M52 44h86v18H52z"/><ellipse fill="#5f7fff" cx="21" cy="79" rx="5" ry="26"/><ellipse fill="#122bdb" rx="1" ry="1" transform="rotate(23.7 -84.8 390.8) scale(21.5583 10.65094)"/><ellipse cx="190" cy="16" rx="16" ry="40"/><path fill="#bcc0ba" d="M129 86l-42 24 68-11z"/><ellipse fill="#3258ff" cx="184" cy="63" rx="6" ry="13"/><ellipse cx="32" cy="70" rx="6" ry="19"/><path fill="#030000" d="M143.3 148l-4.5-52.9L47.9 148H123z"/><ellipse fill="#d0ffed" cx="68" cy="99" rx="8" ry="8"/><ellipse cy="25" rx="15" ry="128"/><ellipse fill="#8b8aae" rx="1" ry="1" transform="rotate(-108.8 75.4 5.4) scale(15.35235 21.73334)"/><path d="M152 54l-9 39 12-2z"/><ellipse fill="#020000" cx="45" cy="122" rx="67" ry="18"/><path fill="#769492" d="M34.4 95.7l-29.5 5.5 54.9 7.7L31.3 86z"/></g></svg>