<svg xmlns="http://www.w3.org/2000/svg" viewBox="0 0 313 195"><filter id="b"><feGaussianBlur stdDeviation="12" /></filter><path fill="#434754" d="M0 0h313v194H0z"/><g filter="url(#b)" transform="translate(.6 .6) scale(1.22266)" fill-opacity=".5"><ellipse fill="#aefaff" cx="125" cy="53" rx="31" ry="31"/><ellipse fill="#ffc1a7" cx="222" cy="126" rx="31" ry="17"/><path fill="#d6b591" d="M46 107h72v35H46z"/><ellipse fill="#00285f" cx="21" cy="38" rx="61" ry="61"/><ellipse fill="red" cx="19" cy="130" rx="20" ry="13"/><ellipse fill="#002e69" cx="220" cy="39" rx="47" ry="58"/><ellipse fill="#682511" cx="136" cy="104" rx="88" ry="24"/><path fill="#fff" d="M104.5 105l12.8 11.9L95 143.3l-12-9.2z"/><ellipse fill="#0a0000" cx="24" cy="153" rx="99" ry="14"/><ellipse fill="#6cbaff" rx="1" ry="1" transform="matrix(26.7165 6.32422 -4.23174 17.87687 132.3 64.5)"/><ellipse fill="#2d231a" rx="1" ry="1" transform="rotate(95.1 -27.2 104.7) scale(39.09561 10.41622)"/><ellipse fill="#361803" rx="1" ry="1" transform="matrix(-.16953 13.87535 -69.97704 -.85497 210.1 153.2)"/><path fill="#fff" d="M46 125h19v14H46z"/><ellipse fill="#00639e" rx="1" ry="1" transform="matrix(13.66166 27.04548 -29.80663 15.05641 22.6 16)"/><ellipse fill="#001326" cx="47" cy="74" rx="31" ry="31"/><ellipse fill="#0d6ca5" rx="1" ry="1" transform="matrix(44.6091 -2.77014 2.06745 33.29324 249.2 16)"/><ellipse fill="#00172c" cx="188" cy="57" rx="14" ry="73"/><path fill="#dcffff" d="M175 113l-18-16 24 6z"/><path fill="#8c0000" d="M85 81h77v18H85z"/><ellipse fill="#5d3b1f" rx="1" ry="1" transform="matrix(17.22972 22.38661 -19.27148 14.83217 132.7 138)"/><path fill="#3caeff" d="M114 80H94V46h20z"/><ellipse fill="#a20000" cx="161" cy="72" rx="4" ry="32"/></g></svg>