<svg xmlns="http://www.w3.org/2000/svg" viewBox="0 0 700 467"><filter id="b"><feGaussianBlur stdDeviation="12" /></filter><path fill="#717773" d="M0 0h700v464H0z"/><g filter="url(#b)" transform="translate(1.4 1.4) scale(2.73438)" fill-opacity=".5"><ellipse fill="#00020c" cx="119" cy="89" rx="37" ry="60"/><ellipse fill="#cbceca" rx="1" ry="1" transform="matrix(.00875 -26.1079 194.30392 .06513 80.3 168.6)"/><ellipse fill="#cbdcd3" cx="130" cy="118" rx="10" ry="22"/><ellipse fill="#b6edff" rx="1" ry="1" transform="matrix(-1.05663 16.33953 -46.3825 -2.99942 41.4 0)"/><ellipse fill="#343b2f" cx="13" cy="54" rx="38" ry="38"/><ellipse fill="#000612" cx="101" cy="62" rx="26" ry="30"/><ellipse fill="#dae2d7" cx="56" cy="114" rx="33" ry="9"/><ellipse fill="#3b3e39" rx="1" ry="1" transform="matrix(-39.46007 -8.01023 3.47857 -17.13616 119.9 140)"/><ellipse fill="#bcc5b7" rx="1" ry="1" transform="matrix(-10.4449 -11.69304 29.89248 -26.70169 237.1 101.6)"/><path fill="#a8ad9a" d="M217 103l41-17-86-102z"/><ellipse fill="#45452f" cx="255" cy="31" rx="26" ry="45"/><path fill="#000002" d="M88.2 115.2l.6-35 35 .6-.6 35z"/><ellipse fill="#a1aaa7" rx="1" ry="1" transform="matrix(19.08709 -9.05878 12.72009 26.80155 67.8 102.3)"/><ellipse fill="#b9bdbb" cx="226" cy="169" rx="76" ry="30"/><ellipse fill="#a6c2c5" cx="130" cy="48" rx="5" ry="18"/><path fill="#d0d3c3" d="M214 129l-57-1-4-21z"/><ellipse fill="#8b979f" rx="1" ry="1" transform="matrix(-11.36012 -15.88963 61.01436 -43.62156 94 7.8)"/><ellipse fill="#9baaaa" cx="187" rx="24" ry="43"/><path fill="#1a1f25" d="M148.2 69.3L173 24.6l-13 68.9-63.7-13.8z"/><path fill="#29373b" d="M173 98h39v20h-39z"/><path fill="#c0b199" d="M191 93l-39 15 38-73z"/><path fill="#280e00" d="M201 53l2 28-21-1z"/></g></svg>