<svg xmlns="http://www.w3.org/2000/svg" viewBox="0 0 700 467"><filter id="b"><feGaussianBlur stdDeviation="12" /></filter><path fill="#4e3229" d="M0 0h700v464H0z"/><g filter="url(#b)" transform="translate(1.4 1.4) scale(2.73438)" fill-opacity=".5"><ellipse fill="#ffe514" rx="1" ry="1" transform="matrix(-37.2727 -1.75216 1.28031 -27.23537 106.2 80.9)"/><path fill="#ffc9ff" d="M-23.5 158.5h255v21h-255z"/><ellipse cx="255" cy="1" rx="53" ry="70"/><ellipse rx="1" ry="1" transform="rotate(-171.8 31.7 12) scale(128.03791 21.92676)"/><ellipse rx="1" ry="1" transform="matrix(-6.10096 -29.72157 94.71606 -19.44242 234.8 119.7)"/><ellipse fill="#c57931" cx="199" cy="79" rx="44" ry="27"/><path fill="#ffcb64" d="M37 41h16v55H37z"/><ellipse cy="123" rx="51" ry="24"/><ellipse fill="#7c7b77" cx="107" cy="116" rx="25" ry="25"/><ellipse fill="#ffd537" rx="1" ry="1" transform="matrix(3.9751 -23.75425 6.2442 1.04492 18.9 71.5)"/><ellipse fill="#ff91ff" cx="90" cy="169" rx="136" ry="9"/><ellipse fill="#a032cd" cx="180" rx="16" ry="21"/><path fill="#ffde67" d="M157 51h13v58h-13z"/><path d="M102 90h14v40h-14zm67-4l14-8-11-49z"/><ellipse rx="1" ry="1" transform="matrix(-6.60677 136.6128 -17.041 -.82412 255 74.8)"/><path fill="#000001" d="M214 1h8v89h-8z"/><path d="M17.8 118l15.5-97.8L44.2 22l-15.5 97.8z"/><ellipse fill="#f48846" rx="1" ry="1" transform="matrix(-22.63092 -5.22476 2.74063 -11.87096 76.4 .1)"/><path fill="#b78f77" d="M61 127h23v24H61z"/><ellipse cx="198" cy="94" rx="4" ry="66"/><ellipse fill="#dba800" cx="105" cy="72" rx="38" ry="18"/></g></svg>