<svg xmlns="http://www.w3.org/2000/svg" viewBox="0 0 200 133"><filter id="b"><feGaussianBlur stdDeviation="12" /></filter><path fill="#3d4c82" d="M0 0h200v133H0z"/><g filter="url(#b)" transform="translate(.5 .5)" fill-opacity=".5"><ellipse fill="#ff1203" rx="1" ry="1" transform="matrix(22.70298 -2.99713 4.15203 31.4512 84.6 104)"/><ellipse fill="#377df6" cx="119" cy="8" rx="105" ry="53"/><ellipse fill="#0e0e00" rx="1" ry="1" transform="matrix(-88.07982 -8.94682 2.6256 -25.84863 182.4 118.6)"/><ellipse fill="#000d00" cx="33" cy="118" rx="39" ry="39"/><path fill="#e1dfe3" d="M28 40h22v37H28z"/><path fill="#dda054" d="M135 34h15v61h-15z"/><ellipse fill="#cef5ff" cx="108" cy="2" rx="19" ry="19"/><ellipse fill="#134ac5" cx="12" cy="49" rx="23" ry="44"/><ellipse fill="#062d7e" cx="24" cy="6" rx="34" ry="34"/><ellipse fill="#fd5467" cx="84" cy="95" rx="13" ry="32"/><ellipse fill="#989dc7" cx="55" cy="47" rx="199" ry="7"/><ellipse cx="90" cy="132" rx="32" ry="6"/><ellipse fill="#2c321b" rx="1" ry="1" transform="matrix(12.23398 2.6548 -4.74461 21.86429 154 75.2)"/><ellipse fill="#0046c6" cx="172" cy="8" rx="45" ry="33"/><path fill="#000600" d="M161 94h30v39h-30z"/><path fill="#ffffe4" d="M24 75l28-20-12 23z"/><path fill="#d8a655" d="M190 104h7v29h-7z"/><path fill="#adfff6" d="M81 116h13v12H81z"/><ellipse fill="#001926" cx="117" cy="103" rx="11" ry="42"/><path fill="#1d5bee" d="M110.6 67.7L96.4 51.8 87.7 70l29 29.3z"/><ellipse fill="#073bc8" cx="187" cy="73" rx="21" ry="19"/><ellipse fill="#1656e5" rx="1" ry="1" transform="matrix(31.62856 25.1823 -10.53632 13.23346 72 12.8)"/></g></svg>