<svg xmlns="http://www.w3.org/2000/svg" viewBox="0 0 200 133"><filter id="b"><feGaussianBlur stdDeviation="12" /></filter><path fill="#4b5090" d="M0 0h200v133H0z"/><g filter="url(#b)" transform="translate(.5 .5)" fill-opacity=".5"><ellipse fill="#9f95ff" cx="100" cy="62" rx="72" ry="33"/><ellipse fill="#0c1208" rx="1" ry="1" transform="matrix(-10.84738 -28.11164 39.38255 -15.19646 32 108.5)"/><ellipse fill="#0e0c00" cx="173" cy="131" rx="42" ry="42"/><ellipse fill="#b481ff" cx="60" cy="39" rx="33" ry="26"/><ellipse cx="116" rx="127" ry="13"/><path fill="#80d0ff" d="M181-9l34 79-27 22z"/><ellipse fill="#0c1f43" rx="1" ry="1" transform="matrix(47.33027 4.48372 -1.31521 13.88342 101 96.4)"/><ellipse cx="20" cy="47" rx="7" ry="57"/><path fill="#d9b9ff" d="M158.4 57.4L146 91.3l-40.4-14.7L118 42.7z"/><path fill="#b6c4b9" d="M61.8 128l-17.3-17.2 55.2-.6 30.8 20.2z"/><ellipse fill="#1032ea" rx="1" ry="1" transform="matrix(-37.85435 -13.1226 5.38822 -15.5432 138.3 30)"/><ellipse fill="#659dff" rx="1" ry="1" transform="matrix(-2.5941 56.56493 -6.85388 -.31432 7.7 41)"/><ellipse cx="177" cy="20" rx="6" ry="69"/><path fill="#2440fb" d="M34 65h58v26H34z"/><path d="M0 130h200v3H0z"/><ellipse cx="199" cy="106" rx="17" ry="19"/><path fill="#10181c" d="M79.8 147l1.3-32.8-17.7-16.5L96 94.6z"/><ellipse fill="#5156e1" cx="82" cy="27" rx="45" ry="17"/><path fill="#fff" d="M127 128l9-15-12-1z"/><ellipse fill="#d1e5ff" cx="199" cy="67" rx="16" ry="16"/><path d="M-16 130l48-20-48-33z"/><path fill="#160700" d="M25 118h40v15H25z"/></g></svg>