<svg xmlns="http://www.w3.org/2000/svg" viewBox="0 0 700 467"><filter id="b"><feGaussianBlur stdDeviation="12" /></filter><path fill="#424f67" d="M0 0h700v464H0z"/><g filter="url(#b)" transform="translate(1.4 1.4) scale(2.73438)" fill-opacity=".5"><ellipse fill="#12ddff" rx="1" ry="1" transform="rotate(117 84.7 88) scale(49.16078 63.67111)"/><ellipse fill="#810000" cx="188" cy="134" rx="92" ry="34"/><ellipse fill="ivory" rx="1" ry="1" transform="matrix(-6.024 42.86294 -21.77077 -3.05968 83.2 115.5)"/><ellipse rx="1" ry="1" transform="matrix(13.07745 -150.1024 18.4751 1.60962 14 128.4)"/><ellipse fill="#7e0000" cx="125" cy="102" rx="19" ry="240"/><path fill="#42c1ff" d="M145 99l126 7L150-16z"/><ellipse fill="#4f0000" cx="231" cy="140" rx="36" ry="36"/><ellipse fill="#1697f3" rx="1" ry="1" transform="rotate(8.5 -330.5 359.7) scale(13.00693 86.50102)"/><ellipse fill="#fff" cx="215" cy="97" rx="74" ry="5"/><ellipse fill="#0085ea" rx="1" ry="1" transform="matrix(80.14156 -17.26663 6.26856 29.09496 218.5 61.4)"/><ellipse fill="#6e0000" cx="161" cy="132" rx="32" ry="32"/><ellipse fill="#a6ffff" cx="2" rx="8" ry="37"/><ellipse fill="#000b33" cx="30" cy="141" rx="34" ry="45"/><ellipse fill="#5a1100" cx="222" rx="42" ry="12"/><ellipse fill="#ad0000" cx="125" cy="48" rx="10" ry="85"/><path fill="#af8f68" d="M103.8 88l-20.6-4 19-98 20.6 4z"/><ellipse fill="#00031f" cx="84" cy="27" rx="9" ry="55"/><ellipse cx="13" cy="103" rx="12" ry="92"/><ellipse fill="#fff3d6" rx="1" ry="1" transform="matrix(-75.65117 .16353 -.01268 -5.86697 245.4 99.5)"/><path fill="#fff0e2" d="M92.9 118.8l-24 1.3-1.8-35 24-1.2z"/><ellipse fill="#69b9f5" cx="217" cy="29" rx="65" ry="11"/><ellipse cx="140" cy="29" rx="5" ry="71"/></g></svg>