<svg xmlns="http://www.w3.org/2000/svg" viewBox="0 0 200 133"><filter id="b"><feGaussianBlur stdDeviation="12" /></filter><path fill="#9e8374" d="M0 0h200v133H0z"/><g filter="url(#b)" transform="translate(.5 .5)" fill-opacity=".5"><ellipse fill="#fffff8" rx="1" ry="1" transform="matrix(-.68053 -43.30303 132.75272 -2.08628 60.4 11)"/><ellipse rx="1" ry="1" transform="rotate(-18.6 481.5 -413.1) scale(62.59244 60.30872)"/><ellipse rx="1" ry="1" transform="rotate(19.5 -277.8 84.5) scale(16.41286 37.02237)"/><ellipse fill="#2c001e" rx="1" ry="1" transform="matrix(-3.80567 -23.7596 17.40357 -2.7876 81.6 69.2)"/><ellipse fill="#160303" rx="1" ry="1" transform="matrix(3.07118 -18.93493 148.29985 24.0537 41.3 132)"/><ellipse fill="#ffffe0" cx="172" cy="50" rx="20" ry="20"/><ellipse fill="#fff8e0" rx="1" ry="1" transform="matrix(20.24216 1.5931 -2.57513 32.7201 45.5 45.6)"/><ellipse rx="1" ry="1" transform="rotate(33.5 -118.5 351.1) scale(29.4951 23.46753)"/><path fill="#010000" d="M129.5 50.5l5 53.7-23-29 14.2-37.6z"/><path fill="#ffcde1" d="M6.8 26.9l59.8 100.9L78.3 106l18.5 5z"/><path d="M186 16h14v21h-14z"/><ellipse fill="#fff0d2" rx="1" ry="1" transform="matrix(8.50207 -.58058 2.56796 37.60571 108 42.8)"/><path d="M7 71h27v24H7z"/><ellipse fill="#fff5db" cy="49" rx="18" ry="23"/><ellipse fill="#c4682d" cx="128" cy="117" rx="19" ry="13"/><path fill="#0f0900" d="M127 79l22-40 2 24z"/><path fill="#ffe6c2" d="M1 2l141-18 64 68z"/><ellipse cx="81" cy="132" rx="7" ry="25"/><path fill="#ffdea2" d="M111 104L88.7 69.2l11.8 5.4 13.2-25.4z"/><path fill="#e4cda7" d="M30 113h12v20H30z"/><ellipse fill="#c69136" cx="26" cy="14" rx="10" ry="18"/><path fill="#1c1205" d="M17.2 58.3l10-.7 3 89.4L-2 87z"/></g></svg>