<svg xmlns="http://www.w3.org/2000/svg" viewBox="0 0 700 467"><filter id="b"><feGaussianBlur stdDeviation="12" /></filter><path fill="#909ea1" d="M0 0h700v464H0z"/><g filter="url(#b)" transform="translate(1.4 1.4) scale(2.73438)" fill-opacity=".5"><ellipse cx="175" cy="77" rx="38" ry="25"/><ellipse fill="#fff" cx="60" cy="138" rx="84" ry="35"/><ellipse fill="#4bcaff" rx="1" ry="1" transform="matrix(1.54677 34.06252 -129.85408 5.89664 88.3 27)"/><ellipse fill="#441000" cx="252" cy="169" rx="62" ry="62"/><ellipse fill="#b55800" rx="1" ry="1" transform="rotate(-179.6 123.7 17.9) scale(31.94492 70.83275)"/><ellipse fill="#441e00" rx="1" ry="1" transform="matrix(16.33641 4.1641 -4.98997 19.57643 105.9 75.5)"/><ellipse fill="#210000" cx="145" cy="169" rx="24" ry="24"/><ellipse fill="#fff" rx="1" ry="1" transform="matrix(-10.84574 -26.82238 23.44492 -9.48006 0 22.2)"/><ellipse fill="#000900" rx="1" ry="1" transform="matrix(26.62965 7.07803 -4.70456 17.69996 175.7 73.5)"/><path fill="#0085f9" d="M40 39h118v18H40z"/><ellipse fill="#fff" cx="172" cy="32" rx="15" ry="15"/><path fill="#d0c5b6" d="M206 78h31v56h-31z"/><ellipse fill="#efe5d3" rx="1" ry="1" transform="matrix(-25.72023 -.39167 .42732 -28.0614 123.9 128)"/><path fill="#3246ff" d="M190 10h26v43h-26z"/><ellipse fill="#f7eee2" rx="1" ry="1" transform="matrix(84.92096 -30.239 9.93924 27.91263 43.8 141.7)"/><ellipse fill="#ff9f54" cx="153" rx="71" ry="5"/><path fill="#5f3306" d="M167 100.8l17-.6 1 27-17 .6z"/><ellipse fill="#56c3ff" cx="98" cy="22" rx="76" ry="19"/><path fill="#e1cbbe" d="M102 59L60 93l-76-17z"/><ellipse fill="#4d3310" cx="236" cy="149" rx="44" ry="17"/><ellipse fill="#fff" cx="3" cy="20" rx="15" ry="23"/><ellipse fill="#342900" rx="1" ry="1" transform="matrix(19.39451 -3.35001 1.46797 8.49865 109.3 73.5)"/></g></svg>