<svg xmlns="http://www.w3.org/2000/svg" viewBox="0 0 800 533"><filter id="b"><feGaussianBlur stdDeviation="12" /></filter><path fill="#301e2e" d="M0 0h800v531H0z"/><g filter="url(#b)" transform="translate(1.6 1.6) scale(3.125)" fill-opacity=".5"><ellipse fill="#ecccff" rx="1" ry="1" transform="matrix(-66.90071 14.02916 -7.18175 -34.24754 125 83)"/><path fill="#ffd1ff" d="M48 97h181v13H48z"/><ellipse cx="118" cy="164" rx="55" ry="55"/><ellipse rx="1" ry="1" transform="matrix(.48643 -39.81299 215.6678 2.63501 154.2 152)"/><path fill="#ff5dff" d="M74 46h27v20H74z"/><ellipse rx="1" ry="1" transform="rotate(-67.9 127.4 -148.3) scale(61.16832 33.98502)"/><path fill="#ff38ff" d="M162.1 47l27-1 .8 21-27 1z"/><ellipse cx="47" cy="26" rx="30" ry="55"/><path fill="#2ccbfd" d="M111 46h55v32h-55z"/><path d="M22 64h62v17H22zm19.5-48.5h195v29h-195z"/><path fill="#c876a8" d="M99 82h124v29H99z"/><path fill="#48133d" d="M182 68l56 40-91-34z"/><ellipse fill="#ffc6f9" rx="1" ry="1" transform="matrix(-.03096 -4.43532 52.72377 -.36809 83.1 102.2)"/><ellipse rx="1" ry="1" transform="matrix(-15.87446 15.43724 -45.34487 -46.62915 241.7 81)"/><ellipse cx="211" cy="151" rx="46" ry="46"/><ellipse rx="1" ry="1" transform="rotate(-170.3 28.3 75) scale(179.07212 39.38369)"/><path fill="#c514ab" d="M-19 41.8l2.5-13.8 35.4 6.2L16.5 48z"/><path fill="#d006c6" d="M264 37l-1.2 14-22.9-2 1.3-14z"/><path fill="#b50083" d="M21 99h37v10H21z"/><path fill="#e8afbc" d="M131.5 118.8L49 85.8l1.1-8.3 89.5 25.6z"/><path fill="#00041d" d="M99 30h12v33H99z"/></g></svg>