<svg xmlns="http://www.w3.org/2000/svg" viewBox="0 0 200 133"><filter id="b"><feGaussianBlur stdDeviation="12" /></filter><path fill="#615d5b" d="M0 0h200v133H0z"/><g filter="url(#b)" transform="translate(.5 .5)" fill-opacity=".5"><ellipse fill="#d9ffff" rx="1" ry="1" transform="rotate(-58.1 143.7 -61.6) scale(56.43742 32.80077)"/><path fill="#2f150c" d="M-16-16L5 120 215 2z"/><ellipse fill="#91bce7" rx="1" ry="1" transform="rotate(162.1 42.6 36.9) scale(28.5953 32.41455)"/><path fill="#e3ffff" d="M33 98l18 50 16-49z"/><ellipse fill="#cff" cx="107" cy="111" rx="16" ry="40"/><ellipse cx="21" cy="111" rx="10" ry="75"/><ellipse fill="#c2c3c0" rx="1" ry="1" transform="matrix(17.48684 14.98803 -11.32852 13.21721 190.4 44.5)"/><path fill="#ffb70e" d="M31 16.4l-23-.8 1-24 23 .8z"/><path fill="#0b0900" d="M171.5 146.3L192 96.6 131.9-16l25.2 64.4z"/><path fill="#000003" d="M42 49h25v50H42z"/><path fill="#ffd2ab" d="M57.4 49l-10-1.5L52.7 15l10 1.6z"/><ellipse fill="#3d0600" cx="149" cy="12" rx="89" ry="16"/><ellipse rx="1" ry="1" transform="rotate(44.1 -133.2 86.3) scale(36.36626 8.64351)"/><path fill="#fff" d="M68 60h7v28h-7z"/><path fill="#d7d3da" d="M135 39h18v89h-18z"/><path fill="#674b40" d="M130 102L78-8l50 45z"/><ellipse fill="#ffe4b8" cx="37" cy="61" rx="4" ry="16"/><ellipse cx="75" cy="103" rx="11" ry="10"/><ellipse fill="#b0c8cb" cx="85" cy="41" rx="15" ry="15"/><ellipse fill="#ff7b00" cx="165" cy="1" rx="4" ry="29"/><ellipse fill="#040e1b" rx="1" ry="1" transform="matrix(-10.60288 -36.38504 26.59816 -7.75091 5.2 49)"/><ellipse fill="#ace1f1" cx="3" cy="125" rx="5" ry="20"/></g></svg>