<svg xmlns="http://www.w3.org/2000/svg" viewBox="0 0 200 122"><filter id="b"><feGaussianBlur stdDeviation="12" /></filter><path fill="#5c3c5b" d="M0 0h200v122H0z"/><g filter="url(#b)" transform="translate(.5 .5)" fill-opacity=".5"><ellipse fill="#e3f4f0" rx="1" ry="1" transform="matrix(-63.97068 -1.8794 1.05778 -36.00447 96 68.2)"/><ellipse rx="1" ry="1" transform="rotate(74.1 64.1 157.9) scale(129.36249 37.44729)"/><ellipse fill="#000004" cx="7" cy="27" rx="35" ry="67"/><ellipse fill="#00cbfc" rx="1" ry="1" transform="matrix(-5.28386 8.6839 -21.74224 -13.22943 49.8 53.8)"/><ellipse fill="#6a0000" cx="112" cy="120" rx="199" ry="19"/><ellipse fill="#360073" cx="92" cy="19" rx="78" ry="21"/><ellipse fill="#000004" rx="1" ry="1" transform="matrix(-28.45537 23.34891 -102.63887 -125.08624 199 38.3)"/><ellipse fill="#fff" cx="88" cy="45" rx="49" ry="6"/><ellipse fill="#a248df" cx="77" cy="24" rx="18" ry="18"/><ellipse fill="#c7988f" cx="135" cy="73" rx="30" ry="30"/><ellipse fill="#080024" rx="1" ry="1" transform="matrix(36.32941 -2.27902 2.84694 45.3824 6.3 41.6)"/><path fill="#c8827a" d="M18.5 93.7L27.6 71l95.6-6.6L2.3 102.8z"/><path fill="#bdf693" d="M97 47l66 19-5-26z"/><path fill="#0df" d="M42 46l-3 19 61-11z"/><ellipse fill="#000017" cx="56" cy="3" rx="188" ry="7"/><path fill="#b164c3" d="M172.8 101.5l-7.2-2.5 7.5-17.5-88.8 19z"/><ellipse fill="#5f0005" cx="182" cy="121" rx="199" ry="21"/><path fill="#ce23fb" d="M110 9h11v17h-11z"/><path fill="#0d0422" d="M120 20h80v21h-80z"/><ellipse fill="#bb54d9" cx="63" cy="99" rx="97" ry="3"/><path fill="#0b0" d="M132 46h26v5h-26z"/><path fill="#eafdfc" d="M109 56L75 68l-1-14z"/></g></svg>