<svg xmlns="http://www.w3.org/2000/svg" viewBox="0 0 200 133"><filter id="b"><feGaussianBlur stdDeviation="12" /></filter><path fill="#131329" d="M0 0h200v133H0z"/><g filter="url(#b)" transform="translate(.5 .5)" fill-opacity=".5"><ellipse fill="#784c5a" rx="1" ry="1" transform="rotate(-97.6 94.3 5.5) scale(33.75008 43.74931)"/><ellipse fill="#000a81" rx="1" ry="1" transform="matrix(-19.7626 -21.1172 38.81697 -36.32698 97.7 0)"/><ellipse rx="1" ry="1" transform="rotate(78.5 67.1 133.8) scale(68.44116 42.17487)"/><ellipse cy="47" rx="60" ry="60"/><path fill="#6a61c4" d="M104.7 123l1.9-11.9 24.7 4-1.9 11.8z"/><path fill="#2828b2" d="M-4 112l40 14 9-13z"/><path fill="#1f58ff" d="M79.8 18.1l5-13 7.4 2.8-5 13z"/><ellipse fill="#5c2719" rx="1" ry="1" transform="matrix(-27.00563 13.76878 -6.10167 -11.96762 135.8 86)"/><ellipse fill="#000f0a" cx="98" cy="99" rx="12" ry="12"/><ellipse fill="#00173f" rx="1" ry="1" transform="rotate(123.9 21.4 32.1) scale(24.84275 36.86449)"/><path fill="#1a2084" d="M163 107h31v16h-31z"/><ellipse fill="#1847ff" cx="115" cy="11" rx="8" ry="6"/><ellipse fill="#5058a2" cx="83" cy="116" rx="10" ry="10"/><ellipse fill="#e02984" cx="118" cy="80" rx="6" ry="6"/><path fill="#a16366" d="M74 94.2l-3.1-7.4 21.1-9 3.1 7.4z"/><ellipse fill="#003730" cx="94" cy="55" rx="42" ry="14"/><ellipse cx="9" cy="43" rx="24" ry="62"/><ellipse rx="1" ry="1" transform="rotate(-10.6 375 -1032.7) scale(29.08481 58.45276)"/><path d="M44 115h29v18H44z"/><ellipse fill="#000004" rx="1" ry="1" transform="matrix(1.34494 10.6901 -27.2487 3.42821 59 0)"/><path fill="#00329b" d="M59.2 9.8l-25 36.9 11-23 23.5-7.8z"/><ellipse fill="#00002d" rx="1" ry="1" transform="matrix(-17.16944 -11.58212 20.634 -30.58805 144.3 12)"/></g></svg>