<svg xmlns="http://www.w3.org/2000/svg" viewBox="0 0 700 467"><filter id="b"><feGaussianBlur stdDeviation="12" /></filter><path fill="#706a59" d="M0 0h700v464H0z"/><g filter="url(#b)" transform="translate(1.4 1.4) scale(2.73438)" fill-opacity=".5"><ellipse fill="#f1ffff" cx="248" cy="102" rx="15" ry="255"/><ellipse fill="#08182c" cx="75" cy="110" rx="165" ry="44"/><ellipse fill="#e2b56b" rx="1" ry="1" transform="matrix(-7.89753 -37.7977 135.19956 -28.24888 136.5 28.8)"/><ellipse fill="#000017" cx="210" cy="150" rx="20" ry="20"/><ellipse fill="#001641" rx="1" ry="1" transform="matrix(-2.82105 -33.59504 19.39716 -1.62883 219.9 80)"/><ellipse fill="#fdd0a2" cx="178" cy="154" rx="12" ry="50"/><ellipse fill="#fff" cx="90" cy="92" rx="5" ry="20"/><path fill="#fff" d="M46.8 81.2L44 59.9l14.5 18.6-1.8 32.2z"/><ellipse fill="#e2bb7b" cx="5" cy="162" rx="23" ry="56"/><ellipse cx="144" cy="155" rx="19" ry="19"/><ellipse fill="#f2ca88" rx="1" ry="1" transform="matrix(-.7999 63.47923 -10.57884 -.1333 113.7 169)"/><ellipse fill="#e4f2f0" cx="252" cy="152" rx="28" ry="28"/><ellipse fill="#000b1e" cx="69" cy="126" rx="28" ry="28"/><ellipse fill="#0087e6" cx="255" cy="54" rx="15" ry="15"/><path fill="#5c3c00" d="M172.8 39.2L166.5 14l44.7-11.2 6.3 25.2z"/><ellipse fill="#d9e4cb" cx="232" cy="21" rx="16" ry="35"/><ellipse fill="#6b3d00" cx="13" cy="18" rx="28" ry="23"/><ellipse fill="#d6c6c3" rx="1" ry="1" transform="matrix(-2.00804 8.12444 -51.43468 -12.7126 120 52.7)"/><ellipse fill="#001b2d" rx="1" ry="1" transform="matrix(-21.75782 -1.06414 2.49589 -51.03208 211.4 124.8)"/><ellipse rx="1" ry="1" transform="matrix(-33.29267 -.40677 .13433 -10.99476 11.4 94.5)"/><path fill="#cdd8f2" d="M212.5 72.4l-10 1.6-7-44.4 10-1.6z"/><path fill="#ffe4e2" d="M128 124h23v10h-23z"/></g></svg>