<svg xmlns="http://www.w3.org/2000/svg" viewBox="0 0 200 133"><filter id="b"><feGaussianBlur stdDeviation="12" /></filter><path fill="#7a656b" d="M0 0h200v133H0z"/><g filter="url(#b)" transform="translate(.5 .5)" fill-opacity=".5"><ellipse fill="#ff1000" rx="1" ry="1" transform="matrix(-89.73663 -21.36618 11.22705 -47.15293 168.9 132)"/><ellipse fill="#003890" cy="52" rx="71" ry="71"/><ellipse fill="#c3f8f4" cx="178" cy="33" rx="57" ry="57"/><ellipse fill="#ac0000" rx="1" ry="1" transform="matrix(-4.96242 70.96593 -14.89804 -1.04177 99 55.8)"/><ellipse fill="#fff" cx="152" cy="72" rx="35" ry="12"/><ellipse fill="#396f71" cx="156" cy="36" rx="30" ry="30"/><path d="M104.7 5.4l20 1.4-5.4 77.8-20-1.4z"/><ellipse fill="#dcebd9" cx="76" cy="42" rx="10" ry="78"/><ellipse fill="#ff2600" rx="1" ry="1" transform="matrix(-53.83316 -15.70389 7.79314 -26.715 188.8 114.4)"/><ellipse fill="#004a84" rx="1" ry="1" transform="matrix(-34.88502 -10.05717 34.35916 -119.18065 28 29.2)"/><ellipse fill="#fff" cx="185" cy="72" rx="64" ry="12"/><ellipse fill="#ff2500" cx="93" cy="37" rx="8" ry="76"/><ellipse fill="#c8ecec" rx="1" ry="1" transform="matrix(-5.58674 -19.74314 11.9812 -3.39034 44 129.6)"/><path fill="#bbf1ff" d="M79 125h39v8H79z"/><path fill="#483400" d="M127 49h63v12h-63z"/><ellipse fill="#fff" cx="199" cy="32" rx="9" ry="52"/><ellipse fill="#003067" cx="33" cy="13" rx="36" ry="55"/><path fill="#004da1" d="M133 148l10-39-22 12z"/><path fill="#71ebff" d="M136 27h46v18h-46z"/><path fill="#080600" d="M43 78h18v29H43z"/><ellipse fill="#ec1a00" cx="117" cy="100" rx="39" ry="16"/><ellipse fill="#0077b1" rx="1" ry="1" transform="matrix(-25.55336 4.32811 -7.39344 -43.6512 14.5 82)"/></g></svg>