<svg xmlns="http://www.w3.org/2000/svg" viewBox="0 0 200 133"><filter id="b"><feGaussianBlur stdDeviation="12" /></filter><path fill="#897986" d="M0 0h200v133H0z"/><g filter="url(#b)" transform="translate(.5 .5)" fill-opacity=".5"><ellipse fill="#260800" rx="1" ry="1" transform="rotate(23.2 -249 196.7) scale(40.33306 59.30516)"/><ellipse fill="#edd8ff" cx="140" rx="127" ry="28"/><ellipse fill="#fff" cx="183" cy="107" rx="15" ry="52"/><path fill="#fff" d="M4 49h33v36H4z"/><path fill="#000009" d="M162 79l-30-40 11 58z"/><ellipse fill="#fff" cx="106" cy="71" rx="11" ry="18"/><path fill="#980900" d="M0 85h36v48H0z"/><ellipse fill="#4b17a4" cx="116" cy="22" rx="19" ry="19"/><ellipse fill="#081bbb" cx="151" cy="123" rx="13" ry="44"/><path fill="#395361" d="M75.8 131.3l2.5-47 43.9 2.4-2.5 47z"/><ellipse fill="#f1efe4" cx="160" rx="25" ry="44"/><ellipse fill="#282c22" cx="55" cy="81" rx="15" ry="57"/><ellipse fill="#fff" cx="178" cy="91" rx="9" ry="23"/><path fill="#1e0f02" d="M91.2 37.1l-11 8 18.5 13.4-23.6-37z"/><path fill="#2c1a04" d="M191.6 40.4l-21.8 32.3-7.4-5 21.8-32.4z"/><ellipse fill="#9fd7d3" cx="132" cy="101" rx="9" ry="24"/><ellipse fill="#9f7d84" rx="1" ry="1" transform="matrix(-16.27598 8.87395 -26.1584 -47.97789 41 8.1)"/><ellipse fill="#777371" cx="77" cy="87" rx="13" ry="31"/><path fill="#613f2f" d="M191 64h9v29h-9z"/><ellipse fill="#00000b" cx="118" cy="48" rx="5" ry="14"/><path fill="#55361e" d="M-13 79l42-56-45 22z"/><path fill="#97e1d2" d="M113 98h11v21h-11z"/></g></svg>