<svg xmlns="http://www.w3.org/2000/svg" viewBox="0 0 700 467"><filter id="b"><feGaussianBlur stdDeviation="12" /></filter><path fill="#424928" d="M0 0h700v464H0z"/><g filter="url(#b)" transform="translate(1.4 1.4) scale(2.73438)" fill-opacity=".5"><path fill="#ebeaff" d="M109 89h35v45h-35z"/><path fill="#fff" d="M111 40h29v26h-29z"/><ellipse fill="#ffb419" cx="170" cy="168" rx="242" ry="17"/><ellipse fill="#ff0" rx="1" ry="1" transform="matrix(27.68062 6.58886 -2.73953 11.5091 164.8 11.3)"/><ellipse cx="16" cy="43" rx="33" ry="57"/><ellipse fill="#002995" cx="88" cy="40" rx="27" ry="27"/><ellipse fill="#001900" cx="187" cy="59" rx="42" ry="42"/><path fill="#fff5ff" d="M71.2 104.4l14.1 6.6 1.5-30.4-8.3-24.4z"/><path fill="#170010" d="M24 142l55 17 57-89z"/><ellipse fill="#090007" rx="1" ry="1" transform="rotate(-46.3 233.6 -153.1) scale(27.80266 32.80644)"/><path fill="#c9ea00" d="M226.4 33.7l-5.6-16 38.8-13.4 5.6 16z"/><path fill="#d9d070" d="M-8.3 128.5L6.3 121l33.8-1.8-16.6 19z"/><path fill="#001003" d="M74 73l-89-89 59 163z"/><path fill="#e5deba" d="M106 99h7v67h-7z"/><path fill="#ffdfed" d="M153 77h6v23h-6z"/><ellipse fill="#849b3e" cx="221" cy="109" rx="16" ry="26"/><path fill="#001f0d" d="M76-6l-92 29 198 4z"/><ellipse fill="#003c20" rx="1" ry="1" transform="rotate(68.3 74 210.7) scale(35.05494 20.52783)"/><path fill="#eed400" d="M0 148h46v6H0z"/><path fill="#dac9db" d="M107 63l37-1-13-36z"/><path fill="#ffff45" d="M170 15l-34-3 12-28z"/><ellipse fill="#d1d765" cx="255" cy="129" rx="40" ry="5"/></g></svg>