<svg xmlns="http://www.w3.org/2000/svg" viewBox="0 0 200 133"><filter id="b"><feGaussianBlur stdDeviation="12" /></filter><path fill="#8d2f8e" d="M0 0h200v133H0z"/><g filter="url(#b)" transform="translate(.5 .5)" fill-opacity=".5"><ellipse fill="#b3092d" cx="85" rx="48" ry="48"/><ellipse fill="#595788" rx="1" ry="1" transform="matrix(76.68977 21.11597 -10.64864 38.67413 119.7 72)"/><ellipse fill="#c323d6" rx="1" ry="1" transform="matrix(-44.05283 10.25141 -18.36856 -78.9342 18.4 87)"/><ellipse fill="#c7ced8" rx="1" ry="1" transform="matrix(-10.6869 27.26977 -11.91616 -4.6699 112.2 66)"/><ellipse fill="#1b003d" rx="1" ry="1" transform="matrix(2.16715 31.42748 -13.87726 .95693 144.2 64.8)"/><ellipse cx="193" cy="128" rx="24" ry="11"/><ellipse fill="#ff6227" rx="1" ry="1" transform="matrix(-1.21695 -14.81682 31.68296 -2.60221 137 3.4)"/><ellipse fill="#000029" cx="199" cy="76" rx="18" ry="18"/><path fill="#c1a6f4" d="M162 54h23v26h-23z"/><ellipse fill="#460149" rx="1" ry="1" transform="rotate(172.1 37.6 31.3) scale(16.62106 31.22007)"/><path fill="#b6eee8" d="M36 51h15v29H36z"/><path fill="#27003b" d="M122.2 131.6l35.5 2.9-127.3 4.7 79.3-24z"/><path fill="#d158eb" d="M215 107l-76 19-74-23z"/><path fill="#60cfe9" d="M19 31h15v25H19z"/><ellipse fill="#f3009b" rx="1" ry="1" transform="matrix(-17.88016 4.25965 -7.45532 -31.29416 16.8 5.4)"/><path fill="#6cbcff" d="M172 12l8 24-35-13z"/><path fill="#cd33b4" d="M90.8 69.2L19 64.6 37.1 39l19 2.7z"/><ellipse fill="#e1195b" cx="93" cy="12" rx="60" ry="16"/><path fill="#4f0095" d="M0 66h33v23H0z"/><ellipse fill="#4c0057" rx="1" ry="1" transform="matrix(-17.57012 -10.88654 7.01267 -11.31796 56.6 30)"/><ellipse fill="#cd00d3" rx="1" ry="1" transform="matrix(-4.84112 29.45881 -6.09112 -1.00099 186.4 40.2)"/><path fill="#1f0447" d="M103 71L50 89l5-21z"/></g></svg>