<svg xmlns="http://www.w3.org/2000/svg" viewBox="0 0 700 467"><filter id="b"><feGaussianBlur stdDeviation="12" /></filter><path fill="#978b83" d="M0 0h700v464H0z"/><g filter="url(#b)" transform="translate(1.4 1.4) scale(2.73438)" fill-opacity=".5"><ellipse fill="#281a10" rx="1" ry="1" transform="matrix(172.271 -17.47515 3.10468 30.6061 183 109)"/><ellipse fill="#e2e6e2" cx="103" cy="20" rx="175" ry="52"/><ellipse rx="1" ry="1" transform="matrix(-10.76953 -9.95956 15.5791 -16.8461 37 135.2)"/><ellipse rx="1" ry="1" transform="rotate(152.5 95.3 91.5) scale(21.73931 22.24089)"/><ellipse fill="#fff3e8" rx="1" ry="1" transform="matrix(14.04324 -3.78916 7.8914 29.24681 201 79.7)"/><ellipse fill="#d9c49d" rx="1" ry="1" transform="matrix(-.95256 40.50884 -67.06947 -1.57713 123.7 169)"/><ellipse fill="#9b5300" cx="244" cy="59" rx="15" ry="74"/><ellipse fill="#eeb2ff" cx="4" cy="94" rx="16" ry="59"/><path fill="#fff" d="M112 82h12v39h-12z"/><ellipse fill="#000023" rx="1" ry="1" transform="rotate(167.4 42.5 52.8) scale(12.56364 29.20414)"/><path fill="#5d596c" d="M30 32h128v20H30z"/><path fill="#fff" d="M68 84h14v34H68z"/><path d="M151 100h50v25h-50z"/><ellipse fill="#e5efef" rx="1" ry="1" transform="matrix(-76.56734 9.94436 -3.17953 -24.48105 121.8 3)"/><path fill="#fff" d="M140 66h10v49h-10z"/><path fill="#23211d" d="M43 81h21v58H43z"/><path d="M18 115h30v34H18z"/><ellipse fill="#f6edcd" rx="1" ry="1" transform="rotate(-99.6 113.7 -84) scale(11.53328 39.63318)"/><ellipse fill="#394866" rx="1" ry="1" transform="matrix(7.27436 -21.2288 11.56878 3.96421 107 73.2)"/><path d="M126.7 80.8l14.9 1.6-4.3 40.8-14.9-1.6z"/><path fill="#300000" d="M205.8 135.8L230.4 74l20.6 8-14.3 71.4z"/><path fill="#273021" d="M228.1 19.1l16.4 4.7-6.6 23-16.4-4.6z"/></g></svg>