<svg xmlns="http://www.w3.org/2000/svg" viewBox="0 0 800 533"><filter id="b"><feGaussianBlur stdDeviation="12" /></filter><path fill="#71191d" d="M0 0h800v531H0z"/><g filter="url(#b)" transform="translate(1.6 1.6) scale(3.125)" fill-opacity=".5"><ellipse fill="#83d0ff" cx="111" cy="39" rx="17" ry="35"/><ellipse fill="#ff0017" rx="1" ry="1" transform="rotate(-100.5 129.8 35) scale(51.41221 140.30704)"/><ellipse cx="22" cy="70" rx="44" ry="84"/><ellipse fill="#f03026" cx="132" cy="104" rx="34" ry="34"/><ellipse fill="#000300" cx="205" rx="116" ry="28"/><ellipse fill="#ff5a21" cx="43" cy="86" rx="34" ry="8"/><ellipse fill="#0a1912" rx="1" ry="1" transform="rotate(-133 138.7 -.7) scale(28.93994 32.14096)"/><ellipse fill="#071d25" rx="1" ry="1" transform="matrix(.1251 28.59533 -29.01134 .12692 155.4 51.6)"/><ellipse fill="#7a7d4a" rx="1" ry="1" transform="rotate(27.1 15.3 507.9) scale(55.7179 16.29173)"/><ellipse fill="#0d171e" cx="65" cy="41" rx="35" ry="35"/><ellipse fill="#f63d2a" cx="190" cy="94" rx="13" ry="33"/><path d="M79 94h15v43H79z"/><path fill="#ff0230" d="M152 185L-3 159l274-27z"/><ellipse fill="#eff1e1" cx="112" cy="42" rx="7" ry="24"/><path fill="#ff7262" d="M147.1 123.7l1.9-10.3-11.8-14.9L170 65.8z"/><path fill="#ffc17c" d="M159 20.1l-8.7 2.3L147 10l8.7-2.3z"/><ellipse cx="26" cy="118" rx="26" ry="26"/><path fill="#f61408" d="M63 76l21 64-25-14z"/><ellipse fill="#ff1ab6" rx="1" ry="1" transform="matrix(24.43284 -8.02149 2.3799 7.249 255 141.1)"/><path fill="#200600" d="M214.7 131.3l56.3-18.8-67 5.3.6 49.2z"/><path d="M123.6 94.3l9.9-1.4 3 20.8-10 1.4z"/><path fill="#1b0000" d="M40 41h15v99H40z"/></g></svg>