<svg xmlns="http://www.w3.org/2000/svg" viewBox="0 0 700 467"><filter id="b"><feGaussianBlur stdDeviation="12" /></filter><path fill="#4d5861" d="M0 0h700v464H0z"/><g filter="url(#b)" transform="translate(1.4 1.4) scale(2.73438)" fill-opacity=".5"><ellipse fill="#b4c6ce" rx="1" ry="1" transform="matrix(7.25134 -35.32942 64.8063 13.30145 135 83)"/><ellipse rx="1" ry="1" transform="matrix(-98.4211 14.0817 -3.4664 -24.22764 189.2 11.3)"/><ellipse cx="33" cy="6" rx="64" ry="21"/><ellipse fill="#c5ffff" rx="1" ry="1" transform="rotate(93.3 -2.3 52.8) scale(30.52322 8.76604)"/><ellipse fill="#56efff" rx="1" ry="1" transform="rotate(84.2 82 148.3) scale(45.42918 8.19339)"/><ellipse fill="#0a0000" cx="240" cy="130" rx="44" ry="26"/><ellipse fill="#a1ffff" cx="82" cy="56" rx="9" ry="41"/><path fill="#130000" d="M90 28h15v112H90z"/><ellipse fill="#8eebff" rx="1" ry="1" transform="matrix(-9.54052 -1.79428 5.47627 -29.1183 20.8 50.4)"/><path fill="#78ffff" d="M239.3 32.7l24.8-3 6.6 53.6-24.8 3z"/><ellipse fill="#642c12" cx="6" cy="131" rx="156" ry="28"/><ellipse fill="#d89c93" rx="1" ry="1" transform="matrix(12.34938 21.91662 -16.8796 9.51116 36.5 110.8)"/><path fill="#ffd4c3" d="M227.6 92.1l13.6-3.3 7.2 29-13.6 3.4z"/><ellipse fill="#a7a299" rx="1" ry="1" transform="matrix(-17.62808 6.1582 -27.8944 -79.84876 175 118.4)"/><ellipse fill="#8ab7e7" cx="138" cy="169" rx="133" ry="12"/><ellipse cx="35" cy="38" rx="7" ry="55"/><ellipse cx="65" cy="59" rx="7" ry="41"/><ellipse rx="1" ry="1" transform="matrix(2.97181 29.25693 -9.07208 .9215 203.6 56.7)"/><path d="M139 139.2l39 2.7-1 15-39-2.8z"/><ellipse cx="236" cy="48" rx="6" ry="39"/><path fill="#f0fff7" d="M113.8 17.6L96.6 1.5 145-16h-27.4z"/><ellipse fill="#000007" cx="1" cy="84" rx="9" ry="168"/></g></svg>