<svg xmlns="http://www.w3.org/2000/svg" viewBox="0 0 200 133"><filter id="b"><feGaussianBlur stdDeviation="12" /></filter><path fill="#675550" d="M0 0h200v133H0z"/><g filter="url(#b)" transform="translate(.5 .5)" fill-opacity=".5"><ellipse fill="#ceffff" rx="1" ry="1" transform="rotate(176.8 50.4 28.2) scale(44.16909 20.95918)"/><ellipse cx="54" rx="199" ry="35"/><ellipse fill="#c7a762" rx="1" ry="1" transform="matrix(4.94248 36.7137 -30.65128 4.12634 173 60.3)"/><ellipse cx="111" cy="125" rx="198" ry="10"/><ellipse fill="#e6feff" cx="104" cy="57" rx="34" ry="14"/><ellipse fill="#d4938b" rx="1" ry="1" transform="matrix(33.64275 10.543 -4.43015 14.13663 74.4 96)"/><path fill="#8a98bc" d="M3 35h82v23H3z"/><path fill="#e28731" d="M167 87h33v28h-33z"/><ellipse cx="187" cy="4" rx="18" ry="28"/><ellipse fill="#000001" rx="1" ry="1" transform="matrix(52.15972 -15.56432 6.25596 20.9652 27 10.6)"/><ellipse fill="#7f6663" rx="1" ry="1" transform="matrix(3.28092 -12.95089 24.45125 6.19438 107.2 21.3)"/><ellipse fill="#69a3ff" rx="1" ry="1" transform="rotate(83.7 33.5 83) scale(6.21603 30.97344)"/><path fill="#bcb192" d="M215.5 60.5l-58.9-4 2-27 58.8 4z"/><ellipse fill="#f3cad9" cx="107" cy="108" rx="32" ry="4"/><ellipse fill="#be9697" cx="118" cy="84" rx="33" ry="5"/><ellipse cx="96" cy="129" rx="180" ry="5"/><path fill="#3a1316" d="M62.1 107.3l-.5-10 2-7.6 26.2 6.8z"/><ellipse fill="#ed9270" cy="107" rx="81" ry="4"/><path fill="#00000d" d="M58 22h4v41h-4z"/><path fill="#72b7ff" d="M61.7 36.1l23-1.2 1.6 31-23 1.2z"/><path fill="#861000" d="M140 95h30v15h-30z"/><ellipse fill="#a09675" cx="35" cy="45" rx="14" ry="16"/></g></svg>