<svg xmlns="http://www.w3.org/2000/svg" viewBox="0 0 700 467"><filter id="b"><feGaussianBlur stdDeviation="12" /></filter><path fill="#6d5245" d="M0 0h700v464H0z"/><g filter="url(#b)" transform="translate(1.4 1.4) scale(2.73438)" fill-opacity=".5"><ellipse fill="#fff" rx="1" ry="1" transform="matrix(-38.815 7.40436 -5.74597 -30.12142 239.2 148.2)"/><ellipse fill="#e7ffff" rx="1" ry="1" transform="matrix(-15.98827 -3.4415 7.11127 -33.03701 85 91.7)"/><ellipse fill="#00091f" cx="37" cy="120" rx="34" ry="34"/><ellipse fill="#0f0000" cx="183" rx="50" ry="50"/><ellipse fill="#0c0000" rx="1" ry="1" transform="matrix(15.949 .86377 -6.80175 125.59078 171 139.1)"/><ellipse fill="#d8c1a6" rx="1" ry="1" transform="matrix(-6.78008 -63.44279 17.65538 -1.88682 101.1 124.3)"/><ellipse fill="#ffc9ac" rx="1" ry="1" transform="matrix(-10.24829 26.9788 -16.03962 -6.09288 146 68.5)"/><ellipse fill="#b00000" cx="230" cy="97" rx="21" ry="34"/><path fill="#cfc6c3" d="M69 58l34 28-119-3z"/><ellipse fill="#ffffed" rx="1" ry="1" transform="rotate(-158.6 128.3 58.9) scale(29.40903 26.08692)"/><path d="M12-6l59 2-27 69z"/><ellipse rx="1" ry="1" transform="rotate(-109.8 61 -21.5) scale(67.31962 13.12476)"/><ellipse fill="#00000c" rx="1" ry="1" transform="matrix(-20.59979 .47323 -.75118 -32.69919 66.6 167)"/><ellipse fill="#ffdfba" cy="61" rx="13" ry="21"/><ellipse fill="#7d1500" cx="239" cy="48" rx="25" ry="65"/><ellipse fill="#f7c2a3" cx="26" cy="169" rx="20" ry="20"/><path fill="#bc958a" d="M57 21h24v75H57z"/><path fill="#d9a384" d="M195 41h15v90h-15z"/><path fill="#361300" d="M111 108l14-40-46 46z"/><ellipse fill="#ffe" rx="1" ry="1" transform="matrix(11.79779 -4.0163 1.55537 4.56887 124 98.2)"/><ellipse fill="#2a1000" rx="1" ry="1" transform="matrix(-18.03585 19.99789 -9.6239 -8.67969 35.2 54.3)"/><path fill="#b1cae2" d="M69.8 114.6L62 92.9l47.5-27.2-30.9 77.1z"/></g></svg>