<svg xmlns="http://www.w3.org/2000/svg" viewBox="0 0 700 467"><filter id="b"><feGaussianBlur stdDeviation="12" /></filter><path fill="#6e6067" d="M0 0h700v464H0z"/><g filter="url(#b)" transform="translate(1.4 1.4) scale(2.73438)" fill-opacity=".5"><ellipse fill="#6cffff" rx="1" ry="1" transform="rotate(-174.9 10.5 22) scale(35.15945 94.27159)"/><ellipse fill="#7e0000" rx="1" ry="1" transform="matrix(-110.24103 -10.80923 5.73252 -58.4648 185 166.5)"/><ellipse fill="#fff" cx="237" cy="97" rx="82" ry="15"/><ellipse fill="#fff" rx="1" ry="1" transform="rotate(101 103 100.6) scale(12.13047 58.45946)"/><ellipse fill="#680000" rx="1" ry="1" transform="matrix(-22.8058 -2.9215 17.58386 -137.2635 137.2 65.4)"/><ellipse fill="#003f7e" rx="1" ry="1" transform="matrix(15.38913 -55.0336 62.03574 17.34715 39 157.2)"/><ellipse fill="#002856" rx="1" ry="1" transform="matrix(-33.63932 156.91342 -16.0799 -3.44723 74.9 26.3)"/><path fill="#fff" d="M243 8l28 57-29 49z"/><ellipse fill="#94dbff" rx="1" ry="1" transform="rotate(17.9 -96 82.5) scale(33.89994 68.30818)"/><ellipse fill="#850000" cx="192" cy="136" rx="88" ry="27"/><ellipse fill="#2d0000" cx="142" cy="28" rx="20" ry="84"/><ellipse fill="#f90e00" cx="125" cy="56" rx="10" ry="78"/><path fill="#fff" d="M159 114.5l.9-49.2 8.5-80 11-1.3z"/><ellipse fill="#fff" cx="221" cy="100" rx="64" ry="10"/><path fill="#fff" d="M122.7 184.3l29.7.7 5.7-21.6-24.3-3.3z"/><ellipse fill="#bab795" rx="1" ry="1" transform="matrix(1.5034 -32.80322 11.83852 .54257 75.2 117.1)"/><path fill="#007cd4" d="M47.8 93l-13.3 84-50.3-8 13.3-84z"/><ellipse fill="#b9bea3" rx="1" ry="1" transform="matrix(-3.65198 58.8781 -11.55406 -.71665 106.7 35.4)"/><path fill="#fcffff" d="M164.4 25l2.7-30L191.2.6 271 23z"/><ellipse fill="#000508" rx="1" ry="1" transform="matrix(3.12904 -16.09753 49.34164 9.59104 75.6 169)"/><path fill="#43400f" d="M169 25h34v59h-34z"/><ellipse fill="#6b0000" cx="223" cy="158" rx="66" ry="47"/></g></svg>