<svg xmlns="http://www.w3.org/2000/svg" viewBox="0 0 313 195"><filter id="b"><feGaussianBlur stdDeviation="12" /></filter><path fill="#654c6f" d="M0 0h313v194H0z"/><g filter="url(#b)" transform="translate(.6 .6) scale(1.22266)" fill-opacity=".5"><ellipse fill="#fdf" cx="91" cy="122" rx="164" ry="18"/><ellipse fill="#7acaff" rx="1" ry="1" transform="matrix(69.42478 -12.57737 5.28275 29.1598 138 60)"/><ellipse rx="1" ry="1" transform="matrix(.33835 -30.9023 245.46198 2.6876 107 0)"/><ellipse rx="1" ry="1" transform="matrix(20.82305 -17.34911 30.40848 36.49739 4.9 52.9)"/><path d="M218.3 84.9l13.5-63.6 46 9.8-13.6 63.6z"/><path fill="#ff42ff" d="M31 29h42v43H31z"/><ellipse rx="1" ry="1" transform="matrix(-.06799 -12.98501 177.73966 -.93065 154.2 153)"/><ellipse fill="#f0f" rx="1" ry="1" transform="matrix(17.19517 -17.02452 12.0096 12.12999 208.6 49)"/><ellipse fill="#ffd8de" rx="1" ry="1" transform="rotate(-76.1 94.8 29.4) scale(24.3089 37.87918)"/><ellipse fill="#e898ce" cx="130" cy="114" rx="56" ry="24"/><ellipse rx="1" ry="1" transform="matrix(17.21792 -3.098 9.47197 52.64299 14.1 44.6)"/><ellipse rx="1" ry="1" transform="rotate(89 68.5 84.4) scale(14.63911 115.92842)"/><ellipse fill="#53d8f9" cx="135" cy="48" rx="42" ry="21"/><ellipse fill="#27032a" rx="1" ry="1" transform="matrix(-.35832 -3.05025 72.27702 -8.4906 155.2 108.8)"/><ellipse cx="243" cy="38" rx="16" ry="50"/><path fill="#8c1d1a" d="M0 106h57v9H0z"/><path d="M193 174l-28-49-13 8z"/><path fill="#d8bccd" d="M131.4 107.5l47-6.6 92.6-8-99.1-4.5z"/><ellipse cx="89" cy="10" rx="255" ry="19"/><ellipse fill="#8c1e7c" rx="1" ry="1" transform="rotate(96.7 4.7 76.8) scale(33.22707 15.8273)"/><path fill="#006ccb" d="M186 61l-2-37-45 45z"/><ellipse fill="#fef" cx="75" cy="123" rx="217" ry="5"/></g></svg>