<svg xmlns="http://www.w3.org/2000/svg" viewBox="0 0 700 467"><filter id="b"><feGaussianBlur stdDeviation="12" /></filter><path fill="#825f71" d="M0 0h700v464H0z"/><g filter="url(#b)" transform="translate(1.4 1.4) scale(2.73438)" fill-opacity=".5"><ellipse fill="#000300" rx="1" ry="1" transform="rotate(83.2 21 69) scale(21.20035 52.87962)"/><ellipse fill="#8e98ff" cx="132" cy="82" rx="49" ry="22"/><ellipse fill="#00100d" cx="163" cy="40" rx="43" ry="21"/><ellipse fill="#dcd7f8" rx="1" ry="1" transform="matrix(-255 -.02398 .00172 -18.25826 116.2 0)"/><ellipse fill="#ac2e12" rx="1" ry="1" transform="matrix(-14.75941 41.6455 -63.11393 -22.36796 203 153.6)"/><ellipse fill="#bf2d0b" cx="65" cy="150" rx="50" ry="27"/><path fill="#ffffce" d="M116.2 180.1l-3.3-62.9 25-1.3 3.2 62.9z"/><ellipse fill="#00270e" cx="69" cy="53" rx="20" ry="27"/><ellipse fill="#f2ffff" cy="133" rx="18" ry="14"/><ellipse fill="#3a81ff" cx="96" cy="91" rx="31" ry="10"/><path fill="#a3baf2" d="M213.5 84.5l30 1-1 28-30-1z"/><path fill="#f50400" d="M242 77l-84-8 45 18z"/><path fill="#008ecc" d="M159 79h40v19h-40z"/><path fill="#003732" d="M163 48h36v23h-36z"/><ellipse fill="#29469a" cy="87" rx="35" ry="35"/><ellipse fill="#d1a25a" cx="136" cy="169" rx="104" ry="18"/><ellipse fill="#24161f" cx="164" cy="130" rx="18" ry="18"/><ellipse fill="#296eff" rx="1" ry="1" transform="matrix(-2.83225 -26.25812 9.54683 -1.02974 255 88.5)"/><ellipse fill="#b79ec3" rx="1" ry="1" transform="matrix(4.403 -15.9918 89.40183 24.6149 222.9 17.5)"/><path fill="#ff5d60" d="M238 85l28 73-39-35z"/><ellipse fill="#bebcd4" rx="1" ry="1" transform="matrix(6.54782 -9.28287 11.98376 8.45294 77.2 119.9)"/><ellipse fill="#ff4c5c" rx="1" ry="1" transform="matrix(66.9853 -16.29718 .64995 2.67147 109.3 73)"/></g></svg>