<svg xmlns="http://www.w3.org/2000/svg" viewBox="0 0 200 133"><filter id="b"><feGaussianBlur stdDeviation="12" /></filter><path fill="#5e5141" d="M0 0h200v133H0z"/><g filter="url(#b)" transform="translate(.5 .5)" fill-opacity=".5"><ellipse fill="#fff" cx="163" cy="27" rx="37" ry="48"/><ellipse cx="8" cy="118" rx="59" ry="59"/><ellipse cx="160" cy="132" rx="48" ry="48"/><ellipse fill="#fff" cx="170" cy="31" rx="25" ry="25"/><path d="M147.6 31.9l5.7 46.6-12.9 1.6-5.7-46.6z"/><ellipse fill="#e3b274" cx="91" cy="92" rx="42" ry="14"/><path fill="#fff262" d="M179.9 94.8L156 100l3.5-13.4L195 75.2z"/><ellipse fill="#fff" cx="177" cy="27" rx="34" ry="18"/><ellipse cx="109" cy="124" rx="199" ry="13"/><ellipse cx="7" cy="59" rx="15" ry="199"/><path fill="#50541d" d="M91.3-13.1L210-4.8l-1.3 18L90 4.7z"/><path d="M176 50.9l25-1.8 1 16-25 1.8z"/><ellipse fill="#9f8255" rx="1" ry="1" transform="matrix(-28.88521 8.9651 -7.41565 -23.89294 103.8 19.3)"/><path fill="#afa5a4" d="M89 35h15v64H89z"/><ellipse fill="#976837" rx="1" ry="1" transform="matrix(42.33235 26.88284 -4.46286 7.02766 82.5 100.5)"/><ellipse fill="#1d3046" rx="1" ry="1" transform="matrix(27.93496 7.10732 -4.97756 19.56406 122 63.9)"/><path d="M150.3 145.6L136.2 118l85.5-43.6 14.1 27.6z"/><ellipse fill="#ffe3cb" rx="1" ry="1" transform="matrix(2.78238 -8.12667 18.32506 6.27407 167.6 63.7)"/><ellipse fill="#2f0007" rx="1" ry="1" transform="rotate(-154.3 29.3 23.9) scale(11.27868 22.15937)"/><path fill="#d0956c" d="M18 39h18v21H18z"/><path d="M142.7 87l9.8-16.2 6.8 4.1-9.8 16.3z"/><ellipse fill="#c8a87e" rx="1" ry="1" transform="matrix(21.41842 5.01789 -2.9043 12.39675 87.7 84.7)"/></g></svg>