<svg xmlns="http://www.w3.org/2000/svg" viewBox="0 0 700 467"><filter id="b"><feGaussianBlur stdDeviation="12" /></filter><path fill="#2d335e" d="M0 0h700v464H0z"/><g filter="url(#b)" transform="translate(1.4 1.4) scale(2.73438)" fill-opacity=".5"><ellipse fill="#fff" cx="183" cy="45" rx="35" ry="35"/><ellipse fill="#84a0ff" rx="1" ry="1" transform="matrix(-.95104 27.23413 -181.96558 -6.35438 177.7 121.4)"/><ellipse rx="1" ry="1" transform="matrix(-96.19756 35.07593 -18.15457 -49.78985 56.5 45.4)"/><ellipse rx="1" ry="1" transform="matrix(3.59784 -27.32832 160.0203 21.06707 70.4 163.7)"/><ellipse fill="#fff" cx="166" cy="102" rx="83" ry="7"/><path fill="#fff" d="M19.2 107l111.5-7.1-76.6 23.3-70.1 2.5z"/><ellipse fill="#fffffd" cx="186" cy="37" rx="33" ry="21"/><ellipse fill="#0519d6" cx="242" cy="132" rx="169" ry="25"/><ellipse cx="29" cy="17" rx="82" ry="82"/><path d="M292.3 104.2l-44.5 15.3-50-145.7 44.4-15.3z"/><ellipse fill="#141742" rx="1" ry="1" transform="rotate(-178.3 93.6 32.1) scale(99.11303 9.48988)"/><path d="M116 110h140v8H116z"/><ellipse cx="45" cy="162" rx="117" ry="23"/><ellipse fill="#fff" rx="1" ry="1" transform="matrix(-.77944 -6.53658 57.20744 -6.82157 148.7 102.4)"/><ellipse fill="#00001b" cx="102" cy="96" rx="40" ry="4"/><ellipse fill="#5681ff" rx="1" ry="1" transform="matrix(91.29314 9.12649 -.92346 9.23744 170 128.3)"/><ellipse fill="#0006ff" rx="1" ry="1" transform="matrix(.32906 3.92985 -76.72133 6.42406 22 104.3)"/><ellipse fill="#f4f2ee" cx="123" cy="85" rx="5" ry="18"/><ellipse rx="1" ry="1" transform="matrix(80.28432 -2.08758 .17647 6.78669 193.9 4.3)"/><ellipse fill="#1219ff" rx="1" ry="1" transform="matrix(31.7594 -4.40829 3.19494 23.01784 240.9 144)"/><ellipse rx="1" ry="1" transform="rotate(114.7 7 102.2) scale(12.08783 7.97649)"/><ellipse fill="#f5ffff" rx="1" ry="1" transform="matrix(25.35554 3.19651 -1.14715 9.0995 48 115.2)"/></g></svg>