<svg xmlns="http://www.w3.org/2000/svg" viewBox="0 0 700 467"><filter id="b"><feGaussianBlur stdDeviation="12" /></filter><path fill="#7a7d87" d="M0 0h700v464H0z"/><g filter="url(#b)" transform="translate(1.4 1.4) scale(2.73438)" fill-opacity=".5"><ellipse fill="#120100" cx="141" cy="165" rx="147" ry="28"/><ellipse fill="#fff" rx="1" ry="1" transform="matrix(-1.91355 -23.78314 76.29634 -6.13866 38.8 119.8)"/><path fill="#e4ffff" d="M28 58l14-40 120 47z"/><path fill="#a5a2ff" d="M175.6 12.5l92.6 32-23.8 69-92.6-32z"/><path fill="#000c00" d="M73.8 67.6l55.9 2.9-1.5 28-55.9-3z"/><ellipse cx="16" cy="83" rx="22" ry="11"/><ellipse fill="#b7935b" rx="1" ry="1" transform="matrix(21.43117 -103.04682 34.5388 7.18321 146.3 169)"/><ellipse fill="#0b0000" rx="1" ry="1" transform="matrix(-19.29748 -21.20766 6.3922 -5.81646 147 20.6)"/><path fill="#0000e9" d="M12 32h20v35H12z"/><ellipse fill="#7fd8ff" rx="1" ry="1" transform="matrix(-.84777 -18.66941 28.70597 -1.30353 101.9 49.3)"/><ellipse fill="#41403a" cx="78" cy="1" rx="254" ry="13"/><ellipse fill="#a7ae9b" rx="1" ry="1" transform="matrix(-9.66075 28.49476 -89.95488 -30.49794 232.8 112.7)"/><ellipse fill="#7a75ff" cx="240" cy="50" rx="79" ry="22"/><ellipse fill="#fff" cx="57" cy="44" rx="27" ry="12"/><ellipse fill="#030b07" cx="79" cy="164" rx="34" ry="27"/><ellipse fill="#112018" cx="120" cy="91" rx="11" ry="26"/><ellipse fill="#fdce81" cx="185" cy="23" rx="24" ry="10"/><path fill="#5d6351" d="M223 72h33v18h-33z"/><path fill="#150200" d="M122 16h11v22h-11z"/><ellipse fill="#d78865" cx="143" cy="47" rx="11" ry="21"/><path fill="#1f140a" d="M83 137h70v12H83z"/><ellipse fill="#050b05" rx="1" ry="1" transform="matrix(-1.6601 -8.43783 68.75498 -13.52717 21.7 159)"/></g></svg>