<svg xmlns="http://www.w3.org/2000/svg" viewBox="0 0 700 467"><filter id="b"><feGaussianBlur stdDeviation="12" /></filter><path fill="#562f2f" d="M0 0h700v464H0z"/><g filter="url(#b)" transform="translate(1.4 1.4) scale(2.73438)" fill-opacity=".5"><ellipse fill="#fff" rx="1" ry="1" transform="matrix(11.2336 67.31476 -20.63708 3.44395 139.5 133.9)"/><ellipse fill="#4fb5de" cx="44" cy="65" rx="32" ry="32"/><ellipse fill="#00121c" cx="138" cy="16" rx="82" ry="82"/><path fill="#c5d9fb" d="M134 17h40v30h-40z"/><ellipse fill="#f56629" rx="1" ry="1" transform="matrix(-19.05194 -105.88622 18.95754 -3.411 41.3 142.5)"/><path fill="maroon" d="M158 185l51-201 55 168z"/><ellipse fill="#a60000" cx="73" cy="169" rx="52" ry="52"/><ellipse fill="#e9f6f7" cx="137" cy="127" rx="18" ry="48"/><ellipse cx="182" cy="72" rx="36" ry="36"/><ellipse fill="#000812" cx="35" cy="15" rx="103" ry="25"/><ellipse fill="#0268ad" cx="58" cy="56" rx="23" ry="39"/><ellipse rx="1" ry="1" transform="rotate(-49 161.9 -50.3) scale(38.31445 17.77901)"/><path fill="#a50000" d="M127.6 185.3l-145.7 31-13.5-63.6 145.7-31z"/><ellipse fill="#890000" rx="1" ry="1" transform="rotate(95.1 37 148.4) scale(26.06609 35.66406)"/><path d="M16-16l-32 81 26 93z"/><ellipse fill="#d29e58" rx="1" ry="1" transform="matrix(6.23019 10.58399 -32.36581 19.0519 40.6 122.8)"/><path fill="#e7b886" d="M11 79l13-58 28 94z"/><path fill="#b88670" d="M132.1 57.3l34.5 60.9-43.4-20.3.3-39.9z"/><path d="M225 99L190-16 150-4z"/><path fill="#fd8554" d="M73 53l1-31 20 61z"/><ellipse cx="72" cy="95" rx="27" ry="9"/><ellipse fill="#507173" rx="1" ry="1" transform="matrix(14.00285 -4.53648 14.68403 45.32554 236.8 23.2)"/></g></svg>