<svg xmlns="http://www.w3.org/2000/svg" viewBox="0 0 200 133"><filter id="b"><feGaussianBlur stdDeviation="12" /></filter><path fill="#754651" d="M0 0h200v133H0z"/><g filter="url(#b)" transform="translate(.5 .5)" fill-opacity=".5"><ellipse fill="#fec3a3" cx="70" cy="62" rx="38" ry="17"/><ellipse fill="#ddaaab" rx="1" ry="1" transform="matrix(11.57136 48.23143 -23.44962 5.62587 168.4 112)"/><ellipse cx="183" cy="8" rx="50" ry="17"/><ellipse fill="#850000" rx="1" ry="1" transform="matrix(37.66109 -104.45248 15.96401 5.75594 19.4 49)"/><ellipse fill="#fff1fa" rx="1" ry="1" transform="matrix(-11.73853 5.44987 -7.76405 -16.72306 99.5 19.4)"/><path fill="#140b1c" d="M101 136L-11 96l83-24z"/><ellipse rx="1" ry="1" transform="matrix(-5.64678 -22.89878 14.21904 -3.50638 127.5 74.5)"/><ellipse fill="#e9000d" rx="1" ry="1" transform="matrix(-30.12478 19.60345 -10.64155 -16.35297 12.3 53.7)"/><path fill="#410000" d="M155 87h19v24h-19z"/><path fill="#b491c1" d="M105 70.2l24.4 66.7-24.5 9L80.6 79z"/><path d="M-9 107.8L9.4 100 23 132.2 4.6 140z"/><ellipse fill="#00081c" rx="1" ry="1" transform="matrix(13.4402 28.31851 -8.65557 4.108 47.8 21.5)"/><ellipse fill="#ffd7ee" rx="1" ry="1" transform="rotate(-148.6 26.8 32.6) scale(6.59483 11.67046)"/><path fill="#e7b0bc" d="M70 20h15v54H70z"/><ellipse fill="#100000" cx="199" cy="74" rx="20" ry="16"/><path fill="#e29c98" d="M115.3 48.7L105 33.9l23.7-16.6L139 32.1z"/><ellipse fill="#fec5cd" rx="1" ry="1" transform="matrix(-7.1841 8.74417 -12.50314 -10.27243 175.7 126.8)"/><ellipse fill="#ffff49" cx="56" cy="59" rx="10" ry="10"/><path fill="#e4daee" d="M145.1 131.6l-3.2-60.9 7-.3 3.2 60.9z"/><ellipse fill="#294e62" rx="1" ry="1" transform="matrix(-12.95295 26.09354 -15.64694 -7.7672 151.8 45.9)"/><path d="M138.1 117.8l12.6 15.6-10.8 8.8-12.6-15.6z"/><ellipse fill="#020000" cx="166" cy="13" rx="37" ry="10"/></g></svg>