<svg xmlns="http://www.w3.org/2000/svg" viewBox="0 0 200 133"><filter id="b"><feGaussianBlur stdDeviation="12" /></filter><path fill="#4255ac" d="M0 0h200v133H0z"/><g filter="url(#b)" transform="translate(.5 .5)" fill-opacity=".5"><ellipse fill="#001f00" rx="1" ry="1" transform="matrix(-13.37464 -127.34997 15.76936 -1.65614 13.8 49.3)"/><ellipse fill="#546eff" cx="141" rx="93" ry="93"/><ellipse fill="#0d0023" rx="1" ry="1" transform="matrix(-19.3344 12.41246 -16.83275 -26.2197 34 120.6)"/><ellipse fill="#180973" cx="80" cy="68" rx="35" ry="16"/><path fill="#fff8f5" d="M121.9 124.5L107 116l13-22.5 15 8.5z"/><ellipse fill="#00a916" rx="1" ry="1" transform="matrix(15.06856 -18.6433 12.43992 10.05464 15 35)"/><ellipse fill="#cdf826" cx="173" cy="6" rx="4" ry="48"/><ellipse fill="#1193ff" rx="1" ry="1" transform="matrix(-18.164 -5.90184 15.23233 -46.88029 52.5 12.3)"/><ellipse fill="#512627" rx="1" ry="1" transform="matrix(.23846 -7.3416 141.60648 4.59941 162.5 132)"/><path fill="#dba3ff" d="M155.7 123l-16.4-9.5 13-22.5 16.4 9.5z"/><ellipse fill="#ccc86e" cx="184" cy="92" rx="6" ry="25"/><ellipse fill="#4f8a51" cx="101" cy="97" rx="12" ry="40"/><path fill="#d0fffb" d="M100 24h14v24h-14z"/><path fill="#dff1b0" d="M176 41h6v43h-6z"/><path fill="#331d1f" d="M207.4 110.5l-32 16.4-6.8-13.4 32-16.4z"/><path fill="#002172" d="M169.2-3.7l14.5-3.9 5.1 19.3-14.5 3.9z"/><ellipse fill="#3036cb" rx="1" ry="1" transform="matrix(-60.66964 54.05468 -5.59574 -6.28052 12.7 93.2)"/><path fill="#9976f1" d="M69.2 112.2l12.4 6.6 10.8-36.1-29 4.8z"/><ellipse fill="#000020" cx="14" cy="66" rx="16" ry="16"/><ellipse fill="#4667ff" rx="1" ry="1" transform="rotate(-165.4 41.3 13.2) scale(22.1541 28.41431)"/><ellipse fill="#4f26ff" rx="1" ry="1" transform="matrix(-18.09035 10.40985 -11.2267 -19.50987 143.2 19)"/><ellipse fill="#201713" cx="5" cy="5" rx="24" ry="22"/></g></svg>