<svg xmlns="http://www.w3.org/2000/svg" viewBox="0 0 700 467"><filter id="b"><feGaussianBlur stdDeviation="12" /></filter><path fill="#4a4376" d="M0 0h700v464H0z"/><g filter="url(#b)" transform="translate(1.4 1.4) scale(2.73438)" fill-opacity=".5"><ellipse fill="#fff4ff" cx="194" cy="146" rx="242" ry="39"/><ellipse cx="52" cy="44" rx="73" ry="73"/><ellipse fill="#fff" cx="128" cy="82" rx="19" ry="30"/><ellipse fill="#000026" rx="1" ry="1" transform="matrix(-62.25191 -54.49743 32.59642 -37.2346 192.8 40.5)"/><ellipse rx="1" ry="1" transform="matrix(-3.51584 15.00447 -23.02677 -5.39562 96.1 169)"/><ellipse cx="38" cy="33" rx="83" ry="83"/><ellipse fill="#b4bcff" cx="220" cy="161" rx="106" ry="58"/><ellipse fill="#000007" rx="1" ry="1" transform="matrix(-36.59081 22.72213 -13.54943 -21.81947 186 78)"/><path fill="#272b6a" d="M145 125h111v14H145z"/><ellipse fill="#fbfdff" cx="138" cy="76" rx="14" ry="21"/><path fill="#000006" d="M-16-6.7l133.8 89-4.1 30.1-48.6.1z"/><ellipse fill="#bf95ff" rx="1" ry="1" transform="matrix(-7.0021 -26.17742 63.65744 -17.0275 36.3 144.6)"/><ellipse fill="#01006c" rx="1" ry="1" transform="matrix(-7.57111 -44.57128 96.70371 -16.4266 208 0)"/><path d="M76.2 152l30.8 9-7.2 25-30.8-9z"/><path fill="#f3e0f0" d="M122 39l15-3-7 53z"/><path fill="#9ef6ff" d="M221 39.8l26.4 85 23.6-24.3-36.5 6.3z"/><ellipse fill="#f1eeff" cx="213" cy="149" rx="67" ry="9"/><ellipse fill="#e8ebff" cx="177" cy="118" rx="92" ry="8"/><path fill="#0000b2" d="M80 144l53-8-24-5z"/><ellipse fill="#9b99ff" cx="135" cy="110" rx="13" ry="33"/><path fill="#9cc2ff" d="M210.5 18l-1.7-34 10.9 44.8 12 48.2z"/><ellipse fill="#000009" cx="199" cy="47" rx="20" ry="29"/></g></svg>