<svg xmlns="http://www.w3.org/2000/svg" viewBox="0 0 200 133"><filter id="b"><feGaussianBlur stdDeviation="12" /></filter><path fill="#756b73" d="M0 0h200v133H0z"/><g filter="url(#b)" transform="translate(.5 .5)" fill-opacity=".5"><ellipse fill="#fff" cx="158" cy="10" rx="59" ry="17"/><ellipse fill="#fff" rx="1" ry="1" transform="rotate(-4.9 151 -370.7) scale(35.26559 15.42771)"/><ellipse fill="#fff" rx="1" ry="1" transform="rotate(-93.1 78.8 18.3) scale(60.77275 7.76483)"/><ellipse fill="#23191f" rx="1" ry="1" transform="matrix(10.89172 -24.57856 82.12324 36.392 136.7 67.6)"/><ellipse fill="#030513" rx="1" ry="1" transform="matrix(-13.02613 17.44252 -53.38809 -39.87039 0 54.7)"/><ellipse fill="#ffd0c5" cx="47" cy="118" rx="75" ry="8"/><ellipse fill="#000009" cx="195" cy="60" rx="17" ry="35"/><path fill="#dbfcff" d="M115.7-14.7l54.4 79.5 10.6 9.6-22.9-58z"/><ellipse fill="#23001c" cx="170" cy="132" rx="61" ry="11"/><ellipse fill="#1a0c11" cx="131" cy="109" rx="8" ry="40"/><path fill="#000118" d="M165 27h35v17h-35z"/><ellipse fill="#4e5663" rx="1" ry="1" transform="matrix(-7.92602 5.04943 -43.2984 -67.96489 113.3 6)"/><ellipse fill="#f9e7ff" cx="189" rx="26" ry="26"/><ellipse fill="#ffffdf" cx="65" cy="95" rx="7" ry="46"/><ellipse fill="#cbe9ff" cx="14" cy="11" rx="41" ry="16"/><path fill="#bbe4f6" d="M30.6 11.4l-7.7 46.3-.8 21.7 22.7-64.1z"/><path fill="#2f1b25" d="M34 106L5 25l-18 95z"/><path fill="#f0c2a9" d="M126 38h7v35h-7z"/><ellipse fill="#aa5f57" cx="165" cy="101" rx="27" ry="15"/><ellipse fill="#d7bcc1" cx="88" cy="24" rx="52" ry="3"/><path fill="#aedbf7" d="M175 51.6l-27.2 24.1 30.5-17L195.9 45z"/><ellipse fill="#111118" cx="176" cy="79" rx="73" ry="8"/></g></svg>