<svg xmlns="http://www.w3.org/2000/svg" viewBox="0 0 700 467"><filter id="b"><feGaussianBlur stdDeviation="12" /></filter><path fill="#354f68" d="M0 0h700v464H0z"/><g filter="url(#b)" transform="translate(1.4 1.4) scale(2.73438)" fill-opacity=".5"><ellipse fill="#b2a291" cx="89" cy="97" rx="122" ry="34"/><ellipse rx="1" ry="1" transform="rotate(-178.2 80.1 74.6) scale(117.40975 29.26223)"/><ellipse cx="160" cy="93" rx="17" ry="17"/><ellipse fill="#00153c" rx="1" ry="1" transform="matrix(-36.72346 8.61341 -16.7745 -71.5184 243.6 100.4)"/><ellipse fill="#0050a8" rx="1" ry="1" transform="matrix(.08478 -24.28812 254.99849 .89012 118.5 15.5)"/><path fill="#e4f2ff" d="M177 69l34 46-38 3z"/><path fill="#94a6b4" d="M17 53h70v88H17z"/><ellipse rx="1" ry="1" transform="matrix(-6.87569 -42.54833 6.3933 -1.03314 99 103.5)"/><ellipse fill="#002a7c" cx="5" cy="80" rx="9" ry="221"/><ellipse fill="#c68246" cx="121" cy="94" rx="20" ry="46"/><path fill="#030c16" d="M235 174L58 114l-18 71z"/><ellipse fill="#fad2cb" cx="198" cy="63" rx="6" ry="31"/><path fill="#ffa65b" d="M45 26h15v26H45z"/><ellipse fill="#ffe1a6" rx="1" ry="1" transform="matrix(-4.93344 -12.45908 4.41769 -1.74928 163.8 62.9)"/><path fill="#e4ffff" d="M87.1 74l6.6 41.6-14.8 2.3-6.6-41.5z"/><path fill="#c89d84" d="M112 76l59 42-15 18z"/><ellipse fill="#261300" rx="1" ry="1" transform="rotate(80.2 55 176.4) scale(35.66233 16.46777)"/><path d="M189 179l1-87-25 89z"/><path fill="#ff893f" d="M134 26h12v31h-12z"/><ellipse fill="#1b5689" rx="1" ry="1" transform="matrix(17.67321 21.6085 -14.93017 12.21113 211.6 141.6)"/><ellipse fill="#060000" rx="1" ry="1" transform="matrix(-10.13217 -1.74185 3.158 -18.36981 159.5 103.7)"/><ellipse fill="#006cb5" rx="1" ry="1" transform="matrix(19.90063 16.79917 -31.95566 37.8553 4.8 41.1)"/></g></svg>