<svg xmlns="http://www.w3.org/2000/svg" viewBox="0 0 200 133"><filter id="b"><feGaussianBlur stdDeviation="12" /></filter><path fill="#615d5b" d="M0 0h200v133H0z"/><g filter="url(#b)" transform="translate(.5 .5)" fill-opacity=".5"><ellipse fill="#dcffff" rx="1" ry="1" transform="rotate(-143.7 76.4 28) scale(37.03647 45.40452)"/><ellipse fill="#080000" cx="20" cy="59" rx="49" ry="49"/><ellipse fill="#260000" cx="123" cy="7" rx="91" ry="22"/><path fill="#edffff" d="M32.8 93.8l30.9 16.5-8.5 15.9-30.9-16.5z"/><ellipse rx="1" ry="1" transform="rotate(52.8 -107.8 82.6) scale(23.17712 13.4981)"/><ellipse fill="#94c5f2" cx="81" cy="62" rx="14" ry="35"/><ellipse fill="#c2fcff" cx="106" cy="112" rx="18" ry="42"/><ellipse fill="#ffd8a9" cx="55" cy="31" rx="6" ry="19"/><ellipse fill="#babdbe" cx="183" cy="47" rx="18" ry="21"/><ellipse fill="#fae4da" cx="143" cy="53" rx="14" ry="14"/><path fill="#ffa600" d="M10 0h22v16H10z"/><path fill="#131b0e" d="M161 57h27v65h-27z"/><ellipse fill="#f1bb9b" cx="37" cy="53" rx="4" ry="27"/><path d="M86 103.7l-9.7 10.1L54 92.3l9.7-10.1z"/><path fill="#120000" d="M172.8 31.3l1.9-28.1L163 68.8 133-6.4z"/><path fill="#ff5b00" d="M162 24l12-10-13-30z"/><path fill="#def5ff" d="M63 98.5v9H29v-9z"/><ellipse fill="#7ca6d4" rx="1" ry="1" transform="matrix(-10.86755 -.38284 1.25265 -35.55836 88.7 129.5)"/><ellipse cx="19" cy="121" rx="11" ry="74"/><path fill="#2d4d75" d="M48 45l77 9 5 28z"/><path d="M64 7l34-23-34 65z"/><path fill="#3e75ad" d="M129.3 105.3l-22.4-49.6 30.5 31.8L74 113z"/></g></svg>