<svg xmlns="http://www.w3.org/2000/svg" viewBox="0 0 200 133"><filter id="b"><feGaussianBlur stdDeviation="12" /></filter><path fill="#726b87" d="M0 0h200v133H0z"/><g filter="url(#b)" transform="translate(.5 .5)" fill-opacity=".5"><ellipse fill="#fff" cx="28" cy="27" rx="38" ry="39"/><ellipse fill="#0b000e" rx="1" ry="1" transform="rotate(-6.7 552 -1508.6) scale(27.37615 96.68296)"/><ellipse fill="#0b0931" cx="20" cy="87" rx="91" ry="26"/><path fill="#f5c6e7" d="M181 99l-197 23 140 26z"/><ellipse fill="#fff" cx="23" cy="26" rx="40" ry="36"/><ellipse fill="#231936" cx="95" cy="72" rx="16" ry="48"/><ellipse fill="#ffffce" cx="117" cy="95" rx="8" ry="36"/><path fill="#fff" d="M23 0h39v63H23z"/><path fill="#cbb3dd" d="M73 98l-9-57-6 55z"/><ellipse fill="#31448e" cx="74" cy="30" rx="14" ry="36"/><ellipse fill="#85b0d2" rx="1" ry="1" transform="matrix(-3.52364 13.5558 -34.43696 -8.9514 91.6 4.6)"/><ellipse fill="#080000" rx="1" ry="1" transform="matrix(-3.58655 -3.80018 21.08134 -19.89625 156.7 128.8)"/><path fill="#32232e" d="M127 101l3-28 45 28z"/><path fill="#3e79c1" d="M-5.1 13.8l28.8-3.5L25 22.2l-28.8 3.5z"/><ellipse fill="#fff" rx="1" ry="1" transform="matrix(-7.73686 -16.31226 29.6841 -14.07908 25.1 39)"/><path fill="#121438" d="M130 0l-22 61 19-6z"/><ellipse fill="#1d0e2f" cx="179" cy="10" rx="32" ry="32"/><path fill="#150b18" d="M114.5 116.1l-11-21.6-2.9 23.6 13 1z"/><ellipse fill="#d6afc6" rx="1" ry="1" transform="matrix(-.24367 -4.30756 26.48415 -1.49816 76.4 112.6)"/><path fill="#3e387e" d="M63.5 118.6l1.4 5.8-52.4 13-1.4-5.8z"/><ellipse fill="#7389c2" cx="139" cy="39" rx="11" ry="44"/><ellipse fill="#1c1931" rx="1" ry="1" transform="matrix(-56.12995 9.79625 -2.35503 -13.49372 4.2 104.2)"/></g></svg>