<svg xmlns="http://www.w3.org/2000/svg" viewBox="0 0 200 133"><filter id="b"><feGaussianBlur stdDeviation="12" /></filter><path fill="#321e30" d="M0 0h200v133H0z"/><g filter="url(#b)" transform="translate(.5 .5)" fill-opacity=".5"><ellipse fill="#e1beff" rx="1" ry="1" transform="rotate(82.1 12.1 90.8) scale(30.42301 54.58124)"/><ellipse cx="92" cy="116" rx="199" ry="29"/><ellipse fill="#ff98f6" cx="156" cy="82" rx="28" ry="6"/><ellipse fill="#010000" rx="1" ry="1" transform="matrix(24.54471 -23.71506 68.55332 70.95159 180.5 29)"/><path fill="#ffcfff" d="M97 87l-1-21-78 14z"/><path fill="#ff4aff" d="M56 35l17 32 6-31z"/><ellipse cx="38" cy="24" rx="24" ry="47"/><ellipse fill="#4ce9ff" cx="102" cy="49" rx="18" ry="13"/><path fill="#ff13ff" d="M150.2 39.2L140 57.6l-12.2-6.8L138 32.4z"/><path d="M140 47h60v17h-60z"/><ellipse rx="1" ry="1" transform="matrix(91.66225 -1.00974 .15095 13.70335 114.6 22.4)"/><ellipse fill="#ffedff" cx="103" cy="80" rx="64" ry="4"/><ellipse rx="1" ry="1" transform="rotate(-93.2 127 -7) scale(32.91029 103.78437)"/><path d="M-15.6 58.8l89.2 6L44.4 27-6.4 48z"/><path fill="#ca7e79" d="M179 63l-22 2 20 21z"/><path fill="#ba378c" d="M32 62h17v24H32z"/><path fill="#c710b6" d="M215 43.9V29.8l-27.5-3 2.1 13.8z"/><ellipse fill="#0086ed" rx="1" ry="1" transform="matrix(5.2223 .576 -1.178 10.68029 125.4 45.4)"/><ellipse fill="#050000" cy="109" rx="46" ry="46"/><path fill="#e32cb9" d="M19 78h34v9H19z"/><path fill="#f43df9" d="M57 36h18v19H57z"/><path d="M180 27l-57 39 59-12z"/></g></svg>