<svg xmlns="http://www.w3.org/2000/svg" viewBox="0 0 200 133"><filter id="b"><feGaussianBlur stdDeviation="12" /></filter><path fill="#7a626e" d="M0 0h200v133H0z"/><g filter="url(#b)" transform="translate(.5 .5)" fill-opacity=".5"><ellipse fill="#fff" rx="1" ry="1" transform="rotate(33.3 27.2 306) scale(55.30912 59.88901)"/><ellipse fill="#000e5d" cx="25" cy="57" rx="38" ry="199"/><ellipse fill="#e20000" rx="1" ry="1" transform="matrix(-103.7883 -7.34763 2.13688 -30.18429 172.5 119.4)"/><ellipse fill="#fff" rx="1" ry="1" transform="rotate(-24.6 191.2 -397.6) scale(69.80236 40.33639)"/><ellipse fill="#5d0000" rx="1" ry="1" transform="matrix(18.27611 1.62054 -9.28821 104.7505 99.7 63.4)"/><ellipse fill="#002b61" cy="48" rx="65" ry="65"/><ellipse fill="#bf0000" cx="163" cy="113" rx="85" ry="25"/><path fill="#000017" d="M100 0h19v93h-19z"/><path fill="#ec0000" d="M84 0h15v133H84z"/><ellipse fill="#dcffff" rx="1" ry="1" transform="rotate(-80.8 81.3 -72) scale(72.95322 18.33303)"/><ellipse fill="#fff" cx="20" cy="128" rx="7" ry="7"/><ellipse fill="#fdffff" rx="1" ry="1" transform="matrix(7.46586 -29.68293 42.86225 10.78072 187.6 57.6)"/><ellipse fill="#001831" cx="57" cy="132" rx="30" ry="18"/><ellipse fill="#003161" rx="1" ry="1" transform="matrix(-34.62927 -1.72849 5.16653 -103.5087 30.8 19.9)"/><path fill="#fcffff" d="M118 67h82v22h-82z"/><path fill="#88a696" d="M78.3 124l-1 9.6L87-16 50.7 93z"/><path fill="#40d428" d="M134.5 32.3l-.8-7 29.8-3.6.8 7z"/><path fill="#004480" d="M57.6 61l-7.9 64.5-85.3-10.5 7.9-64.5z"/><ellipse fill="#990300" cx="108" cy="119" rx="31" ry="31"/><ellipse fill="#004c93" cx="120" cy="132" rx="9" ry="9"/><ellipse fill="#c41100" rx="1" ry="1" transform="rotate(-87.5 148.2 -22.4) scale(38.12559 39.69807)"/><ellipse fill="#001b44" cx="29" cy="16" rx="35" ry="35"/></g></svg>