<svg xmlns="http://www.w3.org/2000/svg" viewBox="0 0 200 133"><filter id="b"><feGaussianBlur stdDeviation="12" /></filter><path fill="#929ea4" d="M0 0h200v133H0z"/><g filter="url(#b)" transform="translate(.5 .5)" fill-opacity=".5"><ellipse fill="#412900" rx="1" ry="1" transform="matrix(-75.77169 5.03275 -1.16688 -17.56818 139.7 57.4)"/><ellipse fill="#fff" rx="1" ry="1" transform="rotate(72.8 -51.3 91.2) scale(31.84506 66.15511)"/><ellipse fill="#410800" rx="1" ry="1" transform="rotate(133.1 61.8 101.5) scale(67.85754 23.27695)"/><ellipse fill="#4fcfff" cx="69" cy="20" rx="100" ry="26"/><ellipse fill="#c36c13" rx="1" ry="1" transform="matrix(-28.4586 -1.77047 4.25154 -68.33946 198 20.4)"/><ellipse rx="1" ry="1" transform="matrix(.44685 -15.05601 24.53217 .7281 135.7 58)"/><ellipse fill="#210000" cx="112" cy="132" rx="18" ry="18"/><ellipse fill="#f2ecef" cx="1" cy="111" rx="24" ry="127"/><ellipse fill="#f9faff" rx="1" ry="1" transform="matrix(-8.35674 -12.32686 10.17997 -6.9013 137.4 28.2)"/><path fill="#1387e9" d="M162 42L82 20-8 47z"/><path fill="#3647ff" d="M147 6h22v36h-22z"/><ellipse fill="#d3c4b9" cx="173" cy="82" rx="12" ry="25"/><path fill="#ddd7cd" d="M48 148l62-115-2 84z"/><ellipse fill="#f1e9df" cx="47" cy="113" rx="48" ry="32"/><ellipse fill="#382905" rx="1" ry="1" transform="rotate(-9.6 508.6 -772.5) scale(7.27157 26.8367)"/><path fill="#fff" d="M-11.2-9l25-1 1.4 41-25 1z"/><path fill="#5cc0ff" d="M17 4h107v31H17z"/><path fill="#4f320f" d="M163 148l45-48-59 8z"/><ellipse fill="#5d3c00" cx="82" cy="56" rx="13" ry="13"/><ellipse fill="#b9703a" cx="199" rx="120" ry="7"/><ellipse fill="#b0a29a" cx="15" cy="67" rx="58" ry="22"/><ellipse fill="#e8d4c8" cx="144" cy="116" rx="6" ry="20"/></g></svg>