<svg xmlns="http://www.w3.org/2000/svg" viewBox="0 0 700 467"><filter id="b"><feGaussianBlur stdDeviation="12" /></filter><path fill="#4d3876" d="M0 0h700v464H0z"/><g filter="url(#b)" transform="translate(1.4 1.4) scale(2.73438)" fill-opacity=".5"><ellipse fill="#f9c8ff" rx="1" ry="1" transform="matrix(-30.3084 22.01975 -39.10365 -53.82302 133.2 78.8)"/><ellipse cx="86" cy="158" rx="177" ry="28"/><ellipse fill="#f27dff" cx="53" cy="106" rx="62" ry="18"/><ellipse fill="#00004d" rx="1" ry="1" transform="matrix(-34.88168 -42.61708 54.96989 -44.99233 25.6 37.1)"/><ellipse fill="#e888fa" cx="223" cy="122" rx="106" ry="18"/><path fill="#fbffff" d="M192.1 38.2L239.3 52l-47.4 16.2-5.6-10.4z"/><ellipse fill="#000034" rx="1" ry="1" transform="matrix(-168.07819 .88006 -.14363 -27.4307 194 0)"/><path d="M249-16l22 137-42-40z"/><ellipse rx="1" ry="1" transform="matrix(-2.89677 28.32761 -131.83076 -13.48094 45.4 152.3)"/><ellipse fill="#c5c4d9" cx="140" cy="46" rx="25" ry="25"/><ellipse fill="#010075" cx="137" cy="77" rx="129" ry="7"/><path fill="#020043" d="M146 54l5-18-29 9z"/><path fill="#27004e" d="M80 96h55v13H80z"/><path fill="#cebce4" d="M134 87h103v12H134z"/><ellipse fill="#ffe0d9" cx="108" cy="52" rx="22" ry="19"/><ellipse fill="#756442" rx="1" ry="1" transform="matrix(.66238 -9.47254 73.0366 5.10722 190.4 145)"/><path fill="#fff" d="M37.1 111.7l-.2-17 20-.4.2 17z"/><ellipse fill="#000045" cy="35" rx="53" ry="53"/><ellipse fill="#0a0048" rx="1" ry="1" transform="matrix(4.90835 -2.67612 11.54292 21.1712 222 97)"/><path fill="#5d6bff" d="M209 43h29v29h-29z"/><path fill="#1300a8" d="M163 18h26v64h-26z"/><path fill="#c563f8" d="M32 70.5v12.3l-48 43.7L39.5 89z"/></g></svg>