<svg xmlns="http://www.w3.org/2000/svg" viewBox="0 0 200 133"><filter id="b"><feGaussianBlur stdDeviation="12" /></filter><path fill="#999899" d="M0 0h200v133H0z"/><g filter="url(#b)" transform="translate(.5 .5)" fill-opacity=".5"><ellipse fill="#fff" cx="115" rx="80" ry="80"/><ellipse fill="#220e00" cx="112" cy="114" rx="199" ry="49"/><ellipse fill="#f8ffff" rx="1" ry="1" transform="matrix(198.93062 -5.25447 .85681 32.43827 101.3 23.7)"/><ellipse rx="1" ry="1" transform="matrix(-50.88819 86.7261 -17.39923 -10.20933 195.1 117.4)"/><ellipse fill="#aa8d76" cx="158" cy="80" rx="22" ry="22"/><ellipse fill="#c4b6af" rx="1" ry="1" transform="matrix(-61.56995 8.1791 -.85825 -6.46066 90.9 69.4)"/><path fill="#e8f6ff" d="M215 63l-18-79L-16 6z"/><path fill="#fdffff" d="M14 125h19v8H14z"/><path fill="#604e3e" d="M56 78.9l-45-9.6 48.6-15.4 9 7.2z"/><path fill="#edcfb3" d="M134.2 89.1l2-11.8 31.6 5.6-2 11.8z"/><ellipse fill="#544a45" cx="163" cy="69" rx="26" ry="9"/><path fill="#3e291c" d="M180.4 41.7l6-.3 1.2 23-6 .2z"/><ellipse fill="#c7dcf6" rx="1" ry="1" transform="rotate(-8.5 236.3 17.6) scale(72.85619 32.57113)"/><ellipse fill="#433f36" rx="1" ry="1" transform="matrix(-11.89154 40.5077 -60.92269 -17.88461 102.4 132)"/><path fill="#bec1c0" d="M85 64L51 90l25-57z"/><ellipse fill="#d0e1f4" cx="123" cy="50" rx="31" ry="20"/><path fill="#907464" d="M57 71h86v13H57z"/><ellipse fill="#000101" rx="1" ry="1" transform="matrix(-24.70644 12.75194 -6.61849 -12.82308 199 121)"/><ellipse fill="#ddc1a5" cx="163" cy="66" rx="6" ry="6"/><path d="M176 52h2v18h-2z"/><path fill="#8a9eb1" d="M134.2 124.2l32.8-3.4.8 7-32.8 3.4z"/><path fill="#4d3c39" d="M159 138l11-53 45-22z"/></g></svg>