<svg xmlns="http://www.w3.org/2000/svg" viewBox="0 0 700 467"><filter id="b"><feGaussianBlur stdDeviation="12" /></filter><path fill="#777967" d="M0 0h700v464H0z"/><g filter="url(#b)" transform="translate(1.4 1.4) scale(2.73438)" fill-opacity=".5"><ellipse fill="#fff" cx="97" cy="162" rx="58" ry="26"/><ellipse fill="#fff" cx="20" cy="25" rx="135" ry="16"/><ellipse fill="#192c00" rx="1" ry="1" transform="matrix(-43.70987 -.22887 1.05971 -202.38878 207.7 133)"/><ellipse fill="#fff" cx="131" cy="86" rx="19" ry="35"/><ellipse fill="#dbf7ff" cx="46" cy="104" rx="15" ry="45"/><ellipse fill="#190000" rx="1" ry="1" transform="matrix(.60885 57.0543 -16.93002 .18067 94.6 82)"/><ellipse rx="1" ry="1" transform="matrix(26.70633 51.12749 -14.257 7.44711 183.2 146.4)"/><ellipse cx="2" cy="105" rx="14" ry="57"/><ellipse fill="#fff" cx="255" cy="26" rx="10" ry="58"/><path fill="#dcdbae" d="M224 139.4l-27-.6 11.3-16.7 14-34.9z"/><ellipse fill="#fff" rx="1" ry="1" transform="rotate(169.4 53.1 88.3) scale(21.14235 32.24987)"/><path fill="#fff" d="M136 39l-5-25-84 1z"/><path fill="#284100" d="M138 51l-5-49 33 79z"/><ellipse fill="#a4b6fe" cx="39" cy="93" rx="25" ry="25"/><path d="M107.7 109.8l-29.3-6.7 10-43 29.2 6.8z"/><path fill="#aebc7b" d="M182 27l16 77-59-75z"/><path d="M166 153h76v17h-76z"/><ellipse fill="#fff" cx="3" cy="29" rx="10" ry="22"/><path fill="#2c2028" d="M29.8 74.5l36.6-40.3-47 20.8 12.1 38.4z"/><ellipse fill="#573b2e" rx="1" ry="1" transform="matrix(12.17818 -38.99117 16.99082 5.30677 18.8 147.7)"/><ellipse fill="#00000c" rx="1" ry="1" transform="rotate(103.6 -14.4 85.8) scale(26.84036 4.73951)"/><path fill="#fff" d="M76.3 31.6l7.2 3.4-11.8 25.4-7.2-3.4z"/></g></svg>