<svg xmlns="http://www.w3.org/2000/svg" viewBox="0 0 200 133"><filter id="b"><feGaussianBlur stdDeviation="12" /></filter><path fill="#3e2a28" d="M0 0h200v133H0z"/><g filter="url(#b)" transform="translate(.5 .5)" fill-opacity=".5"><path fill="#a2684e" d="M-13-16l67 68 47-43z"/><ellipse cx="40" cy="89" rx="34" ry="38"/><ellipse fill="#2352b0" rx="1" ry="1" transform="matrix(13.40826 5.69147 -12.3986 29.20928 187.8 24)"/><path fill="#927075" d="M130 109l25-87 10 96z"/><path fill="#ffae94" d="M107 71h10v24h-10z"/><path fill="#f4a063" d="M20 45.2L-6.3 57l-3.7-8.2L16.4 37z"/><path d="M94 8h21v40H94z"/><ellipse fill="#090707" cx="177" cy="67" rx="25" ry="19"/><path d="M119 66l19-33 11 54z"/><path fill="#d15a50" d="M122.1 38.3l-7.6-10.5 19.4-14.1 7.6 10.5z"/><ellipse cx="147" rx="28" ry="19"/><ellipse fill="#240004" cx="115" cy="117" rx="25" ry="25"/><path fill="#7f2f26" d="M134 26L86 54l-4 65z"/><path fill="#090001" d="M68.5 45.1l-10.1-32 5 51.5L120 45.8z"/><path fill="#f49e8c" d="M64.7 21.3L77.8 12l7.5 10.6L72.2 32z"/><path fill="#ffbc9f" d="M57.3 35.5l-6 6.9-5.2-17.2 9.7-4.5z"/><path fill="#a492ac" d="M159 107l-8-14 19-16z"/><path fill="#b7745c" d="M137.2 69.3l16.4-15.2-3.4 23.2-31.7-21.1z"/><path fill="#e8a184" d="M97 51l-12 4 13 7z"/><ellipse fill="#653a26" cx="5" cy="17" rx="25" ry="25"/><ellipse fill="#ea9a7e" cx="150" cy="58" rx="4" ry="17"/><path fill="#b1695f" d="M168 5.9l15 1.3-1 11-15-1.4z"/></g></svg>