<svg xmlns="http://www.w3.org/2000/svg" viewBox="0 0 700 467"><filter id="b"><feGaussianBlur stdDeviation="12" /></filter><path fill="#515252" d="M0 0h700v464H0z"/><g filter="url(#b)" transform="translate(1.4 1.4) scale(2.73438)" fill-opacity=".5"><ellipse fill="#fafff8" cx="189" cy="15" rx="69" ry="48"/><ellipse fill="#ebe9d7" rx="1" ry="1" transform="matrix(-131.94603 63.61737 -14.66498 -30.416 35 15)"/><ellipse rx="1" ry="1" transform="matrix(-252.64256 34.59389 -6.93606 -50.65472 139 138)"/><ellipse fill="#81746c" cx="105" cy="99" rx="30" ry="42"/><ellipse fill="#ffffc5" rx="1" ry="1" transform="matrix(-5.07948 .57938 -2.37476 -20.81988 169 102.4)"/><ellipse fill="#2f2405" rx="1" ry="1" transform="matrix(-3.70446 -28.562 12.82907 -1.66392 72.6 34.7)"/><path fill="#f1ffff" d="M180-16l42 36L67 3z"/><ellipse fill="#3d3316" cx="132" cy="26" rx="16" ry="16"/><ellipse fill="#b8a380" rx="1" ry="1" transform="matrix(15.23593 18.08689 -28.76535 24.2312 15 55.4)"/><ellipse fill="#030c16" cx="24" cy="132" rx="48" ry="48"/><ellipse fill="#000017" cx="246" cy="92" rx="43" ry="37"/><ellipse fill="#cbbfbc" rx="1" ry="1" transform="rotate(-154.4 83.4 11) scale(17.73338 20.45434)"/><ellipse fill="#876844" cx="186" cy="47" rx="22" ry="22"/><ellipse fill="#00020b" rx="1" ry="1" transform="matrix(-15.47994 -43.12848 92.20823 -33.09595 194.4 157.4)"/><path fill="#e7edff" d="M44 58h4v77h-4z"/><ellipse fill="#ffffda" cx="122" cy="23" rx="35" ry="4"/><ellipse fill="#c0d3e2" cx="112" cy="2" rx="255" ry="11"/><path fill="#fcfcff" d="M54 59h5v37h-5z"/><ellipse fill="#262110" rx="1" ry="1" transform="matrix(12.62186 2.40775 -5.58086 29.25587 121 51.8)"/><path fill="#e2f6ff" d="M233 0h9v57h-9z"/><ellipse fill="#c3a599" cx="90" cy="68" rx="17" ry="10"/><path fill="#b19690" d="M25.7 53.2l38.7 4.7-2 17L23.5 70z"/></g></svg>