<svg xmlns="http://www.w3.org/2000/svg" viewBox="0 0 200 133"><filter id="b"><feGaussianBlur stdDeviation="12" /></filter><path fill="#897986" d="M0 0h200v133H0z"/><g filter="url(#b)" transform="translate(.5 .5)" fill-opacity=".5"><ellipse fill="#2e0c05" cx="59" cy="124" rx="57" ry="57"/><ellipse fill="#edd8ff" cx="149" cy="2" rx="134" ry="26"/><ellipse fill="#fff" rx="1" ry="1" transform="matrix(-4.74438 -43.67274 20.15263 -2.18928 187.4 108.5)"/><ellipse fill="#fff" cx="20" cy="66" rx="19" ry="19"/><path fill="#00078a" d="M139.6 135.2l-1.2-66 24-.4 1.2 66z"/><ellipse fill="#322d19" cx="57" cy="58" rx="20" ry="32"/><path fill="#fff" d="M98 50h18v36H98z"/><ellipse fill="#4e199e" cx="114" cy="24" rx="19" ry="19"/><ellipse fill="#f7f6eb" cx="164" cy="19" rx="13" ry="30"/><ellipse fill="#a6180b" rx="1" ry="1" transform="matrix(-17.88856 -10.69904 13.47883 -22.5363 18.2 109.7)"/><path d="M139 52h9v44h-9z"/><ellipse fill="#172528" cx="55" cy="107" rx="15" ry="52"/><ellipse fill="#fff" rx="1" ry="1" transform="rotate(102.2 60 113) scale(29.75453 5.1527)"/><path fill="#57322b" d="M194 58.4l15.7 2.7-5.7 32.5-15.7-2.7z"/><path fill="#212021" d="M82 28l9 54 9-31z"/><ellipse fill="#231e0c" rx="1" ry="1" transform="matrix(5.78674 -15.63158 4.9433 1.82999 172.5 59.3)"/><path fill="#44301c" d="M114 45h30v16h-30z"/><path fill="#496470" d="M77.8 155.2L65.4 96.5l54.8-11.7 12.4 58.7z"/><path fill="#94c0cb" d="M129.4 130.1l-21.1-18.3 24.3-28 21.1 18.4z"/><ellipse fill="#a17d82" cx="42" cy="20" rx="22" ry="35"/><ellipse fill="#f5fcf6" rx="1" ry="1" transform="matrix(7.88237 -10.55446 27.16034 20.2841 138.8 0)"/><path fill="#edd6c3" d="M128.6 71.5L122.4 41l26.8 4.5-13.8-17.1z"/></g></svg>