<svg xmlns="http://www.w3.org/2000/svg" viewBox="0 0 200 133"><filter id="b"><feGaussianBlur stdDeviation="12" /></filter><path fill="#37405e" d="M0 0h200v133H0z"/><g filter="url(#b)" transform="translate(.5 .5)" fill-opacity=".5"><ellipse fill="#fff" cx="164" cy="74" rx="10" ry="27"/><ellipse fill="#000008" cx="52" rx="53" ry="53"/><ellipse fill="#dff" cx="199" cy="58" rx="10" ry="44"/><ellipse fill="#c0ffff" cx="28" cy="71" rx="11" ry="21"/><ellipse fill="#8d7e93" cx="94" cy="93" rx="39" ry="39"/><ellipse fill="#000010" cx="127" cy="30" rx="34" ry="19"/><path fill="#1a40d7" d="M198 11l17 24-101 30z"/><path fill="#020000" d="M158 148h45L185 45z"/><path fill="#c7d4d7" d="M67 115h48v15H67z"/><ellipse fill="#192a18" cx="84" cy="110" rx="140" ry="6"/><path fill="#fff3ff" d="M83 63l26-7 23 15z"/><ellipse cx="43" cy="70" rx="5" ry="40"/><ellipse fill="#5976c5" rx="1" ry="1" transform="rotate(-179.3 46 1.9) scale(18.62976 7.34323)"/><path fill="#d7ffff" d="M157 56h18v40h-18z"/><path fill="#000772" d="M101.5 32.4l10.6 17-35.6 22.2-10.6-17z"/><path d="M7 2h9v131H7z"/><ellipse fill="#0d1449" cx="98" cy="76" rx="58" ry="7"/><path fill="#0a0000" d="M58.8 153.8L14.6 135l10.6-24.8L69.4 129z"/><ellipse fill="#1476f7" cx="134" cy="62" rx="14" ry="11"/><path fill="#8bcaff" d="M-16 48L5 62l3-35z"/><path fill="#f8b7b9" d="M89 85h39v10H89z"/><path fill="#cdf0ff" d="M191 43h9v48h-9z"/></g></svg>