<svg xmlns="http://www.w3.org/2000/svg" viewBox="0 0 700 467"><filter id="b"><feGaussianBlur stdDeviation="12" /></filter><path fill="#877d78" d="M0 0h700v464H0z"/><g filter="url(#b)" transform="translate(1.4 1.4) scale(2.73438)" fill-opacity=".5"><ellipse rx="1" ry="1" transform="matrix(-3.12037 30.76938 -253.69878 -25.72797 107 104)"/><ellipse fill="#fff" rx="1" ry="1" transform="matrix(-1.87806 25.02037 -234.55038 -17.60562 95.6 161.6)"/><ellipse fill="#fff" rx="1" ry="1" transform="matrix(-254.96933 3.9547 -.50204 -32.36798 118.4 0)"/><ellipse fill="#0f0000" cx="89" cy="113" rx="35" ry="35"/><ellipse fill="#fff" cx="13" cy="25" rx="30" ry="30"/><ellipse fill="#2c0a00" rx="1" ry="1" transform="matrix(26.3317 -24.81374 11.40339 12.10098 134.3 56)"/><ellipse fill="#fff" cx="38" cy="169" rx="43" ry="43"/><ellipse fill="#fff" cx="144" cy="165" rx="71" ry="30"/><ellipse fill="#411f0c" cx="199" cy="66" rx="49" ry="16"/><ellipse fill="#d6e2ed" rx="1" ry="1" transform="matrix(-120.6213 -21.98668 3.42175 -18.77211 197.7 20.5)"/><ellipse fill="#2a0b00" rx="1" ry="1" transform="matrix(205.85966 34.4491 -3.0186 18.03842 155.8 117)"/><path fill="#b9b8b1" d="M162.4 76.7l19 4.2-35 21.4 19.2-62z"/><path fill="#ecf9f5" d="M123.7 69.8l1.5-5.7-7 31.7 19.4-40.3z"/><path fill="#1c0700" d="M155 74L47 119l39 32z"/><path fill="#b9a79b" d="M30 75l-8 41-5-67z"/><path fill="#f8ffff" d="M260.8 108.5l-14.9-2.3 3.3-20.7 14.9 2.3z"/><ellipse fill="#371301" cx="85" cy="38" rx="44" ry="4"/><ellipse fill="#361c0e" cy="111" rx="99" ry="17"/><ellipse fill="#fff" rx="1" ry="1" transform="matrix(-56.84026 -32.05436 12.70436 -22.52795 42.6 169)"/><path fill="#d1d6d0" d="M120.5 92.1l5-20.1 23.5 6-20 4.3z"/><path fill="#210100" d="M131.2 27.8l27.9 2.5-2.3 25.9-27.9-2.5z"/><ellipse fill="#321202" rx="1" ry="1" transform="matrix(-4.46494 30.98457 -3.4125 -.49175 247.2 72.3)"/></g></svg>