<svg xmlns="http://www.w3.org/2000/svg" viewBox="0 0 700 467"><filter id="b"><feGaussianBlur stdDeviation="12" /></filter><path fill="#5c4843" d="M0 0h700v464H0z"/><g filter="url(#b)" transform="translate(1.4 1.4) scale(2.73438)" fill-opacity=".5"><ellipse fill="#fff" rx="1" ry="1" transform="matrix(-30.5641 3.00148 -1.45426 -14.80868 114 142.4)"/><path fill="#f7bce9" d="M167 139h40v23h-40z"/><ellipse fill="#c59861" cx="245" cy="103" rx="48" ry="34"/><path fill="#fff" d="M92.9 56.7l26.7-2.9L125 36l-23.6 5.6z"/><ellipse fill="#00000c" rx="1" ry="1" transform="rotate(-3.7 2631.6 -825) scale(18.56494 40.41423)"/><ellipse fill="#000009" rx="1" ry="1" transform="matrix(13.26675 -1.82097 5.44302 39.6554 152.3 110.2)"/><ellipse fill="#1b100e" rx="1" ry="1" transform="matrix(45.1254 111.64616 -18.03483 7.28936 0 24.7)"/><ellipse fill="#000002" cx="251" cy="156" rx="38" ry="18"/><path fill="#0073ff" d="M182.3 79l-4.6-16.3-29-1.7-3.2 13.7z"/><ellipse fill="#1b0000" cx="74" cy="59" rx="14" ry="46"/><path fill="#d4b2b7" d="M32 151L-6 93l-10 55z"/><path fill="#3c2b17" d="M121 0h135v62H121z"/><path fill="#ecd9b8" d="M256 77l-51-5-36 20z"/><ellipse fill="#ffb6a4" rx="1" ry="1" transform="matrix(-15.51717 .30396 -.1097 -5.60004 150.6 43.5)"/><ellipse fill="#a799b8" rx="1" ry="1" transform="rotate(169.3 44.4 87.9) scale(23.54912 45.30239)"/><path fill="#f2d49c" d="M13 12h27v13H13z"/><path fill="#c67d47" d="M42 84h24v36H42z"/><ellipse cx="9" cy="6" rx="19" ry="12"/><ellipse fill="#fefbf3" rx="1" ry="1" transform="rotate(-96.8 116.5 19.3) scale(6.86781 23.10661)"/><path fill="#f6a76e" d="M35 39l28-12-15 27z"/><path fill="#f0f8f6" d="M267.8 132.3l-8.2 7.4-23.4-26 8.2-7.4z"/><path fill="#ffffab" d="M116.3 107.2h23.3l-24-24 13.3 22.5z"/></g></svg>