<svg xmlns="http://www.w3.org/2000/svg" viewBox="0 0 200 133"><filter id="b"><feGaussianBlur stdDeviation="12" /></filter><path fill="#5d5c50" d="M0 0h200v133H0z"/><g filter="url(#b)" transform="translate(.5 .5)" fill-opacity=".5"><ellipse fill="#ebffff" cx="43" cy="118" rx="42" ry="42"/><ellipse rx="1" ry="1" transform="rotate(-101.2 40.5 -24.2) scale(30.62656 198.99997)"/><ellipse fill="#fff" cx="138" cy="66" rx="19" ry="41"/><ellipse cx="195" cy="55" rx="33" ry="56"/><path fill="#fcffff" d="M193.3 146.5l-20-8.9 13.4-30.1 20 8.9z"/><ellipse fill="#a8e6ff" rx="1" ry="1" transform="matrix(10.8699 -57.77719 18.98151 3.57108 49.3 110.8)"/><ellipse fill="#0f0c00" rx="1" ry="1" transform="matrix(63.00095 -122.58659 19.43575 9.98862 158.3 117.3)"/><path fill="#f3cebe" d="M134 14h28v46h-28z"/><ellipse fill="#080400" cx="24" cy="34" rx="37" ry="37"/><ellipse fill="#c29e63" cx="106" cy="113" rx="32" ry="20"/><ellipse fill="#6f520d" rx="1" ry="1" transform="matrix(-13.58448 -20.88154 24.45884 -15.91169 88.2 75.6)"/><path d="M67 0h20v70H67z"/><ellipse fill="#fff" rx="1" ry="1" transform="rotate(14.7 -370.9 227) scale(25.03302 7.81542)"/><ellipse fill="#f1dfe7" cx="131" cy="91" rx="9" ry="25"/><ellipse fill="#918944" rx="1" ry="1" transform="matrix(16.17408 10.00457 -24.811 40.11117 0 98.8)"/><ellipse fill="#2b1b1f" rx="1" ry="1" transform="matrix(16.14506 3.25541 -.66961 3.3209 145.3 62.8)"/><path fill="#bfbea1" d="M121 37l-35-9 17 23z"/><path fill="#174680" d="M65 23.8L52.2 73.5 24.5 89 52 30.2z"/><path fill="#8a4500" d="M117 11h55v16h-55z"/><path fill="#e3e1e3" d="M127 36h42v15h-42z"/><ellipse cx="189" cy="5" rx="33" ry="17"/><ellipse rx="1" ry="1" transform="rotate(-93.8 57.6 -51.7) scale(9.8858 46.90307)"/></g></svg>