<svg xmlns="http://www.w3.org/2000/svg" viewBox="0 0 200 133"><filter id="b"><feGaussianBlur stdDeviation="12" /></filter><path fill="#60664e" d="M0 0h200v133H0z"/><g filter="url(#b)" transform="translate(.5 .5)" fill-opacity=".5"><ellipse fill="#fdf7ff" cx="6" cy="103" rx="30" ry="77"/><ellipse fill="#000c00" cx="84" cy="92" rx="34" ry="34"/><ellipse fill="#e4e1ff" cx="133" cy="130" rx="31" ry="28"/><ellipse fill="#061b00" rx="1" ry="1" transform="matrix(-1.06024 -68.03195 27.32371 -.42583 173 30.7)"/><ellipse rx="1" ry="1" transform="matrix(6.87354 -14.55953 66.4984 31.39384 19 5.3)"/><path fill="#fff" d="M-16 148l122-13L-7 99z"/><ellipse fill="#fffff3" rx="1" ry="1" transform="matrix(-16.33782 -5.08912 5.6598 -18.1699 52.4 53.9)"/><path fill="#e4d5a2" d="M146.7 77.5L81.9 45.9l11.4-23.4 64.8 31.6z"/><ellipse rx="1" ry="1" transform="matrix(-9.18758 -23.44687 17.20807 -6.74293 109 1.2)"/><ellipse fill="#040000" cx="27" cy="30" rx="12" ry="27"/><path fill="#1d3500" d="M22.5 85.8L37 117.3h77.2l7.7-62.7z"/><path fill="#cbbf90" d="M113 96l31-6-5-46z"/><path d="M26-16l-9 52 64-6z"/><ellipse fill="#263600" cx="177" cy="5" rx="69" ry="44"/><path fill="#e2daa8" d="M77.3 11.2l-15.2 2.4L30.5-16h60.4z"/><ellipse fill="#696aa7" rx="1" ry="1" transform="rotate(-143.9 114.8 24.2) scale(21.01981 63.33079)"/><path d="M66.2 32.1l15-.2.6 32-15 .2z"/><ellipse fill="#d7d0a3" rx="1" ry="1" transform="matrix(14.686 -3.2558 3.69863 16.68343 97.8 43.5)"/><path fill="#fff" d="M-2.4 46.2l.8-21 18 .6-.8 21z"/><path fill="#dedfd6" d="M-16 77l65-6 16-39z"/><path fill="#d4d4ef" d="M8 126h148v7H8z"/><path fill="#243300" d="M181.2 37L205 58.4 164.8 103 141 81.6z"/></g></svg>