<svg xmlns="http://www.w3.org/2000/svg" viewBox="0 0 200 133"><filter id="b"><feGaussianBlur stdDeviation="12" /></filter><path fill="#a3867f" d="M0 0h200v133H0z"/><g filter="url(#b)" transform="translate(.5 .5)" fill-opacity=".5"><ellipse cx="125" cy="74" rx="29" ry="28"/><ellipse fill="#ffffe9" cx="51" cy="15" rx="94" ry="25"/><ellipse fill="#7f0000" rx="1" ry="1" transform="matrix(5.1176 34.6563 -18.57955 2.74359 47.2 68.7)"/><ellipse fill="#f3ffff" cx="166" cy="76" rx="13" ry="27"/><ellipse fill="#000026" rx="1" ry="1" transform="matrix(19.78196 -39.41614 9.32478 4.67987 192.4 84)"/><ellipse fill="#5c1800" cx="159" cy="13" rx="17" ry="17"/><path fill="#faf6ff" d="M83.4 77.7l-13.6 4-5.3-37.4 36.4 4.5z"/><ellipse fill="#d0dfff" cx="16" cy="98" rx="19" ry="19"/><ellipse fill="#6d4a33" rx="1" ry="1" transform="rotate(101.9 22.3 114) scale(11.53533 67.04568)"/><path fill="#ffeed6" d="M136 69l9-85-34 29z"/><ellipse fill="#000005" rx="1" ry="1" transform="matrix(1.96542 17.8222 -8.09064 .89223 36.7 73)"/><ellipse rx="1" ry="1" transform="rotate(-171 61.9 34) scale(9.14196 24.88604)"/><ellipse fill="#f1cfa5" rx="1" ry="1" transform="rotate(122.8 -14.8 31.8) scale(24.04475 27.77761)"/><ellipse fill="#fff4dd" cx="56" cy="14" rx="41" ry="17"/><ellipse fill="#f10000" cx="58" cy="72" rx="8" ry="27"/><path fill="#cdcfdc" d="M45 48h5v67h-5z"/><path d="M215 77l-25 12 2-53z"/><ellipse fill="#324a7b" rx="1" ry="1" transform="matrix(-8.5273 -2.47741 5.97307 -20.55943 83.5 102)"/><path fill="#cd9271" d="M30 33h91v16H30z"/><path d="M143 43l11 50-21-5z"/><path fill="#c037cc" d="M192 49.5L182 47l-4.7 31.4 7.2 35.4z"/><path fill="#e3c2c3" d="M93 77h14v12H93z"/></g></svg>