<svg xmlns="http://www.w3.org/2000/svg" viewBox="0 0 200 133"><filter id="b"><feGaussianBlur stdDeviation="12" /></filter><path fill="#837374" d="M0 0h200v133H0z"/><g filter="url(#b)" transform="translate(.5 .5)" fill-opacity=".5"><ellipse fill="#fff" cx="170" cy="3" rx="199" ry="37"/><path d="M150.8 191.3l-62.1-66.6 96.5-90 62.1 66.6z"/><ellipse fill="#220200" cx="58" cy="72" rx="27" ry="27"/><path fill="#fff" d="M35.6-.4l14.5 4.1-23.7 82.7-14.5-4.1z"/><ellipse fill="#0b000a" rx="1" ry="1" transform="matrix(84.77927 -13.88314 2.81085 17.16486 77.8 132.5)"/><ellipse fill="#fefaff" cx="76" cy="2" rx="191" ry="24"/><ellipse fill="#050416" cx="170" cy="78" rx="32" ry="29"/><path fill="#fff9de" d="M147 67l-40 8 19 19z"/><ellipse fill="#691f00" rx="1" ry="1" transform="matrix(11.68886 -1.97914 2.30397 13.6073 92.8 37.8)"/><path fill="#fbfaf5" d="M161.6 99l2.9 32.8 7 14.6-5.4-42.8z"/><ellipse fill="#613d40" rx="1" ry="1" transform="matrix(10.43575 0 0 23.63076 182.7 37.7)"/><ellipse rx="1" ry="1" transform="matrix(9.56391 -2.79668 6.15962 21.06424 117.3 107.4)"/><path fill="#fff" d="M170-14L142 8l27 49z"/><path fill="#090500" d="M65 91h13v42H65z"/><path fill="#e8d9d0" d="M79 81h25v24H79z"/><ellipse fill="#3900dc" cx="118" rx="14" ry="9"/><ellipse fill="#342721" cx="127" cy="64" rx="96" ry="7"/><path fill="#fff8ff" d="M14 60L9 8 0 26z"/><ellipse fill="#f6d2c5" rx="1" ry="1" transform="rotate(-82.4 83.6 -52) scale(15.9993 21.17598)"/><path fill="#9c5025" d="M45 25h17v37H45z"/><ellipse fill="#b8693d" rx="1" ry="1" transform="rotate(179.3 -.3 49.5) scale(22.08517 48.04273)"/><path fill="#0d0500" d="M38 52h8v81h-8z"/></g></svg>