<svg xmlns="http://www.w3.org/2000/svg" viewBox="0 0 200 133"><filter id="b"><feGaussianBlur stdDeviation="12" /></filter><path fill="#a7a7ae" d="M0 0h200v133H0z"/><g filter="url(#b)" transform="translate(.5 .5)" fill-opacity=".5"><ellipse fill="#07102c" rx="1" ry="1" transform="matrix(-3.91106 -75.75268 27.3581 -1.41248 103.5 109)"/><ellipse fill="#f9ffff" cx="6" cy="50" rx="77" ry="77"/><ellipse cx="195" cy="90" rx="15" ry="55"/><path fill="#fff" d="M111 10h72v29h-72z"/><ellipse fill="#050000" cx="100" cy="132" rx="15" ry="41"/><ellipse fill="#364867" rx="1" ry="1" transform="matrix(-19.45538 -3.2217 1.35117 -8.1595 35.8 54)"/><ellipse fill="#fff" rx="1" ry="1" transform="matrix(36.18241 11.47774 -9.88606 31.1648 13.5 12.2)"/><ellipse fill="#666a87" cx="109" cy="71" rx="35" ry="35"/><ellipse fill="#804330" rx="1" ry="1" transform="rotate(101.4 47.6 45.8) scale(29.48426 11.49236)"/><ellipse fill="#202a35" cx="187" cy="57" rx="22" ry="20"/><path fill="#320000" d="M-9.4-16L-16 46.8l14.5 46.4 8.3-15.8z"/><ellipse fill="#efeef1" cx="22" cy="117" rx="42" ry="38"/><ellipse fill="#eee9eb" rx="1" ry="1" transform="matrix(4.38381 -27.6783 13.22114 2.09402 157.2 86.6)"/><path fill="#fff" d="M193 0h7v38h-7z"/><ellipse fill="#3b3a3a" cx="160" cy="4" rx="27" ry="5"/><path fill="#8b2d00" d="M152 75l-33 4-21 30z"/><ellipse fill="#fff" cx="159" cy="22" rx="15" ry="15"/><path fill="#7b899b" d="M57.7 44.7L13.1 80.5 41.3 75 6.5 38.2z"/><ellipse fill="#c7c4c8" cx="55" cy="126" rx="29" ry="51"/><ellipse fill="#cdc8c9" cx="157" cy="106" rx="27" ry="27"/><ellipse fill="#fff" rx="1" ry="1" transform="matrix(7.8909 -.02718 .08701 25.25753 72.8 11.7)"/><path fill="#3e4c4e" d="M81 12.2l-.9-16 45-2.4.8 16z"/></g></svg>