<svg xmlns="http://www.w3.org/2000/svg" viewBox="0 0 200 133"><filter id="b"><feGaussianBlur stdDeviation="12" /></filter><path fill="#6b5c57" d="M0 0h200v133H0z"/><g filter="url(#b)" transform="translate(.5 .5)" fill-opacity=".5"><ellipse fill="#fff9e5" cx="138" cy="43" rx="33" ry="48"/><ellipse cx="60" cy="110" rx="37" ry="60"/><ellipse fill="#e3e9ff" rx="1" ry="1" transform="matrix(17.32611 -3.7144 4.63516 21.62109 113.2 61)"/><path d="M130 135.6l-42.4 39.6L16 98.4l42.4-39.6z"/><ellipse fill="#b5bbde" cx="110" cy="84" rx="17" ry="25"/><ellipse cx="98" cy="11" rx="12" ry="34"/><path fill="#fffaf4" d="M72 43l12-23 5 54z"/><path fill="#482b2d" d="M155.4 108.7l-27.3-6.3 8.5-37 27.3 6.2z"/><path fill="#0a0403" d="M61.6 52.2L29.5 14 46.4-.2 78.5 38z"/><ellipse fill="#feddb3" rx="1" ry="1" transform="rotate(91 65.8 84) scale(45.47132 21.50454)"/><path fill="#100000" d="M174 11h26v30h-26z"/><ellipse fill="#b08b81" cx="6" cy="30" rx="22" ry="63"/><ellipse fill="#fffee1" cx="73" cy="1" rx="7" ry="23"/><ellipse fill="#ac8f70" cx="188" cy="64" rx="29" ry="23"/><ellipse fill="#4f3026" rx="1" ry="1" transform="rotate(-160.2 96.5 46.8) scale(29.38628 32.57477)"/><path fill="#ccaa9f" d="M69 92h20v9H69z"/><ellipse fill="#06030b" rx="1" ry="1" transform="matrix(-16.9621 9.24804 -11.6913 -21.44336 46.3 75)"/><path fill="#6b6b87" d="M106 128l29-90 8 110z"/><path fill="#fff" d="M97 45h6v54h-6z"/><path d="M102 69h4v22h-4z"/><path fill="#6b373a" d="M127.3 30.7l-21.4 5-5.2-22.4 21.4-5z"/><ellipse cx="56" cy="126" rx="31" ry="31"/></g></svg>