<svg xmlns="http://www.w3.org/2000/svg" viewBox="0 0 200 133"><filter id="b"><feGaussianBlur stdDeviation="12" /></filter><path fill="#60664e" d="M0 0h200v133H0z"/><g filter="url(#b)" transform="translate(.5 .5)" fill-opacity=".5"><ellipse fill="#fff" rx="1" ry="1" transform="matrix(34.87076 106.06001 -24.44509 8.03714 12.8 107.6)"/><ellipse fill="#000e00" cx="81" cy="92" rx="34" ry="34"/><ellipse fill="#cfccff" cx="143" cy="132" rx="43" ry="29"/><ellipse fill="#011700" cx="181" cy="26" rx="43" ry="43"/><ellipse fill="#ffffe7" rx="1" ry="1" transform="matrix(-16.10223 -8.31906 9.23667 -17.87834 48.2 57)"/><ellipse rx="1" ry="1" transform="matrix(-6.27993 14.93937 -53.46295 -22.47375 32.3 13.1)"/><ellipse fill="#ffffca" cx="102" cy="41" rx="18" ry="18"/><path fill="#fff7ff" d="M-1.3 129.7L2.5 110l114.8 22.3-3.8 19.7z"/><ellipse cx="114" rx="25" ry="25"/><path fill="#d7c896" d="M157 50l-32-8-2 70z"/><path fill="#091c00" d="M159.5 103.2l-18.1-24 35.1-26.4 18.1 24z"/><ellipse fill="#2d5400" cx="44" cy="93" rx="17" ry="21"/><path d="M108.9 88l-16-10.3L107.2 56l16 10.4z"/><ellipse rx="1" ry="1" transform="matrix(-33.7159 -6.32258 2.99957 -15.99559 36.6 19)"/><path fill="#fff" d="M-16 40L9.4 53.1l9.4-25.6-10.5-2z"/><ellipse fill="#595b8f" rx="1" ry="1" transform="matrix(-13.70287 -11.37634 37.51064 -45.18178 194.5 105.4)"/><path fill="#d2ce9c" d="M87.4 7l-9.2 14.3L34.6-7l9.2-14.3z"/><path fill="#112400" d="M55 103l43 5-21-86z"/><path fill="#655a6e" d="M16.5 76.3L-16 85v23l63.2-29.3z"/><path fill="#ebf1ff" d="M-5.8 62.2L28.7 56l3.1 17.7L-2.7 80z"/><ellipse fill="#cfcbaa" rx="1" ry="1" transform="rotate(103.6 5.6 48.8) scale(23.08392 13.5386)"/><ellipse fill="#2f3d00" cx="176" cy="22" rx="41" ry="41"/></g></svg>