<svg xmlns="http://www.w3.org/2000/svg" viewBox="0 0 200 133"><filter id="b"><feGaussianBlur stdDeviation="12" /></filter><path fill="#444157" d="M0 0h200v133H0z"/><g filter="url(#b)" transform="translate(.5 .5)" fill-opacity=".5"><ellipse fill="#b6b1d7" cx="97" cy="45" rx="42" ry="42"/><ellipse rx="1" ry="1" transform="matrix(19.13465 3.86593 -11.02875 54.58753 42.4 81.6)"/><path d="M160.4 27.5l54.7 5.7-13.5 129.3-54.7-5.7z"/><ellipse cx="88" cy="117" rx="25" ry="25"/><path fill="#fff" d="M123 137.4l-11.6-3 9.6-35.8 11.6 3z"/><ellipse fill="#e5d8fe" cx="77" cy="69" rx="17" ry="21"/><path fill="#78ceff" d="M1 142l-17-55 59 58z"/><path fill="#212a3d" d="M67.6 19l40.8-.6-10 33L-16 56.1z"/><ellipse fill="#8bb8d0" cx="54" rx="26" ry="28"/><path fill="#fff1ff" d="M133.8 53.5L100.4 40l7.8-19.5L141.6 34z"/><path fill="#07000e" d="M80 75h30v58H80z"/><path fill="#937fb3" d="M127 63h29v39h-29z"/><path fill="#ff0e28" d="M126 110h22v23h-22z"/><ellipse fill="#000307" rx="1" ry="1" transform="matrix(-12.54861 -7.90228 17.75368 -28.19237 164.7 29)"/><path fill="#d4c6f9" d="M82.2 71.1l-11.9 41.4-12.5-3.6 11.9-41.4z"/><ellipse rx="1" ry="1" transform="matrix(7.5558 10.68504 -55.76048 39.43039 56.6 132)"/><path fill="#c4f8ff" d="M99 90.7L93.7 93 87 77.3l5.5-2.3z"/><path fill="#ece1ff" d="M84.8 78.2l-20.4-6.3 3.3-16.7 13-24.7z"/><ellipse cx="44" cy="83" rx="18" ry="28"/><path fill="#d4ffff" d="M215 22l-20 11-12-9z"/><path fill="#99a4d9" d="M24 60L4 55l22 33z"/><path fill="#000209" d="M10 82h27v33H10z"/></g></svg>