<svg xmlns="http://www.w3.org/2000/svg" viewBox="0 0 641 195"><filter id="b"><feGaussianBlur stdDeviation="12" /></filter><path fill="#343864" d="M0 0h641v192H0z"/><g filter="url(#b)" transform="translate(1.3 1.3) scale(2.5039)" fill-opacity=".5"><ellipse cx="23" cy="56" rx="28" ry="97"/><ellipse fill="#c0b4b0" cx="131" cy="62" rx="16" ry="184"/><ellipse fill="#38dc90" rx="1" ry="1" transform="matrix(-.85739 14.43148 -64.70334 -3.84409 164.9 6.6)"/><ellipse fill="#b38fdc" cx="224" cy="32" rx="7" ry="48"/><path fill="#fff" d="M78 73h21v4H78z"/><path fill="#b683c8" d="M63.6 47.3l-22.3-9 7.1-17.6 22.3 9z"/><ellipse fill="#1e06b8" cx="255" cy="8" rx="30" ry="44"/><path fill="#c8bbee" d="M117.7 54l32.2 15.7-7.4-26.6-17.8-10.8z"/><path fill="#38001d" d="M125 58h15v19h-15z"/><ellipse fill="#000016" cx="32" cy="73" rx="38" ry="38"/><ellipse fill="#21066a" rx="1" ry="1" transform="matrix(37.69268 17.49636 -9.39799 20.24623 178.3 51.2)"/><ellipse fill="#150330" rx="1" ry="1" transform="matrix(.26457 -10.82548 28.48506 .69616 95 32.9)"/><ellipse fill="#71d87c" cx="155" cy="2" rx="21" ry="21"/><ellipse fill="#007a52" rx="1" ry="1" transform="matrix(-25.68178 -7.7049 4.08207 -13.60623 95.6 9.2)"/><ellipse fill="#070054" cx="250" cy="67" rx="18" ry="43"/><ellipse fill="#fff" cx="117" cy="64" rx="4" ry="8"/><ellipse fill="#4f37ab" rx="1" ry="1" transform="rotate(8.4 -61.4 1432.1) scale(12.40583 27.52359)"/><path fill="#2a264a" d="M126.2 12.8l8-9 21.6 19.4-8 9z"/><ellipse fill="#000030" rx="1" ry="1" transform="rotate(-25.2 37.5 -37.2) scale(62.55395 25.73877)"/><path fill="#8e777b" d="M96 42l-12-7 3-35z"/><path fill="#a37ca6" d="M55 13h13v36H55z"/><path fill="#0f0029" d="M68 23h20v49H68z"/></g></svg>