<svg xmlns="http://www.w3.org/2000/svg" viewBox="0 0 700 467"><filter id="b"><feGaussianBlur stdDeviation="12" /></filter><path fill="#3b2a25" d="M0 0h700v464H0z"/><g filter="url(#b)" transform="translate(1.4 1.4) scale(2.73438)" fill-opacity=".5"><ellipse fill="#a56c4f" cx="71" cy="12" rx="43" ry="43"/><ellipse cx="53" cy="111" rx="42" ry="51"/><ellipse fill="#a28ea3" rx="1" ry="1" transform="matrix(-13.96977 -9.69858 14.08162 -20.28307 192.9 125)"/><ellipse fill="#255bc0" rx="1" ry="1" transform="matrix(-16.84221 37.47562 -14.54579 -6.53714 241.5 29)"/><ellipse fill="#ffb193" cx="190" cy="75" rx="7" ry="22"/><path fill="#ffbd9d" d="M138 92h15v25h-15z"/><path fill="#ffad68" d="M22.5 52.4l-1.2 13-43.8-3.8 1.2-13z"/><path d="M111.4 50.7l11.4-42.5 33.8 9-11.4 42.6z"/><path fill="#ed9275" d="M178.8 23.5l3.7 15.6-23.1-3.7-1.6-12.9z"/><ellipse rx="1" ry="1" transform="matrix(-50.41123 -34.9064 9.86542 -14.24748 177.2 2.6)"/><path fill="#ea0f1f" d="M160 28l-5 51-9-34z"/><ellipse cx="172" cy="75" rx="14" ry="22"/><path fill="#ffcaa8" d="M71.3 30l.4 17.9-11 .2-.4-18z"/><ellipse fill="#050503" rx="1" ry="1" transform="matrix(8.57614 -18.21047 29.52605 13.90516 229.2 86)"/><path d="M75 18h9v54h-9z"/><ellipse fill="#180000" rx="1" ry="1" transform="matrix(40.06482 2.27172 -1.43544 25.316 142.2 163.9)"/><path fill="#d6b4ba" d="M167 117l16 19-5-27z"/><path fill="#cd8c86" d="M84 25l2 28 27-34z"/><path fill="#a84632" d="M160 58l-60 39 16-31z"/><ellipse rx="1" ry="1" transform="matrix(9.28065 -38.19084 5.77195 1.40262 222.8 120.1)"/><ellipse fill="#7a482c" rx="1" ry="1" transform="rotate(-41.7 37 -22) scale(41.70598 27.45334)"/><path fill="#000002" d="M106.5 89.5l-25.3-9.2 12.3-33.8 25.3 9.2z"/></g></svg>