<svg xmlns="http://www.w3.org/2000/svg" viewBox="0 0 1158 643"><filter id="b"><feGaussianBlur stdDeviation="12" /></filter><path fill="#6a5b4c" d="M0 0h1158v642H0z"/><g filter="url(#b)" transform="translate(2.3 2.3) scale(4.52344)" fill-opacity=".5"><ellipse fill="#fff" rx="1" ry="1" transform="matrix(-47.54165 6.8284 -3.15023 -21.93295 86.8 34.7)"/><ellipse rx="1" ry="1" transform="matrix(28.51449 2.14357 -7.39737 98.40217 244.5 98.7)"/><ellipse fill="#fffff6" cx="186" cy="27" rx="17" ry="17"/><ellipse fill="#fff" rx="1" ry="1" transform="rotate(173.7 100.3 67) scale(7.50331 23.11586)"/><ellipse fill="#f5e1c5" rx="1" ry="1" transform="matrix(-27.17237 4.30727 -4.36437 -27.53254 0 49)"/><ellipse fill="#0c0001" cx="141" cy="110" rx="21" ry="59"/><path fill="#f9d697" d="M76 67h32v48H76z"/><ellipse fill="#0a0000" cx="219" cy="71" rx="31" ry="31"/><ellipse fill="#1e1618" cx="51" cy="101" rx="27" ry="33"/><ellipse fill="#af936a" rx="1" ry="1" transform="rotate(44.9 23.4 211.4) scale(42.44427 17.91002)"/><ellipse fill="#0d0000" rx="1" ry="1" transform="rotate(95.9 32.9 149.9) scale(56.05245 9.68832)"/><ellipse fill="#070000" rx="1" ry="1" transform="matrix(27.78723 1.45155 -7.26346 139.04557 255 78.4)"/><ellipse fill="#fffde6" cx="77" cy="37" rx="31" ry="13"/><ellipse cx="178" rx="36" ry="12"/><path fill="#f6ddbb" d="M168 25l64-12-1 21z"/><path fill="#e9f9ff" d="M112 22l2 44 14 3z"/><path fill="#fff" d="M194 108h18v14h-18z"/><path fill="#7e5828" d="M221.2 53.5l1.3-42.5-36 27-39.7 5.2z"/><path fill="#1d1617" d="M0 117h152v16H0z"/><path fill="#c5b29a" d="M39 83L-3-14l7 87z"/><ellipse fill="#debb9b" cx="68" cy="5" rx="38" ry="4"/><path fill="#fff3cd" d="M163 71h8v22h-8z"/></g></svg>