<svg xmlns="http://www.w3.org/2000/svg" viewBox="0 0 1297 682"><filter id="b"><feGaussianBlur stdDeviation="12" /></filter><path fill="#5e5395" d="M0 0h1297v678H0z"/><g filter="url(#b)" transform="translate(2.5 2.5) scale(5.0664)" fill-opacity=".5"><ellipse fill="#060000" cx="130" cy="33" rx="68" ry="13"/><ellipse cx="170" cy="55" rx="15" ry="31"/><ellipse rx="1" ry="1" transform="rotate(101.3 23.3 64.7) scale(29.62905 15.53502)"/><path fill="#28fbff" d="M102 46h55v30h-55z"/><ellipse fill="#618eff" cx="27" cy="85" rx="46" ry="29"/><ellipse fill="#e77eb7" rx="1" ry="1" transform="matrix(-.2815 -16.12755 72.00897 -1.25692 128.6 8)"/><ellipse fill="#5898ff" cx="231" cy="85" rx="45" ry="29"/><path d="M105 78h60v27h-60z"/><ellipse fill="#d583d4" cx="209" cy="32" rx="23" ry="23"/><path fill="#ffffdc" d="M33 40h33v10H33z"/><path fill="#a4b3e0" d="M0 91h104v19H0z"/><path fill="#eff" d="M106.8 57.5l37.7-6.9 5.5-3-11.7 24.5z"/><path fill="#fce7d7" d="M252 102l-12-23-42 13z"/><ellipse fill="#fff" cx="127" cy="119" rx="8" ry="8"/><ellipse fill="#ec8ca6" cx="128" cy="19" rx="14" ry="14"/><ellipse rx="1" ry="1" transform="matrix(-12.23614 3.06723 -7.99964 -31.9131 169.9 50.4)"/><ellipse fill="#060058" rx="1" ry="1" transform="matrix(-17.81957 -30.79946 12.608 -7.29458 255 66.4)"/><ellipse fill="#371e8d" rx="1" ry="1" transform="rotate(13.6 -505 184.6) scale(33.28041 22.61681)"/><ellipse cx="87" cy="54" rx="14" ry="32"/><ellipse fill="#c663c5" rx="1" ry="1" transform="matrix(54.8566 -4.02842 .8909 12.13165 24.6 23)"/><path fill="#1057f3" d="M248 81.5l-51.4-7.2 3.3-23.8 51.5 7.2z"/><ellipse fill="#ffffeb" cx="203" cy="44" rx="18" ry="5"/></g></svg>