<svg xmlns="http://www.w3.org/2000/svg" viewBox="0 0 1297 682"><filter id="b"><feGaussianBlur stdDeviation="12" /></filter><path fill="#5d5393" d="M0 0h1297v678H0z"/><g filter="url(#b)" transform="translate(2.5 2.5) scale(5.0664)" fill-opacity=".5"><ellipse cx="169" cy="53" rx="17" ry="33"/><path d="M122.8 31.3l-33.7 52-32-20.6 33.8-52z"/><ellipse fill="#29f2ff" rx="1" ry="1" transform="matrix(30.10122 1.17317 -.66298 17.0108 129.6 60.8)"/><ellipse fill="#708bf9" rx="1" ry="1" transform="rotate(-44.5 113.2 -10) scale(45.63274 29.28661)"/><ellipse fill="#5ca0ff" cx="221" cy="85" rx="30" ry="30"/><ellipse fill="#dc7bb1" cx="120" rx="82" ry="24"/><path fill="#000001" d="M104 77h63v28h-63z"/><path fill="#0e0000" d="M72 24h117v23H72z"/><path fill="#ed9ad4" d="M187.3 50l1.4-39 30 1-1.4 39z"/><path fill="#a3b2e3" d="M140 107l99-30 32 33z"/><path fill="#a8c6ed" d="M89 90l67 42L-1 91z"/><path d="M76 26h21v54H76z"/><path fill="#ffffaf" d="M34 40h38v9H34z"/><ellipse fill="#d97f90" rx="1" ry="1" transform="matrix(17.23468 10.35564 -10.64365 17.714 129.6 12.5)"/><path fill="#fbffff" d="M120 53h24v19h-24z"/><path d="M157 38h27v43h-27z"/><ellipse fill="#004ce2" cx="18" cy="65" rx="46" ry="14"/><ellipse fill="#c660cd" rx="1" ry="1" transform="matrix(-.7509 -9.86836 43.97966 -3.3465 28.8 25.7)"/><path fill="#090a66" d="M247 96l-17-61 41 4z"/><ellipse fill="#c284d0" rx="1" ry="1" transform="matrix(3.84681 8.54222 -64.22673 28.92318 244.5 25.9)"/><ellipse fill="#1754e3" cx="224" cy="69" rx="32" ry="17"/><path fill="#150001" d="M141 19l86 17-72 6z"/></g></svg>