<svg xmlns="http://www.w3.org/2000/svg" viewBox="0 0 1297 682"><filter id="b"><feGaussianBlur stdDeviation="12" /></filter><path fill="#5d5393" d="M0 0h1297v678H0z"/><g filter="url(#b)" transform="translate(2.5 2.5) scale(5.0664)" fill-opacity=".5"><ellipse cx="167" cy="49" rx="19" ry="35"/><ellipse rx="1" ry="1" transform="matrix(15.10741 2.38986 -5.40517 34.16861 90.3 51.4)"/><ellipse fill="#43ffff" cx="128" cy="62" rx="29" ry="15"/><ellipse fill="#5f92ff" cx="14" cy="83" rx="58" ry="28"/><ellipse fill="#5a9cff" cx="233" cy="86" rx="48" ry="28"/><ellipse fill="#140000" cx="109" cy="34" rx="50" ry="12"/><ellipse fill="#e580b6" cx="129" cy="8" rx="73" ry="16"/><ellipse fill="#000023" cx="124" cy="91" rx="20" ry="20"/><path fill="#ea9dd4" d="M189 0l43 47-43 3z"/><path fill="#030000" d="M157 51l53-18-66-13z"/><path fill="#fff9dd" d="M34 41h37v11H34z"/><ellipse fill="azure" rx="1" ry="1" transform="rotate(-136.6 87.9 33.4) scale(7.73244 9.58728)"/><ellipse fill="#fff7bd" rx="1" ry="1" transform="rotate(2.4 -2069.2 5408.2) scale(29.57597 4.7093)"/><path fill="#03010f" d="M140.3 103.2l-2.5-28 28-2.4 2.4 28z"/><path fill="#a4bce4" d="M117 124L-4 90l102 1z"/><path fill="#32bcff" d="M101 47h57v31h-57z"/><ellipse fill="#010057" rx="1" ry="1" transform="matrix(14.31909 -7.37754 14.84285 28.80855 255 66)"/><path fill="#fffffd" d="M120 54h23v18h-23z"/><ellipse fill="#c866c4" cx="33" cy="21" rx="47" ry="11"/><ellipse fill="#d27b8d" rx="1" ry="1" transform="matrix(24.75774 -2.01899 2.45 30.04294 128.4 2.3)"/><path d="M74 26h26v55H74zm83-4h27v59h-27z"/></g></svg>