<svg xmlns="http://www.w3.org/2000/svg" viewBox="0 0 4945 2600"><filter id="b"><feGaussianBlur stdDeviation="12" /></filter><path fill="#5d5493" d="M0 0h4945v2588H0z"/><g filter="url(#b)" transform="translate(9.7 9.7) scale(19.3164)" fill-opacity=".5"><ellipse rx="1" ry="1" transform="matrix(15.5951 -.2003 .41255 32.11944 88 54)"/><ellipse cx="167" cy="53" rx="18" ry="33"/><ellipse fill="#1c0000" cx="129" cy="32" rx="61" ry="13"/><ellipse fill="#37ffff" cx="128" cy="62" rx="29" ry="16"/><ellipse fill="#579fff" rx="1" ry="1" transform="rotate(128.9 92.6 97.8) scale(25.95413 36.79463)"/><ellipse fill="#ff8ea7" cx="127" rx="31" ry="31"/><ellipse fill="#5f8fff" cx="30" cy="85" rx="43" ry="29"/><path d="M166.2 104l-58 1-.4-27 58-1z"/><ellipse fill="#e08bd3" cx="207" cy="32" rx="20" ry="21"/><path fill="#afb9df" d="M135 114l136-17-63-15z"/><path fill="#f4ffff" d="M119 113h16v15h-16z"/><path fill="#ffe6cf" d="M27 41h46v11H27z"/><ellipse fill="#d277ce" rx="1" ry="1" transform="matrix(-41.8145 17.92656 -4.69338 -10.94752 83.3 9.9)"/><path fill="#000a5d" d="M272 87l-24.8 7.7L232 44.9l24.8-7.6z"/><ellipse fill="#fff2ce" cx="22" cy="92" rx="35" ry="5"/><ellipse cx="169" cy="52" rx="13" ry="31"/><ellipse cx="88" cy="54" rx="13" ry="31"/><ellipse fill="#cd78ca" rx="1" ry="1" transform="matrix(-22.21552 4.47944 -3.4037 -16.88045 180 7.6)"/><path fill="#adc4e3" d="M51 93h54v18H51z"/><ellipse fill="#0948dc" cx="30" cy="65" rx="34" ry="16"/><path fill="#fff" d="M125 70l-10-14 38-5z"/><ellipse fill="#ea76be" rx="1" ry="1" transform="matrix(-25.70588 -5.4446 2.65606 -12.54017 0 24.3)"/></g></svg>