<svg xmlns="http://www.w3.org/2000/svg" viewBox="0 0 1297 682"><filter id="b"><feGaussianBlur stdDeviation="12" /></filter><path fill="#5d5393" d="M0 0h1297v678H0z"/><g filter="url(#b)" transform="translate(2.5 2.5) scale(5.0664)" fill-opacity=".5"><ellipse rx="1" ry="1" transform="matrix(19.64034 -.93263 1.54126 32.45767 169 50)"/><ellipse rx="1" ry="1" transform="matrix(7.35372 -33.72722 16.89279 3.68322 92 50)"/><ellipse fill="#3fffff" rx="1" ry="1" transform="matrix(29.74786 .07753 -.03731 14.31696 128.9 61.2)"/><ellipse cx="130" cy="91" rx="32" ry="15"/><ellipse fill="#5c9cff" cx="228" cy="86" rx="44" ry="28"/><ellipse fill="#190000" cx="125" cy="33" rx="69" ry="12"/><ellipse fill="#759df5" rx="1" ry="1" transform="matrix(74.68287 19.49627 -5.55754 21.28883 30.2 83)"/><ellipse fill="#e881b7" rx="1" ry="1" transform="matrix(76.03566 -2.71914 .41812 11.6918 126 12.3)"/><ellipse fill="#fff" cx="206" cy="45" rx="23" ry="6"/><ellipse fill="#ffe9c9" rx="1" ry="1" transform="matrix(23.18621 .32366 -.0788 5.6455 50.2 44.5)"/><path fill="#054bec" d="M0 52h61v29H0z"/><ellipse fill="#afb2cd" rx="1" ry="1" transform="matrix(-65.24595 9.66122 -1.217 -8.21882 209 98.2)"/><ellipse fill="#000058" rx="1" ry="1" transform="rotate(-117.6 148 -43.5) scale(34.36892 15.01046)"/><path fill="#dc75dd" d="M271 30L184 7l8 27z"/><ellipse fill="#fff" rx="1" ry="1" transform="matrix(-8.40147 -.01466 .0128 -7.33839 128.3 119.5)"/><ellipse rx="1" ry="1" transform="matrix(10.75691 2.28645 -7.0549 33.19068 87 60)"/><ellipse fill="#df8596" rx="1" ry="1" transform="matrix(-15.77466 3.32832 -4.8637 -23.0517 127 10.3)"/><path d="M158 23h26v60h-26z"/><path fill="#fff" d="M149 53l-15 19-17-20z"/><ellipse fill="#c45cd0" cx="14" cy="26" rx="57" ry="10"/><path fill="#e4e7e6" d="M-12 101.8l-.8-11L54 86.3l.8 11z"/><path fill="#0093ff" d="M100 64h58v14h-58z"/></g></svg>