<svg xmlns="http://www.w3.org/2000/svg" viewBox="0 0 1920 1080"><filter id="b"><feGaussianBlur stdDeviation="12" /></filter><path fill="#e5e5e6" d="M0 0h1920v1080H0z"/><g filter="url(#b)" transform="matrix(7.5 0 0 7.5 3.8 3.8)" fill-opacity=".5"><ellipse rx="1" ry="1" transform="matrix(-.22383 -100.92336 5.22556 -.01159 4.2 67.3)"/><path d="M264 127.5l-1 27-59-2 1-27zM21 91h40v6H21z"/><ellipse cy="75" rx="8" ry="161"/><ellipse fill="#fefeff" cx="152" cy="38" rx="104" ry="104"/><path fill="#7b6557" d="M28 46h11v56H28z"/><ellipse fill="#fff" cx="57" cy="133" rx="49" ry="36"/><path fill="#9b5400" d="M129.2 59.9l2.3 9.7-10.7 2.5-2.3-9.7z"/><ellipse fill="#fff" cx="15" cy="69" rx="8" ry="103"/><ellipse fill="#3a3a3a" cx="238" cy="132" rx="34" ry="7"/><path fill="#fff" d="M181 142h75v2h-75z"/><path fill="#fff" d="M254 105h2v39h-2z"/><ellipse fill="#000001" cx="1" cy="52" rx="7" ry="220"/><ellipse fill="#b9d1f1" cx="136" cy="86" rx="62" ry="6"/><path d="M57 95.5H37v-5h20z"/><path fill="#f9feff" d="M29 55h88v25H29z"/><path fill="#fff" d="M220 25h34v97h-34z"/><ellipse fill="#fefdfb" rx="1" ry="1" transform="rotate(173.3 25.7 15.2) scale(30.48687 23.38644)"/><path fill="#87482c" d="M40.2 79.9l-13.6.1 5.1 23 3-5.2z"/><path fill="#fff" d="M11.2 98.4l14.5-27.2-5.4 80.8 159 6.2z"/><path fill="#528eb9" d="M22 67l13 7 1-12z"/><ellipse fill="#fff" cx="158" cy="41" rx="28" ry="28"/></g></svg>