<svg xmlns="http://www.w3.org/2000/svg" viewBox="0 0 1920 1080"><filter id="b"><feGaussianBlur stdDeviation="12" /></filter><path fill="#282c2e" d="M0 0h1920v1080H0z"/><g filter="url(#b)" transform="matrix(7.5 0 0 7.5 3.8 3.8)" fill-opacity=".5"><ellipse fill="#00b6ff" cx="137" cy="143" rx="149" ry="4"/><ellipse fill="#4f4b49" rx="1" ry="1" transform="matrix(1.25535 13.79395 -46.52646 4.23424 131.5 42.8)"/><ellipse fill="#191714" cx="59" cy="64" rx="24" ry="55"/><ellipse fill="#1a1917" cx="196" cy="111" rx="132" ry="19"/><ellipse fill="#3d433f" rx="1" ry="1" transform="matrix(.43834 5.9017 -52.79628 3.9214 108 134)"/><ellipse fill="#5c5957" cx="97" rx="238" ry="4"/><ellipse fill="#1d1a17" cx="190" cy="51" rx="15" ry="48"/><ellipse fill="#1f1813" cx="255" cy="44" rx="29" ry="37"/><path fill="#0590ff" d="M14 141h242v3H14z"/><path fill="#3a3c38" d="M45 131h192v10H45z"/><path fill="#1783c5" d="M9 88h30v3H9z"/><path fill="#333e3e" d="M218 130l17-103-30-2z"/><path fill="#444445" d="M83 20.5h34v19H83z"/><ellipse fill="#1b1917" cx="141" cy="13" rx="101" ry="6"/><path fill="#310000" d="M7 141l13 18-36-18z"/><path fill="#42799f" d="M40.9 141.8l-31.6-7 1.3 20.4 1.4-11.8z"/><path fill="#566552" d="M-7 26l12-1 2 27-12 .8z"/><path fill="#474947" d="M215 127l20-9.9-37.4 5.2 21.6 5.3z"/><path fill="#0d768e" d="M152 127h27v2h-27z"/><path fill="#171413" d="M222 125h34v15h-34z"/><path fill="#43423e" d="M17 10h11v120H17z"/><path fill="#34454c" d="M88 53h17v21H88z"/></g></svg>