<svg xmlns="http://www.w3.org/2000/svg" viewBox="0 0 1323 875"><filter id="b"><feGaussianBlur stdDeviation="12" /></filter><path fill="#222327" d="M0 0h1323v873H0z"/><g filter="url(#b)" transform="translate(2.6 2.6) scale(5.16797)" fill-opacity=".5"><ellipse fill="#6d6c7a" rx="1" ry="1" transform="rotate(-91.2 166.4 -53) scale(98.94751 35.54738)"/><ellipse fill="#6a7093" rx="1" ry="1" transform="matrix(26.64338 8.49884 -22.13645 69.39646 32.3 14.4)"/><ellipse rx="1" ry="1" transform="matrix(49.47355 -66.37386 56.27313 41.9447 117.5 73.4)"/><path fill="#676a76" d="M78.3 178.7l-.5-29 140-2.4.4 29z"/><ellipse rx="1" ry="1" transform="matrix(135.54242 -102.56452 27.3376 36.12755 49.6 112.8)"/><path fill="#4c4c55" d="M188 17h68v151h-68z"/><path d="M64 4h124v144H64z"/><path fill="#7591e7" d="M37 22h28v8H37z"/><path fill="#555b59" d="M51.1 106.3l-2.3 27-18-1.6 2.4-27z"/><path fill="#f47548" d="M105.8 3.3L79 5.7l-.7-9L105-5.7z"/><path fill="#575e7c" d="M50.4 67l-61.8-17.7 64-31.2L15 87.3z"/><path fill="#3f3d45" d="M208 25l46 159 9-197z"/><path fill="#595d69" d="M188 37h32v92h-32z"/><ellipse fill="#433c3f" rx="1" ry="1" transform="rotate(66.9 11.3 17.1) scale(24.69475 152.69175)"/><ellipse fill="#67755e" cx="47" cy="106" rx="28" ry="2"/><path d="M67 105l-79-2 96-58z"/><ellipse fill="#1c1c18" rx="1" ry="1" transform="matrix(8.30179 -21.06258 14.688 5.78925 219.6 7.7)"/><path d="M36 51.7l169.3-47-140.2.7-5.3 77.2z"/><ellipse fill="#323337" cx="56" cy="158" rx="35" ry="11"/><ellipse fill="#3d4c4d" cx="143" cy="1" rx="46" ry="3"/><path d="M52 31h27v75H52z"/><path fill="#6479bc" d="M17.6 37.5L51 21.3l3.5 7.2L21 44.7z"/></g></svg>