<svg xmlns="http://www.w3.org/2000/svg" viewBox="0 0 1920 1080"><filter id="b"><feGaussianBlur stdDeviation="12" /></filter><path fill="#e8e8ea" d="M0 0h1920v1080H0z"/><g filter="url(#b)" transform="matrix(7.5 0 0 7.5 3.8 3.8)" fill-opacity=".5"><ellipse cx="1" cy="80" rx="7" ry="159"/><ellipse cx="43" cy="93" rx="21" ry="4"/><ellipse cx="1" cy="52" rx="7" ry="207"/><ellipse fill="#fcfcfe" cx="161" cy="82" rx="101" ry="255"/><path fill="#571500" d="M26.6 100.5l1.9-22 11 1-2 22z"/><ellipse cy="77" rx="8" ry="197"/><path fill="#9a4d00" d="M119 61h11v10h-11z"/><path fill="#9199a6" d="M26 45.1l15.9 2-4 31.8-15.8-2z"/><path fill="#fff" d="M79.9 102.1l-.8 45-71-1.2.8-45z"/><path fill="#bbcfea" d="M94 93l91-4-64-20z"/><path fill="#fff" d="M9 8h53v38H9z"/><path d="M57 91.7v4l-32 .6v-4z"/><path fill="#a4a4a2" d="M253.1 94.4l2.8-52.9h1l-2.8 53z"/><ellipse fill="#a86c25" cx="33" cy="50" rx="5" ry="5"/><ellipse fill="#feffff" rx="1" ry="1" transform="rotate(-99.7 78.7 10.5) scale(73.41895 20.24663)"/><path fill="#fff" d="M9 23h15v121H9z"/><ellipse fill="#cbd1d9" cx="187" rx="179" ry="4"/><path fill="#fff" d="M108 18.9l76.9-2.7 1.2 33-77 2.6z"/><ellipse fill="#7e817f" cx="8" cy="111" rx="1" ry="136"/><path fill="#f6f3f2" d="M36 55h40v36H36z"/><path fill="#000101" d="M60 90l-25 1 19 5z"/><path fill="#fffffe" d="M218 25h35v119h-35z"/></g></svg>