<svg xmlns="http://www.w3.org/2000/svg" viewBox="0 0 1920 1080"><filter id="b"><feGaussianBlur stdDeviation="12" /></filter><path fill="#e8e8ea" d="M0 0h1920v1080H0z"/><g filter="url(#b)" transform="matrix(7.5 0 0 7.5 3.8 3.8)" fill-opacity=".5"><ellipse rx="1" ry="1" transform="matrix(1.80132 -157.79436 8.63364 .09856 0 101.4)"/><ellipse rx="1" ry="1" transform="matrix(3.7041 106.07145 -8.10407 .283 -.2 46.2)"/><path fill="#160000" d="M65 95L30 78l-7 18z"/><ellipse fill="#fcfcfe" cx="171" cy="67" rx="112" ry="194"/><ellipse cx="2" cy="98" rx="6" ry="204"/><ellipse fill="#b18741" rx="1" ry="1" transform="matrix(3.9641 5.51709 -7.08852 5.09318 126.3 67.3)"/><path fill="#3f3112" d="M56.6 89.9l-20 3L20 105.3l40.6-13z"/><path fill="#fff" d="M8 19h16v125H8z"/><path fill="#a19092" d="M25 48h14v44H25z"/><path fill="#fefcfa" d="M39 7h41v84H39z"/><ellipse fill="#fff" rx="1" ry="1" transform="matrix(-17.61281 -22.54337 34.37871 -26.8596 60.2 128.4)"/><ellipse fill="#bbd4f3" rx="1" ry="1" transform="rotate(89.6 17.3 104.6) scale(6.25489 48.10915)"/><ellipse fill="#99660a" cx="31" cy="49" rx="4" ry="4"/><path d="M31 91h24v5H31z"/><path fill="#fff" d="M106 119.8L10.3 159 10 19.7l15.5 80.8z"/><path fill="#a5a5a3" d="M254 23h2v77h-2z"/><ellipse fill="#fff" cx="156" cy="42" rx="32" ry="32"/><ellipse fill="#71b5e1" cx="31" cy="68" rx="8" ry="8"/><path fill="#d05100" d="M123 61h3v10h-3z"/><path fill="#fffbfd" d="M54.3 68.9l1.2 4.8-37.8 9.4-1.2-4.8z"/><ellipse fill="#e0e4e4" rx="1" ry="1" transform="matrix(190.83894 8.34943 -.81898 18.71893 208.4 0)"/><path fill="#feeeeb" d="M38.4 69.3l17 1.5-1.8 19.9-17-1.5z"/></g></svg>