<svg xmlns="http://www.w3.org/2000/svg" viewBox="0 0 532 378"><filter id="b"><feGaussianBlur stdDeviation="12" /></filter><path fill="#b8a491" d="M0 0h532v376H0z"/><g filter="url(#b)" transform="translate(1 1) scale(2.07813)" fill-opacity=".5"><ellipse fill="#5e4b38" cx="54" cy="166" rx="88" ry="51"/><ellipse fill="#f9ffff" rx="1" ry="1" transform="matrix(18.42674 -26.41411 63.05284 43.98627 129.4 16)"/><ellipse fill="#ffffeb" cx="239" cy="160" rx="39" ry="43"/><ellipse fill="#00001f" rx="1" ry="1" transform="matrix(-15.02944 -25.4134 7.4672 -4.41609 75.3 34)"/><ellipse fill="#dea245" rx="1" ry="1" transform="rotate(-171.3 121.7 10.5) scale(55.48156 87.98459)"/><ellipse rx="1" ry="1" transform="rotate(-111.4 80.9 53.9) scale(42.63196 9.86288)"/><path fill="#dff9ff" d="M97 79L81 196l-18-86z"/><ellipse fill="#e7e6ff" rx="1" ry="1" transform="rotate(105.5 13 9.8) scale(82.30427 14.32049)"/><ellipse fill="#d7f3ff" rx="1" ry="1" transform="matrix(26.40691 30.36168 -7.00096 6.08905 145.3 122.7)"/><ellipse fill="#ecffff" cx="113" rx="48" ry="24"/><ellipse fill="#865846" rx="1" ry="1" transform="matrix(4.63029 -12.0623 22.03138 8.45705 133.7 75.8)"/><path fill="#60516e" d="M54 61h26v42H54z"/><ellipse fill="#8a4638" rx="1" ry="1" transform="matrix(16.4275 .54052 -1.50382 45.70415 110.2 150)"/><ellipse fill="#ebffff" rx="1" ry="1" transform="rotate(-33 136 -103.9) scale(3.76089 49.81995)"/><path fill="#ece2ff" d="M39.5 49.5l12.9 1.3-5.9 55.7-12.9-1.3z"/><ellipse fill="#ffffc8" cx="237" cy="157" rx="32" ry="32"/><path fill="#8b541d" d="M243-16l28 38-28 67z"/><ellipse fill="#e8c189" rx="1" ry="1" transform="rotate(46.7 -4.2 292.8) scale(53.15032 30.84572)"/><path fill="#ceffff" d="M3 10l88-4L8-16z"/><ellipse fill="#a6966e" rx="1" ry="1" transform="matrix(40.21586 54.72226 -18.89887 13.88894 17.8 140.8)"/><path fill="#4c3441" d="M37 6l21 60 5-23z"/><path fill="#fffff6" d="M57 106l-2 18 42-17z"/></g></svg>