<svg xmlns="http://www.w3.org/2000/svg" viewBox="0 0 532 378"><filter id="b"><feGaussianBlur stdDeviation="12" /></filter><path fill="#642c4d" d="M0 0h532v376H0z"/><g filter="url(#b)" transform="translate(1 1) scale(2.07813)" fill-opacity=".5"><ellipse fill="#749ee0" rx="1" ry="1" transform="matrix(-1.33274 39.9445 -88.80192 -2.96286 108.7 73.2)"/><ellipse fill="#ff001a" rx="1" ry="1" transform="matrix(-8.56992 -25.03067 49.29992 -16.87914 205.3 140.3)"/><ellipse rx="1" ry="1" transform="rotate(-20.4 205.7 -628.3) scale(38.0104 91.83748)"/><ellipse fill="#7b0000" cx="75" cy="150" rx="96" ry="22"/><ellipse fill="#00063f" cx="78" cy="11" rx="83" ry="29"/><ellipse fill="#ff4441" cx="79" cy="128" rx="29" ry="12"/><ellipse fill="#004" rx="1" ry="1" transform="matrix(11.74272 5.91064 -13.66803 27.1544 71.6 59.3)"/><ellipse fill="#0e1014" cx="137" cy="117" rx="25" ry="25"/><ellipse fill="#9bc8b8" cx="113" cy="65" rx="30" ry="30"/><ellipse fill="#ff3351" rx="1" ry="1" transform="matrix(-5.36571 47.39368 -8.00543 -.90634 30.2 64.6)"/><path fill="#86d0ff" d="M166 42.2l-25-7.1 5-17.3 25 7.1z"/><path fill="#8bb6ff" d="M41 31l32 83-33-6z"/><path fill="#fa2353" d="M213.6 171.3L196 27l-7.2 75.3-49.5 67.1z"/><ellipse fill="#230100" cx="56" cy="180" rx="90" ry="31"/><ellipse fill="#3f0000" rx="1" ry="1" transform="matrix(-107.55084 80.61215 -10.65471 -14.21527 244.4 165.9)"/><path fill="#f503b7" d="M80-25.2L39.8 32 30 25.2 70.2-32z"/><ellipse rx="1" ry="1" transform="matrix(11.27775 84.5228 -25.63173 3.42 241.5 29.7)"/><path fill="#ffffe4" d="M82 91h29v10H82z"/><path fill="#210164" d="M164 66l-18 74-4-120z"/><path fill="#8ecaff" d="M200 89.8l-7.3-2.7-36.2 35.1 17.2-54.5z"/><ellipse fill="#ca454d" rx="1" ry="1" transform="matrix(9.72935 58.07118 -8.69383 1.45658 33.4 94.7)"/><ellipse rx="1" ry="1" transform="matrix(58.23543 -48.23257 11.6998 14.1262 11.8 4)"/></g></svg>