<svg xmlns="http://www.w3.org/2000/svg" viewBox="0 0 532 378"><filter id="b"><feGaussianBlur stdDeviation="12" /></filter><path fill="#6c6b67" d="M0 0h532v376H0z"/><g filter="url(#b)" transform="translate(1 1) scale(2.07813)" fill-opacity=".5"><ellipse fill="#d6ffff" rx="1" ry="1" transform="matrix(41.72205 -67.06898 40.09332 24.94112 141 131.7)"/><ellipse fill="#2f0000" cx="97" cy="8" rx="212" ry="25"/><ellipse cx="25" cy="91" rx="44" ry="44"/><ellipse fill="#d7fcff" rx="1" ry="1" transform="matrix(20.78787 12.73982 -9.62145 15.69956 39.2 147.7)"/><ellipse fill="#ace7ff" rx="1" ry="1" transform="rotate(-140.6 70.4 35.8) scale(44.00084 24.62151)"/><ellipse rx="1" ry="1" transform="matrix(50.4836 98.7297 -12.70693 6.49745 18.6 178)"/><ellipse fill="#071b06" cx="220" cy="127" rx="20" ry="41"/><ellipse fill="#b6dff1" rx="1" ry="1" transform="rotate(151.6 40.2 37.6) scale(19.77449 21.38585)"/><ellipse fill="#b6b7b0" cx="240" cy="53" rx="31" ry="31"/><path d="M214 110l-11-90-40-28z"/><path fill="#ffe6b5" d="M19 62h9v45h-9z"/><ellipse fill="#c5f8ff" cx="126" cy="163" rx="22" ry="71"/><path fill="#ffd3a1" d="M47.9 9.1l12 .9L56 62.9 44 62z"/><ellipse cx="75" cy="140" rx="12" ry="18"/><ellipse fill="#505763" rx="1" ry="1" transform="rotate(171.6 71.1 62.2) scale(8.00498 80.69928)"/><path fill="#00010d" d="M35 34l-8 97 52 2z"/><path d="M58 35h15v41H58z"/><ellipse fill="#ffa80a" rx="1" ry="1" transform="matrix(-5.2972 -15.32926 11.92986 -4.1225 6.9 0)"/><path fill="#d5c2ba" d="M177.2 196L157.7 40.3l35.3 9.8 7.2 52.4z"/><ellipse fill="#1f0000" cx="129" cy="13" rx="73" ry="12"/><ellipse fill="#0065cf" rx="1" ry="1" transform="matrix(2.17297 5.7506 -24.03128 9.08066 123.3 140.1)"/><ellipse fill="#206ef0" rx="1" ry="1" transform="rotate(-100.4 95.3 -3.7) scale(9.85259 27.55016)"/></g></svg>