<svg xmlns="http://www.w3.org/2000/svg" viewBox="0 0 532 378"><filter id="b"><feGaussianBlur stdDeviation="12" /></filter><path fill="#545f8c" d="M0 0h532v376H0z"/><g filter="url(#b)" transform="translate(1 1) scale(2.07813)" fill-opacity=".5"><ellipse fill="#fff" rx="1" ry="1" transform="matrix(-3.43366 34.9623 -85.83408 -8.4298 117.9 135)"/><ellipse cx="135" rx="251" ry="35"/><path fill="#fff" d="M105 135l162 38-44-42z"/><ellipse rx="1" ry="1" transform="rotate(-3.3 1971.8 -87.8) scale(15.43532 194.29537)"/><ellipse cx="184" cy="175" rx="255" ry="6"/><ellipse cx="226" cy="104" rx="11" ry="33"/><ellipse fill="#002ffc" rx="1" ry="1" transform="matrix(8.68167 17.00448 -48.62952 24.82789 59.1 49.4)"/><path fill="#fff" d="M65 142l-32.8 23-9.2-13 32.8-23z"/><ellipse cx="198" cy="176" rx="23" ry="26"/><ellipse fill="#fff" cx="153" cy="147" rx="32" ry="24"/><ellipse fill="#fdffff" rx="1" ry="1" transform="matrix(20.91714 -12.25605 10.9341 18.661 101.2 148)"/><ellipse fill="#7d91d7" rx="1" ry="1" transform="matrix(-4.02451 -31.88073 42.66308 -5.38564 167.7 93)"/><ellipse fill="#fff1ff" cx="129" cy="27" rx="15" ry="8"/><path fill="#011370" d="M171.9 113l70.8-3.4-44.7 27.8-11 3.5z"/><path d="M221 0h15v113h-15z"/><ellipse fill="#6e8ee4" cx="69" cy="107" rx="54" ry="25"/><path fill="#000008" d="M-14 112l63 12-65 64z"/><ellipse cx="101" cy="5" rx="140" ry="15"/><path fill="#0118c0" d="M140.2 20l55.7 11.9-8 38.1L132 58.1z"/><path fill="#fff" d="M219 167l52 6-64-53z"/><ellipse fill="#35331f" rx="1" ry="1" transform="matrix(-15.05795 5.47346 -7.2232 -19.87164 68 170.2)"/><ellipse rx="1" ry="1" transform="matrix(33.4348 27.4029 -6.06338 7.39805 255 147)"/></g></svg>