<svg xmlns="http://www.w3.org/2000/svg" viewBox="0 0 532 378"><filter id="b"><feGaussianBlur stdDeviation="12" /></filter><path fill="#b8a491" d="M0 0h532v376H0z"/><g filter="url(#b)" transform="translate(1 1) scale(2.07813)" fill-opacity=".5"><ellipse fill="#5e4a38" rx="1" ry="1" transform="matrix(3.2251 -34.51013 98.1574 9.17319 49.4 153)"/><ellipse fill="#f8ffff" rx="1" ry="1" transform="rotate(34.6 43.2 189) scale(93.98133 28.19959)"/><ellipse fill="#ffffeb" rx="1" ry="1" transform="matrix(27.66858 -31.0377 26.46076 23.58847 238.6 156)"/><ellipse rx="1" ry="1" transform="matrix(-15.75522 -38.60644 8.56004 -3.49334 58 144)"/><ellipse fill="#001840" rx="1" ry="1" transform="matrix(-20.60618 -24.82026 8.33952 -6.9236 78.1 32.5)"/><ellipse fill="#e0a346" rx="1" ry="1" transform="matrix(45.16542 -3.38967 5.5187 73.53355 229.9 57)"/><ellipse fill="#e2ddff" rx="1" ry="1" transform="matrix(16.44894 2.76593 -11.78646 70.09395 18.3 9.3)"/><ellipse fill="#d7eafe" rx="1" ry="1" transform="matrix(8.49239 1.0296 -7.80112 64.34505 84.8 119.5)"/><path fill="#f1ffff" d="M139 134l-24-48 57 31z"/><ellipse fill="#8b4738" cx="113" cy="147" rx="17" ry="44"/><ellipse fill="#ebffff" rx="1" ry="1" transform="matrix(-1.45597 -18.09606 45.3623 -3.64976 118.6 8.2)"/><path fill="#774c34" d="M140.7 56l13.6 25.7-23 12.2-13.6-25.6z"/><path fill="#5f4e65" d="M66 105L36 3l50 76z"/><path fill="#daffff" d="M53.6 10.4l47.9 86.2L37.6 2.9 180-16z"/><path fill="#e7e2ff" d="M32.6 105.6L43.8 61l13.6 3.4L46.2 109z"/><ellipse fill="#fffff5" rx="1" ry="1" transform="matrix(22.08305 -7.51768 2.61607 7.68465 73.7 110.3)"/><path fill="#052d3e" d="M61.8 2.2l35.5 47.1-11.1 8.5-35.5-47.1z"/><ellipse fill="#824d18" cx="252" cy="12" rx="9" ry="59"/><ellipse fill="#fff9bf" rx="1" ry="1" transform="rotate(-29.5 421 -368.1) scale(26.93108 46.40362)"/><path fill="#eeddaf" d="M168 59h38v37h-38z"/><path fill="#fffffd" d="M108 193l-21-28-17 31z"/><ellipse fill="#73446f" cx="26" cy="69" rx="12" ry="15"/></g></svg>