<svg xmlns="http://www.w3.org/2000/svg" viewBox="0 0 532 378"><filter id="b"><feGaussianBlur stdDeviation="12" /></filter><path fill="#545f8c" d="M0 0h532v376H0z"/><g filter="url(#b)" transform="translate(1 1) scale(2.07813)" fill-opacity=".5"><ellipse fill="#fff" rx="1" ry="1" transform="matrix(.51356 24.51688 -105.05471 2.20058 130.9 146)"/><ellipse cx="134" rx="255" ry="34"/><ellipse fill="#cff0ff" cx="119" cy="132" rx="72" ry="38"/><ellipse cy="134" rx="32" ry="32"/><ellipse rx="1" ry="1" transform="matrix(12.23997 .90008 -8.53513 116.06747 6 73)"/><ellipse cx="198" cy="178" rx="27" ry="27"/><ellipse fill="#0f0900" cx="61" cy="180" rx="26" ry="31"/><path fill="#fff" d="M218 149h35v22h-35z"/><ellipse cx="227" cy="66" rx="9" ry="72"/><ellipse fill="#0031fb" rx="1" ry="1" transform="matrix(-8.84488 -21.56606 42.19609 -17.30588 64 46.9)"/><ellipse fill="#b4baff" cx="46" cy="104" rx="26" ry="20"/><ellipse fill="#fccfe6" cx="127" cy="28" rx="18" ry="9"/><ellipse fill="#000071" cx="195" cy="123" rx="15" ry="15"/><ellipse fill="#a7a0dd" cx="187" cy="88" rx="26" ry="24"/><path d="M208 169l-93 27-40-26z"/><ellipse fill="#fff" rx="1" ry="1" transform="rotate(-41.1 219 18) scale(20.12664 10.25375)"/><ellipse fill="#051fc3" rx="1" ry="1" transform="rotate(-10.8 317.3 -832.8) scale(32.47113 21.48547)"/><ellipse fill="#050100" cx="235" cy="175" rx="162" ry="6"/><path d="M255 126.7l17.3 18-17.2 16.6-17.4-18z"/><ellipse cx="102" cy="4" rx="141" ry="16"/><path fill="#fff" d="M230.2 170l-29.8-26.8 15.4-17.1 29.8 26.7z"/><path fill="#2047f1" d="M236 17h20v80h-20z"/></g></svg>