<svg xmlns="http://www.w3.org/2000/svg" viewBox="0 0 532 378"><filter id="b"><feGaussianBlur stdDeviation="12" /></filter><path fill="#6c6b67" d="M0 0h532v376H0z"/><g filter="url(#b)" transform="translate(1 1) scale(2.07813)" fill-opacity=".5"><ellipse fill="#ceffff" cx="143" cy="126" rx="57" ry="57"/><ellipse fill="#300000" cx="115" cy="13" rx="188" ry="20"/><ellipse cx="23" cy="91" rx="45" ry="45"/><path fill="#e6ffff" d="M56.3 168.5l-39.8-9.9 7.2-29.1 39.8 9.9z"/><ellipse fill="#161f05" cx="218" cy="129" rx="23" ry="40"/><ellipse rx="1" ry="1" transform="matrix(-64.93832 -125.8127 21.85206 -11.27896 4.5 173.3)"/><ellipse fill="#bbf0ff" rx="1" ry="1" transform="rotate(-77.1 148 .4) scale(46.2563 29.36283)"/><ellipse fill="#ebdad3" cx="177" cy="85" rx="21" ry="40"/><ellipse fill="#7caad8" rx="1" ry="1" transform="rotate(-94.1 78 -10.2) scale(41.22966 22.04898)"/><path d="M206 27L165-9l48 125z"/><ellipse fill="#00000a" rx="1" ry="1" transform="matrix(5.15349 -6.88881 33.98124 25.42121 69.8 127.8)"/><ellipse fill="#ffe1af" cx="24" cy="78" rx="6" ry="25"/><path fill="#c1cac8" d="M238.4 83.8l-33.2-42.5 24.4-19.1 33.2 42.5z"/><path fill="#ffcd9a" d="M45 11h13v52H45z"/><path fill="#234163" d="M146.5 67.9L36.7 64l95.8 30 26.4 22.8z"/><ellipse cx="153" cy="14" rx="39" ry="11"/><path fill="#000509" d="M66 25l10 43-57 62z"/><ellipse fill="#fff" cx="73" cy="100" rx="5" ry="22"/><ellipse fill="#f8c6ab" cx="18" cy="120" rx="4" ry="29"/><path fill="#ffa407" d="M21 16.2L11.7-8.5-.1-5-16 12.3z"/><ellipse rx="1" ry="1" transform="matrix(-13.621 6.78059 -8.72898 -17.53498 77.6 12.7)"/><path fill="#dff1eb" d="M98 73L68 51.3l21.7-7 16.7-.5z"/></g></svg>