<svg xmlns="http://www.w3.org/2000/svg" viewBox="0 0 532 378"><filter id="b"><feGaussianBlur stdDeviation="12" /></filter><path fill="#b8a491" d="M0 0h532v376H0z"/><g filter="url(#b)" transform="translate(1 1) scale(2.07813)" fill-opacity=".5"><ellipse fill="#5d4a37" cx="51" cy="161" rx="90" ry="45"/><ellipse fill="#fbffff" rx="1" ry="1" transform="rotate(-146.7 69 -11.7) scale(65.20349 34.91347)"/><ellipse fill="#ffffe8" rx="1" ry="1" transform="rotate(9.4 -855.4 1513.7) scale(35.77964 44.95994)"/><path fill="#000023" d="M85 61L50 5l44 24z"/><path d="M34.5 111.3l12.9-5.5 30 70.9-12.8 5.5z"/><ellipse fill="#dfa244" rx="1" ry="1" transform="matrix(-5.4164 94.54965 -43.17146 -2.47314 233 38.7)"/><ellipse fill="#d0e9f8" cx="81" cy="141" rx="8" ry="85"/><ellipse fill="#dfdbff" rx="1" ry="1" transform="rotate(14.6 -102 13) scale(33.93577 57.81116)"/><path fill="#f1ffff" d="M119 115l21-22 37 61z"/><ellipse fill="azure" cx="109" cy="1" rx="44" ry="20"/><path fill="#946f53" d="M115 16l6 67 68 41z"/><ellipse fill="#5e536e" rx="1" ry="1" transform="rotate(-84.1 81.5 3.2) scale(21.75515 14.85295)"/><path fill="#d9e3db" d="M47.6 108.3L68.3 134 83 162.1l17.7-65.3z"/><ellipse fill="#d7ffff" cx="36" rx="34" ry="11"/><ellipse fill="#8d493a" rx="1" ry="1" transform="rotate(90.3 -21.7 133.1) scale(52.04678 18.02339)"/><ellipse fill="#7f4c17" rx="1" ry="1" transform="matrix(-10.36584 1.4033 -5.91554 -43.6966 255 30.1)"/><path fill="#eddeff" d="M58 81l-27 33 11-71z"/><ellipse fill="#fffecd" cx="238" cy="160" rx="35" ry="35"/><ellipse fill="#efdfae" rx="1" ry="1" transform="matrix(19.91068 -.6264 .71884 22.84905 185.6 81.1)"/><ellipse fill="#000b30" cx="66" cy="20" rx="8" ry="11"/><ellipse fill="#fff" rx="1" ry="1" transform="matrix(2.67679 -1.78698 51.28232 76.81764 51 17.2)"/><ellipse fill="#50404c" rx="1" ry="1" transform="matrix(-4.3674 2.40878 -14.2506 -25.83794 52.3 35.1)"/></g></svg>