<svg xmlns="http://www.w3.org/2000/svg" viewBox="0 0 532 378"><filter id="b"><feGaussianBlur stdDeviation="12" /></filter><path fill="#545f8c" d="M0 0h532v376H0z"/><g filter="url(#b)" transform="translate(1 1) scale(2.07813)" fill-opacity=".5"><path fill="#fff" d="M271 148L8 88l82 85z"/><ellipse cx="154" cy="12" rx="255" ry="22"/><path d="M42.2 134l-43 37.5-41.4-47.6 43-37.4z"/><ellipse fill="#fff" rx="1" ry="1" transform="matrix(-6.56663 -11.9942 18.47017 -10.11212 46.5 148)"/><ellipse rx="1" ry="1" transform="rotate(89.2 -54.2 62.4) scale(210.65411 12.31535)"/><ellipse fill="#fff" rx="1" ry="1" transform="matrix(-65.30498 -1.06878 .31845 -19.45789 129.5 145.7)"/><ellipse rx="1" ry="1" transform="matrix(.69019 48.6233 -9.59362 .13618 228 91)"/><path fill="#fff" d="M208 122l55 46-40 1z"/><ellipse cx="179" cy="180" rx="242" ry="11"/><ellipse fill="#2340d0" cx="88" cy="50" rx="76" ry="31"/><ellipse fill="#91a7ee" cx="165" cy="99" rx="41" ry="29"/><path d="M271 114.6L228.7 150l5.3-3.6 37 17.9z"/><ellipse cx="197" cy="171" rx="22" ry="20"/><ellipse fill="#ffd1be" cx="128" cy="29" rx="12" ry="12"/><ellipse fill="#6c93ec" cx="76" cy="111" rx="59" ry="20"/><ellipse fill="#fff" cx="159" cy="146" rx="26" ry="25"/><ellipse fill="#000072" cx="195" cy="123" rx="15" ry="14"/><ellipse fill="#000005" rx="1" ry="1" transform="matrix(11.73431 -5.1228 13.70922 31.4024 219.1 21.5)"/><path d="M-16-13l99 37L202-1z"/><ellipse fill="#0036ff" cx="32" cy="68" rx="16" ry="23"/><ellipse fill="#1b44f8" cx="254" cy="60" rx="19" ry="39"/><ellipse fill="#0718ae" rx="1" ry="1" transform="rotate(100 66.3 90.3) scale(21.03862 26.44551)"/></g></svg>