<svg xmlns="http://www.w3.org/2000/svg" viewBox="0 0 532 378"><filter id="b"><feGaussianBlur stdDeviation="12" /></filter><path fill="#14152a" d="M0 0h532v376H0z"/><g filter="url(#b)" transform="translate(1 1) scale(2.07813)" fill-opacity=".5"><ellipse fill="#794f58" cx="117" cy="142" rx="59" ry="48"/><ellipse fill="#000875" rx="1" ry="1" transform="matrix(27.95792 32.85044 -62.62588 53.2988 119 0)"/><ellipse cx="255" cy="63" rx="90" ry="90"/><ellipse fill="#000501" rx="1" ry="1" transform="matrix(-47.66196 -15.43783 20.20916 -62.3927 16 89.4)"/><ellipse fill="#4a271a" rx="1" ry="1" transform="matrix(53.96054 -19.42699 8.66133 24.05777 156.9 122)"/><ellipse fill="#7270d6" rx="1" ry="1" transform="matrix(-19.58245 -.78651 .25046 -6.2359 142.2 169.3)"/><path fill="#1a51ff" d="M96 6.7l11.8 5.3-7.7 17.3L88.2 24z"/><path fill="#3131bd" d="M0 160h35v14H0z"/><ellipse fill="#1b4cff" cx="137" cy="17" rx="9" ry="9"/><ellipse fill="#000c0e" cx="116" cy="142" rx="20" ry="13"/><path fill="#c2277b" d="M135.5 119.8l5.2-15.1 21.8 7.5-5.2 15.1z"/><ellipse fill="#4f62ac" rx="1" ry="1" transform="rotate(106.5 -16.1 118.2) scale(8.24621 17.22987)"/><path fill="#1a1d98" d="M208 162h48v13h-48z"/><ellipse cx="35" cy="6" rx="54" ry="11"/><path fill="#9e7268" d="M108 123l11-32-49 45z"/><ellipse fill="#001f34" cx="89" cy="60" rx="70" ry="34"/><path fill="#002eff" d="M54 15h10v16H54z"/><ellipse cx="60" cy="177" rx="24" ry="16"/><ellipse fill="#000001" cx="255" cy="65" rx="63" ry="63"/><path fill="#001dff" d="M15 21l11 4 1-10z"/><ellipse fill="#683b13" rx="1" ry="1" transform="rotate(-88.7 105.9 32) scale(7.04321 34.64034)"/><ellipse rx="1" ry="1" transform="matrix(3.06075 83.47123 -15.65737 .57413 5.4 43.8)"/></g></svg>