<svg xmlns="http://www.w3.org/2000/svg" viewBox="0 0 532 378"><filter id="b"><feGaussianBlur stdDeviation="12" /></filter><path fill="#6c6b67" d="M0 0h532v376H0z"/><g filter="url(#b)" transform="translate(1 1) scale(2.07813)" fill-opacity=".5"><ellipse fill="#cff" cx="142" cy="125" rx="57" ry="57"/><ellipse fill="#300000" rx="1" ry="1" transform="matrix(.06193 17.74298 -198.43895 .69269 131.2 15)"/><ellipse cx="12" cy="91" rx="57" ry="45"/><ellipse fill="#ecffff" rx="1" ry="1" transform="matrix(-8.21362 11.03515 -21.09887 -15.7042 36.8 149.8)"/><path fill="#342f0d" d="M200.6 80.9l41.8 3.6-9 102.6-41.8-3.6z"/><ellipse cy="167" rx="28" ry="28"/><ellipse fill="#bcf0ff" rx="1" ry="1" transform="rotate(5.3 -1808.6 1323.3) scale(31.52683 82.65421)"/><ellipse fill="#ecdad2" cx="176" cy="82" rx="21" ry="37"/><path fill="#b0defa" d="M112 49l-44 69 7-83z"/><ellipse fill="#b6b9b5" cx="233" cy="57" rx="24" ry="33"/><ellipse fill="#010000" rx="1" ry="1" transform="matrix(37.44635 99.40997 -5.74995 2.16593 186.6 28.8)"/><ellipse fill="#000009" rx="1" ry="1" transform="matrix(5.20898 -7.99056 35.841 23.36445 66 126.3)"/><path fill="#ffcda0" d="M21 56l-6 63 21-48z"/><ellipse fill="#001729" cx="87" cy="71" rx="59" ry="6"/><ellipse fill="#f7bb8b" cx="51" cy="33" rx="8" ry="32"/><path fill="#1f0000" d="M199 5l12 55L107 2z"/><ellipse fill="#1c70f8" rx="1" ry="1" transform="rotate(-103.3 90 3.3) scale(9.55841 29.37427)"/><path fill="#c6ecf8" d="M29.8 136.3l31.4-6.1 5 25.5-31.4 6.1z"/><path d="M71.1 77.1l-15-.2.8-44 15 .2z"/><path fill="#ffaa05" d="M2.9-11.3L-16 9.5l26 6 11.8-5.6z"/><ellipse fill="#494853" rx="1" ry="1" transform="rotate(173.5 71.3 58.4) scale(5.23689 79.26323)"/><ellipse cx="78" cy="4" rx="16" ry="30"/></g></svg>