<svg xmlns="http://www.w3.org/2000/svg" viewBox="0 0 532 378"><filter id="b"><feGaussianBlur stdDeviation="12" /></filter><path fill="#646b6c" d="M0 0h532v376H0z"/><g filter="url(#b)" transform="translate(1 1) scale(2.07813)" fill-opacity=".5"><ellipse fill="#cbe6ff" cx="204" cy="76" rx="64" ry="34"/><ellipse fill="#201000" cx="74" cy="66" rx="61" ry="61"/><ellipse rx="1" ry="1" transform="matrix(-41.839 -32.47145 22.22898 -28.64173 61 152.3)"/><ellipse fill="#fff" rx="1" ry="1" transform="matrix(31.50636 .07962 -.06464 25.58059 210.5 165.9)"/><path fill="#fff" d="M-13 196L34 69l-50 11z"/><path fill="#fffffb" d="M34 80l44-9-10 33z"/><path fill="#e9ffff" d="M155 55h31v81h-31z"/><ellipse fill="#00040a" cx="138" cy="44" rx="30" ry="21"/><path fill="#f4ffff" d="M119 196l11-55-31-10z"/><ellipse fill="#738b97" cx="221" cy="112" rx="43" ry="43"/><ellipse rx="1" ry="1" transform="rotate(87.2 21.7 81.7) scale(37.56335 20.2869)"/><ellipse fill="#96b3c7" cx="132" cy="82" rx="18" ry="18"/><ellipse fill="#211400" rx="1" ry="1" transform="matrix(-10.34533 -17.79165 22.94404 -13.3413 155.6 173.8)"/><ellipse fill="#fff" rx="1" ry="1" transform="matrix(98.80453 -26.86042 2.24528 8.25914 15.9 0)"/><ellipse fill="#050f0f" cx="54" cy="167" rx="41" ry="41"/><ellipse fill="#d5f2ff" cx="211" cy="174" rx="32" ry="32"/><path fill="#d3ffff" d="M137 35l-6 30 12 11z"/><ellipse fill="#faffff" rx="1" ry="1" transform="matrix(-7.6459 -.77453 5.1767 -51.10268 4.2 124.3)"/><ellipse fill="#2b3941" cx="207" cy="90" rx="14" ry="14"/><path fill="#040000" d="M23 7h46v18H23z"/><ellipse fill="#223337" cx="40" cy="131" rx="32" ry="32"/><path fill="#0d0900" d="M67.6 85.8l33.6-9.7 13.2 46.1-33.6 9.7z"/></g></svg>