<svg xmlns="http://www.w3.org/2000/svg" viewBox="0 0 532 378"><filter id="b"><feGaussianBlur stdDeviation="12" /></filter><path fill="#545f8c" d="M0 0h532v376H0z"/><g filter="url(#b)" transform="translate(1 1) scale(2.07813)" fill-opacity=".5"><ellipse fill="#fff" rx="1" ry="1" transform="matrix(-107.3912 -17.54874 4.65315 -28.47542 136.5 139.2)"/><ellipse rx="1" ry="1" transform="matrix(.14088 -23.97234 229.20336 1.347 125 10.6)"/><ellipse cx="198" cy="180" rx="25" ry="29"/><ellipse rx="1" ry="1" transform="matrix(1.69786 169.08253 -17.33807 .1741 7 156)"/><ellipse fill="#f8ffff" cx="82" cy="151" rx="57" ry="19"/><ellipse fill="#0a0400" rx="1" ry="1" transform="matrix(-21.99637 -8.00039 10.77024 -29.61185 59.3 180)"/><ellipse fill="#002cff" rx="1" ry="1" transform="matrix(-42.5427 10.48156 -4.96442 -20.14967 68.2 43.8)"/><ellipse cx="227" cy="84" rx="10" ry="54"/><ellipse fill="#fff" rx="1" ry="1" transform="rotate(-178.7 77 70.7) scale(84.62359 9.94243)"/><ellipse fill="#8696db" rx="1" ry="1" transform="matrix(6.899 30.89953 -43.56588 9.72705 169.7 92)"/><path fill="#ffe7ff" d="M116 21h28v14h-28z"/><path fill="#000002" d="M8-16l8.3 131.1L48 130.6l-64 51.8z"/><ellipse rx="1" ry="1" transform="matrix(-147.6046 3.3136 -.20586 -9.16996 129.5 180)"/><ellipse fill="#00006b" cx="197" cy="123" rx="15" ry="15"/><ellipse fill="#fff" rx="1" ry="1" transform="matrix(-21.99184 -10.19635 3.19802 -6.8976 234.1 158.3)"/><ellipse fill="#6581f3" rx="1" ry="1" transform="matrix(23.72902 22.26716 -18.2431 19.44077 43.2 99.3)"/><path d="M237 20L109-16-15 17z"/><path fill="#000fbe" d="M192 28.5v33h-58v-33z"/><ellipse fill="#fff" rx="1" ry="1" transform="matrix(-28.46207 5.83061 -4.42847 -21.61753 157.5 148.3)"/><ellipse fill="#002df9" rx="1" ry="1" transform="matrix(-6.79742 22.64875 -13.92723 -4.1799 31.6 67.7)"/><path d="M212 111.5l22.5 27.7 36.5-16.4v58.8z"/><path fill="#fff" d="M34 135l43 1-58 34z"/></g></svg>