<svg xmlns="http://www.w3.org/2000/svg" viewBox="0 0 532 378"><filter id="b"><feGaussianBlur stdDeviation="12" /></filter><path fill="#642c4d" d="M0 0h532v376H0z"/><g filter="url(#b)" transform="translate(1 1) scale(2.07813)" fill-opacity=".5"><ellipse fill="#779dde" rx="1" ry="1" transform="matrix(.55806 -39.96558 90.5131 1.26388 107.6 74.7)"/><path fill="#d00004" d="M237 177l34-72-287 37z"/><ellipse rx="1" ry="1" transform="matrix(-33.79584 9.91888 -26.36359 -89.82663 229.7 25.6)"/><ellipse fill="#0f0c14" rx="1" ry="1" transform="matrix(-22.2929 -8.51283 16.40504 -42.96055 133.1 133.8)"/><ellipse fill="#00083d" rx="1" ry="1" transform="matrix(-24.50513 60.4809 -16.79398 -6.80444 85 26.3)"/><ellipse fill="#a1c7b4" cx="113" cy="69" rx="30" ry="34"/><ellipse fill="#2f0000" rx="1" ry="1" transform="matrix(-1.29964 32.41755 -90.98093 -3.6475 59.5 180)"/><ellipse fill="#000027" cx="147" rx="255" ry="22"/><ellipse fill="#f51d40" rx="1" ry="1" transform="matrix(-37.56786 14.89403 -11.88078 -29.96742 205.1 131)"/><ellipse fill="#82b9ff" cx="157" cy="29" rx="13" ry="13"/><ellipse fill="#e23a33" rx="1" ry="1" transform="matrix(8.6807 -.50053 4.0655 70.50852 31.2 102.4)"/><ellipse fill="#92ecff" rx="1" ry="1" transform="matrix(9.04724 -3.10416 5.12775 14.94507 55.6 98.8)"/><ellipse fill="#ff463f" rx="1" ry="1" transform="matrix(-24.9391 2.53322 -1.15474 -11.36823 76 128.1)"/><ellipse fill="#080000" cx="251" cy="180" rx="32" ry="32"/><ellipse fill="#ff7661" rx="1" ry="1" transform="matrix(.47015 19.57094 -8.13168 .19535 197.2 88.4)"/><path fill="#7ab7ff" d="M53 31.2l13.6 13.2L43 68.8 29.4 55.6z"/><path fill="#7cc5ff" d="M189 82l-16-27-16 73z"/><path fill="#ff0caf" d="M52-16L66-2 22 48z"/><ellipse fill="#3b0f93" cx="152" cy="66" rx="17" ry="34"/><path fill="#1b002b" d="M198.3 135.6l30.5-59.7 8.9 4.5-30.5 59.7z"/><path fill="#431a36" d="M104 107.4L122.6 83l55.8 51.1-111.2-26.4z"/><path fill="#f9ebc9" d="M103 50l-6 51-17-5z"/></g></svg>