<svg xmlns="http://www.w3.org/2000/svg" viewBox="0 0 532 378"><filter id="b"><feGaussianBlur stdDeviation="12" /></filter><path fill="#b8a491" d="M0 0h532v376H0z"/><g filter="url(#b)" transform="translate(1 1) scale(2.07813)" fill-opacity=".5"><ellipse fill="#5c4b3b" cx="66" cy="180" rx="69" ry="69"/><ellipse fill="#fbffff" rx="1" ry="1" transform="matrix(-16.20874 24.76955 -65.78896 -43.0511 123.4 12.5)"/><ellipse fill="#ffffe9" rx="1" ry="1" transform="rotate(13.6 -548.5 1050.3) scale(30.80732 43.60844)"/><ellipse fill="#cfe7f6" cx="81" cy="122" rx="9" ry="65"/><path fill="#000e37" d="M96 26l-9 39L48 4z"/><ellipse fill="#07171c" cx="58" cy="165" rx="13" ry="44"/><ellipse fill="#dea245" cx="237" cy="33" rx="54" ry="96"/><ellipse fill="#cfd3ff" rx="1" ry="1" transform="rotate(-142.7 12.7 11.5) scale(23.89024 102.61835)"/><ellipse fill="#fff" cx="63" cy="112" rx="11" ry="11"/><ellipse fill="#fff" cx="141" cy="113" rx="16" ry="16"/><ellipse fill="#bda579" cx="36" cy="180" rx="23" ry="41"/><ellipse fill="#8e4a3a" rx="1" ry="1" transform="matrix(1.16809 46.17637 -18.8807 .47761 113.1 150.2)"/><path fill="#5c4d67" d="M54 64h27v40H54z"/><ellipse rx="1" ry="1" transform="rotate(-113.8 75.3 53) scale(38.83586 6.21452)"/><path fill="#ede0ff" d="M44 41l-13 71 27-28z"/><path fill="#3e2b30" d="M66 49L33 25l6-19z"/><ellipse fill="#e1fcff" rx="1" ry="1" transform="matrix(-45.045 -9.65681 6.50387 -30.33787 108.2 -.1)"/><ellipse fill="#fffecb" cx="238" cy="159" rx="34" ry="34"/><ellipse fill="#804c16" rx="1" ry="1" transform="matrix(-5.38928 -52.10896 10.81678 -1.1187 255 23)"/><path fill="#866752" d="M133.7 54.1l-5.9-17.3 65.9 92.5-78-55z"/><ellipse fill="#dcd9b5" cx="175" cy="59" rx="21" ry="42"/><ellipse fill="#8f7746" cx="6" cy="144" rx="20" ry="47"/></g></svg>