<svg xmlns="http://www.w3.org/2000/svg" viewBox="0 0 532 378"><filter id="b"><feGaussianBlur stdDeviation="12" /></filter><path fill="#646b6c" d="M0 0h532v376H0z"/><g filter="url(#b)" transform="translate(1 1) scale(2.07813)" fill-opacity=".5"><ellipse fill="#090300" rx="1" ry="1" transform="rotate(16.8 -341.5 298.9) scale(49.48555 114.41966)"/><ellipse fill="#bcd8ed" cx="229" cy="109" rx="78" ry="78"/><ellipse fill="#fff" rx="1" ry="1" transform="matrix(-13.169 -7.31058 23.82809 -42.92303 0 112)"/><ellipse fill="#f4ffff" rx="1" ry="1" transform="matrix(7.54419 19.55122 -25.75258 9.9371 167.2 75.6)"/><path fill="#f0ddcc" d="M58.8 95.4L-16 90.1 89.2 66l-20.6 38.3z"/><ellipse fill="#d0e6ff" rx="1" ry="1" transform="matrix(10.35294 -2.123 6.73436 32.84052 114.5 149.2)"/><ellipse fill="#231a0e" cx="66" cy="41" rx="102" ry="31"/><ellipse fill="#fbffff" cx="209" cy="174" rx="30" ry="30"/><ellipse fill="#546364" cx="216" cy="110" rx="30" ry="37"/><ellipse fill="#fff" cy="126" rx="10" ry="45"/><ellipse fill="#212019" rx="1" ry="1" transform="matrix(24.864 -11.1222 10.64818 23.8043 155.1 165.6)"/><path fill="#a9cce6" d="M148 94l-11-53-25 53z"/><ellipse fill="#fff" rx="1" ry="1" transform="matrix(29.40851 2.00487 -.59694 8.7563 3.2 0)"/><ellipse fill="#000801" cx="72" cy="175" rx="36" ry="54"/><ellipse fill="#9a977c" cx="117" rx="54" ry="21"/><path fill="#080000" d="M104.4 70.8l20.2 41.3-35 17.1L69.4 88z"/><ellipse fill="#fff" rx="1" ry="1" transform="rotate(-160.3 12.6 47.7) scale(12.24449 20.83515)"/><ellipse rx="1" ry="1" transform="matrix(-1.98823 7.81033 -32.28144 -8.21772 54.8 17)"/><ellipse fill="#e9ffff" cx="170" cy="82" rx="15" ry="30"/><path fill="#21466b" d="M153 78l-29-8 34 58z"/><path d="M141 30h15v35h-15z"/><path fill="#d9bca9" d="M89 53L62 99 41 86z"/></g></svg>