<svg xmlns="http://www.w3.org/2000/svg" viewBox="0 0 532 378"><filter id="b"><feGaussianBlur stdDeviation="12" /></filter><path fill="#646b6c" d="M0 0h532v376H0z"/><g filter="url(#b)" transform="translate(1 1) scale(2.07813)" fill-opacity=".5"><ellipse fill="#c7e5ff" cx="188" cy="81" rx="42" ry="42"/><ellipse cx="56" cy="142" rx="48" ry="48"/><ellipse fill="#fff" rx="1" ry="1" transform="rotate(-115.4 164.2 22.2) scale(41.24825 33.94485)"/><ellipse fill="#231000" cx="76" cy="60" rx="56" ry="56"/><ellipse fill="#fff" rx="1" ry="1" transform="matrix(-10.59099 -7.24496 20.33194 -29.72207 10.7 95.2)"/><path fill="#e4e7e6" d="M39 77h33v24H39z"/><ellipse fill="#9eb6c7" cx="242" cy="115" rx="82" ry="82"/><path fill="#fff" d="M9 71l2 98-27-20z"/><ellipse fill="#070800" rx="1" ry="1" transform="matrix(-57.81833 -6.07695 2.41965 -23.02141 107.8 41.7)"/><path fill="#e9f8ff" d="M106 135h21v46h-21z"/><ellipse fill="#fff" cx="169" cy="82" rx="15" ry="29"/><ellipse fill="#546361" cx="212" cy="110" rx="28" ry="37"/><ellipse fill="#221e12" rx="1" ry="1" transform="rotate(-8.5 1196 -961.3) scale(29.00119 18.05901)"/><ellipse cx="76" cy="173" rx="33" ry="33"/><ellipse fill="#92b8d7" cx="137" cy="79" rx="18" ry="18"/><ellipse fill="#fff" rx="28" ry="13"/><ellipse fill="#0b0700" rx="1" ry="1" transform="matrix(7.47342 27.2328 -22.04575 6.04995 97.2 98.2)"/><ellipse fill="#383029" cx="35" cy="38" rx="35" ry="35"/><ellipse fill="#e2f6ff" cx="209" cy="175" rx="30" ry="30"/><path fill="#d0ffff" d="M134 36h5v33h-5z"/><ellipse fill="#e49e6e" cx="74" cy="75" rx="14" ry="11"/><path fill="#fff" d="M25 78l-41 2 15 75z"/></g></svg>