<svg xmlns="http://www.w3.org/2000/svg" viewBox="0 0 532 378"><filter id="b"><feGaussianBlur stdDeviation="12" /></filter><path fill="#14152a" d="M0 0h532v376H0z"/><g filter="url(#b)" transform="translate(1 1) scale(2.07813)" fill-opacity=".5"><ellipse fill="#794f58" rx="1" ry="1" transform="matrix(-.58251 -47.6769 57.82433 -.7065 118.9 141.4)"/><ellipse fill="#000773" rx="1" ry="1" transform="matrix(-72.87894 30.53471 -13.12402 -31.32384 121.4 13)"/><ellipse cx="236" cy="64" rx="70" ry="89"/><ellipse fill="#000102" rx="1" ry="1" transform="matrix(-13.18851 -88.24641 52.08393 -7.784 8 64.7)"/><ellipse fill="#442217" rx="1" ry="1" transform="matrix(6.45565 24.4506 -64.14943 16.93726 161.8 125.1)"/><ellipse fill="#1240fa" rx="1" ry="1" transform="rotate(-65.6 63.8 -67.4) scale(10.67856 9.27592)"/><path fill="#2e2bab" d="M29.5 180.3L-16 167.8l24.1-6.4 33.7-2z"/><path fill="#6765b4" d="M84 164h78v12H84z"/><ellipse fill="#1542f9" rx="1" ry="1" transform="matrix(-9.31571 -.30956 .3364 -10.12356 140.4 15.4)"/><ellipse fill="#c32978" rx="1" ry="1" transform="matrix(10.24736 .46657 -.44247 9.71805 147 116)"/><path fill="#181b90" d="M208 161h48v15h-48z"/><ellipse fill="#00322e" cx="106" cy="77" rx="66" ry="21"/><ellipse fill="#061f1f" rx="1" ry="1" transform="rotate(-87 135.2 11.1) scale(38.63253 8.96166)"/><path fill="#a48675" d="M64.7 140.2l34.4-21.5L112 97.3l2.5 22.3z"/><ellipse cx="255" cy="84" rx="45" ry="65"/><path fill="#002d94" d="M67 17.3l-4.6 8.5-47.5 36 41-46.4z"/><ellipse fill="#001aed" cx="24" cy="23" rx="6" ry="6"/><path fill="#a05e1e" d="M41 139l27 3 29-21z"/><ellipse fill="#000023" rx="1" ry="1" transform="matrix(-20.11665 48.65488 -24.54035 -10.14635 175.5 18.7)"/><path fill="#36438c" d="M29 153h200v4H29z"/><ellipse fill="#090910" cx="115" cy="148" rx="82" ry="3"/><path fill="#0033e2" d="M70.4 58.3L65 60.9l4.2-14.1 14.5-.8z"/></g></svg>