<svg xmlns="http://www.w3.org/2000/svg" viewBox="0 0 532 378"><filter id="b"><feGaussianBlur stdDeviation="12" /></filter><path fill="#642c4d" d="M0 0h532v376H0z"/><g filter="url(#b)" transform="translate(1 1) scale(2.07813)" fill-opacity=".5"><ellipse fill="#6d93d7" rx="1" ry="1" transform="matrix(87.7634 2.93153 -1.5403 46.113 110 72.9)"/><ellipse fill="#ff0118" cx="209" cy="139" rx="47" ry="37"/><path d="M317.4 78.4L242.1 122 172.6 1.6 247.9-42z"/><ellipse fill="#6f0000" cx="67" cy="154" rx="102" ry="32"/><ellipse fill="#00082f" cx="96" cy="15" rx="46" ry="26"/><path fill="#12070b" d="M115.8 140.9l-7-39.4 47.4-8.4 7 39.4z"/><ellipse fill="#afd1bd" rx="1" ry="1" transform="matrix(20.41566 12.27202 -20.37949 33.9032 108.6 68.7)"/><ellipse fill="#ff4442" cx="81" cy="130" rx="29" ry="12"/><ellipse fill="#030000" cx="247" cy="180" rx="29" ry="31"/><ellipse fill="#0b0d51" rx="1" ry="1" transform="matrix(4.0958 -52.04197 15.48665 1.21883 74.1 43.2)"/><path fill="#7ac3ff" d="M129.7 18.6L171 47l-4.8-25.6-3.4 1.6z"/><ellipse fill="#000006" rx="1" ry="1" transform="matrix(-24.3988 -24.02944 38.37001 -38.95982 0 5)"/><ellipse fill="#ff3c3b" cx="28" cy="77" rx="8" ry="48"/><ellipse fill="#ff555f" cx="195" cy="100" rx="7" ry="51"/><ellipse fill="#79a7ff" cx="50" cy="79" rx="10" ry="40"/><ellipse fill="#ff194a" rx="1" ry="1" transform="rotate(-14.8 688 -677.5) scale(56.70095 11.4723)"/><ellipse fill="#a1ebff" rx="1" ry="1" transform="matrix(-8.31616 6.08651 -7.68513 -10.5004 178.2 83.2)"/><ellipse fill="#18111a" rx="1" ry="1" transform="matrix(.8338 21.91071 -98.92354 3.7645 61.9 180)"/><ellipse rx="1" ry="1" transform="matrix(37.83328 -4.01002 7.73697 72.99595 255 43)"/><ellipse fill="#040929" cx="155" cy="1" rx="91" ry="20"/><ellipse fill="#c0686b" cx="38" cy="112" rx="10" ry="26"/><ellipse fill="#2f0082" rx="1" ry="1" transform="rotate(-8.1 572.3 -1047) scale(10.54785 29.08362)"/></g></svg>