<svg xmlns="http://www.w3.org/2000/svg" viewBox="0 0 532 378"><filter id="b"><feGaussianBlur stdDeviation="12" /></filter><path fill="#6c6b67" d="M0 0h532v376H0z"/><g filter="url(#b)" transform="translate(1 1) scale(2.07813)" fill-opacity=".5"><ellipse fill="#d3ffff" rx="1" ry="1" transform="matrix(-38.00302 62.53778 -43.13239 -26.21073 142.2 130.1)"/><ellipse fill="#310000" rx="1" ry="1" transform="matrix(179.798 -4.10705 .63587 27.8369 137.1 6.1)"/><ellipse rx="1" ry="1" transform="matrix(-23.00335 27.33386 -44.38761 -37.35529 21.4 87)"/><ellipse fill="#e2ffff" cx="42" cy="151" rx="20" ry="20"/><ellipse fill="#100a00" rx="1" ry="1" transform="matrix(-25.04988 -131.07658 9.6587 -1.84586 215.7 127.4)"/><path fill="#a3dcff" d="M66 110l101 86L87 23z"/><ellipse cx="5" cy="130" rx="9" ry="86"/><path fill="#ffc89f" d="M32.3 69.6l-17.4 81.3 3.6-78.2L20.2 46z"/><ellipse fill="#b2b3ae" cx="238" cy="55" rx="32" ry="32"/><path d="M84.9 158.8l-23.7-4.1 6-33.5 23.6 4.1z"/><path fill="#ffddb0" d="M45 9.2l15 .6-1 25-15-.6z"/><ellipse cx="12" cy="169" rx="18" ry="18"/><path fill="#072635" d="M36 65h116v13H36z"/><ellipse cx="155" cy="14" rx="42" ry="11"/><ellipse fill="#cbf9ff" cx="126" cy="153" rx="21" ry="59"/><ellipse fill="#f0c7ae" rx="1" ry="1" transform="matrix(-18.3483 -21.33186 9.81404 -8.4414 178 64)"/><path fill="#1f70d7" d="M138 62l3 28-72 18z"/><ellipse cx="78" cy="12" rx="16" ry="21"/><path fill="#4a606f" d="M145.2 58.9l25.3 119.3-13.7 3-25.3-119.4z"/><path fill="#ffb30c" d="M15.9-16.3l3 29.8-26.8 2.8-3-29.8z"/><ellipse fill="#083a35" cx="226" cy="123" rx="15" ry="34"/><path fill="#0f5b9f" d="M148 127l-12.6-44.6 15.4 56.7-91 18.5z"/></g></svg>