<svg xmlns="http://www.w3.org/2000/svg" viewBox="0 0 532 378"><filter id="b"><feGaussianBlur stdDeviation="12" /></filter><path fill="#14152a" d="M0 0h532v376H0z"/><g filter="url(#b)" transform="translate(1 1) scale(2.07813)" fill-opacity=".5"><ellipse fill="#794f58" cx="120" cy="142" rx="60" ry="47"/><ellipse fill="#00087b" cx="106" cy="25" rx="55" ry="30"/><ellipse cx="255" cy="64" rx="90" ry="90"/><ellipse fill="#000300" cy="86" rx="65" ry="65"/><ellipse fill="#4c2519" rx="1" ry="1" transform="rotate(71.4 -4.6 174.9) scale(27.30534 50.05622)"/><path fill="#6363b1" d="M82 163h82v12H82z"/><ellipse fill="#1750ff" rx="1" ry="1" transform="matrix(-6.77331 -2.03208 3.1187 -10.39523 98.2 18.7)"/><ellipse fill="#001718" cx="118" cy="143" rx="15" ry="23"/><ellipse fill="#222392" rx="1" ry="1" transform="matrix(-4.57385 -11.50718 25.14698 -9.99536 14.2 168.7)"/><path fill="#1b52ff" d="M143 5l5 22-22-12z"/><ellipse fill="#151b76" rx="1" ry="1" transform="matrix(2.81724 -10.3345 32.23968 8.7887 224.7 164.3)"/><path fill="#d62b8b" d="M136 110h22v11h-22z"/><ellipse fill="#001d30" cx="106" cy="61" rx="89" ry="35"/><path fill="#9e6538" d="M52.3 144.7l-2.7-7.5 60.1-21.9 2.7 7.5z"/><ellipse cx="255" cy="75" rx="55" ry="55"/><ellipse rx="1" ry="1" transform="rotate(85.5 19.5 21) scale(17.29482 62.05202)"/><path fill="#ac8093" d="M122.7 96l-8-6.5-5.8 32.4-14.4-4.4z"/><ellipse fill="#002df1" rx="1" ry="1" transform="matrix(2.75702 3.58895 -7.57447 5.81868 71.3 51.6)"/><path fill="#0028e7" d="M56 35l12-19-14-2z"/><ellipse cx="186" cy="176" rx="26" ry="15"/><ellipse rx="1" ry="1" transform="rotate(-107.4 93.7 69.8) scale(14.9427 29.00272)"/><ellipse fill="#000029" cx="170" cy="18" rx="21" ry="50"/></g></svg>