<svg xmlns="http://www.w3.org/2000/svg" viewBox="0 0 532 378"><filter id="b"><feGaussianBlur stdDeviation="12" /></filter><path fill="#646b6c" d="M0 0h532v376H0z"/><g filter="url(#b)" transform="translate(1 1) scale(2.07813)" fill-opacity=".5"><ellipse cx="55" cy="143" rx="47" ry="47"/><ellipse fill="#c4e1f8" cx="194" cy="83" rx="46" ry="46"/><ellipse fill="#fff" rx="1" ry="1" transform="matrix(19.20617 23.46536 -24.40105 19.97203 210.4 171.5)"/><ellipse fill="#100000" cx="87" cy="53" rx="46" ry="46"/><ellipse fill="#fff" rx="1" ry="1" transform="matrix(22.34113 -45.0665 14.26789 7.07312 0 114.8)"/><path d="M86 21h34v100H86z"/><path fill="#ffedd2" d="M66 101.3l21.8-34.6L47.5 78l-15 2.4z"/><ellipse fill="#99b0bf" cx="238" cy="106" rx="74" ry="74"/><ellipse fill="#f6ffff" cx="116" cy="159" rx="10" ry="27"/><ellipse fill="#fff" rx="1" ry="1" transform="rotate(88.9 42.8 125.4) scale(26.26506 13.42809)"/><ellipse fill="#302314" rx="1" ry="1" transform="matrix(38.7851 12.1094 -10.346 33.1371 40.6 40.4)"/><ellipse fill="#576667" rx="1" ry="1" transform="matrix(-28.12031 1.22776 -1.7588 -40.28294 213.8 109.7)"/><path d="M158.8 21.9l9.3 30.6-24.9 7.6-9.3-30.6z"/><path fill="#fff" d="M15 73l-8 98-23-65z"/><ellipse cx="80" cy="170" rx="28" ry="37"/><ellipse fill="#fff" rx="1" ry="1" transform="matrix(82.98226 -21.34356 1.42086 5.5242 19.8 1.5)"/><ellipse fill="#1d1000" rx="1" ry="1" transform="matrix(10.03818 17.24421 -20.4146 11.88371 158 172.2)"/><path fill="#aecadd" d="M112.6 94.9l9.8-30.6 31.5 1.3-2.1 27.9z"/><ellipse fill="#dbf2ff" rx="1" ry="1" transform="matrix(-28.59089 -8.57768 6.66644 -22.2204 211 165.8)"/><path fill="#f9ffff" d="M157 55h28v43h-28z"/><path fill="#161202" d="M124.3 109.4L73.2 139l-17.5-30.3L106.8 79z"/><path fill="#0c0900" d="M118 80l18-51L30 4z"/></g></svg>