<svg xmlns="http://www.w3.org/2000/svg" viewBox="0 0 532 378"><filter id="b"><feGaussianBlur stdDeviation="12" /></filter><path fill="#642c4d" d="M0 0h532v376H0z"/><g filter="url(#b)" transform="translate(1 1) scale(2.07813)" fill-opacity=".5"><ellipse fill="#729ee1" cx="110" cy="73" rx="88" ry="41"/><ellipse fill="#ff001b" rx="1" ry="1" transform="rotate(-108.8 153 -2.9) scale(27.53141 54.03905)"/><ellipse rx="1" ry="1" transform="rotate(-26.5 198.6 -472.9) scale(36.60424 90.75365)"/><ellipse fill="maroon" cx="79" cy="148" rx="91" ry="25"/><ellipse fill="#00043d" cx="77" cy="7" rx="83" ry="33"/><path fill="#0e0a0c" d="M108.8 99.2l47.9-3.3 2.5 36.9-47.9 3.3z"/><ellipse fill="#030043" rx="1" ry="1" transform="rotate(-163.1 41.2 24.7) scale(14.69556 30.58624)"/><ellipse fill="#ff4d4d" cx="80" cy="128" rx="29" ry="11"/><ellipse fill="#abc9b5" rx="1" ry="1" transform="matrix(-17.12797 33.40978 -23.78385 -12.1931 109.7 69.7)"/><ellipse fill="#e12e6b" rx="1" ry="1" transform="matrix(9.76096 2.45106 -17.9481 71.47533 37.4 34.7)"/><path fill="#7ccbff" d="M145 20h22v21h-22z"/><path fill="#6dbcff" d="M32 52l28 71-4-90z"/><ellipse fill="#210100" cx="55" cy="180" rx="93" ry="31"/><ellipse fill="#ff3859" cx="195" cy="107" rx="9" ry="69"/><ellipse fill="#3d0000" rx="1" ry="1" transform="matrix(98.78155 -83.77285 14.53897 17.14376 233.6 180)"/><ellipse rx="1" ry="1" transform="matrix(5.8825 65.9605 -24.66304 2.1995 247 49)"/><path fill="#7c8efe" d="M165 29l24 55-29 43z"/><ellipse fill="#460088" cx="155" cy="66" rx="15" ry="33"/><ellipse fill="#e95751" rx="1" ry="1" transform="matrix(6.71953 -.80925 6.45746 53.619 31.5 85.5)"/><path fill="#abbdff" d="M42 90h26v23H42z"/><ellipse fill="#f7133a" rx="1" ry="1" transform="rotate(-47.1 265.6 -149.7) scale(15.77948 37.15825)"/><ellipse fill="#700867" cx="192" cy="43" rx="21" ry="24"/></g></svg>