<svg xmlns="http://www.w3.org/2000/svg" viewBox="0 0 532 378"><filter id="b"><feGaussianBlur stdDeviation="12" /></filter><path fill="#14152a" d="M0 0h532v376H0z"/><g filter="url(#b)" transform="translate(1 1) scale(2.07813)" fill-opacity=".5"><ellipse fill="#7a4f58" cx="120" cy="139" rx="60" ry="46"/><ellipse fill="#000777" rx="1" ry="1" transform="rotate(-104.8 61.6 -26.6) scale(29.47914 61.89824)"/><ellipse rx="1" ry="1" transform="matrix(36.8772 -102.04994 76.3589 27.59337 255 46.8)"/><ellipse fill="#000101" cx="15" cy="70" rx="45" ry="84"/><path fill="#184dff" d="M93.1 6.4L107 9l-4 20.6L89 27z"/><ellipse fill="#412217" rx="1" ry="1" transform="matrix(63.8924 -20.26787 7.4781 23.57395 160.3 124)"/><ellipse fill="#6c68cd" cx="143" cy="169" rx="20" ry="8"/><path fill="#3231bc" d="M0 161h38v13H0z"/><path fill="#1d55ff" d="M143.4 7.3l4.6 15.3-13.4 4.1-4.6-15.3z"/><path fill="#cb2a86" d="M139 110h23v13h-23z"/><ellipse fill="#171b91" cx="242" cy="168" rx="37" ry="8"/><ellipse fill="#002b2b" cx="111" cy="75" rx="74" ry="24"/><path fill="#2e4088" d="M22 153h224v4H22z"/><path fill="#a47666" d="M111 104l-50 36 51-18z"/><path fill="#002169" d="M18 15l12 47 33-45z"/><path fill="#001113" d="M122 164.4l-26-15 16-27.8 26 15z"/><ellipse cx="242" cy="66" rx="32" ry="89"/><path fill="#6469c0" d="M84 161h23v14H84z"/><ellipse fill="#003aff" cx="59" cy="21" rx="6" ry="6"/><ellipse fill="#00032c" cx="137" cy="46" rx="58" ry="23"/><path fill="#853c0c" d="M36.5 130.5l35.9 3-.9 10-35.9-3z"/><path fill="#0035e9" d="M79.5 43.3v8.3l-13.8 9.5 2.6-10.7z"/></g></svg>