<svg xmlns="http://www.w3.org/2000/svg" viewBox="0 0 1920 550"><filter id="b"><feGaussianBlur stdDeviation="12" /></filter><path fill="#a58c78" d="M0 0h1920v547H0z"/><g filter="url(#b)" transform="matrix(7.5 0 0 7.5 3.8 3.8)" fill-opacity=".5"><ellipse fill="#ffc90e" cx="29" cy="22" rx="35" ry="35"/><ellipse fill="#57b850" cx="255" cy="56" rx="85" ry="85"/><ellipse fill="#ac57bb" cx="114" cy="37" rx="58" ry="157"/><ellipse fill="#983462" cx="194" cy="31" rx="24" ry="24"/><path fill="#f7f1fb" d="M97 29h64v13H97z"/><path fill="#802100" d="M59.9 21.4l12.7 11.3 23.9 2.5L57 1.3z"/><ellipse fill="#ffc921" rx="1" ry="1" transform="matrix(-40.40037 18.54692 -8.7685 -19.10024 28.4 8.2)"/><ellipse fill="#6fe167" rx="1" ry="1" transform="matrix(-22.07543 -77.83006 22.58395 -6.40563 244 33.1)"/><ellipse fill="#d2d1be" cx="14" cy="64" rx="21" ry="13"/><ellipse fill="#8f4571" cx="19" cy="44" rx="15" ry="10"/><path fill="#e9ffff" d="M73 41L55 31 50 8z"/><path fill="#f36a7c" d="M221.9 33.8l-15 16.6-12.7-31.6 16.2-10.5z"/><ellipse fill="#346d43" rx="1" ry="1" transform="matrix(-10.588 2.07406 -2.90876 -14.84913 181.2 39.2)"/><ellipse fill="#418940" cx="13" cy="67" rx="8" ry="8"/><ellipse fill="#985596" cx="70" cy="69" rx="26" ry="31"/><path fill="#67262f" d="M205.4 75.7l8.2-16 17 8.6-8.2 16z"/><ellipse fill="#f48789" cx="31" cy="51" rx="11" ry="14"/><path fill="#9ab5b0" d="M187 39h34v10h-34z"/><path fill="#ffc91b" d="M17.7 27.4l9.4-13 33.2 24.2-9.4 13z"/><path fill="#0e6317" d="M213.3 49.8L175 51.4l25.5 4.7L223 39.3z"/><path fill="#712218" d="M65.3 5.7L54.9 10l19.4 21.4L87 38z"/><ellipse fill="#9d5b9a" cx="151" rx="32" ry="32"/></g></svg>