<svg xmlns="http://www.w3.org/2000/svg" viewBox="0 0 863 392"><filter id="b"><feGaussianBlur stdDeviation="12" /></filter><path fill="#645b77" d="M0 0h863v391H0z"/><g filter="url(#b)" transform="translate(1.7 1.7) scale(3.3711)" fill-opacity=".5"><ellipse fill="#fff" rx="1" ry="1" transform="matrix(-31.01818 -16.18469 6.57435 -12.59983 192 107.7)"/><ellipse fill="#040022" cx="222" cy="35" rx="91" ry="25"/><path fill="#fff" d="M67 8h40v27H67z"/><ellipse fill="#ffffeb" rx="1" ry="1" transform="rotate(75.2 -4 121.5) scale(21.1621 18.17896)"/><ellipse fill="#d4deb3" cx="27" cy="101" rx="30" ry="38"/><path d="M39 0h27v41H39z"/><ellipse fill="#4b63ff" rx="1" ry="1" transform="matrix(28.47548 -1.09392 1.34291 34.95705 11.8 26.1)"/><path fill="#010000" d="M58 79h36v31H58z"/><ellipse rx="1" ry="1" transform="matrix(-19.74836 -.86336 .69838 -15.97451 146 112.8)"/><path fill="#d4d1c7" d="M124 66h75v15h-75z"/><path fill="#150000" d="M242.4 71L253 95.8l18.1-4-55.2 32.8z"/><ellipse fill="#1a057c" rx="1" ry="1" transform="rotate(-175.9 64.8 12.5) scale(22.38864 32.68357)"/><ellipse fill="#5026c3" rx="1" ry="1" transform="matrix(-54.63855 2.15551 -.69533 -17.62555 187.5 7)"/><ellipse fill="#fff" cx="86" cy="21" rx="19" ry="11"/><ellipse fill="#030800" rx="1" ry="1" transform="matrix(20.12294 5.6563 -3.39845 12.09038 112 4.6)"/><ellipse fill="#fff" cx="188" cy="115" rx="21" ry="17"/><path d="M20 89h17v10H20z"/><ellipse fill="#0f001b" rx="1" ry="1" transform="matrix(-8.77702 -6.65652 15.7172 -20.72409 162.6 47.2)"/><ellipse fill="#e0b15f" cx="222" cy="81" rx="10" ry="17"/><ellipse cx="92" cy="106" rx="12" ry="8"/><path fill="#fff" d="M55 112h38v4H55z"/><ellipse cx="50" cy="10" rx="13" ry="35"/></g></svg>