<svg xmlns="http://www.w3.org/2000/svg" viewBox="0 0 863 392"><filter id="b"><feGaussianBlur stdDeviation="12" /></filter><path fill="#313452" d="M0 0h863v391H0z"/><g filter="url(#b)" transform="translate(1.7 1.7) scale(3.3711)" fill-opacity=".5"><ellipse fill="#a49bb3" cx="129" cy="85" rx="36" ry="36"/><ellipse fill="#000008" cx="23" cy="5" rx="75" ry="75"/><ellipse fill="#6f9ad5" cx="163" rx="43" ry="30"/><path fill="#b7c6b5" d="M218.5 93.2l-3.3 16.7-67.7-13.1 3.3-16.7z"/><ellipse fill="#415dff" cx="27" cy="67" rx="8" ry="26"/><path fill="#2b4cdb" d="M173 17h37v58h-37z"/><ellipse rx="1" ry="1" transform="matrix(-23.56782 9.92978 -30.08062 -71.3948 255.1 18.9)"/><path fill="#e1ffed" d="M80 91h20v18H80z"/><path fill="#3350ff" d="M64.5 83.4l-15-.8 2-38 15 .8z"/><path fill="#460000" d="M185 66h71v26h-71z"/><ellipse fill="#040d16" cx="98" cy="37" rx="82" ry="17"/><path fill="#110300" d="M138.8 85.1l5.4 10.7-57 29-5.4-10.6z"/><ellipse rx="1" ry="1" transform="matrix(-25.45103 118.71845 -25.20815 -5.40416 0 38.6)"/><path fill="#1744ff" d="M239.4 39.7l7.5 26-16.3 4.6-7.5-26z"/><path d="M212 10l20 56-15 18z"/><path fill="#3437f5" d="M85.2 83.8L66.6 74l19-24 3.7 7.4z"/><ellipse fill="#829793" rx="1" ry="1" transform="rotate(164.1 11.3 51.5) scale(27.97303 6.12164)"/><path fill="#b9d2ff" d="M38 33l-2 18-13 1z"/><path fill="#bd0000" d="M234 69h14v26h-14z"/><path d="M239.4 110.9l-12.6 22.7-26.2-14.5 12.6-22.7z"/><ellipse fill="#070500" cx="57" cy="113" rx="58" ry="7"/><ellipse cx="255" cy="15" rx="32" ry="32"/></g></svg>