<svg xmlns="http://www.w3.org/2000/svg" viewBox="0 0 730 332"><filter id="b"><feGaussianBlur stdDeviation="12" /></filter><path fill="#5d5f60" d="M0 0h730v330H0z"/><g filter="url(#b)" transform="translate(1.4 1.4) scale(2.85156)" fill-opacity=".5"><ellipse fill="#d8ffff" cx="171" cy="98" rx="57" ry="52"/><ellipse fill="#040000" cx="32" cy="57" rx="66" ry="66"/><ellipse fill="#eddbce" cx="202" cy="58" rx="21" ry="33"/><ellipse fill="#060000" rx="1" ry="1" transform="rotate(75.3 84.4 171) scale(100.70132 10.08644)"/><path fill="#99ccf2" d="M100 21h31v80h-31z"/><ellipse fill="#f1ffff" cx="146" cy="95" rx="23" ry="23"/><ellipse fill="#ffce97" cx="78" cy="17" rx="8" ry="25"/><ellipse fill="#ffcfa6" rx="1" ry="1" transform="rotate(-171.8 27.7 37.5) scale(4.51244 42.71508)"/><ellipse fill="#470000" rx="1" ry="1" transform="matrix(1.18411 -14.2364 89.57636 7.4505 159 0)"/><path fill="#fff" d="M43 110h46v6H43z"/><path fill="#264e75" d="M182 88l-2-47-91 4z"/><path d="M145 131L57 60l-2 34z"/><ellipse fill="#b0b6ba" cx="248" cy="32" rx="14" ry="26"/><path fill="#000105" d="M-13.3 136.6L-3.4 42l50.7 5.3-9.9 94.5z"/><ellipse fill="#fff" cx="98" cy="73" rx="3" ry="22"/><ellipse fill="#221d04" rx="1" ry="1" transform="matrix(-10.66036 -8.22224 18.47257 -23.95018 240.8 92.8)"/><path d="M89 0h11v51H89z"/><ellipse fill="#eff9e8" rx="1" ry="1" transform="matrix(-2.69259 -11.54254 9.77715 -2.28076 126 33.7)"/><path d="M57 67l39-35 15 17z"/><path fill="#ffbda3" d="M47 22.4l3.2-13.7 12.7 3-3.1 13.6z"/><path fill="#fff" d="M19 99L8 92l-4 8z"/><path fill="#4f96fd" d="M117 56h47v24h-47z"/></g></svg>