<svg xmlns="http://www.w3.org/2000/svg" viewBox="0 0 730 332"><filter id="b"><feGaussianBlur stdDeviation="12" /></filter><path fill="#666f73" d="M0 0h730v330H0z"/><g filter="url(#b)" transform="translate(1.4 1.4) scale(2.85156)" fill-opacity=".5"><ellipse fill="#060000" rx="1" ry="1" transform="matrix(37.59253 13.15772 -55.76026 159.311 71.8 67.4)"/><path fill="#aec7d7" d="M150 11h106v105H150z"/><path fill="#fff" d="M30 35l-46 32 23 61z"/><ellipse fill="#fff" cx="166" cy="46" rx="15" ry="25"/><path fill="#f3efe7" d="M4 45h71v19H4z"/><ellipse fill="#020804" rx="1" ry="1" transform="rotate(-21.3 80.9 -378.7) scale(60.62885 26.79173)"/><path fill="#fff" d="M24 43l-35 21 20 67z"/><ellipse fill="#4a341b" cx="50" cy="17" rx="48" ry="29"/><ellipse fill="#586869" cx="209" cy="75" rx="27" ry="34"/><path fill="#ebfeff" d="M104 101h23v15h-23z"/><path fill="#d2e0ed" d="M127 40l82-28 59 30z"/><ellipse fill="#0b0700" rx="1" ry="1" transform="matrix(29.2645 -61.71871 14.4419 6.84776 92 66.3)"/><path fill="#dab090" d="M89.7 37.6l-19.4-6L54 61.4l16.4 9.5z"/><ellipse fill="#b4f1ff" cx="134" cy="23" rx="4" ry="19"/><ellipse fill="#192c2e" cx="43" cy="88" rx="23" ry="33"/><ellipse fill="#170d00" rx="1" ry="1" transform="rotate(115.8 27.5 63.6) scale(14.51539 27.63661)"/><path fill="#c0e5fb" d="M114 51h54v11h-54z"/><path fill="#faffff" d="M121 35h59v8h-59z"/><path fill="#d7f7ff" d="M212 72l-33-4 33 14z"/><path d="M136 76h19v6h-19z"/><path fill="#1f3655" d="M128 106h51v10h-51z"/><path fill="#eff" d="M152 25h28v39h-28z"/></g></svg>