<svg xmlns="http://www.w3.org/2000/svg" viewBox="0 0 730 332"><filter id="b"><feGaussianBlur stdDeviation="12" /></filter><path fill="#6b3453" d="M0 0h730v330H0z"/><g filter="url(#b)" transform="translate(1.4 1.4) scale(2.85156)" fill-opacity=".5"><ellipse fill="#6b98dd" cx="121" cy="44" rx="78" ry="36"/><ellipse rx="1" ry="1" transform="rotate(-101.5 132.7 -83) scale(50.54908 33.07995)"/><ellipse fill="#ff0009" cx="215" cy="106" rx="51" ry="32"/><ellipse fill="#cb0000" cx="92" cy="115" rx="49" ry="32"/><ellipse fill="#11090d" rx="1" ry="1" transform="matrix(-21.4861 -10.15643 9.88428 -20.91036 143.5 83.4)"/><ellipse rx="1" ry="1" transform="matrix(22.00235 6.0753 -14.4335 52.2725 4.4 26.5)"/><ellipse fill="#aec9b2" rx="1" ry="1" transform="matrix(14.22284 -29.9643 20.94862 9.94346 120.4 41.3)"/><ellipse fill="#00004c" cx="86" cy="9" rx="14" ry="55"/><ellipse fill="#561b00" rx="1" ry="1" transform="matrix(-18.80163 24.58443 -22.53962 -17.2378 19.5 99.3)"/><ellipse fill="#4331ac" cx="158" cy="29" rx="16" ry="38"/><path fill="#69a5ff" d="M50 21l22 63 4-82z"/><ellipse fill="#fc3758" rx="1" ry="1" transform="matrix(7.9512 -.30545 2.31928 60.37245 199.9 77)"/><ellipse fill="#e84453" rx="1" ry="1" transform="matrix(-8.24378 .5331 -3.35077 -51.81575 49.9 51.4)"/><path fill="#8b8bf8" d="M166 83l-3-99 28 68z"/><ellipse rx="1" ry="1" transform="matrix(25.1451 -5.28368 10.91236 51.932 242.8 28.5)"/><ellipse fill="#ff5052" cx="92" cy="91" rx="24" ry="10"/><ellipse fill="#a7d9ff" cx="71" cy="69" rx="10" ry="10"/><ellipse fill="#490000" cx="120" cy="115" rx="55" ry="18"/><path fill="#5d245f" d="M194-16l-34.3 93.1-73.1 9L141 51.2z"/><path fill="#370028" d="M192 108l31-56 19 5z"/><path fill="#93ddff" d="M160 11l30-26-39 14z"/><ellipse fill="#3c0000" rx="1" ry="1" transform="matrix(-7.84919 -6.13246 29.86942 -38.23111 246.5 114.9)"/></g></svg>