<svg xmlns="http://www.w3.org/2000/svg" viewBox="0 0 730 332"><filter id="b"><feGaussianBlur stdDeviation="12" /></filter><path fill="#5a68a0" d="M0 0h730v330H0z"/><g filter="url(#b)" transform="translate(1.4 1.4) scale(2.85156)" fill-opacity=".5"><ellipse fill="azure" cx="114" cy="115" rx="65" ry="65"/><ellipse fill="#000003" rx="1" ry="1" transform="matrix(21.55579 -1.81327 10.84011 128.865 13.1 51.4)"/><path fill="#fff" d="M58 99h169v17H58z"/><ellipse rx="1" ry="1" transform="matrix(-.52053 -49.70553 8.60889 -.09016 218.6 50)"/><path fill="#222c95" d="M135.8 9l-7 66.6L66.2 69l7-66.6z"/><ellipse rx="1" ry="1" transform="matrix(9.16373 13.53974 -17.81725 12.05876 252 101.2)"/><ellipse fill="#002de9" rx="1" ry="1" transform="matrix(-33.40971 33.72502 -15.52688 -15.38172 64 18.8)"/><ellipse fill="#00019c" rx="1" ry="1" transform="rotate(-12.7 147.8 -698.8) scale(26.63287 17.50558)"/><ellipse fill="#00004e" rx="1" ry="1" transform="rotate(16 99.4 802.4) scale(75.49329 13.40287)"/><ellipse fill="#5c78ff" cx="4" cy="21" rx="6" ry="79"/><ellipse fill="#b3aee0" cx="57" cy="70" rx="31" ry="15"/><path fill="#fff" d="M41 97h175v16H41z"/><ellipse cx="19" cy="99" rx="11" ry="122"/><ellipse fill="#00000a" cx="212" cy="74" rx="11" ry="21"/><ellipse fill="#7a83be" rx="1" ry="1" transform="matrix(-2.86524 -26.2153 37.70107 -4.1206 166.8 59.3)"/><path fill="#000a1c" d="M58 111h23v5H58z"/><ellipse fill="#315ef0" rx="1" ry="1" transform="rotate(85.8 99.2 146.1) scale(44.47897 13.2365)"/><path fill="#e1bbb4" d="M117.1-15.9l13-.2.8 46-13 .2z"/><ellipse fill="#00006f" cx="188" cy="87" rx="12" ry="13"/><ellipse fill="#fff" rx="1" ry="1" transform="matrix(-21.38549 -20.72398 7.41035 -7.64689 218.8 114.6)"/><path fill="#522f00" d="M73.8 27.9l16.7 20L78.2 58 61.5 38z"/><path fill="#12093a" d="M128 72l-19-2 18-36z"/></g></svg>