<svg xmlns="http://www.w3.org/2000/svg" viewBox="0 0 730 332"><filter id="b"><feGaussianBlur stdDeviation="12" /></filter><path fill="#6b3453" d="M0 0h730v330H0z"/><g filter="url(#b)" transform="translate(1.4 1.4) scale(2.85156)" fill-opacity=".5"><path fill="#80aced" d="M158-16L36 76l168-15z"/><ellipse rx="1" ry="1" transform="matrix(24.5849 46.6294 -45.43968 23.95762 255 28.6)"/><ellipse fill="#ff000d" cx="211" cy="115" rx="48" ry="48"/><ellipse fill="#5798ff" rx="1" ry="1" transform="rotate(83.6 12 57.8) scale(39.97439 12.87736)"/><ellipse fill="#920400" cx="82" cy="107" rx="88" ry="23"/><ellipse rx="1" ry="1" transform="matrix(-14.35275 50.88941 -22.16631 -6.25174 5.3 27.5)"/><ellipse fill="#081246" cx="152" cy="90" rx="12" ry="85"/><path fill="#00095f" d="M100.3 5.5l-5.7 53.7-24.9-2.7 5.7-53.7z"/><ellipse fill="#a9c9b3" rx="1" ry="1" transform="rotate(115.7 47 57) scale(32.59942 21.11314)"/><ellipse fill="#f84850" cx="47" cy="48" rx="8" ry="44"/><ellipse fill="#ff474b" cx="95" cy="92" rx="25" ry="10"/><path fill="#ff4557" d="M191 28h12v88h-12z"/><ellipse rx="1" ry="1" transform="matrix(2.65578 48.819 -31.62943 1.72066 252 31.7)"/><ellipse fill="#789fff" rx="1" ry="1" transform="matrix(7.55365 5.49835 -15.49382 21.28545 179 59.4)"/><ellipse fill="#261d25" rx="1" ry="1" transform="matrix(-9.4686 15.6505 -23.66052 -14.31468 142.8 81)"/><ellipse fill="#4d250a" rx="1" ry="1" transform="matrix(18.06848 16.53841 -26.24433 28.67234 19.6 101)"/><ellipse fill="#001847" cx="122" cy="2" rx="33" ry="7"/><ellipse fill="#6701aa" rx="1" ry="1" transform="matrix(-10.2774 .11162 -.29393 -27.06301 164.7 39)"/><ellipse fill="#81dbff" cx="61" cy="27" rx="10" ry="10"/><ellipse fill="#8ec7e1" cx="124" cy="19" rx="24" ry="10"/><path fill="#2f4d75" d="M126.9 26.2l-9.6 10-8.3 18.6 43.4-24.6z"/><ellipse fill="#380635" rx="1" ry="1" transform="rotate(-164.3 113 13.7) scale(9.34525 39.15848)"/></g></svg>