<svg xmlns="http://www.w3.org/2000/svg" viewBox="0 0 730 332"><filter id="b"><feGaussianBlur stdDeviation="12" /></filter><path fill="#666f73" d="M0 0h730v330H0z"/><g filter="url(#b)" transform="translate(1.4 1.4) scale(2.85156)" fill-opacity=".5"><ellipse fill="#201000" cx="77" cy="42" rx="56" ry="56"/><ellipse fill="#d5eeff" rx="1" ry="1" transform="matrix(-4.4549 -21.2544 72.50786 -15.1976 189.3 39.4)"/><ellipse fill="#fff" rx="1" ry="1" transform="matrix(18.02683 -39.617 14.04434 6.39056 11.8 76.3)"/><ellipse fill="#020f0f" cx="58" cy="104" rx="45" ry="45"/><ellipse fill="#ebf4fa" rx="1" ry="1" transform="matrix(-18.43349 -10.51428 3.83973 -6.73176 59.1 58.5)"/><ellipse fill="#93adbc" cx="207" cy="85" rx="55" ry="55"/><ellipse rx="1" ry="1" transform="matrix(-2.0215 -25.12485 45.33206 -3.64733 124.5 9.5)"/><path fill="#faffff" d="M154 25h27v57h-27z"/><path fill="#ffc491" d="M86.1 43.9L70 60 58 48l16-16z"/><ellipse fill="#fff" rx="1" ry="1" transform="rotate(122.8 -14 37) scale(28.95793 14.4103)"/><ellipse fill="#3e4948" rx="1" ry="1" transform="matrix(28.13818 18.33412 -4.8864 7.49936 208.1 61)"/><path fill="#c6d9ff" d="M94.8 92.4l12 25.7L119 131l11.6-28.3z"/><ellipse cx="99" cy="47" rx="15" ry="40"/><path fill="#a8d0f2" d="M136 7l5 30-22 5z"/><path fill="#faffff" d="M0 55h15v61H0z"/><ellipse fill="#08101a" rx="1" ry="1" transform="matrix(-32.4839 4.08835 -.47118 -3.74374 125.5 67.4)"/><ellipse fill="#263336" cx="44" cy="82" rx="23" ry="26"/><path fill="#e4faff" d="M179 109h51v7h-51z"/><ellipse fill="#353642" cx="2" cy="18" rx="29" ry="29"/><ellipse fill="#0c0b00" cx="76" cy="115" rx="26" ry="26"/><ellipse fill="#060e10" cx="131" cy="31" rx="22" ry="4"/><path fill="#0a457b" d="M125.6 40.8l20.8 2.5-2 16-20.8-2.6z"/></g></svg>