<svg xmlns="http://www.w3.org/2000/svg" viewBox="0 0 730 332"><filter id="b"><feGaussianBlur stdDeviation="12" /></filter><path fill="#6b3453" d="M0 0h730v330H0z"/><g filter="url(#b)" transform="translate(1.4 1.4) scale(2.85156)" fill-opacity=".5"><ellipse fill="#7096db" rx="1" ry="1" transform="matrix(-81.47408 -1.80646 .76911 -34.68816 122 41.3)"/><ellipse rx="1" ry="1" transform="matrix(-27.89335 -42.78832 34.49373 -22.48618 249.6 36.6)"/><ellipse fill="#ff000d" cx="212" cy="115" rx="49" ry="49"/><ellipse fill="#920300" cx="79" cy="108" rx="89" ry="23"/><ellipse fill="#070000" rx="1" ry="1" transform="matrix(15.84595 1.9933 -21.17696 168.34883 12.2 0)"/><path fill="#160b13" d="M122 64h40v52h-40z"/><ellipse fill="#00004b" rx="1" ry="1" transform="rotate(-165.6 44.6 3.6) scale(15.12972 35.58384)"/><ellipse fill="#b1d3bd" rx="1" ry="1" transform="matrix(13.45743 8.53505 -20.16682 31.79753 119.1 39.7)"/><path fill="#86d8ff" d="M85 72.9l-13.5 8.7L53 53.1l13.5-8.7z"/><path fill="#ff4247" d="M62 108l64-18-49-11z"/><ellipse fill="#f2454c" rx="1" ry="1" transform="matrix(-6.90094 .64018 -4.77164 -51.43673 48.8 51)"/><ellipse fill="#4a26ad" cx="160" cy="20" rx="14" ry="47"/><ellipse fill="#ff4056" cx="196" cy="75" rx="8" ry="53"/><path fill="#7fc5ff" d="M192 52l-29 34 13-61z"/><ellipse fill="#70a2ff" rx="1" ry="1" transform="matrix(7.16236 -16.23587 10.70523 4.72255 64.3 23.6)"/><ellipse cx="244" cy="26" rx="22" ry="54"/><ellipse fill="#a3d4ff" rx="1" ry="1" transform="matrix(10.54837 15.62891 -6.33777 4.27753 160.6 0)"/><ellipse fill="#c4ad5c" rx="1" ry="1" transform="rotate(-153.1 18 27.5) scale(8.15648 14.12471)"/><ellipse fill="#280237" rx="1" ry="1" transform="matrix(4.47398 2.42195 -16.17647 29.88217 216.7 72)"/><path fill="#2d5b81" d="M115 27h44v17h-44z"/><path fill="#4c0000" d="M259.1 131L271 20.2l-24.1 78.4-17.2 19.9z"/><ellipse fill="#220028" cx="8" cy="17" rx="33" ry="33"/></g></svg>