<svg xmlns="http://www.w3.org/2000/svg" viewBox="0 0 730 332"><filter id="b"><feGaussianBlur stdDeviation="12" /></filter><path fill="#6b3453" d="M0 0h730v330H0z"/><g filter="url(#b)" transform="translate(1.4 1.4) scale(2.85156)" fill-opacity=".5"><ellipse fill="#617ec3" cx="123" cy="18" rx="75" ry="75"/><ellipse cx="246" cy="31" rx="40" ry="49"/><ellipse fill="#ff0009" rx="1" ry="1" transform="matrix(4.24382 -28.39605 71.57427 10.69685 238.5 107.2)"/><ellipse fill="#840000" rx="1" ry="1" transform="matrix(-10.94206 -21.85079 64.90462 -32.50181 98.9 103.9)"/><ellipse fill="#c7e1c2" rx="1" ry="1" transform="matrix(-11.5449 30.2331 -14.45503 -5.51984 115.5 42.9)"/><ellipse rx="1" ry="1" transform="matrix(-8.02942 47.77945 -14.77271 -2.48258 13 22.3)"/><ellipse fill="#000035" rx="1" ry="1" transform="matrix(-12.37793 -3.63682 15.40362 -52.42628 94.2 3)"/><path fill="#e6defe" d="M173 42h28v19h-28z"/><path fill="#ff3a38" d="M75.2 76.9l33.8 9-6.2 23.2-33.8-9z"/><path fill="#81beff" d="M65.5 14.9L82 73 61.8 83.7l-7.7-59.3z"/><ellipse fill="#f33d50" cx="47" cy="41" rx="8" ry="50"/><ellipse fill="#561f00" cx="16" cy="95" rx="33" ry="33"/><path fill="#191321" d="M122 63h42v53h-42z"/><ellipse fill="#740043" rx="1" ry="1" transform="rotate(73.5 95.4 127.8) scale(43.8686 19.58293)"/><ellipse cx="246" cy="28" rx="23" ry="52"/><ellipse fill="#ff3f4b" rx="1" ry="1" transform="rotate(92 60.8 134.3) scale(46.69084 7.04335)"/><path fill="#7fcadc" d="M147 11l-6 55-26-58z"/><ellipse fill="#8772f3" rx="1" ry="1" transform="matrix(-16.9387 -33.50758 6.69017 -3.382 172 23.6)"/><ellipse fill="#040834" rx="1" ry="1" transform="matrix(-.2955 -10.57898 45.33813 -1.2664 103.2 0)"/><path fill="#2f3f7d" d="M114 28h51v15h-51z"/><path fill="#980000" d="M137 98l-106 2 118 31z"/><ellipse fill="#3c0000" rx="1" ry="1" transform="matrix(31.51206 -33.13294 8.1712 7.77146 254.8 107)"/></g></svg>