<svg xmlns="http://www.w3.org/2000/svg" viewBox="0 0 863 392"><filter id="b"><feGaussianBlur stdDeviation="12" /></filter><path fill="#6c7c7c" d="M0 0h863v391H0z"/><g filter="url(#b)" transform="translate(1.7 1.7) scale(3.3711)" fill-opacity=".5"><ellipse rx="1" ry="1" transform="matrix(87.48183 14.28813 -7.1749 43.92967 63 114.3)"/><ellipse fill="#bcc7b1" cx="249" cy="60" rx="107" ry="107"/><path fill="#1d291f" d="M220 12h16v104h-16z"/><ellipse fill="#fffff3" cx="255" cy="35" rx="19" ry="76"/><ellipse fill="#456253" rx="1" ry="1" transform="rotate(104.5 91.5 99.7) scale(28.61834 19.42694)"/><ellipse cx="30" cy="107" rx="99" ry="15"/><ellipse fill="#230000" rx="1" ry="1" transform="matrix(-11.81571 -24.11887 9.17077 -4.49271 2.8 42.6)"/><ellipse fill="#2d69a3" cx="104" cy="8" rx="75" ry="20"/><ellipse fill="#fffef1" cx="185" cy="35" rx="7" ry="46"/><ellipse fill="#2d6c64" cx="170" cy="84" rx="19" ry="19"/><ellipse fill="#c1bfb1" rx="1" ry="1" transform="matrix(6.26993 14.53344 -23.62862 10.19371 45.3 51)"/><path fill="#403c25" d="M104 53h42v25h-42z"/><ellipse fill="#d7dac6" cx="153" cy="9" rx="6" ry="84"/><path fill="#cce2db" d="M208.6 131l-1-50-42.2 30.5 78.2 19.5z"/><path fill="#004051" d="M125 106h40v10h-40z"/><path fill="#d5cbc5" d="M186.8 53.8l10.9 26.9-18.5 7.5-10.9-26.9z"/><path fill="#d0dacc" d="M137 98l13-47 5 55z"/><ellipse fill="#4a7ca9" rx="1" ry="1" transform="matrix(-14.78241 23.84159 -32.99396 -20.45712 27.3 11.2)"/><path fill="#c2c6c6" d="M11 90L4 79l11-9z"/><ellipse fill="#f1e5d8" rx="1" ry="1" transform="rotate(-46.2 102.6 -240.9) scale(60.27901 5.3298)"/><ellipse fill="#345249" cx="166" cy="76" rx="14" ry="10"/><path fill="#f4e9db" d="M205-11.5l19.4-20.1 44.6 43-19.4 20.2z"/></g></svg>