<svg xmlns="http://www.w3.org/2000/svg" viewBox="0 0 730 332"><filter id="b"><feGaussianBlur stdDeviation="12" /></filter><path fill="#5a68a0" d="M0 0h730v330H0z"/><g filter="url(#b)" transform="translate(1.4 1.4) scale(2.85156)" fill-opacity=".5"><ellipse fill="#fff" rx="1" ry="1" transform="matrix(-95.28758 -9.92703 4.16425 -39.97182 138.2 115)"/><ellipse rx="1" ry="1" transform="matrix(-17.37286 -.23704 1.32077 -96.79963 20.1 85)"/><ellipse cx="217" cy="46" rx="9" ry="54"/><ellipse fill="#fff" cx="128" cy="115" rx="94" ry="24"/><ellipse rx="1" ry="1" transform="rotate(151.3 111.5 84) scale(18.97394 16.59322)"/><ellipse fill="#0026bf" cx="68" cy="11" rx="44" ry="44"/><ellipse fill="#00005f" rx="1" ry="1" transform="rotate(52.4 10 239.8) scale(11.77375 19.05026)"/><ellipse fill="#9cade8" cx="71" cy="70" rx="45" ry="17"/><ellipse fill="#00009a" cx="158" cy="14" rx="27" ry="18"/><ellipse fill="#000057" rx="1" ry="1" transform="matrix(5.99244 -18.01394 116.6813 38.8147 229.5 0)"/><ellipse fill="#000002" rx="1" ry="1" transform="matrix(21.2401 -13.067 10.29444 16.73337 19.8 99.6)"/><ellipse fill="#8190d1" cx="166" cy="64" rx="38" ry="25"/><ellipse fill="#5a3321" rx="1" ry="1" transform="matrix(-4.90101 -22.2683 7.91887 -1.74286 75.4 48.4)"/><path d="M60 112h21v4H60z"/><ellipse cx="18" cy="66" rx="9" ry="96"/><ellipse fill="#1959ff" rx="1" ry="1" transform="matrix(7.5452 9.5591 -23.58137 18.61325 52.2 30.3)"/><path fill="#000005" d="M213 12h14v86h-14z"/><path fill="#2a5ef5" d="M265 65.9l-41-.8 1-53 41 .8z"/><ellipse fill="#74adf0" cx="85" cy="83" rx="47" ry="11"/><ellipse fill="#000100" rx="1" ry="1" transform="matrix(8.42847 -22.54298 11.33515 4.23804 249.3 103.3)"/><path d="M177 113h25v3h-25z"/><path fill="#2c49eb" d="M0 21h8v78H0z"/></g></svg>