<svg xmlns="http://www.w3.org/2000/svg" viewBox="0 0 863 392"><filter id="b"><feGaussianBlur stdDeviation="12" /></filter><path fill="#63506a" d="M0 0h863v391H0z"/><g filter="url(#b)" transform="translate(1.7 1.7) scale(3.3711)" fill-opacity=".5"><ellipse fill="#dde7df" rx="1" ry="1" transform="rotate(-177.8 64.2 33.3) scale(83.93811 43.45071)"/><ellipse rx="1" ry="1" transform="rotate(-97.9 133 -83.8) scale(93.7816 30.98392)"/><ellipse cx="6" cy="45" rx="46" ry="55"/><ellipse fill="#00fbff" cx="72" cy="49" rx="24" ry="19"/><ellipse fill="#010022" rx="1" ry="1" transform="rotate(179.5 103.2 9.8) scale(95.76628 14.71041)"/><ellipse fill="#7108b2" rx="1" ry="1" transform="rotate(-83 56.3 -52) scale(19.69202 56.31624)"/><ellipse fill="#fff" rx="1" ry="1" transform="rotate(-90.7 71 -32.8) scale(7.73673 61.81938)"/><ellipse cx="245" cy="57" rx="37" ry="42"/><ellipse fill="#00000c" rx="1" ry="1" transform="matrix(5.01947 55.15469 -26.36347 2.39926 7 48.2)"/><ellipse fill="#c7dd74" rx="1" ry="1" transform="rotate(-15 287 -652) scale(28.28541 19.66742)"/><path fill="#f48ad1" d="M31.3 113l-11.6-8 23-34 11.6 8z"/><ellipse fill="#bd7490" rx="1" ry="1" transform="matrix(36.3602 16.34092 -10.605 23.59718 177.7 80)"/><ellipse fill="#6c0000" cx="194" cy="115" rx="222" ry="6"/><path fill="#0000cd" d="M198 68h9v30h-9z"/><path fill="#c07c99" d="M62 67h92v44H62z"/><path fill="#00bef2" d="M55.7 45l38.8 9.6L90.3 71l-38.8-9.7z"/><ellipse fill="#0d084c" cx="38" cy="30" rx="16" ry="40"/><ellipse fill="#d6a953" rx="1" ry="1" transform="matrix(-1.87495 13.68981 -25.37613 -3.4755 66.9 79.7)"/><path fill="#b2f0ff" d="M98 65l-9-55 39 49z"/><ellipse fill="#e382ff" rx="1" ry="1" transform="rotate(-81.5 62.5 -62.8) scale(23.11947 5.15697)"/><path fill="#230b22" d="M93 71h7v31h-7z"/><path fill="#00c800" d="M185 46l23-10-45 6z"/></g></svg>