<svg xmlns="http://www.w3.org/2000/svg" viewBox="0 0 730 332"><filter id="b"><feGaussianBlur stdDeviation="12" /></filter><path fill="#5a68a0" d="M0 0h730v330H0z"/><g filter="url(#b)" transform="translate(1.4 1.4) scale(2.85156)" fill-opacity=".5"><ellipse fill="#fff" rx="1" ry="1" transform="matrix(-.97928 28.58252 -98.48598 -3.37427 135.4 115)"/><ellipse fill="#000003" cx="9" cy="106" rx="28" ry="151"/><path d="M210 0h14v96h-14z"/><ellipse fill="#d3f7ff" cx="90" cy="110" rx="44" ry="44"/><ellipse cx="255" cy="115" rx="24" ry="33"/><ellipse fill="#0025bb" cx="68" cy="9" rx="45" ry="45"/><ellipse fill="#fff" rx="1" ry="1" transform="rotate(100.4 30 117.5) scale(24.66371 33.80895)"/><ellipse fill="#5c78ff" cx="2" cy="34" rx="8" ry="65"/><ellipse fill="#000499" cx="159" cy="8" rx="26" ry="26"/><path d="M23 122l4-134-41 135z"/><path fill="#b9b9f2" d="M32 57h37v27H32z"/><ellipse fill="#000062" cx="246" rx="46" ry="26"/><ellipse fill="#afd0f3" rx="1" ry="1" transform="rotate(12.4 -288.8 670.9) scale(13.33492 25.85071)"/><path fill="#000028" d="M181.5 102.7l-5.3-10.8 42.3-20.6 5.3 10.8z"/><path fill="#d1b6d2" d="M169.2 59l.5 24 29.8-12.8L211 40.6z"/><ellipse fill="#fff" cx="197" cy="104" rx="28" ry="8"/><ellipse fill="#4474f5" cx="240" cy="47" rx="15" ry="41"/><path fill="#0036f9" d="M52 50L38 6 24 66z"/><ellipse cx="217" cy="70" rx="10" ry="29"/><path fill="#2870ee" d="M72 98l56-15-71-3z"/><path d="M62 112h19v4H62z"/><ellipse fill="#4c2100" rx="1" ry="1" transform="matrix(-6.38962 1.59311 -4.3953 -17.62858 76.8 46)"/></g></svg>