<svg xmlns="http://www.w3.org/2000/svg" viewBox="0 0 730 332"><filter id="b"><feGaussianBlur stdDeviation="12" /></filter><path fill="#5d5f60" d="M0 0h730v330H0z"/><g filter="url(#b)" transform="translate(1.4 1.4) scale(2.85156)" fill-opacity=".5"><ellipse fill="#dff" cx="173" cy="95" rx="55" ry="49"/><ellipse rx="1" ry="1" transform="matrix(24.6456 -51.75302 77.81209 37.05535 14.7 60.6)"/><ellipse fill="#fdead9" cx="204" cy="49" rx="17" ry="25"/><ellipse fill="#b1e9ff" rx="1" ry="1" transform="matrix(-27.72133 -29.21218 16.12557 -15.3026 127.2 86.6)"/><path fill="#d3fdff" d="M137.4 39.6l-16.5 16-24.3-25.2 16.5-16z"/><path fill="#090600" d="M253 117.6l-34.2-7.3L229 62.4l34.2 7.3z"/><path fill="#fff" d="M41 110h51v6H41z"/><ellipse fill="#010000" rx="1" ry="1" transform="matrix(4.07249 50.2271 -11.25757 .91278 224 6)"/><ellipse fill="#390000" cx="139" rx="242" ry="10"/><ellipse fill="#15508b" cx="148" cy="56" rx="30" ry="17"/><path fill="#ffebb7" d="M48 36h8v47h-8z"/><path d="M133 129L49 93l12-42z"/><ellipse cx="92" cy="36" rx="8" ry="26"/><ellipse fill="#e6ffff" cx="147" cy="90" rx="22" ry="22"/><ellipse fill="#b1b5b8" cx="255" cy="36" rx="21" ry="32"/><ellipse fill="#ffbf88" rx="1" ry="1" transform="matrix(-3.0526 27.21447 -7.1883 -.8063 79.8 13)"/><ellipse rx="1" ry="1" transform="rotate(6.8 -740.4 314) scale(10.69801 64.56207)"/><path d="M108.2 92.7L104 72l3.9-.8L112 92z"/><path fill="#334d5b" d="M168 68h15v48h-15z"/><ellipse fill="#dc9166" cx="221" cy="87" rx="6" ry="41"/><ellipse fill="#c2a18e" cx="48" cy="115" rx="7" ry="44"/><path fill="#1a6cef" d="M117 60h26v20h-26z"/></g></svg>