<svg xmlns="http://www.w3.org/2000/svg" viewBox="0 0 730 332"><filter id="b"><feGaussianBlur stdDeviation="12" /></filter><path fill="#5d5f60" d="M0 0h730v330H0z"/><g filter="url(#b)" transform="translate(1.4 1.4) scale(2.85156)" fill-opacity=".5"><ellipse fill="#e4ffff" rx="1" ry="1" transform="rotate(128.2 60.1 92.2) scale(70.86125 46.94051)"/><ellipse rx="1" ry="1" transform="matrix(60.5178 160.38495 -48.06288 18.1355 42.5 83.9)"/><ellipse fill="#99d9ff" cx="124" cy="80" rx="29" ry="29"/><path fill="#e1ffff" d="M103 22h33v22h-33z"/><path fill="#edffff" d="M31.2 112.4l26.7-.7 22.6-5.3L123 131z"/><ellipse fill="#000300" rx="1" ry="1" transform="rotate(39.9 -4.2 395.7) scale(30.41782 25.07382)"/><ellipse rx="1" ry="1" transform="matrix(-17.01675 -71.22377 7.27892 -1.73907 221.3 17)"/><ellipse fill="#f4ffff" rx="1" ry="1" transform="matrix(-21.43015 8.78915 -7.84277 -19.12264 146 93.2)"/><ellipse fill="#3f0000" cx="179" rx="91" ry="12"/><path fill="#ffcda1" d="M49.4 104.7l-7.9-1.3 11.1-70 7.9 1.2z"/><path fill="#1b5389" d="M125 42h52v31h-52z"/><ellipse fill="#dfd8d1" rx="1" ry="1" transform="rotate(-155.4 107.6 5.9) scale(13.87113 31.06608)"/><ellipse rx="1" ry="1" transform="matrix(6.1242 1.2451 -23.5119 115.64681 99 2.7)"/><ellipse fill="#b2babd" cx="254" cy="31" rx="19" ry="27"/><ellipse fill="#4c3e2f" cx="175" cy="34" rx="8" ry="89"/><path fill="#ffbe85" d="M72 0h12v39H72z"/><ellipse fill="#000002" rx="1" ry="1" transform="rotate(163.4 3 34.7) scale(32.72129 25.32589)"/><path fill="#c99375" d="M61 9.2l8 25L88.8 25 17 18.8z"/><path fill="#fffffc" d="M93 54l8 36 7-37z"/><path d="M111.9 92.2l-6 .5-1.8-20.9 6-.5zM96 100h23v16H96z"/><path fill="#000309" d="M58 40h39v64H58z"/></g></svg>