<svg xmlns="http://www.w3.org/2000/svg" viewBox="0 0 730 332"><filter id="b"><feGaussianBlur stdDeviation="12" /></filter><path fill="#5a68a0" d="M0 0h730v330H0z"/><g filter="url(#b)" transform="translate(1.4 1.4) scale(2.85156)" fill-opacity=".5"><ellipse fill="#fff" rx="1" ry="1" transform="matrix(98.88579 4.78896 -1.42186 29.3596 136.7 115)"/><ellipse cx="21" cy="104" rx="15" ry="130"/><ellipse cx="218" cy="35" rx="9" ry="65"/><ellipse fill="#dbf8ff" rx="1" ry="1" transform="matrix(73.53852 15.5615 -4.63648 21.91048 118.7 95.1)"/><path d="M274.8 119.6l-24.3 17.6-25.3-34.8 24.3-17.6z"/><ellipse fill="#0029c9" rx="1" ry="1" transform="matrix(42.35572 -20.72105 13.25659 27.09768 69.2 24.4)"/><ellipse fill="#000001" rx="1" ry="1" transform="matrix(-2.24381 -18.8172 35.18934 -4.19607 11.6 98.9)"/><ellipse fill="#00009c" rx="1" ry="1" transform="matrix(-4.69998 -16.92314 26.4022 -7.33255 157.5 14.7)"/><ellipse fill="#000027" rx="1" ry="1" transform="rotate(-29.5 263.2 -342.3) scale(28.27771 7.8711)"/><ellipse fill="#000062" rx="1" ry="1" transform="matrix(6.53276 -16.941 85.52456 32.97985 222 0)"/><path fill="#fff" d="M184 107l75 24-55-42z"/><ellipse fill="#768cd5" cx="81" cy="72" rx="55" ry="23"/><path fill="#4c2400" d="M88 32l-7 40-16-39z"/><path fill="#979dc9" d="M128 41h73v36h-73z"/><ellipse cx="18" cy="33" rx="8" ry="206"/><ellipse fill="#2d5fee" rx="1" ry="1" transform="matrix(15.13477 -5.1818 13.4397 39.25414 243.3 39.2)"/><path fill="#fff" d="M40 99h170v14H40z"/><ellipse cx="220" cy="40" rx="5" ry="62"/><path fill="#433365" d="M109 7h18v67h-18z"/><ellipse fill="#4b0301" rx="1" ry="1" transform="matrix(6.2761 13.9921 -3.48351 1.56251 153.5 56.6)"/><ellipse fill="#000100" rx="1" ry="1" transform="matrix(-19.02805 -3.94581 5.74927 -27.72497 255 108.2)"/><path fill="#cad1c1" d="M232.8 102.3l23.5-33.1-22.5 11.2-4.3 12.4z"/></g></svg>