<svg xmlns="http://www.w3.org/2000/svg" viewBox="0 0 730 332"><filter id="b"><feGaussianBlur stdDeviation="12" /></filter><path fill="#5d5f60" d="M0 0h730v330H0z"/><g filter="url(#b)" transform="translate(1.4 1.4) scale(2.85156)" fill-opacity=".5"><ellipse fill="#e1ffff" rx="1" ry="1" transform="matrix(49.80494 -35.5405 24.29938 34.05212 171.1 90)"/><ellipse rx="1" ry="1" transform="matrix(-55.51945 -124.11529 61.57904 -27.54563 26.8 91.6)"/><ellipse fill="#97d7ff" cx="122" cy="80" rx="27" ry="27"/><ellipse fill="#c5e9f5" cx="119" cy="28" rx="20" ry="20"/><ellipse rx="1" ry="1" transform="matrix(-20.27572 -113.18076 8.20129 -1.46922 231.4 57.7)"/><path fill="#fff" d="M40 110h52v6H40z"/><path fill="#ffc99f" d="M59.2 35.7l-7.5 71.6-9-1 7.6-71.6z"/><ellipse fill="#efffff" cx="145" cy="96" rx="24" ry="22"/><ellipse fill="#3f0000" cx="179" rx="92" ry="12"/><ellipse fill="#e0cbbe" cx="211" cy="78" rx="15" ry="53"/><path fill="#1c4f85" d="M124 44h54v28h-54z"/><ellipse fill="#b4b8bc" rx="1" ry="1" transform="matrix(15.24725 6.91646 -12.5609 27.69036 253 29.8)"/><path d="M93 100l-49 5 59-115z"/><path fill="#ffb67f" d="M72 0h14v40H72z"/><ellipse fill="#4f4e43" cx="175" cy="63" rx="7" ry="57"/><path d="M105 63h5v28h-5z"/><ellipse fill="#071806" cx="247" cy="98" rx="20" ry="31"/><ellipse fill="#00050c" cx="16" cy="98" rx="26" ry="68"/><path d="M94.6 94.8l-.4 36.2h-5.7l34.4-21.7z"/><ellipse fill="#f8efee" cx="101" cy="63" rx="9" ry="10"/><path fill="#4e1a00" d="M149.4 39.5l-13.5-16.2-29-3.4 47.2-18.3z"/><path d="M19-13l51 9 3 23z"/></g></svg>