<svg xmlns="http://www.w3.org/2000/svg" viewBox="0 0 730 332"><filter id="b"><feGaussianBlur stdDeviation="12" /></filter><path fill="#666f73" d="M0 0h730v330H0z"/><g filter="url(#b)" transform="translate(1.4 1.4) scale(2.85156)" fill-opacity=".5"><ellipse fill="#c4dff6" rx="1" ry="1" transform="matrix(8.20723 32.1867 -60.2438 15.36147 195 45.4)"/><ellipse fill="#070000" rx="1" ry="1" transform="matrix(-44.43135 112.31585 -37.60466 -14.87614 72.9 60.1)"/><ellipse fill="#fff" rx="1" ry="1" transform="matrix(-15.0985 -7.234 26.9871 -56.32644 0 95.2)"/><path fill="#f4f7f4" d="M-16 85L1 47l88-3z"/><ellipse cx="127" cy="14" rx="37" ry="20"/><ellipse fill="#fff" rx="1" ry="1" transform="rotate(-176.1 83.7 21.2) scale(14.7224 25.48562)"/><ellipse fill="#839ba6" cx="210" cy="101" rx="57" ry="60"/><path fill="#ffe4ce" d="M92.2 41.7l-49 10.8L73 72.3l-3.6-41z"/><path fill="#444e56" d="M185 45h49v25h-49z"/><ellipse fill="#3f301d" cx="36" cy="15" rx="58" ry="25"/><path fill="#14221d" d="M114.5 131L13 90l23.4-36.6 50.4 28z"/><path d="M121 62h31v7h-31z"/><path fill="#91b2cb" d="M135.5 11.1l11.3 49.2-33.5.5 27-70.3z"/><ellipse fill="#ddf0ff" rx="1" ry="1" transform="rotate(-37.1 229.7 -116.5) scale(10.73551 19.44288)"/><ellipse fill="#060300" rx="1" ry="1" transform="rotate(155.1 45.4 40.8) scale(12.33085 33.28008)"/><path fill="#fff" d="M5 119l24-72-45 14z"/><path fill="#e8ffff" d="M178 109h52v7h-52z"/><path fill="#f6ffff" d="M152 25h28v38h-28z"/><path fill="#abd683" d="M171 104l-63-23 106 8z"/><ellipse fill="#120e00" rx="1" ry="1" transform="matrix(-32.63606 72.70588 -13.67078 -6.13651 93.6 62)"/><ellipse fill="#9ca8af" cx="242" cy="38" rx="32" ry="32"/><path fill="#be7943" d="M59 43l27-20-3 32z"/></g></svg>