<svg xmlns="http://www.w3.org/2000/svg" viewBox="0 0 730 332"><filter id="b"><feGaussianBlur stdDeviation="12" /></filter><path fill="#666f73" d="M0 0h730v330H0z"/><g filter="url(#b)" transform="translate(1.4 1.4) scale(2.85156)" fill-opacity=".5"><ellipse fill="#140700" cx="77" cy="22" rx="51" ry="106"/><ellipse fill="#c5e1f8" cx="187" cy="50" rx="41" ry="41"/><ellipse fill="#fff" rx="1" ry="1" transform="rotate(121.7 -24.7 44.2) scale(57.00506 17.8465)"/><path fill="#fff" d="M77 44H28l42 24z"/><ellipse fill="#bacad8" cx="235" cy="33" rx="84" ry="23"/><ellipse cx="131" cy="4" rx="31" ry="31"/><ellipse fill="#05171a" cx="44" cy="98" rx="29" ry="39"/><ellipse fill="#7f96a0" rx="1" ry="1" transform="matrix(57.29967 15.86798 -20.8997 75.4694 211.8 112.3)"/><path fill="#d6f2ff" d="M119 34h61v27h-61z"/><ellipse fill="#fff" rx="1" ry="1" transform="rotate(-161.4 11.2 35.7) scale(12.66113 28.13897)"/><path fill="#e9feff" d="M102 100h25v16h-25z"/><ellipse fill="#030300" rx="1" ry="1" transform="matrix(-15.15451 -5.45078 57.21702 -159.07733 111.3 17)"/><ellipse fill="#444a46" rx="1" ry="1" transform="rotate(40.6 18.8 321.6) scale(29.36571 10.62916)"/><ellipse fill="#abedff" cx="133" cy="22" rx="4" ry="17"/><ellipse fill="#ecffff" cx="203" cy="115" rx="27" ry="8"/><ellipse fill="#f7ffff" cx="9" cy="93" rx="6" ry="43"/><ellipse fill="#22598b" rx="1" ry="1" transform="matrix(-.1836 8.81854 -15.4532 -.32173 138.8 51.8)"/><path fill="#e49a66" d="M61.4 33.2l23-.4.2 16-23 .4z"/><path fill="#314149" d="M169-16l27 31-41 9z"/><ellipse fill="#feffff" cx="162" cy="48" rx="11" ry="24"/><ellipse fill="#413f47" rx="1" ry="1" transform="matrix(16.07865 9.02292 -17.94663 31.98052 21 13.4)"/><path fill="#c5deaf" d="M175 95.6l32 35.4-60.8-46.7 69.6 9.4z"/></g></svg>