<svg xmlns="http://www.w3.org/2000/svg" viewBox="0 0 2481 3470"><filter id="b"><feGaussianBlur stdDeviation="12" /></filter><path fill="#ebe9d5" d="M0 0h2480v3470H0z"/><g filter="url(#b)" transform="translate(6.8 6.8) scale(13.55469)" fill-opacity=".5"><path fill="#375942" d="M106.5 61.5h-29v-23h29z"/><ellipse fill="#d1ad62" cx="21" cy="230" rx="15" ry="15"/><path fill="#d1ad62" d="M8 8h28v30H8z"/><ellipse fill="#fffffe" cx="43" cy="109" rx="28" ry="92"/><path fill="#cba353" d="M175.2 221.8l-2.6 24.9-23.8-2.5 2.6-24.9z"/><ellipse fill="#cca453" cx="161" cy="22" rx="14" ry="14"/><ellipse fill="#fffffe" cx="132" cy="159" rx="36" ry="36"/><ellipse fill="#757672" cx="96" cy="140" rx="31" ry="3"/><path d="M0 255h183v1H0z"/><ellipse fill="#d7ba7c" cx="42" cy="241" rx="135" ry="5"/><ellipse fill="#d2b36d" cx="11" cy="118" rx="4" ry="126"/><path fill="#97d3cb" d="M14 110l97-2-49-13z"/><ellipse fill="#fffffb" rx="1" ry="1" transform="matrix(-10.87525 18.55618 -29.30548 -17.1751 138.2 55.5)"/><ellipse fill="#d5b571" cx="99" cy="12" rx="80" ry="5"/><path fill="#d8bb7a" d="M177.5 149.3l-9 .3-4-117 9-.2z"/><ellipse fill="#636564" cx="88" cy="131" rx="23" ry="3"/><ellipse fill="#91d2cf" rx="1" ry="1" transform="matrix(-.11278 5.44125 -42.5458 -.88184 114.1 105.5)"/><path fill="#d8bd7c" d="M179 186l-15 38 7-78z"/><ellipse fill="#fffbeb" cx="86" cy="30" rx="54" ry="14"/><ellipse fill="#848582" cx="122" cy="80" rx="34" ry="2"/><ellipse fill="#fffffd" cx="182" cy="105" rx="7" ry="182"/><path fill="#747675" d="M59 192h62v3H59z"/></g></svg>