<svg xmlns="http://www.w3.org/2000/svg" viewBox="0 0 2481 3470"><filter id="b"><feGaussianBlur stdDeviation="12" /></filter><path fill="#c59376" d="M0 0h2480v3470H0z"/><g filter="url(#b)" transform="translate(6.8 6.8) scale(13.55469)" fill-opacity=".5"><ellipse fill="#e3e9ca" cx="91" cy="155" rx="75" ry="75"/><ellipse fill="#b6001e" cx="92" cy="29" rx="39" ry="39"/><ellipse fill="#ffffd3" cx="42" cy="76" rx="23" ry="37"/><ellipse fill="#891500" cx="181" cy="143" rx="19" ry="182"/><ellipse fill="#7a1a00" rx="1" ry="1" transform="matrix(109.78126 -5.94554 1.06506 19.66572 62.4 254.9)"/><path fill="#0057e3" d="M175.5 27.5h-53v-11h53z"/><ellipse fill="#a42b00" cy="141" rx="20" ry="182"/><ellipse fill="#ffffd1" cx="142" cy="71" rx="20" ry="34"/><path fill="#0044c4" d="M43.7 15l15.2 6.1-.4 11-74.5-8.3z"/><ellipse fill="#df0010" rx="1" ry="1" transform="rotate(-179.1 78.4 17) scale(39.49742 7.67013)"/><path fill="#f7edb5" d="M122 183h39v52h-39z"/><ellipse fill="red" cx="28" cy="32" rx="25" ry="6"/><path fill="#faf3bf" d="M20 197.5h36v35H20z"/><path fill="#ffffd2" d="M32 66h126v10H32z"/><ellipse fill="#c12d00" cx="98" cy="2" rx="87" ry="7"/><path fill="#eaffff" d="M127 8h46v10h-46z"/><ellipse fill="#f01" cx="71" cy="52" rx="13" ry="13"/><path fill="#ebffff" d="M4 13l36-7 17 13z"/><path fill="#f1dfa5" d="M140 38h23v189h-23z"/><ellipse fill="#b7b8a2" cx="89" cy="33" rx="27" ry="6"/><ellipse fill="#f8dea8" cx="27" cy="112" rx="9" ry="76"/><path fill="#0052ac" d="M124 20h48v7h-48z"/></g></svg>