<svg xmlns="http://www.w3.org/2000/svg" viewBox="0 0 2481 3470"><filter id="b"><feGaussianBlur stdDeviation="12" /></filter><path fill="#bcc8d3" d="M0 0h2480v3470H0z"/><g filter="url(#b)" transform="translate(6.8 6.8) scale(13.55469)" fill-opacity=".5"><path fill="#000015" d="M72 51h42v11H72z"/><ellipse fill="#1e5d80" rx="1" ry="1" transform="matrix(-49.71053 3.96936 -.62412 -7.81624 130 242.2)"/><ellipse fill="#306a8b" rx="1" ry="1" transform="matrix(-.06859 6.5493 -123.91107 -1.29764 126 12.4)"/><ellipse fill="#064971" rx="1" ry="1" transform="matrix(43.87727 .76588 -.1076 6.16457 48.8 240)"/><ellipse fill="#fffdfd" cx="137" cy="66" rx="26" ry="46"/><ellipse fill="#fffafb" cx="46" cy="69" rx="25" ry="49"/><path fill="#276f94" d="M6.5 230.5v-163h15v163z"/><ellipse fill="#064b87" cx="90" cy="67" rx="12" ry="17"/><path fill="#5991ad" d="M186 203l-23-87-2 139z"/><ellipse fill="#f9f3f5" rx="1" ry="1" transform="matrix(1.996 31.72561 -23.90997 1.50429 139.4 203)"/><ellipse fill="#4d86a4" cx="169" cy="75" rx="8" ry="178"/><ellipse fill="#39789a" cx="14" cy="47" rx="8" ry="43"/><ellipse fill="#fff" rx="1" ry="1" transform="rotate(132.1 86.5 38.7) scale(11.05382 133.33024)"/><ellipse fill="#d8d1d7" cx="90" cy="145" rx="71" ry="64"/><ellipse fill="#ffe9ed" cx="91" cy="33" rx="20" ry="20"/><ellipse fill="#fff" cx="182" cy="145" rx="5" ry="182"/><ellipse fill="#fff" cy="127" rx="6" ry="182"/><path fill="#fff" d="M76 251h107v5H76zm-52-37h39v21H24z"/><ellipse fill="#fff" cx="79" rx="178" ry="5"/><path fill="#4f829d" d="M45 250l-34-2-2-35z"/><path fill="#fff" d="M73 250l-81 1 76 20z"/></g></svg>