<svg xmlns="http://www.w3.org/2000/svg" viewBox="0 0 2481 3470"><filter id="b"><feGaussianBlur stdDeviation="12" /></filter><path fill="#e4e9eb" d="M0 0h2480v3470H0z"/><g filter="url(#b)" transform="translate(6.8 6.8) scale(13.55469)" fill-opacity=".5"><path d="M-4.2 255.1l7.9-34 94.5 21.8-7.9 34z"/><ellipse fill="#608fbb" cx="132" cy="244" rx="76" ry="14"/><ellipse fill="#3c3c35" rx="1" ry="1" transform="rotate(89.8 3.2 86.1) scale(3.32515 53.16067)"/><ellipse fill="#fff" cx="147" cy="29" rx="182" ry="51"/><ellipse fill="#3a2d45" cx="22" cy="242" rx="89" ry="11"/><ellipse fill="#fff" cx="81" cy="191" rx="42" ry="42"/><ellipse fill="#fcffff" cx="14" cy="120" rx="38" ry="92"/><ellipse fill="#88e0ff" cy="130" rx="3" ry="182"/><ellipse fill="#c5ffff" cx="88" cy="255" rx="128" ry="3"/><ellipse fill="#fafbfa" rx="1" ry="1" transform="rotate(174.3 63 89.7) scale(106.2564 59.04489)"/><path fill="#898e99" d="M57 16l-36 7 68 6z"/><path fill="#a5efff" d="M72 256l126-40-21 55z"/><ellipse fill="#e6e6e2" cx="58" cy="135" rx="45" ry="45"/><path fill="#a46a94" d="M69 232h58v10H69z"/><path fill="#9ea2ab" d="M15.1 17l8.7-3.6 33 16-32.6-1.9z"/><ellipse fill="#fff" cx="121" cy="55" rx="168" ry="25"/><ellipse fill="#bfc6d1" cx="146" cy="198" rx="27" ry="8"/><ellipse fill="#323846" cx="15" cy="236" rx="14" ry="14"/><path fill="#fff" d="M48 177h66v56H48z"/><path fill="#6dcef7" d="M181 0h2v233h-2z"/><ellipse fill="#fff" cx="163" cy="87" rx="30" ry="8"/><ellipse fill="#fff" cx="156" cy="171" rx="22" ry="22"/></g></svg>