<svg xmlns="http://www.w3.org/2000/svg" viewBox="0 0 172 243"><filter id="b"><feGaussianBlur stdDeviation="12" /></filter><path fill="#b6b7b0" d="M0 0h172v243H0z"/><g filter="url(#b)" transform="translate(.5 .5)" fill-opacity=".5"><ellipse cx="87" cy="33" rx="171" ry="27"/><ellipse fill="#fff" cx="91" cy="131" rx="74" ry="74"/><ellipse rx="1" ry="1" transform="matrix(-78.72562 -1.75982 .3624 -16.21215 85.4 44)"/><path fill="#fffbf4" d="M82 13h35v20H82z"/><ellipse fill="#fff" cx="124" cy="94" rx="35" ry="35"/><ellipse fill="#feffff" cx="51" cy="101" rx="42" ry="42"/><ellipse fill="#e8ebe4" rx="1" ry="1" transform="matrix(77.55046 -.57533 .31189 42.04039 85.5 190.8)"/><path fill="#e1dec1" d="M12 56h-24V-6h24z"/><path fill="#fff" d="M10 59l7 49 168-48z"/><ellipse cx="27" cy="32" rx="13" ry="28"/><path fill="#cfcbac" d="M175 67h-12v-84h12z"/><ellipse fill="#d2d9d3" rx="1" ry="1" transform="matrix(25.50117 3.34405 -6.1286 46.7357 36.8 138.4)"/><path fill="#0c0801" d="M10 33h152v27H10z"/><path fill="#e4e0ea" d="M143.6 25.8l11.7-1.8-32.3 7.4 58.8 3.3z"/><ellipse fill="#000002" cx="138" cy="18" rx="19" ry="6"/><ellipse fill="#949076" cx="167" cy="131" rx="5" ry="171"/><ellipse fill="#fff" rx="1" ry="1" transform="rotate(56.2 -9 174.1) scale(24.55608 26.11088)"/><ellipse fill="#9b987f" cx="77" cy="1" rx="169" ry="9"/><path fill="#99937c" d="M108 258L3 234l149-7z"/><path fill="#98957b" d="M11 258V59l-27 99z"/><ellipse fill="#b1a291" cx="63" cy="29" rx="25" ry="3"/><path fill="#a6aba8" d="M19 126h69v7H19z"/></g></svg>