<svg xmlns="http://www.w3.org/2000/svg" viewBox="0 0 2481 3470"><filter id="b"><feGaussianBlur stdDeviation="12" /></filter><path fill="#efefed" d="M0 0h2480v3470H0z"/><g filter="url(#b)" transform="translate(6.8 6.8) scale(13.55469)" fill-opacity=".5"><ellipse fill="#fff" rx="1" ry="1" transform="matrix(78.5273 -11.4559 7.20049 49.35755 90.5 195)"/><ellipse fill="#92aeca" cx="2" cy="123" rx="5" ry="182"/><ellipse fill="#c4c3b4" rx="1" ry="1" transform="matrix(11.95668 .08347 -1.24163 177.84818 199.3 126.1)"/><path fill="#a5aba8" d="M23.1 193.6l13 4 31.6-11.8-46.9-8.5z"/><ellipse fill="#fff" rx="1" ry="1" transform="matrix(-.85974 -16.52743 68.73631 -3.5756 79.6 61.6)"/><ellipse fill="#d0c9b4" cx="131" cy="4" rx="181" ry="7"/><path fill="#b5bab9" d="M100 47L41 26l93 1z"/><ellipse fill="#d4cab1" cx="120" cy="254" rx="182" ry="9"/><path fill="#7d817f" d="M29 135h134v2H29z"/><ellipse fill="#fff" rx="1" ry="1" transform="matrix(21.72865 -.19397 .36492 40.8785 150.7 48.4)"/><ellipse fill="#a7a9a6" cx="53" cy="103" rx="129" ry="2"/><ellipse fill="#fff" cx="34" cy="50" rx="22" ry="41"/><ellipse fill="#a1a3a1" rx="1" ry="1" transform="matrix(-83.48687 .43714 -.00712 -1.36017 115.2 141.7)"/><ellipse fill="#f8deaf" rx="1" ry="1" transform="rotate(-90.3 63.6 53.5) scale(107.68874 4.61772)"/><ellipse fill="#fff" rx="1" ry="1" transform="matrix(32.22279 -.7795 .61496 25.42112 141 221.2)"/><ellipse fill="#aeb1af" rx="1" ry="1" transform="matrix(-89.17615 -.75216 .00843 -.99996 109.5 98)"/><path fill="#fff" d="M41 177l-28-2V75z"/><path fill="#747876" d="M22 146h62v2H22z"/><path fill="#fff" d="M84 144h85v43H84z"/><ellipse fill="#afb2af" cx="137" cy="117" rx="116" ry="2"/><ellipse fill="#fff" cx="86" cy="18" rx="76" ry="9"/><path fill="#7a837e" d="M74 77h36v3H74z"/></g></svg>