<svg xmlns="http://www.w3.org/2000/svg" viewBox="0 0 2481 3470"><filter id="b"><feGaussianBlur stdDeviation="12" /></filter><path fill="#ebe9d5" d="M0 0h2480v3470H0z"/><g filter="url(#b)" transform="translate(6.8 6.8) scale(13.55469)" fill-opacity=".5"><path fill="#345947" d="M77 41h30v23H77z"/><ellipse fill="#d0ab5f" rx="1" ry="1" transform="matrix(-8.68187 9.85424 -12.51432 -11.02547 162.3 21.6)"/><ellipse fill="#caa14f" rx="1" ry="1" transform="matrix(11.59814 -12.53033 7.36216 6.81446 161.8 231.5)"/><ellipse fill="#fffffd" rx="1" ry="1" transform="matrix(28.0612 -.44082 .88087 56.07335 143.6 167)"/><path fill="#d4b46d" d="M62 9L5 46l7-40z"/><ellipse fill="#d2af66" rx="1" ry="1" transform="rotate(-135 59 110.7) scale(21.84482 10.89496)"/><ellipse fill="#fafff9" cx="49" cy="121" rx="34" ry="106"/><ellipse fill="#a6a7a0" cx="94" cy="136" rx="32" ry="8"/><path d="M0 255h183v1H0z"/><ellipse fill="#d6b875" rx="1" ry="1" transform="matrix(-.05117 -4.54177 55.64925 -.62698 93.9 12.2)"/><ellipse fill="#d3b46f" cx="11" cy="111" rx="4" ry="155"/><ellipse fill="#fffffd" rx="1" ry="1" transform="rotate(33.8 -20.3 253) scale(33.98511 21.03359)"/><ellipse fill="#d4b776" cx="96" cy="241" rx="85" ry="5"/><ellipse fill="#8bceca" cx="92" cy="105" rx="71" ry="6"/><path fill="#d3b36d" d="M167 33h8v69h-8z"/><ellipse fill="#d4b776" cx="171" cy="183" rx="4" ry="129"/><ellipse fill="#b5b4a9" cx="120" cy="204" rx="104" ry="2"/><ellipse fill="#fffff7" rx="1" ry="1" transform="matrix(22.0124 21.0355 -11.33911 11.8657 134 134)"/><ellipse fill="#71726f" cx="93" cy="193" rx="33" ry="2"/><path fill="#5b5c5c" d="M97 80h57v2H97z"/><ellipse fill="#c7e8e1" cx="91" cy="68" rx="36" ry="7"/><ellipse fill="#fff" cx="79" cy="135" rx="64" ry="3"/></g></svg>