<svg xmlns="http://www.w3.org/2000/svg" viewBox="0 0 93 133"><filter id="b"><feGaussianBlur stdDeviation="12" /></filter><path fill="#edebe8" d="M0 0h93v133H0z"/><g filter="url(#b)" transform="translate(.5 .5)" fill-opacity=".5"><ellipse fill="#fafeff" cx="33" cy="100" rx="58" ry="29"/><path fill="#d39d3d" d="M100.4 129.6l-40.5.2-75.9 1 101.2 1.9z"/><path fill="#cc8d19" d="M91 4h2v124h-2z"/><ellipse fill="#d39e3c" cx="58" rx="76" ry="3"/><ellipse fill="#c1c4c4" cx="27" cy="43" rx="53" ry="7"/><ellipse fill="#c9870a" cy="65" rx="1" ry="62"/><path fill="#bcc1c4" d="M8 55h71v10H8z"/><ellipse fill="#a6aaad" cx="43" cy="13" rx="24" ry="4"/><path fill="#fff" d="M67 3h22v38H67zM5 9L0 40l60-15z"/><ellipse fill="#bfd0f7" cx="63" cy="91" rx="9" ry="11"/><path fill="#cf9f41" d="M0 130h85v2H0z"/><path fill="#b3b5b6" d="M12 74h17v6H12z"/><path fill="#feffff" d="M20 64h70L37 95z"/><path fill="#fff" d="M2 8h7v117H2z"/><path fill="#8c9191" d="M8 37h67v1H8z"/><path fill="#deba76" d="M0 5h2v126H0z"/><ellipse fill="#fff" cx="86" cy="60" rx="47" ry="2"/><ellipse fill="#f9f8fa" cx="37" rx="61" ry="1"/><ellipse fill="#8a8b8b" cx="57" cy="58" rx="49" ry="1"/><path fill="#fff" d="M8 5h17v10H8z"/><path fill="#c3c4c5" d="M25 10h46v8H25z"/></g></svg>