<svg xmlns="http://www.w3.org/2000/svg" viewBox="0 0 172 243"><filter id="b"><feGaussianBlur stdDeviation="12" /></filter><path fill="#dee4ed" d="M0 0h172v243H0z"/><g filter="url(#b)" transform="translate(.5 .5)" fill-opacity=".5"><ellipse fill="#000084" rx="1" ry="1" transform="matrix(170.99883 -.63139 .03379 9.1508 83.2 41.9)"/><ellipse fill="#fff" cx="84" cy="194" rx="170" ry="42"/><path fill="#0045a8" d="M8 33h157v17H8z"/><path fill="#fff" d="M4 51h162v39H4z"/><ellipse fill="#88afdd" cx="33" cy="237" rx="171" ry="3"/><path fill="#fff" d="M47 7h112v26H47z"/><ellipse fill="#b1c3e0" cx="1" cy="132" rx="6" ry="171"/><ellipse fill="#fff" rx="1" ry="1" transform="rotate(179 8.3 71.6) scale(11.53863 91.99507)"/><ellipse fill="#e7d8cf" cx="66" cy="128" rx="40" ry="40"/><ellipse fill="#b2c3e0" cx="169" cy="131" rx="5" ry="162"/><ellipse fill="#6295ca" cx="23" cy="19" rx="54" ry="2"/><path fill="#aed6ee" d="M73 191h32v30H73z"/><ellipse fill="#fff" cx="157" cy="125" rx="8" ry="75"/><ellipse fill="#fff" rx="1" ry="1" transform="matrix(22.81734 -12.96205 19.06729 33.5645 132.3 199.4)"/><ellipse fill="#015db4" cx="94" cy="41" rx="72" ry="8"/><path fill="#508cc8" d="M1 21h70v2H1z"/><ellipse fill="#fff" cx="41" cy="201" rx="35" ry="35"/><ellipse fill="#fff" cx="62" cy="67" rx="56" ry="17"/><ellipse fill="#e9ddd6" cx="115" cy="122" rx="36" ry="34"/><path fill="#fff" d="M70 8h95v25H70z"/><path fill="#003d96" d="M7 36h25v15H7z"/><path fill="#e7f1f5" d="M12.9 14.2l-14.3 51L-3 46l-13-27z"/></g></svg>