<svg xmlns="http://www.w3.org/2000/svg" viewBox="0 0 93 133"><filter id="b"><feGaussianBlur stdDeviation="12" /></filter><path fill="#dfdedb" d="M0 0h93v133H0z"/><g filter="url(#b)" transform="translate(.5 .5)" fill-opacity=".5"><ellipse fill="#f5f5f6" rx="1" ry="1" transform="rotate(166.2 14 59.5) scale(47.97206 25.58251)"/><ellipse fill="#b8b9bb" cx="40" cy="71" rx="43" ry="10"/><path fill="#6b6b6e" d="M0 17h73v3H0z"/><path fill="#a1a2a5" d="M61 9l-1 28L85 9z"/><ellipse fill="#8c8d8f" cx="25" cy="31" rx="67" ry="2"/><path fill="#fff" d="M25 22h33v9H25z"/><ellipse fill="#fff" cx="6" cy="18" rx="9" ry="3"/><path fill="#f4f5f9" d="M5 33h84v24H5z"/><path fill="#cfc099" d="M0 128h73v4H0z"/><path fill="#a4a5a8" d="M9 10h13v23H9z"/><path fill="#a3a3a6" d="M9 57h77v4H9z"/><ellipse fill="#7b7b7c" cx="65" cy="84" rx="53" ry="1"/><path fill="#46423e" d="M8.5 31l57 1v1l-57-1z"/><path fill="#f9faff" d="M78 6h10v25H78z"/><ellipse fill="#fff" cx="57" cy="62" rx="30" ry="2"/><ellipse fill="#9c9c9c" cx="64" cy="46" rx="7" ry="3"/><ellipse fill="#e0d4b4" cy="73" rx="5" ry="91"/><ellipse fill="#fdfcfe" cx="44" cy="7" rx="43" ry="3"/><ellipse fill="#fff" cx="18" cy="30" rx="65" ry="1"/><path fill="#efeff3" d="M4 88h84v34H4z"/><ellipse fill="#939596" cx="22" cy="86" rx="27" ry="1"/><path fill="#7c7b7b" d="M21 18h49v3H21z"/></g></svg>