<svg xmlns="http://www.w3.org/2000/svg" viewBox="0 0 93 133"><filter id="b"><feGaussianBlur stdDeviation="12" /></filter><path fill="#efedf1" d="M0 0h93v133H0z"/><g filter="url(#b)" transform="translate(.5 .5)" fill-opacity=".5"><ellipse fill="#cbcdc9" cx="42" cy="59" rx="33" ry="17"/><ellipse fill="#bec0bd" cx="88" cy="13" rx="46" ry="6"/><ellipse fill="#fff" cx="43" cy="96" rx="92" ry="21"/><ellipse fill="#a7a7a7" cx="54" cy="121" rx="70" ry="2"/><ellipse fill="#fff" cx="47" cy="33" rx="92" ry="11"/><path fill="#cd90fc" d="M0 0h90v3H0z"/><ellipse fill="#b8b9b7" cx="58" cy="104" rx="47" ry="2"/><path fill="#cd91fe" d="M0 130h90v3H0z"/><ellipse fill="#7c7d7b" cx="47" cy="71" rx="35" ry="1"/><ellipse fill="#c26dff" cy="64" rx="2" ry="73"/><ellipse fill="#787977" cx="42" cy="35" rx="14" ry="1"/><ellipse fill="#7c7d7b" cx="44" cy="74" rx="35" ry="1"/><path fill="#fff" d="M5 57h83v6H5z"/><ellipse fill="#c3b5ca" cx="92" cy="65" rx="2" ry="75"/><ellipse fill="#b1b1b1" cx="16" cy="16" rx="47" ry="2"/><ellipse fill="#fff" rx="1" ry="1" transform="rotate(-73.3 27 -23.9) scale(5.45717 11.71944)"/><path fill="#878787" d="M58 9h17v4H58z"/><path fill="#fff" d="M23 17h31v17H23z"/><path fill="#a1a2a0" d="M31 83h28v2H31z"/><path fill="#fff" d="M80 8h13v7H80z"/><ellipse fill="#fff" cx="45" cy="69" rx="49" ry="2"/><path fill="#c5c6c5" d="M9 44h65v10H9z"/></g></svg>