<svg xmlns="http://www.w3.org/2000/svg" viewBox="0 0 2481 3470"><filter id="b"><feGaussianBlur stdDeviation="12" /></filter><path fill="#e4e9eb" d="M0 0h2480v3470H0z"/><g filter="url(#b)" transform="translate(6.8 6.8) scale(13.55469)" fill-opacity=".5"><ellipse rx="1" ry="1" transform="matrix(-2.56777 15.43981 -83.69723 -13.91957 13.4 238.3)"/><ellipse fill="#3f315a" rx="1" ry="1" transform="matrix(-57.35843 4.42608 -.65428 -8.47895 81.1 240.8)"/><path fill="#36342d" d="M156 79.6v5L48 86.4v-5z"/><ellipse fill="#73cff8" rx="1" ry="1" transform="matrix(-4.03355 -16.71834 118.08612 -28.49003 154 249.3)"/><ellipse fill="#fff" rx="1" ry="1" transform="matrix(5.0953 -37.19666 149.96036 20.54201 130 44.6)"/><ellipse fill="#fff" cx="85" cy="199" rx="98" ry="34"/><path fill="#989da6" d="M92 18L7 14l43 16z"/><path fill="#d3ffff" d="M28 253h68v3H28z"/><ellipse fill="#202135" cx="20" cy="238" rx="18" ry="14"/><ellipse fill="#8ee5ff" cy="134" rx="3" ry="182"/><ellipse fill="#fff" rx="1" ry="1" transform="matrix(21.71028 20.17444 -32.85189 35.35284 22 68)"/><ellipse fill="#feffff" cx="168" cy="115" rx="32" ry="78"/><path fill="#fff" d="M113 167l-60 66-29-10zm-1-183l63 100L58 66z"/><ellipse fill="#343b43" cx="49" cy="246" rx="47" ry="7"/><ellipse fill="#8dd9f8" rx="1" ry="1" transform="matrix(-.81015 92.83423 -2.01118 -.01755 182 105.5)"/><ellipse fill="#c1c9d5" rx="1" ry="1" transform="rotate(96.9 -15.3 162.7) scale(8.26292 29.16636)"/><ellipse fill="#0f1414" cx="100" cy="80" rx="35" ry="1"/><path fill="#fff" d="M3 56h17v133H3z"/><ellipse fill="#fff" cx="90" cy="161" rx="89" ry="5"/><path d="M49 78h6v3h-6z"/><path fill="#bec1bb" d="M133 30h39v6h-39z"/></g></svg>