<svg xmlns="http://www.w3.org/2000/svg" viewBox="0 0 93 133"><filter id="b"><feGaussianBlur stdDeviation="12" /></filter><path fill="#efedf1" d="M0 0h93v133H0z"/><g filter="url(#b)" transform="translate(.5 .5)" fill-opacity=".5"><path fill="#cbccc9" d="M9 45h69v30H9z"/><ellipse fill="#a1a39f" cx="66" cy="13" rx="14" ry="6"/><ellipse fill="#fff" cx="50" cy="97" rx="86" ry="23"/><ellipse fill="#fff" rx="1" ry="1" transform="rotate(13.7 -82.4 173.1) scale(64.11024 15.33153)"/><path fill="#868885" d="M118 124.1L26 121v-1l92 3.2z"/><ellipse fill="#a7a8a7" rx="1" ry="1" transform="matrix(-33.99815 .6528 -.0192 -.99982 36.6 16.2)"/><path fill="#b2b3b1" d="M11 103h68v3H11z"/><ellipse fill="#535353" cx="54" cy="66" rx="19" ry="1"/><ellipse fill="#fff" cx="79" cy="60" rx="55" ry="3"/><ellipse fill="#c16bff" cy="64" rx="2" ry="73"/><ellipse fill="#aba4ae" cx="91" cy="91" rx="1" ry="89"/><ellipse fill="#cf93ff" cx="45" cy="132" rx="60" ry="3"/><path fill="#cc8ffc" d="M2 0h88v3H2z"/><path fill="#fff" d="M9 67h82v4H9z"/><path fill="#999a98" d="M28 34h37v2H28z"/><path fill="#b7b8b6" d="M33 83h29v3H33z"/><ellipse fill="#828282" cx="45" cy="71" rx="36" ry="1"/><path fill="#c8c8c8" d="M10 44h63v13H10z"/><ellipse fill="#c5c7c3" cx="47" cy="124" rx="17" ry="3"/><ellipse fill="#939394" cx="22" cy="120" rx="30" ry="1"/><path fill="#fff" d="M74 20h17v51H74zM49.3 43.2l-19.9-7.4-15.6-15-15 23.8z"/></g></svg>