<svg xmlns="http://www.w3.org/2000/svg" viewBox="0 0 93 133"><filter id="b"><feGaussianBlur stdDeviation="12" /></filter><path fill="#edebe8" d="M0 0h93v133H0z"/><g filter="url(#b)" transform="translate(.5 .5)" fill-opacity=".5"><ellipse fill="#faffff" cx="51" cy="97" rx="33" ry="33"/><path fill="#cd8f1e" d="M91 0h2v130h-2z"/><path fill="#c68305" d="M0 1h86v2H0z"/><path fill="#c58000" d="M0 130h91v2H0z"/><path fill="#c5c9cc" d="M6 70l80-34-70 1z"/><ellipse fill="#cc8e17" cy="53" rx="1" ry="77"/><path fill="#b0b4b7" d="M64 7l-1 11-37-6z"/><ellipse fill="#fcffff" rx="1" ry="1" transform="matrix(29.9657 5.39168 -4.27564 23.76303 32.5 105.5)"/><ellipse fill="#fcffff" rx="1" ry="1" transform="matrix(.31016 8.88189 -42.0001 1.46668 57.4 28.4)"/><ellipse fill="#fff" cx="32" cy="53" rx="58" ry="2"/><path fill="#fff" d="M2 4h23v31H2z"/><ellipse fill="#7f8283" cx="39" cy="58" rx="46" ry="1"/><path fill="#fff" d="M69 6l20-1 1 69z"/><ellipse fill="#e3be7b" cx="1" cy="41" rx="1" ry="91"/><ellipse fill="#c7d5f7" cx="64" cy="92" rx="11" ry="11"/><path fill="#88898a" d="M69.4 10.3l.1 1-45 2.4v-1z"/><ellipse fill="#fff" cx="5" cy="77" rx="3" ry="51"/><ellipse fill="#9da1a3" cx="41" cy="63" rx="44" ry="1"/><path fill="#fdfeff" d="M72 68h18v59H72z"/><ellipse fill="#2d302e" cx="47" cy="32" rx="7" ry="1"/><path fill="#bec2c4" d="M11 74h21v7H11z"/><path fill="#d8aa5c" d="M82-16H68L94 8z"/></g></svg>