<svg xmlns="http://www.w3.org/2000/svg" viewBox="0 0 2481 3470"><filter id="b"><feGaussianBlur stdDeviation="12" /></filter><path fill="#ebe9d5" d="M0 0h2480v3470H0z"/><g filter="url(#b)" transform="translate(6.8 6.8) scale(13.55469)" fill-opacity=".5"><path fill="#30594c" d="M78 43h32v20H78z"/><path fill="#cda658" d="M148 219h27v26h-27z"/><path fill="#d2af66" d="M55 245L9 202l-3 42z"/><ellipse fill="#fffffc" cx="44" cy="121" rx="29" ry="101"/><path fill="#d2af67" d="M176 9l-1 35-58-36z"/><path fill="#d6b773" d="M10 53L54 8 5 6z"/><ellipse fill="#fff" cx="141" cy="157" rx="27" ry="47"/><path d="M0 255h183v1H0z"/><path fill="#8cd0cb" d="M29 99h116v12H29z"/><ellipse fill="#d8bd7e" cx="171" cy="166" rx="5" ry="150"/><ellipse fill="#fffff9" cx="135" cy="51" rx="30" ry="30"/><path fill="#9d9f9a" d="M64 129h52v14H64z"/><path fill="#ceac5f" d="M8 49h7v156H8z"/><ellipse fill="#d5b777" cx="105" cy="241" rx="72" ry="5"/><path fill="#d4b26a" d="M50 8h64v9H50z"/><ellipse fill="#cecec7" cx="95" cy="204" rx="49" ry="14"/><path fill="#5a5b5a" d="M88 80h66v2H88z"/><path fill="#506c61" d="M102 28h4v33h-4z"/><ellipse fill="#fff" cx="92" cy="135" rx="75" ry="3"/><ellipse fill="#fffff5" cx="92" cy="177" rx="77" ry="14"/><path fill="#bde3dd" d="M51 151h78v14H51z"/><ellipse fill="#fffff9" cx="161" cy="110" rx="7" ry="76"/></g></svg>