<svg xmlns="http://www.w3.org/2000/svg" viewBox="0 0 172 245"><filter id="b"><feGaussianBlur stdDeviation="12" /></filter><path fill="#bcc4d3" d="M0 0h172v245H0z"/><g filter="url(#b)" transform="translate(.5 .5)" fill-opacity=".5"><path fill="#00114f" d="M89 80l19-33-50 1z"/><ellipse fill="#2a6286" cx="105" cy="235" rx="144" ry="7"/><ellipse fill="#fff" rx="1" ry="1" transform="rotate(46.7 -43.2 85) scale(39.61023 16.67635)"/><ellipse fill="#fff" rx="1" ry="1" transform="matrix(-17.84751 35.02168 -21.16756 -10.78727 127 65.5)"/><ellipse fill="#2f6c8f" cx="161" cy="51" rx="8" ry="171"/><path fill="#3f6e8f" d="M6 4h158v14H6z"/><path fill="#fff0f5" d="M147 51L24 38 90 8z"/><ellipse fill="#3c7da1" cx="10" cy="129" rx="7" ry="171"/><ellipse fill="#fdf4f8" cx="129" cy="196" rx="26" ry="31"/><path fill="#e2d9e3" d="M19 227L156-4l-6 220z"/><ellipse fill="#f3eff5" rx="1" ry="1" transform="rotate(-170.9 21.6 29.5) scale(19.45696 44.54329)"/><path fill="#5786a2" d="M154 173h16v60h-16z"/><ellipse fill="#fff" cx="1" cy="157" rx="3" ry="167"/><path fill="#001" d="M87 51l15 8 7-11z"/><path fill="#fff" d="M171 174l16 61-21 16z"/><path fill="#ded5de" d="M18 219L128 66 19 101z"/><path fill="#fff" d="M69 225l13 7 17-3zM97 2.5L-16 3.8 94.1-16 187 3.7zM0 242h172v3H0z"/><path fill="#fff" d="M169 0h3v245h-3z"/><ellipse fill="#a6a6ae" cx="74" cy="90" rx="65" ry="5"/><path fill="#4f7b98" d="M148 3h13v20h-13z"/></g></svg>