<svg xmlns="http://www.w3.org/2000/svg" viewBox="0 0 93 133"><filter id="b"><feGaussianBlur stdDeviation="12" /></filter><path fill="#dfdedb" d="M0 0h93v133H0z"/><g filter="url(#b)" transform="translate(.5 .5)" fill-opacity=".5"><ellipse fill="#f6f6f9" cx="60" cy="107" rx="92" ry="21"/><path fill="#929397" d="M59 11h18v22H59z"/><ellipse fill="#c1c1c3" rx="1" ry="1" transform="matrix(.6279 -15.63315 43.4036 1.74327 37 72.5)"/><path fill="#a1a1a3" d="M-4 37l46-19-24-4z"/><ellipse fill="#58585b" cx="43" cy="18" rx="28" ry="2"/><ellipse fill="#34322f" cx="59" cy="32" rx="51" ry="1"/><path fill="#f4f5f7" d="M3 33h86v24H3z"/><ellipse fill="#dfd3b2" cx="1" cy="71" rx="4" ry="92"/><path fill="#ded3b7" d="M88 0h5v132h-5z"/><path fill="#adadae" d="M81 45.2l-21.4 4.6-.7-3 21.5-4.6z"/><path fill="#fcfcfe" d="M20 21h73v3H20z"/><path fill="#6d6e71" d="M64.5 33v1l-57-3v-1z"/><path fill="#eff0f1" d="M83 6h6v111h-6z"/><path fill="#fff" d="M25 61h62v3H25z"/><ellipse fill="#fff" cx="67" cy="82" rx="56" ry="2"/><path fill="#b4b4b7" d="M9 8l13 17 2-14z"/><ellipse fill="#8e8d8d" cx="68" cy="64" rx="56" ry="1"/><ellipse fill="#878889" cx="63" cy="57" rx="51" ry="1"/><ellipse fill="#8c8c8d" cx="34" cy="84" rx="51" ry="1"/><ellipse fill="#f7f3eb" cx="34" cy="6" rx="46" ry="4"/><path fill="#a9a9aa" d="M1 59h85v2H1z"/><ellipse fill="#aeaeae" cx="6" cy="38" rx="18" ry="2"/></g></svg>