<svg xmlns="http://www.w3.org/2000/svg" viewBox="0 0 93 133"><filter id="b"><feGaussianBlur stdDeviation="12" /></filter><path fill="#efedf1" d="M0 0h93v133H0z"/><g filter="url(#b)" transform="translate(.5 .5)" fill-opacity=".5"><ellipse fill="#c9cbc7" cx="41" cy="56" rx="33" ry="13"/><path fill="#a0a29e" d="M56 9h24v11H56z"/><ellipse fill="#fff" rx="1" ry="1" transform="matrix(.1378 -22.20286 91.99823 .571 38.6 97.9)"/><path fill="#babbb8" d="M4.4 120.9l37.8-3.2 41 3.8-42.6 3.6z"/><ellipse fill="#bbbcb9" cx="54" cy="72" rx="44" ry="3"/><path fill="#c069ff" d="M-1 3h2v126h-2z"/><ellipse fill="#fff" cx="51" cy="30" rx="50" ry="13"/><ellipse fill="#8f8f8f" cx="40" cy="104" rx="42" ry="1"/><path fill="#949493" d="M10 63h83v1H10z"/><path fill="#cb85ff" d="M40 130h46v3H40z"/><path fill="#fff" d="M81 27h10v75H81z"/><ellipse fill="#cd92fc" cx="33" rx="73" ry="3"/><ellipse fill="#818280" cx="48" cy="35" rx="17" ry="1"/><path fill="#626261" d="M67 66v1l-54-1v-1z"/><path fill="#909190" d="M45 121h47v2H45z"/><path fill="#bfb1c6" d="M91 11h2v120h-2z"/><path fill="#fff" d="M13 57h78v6H13z"/><path fill="#9d9e9b" d="M6 15h58v2H6z"/><path fill="#cf99f9" d="M0 130h40v3H0z"/><path fill="#fff" d="M108 2l-3.4 2.5L1.3 3.6 2.7 17z"/><path fill="#cdcdcc" d="M7.3 50.7l12 11.9 59.4-10.4-14.8-10.5z"/><ellipse fill="#fff" cx="6" cy="71" rx="5" ry="53"/></g></svg>