<svg xmlns="http://www.w3.org/2000/svg" viewBox="0 0 172 243"><filter id="b"><feGaussianBlur stdDeviation="12" /></filter><path fill="#c9876d" d="M0 0h172v243H0z"/><g filter="url(#b)" transform="translate(.5 .5)" fill-opacity=".5"><ellipse fill="#e8ebcc" cx="83" cy="149" rx="68" ry="68"/><ellipse fill="#b90027" cx="86" cy="37" rx="36" ry="34"/><path fill="#950400" d="M185.4 243.8l-39-.7 4.2-241 39 .8z"/><path fill="#ffd" d="M26 52h33v53H26z"/><ellipse fill="#af1300" cx="4" cy="163" rx="20" ry="160"/><ellipse fill="#7b2408" cx="85" cy="230" rx="154" ry="10"/><ellipse fill="#ffffd0" rx="1" ry="1" transform="rotate(-9.9 541.7 -706.5) scale(19.07817 33.46498)"/><ellipse fill="#0a4690" cx="79" cy="33" rx="89" ry="6"/><ellipse fill="#eadab5" rx="1" ry="1" transform="matrix(10.2048 26.6899 -23.8367 9.1139 123.7 194.4)"/><path fill="#b4ffff" d="M117 20h39v10h-39z"/><ellipse fill="#af100e" cx="66" cy="11" rx="170" ry="7"/><path fill="#fcf3bf" d="M24 195h51v26H24z"/><ellipse fill="#ffffd6" cx="70" cy="75" rx="47" ry="5"/><ellipse fill="#d14844" cx="87" cy="34" rx="29" ry="29"/><path fill="red" d="M166 46l-24-12-34 8z"/><path fill="#b0f4ff" d="M21 20h37v10H21z"/><path fill="red" d="M5 40l66 11-33-16z"/><path fill="#ffff69" d="M0 239h172v4H0z"/><path fill="#005bc7" d="M164.9 40.3l10.2 1.5-48.9-9.3 26.2-6.7z"/><path fill="#bebeaa" d="M66 39h39v9H66z"/><path fill="#004fce" d="M51.3 38l-35-2 .4-8 35 2z"/><path fill="#ff031b" d="M85 72.5l25.1-3.5 4.8-9-3.4-17.3z"/></g></svg>