<svg xmlns="http://www.w3.org/2000/svg" viewBox="0 0 500 699"><filter id="b"><feGaussianBlur stdDeviation="12" /></filter><path fill="#ebe8d5" d="M0 0h499v699H0z"/><g filter="url(#b)" transform="translate(1.4 1.4) scale(2.73047)" fill-opacity=".5"><path fill="#234e41" d="M78 43h30v20H78z"/><ellipse fill="#cfab5e" rx="1" ry="1" transform="matrix(-5.74508 7.83549 -17.13565 -12.56407 25 231.1)"/><path fill="#d1af65" d="M178 10l-9 31-47-33z"/><path fill="#d0ae62" d="M53 9L8 8 7 49z"/><ellipse fill="#fffffe" rx="1" ry="1" transform="matrix(-11.23102 76.45788 -27.41035 -4.02635 44.6 97.3)"/><path fill="#d2b067" d="M147 216h29v31h-29z"/><ellipse fill="#fff" rx="1" ry="1" transform="matrix(.77432 -44.3607 29.53073 .51546 139.4 157.2)"/><ellipse fill="#8bcfca" cx="92" cy="105" rx="72" ry="6"/><path d="M0 255h183v1H0z"/><ellipse fill="#fffff9" cx="129" cy="48" rx="25" ry="32"/><path fill="#323336" d="M72 130h40v3H72z"/><ellipse fill="#d7bc7c" cx="171" cy="92" rx="5" ry="148"/><ellipse fill="#d3b571" cx="11" cy="111" rx="4" ry="155"/><path fill="#d2b370" d="M20 238h156v8H20z"/><ellipse fill="#606261" cx="88" cy="140" rx="32" ry="2"/><ellipse fill="#fffffb" rx="1" ry="1" transform="matrix(6.40627 20.19513 -29.2431 9.27646 44.3 182)"/><path fill="#d7ba7a" d="M104.2 7.3L45.6 9.6l11.4 8 108.8-1.4z"/><ellipse fill="#727471" cx="91" cy="193" rx="33" ry="2"/><path fill="#606260" d="M87 80h69v2H87z"/><path fill="#fffffa" d="M168 148l-1-108-28 7z"/><ellipse fill="#fffff5" cx="120" rx="182" ry="9"/><path fill="#7d8b6d" d="M88.6 42.4l17-14.5 1.8 29.4-3.4 8.4z"/></g></svg>