<svg xmlns="http://www.w3.org/2000/svg" viewBox="0 0 2481 3470"><filter id="b"><feGaussianBlur stdDeviation="12" /></filter><path fill="#e4e9eb" d="M0 0h2480v3470H0z"/><g filter="url(#b)" transform="translate(6.8 6.8) scale(13.55469)" fill-opacity=".5"><ellipse cx="36" cy="241" rx="77" ry="13"/><path fill="#19182e" d="M4 223h31v30H4z"/><ellipse fill="#fff" cx="67" cy="214" rx="53" ry="19"/><path fill="#6eb2df" d="M100 231h83v25h-83z"/><ellipse fill="#020200" cx="92" cy="82" rx="47" ry="3"/><ellipse fill="#fff" cx="77" cy="56" rx="182" ry="23"/><ellipse fill="#fff" cx="116" cy="19" rx="64" ry="60"/><ellipse fill="#fff" cx="69" cy="203" rx="71" ry="29"/><ellipse fill="#303648" rx="1" ry="1" transform="matrix(70.582 18.47875 -1.67096 6.38244 10.3 228.2)"/><ellipse fill="#fafbf9" rx="1" ry="1" transform="matrix(-3.75733 -58.1027 126.65975 -8.19072 128.9 173.2)"/><path fill="#868b97" d="M86.3 19l.3 8-57 2-.2-8z"/><ellipse fill="#fff" rx="1" ry="1" transform="rotate(-78.4 70.7 34) scale(68.91752 23.18952)"/><ellipse fill="#a6699c" cx="96" cy="236" rx="38" ry="5"/><ellipse fill="#232740" rx="1" ry="1" transform="rotate(-160.8 13.5 6.9) scale(4.55417 2.19206)"/><path fill="#2f3549" d="M80.3 255.4l-71.6-6.9 55-11.9 32.7 9z"/><ellipse fill="#fff" cx="160" cy="70" rx="22" ry="31"/><ellipse fill="#acb0ab" cx="77" cy="173" rx="63" ry="2"/><ellipse fill="#c4cee7" cx="137" cy="203" rx="18" ry="18"/><path fill="#95e8ff" d="M3.4 235.2L-.4 271-2 127.6l4 23.3z"/><ellipse fill="#94ddfd" cy="133" rx="3" ry="182"/><path fill="#96e5ff" d="M0 253h178v3H0z"/><ellipse fill="#80d7fb" cx="112" rx="147" ry="3"/></g></svg>