<svg xmlns="http://www.w3.org/2000/svg" viewBox="0 0 500 699"><filter id="b"><feGaussianBlur stdDeviation="12" /></filter><path fill="#b5b7af" d="M0 0h499v699H0z"/><g filter="url(#b)" transform="translate(1.4 1.4) scale(2.73047)" fill-opacity=".5"><path d="M187-10v72H7v-72z"/><ellipse fill="#fff" cx="93" cy="148" rx="88" ry="88"/><ellipse cx="45" cy="41" rx="132" ry="20"/><ellipse fill="#cbc6b2" rx="1" ry="1" transform="matrix(-.3007 -32.3805 27.971 -.25975 102.4 0)"/><path fill="#fff" d="M176.5 61.5v69h-69v-69z"/><ellipse fill="#fff" cx="85" cy="84" rx="94" ry="23"/><ellipse cx="25" cy="30" rx="15" ry="26"/><path d="M12 33h162v27H12z"/><ellipse fill="#fff" cx="79" cy="96" rx="74" ry="35"/><ellipse fill="#dee2d5" rx="1" ry="1" transform="matrix(23.05736 26.9967 -21.81022 18.62769 37.3 216)"/><path fill="#f0eff4" d="M108.6 30l46.8 3 11.2-2.6-1.8-3.6z"/><path d="M128 9h42v17h-42z"/><path fill="#fff" d="M9 61l-2 64 68-64z"/><path fill="#cbc8c2" d="M86 12h39v20H86z"/><path fill="#979673" d="M9 151.4l-11 .2-3-167 11-.2z"/><ellipse fill="#e5ebe0" cx="138" cy="204" rx="40" ry="40"/><ellipse fill="#bdbd9a" cx="109" cy="2" rx="161" ry="4"/><path fill="#93916e" d="M177 0h6v256h-6z"/><path fill="#080300" d="M75 6h53v4H75z"/><path d="M108.4 49l67-1 .2 13-67 1zM9 8h30v30H9z"/><ellipse fill="#878363" cx="77" cy="255" rx="182" ry="7"/></g></svg>