<svg xmlns="http://www.w3.org/2000/svg" viewBox="0 0 2481 3470"><filter id="b"><feGaussianBlur stdDeviation="12" /></filter><path fill="#dededa" d="M0 0h2480v3470H0z"/><g filter="url(#b)" transform="translate(6.8 6.8) scale(13.55469)" fill-opacity=".5"><ellipse fill="#989c9c" rx="1" ry="1" transform="matrix(19.53755 3.25245 -3.4496 20.7218 132.1 43.2)"/><ellipse fill="#f5f5f5" cx="100" cy="236" rx="73" ry="73"/><ellipse fill="#a5aaa9" rx="1" ry="1" transform="matrix(-19.44783 21.27182 -13.157 -12.02883 39 41.7)"/><ellipse fill="#babebc" cx="69" cy="132" rx="99" ry="24"/><path fill="#595c5b" d="M35 33h112v6H35z"/><path fill="#f0f4f4" d="M14 64h105v46H14z"/><path fill="#030a09" d="M94 61h67v2H94z"/><ellipse fill="#cdc6a3" cx="94" cy="251" rx="95" ry="4"/><ellipse fill="#626662" cx="75" cy="61" rx="67" ry="2"/><ellipse fill="#f1f3f4" rx="1" ry="1" transform="rotate(-179.1 18 105.4) scale(24.40803 42.13048)"/><path fill="#9fa2a0" d="M17 69h24v8H17z"/><path fill="#f9fcfd" d="M40 60l20-22 61 22z"/><ellipse fill="#fff" cx="120" cy="120" rx="67" ry="3"/><path fill="#f4f7f7" d="M79 10l52 22-86-1z"/><ellipse fill="#ece9d4" cx="6" cy="94" rx="11" ry="147"/><path fill="#75746f" d="M75 102h47v2H75z"/><ellipse fill="#f1f4f3" rx="1" ry="1" transform="matrix(-20.20251 .75091 -1.07502 -28.92223 153.5 192.7)"/><ellipse fill="#acb1b0" cx="77" cy="164" rx="53" ry="4"/><path fill="#5c6161" d="M156 22.9L116 20v-1l40 2.8z"/><ellipse fill="#a2a8ca" rx="1" ry="1" transform="matrix(7.20528 .02515 -.02673 7.65677 88.6 195.7)"/><ellipse fill="#9ea19f" cx="122" cy="154" rx="46" ry="2"/><path fill="#f4f6f3" d="M136 36l33 23 8-27z"/></g></svg>