<svg xmlns="http://www.w3.org/2000/svg" viewBox="0 0 2481 3470"><filter id="b"><feGaussianBlur stdDeviation="12" /></filter><path fill="#efefed" d="M0 0h2480v3470H0z"/><g filter="url(#b)" transform="translate(6.8 6.8) scale(13.55469)" fill-opacity=".5"><ellipse fill="#9ab2ca" rx="1" ry="1" transform="rotate(90.2 -67.9 68.1) scale(178.88923 7.81154)"/><ellipse fill="#fff" cx="112" cy="203" rx="61" ry="61"/><path fill="#c6c3b2" d="M170.4-11.8l18.5 4.4 9.1 247.6-27.5 30.8z"/><ellipse fill="#fff" rx="1" ry="1" transform="rotate(-91.7 54.2 6) scale(23.29313 41.60118)"/><ellipse fill="#d1c7ae" cx="85" cy="255" rx="182" ry="10"/><ellipse fill="#d1cab4" cx="85" cy="2" rx="182" ry="9"/><ellipse fill="#959e9a" cx="86" cy="29" rx="45" ry="3"/><ellipse fill="#fff" cx="126" cy="62" rx="47" ry="23"/><ellipse fill="#b1b7b4" cx="39" cy="186" rx="19" ry="9"/><ellipse fill="#fff" cx="41" cy="221" rx="30" ry="27"/><ellipse fill="#dadbd9" cx="67" cy="132" rx="96" ry="17"/><ellipse fill="#fff" rx="1" ry="1" transform="matrix(23.37848 -10.90156 5.1467 11.03712 37.4 25)"/><ellipse fill="#d3d4d1" cx="62" cy="95" rx="182" ry="10"/><ellipse fill="#fff" cx="63" cy="165" rx="51" ry="16"/><path fill="#ffdf9d" d="M8 7h6v125H8z"/><path fill="#fff" d="M131 12h39v72h-39z"/><ellipse fill="#aeb0ad" cx="66" cy="141" rx="113" ry="2"/><path fill="#fff" d="M23.4 156.6l-15.7-3 9-46.2 15.6 3z"/><path fill="#a9abab" d="M63 34h63v6H63z"/><ellipse fill="#ffdb99" cx="10" cy="208" rx="3" ry="108"/><ellipse fill="#a1a4a3" cx="93" cy="136" rx="71" ry="2"/><path fill="#fff" d="M13 6l1 116L55 19z"/></g></svg>