<svg xmlns="http://www.w3.org/2000/svg" viewBox="0 0 2481 3470"><filter id="b"><feGaussianBlur stdDeviation="12" /></filter><path fill="#dededa" d="M0 0h2480v3470H0z"/><g filter="url(#b)" transform="translate(6.8 6.8) scale(13.55469)" fill-opacity=".5"><path fill="#898d8d" d="M117 20h29v43h-29z"/><ellipse fill="#bfc3c0" cx="57" cy="138" rx="110" ry="30"/><path fill="#4e5252" d="M30 33h101v6H30z"/><path fill="#f7fafe" d="M172.4 167.1l1.2 73-158 2.8-1.2-73z"/><path fill="#8d9291" d="M44.6 65l-28-1 .8-23 28 1z"/><ellipse fill="#f6faf9" rx="1" ry="1" transform="rotate(-14.3 381.3 -240.2) scale(64.11024 17.69558)"/><ellipse fill="#60625d" rx="1" ry="1" transform="rotate(-89.4 62.8 -.7) scale(1 103.62491)"/><path fill="#969bc0" d="M94.2 186.5l-13.9 17.6v2l1-20.7z"/><ellipse fill="#fff" cy="121" rx="2" ry="161"/><path fill="#969b9a" d="M31 32L15 18l42 2z"/><ellipse fill="#fff" cx="122" cy="158" rx="96" ry="3"/><ellipse fill="#fefffe" cx="123" cy="120" rx="72" ry="3"/><path fill="#d9cfa6" d="M9 246h149v8H9z"/><path fill="#a5a9a8" d="M93 110h74v7H93z"/><ellipse fill="#434d50" cx="122" cy="61" rx="102" ry="1"/><ellipse fill="#ddd7b6" cx="177" cy="114" rx="5" ry="174"/><path fill="#f3f5f2" d="M173 22.4l.2 83.5-26.9 4.8 19.2-98z"/><ellipse fill="#f8f9fb" cx="71" cy="14" rx="104" ry="5"/><path fill="#f6fafb" d="M56 40h56v21H56z"/><path fill="#7f837d" d="M25 191h32v3H25z"/><path fill="#a7acaa" d="M111 82l10 12 40-12z"/><ellipse fill="#bec1c0" cx="80" cy="138" rx="67" ry="17"/></g></svg>