<svg xmlns="http://www.w3.org/2000/svg" viewBox="0 0 93 133"><filter id="b"><feGaussianBlur stdDeviation="12" /></filter><path fill="#efedf1" d="M0 0h93v133H0z"/><g filter="url(#b)" transform="translate(.5 .5)" fill-opacity=".5"><ellipse fill="#ccceca" cx="41" cy="60" rx="34" ry="17"/><path fill="#b4b6b3" d="M100.6 19.5l-88.4-2.8 34.4-4.1 21.2-5z"/><ellipse fill="#fff" rx="1" ry="1" transform="matrix(-.92884 21.79294 -61.22546 -2.60951 44.7 96.9)"/><path fill="#a7a7a7" d="M0 120h93v3H0z"/><ellipse fill="#b7b8b6" cx="53" cy="104" rx="41" ry="2"/><ellipse fill="#c46fff" cy="58" rx="2" ry="85"/><ellipse fill="#fff" cx="38" cy="31" rx="92" ry="13"/><path fill="#cc90fc" d="M2 0h89v3H2z"/><ellipse fill="#cf94fe" cx="23" cy="132" rx="92" ry="3"/><path fill="#c7c8c7" d="M10 45h67v12H10z"/><ellipse fill="#858584" cx="43" cy="71" rx="38" ry="1"/><path fill="#fff" d="M16 57h75v6H16z"/><ellipse fill="#888988" cx="66" cy="66" rx="56" ry="1"/><path fill="#fff" d="M74 20h17v50H74z"/><ellipse fill="#8c8c8c" cx="11" cy="74" rx="72" ry="1"/><ellipse fill="#b6b7b5" rx="1" ry="1" transform="rotate(89.7 3.1 38.3) scale(1 22.29709)"/><ellipse fill="#fff" rx="1" ry="1" transform="matrix(-.44724 5.68268 -23.4031 -1.84186 31 9.3)"/><path fill="#fff" d="M2 28h8v92H2z"/><path fill="#c0b2c7" d="M91 20l1 110 16-56z"/><path fill="#fffffe" d="M2 122h41v8H2z"/><path fill="#b1b1b0" d="M56 9h23v10H56z"/><ellipse fill="#fff" cx="32" cy="69" rx="67" ry="2"/></g></svg>