<svg xmlns="http://www.w3.org/2000/svg" viewBox="0 0 2481 3470"><filter id="b"><feGaussianBlur stdDeviation="12" /></filter><path fill="#dde4ec" d="M0 0h2480v3470H0z"/><g filter="url(#b)" transform="translate(6.8 6.8) scale(13.55469)" fill-opacity=".5"><path fill="#000074" d="M174 53H-8V35h182z"/><ellipse fill="#fff" rx="1" ry="1" transform="matrix(118.47759 -4.97575 1.82385 43.42769 83.8 204.5)"/><path fill="#0043ab" d="M7 35h162v18H7z"/><ellipse fill="#fff" cx="84" cy="76" rx="182" ry="23"/><ellipse fill="#aec5dd" cx="3" cy="87" rx="5" ry="182"/><ellipse fill="#fff" rx="1" ry="1" transform="matrix(60.27148 2.79963 -.60902 13.11109 114.8 20.4)"/><ellipse fill="#fff" rx="1" ry="1" transform="matrix(.28185 85.89098 -10.89503 .03575 18.1 148.6)"/><path fill="#e5dace" d="M28.5 173.5v-81h99v81z"/><ellipse fill="#fff" cx="146" cy="210" rx="31" ry="39"/><path fill="#aad6eb" d="M79 200h33v33H79z"/><ellipse fill="#699fcd" cx="38" cy="20" rx="38" ry="4"/><path fill="#94b9dc" d="M5 248h177v8H5z"/><ellipse fill="#94aed5" cx="177" cy="107" rx="3" ry="182"/><ellipse fill="#fff" cx="44" cy="210" rx="37" ry="37"/><ellipse fill="#fff" cx="165" cy="135" rx="10" ry="83"/><ellipse fill="#004aaa" cx="166" cy="43" rx="10" ry="10"/><ellipse fill="#fff" cx="52" cy="74" rx="46" ry="21"/><path fill="#f6fffa" d="M8 53l-9-1 2-33z"/><ellipse fill="#a5c4dd" cx="87" cy="2" rx="158" ry="5"/><ellipse fill="#fff" cx="143" cy="20" rx="68" ry="13"/><path fill="#00358f" d="M8 38h22v15H8z"/><ellipse fill="#fff" rx="1" ry="1" transform="rotate(-137.4 103.9 73.9) scale(50.31715 19.21661)"/></g></svg>