<svg xmlns="http://www.w3.org/2000/svg" viewBox="0 0 93 133"><filter id="b"><feGaussianBlur stdDeviation="12" /></filter><path fill="#dfdedb" d="M0 0h93v133H0z"/><g filter="url(#b)" transform="translate(.5 .5)" fill-opacity=".5"><ellipse fill="#f4f4f4" rx="1" ry="1" transform="matrix(49.50719 -1.20993 .67584 27.65371 54.1 113.7)"/><path fill="#3d3f42" d="M6 31h68v2H6z"/><path fill="#66666a" d="M14 17h65v4H14z"/><ellipse fill="#c1c1c3" cx="35" cy="70" rx="50" ry="15"/><ellipse fill="#f2f1f2" cx="45" cy="44" rx="92" ry="12"/><path fill="#d4c8a6" d="M0 127h92v5H0z"/><path fill="#afafb2" d="M80.3 13.4l-23-6.1 4.3 27 13.2-2.4z"/><path fill="#b4b4b6" d="M2 32l20-6-4-18z"/><path fill="#fff" d="M2 6h88v4H2z"/><ellipse fill="#898889" cx="35" cy="84" rx="50" ry="1"/><path fill="#d7ccae" d="M89 1h4v131h-4z"/><path fill="#f8f8fc" d="M58 28l-16.4 2L30 21.4l25.4-1.6z"/><path fill="#fff" d="M33 61h50v3H33z"/><ellipse fill="#858588" cx="47" cy="75" rx="37" ry="1"/><ellipse fill="#e1d5b5" cy="72" rx="5" ry="89"/><path fill="#f5f5f7" d="M74 14h15v17H74z"/><path fill="#fff" d="M14 81h79v3H14z"/><path fill="#eff0f3" d="M3 88h83v40H3z"/><ellipse fill="#000206" cx="79" cy="32" rx="4" ry="1"/><ellipse fill="#f2f4fa" cx="6" cy="12" rx="2" ry="85"/><path fill="#969798" d="M58 43h11v6H58z"/><path fill="#aaa9ac" d="M42 57h46v4H42z"/></g></svg>