<svg xmlns="http://www.w3.org/2000/svg" viewBox="0 0 172 243"><filter id="b"><feGaussianBlur stdDeviation="12" /></filter><path fill="#c9876d" d="M0 0h172v243H0z"/><g filter="url(#b)" transform="translate(.5 .5)" fill-opacity=".5"><ellipse fill="#ebe1c4" rx="1" ry="1" transform="matrix(57.51785 21.73419 -31.3738 83.02833 88.3 136.7)"/><ellipse fill="#b9001f" cx="89" cy="38" rx="35" ry="35"/><ellipse fill="#970300" cx="165" cy="122" rx="18" ry="171"/><ellipse fill="#b11900" cy="155" rx="24" ry="171"/><ellipse fill="#ffffd5" cx="42" cy="79" rx="19" ry="33"/><ellipse fill="#003dbb" rx="1" ry="1" transform="matrix(-.28559 4.95298 -27.29909 -1.57406 33.7 33.2)"/><ellipse fill="#1c98f6" rx="1" ry="1" transform="matrix(-.2224 -8.57007 23.30105 -.60468 137 30)"/><ellipse fill="#7a2403" cx="94" cy="229" rx="167" ry="9"/><ellipse fill="#fdfac7" cx="130" cy="197" rx="19" ry="24"/><ellipse fill="#ffffc5" cx="130" cy="64" rx="18" ry="18"/><ellipse fill="#af0f10" cx="46" cy="11" rx="171" ry="7"/><path fill="#e7000c" d="M1 37h54v10H1z"/><path fill="#dbcdae" d="M24 164h114v57H24z"/><path fill="#fcffed" d="M115 19h41v10h-41z"/><path fill="#863537" d="M41 80h96v6H41z"/><ellipse fill="#fd0000" cx="151" cy="41" rx="35" ry="5"/><path fill="#dbffff" d="M18 20h35v8H18z"/><path fill="#fffe61" d="M187 240h-74l-129-1.2L66.9 258z"/><path fill="#00359c" d="M138 25l-33 11 58 1z"/><ellipse fill="#d0003f" cx="4" cy="188" rx="4" ry="171"/><path fill="#d33540" d="M59 5h55v66H59z"/><ellipse fill="#b1ad99" cx="84" cy="40" rx="26" ry="7"/></g></svg>