<svg xmlns="http://www.w3.org/2000/svg" viewBox="0 0 172 243"><filter id="b"><feGaussianBlur stdDeviation="12" /></filter><path fill="#b6b7b0" d="M0 0h172v243H0z"/><g filter="url(#b)" transform="translate(.5 .5)" fill-opacity=".5"><ellipse fill="#0b0702" cx="82" rx="73" ry="73"/><ellipse fill="#fff" cx="90" cy="131" rx="76" ry="76"/><ellipse cx="141" cy="35" rx="26" ry="26"/><ellipse cx="31" cy="39" rx="22" ry="22"/><path d="M10 33h156v27H10z"/><ellipse fill="#fff" cx="84" cy="76" rx="169" ry="17"/><path fill="#e0dace" d="M82 0h36v32H82z"/><ellipse fill="#e4e5de" cx="72" cy="202" rx="92" ry="28"/><path fill="#edeaf4" d="M126 31.2l14.3-6.6v-5L169 36.3z"/><ellipse fill="#cbc9ae" cx="81" rx="138" ry="9"/><ellipse fill="#fff" rx="1" ry="1" transform="matrix(66.56418 -8.64518 4.12361 31.75005 99.9 92.7)"/><ellipse fill="#938e72" cx="169" cy="109" rx="8" ry="171"/><ellipse fill="#939076" cx="1" cy="93" rx="11" ry="171"/><ellipse fill="#feffff" rx="1" ry="1" transform="matrix(19.20187 -25.93209 14.05898 10.41022 34.3 87.7)"/><ellipse fill="#0b0805" rx="1" ry="1" transform="matrix(-7.90757 17.70153 -12.32755 -5.50692 25.8 26.4)"/><path fill="#2e2b29" d="M157.6 33l7.7-15.4-7.6-16.3-12 21.4z"/><ellipse fill="#0d0a04" cx="100" cy="45" rx="61" ry="14"/><ellipse fill="#fff" cx="64" cy="68" rx="55" ry="9"/><ellipse fill="#e1e2de" cx="140" cy="186" rx="23" ry="46"/><ellipse fill="#938f75" cx="92" cy="242" rx="101" ry="11"/><path fill="#656155" d="M122 13L112-4 69 12z"/><path fill="#787168" d="M40 13h13v35H40z"/></g></svg>