<svg xmlns="http://www.w3.org/2000/svg" viewBox="0 0 93 133"><filter id="b"><feGaussianBlur stdDeviation="12" /></filter><path fill="#dfdedb" d="M0 0h93v133H0z"/><g filter="url(#b)" transform="translate(.5 .5)" fill-opacity=".5"><path fill="#59595d" d="M19 17h56v4H19z"/><ellipse fill="#f7f7f9" rx="1" ry="1" transform="matrix(70.36811 -2.47583 .7246 20.5947 53 107.4)"/><ellipse fill="#c3c3c3" rx="1" ry="1" transform="matrix(-68.16184 -.28612 .05375 -12.80564 40.2 68.5)"/><path fill="#3c3e42" d="M11 31h73v2H11z"/><path fill="#fbfbfe" d="M15.3 33.9l80-.7-95 28 21.2-28.9z"/><path fill="#a7a8ac" d="M9 9h11v24H9z"/><ellipse fill="#a8a9ac" cx="67" cy="18" rx="10" ry="10"/><ellipse fill="#dfd3b3" cy="75" rx="5" ry="92"/><ellipse fill="#7b7b7c" cx="76" cy="84" rx="64" ry="1"/><path fill="#f4f4f8" d="M23 20h38v12H23z"/><path fill="#fff" d="M27 61h64v3H27z"/><path fill="#dacfb1" d="M89 1h4v131h-4z"/><ellipse fill="#fff" cx="14" cy="8" rx="86" ry="2"/><ellipse fill="#f2f0ea" rx="1" ry="1" transform="matrix(-4.10572 .086 -1.52368 -72.7397 86.6 35.9)"/><path fill="#cab88b" d="M33 130h48v2H33z"/><path fill="#c0c0c2" d="M11 63h65v18H11z"/><path fill="#fff" d="M15 54h69v3H15z"/><ellipse fill="#8a8b8d" cx="49" cy="57" rx="39" ry="1"/><ellipse fill="#fff" cx="47" cy="132" rx="50" ry="1"/><path fill="#b1b2d3" d="M40 108l2-14 6-4z"/><ellipse fill="#fff" cx="33" rx="61" ry="1"/><path fill="#acacb1" d="M10 99h62v2H10z"/></g></svg>