<svg xmlns="http://www.w3.org/2000/svg" viewBox="0 0 172 243"><filter id="b"><feGaussianBlur stdDeviation="12" /></filter><path fill="#b6b7b0" d="M0 0h172v243H0z"/><g filter="url(#b)" transform="translate(.5 .5)" fill-opacity=".5"><ellipse rx="1" ry="1" transform="matrix(.23247 26.63799 -170.46607 1.48763 87 33.7)"/><ellipse fill="#fff" cx="84" cy="133" rx="76" ry="76"/><ellipse cx="109" cy="48" rx="103" ry="12"/><ellipse fill="#fff" rx="1" ry="1" transform="matrix(.21268 -20.30839 77.69943 .8137 92.6 79.8)"/><ellipse fill="#c0b8aa" cx="94" cy="5" rx="27" ry="27"/><path fill="#ede8c9" d="M163 0h9v58h-9z"/><path fill="#0d0801" d="M12 58V1l142 58z"/><ellipse fill="#eaebe6" cx="129" cy="194" rx="36" ry="36"/><ellipse fill="#fff" cx="121" cy="100" rx="42" ry="41"/><path fill="#d8d5bc" d="M-10 30L9-16l7 112z"/><ellipse fill="#dfe3da" cx="58" cy="190" rx="47" ry="47"/><path fill="#fdffff" d="M12 60h147v66H12z"/><path fill="#0a0802" d="M60 33h102v24H60z"/><ellipse fill="#fffeff" cx="157" cy="31" rx="35" ry="2"/><path fill="#e7e2e0" d="M82 15h26v17H82z"/><ellipse fill="#969279" cx="169" cy="79" rx="8" ry="171"/><path fill="#8e8a70" d="M1.5 251.5v-19h169v19z"/><path fill="#0f0c11" d="M118 12h44v14h-44z"/><path fill="#878176" d="M39 1h75v32H39z"/><path fill="#9d9b84" d="M0 0h12v165H0z"/><ellipse fill="#b1b6b0" rx="1" ry="1" transform="matrix(-87.3092 .45715 -.01972 -3.76677 118.1 129.5)"/><path fill="#e5e1f0" d="M124.4 30.2l41.3 2.1-28.4-7.5 15.5.8z"/></g></svg>