<svg xmlns="http://www.w3.org/2000/svg" viewBox="0 0 2481 3470"><filter id="b"><feGaussianBlur stdDeviation="12" /></filter><path fill="#dde4ec" d="M0 0h2480v3470H0z"/><g filter="url(#b)" transform="translate(6.8 6.8) scale(13.55469)" fill-opacity=".5"><ellipse fill="#00007c" cx="95" cy="43" rx="182" ry="10"/><ellipse fill="#fdfaf6" cx="59" cy="190" rx="138" ry="138"/><ellipse fill="#d8d1ca" rx="1" ry="1" transform="rotate(85 -23.6 117) scale(36.49918 68.83995)"/><path fill="#0045a8" d="M5 35h167v18H5z"/><ellipse fill="#fff" cx="130" cy="21" rx="81" ry="14"/><path fill="#adc5df" d="M-16 101L6 15l2 171z"/><path fill="#f7fffc" d="M189.3 23.6l-2.6 29.9-12-1 2.6-30z"/><ellipse fill="#fff" cx="153" cy="79" rx="146" ry="27"/><ellipse fill="#85afd7" cx="92" cy="255" rx="182" ry="8"/><ellipse fill="#fff" cx="40" cy="211" rx="37" ry="37"/><ellipse fill="#5e99c9" cx="40" cy="21" rx="36" ry="4"/><ellipse fill="#fff" cx="142" cy="206" rx="33" ry="43"/><path fill="#8da9d4" d="M175 176h5v76h-5z"/><ellipse fill="#b9cae0" cy="142" rx="8" ry="182"/><ellipse fill="#fff" cx="52" cy="30" rx="124" ry="5"/><ellipse fill="#9bd1eb" cx="95" cy="216" rx="17" ry="17"/><ellipse fill="#fff" cx="62" cy="12" rx="56" ry="7"/><path fill="#a0b7d6" d="M175 2h6v217h-6z"/><path fill="#0058ad" d="M7 36h167v17H7z"/><ellipse fill="#fff" rx="1" ry="1" transform="matrix(1.08643 14.82253 -72.87419 5.34137 117.7 184.6)"/><path fill="#c9c2be" d="M51 95h109v10H51z"/><path fill="#fff" d="M7 79h21v155H7z"/></g></svg>