<svg xmlns="http://www.w3.org/2000/svg" viewBox="0 0 2481 3470"><filter id="b"><feGaussianBlur stdDeviation="12" /></filter><path fill="#dededa" d="M0 0h2480v3470H0z"/><g filter="url(#b)" transform="translate(6.8 6.8) scale(13.55469)" fill-opacity=".5"><path fill="#4a4f4f" d="M33 33h115v6H33z"/><ellipse fill="#b2b6b4" cx="82" cy="138" rx="81" ry="17"/><ellipse fill="#f4f4f3" cx="99" cy="251" rx="88" ry="88"/><ellipse fill="#a0a4a3" rx="1" ry="1" transform="rotate(-69.3 97 -74.8) scale(24.54828 17.46083)"/><path fill="#a2a7a6" d="M16 20h27v43H16z"/><ellipse fill="#f8fcfc" rx="1" ry="1" transform="matrix(-59.39567 16.4989 -4.1204 -14.83334 66.8 86.4)"/><ellipse fill="#4b504e" cx="93" cy="61" rx="80" ry="2"/><ellipse fill="#e9ebe9" cx="100" cy="57" rx="95" ry="4"/><path fill="#cdc398" d="M2 246h178v8H2z"/><ellipse fill="#adb1ad" cx="66" cy="113" rx="155" ry="4"/><path fill="#a0a5a3" d="M40 160.5h58v7H40z"/><path fill="#fff" d="M16 40l18-3-18-13z"/><ellipse fill="#7c7e7b" cx="119" cy="162" rx="94" ry="1"/><ellipse fill="#eff1f3" cx="45" cy="207" rx="39" ry="39"/><ellipse fill="#a7aba4" cx="45" cy="193" rx="18" ry="3"/><path fill="#8b92be" d="M92 185l-9-4-3 21z"/><ellipse fill="#f5f8f9" cx="83" cy="49" rx="32" ry="10"/><ellipse fill="#eeefe5" cx="175" cy="89" rx="29" ry="29"/><path fill="#afb3b3" d="M113.7 94.2l.6-12 32 1.6-.6 12z"/><ellipse fill="#ebe9d5" rx="1" ry="1" transform="matrix(5.84119 -99.39814 14.55823 .85552 2.2 106.1)"/><ellipse fill="#f7f9fb" cx="90" cy="17" rx="33" ry="8"/><path fill="#a2a4a3" d="M115 19h39v8h-39z"/></g></svg>