<svg xmlns="http://www.w3.org/2000/svg" viewBox="0 0 2481 3470"><filter id="b"><feGaussianBlur stdDeviation="12" /></filter><path fill="#dededa" d="M0 0h2480v3470H0z"/><g filter="url(#b)" transform="translate(6.8 6.8) scale(13.55469)" fill-opacity=".5"><ellipse fill="#818583" cx="121" cy="35" rx="96" ry="4"/><ellipse fill="#f6f7f8" cx="80" cy="207" rx="182" ry="39"/><ellipse fill="#bbc0bd" rx="1" ry="1" transform="matrix(98.2205 2.05743 -.50255 23.99156 68.6 127.9)"/><path fill="#8e9392" d="M47.7 42.3l-.4 22-31-.6.4-22z"/><ellipse fill="#a6aaaa" cx="137" cy="44" rx="21" ry="21"/><path fill="#f4f4ec" d="M171.7 18.9L197 52.4l-32.7 24.7L139 43.6z"/><path fill="#a4a8a8" d="M60 20l-48-1 40 31z"/><ellipse fill="#f8fcfb" rx="1" ry="1" transform="matrix(58.26775 -15.58328 4.26428 15.94466 66.5 85.8)"/><path fill="#0b100d" d="M18 61h146v2H18z"/><ellipse fill="#fff" cy="127" rx="2" ry="161"/><ellipse fill="#909593" cx="97" cy="162" rx="73" ry="2"/><ellipse fill="#c2c5c5" cx="70" cy="192" rx="74" ry="3"/><ellipse fill="#f8f9fa" cx="76" cy="14" rx="109" ry="5"/><ellipse fill="#fff" cx="115" cy="119" rx="62" ry="3"/><ellipse fill="#dcd4b1" cx="6" cy="162" rx="5" ry="182"/><ellipse fill="#dbd4b5" cx="176" cy="65" rx="5" ry="182"/><ellipse fill="#f4f8f7" cx="139" cy="73" rx="37" ry="10"/><ellipse fill="#f4f8f8" rx="1" ry="1" transform="matrix(35.45933 -2.29703 .65014 10.03621 80.6 50)"/><path fill="#858986" d="M17 166h79v2H17z"/><path fill="#747675" d="M35 33h104v6H35z"/><ellipse fill="#a1a4a3" cx="139" cy="25" rx="23" ry="6"/><path fill="#d8cea5" d="M8 246h170v8H8z"/></g></svg>