<svg xmlns="http://www.w3.org/2000/svg" viewBox="0 0 2481 3470"><filter id="b"><feGaussianBlur stdDeviation="12" /></filter><path fill="#b5b8af" d="M0 0h2480v3470H0z"/><g filter="url(#b)" transform="translate(6.8 6.8) scale(13.55469)" fill-opacity=".5"><ellipse rx="1" ry="1" transform="matrix(1.00917 -34.75744 142.20966 4.12902 76.6 28.7)"/><ellipse fill="#fff" cx="95" cy="150" rx="91" ry="91"/><ellipse rx="1" ry="1" transform="matrix(32.88342 -3.98975 1.52003 12.52807 100.9 49)"/><ellipse rx="1" ry="1" transform="matrix(115.91969 10.46683 -1.47511 16.33679 87.6 42.3)"/><ellipse fill="#fff" cx="46" cy="100" rx="40" ry="40"/><ellipse fill="#fff" cx="145" cy="91" rx="139" ry="30"/><ellipse fill="#fffffc" rx="1" ry="1" transform="matrix(-.48368 -11.00117 14.6829 -.64555 100.3 21.5)"/><path d="M9 8h59v54H9z"/><path fill="#dfe0b9" d="M7-3l-21 7L6 72z"/><path d="M126 10h43v16h-43z"/><path fill="#86865f" d="M177 0h6v256h-6z"/><ellipse cx="127" cy="48" rx="50" ry="14"/><path fill="#fff" d="M8 62h169v69H8z"/><path fill="#99947f" d="M39 0h82v31H39z"/><path fill="#fff" d="M135 26.5h34v5h-34z"/><ellipse fill="#dee1d5" cx="39" cy="219" rx="33" ry="30"/><path fill="#14120b" d="M52 7h34v53H52z"/><ellipse fill="#b5b896" cx="110" rx="182" ry="6"/><ellipse fill="#dddfd7" rx="1" ry="1" transform="matrix(-8.03418 33.09333 -20.91573 -5.07778 155 214)"/><path fill="#9b9c86" d="M177 0h6v256h-6z"/><path d="M84 32h92v29H84z"/><ellipse fill="#cdd9d0" cx="38" cy="130" rx="31" ry="31"/></g></svg>