<svg xmlns="http://www.w3.org/2000/svg" viewBox="0 0 2481 3470"><filter id="b"><feGaussianBlur stdDeviation="12" /></filter><path fill="#edeaf0" d="M0 0h2480v3470H0z"/><g filter="url(#b)" transform="translate(6.8 6.8) scale(13.55469)" fill-opacity=".5"><ellipse fill="#c2c1c3" cx="51" cy="98" rx="102" ry="16"/><path fill="#969993" d="M121 39l37-25-50 2z"/><ellipse fill="#bc69ff" cy="124" rx="7" ry="182"/><ellipse fill="#fff" cx="46" cy="187" rx="40" ry="44"/><ellipse fill="#fff" cx="65" cy="59" rx="153" ry="26"/><path fill="#fff" d="M7 5h15v227H7z"/><ellipse fill="#757774" cx="92" cy="234" rx="100" ry="2"/><ellipse fill="#cbcec8" cx="90" cy="131" rx="72" ry="13"/><ellipse fill="#fff" rx="1" ry="1" transform="rotate(-145.6 97.1 74.2) scale(39.43439 46.16401)"/><ellipse fill="#9b9b99" cx="106" cy="201" rx="93" ry="2"/><ellipse fill="#fff" cx="163" cy="98" rx="13" ry="137"/><ellipse fill="#c390eb" cx="113" rx="144" ry="6"/><path fill="#a1a1a1" d="M0 29h183v3H0z"/><ellipse fill="#c992f9" cx="81" cy="255" rx="138" ry="6"/><ellipse fill="#c7c7c6" cx="146" cy="30" rx="45" ry="6"/><path fill="#868784" d="M28 141h137v3H28z"/><path fill="#fbfdf9" d="M12 234h92v17H12z"/><ellipse fill="#888988" cx="94" cy="122" rx="72" ry="2"/><ellipse fill="#040206" cx="52" cy="233" rx="57" ry="1"/><ellipse fill="#fff" rx="1" ry="1" transform="matrix(53.9426 -2.1352 .45305 11.44574 54.2 15.6)"/><ellipse fill="#bebfbc" cx="95" cy="240" rx="40" ry="5"/><path fill="#828380" d="M58 65h66v3H58z"/></g></svg>