<svg xmlns="http://www.w3.org/2000/svg" viewBox="0 0 94 133"><filter id="b"><feGaussianBlur stdDeviation="12" /></filter><path fill="#e9e5e5" d="M0 0h94v133H0z"/><g filter="url(#b)" transform="translate(.5 .5)" fill-opacity=".5"><path fill="#140918" d="M6 110l-14 17h67z"/><path fill="#8c92ab" d="M30 117h63v13H30z"/><ellipse fill="#fbf9f7" cx="24" cy="49" rx="66" ry="66"/><ellipse fill="#f7c4b5" cx="1" cy="63" rx="5" ry="83"/><path fill="#373a3a" d="M24 43h46v3H24z"/><ellipse fill="#4c4559" cx="29" cy="122" rx="24" ry="5"/><path fill="#fff" d="M5 20h84v22H5z"/><ellipse fill="#b7634a" cx="89" cy="88" rx="1" ry="85"/><path fill="#e29f8c" d="M8 2h86v4H8z"/><path fill="#bdeafd" d="M88.6 148l1-33.6L34 128.9l55.5-1.8z"/><ellipse fill="#fcfdff" rx="1" ry="1" transform="matrix(-51.58939 3.8706 -1.19887 -15.97908 58.7 100.5)"/><path fill="#db9987" d="M89 2h3v125h-3z"/><path fill="#8f93a0" d="M13 14h32v4H13z"/><path fill="#fff" d="M0 0h2v133H0z"/><ellipse fill="#f3b098" cy="129" rx="93" ry="2"/><path fill="#fff" d="M6 15.4l54 10.9-45.8 26.6-9.2 53z"/><ellipse fill="#dea293" cx="3" cy="89" rx="2" ry="93"/><path fill="#9fa2a3" d="M17 68h57v1H17z"/><ellipse fill="#fff" cx="57" cy="23" rx="18" ry="18"/><path fill="#575863" d="M45.1 124l-39.9 2.3-.5-8.4 1-6.9z"/><ellipse fill="#9fa1a0" cx="42" cy="88" rx="26" ry="1"/><path fill="#fffcf4" d="M92 0h2v133h-2z"/></g></svg>