<svg xmlns="http://www.w3.org/2000/svg" viewBox="0 0 500 699"><filter id="b"><feGaussianBlur stdDeviation="12" /></filter><path fill="#edeaf0" d="M0 0h499v699H0z"/><g filter="url(#b)" transform="translate(1.4 1.4) scale(2.73047)" fill-opacity=".5"><ellipse fill="#cbcec8" cx="87" cy="113" rx="67" ry="32"/><path fill="#a6a9a3" d="M117.8 39l-16-26.5 57 5L145.6 34z"/><ellipse fill="#b966ff" cx="2" cy="86" rx="5" ry="182"/><ellipse fill="#4c4f49" rx="1" ry="1" transform="matrix(-.02269 .99974 -67.01545 -1.5208 105.3 233.9)"/><ellipse fill="#fff" cx="90" cy="185" rx="179" ry="42"/><ellipse fill="#fff" cx="106" cy="59" rx="100" ry="25"/><path fill="#7a7c78" d="M5.2 32.5l51.4-5.3 62.9 3-44.5.4z"/><path fill="#888986" d="M166.7 199.4l-21.6 3-62.4 1.2 3.3-2.7z"/><path fill="#585956" d="M67 161h55v2H67z"/><ellipse fill="#c3b8ca" cx="179" cy="129" rx="4" ry="182"/><ellipse fill="#c28aee" rx="1" ry="1" transform="matrix(-81.53183 0 0 -4.80839 96 .6)"/><path fill="#c88dfa" d="M3 250h165v6H3z"/><ellipse fill="#fff" cx="122" cy="114" rx="182" ry="6"/><path fill="#717271" d="M22 96h124v2H22z"/><path fill="#80827f" d="M60 141h105v3H60z"/><path fill="#9d9e9b" d="M25 199h56v4H25z"/><ellipse cx="9" cy="233" rx="97" ry="1"/><path fill="#fff" d="M11 6h98v21H11zm134 31h31v162h-31z"/><ellipse fill="#fff" cx="46" cy="58" rx="40" ry="27"/><path fill="#5c5c5c" d="M25 112h59v2H25z"/><path fill="#676865" d="M61 66h63v2H61z"/></g></svg>