<svg xmlns="http://www.w3.org/2000/svg" viewBox="0 0 500 699"><filter id="b"><feGaussianBlur stdDeviation="12" /></filter><path fill="#efefec" d="M0 0h499v699H0z"/><g filter="url(#b)" transform="translate(1.4 1.4) scale(2.73047)" fill-opacity=".5"><ellipse fill="#fff" rx="1" ry="1" transform="rotate(61.3 -129.2 185.6) scale(63.38404 80.22937)"/><ellipse fill="#92adcb" cx="2" cy="232" rx="5" ry="182"/><ellipse fill="#c3c1b4" cx="181" cy="134" rx="12" ry="182"/><ellipse fill="#cfc5ab" cx="98" cy="253" rx="182" ry="8"/><ellipse fill="#b8bdbc" rx="1" ry="1" transform="matrix(-.69124 -8.23178 26.44102 -2.22031 40.3 187.8)"/><ellipse fill="#fff" cx="127" cy="62" rx="49" ry="24"/><ellipse fill="#cfc8b3" cx="91" cy="5" rx="181" ry="6"/><ellipse fill="#fff" cx="50" cy="62" rx="40" ry="24"/><path fill="#afb4b5" d="M56 27h72v13H56z"/><ellipse fill="#d2cebf" cx="2" cy="47" rx="12" ry="182"/><ellipse fill="#9b9d9e" cx="100" cy="103" rx="75" ry="2"/><ellipse fill="#c6c7c7" cx="128" cy="138" rx="133" ry="5"/><ellipse fill="#acafaf" cx="54" cy="122" rx="72" ry="2"/><ellipse fill="#fff" rx="1" ry="1" transform="matrix(-15.02345 -8.64925 13.53979 -23.51815 32.3 32.6)"/><path fill="#78807d" d="M78 77h33v3H78z"/><ellipse fill="#fff" rx="1" ry="1" transform="matrix(22.77127 5.5531 -7.16436 29.37852 147.8 38)"/><path fill="#fff" d="M12 148h159v31H12z"/><ellipse fill="#fff" cx="85" cy="217" rx="74" ry="28"/><ellipse fill="#fff" cx="89" cy="17" rx="80" ry="10"/><path fill="#848889" d="M20 97h142v2H20z"/><ellipse fill="#dae4f2" rx="1" ry="1" transform="matrix(3.90128 -14.1635 24.4442 6.73306 115 191.4)"/><path fill="#ffe5a8" d="M7 7h6v245H7z"/></g></svg>