<svg xmlns="http://www.w3.org/2000/svg" viewBox="0 0 93 133"><filter id="b"><feGaussianBlur stdDeviation="12" /></filter><path fill="#efedf1" d="M0 0h93v133H0z"/><g filter="url(#b)" transform="translate(.5 .5)" fill-opacity=".5"><ellipse fill="#ccceca" cx="42" cy="60" rx="33" ry="17"/><ellipse fill="#fff" rx="1" ry="1" transform="rotate(1.6 -3523 1502.7) scale(86.80556 21.90638)"/><path fill="#aaaca8" d="M75.6 19l-33.8-1L56 9.8 80.4 8z"/><path fill="#fff" d="M0 19h91v24H0z"/><path fill="#646662" d="M54 121h26v2H54z"/><path fill="#c068ff" d="M0 1h2v130H0z"/><ellipse fill="#ce93fc" cx="43" rx="63" ry="3"/><path fill="#ce91fe" d="M0 130h90v3H0z"/><path fill="#fff" d="M30 57h63v6H30z"/><path fill="#c3c3c2" d="M10 44h63v10H10z"/><path fill="#b2b3b1" d="M13 103h65v3H13z"/><path fill="#979896" d="M0 120h65v2H0z"/><ellipse fill="#fff" cx="63" cy="69" rx="68" ry="2"/><path fill="#aaaba9" d="M34 71h50v4H34z"/><ellipse fill="#525252" cx="52" cy="66" rx="21" ry="1"/><path fill="#beb0c5" d="M91 6h2v124h-2z"/><path fill="#fff" d="M2 4h54v9H2z"/><ellipse fill="#9c9e9b" cx="32" cy="15" rx="14" ry="2"/><path fill="#fff" d="M12 4h45v11H12z"/><ellipse fill="#fff" cx="86" cy="59" rx="5" ry="58"/><path fill="#868686" d="M55 9h19v4H55z"/><ellipse fill="#fff" cx="5" cy="73" rx="4" ry="48"/></g></svg>