<svg xmlns="http://www.w3.org/2000/svg" viewBox="0 0 172 245"><filter id="b"><feGaussianBlur stdDeviation="12" /></filter><path fill="#bcc4d3" d="M0 0h172v245H0z"/><g filter="url(#b)" transform="translate(.5 .5)" fill-opacity=".5"><path fill="#00001a" d="M67 49h41v11H67z"/><ellipse fill="#fffbfe" cx="43" cy="63" rx="25" ry="46"/><ellipse fill="#fbf4f7" rx="1" ry="1" transform="matrix(.08025 -60.86474 25.46792 .03358 130.6 77)"/><ellipse fill="#31678a" cx="105" cy="234" rx="152" ry="8"/><ellipse fill="#336e91" rx="1" ry="1" transform="rotate(-90.3 112.7 -47.9) scale(156.1991 7.74252)"/><ellipse fill="#4684a5" rx="1" ry="1" transform="matrix(8.40951 -.03544 .42851 101.68583 10.8 133.2)"/><ellipse fill="#497694" cx="81" cy="10" rx="112" ry="8"/><path fill="#224c84" d="M63 54l-1.4-14.3 24.2 49.8L107 50.2z"/><path fill="#ede2ed" d="M20 165h135v60H20z"/><ellipse fill="#ffeff4" cx="86" cy="29" rx="19" ry="19"/><path fill="#487b9b" d="M154 169h15v58h-15z"/><path fill="#dbcad8" d="M66 79h39v153H66z"/><ellipse fill="#fff" cx="1" cy="86" rx="3" ry="168"/><ellipse fill="#fff" cx="72" rx="154" ry="3"/><path fill="#4a81a1" d="M27 9L4 63l2-46z"/><ellipse fill="#fff" cx="170" cy="207" rx="2" ry="171"/><ellipse fill="#f8f2f6" rx="1" ry="1" transform="rotate(63.3 3.7 133.8) scale(21.07264 26.05383)"/><ellipse fill="#c0bec8" rx="1" ry="1" transform="matrix(-.30452 -22.89215 29.3783 -.3908 116 106.4)"/><ellipse fill="#fef6fa" rx="1" ry="1" transform="matrix(7.20233 -15.95139 27.01435 12.19745 49.6 66.8)"/><ellipse fill="#d2ced9" rx="1" ry="1" transform="rotate(-97 79.8 41.6) scale(41.29508 30.67119)"/><path fill="#fdf1f8" d="M18 34h136v14H18z"/><path fill="#fff" d="M169 0h3v245h-3z"/></g></svg>