<svg xmlns="http://www.w3.org/2000/svg" viewBox="0 0 2481 3470"><filter id="b"><feGaussianBlur stdDeviation="12" /></filter><path fill="#b5b8af" d="M0 0h2480v3470H0z"/><g filter="url(#b)" transform="translate(6.8 6.8) scale(13.55469)" fill-opacity=".5"><ellipse cx="75" cy="22" rx="182" ry="40"/><ellipse fill="#fff" cx="98" cy="152" rx="92" ry="92"/><ellipse cx="93" cy="44" rx="182" ry="18"/><path fill="#fff" d="M136 208l47-146-199-2z"/><path fill="#e2ddcb" d="M98.8 32.8l29.2-4.2L98-16 83.6 29.4z"/><path fill="#010000" d="M9 8h61v53H9z"/><path fill="#fff" d="M138 30l39 1-20-8z"/><path fill="#8e8e68" d="M177 0h6v256h-6z"/><path fill="#cfd1a8" d="M-16 58L7-16 5 81z"/><ellipse fill="#131511" rx="1" ry="1" transform="matrix(26.04935 1.04088 -.46247 11.57375 153.4 15.6)"/><path d="M67 32h110v29H67z"/><ellipse fill="#feffff" cx="25" cy="101" rx="19" ry="39"/><ellipse fill="#797560" cx="54" cy="17" rx="18" ry="18"/><path fill="#9f9e86" d="M197 0L84 20 14-16z"/><ellipse fill="#dce1d4" rx="1" ry="1" transform="rotate(111 -52.4 120.8) scale(34.94503 35.24756)"/><ellipse fill="#fff" cx="97" cy="86" rx="80" ry="25"/><ellipse fill="#abb4a9" cx="121" cy="136" rx="170" ry="5"/><ellipse fill="#c2c3ac" cx="182" cy="30" rx="6" ry="46"/><ellipse fill="#838362" rx="1" ry="1" transform="matrix(-6.38614 -.06688 1.33442 -127.42326 0 164.8)"/><ellipse fill="#848a80" cx="105" cy="154" rx="101" ry="2"/><path d="M127 6h9v54h-9zM8 8h31v52H8z"/></g></svg>