<svg xmlns="http://www.w3.org/2000/svg" viewBox="0 0 500 699"><filter id="b"><feGaussianBlur stdDeviation="12" /></filter><path fill="#bcc7d3" d="M0 0h499v699H0z"/><g filter="url(#b)" transform="translate(1.4 1.4) scale(2.73047)" fill-opacity=".5"><ellipse fill="#002" cx="91" cy="56" rx="24" ry="7"/><ellipse fill="#2e688a" cx="51" cy="242" rx="169" ry="9"/><path fill="#16597e" d="M101 6h73v15h-73z"/><ellipse fill="#fffefd" cx="137" cy="66" rx="25" ry="46"/><ellipse fill="#317698" cx="14" cy="96" rx="8" ry="180"/><ellipse fill="#fff7f8" cx="46" cy="73" rx="26" ry="52"/><path fill="#003972" d="M98.4 81.5l-11.8.8-15.8-30.7 41.2 2.7z"/><path fill="#2c7396" d="M163 23h14v179h-14z"/><path fill="#245f81" d="M21 6h63v15H21z"/><ellipse fill="#fff" rx="1" ry="1" transform="matrix(-7.67927 .04627 -.95011 -157.68197 0 127.7)"/><ellipse fill="#f3e6f2" cx="89" cy="216" rx="73" ry="23"/><ellipse fill="#fff" rx="1" ry="1" transform="matrix(-3.50285 .00794 -.23936 -105.59015 181 149.6)"/><ellipse fill="#f1e4ea" cx="84" cy="34" rx="63" ry="18"/><path fill="#2c7294" d="M162 201h15v35h-15z"/><path fill="#fff" d="M3.4-4l165-3 .2 11-165 3z"/><ellipse fill="#fff" cx="102" cy="255" rx="180" ry="5"/><ellipse fill="#d8d1d6" cx="95" cy="141" rx="68" ry="59"/><path fill="#96959a" d="M37 91h74v8H37z"/><path fill="#f6f4fa" d="M84.4 60.4l11.4-3.8L114 89.7l44.4-1.2z"/><ellipse fill="#fff" cx="182" cy="145" rx="5" ry="182"/><ellipse fill="#bfbada" cx="92" cy="220" rx="22" ry="22"/><path fill="#f5f4f5" d="M117 196h43v37h-43z"/></g></svg>