<svg xmlns="http://www.w3.org/2000/svg" viewBox="0 0 2481 3470"><filter id="b"><feGaussianBlur stdDeviation="12" /></filter><path fill="#b5b8af" d="M0 0h2480v3470H0z"/><g filter="url(#b)" transform="translate(6.8 6.8) scale(13.55469)" fill-opacity=".5"><ellipse cx="75" cy="33" rx="182" ry="30"/><ellipse fill="#fff" cx="92" cy="149" rx="90" ry="90"/><ellipse cx="95" cy="46" rx="169" ry="16"/><ellipse fill="#fff" cx="98" cy="93" rx="182" ry="33"/><path fill="#f5f0e3" d="M123.8 13.7l.4 18-38 .6-.4-18z"/><ellipse fill="#91926e" cx="2" cy="85" rx="6" ry="181"/><ellipse rx="1" ry="1" transform="rotate(-84.3 32.2 1.3) scale(26.43815 20.16468)"/><path fill="#8c8c68" d="M181 271L198-3.8 176.3.6l1 216.3z"/><path d="M10 33h166v29H10zM128 8h49v16h-49z"/><ellipse fill="#fff" cx="41" cy="86" rx="36" ry="26"/><ellipse fill="#fff" cx="136" cy="97" rx="41" ry="36"/><path fill="#e1e7db" d="M8 145h168v99H8z"/><path fill="#fff" d="M157.4 25.7l21.1 6.9-40.5-.8-6.2-2.4z"/><ellipse fill="#848463" cx="110" rx="141" ry="8"/><path fill="#050200" d="M82 41.2L63.7 7.6 8.8 45.1l7.8-42z"/><ellipse fill="#9d9f88" cx="2" cy="33" rx="5" ry="177"/><path fill="#9a9b83" d="M177 0h6v256h-6z"/><path fill="#f1eee3" d="M89 11h29v8H89z"/><ellipse rx="1" ry="1" transform="matrix(-1.10533 -11.47927 58.85623 -5.66721 111.2 48)"/><path fill="#feffff" d="M32.4 67.2l140-2.4 1.2 66-140 2.4z"/><path fill="#8a8571" d="M39 0h12v34H39z"/></g></svg>