<svg xmlns="http://www.w3.org/2000/svg" viewBox="0 0 500 699"><filter id="b"><feGaussianBlur stdDeviation="12" /></filter><path fill="#dddeda" d="M0 0h499v699H0z"/><g filter="url(#b)" transform="translate(1.4 1.4) scale(2.73047)" fill-opacity=".5"><ellipse fill="#9b9e9e" rx="1" ry="1" transform="matrix(.25954 -23.42264 21.10667 .23388 130.6 41.8)"/><ellipse fill="#bbbebc" rx="1" ry="1" transform="rotate(1.5 -5018 2821.2) scale(88.41057 24.24761)"/><ellipse fill="#f3f3f2" cx="90" cy="239" rx="85" ry="85"/><ellipse fill="#7b7d7d" cx="72" cy="37" rx="45" ry="5"/><path fill="#a7aaaa" d="M16 19h34v44H16z"/><path fill="#0d100d" d="M43.5 64v-1l85-3v1z"/><ellipse fill="#f7f9f8" rx="1" ry="1" transform="rotate(75.9 -22.7 85.1) scale(15.88028 72.93528)"/><ellipse fill="#d2c8a1" cx="100" cy="250" rx="121" ry="5"/><path fill="#a8abaa" d="M25 161h101v7H25z"/><path fill="#565a59" d="M136 57l-12 5h27z"/><path fill="#f9fafa" d="M46 39h72v18H46z"/><ellipse fill="#fff" rx="1" ry="1" transform="rotate(.8 -8599.3 8376.5) scale(48.4952 2.02233)"/><path fill="#f1f2f3" d="M152 11h20v99h-20z"/><ellipse fill="#ece7d2" rx="1" ry="1" transform="matrix(4.5043 -181.94425 10.53867 .2609 5.3 110.4)"/><path fill="#fff" d="M39 39L11 23l2 17z"/><ellipse fill="#7a7c7b" cx="101" cy="35" rx="51" ry="3"/><path fill="#898ebc" d="M82 180l8 10-11 6z"/><ellipse fill="#3d3f3a" cx="31" cy="61" rx="16" ry="2"/><path fill="#f7f7f6" d="M39 12l104-5-49 25z"/><ellipse fill="#f1f1f3" cx="136" cy="202" rx="40" ry="40"/><path fill="#abadac" d="M53 110h114v7H53z"/><path fill="#a7a9a8" d="M114 19h43v8h-43z"/></g></svg>