<svg xmlns="http://www.w3.org/2000/svg" viewBox="0 0 2481 3470"><filter id="b"><feGaussianBlur stdDeviation="12" /></filter><path fill="#bcc8d3" d="M0 0h2480v3470H0z"/><g filter="url(#b)" transform="translate(6.8 6.8) scale(13.55469)" fill-opacity=".5"><ellipse fill="#00001b" cx="91" cy="57" rx="22" ry="7"/><ellipse fill="#105279" cx="41" cy="242" rx="44" ry="8"/><ellipse fill="#336d8d" cx="56" cy="12" rx="171" ry="7"/><path fill="#266084" d="M67 235h111v15H67z"/><ellipse fill="#f9eef1" rx="1" ry="1" transform="matrix(-19.02972 -62.88673 25.25486 -7.6422 53 86)"/><ellipse fill="#fff9f9" rx="1" ry="1" transform="rotate(16 -188.7 516) scale(25.04801 51.72215)"/><path fill="#317699" d="M7 79l20 62-18 71z"/><ellipse fill="#3e7f9f" cx="169" cy="147" rx="8" ry="181"/><path fill="#2a6f94" d="M21 18v84H7V18z"/><ellipse fill="#034c88" cx="92" cy="66" rx="12" ry="17"/><ellipse fill="#f3eaf1" cx="130" cy="202" rx="33" ry="33"/><ellipse fill="#ede4ea" rx="1" ry="1" transform="rotate(148.7 -2 111.6) scale(37.33444 24.53125)"/><ellipse fill="#fff" cx="1" cy="95" rx="6" ry="182"/><path fill="#407d9c" d="M24 247l-4-78-14 63z"/><path fill="#fce9ed" d="M39 52l122-4L87 7z"/><path fill="#fff" d="M178 0h5v256h-5z"/><ellipse fill="#d8cde1" rx="1" ry="1" transform="matrix(14.32337 -17.84348 27.44222 22.0285 81.2 213.4)"/><path fill="#fff" d="M6 251h177v5H6z"/><ellipse fill="#fff" cx="64" cy="2" rx="159" ry="3"/><ellipse fill="#d7cdd2" cx="98" cy="129" rx="47" ry="47"/><path fill="#fff" d="M22 91h5v136h-5z"/><ellipse fill="#53829d" cx="138" cy="12" rx="40" ry="8"/></g></svg>