<svg xmlns="http://www.w3.org/2000/svg" viewBox="0 0 2481 3470"><filter id="b"><feGaussianBlur stdDeviation="12" /></filter><path fill="#bcc8d3" d="M0 0h2480v3470H0z"/><g filter="url(#b)" transform="translate(6.8 6.8) scale(13.55469)" fill-opacity=".5"><ellipse fill="#1e5c80" rx="1" ry="1" transform="matrix(.03379 -6.45336 118.93342 .62274 93.6 244.1)"/><ellipse fill="#2e698a" cx="98" cy="12" rx="112" ry="7"/><ellipse fill="#073a6f" cx="94" cy="63" rx="17" ry="17"/><ellipse fill="#fffdfb" cx="131" cy="82" rx="31" ry="31"/><ellipse fill="#347799" cx="14" cy="130" rx="8" ry="180"/><ellipse fill="#fff8fa" rx="1" ry="1" transform="rotate(165.9 20.2 38) scale(25.81011 48.12274)"/><path fill="#34779a" d="M162 110h15v134h-15z"/><ellipse fill="#4986a4" rx="1" ry="1" transform="matrix(-7.3291 -91.60593 7.28606 -.58293 168 24.6)"/><path fill="#002550" d="M86 67L65 53l58-3z"/><ellipse fill="#fdedf1" rx="1" ry="1" transform="matrix(49.7935 2.52243 -.78693 15.53425 117.5 38.1)"/><ellipse fill="#fff8fb" cx="137" cy="210" rx="26" ry="25"/><ellipse fill="#fff" cx="2" cy="163" rx="4" ry="182"/><path fill="#fff" d="M178 122h5v134h-5z"/><ellipse fill="#ede1e9" rx="1" ry="1" transform="rotate(158.7 11.4 109.7) scale(39.86599 24.73877)"/><ellipse fill="#fff" rx="1" ry="1" transform="matrix(.00611 4.80942 -75.16432 .0955 124.2 1)"/><ellipse fill="#fff" cx="73" cy="255" rx="135" ry="6"/><ellipse fill="#ddd1d5" rx="1" ry="1" transform="matrix(-34.22146 -47.98755 34.73753 -24.77244 94.4 135.9)"/><path fill="#fff" d="M178 0h5v256h-5z"/><ellipse fill="#fff" cx="31" cy="1" rx="178" ry="4"/><ellipse fill="#f3dee4" cx="91" cy="34" rx="20" ry="20"/><path fill="#5e90ba" d="M80.1 64.5l3 16.2 15.7 7 .5-35.2z"/><path fill="#8d8f96" d="M40 91h106v8H40z"/></g></svg>