<svg xmlns="http://www.w3.org/2000/svg" viewBox="0 0 2481 3470"><filter id="b"><feGaussianBlur stdDeviation="12" /></filter><path fill="#edeaf0" d="M0 0h2480v3470H0z"/><g filter="url(#b)" transform="translate(6.8 6.8) scale(13.55469)" fill-opacity=".5"><ellipse fill="#c1c4be" cx="58" cy="105" rx="37" ry="24"/><path fill="#aaada7" d="M111.9 12l44.8 7.8 18.4 16.9-77.6-3z"/><ellipse fill="#6b6e69" rx="1" ry="1" transform="rotate(-178.3 75 116.7) scale(110.75296 1)"/><ellipse fill="#b967ff" cy="127" rx="7" ry="182"/><ellipse fill="#d1d4cf" cx="106" cy="115" rx="43" ry="33"/><ellipse fill="#fff" cx="126" cy="171" rx="120" ry="28"/><ellipse fill="#fff" cx="49" cy="43" rx="42" ry="42"/><ellipse fill="#81837f" cx="96" cy="142" rx="74" ry="2"/><ellipse fill="#fff" rx="1" ry="1" transform="matrix(-8.92556 19.27958 -56.36122 -26.09267 137.8 65)"/><ellipse fill="#6d6e6b" cx="66" cy="30" rx="46" ry="2"/><ellipse fill="#fff" cx="123" cy="114" rx="118" ry="7"/><path fill="#6b6d69" d="M127.5 67l-65 1v-1l65-1z"/><path d="M5 233h114v1H5z"/><ellipse fill="#ca93f8" cx="116" cy="253" rx="170" ry="4"/><ellipse fill="#7e7f7c" cx="95" cy="161" rx="29" ry="2"/><ellipse fill="#fff" cx="154" cy="216" rx="148" ry="13"/><ellipse fill="#c4bacb" cx="180" cy="128" rx="5" ry="182"/><ellipse fill="#bf84ee" cx="82" rx="158" ry="5"/><path fill="#757575" d="M22 96h132v2H22z"/><path fill="#828481" d="M48 136h110v3H48z"/><path fill="#82857f" d="M46 242h90v2H46z"/><path fill="#91948e" d="M24 200h131v3H24z"/></g></svg>