<svg xmlns="http://www.w3.org/2000/svg" viewBox="0 0 2481 3470"><filter id="b"><feGaussianBlur stdDeviation="12" /></filter><path fill="#c59376" d="M0 0h2480v3470H0z"/><g filter="url(#b)" transform="translate(6.8 6.8) scale(13.55469)" fill-opacity=".5"><ellipse fill="#e2e6c6" cx="87" cy="157" rx="77" ry="77"/><ellipse fill="#b00222" cx="92" cy="24" rx="43" ry="43"/><ellipse fill="#8b1800" rx="1" ry="1" transform="matrix(-1.8603 158.30772 -13.62304 -.16009 176.5 134.1)"/><ellipse fill="#7b1f00" rx="1" ry="1" transform="matrix(126.10127 -1.48922 .24696 20.91147 81.8 255)"/><ellipse fill="#a32800" cx="5" cy="154" rx="15" ry="179"/><ellipse fill="#0047b8" rx="1" ry="1" transform="rotate(177.7 72.5 13.3) scale(31.73359 6.95735)"/><ellipse fill="#ffffce" cx="142" cy="73" rx="22" ry="36"/><ellipse fill="#ffffd0" cx="44" cy="73" rx="25" ry="33"/><ellipse fill="#003ed1" cx="34" cy="23" rx="29" ry="6"/><path fill="red" d="M132 28h51v11h-51z"/><ellipse fill="#fc0000" cx="24" cy="32" rx="28" ry="6"/><path fill="#d9fffd" d="M133.3 8l44.7-.2-18.7 10.6-42.4-.6z"/><ellipse fill="#f4e7b7" rx="1" ry="1" transform="matrix(16.46769 -17.61139 17.33847 16.21249 140.4 212.8)"/><ellipse fill="#ff0010" rx="1" ry="1" transform="matrix(10.90237 -1.45602 1.92281 14.39758 68.8 51)"/><ellipse fill="#c52f02" cx="89" cy="1" rx="80" ry="9"/><path fill="#eddeb2" d="M87 197v38H27v-38z"/><path fill="#cbffff" d="M10 9h45v10H10z"/><path fill="#f5e2a5" d="M143 38h20v191h-20z"/><path fill="#ffffd4" d="M29 66h117v10H29z"/><path fill="#83454a" d="M39 76h107v7H39z"/><ellipse fill="#c2a592" rx="1" ry="1" transform="matrix(-.58034 -6.27022 27.5545 -2.55029 93 34.5)"/><path fill="#005db1" d="M126 18h51v11h-51z"/></g></svg>