<svg xmlns="http://www.w3.org/2000/svg" viewBox="0 0 172 245"><filter id="b"><feGaussianBlur stdDeviation="12" /></filter><path fill="#bcc4d3" d="M0 0h172v245H0z"/><g filter="url(#b)" transform="translate(.5 .5)" fill-opacity=".5"><ellipse fill="#00002d" cx="89" cy="53" rx="24" ry="7"/><ellipse fill="#3e7092" cx="35" cy="233" rx="171" ry="9"/><ellipse fill="#fffdfe" rx="1" ry="1" transform="matrix(-20.11017 38.79788 -21.80542 -11.30244 125.4 70.4)"/><ellipse fill="#2b698d" cx="161" cy="53" rx="7" ry="171"/><ellipse fill="#fffbfe" rx="1" ry="1" transform="matrix(2.95848 43.16599 -25.22458 1.72882 43 62.3)"/><ellipse fill="#3f7ea1" cx="11" cy="116" rx="8" ry="168"/><ellipse fill="#4a7795" cx="126" cy="9" rx="171" ry="7"/><path fill="#0d3c73" d="M87 84L61 47l46 3z"/><path fill="#f0e7f1" d="M153 222l1-157-86 167z"/><ellipse fill="#faebf2" cx="87" cy="32" rx="68" ry="16"/><ellipse fill="#d9ced6" cx="76" cy="136" rx="59" ry="59"/><path fill="#f3eaf2" d="M19 182h54v45H19z"/><ellipse fill="#fff" cx="75" rx="171" ry="4"/><ellipse fill="#fff" cy="122" rx="3" ry="165"/><path fill="#4e7f9d" d="M154 167h15v65h-15z"/><path fill="#fff" d="M0 242h172v3H0z"/><path fill="#527a98" d="M105 5h52v13h-52z"/><path fill="#fffdff" d="M78 83l-32.6 4.7-3.5-24.8 32.7-4.6z"/><ellipse fill="#fff" cx="170" cy="110" rx="2" ry="161"/><path fill="#fff" d="M78 55h14v4H78z"/><path fill="#97959e" d="M84 86h53v7H84z"/><path fill="#fff9fc" d="M74 13h26v13H74z"/></g></svg>