<svg xmlns="http://www.w3.org/2000/svg" viewBox="0 0 94 133"><filter id="b"><feGaussianBlur stdDeviation="12" /></filter><path fill="#e9e5e5" d="M0 0h94v133H0z"/><g filter="url(#b)" transform="translate(.5 .5)" fill-opacity=".5"><ellipse fill="#110118" cx="21" cy="122" rx="33" ry="6"/><ellipse fill="#fff" cx="45" cy="29" rx="44" ry="14"/><path fill="#50454d" d="M6 113h15v17H6z"/><ellipse fill="#fff" cx="38" cy="96" rx="35" ry="22"/><path fill="#91a9c8" d="M46 117h42v13H46z"/><path fill="#d28671" d="M89 24h3v101h-3z"/><path fill="#fac5b5" d="M5-4l-21 74 20 65z"/><ellipse fill="#363a3a" cx="49" cy="44" rx="22" ry="2"/><path fill="#fff" d="M9 6h80v35H9z"/><path fill="#b6b9c0" d="M37.9 20.2l-28-4.6 42-5.6-17.1 11z"/><path fill="#f6fafb" d="M19 46h69v70H19z"/><path fill="#191325" d="M5 112h6v5H5z"/><path fill="#e5aa95" d="M23 127h71v4H23z"/><path fill="#fff" d="M1.2 107.7L3.8 131-16 147.4 2 62z"/><path fill="#e59982" d="M0 3h92v3H0z"/><ellipse fill="#fff" cx="8" cy="36" rx="4" ry="76"/><path fill="#d59380" d="M89 5h3v27h-3z"/><path fill="#e0e0e0" d="M62.6 67.1l.8 22-52 1.8-.8-22z"/><path fill="#a97da6" d="M53 122l-19-5 38-1z"/><ellipse fill="#feb29a" cx="12" cy="128" rx="11" ry="2"/><path fill="#494f5d" d="M42 121L6 111l17 16z"/><ellipse fill="#dda293" cx="3" cy="81" rx="2" ry="88"/></g></svg>