<svg xmlns="http://www.w3.org/2000/svg" viewBox="0 0 2481 3470"><filter id="b"><feGaussianBlur stdDeviation="12" /></filter><path fill="#efefed" d="M0 0h2480v3470H0z"/><g filter="url(#b)" transform="translate(6.8 6.8) scale(13.55469)" fill-opacity=".5"><ellipse fill="#c5c3b4" cx="178" cy="106" rx="9" ry="182"/><ellipse fill="#92aeca" cy="129" rx="7" ry="182"/><ellipse fill="#fff" cx="95" cy="195" rx="82" ry="53"/><path fill="#afb5b1" d="M77.7 183l-57 1.1.6 14.9 39-8.1z"/><ellipse fill="#fff" rx="1" ry="1" transform="matrix(.23905 -22.99796 85.58887 .88965 94 61.8)"/><ellipse fill="#d0cab4" cx="79" rx="182" ry="11"/><path fill="#b0b5b4" d="M58 27h74v13H58z"/><ellipse fill="#d4cab1" cx="111" cy="253" rx="182" ry="8"/><ellipse fill="#ffd992" cx="10" cy="152" rx="3" ry="182"/><path fill="#b5b8b7" d="M24 135h139v8H24z"/><path fill="#828684" d="M25 97h140v2H25z"/><path fill="#929995" d="M114.6 76.7l-.2 4-41-1.4.2-4z"/><ellipse fill="#fff" rx="1" ry="1" transform="matrix(20.37536 1.34406 -2.509 38.03534 33.5 47.8)"/><ellipse fill="#ffebb2" cx="172" cy="144" rx="4" ry="162"/><ellipse fill="#a6a9a7" cx="54" cy="103" rx="126" ry="2"/><ellipse fill="#b2b4b2" cx="69" cy="92" rx="103" ry="2"/><ellipse fill="#a8aba9" cx="49" cy="122" rx="68" ry="2"/><path fill="#fff" d="M129 12h41v72h-41z"/><path fill="#848a86" d="M23 179h28v3H23z"/><ellipse fill="#fff" cx="99" cy="17" rx="71" ry="10"/><ellipse fill="#9a9e9c" cx="54" cy="147" rx="34" ry="2"/><ellipse fill="#fff" cx="18" cy="115" rx="6" ry="131"/></g></svg>