<svg xmlns="http://www.w3.org/2000/svg" viewBox="0 0 500 699"><filter id="b"><feGaussianBlur stdDeviation="12" /></filter><path fill="#e4e9eb" d="M0 0h499v699H0z"/><g filter="url(#b)" transform="translate(1.4 1.4) scale(2.73047)" fill-opacity=".5"><ellipse fill="#000006" rx="1" ry="1" transform="matrix(3.12485 -17.0778 89.57558 16.3903 19.3 241.6)"/><ellipse fill="#56799e" cx="95" cy="246" rx="151" ry="15"/><ellipse fill="#fff" cx="73" cy="53" rx="182" ry="26"/><ellipse fill="#abf6ff" rx="1" ry="1" transform="matrix(-77.40609 12.46053 -3.68193 -22.87252 154 255)"/><path fill="#2f2f29" d="M47 79h91v7H47z"/><ellipse fill="#3f2734" cx="56" cy="243" rx="53" ry="10"/><ellipse fill="#fff" cx="93" cy="203" rx="105" ry="30"/><path fill="#d9ffff" d="M1 253h108v3H1z"/><ellipse fill="#fff" rx="1" ry="1" transform="rotate(-136.5 69.9 -15) scale(48.12191 65.63563)"/><ellipse fill="#fefffd" cx="155" cy="153" rx="57" ry="39"/><path fill="#30323b" d="M4 219l78 24-77 8z"/><ellipse fill="#9b9ea6" cx="59" cy="22" rx="29" ry="6"/><ellipse fill="#3e4258" cx="23" cy="20" rx="4" ry="7"/><ellipse fill="#fff" rx="1" ry="1" transform="matrix(-5.1982 49.28878 -24.45741 -2.57938 24.6 79.2)"/><ellipse fill="#fff" rx="1" ry="1" transform="matrix(30.0543 -20.88828 13.5899 19.5533 169.9 67)"/><path fill="#bbc3cf" d="M120 192h49v14h-49z"/><path fill="#8ee0ff" d="M3.2 258.6L2.4 160l.4-110.3-18.8 194z"/><ellipse fill="#82d5f8" cx="182" cy="106" rx="3" ry="173"/><path fill="#a06897" d="M88 238.3l42.4-7.5 1.6 8.9-42.4 7.5z"/><ellipse fill="#fff" cx="56" cy="205" rx="28" ry="28"/><ellipse fill="#fff" cx="78" cy="72" rx="49" ry="8"/><ellipse fill="#fff" cx="91" cy="9" rx="126" ry="7"/></g></svg>