<svg xmlns="http://www.w3.org/2000/svg" viewBox="0 0 2481 3470"><filter id="b"><feGaussianBlur stdDeviation="12" /></filter><path fill="#c59376" d="M0 0h2480v3470H0z"/><g filter="url(#b)" transform="translate(6.8 6.8) scale(13.55469)" fill-opacity=".5"><ellipse fill="#b30122" cx="91" cy="26" rx="42" ry="42"/><ellipse fill="#e7dcbe" cx="90" cy="131" rx="74" ry="106"/><ellipse fill="#761500" cx="79" cy="245" rx="182" ry="11"/><ellipse fill="#8c1a00" cx="177" cy="135" rx="15" ry="179"/><path fill="#ca0001" d="M59.5 33h63v32h-63z"/><ellipse fill="#a42f00" cx="8" cy="87" rx="12" ry="182"/><path fill="#0037c9" d="M124 18h51v12h-51z"/><path fill="#0040dc" d="M7 19h52v10H7z"/><ellipse fill="red" cx="162" cy="33" rx="38" ry="6"/><path fill="#f2e8b3" d="M125 41h38v190h-38z"/><path fill="#fff5c5" d="M19 46h38v59H19z"/><ellipse fill="red" cx="14" cy="33" rx="43" ry="6"/><path fill="#f3ebba" d="M20 197h64v36H20z"/><ellipse fill="#c8ffff" cx="32" cy="13" rx="24" ry="6"/><path fill="#d0ffff" d="M124 9h51v10h-51z"/><path fill="#883b00" d="M170.9 9L126 5l1-12 45 4z"/><path fill="#db230a" d="M121.8-16l7 21.7-77.6 5.1-33-8.3z"/><ellipse fill="#005abb" cx="154" cy="22" rx="22" ry="5"/><path fill="#7d363a" d="M39 76h107v7H39z"/><ellipse fill="#965756" rx="1" ry="1" transform="matrix(-24.23044 8.9749 -9.78708 -26.42314 90.5 33.4)"/><path fill="#0058a7" d="M57 32L41 16 1 18z"/><path fill="#b90022" d="M16 62h3v176h-3z"/></g></svg>