<svg xmlns="http://www.w3.org/2000/svg" viewBox="0 0 172 243"><filter id="b"><feGaussianBlur stdDeviation="12" /></filter><path fill="#c9876d" d="M0 0h172v243H0z"/><g filter="url(#b)" transform="translate(.5 .5)" fill-opacity=".5"><ellipse fill="#e9efd0" rx="1" ry="1" transform="matrix(.258 73.90879 -64.22644 .2242 85.6 146)"/><ellipse fill="#9a0700" cx="171" cy="146" rx="25" ry="171"/><ellipse fill="#bb0024" cx="85" cy="38" rx="34" ry="34"/><ellipse fill="#b11800" cy="155" rx="24" ry="171"/><ellipse fill="#ffffd5" rx="1" ry="1" transform="matrix(-.53784 28.0111 -19.16905 -.36806 42.8 74.6)"/><ellipse fill="#fff9c6" cx="129" cy="88" rx="20" ry="41"/><ellipse fill="#0051b2" rx="1" ry="1" transform="matrix(-33.40418 -.0516 .0088 -5.69912 40 33)"/><path fill="#0060f1" d="M114 27h43v10h-43z"/><ellipse fill="#7a2206" cx="87" cy="230" rx="153" ry="10"/><ellipse fill="#950400" rx="1" ry="1" transform="matrix(-40.3247 .23224 -.03761 -6.53073 138.2 11.2)"/><path fill="#cc0513" d="M18 5h91v12H18z"/><path fill="#eed8a9" d="M113 48h35v173h-35z"/><ellipse fill="#ebdcb2" cx="48" cy="196" rx="25" ry="25"/><path fill="#8d3b3d" d="M33 80h105v6H33z"/><path fill="red" d="M109 45l50-2-20-9z"/><ellipse fill="red" cx="30" cy="41" rx="25" ry="5"/><path fill="#e4ffff" d="M153.6 18.7l-4.7 8.8-40 2.3 14.4-9.8z"/><path fill="#d1fbff" d="M59.5 30L47.6 17.4 15 22l7.5 5.6z"/><path fill="#fffa57" d="M54 239h118v4H54z"/><path fill="#b2ac96" d="M64 34h45v12H64z"/><path fill="#ff0010" d="M82.6 68.2l-21.3 2.3-3-53.8L66 55.4z"/><ellipse fill="#fffd58" cx="98" rx="171" ry="5"/></g></svg>