<svg xmlns="http://www.w3.org/2000/svg" viewBox="0 0 172 243"><filter id="b"><feGaussianBlur stdDeviation="12" /></filter><path fill="#c9876d" d="M0 0h172v243H0z"/><g filter="url(#b)" transform="translate(.5 .5)" fill-opacity=".5"><ellipse fill="#e7eacb" cx="83" cy="152" rx="69" ry="69"/><ellipse fill="#970100" rx="1" ry="1" transform="rotate(-88.5 151.7 -15) scale(146.1098 13.85863)"/><ellipse fill="#b70e2d" rx="1" ry="1" transform="matrix(-36.31564 -15.486 13.38995 -31.40029 84.5 35.5)"/><ellipse fill="#b01500" cy="156" rx="24" ry="171"/><ellipse fill="#ffffd2" cx="44" cy="81" rx="21" ry="35"/><ellipse fill="#ffffcf" rx="1" ry="1" transform="matrix(19.26229 1.0095 -1.73738 33.15122 127.8 77.4)"/><ellipse fill="#043e8a" cx="71" cy="33" rx="154" ry="5"/><ellipse fill="#7a1e00" rx="1" ry="1" transform="rotate(-.5 29226.7 -10697) scale(68.27658 9.41364)"/><path fill="#c83619" d="M60.1 40.1l-6.1-20 111.9-34.2 6.1 20z"/><path fill="#ce0004" d="M149.6 114.8l-2-81.3-88.5 27 97.2-18.9z"/><ellipse fill="#f9e7b6" rx="1" ry="1" transform="matrix(5.1132 -27.48725 15.07704 2.80465 130.5 194.6)"/><path fill="#aafcff" d="M20 20h38v10H20z"/><path fill="#dfffff" d="M113 20h39v8h-39z"/><path fill="#f6e4b5" d="M24 186h51v35H24z"/><ellipse fill="#ffff68" cx="91" cy="2" rx="137" ry="3"/><path fill="#f70008" d="M0 37h53v9H0z"/><path fill="#d89c89" d="M65 35h37v14H65z"/><path fill="#ffffd9" d="M31 71h106v8H31z"/><ellipse fill="#b6001a" cx="166" cy="59" rx="5" ry="171"/><ellipse fill="#aa1420" cx="65" cy="10" rx="171" ry="6"/><path fill="#ff000b" d="M59 44h15v25H59z"/><path fill="#e82938" d="M91 6h22v64H91z"/></g></svg>