<svg xmlns="http://www.w3.org/2000/svg" viewBox="0 0 94 133"><filter id="b"><feGaussianBlur stdDeviation="12" /></filter><path fill="#e9e5e5" d="M0 0h94v133H0z"/><g filter="url(#b)" transform="translate(.5 .5)" fill-opacity=".5"><ellipse fill="#211329" cx="23" cy="121" rx="31" ry="7"/><ellipse fill="#fbfcfb" rx="1" ry="1" transform="matrix(-36.16627 -10.75625 19.5079 -65.59234 51 53.3)"/><ellipse fill="#746467" rx="1" ry="1" transform="matrix(1.59428 -6.74428 28.3994 6.71333 17.3 121.3)"/><path fill="#323333" d="M28 43h43v3H28z"/><path fill="#99b1cf" d="M109 120l-63 11 3-17z"/><ellipse fill="#fdc9b9" cx="2" cy="63" rx="3" ry="90"/><path fill="#fcffff" d="M23 78h65v39H23z"/><path fill="#d48873" d="M89 1h3v132h-3z"/><path fill="#fff" d="M8 19h78v24H8z"/><path fill="#df947f" d="M89 7L5 4V1l84 3z"/><path fill="#fffffd" d="M3.4 148l38.1-20.4L-16 135 .5 26.6z"/><ellipse fill="#e4a694" rx="1" ry="1" transform="matrix(-92.98286 -1.78536 .02393 -1.24605 77.2 129.5)"/><path fill="#a9acb6" d="M42 19l2-8-31 4z"/><ellipse fill="#3b4455" rx="1" ry="1" transform="rotate(38.5 -162.4 78.7) scale(10.09186 2.87229)"/><ellipse fill="#a5a4a4" cx="43" cy="85" rx="31" ry="1"/><ellipse fill="#fff" rx="1" ry="1" transform="matrix(-.70546 38.9361 -3.62544 -.06569 9.4 70.5)"/><path fill="#4d5260" d="M8 125l-5-15 42 13z"/><ellipse fill="#aca8a7" cx="31" cy="88" rx="36" ry="1"/><ellipse fill="#e2e3e4" cx="32" cy="65" rx="23" ry="17"/><path fill="#a6e2fc" d="M48 125l40 2-2-14z"/><path fill="#fff" d="M8 18h81v23H8z"/><ellipse fill="#dfa293" cx="3" cy="68" rx="2" ry="73"/></g></svg>