<svg xmlns="http://www.w3.org/2000/svg" viewBox="0 0 2481 3470"><filter id="b"><feGaussianBlur stdDeviation="12" /></filter><path fill="#e4e9eb" d="M0 0h2480v3470H0z"/><g filter="url(#b)" transform="translate(6.8 6.8) scale(13.55469)" fill-opacity=".5"><path d="M-27.5 213.4l126.7 29.3-9.7 41.9-126.7-29.3z"/><path fill="#699ecb" d="M78 231h105v25H78z"/><ellipse fill="#3a3931" cx="98" cy="83" rx="49" ry="4"/><ellipse fill="#fff" cx="123" cy="50" rx="144" ry="30"/><path fill="#201f34" d="M47 232l48.6 14.7L6.1 253l1.5-32z"/><ellipse fill="#fff" cx="71" cy="203" rx="70" ry="30"/><path fill="#83456c" d="M62 231l23 19 60-18z"/><path fill="#c4ffff" d="M0 253h183v3H0z"/><ellipse fill="#f7f8f6" cx="107" cy="151" rx="182" ry="67"/><ellipse fill="#9396a1" rx="1" ry="1" transform="matrix(37.9031 .7893 -.07878 3.7829 52 24)"/><path fill="#c1ffff" d="M0 271l4-88-20 62z"/><ellipse fill="#fff" cx="129" cy="27" rx="52" ry="52"/><ellipse fill="#fff" rx="1" ry="1" transform="matrix(32.93853 -34.95351 14.43201 13.60004 35.2 65.1)"/><ellipse fill="#a1e6fe" rx="1" ry="1" transform="matrix(-138.17654 39.01904 -2.9464 -10.434 163.3 239.3)"/><ellipse fill="#fff" rx="1" ry="1" transform="matrix(6.05319 -20.25701 20.61139 6.15908 158.6 75)"/><path fill="#666a69" d="M149.9 80.2l-57-1-46.1 2.2 57.2 4.8z"/><path fill="#383d4b" d="M2 241h84v12H2z"/><ellipse fill="#fff" cx="10" cy="24" rx="8" ry="182"/><ellipse fill="#c6ceda" rx="1" ry="1" transform="rotate(-84.2 181.4 20) scale(8.34976 32.70595)"/><ellipse fill="#fff" cx="88" cy="9" rx="155" ry="6"/><ellipse fill="#b9bdb9" cx="39" cy="108" rx="155" ry="2"/><ellipse fill="#82d8fa" rx="1" ry="1" transform="matrix(-1.42105 .00282 -.2735 -137.81813 182 103.1)"/></g></svg>