<svg xmlns="http://www.w3.org/2000/svg" viewBox="0 0 2481 3470"><filter id="b"><feGaussianBlur stdDeviation="12" /></filter><path fill="#dde4ec" d="M0 0h2480v3470H0z"/><g filter="url(#b)" transform="translate(6.8 6.8) scale(13.55469)" fill-opacity=".5"><ellipse fill="#000084" rx="1" ry="1" transform="matrix(.01732 -9.9243 178.194 .311 99.5 44.2)"/><ellipse fill="#fff" cx="85" cy="211" rx="181" ry="38"/><path fill="#0044a4" d="M9 36h167v17H9z"/><ellipse fill="#fff" cx="97" cy="75" rx="182" ry="23"/><path fill="#abc1da" d="M175 2h7v251h-7z"/><path fill="#fff" d="M142 1L41 33l157 1z"/><ellipse fill="#b8cde1" rx="1" ry="1" transform="matrix(.60408 83.62407 -7.61637 .05502 .8 77.5)"/><path fill="#fff" d="M8 242L9 55l56 190z"/><ellipse fill="#fff" cx="164" cy="142" rx="12" ry="90"/><ellipse fill="#e9dfd3" rx="1" ry="1" transform="matrix(66.08975 -8.70088 5.99829 45.56151 92.5 123.6)"/><ellipse fill="#a8d5ea" cx="97" cy="216" rx="19" ry="18"/><ellipse fill="#73a6cf" cx="30" cy="22" rx="47" ry="4"/><ellipse fill="#fff" cx="140" cy="198" rx="34" ry="50"/><ellipse fill="#005bb2" rx="1" ry="1" transform="matrix(.22413 9.17092 -57.8097 1.41284 115.8 43.7)"/><ellipse fill="#fff" cx="98" cy="75" rx="79" ry="20"/><ellipse fill="#94b9dc" cx="90" cy="255" rx="180" ry="8"/><path fill="#fff" d="M198 6H17l92 25z"/><ellipse fill="#93b8d7" cx="133" cy="4" rx="173" ry="3"/><ellipse fill="#b7c8dd" cx="3" cy="121" rx="4" ry="182"/><path fill="#fff" d="M198 51.8L94.3 55.1l74.8 9.8 24.1-63z"/><ellipse fill="#fffffe" rx="1" ry="1" transform="rotate(-114.8 98.5 65.6) scale(22.25049 33.46092)"/><path fill="#00328f" d="M7 36h22v17H7z"/></g></svg>