<svg xmlns="http://www.w3.org/2000/svg" viewBox="0 0 172 243"><filter id="b"><feGaussianBlur stdDeviation="12" /></filter><path fill="#ede9d7" d="M0 0h172v243H0z"/><g filter="url(#b)" transform="translate(.5 .5)" fill-opacity=".5"><path fill="#254c43" d="M72 43h29v18H72z"/><ellipse cx="95" cy="242" rx="93" ry="1"/><ellipse fill="#d2aa63" cx="151" cy="221" rx="14" ry="14"/><path fill="#d3ac65" d="M139 9h26v29h-26z"/><ellipse fill="#fefff8" rx="1" ry="1" transform="rotate(85.5 -59.8 96.2) scale(79.58496 26.23876)"/><path fill="#d4b06b" d="M6.4 227.4l3.5-24.7 27.7 3.9-3.5 24.7z"/><ellipse fill="#fff" rx="1" ry="1" transform="rotate(-90.6 138.8 11) scale(41.79703 28.12071)"/><ellipse fill="#d6b678" cx="92" cy="229" rx="131" ry="4"/><ellipse fill="#d0a85c" cx="19" cy="21" rx="13" ry="14"/><path fill="#3f3c43" d="M67 123h38v4H67z"/><ellipse fill="#d4b473" cx="10" cy="148" rx="4" ry="171"/><ellipse fill="#d2af68" cx="161" cy="117" rx="4" ry="112"/><ellipse fill="#fffffb" cx="43" cy="62" rx="30" ry="35"/><ellipse fill="#96d3d2" cx="80" cy="100" rx="70" ry="6"/><ellipse fill="#fffffa" rx="1" ry="1" transform="matrix(-24.77354 -25.03434 16.08935 -15.92174 130.5 46.3)"/><ellipse fill="#d4b16e" cx="83" cy="13" rx="76" ry="4"/><path fill="#5e5c5d" d="M60 132h53v4H60z"/><path fill="#c9c6c2" d="M111.5 200.5h-67v-19h67z"/><path fill="#a6b093" d="M71.7 37.4l5.8 4.3 29.1-10.2-24 28.8z"/><ellipse fill="#b2b1b1" cx="119" cy="78" rx="29" ry="4"/><ellipse fill="#fffffa" rx="1" ry="1" transform="matrix(6.67235 -.08193 .6072 49.45251 151 87.9)"/><path fill="#fffff6" d="M14 79h87v17H14z"/></g></svg>