<svg xmlns="http://www.w3.org/2000/svg" viewBox="0 0 2481 3470"><filter id="b"><feGaussianBlur stdDeviation="12" /></filter><path fill="#efefed" d="M0 0h2480v3470H0z"/><g filter="url(#b)" transform="translate(6.8 6.8) scale(13.55469)" fill-opacity=".5"><ellipse fill="#96b1cc" cx="181" cy="121" rx="6" ry="182"/><ellipse fill="#fff" cx="115" cy="196" rx="55" ry="55"/><path fill="#a4b5c3" d="M-6.3-.6l17 .3-4.4 255-17-.4z"/><ellipse fill="#fff" rx="1" ry="1" transform="rotate(89 13.2 77.2) scale(22.31437 85.92866)"/><ellipse fill="#d1cab3" cx="73" cy="2" rx="182" ry="9"/><ellipse fill="#d4c9b0" cx="123" cy="251" rx="182" ry="6"/><path fill="#b2b7b5" d="M58 27h77v13H58z"/><ellipse fill="#fff" cx="55" cy="220" rx="46" ry="26"/><ellipse fill="#cdcdca" cx="59" cy="136" rx="182" ry="7"/><path fill="#808482" d="M25 97h119v2H25z"/><path fill="#abb1af" d="M23 178l2 18 46-11z"/><path fill="#fff" d="M170 149l-159-1 43 35z"/><ellipse fill="#ffe3a6" cx="10" cy="94" rx="4" ry="182"/><ellipse fill="#fff" rx="1" ry="1" transform="matrix(.95749 32.26106 -26.19993 .7776 36.8 42.1)"/><ellipse fill="#fbdba0" cx="173" cy="142" rx="4" ry="158"/><ellipse fill="#fff" cx="147" cy="50" rx="23" ry="39"/><path fill="#979e9a" d="M72 76h43v4H72z"/><path fill="#8b8f8d" d="M28 116h79v2H28z"/><path fill="#7d817f" d="M66 102h99v2H66z"/><ellipse fill="#a4c5eb" cx="89" cy="255" rx="147" ry="4"/><ellipse fill="#8c908e" cx="59" cy="141" rx="104" ry="1"/><path fill="#fff" d="M13 199h157v47H13z"/></g></svg>