<svg xmlns="http://www.w3.org/2000/svg" viewBox="0 0 2481 3470"><filter id="b"><feGaussianBlur stdDeviation="12" /></filter><path fill="#c59376" d="M0 0h2480v3470H0z"/><g filter="url(#b)" transform="translate(6.8 6.8) scale(13.55469)" fill-opacity=".5"><ellipse fill="#edecc9" cx="53" cy="142" rx="36" ry="94"/><ellipse fill="#b10222" cx="91" cy="25" rx="43" ry="43"/><ellipse fill="#eaf1cd" rx="1" ry="1" transform="rotate(-168.9 69.4 63.8) scale(33.96552 97.5539)"/><ellipse fill="#8c1900" rx="1" ry="1" transform="matrix(-16.35583 -.0571 .6248 -178.99283 179 137.7)"/><ellipse fill="#781a00" rx="1" ry="1" transform="matrix(.10416 11.9359 -159.81668 1.3947 71.6 247)"/><ellipse fill="#a22b00" cx="6" cy="160" rx="13" ry="182"/><path fill="#0045dc" d="M8 18h51v11H8z"/><path fill="#0058ec" d="M125 17h50v11h-50z"/><ellipse fill="red" cx="27" cy="33" rx="27" ry="6"/><ellipse fill="red" cx="153" cy="33" rx="27" ry="6"/><path fill="#fcf4b6" d="M122 233h40l1-119z"/><path fill="#fff0bd" d="M20 40h40v66H20z"/><path fill="#e7ffff" d="M125 9h50v9h-50z"/><path fill="#ff000c" d="M77.1 59.9L64 40.5 63-16l-4.4 85.2z"/><ellipse fill="#d5cab1" cx="87" cy="215" rx="69" ry="21"/><path fill="#ceffff" d="M11 9h43v10H11z"/><ellipse fill="#c33c06" cx="150" cy="3" rx="172" ry="5"/><ellipse fill="#8b4a4b" cx="86" cy="79" rx="59" ry="4"/><ellipse fill="#fff6c6" cx="92" cy="70" rx="70" ry="6"/><path fill="#ff000d" d="M104 40h19v25h-19z"/><ellipse fill="#c5b6a0" cx="92" cy="153" rx="40" ry="75"/><path fill="#b3c5ab" d="M67 29h48v9H67z"/></g></svg>