<svg xmlns="http://www.w3.org/2000/svg" viewBox="0 0 2481 3470"><filter id="b"><feGaussianBlur stdDeviation="12" /></filter><path fill="#edeaf0" d="M0 0h2480v3470H0z"/><g filter="url(#b)" transform="translate(6.8 6.8) scale(13.55469)" fill-opacity=".5"><ellipse fill="#c3c1c3" cx="48" cy="98" rx="105" ry="16"/><path fill="#9c9f99" d="M104.2 14.6l50 .8-.4 20-50-.8z"/><ellipse fill="#fff" cx="108" cy="170" rx="175" ry="27"/><ellipse fill="#ba67ff" cy="124" rx="7" ry="182"/><ellipse fill="#bbbeb8" cx="103" cy="237" rx="55" ry="7"/><ellipse fill="#fff" cx="44" cy="57" rx="37" ry="27"/><ellipse fill="#fff" cx="147" cy="59" rx="141" ry="24"/><ellipse fill="#fff" cx="14" cy="92" rx="8" ry="180"/><ellipse fill="#a9aca6" cx="90" cy="140" rx="75" ry="5"/><path fill="#484b45" d="M21 29h84v2H21z"/><ellipse fill="#8d908b" cx="114" cy="122" rx="92" ry="2"/><ellipse fill="#c5bbcd" cx="182" cy="121" rx="7" ry="182"/><ellipse cy="233" rx="112" ry="1"/><ellipse fill="#fff" cx="117" cy="216" rx="111" ry="14"/><ellipse fill="#828380" cx="93" cy="66" rx="37" ry="2"/><path fill="#c889ff" d="M73 250h95v6H73z"/><ellipse fill="#fff" cx="160" cy="106" rx="16" ry="69"/><ellipse fill="#c084ee" cx="74" rx="171" ry="5"/><path fill="#fff" d="M24 4l98 10L19 31z"/><path fill="#737473" d="M78 136h81v2H78z"/><ellipse fill="#838680" cx="87" cy="127" rx="64" ry="2"/><ellipse fill="#8e908c" cx="91" cy="96" rx="67" ry="2"/></g></svg>