<svg xmlns="http://www.w3.org/2000/svg" viewBox="0 0 93 133"><filter id="b"><feGaussianBlur stdDeviation="12" /></filter><path fill="#edebe8" d="M0 0h93v133H0z"/><g filter="url(#b)" transform="translate(.5 .5)" fill-opacity=".5"><ellipse fill="#d39d39" cx="70" cy="1" rx="76" ry="2"/><ellipse fill="#faffff" rx="1" ry="1" transform="matrix(4.13844 31.86424 -39.74175 5.16155 51.2 97)"/><path fill="#cd9020" d="M91 2h2v131h-2z"/><path fill="#c58000" d="M0 130h91v2H0z"/><ellipse fill="#cdd0d3" rx="1" ry="1" transform="matrix(43.37592 .45425 -.15054 14.37462 41.3 55.2)"/><path fill="#daa94b" d="M-16 89l17 53V32z"/><ellipse fill="#9da2a4" cx="45" cy="12" rx="23" ry="3"/><ellipse fill="#fdffff" cx="29" cy="106" rx="29" ry="23"/><ellipse fill="#cad8f8" rx="1" ry="1" transform="matrix(6.13454 9.0267 -9.5646 6.5001 65 91.2)"/><ellipse fill="#fff" cx="42" cy="28" rx="47" ry="8"/><path fill="#d19a35" d="M-12 2L2 3l-3 50z"/><path fill="#fff" d="M2 5h6v122H2z"/><path fill="#fff" d="M1 49h89v6H1z"/><path fill="#afb1b1" d="M9 37h60v4H9z"/><ellipse fill="#f8f7f7" cx="45" rx="59" ry="1"/><ellipse fill="#868888" cx="24" cy="58" rx="62" ry="1"/><ellipse fill="#fff" cx="42" cy="7" rx="48" ry="3"/><ellipse fill="#fdffff" rx="1" ry="1" transform="rotate(163.8 38.1 16.4) scale(10.96432 19.30256)"/><ellipse fill="#a0a4a4" cx="56" cy="63" rx="48" ry="1"/><ellipse fill="#fff" cx="34" cy="13" rx="32" ry="1"/><ellipse fill="#b6bbbe" cx="46" cy="16" rx="19" ry="2"/><path fill="#c0c3c5" d="M8 75h24v6H8z"/></g></svg>