<svg xmlns="http://www.w3.org/2000/svg" viewBox="0 0 93 133"><filter id="b"><feGaussianBlur stdDeviation="12" /></filter><path fill="#edebe8" d="M0 0h93v133H0z"/><g filter="url(#b)" transform="translate(.5 .5)" fill-opacity=".5"><ellipse fill="#f8fcff" rx="1" ry="1" transform="matrix(-3.6525 -33.27307 54.98707 -6.03612 37.3 95.4)"/><path fill="#c68302" d="M0 130h93v2H0z"/><path fill="#cb8c18" d="M91 3h2v127h-2z"/><path fill="#c5c9cd" d="M10 36h56v29H10z"/><ellipse fill="#d29d38" cx="31" cy="1" rx="65" ry="2"/><path fill="#9ea2a5" d="M25 10h45v6H25z"/><ellipse fill="#d5a345" rx="1" ry="1" transform="rotate(90.2 -24.2 25.1) scale(88.42803 1)"/><path fill="#feffff" d="M3.3 10.5L108 34 9.4 37.7 2.6 63.8z"/><path fill="#fdffff" d="M4 103h85v26H4z"/><path fill="#c8d7f8" d="M55 81h17v22H55z"/><ellipse fill="#fff" cx="48" cy="52" rx="42" ry="3"/><path fill="#b7b8b9" d="M8 73l7 7 20-5z"/><path fill="#fff" d="M67 4h24v32H67z"/><path fill="#f9fafe" d="M-28.5 1l91-3v1l-91 3z"/><path fill="#a9aeb0" d="M62 42h23v2H62z"/><ellipse fill="#797c7d" cx="50" cy="58" rx="35" ry="1"/><path fill="#d0d3d4" d="M71.2 11.8l-50.5 2.5L47.8 22l21.8-7.5z"/><path fill="#fff" d="M3 4h80v6H3z"/><path fill="#b6b8b7" d="M9 37h63v4H9z"/><ellipse fill="#878b8c" cx="41" cy="32" rx="13" ry="1"/><path fill="#fff" d="M47 60h35v3H47z"/><path fill="#fdffff" d="M4 24h36v10H4z"/></g></svg>