<svg xmlns="http://www.w3.org/2000/svg" viewBox="0 0 2481 3470"><filter id="b"><feGaussianBlur stdDeviation="12" /></filter><path fill="#ebe9d5" d="M0 0h2480v3470H0z"/><g filter="url(#b)" transform="translate(6.8 6.8) scale(13.55469)" fill-opacity=".5"><ellipse fill="#265145" cx="91" cy="53" rx="17" ry="11"/><path fill="#cda557" d="M148 220h27v26h-27z"/><path fill="#d1ad63" d="M143 9h32v27h-32z"/><ellipse fill="#d2ae65" rx="1" ry="1" transform="matrix(17.30646 11.47518 -6.208 9.36268 25.4 231.5)"/><ellipse fill="#fff" cx="140" cy="156" rx="28" ry="47"/><path fill="#d1ad61" d="M7 8h28v28H7z"/><ellipse fill="#fffffe" cx="43" cy="111" rx="28" ry="92"/><ellipse fill="#d3b571" cx="11" cy="79" rx="4" ry="182"/><path d="M0 255h183v1H0z"/><path fill="#d0ad62" d="M25 9h118v8H25z"/><ellipse fill="#94d4cf" cx="95" cy="105" rx="69" ry="7"/><ellipse fill="#fffffb" rx="1" ry="1" transform="matrix(-18.28315 15.4563 -21.8753 -25.87612 134.4 46)"/><path fill="#ceab5d" d="M168 64h7v160h-7z"/><path fill="#a2a49e" d="M65.3 144l-.5-14 56-2 .4 14z"/><path fill="#d4b775" d="M13 237h142v9H13z"/><path fill="#757776" d="M64 192h61v3H64z"/><path fill="#7b8969" d="M105.3 33.5l4.2 26.7-14.8 2.3-4.2-26.7z"/><path fill="#fff" d="M57 133h94v5H57z"/><path fill="#fffff9" d="M-16-15L6 192 8 11l105.7-8.9z"/><path fill="#fffffc" d="M153.5 133.5v-89h13v89z"/><path fill="#cfad64" d="M168 34h7v34h-7z"/><ellipse fill="#8a8b89" cx="117" cy="80" rx="35" ry="2"/></g></svg>