<svg xmlns="http://www.w3.org/2000/svg" viewBox="0 0 172 243"><filter id="b"><feGaussianBlur stdDeviation="12" /></filter><path fill="#dee4ed" d="M0 0h172v243H0z"/><g filter="url(#b)" transform="translate(.5 .5)" fill-opacity=".5"><ellipse fill="#00007c" cx="67" cy="41" rx="171" ry="9"/><ellipse fill="#fff" rx="1" ry="1" transform="rotate(89 -47.9 149) scale(41.0907 147.38124)"/><path fill="#0044af" d="M19 34h145v17H19z"/><ellipse fill="#fff" cx="73" cy="70" rx="171" ry="20"/><path fill="#fff" d="M165.5 33h-117V7h117z"/><ellipse fill="#afc1df" cx="171" cy="120" rx="7" ry="171"/><ellipse fill="#fff" cx="20" cy="168" rx="14" ry="118"/><path fill="#fff" d="M99 231l64 3 1-179z"/><path fill="#003c9b" d="M3 53l7-23 23 13z"/><ellipse fill="#b3c5e1" cx="3" cy="37" rx="4" ry="171"/><ellipse fill="#e5d7ce" cx="57" cy="127" rx="32" ry="39"/><ellipse fill="#8ab0d2" cx="28" cy="22" rx="41" ry="5"/><ellipse fill="#98b9df" cx="85" cy="242" rx="171" ry="8"/><path fill="#afd7ee" d="M73 190h32v30H73z"/><ellipse fill="#e8dad1" rx="1" ry="1" transform="matrix(24.22049 21.78725 -19.94841 22.17629 121.4 118)"/><ellipse fill="#fff" cx="90" cy="70" rx="76" ry="20"/><path fill="#fff" d="M9 166h66v68H9z"/><path fill="#005bb3" d="M56 33h111v17H56z"/><path fill="#eff5f6" d="M164.4 52.9l3.2-30.8 10 1-3.2 30.8z"/><ellipse fill="#afbedc" cx="3" cy="191" rx="4" ry="49"/><path fill="#fbfffe" d="M-5.5 50.5v-19h11v19z"/><ellipse fill="#fff" cx="21" cy="29" rx="147" ry="4"/></g></svg>