<svg xmlns="http://www.w3.org/2000/svg" viewBox="0 0 94 133"><filter id="b"><feGaussianBlur stdDeviation="12" /></filter><path fill="#e9e5e5" d="M0 0h94v133H0z"/><g filter="url(#b)" transform="translate(.5 .5)" fill-opacity=".5"><path fill="#05000b" d="M43.6 130.5l-40.7-5 1.5-12 40.7 5z"/><ellipse fill="#8b889a" cx="54" cy="123" rx="73" ry="7"/><ellipse fill="#fcfaf9" rx="1" ry="1" transform="matrix(-.8393 -66.05258 52.15142 -.66266 37 52.6)"/><path fill="#313434" d="M30 43h41v3H30z"/><ellipse fill="#b8654c" cx="89" cy="40" rx="1" ry="89"/><ellipse fill="#e39783" cx="4" cy="56" rx="2" ry="86"/><path fill="#dee9ee" d="M39.2 156.8l-7.9-25.9 77.5-23.7 7.9 25.9z"/><ellipse fill="#de937d" cx="56" cy="4" rx="63" ry="2"/><path fill="#4a4550" d="M7 127l-5-18 48 15z"/><ellipse fill="#e8ab9b" cx="3" cy="87" rx="2" ry="93"/><ellipse fill="#9b9fab" cx="28" cy="15" rx="18" ry="3"/><path fill="#fff" d="M8 20h80v22H8z"/><path fill="#feffff" d="M22 90h65v25H22z"/><ellipse fill="#959899" cx="34" cy="68" rx="19" ry="1"/><ellipse fill="#222529" rx="1" ry="1" transform="rotate(100.5 -4 33.6) scale(1.84995 1)"/><path fill="#fff" d="M45 7h44v34H45z"/><ellipse fill="#de9f8e" rx="1" ry="1" transform="matrix(0 -91.41827 1.10766 0 90.9 70.5)"/><path fill="#f8b097" d="M6 128h83v3H6z"/><path fill="#c2c7d5" d="M60 98h26v6H60z"/><path fill="#fff" d="M5 7h8v104H5z"/><path fill="#9ce7ff" d="M85 124l-37 2 37-13z"/><path fill="#fff" d="M63 79h26v14H63z"/></g></svg>