<svg xmlns="http://www.w3.org/2000/svg" viewBox="0 0 2481 3470"><filter id="b"><feGaussianBlur stdDeviation="12" /></filter><path fill="#bcc8d3" d="M0 0h2480v3470H0z"/><g filter="url(#b)" transform="translate(6.8 6.8) scale(13.55469)" fill-opacity=".5"><ellipse fill="#236084" cx="79" cy="242" rx="149" ry="8"/><path fill="#000b4a" d="M92 83L66 50l50 1z"/><ellipse fill="#fff" cx="138" cy="64" rx="24" ry="44"/><ellipse fill="#337699" cx="14" cy="124" rx="8" ry="178"/><path fill="#2e6788" d="M19 6h160v15H19z"/><ellipse fill="#fffdfe" cx="46" cy="64" rx="25" ry="45"/><ellipse fill="#3d7e9f" rx="1" ry="1" transform="matrix(.92561 -143.31658 7.5156 .04854 170.3 132.8)"/><path fill="#ffe9ed" d="M65 15h41v37H65z"/><path fill="#fff" d="M4.2 250.3l2.5-231L-16 271l174.6-19.3z"/><ellipse fill="#ede0ec" cx="87" cy="209" rx="69" ry="30"/><path fill="#fff" d="M177 257V75h10v182z"/><ellipse fill="#fff" rx="1" ry="1" transform="rotate(179.6 43.9 1) scale(135.18446 3.82955)"/><ellipse fill="#ddd3d7" cx="107" cy="135" rx="55" ry="55"/><path fill="#fff" d="M178 0h5v256h-5z"/><ellipse fill="#fff" cx="2" cy="127" rx="4" ry="182"/><path fill="#fff" d="M93 251h90v5H93z"/><ellipse fill="#00142a" cx="91" cy="56" rx="23" ry="4"/><ellipse fill="#569dc8" cx="91" cy="71" rx="10" ry="14"/><path fill="#eff0f2" d="M160 230l3-76-55 78z"/><path fill="#fff4f6" d="M55 34l38 58-71-9z"/><ellipse fill="#5a6487" cx="71" cy="204" rx="39" ry="2"/><path fill="#3d6d8c" d="M28 236h50v15H28z"/></g></svg>