<svg xmlns="http://www.w3.org/2000/svg" viewBox="0 0 172 243"><filter id="b"><feGaussianBlur stdDeviation="12" /></filter><path fill="#dee4ed" d="M0 0h172v243H0z"/><g filter="url(#b)" transform="translate(.5 .5)" fill-opacity=".5"><path fill="#00007c" d="M0 33h164v18H0z"/><ellipse fill="#fff" rx="1" ry="1" transform="rotate(-177.1 33.3 94.5) scale(171 44.43707)"/><path fill="#0045ad" d="M7 34h165v16H7z"/><ellipse fill="#fff" cx="81" cy="70" rx="170" ry="20"/><path fill="#fff" d="M5.9 32.7l-.8 21-11-.4.8-21z"/><ellipse fill="#9ab1db" cx="4" cy="128" rx="3" ry="171"/><path fill="#fff" d="M139 0L20 32h156z"/><ellipse fill="#e8dad2" rx="1" ry="1" transform="matrix(-61.98949 22.48083 -12.14043 -33.47648 90.7 126.2)"/><ellipse fill="#fff" cx="16" cy="130" rx="11" ry="80"/><path fill="#afbedd" d="M165 4h7v239h-7z"/><ellipse fill="#fff" cx="157" cy="121" rx="9" ry="72"/><ellipse fill="#a4d1ec" cx="89" cy="204" rx="16" ry="17"/><ellipse fill="#fff" cx="39" cy="202" rx="34" ry="34"/><ellipse fill="#6096cc" cx="9" cy="20" rx="66" ry="3"/><ellipse fill="#fff" rx="1" ry="1" transform="rotate(7.9 -88.6 751.5) scale(62.65693 9.13518)"/><ellipse fill="#fff" cx="133" cy="198" rx="32" ry="38"/><ellipse fill="#9bbbe1" cx="103" cy="241" rx="143" ry="7"/><path fill="#fff" d="M7 51h155v39H7z"/><path fill="#0056b3" d="M57 34h109v15H57z"/><path fill="#94b7db" d="M6 2h163v5H6z"/><ellipse fill="#fff" cx="77" cy="178" rx="73" ry="14"/><path fill="#f5f1f2" d="M165 35h7v16h-7z"/></g></svg>