<svg xmlns="http://www.w3.org/2000/svg" viewBox="0 0 94 133"><filter id="b"><feGaussianBlur stdDeviation="12" /></filter><path fill="#e9e5e5" d="M0 0h94v133H0z"/><g filter="url(#b)" transform="translate(.5 .5)" fill-opacity=".5"><path fill="#0d000c" d="M52 124l-39 5-29-24z"/><path fill="#868ea8" d="M30 117h61v13H30z"/><ellipse fill="#fbf8f7" rx="1" ry="1" transform="matrix(-59.648 -11.93524 16.97182 -84.81903 64 32)"/><ellipse fill="#eb9881" cx="3" cy="44" rx="2" ry="93"/><ellipse fill="#707474" cx="46" cy="44" rx="23" ry="3"/><ellipse fill="#e5b2a4" cx="92" cy="72" rx="4" ry="93"/><path fill="#fffdf5" d="M4.8 116l-3.7 12.7-1.3 13.6-.8-91.5z"/><ellipse fill="#dd927c" cx="66" cy="4" rx="73" ry="2"/><ellipse fill="#fff" cx="52" cy="34" rx="47" ry="9"/><path fill="#57515e" d="M4 127l-1-17 48 13z"/><ellipse fill="#fff" rx="1" ry="1" transform="rotate(-153.2 25.8 46.2) scale(23.23112 16.74469)"/><ellipse fill="#ffbea5" cx="64" cy="129" rx="72" ry="2"/><path fill="#b2f8ff" d="M49 125l41 1-9-12z"/><path fill="#979aa7" d="M13 12h26v5H13z"/><path fill="#ffece0" d="M0 110h5v23H0z"/><path fill="#e7eaeb" d="M11 46h54v43H11z"/><ellipse fill="#fff" cx="48" cy="29" rx="41" ry="13"/><ellipse fill="#fff" cx="93" cy="65" rx="1" ry="93"/><path fill="#f8fcff" d="M24 78h64v39H24z"/><path fill="#b27363" d="M89 58h1v70h-1z"/><path fill="#9a709b" d="M44 117h20v5H44z"/><ellipse fill="#d0cfce" cx="37" cy="87" rx="31" ry="3"/></g></svg>