<svg xmlns="http://www.w3.org/2000/svg" viewBox="0 0 500 699"><filter id="b"><feGaussianBlur stdDeviation="12" /></filter><path fill="#c59275" d="M0 0h499v699H0z"/><g filter="url(#b)" transform="translate(1.4 1.4) scale(2.73047)" fill-opacity=".5"><ellipse fill="#e3e9ca" rx="1" ry="1" transform="matrix(23.03585 -83.43764 66.96967 18.4893 88.6 150)"/><ellipse fill="#b00624" rx="1" ry="1" transform="rotate(165.4 44.2 17.1) scale(43.04095 46.60396)"/><ellipse fill="#891600" cx="182" cy="146" rx="20" ry="182"/><ellipse fill="#761900" cx="91" cy="254" rx="182" ry="20"/><ellipse fill="#fffacb" rx="1" ry="1" transform="rotate(8.8 -496.4 302.7) scale(21.20983 41.4076)"/><ellipse fill="#a22c00" cx="4" cy="157" rx="15" ry="182"/><path fill="#0051cb" d="M122.8 31.8L198 22l-45.3-5.8-28.7 3z"/><path fill="#ffffca" d="M155.6 40.2l8.5 69.5-33.7 4.1-8.5-69.5z"/><path fill="#006af4" d="M8 16h50v12H8z"/><path fill="#ecd9aa" d="M122 44h42v192h-42z"/><ellipse fill="red" cx="152" cy="32" rx="25" ry="6"/><ellipse fill="#fa0000" cx="24" cy="33" rx="32" ry="6"/><path fill="#eaffff" d="M124 9h49v8h-49z"/><ellipse fill="#efdfb0" cx="42" cy="212" rx="24" ry="24"/><path fill="#c22a00" d="M12 0h163v7H12z"/><path fill="#efffff" d="M28.4 6l41 14.2-43.4-3-19.3-.6z"/><path fill="#864243" d="M60 76h85v8H60z"/><path fill="#005ebf" d="M127 18h47v10h-47z"/><path fill="#ff000b" d="M59 28l2 34 27 1z"/><path fill="#b6bba4" d="M66 29h50v10H66z"/><path fill="#0049a2" d="M23 15.3L59 23l-2 9.7L20.9 25z"/><path fill="#f5d8a7" d="M19 39h17v190H19z"/></g></svg>