<svg xmlns="http://www.w3.org/2000/svg" viewBox="0 0 93 133"><filter id="b"><feGaussianBlur stdDeviation="12" /></filter><path fill="#dfdedb" d="M0 0h93v133H0z"/><g filter="url(#b)" transform="translate(.5 .5)" fill-opacity=".5"><ellipse fill="#f6f7f9" rx="1" ry="1" transform="rotate(-2.1 3015.2 -1588.6) scale(92 20.6792)"/><ellipse fill="#bcbdbe" cx="37" cy="68" rx="48" ry="13"/><path fill="#9fa0a4" d="M67 33L80 8l-40 9z"/><path fill="#3c3e41" d="M8 31h71v2H8z"/><ellipse fill="#787778" cx="27" cy="18" rx="48" ry="2"/><path fill="#fbfcff" d="M30 21h29v31H30z"/><path fill="#c6c5c5" d="M29 6L19 30l-35-11z"/><path fill="#d9ceaf" d="M89 0h4v132h-4z"/><path fill="#fffffc" d="M16 18L3 10 1 21z"/><path fill="#fcfeff" d="M4.8 56.9l-.6-17 21-.8.6 17z"/><path fill="#f5f5f6" d="M19.4 7.4l34.8 10.8 8.6-1.1-4.4-13.3z"/><ellipse fill="#5b5752" cx="33" cy="32" rx="50" ry="1"/><ellipse fill="#7b7b7d" cx="70" cy="84" rx="58" ry="1"/><path fill="#ddd1b0" d="M4 61l-1 69-19-4z"/><ellipse fill="#8d8e8f" cx="57" cy="57" rx="45" ry="1"/><ellipse fill="#fafafd" cx="67" cy="38" rx="24" ry="5"/><path fill="#fff" d="M26 61h67v3H26z"/><ellipse fill="#e1d8bf" cy="61" rx="5" ry="85"/><ellipse fill="#fff" cx="66" cy="55" rx="47" ry="2"/><path fill="#cbbb95" d="M0 130h91v2H0z"/><path fill="#9e9e9f" d="M12 99h26v2H12z"/><ellipse fill="#fbffff" cx="5" cy="31" rx="1" ry="92"/></g></svg>