<svg xmlns="http://www.w3.org/2000/svg" viewBox="0 0 2481 3470"><filter id="b"><feGaussianBlur stdDeviation="12" /></filter><path fill="#dde4ec" d="M0 0h2480v3470H0z"/><g filter="url(#b)" transform="translate(6.8 6.8) scale(13.55469)" fill-opacity=".5"><path fill="#000071" d="M6 35h171v18H6z"/><ellipse fill="#004db0" cx="90" cy="43" rx="173" ry="8"/><ellipse fill="#fff" rx="1" ry="1" transform="matrix(.01532 -43.94767 181.99999 .06344 79.3 205)"/><ellipse fill="#fff" cx="38" cy="76" rx="182" ry="23"/><path fill="#fff" d="M49 8h123v26H49z"/><ellipse fill="#abc0d9" cx="178" cy="58" rx="4" ry="182"/><ellipse fill="#a5bad8" cx="4" cy="184" rx="4" ry="182"/><path fill="#fff" d="M8 74L7 247l79-3z"/><ellipse fill="#e5dace" cx="77" cy="141" rx="52" ry="35"/><path fill="#4b8ac2" d="M5 19h72v5H5z"/><ellipse fill="#fff" cx="165" cy="161" rx="10" ry="108"/><ellipse fill="#a5d4e9" cx="96" cy="215" rx="18" ry="18"/><ellipse fill="#fff" cx="139" cy="205" rx="31" ry="44"/><path fill="#0056ad" d="M10 35h118v18H10z"/><ellipse fill="#82aed8" cx="72" cy="250" rx="147" ry="3"/><path fill="#004aac" d="M124 35h49v18h-49z"/><path fill="#d1dfea" d="M0 91L-16 5l28-7z"/><path fill="#fff" d="M8.8 90.9l-.6-36 101-1.8.6 36z"/><ellipse fill="#e3dbd2" cx="122" cy="122" rx="39" ry="29"/><ellipse fill="#a5c4dd" cx="88" rx="177" ry="7"/><ellipse fill="#b0c2df" cx="177" cy="127" rx="3" ry="156"/><ellipse fill="#fff" cx="18" cy="121" rx="11" ry="68"/></g></svg>