<svg xmlns="http://www.w3.org/2000/svg" viewBox="0 0 172 243"><filter id="b"><feGaussianBlur stdDeviation="12" /></filter><path fill="#ede9d7" d="M0 0h172v243H0z"/><g filter="url(#b)" transform="translate(.5 .5)" fill-opacity=".5"><path fill="#49644e" d="M72.5 36h27v24h-27z"/><path fill="#d5b16d" d="M164 40.4l-28-2 2-26.8 28 2z"/><path fill="#d1aa63" d="M8 233l-1-32 47 30z"/><path fill="#d1a960" d="M140 207h25v27h-25z"/><path d="M2 242h167v1H2z"/><ellipse fill="#d1a95d" cx="19" cy="24" rx="13" ry="13"/><ellipse fill="#fff" cx="126" cy="151" rx="33" ry="33"/><ellipse fill="#fffffc" cx="38" cy="161" rx="24" ry="56"/><ellipse fill="#fff" cx="43" cy="64" rx="31" ry="31"/><ellipse fill="#d1af67" cx="12" cy="80" rx="2" ry="153"/><ellipse fill="#d6b575" cx="51" cy="13" rx="171" ry="4"/><path fill="#464449" d="M74 123h32v4H74z"/><ellipse fill="#fffffb" cx="128" cy="50" rx="29" ry="27"/><path fill="#fffff1" d="M34.3 41.5L37 16.9l59.2 1.6-2.3 25z"/><path fill="#cfa85c" d="M158 37h7v132h-7z"/><ellipse fill="#99d6d8" cx="80" cy="100" rx="70" ry="6"/><path fill="#d3b371" d="M32 226h124v7H32z"/><path fill="#cac7c3" d="M45 182h67v19H45z"/><path fill="#d5b36d" d="M165.7 172l.6 36h-8l-.6-36z"/><ellipse fill="#d8bb7f" cx="10" cy="116" rx="4" ry="107"/><path fill="#a2a09e" d="M119 135l-49-14-12 13z"/><ellipse fill="#48645f" cx="96" cy="53" rx="6" ry="9"/></g></svg>