<svg xmlns="http://www.w3.org/2000/svg" viewBox="0 0 172 245"><filter id="b"><feGaussianBlur stdDeviation="12" /></filter><path fill="#bcc4d3" d="M0 0h172v245H0z"/><g filter="url(#b)" transform="translate(.5 .5)" fill-opacity=".5"><path fill="#000444" d="M89 81L62 48l42-1z"/><ellipse fill="#31678a" cx="124" cy="234" rx="171" ry="8"/><ellipse fill="#fffafc" cx="129" cy="65" rx="26" ry="46"/><path fill="#2e6c8f" d="M154 104h15v125h-15z"/><ellipse fill="#fffcff" cx="42" cy="64" rx="24" ry="46"/><ellipse fill="#487795" rx="1" ry="1" transform="matrix(-.00443 -6.90237 112.59093 -.0723 87.9 9.7)"/><path fill="#33779c" d="M18.5 39v134h-15V39z"/><ellipse fill="#2b678b" cx="161" cy="53" rx="8" ry="52"/><ellipse fill="#f6ebf2" rx="1" ry="1" transform="rotate(-128.8 108.2 67.5) scale(38.38968 27.50838)"/><ellipse fill="#4884a5" cx="10" cy="199" rx="8" ry="35"/><ellipse fill="#ffebf0" cx="81" cy="29" rx="33" ry="17"/><path fill="#000029" d="M110.2 50l-7.2 9.5-7.2-5.4 7.2-9.6z"/><ellipse fill="#e3d8ec" rx="1" ry="1" transform="matrix(3.83332 -20.62491 48.6293 9.03818 65.5 210)"/><ellipse fill="#dbd0d8" cx="86" cy="127" rx="69" ry="50"/><ellipse fill="#fff" cx="1" cy="122" rx="3" ry="171"/><path fill="#fff" d="M169 0h3v245h-3z"/><path fill="#427e9e" d="M4 15h15v27H4z"/><path fill="#9798a0" d="M36 86h101v8H36z"/><path fill="#fff6fb" d="M26.3 86l62 .4-15-17.8-24-42z"/><path fill="#fff3f9" d="M56 35h99v13H56z"/><ellipse fill="#fff" cx="23" cy="243" rx="171" ry="2"/><path fill="#629dcf" d="M78.5 81.5l-2.6-19 10.6-9.9L101 64.1z"/></g></svg>