<svg xmlns="http://www.w3.org/2000/svg" viewBox="0 0 172 243"><filter id="b"><feGaussianBlur stdDeviation="12" /></filter><path fill="#ede9d7" d="M0 0h172v243H0z"/><g filter="url(#b)" transform="translate(.5 .5)" fill-opacity=".5"><ellipse fill="#2c534a" cx="85" cy="51" rx="17" ry="10"/><path d="M2 242h168v1H2z"/><ellipse fill="#d6b26f" rx="1" ry="1" transform="matrix(15.5973 10.48096 -6.76998 10.0748 152.6 21.9)"/><path fill="#cfa65c" d="M139 208h23v25h-23z"/><ellipse fill="#fff" rx="1" ry="1" transform="rotate(91.5 -54.8 92.8) scale(48.79779 22.804)"/><path fill="#d7b472" d="M8 206h32v27H8z"/><path fill="#d5b06a" d="M7 9h28v29H7z"/><ellipse fill="#fffffc" rx="1" ry="1" transform="matrix(1.17875 -58.43704 25.46637 .51369 133.3 159.9)"/><ellipse fill="#fefffb" cx="43" cy="72" rx="30" ry="53"/><ellipse fill="#d3b06b" cx="161" cy="135" rx="4" ry="147"/><path fill="#81c9c8" d="M29 96h116v9H29z"/><ellipse fill="#8d8c8d" rx="1" ry="1" transform="matrix(.11495 2.35037 -24.83483 1.21463 81.8 125.9)"/><ellipse fill="#dbc089" cx="106" cy="228" rx="91" ry="5"/><ellipse fill="#fffffc" cx="126" cy="50" rx="26" ry="26"/><ellipse fill="#c18820" cx="13" cy="62" rx="1" ry="162"/><ellipse fill="#6f6d6e" cx="90" cy="133" rx="32" ry="2"/><path fill="#d3af68" d="M31 9h107v8H31z"/><path fill="#758467" d="M85 37h16v23H85z"/><ellipse fill="#f7fcf3" cx="87" cy="158" rx="70" ry="23"/><path d="M2 242h167v1H2z"/><ellipse fill="#fffdf9" cx="57" cy="214" rx="27" ry="12"/><path fill="#d3b26e" d="M7 41h7v182H7z"/></g></svg>