<svg xmlns="http://www.w3.org/2000/svg" viewBox="0 0 172 243"><filter id="b"><feGaussianBlur stdDeviation="12" /></filter><path fill="#dee4ed" d="M0 0h172v243H0z"/><g filter="url(#b)" transform="translate(.5 .5)" fill-opacity=".5"><ellipse fill="#00007c" cx="96" cy="41" rx="171" ry="9"/><ellipse fill="#0052b4" cx="80" cy="43" rx="158" ry="8"/><ellipse fill="#fff" rx="1" ry="1" transform="rotate(-93.2 149.2 44.3) scale(39.64935 148.31001)"/><path fill="#fff" d="M187 50L7 51v82z"/><ellipse fill="#b6c6e1" cy="129" rx="7" ry="171"/><ellipse fill="#b5c4e0" cx="171" cy="121" rx="7" ry="171"/><ellipse fill="#dfd1ca" cx="54" cy="115" rx="28" ry="28"/><path fill="#fff" d="M190.5 7.5v25h-151v-25z"/><path fill="#0053ad" d="M6 33h159v16H6z"/><ellipse fill="#fffffd" cx="141" cy="77" rx="25" ry="25"/><ellipse fill="#fff" rx="1" ry="1" transform="matrix(-10.995 .17272 -1.41049 -89.78702 17.5 145.9)"/><ellipse fill="#79a8d2" rx="1" ry="1" transform="rotate(-88.7 28.6 -8.4) scale(4.01698 33.03847)"/><path fill="#afd7ee" d="M73 191h33v30H73z"/><ellipse fill="#e9ddd5" rx="1" ry="1" transform="matrix(11.3141 31.61642 -63.72844 22.80557 90.7 127.2)"/><ellipse fill="#a1c0e3" rx="1" ry="1" transform="matrix(82.82044 -.18981 .0119 5.1893 77.8 239.5)"/><ellipse fill="#fff" cx="133" cy="202" rx="33" ry="33"/><ellipse fill="#fff" cx="152" cy="137" rx="13" ry="86"/><ellipse fill="#c1cfe4" cx="168" cy="46" rx="4" ry="161"/><ellipse fill="#fff" cx="41" cy="199" rx="35" ry="35"/><ellipse fill="#fff" cx="62" cy="71" rx="57" ry="19"/><path fill="#fff" d="M-7.6 45.1L-1 34l8.7 5L1 50z"/><ellipse fill="#a9c4e1" cx="82" rx="170" ry="7"/></g></svg>