<svg xmlns="http://www.w3.org/2000/svg" viewBox="0 0 172 243"><filter id="b"><feGaussianBlur stdDeviation="12" /></filter><path fill="#ede9d7" d="M0 0h172v243H0z"/><g filter="url(#b)" transform="translate(.5 .5)" fill-opacity=".5"><path fill="#1f493f" d="M100.8 41l1.3 18-29 2L72 43z"/><path fill="#cfa65a" d="M31.8 33.6l-24 1.7-1.6-23 24-1.6z"/><path fill="#d2ab63" d="M138 10h28v26h-28z"/><path fill="#d2ac65" d="M9 206h26v27H9z"/><path d="M1 242h171v1H1z"/><ellipse fill="#fcfff9" cx="133" cy="111" rx="25" ry="92"/><ellipse fill="#fffffd" rx="1" ry="1" transform="rotate(-173.8 24.8 51.8) scale(28.74162 88.25145)"/><ellipse fill="#d3ae68" rx="1" ry="1" transform="matrix(9.41887 9.0442 -10.83824 11.28722 151.7 221.4)"/><ellipse fill="#c1d6d1" cx="117" cy="91" rx="34" ry="17"/><ellipse fill="#d9b97a" cx="77" cy="12" rx="72" ry="5"/><ellipse fill="#d4b371" cx="10" cy="112" rx="4" ry="142"/><ellipse fill="#d4b26e" cx="161" cy="104" rx="4" ry="148"/><path fill="#59575b" d="M68 123h42v4H68z"/><ellipse fill="#636061" cx="88" cy="133" rx="30" ry="2"/><path fill="#d3b16f" d="M140 224v8l-112 2v-8z"/><path fill="#8ecdca" d="M31 95h64v10H31z"/><ellipse fill="#f7fcf4" cx="86" cy="159" rx="71" ry="23"/><ellipse fill="#fff" cx="84" cy="2" rx="171" ry="7"/><path fill="#778364" d="M89.2 58.4L86 37.6l12.9-2 3.3 20.8z"/><path fill="#fffff6" d="M14 85h136v11H14z"/><ellipse fill="#fffff9" cx="125" cy="122" rx="21" ry="14"/><ellipse fill="#fffef1" cx="122" cy="45" rx="23" ry="29"/></g></svg>