<svg xmlns="http://www.w3.org/2000/svg" viewBox="0 0 2481 3470"><filter id="b"><feGaussianBlur stdDeviation="12" /></filter><path fill="#edeaf0" d="M0 0h2480v3470H0z"/><g filter="url(#b)" transform="translate(6.8 6.8) scale(13.55469)" fill-opacity=".5"><ellipse fill="#b8bbb5" cx="86" cy="96" rx="65" ry="14"/><ellipse fill="#989b95" cx="131" cy="25" rx="24" ry="11"/><ellipse fill="#fff" rx="1" ry="1" transform="matrix(4.70261 -40.6435 51.84674 5.99887 63.7 44.1)"/><ellipse fill="#a4a3a4" cx="65" cy="235" rx="98" ry="4"/><ellipse fill="#fff" rx="1" ry="1" transform="rotate(-91.9 122 48) scale(27.25762 102.56959)"/><ellipse fill="#fff" cx="111" cy="58" rx="105" ry="24"/><ellipse fill="#b865ff" cx="3" cy="65" rx="4" ry="182"/><ellipse fill="#787b75" cx="90" cy="122" rx="68" ry="2"/><ellipse fill="#7c7f79" cx="95" cy="142" rx="74" ry="2"/><path fill="#4b4c49" d="M15 29h94v2H15z"/><ellipse fill="#c990f9" cx="76" cy="255" rx="149" ry="6"/><ellipse fill="#fffffe" cx="40" cy="226" rx="29" ry="25"/><ellipse fill="#80837d" cx="87" cy="137" rx="74" ry="2"/><path d="M5 233h77v1H5z"/><ellipse fill="#bf84ee" cx="90" rx="146" ry="5"/><path fill="#5a5d57" d="M24 112h64v2H24z"/><path fill="#fff" d="M20 203h154v25H20z"/><path d="M110 233.5H82v-1h28z"/><ellipse fill="#fff" rx="1" ry="1" transform="matrix(15.13782 -1.45733 4.9013 50.9116 158.8 88)"/><path fill="#90938d" d="M26 200h129v3H26z"/><path fill="#444544" d="M114 234h69v2h-69z"/><path fill="#545552" d="M119 163.4l-54-1.8v-1l54 1.8z"/></g></svg>