<svg xmlns="http://www.w3.org/2000/svg" viewBox="0 0 172 243"><filter id="b"><feGaussianBlur stdDeviation="12" /></filter><path fill="#b6b7b0" d="M0 0h172v243H0z"/><g filter="url(#b)" transform="translate(.5 .5)" fill-opacity=".5"><ellipse rx="1" ry="1" transform="matrix(146.4588 .76575 -.13633 26.07557 83 34.3)"/><ellipse fill="#fff" cx="88" cy="137" rx="79" ry="79"/><path d="M13 33h151v27H13z"/><ellipse fill="#fff" cx="136" cy="86" rx="27" ry="27"/><path fill="#dcd3c8" d="M83.2 3.7l33 1.7-1.4 27-33-1.8z"/><path fill="#fff" d="M9 60h153v64H9z"/><ellipse cx="25" cy="20" rx="15" ry="15"/><ellipse fill="#a8a48a" cy="81" rx="12" ry="171"/><ellipse fill="#b4af92" rx="1" ry="1" transform="matrix(-8.91434 .12899 -1.0124 -69.96678 171 58.5)"/><path fill="#e1e2db" d="M74.4 226.9l-57.8 5-5-56.8 57.8-5z"/><path fill="#161216" d="M162.3 22.9l-36 1.2-.6-15 36-1.2z"/><path fill="#efebf7" d="M168 33.6l.6 3.8-15.8-11.2-34 5z"/><ellipse fill="#e4e4e0" cx="132" cy="198" rx="32" ry="32"/><ellipse fill="#939077" rx="1" ry="1" transform="matrix(-6.07069 -.06357 1.13438 -108.32171 168.5 138.7)"/><path fill="#0a0600" d="M16 33h142v26H16z"/><path fill="#85826b" d="M6.7-15.8l163.8 8.6-1.2 23L5.5 7.2z"/><ellipse fill="#908d72" cx="79" cy="242" rx="171" ry="10"/><path fill="#fff" d="M12 60h146v40H12z"/><ellipse fill="#bdbcaa" cx="2" cy="17" rx="10" ry="49"/><ellipse fill="#dbdcd6" rx="1" ry="1" transform="matrix(2.28291 27.83618 -69.06756 5.6644 93.4 203)"/><path fill="#0b0402" d="M117 10h8v26h-8z"/><path fill="#f5f1ec" d="M82 15h16v15H82z"/></g></svg>