<svg xmlns="http://www.w3.org/2000/svg" viewBox="0 0 2481 3470"><filter id="b"><feGaussianBlur stdDeviation="12" /></filter><path fill="#b5b8af" d="M0 0h2480v3470H0z"/><g filter="url(#b)" transform="translate(6.8 6.8) scale(13.55469)" fill-opacity=".5"><ellipse cx="80" cy="33" rx="182" ry="30"/><ellipse fill="#fff" cx="93" cy="149" rx="90" ry="90"/><ellipse cx="89" cy="46" rx="173" ry="16"/><ellipse fill="#fff" cx="90" cy="86" rx="182" ry="26"/><ellipse fill="#fff" cx="100" cy="21" rx="15" ry="11"/><path d="M7 5h31v53H7z"/><ellipse fill="#959672" cy="97" rx="8" ry="182"/><ellipse fill="#8c8c65" cx="182" cy="108" rx="6" ry="182"/><path fill="#fff" d="M166 31l-11-11-20 11z"/><ellipse rx="1" ry="1" transform="rotate(-96.6 79.4 -27.2) scale(11.31376 58.56428)"/><ellipse fill="#fff" rx="1" ry="1" transform="rotate(161.2 53.2 61.3) scale(56.17611 38.59001)"/><ellipse fill="#000100" rx="1" ry="1" transform="rotate(-9.2 173.3 -932.4) scale(24.9736 10.75248)"/><ellipse fill="#dce0d4" cx="38" cy="215" rx="33" ry="33"/><ellipse fill="#838263" rx="1" ry="1" transform="matrix(.08018 8.39739 -132.02367 1.26066 118.3 0)"/><path d="M12 32h165v30H12z"/><ellipse fill="#e1e3db" cx="144" cy="212" rx="34" ry="34"/><ellipse fill="#fff" cx="66" cy="88" rx="60" ry="27"/><path fill="#83825f" d="M-4 249h161l-79 22z"/><path fill="#c2c3ad" d="M6.5-9v70h-13V-9z"/><path fill="#191406" d="M52.8.9l20.6 20.7.6 13.8-21.6-11.1z"/><ellipse rx="1" ry="1" transform="matrix(-4.3053 -7.67196 12.70286 -7.12851 26 21.2)"/><path fill="#9a9b85" d="M177 0h6v256h-6z"/></g></svg>