<svg xmlns="http://www.w3.org/2000/svg" viewBox="0 0 500 699"><filter id="b"><feGaussianBlur stdDeviation="12" /></filter><path fill="#dde4ec" d="M0 0h499v699H0z"/><g filter="url(#b)" transform="translate(1.4 1.4) scale(2.73047)" fill-opacity=".5"><path fill="#000079" d="M174.5 52.5h-181v-19h181z"/><ellipse fill="#fff" rx="1" ry="1" transform="rotate(-94.4 147.8 49.2) scale(47.65013 137.89434)"/><path fill="#0042a8" d="M6 35h167v17H6z"/><ellipse fill="#fff" rx="1" ry="1" transform="matrix(-126.05671 2.5571 -.43313 -21.35175 92.3 74.9)"/><ellipse fill="#b0c6dd" cx="3" cy="74" rx="5" ry="182"/><ellipse fill="#fff" cx="130" cy="21" rx="89" ry="14"/><ellipse fill="#fff" cx="17" cy="137" rx="11" ry="85"/><path fill="#69a0cc" d="M12 17h64v8H12z"/><ellipse fill="#e8ddd1" cx="83" cy="130" rx="50" ry="50"/><path fill="#a7d4e9" d="M80 200h30v31H80z"/><ellipse fill="#fff" rx="1" ry="1" transform="matrix(-10.30835 .30594 -1.83087 -61.68856 164.6 120.2)"/><path fill="#a9bdd7" d="M198 195l-24 64 2-143z"/><ellipse fill="#fff" cx="143" cy="207" rx="32" ry="42"/><ellipse fill="#fff" cx="78" cy="76" rx="71" ry="19"/><ellipse fill="#fff" cx="43" cy="212" rx="37" ry="37"/><ellipse fill="#0058b1" rx="1" ry="1" transform="matrix(42.86299 -6.94229 .94154 5.81324 119.8 44.6)"/><path fill="#8faad2" d="M175 1h5v118h-5z"/><path fill="#91b7db" d="M76 248h106v8H76z"/><path fill="#fff" d="M9 24h153v11H9z"/><path fill="#005bac" d="M7 36h109v17H7z"/><ellipse fill="#9fc0de" rx="1" ry="1" transform="matrix(-.21682 7.3093 -39.08736 -1.15947 40.4 255)"/><ellipse fill="#fff" cx="106" cy="187" rx="69" ry="14"/></g></svg>