<svg xmlns="http://www.w3.org/2000/svg" viewBox="0 0 495 277"><filter id="b"><feGaussianBlur stdDeviation="12" /></filter><path fill="#83857e" d="M0 0h495v276H0z"/><g filter="url(#b)" transform="translate(1 1) scale(1.9336)" fill-opacity=".5"><ellipse fill="#fff" rx="1" ry="1" transform="matrix(52.10216 -1.29971 .72848 29.20278 211.4 11.8)"/><ellipse rx="1" ry="1" transform="rotate(104 49.3 109.7) scale(52.67927 22.02806)"/><ellipse fill="#fffff9" cx="98" cy="23" rx="38" ry="38"/><path d="M66.3 37.2l2.3 45-48.9 2.6-2.3-45z"/><ellipse fill="#2e2727" cx="100" cy="115" rx="40" ry="57"/><ellipse fill="#cfd9c7" rx="1" ry="1" transform="matrix(-8.10638 -53.16108 36.10556 -5.50563 237 100.2)"/><ellipse fill="#bbcae3" cx="14" cy="19" rx="47" ry="20"/><ellipse rx="1" ry="1" transform="matrix(4.79452 -22.8176 11.02572 2.31676 127.7 71.9)"/><ellipse fill="#f4bdb9" rx="1" ry="1" transform="matrix(9.3787 9.23401 -12.35285 12.54642 132.3 110)"/><path fill="#514a28" d="M0 64h40v79H0z"/><path fill="#efffff" d="M176 1l119-4 1 32-119 4z"/><path d="M138 16h24v10h-24z"/><path fill="#111114" d="M111.4 80.8l15.7 71.4-4.8 5.8L88 122.6z"/><ellipse fill="#fff" cx="93" cy="142" rx="10" ry="10"/><path fill="#ffffca" d="M31 122l39-12-27-8z"/><path fill="#1e2227" d="M192 43l5 63-75 38z"/><path fill="#000007" d="M23 44h44v34H23z"/><ellipse fill="#e5cfdf" rx="1" ry="1" transform="rotate(-78.3 125.1 -41.4) scale(33.52048 6.56376)"/><ellipse fill="#ebf6ff" cx="72" cy="47" rx="6" ry="24"/><path fill="#daefbf" d="M102.2-34.3l48.7 36.7-39.1 52-48.7-36.8z"/><path fill="#f0cc70" d="M9 113L-3 98l42-8z"/><ellipse fill="#7e90d3" rx="1" ry="1" transform="rotate(-86.2 187.2 -48) scale(21.82979 47.63871)"/></g></svg>