<svg xmlns="http://www.w3.org/2000/svg" viewBox="0 0 495 277"><filter id="b"><feGaussianBlur stdDeviation="12" /></filter><path fill="#8a8f91" d="M0 0h495v276H0z"/><g filter="url(#b)" transform="translate(1 1) scale(1.9336)" fill-opacity=".5"><ellipse rx="1" ry="1" transform="matrix(5.1303 -48.00547 100.55512 10.74624 63.4 107.9)"/><ellipse fill="#fdffff" rx="1" ry="1" transform="matrix(-20.20533 70.28065 -86.32553 -24.81816 206.4 29.1)"/><ellipse rx="1" ry="1" transform="matrix(-125.445 17.85347 -3.20254 -22.50219 216.4 136)"/><ellipse fill="#fbffff" cx="47" cy="13" rx="48" ry="48"/><ellipse fill="#e4c090" cx="22" cy="110" rx="27" ry="27"/><ellipse cx="76" cy="102" rx="28" ry="44"/><ellipse fill="#d9ffff" rx="1" ry="1" transform="matrix(124.6067 60.51738 -20.28653 41.77044 208.9 24.8)"/><path d="M189 75h19v29h-19z"/><path fill="#000005" d="M119 66h24v43h-24z"/><ellipse fill="#fff" cx="111" cy="83" rx="7" ry="14"/><path fill="#62160c" d="M111.8 80l-22-50.8 5.5-12.9 27 1.4z"/><ellipse fill="#c7e8ff" rx="1" ry="1" transform="matrix(25.28835 22.6103 -6.83927 7.64934 174.3 102.9)"/><path fill="#cdefff" d="M121 0h61v62h-61z"/><ellipse fill="#dcffff" cx="250" cy="63" rx="41" ry="41"/><path fill="#200000" d="M0 60h66v27H0z"/><path fill="#ed967e" d="M121 111l29 13-56 6z"/><ellipse fill="#d8ecf9" cx="78" cy="36" rx="14" ry="26"/><ellipse fill="#0c0308" cx="82" cy="115" rx="30" ry="55"/><ellipse fill="#2e1114" cx="233" cy="137" rx="32" ry="32"/><path fill="#e1fbff" d="M114.9-24.3l14.3 20.5-40.1 28L74.8 3.9z"/><path d="M91.4 26.7l-.5 13L115.2 17l-18.6 1z"/><path fill="#a39ca2" d="M240.7 127.4l-19.5 8.4-11.6-27-8-.2z"/></g></svg>