<svg xmlns="http://www.w3.org/2000/svg" viewBox="0 0 495 277"><filter id="b"><feGaussianBlur stdDeviation="12" /></filter><path fill="#8a8f91" d="M0 0h495v276H0z"/><g filter="url(#b)" transform="translate(1 1) scale(1.9336)" fill-opacity=".5"><ellipse rx="1" ry="1" transform="matrix(78.02649 -2.99544 2.75344 71.7229 85.5 129)"/><ellipse fill="#fdffff" cx="216" cy="2" rx="103" ry="103"/><ellipse fill="#faffff" cx="49" cy="15" rx="46" ry="46"/><ellipse cx="255" cy="142" rx="91" ry="35"/><ellipse cx="78" cy="121" rx="31" ry="61"/><ellipse cx="13" cy="72" rx="89" ry="13"/><path fill="#061100" d="M185.6 108l3-33.8 19.8 1.7-3 34z"/><ellipse fill="#dbb889" rx="1" ry="1" transform="matrix(-25.05801 14.64272 -11.19415 -19.1565 24.5 110.6)"/><ellipse fill="#e0ffff" cx="255" cy="49" rx="55" ry="55"/><path fill="#611002" d="M109 75L88 22l32-7z"/><path fill="#ffe3e4" d="M121 61l-4 41-20-41z"/><ellipse fill="#c8f1ff" rx="1" ry="1" transform="rotate(-91.1 113.1 -55.2) scale(64.00333 20.85518)"/><ellipse fill="#dcfcff" cx="119" cy="2" rx="65" ry="15"/><ellipse fill="#d6c7b8" cx="195" cy="111" rx="13" ry="13"/><path fill="#fa9d83" d="M104 117h33v13h-33z"/><ellipse fill="#d5faff" cx="146" cy="40" rx="28" ry="28"/><path fill="#020115" d="M119 66h25v50h-25z"/><path fill="#dff1fe" d="M95.3 59l-24.6 4.4-6-34.5 24.6-4.3z"/><ellipse fill="#2e0802" rx="1" ry="1" transform="matrix(-1.70092 -12.55526 57.5275 -7.7935 25.8 74.5)"/><ellipse fill="#361d21" rx="1" ry="1" transform="rotate(-30.6 372.1 -364.3) scale(30.56823 39.76038)"/><ellipse fill="#1f0b07" cx="122" cy="142" rx="141" ry="11"/><ellipse fill="#dcffff" cx="239" cy="38" rx="24" ry="64"/></g></svg>