<svg xmlns="http://www.w3.org/2000/svg" viewBox="0 0 495 277"><filter id="b"><feGaussianBlur stdDeviation="12" /></filter><path fill="#83857e" d="M0 0h495v276H0z"/><g filter="url(#b)" transform="translate(1 1) scale(1.9336)" fill-opacity=".5"><ellipse fill="#fff" rx="1" ry="1" transform="matrix(63.6717 -3.2512 1.2227 23.94534 226.1 16.5)"/><ellipse rx="1" ry="1" transform="rotate(14.8 -255 692.5) scale(19.7691 54.33321)"/><ellipse fill="#fffffb" cx="99" cy="24" rx="37" ry="37"/><path d="M16 39h51v43H16z"/><ellipse fill="#302827" cx="99" cy="112" rx="41" ry="53"/><ellipse fill="#ced8c8" cx="239" cy="101" rx="41" ry="55"/><path fill="#000001" d="M104.2 104L116 61.5l22.6-17-2.3 44.1z"/><ellipse fill="#c5d4f8" cx="32" cy="20" rx="54" ry="12"/><ellipse fill="#f9d8e6" rx="1" ry="1" transform="matrix(-7.61891 28.83643 -7.18687 -1.89885 139.5 95.4)"/><ellipse fill="azure" cx="232" cy="14" rx="58" ry="17"/><path fill="#141018" d="M153 49h41v64h-41z"/><ellipse fill="#5c532b" rx="1" ry="1" transform="rotate(70.2 -82.5 71.5) scale(68.03224 31.68892)"/><path fill="#fffffc" d="M111 158l-16-29-15 6z"/><ellipse rx="1" ry="1" transform="matrix(.73522 -5.66087 14.88168 1.9328 150.5 21.3)"/><path fill="#0b080a" d="M126.8 158l-51.2-41.3 71.5 11.7-15.5 19.2z"/><ellipse fill="#000001" cx="46" cy="61" rx="19" ry="19"/><ellipse fill="#d7e9bd" rx="1" ry="1" transform="matrix(-64.45303 51.8533 -8.8796 -11.03723 131.2 6)"/><path fill="#ffffd5" d="M29 123l56-18-41 2z"/><path fill="#e3ebdd" d="M0 31h15v33H0z"/><path fill="#f0e8ee" d="M128 127l10-9-29-6z"/><ellipse fill="#8295da" rx="1" ry="1" transform="matrix(.48352 19.31709 -75.3912 1.8871 241 142)"/><path fill="#37222e" d="M219 32l34-1-6 8z"/></g></svg>