<svg xmlns="http://www.w3.org/2000/svg" viewBox="0 0 495 277"><filter id="b"><feGaussianBlur stdDeviation="12" /></filter><path fill="#8a8f91" d="M0 0h495v276H0z"/><g filter="url(#b)" transform="translate(1 1) scale(1.9336)" fill-opacity=".5"><ellipse rx="1" ry="1" transform="matrix(-22.8972 44.79183 -106.70632 -54.54734 107.4 128.6)"/><ellipse fill="#feffff" rx="1" ry="1" transform="matrix(16.32419 -75.66363 86.83006 18.73331 209 26.7)"/><ellipse fill="#fbffff" rx="1" ry="1" transform="rotate(-30.5 71.5 -84.5) scale(53.41269 28.6544)"/><ellipse cx="232" cy="142" rx="38" ry="38"/><ellipse rx="1" ry="1" transform="matrix(7.63461 -48.25876 24.58866 3.88996 81.5 107.6)"/><ellipse fill="#eeca98" cx="23" cy="107" rx="26" ry="21"/><ellipse cx="198" cy="88" rx="11" ry="16"/><ellipse fill="#dfffff" cx="255" cy="47" rx="57" ry="57"/><path fill="#000009" d="M170 158l-27-90-35-9z"/><path fill="#ccf8ff" d="M160 0h24v121h-24z"/><ellipse fill="#470300" cx="104" cy="31" rx="15" ry="15"/><ellipse fill="#d7f3fd" cx="89" cy="5" rx="255" ry="12"/><path fill="#100" d="M122 121L-16 59l111 1z"/><ellipse fill="#d7ffff" cx="143" cy="41" rx="26" ry="26"/><ellipse fill="#180000" cx="66" cy="142" rx="93" ry="13"/><path fill="#feddde" d="M115 101.5l3-.7 1.2-51.9-16.7 32.7z"/><path fill="#e2f2f8" d="M44 33h49v27H44z"/><path fill="#ffa88c" d="M124 111l18 10-49 10z"/><ellipse fill="#dcffff" rx="1" ry="1" transform="matrix(1.88574 49.08726 -28.02271 1.07652 242.3 50.9)"/><ellipse fill="#b65644" cx="106" cy="46" rx="13" ry="19"/><ellipse fill="#907856" rx="1" ry="1" transform="rotate(-159.8 15 58.4) scale(41.9709 14.54275)"/><ellipse fill="#c4c9bf" cx="31" cy="30" rx="60" ry="29"/></g></svg>