<svg xmlns="http://www.w3.org/2000/svg" viewBox="0 0 495 277"><filter id="b"><feGaussianBlur stdDeviation="12" /></filter><path fill="#6d646d" d="M0 0h495v276H0z"/><g filter="url(#b)" transform="translate(1 1) scale(1.9336)" fill-opacity=".5"><ellipse rx="1" ry="1" transform="matrix(-9.90875 -58.12796 74.17957 -12.64498 201.5 117.8)"/><ellipse fill="#ffffef" rx="1" ry="1" transform="matrix(162.81628 -.79877 .16058 32.73257 67.4 0)"/><ellipse fill="#e9f4ff" cx="78" cy="105" rx="43" ry="44"/><ellipse fill="#0e0000" rx="1" ry="1" transform="rotate(-16.7 212 -43.1) scale(55.26336 22.97243)"/><ellipse fill="#4d0000" cx="92" cy="23" rx="22" ry="13"/><ellipse fill="#0f0000" rx="1" ry="1" transform="rotate(-168 71.1 18.9) scale(37.05066 18.59924)"/><ellipse fill="#726ed4" rx="1" ry="1" transform="rotate(177.3 111.1 22.4) scale(51.24383 31.64639)"/><ellipse fill="#1c0f00" rx="1" ry="1" transform="matrix(-13.4858 53.93687 -24.01254 -6.00384 12.4 97.8)"/><ellipse fill="#000200" cx="218" cy="95" rx="64" ry="26"/><ellipse fill="#c3dcff" cx="61" cy="94" rx="23" ry="27"/><ellipse fill="#f0e5d7" cx="141" cy="14" rx="35" ry="18"/><path fill="#d5d7cb" d="M134.6 78.9l15 10.8 18.8-8.8-19.8-12.4z"/><path fill="#d5fe71" d="M175 36l63 2-68-21z"/><ellipse fill="#f2ede3" rx="1" ry="1" transform="matrix(52.53866 -11.122 3.29103 15.54635 32.2 13.4)"/><path fill="#cf8e94" d="M76 31h21v60H76z"/><path fill="#965569" d="M28.2 138.1l75.8 18.4-37.2-21.8-8.3-24z"/><path d="M255 92.3l-9-1.2 9-63.4 9 1.2z"/><ellipse fill="#2f180e" cx="142" cy="118" rx="28" ry="28"/><ellipse fill="#b87749" rx="1" ry="1" transform="matrix(-.7053 -3.99992 60.37062 -10.64497 201.7 127.6)"/><path fill="#daf1ff" d="M33.7 151.3l.2-39.7 10.9-32.3 5.2 21.2z"/><path fill="#3c1718" d="M95 33h77v30H95z"/><ellipse fill="#b0b6d1" rx="1" ry="1" transform="matrix(-16.64037 -7.83053 12.7926 -27.1851 107.4 89.6)"/></g></svg>