<svg xmlns="http://www.w3.org/2000/svg" viewBox="0 0 495 277"><filter id="b"><feGaussianBlur stdDeviation="12" /></filter><path fill="#928c88" d="M0 0h495v276H0z"/><g filter="url(#b)" transform="translate(1 1) scale(1.9336)" fill-opacity=".5"><ellipse rx="1" ry="1" transform="matrix(44.36274 -33.67315 77.69288 102.3566 26.8 127.1)"/><ellipse fill="#fff" rx="1" ry="1" transform="matrix(14.85442 -55.33455 44.39581 11.91794 214 22.5)"/><ellipse cx="15" cy="111" rx="32" ry="78"/><ellipse fill="#e4ede4" rx="1" ry="1" transform="matrix(25.98896 -.72819 1.76797 63.09853 58.2 28.4)"/><ellipse fill="#100008" rx="1" ry="1" transform="matrix(40.17726 80.9996 -9.2572 4.59174 145.8 27.8)"/><ellipse fill="#f8ffff" rx="1" ry="1" transform="matrix(-50.11263 37.61578 -25.27872 -33.6769 225.1 14.3)"/><ellipse fill="#f1e4dd" rx="1" ry="1" transform="rotate(104.3 68.9 150.2) scale(26.50977 47.93565)"/><path fill="#ebf3eb" d="M78 108l28-39 82 39z"/><ellipse fill="#f7ffee" cx="7" cy="10" rx="35" ry="25"/><ellipse fill="#9a3919" rx="1" ry="1" transform="matrix(-4.13517 22.5723 -55.52095 -10.17126 122.6 136.8)"/><ellipse fill="#6a443d" rx="1" ry="1" transform="rotate(-72.7 92.4 -80.5) scale(51.20638 25.31696)"/><path fill="#0b060c" d="M109 69.4l-29 31.8-8.7-4.8L84.1 70z"/><ellipse fill="#1c0500" rx="1" ry="1" transform="matrix(52.07881 2.72933 -.28718 5.47974 214.3 82.2)"/><path fill="#f3f3e7" d="M157.1 68.7l-22.7 8.8-23 22.4 59.2 1.6z"/><path fill="#460100" d="M118 0h22v33h-22z"/><path fill="#0d0909" d="M-16 40.5l41.2-8.3 25.1 21L-16 79z"/><path fill="#c6ccbd" d="M46 0h67v64H46z"/><ellipse fill="#000002" rx="1" ry="1" transform="matrix(30.34249 -8.8153 20.84287 71.74163 25.2 136.4)"/><ellipse fill="#e6ffff" rx="1" ry="1" transform="matrix(3.62579 -36.97862 28.27814 2.7727 198.5 40.3)"/><path fill="#322f40" d="M83 11h19v17H83z"/><path fill="#9f6b55" d="M76.2 90.4l35.1 67.6-60.6-39.5-.3-4.2z"/><path fill="#00030b" d="M173 98.6l-20.3-36.3 24.5.1 2.7 49.4z"/></g></svg>