<svg xmlns="http://www.w3.org/2000/svg" viewBox="0 0 495 277"><filter id="b"><feGaussianBlur stdDeviation="12" /></filter><path fill="#83857e" d="M0 0h495v276H0z"/><g filter="url(#b)" transform="translate(1 1) scale(1.9336)" fill-opacity=".5"><ellipse fill="#fff" cx="213" cy="16" rx="53" ry="25"/><ellipse rx="1" ry="1" transform="matrix(24.43354 3.95737 -6.87386 42.44046 173.6 77.4)"/><ellipse fill="#fffffb" cx="98" cy="27" rx="37" ry="34"/><ellipse fill="#232a23" cx="49" cy="75" rx="89" ry="29"/><ellipse fill="#2c2d2b" rx="1" ry="1" transform="matrix(-64.02567 .99651 -.37227 -23.91815 117.2 126.8)"/><ellipse fill="#d7debd" cx="236" cy="90" rx="43" ry="43"/><path d="M65.8 37.7l1.4 39-45 1.6-1.4-39z"/><ellipse fill="#bdcdeb" rx="1" ry="1" transform="rotate(-171 .6 7.2) scale(65.18281 18.10117)"/><path fill="#150b11" d="M106 79.5L98.7 158l37.9-86.2 4-30.9z"/><path fill="#fff" d="M67 23h10v48H67z"/><ellipse fill="#edffff" rx="1" ry="1" transform="matrix(-3.02146 -19.36115 57.91651 -9.03834 225.2 13)"/><path fill="#ffdbe9" d="M154.6 112.3l-10.4 4 5.6-71.5-25.4 81.6z"/><path d="M135.9 15.2l24-.4.2 14-24 .4z"/><ellipse fill="#f0f8e6" cy="47" rx="16" ry="17"/><ellipse fill="#837759" cx="32" cy="142" rx="70" ry="62"/><ellipse fill="#8aacff" rx="1" ry="1" transform="matrix(22.23094 12.42445 -9.6352 17.24016 240.6 142.2)"/><ellipse fill="#fffffc" rx="1" ry="1" transform="rotate(16.2 -442 393) scale(8.10151 8.01496)"/><path fill="#e1f6bd" d="M92 70l62-74-61 9z"/><path fill="#1e1a22" d="M140.3 110.6l48.1 2.9 9.5 4.4-13.5-87.6z"/><path fill="#d9d1ac" d="M48.6 127.2l-14.2-4.9 15-43.5 14.2 4.9z"/><ellipse fill="#353322" rx="1" ry="1" transform="matrix(-.20678 2.229 -61.62778 -5.71704 217.6 72)"/><ellipse fill="#44453c" rx="1" ry="1" transform="rotate(-160.6 21.8 69.3) scale(48.61943 25.25477)"/></g></svg>