<svg xmlns="http://www.w3.org/2000/svg" viewBox="0 0 495 277"><filter id="b"><feGaussianBlur stdDeviation="12" /></filter><path fill="#928c88" d="M0 0h495v276H0z"/><g filter="url(#b)" transform="translate(1 1) scale(1.9336)" fill-opacity=".5"><ellipse rx="1" ry="1" transform="matrix(47.22657 79.0027 -39.67583 23.71759 15.5 106.6)"/><ellipse fill="#fff" cx="213" cy="31" rx="48" ry="48"/><ellipse fill="#dde6d7" cx="75" cy="22" rx="44" ry="44"/><ellipse rx="1" ry="1" transform="matrix(-.6106 -74.61355 28.08452 -.22983 19.7 105.5)"/><ellipse fill="#240d11" rx="1" ry="1" transform="matrix(-12.14185 7.1521 -47.2176 -80.15957 138.1 22.5)"/><ellipse fill="#f8ffff" cx="211" cy="20" rx="44" ry="44"/><ellipse fill="#f0e1dc" cx="222" cy="126" rx="36" ry="36"/><ellipse fill="#fffffa" rx="1" ry="1" transform="matrix(-25.89831 9.99333 -5.49375 -14.23738 134.2 95.6)"/><ellipse fill="#742007" cx="100" cy="135" rx="69" ry="21"/><ellipse fill="#f6ffed" rx="1" ry="1" transform="matrix(34.67218 -19.38731 13.69265 24.48787 16.4 4.2)"/><ellipse fill="#c5cbcf" cx="59" cy="68" rx="21" ry="21"/><ellipse fill="#2b1200" cx="239" cy="85" rx="73" ry="7"/><ellipse fill="#190b0b" rx="1" ry="1" transform="rotate(148.8 20.9 57.1) scale(38.88198 7.12224)"/><ellipse fill="#6b4844" rx="1" ry="1" transform="matrix(-21.17493 -8.76594 19.2494 -46.49868 143.5 31.4)"/><ellipse fill="#333244" cx="94" cy="21" rx="11" ry="11"/><ellipse fill="#fff" rx="1" ry="1" transform="matrix(4.84727 -1.82262 8.9282 23.74464 162.5 92.4)"/><ellipse fill="#eaffff" cx="197" cy="33" rx="27" ry="45"/><path fill="#f3faee" d="M113.2 118.2l-33.4-19L125 64.6l-27 36.7z"/><path fill="#05283c" d="M235 57h15v15h-15z"/><path fill="#000003" d="M-16 123l84 22-84-134z"/><ellipse fill="#001320" rx="1" ry="1" transform="rotate(161.9 78.8 51.7) scale(6.17316 32.42647)"/><ellipse cx="176" cy="123" rx="9" ry="7"/></g></svg>