<svg xmlns="http://www.w3.org/2000/svg" viewBox="0 0 495 277"><filter id="b"><feGaussianBlur stdDeviation="12" /></filter><path fill="#6d646d" d="M0 0h495v276H0z"/><g filter="url(#b)" transform="translate(1 1) scale(1.9336)" fill-opacity=".5"><ellipse cx="208" cy="142" rx="85" ry="85"/><ellipse fill="#ffffef" rx="1" ry="1" transform="matrix(-.391 -32.47645 152.64739 -1.83782 78.6 0)"/><ellipse fill="#e9f2ff" rx="1" ry="1" transform="rotate(-136.2 58.3 35.2) scale(38.23143 46.94912)"/><ellipse fill="#090000" rx="1" ry="1" transform="matrix(8.65477 24.03955 -47.96088 17.26698 16.8 61.4)"/><ellipse fill="#712723" cx="91" cy="40" rx="30" ry="30"/><ellipse fill="#736bda" rx="1" ry="1" transform="matrix(3.117 -27.7887 49.67005 5.57139 222.2 41.5)"/><ellipse fill="#020608" rx="1" ry="1" transform="matrix(79.57454 39.89077 -7.1506 14.26408 180.7 71.5)"/><ellipse fill="#231200" cx="10" cy="120" rx="24" ry="79"/><ellipse fill="#fad6e7" cx="83" cy="47" rx="9" ry="17"/><ellipse fill="#f3efe6" cx="16" cy="8" rx="60" ry="24"/><path fill="#e8ff72" d="M178.3 24L234 36l-27.4 3.4-37-3.4z"/><ellipse fill="#c4dbff" rx="1" ry="1" transform="rotate(130.7 12.1 62) scale(19.7548 29.09191)"/><path fill="#a4999b" d="M79 71h86v16H79z"/><ellipse cx="254" cy="75" rx="8" ry="42"/><ellipse fill="#f2e7d8" cx="137" cy="7" rx="36" ry="25"/><ellipse fill="#020b03" rx="1" ry="1" transform="rotate(-4.5 1351.5 -2518.8) scale(52.42347 26.15829)"/><ellipse fill="#a697c4" rx="1" ry="1" transform="matrix(44.1049 16.6518 -8.84596 23.42991 76.3 140.7)"/><ellipse fill="#3a1519" cx="136" cy="47" rx="39" ry="17"/><path d="M35 110.4l-1.2 7.7 10.9-63.2L22 57.4z"/><path fill="#6620cb" d="M171 41h63v23h-63z"/><path fill="#732216" d="M61.9 136l-19 1-.8-15 19-1z"/><path fill="#491e19" d="M135 80l-26-65-29-5z"/></g></svg>