<svg xmlns="http://www.w3.org/2000/svg" viewBox="0 0 495 277"><filter id="b"><feGaussianBlur stdDeviation="12" /></filter><path fill="#928c88" d="M0 0h495v276H0z"/><g filter="url(#b)" transform="translate(1 1) scale(1.9336)" fill-opacity=".5"><ellipse rx="1" ry="1" transform="matrix(-31.62264 29.21513 -97.464 -105.49565 32.6 113.8)"/><ellipse fill="#fff" rx="1" ry="1" transform="matrix(44.5572 11.52327 -15.91227 61.5282 215.4 16.6)"/><ellipse cx="16" cy="122" rx="31" ry="90"/><ellipse fill="#e8f4e9" rx="1" ry="1" transform="matrix(-56.05537 -48.21522 18.51046 -21.5204 44 12.7)"/><ellipse fill="#f1ffff" cx="215" cy="25" rx="46" ry="46"/><ellipse fill="#4b2425" cx="144" cy="18" rx="26" ry="55"/><path d="M148 57h27l12 57z"/><ellipse fill="#f0e2dc" rx="1" ry="1" transform="rotate(-68.8 212.2 -111.2) scale(30.48915 57.46889)"/><ellipse fill="#f2f4e8" rx="1" ry="1" transform="matrix(-3.3474 -17.22083 41.37168 -8.04184 125.9 93.3)"/><ellipse fill="#9a3e20" rx="1" ry="1" transform="matrix(-63.5899 -10.86962 3.10517 -18.16601 119 133.9)"/><path fill="#c3c3bb" d="M39 73.2L30.4-2.1 133 41 44.6 87z"/><path fill="#200700" d="M167 80h89v11h-89z"/><path d="M76 84v21l32-38z"/><ellipse fill="#dae1cd" rx="1" ry="1" transform="matrix(-3.60676 -23.29824 105.86987 -16.38952 3.7 12)"/><path fill="#6b3520" d="M116 0h24v78h-24z"/><ellipse fill="#000004" rx="1" ry="1" transform="rotate(155.6 -1.7 53.6) scale(26.91829 75.98803)"/><ellipse fill="#eaffff" cx="197" cy="29" rx="29" ry="49"/><path fill="#0d0908" d="M10.8 43.7l15.5-14.3 17 20.3-10.8 14.1z"/><path fill="#8bb3bf" d="M222.1 77.7l-23.6-13.1L258.1 46l5 36.3z"/><path fill="#010000" d="M97 95h11v10H97z"/><path fill="#0a0000" d="M185.1 123.5l-13.7 10-6.5-9 13.7-10z"/><path fill="#1f2735" d="M238 57h12v20h-12z"/></g></svg>