<svg xmlns="http://www.w3.org/2000/svg" viewBox="0 0 495 277"><filter id="b"><feGaussianBlur stdDeviation="12" /></filter><path fill="#8a8f91" d="M0 0h495v276H0z"/><g filter="url(#b)" transform="translate(1 1) scale(1.9336)" fill-opacity=".5"><ellipse rx="1" ry="1" transform="matrix(-13.78282 37.2598 -101.08437 -37.39224 98.7 111.3)"/><ellipse fill="#feffff" cx="211" cy="12" rx="93" ry="93"/><ellipse cx="235" cy="142" rx="42" ry="36"/><ellipse fill="#fafffd" cx="44" cy="8" rx="53" ry="53"/><ellipse rx="1" ry="1" transform="matrix(-9.18922 46.89623 -29.56054 -5.79233 77.4 106.2)"/><path d="M192 75h15v32h-15z"/><ellipse fill="#d8b483" cx="20" cy="108" rx="32" ry="22"/><ellipse fill="#e2ffff" cx="255" cy="51" rx="53" ry="53"/><ellipse fill="#d1f5ff" cx="176" cy="105" rx="18" ry="18"/><ellipse fill="#1c0200" rx="1" ry="1" transform="matrix(-90.74692 -6.92248 1.23497 -16.18931 73.3 142)"/><ellipse fill="#fffffd" rx="1" ry="1" transform="matrix(-7.07971 -15.70202 4.77599 -2.1534 109.7 81.9)"/><ellipse fill="#00000a" rx="1" ry="1" transform="matrix(-9.41986 7.62168 -12.05548 -14.89972 133.5 79)"/><ellipse fill="#d0f9ff" cx="157" cy="33" rx="40" ry="40"/><ellipse fill="#490400" rx="1" ry="1" transform="matrix(12.78957 9.05552 -9.5482 13.48542 106 32)"/><ellipse fill="#e0fcff" rx="1" ry="1" transform="matrix(47.5361 -2.07547 .61744 14.1418 108.3 2.4)"/><ellipse fill="#1d0000" cx="21" cy="72" rx="81" ry="13"/><ellipse fill="#223806" cx="194" cy="89" rx="7" ry="16"/><path fill="#ddeffa" d="M92.5 31.1l-1 29-36-1.2 1-29z"/><path fill="#f49e88" d="M101 118h40v11h-40z"/><ellipse fill="#d9ffff" rx="1" ry="1" transform="rotate(82.1 93.6 161) scale(53.00554 29.57843)"/><ellipse fill="#2b0d0f" rx="1" ry="1" transform="matrix(10.09868 24.78622 -44.59585 18.16974 228.8 142)"/><path fill="#c1e5fc" d="M187.3 108.6l-22 9.7-14.6-32.9 22-9.7z"/></g></svg>