<svg xmlns="http://www.w3.org/2000/svg" viewBox="0 0 495 277"><filter id="b"><feGaussianBlur stdDeviation="12" /></filter><path fill="#928c88" d="M0 0h495v276H0z"/><g filter="url(#b)" transform="translate(1 1) scale(1.9336)" fill-opacity=".5"><ellipse rx="1" ry="1" transform="matrix(39.01036 -18.32077 32.94458 70.1488 21.3 106)"/><ellipse fill="#fff" cx="213" cy="17" rx="45" ry="62"/><ellipse rx="1" ry="1" transform="matrix(31.31176 -2.4093 5.98923 77.83695 20.5 111)"/><ellipse fill="#e3ece3" rx="1" ry="1" transform="matrix(-1.10867 -62.78037 27.34618 -.48292 58.6 26.8)"/><ellipse fill="#ecffff" cx="212" cy="33" rx="45" ry="45"/><ellipse fill="#160007" rx="1" ry="1" transform="rotate(-29.8 114.3 -252.9) scale(12.07113 87.5368)"/><ellipse fill="#efe1db" rx="1" ry="1" transform="matrix(6.9139 -26.08716 40.5721 10.75286 225 119)"/><ellipse fill="#7d260b" rx="1" ry="1" transform="rotate(102.9 2.3 117.9) scale(26.61746 70.78704)"/><ellipse fill="#edebde" rx="1" ry="1" transform="matrix(-2.91314 -19.40448 39.52249 -5.9334 123.5 97)"/><ellipse fill="#e7f1dd" cx="4" rx="87" ry="33"/><path fill="#210c00" d="M168.1 88.1L271 95.5l-20.3-15-86.8-4.1z"/><path fill="#4c342d" d="M182.3 64.5l-56-24.6-82.2 114.6 14.4-77.7z"/><ellipse fill="#704d4b" cx="143" cy="25" rx="27" ry="47"/><path fill="#030205" d="M67.4 158L18.5 28.8l31.6 22.4L-16 91.4z"/><path fill="#2b5361" d="M231 50.4l23 7-5 16.2-23-7z"/><ellipse fill="#e7e8ba" cx="109" cy="14" rx="7" ry="71"/><ellipse fill="#e9ffff" cx="215" cy="16" rx="46" ry="46"/><path fill="#fff" d="M159.2 96l11.8-1.8 3.8 23.7-11.8 1.9z"/><path fill="#0a0d10" d="M187.7 125.9l-17.9 2.2-1.5-12 17.9-2.2z"/><path d="M104.8 108.8l-4.8-8.7 5.2-3 4.8 8.8z"/><path fill="#bfc5c1" d="M104.8 29.6l-52.9.8-14.3 52.9 66.8-19.5z"/><path fill="#eeefe4" d="M123.8 84.2l29.4-17 13 22.6-29.4 17z"/></g></svg>