<svg xmlns="http://www.w3.org/2000/svg" viewBox="0 0 495 277"><filter id="b"><feGaussianBlur stdDeviation="12" /></filter><path fill="#6d646d" d="M0 0h495v276H0z"/><g filter="url(#b)" transform="translate(1 1) scale(1.9336)" fill-opacity=".5"><ellipse rx="1" ry="1" transform="matrix(91.68009 -11.41936 6.4831 52.04942 213 112.7)"/><ellipse fill="ivory" cx="59" cy="7" rx="169" ry="25"/><ellipse fill="#e8f2ff" cx="77" cy="109" rx="43" ry="48"/><ellipse fill="#100000" rx="1" ry="1" transform="matrix(-7.87549 -24.23826 66.72444 -21.68009 8.2 64.4)"/><ellipse fill="#6a2420" rx="1" ry="1" transform="matrix(13.76805 -19.80963 28.67428 19.92914 97.4 38)"/><ellipse fill="#7570d5" cx="220" cy="37" rx="48" ry="32"/><path fill="#0c0407" d="M170 31l101 118L97 32z"/><ellipse fill="#1e1403" rx="1" ry="1" transform="matrix(-22.35036 -4.26305 13.73727 -72.02188 12 116)"/><path fill="#ffe1f3" d="M90.8 62.9l-13 1.1-2.6-30.9 13-1.1z"/><ellipse fill="#0f100a" rx="1" ry="1" transform="matrix(4.74812 24.42696 -128.05924 24.8922 239.1 94)"/><path fill="#c5e0ff" d="M77 54L39 94l42 45z"/><path fill="#f3e9d9" d="M111 0h60v31h-60z"/><path fill="#f0ff7b" d="M172 29h52v9h-52z"/><ellipse fill="#f2eee4" rx="1" ry="1" transform="matrix(1.24699 21.60208 -45.91156 2.65026 33.1 8.8)"/><ellipse fill="#dfe3d7" cx="149" cy="80" rx="15" ry="7"/><path fill="#bbc3db" d="M98 63h27v42H98z"/><ellipse fill="#641bcd" rx="1" ry="1" transform="matrix(-1.04343 -12.9686 33.19358 -2.6707 201.3 52.6)"/><path fill="#cc8754" d="M246.5 123.8l-84 13.3-1-7 84-13.2z"/><ellipse fill="#7c3949" cx="55" cy="134" rx="10" ry="21"/><path d="M254 27.2l9 1-7 66.6-9-1z"/><path fill="#d2f6ff" d="M52 121l-6-50-16 52z"/><path fill="#211314" d="M135 52L92 7l44 84z"/></g></svg>