<svg xmlns="http://www.w3.org/2000/svg" viewBox="0 0 495 277"><filter id="b"><feGaussianBlur stdDeviation="12" /></filter><path fill="#6d646d" d="M0 0h495v276H0z"/><g filter="url(#b)" transform="translate(1 1) scale(1.9336)" fill-opacity=".5"><ellipse cx="199" cy="136" rx="77" ry="77"/><ellipse fill="#fffff3" cx="29" cy="1" rx="200" ry="31"/><ellipse fill="#e7f0ff" rx="1" ry="1" transform="matrix(43.12423 2.10913 -2.38074 48.67786 77.7 110.9)"/><ellipse fill="#0c0000" rx="1" ry="1" transform="rotate(-31.4 127.5 -5.3) scale(51.03115 24.83094)"/><ellipse fill="#3c0000" rx="1" ry="1" transform="matrix(-9.84827 9.0639 -23.61526 -25.65888 105.5 37)"/><ellipse fill="#746fd7" cx="222" cy="38" rx="50" ry="31"/><path fill="#0e0309" d="M126 31h47v40h-47z"/><ellipse fill="#281405" rx="1" ry="1" transform="matrix(-33.94332 -4.13414 9.94889 -81.68537 0 115)"/><ellipse fill="#060802" rx="1" ry="1" transform="rotate(-102.2 149 -41.3) scale(25.10452 111.43414)"/><ellipse fill="#cbe1ff" cx="64" cy="89" rx="24" ry="24"/><ellipse fill="#f0e3d2" rx="1" ry="1" transform="matrix(-5.51322 23.69165 -39.23007 -9.12912 136.2 7.3)"/><ellipse fill="#af696a" rx="1" ry="1" transform="matrix(-5.57496 -41.7824 13.88672 -1.85288 84.2 46.6)"/><path fill="#e4ff7b" d="M174 27h49v12h-49z"/><path fill="#a3abaf" d="M99 70h68v17H99z"/><ellipse fill="#f2efe4" cx="16" rx="66" ry="31"/><path fill="#3d0e09" d="M55.7 58.2L77.2 9.8l9.1 4-21.5 48.4z"/><path fill="#823e4f" d="M118.8 158l-52.6-22-8.3-26.9-20 25.8z"/><path fill="#000503" d="M234 103l34-118 3 100z"/><path fill="#f3d8ea" d="M77 31h10v33H77z"/><ellipse fill="#6702db" cx="207" cy="48" rx="30" ry="10"/><path fill="#8b575a" d="M119 159l-18.2-5.9 18.3-56 18 5.8z"/><ellipse fill="#cddaff" rx="1" ry="1" transform="matrix(7.95585 1.95414 -7.45152 30.33714 43.6 108.8)"/></g></svg>