<svg xmlns="http://www.w3.org/2000/svg" viewBox="0 0 495 277"><filter id="b"><feGaussianBlur stdDeviation="12" /></filter><path fill="#83857e" d="M0 0h495v276H0z"/><g filter="url(#b)" transform="translate(1 1) scale(1.9336)" fill-opacity=".5"><ellipse fill="#fff" cx="211" cy="13" rx="51" ry="28"/><ellipse fill="#fffff3" cx="100" cy="20" rx="40" ry="40"/><ellipse rx="1" ry="1" transform="matrix(11.80325 -53.68427 21.41592 4.7086 170.7 87)"/><ellipse cx="41" cy="62" rx="26" ry="26"/><ellipse fill="#352d2b" rx="1" ry="1" transform="rotate(-177.1 51.5 63.5) scale(44.28329 72.80419)"/><ellipse fill="#d0dbca" cx="255" cy="100" rx="55" ry="55"/><ellipse fill="#becde8" cx="6" cy="18" rx="54" ry="19"/><path d="M120.3 52.6l19.8 6.9-12.4 35.9-19.8-6.9zM135 16h27v12h-27z"/><path fill="#f8d7e2" d="M118 125l29-7-1-56z"/><path fill="#05200a" d="M21.9 64.7l-2.9 33-26.9-2.4 2.9-33z"/><path fill="azure" d="M176 0h80v31h-80z"/><path fill="#00050a" d="M65.6 38.8l1.8 34-47 2.4-1.8-34z"/><ellipse fill="#020005" rx="1" ry="1" transform="rotate(127.1 26.3 98.2) scale(10.79172 33.49679)"/><ellipse fill="#4c4228" rx="1" ry="1" transform="matrix(-7.65387 14.68466 -48.31036 -25.1801 20 132)"/><ellipse fill="#fff" cx="91" cy="140" rx="8" ry="10"/><path fill="#141119" d="M195.7 112.9l-35 3-4.4-50.8 35-3z"/><path fill="#aec9e4" d="M175 113h16v30h-16z"/><path fill="#fffdcd" d="M30.2 125.8l78-29.4L57 110.8 46.8 99.5z"/><path fill="#e4ebda" d="M13 30.3L16.8 60-13 63.7-16.7 34z"/><ellipse fill="#6f693e" cx="222" cy="75" rx="34" ry="6"/><ellipse fill="#dceaff" cx="74" cy="38" rx="8" ry="31"/></g></svg>