<svg width="28" height="42" fill="none" xmlns="http://www.w3.org/2000/svg"><path d="M5.4 22.517l-.002-.002a12.7 12.7 0 0 1-3.96-9.693h0c.23-6.33 5.405-11.63 11.769-12.05 3.532-.201 6.874 1.012 9.423 3.42a12.458 12.458 0 0 1 3.941 9.149c0 3.458-1.443 6.803-3.958 9.173l-.001.001c-2.32 2.194-3.528 5.349-3.339 8.644v.001l.03.567h-3.585V16.621H18.5a1.718 1.718 0 0 0 0-3.435h-9a1.718 1.718 0 0 0 0 3.435h2.782v15.106H8.774c.35-3.431-.89-6.847-3.375-9.21zm3.969 12.646h9.262v4.902c0 .653-.533 1.185-1.186 1.185h-6.89a1.188 1.188 0 0 1-1.186-1.185v-4.902z" stroke="#FF6819" stroke-width="1.5"/></svg>