<svg width="22" height="47" fill="none" xmlns="http://www.w3.org/2000/svg"><path d="M20.713 4.418l-.749-.035v.035h.75zM19.8 2.923l.315-.68-.006-.003-.309.683zM10.776 1l-.003-.75h-.003l.006.75zM1.958 2.923L1.65 2.24l.308.683zm-.03 15.09l.323-.677-.322.678zm4.852 2.309l.336-.67-.007-.004-.007-.003-.322.677zm.03.015h.75v-.463l-.414-.208-.337.67zm0 21.052h-.75v.312l.221.22.528-.532zm4.04 4.01l-.529.532.528.524.529-.524-.529-.533zm4.04-4.01l.528.532.533-.529-.53-.532-.532.53zm-2.02-2.027l-.565-.494-.461.527.494.497.531-.53zm2.02-2.308l.564.494.432-.494-.432-.494-.565.494zm-2.035-2.323l-.565-.493-.432.494.432.494.565-.495zm2.02-2.307l.564.494.43-.491-.427-.494-.567.49zm-2.02-2.338l-.58-.476-.401.488.413.479.568-.49zm2.02-2.456l.579.477.17-.208v-.269h-.75zm0-7.264l-.326-.675-.424.204v.471h.75zM19.785 18l-.323-.677-.003.001.326.676zm.178-13.581V16.52h1.5V4.418h-1.5zm-.479-.814a.826.826 0 0 1 .48.779l1.499.07a2.326 2.326 0 0 0-1.349-2.21l-.63 1.361zM10.778 1.75a20.987 20.987 0 0 1 8.712 1.857l.618-1.367A22.487 22.487 0 0 0 10.773.25l.005 1.5zM2.267 3.607A21.146 21.146 0 0 1 10.78 1.75l-.01-1.5a22.646 22.646 0 0 0-9.12 1.99l.617 1.367zm-.517.81c0-.36.2-.667.517-.81L1.65 2.24a2.374 2.374 0 0 0-1.4 2.178h1.5zm0 12.117V4.418H.25v12.116h1.5zm.5.802a.891.891 0 0 1-.5-.802H.25a2.39 2.39 0 0 0 1.357 2.157l.644-1.355zm4.852 2.309l-4.85-2.308-.645 1.354L6.457 21l.645-1.354zm.044.021l-.03-.015-.672 1.341.029.015.673-1.34zm.413 21.723V20.336h-1.5V41.39h1.5zm3.819 3.477l-4.04-4.01-1.057 1.065 4.04 4.01 1.057-1.065zm2.983-4.01l-4.04 4.01 1.057 1.065 4.04-4.01-1.057-1.064zm-2.023-.964l2.02 2.026 1.063-1.058-2.02-2.027-1.063 1.059zm1.987-3.332l-2.02 2.308 1.129.988 2.02-2.308-1.13-.988zm-2.035-1.334l2.035 2.322 1.129-.988-2.035-2.323-1.129.989zm2.02-3.296l-2.02 2.308 1.129.987 2.02-2.307-1.129-.988zm-2.023-1.354l2.02 2.338 1.135-.98-2.02-2.338-1.135.98zm2.008-3.422l-2.02 2.456 1.159.953 2.02-2.456-1.159-.953zm-.17-6.788v7.264h1.5v-7.264h-1.5zm5.334-3.043l-4.91 2.367.651 1.352 4.91-2.367-.651-1.352zm.504-.803c0 .347-.202.66-.5.802l.643 1.354a2.391 2.391 0 0 0 1.357-2.156h-1.5zM9.433 8.6h2.905V7.1H9.434v1.5zM7.712 6.873c0 .967.783 1.727 1.723 1.727V7.1a.224.224 0 0 1-.223-.227h-1.5zm0-1.287v1.287h1.5V5.586h-1.5zM9.434 3.86c-.97 0-1.723.79-1.723 1.726h1.5c0-.128.101-.226.223-.226v-1.5zm2.905 0H9.434v1.5h2.905v-1.5zm1.723 1.726c0-.966-.784-1.726-1.723-1.726v1.5c.121 0 .223.098.223.226h1.5zm0 1.287V5.586h-1.5v1.287h1.5zM12.339 8.6c.97 0 1.723-.79 1.723-1.727h-1.5a.224.224 0 0 1-.223.227v1.5z" fill="#FF6819"/></svg>