<svg width="73" height="59" fill="none" xmlns="http://www.w3.org/2000/svg"><path d="M46.836 19.771L34.406 37.53l-8.878-8.879L9.547 56.173h59.042L46.836 19.772zm0 0v-7.658m0 0v-9.21h13.762v9.21H46.836z" stroke="#FF6819" stroke-width="4"/><path fill-rule="evenodd" clip-rule="evenodd" d="M7.327 45.963a5.327 5.327 0 1 1 0-10.654 6.215 6.215 0 0 1 12.43 0 5.327 5.327 0 1 1 0 10.654H7.327z" fill="#2529B5"/><path d="M7.327 45.963l1.996-.122-.115-1.878h-1.88v2zm0-10.654v2h2v-2h-2zm12.43 0h-2v2h2v-2zm0 10.654v-2h-2.126l.13 2.123 1.996-.123zm0 0v2h2.126l-.13-2.122-1.996.122zm-12.43 0l-1.996.123.115 1.877h1.881v-2zm0-2A3.327 3.327 0 0 1 4 40.636H0a7.327 7.327 0 0 0 7.327 7.327v-4zM4 40.636a3.327 3.327 0 0 1 3.327-3.327v-4A7.327 7.327 0 0 0 0 40.636h4zm3.327-3.327v-4 4zm2-2a4.215 4.215 0 0 1 4.215-4.215v-4a8.215 8.215 0 0 0-8.215 8.215h4zm4.215-4.215a4.215 4.215 0 0 1 4.215 4.215h4a8.215 8.215 0 0 0-8.215-8.215v4zm6.215 6.215a3.327 3.327 0 0 1 3.327 3.327h4a7.327 7.327 0 0 0-7.327-7.327v4zm3.327 3.327a3.327 3.327 0 0 1-3.327 3.327v4a7.327 7.327 0 0 0 7.327-7.327h-4zm-5.323 5.45l3.992-.245-3.992.245zm1.996-2.123H7.327v4h12.43v-4zM9.323 45.841l-3.992.245 3.992-.245z" fill="#FF6819"/></svg>