<svg width="20" height="14" fill="none" xmlns="http://www.w3.org/2000/svg"><path d="M5.1 5.8h.6c.7 0 1.3-.4 1.8-.9.5-.6.8-1.3.8-2.1S8 1.3 7.4.8C6.9.3 6.1 0 5.4 0s-1.5.3-2 .8-.9 1.2-.9 2 .2 1.5.8 2.1c.4.5 1 .9 1.8.9zM8 7.5c-.7-.4-1.5-.6-2.3-.7H5c-1.1.1-2.3.6-3.2 1.3C.9 8.9.3 10 .1 11.2c-.1.3-.1.5-.1.8v.1c0 .2.1.3.2.4.4.3 1 .6 1.9.8 1.9.5 4.6.5 6.6 0 .7-.2 1.3-.4 1.7-.7l.3-.2s.1-.1.1-.2v-.1c-.1-1.1-.4-2.1-.9-3-.6-.7-1.2-1.2-1.9-1.6zm11.9 3.7c-.1-.7-.4-1.4-.8-2 0 0 0-.1-.1-.1-.5-.7-1.1-1.2-1.8-1.6-.7-.4-1.5-.6-2.4-.6h-.4c-1.2 0-2.4.5-3.3 1.3-.2.2-.4.5-.4.5.5.7.8 1.5 1 2.4.1.3.1.7.1 1v.5l-.1.2c-.2.4-.4.5-.4.5.9.2 2.1.4 3.4.4 2.6 0 4.5-.6 5.1-1.1l.2-.2v-.2c0-.4 0-.7-.1-1zm-5.5-5.3h.4c.8-.1 1.5-.4 2-1s.8-1.3.8-2.1-.3-1.5-.9-2c-.5-.5-1.3-.8-2-.8s-1.5.3-2 .8-.9 1.2-.9 2 .2 1.5.8 2.1c.4.6 1.1.9 1.8 1z" fill="#C4C4C4"/></svg>