<svg width="164" height="164" fill="none" xmlns="http://www.w3.org/2000/svg"><path d="M8.986 147.58l6.647 6.647m9.971-127.174L14.802 37.855m0 0L4 27.053l23.82-23.82L160.766 136.18 136.947 160 14.802 37.855zm22.435-.511l-11.08 11.08m33.606 10.467L47.576 71.078m22.607-1.767L57.997 81.498m34.911 12.029l-10.802 10.802m21.881.276l-10.802 10.802m31.575 12.785l-9.971 9.971m21.05 1.108l-9.971 9.971" stroke="#FF6819" stroke-width="4"/><path d="M78.317 108.395l-35.54 35.307L4 159.446l14.956-39.33 35.935-35.38M82.106 57.52l47.64-47.639c4.246-4.8 15.288-11.854 25.481-1.662 10.193 10.193 4.247 21.235 0 25.482l-48.193 48.193m48.193-47.874L130.853 9.88m18.835 28.806l-24.374-24.374m-82.538 129.39L19.51 120.436m35.453-78.66L37.237 59.502M85.984 76.12L69.366 92.74m49.854 17.725l-15.51 15.511" stroke="#FF6819" stroke-width="4"/></svg>