<svg width="256" height="250" fill="none" xmlns="http://www.w3.org/2000/svg"><mask id="a" maskUnits="userSpaceOnUse" x=".343" y="64.664" width="176.777" height="176.777" fill="#000"><path fill="#fff" d="M.343 64.664H177.12v176.777H.343z"/><path d="M117.048 75.989c-4.286 4.285-11.302 4.282-15.592-.008l-87.664 87.664c4.29 4.29 4.293 11.306.008 15.592l48.747 48.747c4.285-4.286 11.302-4.282 15.592.007l87.663-87.663c-4.289-4.29-4.293-11.306-.007-15.592"/></mask><path d="M101.456 75.981l2.828-2.828-2.828-2.828-2.828 2.828 2.828 2.828zm-87.664 87.664l-2.828-2.828-2.829 2.828 2.829 2.829 2.828-2.829zm.008 15.592l-2.829-2.828-2.828 2.828 2.828 2.828 2.829-2.828zm48.747 48.747l-2.829 2.829 2.829 2.828 2.828-2.828-2.828-2.829zm15.592.007l-2.829 2.829 2.829 2.828 2.828-2.828-2.828-2.829zm87.663-87.663l2.829 2.828 2.828-2.828-2.828-2.829-2.829 2.829zM114.219 73.16c-2.721 2.722-7.204 2.723-9.935-.007l-5.656 5.657c5.849 5.85 15.398 5.858 21.248.007l-5.657-5.657zm-15.591-.007l-87.664 87.664 5.657 5.657 87.663-87.664-5.656-5.657zm-87.664 93.321c2.73 2.73 2.728 7.213.007 9.935l5.657 5.656c5.85-5.85 5.842-15.399-.007-21.248l-5.657 5.657zm.007 15.591l48.747 48.748 5.657-5.657-48.747-48.747-5.657 5.656zm54.404 48.748c2.721-2.722 7.205-2.723 9.935.007l5.657-5.657c-5.85-5.849-15.398-5.858-21.249-.007l5.657 5.657zm15.592.007l87.664-87.664-5.657-5.657-87.664 87.664 5.657 5.657zm87.664-93.321c-2.73-2.73-2.729-7.213-.008-9.935l-5.656-5.656c-5.851 5.85-5.843 15.399.007 21.248l5.657-5.657z" fill="#FF6819" mask="url(#a)"/><path d="M115.064 76.647l49.754 49.714" stroke="#FF6819" stroke-width="2" stroke-dasharray="7 5"/><path d="M43.615 185.872l40.9-40.901m-30.742 51.594l68.435-68.435M65 207.792l68.436-68.435m43.181-81.581l-3.819-2.922.621 4.769 1.422 10.924-9.07 6.253-3.959 2.73 4.727.882 10.829 2.024 3.144 10.558 1.373 4.609 2.3-4.223 5.271-9.674 11.013.273 4.807.119-3.305-3.493-7.571-8.002 3.662-10.39 1.599-4.535-4.344 2.063-9.95 4.728-8.75-6.693z" stroke="#FF6819" stroke-width="4"/><mask id="b" maskUnits="userSpaceOnUse" x="126.072" y="10.706" width="118.782" height="125.737" fill="#000"><path fill="#fff" d="M126.072 10.706h118.782v125.737H126.072z"/><path d="M168.056 123.425c5.249-3.03 12.026-1.211 15.059 4.043l46.551-26.877c-3.033-5.254-1.22-12.032 4.029-15.062l-34.47-59.703c-5.249 3.03-12.025 1.211-15.058-4.043L137.615 48.66c3.033 5.254 1.221 12.032-4.028 15.062"/></mask><path d="M183.115 127.468l-3.464 2 2 3.464 3.464-2-2-3.464zm46.551-26.877l2 3.464 3.464-2-2-3.464-3.464 2zm4.029-15.062l2 3.464 3.464-2-2-3.464-3.464 2zm-34.47-59.703l3.464-2-2-3.464-3.464 2 2 3.464zm-15.058-4.043l3.464-2-2-3.464-3.464 2 2 3.464zM137.615 48.66l-2-3.464-3.464 2 2 3.464 3.464-2zm32.441 78.229c3.333-1.924 7.664-.765 9.595 2.579l6.928-4c-4.136-7.164-13.358-9.644-20.523-5.507l4 6.928zm15.059 4.043l46.551-26.877-4-6.928-46.551 26.876 4 6.929zm48.015-32.341c-1.93-3.344-.768-7.674 2.565-9.598l-4-6.928c-7.165 4.136-9.629 13.362-5.493 20.526l6.928-4zm4.029-15.062l-34.47-59.703-6.928 4 34.47 59.703 6.928-4zm-39.934-61.167c-3.332 1.924-7.664.765-9.594-2.579l-6.929 4c4.137 7.164 13.358 9.644 20.523 5.507l-4-6.928zm-15.058-4.043l-46.552 26.877 4 6.928 46.552-26.877-4-6.928zm-48.016 32.34c1.931 3.344.768 7.675-2.564 9.599l4 6.928c7.165-4.137 9.628-13.362 5.492-20.526l-6.928 4z" fill="#FF6819" mask="url(#b)"/></svg>