<svg width="97" height="93" fill="none" xmlns="http://www.w3.org/2000/svg"><g filter="url(#filter0_d)"><path d="M33.172 14.337A1 1 0 0 1 34.113 13h26.43a1 1 0 0 1 .893.55l10.251 20.33a1 1 0 0 1-.16 1.13L52.366 55.68a1 1 0 0 1-.733.32H26.945a1 1 0 0 1-.813-1.582l13.95-19.492a1 1 0 0 0 .128-.919l-7.038-19.67z" fill="#FF6819"/></g><defs><filter id="filter0_d" x=".944" y="0" width="95.851" height="93" filterUnits="userSpaceOnUse" color-interpolation-filters="sRGB"><feFlood flood-opacity="0" result="BackgroundImageFix"/><feColorMatrix in="SourceAlpha" values="0 0 0 0 0 0 0 0 0 0 0 0 0 0 0 0 0 0 127 0"/><feOffset dy="12"/><feGaussianBlur stdDeviation="12.5"/><feColorMatrix values="0 0 0 0 1 0 0 0 0 0.343478 0 0 0 0 0 0 0 0 0.65 0"/><feBlend in2="BackgroundImageFix" result="effect1_dropShadow"/><feBlend in="SourceGraphic" in2="effect1_dropShadow" result="shape"/></filter></defs></svg>