<svg width="172" height="161" fill="none" xmlns="http://www.w3.org/2000/svg"><g filter="url(#filter0_d)"><path d="M45.483 14.339a1 1 0 0 1 .94-1.339h71.963a1 1 0 0 1 .892.547l27.59 54.33a1 1 0 0 1-.161 1.134l-51.042 54.671a.999.999 0 0 1-.73.318H26.952a1 1 0 0 1-.81-1.585l38.549-53.487a1 1 0 0 0 .13-.924l-19.34-53.665z" fill="#FF6819"/></g><defs><filter id="filter0_d" x=".952" y="0" width="171.024" height="161" filterUnits="userSpaceOnUse" color-interpolation-filters="sRGB"><feFlood flood-opacity="0" result="BackgroundImageFix"/><feColorMatrix in="SourceAlpha" values="0 0 0 0 0 0 0 0 0 0 0 0 0 0 0 0 0 0 127 0"/><feOffset dy="12"/><feGaussianBlur stdDeviation="12.5"/><feColorMatrix values="0 0 0 0 1 0 0 0 0 0.343478 0 0 0 0 0 0 0 0 0.65 0"/><feBlend in2="BackgroundImageFix" result="effect1_dropShadow"/><feBlend in="SourceGraphic" in2="effect1_dropShadow" result="shape"/></filter></defs></svg>