<svg width="101" height="80" fill="none" xmlns="http://www.w3.org/2000/svg"><path d="M77.33 43.251l-23.384 24.04L51.62 77l9.366-2.312 23.384-24.04m-7.04-7.397l7.04 7.396m-7.04-7.396l3.52-3.698c.67-.528 2.313-1.268 3.52 0l4.023 4.226c.335.529.804 1.797 0 2.642-.805.845-2.85 3.346-4.023 4.226M62.467 24.148L49.76 50.202l.7 8.624 7.053-4.404L70.22 28.368m-7.753-4.22l7.753 4.22m-7.753-4.22l1.892-3.987c.407-.614 1.555-1.662 2.884-.939l4.43 2.411c.416.346 1.141 1.266.709 2.178-.433.91-1.437 3.518-2.162 4.556m-50.53 2.429l9.255 32.349 7.297 6.9 2.67-9.276-9.257-32.35m-9.966 2.377l9.966-2.376m-9.966 2.376l-1.462-4.91c-.125-.846.052-2.64 1.76-3.048l5.695-1.358c.628-.025 1.968.207 2.302 1.329.334 1.122 1.49 4.151 1.671 5.61" stroke="#FF6819" stroke-width="3"/><path d="M36.734 66.765l-2.792.558 2.233 2.233.559-2.79zm16.262-10.271l-2.53-1.581.098 3.308 2.432-1.727zm2.572 18.85l-2.3-2.89-1.253 3.902 3.553-1.012z" fill="#FF6819"/><path d="M58.133 52.81l-7.443-3.723m11.165 24.191l-7.444-6.513m-16.286-7.433L28.59 61.88m11.4-41.635l1.86 11.165m45.126-3.722l-7.443 6.978" stroke="#FF6819" stroke-width="3"/><path d="M39.215 4.478l1.882 3.97 4.358-.564-3.195 3.018 1.883 3.97-3.857-2.106-3.194 3.017.81-4.318-3.856-2.106 4.358-.563.81-4.318z" stroke="#FF6819" stroke-width="2.5"/><path d="M95.274 18.053l-1.444 4.1 3.454 2.64-4.346-.106-1.443 4.1-1.242-4.165-4.345-.106 3.577-2.469-1.242-4.165 3.453 2.64 3.578-2.47z" fill="#FF6819"/></svg>