<svg width="88" height="73" fill="none" xmlns="http://www.w3.org/2000/svg"><path d="M59.033 31.044a29.44 29.44 0 0 1 1.994 10.686c0 16.3-13.214 29.513-29.514 29.513C15.213 71.243 2 58.03 2 41.73c0-16.3 13.214-29.514 29.514-29.514 3.768 0 7.372.707 10.685 1.994" stroke="#FF6819" stroke-width="3"/><circle cx="23.568" cy="34.25" r="4.76" transform="rotate(45 23.568 34.25)" stroke="#FF6819" stroke-width="3"/><circle cx="39.892" cy="50.575" r="4.76" transform="rotate(45 39.892 50.575)" stroke="#FF6819" stroke-width="3"/><circle cx="39.893" cy="34.25" r="4.76" transform="rotate(135 39.893 34.25)" stroke="#FF6819" stroke-width="3"/><circle cx="23.568" cy="50.575" r="4.76" transform="rotate(135 23.568 50.575)" stroke="#FF6819" stroke-width="3"/><path d="M74.77 6.319L58.756 23.115v7.263h6.87L81.64 13.582m-6.87-7.263l6.87 7.263m-6.87-7.263l3.435-3.632c.654-.518 2.257-1.245 3.435 0l3.926 4.15c.328.52.786 1.765 0 2.595-.785.83-2.78 3.285-3.926 4.15" stroke="#FF6819" stroke-width="3"/></svg>